<svg width="475" height="793" viewBox="0 0 475 793" fill="none" xmlns="http://www.w3.org/2000/svg">
<path fill-rule="evenodd" clip-rule="evenodd" d="M14.9993 0.960187L1.49925 1.50019L0.999252 14.0002C0.0112523 38.7062 -0.0757477 788.627 0.909252 791.091C1.64225 792.924 1.89725 791.347 1.97525 784.5C2.03225 779.55 2.17325 769.425 2.28825 762L2.49925 748.5L46.9993 748.749C71.4743 748.886 148.199 749.286 217.499 749.638C286.799 749.99 347.549 750.387 352.499 750.519C357.449 750.652 385.687 750.814 415.249 750.88L468.999 751V771.535V792.07L236.937 791.931C109.303 791.854 4.60325 792.063 4.27025 792.395C3.93825 792.728 108.543 793 236.725 793C440.984 793 469.855 792.818 470.35 791.528C470.66 790.719 470.974 777.106 471.047 761.278C471.12 745.45 471.302 728.9 471.452 724.5C471.602 720.1 471.397 714.602 470.997 712.282C470.597 709.962 470.541 707.791 470.874 707.458C471.207 707.125 471.579 702.498 471.699 697.176C472.102 679.422 473.029 457.037 473.658 227.246L474.28 -0.0078125L251.39 0.206188C128.8 0.323188 22.4243 0.663188 14.9993 0.960187ZM370.182 1.79219L361.865 2.08319L364.932 5.57619C366.714 7.60619 367.999 10.1862 367.999 11.7352C367.999 13.8082 368.266 14.1332 369.199 13.2002C371.594 10.8052 372.113 12.0802 370.081 15.3682C367.232 19.9772 367.4 20.3442 372.071 19.7172C381.478 18.4552 395.725 22.4962 402.724 28.4102C406.88 31.9222 411.437 38.6982 412.956 43.6232C413.613 45.7552 414.323 48.0502 414.533 48.7232C414.806 49.5952 416.433 49.2432 420.196 47.5002C424.869 45.3352 425.669 44.5052 427.16 40.2772C429.947 32.3722 429.524 24.3692 425.939 17.1962C420.307 5.92619 412.561 1.72019 397.664 1.84619C388.837 1.92119 387.196 2.23919 381.664 4.95219C375.964 7.74719 376.118 6.90519 382.053 2.81519L384.499 1.13019L381.499 1.31519C379.849 1.41719 374.756 1.63119 370.182 1.79219ZM412.999 2.00019C412.999 2.55019 413.375 3.00019 413.835 3.00019C416.221 3.00019 424.44 10.9372 426.728 15.4492L429.288 20.5002L430.734 15.5422C432.474 9.57819 434.845 6.38519 439.791 3.34319L443.499 1.06219L428.249 1.03119C418.728 1.01219 412.999 1.37619 412.999 2.00019ZM448.499 1.97819C437.152 4.60319 431.205 12.8972 431.189 26.1152C431.186 28.6532 430.459 33.5582 429.574 37.0142C428.688 40.4702 428.084 43.4172 428.231 43.5612C428.379 43.7062 431.308 42.9022 434.741 41.7752L440.984 39.7252L437.491 35.8602C433.005 30.8942 433.015 29.9292 437.512 33.8782C443.204 38.8752 446.729 40.2802 452.239 39.7512C457.846 39.2122 461.12 37.1112 465.749 31.0792C468.68 27.2602 468.996 26.1902 468.966 20.1722C468.938 14.5662 468.496 12.8682 466.199 9.54619C461.895 3.32219 455.153 0.439188 448.499 1.97819ZM461.499 2.48619C467.771 6.94619 470.943 13.1432 471.131 21.3062C471.24 26.0482 470.8 27.4502 467.964 31.3992C463.906 37.0502 460.942 39.0592 454.499 40.5282L449.499 41.6672L453.999 43.6772C461.619 47.0792 468.83 56.2092 470.445 64.5002C470.961 67.1502 470.864 67.0782 469.615 63.8902C464.683 51.3012 453.017 41.9122 442.514 42.0802C436.582 42.1752 428.006 44.8782 426.907 47.0002C426.48 47.8252 424.911 51.0282 423.422 54.1182C421.835 57.4122 419.532 60.4362 417.857 61.4252C413.867 63.7822 414.188 66.8022 418.92 71.4232C422.612 75.0282 423.028 75.1852 426.069 74.1252C432.523 71.8762 435.887 72.6252 440.631 77.3682C444.482 81.2202 444.999 82.2652 444.999 86.1942C444.999 92.2422 441.818 95.3332 435.594 95.3332H431.172L431.352 100.417L431.533 105.5L438.191 105.794C443.814 106.042 445.832 105.634 451.174 103.17C458.067 99.9912 464.546 93.9012 467.848 87.5002C468.982 85.3002 469.93 84.2102 469.955 85.0792C470.01 87.0332 464.995 94.7162 461.555 97.9472C458.149 101.147 458.331 102 462.422 102C464.646 102 466.924 102.907 468.922 104.589L471.999 107.178L471.881 92.3392C471.801 82.3722 471.485 78.4852 470.917 80.5002C470.242 82.8962 470.173 82.5942 470.574 79.0002C471.395 71.6382 472.898 31.6272 472.951 15.7502L472.999 1.00019L466.249 1.03219C460.138 1.06119 459.688 1.19819 461.499 2.48619ZM127.776 3.00019C124.762 3.40519 124.235 3.78619 125.011 5.00019C126.671 7.60019 126.087 11.0032 123.544 13.5452C120.674 16.4162 120.039 16.5142 117.44 14.4852C115.597 13.0462 115.639 13.0012 118.262 13.5962C121.783 14.3952 123.999 12.5942 123.999 8.93419C123.999 5.31619 120.764 3.00019 115.711 3.00019C110.826 3.00019 108.408 4.30919 106.509 7.98019C100.866 18.8942 112.187 31.1332 122.799 25.5892C126.57 23.6192 130.242 19.3962 133.501 13.2822C135.031 10.4122 137.79 7.03719 139.634 5.78219C141.477 4.52719 142.988 3.27519 142.992 3.00019C142.996 2.72519 140.411 2.50019 137.249 2.50019C134.086 2.50019 129.824 2.72519 127.776 3.00019ZM156.423 3.66319C156.928 4.97819 156.774 5.05819 155.605 4.08819C154.808 3.42619 151.902 2.99719 149.09 3.12519C143.161 3.39619 139.896 6.00219 134.21 15.0002C127.222 26.0602 122.329 29.6282 115.624 28.5562C113.384 28.1982 110.685 27.1392 109.625 26.2022C107.769 24.5622 107.724 24.6002 108.368 27.2512C110.797 37.2382 109.874 44.5262 105.337 51.1762C102.252 55.6982 97.6333 58.0002 91.6453 58.0002C86.8783 58.0002 81.9993 56.3472 81.9993 54.7322C81.9993 54.1922 82.7503 54.1302 83.7493 54.5882C84.7123 55.0292 88.3433 55.5672 91.8203 55.7832C98.0763 56.1732 98.1793 56.1372 101.902 52.2222C106.582 47.3032 108.443 41.1152 107.768 32.7112C106.906 21.9692 100.642 12.7292 89.9993 6.49919C87.3353 4.94019 86.5193 4.13919 87.9993 4.53719C91.3963 5.44919 94.5203 7.51719 99.6633 12.2582L103.999 16.2552L104.003 12.8772C104.005 11.0202 104.91 8.01819 106.014 6.20719L108.021 2.91519L87.7503 3.25219C68.7383 3.56919 67.1683 3.74019 62.4883 6.00219C52.1673 10.9922 43.9953 22.3122 44.0033 31.6102C44.0083 37.2432 46.8263 45.9392 49.0103 47.0602C49.8293 47.4802 53.1423 49.0902 56.3733 50.6382C60.7053 52.7142 62.6703 54.3392 63.8573 56.8282C65.4093 60.0832 65.3863 60.2682 63.2003 62.0382C61.3883 63.5052 60.3673 63.6762 58.1073 62.8882C54.2333 61.5372 50.3183 57.2232 48.6853 52.5062C47.4793 49.0252 46.7023 48.3572 41.9503 46.7142C27.0363 41.5592 11.6573 48.2462 5.27025 62.6622C4.02125 65.4832 3.59225 69.1022 3.65425 76.3212C3.73125 85.2662 4.01525 86.6792 6.85225 92.1802C8.56525 95.5012 9.26825 97.6382 8.41525 96.9302C7.56225 96.2222 6.01425 94.0362 4.97525 92.0712L3.08725 88.5002L3.04325 100.827L2.99925 113.154L6.12625 110.026C7.84625 108.306 10.5563 106.639 12.1473 106.32C14.9683 105.756 17.1713 104 15.0583 104C14.4763 104 13.9993 103.513 13.9993 102.918C13.9993 102.324 15.4623 102.735 17.2493 103.832C19.8983 105.458 29.6313 108 33.2073 108C33.6703 108 34.4803 106.865 35.0083 105.477C35.5353 104.089 37.5443 100.489 39.4713 97.4772L42.9743 92.0002H40.0433C38.1613 92.0002 36.5633 91.2162 35.5793 89.8102C33.6433 87.0462 34.4013 86.1492 36.8223 88.3392C39.3143 90.5952 43.1863 90.4272 46.3643 87.9272C49.9753 85.0872 50.0633 78.9732 46.5443 75.4552C45.1943 74.1052 43.2703 73.0002 42.2673 73.0002C39.6923 73.0002 36.1553 75.6972 33.9173 79.3672C32.8663 81.0902 32.0063 81.8252 32.0063 81.0002C32.0063 75.6332 39.7153 69.9052 46.6503 70.1182C50.4013 70.2342 50.4233 70.2552 47.4993 70.9612C44.9953 71.5662 44.7953 71.8152 46.2863 72.4642C48.5653 73.4572 50.9993 78.1322 50.9993 81.5182V84.1362L54.2493 81.8922C56.0373 80.6582 57.6843 79.5052 57.9103 79.3302C58.1353 79.1552 57.6413 78.2222 56.8123 77.2562C53.8193 73.7722 53.7553 72.5612 56.7083 75.3072L59.7263 78.1132L66.1133 75.9492C74.5093 73.1052 90.4463 73.5552 99.1043 76.8822C104.339 78.8932 114.461 84.8712 113.782 85.5502C113.615 85.7182 109.883 84.0842 105.488 81.9192C87.3453 72.9832 68.6663 73.8472 54.8903 84.2602C43.4733 92.8902 36.9393 103.022 33.1213 118.021L31.2173 125.5L39.8583 126.621C51.5783 128.142 56.3683 129.541 63.9103 133.648L70.3203 137.139L72.9713 135.179C78.2443 131.28 88.1273 126.948 92.7623 126.504L97.4993 126.05L93.4263 126.943C77.1393 130.512 65.0173 142.612 63.3123 157.001C62.9873 159.75 62.3183 162 61.8253 162C59.2623 162 64.0392 144.824 67.7402 140.734C69.2102 139.109 69.1843 138.854 67.4183 137.542C58.5673 130.966 41.3443 126.959 29.4993 128.721C19.8963 130.149 11.9303 133.378 7.12525 137.791C2.70225 141.853 2.59325 142.325 2.85425 156.28L2.99925 164.06L5.74925 162.065C9.62625 159.253 19.9993 156.954 19.9993 158.906C19.9993 159.405 17.7113 160.127 14.9143 160.512C11.3493 161.002 8.80725 162.108 6.41425 164.209L2.99925 167.207V180.07V192.933L6.64725 196.581C12.8033 202.737 25.3913 207.579 28.5103 204.991C29.7483 203.964 29.9993 204.107 29.9993 205.84C29.9993 206.987 30.9013 210.336 32.0043 213.283C34.5043 219.965 41.4543 227.15 49.2463 231.107C59.6703 236.401 78.9993 237.605 78.9993 232.96C78.9993 231.302 79.3223 231.19 81.3853 232.13C83.3653 233.032 84.5293 232.774 88.2093 230.617C90.6503 229.187 94.4063 226.496 96.5563 224.637L100.465 221.258L96.7323 217.126C91.8623 211.736 91.8953 209.904 96.7753 214.75C102.092 220.03 109.471 223.718 117.19 224.951C123.639 225.981 129.693 225.165 127.17 223.606C124.979 222.251 125.99 220.158 129.375 219.041C132.456 218.024 132.809 217.493 133.409 212.963C133.772 210.234 134.472 208 134.965 208C135.459 208 136.852 209.389 138.061 211.087C139.995 213.803 140.664 214.098 143.629 213.542C145.63 213.166 146.999 213.315 146.999 213.909C146.999 214.459 145.417 215.206 143.483 215.569C140.414 216.145 139.683 215.866 137.733 213.379L135.499 210.528L134.999 214.402C134.598 217.505 133.852 218.621 131.246 220.014L127.993 221.752L130.246 223.28C132.2 224.606 132.333 225.085 131.249 226.891C129.449 229.889 129.667 230.297 132.749 229.7C134.71 229.32 136.435 229.877 138.759 231.642L142.02 234.118L143.913 229.701C145.145 226.827 146.607 225.074 148.097 224.685C150.267 224.117 150.298 223.988 148.693 222.214C147.761 221.185 147.035 219.253 147.078 217.921C147.121 216.59 147.38 216.051 147.653 216.725C147.926 217.399 148.092 218.216 148.022 218.541C147.953 218.865 149.044 220.034 150.447 221.138C153.772 223.753 153.675 224.307 149.551 226.274C144.473 228.695 143.036 234.102 145.24 242.502C147.616 251.563 156.63 269.164 162.603 276.404C168.391 283.422 173.189 286.687 179.103 287.633C182.921 288.243 183.083 288.162 182.615 285.886C181.008 278.062 181.09 275.188 183.036 271.159C184.296 268.552 185.721 267 186.856 267C189.767 267 190.076 265.885 187.706 263.929C185.566 262.162 185.551 262.013 187.205 259.049L188.912 255.99L185.013 256.614C181.383 257.194 180.972 257.005 179.06 253.869C177.085 250.628 177.006 250.596 177.003 253.027C176.998 256.08 174.434 260 172.442 260C171.648 260 170.999 260.45 170.999 261C170.999 261.55 171.647 262 172.44 262C174.754 262 175.237 263.823 173.557 266.221C171.352 269.369 171.616 270.306 174.548 269.746C177.244 269.231 182.099 272.225 180.755 273.574C180.346 273.985 179.104 273.5 177.995 272.496C176.293 270.956 175.433 270.838 172.488 271.742C168.47 272.975 168.149 272.255 170.749 267.83C172.43 264.969 172.424 264.797 170.607 263.462C169.567 262.697 168.217 261.859 167.607 261.599C165.927 260.881 169.996 258 172.69 258C174.689 258 175.001 257.496 175.014 254.25C175.04 248.07 176.422 247.127 179.146 251.432C181.464 255.094 181.578 255.143 186.749 254.647C189.636 254.371 191.999 254.501 191.999 254.937C191.999 255.373 191.016 256.98 189.814 258.508L187.629 261.285L190.314 263.595C193.525 266.356 193.756 268 190.933 268C184.928 268 182.275 273.369 184.641 280.737C185.482 283.357 186.371 286.137 186.616 286.915C186.939 287.937 188.042 287.381 190.587 284.915C195.588 280.068 199.596 273.453 202.713 264.898C205.237 257.975 205.413 256.408 205.454 240.5L205.499 223.5L202.197 219.394C199.06 215.492 198.7 215.323 194.975 216.004C190.126 216.891 189.625 216.441 191.65 213.014C193.121 210.524 193.114 210.105 191.569 207.747C189.655 204.826 189.979 204.49 195.499 203.666L199.499 203.068L196.159 204.574C193.413 205.812 193.033 206.336 194.021 207.526C194.7 208.344 194.948 210.067 194.592 211.487C194.034 213.709 194.276 214 196.675 214C198.258 214 200.614 215.147 202.326 216.75C204.2 218.505 205.42 219.066 205.697 218.3C206.685 215.576 210.269 212 212.013 212C214.771 212 215.212 210.502 213.033 208.531C211.145 206.823 211.15 206.741 213.307 203.41C214.513 201.548 215.837 200.019 216.249 200.012C217.565 199.991 217.054 202.71 215.499 204C213.592 205.582 213.588 207.414 215.488 208.991C217.416 210.591 216.659 211.697 212.424 213.467C205.948 216.173 205.555 221.39 210.475 239.342C214.902 255.497 219.946 265.908 226.515 272.456C232.235 278.158 242.026 283.552 243.228 281.664C244.519 279.634 244.057 269.075 242.515 265.385C241.165 262.154 240.762 261.893 238.038 262.491C236.391 262.853 234.122 262.857 232.996 262.499C230.994 261.864 231.006 261.78 233.527 258.785L236.105 255.72L233.416 252.913L230.727 250.106L233.113 249.583C234.425 249.295 236.613 248.934 237.975 248.78C239.865 248.566 240.814 247.512 241.992 244.316C244.219 238.271 244.744 238.17 247.034 243.345C248.827 247.399 249.482 248 252.105 248C253.858 248 254.859 248.418 254.499 249C253.103 251.259 249.058 249.98 246.721 246.541L244.371 243.083L243.12 246.541C242.119 249.309 241.333 250.003 239.184 250.015C237.707 250.024 235.876 250.425 235.114 250.908C234.007 251.609 234.158 252.015 235.864 252.928C238.556 254.368 238.551 255.408 235.842 257.932C233.46 260.15 234.044 260.674 239.492 261.207C241.613 261.415 242.866 262.3 243.796 264.25C245.457 267.73 246.034 267.664 248.515 263.711C249.623 261.945 251.527 260.357 252.744 260.183C254.818 259.886 254.862 259.721 253.443 257.555C252.053 255.433 252.116 254.952 254.214 251.664C255.471 249.696 257.062 248.066 257.749 248.042C259.645 247.978 259.266 249.112 256.387 252.117C253.914 254.699 253.861 254.964 255.387 257.144C257.602 260.306 257.454 260.741 253.897 261.522C249.522 262.483 245.894 270.413 246.699 277.25C247.007 279.863 247.763 281.987 248.379 281.972C250.764 281.913 257.521 275.741 262.147 269.396C265.773 264.423 267.716 260.336 269.885 253.127C278.321 225.083 277.742 212 268.065 212C265.44 212 265.455 211.261 268.123 209.101C270.143 207.465 270.169 207.23 268.65 204.292C267.092 201.28 267.112 201.188 269.446 200.603C270.763 200.272 272.517 200.262 273.345 200.579C274.367 200.971 275.594 199.852 277.174 197.086C278.453 194.847 279.873 193.012 280.329 193.008C280.786 193.003 281.867 194.8 282.731 197C283.999 200.228 284.804 201.003 286.901 201.015C288.33 201.024 290.166 201.452 290.981 201.968C292.225 202.754 292.028 203.36 289.759 205.729C287.203 208.397 287.135 208.708 288.526 211.39C289.336 212.951 289.999 214.402 289.999 214.614C289.999 215.484 284.07 214.923 283.499 214C283.159 213.45 283.808 213 284.94 213C287.3 213 287.412 212.639 285.913 209.84C285.033 208.195 285.242 207.37 287.021 205.477L289.214 203.143L285.856 202.821C283.022 202.55 282.325 201.961 281.382 199.043L280.264 195.586L278.606 198.793C277.222 201.469 276.372 202 273.473 202C269.618 202 269.474 202.187 271.205 204.958C272.191 206.537 272.094 207.238 270.669 208.812C268.992 210.665 269.038 210.758 271.937 211.338C274.069 211.764 275.131 212.677 275.581 214.47C276.345 217.516 277.552 217.703 278.999 215C281.102 211.071 281.998 213.081 279.942 217.112C278.057 220.806 277.907 222.307 278.463 231.862C280.157 260.951 282.376 269.093 290.823 277.22C298.308 284.421 299.243 284.291 300.484 275.878C300.931 272.851 300.633 270.32 299.52 267.677C298.005 264.077 297.682 263.87 293.998 264.136C288.741 264.516 287.973 263.395 291.538 260.544L294.499 258.177L292.249 255.774C291.011 254.452 289.999 253.063 289.999 252.686C289.999 252.308 291.969 252 294.376 252C298.702 252 298.779 251.939 301.018 246.75C303.455 241.102 303.124 240.973 306.003 248.693C306.712 250.592 308.067 252.075 309.347 252.352C310.685 252.641 310.387 252.757 308.557 252.659C306.129 252.528 305.468 251.932 304.778 249.25C303.704 245.077 302.709 245.143 300.999 249.5C299.814 252.519 299.171 253 296.312 253C292.573 253 292.284 253.552 294.654 256.171C296.194 257.873 296.194 258.127 294.654 259.829C292.342 262.384 292.572 263 295.838 263C297.897 263 298.991 263.688 299.817 265.5C301.254 268.653 302.341 268.653 304.407 265.5C305.425 263.947 306.983 263 308.522 263C311.343 263 311.707 261.832 309.466 259.972C308.103 258.841 308.158 258.459 309.966 256.535C311.084 255.345 311.999 253.838 311.999 253.186C311.999 252.533 312.674 252 313.499 252C315.843 252 315.26 254.599 312.513 256.399C310.033 258.024 310.031 258.032 312.013 260.014C314.886 262.887 314.469 264 310.519 264C307.475 264 306.788 264.493 305.029 267.942C303.386 271.161 303.134 272.995 303.651 277.942C304.005 281.329 304.772 283.998 305.391 283.996C307.434 283.989 313.125 279.97 318.015 275.079C322.268 270.827 331.999 254.138 331.999 251.098C331.999 250.579 330.312 249.616 328.249 248.958C312.706 243.997 300.552 233.837 295.999 222C292.914 213.979 292.624 202.192 295.325 194.617C296.282 191.931 296.938 189.635 296.782 189.514C296.627 189.394 294.249 188.751 291.499 188.087C285.622 186.667 277.579 182.946 273.873 179.93L271.246 177.794L263.373 180.576C249.294 185.551 234.241 183.834 221.879 175.844C218.608 173.73 215.716 172 215.452 172C215.189 172 213.843 174.388 212.461 177.306C211.079 180.224 207.978 184.837 205.571 187.556L201.193 192.5L203.28 196.25C205.197 199.694 205.724 200 209.742 200C212.404 200 213.875 200.392 213.499 201C213.159 201.55 211.14 202 209.013 202C206.082 202 204.67 201.397 203.186 199.51C201.323 197.142 201.201 197.118 200.707 199.01C200.42 200.105 199.726 201 199.162 201C198.5 201 198.443 199.94 198.999 198C199.472 196.35 199.72 195 199.55 195C199.38 195 196.599 196.593 193.37 198.541C184.754 203.737 178.615 205.228 167.459 204.834C161.241 204.614 158.005 204.109 158.003 203.359C158.001 202.731 156.312 201.504 154.249 200.633C150.072 198.867 143.095 193.454 146.499 194.619C147.599 194.996 149.174 195.875 149.999 196.573C154.141 200.077 162.552 202.371 171.499 202.435C179.904 202.496 181.019 202.252 188.364 198.745C194.063 196.024 197.839 193.318 202.077 188.919C207.642 183.143 212.999 174.077 212.999 170.435C212.999 169.506 211.637 165.979 209.973 162.598C208.308 159.217 206.704 154.662 206.408 152.475C205.241 143.859 205.671 144.319 198.264 143.762C189.127 143.076 181.664 139.583 175.999 133.341C173.524 130.614 170.732 126.947 169.796 125.192C168.715 123.167 167.329 122 166.006 122C160.765 122 152.201 115.159 148.512 108.026C147.674 106.405 146.308 102.145 145.476 98.5592C144.13 92.7522 144.128 91.2512 145.466 84.8372C146.292 80.8762 146.753 77.4212 146.491 77.1592C146.229 76.8972 143.649 76.7582 140.757 76.8502C129.603 77.2052 114.888 87.9302 108.308 100.5C104.942 106.93 101.999 116.879 101.999 121.827C101.999 125.043 102.409 125.304 109.27 126.462C113.392 127.158 119.339 131.781 121.409 135.898C124.939 142.921 123.883 153.402 118.916 160.62C109.393 174.462 89.8693 173.9 88.2733 159.737C87.7303 154.92 89.7033 150 92.1773 150C92.8413 150 92.6453 150.734 91.7023 151.776C90.8183 152.753 89.8083 155.342 89.4583 157.529C88.2203 165.271 95.3642 169.973 105.171 167.87C107.859 167.293 111.369 165.718 112.973 164.369C115.714 162.062 120.18 155.769 120.673 153.517C122.657 144.461 121.558 138.845 116.723 133.338C112.957 129.049 108.561 127 103.126 127H99.1893L99.6823 122.75C101.662 105.656 108.961 91.5252 119.852 83.7012C128.671 77.3652 132.736 75.7782 140.908 75.4792C148.171 75.2132 148.505 75.0902 151.26 71.6562C153.981 68.2642 154.039 67.9782 152.58 65.1562C144.912 50.3292 152.097 31.0032 169.444 19.7912C177.344 14.6852 184.592 12.6732 194.422 12.8582C201.455 12.9902 203.064 13.4022 208.74 16.5222L215.135 20.0372L220.317 18.4522C227.58 16.2322 243.159 15.4752 251.562 16.9352C265.65 19.3822 280.25 26.9512 288.129 35.8912C294.272 42.8612 292.619 43.0672 285.853 36.1752C278.448 28.6302 273.957 25.8882 262.338 21.8172C255.051 19.2632 251.479 18.6342 241.999 18.2352C234.98 17.9392 228.253 18.2172 224.736 18.9492C215.51 20.8672 205.786 26.2972 200.05 32.7322C194.597 38.8502 186.274 53.7472 187.647 54.9302C188.116 55.3332 190.455 56.2202 192.846 56.9012C195.237 57.5822 196.967 58.3652 196.69 58.6422C196.413 58.9192 194.457 58.6652 192.343 58.0782C184.22 55.8232 175.099 57.3572 164.499 62.7602C155.428 67.3842 149.611 74.6312 147.049 84.5002C143.795 97.0332 149.632 111.882 160.194 117.939C167.619 122.197 167.999 122.054 167.999 115C167.999 107.665 169.476 106.981 169.789 114.171C169.913 117.015 170.454 120.977 170.992 122.974C173.525 132.381 186.597 141.129 199.183 141.841L205.999 142.226V139.172C205.999 137.492 206.402 135.869 206.894 135.565C207.393 135.256 207.771 138.673 207.75 143.306C207.707 152.702 208.883 157.271 213.237 164.626C221.233 178.133 244.65 184.94 262.588 178.97C269.295 176.739 269.972 176.053 267.499 174C264.69 171.668 265.987 170.931 268.991 173.152L271.983 175.364L274.487 173.011C275.864 171.717 277.242 170.909 277.548 171.215C277.854 171.522 276.853 172.756 275.323 173.959L272.542 176.147L275.021 178.144C278.923 181.29 287.157 184.892 292.959 185.992C306.498 188.56 328.992 185.969 338.293 180.771C345.459 176.766 358.736 165.027 362.238 159.601C363.977 156.906 365.561 155.185 365.758 155.777C365.955 156.369 364.916 158.756 363.448 161.081L360.779 165.309L367.64 164.733C380.305 163.672 391.508 157.84 397.22 149.335C400.929 143.812 403.089 135.034 402.963 126C402.832 116.695 402.928 116.007 403.999 118.5C405.387 121.729 405.12 133.282 403.536 138.544C402.731 141.219 402.252 143.586 402.471 143.806C403.465 144.799 412.282 139.279 416.36 135.11C424.845 126.436 429.254 114.483 429.178 100.355C429.134 91.9642 428.845 90.6442 425.674 84.3552C422.103 77.2722 413.213 67.7012 407.47 64.7562C405.836 63.9192 400.466 62.2282 395.536 60.9992C386.026 58.6282 379.989 58.6762 372.499 61.1832L368.499 62.5212L368.86 70.7612C369.092 76.0672 368.847 79.0002 368.173 79.0002C367.538 79.0002 367.344 77.6502 367.68 75.5772C369.928 61.7252 355.275 46.9232 337.784 45.3752C331.266 44.7992 316.688 47.4322 309.296 50.5202C303.791 52.8202 302.987 52.1742 308.062 49.5292C315.199 45.8112 324.622 43.6952 334.499 43.5932C342.62 43.5092 344.134 43.8052 349.999 46.6172C356.229 49.6052 363.654 55.5952 365.61 59.2132C366.48 60.8212 366.809 60.8242 371.018 59.2562C378.524 56.4612 391.799 56.9262 401.739 60.3332C406.27 61.8862 410.234 63.5722 410.548 64.0792C412.123 66.6282 412.999 64.2562 412.999 57.4432C412.999 47.5752 411.648 42.5542 407.43 36.7482C400.392 27.0622 389.553 21.7532 376.499 21.5962C369.823 21.5162 367.571 21.9352 362.893 24.1292C357.357 26.7252 351.039 32.1852 345.684 39.0002L342.934 42.5002L344.592 39.0582C345.503 37.1652 348.508 33.2272 351.269 30.3082C355.535 25.7982 355.969 25.0002 354.16 25.0002C351.047 25.0002 346.698 20.4272 342.509 12.7502C337.761 4.04719 339.522 3.92619 344.599 12.6062C348.838 19.8552 353.049 24.0002 356.175 24.0002C359.698 24.0002 365.128 20.7902 366.159 18.0972C367.432 14.7722 365.829 9.13919 362.475 5.15319L360.004 2.21719L345.004 2.08719C331.672 1.97119 329.555 2.18619 325.962 4.01919C318.401 7.87619 315.448 17.5942 320.249 22.8212C322.462 25.2322 322.464 25.2532 320.354 24.1572C314.897 21.3212 315.506 11.2932 321.499 5.30019L324.82 1.97919L240.311 2.01119C162.834 2.04119 155.853 2.17819 156.423 3.66319ZM2.71325 3.75019C2.49125 4.16219 2.57725 6.96019 2.90425 9.96619L3.49925 15.4322L4.82225 12.5092C6.18525 9.49719 8.13925 7.74719 13.4373 4.79219L16.4993 3.08419L9.80825 3.04219C6.12825 3.01919 2.93525 3.33719 2.71325 3.75019ZM33.4993 6.47719C35.6993 8.37319 37.7853 9.94219 38.1353 9.96219C39.1723 10.0242 42.3183 17.2222 42.9603 21.0002L43.5543 24.5002L45.8173 19.8512C48.6923 13.9442 53.5003 9.24319 60.2153 5.77419L65.4993 3.04319L47.4993 3.03619L29.4993 3.03019L33.4993 6.47719ZM349.794 5.91219C349.098 8.33719 350.354 11.8702 352.399 13.2352C354.089 14.3632 357.797 14.1352 358.589 12.8542C359.083 12.0552 358.538 11.8992 356.789 12.3382C353.7 13.1132 351.311 10.7742 350.826 6.50019C350.499 3.61919 350.458 3.59619 349.794 5.91219ZM12.5933 7.26619C4.83025 11.7062 2.01425 18.8762 4.55025 27.7422C7.32025 37.4212 16.0073 42.9772 28.4313 43.0162C31.2183 43.0242 36.1953 43.6652 39.4913 44.4412C42.7863 45.2162 45.5783 45.7552 45.6943 45.6392C45.8103 45.5232 45.1783 43.1942 44.2903 40.4642C43.4023 37.7342 42.5193 34.8892 42.3273 34.1432C42.0923 33.2262 40.6823 33.9572 37.9863 36.3932C33.0143 40.8842 31.5513 41.1122 35.6913 36.7502C44.9883 26.9532 43.8563 15.9802 32.7183 7.91119C29.3153 5.44719 27.7633 5.00319 22.5993 5.01619C18.1413 5.02819 15.4473 5.63419 12.5933 7.26619ZM444.22 12.0502C444.583 14.5292 444.137 15.4782 441.833 17.1182C440.274 18.2282 438.999 19.4842 438.999 19.9102C438.999 20.3352 440.785 21.2192 442.968 21.8732C446.357 22.8882 447.111 23.6422 448.126 27.0312C448.78 29.2142 449.775 31.0002 450.336 31.0002C452.263 31.0002 457.909 23.9292 457.284 22.2992C456.876 21.2382 457.138 20.8812 458.09 21.2002C458.865 21.4602 459.5 22.5332 459.5 23.5862C459.501 24.6392 459.85 25.4212 460.275 25.3252C463.242 24.6542 463.366 24.1292 461.13 21.6972C459.021 19.4012 458.886 18.7622 459.897 15.8622C460.807 13.2542 460.753 12.3252 459.626 11.1982C458.459 10.0312 457.626 10.0062 454.745 11.0472C451.77 12.1232 450.931 12.0662 448.912 10.6522C445.217 8.06319 443.701 8.51519 444.22 12.0502ZM23.3593 13.0852C21.5633 14.8802 20.7753 15.0322 17.6813 14.1782C12.8243 12.8372 11.3293 14.5062 13.0733 19.3282C14.1793 22.3872 14.0793 23.0792 12.1373 25.8062C10.8053 27.6772 10.3573 29.1032 10.9813 29.4892C11.5413 29.8352 11.9993 29.5252 11.9993 28.8002C11.9993 28.0742 12.8593 26.9442 13.9103 26.2882C15.4483 25.3272 15.9303 25.3782 16.3793 26.5472C16.7103 27.4112 16.3413 28.0002 15.4683 28.0002C14.6603 28.0002 13.9993 28.4982 13.9993 29.1072C13.9993 29.7162 14.6583 29.9612 15.4633 29.6522C16.3593 29.3082 17.7443 30.2372 19.0313 32.0452C20.1883 33.6702 21.4833 35.0002 21.9093 35.0002C22.3343 35.0002 23.2183 33.2142 23.8723 31.0312C24.8873 27.6422 25.6413 26.8882 29.0303 25.8732C33.7623 24.4552 34.0933 22.5292 30.0053 20.2032C28.3593 19.2672 27.0093 17.9072 27.0053 17.1832C27.0013 16.2962 26.3063 16.0852 24.8813 16.5382C23.3443 17.0252 22.8933 16.8382 23.2383 15.8552C23.5003 15.1102 24.4533 14.5632 25.3573 14.6392C26.3493 14.7232 26.9993 14.0302 26.9993 12.8892C26.9993 10.4432 25.9443 10.5002 23.3593 13.0852ZM445.691 12.9312C445.996 14.0982 446.761 14.6452 447.623 14.3142C448.718 13.8942 448.783 13.4442 447.902 12.3832C446.252 10.3952 445.103 10.6802 445.691 12.9312ZM454.624 13.2852C452.963 14.5002 452.978 14.6712 454.907 16.4172C456.908 18.2282 456.968 18.2112 457.974 15.5672C458.538 14.0832 458.999 12.6742 458.999 12.4352C458.999 11.5292 456.311 12.0512 454.624 13.2852ZM146.541 13.9312C146.15 14.5642 146.513 14.7402 147.46 14.3772C148.32 14.0462 149.767 14.3892 150.674 15.1382C152.084 16.3022 152.253 16.2822 151.833 15.0002C151.248 13.2112 147.459 12.4462 146.541 13.9312ZM185.711 15.1532C177.929 16.6262 170.839 20.3272 164.424 26.2672C153.822 36.0822 149.533 47.7912 152.469 58.8992C153.254 61.8682 154.293 64.6942 154.777 65.1782C155.285 65.6862 158.165 64.5492 161.579 62.4932C167.703 58.8042 178.394 55.0002 182.636 55.0002C184.081 55.0002 185.272 54.2932 185.582 53.2502C185.868 52.2882 187.541 48.6082 189.3 45.0722C192.962 37.7142 204.698 25.0792 209.749 23.0582C211.536 22.3432 212.999 21.4232 212.999 21.0152C212.999 20.6072 210.411 19.1392 207.249 17.7532C200.589 14.8342 192.532 13.8612 185.711 15.1532ZM325.199 15.2002C324.539 15.8602 324.009 17.0982 324.021 17.9502C324.037 19.0512 324.579 18.8042 325.893 17.0942C328.007 14.3452 330.871 14.7932 331.711 18.0052C331.998 19.1022 332.63 20.0002 333.116 20.0002C334.422 20.0002 334.194 18.7242 332.442 16.2232C330.749 13.8052 327.108 13.2912 325.199 15.2002ZM14.4443 17.6372C15.4093 21.4812 15.6643 21.6132 18.0163 19.4842C20.2183 17.4912 19.8023 16.6202 16.1133 15.5022C13.8923 14.8292 13.7763 14.9762 14.4443 17.6372ZM447.319 16.8842C446.998 18.1112 446.199 18.6042 445.026 18.2972C444.035 18.0382 442.922 18.3152 442.553 18.9132C442.183 19.5112 442.47 20.0382 443.19 20.0832C445.727 20.2452 448.533 20.8162 451.677 21.8122C455.856 23.1362 457.03 20.7262 453.853 17.3452C451.2 14.5212 447.996 14.2952 447.319 16.8842ZM159.774 20.0402C156.235 26.2682 147.256 26.9622 145.135 21.1722C144.261 18.7852 144.148 18.7322 144.078 20.6822C143.976 23.5092 148.843 27.0002 152.888 27.0002C156.938 27.0002 162.333 22.3152 161.847 19.2202C161.521 17.1412 161.392 17.1922 159.774 20.0402ZM19.1913 20.2952C15.2783 24.4612 17.2653 28.5342 21.9793 26.0112C23.5893 25.1492 24.0403 24.1022 23.8073 21.7612C23.4153 17.8052 21.9643 17.3442 19.1913 20.2952ZM25.9993 20.9182C25.9993 21.4232 25.7263 22.5482 25.3923 23.4182C24.6803 25.2732 25.8063 25.4062 29.6843 23.9252L32.4993 22.8492L29.9993 21.4602C27.0343 19.8132 25.9993 19.6722 25.9993 20.9182ZM331.203 23.0452C330.362 24.3922 328.818 25.0222 326.241 25.0702C323.388 25.1242 322.971 25.3252 324.483 25.9152C325.574 26.3422 327.233 26.4902 328.168 26.2452C330.063 25.7502 333.572 22.2392 332.872 21.5392C332.625 21.2932 331.874 21.9702 331.203 23.0452ZM171.499 23.1882C167.34 25.5322 160.016 32.2362 157.935 35.6042C154.656 40.9092 156.101 40.5522 160.527 34.9652C162.69 32.2342 164.693 29.9812 164.979 29.9572C165.657 29.9022 174.655 21.9972 173.999 22.0332C173.724 22.0482 172.599 22.5682 171.499 23.1882ZM449.339 25.1362C449.687 26.4362 449.978 27.8372 449.985 28.2502C450.013 29.7832 451.966 28.9302 453.045 26.9142C454.325 24.5232 454.311 24.4992 451.103 23.5102C448.949 22.8472 448.77 23.0122 449.339 25.1362ZM371.249 24.6892C372.211 24.9412 373.787 24.9412 374.749 24.6892C375.711 24.4382 374.924 24.2322 372.999 24.2322C371.074 24.2322 370.287 24.4382 371.249 24.6892ZM386.812 25.6832C387.533 25.9722 388.396 25.9362 388.728 25.6042C389.06 25.2722 388.47 25.0362 387.416 25.0792C386.251 25.1272 386.014 25.3642 386.812 25.6832ZM371.999 27.0002C369.63 27.7592 369.67 27.8062 372.749 27.9002C374.537 27.9552 375.999 27.5502 375.999 27.0002C375.999 25.8702 375.528 25.8702 371.999 27.0002ZM20.1793 28.2842C19.4943 29.1082 19.4503 30.0912 20.0563 31.0342C20.8823 32.3182 21.1213 32.3142 21.9843 31.0002C24.0623 27.8352 22.5013 25.4862 20.1793 28.2842ZM80.3242 32.3412C76.8742 35.5022 76.7942 35.7132 78.8382 36.2482C80.4872 36.6792 80.9993 36.3672 80.9993 34.9322C80.9993 32.2612 86.4403 29.6732 90.4683 30.4282C93.8883 31.0702 95.9993 34.1212 95.9993 38.4252C95.9993 41.6692 93.4423 43.4552 88.7983 43.4552C85.7733 43.4552 84.4163 42.8792 82.9933 40.9922C81.9723 39.6382 80.8193 38.8472 80.4323 39.2342C79.1253 40.5412 82.9093 44.8212 85.9653 45.4932C93.2543 47.0942 98.7643 42.8712 97.4563 36.6862C95.6983 28.3652 87.0542 26.1732 80.3242 32.3412ZM2.80525 36.5562C2.63725 39.8252 2.64125 46.8922 2.81625 52.2602L3.13225 62.0212L7.50725 56.2012C10.3963 52.3582 13.6783 49.4042 17.1733 47.5022L22.4643 44.6222L17.9333 43.4662C11.7853 41.8982 8.41625 39.5102 5.53525 34.6782L3.11025 30.6122L2.80525 36.5562ZM360.656 34.6322C358.542 36.0152 357.027 37.3612 357.289 37.6232C357.679 38.0142 364.315 34.0172 365.89 32.4432C367.233 31.0992 363.968 32.4652 360.656 34.6322ZM160.671 38.2502C158.706 41.1382 156.847 44.8502 156.54 46.5002L155.981 49.5002L157.252 46.2302C157.951 44.4322 160.188 40.7192 162.223 37.9802C164.259 35.2412 165.546 33.0002 165.083 33.0002C164.621 33.0002 162.635 35.3622 160.671 38.2502ZM164.979 38.5242C164.283 39.3622 163.908 40.2422 164.144 40.4792C164.381 40.7152 165.124 40.0302 165.795 38.9552C167.247 36.6302 166.763 36.3752 164.979 38.5242ZM276.871 38.7502C275.628 40.3362 275.663 40.3712 277.249 39.1282C278.915 37.8212 279.444 37.0002 278.621 37.0002C278.414 37.0002 277.626 37.7882 276.871 38.7502ZM75.4993 39.0002C75.1593 39.5502 75.3583 40.0002 75.9403 40.0002C76.5223 40.0002 76.9993 39.5502 76.9993 39.0002C76.9993 38.4502 76.8013 38.0002 76.5583 38.0002C76.3153 38.0002 75.8393 38.4502 75.4993 39.0002ZM359.44 39.5552C357.576 41.0492 357.588 41.0672 359.749 40.0202C360.987 39.4202 361.999 38.7202 361.999 38.4652C361.999 37.7002 361.48 37.9212 359.44 39.5552ZM75.6793 42.7102C74.6583 44.3612 75.8613 48.6472 77.7843 50.2092C79.1643 51.3302 79.2673 51.2362 78.5633 49.5002C78.1173 48.4002 77.4523 46.1522 77.0853 44.5052C76.6693 42.6332 76.1423 41.9602 75.6793 42.7102ZM293.04 43.2712C292.995 44.1202 298.043 52.0002 298.632 52.0002C298.834 52.0002 298.999 51.4212 298.999 50.7122C298.999 49.3332 293.108 41.9772 293.04 43.2712ZM278.721 51.2502C274.865 56.0542 272.698 59.8342 275.999 56.0002C280.639 50.6102 281.65 49.3732 282.37 48.2082C284.047 45.4952 281.914 47.2732 278.721 51.2502ZM421.491 48.2122C416.925 50.6452 414.999 53.3042 414.999 57.1742C414.999 61.5712 415.803 61.9102 418.745 58.7502C420.831 56.5092 424.596 48.2632 423.866 47.5342C423.655 47.3232 422.586 47.6282 421.491 48.2122ZM164.926 51.6912C164.364 53.1712 164.041 55.5342 164.209 56.9412C164.427 58.7712 164.827 58.0042 165.613 54.2502C166.812 48.5202 166.531 47.4722 164.926 51.6912ZM50.1263 52.2502C53.5933 58.7622 59.2423 63.2042 61.9393 61.5372C63.5673 60.5312 63.1993 57.4792 61.2493 55.8272C58.4563 53.4592 52.0193 50.0002 50.4073 50.0002C49.1863 50.0002 49.1373 50.3912 50.1263 52.2502ZM279.889 56.2502C278.714 58.4882 278.719 58.4902 280.853 56.5952C283.237 54.4792 283.455 54.0002 282.034 54.0002C281.504 54.0002 280.538 55.0132 279.889 56.2502ZM296.536 58.0912C291.983 63.1302 282.999 76.7612 282.999 78.6282C282.999 81.0502 283.907 80.1152 286.475 75.0482C289.123 69.8212 296.579 60.1632 300.918 56.3382C302.885 54.6042 303.11 54.0562 301.865 54.0322C300.967 54.0142 298.569 55.8412 296.536 58.0912ZM276.963 61.1642C275.818 63.3972 275.845 63.4242 277.573 61.7742C278.567 60.8242 279.106 59.7732 278.77 59.4382C278.435 59.1032 277.622 59.8802 276.963 61.1642ZM280.794 62.2232C277.607 66.4282 275.978 69.5262 276.081 71.1842C276.125 71.9082 276.839 70.9252 277.666 69.0002C278.493 67.0752 280.336 64.2672 281.761 62.7602C283.187 61.2542 284.111 59.7792 283.816 59.4832C283.52 59.1882 282.16 60.4202 280.794 62.2232ZM285.071 64.7502C281.446 68.9652 276.271 79.6052 277.329 80.6642C277.55 80.8842 278.316 79.5872 279.033 77.7822C279.75 75.9772 282.191 71.8002 284.457 68.5002C289.682 60.8912 290.225 60.0002 289.636 60.0002C289.371 60.0002 287.317 62.1382 285.071 64.7502ZM336.827 76.0372C334.574 77.3512 330.989 83.2852 331.039 85.6182C331.064 86.7872 331.824 85.9842 333.044 83.5002C334.125 81.3002 336.245 78.4902 337.755 77.2552C340.518 74.9942 339.932 74.2242 336.827 76.0372ZM377.078 76.5832C377.126 77.7482 377.363 77.9852 377.682 77.1882C377.971 76.4662 377.935 75.6032 377.603 75.2712C377.271 74.9392 377.035 75.5292 377.078 76.5832ZM425.78 76.0622C424.171 77.0002 424.167 77.2852 425.716 80.5322C427.295 83.8452 428.999 85.1252 428.999 83.0002C428.999 81.0882 433.014 78.0002 435.499 78.0002C438.292 78.0002 438.852 76.5412 436.417 75.6072C433.987 74.6742 427.7 74.9432 425.78 76.0622ZM64.2422 80.8412C61.9012 81.7912 58.9763 83.5872 57.7423 84.8302C55.9463 86.6402 56.8953 86.3662 62.4993 83.4562C72.0433 78.5022 72.8002 77.3652 64.2422 80.8412ZM377.149 81.1252C377.066 82.5692 376.776 85.2692 376.502 87.1252L376.006 90.5002L377.059 87.1442C377.638 85.2982 377.928 82.5982 377.705 81.1442L377.299 78.5002L377.149 81.1252ZM433.249 80.9822C426.583 87.1922 431.758 96.4132 439.994 93.0022C443.608 91.5052 444.9 86.6592 442.837 82.3352C441.082 78.6542 436.449 78.0012 433.249 80.9822ZM366.623 83.6982C365.558 89.4172 360.835 96.2312 356.507 98.2952C351.639 100.616 343.623 100.48 338.478 97.9902C334.7 96.1612 333.041 94.2192 331.651 90.0002C331.329 89.0212 331.129 89.2352 331.078 90.6152C330.963 93.6892 334.731 97.9742 339.42 100.104C350.533 105.151 363.064 99.5292 366.919 87.7672C367.592 85.7142 367.977 83.0142 367.774 81.7672C367.51 80.1462 367.182 80.6972 366.623 83.6982ZM374.078 84.5832C374.126 85.7482 374.363 85.9852 374.682 85.1882C374.971 84.4662 374.935 83.6032 374.603 83.2712C374.271 82.9392 374.035 83.5292 374.078 84.5832ZM202.999 87.0002C202.41 88.1002 202.154 89.0002 202.429 89.0002C202.704 89.0002 203.41 88.1002 203.999 87.0002C204.588 85.9002 204.844 85.0002 204.569 85.0002C204.294 85.0002 203.588 85.9002 202.999 87.0002ZM367.42 92.6372C366.276 94.9852 365.717 96.6742 366.177 96.3902C367.364 95.6572 370.182 90.0132 369.81 89.1162C369.639 88.7042 368.563 90.2882 367.42 92.6372ZM57.4043 91.2502L55.4993 93.5002L57.7493 91.5952C58.9863 90.5472 59.9993 89.5352 59.9993 89.3452C59.9993 88.5452 59.1943 89.1362 57.4043 91.2502ZM319.085 91.5002C319.189 93.3942 320.855 96.5842 320.913 95.0002C320.944 94.1752 320.532 92.8252 319.999 92.0002C319.466 91.1752 319.054 90.9502 319.085 91.5002ZM61.8663 97.2502C57.9753 100.838 54.4503 105.784 55.2283 106.562C55.5033 106.837 56.4993 105.886 57.4413 104.449C58.3823 103.011 60.7463 100.072 62.6923 97.9182C66.9963 93.1542 66.6293 92.8572 61.8663 97.2502ZM54.5353 101.732C53.1403 103.785 51.9993 105.91 51.9993 106.455C51.9993 107.428 52.9423 106.221 56.4613 100.75C59.1353 96.5912 57.4423 97.4552 54.5353 101.732ZM362.499 99.0002C362.159 99.5502 362.331 100 362.881 100C363.431 100 364.159 99.5502 364.499 99.0002C364.839 98.4502 364.667 98.0002 364.117 98.0002C363.567 98.0002 362.839 98.4502 362.499 99.0002ZM207.624 103.979C205.368 109.619 205.715 110.458 208.091 105.104C209.163 102.687 209.863 100.53 209.645 100.313C209.427 100.095 208.518 101.745 207.624 103.979ZM203.115 106.098C202.501 107.858 202.031 109.794 202.069 110.399C202.108 111.005 202.785 109.739 203.573 107.587C204.362 105.435 204.832 103.5 204.619 103.286C204.405 103.073 203.728 104.338 203.115 106.098ZM454.417 103.969C451.223 105.261 446.999 110.847 446.999 113.779C446.999 115.378 448.249 117.695 450.195 119.702C455.128 124.792 451.493 123.601 445.331 118.108C441.952 115.097 438.131 112.737 435.392 111.97C432.944 111.285 430.839 110.899 430.714 111.112C430.589 111.325 429.445 114.65 428.171 118.5C423.878 131.474 417.009 139.348 405.749 144.2C403.136 145.325 400.999 146.592 400.999 147.015C400.999 149.398 390.993 158.481 385.1 161.448C378.444 164.798 365.511 167.615 361.959 166.487C360.723 166.095 358.291 167.592 354.128 171.306C343.315 180.954 338.144 183.922 327.388 186.654C321.95 188.034 317.347 189.319 317.158 189.508C316.384 190.282 320.302 201.525 322.685 205.369C327.34 212.877 328.547 213.733 334.559 213.787C339.026 213.827 340.211 213.472 341.089 211.832C341.679 210.73 342.386 210.054 342.661 210.329C342.936 210.604 342.659 211.767 342.045 212.914C341.203 214.487 339.959 215 336.989 215C333.143 215 333.073 215.064 334.052 217.64C334.841 219.715 334.696 220.677 333.372 222.14C331.78 223.899 331.807 224 333.859 224C335.198 224 336.728 225.15 337.855 227.004C339.67 229.989 339.693 229.995 341.495 228.004C342.493 226.902 344.395 226 345.721 226C347.643 226 348.01 225.61 347.526 224.085C347.112 222.782 347.624 221.676 349.126 220.624L351.333 219.078L348.648 218.057C345.795 216.972 343.999 213.564 343.999 209.235C343.999 205.493 345.78 207.686 346.178 211.917C346.449 214.806 347.03 215.512 349.939 216.486C353.45 217.662 355.237 219.905 352.832 220.118C352.099 220.183 352.849 220.559 354.499 220.952L357.499 221.667L353.848 222.426C350.601 223.101 350.151 223.574 349.786 226.695C349.484 229.283 350.081 231.293 352.058 234.352C358.133 243.749 367.207 249.65 377.163 250.677L382.561 251.235L383.859 246.169C385.503 239.755 384.028 236.004 379.254 234.455L376.033 233.41L378.25 231.194C380.13 229.314 380.279 228.678 379.233 227.002C377.474 224.186 377.61 224 381.431 224C384.103 224 385.336 223.336 386.999 221C389.741 217.15 390.63 217.22 391.404 221.347C391.937 224.186 392.636 224.874 396.016 225.887C400.169 227.131 401.121 228.632 398.415 229.67C397.544 230.005 396.464 231.228 396.015 232.389C395.241 234.392 395.161 234.404 394.443 232.622C393.893 231.257 394.334 230.256 396.056 228.957L398.424 227.17L394.769 226.485C391.729 225.914 391.001 225.284 390.441 222.736L389.768 219.673L388.206 222.247C387.334 223.684 385.366 225.077 383.751 225.4C381.437 225.862 380.981 226.369 381.476 227.928C381.919 229.322 381.44 230.232 379.797 231.118C377.501 232.356 377.502 232.358 380.626 233.175C382.77 233.736 384.151 234.952 385.016 237.04L386.278 240.087L388.453 238.043C390.577 236.048 396.999 235.133 396.999 236.827C396.999 237.282 395.761 237.474 394.249 237.254C390.404 236.694 386.32 241.142 385.401 246.89L384.699 251.279L388.599 250.558C394.952 249.383 408.189 242.624 412.608 238.298C414.868 236.086 417.962 231.73 419.485 228.619C422.204 223.062 423.999 220.817 423.999 222.974C423.999 223.575 422.874 226.287 421.499 229C420.124 231.713 418.999 234.173 418.999 234.467C418.999 234.76 421.829 235 425.289 235C442.983 235 459.703 224.984 467.348 209.806C470.842 202.867 471.056 201.871 471.601 189.993C472.1 179.122 471.921 176.815 470.228 172.361C468.012 166.529 463.046 159.512 461.978 160.704C461.586 161.142 460.583 163.563 459.749 166.085C457.998 171.38 450.798 181.898 450.185 180.057C449.927 179.285 448.227 180.268 445.684 182.658L441.596 186.5L444.346 183C445.859 181.075 448.495 177.358 450.204 174.739C453.278 170.03 455.243 168.807 452.999 173C452.36 174.194 452.062 175.397 452.338 175.672C453.246 176.58 456.124 171.216 458.709 163.798C460.951 157.366 461.185 155.445 460.682 147.606C460.264 141.1 460.408 139.009 461.218 139.819C461.827 140.428 462.54 144.639 462.803 149.175C463.066 153.712 463.78 157.977 464.39 158.652C465 159.328 466.624 161.47 467.999 163.413C469.374 165.355 470.858 166.957 471.297 166.972C471.735 166.988 471.96 164.188 471.797 160.75C471.569 155.978 471.163 154.572 470.08 154.806C468.961 155.048 468.91 154.812 469.841 153.69C470.568 152.814 471.27 146.259 471.667 136.632L472.312 120.997L469.228 122.536C465.417 124.437 461.433 123.591 459.371 120.444C458.202 118.66 458.109 117.663 458.963 116.067C460.471 113.25 461.171 113.466 460.406 116.513C460.045 117.954 460.302 119.66 461.01 120.513C462.715 122.567 467.348 122.377 469.344 120.171C471.215 118.104 471.581 110.956 469.969 107.945C467.781 103.856 459.763 101.806 454.417 103.969ZM442.499 107.159C440.299 107.686 437.037 107.956 435.249 107.759C433.461 107.563 431.999 107.761 431.999 108.201C431.999 108.64 432.598 109 433.33 109C434.061 109 436.874 110.123 439.58 111.496C445.446 114.472 445.999 114.534 445.999 112.223C445.999 111.245 446.7 109.445 447.556 108.223C449.322 105.701 448.93 105.619 442.499 107.159ZM13.2423 107.814C12.0003 108.191 9.36225 109.798 7.37825 111.383C4.10125 114.003 3.81925 114.62 4.29025 118.134C4.58425 120.322 4.41625 121.758 3.90425 121.441C3.39025 121.124 2.99925 124.669 2.99925 129.637V138.392L6.24925 135.376C8.03725 133.717 12.1123 130.818 15.3053 128.934C22.4153 124.74 24.5453 122.527 25.8273 118C26.7683 114.678 26.8233 114.643 26.9093 117.3C27.0163 120.641 24.6843 125.482 22.2493 126.971C20.9073 127.792 21.4323 127.889 24.4993 127.389C29.7703 126.53 29.9993 126.352 29.9993 123.1C29.9993 121.57 30.6693 118.109 31.4883 115.409C33.4853 108.826 33.5543 109 28.9323 109C25.1893 109 24.9203 109.177 25.5663 111.213C26.1993 113.207 26.0343 113.158 23.8843 110.711C21.3703 107.851 17.0173 106.666 13.2423 107.814ZM204.11 113.111C203.494 114.878 203.165 116.499 203.379 116.713C203.593 116.927 204.272 115.656 204.888 113.889C205.504 112.122 205.833 110.501 205.619 110.287C205.405 110.073 204.726 111.344 204.11 113.111ZM14.3373 117.21C15.1603 120.49 12.0943 123.442 8.56425 122.768C7.18725 122.504 6.29725 122.674 6.58825 123.144C7.53925 124.683 12.6513 124.042 14.3443 122.171C16.2533 120.062 16.5263 116.444 14.8533 115.41C14.0543 114.916 13.8983 115.461 14.3373 117.21ZM452.999 125C452.999 125.55 453.476 126 454.058 126C454.64 126 454.839 125.55 454.499 125C454.159 124.45 453.683 124 453.44 124C453.197 124 452.999 124.45 452.999 125ZM454.999 127.92C454.999 129.262 459.041 138 459.662 138C459.976 138 460.017 136.875 459.754 135.5C459.491 134.125 459.596 133 459.988 133C461.407 133 468.999 139.043 468.999 140.173C468.999 140.811 469.285 141.047 469.634 140.698C470.887 139.445 466.886 134.99 460.996 131.077C457.697 128.886 454.999 127.466 454.999 127.92ZM127.078 143.583C127.126 144.748 127.363 144.985 127.682 144.188C127.971 143.466 127.935 142.603 127.603 142.271C127.271 141.939 127.035 142.529 127.078 143.583ZM125.179 147.007C125.08 148.935 124.557 152.055 124.016 153.94C122.801 158.179 123.551 159.309 125.018 155.45C125.609 153.895 125.928 150.57 125.726 148.061C125.423 144.289 125.328 144.107 125.179 147.007ZM447.623 148.539C447.28 149.432 447.028 150.689 447.062 151.332C447.097 151.974 447.557 151.422 448.084 150.105C448.611 148.787 448.863 147.531 448.644 147.312C448.425 147.093 447.965 147.645 447.623 148.539ZM346.945 155.647L343.499 159.293L346.7 156.994C348.461 155.73 350.135 154.089 350.419 153.348C351.19 151.339 350.725 151.646 346.945 155.647ZM447.37 159.25C445.95 161.998 445.929 162.302 447.236 161.217C448.64 160.053 450.345 156 449.431 156C449.222 156 448.294 157.463 447.37 159.25ZM342.499 163.588L339.499 166.165L342.999 163.906C347.489 161.009 347.5 160.999 346.416 161.005C345.912 161.008 344.149 162.17 342.499 163.588ZM393.44 167.555C391.576 169.049 391.588 169.067 393.749 168.02C394.987 167.42 395.999 166.72 395.999 166.465C395.999 165.7 395.48 165.921 393.44 167.555ZM446.979 171.524C446.283 172.362 445.967 173.301 446.275 173.61C446.584 173.919 447.339 173.233 447.953 172.086C449.263 169.638 448.777 169.358 446.979 171.524ZM450.666 176.667C450.299 177.033 449.999 177.798 449.999 178.367C449.999 178.993 450.465 178.934 451.182 178.217C451.833 177.566 452.133 176.801 451.849 176.517C451.565 176.232 451.032 176.3 450.666 176.667ZM328.999 178C328.174 178.533 327.949 178.969 328.499 178.969C329.049 178.969 330.174 178.533 330.999 178C331.824 177.467 332.049 177.031 331.499 177.031C330.949 177.031 329.824 177.467 328.999 178ZM191.999 189.207C190.074 190.864 189.399 191.728 190.499 191.127C193.521 189.475 196.407 187.073 195.926 186.608C195.691 186.381 193.924 187.551 191.999 189.207ZM297.263 194.992C292.197 211.896 298.848 230.92 312.998 240C318.774 243.706 330.507 248.403 332.285 247.721C333.994 247.065 338.285 232.476 337.498 229.996C336.542 226.986 334.129 225 331.428 225C328.451 225 328.386 224.281 331.101 221.392L333.202 219.155L330.971 217.327C325.488 212.836 323.824 210.952 320.564 205.539C318.654 202.366 316.572 197.46 315.937 194.635L314.783 189.5L306.849 189.492L298.914 189.485L297.263 194.992ZM191.499 193.526C189.299 194.881 187.949 195.99 188.499 195.991C189.71 195.993 195.999 192.239 195.999 191.515C195.999 190.772 195.896 190.818 191.499 193.526ZM10.7323 193.124C11.4113 193.808 12.2183 194.115 12.5253 193.807C12.8333 193.499 12.2783 192.94 11.2923 192.564C9.86725 192.022 9.75225 192.136 10.7323 193.124ZM34.4993 195C32.6673 195.787 32.7093 195.864 34.9993 195.914C36.3743 195.945 38.1743 195.533 38.9993 195C40.2373 194.2 40.1503 194.04 38.4993 194.086C37.3993 194.116 35.5993 194.527 34.4993 195ZM2.99325 224.634C2.98425 267.543 2.98325 569.779 2.99125 582.309C2.99725 590.306 3.30325 592.93 4.16925 592.395C5.00525 591.878 5.09325 592.217 4.47625 593.586C4.00225 594.639 3.45825 602.33 3.26825 610.677L2.92325 625.855L5.78525 624.775C9.39325 623.413 13.6243 624.431 14.9943 626.991C16.1343 629.122 15.3533 634 13.8723 634C13.3713 634 13.2453 632.869 13.5923 631.487C14.4093 628.229 12.5173 626 8.93325 626C5.32225 626 2.99925 629.233 2.99925 634.258C2.99925 639.427 5.41625 642.766 10.0663 644.018C19.3543 646.519 27.0083 641.241 26.9923 632.346C26.9823 626.404 23.0693 621.57 14.9993 617.531C11.1283 615.594 3.99925 609.158 3.99925 607.601C3.99925 607.055 5.46125 607.999 7.24925 609.699C9.03625 611.399 12.9743 614.4 15.9993 616.366C23.6283 621.327 24.4593 622.064 26.8693 626.018C29.3603 630.104 29.5763 634.371 27.4933 638.364C26.6713 639.94 25.9993 641.326 25.9993 641.444C25.9993 641.562 28.4013 641.224 31.3373 640.692C38.4623 639.4 44.7863 640.479 50.1913 643.907C63.4133 652.292 59.1313 673.109 43.8633 674.665C38.6353 675.198 34.0193 672.721 30.9943 667.759C26.8573 660.974 29.7853 653.741 37.1943 652.445C40.3083 651.9 41.2893 652.199 43.4443 654.354C48.7583 659.668 45.3813 669.951 38.2943 670.032C35.6203 670.062 35.5833 670.127 37.4403 671.532C41.9893 674.972 51.7553 671.829 54.7203 665.97C55.4073 664.611 55.9763 660.843 55.9843 657.595C55.9983 652.046 55.7693 651.472 52.1803 648.058C45.4663 641.671 34.8863 640.133 24.5503 644.043C8.33325 650.176 -0.800748 668.939 4.97525 684.252C6.16825 687.416 8.91225 692.24 11.0723 694.973C15.3843 700.428 16.1783 702.371 12.8833 699.405C9.99325 696.804 5.52525 690.142 4.22625 686.5C3.39525 684.168 3.13925 687.73 3.07825 702.487L2.99925 721.473L6.38025 716.487C9.38225 712.058 15.4503 707.118 16.5443 708.211C16.7673 708.435 15.0033 710.245 12.6243 712.233C7.22525 716.747 4.99925 721.332 4.99925 727.941C4.99925 734.159 7.71425 739.948 12.0893 743.064C16.6653 746.322 27.5263 746.053 33.5333 742.533C38.8943 739.391 42.3523 732.783 42.6603 725.093C42.9243 718.495 43.7993 712.593 45.1693 708.183C45.7353 706.359 45.9983 704.665 45.7523 704.42C45.5073 704.175 43.6183 704.679 41.5543 705.541C39.4913 706.403 37.0593 706.965 36.1513 706.788C34.8063 706.527 39.7753 704.279 45.7203 702.459C46.3913 702.253 48.2373 699.226 49.8213 695.732C54.0693 686.363 60.4333 682.205 63.0483 687.091C65.3083 691.314 60.0113 698.42 52.6073 701.097C48.3553 702.635 46.1033 707.081 45.3183 715.489C44.2813 726.589 49.3203 736.318 59.4933 742.859C63.0543 745.148 64.7393 745.478 74.6683 745.823C85.5313 746.2 86.0043 746.126 91.9183 743.121C98.8283 739.609 99.7432 739.743 94.2673 743.464L90.5353 746H101.454H112.373L109.704 743.214C108.236 741.681 106.745 738.981 106.392 737.214C105.807 734.288 103.999 732.615 103.999 735C103.999 735.55 103.571 736 103.047 736C102.523 736 103.311 733.656 104.797 730.792C107.18 726.198 107.499 724.458 107.499 716.042C107.499 707.134 107.294 706.168 104.42 701.5C98.1052 691.246 86.5863 687.032 78.9993 692.202C73.2453 696.122 72.3783 696.482 74.4973 694.07C82.3473 685.132 97.6453 687.48 104.791 698.72C108.952 705.265 110.277 710.892 109.457 718.544C108.785 724.823 108.797 724.866 111.139 724.289C113.408 723.731 113.393 723.794 110.749 725.927C108.442 727.788 107.999 728.915 107.999 732.925C107.999 741.224 114.998 748.355 120.048 745.202C121.221 744.469 121.999 744.385 121.999 744.992C121.999 745.609 126.284 746 133.039 746C142.178 746 144.767 745.649 148.078 743.96C155.279 740.286 158.213 731.398 154.266 725.215C152.595 722.596 152.599 722.552 154.37 723.959C159.068 727.69 158.626 735.74 153.388 741.859C150.652 745.054 150.311 745.906 151.572 746.39C152.426 746.717 191.093 746.979 237.497 746.971C283.902 746.963 322.236 747.02 322.684 747.097C328.347 748.07 333.326 744.331 338.597 735.147C345.316 723.44 353.115 719.423 361.104 723.554L364.11 725.109L363.305 721.304C361.873 714.542 362.548 708.435 365.35 702.821C369.229 695.046 371.854 693.5 381.168 693.5C387.969 693.5 389.141 693.783 391.513 696C395.341 699.576 397 703.271 396.992 708.2C396.981 715.632 390.937 721.981 383.86 721.993C378.654 722.003 375.91 719.39 375.283 713.827C374.595 707.725 377.077 705 383.325 705C388.158 705 391.013 707.276 392.731 712.5L393.718 715.5L394.99 711.338C396.142 707.57 396.051 706.74 394.028 702.561C391.205 696.727 387.394 694.614 379.62 694.568C374.025 694.535 373.581 694.719 370.411 698.386C358.506 712.158 364.72 735.237 382.799 744.398C387.027 746.541 389.429 746.934 401.083 747.393C415.014 747.941 428.248 748.18 438.42 748.066L444.342 748L439.672 744.907C433.999 741.149 431.637 737.979 429.79 731.645L428.383 726.822L426.525 730.943C423.479 737.697 412.007 747.11 407.014 746.952C406.181 746.925 408.002 745.611 411.061 744.031C417.852 740.523 423.05 734.947 426.442 727.53C429.523 720.795 429.558 718.412 426.699 710.124C424.704 704.34 424.127 703.603 420.499 702.195C413.707 699.559 409.295 696.289 408.168 693.054C407.2 690.279 407.345 689.819 409.668 688.297C412.1 686.704 412.436 686.718 415.869 688.556C418.415 689.92 420.324 692.143 422.262 696C425.969 703.381 430.271 705.474 441.732 705.472C447.449 705.471 450.114 705.857 450.451 706.735C451.144 708.541 440.948 708.398 433.66 706.5C430.493 705.675 427.558 705 427.138 705C426.718 705 427.303 707.867 428.437 711.371L430.499 717.742L434.252 714.371C438.724 710.354 441.505 709.784 437.282 713.75C431.744 718.949 430.317 722.955 430.859 731.772C431.037 734.67 438.054 742.323 442.44 744.405C449.337 747.678 458.051 745.997 464.249 740.199C465.761 738.784 466.999 738.16 466.999 738.813C466.999 740.677 463.196 744.009 458.846 745.957C454.156 748.057 455.444 749 463.004 749H467.846L467.861 735.772C467.878 720.872 467.054 718.011 461.283 712.944C459.361 711.257 458.03 709.636 458.325 709.341C459.282 708.384 464.799 712.266 465.892 714.665C468.221 719.777 468.999 716.91 468.988 703.25L468.977 689.5L466.281 693C462.517 697.888 457.082 703.004 455.678 702.98C455.029 702.97 456.431 701.341 458.792 699.361C461.154 697.382 464.292 693.453 465.765 690.631C468.167 686.031 468.447 684.414 468.472 675C468.496 665.569 468.224 663.944 465.794 659.039C462.666 652.724 462.763 651.264 465.966 656.447C467.174 658.401 468.35 660 468.581 660C468.811 660 468.999 655.235 468.999 649.411V638.822L465.859 641.464C464.133 642.917 461.433 644.363 459.859 644.678C456.73 645.304 456.374 645.975 458.199 647.8C460.081 649.682 458.074 649.204 455.46 647.148C452.15 644.545 442.076 642.625 435.063 643.26C423.3 644.327 415.118 651.202 412.436 662.274L411.169 667.5L411.106 663.5C410.898 650.33 424.943 639.951 441.134 641.308C447.632 641.853 447.953 641.782 447.003 640.008C445.268 636.766 445.903 636.732 448.588 639.923C450.733 642.473 451.907 643 455.44 643C462.924 643 469.907 636.519 467.955 631.384C467.381 629.875 467.459 628.834 468.179 628.389C468.933 627.923 469.105 624.115 468.723 616.355C468.102 603.748 466.35 599.267 460.952 596.476C456.483 594.165 449.495 594.552 446.976 597.25C445.363 598.978 445.034 599.085 445.558 597.713C446.417 595.465 451.089 593 454.489 593C458.116 593 464.391 596.406 466.858 599.715L468.936 602.5L468.967 551.184C468.987 518.857 469.37 499.175 470.002 497.995C470.676 496.736 470.67 495.915 469.985 495.492C469.425 495.145 469.156 494.555 469.387 494.181C469.619 493.806 470.109 429.15 470.477 350.5L471.147 207.5L467.105 214.103C458.678 227.873 440.916 237.358 424.499 236.856C417.912 236.655 417.307 236.825 414.24 239.731C408.112 245.538 392.423 253 386.342 253C385.054 253 383.991 253.338 383.981 253.75C383.928 255.958 381.069 273.07 380.179 276.5C377.64 286.293 369.692 338.95 370.607 339.918C371.593 340.962 376.377 337.194 379.932 332.573C389.392 320.277 398.385 300.152 397.328 293.642C396.839 290.626 396.269 290.026 393.207 289.302C388.597 288.212 388.256 286.87 392.024 284.645L395.067 282.847L393.033 279.555C390.239 275.035 390.418 274.652 394.981 275.381C398.797 275.991 399.068 275.851 401.493 272.009C402.885 269.804 404.42 268 404.905 268C406.03 268 406.999 270.518 406.999 273.446C406.999 275.244 407.996 276.109 411.693 277.521L416.386 279.313L413.322 281.907C410.945 283.919 410.438 284.948 411.058 286.5C411.498 287.6 411.89 289.338 411.929 290.361C411.988 291.934 411.486 292.126 408.694 291.603C405.94 291.086 404.957 291.442 402.791 293.741C400.39 296.291 397.186 305.609 396.513 312C396.23 314.684 392.272 330.518 391.264 333C390.928 333.825 390.539 335.445 390.398 336.6C390.257 337.756 389.482 341.131 388.675 344.1C387.868 347.07 386.205 354 384.979 359.5C383.754 365 381.643 373.775 380.289 379C378.935 384.225 377.246 391.65 376.536 395.5C374.495 406.561 372.872 409.526 367.323 412.325C356.307 417.881 341.471 422.636 318.237 428.059C298.779 432.601 290.29 433.991 269.499 436.041C258.496 437.125 207.251 435.805 186.499 433.903C163.43 431.788 130.042 423.757 121.282 418.216C115.666 414.663 110.418 400.767 87.9113 329.858C81.9223 310.99 81.5473 310.155 78.3773 308.643C75.4463 307.246 74.6843 307.233 71.5703 308.535C66.9843 310.451 66.7483 310.405 67.5113 307.75C67.8673 306.512 68.3583 304.772 68.6043 303.882C68.9023 302.802 68.0433 301.847 66.0253 301.011C62.2653 299.453 62.1733 297.558 65.7493 295.343C67.2623 294.406 69.0623 292.96 69.7493 292.129C70.8533 290.794 70.9993 290.812 70.9993 292.286C70.9993 293.203 69.8743 294.691 68.4993 295.592C65.3363 297.664 65.3463 298.745 68.5393 300.2C70.5913 301.135 70.9703 301.857 70.5093 303.956C69.9653 306.43 70.1433 306.559 74.2183 306.634C76.5733 306.678 79.3702 306.891 80.4342 307.107C81.9542 307.416 82.5263 306.76 83.0993 304.049C83.5003 302.151 84.6523 299.995 85.6593 299.259C87.2433 298.101 87.2883 297.794 85.9943 296.976C85.1723 296.456 84.1113 296.024 83.6383 296.015C83.1643 296.007 83.0723 294.425 83.4333 292.5C83.7943 290.575 83.9113 289 83.6943 289C83.4763 289 81.8472 289.506 80.0742 290.124C77.0812 291.167 76.6043 291.009 73.4243 287.928L69.9993 284.608V287.47C69.9993 291.007 69.4833 290.534 68.6683 286.25C67.9313 282.382 69.6663 281.869 72.5833 285.093C75.8153 288.664 77.5003 289.087 82.0653 287.477C84.4003 286.653 86.5523 286.22 86.8473 286.514C87.1413 286.809 86.8053 288.648 86.0993 290.6C85.3933 292.552 84.9692 294.252 85.1572 294.378C85.3452 294.503 86.7983 295.42 88.3853 296.415L91.2723 298.225L88.2453 300.141C85.8783 301.64 85.0733 303.024 84.5533 306.486C84.0013 310.167 84.4203 312.125 87.0343 318.08C93.2843 332.319 102.911 345.537 110.327 350.058C113.931 352.256 121.794 352.702 122.54 350.75C122.976 349.608 106.095 298.131 95.9563 269.684C92.2023 259.154 91.3503 257.617 88.1213 255.564C84.9503 253.547 84.2533 253.431 82.5263 254.63C79.2623 256.897 77.9993 256.303 77.9993 252.5C77.9993 249.702 77.6103 249 76.0583 249C73.0713 249 72.5673 247.089 74.9003 244.606L77.0103 242.359L74.6903 240.18C73.1103 238.695 71.1033 238 68.3953 238C52.2823 238 34.9963 226.862 30.4773 213.568L28.6503 208.192L22.5873 206.999C15.2823 205.562 12.1293 204.016 6.93925 199.327L2.99925 195.767L2.99325 224.634ZM181.499 197.615L177.499 199.02L181.413 198.546C183.565 198.286 185.793 197.606 186.363 197.036C187.684 195.715 186.51 195.854 181.499 197.615ZM31.7493 197.662C32.4373 197.94 33.5623 197.94 34.2493 197.662C34.9373 197.385 34.3743 197.158 32.9993 197.158C31.6243 197.158 31.0623 197.385 31.7493 197.662ZM87.4403 202.468C86.3733 203.276 86.0063 203.951 86.6273 203.968C87.2473 203.986 88.3143 203.325 88.9993 202.5C90.5803 200.595 89.9343 200.582 87.4403 202.468ZM82.9993 205C82.0983 205.582 81.9743 205.975 82.6903 205.985C83.3453 205.993 84.1593 205.55 84.4993 205C85.2663 203.758 84.9203 203.758 82.9993 205ZM85.5583 207.532C84.4903 208.339 84.0672 209 84.6172 209C85.1672 209 86.4903 208.339 87.5583 207.532C88.6253 206.724 89.0493 206.064 88.4993 206.064C87.9493 206.064 86.6253 206.724 85.5583 207.532ZM155.666 207.667C155.299 208.033 154.999 208.988 154.999 209.789C154.999 210.97 155.282 211.01 156.499 210C157.324 209.315 157.999 208.36 157.999 207.878C157.999 206.842 156.615 206.717 155.666 207.667ZM148.75 212.583C147.844 213.488 149.031 216 150.365 216C150.999 216 152.08 215.1 152.767 214C153.454 212.9 153.589 212 153.066 212C152.544 212 151.809 212.498 151.433 213.107C150.935 213.913 150.561 213.909 150.056 213.092C149.674 212.475 149.087 212.246 148.75 212.583ZM362.999 218.786C362.999 219.283 363.964 220.547 365.145 221.595C367.275 223.487 367.282 223.485 366.139 221.306C364.864 218.875 362.999 217.378 362.999 218.786ZM98.5663 225.444C96.4023 227.294 92.4742 230.089 89.8372 231.654C82.5822 235.96 84.3813 237.99 92.3903 234.534L96.2822 232.855L95.7272 236.989C95.2362 240.654 95.4463 241.247 97.5863 242.222C100.672 243.628 100.621 244.349 97.2493 246.977L94.4993 249.12L101.499 248.704C111.089 248.134 118.345 244.973 124.283 238.778C127.633 235.283 128.774 233.434 128.09 232.61C127.483 231.878 127.464 230.879 128.041 229.966C129.604 227.496 129.119 226.744 126.309 227.281C121.012 228.294 109.809 225.92 102.999 222.343C102.724 222.198 100.729 223.594 98.5663 225.444ZM341.771 230.25C340.969 231.488 340.021 235.2 339.664 238.5C339.306 241.8 338.742 245.478 338.41 246.674C337.873 248.606 338.289 248.921 342.152 249.497C344.882 249.904 349.217 249.525 353.807 248.479L361.115 246.813L356.031 241.657C353.234 238.82 350.018 234.588 348.883 232.25C346.555 227.453 344.042 226.746 341.771 230.25ZM309.999 229.313C309.999 229.485 311.461 230.948 313.249 232.563L316.499 235.5L313.562 232.25C310.824 229.221 309.999 228.54 309.999 229.313ZM72.2682 230.693C73.2412 230.947 74.5912 230.93 75.2682 230.656C75.9452 230.382 75.1493 230.175 73.4993 230.195C71.8493 230.215 71.2952 230.439 72.2682 230.693ZM129.075 236.515C126.785 239.548 123.019 243.229 120.705 244.694C115.148 248.213 102.46 252.194 98.0293 251.808C94.6483 251.513 94.4873 251.648 94.2113 255C93.6173 262.198 106.637 287.139 114.418 293.708C117.651 296.437 124.575 299.941 126.81 299.978C127.804 299.995 127.958 298.849 127.449 295.25C126.571 289.059 123.942 286.762 118.685 287.594L114.871 288.197L115.48 284.849C116.021 281.872 115.75 281.311 113.044 279.797C109.159 277.623 109.214 276.745 113.356 274.77C116.177 273.424 116.802 272.503 117.272 269.002C117.579 266.71 118.1 264.565 118.43 264.236C118.759 263.906 120.485 265 122.264 266.665C125.174 269.39 125.827 269.594 128.766 268.697C132.916 267.431 133.715 268.268 132.194 272.288C131.073 275.251 131.173 275.642 133.489 277.333C136.73 279.701 136.651 280.487 133.023 281.99C129.313 283.527 128.214 288.125 130.017 294.566C131.606 300.238 132.536 300.78 135.67 297.855C142.862 291.143 146.811 274.331 145.044 257.946C143.09 239.821 142.155 236.357 138.46 233.538C136.63 232.142 134.706 231 134.186 231C133.665 231 131.366 233.482 129.075 236.515ZM310.594 235.106C313.95 238.817 323.066 242.607 322.968 240.25C322.95 239.838 321.713 238.621 320.218 237.547C318.076 236.008 317.79 235.955 318.871 237.297C320.998 239.936 318.73 239.312 314.158 236C309.312 232.49 307.91 232.138 310.594 235.106ZM80.9993 238.944C80.9993 242.434 80.5813 243.175 77.7493 244.711L74.4993 246.473L77.2493 246.803C80.0273 247.136 80.3622 247.721 80.0462 251.687C79.8862 253.708 80.0973 253.789 82.8353 252.756C85.2523 251.843 86.2693 251.947 88.3633 253.319C91.7933 255.566 91.9993 255.488 91.9993 251.952C91.9993 250.008 92.8803 248.088 94.4313 246.65C96.7803 244.473 96.7983 244.356 94.9553 243.205C93.4963 242.293 93.1883 241.305 93.6483 239.006C94.3403 235.545 94.0133 235.424 89.8203 237.593C86.9123 239.096 86.5813 239.067 83.8703 237.063L80.9993 234.94V238.944ZM120.233 238.083C118.437 239.687 117.312 240.998 117.733 240.995C118.954 240.987 124.551 236.232 123.998 235.672C123.723 235.393 122.028 236.478 120.233 238.083ZM75.2203 238.164C75.4343 238.805 76.5963 239.985 77.8043 240.786C79.8773 242.163 79.9993 242.098 79.9993 239.622C79.9993 237.469 79.5373 237 77.4163 237C75.8953 237 74.9923 237.479 75.2203 238.164ZM372.999 246.415C374.374 247.15 376.624 248.048 377.999 248.411C379.459 248.797 378.865 248.225 376.57 247.036C374.41 245.916 372.16 245.018 371.57 245.04C370.981 245.062 371.624 245.681 372.999 246.415ZM357.499 249.528C355.299 250.253 350.011 250.881 345.749 250.923L337.999 251L338.02 258.75C338.049 269.769 339.956 277.524 344.293 284.272C347.999 290.039 351.623 292.742 354.28 291.722C356.783 290.762 358.346 282.891 356.955 278.249C355.826 274.48 355.424 274.141 351.369 273.533C346.477 272.799 345.959 271.842 349.217 269.56C351.377 268.047 351.389 267.93 349.695 265.062L347.955 262.117L352.166 261.809C355.947 261.532 356.589 261.091 358.447 257.5C359.585 255.3 360.962 253.579 361.508 253.675C362.053 253.771 363.072 255.853 363.772 258.301C364.95 262.42 365.342 262.799 369.022 263.388C373.186 264.054 373.796 264.803 371.799 266.8C370.115 268.484 368.502 268.303 369.924 266.59C370.878 265.441 370.515 265.053 367.964 264.492C365.521 263.956 364.442 262.893 363.046 259.652L361.257 255.5L359.443 259.25C357.888 262.464 357.155 263 354.314 263C350.876 263 349.98 264.581 352.175 266.776C353.077 267.678 352.924 268.425 351.52 269.976C349.718 271.968 349.74 272 352.885 272C355.681 272 356.301 272.517 357.837 276.134L359.593 280.269L361.319 277.634C362.551 275.754 363.907 275 366.057 275C368.787 275 368.966 274.807 367.969 272.945C365.93 269.134 367.587 268.637 369.804 272.393C371.011 274.44 371.999 276.314 371.999 276.557C371.999 276.801 370.086 277.005 367.749 277.011C363.817 277.022 363.37 277.303 361.781 280.761C359.723 285.241 358.433 292.003 359.638 291.994C362.068 291.975 369.824 283.603 372.718 277.873C375.359 272.643 381.999 255.361 381.999 253.716C381.999 253.472 379.933 252.989 377.408 252.643C374.884 252.297 370.776 251.11 368.281 250.007C363.142 247.733 362.968 247.725 357.499 249.528ZM118.999 270.704C118.999 274.311 118.651 274.902 115.837 276.067C112.733 277.353 112.717 277.395 114.924 278.38C116.747 279.193 117.099 280.017 116.783 282.728C116.407 285.943 116.502 286.048 119.236 285.448C121.069 285.045 122.942 285.388 124.504 286.412C127.694 288.501 127.733 288.487 128.501 284.992C128.864 283.337 130.067 281.499 131.174 280.906L133.187 279.829L131.139 277.649C129.69 276.106 129.365 275.035 130.03 273.985C131.834 271.131 131.201 269.973 128.415 271.032C125.627 272.092 124.706 271.79 121.249 268.677L118.999 266.651V270.704ZM402.456 273.803C400.942 276.367 399.917 277 397.283 277C393.734 277 393.123 278.028 395.499 280C397.547 281.7 397.381 283.28 394.999 284.768C392.414 286.383 392.438 288 395.047 288C396.378 288 397.539 289.055 398.362 291.012L399.628 294.024L401.988 291.512C403.419 289.989 405.45 289 407.148 289C409.739 289 409.903 288.771 409.337 285.94C408.84 283.455 409.173 282.565 411.112 281.203L413.499 279.526L410.606 279.013C407.732 278.503 407.057 277.749 405.274 273.053L404.344 270.607L402.456 273.803ZM243.25 295.411C240.562 308.349 234.16 322.431 227.78 329.442C219.37 338.683 209.74 336.631 199.279 323.37C196.05 319.276 188.999 305.575 188.999 303.393C188.999 302.753 188.418 300.848 187.708 299.159C186.569 296.449 186.422 297.7 186.458 309.794C186.507 326.267 184.97 331.912 178.635 338.513C171.962 345.466 164.431 345.598 154.56 338.936C146.239 333.321 135.49 317.591 130.687 304C129.833 301.584 130.011 309.865 130.987 318C131.957 326.079 130.741 342.078 128.722 347.805C127.312 351.808 122.475 355.008 117.881 354.978C109.955 354.927 102.023 348.264 93.5003 334.5C91.4563 331.2 90.0933 329.4 90.4713 330.5C92.2663 335.724 100.333 360.325 102.44 367C109.842 390.448 115.103 405.258 116.623 406.921C116.834 407.152 118.027 406.383 119.274 405.211C126.886 398.061 159.02 387.816 192.499 381.868C204.169 379.794 208.517 379.561 234.999 379.587C259.548 379.612 267.352 379.989 281.499 381.832C297.298 383.89 324.488 388.927 338.499 392.391C341.799 393.207 348.549 394.867 353.499 396.08C358.449 397.294 363.849 398.966 365.499 399.798C368.273 401.195 368.396 401.185 367.127 399.655C365.946 398.231 365.981 398 367.377 398C369.418 398 369.514 395.135 367.499 394.362C364.624 393.259 365.947 391.74 369.249 392.353C372.375 392.932 372.409 392.905 370.132 391.63C367.267 390.026 369.033 388.987 373.562 389.611C376.361 389.996 376.335 389.948 372.999 388.584C371.074 387.796 368.487 387.118 367.249 387.076C365.092 387.003 363.872 384 365.999 384C366.549 384 366.886 383.452 366.749 382.782C366.586 381.987 367.58 381.661 369.607 381.842C372.625 382.113 372.71 382.008 372.531 378.246C372.43 376.115 372.017 373.838 371.614 373.186C371.168 372.465 371.492 372 372.44 372C373.297 372 373.999 371.55 373.999 371C373.999 370.45 374.674 370 375.499 370C376.432 370 376.999 369.056 376.999 367.5C376.999 366.125 377.449 365 377.999 365C378.549 365 378.946 364.663 378.881 364.25C378.464 361.614 379.231 360 380.899 360C382.375 360 383.063 358.827 383.981 354.75C384.63 351.863 386.982 342.3 389.206 333.5C391.43 324.7 393.417 316.375 393.621 315L393.991 312.5L393.13 315C390.628 322.271 383.15 333.712 376.954 339.75C370.623 345.92 363.456 343.587 358.216 333.651C355.593 328.679 355.499 327.953 355.499 312.769V297.038L351.238 305.519C346.934 314.086 345.428 315.287 342.57 312.429C339.258 309.116 342.11 304 347.269 304C350.55 304 351.467 302.633 349.359 300.884C347.083 298.995 340.341 299.381 337.96 301.535C336.872 302.52 335.486 304.979 334.881 307C333.478 311.683 335.542 316.154 339.952 317.98C341.628 318.675 342.999 319.814 342.999 320.511C342.999 322.774 334.152 333.869 331.083 335.457C326.493 337.83 321.193 337.406 316.722 334.308C309.887 329.571 306.339 319.916 303.052 297.102C302.053 290.171 301.183 285.808 301.117 287.406C300.747 296.504 291.569 321.141 286.118 327.671C278.344 336.986 266.11 335.573 257.559 324.375C252.238 317.406 249.67 309.734 246.736 292.043L245.499 284.586L243.25 295.411ZM339.711 303.012C334.671 306.977 335.286 313.545 340.972 316.486C344.925 318.53 345.632 316.844 341.96 314.129C338.162 311.322 338.063 307.586 341.686 303.805C344.788 300.567 343.484 300.044 339.711 303.012ZM184.922 411.923C181.102 415.743 180.907 420.999 184.454 424.545C188.585 428.677 196.999 427.24 196.999 422.402C196.999 420.173 196.764 419.95 195.512 420.989C192.312 423.645 186.123 419.446 187.593 415.616C187.915 414.776 189.489 413.508 191.089 412.8C194.37 411.348 194.725 410.493 192.417 409.607C189.488 408.483 187.859 408.986 184.922 411.923ZM184.001 415.994C182.956 418.518 183.019 419.382 184.403 421.494C185.306 422.872 186.448 424 186.94 424C187.433 424 188.66 424.306 189.667 424.68C190.675 425.054 189.99 424.075 188.147 422.505C185.261 420.047 184.869 419.187 185.334 416.325C186.002 412.207 185.61 412.11 184.001 415.994ZM153.999 463.104C153.999 463.711 155.161 467.933 156.58 472.486C159.54 481.979 162.68 485.639 170.251 488.421C175.574 490.377 179.29 494.24 176.427 494.842C175.533 495.031 173.608 494.073 172.15 492.715C168.263 489.093 165.303 487.824 160.576 487.752C156.625 487.693 142.999 491.803 142.999 493.054C142.999 494.584 149.165 498.945 154.824 501.416C162.064 504.579 164.628 504.357 169.999 500.101C176.264 495.138 177.902 495.317 184.061 501.634L189.499 507.211L181.999 506.569C177.874 506.216 160.324 506.391 142.999 506.959C119.918 507.715 104.66 507.676 85.9082 506.812C56.9282 505.477 62.0673 504.543 43.2493 514.57C29.2143 522.048 30.5053 523.422 52.4993 524.415C60.7493 524.788 74.2493 525.283 82.4993 525.515C90.7493 525.747 98.8193 526.313 100.432 526.773L103.364 527.608L99.2663 530.554C97.0123 532.174 93.7363 535.893 91.9863 538.819C90.2363 541.744 88.1733 544.38 87.4023 544.676C86.6303 544.972 85.9993 545.626 85.9993 546.13C85.9993 546.634 87.1243 546.309 88.4993 545.408C90.9303 543.815 90.9993 543.838 90.9993 546.203C90.9993 555.53 97.7553 564.794 106.192 567.038C108.561 567.668 111.985 569.093 113.802 570.206C115.618 571.318 117.299 572.033 117.538 571.794C118.399 570.934 114.913 555.517 113.301 553.057C111.361 550.096 107.918 547.065 106.499 547.069C105.949 547.071 106.679 548.068 108.121 549.286C111.46 552.106 112.934 554.986 114.596 561.932C116.341 569.23 116.339 569.252 113.92 567.958C112.777 567.346 109.689 566.206 107.058 565.425C104.427 564.644 101.031 563.026 99.5113 561.831C95.9193 559.006 93.0283 552.543 93.1003 547.5C93.1313 545.3 93.4142 544.175 93.7272 545C94.7422 547.668 97.8022 551.069 102.228 554.449C104.609 556.266 107.848 559.617 109.426 561.895C111.005 564.173 112.498 565.835 112.744 565.588C113.685 564.647 106.785 555.972 101.512 551.467C98.4803 548.876 95.9993 546.393 95.9993 545.948C95.9993 545.504 97.4592 545.558 99.2422 546.07C103.442 547.274 105.271 547.25 104.499 546C104.159 545.45 103.188 545 102.341 545C99.9113 545 93.9953 541.891 94.0373 540.636C94.0723 539.598 98.6603 535.951 104.999 531.923C109.476 529.078 120.287 526.169 130.499 525.061C144.165 523.578 167.225 523.83 180.499 525.607C189.97 526.875 193.641 526.893 206.904 525.737C216.922 524.864 224.615 524.692 228.904 525.245C242.942 527.056 357.472 526.649 359.749 524.781C360.616 524.07 360.999 524.099 360.999 524.878C360.999 525.495 361.646 526 362.436 526C363.515 526 363.734 525.143 363.316 522.564C362.848 519.682 363.221 518.696 365.629 516.451C368.043 514.2 368.181 513.833 366.499 514.138C365.317 514.352 363.681 516.223 362.499 518.714C360.336 523.271 358.999 524.157 358.999 521.035C358.999 519.954 360.396 517.479 362.103 515.535C365.372 511.811 369.163 510.947 373.065 513.035C375.87 514.536 375.436 516 372.186 516C370.42 516 368.388 517.028 366.726 518.763C364.367 521.225 364.214 521.798 365.324 524.013C366.385 526.133 367.376 526.547 372.034 526.821C381.366 527.369 438.296 527.058 442.171 526.438C448.044 525.498 447.612 523.661 439.717 516.007C430.915 507.474 428.179 506.523 414.87 507.377C409.574 507.716 402.904 507.551 400.047 507.009C394.695 505.994 352.5 504.496 329.499 504.505C322.349 504.508 309.676 505.156 301.336 505.947C288.493 507.164 283.253 507.185 267.087 506.084C256.011 505.33 236.958 504.935 221.684 505.142L195.366 505.5L190.248 502C184.041 497.756 183.176 495.548 186.834 493.289C190.896 490.78 196.997 484.818 198.573 481.816C199.578 479.902 199.801 477.396 199.35 473.082C198.733 467.177 198.655 467.047 196.108 467.655C190.162 469.072 188.253 470.832 184.882 478C183.274 481.419 182.789 484.302 182.861 490L182.955 497.5L179.492 493.5C177.349 491.024 176.023 488.44 176.014 486.718C175.988 481.801 171.962 471.622 168.699 468.223C166.825 466.27 163.549 464.35 160.595 463.473C154.654 461.708 153.999 461.672 153.999 463.104ZM162.699 470.75C165.959 473.913 169.651 478.639 170.904 481.253C174.009 487.736 175.256 486.358 172.707 479.26C169.982 471.672 167.766 468.592 163.618 466.623C156.878 463.425 156.57 464.805 162.699 470.75ZM158.272 472.25C160.134 480.198 161.214 482.042 165.474 484.538C171.512 488.077 172.407 487.72 169.886 482.779C167.729 478.55 159.206 468 157.947 468C157.579 468 157.725 469.913 158.272 472.25ZM190.173 472.314C188.977 473.587 187.984 475.05 187.965 475.564C187.946 476.079 187.062 478.3 185.999 480.5C182.199 488.366 184.032 492.209 188.816 486.406C191.214 483.496 194.999 473.873 194.999 470.684C194.999 469.191 192.228 470.127 190.173 472.314ZM195.977 474.191C195.946 477.481 192.35 484.998 189.19 488.38C187.138 490.575 186.974 491.011 188.499 490.216C190.964 488.929 195.37 484.249 196.877 481.316C198.269 478.606 198.342 473.33 196.999 472.5C196.444 472.157 195.989 472.91 195.977 474.191ZM154.941 489.904C144.829 493.146 146.776 494.877 160.855 495.163C166.415 495.276 171.22 495.112 171.534 494.798C172.569 493.763 165.481 490.098 161.453 489.587C159.278 489.31 156.348 489.453 154.941 489.904ZM146.999 495.423C146.999 495.729 150.036 497.367 153.749 499.062C161.3 502.51 165.264 502.51 169.649 499.06L172.269 497L165.884 496.833C162.372 496.742 157.699 496.619 155.499 496.56C153.299 496.501 150.487 496.095 149.249 495.659C148.011 495.222 146.999 495.116 146.999 495.423ZM80.7493 548.689C79.7863 548.941 78.9993 549.692 78.9993 550.358C78.9993 552.441 73.5003 554.938 65.5663 556.456C61.3693 557.259 55.2393 558.899 51.9433 560.101C48.6483 561.302 45.7173 562.052 45.4323 561.766C44.3553 560.69 54.0553 553.3 58.1573 552.071C60.5093 551.366 65.9363 550.841 70.2163 550.903C74.7253 550.969 77.9993 550.603 77.9993 550.034C77.9993 549.438 73.9673 549.15 67.7493 549.303C55.8573 549.595 52.2083 551.05 45.1323 558.324C40.6793 562.903 40.4123 565 44.2853 565C45.4783 565 49.9143 565.744 54.1453 566.653C60.7113 568.064 62.5133 568.116 66.4653 567.009C73.3993 565.068 78.6733 560.82 80.1123 556.017C80.7783 553.795 81.9253 551.476 82.6613 550.866C84.1023 549.67 84.4753 547.926 83.2493 548.116C82.8373 548.18 81.7123 548.438 80.7493 548.689ZM76.9632 554.462C76.1582 555.266 72.1243 556.629 67.9993 557.489C58.2473 559.524 48.9993 562.264 48.9993 563.119C48.9993 563.491 51.9643 564.311 55.5893 564.942C61.0513 565.894 63.0853 565.826 67.4793 564.549C73.4423 562.815 78.9993 558.257 78.9993 555.099C78.9993 552.604 78.8652 552.563 76.9632 554.462ZM16.9993 588.031C16.9993 588.564 17.6133 589 18.3633 589C20.3853 589 24.7043 593.69 25.4623 596.708C25.9313 598.579 25.5173 600.16 24.0313 602.171C22.8803 603.727 22.3513 605 22.8543 605C24.3513 605 26.9993 600.261 26.9993 597.582C26.9993 594.004 25.1133 590.379 22.6393 589.201C18.9213 587.43 16.9993 587.031 16.9993 588.031ZM229.499 587.96C221.105 589.292 215.808 591.024 208.62 594.784C192.028 603.465 182.904 617.094 180.065 637.44C177.649 654.746 184.087 672.275 197.917 686.053C209.922 698.011 221.04 702.341 239.999 702.44C249.498 702.49 252.717 702.093 258.499 700.163C267.519 697.15 276.037 691.985 283.232 685.163C294.631 674.356 298.374 665.088 298.444 647.5C298.49 635.632 295.952 624.625 292.066 619.843C290.166 617.505 290.163 617.518 290.713 625.604C291.443 636.33 289.144 646.51 283.399 657.986C274.276 676.21 257.505 685.504 236.853 683.781C229.489 683.166 227.313 682.535 222.177 679.525C211.71 673.39 204.591 662.895 201.41 648.907C199.11 638.797 200 631.682 204.751 622.178C214.043 603.59 231.168 594 255.071 594C267.092 594 255.151 588.786 240.499 587.637C237.199 587.378 232.249 587.523 229.499 587.96ZM224.973 591.968C199.42 597.277 183.423 615.911 182.45 641.5C181.931 655.16 183.982 662.506 192.082 676C200.578 690.153 219.922 700 239.228 700C251.067 700 261.432 697.159 270.769 691.353C277.726 687.028 284.824 679.839 284.207 677.742C284.047 677.196 284.574 676.019 285.379 675.125C286.184 674.231 287.165 672.15 287.559 670.5C287.953 668.85 288.682 666.981 289.179 666.347C289.751 665.617 289.609 665.035 288.791 664.76C287.752 664.41 287.768 664 288.871 662.663C289.626 661.748 289.894 661 289.466 661C289.039 661 289.435 660.176 290.346 659.169C291.258 658.162 291.751 657.085 291.442 656.776C291.133 656.467 291.509 653.804 292.277 650.857C293.044 647.911 293.51 644.296 293.312 642.824C293.113 641.352 293.411 639.863 293.975 639.515C294.538 639.167 294.999 637.469 294.999 635.741C294.999 630.773 293.236 633.748 292.143 640.558C289.738 655.558 280.995 670.91 270.889 677.877C260.255 685.208 242.075 688.672 230.199 685.63C217.006 682.25 207.744 673.178 201.54 657.561C198.219 649.199 197.116 637.501 198.972 630.325C199.658 627.671 200.341 623.268 200.49 620.54C200.638 617.812 201.282 615.406 201.921 615.193C202.71 614.93 202.761 614.419 202.083 613.601C200.624 611.843 201.925 607.758 203.725 608.448C204.582 608.777 206.378 607.735 208.066 605.929C210.246 603.595 211.496 602.999 213.221 603.472C215.178 604.008 215.253 603.941 213.749 602.998C211.489 601.581 211.503 600 213.776 600C214.754 600 216.566 599.291 217.802 598.425C219.039 597.559 220.601 597.039 221.275 597.269C221.948 597.499 223.189 596.901 224.032 595.94C225.948 593.758 233.288 591.714 236.833 592.375C238.299 592.649 241.524 592.507 243.999 592.061C247.816 591.373 248.043 591.214 245.499 591.013C235.624 590.231 232.674 590.368 224.973 591.968ZM14.1823 598.217C12.7903 599.609 12.6183 602.647 13.8873 603.431C14.3753 603.733 14.9973 602.522 15.2683 600.74C15.8523 596.909 15.7433 596.656 14.1823 598.217ZM444.149 602.561C443.832 609.042 452.143 612.762 455.499 607.641C457.255 604.961 456.64 602.414 453.881 600.937C451.536 599.682 451.456 600.742 453.707 603.23C455.851 605.599 454.431 608.362 450.846 608.797C447.845 609.161 445.32 606.559 444.732 602.5L444.299 599.5L444.149 602.561ZM455.999 619.942C449.476 623.723 444.999 628.692 444.999 632.148C444.999 635.113 446.501 634.288 447.542 630.75C448.286 628.224 450.217 626.386 456.213 622.5C460.455 619.75 463.943 617.163 463.963 616.75C464.023 615.509 462.796 616.001 455.999 619.942ZM458.403 628.329C456.093 630.316 455.82 631.086 456.542 633.579L457.388 636.5L457.782 633.5C458.325 629.369 459.709 628.003 463.371 627.985C465.759 627.973 466.144 627.74 464.999 627C462.706 625.518 461.354 625.79 458.403 628.329ZM3.08325 653.265L3.16825 664.5L5.06525 660.378C6.10925 658.111 9.03825 653.949 11.5743 651.128L16.1843 646L12.8423 645.996C11.0033 645.994 8.03725 645.101 6.24925 644.011L2.99925 642.029L3.08325 653.265ZM33.3283 655.185C30.5513 656.528 29.6113 660.296 31.0033 664.512C32.3333 668.541 34.2513 669.402 38.6593 667.947C43.9143 666.213 45.6573 660.811 42.4423 656.223C40.7563 653.815 37.0373 653.391 33.3283 655.185ZM428.414 659.421C424.444 661.15 420.998 665.551 421.003 668.885C421.007 671.723 424.387 678 425.911 678C426.429 678 426.998 678.638 427.176 679.417C427.453 680.633 428.069 680.639 431.499 679.458C436.13 677.865 440.009 673.855 439.976 670.694C439.957 668.803 439.745 668.921 438.448 671.551C436.615 675.265 431.71 678.36 429.013 677.504C426.084 676.575 422.999 672.119 422.999 668.82C422.999 662.599 431.639 658.555 436.17 662.655C437.176 663.565 437.999 663.823 437.999 663.228C437.999 662.14 433.264 657.966 432.114 658.039C431.776 658.061 430.111 658.683 428.414 659.421ZM412.029 668.846C411.986 670.763 415.139 675.84 416.759 676.461C417.664 676.808 417.48 676.059 416.214 674.243C415.164 672.734 413.799 670.6 413.182 669.5C412.546 668.367 412.047 668.083 412.029 668.846ZM55.8103 688.706C53.7233 691.079 49.7313 699.066 50.3323 699.667C50.5923 699.927 52.5803 699.234 54.7493 698.127C61.3203 694.775 64.2683 687.901 59.4343 687.206C58.3093 687.044 56.6783 687.719 55.8103 688.706ZM409.341 690.551C408.996 691.449 409.735 693.154 411.096 694.603C413.45 697.109 421.905 701.428 422.768 700.565C423.02 700.312 422.244 698.514 421.042 696.569C417.04 690.094 410.756 686.862 409.341 690.551ZM70.9743 699.565C70.4383 700.976 69.9993 703.084 69.9993 704.249C69.9993 707.862 73.8092 714.457 76.9782 716.328C80.9122 718.652 80.7923 717.993 76.4993 713.7C74.5743 711.775 72.9993 709.45 72.9993 708.534C72.9993 703.622 79.6673 699.163 84.3503 700.943C89.4673 702.889 91.6342 709.536 88.3382 713.177C86.1482 715.598 87.0452 716.356 89.8092 714.42C92.4192 712.593 92.7013 708.258 90.4893 703.98C87.1043 697.435 78.0572 697.137 72.8242 703.397C71.3342 705.179 71.0602 705.243 71.0322 703.815C71.0142 702.888 71.4383 700.976 71.9743 699.565C72.5113 698.154 72.7242 697 72.4492 697C72.1742 697 71.5113 698.154 70.9743 699.565ZM16.4993 702C16.8393 702.55 17.3153 703 17.5583 703C17.8013 703 17.9993 702.55 17.9993 702C17.9993 701.45 17.5223 701 16.9403 701C16.3583 701 16.1593 701.45 16.4993 702ZM20.4993 704C20.8393 704.55 21.5403 705 22.0583 705C22.5763 705 22.9993 704.55 22.9993 704C22.9993 703.45 22.2973 703 21.4403 703C20.5833 703 20.1593 703.45 20.4993 704ZM451.499 704C451.159 704.55 451.358 705 451.94 705C452.522 705 452.999 704.55 452.999 704C452.999 703.45 452.801 703 452.558 703C452.315 703 451.839 703.45 451.499 704ZM25.2613 706.69C26.1913 707.62 27.2323 708.1 27.5753 707.757C28.5603 706.773 27.0493 705 25.2263 705C23.6993 705 23.7023 705.132 25.2613 706.69ZM377.999 709C375.619 711.38 375.499 713.133 377.459 716.923C379.257 720.399 382.111 721.238 386.864 719.686C390.059 718.644 390.536 718.06 390.803 714.865C391.049 711.911 390.602 710.833 388.418 709.115C385.034 706.453 380.595 706.404 377.999 709ZM35.4813 712.982C37.6193 715.172 39.5693 716.763 39.8143 716.518C40.5803 715.753 34.5763 709.148 33.0463 709.072C32.2253 709.031 33.2853 710.732 35.4813 712.982ZM449.59 716.137C449.352 716.887 448.752 718.85 448.257 720.5C447.555 722.835 446.43 723.798 443.177 724.845C438.39 726.386 437.874 728.06 441.576 730.041C442.994 730.8 444.576 732.209 445.092 733.173C445.669 734.251 446.654 734.686 447.651 734.303C448.766 733.875 449.118 734.121 448.778 735.091C448.506 735.866 447.545 736.438 446.641 736.361C445.738 736.285 444.999 736.821 444.999 737.552C444.999 739.849 446.66 740.032 448.551 737.943C450.052 736.284 451.122 736.046 454.673 736.578C459.733 737.337 460.857 735.9 459.115 730.903C458.194 728.262 458.333 727.391 460.013 725.255C462.83 721.673 462.522 721 458.066 721C455.074 721 453.989 720.543 453.528 719.09C452.63 716.263 450.142 714.398 449.59 716.137ZM21.1013 718.597C19.9453 720.067 18.9993 721.659 18.9993 722.135C18.9993 722.611 18.3743 723 17.6103 723C16.8463 723 16.2843 723.649 16.3603 724.441C16.4373 725.234 16.0493 725.904 15.4993 725.93C14.9493 725.956 14.4973 725.232 14.4953 724.321C14.4903 722.323 12.4593 721.446 11.4863 723.021C11.1033 723.641 11.7093 725.127 12.8333 726.324C14.4553 728.052 14.7633 729.349 14.3233 732.62C13.6543 737.61 14.7943 738.565 19.4203 736.892C22.3223 735.843 23.2103 735.908 25.3793 737.33C29.0813 739.755 29.9993 739.414 29.9993 735.615C29.9993 733.108 30.6473 731.805 32.4993 730.592C35.9123 728.356 35.6473 727.366 31.2493 725.933C27.0593 724.567 26.0373 723.481 26.0143 720.372C26.0063 719.202 25.3703 717.723 24.6013 717.085C23.4943 716.166 22.7663 716.48 21.1013 718.597ZM21.2053 720.447C20.1813 722.694 20.2603 723.156 21.7553 723.688C22.7143 724.029 23.8363 724.491 24.2493 724.713C25.5043 725.391 25.0853 721.5 23.6993 719.604C22.4893 717.949 22.3173 718.007 21.2053 720.447ZM450.064 721.138C450.195 722.437 449.784 724.767 449.15 726.315C448.517 727.863 447.999 729.728 447.999 730.458C447.999 732.826 450.732 732.913 452.893 730.613C455.017 728.352 455.791 724 454.069 724C453.557 724 452.994 723.023 452.819 721.828C452.365 718.748 449.758 718.095 450.064 721.138ZM145.499 722C143.833 722.716 144.051 722.871 146.808 722.93C148.774 722.971 149.866 722.594 149.499 722C148.779 720.834 148.212 720.834 145.499 722ZM457.121 722.904C456.363 723.384 456.054 724.28 456.435 724.896C456.924 725.687 457.548 725.594 458.563 724.579C460.965 722.177 460.014 721.071 457.121 722.904ZM118.978 724.116C122.663 725.586 124.767 727.781 129.653 735.25C132.082 738.962 134.31 742 134.604 742C134.899 742 133.421 738.801 131.319 734.892C126.966 726.792 123.043 722.972 119.172 723.063L116.499 723.127L118.978 724.116ZM316.377 724.445C312.108 726.292 309.984 729.674 310.079 734.473L310.16 738.5L311.329 734.031C312.184 730.767 313.415 728.948 315.897 727.281C320.244 724.363 322.493 724.403 325.544 727.455C326.894 728.805 327.999 729.558 327.999 729.129C327.999 727.9 323.705 724.288 321.499 723.662C320.399 723.35 318.094 723.702 316.377 724.445ZM140.948 726.635C140.186 728.638 140.318 729.837 141.495 731.635C143.946 735.374 149.999 734.29 149.999 730.111C149.999 729.024 149.447 729.216 147.951 730.821C146.271 732.624 145.535 732.822 143.852 731.921C142.25 731.064 141.888 730.076 142.199 727.412C142.677 723.319 142.298 723.084 140.948 726.635ZM346.689 727.104C344.617 728.812 341.604 732.821 339.992 736.014C338.38 739.207 335.697 742.791 334.03 743.978C332.363 745.165 330.999 746.556 330.999 747.068C330.999 747.581 334.854 748 339.566 748C347.987 748 348.122 747.961 347.451 745.75C346.698 743.268 346.714 743.414 346.881 740.273C347.031 737.449 351.214 734.616 353.95 735.484C356.862 736.409 356.496 737.818 353.493 737.244C347.936 736.181 346.025 742.297 350.749 746.025C352.924 747.741 354.412 748.093 357.861 747.708C363.298 747.1 365.986 744.514 366.698 739.207C367.411 733.89 366.588 730.854 363.41 727.077C361.132 724.37 360.198 724 355.638 724C351.315 724 349.829 724.516 346.689 727.104ZM18.5093 726.835C17.6033 729.196 22.2623 733.369 24.8783 732.539C27.2153 731.797 27.7083 728.805 25.7493 727.257C23.4413 725.432 19.1433 725.182 18.5093 726.835ZM442.749 726.689C440.316 727.325 440.565 728.481 443.415 729.78C445.361 730.666 445.945 730.584 446.415 729.358C447.684 726.051 447.026 725.572 442.749 726.689ZM27.9993 728.5C27.9993 729.325 28.6473 730 29.4403 730C31.5563 730 32.2423 728.307 30.4113 727.605C28.1833 726.75 27.9993 726.818 27.9993 728.5ZM43.2743 732.046C41.9063 737.802 38.8543 742.594 35.9733 743.508C31.5873 744.9 34.6383 745.53 47.2493 745.834L60.4993 746.153L54.7103 740.962C51.5263 738.106 47.9193 733.799 46.6953 731.391L44.4693 727.012L43.2743 732.046ZM454.215 731.024C452.717 733.424 453.186 734.554 455.983 735.286C458.34 735.902 458.754 733.413 456.749 730.674C455.587 729.086 455.409 729.11 454.215 731.024ZM16.0843 732.25C14.6673 736.001 16.1883 737.045 19.5203 734.608C21.1373 733.426 21.2233 732.975 20.0893 731.608C18.2593 729.404 17.0893 729.591 16.0843 732.25ZM3.00025 739.357C2.99925 745.199 3.23325 746.124 4.58125 745.607C5.45125 745.273 7.53625 745 9.21625 745H12.2693L9.74625 743.016C8.35925 741.924 6.27325 739.112 5.11225 736.766L3.00125 732.5L3.00025 739.357ZM26.1873 733.884C25.1763 734.509 25.2373 734.952 26.4763 735.981C28.3803 737.561 29.5083 736.732 28.3263 734.62C27.8063 733.691 26.9673 733.402 26.1873 733.884ZM116.749 733.689C115.786 733.941 114.999 734.612 114.999 735.182C114.999 735.778 116.028 735.959 117.427 735.608C120.469 734.844 122.973 737.158 123.069 740.821C123.13 743.152 123.24 743.242 123.914 741.516C124.977 738.794 124.151 736.22 121.652 734.469C120.498 733.661 119.317 733.052 119.026 733.116C118.736 733.18 117.712 733.438 116.749 733.689ZM321.171 736.571C322.175 737.593 323.532 738.01 324.565 737.613C326.673 736.804 326.344 736.48 322.499 735.575C319.683 734.912 319.601 734.973 321.171 736.571ZM367.999 738.809C367.999 740.904 367.338 743.491 366.531 744.559C365.723 745.626 365.048 746.837 365.031 747.25C365.013 747.663 369.836 747.996 375.749 747.991L386.499 747.981L381.313 745.007C378.461 743.371 374.59 740.45 372.712 738.516C370.834 736.582 369.005 735 368.648 735C368.291 735 367.999 736.714 367.999 738.809ZM113.269 762.528C106.932 765.193 105.187 772.006 109.281 778.102C110.767 780.314 112.512 781.61 114.282 781.816C115.777 781.991 117.465 783.003 118.035 784.066C118.617 785.155 120.12 786 121.475 786C124.355 786 125.767 784.232 123.562 783.386C121.63 782.644 121.602 779.319 123.499 776C125.637 772.261 125.293 768.503 122.511 765.196C119.441 761.548 117.164 760.891 113.269 762.528ZM356.04 762.315C350.944 764.904 351.664 771.341 357.182 772.521C361.356 773.414 362.999 774.723 362.999 777.154C362.999 781.123 356.824 780.174 355.499 776.001C354.456 772.713 352.999 773.732 352.999 777.75V781.5H358.035C363.266 781.5 364.433 780.69 365.62 776.237C366.389 773.347 364.614 771.23 359.806 769.306C355.825 767.713 354.827 765.387 357.659 764.3C358.772 763.873 360.069 764.604 361.594 766.516L363.868 769.369L364.528 766.741C365.245 763.883 364.403 761.633 362.951 762.53C362.45 762.839 361.215 762.651 360.206 762.111C358.958 761.443 357.627 761.508 356.04 762.315ZM126.381 763.191C125.976 763.846 126.175 764.559 126.822 764.774C127.572 765.024 127.999 767.654 127.999 772.027C127.999 777.982 128.292 779.092 130.222 780.443C131.444 781.299 133.668 782 135.165 782C139.201 782 140.999 778.714 140.999 771.337C140.999 767.916 141.449 764.84 141.999 764.5C143.995 763.266 142.928 762 139.892 762C137.298 762 136.916 762.289 137.576 763.75C138.928 766.742 139.229 775.702 138.051 777.903C135.329 782.989 131.999 778.664 131.999 770.042C131.999 766.586 132.443 765.043 133.562 764.614C134.422 764.284 134.846 763.561 134.503 763.007C133.634 761.6 127.275 761.744 126.381 763.191ZM146.031 762.75C146.048 763.163 146.723 764.374 147.531 765.441C149.502 768.047 149.48 777.376 147.499 779.357C145.266 781.59 145.593 781.85 150.249 781.54C155.651 781.182 155.767 781.139 154.161 780.121C152.608 779.137 152.01 772.414 153.499 772.676C154.049 772.773 155.286 773.158 156.249 773.533C157.734 774.111 157.994 773.629 157.967 770.357C157.939 766.936 157.785 766.698 156.607 768.25C154.138 771.503 151.28 769.424 153.169 765.75C154.463 763.235 157.535 763.595 159.847 766.534C162.121 769.425 163.055 768.741 162.29 764.744C161.771 762.028 161.684 762 153.882 762C149.547 762 146.013 762.337 146.031 762.75ZM165.681 762.651C165.323 763.009 165.811 763.873 166.765 764.571C168.114 765.557 168.499 767.337 168.499 772.586C168.499 777.095 168.084 779.472 167.249 779.75C163.972 780.842 166.726 781.607 173.749 781.556C181.836 781.498 182.958 780.974 182.984 777.25C183.003 774.351 182.251 774.41 179.82 777.5C177.182 780.855 173.252 780.856 172.41 777.502C171.449 773.672 172.545 771.686 174.918 772.957C177.557 774.369 177.476 774.442 177.678 770.496C177.776 768.573 177.439 767 176.928 767C176.417 767 175.999 767.627 175.999 768.393C175.999 769.159 175.347 770.036 174.55 770.342C172.622 771.082 171.467 767.346 173.039 765.452C174.875 763.239 177.627 763.712 179.926 766.635L181.999 769.27V765.635V762H174.166C169.857 762 166.039 762.293 165.681 762.651ZM184.999 762.965C184.999 763.495 185.899 764.411 186.999 765C188.654 765.886 188.999 767.094 188.999 772C188.999 776.933 188.658 778.112 186.971 779.015C184.174 780.512 185.434 782 189.499 782C193.514 782 194.726 780.584 192.563 778.421C191.655 777.513 190.999 775.144 190.999 772.774C190.999 768.759 191.033 768.721 192.99 770.492C194.085 771.483 196.129 774.253 197.532 776.647C198.935 779.041 200.514 781 201.041 781C201.568 781 201.999 777.551 201.999 773.329C201.999 767.594 202.417 765.196 203.654 763.829C205.233 762.084 205.111 762 200.999 762C196.826 762 196.744 762.061 198.41 763.902C199.569 765.182 200.028 767.062 199.815 769.652L199.499 773.5L195.999 767.778C192.753 762.471 192.227 762.055 188.749 762.028C186.687 762.013 184.999 762.434 184.999 762.965ZM219.483 764.611C216.388 767.952 215.654 770.347 216.441 774.544C217.9 782.32 227.398 784.532 231.717 778.102C234.898 773.366 234.687 768.948 231.098 765.106C227.347 761.091 222.921 760.902 219.483 764.611ZM235.749 763.649C237.678 765.017 237.999 766.148 237.999 771.587C237.999 776.935 237.681 778.1 235.971 779.015C232.724 780.753 234.669 781.97 240.087 781.59C245.978 781.177 246.933 780.57 244.085 779.046C242.858 778.389 241.999 776.939 241.999 775.524C241.999 772.012 243.801 771.471 245.208 774.56L246.426 777.233L247.123 774.63C247.506 773.198 247.588 771.146 247.307 770.069C246.88 768.437 246.486 768.304 244.942 769.267C242.538 770.769 241.596 769.742 242.409 766.504C243.379 762.637 245.691 762.333 249.141 765.62L252.164 768.5L251.831 765.5L251.499 762.5L242.499 762.277C234.017 762.067 233.629 762.146 235.749 763.649ZM263.999 763.113C263.999 763.647 264.837 764.983 265.862 766.083C266.886 767.183 268.513 770.994 269.476 774.553C271.959 783.726 272.775 783.839 274.504 775.25C275.411 770.744 276.557 771.189 277.913 776.572C279.443 782.65 281.086 781.86 283.209 774.025C284.15 770.554 285.916 766.653 287.134 765.357C288.351 764.06 289.157 762.938 288.923 762.863C286.654 762.13 263.999 762.357 263.999 763.113ZM293.487 764.25C291.75 770.291 288.449 777.673 286.819 779.16C284.193 781.556 284.524 782 288.94 782C293.386 782 294.918 780.648 292.27 779.062C290.592 778.057 290.601 777.922 292.44 776.501C294.971 774.544 296.907 774.597 297.693 776.645C298.079 777.652 297.605 778.815 296.47 779.645C295.451 780.39 294.815 781.04 295.058 781.088C301.482 782.375 309.677 780.775 304.115 779.32C302.604 778.925 301.579 777.224 300.388 773.137C297.738 764.037 296.834 762 295.445 762C294.724 762 293.843 763.013 293.487 764.25ZM307.999 762.878C307.999 763.361 308.902 764.373 310.006 765.128C312.769 767.016 313.282 776.589 310.721 778.461C307.97 780.473 308.711 782 312.44 782C316.509 782 317.736 780.594 315.563 778.421C313.867 776.725 313.42 770.476 314.928 769.544C315.439 769.228 317.528 771.676 319.57 774.985C321.612 778.293 323.669 781 324.141 781C324.613 781 324.999 777.386 324.999 772.969C324.999 766.752 325.338 764.807 326.499 764.362C329.379 763.256 327.967 762 323.844 762C319.882 762 319.766 762.085 321.344 763.829C322.283 764.867 322.999 767.329 322.999 769.523V773.389L320.413 769.944C318.99 768.05 317.426 765.487 316.937 764.25C316.221 762.437 315.268 762 312.024 762C309.81 762 307.999 762.395 307.999 762.878ZM330.999 762.571C330.999 762.886 331.729 763.873 332.62 764.764C333.908 766.052 334.134 767.729 333.718 772.91C333.43 776.499 332.7 779.6 332.097 779.801C329.198 780.767 331.554 781.997 336.249 781.968C340.784 781.941 341.265 781.759 339.779 780.63C338.557 779.702 337.947 777.469 337.672 772.912C337.2 765.105 337.556 764 340.549 764C346.465 764 348.055 776.592 342.599 780.235C341.968 780.656 342.464 780.976 343.764 780.985C346.358 781.002 349.989 775.883 349.995 772.2C350 769.094 347.413 764.292 345.054 763.03C343.056 761.96 330.999 761.567 330.999 762.571ZM222.556 765.223C220.645 767.951 220.486 776.917 222.305 779.404C223.096 780.486 224.548 781.054 225.988 780.845C228.962 780.413 230.253 776.281 229.375 770C228.378 762.865 225.58 760.904 222.556 765.223ZM112.556 766.223C110.12 769.699 110.854 778.377 113.498 777.362C114.281 777.062 114.74 777.544 114.649 778.574C114.567 779.515 115.062 780.483 115.749 780.726C116.495 780.989 116.999 780.31 116.999 779.039C116.999 777.568 117.539 777.003 118.749 777.206C120.139 777.44 120.56 776.665 120.797 773.442C121.226 767.598 119.62 764 116.58 764C115.164 764 113.449 764.947 112.556 766.223ZM271.657 764.675C270.66 765.672 270.898 770.304 272.033 772C272.909 773.308 273.213 773.27 274.412 771.704C275.169 770.715 275.561 769.043 275.285 767.986C274.683 765.682 272.574 763.758 271.657 764.675ZM279.477 768.75C279.862 770.813 280.387 772.712 280.643 772.971C281.493 773.832 282.968 770.541 282.984 767.75C282.996 765.614 282.528 765 280.888 765C278.99 765 278.847 765.38 279.477 768.75ZM293.429 770.321C292.629 772.408 293.629 773.77 294.974 772.425C295.542 771.857 295.557 770.903 295.011 770.02C294.244 768.778 294.004 768.824 293.429 770.321ZM158.901 778.031L156.304 780.825L158.896 781.321C162.34 781.979 162.999 781.436 162.999 777.941C162.999 774.378 162.283 774.394 158.901 778.031Z" fill="black"/>
</svg>
