<svg width="471" height="793" viewBox="0 0 471 793" fill="none" xmlns="http://www.w3.org/2000/svg">
<path fill-rule="evenodd" clip-rule="evenodd" d="M0 1.14092C0 1.99092 29.068 2.15492 114.121 1.78692L228.242 1.29292L231.229 7.67592C233.863 13.3059 234.172 14.9099 233.841 21.2799C233.51 27.6749 233.026 29.1629 229.613 34.2859C225.055 41.1279 219.504 45.2169 211.691 47.4879C205.129 49.3959 204.417 50.2139 209.683 49.7939C214.2 49.4349 214.765 50.8149 214.878 62.5009C214.967 71.5939 213.336 76.2699 207.932 82.4249L204.601 86.2189L203.406 82.3599L202.21 78.5009L202.105 84.8139C201.847 100.31 188.244 115.001 174.154 115.001C168.534 115.001 159.834 112.625 155.294 109.851L152.089 107.893L154.168 103.904C155.311 101.71 156 99.6669 155.697 99.3649C155.395 99.0629 154.388 100.319 153.46 102.158C149.906 109.196 141.255 115.689 129.643 120.034C124.707 121.88 122.269 122.162 114.143 121.822C105.467 121.46 103.717 121.041 96.694 117.646C92.4 115.57 88.655 113.266 88.371 112.527C88.088 111.787 88.563 109.813 89.428 108.141C90.464 106.137 90.95 102.781 90.853 98.3009L90.707 91.5009L90.053 98.5599C89.62 103.24 88.638 106.85 87.142 109.272C81.399 118.563 65.383 126.125 54.779 124.552C51.273 124.031 50.84 124.128 52.384 125.084C53.568 125.817 56.799 126.069 61.08 125.763C66.7 125.361 68.013 125.558 68.586 126.888C69.751 129.596 69.972 145.223 68.912 150.001C65.608 164.889 54.484 177.377 42.679 179.448C40.577 179.817 38.305 180.33 37.63 180.59C36.954 180.849 35.416 179.306 34.21 177.161C33.004 175.016 31.26 172.64 30.333 171.881C29.405 171.122 30.345 173.547 32.42 177.27C37.473 186.335 38.118 192.903 34.942 202.965C31.692 213.263 26.063 218.826 15.302 222.376C11.011 223.791 5.813 225.053 3.75 225.18L0 225.41L0.217 239.455L0.435 253.501L0.747 240.791L1.059 228.081L4.78 227.468C6.826 227.132 12.094 225.651 16.486 224.179C26.791 220.724 33.652 214.474 36.931 205.557C39.254 199.241 40.019 190.522 38.701 185.389C37.924 182.364 38.007 182.263 41.701 181.765C54.501 180.039 66.69 167.913 70.574 153.041C72.197 146.825 72.463 133.102 71.055 128.192C70.27 125.457 70.398 124.793 71.805 124.29C74.673 123.265 86 115.629 86 114.721C86 114.25 87.341 114.819 88.979 115.986C90.618 117.153 95.005 119.518 98.729 121.241C104.8 124.05 106.483 124.376 115 124.392C122.454 124.406 125.767 123.928 130.383 122.17C137.545 119.442 144.593 115.505 148.156 112.24L150.812 109.807L155.156 112.292C165.331 118.113 178.96 118.459 188.269 113.133C194.358 109.65 200.433 101.799 203.5 93.4519C204.501 90.7289 207.001 86.7009 209.055 84.5009C215.726 77.3589 217.388 72.8149 217.205 62.2269C217.117 57.1259 216.576 52.0769 216.003 51.0069C215.1 49.3179 215.506 48.7839 219.076 46.9619C224.848 44.0179 230.998 37.4969 234.367 30.7519C236.837 25.8049 237.177 24.1289 236.828 18.6389C236.552 14.3019 235.572 10.6279 233.759 7.13391L231.096 2.00092H269.164H307.233L303.673 5.94092C298.175 12.0259 297 15.0489 297 23.1039C297 28.9909 297.535 31.4399 299.929 36.5069C303.175 43.3769 310.624 50.7759 315.219 51.6949C318.373 52.3259 318.401 52.3839 316.904 55.1799C315.125 58.5039 315.453 75.0459 317.379 79.1039C318.939 82.3929 318.92 82.7899 317.012 86.7399C313.497 94.0159 312.686 100.037 314.359 106.443C316.238 113.638 317.844 116.041 324.063 120.956C329.942 125.604 334.197 126.988 342.628 126.995C346.644 126.999 349.154 127.482 349.913 128.396C350.55 129.164 352.518 130.067 354.286 130.403C357.403 130.996 357.505 131.177 357.651 136.36C357.844 143.208 361.779 151.665 366.944 156.332C369.08 158.261 370.529 160.173 370.164 160.581C369.799 160.988 369.982 161.048 370.571 160.713C371.16 160.378 373.185 161.075 375.071 162.26C377.984 164.092 380.028 164.423 388.654 164.459L398.808 164.501L400.589 167.801C403.204 172.649 409.392 177.822 416.625 181.206C421.931 183.689 424.378 184.213 431.249 184.339C438.221 184.466 440.042 184.145 443 182.266C449.928 177.865 450.91 177.564 454.886 178.625C456.953 179.177 459.287 179.322 460.072 178.948C460.857 178.574 462.914 177.815 464.643 177.262L467.785 176.256L467.818 184.878C468.044 244.331 467.479 311.855 466.75 312.584C466.337 312.997 466 312.464 466 311.4C466 307.261 457.534 297.278 450 292.533C442.401 287.748 431.561 285.697 425.681 287.932C423.918 288.602 421.512 288.328 417.097 286.954C406.999 283.811 396.675 286.322 389.542 293.655C384.272 299.072 382.513 302.706 381.283 310.713C380.777 314.013 383.57 324.617 385.213 325.633C387.01 326.743 387.058 325.179 385.408 319.246C383.267 311.545 384.098 305.706 388.219 299.484C392.19 293.489 397.659 289.522 404.076 287.983C409.493 286.683 412.719 287.021 418.684 289.514L422.475 291.098L419.288 293.116C415.997 295.199 410 303.316 410 305.686C410 306.424 409.488 307.848 408.862 308.851C408.1 310.07 407.994 312.298 408.542 315.587L409.361 320.501L410.157 313.215C411.169 303.957 414.751 298.424 423.364 292.814C429.031 289.122 429.901 288.856 434.753 289.337C444.664 290.318 456.675 297.885 462.001 306.503C465.968 312.922 466.139 323.982 462.416 333.415C461.915 334.683 462.024 335.104 462.738 334.663C463.331 334.296 464.393 331.747 465.097 328.999C465.802 326.25 466.743 324.001 467.189 324.001C467.635 324.001 468 337.439 468 353.862V383.724L465.25 383.358L462.5 382.992L465.25 384.08C469.725 385.85 468.586 387.501 462.89 387.501C458.285 387.501 457.496 387.842 454.89 390.963C452.81 393.456 452.032 395.416 452.115 397.963L452.23 401.501L452.961 397.729C454.275 390.95 461.072 386.364 465.941 388.97C467.892 390.013 468 390.939 468 406.53V422.988L463.75 426.121C456.228 431.667 449.525 434.261 444.727 433.486C428.907 430.928 416.345 416.053 415.221 398.548C414.777 391.621 416.402 384.034 419.189 380.026C419.773 379.187 419.056 379.778 417.598 381.338L414.946 384.175L409.956 380.973C407.212 379.212 402.274 374.833 398.983 371.241C394.272 366.099 393 365.163 393 366.833C393 369.41 404.083 380.663 409.425 383.51L413.162 385.501L412.523 391.549C411.78 398.585 414.069 410.309 417.233 415.672C418.341 417.55 419.08 419.243 418.874 419.435C418.668 419.627 414.68 420.984 410.01 422.452C398.37 426.11 377.838 428.444 369.169 427.094C362.502 426.056 360.369 426.375 363.02 428.014C366.725 430.303 376.537 430.425 392.75 428.384C397.217 427.821 398 427.967 398 429.362C398 430.263 397.352 431.001 396.559 431.001C395.766 431.001 394.829 431.469 394.475 432.041C394.057 432.718 394.823 432.864 396.666 432.46C398.836 431.985 399.148 432.089 398 432.905C396.705 433.825 396.739 433.972 398.25 433.986C399.212 433.994 400 434.676 400 435.501C400 436.326 400.39 437.001 400.866 437.001C401.347 437.001 401.366 435.111 400.909 432.751C399.856 427.309 399.848 427.001 400.759 427.001C402.115 427.001 405.273 443.128 404.139 444.262C403.435 444.966 402.908 444.378 402.468 442.396C401.433 437.736 401.037 437.257 401.276 440.955C401.466 443.876 401.115 444.516 399 445.105L396.5 445.802L399 446.001L401.5 446.2L399 447.001C396.534 447.791 396.531 447.803 398.809 447.901C400.079 447.956 400.861 448.417 400.547 448.926C399.426 450.739 398.617 458.647 398.595 468.001C398.576 476.276 398.911 478.177 401.194 482.746L403.815 487.992L400.657 488.906L397.5 489.821L400.5 490.029L403.5 490.238L400.5 491.001C397.702 491.713 397.791 491.772 401.809 491.883C406.768 492.019 406.666 493.935 401.691 494.119L398.5 494.238L401.5 494.951L404.5 495.665L401 496.743C397.631 497.78 397.605 497.824 400.309 497.911C402.287 497.974 402.89 498.37 402.346 499.25C401.922 499.937 401.558 501.399 401.537 502.5C401.507 504.115 400.729 504.553 397.5 504.773C395.3 504.922 387.875 505.702 381 506.506C374.125 507.309 357.925 508.266 345 508.632C323.743 509.234 320.45 509.1 310.5 507.233C294.918 504.31 278.977 503.002 258.888 502.997C241.486 502.994 218.245 500.697 204 497.573C200.425 496.789 195.925 495.91 194 495.618C172.037 492.296 163.203 490.409 151.719 486.588C131.471 479.851 114.748 472.208 97.296 461.712C89.109 456.788 87.033 455.074 86.796 453.038C86.572 451.118 84.554 449.199 78.5 445.149C74.1 442.206 70.366 439.23 70.203 438.536C69.614 436.033 76.861 433.711 83.409 434.304C86.755 434.608 88.819 434.49 87.996 434.043C82.596 431.11 71.258 432.773 69.511 436.755C68.322 439.467 68.448 439.502 61.538 434.501C55.126 429.86 54.615 427.702 58.947 423.552C61.522 421.084 62.458 420.793 66.378 421.234C71.555 421.818 86.368 429.725 91.694 434.749C93.591 436.538 95.609 438.001 96.178 438.001C96.748 438.001 96.936 438.726 96.596 439.612C96.136 440.809 96.402 441.061 97.63 440.589C98.905 440.1 99.035 440.254 98.199 441.262C97.589 441.996 97.473 443.148 97.932 443.891C98.528 444.855 98.943 444.903 99.459 444.067C99.849 443.436 100.993 443.181 102 443.501C103.007 443.821 104.118 443.619 104.468 443.053C104.86 442.419 104.413 442.268 103.302 442.66C101.937 443.141 101.768 443.004 102.604 442.095C103.457 441.166 104.533 441.288 107.354 442.633C109.359 443.589 111 444.765 111 445.245C111 445.726 111.395 445.875 111.879 445.576C112.362 445.277 114.189 445.748 115.94 446.621C118.869 448.082 118.998 448.346 117.561 449.933C115.735 451.951 115.49 456.568 117.155 457.596C117.905 458.06 118.036 457.868 117.529 457.049C116.945 456.103 117.47 455.93 119.625 456.356C121.206 456.669 124.654 457.221 127.286 457.582C129.918 457.943 133.068 459.07 134.286 460.087L136.5 461.934L133.409 461.968C131.709 461.986 128.13 461.343 125.456 460.538C122.781 459.733 120.441 459.227 120.255 459.412C119.225 460.443 129.917 463.386 139.062 464.589C144.87 465.354 155.895 467.814 163.562 470.057C181.037 475.171 189 477.045 189 476.045C189 475.616 186.863 474.812 184.25 474.258C181.637 473.703 173.919 471.626 167.099 469.641C160.278 467.657 151.053 465.256 146.599 464.305C140.731 463.053 138.003 461.953 136.696 460.313C134.784 457.913 130.81 456.585 122.25 455.487C119.073 455.079 117 454.319 117 453.562C117 450.526 124.628 446.7 134 445.036L138.5 444.236L134.428 444.119C132.189 444.054 128.207 444.733 125.579 445.629C120.988 447.193 120.637 447.174 116.555 445.136C114.22 443.969 109.202 441.731 105.404 440.161C101.607 438.592 94.45 434.607 89.5 431.307C84.55 428.007 79.475 424.765 78.222 424.104C75.225 422.521 76.07 421.405 80.845 420.642C86.509 419.736 94.05 421.464 106.5 426.522C117.24 430.884 117.496 431.062 117.347 434.046C117.169 437.599 119.312 437.625 119.832 434.077C120.118 432.126 120.607 431.885 123.332 432.352C125.074 432.651 129.2 433.167 132.5 433.5C141.659 434.424 151.792 437.016 152.396 438.591C152.694 439.366 153.476 440.001 154.135 440.001C154.794 440.001 154.995 439.664 154.582 439.251C154.169 438.838 157.582 437.978 162.166 437.338C177.344 435.221 184.269 435.996 178.967 439.218C177.806 439.924 176.145 442.076 175.277 444.001C174.103 446.604 173.591 447.053 173.276 445.751C172.96 444.441 171.929 444.039 169.177 444.151C166.157 444.274 165.992 444.375 168.25 444.717C169.763 444.946 171 445.748 171 446.498C171 447.248 171.787 448.051 172.75 448.283C173.713 448.515 172.7 448.498 170.5 448.245C168.3 447.992 164.025 447.196 161 446.475C157.975 445.755 152.125 444.937 148 444.657L140.5 444.149L147.5 445.546C151.35 446.314 155.983 447.205 157.795 447.526C160.13 447.939 161.421 448.895 162.224 450.805L163.357 453.501L163.763 451.133C164.151 448.877 164.412 448.803 169.335 449.549C172.176 449.979 180.8 450.435 188.5 450.56C205.996 450.846 215.113 452.802 219.75 457.265C223.305 460.687 224.273 459.985 220.921 456.417L218.842 454.204L229.671 453.464C236.424 453.003 241.965 453.115 244.391 453.762C247.505 454.591 250.6 454.341 259.891 452.506C266.276 451.245 273.342 449.946 275.593 449.62C277.844 449.294 281.894 448.024 284.593 446.797C288.561 444.994 291.173 444.588 298.243 444.677C303.563 444.744 306.755 444.413 306.396 443.833C306.072 443.308 302.206 442.974 297.804 443.091L289.802 443.302L288.242 440.081C284.878 433.136 272.521 427.364 258.741 426.301C251.621 425.752 250.704 425.445 249.715 423.274C248.848 421.372 248.921 420.644 250.057 419.853C251.204 419.055 251.232 418.741 250.197 418.324C249.221 417.931 249.347 417.455 250.697 416.432C251.807 415.59 252.012 415.052 251.23 415.033C249.801 414.997 253.142 407.581 254.998 406.668C255.577 406.384 255.476 406.261 254.775 406.396C254.074 406.531 252.6 408.055 251.5 409.783C250.4 411.51 249.232 412.941 248.904 412.962C248.266 413.004 246.755 388.913 247.358 388.31C247.555 388.113 251.943 388.822 257.108 389.886C262.274 390.95 270.1 392.321 274.5 392.932C285.743 394.494 303.845 398.932 307.985 401.141C309.902 402.164 311.839 403.001 312.29 403.001C313.109 403.001 322.15 406.918 322.892 407.594C323.107 407.79 322.207 408.885 320.892 410.025L318.5 412.1L321.7 410.55C325.607 408.659 326.13 408.644 328.47 410.355C330.207 411.625 330.079 411.875 326.429 414.355C324.288 415.81 322.954 417.001 323.464 417.001C323.975 417.001 326.099 415.818 328.185 414.373L331.978 411.744L337.667 416.04C344.39 421.115 355.347 427.001 358.073 427.001C361.191 427.001 360.279 425.221 356.765 424.449C352.96 423.614 350.874 422.384 341.5 415.446C331.434 407.997 322.708 403.616 307.949 398.602C299.036 395.574 280.833 391.439 272.5 390.55C269.2 390.198 262.306 388.968 257.18 387.816L247.861 385.722L248.18 364.564C248.564 339.189 248.368 339.686 260.265 333.932C264.736 331.77 268.972 330.001 269.679 330.001C272.932 330.001 288.191 321.759 294.5 316.595C306.648 306.651 311.875 299.231 316.859 284.855C321.523 271.405 324.216 248.557 323.914 225.001C323.771 213.809 323.422 210.969 321.875 208.39C314.999 196.928 292.909 192.166 242.5 191.282C192.657 190.407 164.357 193.998 146.178 203.503C143.254 205.032 140.192 207.305 139.374 208.553C137.422 211.531 136.316 244.556 137.851 254.001C138.432 257.576 139.437 263.864 140.085 267.975C143.248 288.062 154.81 307.16 171.346 319.609C178.589 325.062 186.208 328.687 198.258 332.416C209.163 335.791 212.081 338.574 214.494 347.901C216.609 356.077 217.767 375.001 216.152 375.001C215.541 375.001 209.931 372.076 203.686 368.501C192.029 361.829 188.525 360.894 183.595 363.14C180.723 364.448 178.349 368.885 177.483 374.564C176.163 383.223 183.193 396.191 192.666 402.571C195.875 404.733 198.725 406.778 199 407.116C199.275 407.455 200.625 408.076 202 408.497C203.375 408.919 205.75 410.144 207.279 411.221C208.807 412.297 211.631 413.613 213.554 414.144C215.478 414.675 216.86 415.422 216.627 415.805C216.394 416.188 215.707 418.351 215.1 420.612C214.027 424.614 213.864 424.739 208.937 425.322C202.66 426.065 191.396 429.73 187.822 432.191C183.919 434.878 154.921 435.892 146.949 433.619C143.952 432.765 137.225 431.638 132 431.114C124.669 430.379 120.103 429.204 112 425.968C94.228 418.868 93.973 418.801 85.5 418.994C73.906 419.258 70.149 419.243 64.11 418.911C59.182 418.64 58.515 418.867 56.339 421.558C53.119 425.538 52.577 428.189 54.063 432.693C55.503 437.056 67.018 448.956 71.884 451.11C73.598 451.869 75 452.793 75 453.164C75 454.378 81.938 458.157 82.982 457.512C83.542 457.166 84.013 457.472 84.029 458.192C84.065 459.788 106.01 474.493 115 478.946C118.575 480.717 123.539 483.225 126.032 484.518C128.524 485.812 133.699 487.388 137.532 488.02C149.677 490.022 165.308 493.05 171 494.505C174.025 495.277 179.65 496.187 183.5 496.527C187.35 496.866 194.325 497.997 199 499.038C203.675 500.08 211.325 501.39 216 501.95C220.675 502.509 227.425 503.405 231 503.939C234.575 504.474 247.977 505.169 260.782 505.483C287.85 506.147 301.351 507.288 308.901 509.55C317.405 512.098 360.695 511.798 379.973 509.058C398.175 506.471 400 506.452 400 508.846C400 509.861 399.038 511.548 397.862 512.596C396.04 514.22 393 519.767 393 521.469C393 523.337 394.977 521.377 396.5 518.001C398.466 513.641 400.987 512.666 401.022 516.251C401.053 519.467 404.116 525.736 408.361 531.272L412.019 536.043L409.26 537.083C405.515 538.495 402.033 540.261 398.798 542.39L396.097 544.168L394.461 540.334C393.299 537.611 392.962 534.691 393.297 530.251C393.667 525.366 393.467 524.001 392.385 524.001C390.484 524.001 390.546 535.161 392.476 540.501L393.921 544.501L389.702 548.501C383.959 553.946 378.319 562.74 373.702 573.447C370.567 580.719 369.741 583.995 369.293 590.947L368.741 599.501L362.054 599.176C340.638 598.136 319.765 613.459 315.911 633.05C315.084 637.253 314.213 639.048 312.642 639.791C308.032 641.97 299.248 651.059 296.168 656.837C290.907 666.707 288.699 674.552 288.654 683.535L288.614 691.569L281.606 695.035C269.217 701.162 251.045 721.233 250.988 728.853C250.981 729.759 249.44 731.495 247.564 732.71C244.218 734.877 238 742.822 238 744.931C238 745.558 235.777 746.001 232.632 746.001H227.263L226.788 738.751C225.995 726.659 219.534 717.149 208.453 711.766C205.053 710.114 203.456 708.504 201.79 705.047C197.513 696.172 184.918 685.678 174.75 682.515C171.588 681.532 169 680.619 169 680.486C169 680.354 169.734 678.503 170.632 676.373C176.317 662.88 167.687 645.235 151.245 636.735C147.619 634.86 145.183 632.992 145.449 632.29C146.294 630.057 144.107 619.915 141.6 614.438C139.103 608.984 132.492 601.792 126 597.468C120.648 593.903 110.44 590.898 102.969 590.689C96.533 590.509 96.277 590.408 97.058 588.353C98.89 583.526 99.004 577.912 97.414 570.847C95.402 561.906 94.903 560.89 89.249 554.208C84.903 549.07 77.046 544.143 70.801 542.639C67.096 541.746 51.098 541.634 47.853 542.478C45.374 543.122 44.995 542.733 41.872 536.333C37.908 528.211 30.352 520.227 23.201 516.603C17.947 513.941 6.678 511.749 3.08 512.69C1.171 513.189 1.054 512.667 0.747 502.358L0.425 491.501L0.212 503.119L0 514.738L7.25 515.244C17.517 515.96 24.978 519.09 31.427 525.386C36.999 530.826 40.915 537.43 43.071 545.018C43.78 547.513 44.515 548.763 44.729 547.837C45.701 543.631 64.646 542.915 75.332 546.68C86.287 550.54 94.735 562.92 95.678 576.496C96.362 586.346 94.539 591.196 89.779 592.185C85.347 593.105 74.511 597.845 75.219 598.553C75.508 598.843 78.84 597.893 82.623 596.443C104.99 587.867 129.878 596.165 139.368 615.362C141.309 619.289 143.177 624.787 143.519 627.581L144.141 632.661L133.82 632.588C124.708 632.525 122.85 632.821 117.946 635.117C111.096 638.324 105.542 643.096 101.796 648.993L98.942 653.484L92.398 653.148C79.888 652.505 67.369 659.29 62.666 669.262C59.867 675.197 58.561 681.001 60.025 681.001C60.561 681.001 61 679.889 61 678.53C61 671.254 68.974 660.598 76.927 657.244C81.596 655.276 93.446 653.982 97.129 655.038C99.793 655.802 100.181 655.567 101.938 652.122C104.65 646.807 110.525 641.356 117.5 637.684C123.067 634.753 124.222 634.524 133.5 634.513C142.627 634.502 144.022 634.763 149.486 637.501C156.52 641.026 163.915 648.27 167.178 654.832C170.141 660.789 170.409 672.699 167.695 677.751C166.085 680.746 165.54 681.011 160.724 681.128L155.5 681.255L161.827 682.076C174.025 683.659 182.77 687.732 191.17 695.745C198.553 702.787 201.995 709.515 202.015 716.947C202.026 720.902 202.31 722.069 203 721.001C203.533 720.176 203.976 718.039 203.985 716.251C204.003 712.37 204.857 712.243 209.77 715.392C215.233 718.893 219.604 723.551 221.924 728.344C224.215 733.077 226.166 744.781 224.804 745.622C223.695 746.307 165.054 746.205 72.25 745.355C20.707 744.883 0 745.004 0 745.775C0 746.37 2.362 747.101 5.25 747.398C8.138 747.696 82.5 748.237 170.5 748.601C258.5 748.965 334.55 749.397 339.5 749.562C344.45 749.726 374.938 749.892 407.25 749.931L466 750.001V770.751V791.501L233.25 791.288C96.011 791.162 1.321 791.441 2.5 791.967C5.192 793.169 466.701 793.293 467.444 792.092C467.753 791.592 468.226 765.604 468.496 734.342C468.765 703.079 469.307 658.376 469.7 635.001C470.637 579.159 470.763 79.0879 469.84 76.5009C469.448 75.4009 469.098 96.6079 469.063 123.629C468.992 178.897 469.596 174.949 461.083 175.767C454.451 176.404 449.999 174.704 443.871 169.195C441.012 166.625 439.173 165.456 439.784 166.598C440.395 167.739 442.713 170.316 444.936 172.324L448.976 175.974L443.738 179.043C438.905 181.875 437.92 182.082 431 181.726C415.778 180.943 402.929 171.977 400.583 160.501C400.245 158.851 399.896 154.711 399.807 151.302C399.712 147.654 399.251 145.346 398.689 145.693C398.137 146.034 397.96 149.585 398.269 154.096L398.804 161.908L394.59 162.54C389.621 163.285 380.387 161.753 375.302 159.34C370.624 157.12 365.861 152.312 363.478 147.404C361.206 142.723 360.304 130.437 361.897 125.868C363.417 121.506 362.527 121.07 360.447 125.158C359.511 126.997 358.627 128.64 358.481 128.81C358.335 128.979 356.705 128.475 354.858 127.688C350.786 125.955 347.67 122.701 345.047 117.444C343.693 114.731 343.068 114.125 343.044 115.501C343.024 116.601 343.906 118.974 345.004 120.775C346.102 122.576 347 124.326 347 124.663C347 125.001 343.962 124.966 340.25 124.586C332.574 123.801 326.956 120.992 322.179 115.552C314.464 106.765 315.153 90.7949 323.613 82.3349C325.997 79.9509 328.608 78.0009 329.415 78.0009C330.222 78.0009 331.159 77.5519 331.498 77.0039C332.386 75.5669 327.375 77.5979 323.865 80.0969C321.672 81.6579 320.881 81.8299 320.523 80.8219C317.645 72.7199 318.001 58.7879 321.238 52.8819C322.328 50.8919 324.984 48.1919 327.139 46.8819C333.768 42.8529 334.804 41.8169 330.5 43.5199C328.3 44.3899 325.097 46.4599 323.382 48.1199C320.359 51.0459 320.158 51.0939 316.809 49.6949C305.35 44.9069 297.51 27.9629 300.91 15.3359C301.563 12.9109 303.926 9.07592 306.596 6.10492L311.166 1.02292L352.333 0.750915C374.975 0.600915 304.963 0.370915 196.75 0.239915C49.991 0.0619152 0 0.290915 0 1.14092ZM398.28 0.736915C400.909 0.943915 404.959 0.940915 407.28 0.731915C409.601 0.521915 407.45 0.352915 402.5 0.355915C397.55 0.358915 395.651 0.530915 398.28 0.736915ZM212 6.75592C212 7.30592 212.675 8.31592 213.5 9.00092C214.337 9.69492 215 9.80392 215 9.24592C215 8.69592 214.325 7.68592 213.5 7.00092C212.663 6.30692 212 6.19792 212 6.75592ZM216.022 6.62891C216.034 7.10791 216.916 8.62592 217.982 10.0009C219.824 12.3769 219.892 12.3909 219.352 10.2839C218.783 8.06292 215.98 4.98691 216.022 6.62891ZM222.115 10.0009C222.161 10.8259 222.56 12.6259 223 14.0009L223.801 16.5009L223.885 14.0009C223.931 12.6259 223.533 10.8259 223 10.0009C222.138 8.66792 222.04 8.66792 222.115 10.0009ZM228.713 11.5009C229.676 15.4959 229.67 22.6809 228.699 27.0009C228.063 29.8339 228.132 30.1489 229.06 28.6549C231.086 25.3939 231.397 15.8809 229.606 12.0009C228.098 8.73692 228.038 8.70292 228.713 11.5009ZM225.693 13.5009C226.582 19.3729 228.186 22.5859 227.488 17.0969C227.179 14.6749 226.513 11.9749 226.007 11.0969C225.394 10.0349 225.289 10.8389 225.693 13.5009ZM66.5 12.7139C65.4 12.9789 64.05 13.6329 63.5 14.1689C62.848 14.8039 63.369 14.9299 65 14.5309C66.375 14.1949 70.311 13.8259 73.746 13.7099C77.181 13.5949 79.993 13.1629 79.996 12.7509C80 11.9459 69.81 11.9179 66.5 12.7139ZM76 17.0339C79.575 17.4459 84.075 18.0489 86 18.3739C89.466 18.9589 89.461 18.9519 85.5 17.5599C83.3 16.7869 78.8 16.1839 75.5 16.2199L69.5 16.2849L76 17.0339ZM80.583 21.1339C80.877 21.6109 81.921 22.0009 82.902 22.0009C83.884 22.0009 87.232 22.8769 90.343 23.9469C96.615 26.1049 98.016 25.7409 92.427 23.4059C87.918 21.5219 79.868 19.9779 80.583 21.1339ZM354.5 21.7139C349.92 22.8159 351.263 23.6799 356.172 22.7899C359.103 22.2589 361.688 21.6389 361.917 21.4129C362.46 20.8759 357.076 21.0939 354.5 21.7139ZM99.226 27.5749C100.176 28.5689 101.227 29.1079 101.562 28.7719C101.897 28.4369 101.12 27.6239 99.836 26.9649C97.603 25.8199 97.576 25.8469 99.226 27.5749ZM342.583 28.0139C339.879 29.0699 337.193 30.4079 336.615 30.9859C336.036 31.5649 338.248 30.9639 341.531 29.6509C344.814 28.3369 348.175 27.0149 349 26.7109C350.333 26.2199 350.333 26.1549 349 26.1269C348.175 26.1089 345.288 26.9579 342.583 28.0139ZM91.083 27.3739C92.112 28.2949 98 30.9999 98 30.5519C98 29.9759 92.456 27.0009 91.383 27.0009C90.989 27.0009 90.854 27.1689 91.083 27.3739ZM89 30.4059C89 30.6289 91.138 32.0349 93.75 33.5309C96.362 35.0269 100.915 38.5569 103.867 41.3759C106.819 44.1949 108.76 45.5729 108.182 44.4379C105.644 39.4609 89 27.2849 89 30.4059ZM71.287 32.0709C58.272 33.3669 42.695 45.0649 38.519 56.6789L36.754 61.5869L30.127 61.6729C22.682 61.7709 15.168 64.2459 9.732 68.3919C6.065 71.1879 0.34 78.6739 1.205 79.5389C1.481 79.8159 2.907 78.2289 4.373 76.0139C13.339 62.4649 33.579 58.9849 46.909 68.7009C48.811 70.0859 49.215 70.1449 48.826 68.9799C48.556 68.1689 46.036 66.3789 43.226 65.0029C40.416 63.6269 38.091 62.1589 38.059 61.7399C37.9 59.6759 42.737 51.3969 46.64 47.0569C60.317 31.8449 83.216 29.6359 97.441 42.1579C102.983 47.0359 104.309 46.7879 99.75 41.7259C93.291 34.5539 82.639 30.9409 71.287 32.0709ZM100 32.1869C100.825 33.0099 103.975 35.8779 107 38.5589L112.5 43.4339L108.5 39.1339C106.3 36.7689 103.15 33.9009 101.5 32.7619C99.85 31.6219 99.175 31.3629 100 32.1869ZM339.75 33.5729C338.238 34.3939 337 35.2529 337 35.4819C337 35.9059 344.156 33.1169 344.917 32.3959C345.987 31.3809 342.199 32.2439 339.75 33.5729ZM332.208 37.1429C330.398 38.3019 329.099 39.4329 329.323 39.6569C329.895 40.2289 335.986 36.6629 335.994 35.7509C336.002 34.7289 335.945 34.7499 332.208 37.1429ZM451.5 37.0009C449.682 37.7819 449.727 37.8579 452 37.8309C453.375 37.8149 455.625 37.4409 457 37.0009C459.438 36.2199 459.425 36.1999 456.5 36.1709C454.85 36.1549 452.6 36.5279 451.5 37.0009ZM450.25 40.1919C447.913 40.7019 446 41.5059 446 41.9789C446 42.4529 447.645 42.3849 449.656 41.8299C451.667 41.2749 455.03 40.9849 457.13 41.1849C459.23 41.3849 460.622 41.2589 460.224 40.9039C458.761 39.6009 454.389 39.2889 450.25 40.1919ZM324.5 42.4699C322.85 43.8219 321.984 44.9449 322.576 44.9649C323.167 44.9849 324.708 43.8759 326 42.5009C328.985 39.3239 328.354 39.3109 324.5 42.4699ZM178 42.3789C178 42.5859 178.787 43.3739 179.75 44.1289C181.336 45.3719 181.371 45.3369 180.128 43.7509C178.821 42.0849 178 41.5559 178 42.3789ZM450.69 44.0979C446.486 45.0869 442.588 46.9219 443.261 47.5949C443.498 47.8329 445.323 47.3459 447.314 46.5139C449.306 45.6819 452.552 45.0009 454.527 45.0009C456.666 45.0009 457.868 44.5969 457.5 44.0009C456.789 42.8509 455.939 42.8629 450.69 44.0979ZM188.733 45.1249C189.412 45.8089 190.219 46.1159 190.526 45.8079C190.834 45.4999 190.279 44.9409 189.293 44.5649C187.868 44.0229 187.753 44.1369 188.733 45.1249ZM459.813 44.6839C460.534 44.9729 461.397 44.9369 461.729 44.6049C462.061 44.2729 461.471 44.0369 460.417 44.0799C459.252 44.1279 459.015 44.3649 459.813 44.6839ZM183.5 46.6079C186.244 48.8279 192.781 51.6619 197 52.4599C199.581 52.9479 200.106 52.8479 199 52.0769C198.175 51.5019 196.533 51.0249 195.352 51.0159C194.17 51.0079 190.57 49.6479 187.352 47.9949C184.133 46.3419 182.4 45.7169 183.5 46.6079ZM194.5 47.4679C197.823 49.0659 202.676 49.6109 200 48.0849C199.175 47.6149 196.925 46.9599 195 46.6279L191.5 46.0259L194.5 47.4679ZM451.271 48.5569C446.169 49.9159 438.812 53.8779 437.525 55.9599C436.566 57.5129 438.575 57.2179 439.909 55.6109C440.544 54.8459 443.411 53.1979 446.281 51.9489C452.639 49.1819 463.71 48.9259 467.573 51.4569C469.867 52.9599 470 52.9359 470 51.0239C470 49.9109 469.663 49.0869 469.25 49.1909C468.837 49.2959 467.15 49.0789 465.5 48.7089C458.991 47.2479 456.296 47.2189 451.271 48.5569ZM191.5 55.0109C193.416 55.8249 201.778 56.3849 200.917 55.6409C200.688 55.4429 198.025 55.0289 195 54.7209C191.577 54.3729 190.255 54.4819 191.5 55.0109ZM469.272 70.0009C469.272 72.4759 469.467 73.4879 469.706 72.2509C469.944 71.0139 469.944 68.9879 469.706 67.7509C469.467 66.5139 469.272 67.5259 469.272 70.0009ZM352.5 70.0009C354.15 70.4209 356.625 70.7859 358 70.8119C360.268 70.8559 360.315 70.7809 358.5 70.0009C357.4 69.5279 354.925 69.1629 353 69.1899L349.5 69.2379L352.5 70.0009ZM348.264 73.7189C349.784 73.9479 352.034 73.9419 353.264 73.7049C354.494 73.4679 353.25 73.2799 350.5 73.2869C347.75 73.2949 346.744 73.4889 348.264 73.7189ZM357 74.5699C361.457 76.3179 364.388 76.9889 363.446 76.0469C362.891 75.4919 360.877 74.8009 358.969 74.5099C357.061 74.2189 356.175 74.2459 357 74.5699ZM140.171 81.0979C139.451 82.2519 139.142 83.4759 139.485 83.8189C140.217 84.5519 141.963 82.0599 141.985 80.2509C142.006 78.5239 141.686 78.6729 140.171 81.0979ZM143.497 84.0069C142.499 86.2219 139.391 90.3599 136.591 93.2039C132.993 96.8569 132.43 97.7289 134.671 96.1749C138.809 93.3069 142.95 88.3429 144.71 84.1429C146.73 79.3209 145.664 79.2019 143.497 84.0069ZM146.157 86.7619C144.947 88.8189 143.237 91.5139 142.357 92.7509C141.476 93.9879 141.031 95.0009 141.368 95.0009C142.277 95.0009 149.381 84.0489 148.829 83.4969C148.569 83.2369 147.366 84.7059 146.157 86.7619ZM137 86.5009C136.282 87.3659 136.185 88.0009 136.771 88.0009C137.329 88.0009 138.045 87.3259 138.362 86.5009C138.678 85.6759 138.781 85.0009 138.591 85.0009C138.401 85.0009 137.685 85.6759 137 86.5009ZM418.813 88.6839C419.534 88.9729 420.397 88.9369 420.729 88.6049C421.061 88.2729 420.471 88.0369 419.417 88.0799C418.252 88.1279 418.015 88.3649 418.813 88.6839ZM404.497 93.1379C402.531 94.8639 400.464 97.2259 399.901 98.3879C399.207 99.8239 399.738 99.5399 401.558 97.5009C403.032 95.8509 405.421 93.5049 406.869 92.2869C408.316 91.0689 409.178 90.0569 408.785 90.0369C408.391 90.0169 406.462 91.4129 404.497 93.1379ZM411.872 91.6649C410.628 93.1729 410.71 93.2169 412.75 92.1299C415.077 90.8899 415.65 90.0009 414.122 90.0009C413.64 90.0009 412.627 90.7499 411.872 91.6649ZM145.196 94.2989C141.381 98.2339 140.885 100.393 144.592 96.9249C146.957 94.7129 149.551 91.0009 148.731 91.0009C148.545 91.0009 146.954 92.4849 145.196 94.2989ZM417.56 93.0229C414.844 94.0839 411.919 95.6599 411.06 96.5269C410.09 97.5059 411.715 97.0909 415.357 95.4289C418.578 93.9589 423.528 92.4179 426.357 92.0039L431.5 91.2509L427 91.1729C424.525 91.1299 420.277 91.9619 417.56 93.0229ZM407.872 94.7509C406.629 96.3369 406.664 96.3719 408.25 95.1289C409.916 93.8219 410.445 93.0009 409.622 93.0009C409.415 93.0009 408.627 93.7879 407.872 94.7509ZM396.602 97.1589C394.235 100.539 394.655 101.709 397.114 98.5829C398.277 97.1049 398.998 95.6649 398.716 95.3839C398.434 95.1019 397.483 95.9009 396.602 97.1589ZM419.724 97.4679C414.515 99.4629 407.989 104.378 405 108.557C402.822 111.603 402.114 111.972 399.5 111.421C392.824 110.015 391.775 110.083 396.67 111.605C401.81 113.203 401.837 113.234 401.379 116.857C400.925 120.445 400.944 120.431 402.55 116.001C404.74 109.965 411.142 103.564 418.737 99.8169C424.432 97.0069 425.513 96.8009 431.194 97.4429C437.533 98.1609 441.728 99.6449 445.75 102.595C447.009 103.518 448 103.769 448 103.165C448 102.571 445.915 100.863 443.367 99.3699C437.695 96.0459 425.911 95.0979 419.724 97.4679ZM138.78 103.889C136.971 105.478 133.58 107.773 131.245 108.99C126.08 111.683 125.683 112.578 130.558 110.541C134.744 108.792 138.749 106.048 141.405 103.109C144.158 100.062 142.617 100.52 138.78 103.889ZM323 103.942C323 104.46 323.445 105.158 323.989 105.494C324.555 105.844 324.723 105.443 324.382 104.553C323.717 102.821 323 102.504 323 103.942ZM320.694 107.938C321.364 110.501 327.608 117.738 330.338 119.117C331.527 119.717 330.799 118.768 328.721 117.008C326.643 115.248 324.046 112.051 322.951 109.904C320.786 105.661 319.895 104.885 320.694 107.938ZM325 107.677C325 108.904 329.659 113.23 333.5 115.569C336.977 117.686 337.082 117.817 330.25 111.546C327.363 108.896 325 107.155 325 107.677ZM137.662 110.18C136.102 111.344 132.277 113.344 129.162 114.625C126.048 115.905 124.334 116.964 125.354 116.977C127.636 117.006 141 110.088 141 108.877C141 107.713 140.941 107.736 137.662 110.18ZM376.942 109.949C371.257 111.674 362.944 117.952 363.041 120.447C363.063 121.027 364.3 120.096 365.791 118.378C369.821 113.733 376.475 110.742 384.5 109.969L391.5 109.294L385.5 109.234C382.2 109.2 378.349 109.522 376.942 109.949ZM335.065 113.58C335.714 114.361 336.891 115.001 337.681 115.001C339.693 115.001 338.46 113.355 335.958 112.7C334.257 112.255 334.097 112.413 335.065 113.58ZM32.496 117.844C33.586 119.132 35.383 120.65 36.489 121.216C38.613 122.304 38.303 121.968 33.507 117.986C30.62 115.589 30.584 115.584 32.496 117.844ZM53.267 128.601C53.597 128.931 55.502 129.201 57.5 129.201C59.498 129.201 61.403 128.931 61.733 128.601C62.063 128.271 60.158 128.001 57.5 128.001C54.842 128.001 52.937 128.271 53.267 128.601ZM49.839 131.22C54.35 132.649 56.786 132.956 58.287 132.286C60.081 131.485 59.806 131.32 56.449 131.182C54.277 131.093 50.928 130.566 49.007 130.011C42.684 128.183 43.362 129.168 49.839 131.22ZM48.5 135.032C50.417 135.826 63.776 136.387 62.917 135.638C62.687 135.438 58.9 135.033 54.5 134.739C49.873 134.429 47.343 134.553 48.5 135.032ZM51.768 139.726C53.565 139.948 56.265 139.944 57.768 139.716C59.271 139.487 57.8 139.305 54.5 139.311C51.2 139.316 49.971 139.503 51.768 139.726ZM53.269 143.694C54.242 143.948 55.592 143.931 56.269 143.657C56.946 143.383 56.15 143.176 54.5 143.196C52.85 143.216 52.296 143.44 53.269 143.694ZM405.318 163.603C407.24 167.377 413.253 172.797 417.427 174.518C423.018 176.824 432.104 178.297 433.307 177.094C434.098 176.303 433.031 176.001 429.45 176C422.458 175.999 413.58 171.593 408.079 165.393C404.588 161.458 404.048 161.108 405.318 163.603ZM431.5 166.001C429.572 166.83 429.579 166.863 431.691 166.931C432.896 166.969 434.16 166.551 434.5 166.001C435.231 164.818 434.252 164.818 431.5 166.001ZM429 169.001L425.5 169.738L430 169.854C432.475 169.918 435.175 169.534 436 169.001C437.176 168.241 436.96 168.057 435 168.148C433.625 168.212 430.925 168.596 429 169.001ZM419.595 170.899C421.384 172.847 433.374 174.474 435.615 173.073C437.244 172.054 437.04 171.948 434.118 172.294C430.768 172.69 424.357 171.81 420.5 170.425C418.984 169.88 418.765 169.995 419.595 170.899ZM21 180.942C21 181.46 21.445 182.158 21.989 182.494C22.555 182.844 22.723 182.443 22.382 181.553C21.717 179.821 21 179.504 21 180.942ZM25.189 184.001C25.215 185.376 25.58 187.851 26 189.501L26.763 192.501L26.811 189.001C26.838 187.076 26.473 184.601 26 183.501C25.22 181.686 25.145 181.733 25.189 184.001ZM29.553 188.251C29.342 188.939 28.921 191.911 28.619 194.857C28.317 197.803 27.692 200.728 27.23 201.357C25.608 203.569 24.052 208.001 24.898 208.001C26.397 208.001 30.152 197.925 30.726 192.365C31.225 187.527 30.528 185.08 29.553 188.251ZM32.65 195.535C31.758 202.043 28.545 208.828 24.201 213.373C21.663 216.029 21.194 216.889 22.709 216.11C25.16 214.85 28.919 210.173 31.355 205.353C33.594 200.922 35.272 192.873 34.184 191.785C33.655 191.256 33.026 192.795 32.65 195.535ZM319.488 221.02C317.472 224.282 299.452 230.66 286 232.873C268.127 235.813 219.951 237.158 194.836 235.418C166.109 233.428 150.551 229.777 143.983 223.485L141.247 220.864L140.785 224.01C139.755 231.029 153.93 237.329 179.5 241.219C211.613 246.104 277.05 243.302 300.5 236.037C307.473 233.877 320.117 228.184 318.183 228.075C316.581 227.985 317.497 224.343 319.773 221.751C320.618 220.788 321.042 220.001 320.714 220.001C320.386 220.001 319.835 220.46 319.488 221.02ZM0.397 239.001C0.397 246.976 0.553 250.239 0.743 246.251C0.932 242.263 0.932 235.739 0.743 231.751C0.553 227.763 0.397 231.026 0.397 239.001ZM316.09 233.098C301.531 239.557 294.267 241.179 267 244.058C229.886 247.977 216.262 247.814 173.5 242.944C163.511 241.806 147.782 236.999 144.146 233.971C142.851 232.894 141.346 232.287 140.801 232.624C139.28 233.564 141.276 257.389 144.063 271.546C145.512 278.903 149.625 288.447 151.517 288.838C152.449 289.032 152.915 289.78 152.605 290.588C152.307 291.365 152.531 292.001 153.103 292.001C154.741 292.001 157.194 294.879 156.505 295.993C156.162 296.548 156.809 297.001 157.941 297.001C159.073 297.001 160 297.451 160 298.001C160 299.91 160.379 300.511 162.767 302.39C164.632 303.857 164.87 304.468 163.834 305.125C162.968 305.673 163.816 305.976 166.25 305.986C170.851 306.004 171.226 307.722 166.75 308.278C164.217 308.592 164.535 308.716 168.191 308.841C173.761 309.031 175.867 311.001 170.5 311.001C168.343 311.001 167.131 311.405 167.5 312.001C167.84 312.551 170.755 313.001 173.977 313.001C180.322 313.001 183 313.654 183 315.201C183 315.77 180.687 316.041 177.525 315.844C172.148 315.507 172.084 315.535 173.95 317.398C176.128 319.573 182.642 320.855 191.95 320.941C198.289 321 199.331 322.231 194 323.362C192.625 323.653 195.014 323.724 199.31 323.519C203.605 323.314 208.659 323.396 210.54 323.701C217.263 324.792 212.685 326.004 201.191 326.176C194.761 326.272 191.497 326.527 193.939 326.742C196.521 326.97 198.878 327.819 199.575 328.772C200.526 330.073 202.261 330.359 208.01 330.161C214.341 329.943 215.17 330.116 214.624 331.538C214.281 332.433 214 333.353 214 333.583C214 333.813 213.272 334.001 212.381 334.001C211.078 334.001 211.265 334.66 213.337 337.376C215.138 339.738 216.529 343.783 217.969 350.847C220.799 364.735 221.144 408.341 218.516 420.001C216.745 427.858 211.542 437.075 204.442 444.933L200.93 448.82L206.215 450.068C209.286 450.793 219.88 451.414 231.5 451.551C248.945 451.755 257.032 451.251 266.927 449.342L269.355 448.874L266.636 447.09C261.868 443.962 252.295 434.128 251.018 431.045C250.34 429.407 248.933 427.797 247.892 427.467C246.852 427.137 246 426.447 246 425.934C246 425.421 245.1 425.001 244 425.001C241.787 425.001 241.29 423.454 243.25 422.663C243.997 422.362 243.795 422.127 242.75 422.08C239.337 421.926 241.059 419.998 244.75 419.841C248.442 419.683 248.45 419.675 245.25 419.278C241.574 418.821 240.81 417.035 244.25 416.938C246.445 416.876 246.439 416.85 244.024 415.886C242.168 415.146 241.883 414.691 242.887 414.071C243.932 413.425 243.95 413.151 242.97 412.824C242.014 412.506 241.979 411.908 242.824 410.33C243.434 409.189 243.757 407.334 243.54 406.207C243.312 405.024 243.775 403.918 244.636 403.587C245.456 403.273 245.892 402.636 245.606 402.172C245.319 401.708 244.974 399.68 244.838 397.665C244.689 395.459 244.076 394.001 243.296 394.001C242.12 394.001 241.569 392.733 241.882 390.751C241.947 390.338 241.495 390.001 240.878 390.001C240.102 390.001 240.14 389.537 241 388.501C241.685 387.676 241.852 386.972 241.372 386.938C240.893 386.903 241.625 386.383 243 385.783L245.5 384.692L242.5 383.965C240.85 383.565 239.95 383.177 240.5 383.104C241.05 383.031 240.838 382.551 240.028 382.039C238.43 381.029 238.934 380.686 243.5 379.676C244.847 379.377 244.521 379.19 242.5 379.102C240.175 379 239.838 378.752 241 378.001C242 377.355 242.083 377.027 241.25 377.016C239.006 376.989 239.938 375.004 242.25 374.885C244.054 374.792 244.139 374.676 242.677 374.298C241.604 374.02 241.076 373.244 241.395 372.414C241.749 371.492 241.253 371.001 239.969 371.001C237.037 371.001 237.308 367.037 240.25 366.885C241.943 366.798 242.067 366.656 240.75 366.312C238.203 365.646 238.609 364.137 241.532 363.404C243.893 362.811 243.944 362.677 242.282 361.416C241.302 360.673 241.03 360.05 241.677 360.033C243.496 359.984 243.815 356.699 242.188 354.772C240.9 353.247 240.919 352.969 242.352 352.419C243.295 352.058 244.835 348.912 246.023 344.923C248.627 336.181 250.786 334.475 268.255 327.363C286.167 320.072 296.09 312.993 304.964 301.18C307.723 297.507 309.985 294.196 309.99 293.824C309.996 293.452 309.212 292.96 308.25 292.732C306.893 292.409 307.174 292.015 309.5 290.98C312.315 289.727 312.361 289.62 310.25 289.253C307.232 288.729 307.414 287.633 310.75 286.232C312.299 285.581 312.569 285.291 311.368 285.568C308.903 286.138 307.172 283.256 309.454 282.38C310.235 282.081 310.656 281.269 310.39 280.576C310.103 279.828 311.244 278.855 313.204 278.178C315.843 277.266 315.952 277.139 313.75 277.539C310.057 278.211 310.24 276.462 314 275.151C315.65 274.576 317 273.868 317 273.578C317 273.288 315.846 273.489 314.435 274.026C309.725 275.816 307.961 274.327 312.25 272.18C314.374 271.117 314.346 271.087 311.75 271.636C307.067 272.627 308.722 270.339 313.696 268.946C319.289 267.38 318.064 266.527 312.134 267.859C305.836 269.275 306.227 267.425 312.681 265.274C315.813 264.23 318.548 262.858 318.759 262.224C318.986 261.543 316.264 262.079 312.09 263.537C304.431 266.213 303 266.463 303 265.124C303 264.641 307.065 262.781 312.032 260.989C317 259.198 320.84 257.507 320.565 257.233C320.29 256.958 317.404 257.728 314.151 258.945C310.898 260.161 306.945 261.003 305.368 260.815C303.042 260.538 304.057 259.942 310.74 257.659C315.271 256.11 319.283 254.353 319.654 253.752C320.108 253.018 319.702 252.919 318.414 253.451C311.27 256.4 298.311 258.926 299.405 257.155C299.745 256.605 301.368 255.859 303.011 255.498C304.655 255.137 306 254.255 306 253.538C306 252.82 308.587 251.211 311.75 249.961C319.587 246.865 320.835 245.477 313.52 247.994C306.248 250.496 304.097 250.067 309.5 247.192C313.492 245.068 313.494 245.065 310.25 245.657C308.158 246.04 307 245.85 307 245.126C307 244.507 307.563 243.968 308.25 243.927C308.938 243.886 311.3 242.976 313.5 241.904C315.7 240.832 316.727 240.171 315.782 240.434C312.943 241.226 312.69 239.1 315.472 237.832C317.25 237.022 317.674 236.418 316.831 235.896C315.992 235.378 316.456 234.75 318.302 233.909C319.786 233.233 321 232.302 321 231.84C321 231.379 320.887 231.033 320.75 231.072C320.613 231.11 318.516 232.023 316.09 233.098ZM318.507 238.99C318.157 239.556 318.558 239.724 319.448 239.383C321.18 238.718 321.497 238.001 320.059 238.001C319.541 238.001 318.843 238.446 318.507 238.99ZM315 244.001C314.175 244.534 313.95 244.97 314.5 244.97C315.05 244.97 316.175 244.534 317 244.001C317.825 243.468 318.05 243.032 317.5 243.032C316.95 243.032 315.825 243.468 315 244.001ZM317.5 250.001C317.16 250.551 317.332 251.001 317.882 251.001C318.432 251.001 319.16 250.551 319.5 250.001C319.84 249.451 319.668 249.001 319.118 249.001C318.568 249.001 317.84 249.451 317.5 250.001ZM397.532 292.97C394.006 295.295 391.053 298.925 391.022 300.974C391.009 301.867 391.674 301.473 392.714 299.974C394.252 297.755 395.874 296.238 400.94 292.283C403.483 290.297 400.753 290.848 397.532 292.97ZM397.053 297.948C395.982 299.019 394.35 301.381 393.426 303.198C391.412 307.157 391.708 306.912 396.383 300.751C400.124 295.82 400.42 294.581 397.053 297.948ZM400.926 312.833C396.531 315.62 391 321.307 391 323.039C391 323.525 390.114 324.748 389.032 325.757C386.074 328.512 383.676 339.231 384.243 347.16C384.597 352.101 385.489 355.209 387.655 359.042C389.268 361.898 391.018 364.069 391.544 363.867C392.07 363.666 392.403 363.276 392.285 363.001C387.106 350.947 386.769 349.553 387.228 342.059C387.984 329.73 394.808 317.794 404.5 311.849C406.15 310.837 407.026 310.007 406.446 310.005C405.866 310.003 403.382 311.275 400.926 312.833ZM177.5 318.001C180.311 319.209 190 319.209 190 318.001C190 317.42 186.964 317.03 182.75 317.071C177.771 317.12 176.127 317.411 177.5 318.001ZM187.75 323.663C188.438 323.941 189.563 323.941 190.25 323.663C190.938 323.386 190.375 323.159 189 323.159C187.625 323.159 187.063 323.386 187.75 323.663ZM200 328.001C200 329.209 209.689 329.209 212.5 328.001C213.873 327.411 212.229 327.12 207.25 327.071C203.036 327.03 200 327.42 200 328.001ZM391.195 334.501C391.215 336.151 391.439 336.705 391.693 335.732C391.947 334.759 391.93 333.409 391.656 332.732C391.382 332.055 391.175 332.851 391.195 334.501ZM462.143 342.644C460.914 345.173 460.076 347.41 460.281 347.615C460.485 347.819 461.677 345.936 462.929 343.43C464.18 340.923 465.018 338.686 464.791 338.459C464.563 338.231 463.372 340.114 462.143 342.644ZM390.079 340.584C390.127 341.749 390.364 341.986 390.683 341.189C390.972 340.467 390.936 339.604 390.604 339.272C390.272 338.94 390.036 339.53 390.079 340.584ZM395.417 346.023C395.632 349.061 396.531 353.111 397.415 355.023C398.425 357.212 398.791 357.574 398.401 356.001C398.06 354.626 397.161 350.576 396.403 347.001L395.026 340.501L395.417 346.023ZM391.079 348.584C391.127 349.749 391.364 349.986 391.683 349.189C391.972 348.467 391.936 347.604 391.604 347.272C391.272 346.94 391.036 347.53 391.079 348.584ZM230 352.418C230 353.289 230.713 354.001 231.583 354.001C233.349 354.001 233.042 351.848 231.188 351.23C230.534 351.012 230 351.547 230 352.418ZM392 353.753C392 355.254 395.338 360.987 396.216 360.995C396.61 360.998 395.966 359.314 394.786 357.251C392.095 352.551 392 352.432 392 353.753ZM230.667 356.668C229.587 357.748 229.896 358.747 231.5 359.363C232.52 359.754 233 359.309 233 357.97C233 356.005 231.928 355.406 230.667 356.668ZM404 359.942C404 360.46 404.445 361.158 404.989 361.494C405.555 361.844 405.723 361.443 405.382 360.553C404.717 358.821 404 358.504 404 359.942ZM230.565 362.896C230.26 363.389 230.64 364.033 231.408 364.327C232.874 364.89 234 364.242 234 362.834C234 361.718 231.263 361.767 230.565 362.896ZM402 363.379C402 363.586 402.788 364.374 403.75 365.129C405.336 366.372 405.371 366.337 404.128 364.751C402.821 363.085 402 362.556 402 363.379ZM183.035 366.964C179.54 370.705 178.508 376.545 180.381 381.982C182.445 387.971 188.605 396.378 193.511 399.902C198.254 403.307 200 403.754 200 401.56C200 400.767 200.485 399.819 201.078 399.453C201.787 399.015 202.044 399.903 201.828 402.044C201.436 405.942 203.208 406.969 204.823 403.779C205.94 401.572 205.969 401.591 205.738 404.388C205.525 406.968 206.11 407.594 211.26 410.294C214.428 411.956 217.26 413.074 217.554 412.781C218.03 412.305 218.201 402.537 218.05 384.466L218 378.43L211.75 375.197C208.313 373.419 202.35 370.179 198.5 367.998C189.976 363.169 186.78 362.955 183.035 366.964ZM230.323 369.602C229.538 371.648 232 373.246 233.729 371.811C234.705 371.001 234.745 370.398 233.89 369.368C232.385 367.554 231.076 367.64 230.323 369.602ZM232 376.942C232 377.46 232.45 378.161 233 378.501C233.55 378.841 234 378.417 234 377.56C234 376.703 233.55 376.001 233 376.001C232.45 376.001 232 376.424 232 376.942ZM232 382.418C232 383.289 232.713 384.001 233.583 384.001C235.349 384.001 235.042 381.848 233.188 381.23C232.534 381.012 232 381.547 232 382.418ZM232.667 386.668C231.516 387.818 231.938 389.001 233.5 389.001C234.325 389.001 235 388.326 235 387.501C235 385.939 233.817 385.517 232.667 386.668ZM231.48 393.033C231.092 393.661 231.245 394.646 231.82 395.221C233.164 396.565 236.297 395.393 235.75 393.75C235.194 392.079 232.364 391.603 231.48 393.033ZM232.177 399.668C232.663 402.177 235 402.521 235 400.084C235 398.856 234.354 398.001 233.427 398.001C232.495 398.001 231.985 398.681 232.177 399.668ZM232.229 405.189C232.847 407.043 235 407.35 235 405.584C235 404.713 234.287 404.001 233.417 404.001C232.546 404.001 232.011 404.535 232.229 405.189ZM318.441 408.469C317.374 409.277 317.007 409.952 317.628 409.969C318.248 409.987 319.315 409.326 320 408.501C321.581 406.596 320.935 406.583 318.441 408.469ZM232.5 410.001C231.771 411.181 232.717 413.001 234.059 413.001C234.577 413.001 235 412.101 235 411.001C235 408.892 233.545 408.31 232.5 410.001ZM334.507 418.99C334.157 419.556 334.558 419.724 335.448 419.383C337.18 418.718 337.497 418.001 336.059 418.001C335.541 418.001 334.843 418.446 334.507 418.99ZM230.255 427.519C228.92 435.909 227.03 440.597 223.409 444.505C220.677 447.452 220.339 449.001 222.427 449.001C224.808 449.001 229.974 441.825 231.605 436.251C233.428 430.023 234.518 429.358 233.612 435.027C233.042 438.588 233.23 439.155 235.234 439.927C237.244 440.702 237.302 440.881 235.75 441.508C234.787 441.897 234 442.842 234 443.608C234 444.374 233.55 445.001 233 445.001C232.45 445.001 232 445.451 232 446.001C232 446.551 234.025 447.001 236.5 447.001C238.975 447.001 241 447.399 241 447.884C241 449.068 246.285 450.055 247.31 449.064C247.756 448.633 246.782 447.154 245.147 445.778C241.238 442.489 237.228 434.425 235.667 426.713C233.825 417.61 231.783 417.914 230.255 427.519ZM410 424.561C402.834 427.169 402.755 427.356 405.092 436.251C405.96 439.556 408 441.545 408 439.086C408 438.582 410.813 436.056 414.25 433.472C417.688 430.888 420.475 428.488 420.444 428.138C420.217 425.543 418.581 422.018 417.642 422.098C417.014 422.151 413.575 423.26 410 424.561ZM421 422.883C421 423.433 421.45 424.161 422 424.501C422.55 424.841 423 424.669 423 424.119C423 423.569 422.55 422.841 422 422.501C421.45 422.161 421 422.333 421 422.883ZM464.515 426.977C464.183 427.513 461.076 429.538 457.61 431.477C453.245 433.918 450.042 435.001 447.191 435.001C442.441 435.001 433.341 431.843 429.591 428.894L427.015 426.868L421.89 429.657C414.832 433.499 405.73 442.542 403.237 448.189C400.091 455.316 398.734 463.368 399.506 470.335C400.263 477.168 404.357 487.437 407.086 489.348C408.735 490.504 408.646 490.993 405.676 497.042C399.881 508.846 401.88 522.072 410.931 531.82C415.468 536.706 417.706 535.909 420.25 528.501C424.216 516.956 432.139 507.664 441.804 503.225C446.42 501.104 449.206 500.568 456.5 500.396L465.5 500.184L457 500.906C446.308 501.815 440.34 504.562 432.989 511.957C427.897 517.079 421 528.802 421 532.335C421 533.309 422.971 533.882 427.75 534.298C431.462 534.621 436.3 535.555 438.5 536.373C443.766 538.331 442.163 538.347 433 536.429C422.104 534.148 411.944 536.292 401.058 543.167C384.613 553.556 372 575.914 372 594.679C372 600.453 372.213 601.061 374.75 602.533C376.262 603.41 376.6 603.834 375.5 603.475C360.572 598.599 342.687 602.346 330.897 612.822C325.924 617.241 319.614 628.112 318.481 634.216L317.79 637.932L323.145 637.446L328.5 636.96L323.251 638.46C320.364 639.285 316.27 640.843 314.154 641.923C308.751 644.679 300.197 654.382 296.818 661.589C292.472 670.857 289.624 686.587 291.765 689.501C292.178 690.063 297.323 690.501 303.5 690.501C313.92 690.501 314.883 690.68 321.751 693.899C325.739 695.768 329.501 697.9 330.112 698.636C330.722 699.371 327.833 698.408 323.691 696.494C307.081 688.82 296.836 689.361 280.711 698.766C269.822 705.117 256.351 719.77 254.455 727.325C253.908 729.503 254.129 730.005 255.642 730.024C256.719 730.038 255.413 731.193 252.533 732.774C247.718 735.417 239.591 744.531 240.598 746.159C240.862 746.587 265.248 746.948 294.789 746.961C324.33 746.975 374.942 747.286 407.261 747.653L466.022 748.321L465.761 705.411L465.5 662.501L459 660.286C446.677 656.088 436.503 658.002 425.811 666.529C416.452 673.993 410.764 683.845 409.37 695.001C408.843 699.218 408.987 699.579 411.654 700.741C413.219 701.423 415.85 703.158 417.5 704.596C420.44 707.158 420.445 707.178 417.75 705.606C416.238 704.723 413.961 703.331 412.691 702.511C406.341 698.414 392.938 698.67 383.581 703.068C376.502 706.395 368.083 714.568 365.335 720.78C364.051 723.683 363 726.694 363 727.47C363 728.247 362.532 729.172 361.96 729.526C360.624 730.351 361.619 725.951 364.05 720.284C366.272 715.102 374.041 706.64 379.466 703.491C385.341 700.081 395.541 697.697 401.627 698.313L406.755 698.831L408.391 692.166C409.292 688.5 411.214 683.07 412.662 680.099C416.214 672.814 425.516 663.857 433.727 659.815C439.391 657.026 441.39 656.559 447.429 656.615C452.391 656.66 455.955 657.324 459.377 658.84C462.06 660.029 464.647 661.001 465.127 661.001C465.607 661.001 466 648.188 466 632.527V604.052L462.925 602.462C461.234 601.588 456.743 600.612 452.945 600.293C440.898 599.283 432.994 604.156 425.645 617.125C421.258 624.865 420.868 624.186 425 616.001C426.65 612.732 428 609.879 428 609.659C428 609.44 425.963 608.691 423.474 607.994C413.678 605.251 401.545 609.146 397.005 616.492C394.39 620.725 393.361 621.137 395.438 617.12C397.295 613.529 402.148 609.384 406.743 607.464C410.833 605.755 421.364 605.535 425.757 607.066C428.511 608.026 429.26 607.789 433.355 604.663C442.021 598.049 452.879 596.537 462.75 600.571L466 601.899L466.13 566.2C466.201 546.566 466.412 523.076 466.598 514.001C467.644 463.143 467.537 426.001 466.344 426.001C465.67 426.001 464.847 426.44 464.515 426.977ZM459.5 433.043C456.75 434.661 455.175 435.986 456 435.989C456.825 435.991 459.525 434.646 462 433.001C467.767 429.167 466.039 429.197 459.5 433.043ZM57 433.534C57 435.226 59.461 438.201 64.013 442.012C69.145 446.308 71.01 446.757 69.13 443.244C68.089 441.299 57 432.423 57 433.534ZM351.102 438.818C351.007 443.797 350.862 444.092 348.835 443.449C346.769 442.793 346.802 442.986 349.534 447.631C351.109 450.31 353.19 454.076 354.159 456.001C356.549 460.75 356.44 459.251 353.902 452.468C352.577 448.926 352.01 445.689 352.364 443.681C352.672 441.932 352.537 438.926 352.064 437.001C351.241 433.65 351.2 433.728 351.102 438.818ZM391.75 437.663C392.438 437.941 393.563 437.941 394.25 437.663C394.938 437.386 394.375 437.159 393 437.159C391.625 437.159 391.063 437.386 391.75 437.663ZM454.5 438.001C453.181 438.568 453.011 438.879 454 438.915C454.825 438.946 456.175 438.534 457 438.001C458.828 436.82 457.249 436.82 454.5 438.001ZM73.282 445.751C75.31 447.814 78.817 450.55 81.074 451.832C84.779 453.937 85.144 453.987 84.829 452.352C84.454 450.404 73.449 442.198 71.047 442.075C70.216 442.033 71.173 443.607 73.282 445.751ZM396.813 442.684C397.534 442.973 398.397 442.937 398.729 442.605C399.061 442.273 398.471 442.037 397.417 442.08C396.252 442.128 396.015 442.365 396.813 442.684ZM103.799 445.127C102.534 446.242 102.024 446.891 102.665 446.571C103.305 446.251 103.98 446.419 104.165 446.945C104.349 447.472 105.567 447.094 106.872 446.105C108.846 444.61 108.98 444.207 107.671 443.705C106.787 443.366 105.09 443.989 103.799 445.127ZM73.06 449.251C76.077 451.925 80.039 454.295 80.582 453.752C81.03 453.305 72.298 447.001 71.231 447.001C70.84 447.001 71.663 448.013 73.06 449.251ZM224.964 462.837C225.623 464.121 226.436 464.898 226.771 464.563C227.107 464.228 226.568 463.177 225.574 462.227C223.846 460.577 223.819 460.604 224.964 462.837ZM94 462.332C94 463.455 106.844 471.465 118.374 477.533C127.799 482.492 132.912 484.507 139.995 486.053C145.097 487.166 149.772 487.909 150.385 487.702C150.998 487.496 149.025 486.75 146 486.045C142.975 485.34 137.35 483.403 133.5 481.742C124.813 477.994 101.629 466.547 97.25 463.844C95.463 462.741 94 462.06 94 462.332ZM404.1 467.001C404.01 470.557 405.815 478.519 406.546 477.789C406.766 477.569 406.325 474.264 405.567 470.445C404.558 465.366 404.164 464.441 404.1 467.001ZM408.079 472.35C407.992 474.383 410.752 480.73 412.08 481.551C412.54 481.835 412.088 480.14 411.076 477.784C410.063 475.429 408.992 472.826 408.696 472.001C408.29 470.869 408.139 470.954 408.079 472.35ZM357.923 478.251C357.881 480.039 357.713 482.176 357.55 483.001C357.387 483.826 356.953 486.976 356.585 490.001C356.027 494.596 356.12 495.172 357.15 493.501C358.424 491.433 359.735 475.001 358.625 475.001C358.281 475.001 357.966 476.463 357.923 478.251ZM192 477.501C193.375 478.287 194.95 478.93 195.5 478.93C196.05 478.93 195.375 478.287 194 477.501C192.625 476.715 191.05 476.072 190.5 476.072C189.95 476.072 190.625 476.715 192 477.501ZM201 481.001C201.825 481.534 203.175 481.946 204 481.915C204.989 481.879 204.819 481.568 203.5 481.001C200.751 479.82 199.172 479.82 201 481.001ZM422.946 484.376C424.842 486.37 427.092 487.999 427.946 487.996C428.97 487.993 428.476 487.135 426.5 485.483C421.372 481.195 419.313 480.553 422.946 484.376ZM206 482.462C206 482.998 211.73 484.509 217.5 485.496C223.338 486.493 221.168 485.098 214.35 483.47C208.101 481.977 206 481.724 206 482.462ZM0.382 503.501C0.384 510.101 0.546 512.671 0.741 509.212C0.937 505.753 0.936 500.353 0.738 497.212C0.54 494.071 0.38 496.901 0.382 503.501ZM72.956 550.953C75.956 552.077 80.231 554.427 82.456 556.174C86.153 559.078 86.287 559.116 84.017 556.614C80.497 552.733 76.138 550.269 71.5 549.539C67.781 548.954 67.884 549.053 72.956 550.953ZM53 554.001C51.96 554.673 53.647 554.939 58.5 554.867C63.816 554.789 64.778 554.581 62.5 554.001C58.148 552.894 54.713 552.894 53 554.001ZM392.872 554.751C391.629 556.337 391.664 556.372 393.25 555.129C394.916 553.822 395.445 553.001 394.622 553.001C394.415 553.001 393.627 553.789 392.872 554.751ZM52.269 557.694C53.242 557.948 54.592 557.931 55.269 557.657C55.946 557.383 55.15 557.176 53.5 557.196C51.85 557.216 51.296 557.44 52.269 557.694ZM389.278 558.251C387.324 560.778 386.657 562.331 387.84 561.6C389.024 560.868 391.393 557.001 390.658 557.001C390.431 557.001 389.81 557.564 389.278 558.251ZM388.073 565.636C386.933 567.085 386.014 568.773 386.032 569.386C386.064 570.527 388.383 567.891 390.108 564.751C391.536 562.153 390.436 562.632 388.073 565.636ZM383.535 566.588C382.603 568.01 382.068 569.402 382.346 569.681C382.625 569.959 383.572 568.795 384.452 567.094C386.396 563.334 385.861 563.038 383.535 566.588ZM380.624 572.54C379.659 575.054 379.943 575.703 381.122 573.676C381.706 572.672 381.973 571.64 381.715 571.383C381.458 571.125 380.966 571.646 380.624 572.54ZM383.626 574.353C382.856 576.196 381.953 579.684 381.619 582.103C381.065 586.116 381.174 585.976 382.866 580.501C383.886 577.201 385.057 573.713 385.467 572.751C385.878 571.789 385.947 571.001 385.62 571.001C385.294 571.001 384.397 572.509 383.626 574.353ZM282.079 581.584C282.127 582.749 282.364 582.986 282.683 582.189C282.972 581.467 282.936 580.604 282.604 580.272C282.272 579.94 282.036 580.53 282.079 581.584ZM383.612 584.625C382.726 587.228 382.025 590.74 382.055 592.429C382.092 594.487 382.751 593.052 384.053 588.082C386.271 579.612 386.012 577.582 383.612 584.625ZM436.5 584.226C433.223 585.392 428.967 588.038 430.527 587.94C431.922 587.852 441.7 583.168 440.5 583.163C439.95 583.161 438.15 583.639 436.5 584.226ZM16 586.001C15.099 586.583 14.975 586.976 15.691 586.986C16.346 586.994 17.16 586.551 17.5 586.001C18.267 584.759 17.921 584.759 16 586.001ZM11 588.001C10.175 588.534 9.95 588.97 10.5 588.97C11.05 588.97 12.175 588.534 13 588.001C13.825 587.468 14.05 587.032 13.5 587.032C12.95 587.032 11.825 587.468 11 588.001ZM437.294 588.327C435.531 588.973 433.506 590.096 432.794 590.823C432.039 591.593 433.792 591.246 437 589.989C440.025 588.803 442.688 587.646 442.917 587.417C443.7 586.635 440.504 587.152 437.294 588.327ZM444.813 587.684C445.534 587.973 446.397 587.937 446.729 587.605C447.061 587.273 446.471 587.037 445.417 587.08C444.252 587.128 444.015 587.365 444.813 587.684ZM384.81 593.501C384.585 595.426 384.761 597.001 385.201 597.001C385.64 597.001 386 595.426 386 593.501C386 591.576 385.824 590.001 385.609 590.001C385.395 590.001 385.035 591.576 384.81 593.501ZM442.072 591.195C439.636 591.615 437.161 592.483 436.572 593.126C435.787 593.982 435.857 594.092 436.832 593.538C437.564 593.122 441.389 592.477 445.332 592.103C450.322 591.631 451.588 591.274 449.5 590.929C447.85 590.656 444.507 590.776 442.072 591.195ZM441.5 594.534L438.5 595.976L442 595.344C443.925 594.996 447.213 594.775 449.306 594.852C451.606 594.936 452.869 594.597 452.497 593.996C451.597 592.541 444.972 592.864 441.5 594.534ZM454 594.336C454 594.594 455.452 595.312 457.227 595.93C459.002 596.549 460.015 596.644 459.477 596.141C458.338 595.075 454 593.645 454 594.336ZM64.962 599.073L61.5 602.145L65.5 599.364C67.7 597.834 69.688 596.451 69.917 596.291C70.146 596.132 69.904 596.001 69.379 596.001C68.854 596.001 66.866 597.383 64.962 599.073ZM387.079 598.584C387.127 599.749 387.364 599.986 387.683 599.189C387.972 598.467 387.936 597.604 387.604 597.272C387.272 596.94 387.036 597.53 387.079 598.584ZM56.861 600.968C55.562 602.049 54.993 602.949 55.595 602.968C56.197 602.986 57.505 602.101 58.5 601.001C60.816 598.442 59.915 598.424 56.861 600.968ZM58.298 604.227C56.03 607.156 55.89 608.343 58.057 606.279C59.339 605.057 60.141 603.808 59.837 603.505C59.533 603.201 58.841 603.526 58.298 604.227ZM52.872 605.751C51.629 607.337 51.664 607.372 53.25 606.129C54.212 605.374 55 604.586 55 604.379C55 603.556 54.179 604.085 52.872 605.751ZM140 639.385C142.475 640.073 145.625 640.993 147 641.43C148.63 641.949 149.152 641.886 148.5 641.25C147.023 639.808 141.083 637.991 138.101 638.068C136.202 638.118 136.715 638.473 140 639.385ZM132.762 640.708C134.006 640.947 135.806 640.938 136.762 640.688C137.718 640.438 136.7 640.242 134.5 640.253C132.3 640.264 131.518 640.469 132.762 640.708ZM143 642.501C147.566 644.259 149.362 644.233 145.5 642.465C143.85 641.709 141.825 641.105 141 641.122C140.175 641.139 141.075 641.76 143 642.501ZM150.109 642.444C150.353 642.687 152.34 644.055 154.526 645.484L158.5 648.081L155.234 645.041C153.438 643.369 151.451 642.001 150.818 642.001C150.185 642.001 149.866 642.2 150.109 642.444ZM128 644.001C125.769 644.716 125.903 644.812 129.25 644.901C131.313 644.956 133 644.551 133 644.001C133 642.856 131.575 642.856 128 644.001ZM134.813 644.684C135.534 644.973 136.397 644.937 136.729 644.605C137.061 644.273 136.471 644.037 135.417 644.08C134.252 644.128 134.015 644.365 134.813 644.684ZM106 657.501C107.375 658.287 108.95 658.93 109.5 658.93C110.05 658.93 109.375 658.287 108 657.501C106.625 656.715 105.05 656.072 104.5 656.072C103.95 656.072 104.625 656.715 106 657.501ZM299.452 662.094C298.572 663.795 298.03 665.364 298.247 665.581C298.464 665.798 299.39 664.407 300.305 662.488C302.361 658.176 301.649 657.846 299.452 662.094ZM296.2 670.701C294.72 675.523 295.436 676.239 297 671.501C297.66 669.502 298.005 667.673 297.767 667.435C297.53 667.197 296.824 668.667 296.2 670.701ZM56.609 672.021C55.724 674.232 55.03 677.27 55.067 678.771C55.12 680.898 55.411 680.508 56.384 677.001C57.072 674.526 57.972 671.488 58.384 670.251C59.66 666.426 58.308 667.773 56.609 672.021ZM299.624 669.54C298.659 672.054 298.943 672.703 300.122 670.676C300.706 669.672 300.973 668.64 300.715 668.383C300.458 668.125 299.966 668.646 299.624 669.54ZM300.973 676.698C300.332 678.838 299.981 681.694 300.194 683.045C300.453 684.685 300.95 683.508 301.691 679.501C302.986 672.496 302.638 671.139 300.973 676.698ZM297.5 678.001C297.125 679.184 297.042 680.377 297.317 680.652C297.592 680.927 298.125 680.184 298.5 679.001C298.875 677.818 298.958 676.625 298.683 676.35C298.408 676.075 297.875 676.818 297.5 678.001ZM304.232 682.001C304.232 683.926 304.438 684.713 304.689 683.751C304.941 682.789 304.941 681.213 304.689 680.251C304.438 679.289 304.232 680.076 304.232 682.001ZM51.252 683.501C51.263 685.701 51.468 686.483 51.707 685.239C51.946 683.995 51.937 682.195 51.687 681.239C51.437 680.283 51.241 681.301 51.252 683.501ZM52.079 693.584C52.127 694.749 52.364 694.986 52.683 694.189C52.972 693.467 52.936 692.604 52.604 692.272C52.272 691.94 52.036 692.53 52.079 693.584ZM383.5 693.723C378.527 695.735 372.14 700.018 369.5 703.111C368.4 704.399 369.288 703.927 371.474 702.061C373.66 700.196 378.61 697.185 382.474 695.371C389.796 691.934 390.428 690.919 383.5 693.723ZM393.813 694.684C394.534 694.973 395.397 694.937 395.729 694.605C396.061 694.273 395.471 694.037 394.417 694.08C393.252 694.128 393.015 694.365 393.813 694.684ZM365.293 701.451C361.832 704.998 359.024 708.485 359.052 709.201C359.081 709.916 359.841 709.376 360.742 708.001C361.642 706.626 364.85 703.139 367.871 700.251C370.893 697.363 372.964 695.001 372.475 695.001C371.986 695.001 368.754 697.903 365.293 701.451ZM383.5 697.045C380.75 698.111 377.15 700.14 375.5 701.553L372.5 704.123L377.162 701.518C379.727 700.086 384.227 698.05 387.162 696.993C390.098 695.937 391.6 695.08 390.5 695.089C389.4 695.098 386.25 695.978 383.5 697.045ZM191.218 701.081C193.219 703.6 195.527 707.2 196.346 709.081C197.166 710.962 197.874 711.921 197.918 711.211C198.064 708.902 194.26 702.571 190.882 699.501L187.58 696.501L191.218 701.081ZM420.083 697.366C420.313 697.567 422.525 698.991 425 700.531C427.723 702.225 428.937 702.646 428.073 701.599C426.68 699.911 421.814 697.001 420.383 697.001C419.989 697.001 419.854 697.165 420.083 697.366ZM358.171 704.098C356.321 707.061 357.142 707.284 359.297 704.403C360.285 703.082 360.731 702.001 360.287 702.001C359.844 702.001 358.892 702.945 358.171 704.098ZM422.246 705.303C423.206 706.08 425.343 708.416 426.996 710.496C428.648 712.575 430 713.799 430 713.215C430 711.633 425.096 706.106 422.642 704.923C420.692 703.983 420.657 704.018 422.246 705.303ZM353.5 711.001C352.594 712.753 352.064 714.398 352.322 714.656C352.58 714.914 353.515 713.675 354.4 711.901C355.285 710.127 355.815 708.483 355.578 708.246C355.341 708.009 354.406 709.249 353.5 711.001ZM46.084 710.001C46.084 710.826 46.946 713.076 48 715.001C49.054 716.926 49.916 717.826 49.916 717.001C49.916 716.176 49.054 713.926 48 712.001C46.946 710.076 46.084 709.176 46.084 710.001ZM268.317 713.251C266.062 715.588 263.483 719.076 262.586 721.001C260.996 724.413 261 724.438 262.727 722.016C263.702 720.649 266.418 717.161 268.762 714.266C271.105 711.37 272.887 709.001 272.72 709.001C272.553 709.001 270.572 710.914 268.317 713.251ZM348.183 713.109C346.305 717.524 344.438 723.927 345.299 722.999C345.553 722.725 346.924 719.598 348.346 716.049C351.24 708.824 351.098 706.254 348.183 713.109ZM193.031 711.501C193.031 712.051 193.467 713.176 194 714.001C194.533 714.826 194.969 715.051 194.969 714.501C194.969 713.951 194.533 712.826 194 712.001C193.467 711.176 193.031 710.951 193.031 711.501ZM198 714.501C198 715.326 198.436 716.001 198.969 716.001C199.501 716.001 199.678 715.326 199.362 714.501C199.045 713.676 198.609 713.001 198.393 713.001C198.177 713.001 198 713.676 198 714.501ZM271 716.283C270.175 716.953 268.842 718.401 268.038 719.501C267.234 720.601 268.022 720.179 269.788 718.564C272.668 715.93 273.501 714.937 272.75 715.033C272.613 715.05 271.825 715.613 271 716.283ZM47.511 721.378C48.457 722.821 49.419 724.001 49.65 724.001C50.374 724.001 48.045 720.147 46.891 719.434C46.287 719.06 46.566 719.935 47.511 721.378ZM106.732 724.537C104.679 725.932 103 727.545 103 728.121C103 728.697 104.8 727.743 107 726.001C110.511 723.22 111.649 722.001 110.732 722.001C110.585 722.001 108.785 723.142 106.732 724.537ZM265 723.06C265 723.642 265.45 723.841 266 723.501C266.55 723.161 267 722.685 267 722.442C267 722.199 266.55 722.001 266 722.001C265.45 722.001 265 722.478 265 723.06ZM109.872 726.751C108.603 728.37 108.65 728.391 110.5 727.034C111.6 726.227 112.688 725.44 112.917 725.284C113.146 725.128 112.863 725.001 112.289 725.001C111.715 725.001 110.627 725.789 109.872 726.751ZM116.75 726.573C115.237 727.394 114 728.287 114 728.559C114 728.83 115.237 728.428 116.75 727.664C118.263 726.9 120.175 726.024 121 725.717C122.333 725.221 122.333 725.155 121 725.12C120.175 725.099 118.263 725.752 116.75 726.573ZM119.2 729.703C113.963 731.266 104 738.869 104 741.302C104 741.915 105.912 740.585 108.25 738.345C113.874 732.955 118.242 730.916 125.5 730.293C132.582 729.685 138.306 731.041 143.48 734.552C147.953 737.588 149.439 737.162 145.116 734.083C137.773 728.855 127.731 727.158 119.2 729.703ZM150.193 761.723C149.695 762.701 148.081 766.702 146.608 770.614C144.848 775.288 143.17 778.093 141.715 778.796C139.839 779.702 140.327 779.876 144.905 779.933C150.19 779.999 150.271 779.958 148.557 778.064C146.439 775.724 147.263 774.001 150.5 774.001C153.573 774.001 154.775 775.961 152.653 777.513C149.937 779.499 150.714 780.001 156.5 780.001C159.525 780.001 162 779.551 162 779.001C162 778.451 161.114 778.001 160.032 778.001C158.433 778.001 157.58 776.413 155.48 769.528C152.722 760.487 151.639 758.888 150.193 761.723ZM164.766 762.919C161.962 765.424 161.5 766.497 161.5 770.501C161.5 774.52 161.959 775.575 164.817 778.129C167.252 780.304 168.716 780.916 170.317 780.429C172.989 779.616 176 777.069 176 775.624C176 775.036 175.299 775.556 174.443 776.778C171.098 781.554 166.934 778.724 166.378 771.298C166.012 766.405 167.817 763.001 170.777 763.001C171.968 763.001 172.01 762.718 171 761.501C169.267 759.413 168.493 759.589 164.766 762.919ZM180.75 760.786C178.611 761.228 178.568 761.712 180.5 763.644C182.634 765.778 182.528 775.761 180.345 778.172C178.754 779.93 179.02 780.001 187.228 780.001C195.745 780.001 195.768 779.994 196.291 777.257C197.102 773.018 196.118 772.664 192.951 776.054C189.112 780.163 186.599 779.675 186.19 774.743C185.898 771.225 187.122 769.772 188.5 772.001C189.822 774.14 190.999 772.83 190.968 769.251C190.94 765.919 190.788 765.696 189.608 767.251C187.584 769.918 185.821 769.403 186.184 766.251C186.598 762.647 191.222 761.782 193.193 764.939C193.902 766.073 194.823 767.001 195.241 767.001C196.53 767.001 196.077 761.963 194.75 761.541C192.815 760.927 182.708 760.382 180.75 760.786ZM212.4 763.401C209.558 766.243 209 767.527 209 771.227C209 776.374 211.654 779.582 216.758 780.603C219.4 781.131 220.419 780.736 222.96 778.195C225.422 775.732 226 774.322 226 770.769C226 766.115 225.01 764.299 221.027 761.647C217.509 759.304 216.239 759.562 212.4 763.401ZM227.75 760.58C226.475 761.863 226.911 762.745 229.106 763.318C231.064 763.831 231.163 764.311 230.517 770.185C230.133 773.675 229.19 776.998 228.411 777.611C225.99 779.516 226.819 780.001 232.5 780.001C237.76 780.001 239.688 778.863 236.5 777.639C235.623 777.303 235 775.804 235 774.032C235 770.637 236.903 769.913 237.71 773.001C238.604 776.418 240 775.199 240 771.001C240 767.204 238.847 765.821 237.5 768.001C236.277 769.98 235 768.942 235 765.97C235 761.942 237.376 761.163 241.151 763.954C244.503 766.433 245.506 766.172 244.524 763.076C243.996 761.414 243.032 760.999 239.683 760.99C237.382 760.984 233.925 760.719 232 760.402C230.075 760.085 228.162 760.165 227.75 760.58ZM260.95 761.721C257.241 764.277 256.067 766.183 256.032 769.704C255.99 773.915 257.741 777.601 260.706 779.544C262.906 780.986 263.406 780.966 266.748 779.308C268.752 778.314 270.585 776.826 270.821 776.001C271.082 775.091 270.4 775.386 269.087 776.751C266.43 779.513 263.416 779.648 262.035 777.067C260.617 774.416 260.729 765.672 262.2 764.201C264.015 762.386 266.833 762.76 268.232 765.001C269.943 767.74 271 767.509 271 764.394C271 762.448 270.606 761.938 269.448 762.383C268.594 762.71 266.884 762.316 265.647 761.506C263.645 760.194 263.132 760.217 260.95 761.721ZM285.75 760.759C283.755 761.202 283.531 762.132 285.052 763.653C285.638 764.239 285.97 767.536 285.802 771.103C285.515 777.18 285.375 777.501 283 777.501C280.665 777.501 280.452 777.073 279.77 771.001C279.186 765.807 279.337 764.278 280.52 763.391C282.881 761.62 282.271 761.001 278.167 761.001C273.666 761.001 272.564 761.77 274.214 763.759C274.872 764.552 275.283 766.96 275.128 769.111C274.563 776.94 277.096 781.001 282.547 781.001C286.025 781.001 288 777.22 288 770.56C288 767.017 288.45 763.841 289 763.501C291.443 761.991 289.1 760.015 285.75 760.759ZM293.296 761.331C293.014 761.787 293.732 762.825 294.892 763.638C296.636 764.86 297 766.146 297 771.089C297 775.477 296.602 777.217 295.5 777.639C294.675 777.956 294 778.799 294 779.513C294 780.458 295.154 780.663 298.25 780.268C300.587 779.97 302.614 779.636 302.754 779.526C302.894 779.416 302.28 777.865 301.389 776.079C299.415 772.122 300.275 770.968 306.282 769.519C309.803 768.669 310.551 768.057 310.81 765.818C311.037 763.851 310.504 762.805 308.81 761.896C306.204 760.498 294.084 760.056 293.296 761.331ZM316.762 761.074C311.327 764.241 312.967 769.776 319.961 771.871C323.384 772.897 324.068 773.508 323.812 775.31C323.595 776.833 322.694 777.594 320.859 777.807C318.736 778.053 317.951 777.512 316.864 775.057C315.006 770.859 314 771.229 314 776.108C314 779.395 314.307 780.097 315.54 779.624C316.386 779.299 317.917 779.557 318.941 780.196C322.953 782.702 328.55 775.766 326.144 771.27C325.58 770.216 323.291 768.806 321.059 768.137C318.108 767.253 317 766.386 317 764.961C317 762.07 320.616 762.485 322.664 765.611L324.374 768.221L325.223 765.926C326.303 763.008 325.418 760.627 323.524 761.354C322.721 761.662 321.798 761.483 321.473 760.957C320.721 759.74 318.978 759.784 316.762 761.074ZM174.212 762.245C173.302 763.342 173.336 764.079 174.364 765.485C176.039 767.775 177.321 766.042 176.197 763.005C175.519 761.173 175.203 761.051 174.212 762.245ZM215.174 763.751C213.363 767.284 212.969 771.174 214.026 775.098C215.032 778.835 215.335 779.098 218.305 778.81C221.487 778.502 221.501 778.475 221.797 772.273C221.961 768.848 221.607 765.136 221.012 764.023C219.682 761.538 216.387 761.384 215.174 763.751ZM301.701 762.633C301.316 763.019 301 764.609 301 766.168C301 768.533 301.418 769.001 303.531 769.001C306.415 769.001 307.819 766.525 306.302 764.115C305.173 762.323 302.782 761.552 301.701 762.633ZM149 770.001C149 771.95 150.061 772.607 151.264 771.403C152.066 770.602 151.017 768.001 149.893 768.001C149.402 768.001 149 768.901 149 770.001Z" fill="black"/>
</svg>
