<svg width="470" height="793" viewBox="0 0 470 793" fill="none" xmlns="http://www.w3.org/2000/svg">
<path fill-rule="evenodd" clip-rule="evenodd" d="M1.9795 2.552C0.810498 5.627 0.596498 790.633 1.7645 791.355C2.1885 791.617 2.6185 782.982 2.7195 772.166C2.8215 761.349 2.9255 751.251 2.9515 749.725L2.9995 746.95L44.7495 747.449C67.7125 747.724 151.074 748.262 229.999 748.645C360.311 749.279 399.84 749.499 450.25 749.875L467 750V770.833V791.666L245.999 791.215C93.7885 790.904 24.9995 791.086 24.9995 791.8C24.9995 792.513 94.1895 792.874 246.113 792.955C457.312 793.067 467.287 792.992 468.581 791.286C469.717 789.789 469.902 726.147 469.726 398.5C469.611 183.45 469.288 47.667 469.008 96.759L468.5 186.018L463.255 182.486C453.671 176.031 444.639 161.853 443.01 150.707C442.592 147.843 442.193 146.738 442.125 148.25C441.967 151.731 440.873 151.704 435.68 148.092C422.303 138.787 414.053 122.283 414.015 104.75C414.006 100.927 413.566 98 413 98C411.457 98 411.805 111.815 413.518 118.54C416.986 132.158 426.356 145.362 436.691 151.195C439.611 152.843 442 154.763 442 155.461C442 156.16 443.604 159.937 445.564 163.855C449.758 172.24 456.987 180.5 464.155 185.1L469.286 188.392L468.696 343.946C468.372 429.501 468.083 499.583 468.053 499.684C468.024 499.785 466.762 500.055 465.25 500.284L462.5 500.7L465.389 500.85L468.277 501L467.68 551.126C467.351 578.695 466.912 601.422 466.703 601.63C466.495 601.838 464.869 601.282 463.089 600.394C461.077 599.391 457.139 598.752 452.677 598.705C446.761 598.642 444.585 599.1 440.294 601.309C437.431 602.783 434.178 604.966 433.066 606.159C431.234 608.126 430.679 608.221 427.156 607.165C422.845 605.873 412.144 605.619 410.35 606.765C409.717 607.169 413.136 607.5 417.947 607.5C427.66 607.5 431.099 608.892 428.762 611.879C428.068 612.766 429.758 611.208 432.518 608.417C439.221 601.639 444.692 599.578 454.24 600.235C458.233 600.51 462.749 601.322 464.275 602.039L467.049 603.344L467.048 633.422C467.047 649.965 467.095 665.3 467.154 667.5C467.213 669.7 467.202 688.742 467.13 709.816L467 748.132L354.75 747.436C293.013 747.053 242.335 746.597 242.135 746.423C241.935 746.248 242.733 744.55 243.908 742.649C246.57 738.342 253.008 732.45 256.139 731.455C258.195 730.801 258.269 730.623 256.716 730.077C255.083 729.504 255.194 728.931 258.022 723.272C263.953 711.403 280.712 697.316 294.428 692.669C303.293 689.666 315.081 690.925 324.846 695.917C327.237 697.139 329.38 697.952 329.609 697.724C329.837 697.495 326.757 695.776 322.763 693.904C315.844 690.661 314.968 690.5 304.25 690.51L293 690.52V683.687C293 671.754 298.84 657.222 307.178 648.405C312.303 642.986 316.27 640.615 324 638.347L328.5 637.027L323.659 637.588C319.311 638.093 318.872 637.964 319.349 636.325C319.642 635.321 320.349 632.686 320.92 630.469C323.891 618.945 336.251 607.165 349.745 602.997C356.793 600.82 367.535 600.135 369.158 601.758C369.694 602.294 370.368 611.231 370.654 621.617C371.159 639.941 372.123 647 374.122 647C374.654 647 376.083 645.938 377.295 644.64C378.508 643.342 381.8 639.854 384.612 636.89C387.423 633.925 390.472 630.324 391.387 628.888C393.707 625.242 394.48 614.706 393.112 605.35C392.288 599.718 392.249 595.31 392.976 589.977C393.536 585.865 394.15 576.384 394.34 568.908C394.531 561.432 395.009 554.795 395.402 554.158C395.796 553.521 395.641 553 395.059 553C392.912 553 394.089 549.103 396.967 546.681C404.839 540.057 414.232 536.276 426 534.993L432.5 534.284L427.25 534.142C423.317 534.036 422 533.624 422 532.503C422 529.393 428.263 517.924 432.588 513.113C437.925 507.177 442.17 504.401 449.836 501.833L455.5 499.936L451.061 500.51C444.841 501.314 435.597 506.522 430.796 511.927C426.698 516.541 420 529.047 420 532.087C420 533.227 417.933 534.418 413.25 535.977C409.538 537.213 404.107 539.793 401.182 541.71C398.257 543.628 395.599 544.932 395.275 544.608C394.951 544.284 394.6 529.727 394.496 512.26C394.338 485.836 394 479.072 392.486 472C390.858 464.402 390.649 457.508 390.517 407C390.417 369.009 389.972 347.635 389.157 341.754C387.798 331.95 388.02 331.153 394.681 321.881C399.204 315.586 402.096 315.307 404.945 320.892C407.188 325.289 416.328 333.766 419.776 334.648C421.028 334.968 425.34 334.922 429.359 334.545C439.67 333.579 438.956 331.888 426.802 328.494C421.377 326.979 415.939 324.957 414.719 324.002C413.499 323.046 410.794 321.11 408.71 319.7L404.919 317.135L409.467 316.453C411.968 316.078 414.799 316.024 415.758 316.334C427.979 320.282 430.949 322.037 433.377 326.75C435.332 330.545 436.042 330.923 435.254 327.75C434.31 323.944 431.21 320.325 427.776 319.016C425.974 318.329 422.155 316.844 419.289 315.716C414.682 313.902 413.465 313.799 408.789 314.826C405.88 315.465 402.433 315.699 401.129 315.346C398.838 314.725 398.918 314.556 403.497 310.352C407.228 306.925 409.008 305.99 411.868 305.955C413.866 305.93 416.85 305.296 418.5 304.546C421.388 303.233 421.305 303.203 416.25 303.73C413.363 304.032 411 304.011 411 303.683C411 303.356 414.038 301.277 417.75 299.064C424.735 294.9 427.741 292.442 431.979 287.431C433.342 285.819 431.992 286.805 428.979 289.622C423.94 294.332 411.248 302.581 410.378 301.711C410.173 301.507 410.736 299.196 411.628 296.578C414.036 289.512 418.518 285.557 426.157 283.758C429.646 282.937 434.188 281.524 436.25 280.619C440.628 278.697 440.766 279.057 438.53 286.586C436.81 292.38 431.383 298.113 425.75 300.088C423.688 300.81 422 301.761 422 302.201C422 303.221 422.054 303.217 426.101 301.862C431.709 299.984 436.102 296.02 438.574 290.607C441.354 284.519 442.78 277 441.154 277C440.548 277 436.778 278.286 432.776 279.858C428.774 281.43 424.251 283.017 422.725 283.384C417.695 284.593 412.32 290.524 410.036 297.388C408.688 301.441 406.724 304.844 404.476 307.023L401 310.392V307.653C401 306.081 402.094 303.758 403.565 302.206C410.519 294.871 411.45 285.529 406.5 272.761C404.85 268.504 402.94 265.017 402.256 265.011C400.724 264.997 395.156 272.532 394.363 275.692C394.043 276.964 392.931 279.674 391.891 281.714C388.573 288.221 390.018 294.769 396.046 300.544C400.913 305.207 400.195 309.113 393.021 317L387.109 323.5L387.228 305.935C387.293 296.274 386.962 287.748 386.493 286.988C384.678 284.052 382.285 195.899 383.71 184.466C384.461 178.442 383.861 166.03 382.454 158.48C382.247 157.369 380.65 154.304 378.905 151.67C377.16 149.035 374.78 145.135 373.616 143.002C372.452 140.869 370.271 136.878 368.769 134.133C365.554 128.257 364.3 127.272 362.422 129.149C360.883 130.688 359.855 155.083 359.877 189.5C359.884 199.95 359.577 210.204 359.195 212.288L358.5 216.075L353.072 209.903C349.838 206.224 345.928 202.971 343.394 201.85C339.635 200.187 331 191.925 331 189.991C331 189.591 328.348 188.52 325.107 187.61C317.571 185.495 314.74 183.213 311.536 176.665C307.922 169.278 307.373 162.882 309.534 153.364C310.516 149.039 311.274 144.713 311.221 143.75C311.058 140.83 312.507 141.718 318.696 148.335C326.218 156.375 328.398 162.546 328.16 175.127C328.07 179.905 328.448 184.869 329.002 186.157C329.722 187.835 329.901 184.811 329.632 175.5C329.132 158.193 327.839 154.708 318.414 145.252C314.438 141.264 310.939 138 310.638 138C310.337 138 309.834 139.688 309.521 141.75C309.208 143.813 308.233 149.639 307.355 154.697C305.61 164.746 305.993 169.068 309.198 175.453C313.1 183.229 315.718 185.79 322.172 188.143C328.046 190.285 333.706 194.713 335.965 198.934C336.911 200.701 336.575 200.933 332.252 201.499C318.958 203.24 312.421 208.619 308.641 220.928C307.283 225.348 305.234 230.158 304.086 231.617C301.603 234.774 301.451 236 303.544 236C304.393 236 304.969 235.437 304.825 234.75C304.68 234.063 305.367 232.292 306.352 230.816C307.337 229.34 308.983 225.359 310.009 221.969C312.47 213.843 315.519 209.581 321 206.608C325.884 203.958 334.614 201.988 337.299 202.929C338.572 203.376 337.957 204.065 334.737 205.8C332.407 207.055 328.925 210.175 327 212.733C325.075 215.291 321.475 219.371 319 221.8C316.525 224.228 315.419 225.751 316.542 225.184C318.481 224.204 322.663 219.921 331.411 209.955C333.607 207.453 335.5 206.029 335.73 206.707C336.424 208.761 333.101 220.049 330.887 223.159C328.025 227.179 322.336 230.599 317.017 231.497C314.587 231.908 311.002 232.871 309.049 233.637C305.871 234.885 305.813 234.967 308.5 234.428C310.15 234.096 313.975 233.42 317 232.925C320.232 232.396 324.15 230.87 326.5 229.225C330.944 226.115 335.558 218.522 336.549 212.692C336.904 210.598 338.167 207.755 339.354 206.375L341.512 203.866L347.006 210.5C353.587 218.446 354.225 219.601 357.907 230.228C362.014 242.081 364 260.204 364 285.823C364 297.427 363.511 311.415 362.914 316.908C362.033 325.004 362.127 329.356 363.414 339.905C364.286 347.062 365.007 354.398 365.015 356.208C365.032 359.749 366.465 362.868 367.568 361.765C367.941 361.393 367.45 354.67 366.478 346.825C365.08 335.535 364.879 329.743 365.516 319.031C366.673 299.586 366.087 258.757 364.426 243C363.643 235.575 362.517 225 361.924 219.5C361.326 213.949 361.178 206.608 361.589 203C361.997 199.425 362.464 186.825 362.626 175C362.787 163.175 363.067 151.925 363.247 150C363.428 148.075 363.306 144.388 362.975 141.806C362.192 135.698 363.671 136.59 364.579 142.773C364.96 145.373 365.643 148.496 366.096 149.713C367.055 152.285 374.059 157 376.921 157C378 157 379.111 157.371 379.391 157.824C381.138 160.65 381.821 177.758 381.034 199C380.346 217.599 380.491 226.593 381.732 242.127C383.246 261.074 383.234 261.913 381.4 266.373C380.355 268.914 379.05 271.047 378.5 271.115C377.95 271.182 378.85 271.58 380.5 272L383.5 272.763L380.143 272.882C377.596 272.971 376.925 273.362 377.362 274.5C377.799 275.64 377.165 276.004 374.719 276.015C372.497 276.026 371.927 276.301 372.877 276.903C373.635 277.383 375.885 277.66 377.877 277.519C379.87 277.378 380.262 277.457 378.75 277.695C374.715 278.328 375.398 279.981 379.75 280.116C381.813 280.18 382.6 280.431 381.5 280.675C376.97 281.677 376.542 282.351 380 283.039C383.118 283.661 383.2 283.751 380.75 283.868C376.885 284.053 377.308 285.971 381.25 286.136C383.6 286.235 383.877 286.392 382.25 286.706C381.012 286.944 380 287.365 380 287.641C380 288.504 382.812 291 383.784 291C385.186 291 385.822 302.273 385.053 313.5C384.617 319.879 384.82 326.578 385.614 332C388.161 349.379 388.398 355.679 388.493 408.5C388.547 438.2 388.891 464.75 389.26 467.5C389.791 471.468 389.636 471.158 388.502 466C384.996 450.056 384.317 422.224 387.077 407.614C388.335 400.955 388.276 380 387 380C386.425 380 386 383.085 386 387.256C386 391.247 385.271 400.359 384.38 407.506C382.341 423.866 382.406 446.595 384.526 458.5C385.408 463.45 386.517 471.269 386.991 475.876C388.118 486.837 389.958 488.942 390.115 479.45C390.224 472.851 390.277 472.702 391.163 476.5C392.351 481.591 392.79 536 391.643 536C391.172 536 391.029 536.634 391.326 537.408C391.678 538.325 390.948 539.047 389.236 539.477C387.404 539.937 386.993 540.378 387.885 540.93C388.855 541.529 388.722 541.921 387.334 542.543C385.879 543.194 386.326 543.503 389.5 544.04L393.5 544.716L388.75 544.858C382.854 545.034 382.44 546.941 388.25 547.16C391.934 547.299 392.067 547.374 389.25 547.723C387.462 547.945 386 548.548 386 549.063C386 549.579 387.462 550.067 389.25 550.15C392.275 550.289 392.31 550.329 389.75 550.716C388.238 550.945 387 551.553 387 552.066C387 552.58 388.238 553.045 389.75 553.1C392.335 553.193 392.361 553.238 390.191 553.85C387.229 554.684 387.229 556.316 390.191 557.15C391.591 557.545 391.853 557.84 390.857 557.9C388.171 558.063 387.732 560.965 390.252 561.898C392.394 562.69 392.46 563.115 392.146 574.109C391.967 580.374 391.481 587.346 391.066 589.601C390.652 591.857 390.412 595.007 390.531 596.601C391.915 615.025 392.078 621.811 391.19 624C390.382 625.993 390.271 625.385 390.641 621C390.897 617.975 390.49 610.623 389.738 604.663C388.591 595.574 388.586 592.51 389.707 585.663C390.443 581.173 390.829 575.25 390.566 572.5C390.303 569.75 390.07 566.938 390.045 566.25C390.02 565.563 389.618 565 389.152 565C387.971 565 386.535 588.608 387.052 599.5C387.288 604.45 387.485 613.113 387.49 618.751C387.496 624.389 387.872 629.001 388.326 629.001C388.781 629 385.856 632.571 381.826 636.935C376.984 642.18 374.161 644.537 373.5 643.886C372.902 643.297 372.5 635.178 372.5 623.701C372.5 612.043 372.107 604.22 371.5 603.787C370.856 603.327 370.455 583.187 370.372 547.287C370.291 511.688 369.83 488.424 369.099 483C368.435 478.08 367.715 452.389 367.39 422C367.081 393.125 366.687 369.357 366.513 369.183C364.673 367.328 364.283 428.773 365.915 463.5C368.609 520.831 369.08 535.153 368.543 543.5C367.749 555.845 367.712 591.942 368.489 596.104L369.122 599.5L361.812 599.601C348.307 599.787 336.593 604.975 328.233 614.473C323.205 620.185 318.88 628.921 318.228 634.679C317.839 638.128 317.254 639.066 314.889 640.046C313.312 640.699 309.174 644.252 305.694 647.941C300.777 653.154 298.66 656.416 296.2 662.575C292.049 672.966 290.621 680.119 291.39 686.665C291.864 690.698 291.7 692 290.717 692C287.32 692 272.722 702.481 265.995 709.75C259.455 716.816 253.999 725.16 253.999 728.096C253.999 728.735 251.609 731.562 248.686 734.379C245.763 737.196 242.727 740.962 241.941 742.75L240.511 746L232.505 746.103C217.088 746.301 89.4265 745.843 81.9995 745.563C77.8745 745.408 58.4125 745.217 38.7495 745.14L2.9995 745V629.859V514.718L11.2495 515.258C21.5135 515.929 26.8325 518.167 34.2235 524.921C40.1325 530.322 45.9995 540.209 45.9995 544.767C45.9995 546.703 46.3645 547.065 47.7495 546.499C56.4665 542.935 71.4315 543.265 79.9995 547.209C88.1875 550.979 90.8175 554.273 91.0115 561C91.4395 575.864 90.9135 593 90.0285 593C88.3935 593 77.6595 597.993 78.1785 598.512C78.4455 598.779 81.3275 597.908 84.5815 596.575C87.8365 595.243 90.8175 594.459 91.2065 594.833C92.2965 595.883 93.9865 616.136 94.0985 629.5C94.1535 636.1 94.5225 642.625 94.9185 644C95.9095 647.442 98.8865 646.956 101.999 642.845C103.374 641.028 106.347 637.724 108.605 635.501C116.447 627.78 118.192 620.648 116.057 605.029C115.384 600.105 115.115 595.621 115.46 595.064C116.87 592.781 129.723 599.79 136.434 606.502C140.412 610.48 144.696 618.864 145.908 625.045L146.781 629.5L146.889 625.728C147.056 620.01 142.14 610.362 135.887 604.133C131.038 599.304 120.485 593.003 117.24 593.001C116.287 593 116.165 591.606 116.74 587.25C117.158 584.087 117.487 559.675 117.473 533C117.45 489.532 117.248 483.411 115.525 474C113.785 464.498 113.592 458.132 113.491 407C113.412 367.062 113.007 347.966 112.109 341.855C110.683 332.147 110.923 331.286 117.68 321.881C122.114 315.71 125.25 315.271 127.441 320.516C129.019 324.293 133.245 328.666 139.229 332.716C142.782 335.119 143.378 335.204 151.729 334.483C156.553 334.066 159.937 333.525 159.249 333.279C158.561 333.034 157.999 332.394 157.999 331.858C157.999 331.321 158.415 331.139 158.923 331.453C159.432 331.767 159.132 330.199 158.255 327.967C156.623 323.812 150.987 318 148.591 318C147.855 318 145.109 317.051 142.488 315.892C137.878 313.853 136.854 313.82 128.843 315.461C127.382 315.76 125.235 315.653 124.071 315.222C122.076 314.484 122.2 314.206 126.227 310.37C129.848 306.921 131.31 306.223 135.809 305.791C138.729 305.511 141.636 304.764 142.268 304.132C143.136 303.264 142.221 303.145 138.552 303.648C132.364 304.496 133.026 303.169 140.876 298.986C144.07 297.283 148.891 293.581 151.591 290.759L156.499 285.628L151.093 290.358C146.233 294.609 132.91 303.222 132.227 302.554C131.577 301.919 137.906 289.339 139.662 287.776C141.497 286.143 149.999 282.625 149.999 283.5C149.999 283.726 152.978 282.79 156.617 281.42L163.234 278.929L162.568 281.581C162.202 283.04 161.647 285.511 161.335 287.072C160.489 291.3 154.624 297.544 149.523 299.647C147.05 300.666 144.819 302.036 144.567 302.691C143.927 304.348 152.235 300.685 156.507 297.426C159.985 294.774 163.12 288.201 164.554 280.559L165.262 276.783L162.173 277.462C160.475 277.835 157.339 278.984 155.205 280.015C153.071 281.046 149.288 282.402 146.796 283.03C140.596 284.591 135.584 289.691 132.831 297.241C130.677 303.147 126.735 309 124.91 309C122.834 309 124.234 304.544 127.513 300.712C129.446 298.454 131.516 294.794 132.113 292.578C133.432 287.678 132.53 279.972 130.067 275.105C129.064 273.122 127.927 270.038 127.542 268.25C127.152 266.446 126.211 265 125.426 265C123.695 265 118.181 272.424 117.301 275.939C116.949 277.348 115.838 279.85 114.834 281.5C111.919 286.286 112.437 291.957 116.249 296.997C118.037 299.36 120.118 302.13 120.874 303.151C123.471 306.661 122.469 309.657 116.374 316.605L110.499 323.301L109.831 304.901C109.464 294.78 108.603 277.05 107.918 265.5C107.234 253.95 106.605 225.825 106.521 203C106.438 180.175 106.015 160.375 105.582 159C105.148 157.625 103.142 153.8 101.124 150.5C97.2285 144.131 95.6165 141.318 91.5655 133.821C88.5475 128.234 87.2825 127.288 85.3795 129.192C84.2695 130.301 83.8645 134.907 83.5645 149.807C83.3455 160.723 83.5715 169.235 84.0895 169.555C84.5895 169.865 85.0505 168.854 85.1135 167.309C85.9695 146.221 86.6255 138.825 87.3135 142.5C87.7265 144.7 88.3905 147.606 88.7905 148.958C89.6455 151.846 96.5445 156.919 99.6825 156.967C102.231 157.006 102.859 158.565 103.455 166.327C103.695 169.456 104.145 172.428 104.455 172.93C104.766 173.431 104.698 178.49 104.306 184.171C103.442 196.684 102.294 193.578 102.117 178.25C102.047 172.162 101.593 168 100.999 168C99.8955 168 99.9095 167.739 99.4205 197.5C99.2305 209.05 99.3155 219.294 99.6095 220.265C100.87 224.432 102.01 220.148 102.157 210.691C102.266 203.616 102.542 206.462 103.058 220C103.467 230.725 104.296 243.02 104.9 247.322C105.504 251.625 105.999 256.795 105.999 258.812C105.999 263.473 102.963 270.951 100.999 271.128C100.174 271.202 101.074 271.595 102.999 272L106.499 272.737L103.142 272.868C100.598 272.968 99.9245 273.363 100.361 274.5C100.798 275.639 100.173 276 97.7685 276C95.6435 276 94.9305 276.331 95.6055 277.006C96.2495 277.65 98.3015 277.696 101.305 277.135C103.966 276.638 105.999 276.635 105.999 277.129C105.999 277.608 104.424 278 102.499 278C97.7835 278 98.0105 279.958 102.749 280.16C106.441 280.318 106.449 280.326 103.249 280.723C101.462 280.945 99.9995 281.548 99.9995 282.063C99.9995 282.579 101.462 283.067 103.249 283.15C106.274 283.289 106.309 283.329 103.749 283.716C99.9455 284.292 100.292 285.97 104.249 286.136C106.599 286.235 106.876 286.392 105.249 286.706C104.012 286.944 102.999 287.365 102.999 287.641C102.999 288.628 105.879 291 107.077 291C108.012 291 108.162 294.809 107.721 307.25C107.262 320.165 107.526 326.168 109.008 336.5C110.631 347.814 112.634 388.888 111.3 383.5C110.565 380.533 109.007 379.237 108.956 381.55C108.708 392.662 107.92 405.324 107.08 411.703C104.935 427.988 105.52 450.224 108.496 465.5C109.245 469.35 110.16 475.313 110.527 478.752C111.417 487.069 112.97 487.704 113.114 479.809L113.229 473.5L114.253 477.5C115.495 482.353 115.852 535.999 114.642 536C114.171 536 114.028 536.634 114.325 537.408C114.677 538.325 113.947 539.047 112.235 539.477C110.164 539.997 109.912 540.333 111.051 541.053C112.249 541.811 112.197 541.972 110.749 541.985C107.394 542.014 109.027 543.882 112.749 544.272C116.185 544.631 116.101 544.678 111.749 544.832C109.137 544.924 106.999 545.45 106.999 546C106.999 546.55 109.137 547.076 111.749 547.168C116.101 547.322 116.185 547.369 112.749 547.728C108.146 548.21 107.785 549.949 112.249 550.136C114.974 550.25 115.095 550.345 112.999 550.721C108.855 551.464 108.246 552.99 112.049 553.1C114.891 553.182 115.092 553.314 113.19 553.85C110.228 554.684 110.228 556.316 113.19 557.15C114.59 557.545 114.852 557.84 113.856 557.9C111.035 558.071 110.771 560.963 113.482 561.994C115.896 562.911 115.921 563.049 115.432 572.712C115.159 578.095 114.458 585.65 113.874 589.5C113.117 594.489 113.126 598.747 113.906 604.322C114.507 608.625 114.95 614.025 114.891 616.322C114.832 618.62 113.97 614.65 112.977 607.5C111.359 595.859 111.316 593.664 112.566 586.5C114.106 577.676 114.318 572.847 113.374 568.125C112.184 562.175 111.248 565.052 110.566 576.75C109.393 596.871 109.901 629.165 111.375 628.262C113.253 627.113 110.224 631.009 103.771 638.042C100.07 642.075 96.7435 645.077 96.3795 644.713C96.0155 644.349 95.3355 633.352 94.8695 620.276C94.4035 607.199 93.6195 593.245 93.1285 589.266C92.5975 584.971 92.6125 572.987 93.1655 559.766C93.6765 547.52 94.0605 535.025 94.0185 532C93.8335 518.79 91.9045 481.655 91.3575 480.77C91.0265 480.235 90.6195 450.821 90.4515 415.406C90.2415 370.886 89.7705 348.678 88.9265 343.445C88.0555 338.051 87.9395 331.225 88.5225 319.688C89.8765 292.863 89.1205 263.028 86.3745 235C84.1185 211.964 83.9935 208.376 85.0745 197.862C86.2545 186.394 85.9045 181 83.9805 181C83.4075 181 82.9475 185.474 82.8755 191.75C82.8065 197.662 82.4695 205.65 82.1255 209.5L81.4995 216.5L79.4995 214.093C72.8405 206.08 70.0575 203.483 66.3725 201.848C61.7655 199.802 55.5295 193.433 53.4465 188.645C52.6935 186.915 52.0605 186.241 52.0385 187.147C52.0025 188.672 51.5695 188.668 46.2495 187.098C41.4145 185.671 39.9425 184.649 36.9995 180.678C34.0845 176.745 33.4455 176.297 33.1775 177.996C32.5215 182.153 11.3175 194 4.5315 194C2.8175 194 2.9535 204.618 2.9995 75.071C3.0135 35.234 3.2115 2.455 3.4395 2.226C3.6675 1.998 86.1245 1.57 186.677 1.275C287.229 0.979 369.688 0.572 369.917 0.369C370.146 0.166 287.671 0 186.641 0H2.9495L1.9795 2.552ZM400.75 0.662C401.438 0.94 402.563 0.94 403.25 0.662C403.938 0.385 403.375 0.158 402 0.158C400.625 0.158 400.063 0.385 400.75 0.662ZM1.4915 400C1.4935 615.325 1.6095 670.536 1.7495 522.692C1.9065 356.696 2.3595 254.105 2.9365 254.461C3.5095 254.815 3.6945 304.713 3.4155 383.875L2.9625 512.712L10.9265 513.258C25.9905 514.29 37.7285 522.504 44.0925 536.468C46.6095 541.988 47.8915 543.787 48.9995 543.352C49.8245 543.028 53.7595 542.532 57.7445 542.25C69.8445 541.394 81.7405 544.7 88.1475 550.699L90.7945 553.178L91.4435 542.839C91.8005 537.153 91.6185 522.6 91.0395 510.5C88.0365 447.748 87.2875 418.423 87.9995 391.5C88.4065 376.1 88.3995 360.125 87.9845 356C87.5695 351.875 86.6635 343.152 85.9705 336.616C84.9985 327.44 84.9725 322.612 85.8555 315.425C87.5095 301.967 87.2875 268.359 85.4415 252.708C82.9505 231.589 78.6605 220.479 68.3985 208.567L64.2965 203.807L62.2315 206.433C61.0945 207.877 59.8805 210.733 59.5335 212.779C58.5565 218.53 53.9175 226.132 49.4995 229.225C47.2585 230.794 43.0805 232.459 39.9995 233.011C36.9745 233.553 33.1495 234.258 31.4995 234.577C29.3335 234.995 28.8975 234.879 29.9305 234.157C30.7175 233.608 34.3175 232.607 37.9305 231.934C44.9635 230.623 51.5375 226.88 54.3525 222.584C55.7085 220.514 58.9285 209.531 58.9845 206.781C59.0245 204.86 55.6335 207.872 49.1715 215.501C45.2595 220.119 41.0335 224.418 39.7795 225.054C38.4075 225.75 39.2515 224.476 41.8965 221.856C44.3145 219.46 47.9735 215.23 50.0255 212.456C52.3905 209.26 55.3065 206.715 57.9845 205.507C61.3185 204.003 61.8325 203.468 60.4175 202.971C57.8945 202.086 49.3105 203.801 44.8375 206.082C38.4075 209.363 33.9905 215.528 32.6085 223.149C32.2445 225.157 30.8265 228.45 29.4565 230.468C28.0865 232.486 27.1965 234.509 27.4775 234.964C27.7585 235.419 27.3155 236.048 26.4935 236.364C24.3065 237.203 24.6455 235.607 27.9045 229.735C29.5025 226.856 31.1325 222.925 31.5265 221C33.8285 209.765 41.6275 203.362 55.2515 201.519C59.5725 200.935 59.9095 200.7 58.9645 198.934C56.7325 194.763 51.0485 190.286 45.3465 188.207C42.0625 187.009 38.3525 184.94 37.1015 183.609L34.8275 181.188L28.6635 185.465C20.2165 191.327 16.4185 193.161 10.0335 194.458C5.0775 195.465 4.5095 195.854 3.9415 198.63C3.5965 200.314 3.4785 212.663 3.6775 226.072C3.8775 239.481 3.6935 251.138 3.2695 251.976C2.8465 252.814 2.2715 198.375 1.9935 131C1.7155 63.625 1.4895 184.675 1.4915 400ZM223.499 30.535C226.698 33.261 239.03 38.676 244.798 39.887C247.713 40.499 252.888 40.95 256.298 40.888C262.216 40.781 262.043 40.716 252.499 39.479C240.168 37.88 236.273 36.74 227.999 32.311C224.424 30.397 222.399 29.598 223.499 30.535ZM122.458 32.067C122.095 32.653 122.013 33.348 122.275 33.61C122.537 33.872 123.018 33.392 123.344 32.543C124.02 30.781 123.444 30.471 122.458 32.067ZM104.335 38.75C100.944 42.188 98.5615 45 99.0385 45C100.501 45 111.324 34.459 110.898 33.448C110.679 32.927 107.725 35.313 104.335 38.75ZM284 34C282.075 35.054 280.859 35.935 281.299 35.958C282.358 36.014 288 33.081 288 32.474C288 31.82 287.941 31.842 284 34ZM318.969 37.532C314.763 41.872 302.993 49.958 297.24 52.46C294.897 53.479 293.18 54.514 293.426 54.759C294.115 55.449 304.384 50.51 309.717 46.925C315.278 43.186 320.755 38.251 322.117 35.75C323.52 33.175 322.793 33.586 318.969 37.532ZM119.51 37.623C118.565 39.066 118.286 39.941 118.89 39.567C120.044 38.854 122.373 35 121.649 35C121.418 35 120.456 36.18 119.51 37.623ZM286.5 42.993C284.3 44.022 281.6 45.171 280.5 45.548C279.371 45.935 279.012 46.426 279.677 46.676C281.158 47.232 291 43.061 291 41.877C291 40.813 291.352 40.726 286.5 42.993ZM342.065 41.5C341.854 45.556 359.739 64 363.884 64C366.044 64 364.904 62.474 360.896 60C356.883 57.524 345.602 46.284 343.309 42.477C342.654 41.39 342.094 40.95 342.065 41.5ZM208.91 48.646C215.543 58.692 234.789 69.901 243.518 68.802C246.054 68.483 245.667 68.24 240.934 67.181C229.987 64.73 218.32 57.869 210.167 49.089C206.969 45.646 206.917 45.628 208.91 48.646ZM268.5 47L261.5 47.647L269.25 47.823C273.868 47.929 277 47.596 277 47C277 46.45 276.663 46.079 276.25 46.177C275.837 46.274 272.35 46.644 268.5 47ZM361 46.922C361 48.726 370.496 56.134 376.431 58.96C384.074 62.598 388 63.635 388 62.015C388 61.354 387.079 60.572 385.953 60.277C381.768 59.183 370.347 53.177 365.75 49.654C363.137 47.652 361 46.422 361 46.922ZM124.458 48.067C124.095 48.653 124.013 49.348 124.275 49.61C124.537 49.872 125.018 49.392 125.344 48.543C126.02 46.781 125.444 46.471 124.458 48.067ZM227.999 48.879C235.806 55.328 255.129 59.263 269.035 57.236C273.448 56.593 277.833 55.609 278.779 55.05C280.043 54.304 279.57 54.229 277 54.767C275.075 55.17 267.425 55.489 260 55.476C246.67 55.452 246.386 55.405 237.499 51.683C225.288 46.568 225.153 46.528 227.999 48.879ZM106.174 50.926C98.9715 57.089 91.2695 61.62 83.5655 64.228C75.0845 67.098 75.9905 68.083 84.7255 65.489C90.6245 63.737 107.34 53.1 108.965 50.064C110.373 47.434 110.19 47.49 106.174 50.926ZM335.135 51.01C332.59 56.842 313.227 71.913 300.635 77.862C286.928 84.338 269.023 86.877 254.089 84.462C238.371 81.92 227.391 76.648 213.141 64.804L207.781 60.35L202.973 65.425C197.176 71.543 188.916 76.693 180.057 79.713C168.488 83.657 156.95 82.371 143.839 75.676L137.179 72.276L131.193 77.971C123.923 84.889 115.408 90.657 108.704 93.204C101.166 96.068 87.6865 96.205 78.9995 93.505C77.8325 93.143 77.4515 94.076 77.2835 97.708C76.9695 104.485 74.2165 112.348 70.0895 118.255C65.5345 124.776 54.3445 134.236 49.1665 135.945L45.2115 137.25L45.7445 143.125C46.0515 146.514 45.8785 149 45.3345 149C43.6335 149 37.9995 142.449 37.9845 140.452C37.9725 138.976 37.7595 138.831 37.1095 139.857C36.5095 140.803 36.0425 140.878 35.5655 140.107C34.3125 138.079 33.0955 138.964 32.6155 142.25C32.3545 144.037 31.6565 148.65 31.0645 152.5C30.4725 156.35 29.7315 161.3 29.4185 163.5C28.7245 168.377 25.1025 173.86 19.0485 179.201C15.0245 182.751 14.8855 183 17.8475 181.357C21.2165 179.488 25.1075 175.562 28.1345 170.976L29.7695 168.5L31.3985 172C32.2955 173.925 32.7765 174.62 32.4665 173.545C30.9695 168.335 30.8205 162.076 32.0125 154.414C32.7325 149.786 33.7075 146 34.1795 146C34.6515 146 34.7485 144.762 34.3945 143.25C33.8125 140.762 34.2945 141.024 39.4565 146C48.4915 154.71 50.3255 159.132 50.8645 173.5C51.1455 180.978 51.5945 184.558 52.0575 183C53.9455 176.646 52.5555 161.825 49.4965 155.693C48.6105 153.917 48.0105 150 48.0255 146.096L48.0515 139.5L51.8575 137.748C57.5655 135.12 67.3165 125.798 71.8275 118.656C76.0975 111.894 78.9995 103.69 78.9995 98.379V95.121L83.5925 96.686C89.1495 98.58 100.163 98.061 107.282 95.571C114.822 92.934 123.598 87.341 130.835 80.559L137.499 74.312L141.71 77.005C152.572 83.949 168.409 86.04 180.242 82.092C191.178 78.442 206.999 66.983 206.999 62.711C206.999 62.086 209.136 63.621 211.749 66.122C222.816 76.716 234.348 82.768 249.873 86.132C255.123 87.269 261.913 88.198 264.96 88.195C271.988 88.188 289.263 85.266 294.5 83.198C305.649 78.795 321.499 68.373 330.687 59.401L336.934 53.302L339.355 56.901C345.667 66.282 356.071 74.631 369.515 81.1C382.778 87.482 392.702 90 404.596 90H413.874L413.307 93.75C412.579 98.562 414.234 97.01 415.831 91.384C417.303 86.2 417.382 83.853 416.012 86C415.244 87.205 412.933 87.458 404.278 87.286C390.735 87.018 380.807 84.544 369.185 78.541C354.989 71.209 349.682 66.334 337.79 49.693C336.595 48.02 336.398 48.117 335.135 51.01ZM136.602 57.833C132.308 64.9 122.54 74.309 114.069 79.538C110.714 81.609 108.18 83.515 108.439 83.773C109.445 84.779 126.045 72.731 130.758 67.574C135.816 62.039 141.568 53.235 140.695 52.363C140.431 52.099 138.59 54.56 136.602 57.833ZM170.999 53L168.499 53.801L171.19 53.9C172.67 53.955 174.159 53.55 174.499 53C175.202 51.863 174.548 51.863 170.999 53ZM111.999 62.137C109.524 64.365 108.399 65.724 109.499 65.156C112.465 63.626 118.452 57.752 116.749 58.043C116.611 58.066 114.474 59.908 111.999 62.137ZM196.102 62.392C194.866 63.707 190.974 66.07 187.453 67.642C180.692 70.661 178.343 73.124 184.749 70.477C189.475 68.525 197.82 62.908 198.455 61.253C199.15 59.444 198.638 59.692 196.102 62.392ZM176.999 64.129C175.624 64.679 171.124 65.491 166.999 65.932C160.128 66.667 159.936 66.745 164.701 66.867C170.547 67.017 179.685 65.317 180.549 63.919C181.256 62.775 180.224 62.836 176.999 64.129ZM413 64.981C416.398 66.095 421.764 66.191 422.408 65.149C422.697 64.68 420.137 64.267 416.717 64.229C412.187 64.179 411.178 64.383 413 64.981ZM278.5 70.103C276.85 70.615 272.35 71.418 268.5 71.887L261.5 72.741L268.384 72.87C275.308 73.001 283 71.407 283 69.842C283 68.843 282.458 68.874 278.5 70.103ZM112.955 71.965C109.65 74.435 100.705 77.974 94.9995 79.067L90.4995 79.93L96.0715 79.556C101.989 79.158 113.475 74.583 115.871 71.669C117.703 69.442 116.114 69.603 112.955 71.965ZM149.499 72.212C152.421 73.763 155.655 74.407 161.499 74.603L169.499 74.871L162.499 74.027C158.649 73.563 153.826 72.467 151.781 71.591C146.398 69.287 144.805 69.72 149.499 72.212ZM381.51 71.015C382.637 72.839 395.245 75.999 400.855 75.864L406.5 75.728L399.5 74.945C395.65 74.514 389.898 73.244 386.717 72.123C383.537 71.002 381.193 70.504 381.51 71.015ZM103.999 85C103.174 85.533 102.949 85.969 103.499 85.969C104.049 85.969 105.174 85.533 105.999 85C106.824 84.467 107.049 84.031 106.499 84.031C105.949 84.031 104.824 84.467 103.999 85ZM49.2515 88.5C49.2625 90.7 49.4675 91.482 49.7065 90.238C49.9455 88.994 49.9365 87.194 49.6865 86.238C49.4365 85.282 49.2405 86.3 49.2515 88.5ZM423.098 89.98C421.777 96.138 421.655 105.669 422.887 106.43C423.627 106.888 425.129 86.152 424.426 85.181C424.299 85.006 423.701 87.165 423.098 89.98ZM62.0725 91.623C60.2935 98.688 56.3255 105.758 50.6795 111.917L45.5635 117.5L50.3755 113C57.5935 106.249 62.5195 98.2 63.9905 90.75C65.0505 85.383 63.4625 86.106 62.0725 91.623ZM72.0785 89.583C72.1265 90.748 72.3635 90.985 72.6825 90.188C72.9715 89.466 72.9355 88.603 72.6035 88.271C72.2715 87.939 72.0355 88.529 72.0785 89.583ZM38.5585 91.5C38.1885 92.6 37.0345 95.673 35.9955 98.329C34.6305 101.816 34.4925 102.836 35.4995 102C37.3385 100.473 40.3495 92.508 39.7235 90.823C39.3905 89.926 39.0155 90.143 38.5585 91.5ZM41.6685 106.25C40.9215 108.037 37.8775 112.192 34.9045 115.482L29.4995 121.463L33.8305 118.084C39.0215 114.032 46.4955 103 44.0485 103C43.4865 103 42.4155 104.463 41.6685 106.25ZM63.2055 111.14C60.2545 116.298 52.7815 124.202 46.9995 128.281C44.5055 130.041 44.5075 130.041 47.6355 128.556C54.6885 125.206 67.9015 110.206 66.7745 106.826C66.5515 106.157 64.9455 108.098 63.2055 111.14ZM430.085 108.212C429.981 111.541 433.783 122 435.098 122C435.622 122 435.284 120.537 434.346 118.75C433.409 116.963 432.085 113.25 431.406 110.5C430.545 107.018 430.144 106.323 430.085 108.212ZM428 124.786C428 126.386 435.918 138 437.01 138C437.589 138 436.25 135.597 434.032 132.659C431.815 129.722 430 126.823 430 126.218C430 125.613 429.55 124.84 429 124.5C428.45 124.16 428 124.289 428 124.786ZM222.026 128.962C220.492 129.933 220.012 140.162 219.63 180C219.361 207.955 219.033 216 218.16 216C217.699 216 215.267 213.357 212.759 210.126C209.439 205.852 206.784 203.614 203.009 201.908C197.367 199.358 190.053 191.368 189.929 187.619C189.865 185.698 189.79 185.673 189.132 187.347C188.233 189.63 187.357 188.717 182.919 180.874C181.247 177.918 180.172 176.625 180.531 178C180.89 179.375 182.255 182.051 183.562 183.946C184.87 185.842 185.815 187.517 185.663 187.669C185.511 187.821 183.747 187.493 181.742 186.94C177.22 185.691 171.681 179.449 169.553 173.205C167.697 167.758 167.621 159.711 169.348 151.5L170.61 145.5L172.307 150C173.241 152.475 174.647 156.3 175.432 158.5C176.217 160.7 176.89 161.741 176.929 160.814C176.967 159.887 175.577 155.496 173.84 151.057C172.102 146.617 170.989 142.676 171.367 142.298C172.533 141.132 183.009 152.868 185.221 157.819C186.769 161.284 187.47 165.488 187.919 174L188.525 185.5L189.32 178.965C190.242 171.368 188.986 162.017 186.195 155.708C184.053 150.865 171.126 137.474 169.837 138.763C169.385 139.215 168.794 141.904 168.524 144.738C168.254 147.573 167.588 151.829 167.042 154.196C165.299 161.752 165.793 168.476 168.551 174.721C171.77 182.01 176.305 186.736 181.396 188.107C186.708 189.537 191.419 192.865 194.447 197.327C196.608 200.512 196.71 201.005 195.219 201.038C187.418 201.209 179.751 204.126 174.66 208.86C171.072 212.196 169.338 215.516 167.979 221.648C167.387 224.317 165.8 228.178 164.451 230.229C161.475 234.756 161.155 237.523 163.77 236.123C164.743 235.602 169.067 234.447 173.38 233.556C177.692 232.666 182.475 231.288 184.009 230.495C188.421 228.213 193.648 221.376 194.932 216.208C196.3 210.699 199.38 204.5 200.748 204.5C201.907 204.5 211.59 216.376 213.658 220.334C216.225 225.248 220.164 238.245 221.135 245C222.921 257.43 223.925 299.748 222.73 312.196C221.861 321.241 221.898 326.906 222.891 337.196C223.696 345.54 224.293 370.633 224.493 404.5C224.833 461.877 224.879 463.61 227.038 500C228.687 527.776 228.744 533.122 227.72 564C227.101 582.667 227.255 590.173 228.47 600.494C229.311 607.641 230.002 619.341 230.005 626.494C230.014 647.625 232.248 651.287 239.63 642.274C241.758 639.674 245.184 636.024 247.243 634.162C253.456 628.546 255.315 618.68 252.926 604C252.143 599.187 252.193 595.294 253.115 589C253.98 583.091 254.332 566.328 254.268 534C254.187 492.871 253.935 485.71 252.095 472C249.915 455.761 249.565 443.897 250.189 407.5C250.576 384.999 249.772 353.447 248.469 339.95C247.589 330.828 248.376 328.84 257.055 318.25C257.618 317.562 259.118 317 260.388 317C262.119 317 263.153 318.014 264.525 321.055C266.281 324.95 272.892 331.337 277.884 333.961C279.585 334.855 282.673 335.014 288.653 334.516L297.038 333.817L294.668 331.954C293.365 330.929 288.773 329.145 284.464 327.99C278.803 326.473 275.026 324.687 270.855 321.551C265.673 317.656 265.309 317.151 267.292 316.619C271.258 315.556 274.726 315.964 280.661 318.193C288.924 321.296 290.79 322.698 293.588 327.904C295.829 332.074 295.989 330.864 293.928 325.348C293.091 323.111 287.078 318 285.283 318C284.717 318 282.076 317.037 279.414 315.859C274.994 313.904 274.049 313.822 268.527 314.92C262.779 316.062 259 315.703 259 314.013C259 313.589 260.913 311.678 263.25 309.767C266.563 307.058 268.67 306.181 272.809 305.787C275.729 305.51 278.636 304.764 279.268 304.132C280.136 303.264 279.222 303.145 275.553 303.648C269.501 304.477 269.998 303.321 277.518 299.077C283.674 295.603 290.537 289.761 292.193 286.586C292.792 285.439 290.366 287.2 286.802 290.5C283.238 293.8 277.752 297.937 274.611 299.694C268.157 303.304 268.048 303.045 272.252 294.105C275.061 288.132 278.04 285.796 285.325 283.853C288.721 282.948 292.625 281.857 294 281.43C296.351 280.699 296.411 280.768 295 282.577C293.615 284.353 293.633 284.396 295.239 283.137C296.195 282.387 296.761 281.422 296.495 280.991C295.941 280.096 298.537 278.87 299.323 279.656C300.3 280.633 296.808 290.385 294.305 293.667C292.928 295.472 289.372 298.098 286.401 299.504C279.749 302.651 279.181 304.677 285.75 301.827C294.23 298.147 297.667 293.866 300.332 283.66C302.101 276.887 301.244 275.88 295.82 278.354C293.994 279.187 289.125 281.006 285 282.395C276.659 285.205 271.947 289.425 269.95 295.874C268.005 302.155 266.012 305.877 263.747 307.464C258.763 310.955 259.179 307.403 264.583 300.323C269.04 294.484 270.498 288.959 269.141 283.049C267.306 275.051 263.538 265.043 262.354 265.021C260.474 264.986 255.304 271.544 253.964 275.664C253.277 277.774 252.103 280.388 251.357 281.473C250.61 282.557 249.999 285.802 249.999 288.684C249.999 293.407 250.441 294.465 254.499 299.447C259.536 305.631 260.38 309.92 257.02 312.274C255.931 313.036 253.434 315.762 251.473 318.33C249.512 320.899 247.521 323 247.05 323C246.578 323 246.246 315.462 246.311 306.25C246.429 289.612 244.829 256.734 243.063 239.5C241.769 226.869 241.79 197.617 243.1 186.505C244.669 173.203 243.103 159.495 239.3 153.25C236.126 148.037 231.386 139.76 227.559 132.75C224.833 127.757 224.4 127.461 222.026 128.962ZM85.9995 131.87C85.9995 133.568 88.3545 137 89.5185 137C90.2085 137 87.8165 131.005 86.9015 130.439C86.4055 130.133 85.9995 130.776 85.9995 131.87ZM223.173 132.423C223.353 134.03 224.109 135.546 224.854 135.791C225.86 136.122 226.024 135.627 225.492 133.868C224.334 130.047 222.8 129.091 223.173 132.423ZM363.471 132.74C364.104 135.262 365.955 137.378 366.795 136.539C367.274 136.059 364.097 130 363.366 130C363.045 130 363.093 131.233 363.471 132.74ZM444 136C445.175 137.65 446.36 139 446.635 139C446.91 139 446.175 137.65 445 136C443.825 134.35 442.639 133 442.364 133C442.089 133 442.825 134.35 444 136ZM222.386 148.812C222.324 154.69 222.27 164.45 222.266 170.5C222.263 176.55 222.106 185.1 221.917 189.5C221.164 207.06 221.611 221.395 223.49 240C225.43 259.21 225.746 277.53 224.975 326C224.789 337.647 225.11 343.824 226.063 347C227.042 350.261 227.318 356.317 227.067 369C226.3 407.66 227.037 465.635 228.516 483C230.4 505.12 230.813 532.941 229.743 565.5C229.235 580.944 229.343 590.471 230.074 594.5C230.672 597.8 231.48 610.268 231.871 622.208C232.261 634.147 232.924 644.258 233.343 644.677C233.762 645.096 235.305 643.878 236.77 641.97C238.235 640.061 240.802 637.15 242.473 635.5C244.145 633.85 246.384 631.468 247.449 630.207C249.298 628.019 249.302 627.947 247.52 628.631C245.967 629.226 245.787 629.023 246.456 627.424C248.082 623.535 248.165 615.236 246.682 605C245.567 597.304 245.421 593.165 246.134 589.5C246.669 586.75 247.36 580.112 247.669 574.75C247.979 569.388 248.629 565 249.115 565C250.398 565 250.199 580.671 248.83 587.489C247.92 592.019 247.944 595.664 248.94 603.906C249.643 609.733 250.626 615.175 251.123 616C251.748 617.038 251.848 616.702 251.445 614.91C250.505 610.726 250.503 589.606 251.442 574.594C252.096 564.136 252.026 560.866 251.156 561.403C250.52 561.796 249.57 561.852 249.044 561.527C247.637 560.658 248.948 558.019 250.856 557.882C251.76 557.817 251.149 557.475 249.499 557.122C245.7 556.309 245.729 554.69 249.557 553.868L252.499 553.237L249.19 553.118C245.286 552.979 245.811 551.066 249.809 550.864C252.482 550.729 252.483 550.725 249.999 550.315C244.998 549.489 244.459 548.643 248.499 547.96L252.499 547.284L248.249 547.142C245.911 547.064 243.999 546.55 243.999 546C243.999 545.45 245.911 544.928 248.249 544.84C251.933 544.701 252.066 544.626 249.249 544.277C245.878 543.858 244.669 542.012 247.749 541.985C249.218 541.972 249.262 541.82 248.027 541.038C246.76 540.237 246.788 540.018 248.229 539.465C249.15 539.112 250.262 539.045 250.701 539.316C251.717 539.944 251.717 539.953 251.96 512C252.131 492.299 251.802 485.913 249.923 472.5C247.422 454.644 246.964 434.1 248.428 405.43C249.075 392.773 248.997 387.862 248.126 386.43C247.155 384.836 247.054 385.284 247.55 389C247.88 391.475 247.41 400.475 246.505 409C244.5 427.895 244.504 438.658 246.516 455C249.912 482.567 250.062 484.338 249.1 485.3C248.486 485.914 247.961 485.041 247.648 482.88C247.378 481.021 246.408 474.55 245.493 468.5C242.008 445.466 241.476 432.618 243.313 415.883C244.242 407.422 245.002 396.139 245.001 390.809C245 381.814 246.286 377.001 247.292 382.235C247.532 383.481 247.788 377.75 247.863 369.5C247.953 359.497 247.324 349.337 245.977 339C244.322 326.304 244.078 320.641 244.628 307.696C245.289 292.12 245.268 291.883 243.16 291.332C241.984 291.024 241.269 290.374 241.57 289.886C241.872 289.399 241.641 289 241.059 289C239.043 289 240.009 287.137 242.249 286.706C243.562 286.453 242.854 286.216 240.549 286.136C236.334 285.991 236.61 284.508 240.999 283.721C243.095 283.345 242.974 283.25 240.249 283.136C236.162 282.965 235.932 281 239.999 281C241.649 281 242.999 280.64 242.999 280.201C242.999 279.761 241.424 279.585 239.499 279.81C237.357 280.06 235.999 279.788 235.999 279.109C235.999 278.499 237.574 278 239.499 278C241.424 278 242.999 277.608 242.999 277.129C242.999 276.636 241.001 276.632 238.393 277.119C235.593 277.642 233.142 277.603 232.143 277.02C230.85 276.265 231.192 276.054 233.749 276.03C235.761 276.012 236.904 275.536 236.749 274.782C236.608 274.097 238.031 273.279 239.999 272.914L243.499 272.263L239.999 272.016C238.074 271.879 237.258 271.568 238.184 271.323C239.11 271.079 240.179 269.444 240.559 267.689C240.94 265.935 241.665 264.235 242.173 263.911C242.731 263.555 242.66 260.198 241.992 255.411C241.385 251.06 240.627 235.673 240.309 221.217C239.991 206.762 239.563 195.103 239.358 195.308C239.153 195.513 238.717 201.49 238.389 208.59C238.06 215.691 237.613 221.688 237.395 221.917C236.21 223.166 235.85 219.95 235.936 208.837C236.179 177.376 236.54 168.013 237.499 168.251C238.061 168.391 238.529 172.225 238.568 177C238.606 181.675 238.772 187.3 238.936 189.5L239.234 193.5L240.158 188.5C241.05 183.671 240.431 161.289 239.327 158.411C239.029 157.635 237.734 157 236.449 157C233.087 157 226.994 153.117 225.919 150.289C225.413 148.958 224.983 146.662 224.964 145.185C224.944 143.708 224.382 141.515 223.714 140.312C222.696 138.478 222.481 139.855 222.386 148.812ZM366.726 142.392C368.142 148.82 369.21 150.569 372.728 152.22C377.243 154.339 377.788 153.924 375.24 150.308C374.152 148.763 372.955 146.509 372.579 145.297C372.203 144.085 370.628 142.462 369.078 141.689C366.408 140.357 366.286 140.393 366.726 142.392ZM90.0995 143.344C90.3095 147.901 91.6375 150.041 95.4605 151.985C97.6395 153.093 99.5295 154 99.6605 154C99.7905 154 98.5865 151.357 96.9835 148.126C93.8975 141.907 89.9045 139.133 90.0995 143.344ZM227.098 144.828C227.567 146.847 227.962 148.792 227.975 149.149C227.988 149.506 229.799 150.736 231.999 151.883C234.199 153.03 235.989 153.638 235.977 153.234C235.908 151.073 230.196 142.576 228.372 141.92C226.364 141.198 226.292 141.361 227.098 144.828ZM19.1795 148.25C18.2305 152.043 18.2715 152.291 19.5575 150.559C20.8325 148.843 21.6175 144 20.6215 144C20.4135 144 19.7645 145.912 19.1795 148.25ZM26.4385 149.607C24.6865 155.06 22.0995 159.962 18.5955 164.474C12.5655 172.237 12.3045 172.763 16.3485 169C22.4025 163.368 29.5575 150.225 27.6225 148.29C27.3055 147.973 26.7725 148.566 26.4385 149.607ZM36.0835 150.038C35.9305 151.017 39.6565 160.991 40.4605 161.753C40.8935 162.164 40.9175 161.375 40.5135 160C39.6265 156.982 36.2025 149.281 36.0835 150.038ZM313.571 152C313.93 153.375 314.624 154.928 315.112 155.45C316.54 156.977 316.102 154.786 314.423 152L312.917 149.5L313.571 152ZM452.112 154.5C452.089 155.6 452.714 157.625 453.5 159C455.282 162.117 455.282 160.627 453.5 156C452.617 153.708 452.138 153.19 452.112 154.5ZM316.031 158C316.031 158.825 316.467 160.175 317 161C317.862 162.333 317.969 162.333 317.969 161C317.969 160.175 317.533 158.825 317 158C316.138 156.667 316.031 156.667 316.031 158ZM456.465 164.75C457.338 166.537 458.265 168 458.526 168C459.52 168 458.88 166.407 456.918 164L454.88 161.5L456.465 164.75ZM177.667 166C178.618 171.253 180.089 174.304 179.354 169.5C179.018 167.3 178.359 164.825 177.889 164C177.37 163.088 177.282 163.873 177.667 166ZM41.2175 165.5C41.2275 166.6 41.5795 168.85 41.9995 170.5C42.6855 173.195 42.7645 173.246 42.7815 171C42.7915 169.625 42.4395 167.375 41.9995 166C41.3725 164.041 41.2025 163.933 41.2175 165.5ZM318.624 168C318.971 170.475 319.631 173.4 320.091 174.5C320.607 175.735 320.693 174.78 320.316 172C319.98 169.525 319.32 166.6 318.849 165.5C318.307 164.235 318.224 165.154 318.624 168ZM376.828 177.25C376.12 191.26 376.4 220.733 377.25 221.583C377.663 221.996 378.167 222.146 378.372 221.917C379.991 220.102 379.629 168 377.997 168C377.611 168 377.085 172.162 376.828 177.25ZM43.0915 175C43.0155 177.352 46.4855 184.342 48.5515 186C50.0535 187.205 49.9785 186.868 48.1725 184.293C46.9365 182.529 45.2985 179.379 44.5325 177.293C43.7665 175.207 43.1185 174.175 43.0915 175ZM322 180.778C322 181.389 323.166 183.151 324.592 184.694L327.183 187.5L324.915 184C321.962 179.443 322 179.484 322 180.778ZM190.266 203.136C179.663 205.024 173.09 210.73 170.003 220.726C168.857 224.436 167.038 228.966 165.96 230.793C163.547 234.881 163.522 235.326 165.775 234.12C166.752 233.597 170.465 232.648 174.025 232.012C181.844 230.614 188.121 227.159 190.837 222.759C192.885 219.441 196.254 206.922 195.344 206.012C194.83 205.497 190.511 209.972 183.499 218.284C181.299 220.892 178.374 223.752 176.999 224.639C175.499 225.606 176.322 224.301 179.057 221.375C181.565 218.694 185.258 214.423 187.264 211.884C189.271 209.346 192.507 206.512 194.456 205.588C196.405 204.663 197.999 203.755 197.999 203.57C197.999 202.68 194.067 202.459 190.266 203.136ZM70.1395 207.852C70.7755 208.87 72.2415 210.277 73.3975 210.977C74.8695 211.868 74.6185 211.313 72.5625 209.125C69.2185 205.567 68.4655 205.172 70.1395 207.852ZM205.999 206.738C205.999 207.209 207.879 209.373 210.178 211.547L214.356 215.5L211.104 211.264C207.681 206.804 205.999 205.313 205.999 206.738ZM347.038 207.408C349.925 211.176 354.291 215.463 353.241 213.5C352.653 212.4 350.688 210.15 348.874 208.5C347.06 206.85 346.234 206.359 347.038 207.408ZM216.191 219.712C219.069 224.737 219.004 224.685 218.968 221.917C218.95 220.528 217.891 218.74 216.479 217.712L214.021 215.923L216.191 219.712ZM78.7095 218.14C79.3745 218.947 80.3585 220.708 80.8955 222.054L81.8725 224.5L81.9365 221.785C81.9785 219.951 81.2695 218.682 79.7495 217.871C77.8095 216.838 77.6665 216.875 78.7095 218.14ZM357.234 220.613C357.889 222.051 358.596 222.711 358.807 222.08C359.338 220.486 358.269 218 357.053 218C356.419 218 356.486 218.973 357.234 220.613ZM374.967 239.695C371.663 241.956 371.033 243.002 371.015 246.25C370.996 249.799 372.581 249.805 373.471 246.26C374.127 243.645 375.568 242.048 377.302 242.015C377.744 242.007 377.969 244.324 377.802 247.164C377.527 251.864 377.209 252.471 374.273 253.914C372.498 254.786 371.035 256.063 371.023 256.75C370.979 259.133 374.529 257.984 377.621 254.614C380.475 251.505 380.689 250.791 380.252 245.864C379.639 238.967 378.305 237.411 374.967 239.695ZM96.3275 240.75C93.8745 242.726 92.8155 248.095 94.7495 248.746C95.4745 248.99 95.9995 248.322 95.9995 247.155C95.9995 246.048 96.7395 244.402 97.6445 243.498C99.6955 241.447 100.961 242.994 100.984 247.576C101.001 250.974 97.5395 255 94.6015 255C93.6285 255 93.0205 255.563 93.2495 256.25C93.9535 258.365 96.7675 258.232 99.0215 255.978C100.2 254.799 101.364 254.031 101.606 254.274C102.34 255.007 100.847 258.024 100.008 257.505C99.5775 257.239 98.7035 257.652 98.0645 258.422C96.4285 260.392 98.1485 261.109 101.046 259.664C103.807 258.287 104.836 255.135 102.912 253.946C102.006 253.386 101.931 252.761 102.657 251.826C103.257 251.053 103.439 248.205 103.093 245C102.605 240.486 102.14 239.455 100.499 239.25C99.3995 239.113 97.5215 239.788 96.3275 240.75ZM233.19 240.75C230.722 242.877 229.042 249.483 231.145 248.791C231.89 248.546 232.638 247.189 232.807 245.775C232.99 244.234 233.892 243 235.057 242.695C236.78 242.245 236.999 242.726 236.999 246.939C236.999 251.936 234.974 255 231.671 255C229.56 255 229.485 256.866 231.565 257.664C232.544 258.039 234.418 257.017 236.565 254.936C239.373 252.214 239.997 250.869 239.985 247.554C239.957 239.174 237.673 236.887 233.19 240.75ZM237.835 255.879C236.95 256.912 235.612 257.981 234.863 258.254C233.931 258.593 233.82 259.094 234.51 259.836C236.021 261.459 240.43 258.936 240.82 256.225C241.21 253.506 239.988 253.364 237.835 255.879ZM376.648 256.987C374.746 258.835 374.179 259.993 374.943 260.465C376.63 261.507 381 258.269 381 255.977C381 253.407 380.122 253.61 376.648 256.987ZM122.132 269.558C121.026 270.965 119.341 274.227 118.387 276.808C117.434 279.388 116.245 282.041 115.743 282.703C114.05 284.938 114.734 292.835 116.928 296.385C119.808 301.045 122.169 302.961 122.783 301.137C123.142 300.069 123.409 300.045 124.014 301.025C124.547 301.886 125.665 300.95 127.603 298.022C131.831 291.633 132.134 283.279 128.436 275.038C125.744 269.04 125.613 268.916 124.362 271.17C122.817 273.955 122.618 273.132 123.974 269.565C125.208 266.319 124.681 266.317 122.132 269.558ZM258.25 270.319C257.012 272.136 255.999 273.92 255.999 274.282C255.999 274.644 254.825 277.507 253.391 280.643C250.231 287.551 250.555 292.416 254.516 297.609C258.064 302.262 259.607 302.718 262.526 299.976C268.557 294.31 269.387 284.327 264.671 274.164C262.505 269.496 262.062 269.058 261.128 270.664C259.753 273.03 259.67 271.486 261.035 268.934C262.747 265.735 260.666 266.77 258.25 270.319ZM399.696 268.784C398.802 269.772 396.65 274.095 394.915 278.391C391.124 287.781 391.269 292.864 395.483 298.389C396.998 300.375 398.553 302 398.939 302C399.326 302 399.536 298.063 399.406 293.25L399.172 284.5L399.87 292.701C400.254 297.211 400.867 301.2 401.233 301.566C401.598 301.932 403.271 300.066 404.949 297.42C407.524 293.359 408 291.619 408 286.264C408 281.894 407.378 278.701 406 276C404.9 273.844 404 271.387 404 270.54C404 269.693 403.568 269 403.04 269C402.023 269 400.253 274.493 399.657 279.5C399.351 282.068 399.278 281.955 399.15 278.718C399.067 276.638 399.681 273.306 400.513 271.314C402.271 267.108 401.992 266.246 399.696 268.784ZM259.232 287C259.232 288.925 259.438 289.712 259.689 288.75C259.941 287.788 259.941 286.212 259.689 285.25C259.438 284.288 259.232 285.075 259.232 287ZM122.271 289C122.271 291.475 122.466 292.488 122.705 291.25C122.943 290.012 122.943 287.988 122.705 286.75C122.466 285.512 122.271 286.525 122.271 289ZM258.079 292.583C258.127 293.748 258.364 293.985 258.683 293.188C258.972 292.466 258.936 291.603 258.604 291.271C258.272 290.939 258.036 291.529 258.079 292.583ZM102.569 303.498C101.944 312.82 102.167 317.636 103.607 326C104.847 333.197 105.941 343.045 105.968 347.25C105.985 349.863 106.449 352 106.999 352C108.532 352 108.206 335.478 106.516 327.5C105.643 323.375 105.027 315.083 105.016 307.309C105.007 300.054 104.61 293.877 104.134 293.583C103.658 293.289 102.954 297.751 102.569 303.498ZM239.621 296.141C238.512 301.685 238.969 318.273 240.485 327.5C241.299 332.45 242.004 339.2 242.052 342.5C242.1 345.8 242.51 349.4 242.962 350.5C245.437 356.519 245.453 339.79 242.985 327C242.401 323.975 241.936 315.336 241.952 307.803C241.978 294.697 240.944 289.523 239.621 296.141ZM379.962 298.75C379.941 301.913 379.67 306.263 379.358 308.419C379.046 310.574 379.502 317.324 380.37 323.419C382.347 337.301 382.885 342.378 382.949 347.75C382.977 350.087 383.45 352 384 352C385.533 352 385.182 333.384 383.52 326.5C382.629 322.81 382.058 315.206 382.036 306.75C382.014 298.274 381.616 293 381 293C380.45 293 379.983 295.587 379.962 298.75ZM122.157 297C122.157 298.375 122.384 298.938 122.661 298.25C122.939 297.563 122.939 296.438 122.661 295.75C122.384 295.063 122.157 295.625 122.157 297ZM258.786 298C259.028 299.65 259.401 301 259.613 301C259.826 301 260 299.65 260 298C260 296.35 259.628 295 259.173 295C258.718 295 258.544 296.35 258.786 298ZM129.499 316.958C128.399 317.454 127.961 317.891 128.526 317.93C129.091 317.968 131.938 319.792 134.854 321.983C137.77 324.174 142.033 326.475 144.327 327.097C146.622 327.719 150.488 328.85 152.919 329.611C155.349 330.372 157.52 330.812 157.742 330.59C158.449 329.883 155.277 324.579 152.844 322.399C148.106 318.153 134.093 314.888 129.499 316.958ZM129.85 321.79C132.374 325.334 140.45 332.248 143.312 333.315C145.99 334.313 157.204 333.141 156.462 331.941C156.169 331.466 154.257 330.805 152.214 330.473C144.452 329.21 138.338 326.699 133.82 322.917C128.295 318.292 127.123 317.96 129.85 321.79ZM265.91 320.832C267.663 324.107 275.414 331.164 278.938 332.692C281.369 333.748 283.928 333.989 287.688 333.52C293.878 332.746 294.611 331.338 289.25 330.514C281.263 329.286 275.314 326.892 270.641 323.023C265.198 318.516 264.497 318.192 265.91 320.832ZM406 320.067C406 321.96 415.902 330.965 419.858 332.67C422.215 333.686 424.819 333.917 428.596 333.445C434.591 332.696 434.86 331.401 429.215 330.456C422.4 329.315 415.85 326.806 412.659 324.115C406.545 318.959 406 318.628 406 320.067ZM111.027 325.466C110.358 326.273 109.982 327.449 110.192 328.08C110.403 328.711 111.11 328.051 111.765 326.613C113.1 323.684 112.841 323.281 111.027 325.466ZM247.979 325.524C247.283 326.362 246.967 327.301 247.275 327.61C247.584 327.919 248.339 327.233 248.953 326.086C250.263 323.638 249.777 323.358 247.979 325.524ZM388.459 325.067C388.096 325.653 388.014 326.348 388.276 326.61C388.538 326.872 389.019 326.392 389.345 325.543C390.021 323.781 389.445 323.471 388.459 325.067ZM93.5515 401.254C93.1595 410.743 93.1475 419.743 93.5275 421.254C94.9795 427.043 95.9015 423.545 95.9255 412.145C95.9395 405.625 96.2385 399.542 96.5895 398.626C97.4075 396.494 96.0955 384 95.0535 384C94.6205 384 93.9445 391.764 93.5515 401.254ZM230.651 396.192C229.808 411.86 229.925 421 230.999 423.5C231.472 424.6 231.919 425.275 231.992 425C232.066 424.725 232.349 415.656 232.622 404.846C233.172 383.059 231.704 376.612 230.651 396.192ZM371.51 385.265C371.105 386.236 371.029 388.004 371.341 389.195C371.652 390.386 371.418 396.164 370.82 402.035C369.766 412.386 370.345 424 371.915 424C373.043 424 374.126 390.029 373.109 386.5C372.395 384.019 372.118 383.805 371.51 385.265ZM110.703 395.75C110.38 401.113 109.584 411.575 108.934 419C107.652 433.625 108.823 455.654 111.51 467.5L112.872 473.5L112.185 467C111.808 463.425 111.609 443.738 111.744 423.25C111.879 402.762 111.832 386 111.639 386C111.447 386 111.026 390.387 110.703 395.75ZM371.461 475.142C372.156 495.731 372.654 500.332 374.091 499.444C375.623 498.497 373.466 458.406 371.828 457.394C371.185 456.997 371.058 463.177 371.461 475.142ZM94.3645 477.943C94.7615 491.025 95.3905 498.766 96.1105 499.443C96.9435 500.225 97.0575 495.173 96.5495 480C96.1405 467.766 95.4365 459.097 94.8035 458.5C94.0585 457.796 93.9275 463.561 94.3645 477.943ZM231.042 458.5C230.97 459.05 230.942 466.925 230.979 476C231.05 493.252 231.593 499 233.154 499C234.223 499 233.12 463.944 231.927 460C231.511 458.625 231.113 457.95 231.042 458.5ZM99.0905 508.334C95.8955 514.182 96.9405 517.263 103.329 520.832C108.012 523.448 108.133 523.462 109.552 521.559C110.348 520.491 110.981 518.691 110.959 517.559C110.924 515.773 110.721 515.864 109.427 518.25C108.606 519.763 107.612 520.998 107.217 520.995C105.809 520.986 99.9995 514.872 99.9995 513.4C99.9995 512.575 100.697 510.55 101.551 508.899C102.724 506.632 103.577 506.049 105.045 506.515C106.523 506.984 106.843 506.757 106.386 505.565C105.18 502.424 101.569 503.795 99.0905 508.334ZM235.88 508.31C233.056 514.122 233.856 517.254 238.998 520.499C241.177 521.875 243.481 523 244.119 523C245.761 523 247.936 519.867 247.936 517.5C247.936 515.55 247.899 515.548 246.503 517.392C245.716 518.432 244.918 519.747 244.729 520.314C244.263 521.71 238.166 517.102 237.438 514.804C237.116 513.794 237.378 511.383 238.018 509.446C238.972 506.554 239.543 506.038 241.208 506.566C242.652 507.025 243.107 506.82 242.789 505.855C242.543 505.11 241.374 504.357 240.19 504.183C238.502 503.934 237.574 504.824 235.88 508.31ZM376.625 507.397C373.143 513.865 374.481 517.79 381.448 521.542C384.162 523.004 385.142 523.127 386.315 522.153C388.153 520.628 389.112 517.187 387.906 516.442C387.408 516.134 386.992 516.471 386.984 517.191C386.975 517.911 386.56 519.145 386.062 519.932C385.305 521.128 384.573 520.965 381.627 518.947C377.296 515.979 376.458 513.111 378.751 509.096C380.031 506.854 381.001 506.19 382.368 506.621C383.658 507.027 384.098 506.79 383.79 505.855C383.545 505.11 382.255 504.368 380.923 504.208C379.039 503.98 378.083 504.689 376.625 507.397ZM111.17 522.75C110.487 523.987 109.007 525 107.88 525C106.676 525 106.012 525.515 106.269 526.25C107.323 529.262 113.477 525.605 112.801 522.368C112.445 520.662 112.304 520.695 111.17 522.75ZM247.632 522.515C247.312 523.348 245.841 524.49 244.363 525.052C242.323 525.828 241.953 526.354 242.833 527.234C244.226 528.627 249.301 525.294 249.822 522.644C250.229 520.578 248.416 520.472 247.632 522.515ZM388.171 522.75C387.488 523.987 386.008 525 384.881 525C383.677 525 383.013 525.515 383.27 526.25C384.324 529.262 390.478 525.605 389.802 522.368C389.446 520.662 389.305 520.695 388.171 522.75ZM95.8405 535.25C95.4885 553.463 96.2765 587.591 97.0815 589C98.1605 590.889 98.0495 593.952 98.0835 561.5C98.1215 525.54 98.1665 527 96.9995 527C96.4265 527 95.9315 530.523 95.8405 535.25ZM232.602 536.25C231.848 547.221 231.875 578.499 232.645 585.25C233.893 596.193 234.511 588.168 234.706 558.5C234.906 527.97 233.902 517.341 232.602 536.25ZM372.861 537.75C372.287 554.845 373.375 589.295 374.5 589.667C375.154 589.883 375.443 580.041 375.336 561.249C375.134 525.645 375.182 527 374.111 527C373.621 527 373.059 531.837 372.861 537.75ZM434.5 536C435.6 536.473 437.4 536.859 438.5 536.859H440.5L438.5 536C437.4 535.527 435.6 535.141 434.5 535.141H432.5L434.5 536ZM76.4405 551.023C79.1575 552.084 81.5395 552.794 81.7315 552.601C82.2095 552.124 74.2665 548.988 72.7295 549.047C72.0525 549.073 73.7225 549.962 76.4405 551.023ZM57.9995 553.826C57.9995 554.293 60.1065 554.755 62.6815 554.853C65.2555 554.95 67.1685 554.861 66.9315 554.654C65.9315 553.784 57.9995 553.049 57.9995 553.826ZM85.4995 556C86.4945 557.1 87.5345 558 87.8095 558C88.0845 558 87.4945 557.1 86.4995 556C85.5045 554.9 84.4645 554 84.1895 554C83.9145 554 84.5045 554.9 85.4995 556ZM435 585.5C431.734 587.367 432.877 587.388 437.135 585.539C438.986 584.736 439.825 584.077 439 584.075C438.175 584.073 436.375 584.714 435 585.5ZM436.441 589.555C434.531 591.085 434.532 591.096 436.5 590.19C437.6 589.684 439.175 589.02 440 588.714C441.296 588.234 441.288 588.147 439.941 588.079C439.084 588.036 437.509 588.7 436.441 589.555ZM443.25 591.689C444.212 591.941 445.788 591.941 446.75 591.689C447.712 591.438 446.925 591.232 445 591.232C443.075 591.232 442.288 591.438 443.25 591.689ZM448.812 593.683C449.534 593.972 450.397 593.936 450.729 593.604C451.061 593.272 450.471 593.036 449.417 593.079C448.252 593.127 448.015 593.364 448.812 593.683ZM441.507 594.989C441.157 595.555 441.558 595.723 442.448 595.382C444.18 594.717 444.497 594 443.059 594C442.541 594 441.843 594.445 441.507 594.989ZM66.8715 599.75C65.6285 601.336 65.6635 601.371 67.2495 600.128C68.2125 599.373 68.9995 598.585 68.9995 598.378C68.9995 597.555 68.1785 598.084 66.8715 599.75ZM403.861 610.059L401.5 612.119L404.5 610.362C408.448 608.05 408.507 608 407.277 608C406.697 608 405.159 608.927 403.861 610.059ZM397.552 615.561C396.629 616.97 396.015 618.501 396.187 618.965C396.359 619.428 397.278 618.276 398.229 616.404C400.271 612.382 399.921 611.946 397.552 615.561ZM146.499 632C146.159 632.55 144.895 633.03 143.69 633.067C142.294 633.11 142.961 633.592 145.531 634.397C147.749 635.092 151.799 636.908 154.531 638.434C157.943 640.339 158.716 640.563 156.999 639.151C155.624 638.019 152.793 636.321 150.707 635.376C148.356 634.311 147.11 633.154 147.426 632.329C148.023 630.773 147.395 630.55 146.499 632ZM124.464 633.886C121.695 634.883 118.367 636.268 117.07 636.962C113.459 638.895 106.016 646.066 104.422 649.148C102.161 653.522 102.759 653.626 105.87 649.4C113.261 639.362 122.218 634.627 137.499 632.682C139.149 632.472 138.024 632.248 134.999 632.186C131.919 632.122 127.284 632.87 124.464 633.886ZM144.499 639.479C147.249 640.218 149.634 640.69 149.8 640.527C150.352 639.985 143.732 637.999 141.6 638.067C140.444 638.105 141.749 638.74 144.499 639.479ZM138.812 640.683C139.534 640.972 140.397 640.936 140.729 640.604C141.061 640.272 140.471 640.036 139.417 640.079C138.252 640.127 138.015 640.364 138.812 640.683ZM161.046 642.488C161.845 643.582 163.527 645.607 164.783 646.988C166.039 648.37 168.256 651.917 169.71 654.871C172.843 661.237 173.23 671.109 170.587 677.25C169.03 680.869 168.789 681.005 163.736 681.131L158.499 681.263L165.249 682.049C177.263 683.448 187.897 688.757 195.678 697.244C201.114 703.172 203.884 708.731 204.919 715.791L205.755 721.5L205.878 716.75C205.945 714.138 206.386 712 206.859 712C208.079 712 214.973 716.714 218.342 719.852C222.27 723.51 225.998 731.199 226.695 737.078C227.015 739.785 227.656 742 228.119 742C229.539 742 227.905 732.787 225.546 727.5C222.813 721.374 216.384 714.991 209.876 711.942C207.194 710.686 204.999 709.121 204.999 708.464C204.999 706.159 197.16 695.749 192.562 691.951C185.963 686.497 182.3 684.454 175.803 682.6L170.108 680.976L172.031 676.738C175.11 669.956 174.68 661.602 170.874 654.221C169.155 650.888 165.914 646.437 163.671 644.331C161.429 642.224 160.247 641.395 161.046 642.488ZM152.999 642.465C152.999 642.72 154.011 643.469 155.249 644.129C157.289 645.216 157.372 645.172 156.128 643.664C154.85 642.115 152.999 641.406 152.999 642.465ZM133.812 643.683C134.534 643.972 135.397 643.936 135.729 643.604C136.061 643.272 135.471 643.036 134.417 643.079C133.252 643.127 133.015 643.364 133.812 643.683ZM129.812 644.683C130.534 644.972 131.397 644.936 131.729 644.604C132.061 644.272 131.471 644.036 130.417 644.079C129.252 644.127 129.015 644.364 129.812 644.683ZM85.2495 654.031C84.0125 654.529 82.9995 655.202 82.9995 655.527C82.9995 655.852 83.4865 655.817 84.0815 655.45C84.6765 655.082 88.3885 654.441 92.3315 654.026L99.4995 653.272L93.4995 653.199C90.1995 653.159 86.4865 653.534 85.2495 654.031ZM100.812 654.683C101.534 654.972 102.396 654.936 102.728 654.604C103.06 654.272 102.47 654.036 101.416 654.079C100.251 654.127 100.015 654.364 100.812 654.683ZM78.9655 656.331C74.0455 658.6 69.7295 662.357 66.8805 666.849C65.2955 669.347 63.9995 671.842 63.9995 672.392C63.9995 672.942 65.4025 671.166 67.1185 668.446C70.2745 663.441 75.6175 658.115 77.5585 658.041C78.1405 658.018 79.4905 657.339 80.5585 656.532C82.8575 654.793 82.4195 654.738 78.9655 656.331ZM107.082 656.365C107.312 656.565 108.624 657.265 109.999 657.92C112.356 659.042 112.388 659.022 110.558 657.555C108.965 656.279 105.71 655.164 107.082 656.365ZM442.326 657.016C438.449 657.809 432 660.566 432 661.43C432 661.638 434.355 660.913 437.234 659.819C443.533 657.425 452.704 657.279 458.92 659.472C464.394 661.403 465.327 660.871 460.26 658.708C455.456 656.657 447.668 655.922 442.326 657.016ZM424.418 667.386C421.163 670.347 417.68 674.284 416.678 676.135L414.858 679.5L417.137 676.5C420.153 672.53 425.904 666.786 428.94 664.712C430.281 663.796 431.145 662.811 430.858 662.525C430.571 662.238 427.674 664.426 424.418 667.386ZM58.6235 674.539C58.2805 675.432 58.0515 677.364 58.1145 678.832C58.2005 680.83 58.4255 680.496 59.0095 677.5C59.8375 673.249 59.6545 671.85 58.6235 674.539ZM62.8545 677C62.2375 680.496 62.4935 681.84 63.5705 680.763C63.8835 680.449 63.9905 678.687 63.8065 676.846L63.4725 673.5L62.8545 677ZM299.158 678C299.158 679.375 299.384 679.938 299.661 679.25C299.939 678.563 299.939 677.438 299.661 676.75C299.384 676.063 299.158 676.625 299.158 678ZM302.232 681C302.232 682.925 302.438 683.712 302.689 682.75C302.941 681.788 302.941 680.212 302.689 679.25C302.438 678.288 302.232 679.075 302.232 681ZM306.079 680.583C306.127 681.748 306.364 681.985 306.683 681.188C306.972 680.466 306.936 679.603 306.604 679.271C306.272 678.939 306.036 679.529 306.079 680.583ZM413.459 681.067C413.096 681.653 413.014 682.348 413.276 682.61C413.538 682.872 414.019 682.392 414.345 681.543C415.021 679.781 414.445 679.471 413.459 681.067ZM57.0785 684.583C57.1265 685.748 57.3635 685.985 57.6825 685.188C57.9715 684.466 57.9355 683.603 57.6035 683.271C57.2715 682.939 57.0355 683.529 57.0785 684.583ZM410.54 688.707C409.272 691.925 408.276 700 409.148 700C409.616 700 410 698.76 410 697.243C410 695.727 410.442 692.945 410.983 691.06C412.033 687.399 411.717 685.721 410.54 688.707ZM368.676 699.115C366.598 700.829 365.079 702.412 365.301 702.635C365.524 702.857 367.435 701.455 369.548 699.52C374.304 695.163 373.771 694.916 368.676 699.115ZM381.75 698.566C379.137 699.926 377 701.262 377 701.536C377 701.81 379.137 700.964 381.75 699.657C384.363 698.35 387.175 697.028 388 696.719C389.333 696.22 389.333 696.154 388 696.126C387.175 696.108 384.363 697.206 381.75 698.566ZM193.062 700.577C194.952 702.819 196.702 704.492 196.949 704.294C197.196 704.095 195.65 702.261 193.512 700.217L189.626 696.5L193.062 700.577ZM397.25 698.689C398.212 698.941 399.788 698.941 400.75 698.689C401.712 698.438 400.925 698.232 399 698.232C397.075 698.232 396.288 698.438 397.25 698.689ZM382.352 703.009C374.973 706.803 367.615 714.741 365.001 721.727C363.9 724.668 363.035 727.621 363.078 728.288C363.12 728.954 363.908 727.475 364.829 725C365.749 722.525 367.267 719.103 368.202 717.396C370.904 712.458 380.515 704.326 386.257 702.119C389.141 701.011 390.758 700.081 389.852 700.052C388.945 700.023 385.57 701.354 382.352 703.009ZM360.872 702.75C359.629 704.336 359.664 704.371 361.25 703.128C362.916 701.821 363.445 701 362.622 701C362.415 701 361.627 701.788 360.872 702.75ZM362.872 705.75C361.629 707.336 361.664 707.371 363.25 706.128C364.212 705.373 365 704.585 365 704.378C365 703.555 364.179 704.084 362.872 705.75ZM427.5 709C428.495 710.1 429.535 711 429.81 711C430.085 711 429.495 710.1 428.5 709C427.505 707.9 426.465 707 426.19 707C425.915 707 426.505 707.9 427.5 709ZM199.085 709.5C199.189 711.394 200.855 714.584 200.913 713C200.944 712.175 200.532 710.825 199.999 710C199.466 709.175 199.054 708.95 199.085 709.5ZM195.563 712.293C195.939 713.279 196.499 713.834 196.807 713.526C197.115 713.219 196.807 712.412 196.123 711.733C195.135 710.753 195.021 710.868 195.563 712.293ZM268.616 715.003C265.367 718.6 264.434 720 265.288 720C265.447 720 267.269 717.975 269.338 715.5C274.001 709.922 273.511 709.585 268.616 715.003ZM51.0305 714.5C51.0305 715.05 51.4665 716.175 51.9995 717C52.5325 717.825 52.9685 718.05 52.9685 717.5C52.9685 716.95 52.5325 715.825 51.9995 715C51.4665 714.175 51.0305 713.95 51.0305 714.5ZM348.111 717.111C347.495 718.878 347.166 720.499 347.38 720.713C347.594 720.927 348.273 719.656 348.889 717.889C349.505 716.122 349.834 714.501 349.62 714.287C349.406 714.073 348.727 715.344 348.111 717.111ZM271 718.059C271 718.641 271.45 718.84 272 718.5C272.55 718.16 273 717.684 273 717.441C273 717.198 272.55 717 272 717C271.45 717 271 717.477 271 718.059ZM266.584 723.641C266.057 725.014 266.204 725.076 267.477 724.019C269.212 722.579 269.393 722 268.107 722C267.616 722 266.931 722.739 266.584 723.641ZM108.499 725.415C106.849 726.738 105.757 728.081 106.072 728.4C106.387 728.718 107.934 727.634 109.509 725.99C112.965 722.382 112.566 722.155 108.499 725.415ZM124.268 729.693C125.241 729.947 126.591 729.93 127.268 729.656C127.945 729.382 127.149 729.175 125.499 729.195C123.849 729.215 123.295 729.439 124.268 729.693ZM133.999 729.692C138.972 730.526 143.568 732.295 146.999 734.696L150.499 737.144L147.016 734.055C143.395 730.843 138.294 728.917 133.999 729.142L131.499 729.272L133.999 729.692ZM117.386 731.75C113.274 734.085 110.906 736.016 108.499 738.995C107.351 740.416 108.301 739.889 110.727 737.758C113.052 735.716 116.539 733.383 118.477 732.574C120.414 731.764 121.999 730.854 121.999 730.551C121.999 729.578 120.545 729.956 117.386 731.75ZM106.666 761.667C106.299 762.033 106.001 763.721 106.004 765.417L106.009 768.5L108.365 765.556C110.697 762.641 110.732 762.633 111.86 764.74C112.486 765.911 112.999 769.415 112.999 772.528C112.999 777.336 112.7 778.266 111.01 778.707C107.587 779.602 109.798 780.825 114.249 780.498C120.496 780.04 120.71 779.958 118.249 778.969C116.217 778.152 115.999 777.388 115.999 771.091C115.999 763.713 117.106 761.597 119.207 764.961C121.003 767.837 121.999 767.494 121.999 764V761H114.666C110.632 761 107.032 761.3 106.666 761.667ZM126.337 762.463C127.619 763.43 128.338 765.648 128.714 769.797C129.182 774.951 128.97 776.029 127.126 777.873C125.956 779.043 124.999 780.184 124.999 780.41C124.999 780.635 127.024 780.789 129.499 780.751C131.974 780.714 133.999 780.305 133.999 779.842C133.999 779.379 133.549 779 132.999 779C132.449 779 131.999 777.2 131.999 775C131.999 771.095 132.082 771 135.499 771C138.763 771 138.999 771.214 138.999 774.171C138.999 775.915 138.254 778.165 137.344 779.171C135.795 780.883 135.811 780.994 137.594 780.9C141.381 780.702 144.531 779.446 143.24 778.648C141.729 777.715 141.518 764.416 142.999 763.5C145.082 762.213 143.869 761 140.499 761C137.129 761 135.916 762.213 137.999 763.5C138.549 763.84 138.999 765.441 138.999 767.059C138.999 769.652 138.65 770 136.035 770C134.131 770 132.7 769.31 132.038 768.072C130.951 766.042 131.592 763 133.106 763C133.597 763 133.999 762.648 133.999 762.217C133.999 761.787 131.862 761.354 129.249 761.256C125.001 761.096 124.693 761.223 126.337 762.463ZM146.999 761.893C146.999 762.384 147.674 763.045 148.499 763.362C150.655 764.189 150.661 777.809 148.505 778.636C145.88 779.643 147.752 780.627 151.467 780.194C154.34 779.858 154.834 779.506 153.939 778.428C152.905 777.182 153.493 771 154.645 771C156.808 771 158.999 773.473 158.999 775.913C158.999 779.213 161.036 781.307 163.372 780.41C165.14 779.732 165.606 778 164.02 778C163.482 778 162.131 776.216 161.018 774.036C158.997 770.074 158.996 770.072 160.997 769.001C164.227 767.272 163.584 763.399 159.85 762.098C156.069 760.78 146.999 760.635 146.999 761.893ZM167.999 761.901C167.999 762.414 168.535 763.012 169.19 763.23C169.895 763.465 170.558 766.422 170.817 770.484C171.177 776.133 170.953 777.561 169.544 778.592C168.112 779.638 169.149 779.896 175.895 780.171L183.955 780.5L184.572 777.678C185.433 773.743 184.4 773.22 181.94 776.347C179.619 779.299 175.555 779.892 174.606 777.418C172.825 772.778 174.851 769.252 177.674 772.075C178.442 772.843 178.879 772.27 179.201 770.075C179.716 766.571 179.476 766.381 177.292 768.564C175.332 770.524 173.704 769.119 174.164 765.865C174.42 764.062 175.211 763.431 177.499 763.208C179.864 762.978 180.874 763.508 182.27 765.708L184.04 768.5L183.77 765.064L183.499 761.628L175.749 761.298C171.389 761.113 167.999 761.377 167.999 761.901ZM187.492 762.011C187.156 762.555 187.531 763 188.326 763C191.308 763 191.57 777.309 188.623 779.235C187.691 779.844 190.577 780 202.749 780C203.748 780 205.37 775.037 204.617 774.285C204.293 773.96 203.068 774.913 201.897 776.403C200.365 778.351 199.028 779.025 197.133 778.805C194.877 778.544 194.454 777.961 194.189 774.75C193.854 770.704 194.116 770.457 197.065 772.035C198.826 772.978 198.989 772.731 198.883 769.285C198.819 767.203 198.569 766.249 198.326 767.165C197.736 769.393 195.062 770.326 194.378 768.542C192.35 763.258 198.294 761.017 201.964 765.683L204.161 768.476L203.83 764.989L203.499 761.503L195.801 761.262C191.526 761.128 187.832 761.461 187.492 762.011ZM220.483 763.611C217.404 766.934 216.654 769.347 217.424 773.45C218.193 777.553 220.757 779.924 225.201 780.645C228.186 781.13 229.008 780.778 231.324 778.026C235.126 773.507 235.027 767.874 231.076 763.923C227.392 760.239 223.709 760.13 220.483 763.611ZM234.999 762C234.999 762.55 235.899 763 236.999 763C238.805 763 238.999 763.667 238.999 769.878C238.999 775.879 238.712 776.956 236.749 778.326C234.593 779.83 234.747 779.897 240.438 779.948L246.376 780L244.13 777.908C241.813 775.748 241.56 771.966 243.686 771.266C244.338 771.052 245.556 772.142 246.395 773.688L247.919 776.5L247.96 772.183C247.996 768.319 247.79 767.932 246.008 768.497C243.095 769.422 242.078 768.354 242.91 765.245C243.882 761.61 246.375 761.284 249.477 764.386L251.999 766.909V763.955V761H243.499C238.499 761 234.999 761.412 234.999 762ZM264.583 761.866C264.288 762.343 264.915 763.518 265.976 764.478C267.037 765.438 268.902 769.582 270.12 773.687C272.362 781.239 273.154 781.523 274.346 775.2C274.736 773.136 274.6 772.129 273.983 772.51C272.469 773.446 270.792 767.922 271.479 764.26C272.074 761.086 271.998 761 268.604 761C266.687 761 264.877 761.39 264.583 761.866ZM274.513 761.979C274.18 762.518 274.419 763.914 275.044 765.082C275.669 766.249 275.956 768.059 275.683 769.104C275.41 770.148 275.583 770.758 276.068 770.458C276.553 770.158 277.466 771.965 278.098 774.474C278.729 776.982 279.641 779.278 280.125 779.577C281.119 780.192 282.427 777.175 283.41 772C284.067 768.545 284.055 768.532 282.609 771C281.226 773.36 281.102 773.39 280.389 771.551C279.973 770.479 279.602 768.004 279.566 766.051C279.529 764.098 279.05 762.169 278.5 761.765C277.088 760.728 275.225 760.828 274.513 761.979ZM282.543 761.931C282.226 762.443 282.425 763.144 282.984 763.49C283.543 763.835 284 765.017 284 766.115C284 767.888 284.269 767.798 286.408 765.312C287.733 763.772 288.606 762.172 288.349 761.756C287.686 760.683 283.231 760.817 282.543 761.931ZM294.342 762.75C290.99 772.602 288.252 778.383 286.751 778.775C285.788 779.027 285 779.683 285 780.233C285 780.783 286.012 780.962 287.25 780.63C288.488 780.299 290.545 780.021 291.821 780.014C293.904 780.001 293.986 779.843 292.614 778.471C290.429 776.286 291.704 774 295.107 774C297.503 774 298 774.417 298 776.427C298 777.897 297.31 779.034 296.25 779.311C295.288 779.562 297.2 779.792 300.5 779.821C304.941 779.86 305.928 779.643 304.297 778.986C302.627 778.314 301.465 776.034 299.487 769.55C296.923 761.143 295.519 759.289 294.342 762.75ZM308 762C308 762.55 308.659 763 309.465 763C311.55 763 313 766.22 313 770.852C313 775.801 312.198 778 310.393 778C308.629 778 308.571 779.622 310.312 780.29C311.727 780.833 317 780.062 317 779.312C317 779.062 316.325 778.182 315.5 777.357C313.811 775.668 313.434 768 315.04 768C315.612 768 317.974 770.976 320.29 774.613L324.5 781.226L324.794 772.893C325.003 766.958 325.551 764.048 326.699 762.78C328.221 761.099 328.066 761.001 323.905 761.022C319.504 761.044 319.502 761.046 321.781 762.8C323.766 764.328 323.957 765.055 323.258 768.42L322.454 772.286L319.727 768.164C318.227 765.898 317 763.631 317 763.128C317 762.625 316.288 761.941 315.418 761.607C312.906 760.643 308 760.903 308 762ZM331 761.893C331 762.384 331.675 763.045 332.5 763.362C334.576 764.158 334.614 776.243 332.548 778.31C330.599 780.258 331.58 781 336.108 781C340.297 781 342.113 779.524 338.943 778.695C337.095 778.212 336.935 777.493 337.204 770.832C337.498 763.533 337.513 763.498 340.451 763.164C344.358 762.72 346 765.094 346 771.191C346 774.667 345.445 776.555 344 778C342.678 779.322 342.45 780 343.326 780C345.426 780 348.91 775.699 349.599 772.255C350.367 768.416 347.123 762.534 343.739 761.627C340.276 760.699 331 760.893 331 761.893ZM354.75 762.104C352.978 763.112 352.387 767.581 353.765 769.549C354.169 770.125 356.366 771.142 358.647 771.808C360.927 772.474 363.072 773.746 363.414 774.636C364.18 776.633 362.346 779 360.033 779C358.126 779 355 776.001 355 774.171C355 773.527 354.55 773 354 773C353.45 773 353 774.822 353 777.05C353 780.553 353.227 780.972 354.685 780.157C355.773 779.547 356.977 779.593 358.087 780.286C360.206 781.61 364.466 779.15 365.251 776.149C365.964 773.423 363.864 769.562 361.475 769.205C360.389 769.043 358.375 768.055 357 767.009C355.082 765.55 354.774 764.833 355.677 763.927C357.369 762.23 361.487 763.566 362.77 766.228C363.791 768.348 363.869 768.266 363.927 765C363.987 761.646 363.834 761.492 360.245 761.304C358.185 761.196 355.712 761.556 354.75 762.104ZM153.992 763.508C152.277 765.575 153.575 770 155.896 770C158.245 770 160.396 767.478 159.667 765.578C158.698 763.052 155.377 761.84 153.992 763.508ZM222.889 763.634C222.096 764.59 221.533 767.645 221.533 771C221.533 774.355 222.096 777.41 222.889 778.366C224.492 780.298 228.549 780.527 229.667 778.75C230.853 776.865 230.291 765.056 228.938 763.426C227.359 761.524 224.56 761.62 222.889 763.634ZM293.667 768.667C292.449 769.885 292.978 772 294.5 772C295.333 772 296 771.111 296 770C296 768.008 294.934 767.399 293.667 768.667ZM6.1385 791.472C6.8595 792.193 23.0025 792.331 23.7105 791.622C24.0535 791.28 20.1325 791 14.9995 791C9.8665 791 5.8785 791.212 6.1385 791.472Z" fill="black"/>
</svg>
