<svg width="1681" height="473" viewBox="0 0 1681 473" fill="none" xmlns="http://www.w3.org/2000/svg">
<path fill-rule="evenodd" clip-rule="evenodd" d="M821.965 13.6143C821.421 21.103 820.602 29.6792 820.143 32.6743C818.949 40.4866 816.858 63.6076 814.562 94.4008C813.465 109.095 812.045 121.64 811.402 122.277C810.76 122.915 810.187 129.096 810.128 136.014C810.067 142.932 809.417 149.991 808.682 151.702C807.946 153.414 807.297 154.083 807.236 153.19C807.177 152.295 804.358 148.594 800.974 144.96C797.591 141.329 793.353 136.459 791.557 134.139C788.205 129.804 773.624 113.171 766.705 105.789C764.568 103.508 759.32 97.5017 755.045 92.4434C750.77 87.3851 745.409 81.1444 743.133 78.5755C740.857 76.0083 735.26 69.6321 730.696 64.4089C726.131 59.1857 719.422 51.5197 715.789 47.3716C712.156 43.222 709.182 39.2698 709.182 38.5852C709.182 36.4863 705.011 37.2068 702.98 39.6559C701.402 41.5572 702.338 44.0186 708.23 53.4817C712.175 59.8128 715.401 65.7734 715.401 66.7272C715.401 67.681 716.086 68.4605 716.926 68.4605C717.764 68.4605 718.889 70.2109 719.426 72.3503C719.962 74.4897 720.945 76.2401 721.607 76.2401C722.269 76.2401 723.222 77.4646 723.724 78.963C724.716 81.9177 728.035 87.4381 729.571 88.6875C730.099 89.1154 731.019 91.0416 731.621 92.9663C732.221 94.891 733.363 96.4671 734.161 96.4671C734.958 96.4671 735.611 97.1082 735.611 97.8908C735.611 98.6735 738.753 104.451 742.595 110.727C746.437 117.004 750.435 123.89 751.483 126.03C753.231 129.602 766.315 151.687 769.919 157.148C770.766 158.432 771.87 160.706 772.374 162.205C772.876 163.703 773.823 164.928 774.479 164.928C775.135 164.928 776.103 166.152 776.63 167.65C777.159 169.149 778.003 171.266 778.51 172.36C779.216 173.887 777.866 174.108 772.678 173.314C768.966 172.746 765.228 171.761 764.373 171.123C763.518 170.485 760.37 169.575 757.377 169.098C754.384 168.621 747.038 167.083 741.053 165.679C735.067 164.274 725.623 162.356 720.065 161.414C714.507 160.473 709.609 159.219 709.182 158.626C708.754 158.035 705.956 157.134 702.963 156.627C689.984 154.427 677.189 151.621 675.702 150.649C674.817 150.072 669.73 149.104 664.396 148.5C659.062 147.897 654.323 146.795 653.864 146.051C653.404 145.309 651.497 144.69 649.623 144.677C647.75 144.665 643.418 143.644 639.998 142.412C630.316 138.92 628.338 139.308 628.338 144.701C628.338 147.641 629.136 149.368 630.493 149.368C633.033 149.368 642.276 153.976 639.998 154.106C639.143 154.156 494.848 154.228 319.344 154.265L0.244086 154.333V159.617V164.9L337.669 165.303C583.762 165.597 675.392 166.175 676.202 167.44C676.812 168.396 679.06 169.704 681.197 170.352C683.335 170.999 688.582 173.126 692.858 175.079C697.133 177.031 703.429 179.781 706.85 181.189C710.27 182.597 714.283 184.416 715.767 185.229C717.252 186.045 719.527 186.711 720.82 186.711C722.115 186.711 723.174 187.38 723.174 188.196C723.174 189.013 725.623 190.141 728.615 190.703C731.608 191.265 734.057 192.348 734.057 193.107C734.057 193.868 735.058 194.49 736.28 194.49C737.504 194.49 743.038 196.591 748.581 199.158C754.123 201.725 759.768 203.826 761.127 203.826C762.484 203.826 763.596 204.526 763.596 205.382C763.596 206.237 764.645 206.938 765.928 206.938C770.084 206.938 768.395 209.772 763.613 210.823C761.059 211.384 758.568 212.491 758.08 213.281C757.593 214.071 755.836 214.717 754.176 214.717C752.516 214.717 751.158 215.417 751.158 216.273C751.158 217.129 750.041 217.829 748.672 217.829C746.204 217.829 743.623 218.885 725.284 227.398C720.03 229.838 714.609 231.832 713.235 231.832C711.86 231.832 710.736 232.388 710.736 233.066C710.736 233.744 706.889 235.608 702.186 237.208C697.483 238.809 693.635 240.704 693.635 241.42C693.635 242.137 692.547 242.724 691.217 242.724C689.888 242.724 685.515 244.3 681.501 246.225L674.201 249.725L337.223 250.125L0.244086 250.523V255.182V259.839L324.008 259.938C666.243 260.044 649.819 259.703 633.391 266.338C629.843 267.771 628.338 269.395 628.338 271.796C628.338 275.877 630.855 277.807 633.459 275.72C634.49 274.894 639.182 273.47 643.885 272.557C648.588 271.644 655.584 270.105 659.432 269.137C663.28 268.169 670.626 266.506 675.756 265.439C680.886 264.371 686.134 263.075 687.416 262.555C688.699 262.037 693.946 260.827 699.076 259.868C704.207 258.908 710.503 257.721 713.068 257.23C715.634 256.738 718.432 255.811 719.287 255.168C720.142 254.525 725.04 253.492 730.17 252.873C735.301 252.255 740.198 251.294 741.053 250.738C742.632 249.71 758.05 246.407 768.649 244.824C771.856 244.345 774.479 243.326 774.479 242.56C774.479 241.795 775.845 241.168 777.515 241.168C780.449 241.168 780.463 241.341 777.904 246.223C776.448 249.003 774.853 251.63 774.362 252.058C773.869 252.487 772.12 255.275 770.475 258.255C768.829 261.235 766.609 264.609 765.539 265.756C764.471 266.903 763.596 268.841 763.596 270.063C763.596 271.286 762.977 272.286 762.223 272.286C761.467 272.286 760.438 273.511 759.936 275.009C759.048 277.654 755.841 283.159 754.268 284.735C753.84 285.163 752.366 287.614 750.992 290.181C744.584 302.155 742.468 305.751 740.664 307.724C739.596 308.894 738.721 310.851 738.721 312.073C738.721 313.296 738.102 314.296 737.348 314.296C736.592 314.296 735.563 315.521 735.061 317.019C734.069 319.974 730.75 325.494 729.214 326.743C728.687 327.171 727.766 329.098 727.165 331.022C726.565 332.947 725.422 334.523 724.625 334.523C723.827 334.523 723.174 335.222 723.174 336.076C723.174 336.93 718.672 344.988 713.168 353.985C701.526 373.015 700.555 375.442 703.571 377.949C706.102 380.049 710.457 376.402 720.065 364.137C723.057 360.315 727.255 355.349 729.393 353.099C733.248 349.041 744.909 335.771 751.182 328.299C752.979 326.16 758.431 319.969 763.297 314.54C768.165 309.112 772.65 303.786 773.266 302.703C773.882 301.62 777.38 297.627 781.039 293.829C784.699 290.031 789.792 284.488 792.358 281.511C808.39 262.905 808.578 262.739 809.395 266.473C809.815 268.387 810.479 274.853 810.869 280.844C813.65 323.412 815.148 340.702 816.479 345.595C817.321 348.69 818.01 355.61 818.01 360.975C818.01 366.338 818.703 375.01 819.552 380.244C820.401 385.476 821.513 395.885 822.024 403.373C822.918 416.464 823.097 416.987 826.701 416.987C829.86 416.987 830.472 416.193 830.603 411.93C830.688 409.15 831.407 399.872 832.198 391.314C832.989 382.757 834.221 369.453 834.936 361.752C835.649 354.05 837.059 337.596 838.067 325.188C839.076 312.779 840.571 298.734 841.392 293.976C842.213 289.218 842.885 281.398 842.885 276.599C842.885 260.863 843.424 260.948 858.57 279.117C860.632 281.589 864.417 285.907 866.983 288.712C869.548 291.517 874.445 297.106 877.865 301.133C881.286 305.158 886.789 311.337 890.098 314.862C893.404 318.387 897.475 323.028 899.144 325.175C903.518 330.8 915.766 344.854 922.659 352.158C925.919 355.612 930.816 361.255 933.542 364.702C944.324 378.328 946.68 380.332 949.334 378.128C952.462 375.529 951.303 371.672 944.529 362.138C941.64 358.07 939.276 354.419 939.276 354.023C939.276 353.628 936.127 348.114 932.279 341.772C928.432 335.429 925.283 329.452 925.283 328.491C925.283 327.531 924.75 326.743 924.097 326.743C922.909 326.743 920.102 322.133 918.174 317.019C917.609 315.521 916.529 314.296 915.773 314.296C915.019 314.296 914.401 313.597 914.401 312.743C914.401 311.889 909.503 303.185 903.518 293.398C897.532 283.613 892.635 274.86 892.635 273.946C892.635 273.033 892.011 272.286 891.248 272.286C890.486 272.286 889.423 270.536 888.887 268.396C888.35 266.257 887.225 264.507 886.387 264.507C885.547 264.507 884.861 263.456 884.861 262.173C884.861 260.889 884.162 259.839 883.307 259.839C882.452 259.839 881.752 258.838 881.752 257.615C881.752 256.394 880.878 254.437 879.809 253.267C878.741 252.097 876.673 248.896 875.218 246.153C872.66 241.34 872.674 241.168 875.606 241.168C877.276 241.168 878.643 241.776 878.643 242.518C878.643 243.262 881.267 244.323 884.473 244.876C899.821 247.525 910.657 249.819 912.068 250.715C912.924 251.259 917.471 252.212 922.174 252.834C926.877 253.455 931.424 254.502 932.279 255.16C933.135 255.82 936.283 256.766 939.276 257.264C947.358 258.61 966.483 262.607 966.483 262.951C966.483 263.114 971.03 264.178 976.588 265.314C982.146 266.448 989.842 268.169 993.69 269.137C997.537 270.105 1004.53 271.651 1009.24 272.574C1013.94 273.498 1018.24 274.962 1018.8 275.831C1020.58 278.623 1024.78 275.627 1024.78 271.556C1024.78 268.656 1023.96 267.618 1021.67 267.618C1019.96 267.618 1018.56 266.918 1018.56 266.063C1018.56 265.207 1017.55 264.507 1016.31 264.507C1015.06 264.507 1012.13 263.632 1009.78 262.562C1006.35 260.996 1071.25 260.466 1342.8 259.839L1680.08 259.061L1680.54 254.393L1681 249.725H1329.96H978.92L971.621 246.225C967.607 244.3 963.233 242.724 961.904 242.724C960.575 242.724 959.486 242.164 959.486 241.481C959.486 240.796 956.864 239.316 953.656 238.19C950.451 237.063 945.378 235.067 942.385 233.752C929.01 227.882 916.538 222.234 914.349 221.059C913.039 220.356 909.716 219.285 906.964 218.682C904.214 218.076 901.963 216.937 901.963 216.15C901.963 215.361 900.606 214.717 898.945 214.717C897.285 214.717 895.528 214.071 895.042 213.281C894.553 212.491 892.063 211.384 889.508 210.823C884.726 209.772 883.038 206.938 887.193 206.938C888.476 206.938 889.526 206.237 889.526 205.382C889.526 204.526 890.637 203.826 891.994 203.826C893.353 203.826 898.998 201.725 904.541 199.158C910.083 196.591 915.618 194.49 916.841 194.49C918.063 194.49 919.065 193.79 919.065 192.934C919.065 192.078 920.181 191.378 921.546 191.378C922.909 191.378 925.883 190.39 928.153 189.184C930.423 187.977 935.078 185.828 938.498 184.411C945.017 181.708 945.734 181.399 959.486 175.344C964.189 173.274 969.786 171.039 971.924 170.378C974.062 169.717 976.31 168.396 976.919 167.44C977.728 166.177 1073.33 165.494 1329.06 164.928L1680.08 164.15L1680.58 158.159C1680.92 154.027 1680.53 152.504 1679.32 153.249C1678.04 154.039 1090.43 154.808 1020.9 154.111C1011.65 154.017 1011.61 153.996 1016.02 151.693C1018.47 150.414 1021.44 149.368 1022.63 149.368C1025.43 149.368 1025.48 141.76 1022.69 140.688C1021.54 140.245 1017.52 140.957 1013.75 142.269C1009.99 143.582 1005.37 144.665 1003.5 144.677C1001.62 144.69 999.717 145.309 999.257 146.051C998.798 146.795 994.06 147.897 988.725 148.5C983.391 149.104 978.304 150.072 977.42 150.649C975.918 151.631 962.666 154.528 950.158 156.611C947.166 157.109 944.017 158.046 943.162 158.691C942.307 159.339 938.11 160.35 933.834 160.941C929.559 161.533 923.962 162.644 921.397 163.414C918.831 164.182 911.136 165.956 904.295 167.356C897.454 168.757 890.458 170.482 888.748 171.193C884.687 172.878 873.979 174.632 873.979 173.611C873.979 172.351 882.107 158.008 883.308 157.148C883.907 156.72 884.675 155.67 885.017 154.814C885.359 153.958 888.291 148.707 891.533 143.145C894.773 137.582 898.036 131.981 898.782 130.697C899.528 129.414 903.348 123.017 907.269 116.482C911.192 109.948 914.401 103.822 914.401 102.868C914.401 101.914 914.934 101.135 915.587 101.135C916.775 101.135 919.582 96.5247 921.51 91.4104C922.074 89.912 923.155 88.6875 923.911 88.6875C924.665 88.6875 925.283 87.6871 925.283 86.4642C925.283 85.2428 926.159 83.304 927.227 82.1573C929.147 80.0972 931.6 75.9585 937.186 65.3502C938.762 62.3551 940.487 59.5544 941.015 59.1265C941.544 58.6971 944.24 54.6532 947.002 50.1395C951.088 43.4646 951.673 41.5026 950.126 39.6371C948.129 37.2285 943.94 36.4864 943.94 38.5402C943.94 39.7476 937.652 47.3359 922.407 64.5272C917.833 69.6851 910.487 78.0404 906.083 83.0925C901.68 88.1446 894.861 95.8464 890.929 100.208C886.999 104.569 882.102 110.17 880.047 112.657C877.993 115.143 874.562 119.017 872.424 121.267C870.286 123.517 866.308 128.18 863.581 131.629C860.856 135.079 855.784 140.833 852.309 144.414C848.836 147.998 845.994 151.744 845.994 152.742C845.994 153.739 845.492 154.053 844.88 153.439C843.798 152.357 843.081 145.253 839.906 104.247C839.077 93.5498 837.932 81.997 837.359 78.574C836.789 75.151 835.665 64.6485 834.866 55.2352C834.065 45.8219 832.814 31.4685 832.084 23.3388C831.355 15.2091 830.688 6.63289 830.603 4.27878C830.478 0.837086 829.714 0 826.701 0C823.102 0 822.913 0.538348 821.965 13.6143ZM778.625 66.3865C777.14 67.8724 777.347 72.7176 779.029 75.873C779.822 77.3589 780.85 79.7985 781.313 81.2969C781.776 82.7952 783.653 84.0197 785.486 84.0197C788.469 84.0197 788.707 83.4346 787.765 78.4074C785.63 67.0228 782.328 62.6787 778.625 66.3865ZM867.113 70.7198C863.248 79.9806 863.355 83.2418 867.528 83.2418C870.454 83.2418 871.639 81.8929 873.467 76.4798C874.723 72.7596 875.375 68.7345 874.913 67.5333C873.407 63.603 869.402 65.2383 867.113 70.7198ZM820.457 104.636C820.06 106.56 819.31 117.239 818.79 128.363C817.057 165.53 813.761 172.984 804.486 160.733C802.09 157.57 797.682 152.435 794.69 149.323C788.163 142.538 777.017 129.233 776.293 127.366C776.007 126.63 775.052 126.03 774.171 126.03C772.263 126.03 777.165 134.043 780.164 135.832C781.313 136.517 782.252 137.771 782.252 138.62C782.252 140.075 783.501 141.864 788.082 146.977C789.152 148.17 790.026 149.896 790.026 150.814C790.026 151.73 790.679 152.48 791.476 152.48C792.274 152.48 793.315 153.705 793.791 155.203C794.267 156.701 796.473 159.886 798.694 162.284C803.363 167.319 802.699 171.151 797.158 171.151C794.533 171.151 792.437 169.67 790.556 166.484C789.04 163.916 787.299 161.816 786.686 161.816C786.072 161.816 785.178 160.591 784.698 159.093C784.219 157.595 782.086 154.27 779.96 151.702C777.834 149.135 775.52 146.334 774.821 145.479C774.12 144.623 772.206 141.646 770.567 138.866C768.93 136.086 767.074 133.809 766.442 133.809C765.13 133.809 769.614 142.709 772.535 145.908C773.605 147.078 774.479 149.036 774.479 150.257C774.479 151.48 775.178 152.48 776.033 152.48C776.888 152.48 777.588 153.531 777.588 154.814C777.588 156.098 778.241 157.148 779.039 157.148C779.836 157.148 780.979 158.724 781.579 160.649C782.181 162.574 783.101 164.5 783.628 164.928C786.282 167.087 791.894 180.275 790.867 181.938C789.687 183.849 775.642 182.92 772.147 180.698C771.292 180.155 766.044 178.81 760.486 177.708C741.505 173.947 739.784 173.765 740.933 175.625C741.527 176.588 743.357 177.375 745 177.375C747.676 177.375 755.76 179.995 764.373 183.653C766.083 184.38 769.931 185.446 772.924 186.021C775.917 186.599 779.241 187.775 780.309 188.637C782.549 190.443 782.902 195.461 780.876 196.713C779.558 197.529 772.52 195.732 765.928 192.897C764.218 192.161 760.393 191.08 757.428 190.493C754.464 189.906 750.966 188.838 749.655 188.117C745.488 185.83 732.12 181.907 731.296 182.732C730.859 183.168 731.827 183.989 733.446 184.554C735.064 185.12 740.686 187.588 745.939 190.037C751.193 192.486 756.614 194.49 757.988 194.49C759.362 194.49 760.486 195.19 760.486 196.046C760.486 196.902 761.642 197.602 763.052 197.602C767.801 197.602 782.252 205.651 782.252 208.296C782.252 209.698 779.979 211.817 777.199 213.002C770.166 216.004 759.61 220.692 750.092 225.038C745.658 227.063 740.935 228.72 739.598 228.72C738.261 228.72 737.166 229.477 737.166 230.399C737.166 232.299 746.325 230.841 748.749 228.557C749.56 227.792 751.793 227.164 753.71 227.164C755.627 227.164 757.601 226.505 758.098 225.699C758.598 224.893 762.136 223.762 765.964 223.187C769.791 222.613 772.924 221.523 772.924 220.763C772.924 220.006 775.069 219.385 777.691 219.385C781.975 219.385 782.409 219.819 781.966 223.664C781.598 226.877 780.506 228.076 777.588 228.481C775.45 228.776 773.002 229.523 772.147 230.141C771.292 230.759 766.394 232.529 761.264 234.076C756.133 235.622 750.742 237.486 749.283 238.221C747.824 238.954 743.802 240.006 740.344 240.559C736.886 241.113 734.057 242.184 734.057 242.942C734.057 244.469 746.376 242.966 748.826 241.14C749.681 240.502 752.83 239.573 755.822 239.075C766.31 237.328 781.5 233.925 784.195 232.718C787.726 231.137 791.58 232.655 791.58 235.629C791.58 236.914 788.432 243.296 784.584 249.809C780.736 256.322 777.588 262.294 777.588 263.08C777.588 263.864 777.047 264.507 776.386 264.507C775.726 264.507 773.837 267.133 772.189 270.341C770.541 273.551 768.17 277.405 766.921 278.908C765.673 280.411 765.037 282.026 765.508 282.499C765.981 282.971 767.994 281.041 769.983 278.211C771.971 275.379 774.496 272.138 775.593 271.009C776.691 269.878 777.588 268.121 777.588 267.103C777.588 266.087 779.046 264.345 780.828 263.231C782.925 261.919 783.718 260.296 783.078 258.625C782.534 257.205 782.558 256.514 783.132 257.09C784.45 258.409 787.039 255.804 790.837 249.336C793.992 243.962 797.802 242.868 800.796 246.478C802.256 248.239 800.879 251.112 793.894 260.87C789.093 267.578 784.511 273.298 783.709 273.582C782.908 273.869 782.252 275.043 782.252 276.195C782.252 277.346 781.378 279.213 780.309 280.344C779.241 281.474 776.357 285.2 773.903 288.623L769.441 294.847L774.681 289.401C777.562 286.406 782.277 281.155 785.158 277.732C798.533 261.84 809.677 250.508 811.933 250.506C815.539 250.502 817.732 262.759 818.969 289.839C819.547 302.488 820.617 313.207 821.346 313.658C822.077 314.111 822.674 301.177 822.674 284.917C822.674 268.658 823.31 254.961 824.089 254.48C824.866 253.999 826.615 254.032 827.975 254.555C830.113 255.376 830.454 259.526 830.494 285.289C830.55 320.196 832.702 321.209 834.277 287.067C835.284 265.185 837.125 253.15 839.961 249.881C840.632 249.106 843.468 250.878 846.305 253.845C856.139 264.127 879.941 291.228 882.117 294.621C882.745 295.602 883.269 295.83 883.283 295.132C883.296 294.433 881.384 291.282 879.031 288.132C876.679 284.981 874.255 281.701 873.644 280.845C873.032 279.988 870.409 276.746 867.814 273.637C865.219 270.528 863.096 267.261 863.096 266.375C863.096 265.49 862.572 264.533 861.93 264.247C859.278 263.067 850.529 248.417 851.291 246.432C852.928 242.159 859.138 244.017 862.193 249.693C863.794 252.669 866.367 255.506 867.908 255.996C869.45 256.486 870.35 257.829 869.908 258.978C869.467 260.13 870.726 262.209 872.708 263.598C874.689 264.986 876.169 266.634 875.997 267.259C875.655 268.491 878.954 273.434 884.423 279.887C886.321 282.124 887.895 283.167 887.921 282.2C887.949 281.236 886.921 279.576 885.639 278.51C884.356 277.444 883.307 275.608 883.307 274.43C883.307 273.251 882.774 272.286 882.121 272.286C880.933 272.286 878.125 267.676 876.197 262.562C875.633 261.063 874.552 259.839 873.797 259.839C873.043 259.839 872.418 258.964 872.408 257.894C872.401 256.825 869.689 251.681 866.382 246.466C861.924 239.433 860.742 236.318 861.81 234.407C863.298 231.748 867.914 230.949 869.96 232.998C871.009 234.046 882.668 236.639 897.299 239.075C900.292 239.573 903.44 240.502 904.295 241.14C905.15 241.778 908.875 242.761 912.572 243.326C920.685 244.566 920.078 241.996 911.894 240.46C908.787 239.876 905.107 238.834 903.715 238.143C902.324 237.452 896.988 235.622 891.858 234.076C886.727 232.529 881.83 230.759 880.975 230.141C880.12 229.523 877.671 228.776 875.533 228.481C872.615 228.076 871.524 226.877 871.155 223.664C870.734 220.003 871.225 219.385 874.562 219.385C876.706 219.385 878.835 219.993 879.294 220.737C879.753 221.479 882.972 222.543 886.45 223.099C889.927 223.656 893.964 224.717 895.424 225.456C905.306 230.466 915.955 233.032 915.955 230.399C915.955 229.477 914.867 228.72 913.538 228.72C911.187 228.72 902.988 225.413 890.303 219.344C886.883 217.709 882.161 215.923 879.809 215.375C877.456 214.828 875.533 213.755 875.533 212.993C875.533 212.229 874.484 211.605 873.201 211.605C871.919 211.605 870.869 210.287 870.869 208.675C870.869 205.658 884.837 197.602 890.07 197.602C891.48 197.602 892.638 197.076 892.641 196.435C892.644 195.794 895.967 193.98 900.026 192.407C904.084 190.832 908.804 188.922 910.514 188.159C912.224 187.398 915.644 186.04 918.115 185.144C920.583 184.246 922.252 183.158 921.819 182.726C921.058 181.962 909.037 185.445 902.74 188.254C901.03 189.016 897.206 190.121 894.241 190.708C891.276 191.294 887.778 192.34 886.467 193.031C881.974 195.402 873.621 197.565 872.245 196.713C870.191 195.442 870.585 190.44 872.89 188.525C874 187.602 877.848 186.376 881.441 185.802C885.032 185.228 887.971 184.226 887.971 183.577C887.971 182.926 889.894 182.01 892.246 181.539C906.153 178.75 920.265 172.78 908.182 174.798C899.093 176.315 882.674 179.88 880.197 180.874C878.915 181.389 874.443 182.27 870.263 182.833C860.527 184.142 858.999 181.992 864.013 174.041C866.075 170.773 867.76 167.388 867.76 166.515C867.76 165.642 868.459 164.928 869.315 164.928C870.17 164.928 870.869 163.927 870.869 162.704C870.869 161.483 871.987 159.364 873.352 157.998C874.719 156.63 875.426 154.444 874.925 153.137C874.423 151.831 874.67 151.169 875.473 151.665C876.275 152.161 877.772 150.973 878.798 149.023C879.823 147.073 881.084 145.127 881.597 144.696C883.128 143.412 889.686 130.697 888.817 130.697C888.375 130.697 886.08 133.665 883.717 137.29C879.645 143.537 875.333 149.118 871.463 153.149C870.507 154.145 869.235 156.502 868.638 158.388C868.04 160.272 867.049 161.816 866.435 161.816C865.823 161.816 864.081 163.916 862.566 166.484C859.578 171.545 852.819 172.986 851.251 168.895C850.481 166.89 858.96 154.06 861.93 152.74C862.572 152.454 863.107 151.404 863.121 150.406C863.135 149.407 865.226 146.14 867.768 143.145C870.311 140.15 873.097 136.853 873.962 135.819C874.826 134.786 875.533 133.297 875.533 132.51C875.533 131.723 876.6 130.193 877.903 129.11C879.205 128.027 879.98 126.85 879.624 126.492C878.904 125.771 867.774 136.853 867.737 138.326C867.724 138.838 863.817 143.456 859.054 148.59C854.292 153.725 848.88 159.844 847.028 162.191C839.077 172.264 835.937 163.968 834.222 128.363C832.646 95.6067 830.548 97.5765 830.494 131.864L830.447 161.816H826.561H822.674L822.481 139.644C822.375 127.449 822.439 113.797 822.624 109.303C822.969 100.957 821.754 98.342 820.457 104.636ZM706.072 122.863C706.072 124.544 707.632 126.756 709.538 127.777C711.445 128.798 713.942 130.571 715.088 131.718C716.61 133.241 717.977 133.372 720.156 132.204C723.897 130.201 721.908 126.367 715.097 122.456C709.033 118.972 706.072 119.106 706.072 122.863ZM937.527 122.569C931.151 126.443 929.341 130.263 932.965 132.204C935.145 133.372 936.511 133.241 938.033 131.718C939.179 130.571 941.676 128.798 943.584 127.777C947.758 125.541 948.31 119.74 944.328 119.947C942.833 120.027 939.771 121.206 937.527 122.569ZM762.041 129.141C762.957 130.853 764.054 132.253 764.482 132.253C764.91 132.253 764.512 130.853 763.596 129.141C762.68 127.43 761.583 126.03 761.155 126.03C760.727 126.03 761.125 127.43 762.041 129.141ZM819.956 143.923C819.973 147.346 820.292 148.563 820.664 146.627C821.035 144.691 821.021 141.891 820.633 140.403C820.244 138.916 819.939 140.5 819.956 143.923ZM832.363 144.701C832.363 147.696 832.683 148.922 833.073 147.424C833.465 145.925 833.465 143.476 833.073 141.978C832.683 140.479 832.363 141.706 832.363 144.701ZM0.635867 159.482C0.652969 162.905 0.97168 164.122 1.34325 162.186C1.71482 160.251 1.70083 157.45 1.31216 155.962C0.923485 154.475 0.618766 156.059 0.635867 159.482ZM730.947 172.707C733.085 173.392 735.884 174.013 737.166 174.084C739.239 174.201 739.239 174.048 737.166 172.707C735.884 171.878 733.085 171.259 730.947 171.33L727.061 171.461L730.947 172.707ZM915.178 172.707C914.072 174.497 916.591 174.497 922.174 172.707C925.885 171.517 925.837 171.455 921.1 171.307C918.371 171.221 915.706 171.851 915.178 172.707ZM809.459 176.3C803.867 179.633 793.135 191.638 793.135 194.562C793.135 196.133 792.435 197.851 791.58 198.38C790.725 198.909 790.026 203.46 790.026 208.493C790.026 213.527 790.725 218.078 791.58 218.607C792.435 219.136 793.135 220.826 793.135 222.363C793.135 226.506 806.524 239.568 811.866 240.639C814.391 241.143 816.455 242.17 816.455 242.918C816.455 244.692 834.67 244.698 835.764 242.924C836.225 242.179 838.54 241.172 840.909 240.687C845.895 239.666 856.877 229.833 856.877 226.39C856.877 225.104 857.496 224.053 858.25 224.053C860.498 224.053 861.257 216.478 859.281 213.774C857.664 211.56 856.77 211.915 851.545 216.847C842.785 225.115 829.438 226.415 820.407 219.878C815.62 216.415 810.236 205.926 810.236 200.068C810.236 194.509 814.579 185.335 819.282 180.955C821.303 179.074 822.501 176.798 821.946 175.898C820.611 173.737 813.368 173.969 809.459 176.3ZM723.951 180.487C724.48 181.343 725.612 182.043 726.467 182.043C727.322 182.043 727.589 181.343 727.061 180.487C726.532 179.631 725.4 178.931 724.545 178.931C723.69 178.931 723.423 179.631 723.951 180.487ZM926.072 180.47C925.527 181.35 926.151 181.612 927.535 181.081C930.227 180.046 930.72 178.931 928.484 178.931C927.679 178.931 926.594 179.623 926.072 180.47ZM680.809 205.078C679.313 205.371 678.088 206.959 678.088 208.607C678.088 211.233 679.243 211.605 687.416 211.605C695.707 211.605 696.744 211.26 696.744 208.493C696.744 206.615 695.665 205.332 694.024 205.255C692.528 205.185 689.554 204.997 687.416 204.839C685.278 204.678 682.304 204.787 680.809 205.078ZM959.875 205.044C957.647 205.397 956.377 206.688 956.377 208.602C956.377 211.235 957.526 211.605 965.705 211.605C973.996 211.605 975.033 211.26 975.033 208.493C975.033 206.782 974.16 205.273 973.09 205.137C968.521 204.566 963.132 204.527 959.875 205.044ZM730.17 233.388C729.641 234.244 730.259 234.944 731.541 234.944C732.824 234.944 734.306 234.244 734.834 233.388C735.363 232.532 734.746 231.832 733.463 231.832C732.18 231.832 730.699 232.532 730.17 233.388ZM918.287 233.388C918.816 234.244 920.297 234.944 921.58 234.944C922.863 234.944 923.48 234.244 922.951 233.388C922.423 232.532 920.941 231.832 919.659 231.832C918.376 231.832 917.759 232.532 918.287 233.388ZM0.604774 255.171C0.604774 258.166 0.925039 259.392 1.31527 257.894C1.70705 256.396 1.70705 253.947 1.31527 252.448C0.925039 250.95 0.604774 252.176 0.604774 255.171ZM819.956 273.064C819.973 276.487 820.292 277.704 820.664 275.768C821.035 273.833 821.021 271.032 820.633 269.545C820.244 268.057 819.939 269.641 819.956 273.064ZM832.394 273.064C832.411 276.487 832.73 277.704 833.101 275.768C833.473 273.833 833.459 271.032 833.07 269.545C832.681 268.057 832.377 269.641 832.394 273.064ZM844.562 277.861C844.637 279.674 845.005 280.042 845.501 278.802C845.951 277.679 845.895 276.336 845.379 275.82C844.862 275.303 844.496 276.221 844.562 277.861ZM711.918 286.747C705.329 290.635 703.613 297.181 709.182 297.181C710.892 297.181 712.291 296.481 712.291 295.625C712.291 294.769 713.219 294.069 714.353 294.069C715.486 294.069 717.93 292.454 719.783 290.48C722.392 287.699 722.734 286.472 721.297 285.034C718.922 282.656 718.818 282.675 711.918 286.747ZM931.824 285.034C930.387 286.472 930.729 287.699 933.338 290.48C935.191 292.454 937.635 294.069 938.769 294.069C939.902 294.069 940.83 294.769 940.83 295.625C940.83 296.481 942.229 297.181 943.94 297.181C949.676 297.181 947.773 290.607 940.899 286.678C933.73 282.582 934.19 282.666 931.824 285.034ZM762.164 287.197C762.239 289.009 762.607 289.378 763.103 288.138C763.552 287.015 763.496 285.672 762.98 285.155C762.464 284.639 762.097 285.557 762.164 287.197ZM0.509938 304.365C0.970125 308.379 1.74125 308.93 8.18232 309.845C21.422 311.726 34.9494 322.72 42.3233 337.596C46.2722 345.562 46.8816 348.529 46.8645 359.72C46.8474 370.961 46.2411 373.835 42.2004 381.809C36.9798 392.112 36.3253 396.76 40.0954 396.76C43.0244 396.76 48.4394 391.053 48.4394 387.964C48.4394 386.811 48.9835 385.868 49.649 385.868C51.7944 385.868 56.2129 368.08 56.2129 359.443C56.2129 354.834 55.1012 347.098 53.7409 342.25C51.3327 333.656 51.3622 333.244 54.9069 325.825C57.2032 321.022 60.2659 317.347 63.2089 315.866C65.7742 314.575 68.1062 312.992 68.3907 312.351C68.6768 311.71 71.9416 311.184 75.6464 311.184C79.3513 311.184 82.6161 311.71 82.9022 312.351C83.1867 312.992 85.427 314.568 87.8818 315.852C90.3351 317.136 93.886 320.968 95.7703 324.366C97.751 327.938 100.713 330.906 102.787 331.396C106.037 332.164 106.137 332.441 103.838 334.352C97.0327 340.003 103.488 343.572 112.572 339.18C116.099 337.475 120.866 336.079 123.167 336.079C134.449 336.079 148.269 348.015 150.076 359.317C151.128 365.909 149.917 374.658 147.531 377.7C146.508 379.004 146.643 380.415 147.939 381.979C150.842 385.479 153.978 384.795 155.074 380.423C155.61 378.283 156.674 376.533 157.435 376.533C159.206 376.533 159.256 357.149 157.496 353.561C156.767 352.075 154.988 348.41 153.546 345.414C152.101 342.419 147.975 337.868 144.376 335.301C138.618 331.192 136.298 330.568 125.014 330.085C110.035 329.444 109.211 326.743 123.996 326.743C131.042 326.743 135.925 327.689 140.238 329.891C148.347 334.031 156.846 342.415 158.132 347.538C158.696 349.793 159.783 351.638 160.545 351.638C162.353 351.638 162.358 376.086 160.55 377.205C159.789 377.675 158.74 379.763 158.217 381.843C157.034 386.564 149.208 394.518 141.881 398.448C135.73 401.747 119.851 402.52 110.916 399.954C108.094 399.145 104.775 398.87 103.542 399.343C100.434 400.536 100.73 404.427 104.019 405.641C105.517 406.195 107.213 407.354 107.79 408.218C108.366 409.083 115.013 409.834 122.559 409.887C133.782 409.968 137.647 409.335 143.798 406.413C156.307 400.471 168.15 386.779 168.15 378.258C168.15 376.555 168.85 374.728 169.705 374.199C170.56 373.67 171.26 369.119 171.26 364.086C171.26 359.052 170.56 354.501 169.705 353.972C168.85 353.443 168.15 351.406 168.15 349.446C168.15 343.399 153.39 325.188 148.49 325.188C147.332 325.188 146.385 324.599 146.385 323.881C146.385 319.14 116.625 316.474 109.041 320.537C105.944 322.195 105.142 322.055 103.387 319.55C94.9992 307.576 89.8221 304.668 76.8591 304.646C71.0617 304.637 64.5693 305.331 62.4316 306.188C57.3478 308.228 49.9941 314.66 49.9941 317.069C49.9941 318.111 49.2945 318.964 48.4394 318.964C47.5843 318.964 46.8847 320.364 46.8847 322.076C46.8847 323.787 46.6857 325.188 46.4416 325.188C46.1975 325.188 41.6205 320.993 36.2693 315.865C30.9196 310.738 24.6465 306.09 22.3315 305.536C20.0166 304.984 17.4234 303.993 16.5683 303.336C15.7132 302.678 11.6353 301.637 7.50603 301.021L0 299.902L0.509938 304.365ZM1640.05 301.312C1637.7 301.721 1635.78 302.622 1635.78 303.313C1635.78 304.005 1633.85 304.968 1631.5 305.452C1629.15 305.936 1624.08 309.155 1620.23 312.605C1616.38 316.053 1612.76 318.895 1612.17 318.92C1611.59 318.944 1610.67 320.364 1610.12 322.076C1608.73 326.471 1607.33 325.956 1604.82 320.131C1602.42 314.551 1599.73 311.551 1593.38 307.386C1587.46 303.503 1567.53 303.495 1561.53 307.374C1556.71 310.489 1551.16 316.079 1548.93 320.07C1547.61 322.437 1546.97 322.501 1543.45 320.613C1535.71 316.471 1506.74 319.049 1506.74 323.881C1506.74 324.599 1505.74 325.188 1504.51 325.188C1500.75 325.188 1491.56 335.092 1487.08 343.972C1478.06 361.842 1481.04 381.524 1494.96 395.976C1499.3 400.485 1504.6 404.701 1506.74 405.345C1508.87 405.988 1511.1 407.251 1511.67 408.152C1512.27 409.083 1518.65 409.833 1526.44 409.887C1540.53 409.988 1549.37 407.575 1551.06 403.17C1552.56 399.248 1552.65 399.257 1531.29 400.821C1519.34 401.695 1517.01 401.423 1511.41 398.502C1503.52 394.387 1496.21 387.034 1494.93 381.932C1494.39 379.802 1493.33 377.675 1492.57 377.205C1490.74 376.069 1490.78 351.638 1492.62 351.638C1493.41 351.638 1494.51 349.538 1495.08 346.97C1495.64 344.403 1496.7 342.303 1497.43 342.303C1498.16 342.303 1499.15 341.067 1499.62 339.556C1500.1 338.046 1504.61 334.545 1509.64 331.777C1517.34 327.545 1520.41 326.743 1529 326.743C1534.61 326.743 1539.63 327.444 1540.16 328.299C1540.77 329.286 1536.73 329.855 1529.12 329.855C1518.36 329.855 1516.34 330.353 1509.65 334.652C1496.22 343.275 1490.1 364.504 1496.92 378.814C1499.75 384.748 1502.13 385.66 1505.18 381.979C1506.73 380.112 1506.71 379.153 1505.08 377.189C1503.89 375.749 1503.04 370.76 1503.04 365.131C1503.05 354.826 1505.69 348.918 1512.9 343.081C1522.75 335.107 1530.7 334.086 1540.82 339.496C1546.79 342.682 1547.39 342.737 1549.8 340.322C1552.22 337.906 1552.21 337.527 1549.65 334.696C1547 331.774 1547.03 331.641 1550.43 331.147C1552.7 330.817 1555.11 328.425 1557.17 324.463C1558.93 321.068 1562.47 317.217 1565.04 315.905C1567.6 314.592 1569.93 312.992 1570.22 312.351C1571 310.585 1584.47 310.952 1584.47 312.74C1584.47 313.596 1585.35 314.318 1586.41 314.346C1589.95 314.435 1596.82 321.78 1599.39 328.226C1601.59 333.73 1601.65 335.239 1599.81 339.605C1596.96 346.357 1596.97 372.985 1599.82 379.021C1606.77 393.723 1609.75 397.533 1613.27 396.183C1616.54 394.925 1616.13 392.512 1610.88 382.148C1606.79 374.076 1606.24 371.38 1606.24 359.545C1606.24 347.56 1606.76 345.103 1611.05 336.831C1619.9 319.753 1634.36 309.89 1651.51 309.232C1656.96 309.021 1665.45 309.426 1670.37 310.129C1678.63 311.312 1679.31 311.178 1679.31 308.374C1679.31 302.907 1675.23 301.388 1659.43 300.97C1651.12 300.75 1642.4 300.904 1640.05 301.312ZM200.861 304.108C196.73 309.088 202.797 316.739 208.184 313.344C213.566 309.95 211.649 301.849 205.463 301.849C203.963 301.849 201.892 302.865 200.861 304.108ZM1443.31 303.716C1439.63 307.389 1442.25 314.296 1447.3 314.296C1449.89 314.296 1453.88 310.523 1453.88 308.072C1453.88 305.622 1449.89 301.849 1447.3 301.849C1446.13 301.849 1444.33 302.689 1443.31 303.716ZM280.475 308.394C279.562 309.501 278.317 316.828 277.706 324.676C276.49 340.319 275.777 340.94 267.666 333.435C263.136 329.244 256.768 328.623 256.768 332.373C256.768 333.758 258.879 337.296 261.458 340.236C265.55 344.899 265.861 345.87 263.902 347.832C262.665 349.069 258.63 350.134 254.935 350.197C251.241 350.261 245.069 350.785 241.221 351.364C235.624 352.206 234.225 353.035 234.225 355.512C234.225 358.926 238.836 360.471 249.981 360.79C258.37 361.03 265.816 364.187 264.841 367.09C264.431 368.315 262.445 370.844 260.43 372.715C251.308 381.176 261.111 384.683 270.76 376.407L276.201 371.741L277.756 387.301C278.611 395.861 280.155 403.701 281.189 404.725C284.317 407.827 287.47 403.688 288.494 395.134C289.001 390.894 289.834 383.919 290.344 379.634L291.272 371.843L297.175 376.522C304.898 382.643 315.412 382.945 309.342 376.871C305.586 373.111 309.638 373.262 317.41 377.169C321.82 379.387 326.421 381.201 327.633 381.201C328.846 381.201 329.838 381.901 329.838 382.757C329.838 383.612 330.489 384.313 331.284 384.313C332.08 384.313 337.265 386.413 342.807 388.98C348.35 391.548 353.645 393.648 354.576 393.648C355.506 393.648 356.268 394.348 356.268 395.204C356.268 396.06 356.949 396.76 357.78 396.76C358.612 396.76 363.16 398.593 367.886 400.832C375.258 404.325 376.479 405.515 376.479 409.212C376.479 417.166 390.021 420.771 396.299 414.488C398.456 412.33 410.422 412.985 415.422 415.534C416.747 416.209 422.343 417.253 427.859 417.855C433.375 418.456 438.588 419.475 439.443 420.117C440.299 420.76 443.447 421.652 446.44 422.1C449.432 422.548 457.828 424.071 465.096 425.484C472.364 426.898 482.858 428.762 488.416 429.626C493.974 430.489 499.921 431.793 501.631 432.524C503.341 433.256 507.539 434.332 510.959 434.917C514.379 435.502 521.845 436.783 527.551 437.765C533.255 438.745 538.444 440.074 539.08 440.715C539.718 441.356 542.88 441.882 546.107 441.882C549.335 441.882 552.407 442.582 552.936 443.438C553.464 444.293 553.155 444.993 552.25 444.993C549.672 444.993 550.322 449.221 553.063 450.273C554.416 450.792 558.613 451.217 562.391 451.217C566.169 451.217 569.26 451.917 569.26 452.773C569.26 453.629 570.241 454.329 571.44 454.329C572.946 454.329 573.952 457.209 574.701 463.664C575.673 472.048 576.147 473 579.351 473C583.56 473 584.802 470.406 584.819 461.592C584.828 456.076 585.457 454.816 589.015 453.162C591.318 452.093 596.123 451.217 599.696 451.217C603.632 451.217 606.97 450.279 608.167 448.835C611.208 445.168 605.789 441.99 596.389 441.931C587.259 441.874 584.807 440.027 584.807 433.207C584.807 425.154 582.968 418.336 580.542 417.404C577.761 416.336 575.542 419.563 575.479 424.766C575.37 433.669 573.231 432.759 556.74 416.794C547.807 408.146 536.702 397.826 532.062 393.86C527.423 389.892 517.196 380.345 509.334 372.643C501.472 364.941 487.253 351.369 477.735 342.483C467.905 333.305 460.432 325.099 460.432 323.484C460.432 319.922 454.55 314.296 450.828 314.296C446.104 314.296 441.775 319.235 441.775 324.626C441.775 327.36 441.252 329.829 440.609 330.115C439.123 330.776 429.338 343.364 429.338 344.616C429.338 345.133 427.589 347.306 425.451 349.446C423.314 351.585 421.554 353.829 421.54 354.431C421.526 355.035 419.603 357.722 417.264 360.404C409.129 369.738 406.779 372.67 404.132 376.782C402.666 379.057 399.693 382.834 397.524 385.176C395.354 387.518 393.58 390.032 393.58 390.763C393.58 391.495 391.615 392.092 389.213 392.092C386.811 392.092 383.534 393.054 381.928 394.228C379.372 396.099 377.941 395.809 370.403 391.895C365.669 389.436 360.901 387.424 359.809 387.424C358.716 387.424 357.822 386.724 357.822 385.868C357.822 385.013 356.949 384.297 355.879 384.278C354.811 384.258 349.738 382.173 344.607 379.645C339.477 377.116 334.406 375.031 333.336 375.011C332.268 374.992 331.393 374.431 331.393 373.763C331.393 373.096 327.943 371.21 323.728 369.573C319.512 367.936 314.44 365.347 312.457 363.819L308.85 361.042L315.068 360.991C318.489 360.963 323.911 360.505 327.117 359.975C331.823 359.197 332.947 358.341 332.947 355.541C332.947 352.517 331.898 351.946 324.785 351.09C320.297 350.55 314.086 350.103 310.983 350.096C302.244 350.075 301.044 347.131 306.659 339.488C314.226 329.191 308.999 326.289 297.967 334.661L291.748 339.381L290.582 331.506C289.942 327.174 288.891 319.963 288.25 315.479C287.05 307.092 283.909 304.229 280.475 308.394ZM1365.35 310.173C1364.59 312.183 1363.47 319.48 1362.87 326.389C1361.67 340.121 1360.92 340.672 1353.2 333.513C1349.07 329.678 1344.36 328.751 1342.7 331.442C1342.16 332.315 1343.83 335.905 1346.41 339.416C1350.39 344.836 1350.78 346.126 1348.96 347.943C1347.79 349.119 1343.8 350.123 1340.11 350.172C1327.3 350.342 1320.99 352.155 1320.47 355.814C1320.04 358.831 1320.9 359.27 1329.02 360.158C1344.49 361.848 1344.85 361.943 1340.77 363.292C1338.85 363.928 1337.28 364.913 1337.28 365.48C1337.28 366.048 1333.78 367.871 1329.5 369.531C1325.23 371.191 1321.73 373.096 1321.73 373.763C1321.73 374.431 1320.86 374.992 1319.79 375.011C1318.72 375.031 1313.64 377.116 1308.51 379.645C1303.38 382.173 1298.31 384.258 1297.24 384.278C1296.17 384.297 1295.3 385.013 1295.3 385.868C1295.3 386.724 1294.21 387.424 1292.88 387.424C1291.55 387.424 1286.75 389.495 1282.21 392.025C1274.85 396.12 1273.62 396.382 1271.02 394.407C1269.41 393.189 1266.17 392.168 1263.82 392.142C1261.46 392.114 1259.54 391.52 1259.54 390.819C1259.54 390.119 1257.09 386.793 1254.1 383.429C1251.11 380.063 1248.66 376.888 1248.66 376.371C1248.66 375.855 1247.08 373.67 1245.16 371.515C1241.32 367.215 1239.62 365.122 1231.57 354.745C1228.58 350.897 1225.61 347.515 1224.96 347.23C1224.31 346.944 1223.78 346.02 1223.78 345.175C1223.78 344.33 1220.98 340.317 1217.56 336.258C1213.37 331.276 1211.35 327.378 1211.35 324.266C1211.35 319.032 1206.81 314.296 1201.79 314.296C1198.14 314.296 1192.69 319.7 1192.69 323.324C1192.69 326.076 1162.88 355.234 1119.01 395.381C1113.98 399.99 1103.18 410.236 1095.01 418.149C1079.88 432.796 1077.75 433.609 1077.64 424.766C1077.62 422.627 1076.98 419.9 1076.22 418.705C1073.53 414.446 1070.35 418.275 1068.41 428.126C1067.34 433.551 1066.2 438.868 1065.88 439.937C1065.52 441.164 1062.28 441.9 1057.09 441.931C1048.01 441.986 1042.84 444.731 1044.36 448.686C1045.08 450.559 1047.4 451.23 1053.32 451.267C1063.16 451.328 1065.96 453.33 1067.38 461.331C1069.23 471.774 1069.89 473 1073.71 473C1076.99 473 1077.44 472.099 1078.42 463.664C1079.17 457.209 1080.18 454.329 1081.68 454.329C1082.88 454.329 1083.86 453.629 1083.86 452.773C1083.86 451.917 1087.27 451.217 1091.45 451.217C1096.62 451.217 1099.7 450.397 1101.16 448.63C1102.83 446.604 1102.87 445.9 1101.34 445.385C1097.58 444.119 1101.2 441.882 1107.01 441.882C1110.24 441.882 1113.4 441.356 1114.04 440.715C1115.08 439.664 1128.48 436.886 1142.94 434.723C1145.93 434.275 1149.78 433.299 1151.49 432.552C1153.2 431.805 1159.15 430.486 1164.71 429.618C1170.26 428.751 1180.41 426.915 1187.25 425.538C1194.09 424.161 1202.48 422.646 1205.9 422.17C1209.32 421.694 1212.82 420.768 1213.68 420.113C1214.53 419.458 1220.13 418.417 1226.12 417.801C1232.1 417.184 1237.7 416.144 1238.55 415.488C1239.41 414.832 1243.25 413.895 1247.09 413.405C1252.31 412.739 1254.78 413.156 1256.88 415.062C1263.22 420.8 1276.64 416.254 1276.64 408.37C1276.64 405.696 1278.6 403.975 1285.24 400.832C1289.96 398.593 1294.51 396.76 1295.34 396.76C1296.17 396.76 1296.85 396.06 1296.85 395.204C1296.85 394.348 1297.62 393.648 1298.55 393.648C1299.48 393.648 1304.77 391.548 1310.31 388.98C1315.86 386.413 1321.04 384.313 1321.84 384.313C1322.63 384.313 1323.28 383.612 1323.28 382.757C1323.28 381.901 1324.03 381.201 1324.94 381.201C1325.85 381.201 1330.42 379.45 1335.09 377.311C1344.53 372.989 1346.58 372.514 1343.81 375.288C1336.93 382.171 1347.99 383.216 1355.92 376.432L1361.35 371.789L1363.05 385.441C1365.11 401.91 1366.35 406.095 1369.16 406.095C1372.68 406.095 1373.7 402.937 1375.35 386.979L1376.92 371.753L1382.36 376.413C1388.05 381.288 1396.35 382.878 1396.35 379.094C1396.35 377.935 1394.68 375.176 1392.63 372.964C1390.58 370.751 1388.59 368.022 1388.22 366.902C1387.37 364.372 1395 360.98 1401.59 360.957C1404.27 360.947 1409.08 360.505 1412.29 359.975C1417 359.197 1418.12 358.341 1418.12 355.541C1418.12 352.517 1417.07 351.946 1409.96 351.09C1405.47 350.55 1399.47 350.103 1396.63 350.096C1393.79 350.089 1390.49 349.102 1389.29 347.902C1387.42 346.034 1387.6 345.091 1390.54 341.29C1392.42 338.852 1394.5 336.624 1395.16 336.339C1395.82 336.052 1396.35 334.478 1396.35 332.838C1396.35 328.581 1390 328.962 1385.09 333.513C1377.32 340.725 1376.65 340.173 1375.46 325.539C1374.87 318.17 1373.7 310.876 1372.87 309.33C1370.77 305.401 1367 305.822 1365.35 310.173ZM1645.88 317.226C1634.34 320.338 1626.45 324.973 1626.45 328.635C1626.45 332.631 1632.3 332.184 1641.07 327.521C1648.89 323.359 1662.51 322.199 1668.45 325.188C1670.14 326.043 1673 327.492 1674.79 328.407C1678.88 330.493 1678.87 330.51 1679.73 322.076C1680.13 318.225 1680.15 316.222 1679.79 317.624C1679.11 320.265 1677.03 320.033 1662.87 315.743C1657.28 314.049 1657.85 313.999 1645.88 317.226ZM1.84075 320.131C1.86873 321.886 5.04652 324.385 10.7802 327.16C21.3738 332.289 26.6738 332.715 26.6738 328.438C26.6738 326.41 24.107 324.185 18.5956 321.436C8.99542 316.65 1.77856 316.087 1.84075 320.131ZM542.312 324.669C539.993 326.991 541.352 331.411 544.385 331.411C546.666 331.411 547.494 330.373 547.494 327.521C547.494 323.86 544.672 322.307 542.312 324.669ZM1105.65 325.175C1102.76 326.961 1104.93 331.411 1108.69 331.411C1110.75 331.411 1111.85 330.389 1111.85 328.466C1111.85 325.068 1108.6 323.345 1105.65 325.175ZM393.05 328.995C391.556 332.889 393.675 336.286 397.276 335.772C399.634 335.435 400.576 334.19 400.576 331.411C400.576 326.877 394.597 324.959 393.05 328.995ZM614.4 329.753C613.516 331.408 612.791 333.859 612.791 335.198C612.791 336.731 611.411 337.635 609.071 337.635C607.025 337.635 604.973 338.62 604.511 339.823C603.651 342.068 607.909 346.97 610.72 346.97C611.585 346.97 613.09 348.721 614.063 350.86C616.333 355.845 621.734 356.054 622.949 351.204C623.439 349.253 625.9 346.743 628.42 345.628C634.664 342.861 634.723 337.635 628.511 337.635C624.61 337.635 623.885 336.921 622.999 332.189C621.835 325.976 617.132 324.644 614.4 329.753ZM1029.82 331.701C1028.78 335.724 1027.57 336.964 1024.3 337.349C1018.5 338.032 1018.75 342.99 1024.72 345.637C1027.26 346.76 1029.53 349.089 1029.77 350.823C1030.41 355.262 1037.82 355.231 1038.45 350.787C1038.72 348.895 1040.83 346.877 1043.64 345.816C1049.19 343.717 1049.31 338.701 1043.83 337.918C1041.42 337.574 1039.97 335.909 1039.09 332.472C1037.22 325.219 1031.6 324.75 1029.82 331.701ZM1252.33 329.077C1250.97 332.636 1252.88 336.079 1256.22 336.079C1259.89 336.079 1261.78 331.78 1259.38 328.88C1257.04 326.059 1253.45 326.16 1252.33 329.077ZM782.641 332.449C781.573 332.877 780.697 334.778 780.697 336.675C780.697 338.572 779.909 340.913 778.945 341.878C776.719 344.106 778.589 352.077 781.144 351.244C783.801 350.379 787.241 342.769 787.487 337.21C787.695 332.48 786.21 331.019 782.641 332.449ZM865.193 333.047C863.394 334.847 864.221 341.853 866.39 343.196C867.144 343.661 867.76 345.36 867.76 346.97C867.76 351.067 870.723 352.452 873.512 349.659C875.526 347.646 875.568 346.46 873.817 341.307C870.574 331.766 868.478 329.759 865.193 333.047ZM235.812 337.531C234.386 342.027 236.008 343.859 241.415 343.859C245.599 343.859 246.04 343.409 245.599 339.58C244.96 334.017 237.427 332.44 235.812 337.531ZM446.505 337.514C445.625 339.158 444.016 341.434 442.929 342.57C441.842 343.706 438.52 347.787 435.546 351.638C432.572 355.489 429.608 358.873 428.96 359.158C428.313 359.444 427.783 360.33 427.783 361.125C427.783 362.816 413.962 380.177 412.008 380.941C411.279 381.227 410.682 382.394 410.682 383.535C410.682 384.675 410.152 385.842 409.505 386.128C408.857 386.413 406.125 389.463 403.435 392.904C399.28 398.221 398.84 399.567 400.509 401.851C401.738 403.531 404.559 404.539 408.04 404.539C411.103 404.539 413.984 405.148 414.443 405.892C414.901 406.634 420.282 407.735 426.398 408.339C432.514 408.943 438.652 410.051 440.036 410.802C441.421 411.554 447.45 412.934 453.436 413.87C473.472 417.005 475.193 417.351 476.756 418.538C477.611 419.188 483.152 420.225 489.069 420.839C494.986 421.455 500.933 422.54 502.284 423.249C504.471 424.398 516.152 426.662 531.947 428.999C534.94 429.44 538.088 430.329 538.943 430.972C539.799 431.614 545.046 432.616 550.604 433.198L560.709 434.256L543.357 417.452C533.813 408.211 521.92 396.937 516.927 392.399C507.102 383.466 479.716 357.853 464.614 343.47C454.676 334.005 449.322 332.244 446.505 337.514ZM1188.35 343.47C1183.23 348.389 1175.15 355.917 1170.38 360.196C1158.85 370.553 1131.14 396.721 1109.75 417.45L1092.41 434.253L1102.52 433.196C1108.08 432.616 1113.32 431.614 1114.18 430.972C1115.03 430.329 1118.18 429.434 1121.17 428.985C1136.41 426.694 1148.64 424.307 1150.84 423.198C1152.19 422.517 1158.14 421.455 1164.05 420.839C1169.97 420.225 1175.51 419.188 1176.37 418.538C1177.93 417.351 1179.65 417.005 1199.69 413.87C1205.67 412.934 1211.7 411.554 1213.09 410.802C1214.47 410.051 1220.61 408.943 1226.72 408.339C1232.84 407.735 1238.22 406.634 1238.68 405.892C1239.14 405.148 1242.27 404.539 1245.64 404.539C1250.05 404.539 1251.77 403.886 1251.77 402.206C1251.77 400.922 1252.5 399.872 1253.38 399.872C1254.49 399.872 1254.49 399.262 1253.37 397.927C1252.47 396.858 1249.65 393.531 1247.11 390.536C1244.57 387.541 1242.48 384.59 1242.46 383.977C1242.45 383.365 1240.52 380.784 1238.16 378.241C1235.81 375.697 1231.44 370.371 1228.45 366.404C1225.45 362.435 1221.78 357.733 1220.29 355.953C1218.79 354.174 1217.56 352.293 1217.56 351.774C1217.56 351.254 1215.94 349.074 1213.95 346.928C1211.96 344.784 1209.09 341.115 1207.55 338.777C1203.28 332.242 1198.91 333.308 1188.35 343.47ZM1407.24 339.191C1407.24 343.319 1407.77 343.859 1411.81 343.859C1417.09 343.859 1418.73 342.007 1417.34 337.621C1416.65 335.455 1414.98 334.523 1411.8 334.523C1407.77 334.523 1407.24 335.066 1407.24 339.191ZM572.758 386.64C571.69 387.855 570.815 389.842 570.815 391.057C570.815 394.186 575.001 397.276 577.79 396.204C580.962 394.986 580.88 386.485 577.683 385.257C574.678 384.103 575.093 383.986 572.758 386.64ZM1074.92 385.343C1072.15 386.461 1072.48 395.109 1075.33 396.204C1078.14 397.283 1082.31 394.18 1082.31 391.012C1082.31 389.002 1078.64 384.121 1077.36 384.435C1077.09 384.502 1075.99 384.912 1074.92 385.343ZM614.433 404.376C612.517 407.958 615.705 411.337 619.59 409.845C622.578 408.699 622.861 405.904 620.254 403.295C617.657 400.696 616.263 400.955 614.433 404.376ZM1032.5 403.835C1030.04 406.794 1031.85 411.126 1035.27 410.474C1038.69 409.822 1039.74 403.687 1036.64 402.497C1035.37 402.01 1033.51 402.612 1032.5 403.835ZM730.947 408.543C730.947 413.651 736.148 413.197 736.886 408.025C737.263 405.378 736.608 404.539 734.166 404.539C731.745 404.539 730.947 405.532 730.947 408.543ZM916.235 408.025C916.974 413.197 922.174 413.651 922.174 408.543C922.174 405.532 921.376 404.539 918.956 404.539C916.513 404.539 915.859 405.378 916.235 408.025ZM247.331 410.116C244.389 413.663 247.455 417.765 253.05 417.765C256.604 417.765 257.655 416.988 258.069 414.051C258.921 408.031 251.359 405.26 247.331 410.116ZM1396.61 408.985C1395.46 409.729 1394.76 412.008 1395.05 414.051C1395.47 417.024 1396.51 417.765 1400.24 417.765C1404.39 417.765 1404.9 417.247 1404.9 413.097C1404.9 409.599 1404.13 408.33 1401.8 408.031C1400.09 407.813 1397.75 408.243 1396.61 408.985ZM868.87 421.062C866.866 423.067 867.71 429.512 870.095 430.429C871.379 430.922 874.223 430.875 876.412 430.326C879.641 429.515 880.302 428.527 879.907 425.101C879.512 421.667 878.537 420.79 874.7 420.415C872.104 420.159 869.481 420.452 868.87 421.062ZM694.743 433.512C690.555 437.704 697.798 445.526 702.36 441.737C705.956 438.749 704.41 433.402 699.796 432.863C697.626 432.61 695.351 432.902 694.743 433.512ZM948.77 434.679C947.416 436.311 947.669 437.636 949.851 440.332C952.277 443.332 953.201 443.584 956.093 442.034C960.042 439.92 960.595 434.861 957.027 433.491C953.171 432.009 950.687 432.367 948.77 434.679ZM201.11 439.081C200.084 440.108 199.244 442.208 199.244 443.749C199.244 445.823 200.454 446.549 203.908 446.549C207.363 446.549 208.572 445.823 208.572 443.749C208.572 441.051 205.834 437.214 203.908 437.214C203.395 437.214 202.136 438.054 201.11 439.081ZM781.304 439.434C779.457 444.25 781.389 448.874 785.449 449.347C790.915 449.983 794.806 443.332 791.123 439.647C788.085 436.605 782.434 436.484 781.304 439.434ZM1446.49 438.331C1445.42 438.715 1444.55 440.663 1444.55 442.66C1444.55 444.656 1445.42 446.585 1446.49 446.945C1450.02 448.132 1453.88 446.233 1453.88 443.311C1453.88 440.15 1449.55 437.234 1446.49 438.331ZM644.141 450.478L640.726 454.41L644.291 458.259C647.653 461.888 648.061 461.965 651.4 459.624C655.641 456.652 655.357 451.7 650.775 448.67C647.901 446.77 647.195 446.963 644.141 450.478ZM1000.93 449.395C997.667 453 997.607 458.377 1000.81 459.608C1005.14 461.271 1007.53 460.632 1009.29 457.337C1010.63 454.835 1010.46 453.279 1008.53 450.335C1005.57 445.801 1004.32 445.647 1000.93 449.395Z" fill="#BE9A58"/>
</svg>
