<svg width="470" height="793" viewBox="0 0 470 793" fill="none" xmlns="http://www.w3.org/2000/svg">
<path fill-rule="evenodd" clip-rule="evenodd" d="M0.345 1.543C0.019 2.392 0.034 3.367 0.376 3.71C0.719 4.053 1 3.808 1 3.167C1 2.285 24.524 2.025 97.25 2.103C181.208 2.193 192.287 2.374 184 3.52C164.431 6.228 153.459 9.421 144.757 14.939C141.034 17.3 139.976 18.61 139.426 21.54C139.049 23.551 138.985 36.064 139.283 49.348C139.827 73.553 141.211 83.784 145.091 92.3C146.366 95.098 148.614 94.954 147.456 92.149C144.033 83.853 141.044 64.366 141.018 50.188L141 39.876L145.25 42.915C152.733 48.266 162.054 50.753 185.294 53.598C213.127 57.006 256.807 56.054 284 51.446C288.675 50.654 293.9 50.005 295.612 50.003C298.594 50 298.771 49.763 299.862 44.333C301.457 36.391 301.126 32.197 299.48 39.5C298.737 42.8 298.1 46.12 298.064 46.878C297.966 48.975 290.933 47.526 281.546 43.476C275.6 40.91 273.394 40.354 272.811 41.272C271.47 43.382 271.908 44 274.75 44.005C276.262 44.007 280.14 45.085 283.367 46.399C290.041 49.118 290.067 49.101 276.5 50.942C255.068 53.851 203.013 54.555 186 52.166C163.024 48.94 152.801 46.06 145.25 40.686C141.338 37.901 141 37.307 141 33.203V28.745L145.327 32.733C155.532 42.14 175.54 44.975 233.081 45.167C251.045 45.227 266.251 44.963 266.872 44.579C267.492 44.196 268 43.009 268 41.941C268 40.197 267.265 40.001 260.75 40.014C256.762 40.021 252.375 40.359 251 40.764C248.903 41.381 249.305 41.595 253.5 42.093C256.25 42.419 245 42.748 228.5 42.823C199.025 42.958 177.297 41.633 164.002 38.89C158.576 37.77 148 33.604 148 32.586C148 32.298 148.701 32.332 149.557 32.66C150.648 33.079 150.364 32.151 148.612 29.569C146.022 25.753 146.08 23.951 148.902 20.606C152.929 15.832 169.443 11.108 190.153 8.805C196.119 8.142 201 7.173 201 6.651C201 5.291 187.542 6.521 174.5 9.073C151.846 13.506 141.189 20.393 144.971 28.157L146.113 30.5L144.056 28.139C142.908 26.82 142 24.376 142 22.6C142 19.784 142.649 19.049 147.692 16.152C155.826 11.48 162.762 9.25 177 6.728C188.646 4.666 192.505 4.515 233.5 4.518C274.57 4.521 278.345 4.67 290.197 6.755C305.456 9.439 313.391 12.193 317.75 16.317C321.423 19.792 322.013 22.078 319.036 21.299C317.955 21.017 317.109 20.496 317.154 20.143C317.2 19.789 317.184 18.712 317.118 17.75C316.945 15.183 315.02 15.613 314.882 18.25C314.787 20.046 314.636 19.912 314.132 17.582C313.784 15.978 312.89 14.462 312.145 14.214C311.165 13.888 310.976 14.35 311.464 15.887C312.501 19.153 310.004 19.441 300.77 17.119C290.496 14.536 273.977 12.909 268 13.891C261.932 14.889 259.51 16.355 258.031 19.926C256.948 22.54 257.071 23.515 258.983 27.464C260.19 29.959 261.588 32 262.089 32C263.488 32 263.146 30.743 261 28C258.454 24.746 258.478 20.782 261.057 18.449C265.466 14.458 286.865 15.653 307.5 21.043C313.55 22.623 323.225 24.637 329 25.519C341.956 27.496 351.523 30.374 356.84 33.894C359.069 35.37 364.854 41.498 369.696 47.513C374.538 53.528 386.165 66.336 395.534 75.975C411.704 92.611 421.348 104.929 425.097 113.734C426.306 116.573 429 119.037 429 117.304C429 116.067 420.678 101.422 417.178 96.5C415.223 93.75 408.176 85.875 401.517 79C383.71 60.613 376.634 52.802 368.783 42.863C358.932 30.391 353.218 27.694 327.861 23.546C325.085 23.092 323.943 22.277 323.044 20.107C319.676 11.975 309.307 7.219 288.388 4.213C281.348 3.201 276.018 2.107 276.544 1.783C277.07 1.459 313.704 1.133 357.953 1.06C402.202 0.987 438.615 0.719 438.87 0.464C439.125 0.209 340.694 0 220.135 0C23.492 0 0.876 0.159 0.345 1.543ZM0.366 234.5C0.368 361 0.645 459.55 0.981 453.5L1.59 442.5L7.901 431C16.748 414.879 30.107 387.774 29.504 387.171C28.752 386.419 28.632 386.619 22.729 398.5C17.129 409.77 7.5 428.155 3.615 434.995L1.437 438.829L1.469 229.165C1.486 113.849 1.244 16.125 0.93 12C0.617 7.875 0.363 108 0.366 234.5ZM176.5 12.523C173.75 13.287 168.8 14.421 165.5 15.043C156.424 16.755 149.194 20.381 148.378 23.63C147.673 26.441 148.761 29.087 150.919 29.806C151.922 30.141 151.948 29.772 151.042 28.078C148.028 22.447 152.357 20.037 173.947 15.325C182.501 13.458 189.95 11.757 190.5 11.544C193.317 10.456 180.789 11.332 176.5 12.523ZM153.571 22.571C151.334 24.809 151.628 28.319 154.25 30.664C158.28 34.269 163.675 37.002 166.618 36.929C169.298 36.864 169.186 36.72 165.02 34.873C159.402 32.382 154 28.313 154 26.572C154 25.842 154.675 24.685 155.5 24C156.325 23.315 157 22.36 157 21.878C157 20.502 155.296 20.847 153.571 22.571ZM217.5 30C216.685 31.319 239.959 31.319 242 30C243.012 29.346 239.372 29.026 230.809 29.015C223.41 29.006 217.86 29.417 217.5 30ZM162 30.77C162 31.861 171.003 36 173.376 36C174.204 36 175.19 36.498 175.566 37.107C176.03 37.858 175.487 38.004 173.875 37.559C172.085 37.066 171.883 37.148 173.053 37.892C173.907 38.435 177.013 39.198 179.954 39.588C184.201 40.152 185.138 40.032 184.503 39.005C183.864 37.971 185.115 37.851 190.752 38.407C198.645 39.185 213 38.188 213 36.862C213 36.388 207.037 35.991 199.75 35.98C181.994 35.954 173.526 34.671 163.75 30.528C162.767 30.111 162 30.217 162 30.77ZM180.829 33.107C178.802 34.358 188.157 34.978 209 34.974C221.174 34.971 231.151 34.549 232 34C233.645 32.937 229.791 32.77 199.656 32.6C189.841 32.545 181.369 32.773 180.829 33.107ZM265.5 36C265.84 36.55 266.316 37 266.559 37C266.802 37 267 36.55 267 36C267 35.45 266.523 35 265.941 35C265.359 35 265.16 35.45 265.5 36ZM285.123 37C285.04 37.825 284.723 39.625 284.418 41C283.938 43.161 284.016 43.259 284.997 41.721C285.621 40.743 285.938 38.943 285.702 37.721C285.466 36.5 285.205 36.175 285.123 37ZM177.75 37.662C178.438 37.94 179.563 37.94 180.25 37.662C180.938 37.385 180.375 37.158 179 37.158C177.625 37.158 177.063 37.385 177.75 37.662ZM270 39.059C270 39.641 270.45 39.84 271 39.5C271.55 39.16 272 38.684 272 38.441C272 38.198 271.55 38 271 38C270.45 38 270 38.477 270 39.059ZM326.579 48.624C324.808 55.677 324.947 58.573 326.754 52.256C328.319 46.788 329.228 42 328.701 42C328.449 42 327.494 44.981 326.579 48.624ZM323.079 48.583C323.127 49.748 323.364 49.985 323.683 49.188C323.972 48.466 323.936 47.603 323.604 47.271C323.272 46.939 323.036 47.529 323.079 48.583ZM300.336 50.734C300.701 51.325 303.455 52.826 306.456 54.07C309.457 55.314 311.67 56.725 311.373 57.206C311.076 57.687 311.946 57.801 313.307 57.459C317.764 56.341 317.069 58.702 312.419 60.478C309.922 61.431 308.093 62.427 308.356 62.689C308.619 62.952 310.953 62.23 313.544 61.084C318.471 58.904 321.498 58.385 320.576 59.877C320.278 60.359 316.175 61.983 311.458 63.485C306.741 64.987 303.038 66.372 303.23 66.563C303.62 66.953 316.542 63.709 319.25 62.541C320.602 61.958 321 62.265 321 63.893C321 65.052 321.45 66 322 66C322.55 66 323 64.759 323 63.243C323 60.591 323.171 60.499 327.473 60.841C331.756 61.182 332.114 61.465 335.95 67.539C338.153 71.027 340.9 74.761 342.054 75.836L344.153 77.791L339.327 78.444C335.192 79.003 322.159 78.499 321.421 77.751C321.285 77.613 321.545 75.475 322 73C322.455 70.525 322.685 68.357 322.512 68.182C322.041 67.706 306.655 73.174 305.5 74.229C304.177 75.437 309.168 74.23 315.25 71.871C319.889 70.072 320 70.073 320 71.915C320 73.351 318.808 74.087 314.997 75.001C312.245 75.661 309.703 76.671 309.348 77.246C308.922 77.935 309.645 78.055 311.468 77.598C317.986 75.962 320.297 75.71 319.683 76.704C319.337 77.263 316.979 78.005 314.442 78.353C306.492 79.442 301 85.397 301 92.925C301 95.424 299.718 97.342 294.581 102.53C291.05 106.096 284.637 114.46 280.331 121.118C270.233 136.727 269.761 137.22 261.67 140.625C252.049 144.674 249.142 147.385 247.328 154C246.499 157.025 245.785 160.063 245.743 160.75C245.701 161.438 245.067 162 244.333 162C243.6 162 243 162.45 243 163C243 163.55 243.787 164.007 244.75 164.015C246.246 164.028 246.282 164.172 245 165C244 165.646 243.917 165.974 244.75 165.985C246.61 166.007 246.262 168.748 244.25 169.92C242.583 170.891 242.583 170.941 244.25 170.97C247.112 171.019 246.242 172.633 242.75 173.753L239.5 174.796L243 174.913C245.649 175.002 246.135 175.266 245 176C244.175 176.533 242.53 176.976 241.344 176.985C239.664 176.997 239.306 177.454 239.724 179.051C240.166 180.743 240.806 180.999 243.38 180.513L246.5 179.925L244 181.427C241.526 182.914 241.523 182.929 243.75 182.965C244.988 182.984 246 183.419 246 183.93C246 184.442 244.988 185.056 243.75 185.294L241.5 185.728L243.75 185.864C247.147 186.069 246.854 190 243.441 190C242.034 190 241.134 190.408 241.442 190.906C241.75 191.404 242.902 191.577 244.001 191.289C245.624 190.865 246 191.26 246 193.383C246 195.182 245.453 196.022 244.25 196.07C242.754 196.13 242.79 196.265 244.5 197C246.408 197.82 246.397 197.863 244.25 197.93C243.012 197.968 242 198.502 242 199.117C242 199.741 242.882 200.003 244 199.71C245.1 199.423 246 199.595 246 200.094C246 200.592 245.339 201 244.531 201C243.639 201 243.288 201.587 243.636 202.494C243.952 203.316 244.555 203.775 244.977 203.514C246.184 202.768 246.942 212.35 245.787 213.75C245.049 214.643 245.147 215.004 246.128 215.015C247.206 215.027 247.178 215.239 246 216C245 216.646 244.917 216.974 245.75 216.985C247.705 217.009 247.215 218.998 245.25 219.015C243.88 219.027 243.796 219.218 244.863 219.894C246.014 220.623 246.014 220.842 244.863 221.3C244.113 221.598 244.603 221.878 245.95 221.921C248.674 222.009 247.758 223.503 244.5 224.287C242.988 224.651 243.172 224.796 245.25 224.884C248.721 225.03 248.899 227 245.441 227C243.923 227 243.144 227.423 243.525 228.041C243.879 228.613 244.993 228.82 246 228.5C247.007 228.18 248.121 228.387 248.475 228.959C248.855 229.574 248.095 230 246.618 230C245.243 230 243.803 230.51 243.417 231.134C242.931 231.92 243.681 232.127 245.858 231.808C247.586 231.554 249 231.718 249 232.173C249 232.628 247.623 233 245.941 233C243.97 233 243.124 233.391 243.562 234.101C243.949 234.727 245.484 234.953 247.121 234.626C249.956 234.059 251.188 235.354 248.75 236.338C247.941 236.664 248.064 236.87 249.098 236.921C249.977 236.964 251.536 238.862 252.562 241.137C255.116 246.8 272.001 261.411 273.781 259.499C274.177 259.074 273.901 258.513 273.17 258.253C271.484 257.653 261.15 249.026 258.5 246.006L256.5 243.727L261.5 244.39C273.383 245.967 274.274 246.253 278.116 249.724C282.966 254.106 283.148 257.064 278.811 261.026C275.725 263.844 266.104 268.282 260.32 269.557C253.744 271.005 217.481 270.874 207.645 269.366C192.655 267.068 186.951 265.051 184.294 261.108C182.231 258.047 182.172 257.569 183.528 254.946C186.395 249.403 196.861 243.716 207.248 242.057C211.178 241.43 211.803 241.532 210.876 242.65C210.259 243.392 209.19 244 208.5 244C207.81 244 206.716 244.637 206.069 245.416C205.136 246.541 205.266 246.929 206.697 247.3C208.429 247.75 208.429 247.773 206.691 247.884C205.696 247.948 205.114 248.375 205.397 248.833C205.68 249.292 205.369 249.73 204.706 249.807C204.043 249.883 201.7 250.357 199.5 250.858L195.5 251.77L199.5 251.995L203.5 252.219L199.112 253.081C193.732 254.138 192.694 254.967 196.583 255.1C199.481 255.199 199.484 255.204 197 256L194.5 256.801L196.905 256.9C199.246 256.997 199.262 257.053 197.5 259C196.165 260.475 196.049 261 197.057 261C198.808 261 208.144 250.991 212.447 244.5C219.404 234.005 220.913 223.735 220.306 191C219.616 153.727 216.481 144.776 202.582 140.394C199.561 139.442 197.321 138.289 197.604 137.832C197.887 137.374 196.404 136.993 194.309 136.985C192.214 136.976 189.891 136.584 189.147 136.112C188.346 135.604 192.81 135.193 200.086 135.105C206.847 135.022 212.593 134.74 212.856 134.477C213.119 134.215 206.846 133.993 198.917 133.985C190.987 133.976 183.825 133.533 183 133C181.948 132.32 183.742 131.978 189 131.854L196.5 131.676L187.414 131.082C177.855 130.457 178.227 130.621 168.616 122.772C166.518 121.059 166.53 121.043 170 120.932L173.5 120.82L170 119.867C163.7 118.151 163.275 117.878 165.5 116.963C167.241 116.247 167.136 116.131 164.691 116.07C163.087 116.03 162.147 115.571 162.5 115C162.84 114.45 162.304 113.964 161.309 113.921C160.26 113.875 160.025 113.63 160.75 113.338C162.788 112.515 162.175 111.009 159.75 110.884C158.146 110.801 157.986 110.64 159.195 110.321C161.648 109.675 160.244 107 157.452 107C154.693 107 153.054 105.046 155.691 104.9C156.942 104.831 156.729 104.572 155 104.058C153.625 103.649 152.152 103.502 151.727 103.731C148.596 105.415 168.255 127.009 178.264 132.88C181.434 134.74 188.86 137.927 194.766 139.963C200.673 141.999 206.404 144.149 207.503 144.741C211.643 146.97 213.893 150.679 215.903 158.584C217.742 165.821 217.961 169.751 217.986 196.084C218.005 216.957 217.64 226.912 216.727 230.361C215.483 235.062 215.31 235.231 211.47 235.504C203.918 236.043 178.475 239.034 172 240.144C158.923 242.388 142.269 249.92 140.162 254.543C139.62 255.734 139.119 264.066 139.051 273.058C138.982 282.05 138.786 289.548 138.614 289.719C138.443 289.891 134.747 290.734 130.401 291.594C102.893 297.037 98.324 299.277 88.471 312.155C82.798 319.568 74.44 328.871 62.555 341C47.076 356.796 38.59 367.527 32.695 378.753C27.736 388.2 29.609 388.197 34.813 378.75C41.095 367.344 48.111 358.685 64.588 342C73.007 333.475 82.165 323.575 84.938 320C99.775 300.876 104.019 298.186 125.126 294.532C132.482 293.259 143.225 291.019 149 289.554C171.209 283.921 190.008 282.488 195.75 285.989C197.537 287.079 199 288.427 199 288.985C199 289.543 200.238 289.939 201.75 289.864C204.111 289.747 204.182 289.666 202.248 289.294C201.009 289.055 199.51 287.954 198.917 286.846C196.459 282.251 187.556 280.969 172.581 283.052C165.425 284.047 164.568 283.949 156.678 281.229C152.091 279.648 146.687 277.037 144.669 275.427C141.431 272.844 141 271.977 141 268.047V263.594L144.75 267.176C149.787 271.987 159.209 275.503 172.5 277.532C185.503 279.517 234.32 280.84 257.972 279.85C283.754 278.77 306.088 273.938 317.25 267.025C322.195 263.962 323.193 264.024 320.306 267.214C318.703 268.986 318.716 269.053 320.556 268.459C322.139 267.949 322.036 268.248 320 270.071C317.551 272.264 317.546 272.298 319.75 271.748C324.984 270.443 321.336 273.07 312.75 276.789C301.997 281.447 294.717 283.336 279.5 285.414C262.885 287.683 260.486 287.849 233.289 288.612C206.997 289.349 199.411 291 222.319 291C237.811 291 268.867 288.709 284.5 286.412C296.599 284.635 305.161 282.227 314.888 277.865C318.402 276.289 321.455 275 321.673 275C321.89 275 321.915 276.144 321.728 277.543C321.515 279.134 320.149 280.839 318.081 282.097C313.999 284.58 314.661 285.744 318.907 283.548C320.72 282.611 322 282.383 322 282.999C322 283.577 320.988 284.449 319.75 284.938C313.131 287.551 309.835 289.168 310.262 289.595C310.525 289.858 313.107 289.14 316 288C318.893 286.86 321.437 286.104 321.654 286.321C322.355 287.022 319.613 288.676 314.717 290.508C312.087 291.492 309.716 292.651 309.448 293.084C308.868 294.023 313.857 292.682 316.795 291.11C320.074 289.355 321.159 289.777 320.816 292.672C320.531 295.084 319.574 295.661 311 298.593C305.775 300.381 301.95 301.871 302.5 301.904C303.707 301.978 316.733 298.548 319.386 297.457C320.777 296.885 321.15 297.051 320.805 298.091C320.548 298.866 317.224 300.761 313.418 302.301C309.337 303.954 307.811 304.891 309.697 304.587C311.455 304.303 314.605 303.311 316.697 302.382C318.789 301.453 320.995 300.766 321.6 300.856C322.966 301.058 324.001 287.556 323.996 269.596C323.992 254.953 323.195 252.539 316.74 247.615C309.908 242.404 300.497 240.296 266.705 236.405C255.353 235.098 251.72 234.329 251.09 233.101C249.699 230.386 249.021 219.624 248.406 190.478C247.582 151.478 248.297 148.545 259.874 143.392C266.555 140.418 267.676 140.391 265.647 143.25C255.607 157.396 248.962 179.863 253.25 185.163C257.213 190.061 265.218 191.526 270.086 188.243C277.594 183.182 291.696 164.23 293.549 156.712C293.927 155.179 296.883 151.277 300.118 148.042C303.353 144.807 306 142.262 306 142.386C306 142.51 304.356 146.636 302.347 151.556C295.942 167.241 296.634 181.196 304.724 199.5C306.669 203.9 308.946 208.287 309.785 209.25C311.657 211.398 316.803 211.527 319.699 209.498C321.669 208.118 322.087 208.202 324.855 210.531C335.32 219.337 345.183 222.273 349.811 217.961C352.72 215.251 352.589 214.568 349.544 216.563C348.193 217.448 346.649 217.901 346.113 217.57C345.577 217.239 344.833 217.461 344.46 218.065C343.424 219.742 339.093 218.303 333.287 214.354C327.31 210.287 326.158 207.934 328.44 204.451C330.391 201.473 331.899 201.398 337.04 204.02C341.813 206.455 342.293 205.759 337.75 202.989C331.897 199.421 327.728 200.65 326.181 206.401C325.66 208.337 325.148 208.711 324 207.993C322.761 207.22 322.722 206.747 323.775 205.278C326.095 202.042 329.142 194.926 328.731 193.703C328.509 193.041 327.74 194.3 327.022 196.5C325.294 201.797 320.765 207.44 316.986 209.006C313.228 210.562 312.254 209.762 313.981 206.535C315.117 204.413 314.98 202.929 312.988 195.787C311.718 191.229 310.067 186.269 309.321 184.764C307.992 182.086 304.05 180.233 302.162 181.4C300.698 182.304 299.998 179.441 300.024 172.668C300.058 164.109 301.257 159.445 307.226 144.647C311.39 134.327 312.913 131.585 314.956 130.734C316.358 130.149 322.437 129.777 328.5 129.904C339.189 130.129 339.574 130.216 342.124 132.991C344.826 135.932 349 143.717 349 145.816C349 146.467 349.43 147 349.956 147C350.91 147 349.138 140.994 347.01 137.018C346.397 135.873 342.512 131.237 338.377 126.718C334.242 122.198 330.253 117.15 329.511 115.5C328.77 113.85 328.126 113.092 328.082 113.816C328.037 114.539 328.489 116.044 329.086 117.16C330.066 118.991 329.945 119.117 327.851 118.453C324.299 117.325 310.541 107.38 307.079 103.438C303.581 99.453 303.228 98.007 305.75 97.985C307.03 97.974 306.828 97.632 305 96.71C301.831 95.113 301.283 91.486 303.57 87.241C306.606 81.603 310.435 80 320.868 80C326.289 80 330 80.406 330 81C330 81.55 329.558 82 329.019 82C328.479 82 324.902 84.958 321.07 88.573C317.238 92.188 312.842 95.524 311.301 95.987C308.926 96.7 308.835 96.841 310.703 96.914C312.084 96.968 315.63 94.554 320.203 90.446C329.454 82.137 333.578 79.973 340.512 79.791C345.886 79.65 356 83.163 356 85.171C356 85.627 356.63 86 357.4 86C358.833 86 365.448 92.871 372.414 101.597C376.289 106.45 385.418 114.65 388.766 116.285C389.72 116.751 388.7 115.65 386.5 113.838C380.368 108.788 374.92 103.106 369.794 96.411C363.575 88.29 358.786 84.232 351.53 80.935C345.357 78.13 343.773 76.5 336.802 65.78C333.455 60.633 333.19 59.752 334.157 56.979C334.748 55.285 334.957 53.624 334.623 53.289C334.288 52.954 333.722 54.141 333.365 55.926C333.008 57.711 332.14 59.393 331.436 59.663C330.404 60.059 309.558 53.607 301.586 50.424C300.319 49.919 299.896 50.023 300.336 50.734ZM318.624 52.539C317.659 55.053 317.943 55.702 319.122 53.675C319.706 52.671 319.973 51.639 319.715 51.382C319.458 51.124 318.966 51.645 318.624 52.539ZM322.079 52.583C322.127 53.748 322.364 53.985 322.683 53.188C322.972 52.466 322.936 51.603 322.604 51.271C322.272 50.939 322.036 51.529 322.079 52.583ZM313.22 67.248C310.315 68.361 308.149 69.482 308.405 69.738C309.062 70.395 318.856 67.042 319.547 65.924C320.314 64.683 319.422 64.87 313.22 67.248ZM349.507 87.989C349.157 88.555 349.558 88.723 350.448 88.382C352.18 87.717 352.497 87 351.059 87C350.541 87 349.843 87.445 349.507 87.989ZM344.5 91.585C342.85 92.908 341.95 93.977 342.5 93.962C343.735 93.927 348.432 90.096 347.892 89.565C347.676 89.353 346.15 90.262 344.5 91.585ZM148.015 97.561C148.04 100.666 149.696 102.704 151.075 101.325C151.953 100.447 151.721 99.616 150.117 97.895C148.139 95.772 148.001 95.75 148.015 97.561ZM295.592 103.75C288.055 111.691 285.024 115.896 272.347 136C257.941 158.846 258.479 157.767 260.42 159.912C262.688 162.418 262.42 164.598 258.568 174.959C256.68 180.036 255.375 184.814 255.667 185.576C255.96 186.338 257.79 187.4 259.735 187.937C264.225 189.177 269.286 187.241 273.5 182.672C286.477 168.604 291.957 159.341 292.063 151.298C292.119 147.097 292.25 146.809 293.117 148.982C294.099 151.443 294.161 151.408 300.328 144.982C308.956 135.993 311.647 132.099 312.796 126.944L313.786 122.5L313.893 126.218C313.991 129.637 314.18 129.869 316.25 129.105C317.488 128.648 318.656 127.425 318.847 126.387C319.429 123.222 321 122.351 321 125.193C321 126.635 321.702 128.055 322.582 128.393C324.39 129.087 338 129.23 338 128.556C338 127.042 330.855 120.808 327.557 119.443C321.625 116.989 305.305 104.491 303.518 101.034C302.655 99.365 301.746 98 301.499 98C301.252 98 298.594 100.588 295.592 103.75ZM382.872 105.75C381.629 107.336 381.664 107.371 383.25 106.128C384.916 104.821 385.445 104 384.622 104C384.415 104 383.627 104.787 382.872 105.75ZM398.093 123.199C402.167 126.058 408.398 131.223 411.939 134.676C415.481 138.13 418.494 140.839 418.636 140.697C419.887 139.446 406.827 127.628 396.518 120.683C389.224 115.769 390.57 117.918 398.093 123.199ZM428.5 120C428.84 120.55 429.316 121 429.559 121C429.802 121 430 120.55 430 120C430 119.45 429.523 119 428.941 119C428.359 119 428.16 119.45 428.5 120ZM173.704 124.204C173.042 124.625 174.863 124.976 177.75 124.985C180.637 124.993 183 124.822 183 124.605C183 123.812 174.873 123.461 173.704 124.204ZM431 123.846C431 125.365 434.194 131.139 434.735 130.598C435.025 130.308 434.507 128.48 433.584 126.536C431.956 123.105 431 122.11 431 123.846ZM182.75 127.706C183.988 127.944 186.012 127.944 187.25 127.706C188.488 127.467 187.475 127.272 185 127.272C182.525 127.272 181.512 127.467 182.75 127.706ZM436.469 135.75C437.274 138.975 452.626 167.833 457.842 175.925C459.818 178.991 462.902 184.2 464.695 187.5C466.706 191.201 467.963 192.723 467.977 191.471C467.99 190.355 465.464 185.18 462.365 179.971C455.317 168.126 447.9 154.597 441.772 142.406C437.013 132.939 435.2 130.664 436.469 135.75ZM333.567 147.691C334.313 152.358 332.365 159.305 328.242 166.682C325.872 170.923 325.572 171.135 324.337 169.447C323.602 168.441 323 167.254 323 166.809C323 166.364 322.632 166 322.183 166C321.733 166 322.93 169.151 324.842 173.003C327.584 178.528 328.335 181.272 328.399 186.003C328.444 189.301 328.779 192 329.144 192C330.342 192 330.526 181.913 329.366 179.749C327.841 176.901 329.37 172.708 333.067 169.597C335.302 167.716 337.568 167.036 343.222 166.549C352.983 165.708 356.179 166.706 357.694 171.065C358.35 172.954 358.913 173.671 358.944 172.657C358.975 171.644 357.857 167.594 356.461 163.657L353.922 156.5L348.711 156.818C345.845 156.992 341.706 156.542 339.512 155.817C335.761 154.578 335.483 154.212 334.831 149.652C334.45 146.986 333.861 144.528 333.523 144.19C333.185 143.852 333.205 145.427 333.567 147.691ZM333.61 159.263C333.261 161.124 331.631 164.767 329.988 167.358C326.056 173.559 326.221 174.456 330.388 169.53L333.747 165.56L344.364 165.167L354.981 164.774L354.352 162.137C353.403 158.158 353.033 157.834 350.155 158.464C347.65 159.013 339.443 157.889 335.873 156.509C334.624 156.027 334.097 156.668 333.61 159.263ZM231 162C231 162.55 231.477 163 232.059 163C232.641 163 232.84 162.55 232.5 162C232.16 161.45 231.684 161 231.441 161C231.198 161 231 161.45 231 162ZM256.17 167.25C253.76 174.805 252.644 182 253.881 182C254.869 182 255.024 181.666 258.646 171.719C260.933 165.439 261.085 161 259.014 161C258.546 161 257.266 163.813 256.17 167.25ZM231.553 166.915C231.231 167.436 231.394 168.125 231.915 168.447C232.436 168.769 233.125 168.606 233.447 168.085C233.769 167.564 233.606 166.875 233.085 166.553C232.564 166.231 231.875 166.394 231.553 166.915ZM232 173C232 173.55 232.45 174 233 174C233.55 174 234 173.55 234 173C234 172.45 233.55 172 233 172C232.45 172 232 172.45 232 173ZM231.543 179.931C231.226 180.443 231.425 181.144 231.984 181.49C233.177 182.227 235 181.291 235 179.941C235 178.724 232.293 178.716 231.543 179.931ZM360.075 181.201C359.963 182.244 362.554 191.605 365.002 199C368.58 209.811 378.511 229.112 383.913 235.755C386.711 239.195 389 242.3 389 242.655C389 243.01 390.065 245.596 391.366 248.4C392.668 251.205 394.993 256.65 396.533 260.5C401.986 274.13 405.04 279.137 412.328 286.401C417.44 291.495 421.941 294.81 428 297.942C438.848 303.551 445.028 308.129 457.369 319.701C462.837 324.828 467.53 328.803 467.798 328.536C468.066 328.268 467.782 327.442 467.166 326.7C466.336 325.7 466.364 325.02 467.274 324.064C468.26 323.028 468.108 322.892 466.5 323.372C464.967 323.83 463.014 322.457 458.132 317.485C454.629 313.918 451.528 311 451.24 311C450.952 311 449.497 309.724 448.006 308.164C446.515 306.604 444.469 305.01 443.459 304.623C440.853 303.623 422.853 292.957 420.726 291.152C419.517 290.126 419.278 289.322 419.976 288.624C420.539 288.061 421 287.154 421 286.609C421 286.064 420.402 286.436 419.671 287.435C418.582 288.924 417.959 289.048 416.224 288.12C411.466 285.573 403.824 273.581 397.988 259.5C397.532 258.4 395.999 254.858 394.58 251.629C393.161 248.4 392 245.547 392 245.288C392 245.029 396.792 249.359 402.649 254.909C408.505 260.459 414.018 264.986 414.899 264.968C416.183 264.943 416.104 264.664 414.5 263.562C410.012 260.478 394.057 244.982 387.618 237.454C381.45 230.243 373.912 218 375.639 218C376.008 218 375.651 217.213 374.846 216.25C372.912 213.938 366.733 199.635 363.075 189C361.466 184.325 360.117 180.816 360.075 181.201ZM302.078 182.931C300.57 183.885 301.322 186.409 307.164 200C310.244 207.164 310.925 208.164 312.191 207.382C314.574 205.909 310.44 187.44 306.945 183.945C304.769 181.769 304.125 181.635 302.078 182.931ZM348.962 190.083L348.925 195.5L345.477 191.5C343.581 189.3 342.023 187.864 342.015 188.31C341.997 189.26 349.17 198 349.967 198C350.667 198 350.271 185.937 349.547 185.213C349.246 184.913 348.983 187.104 348.962 190.083ZM242.813 188.683C243.534 188.972 244.397 188.936 244.729 188.604C245.061 188.272 244.471 188.036 243.417 188.079C242.252 188.127 242.015 188.364 242.813 188.683ZM233 192C233 192.55 233.477 193 234.059 193C234.641 193 234.84 192.55 234.5 192C234.16 191.45 233.684 191 233.441 191C233.198 191 233 191.45 233 192ZM355.5 199C355.84 199.55 357.329 199.993 358.809 199.985C360.914 199.973 361.173 199.758 360 199C358.024 197.723 354.711 197.723 355.5 199ZM351.731 202.75C352.154 204.262 352.439 207.504 352.365 209.953C352.243 213.978 352.363 214.224 353.615 212.512C355.285 210.228 355.373 207.368 353.902 203.149C352.547 199.263 350.659 198.916 351.731 202.75ZM232.651 203.468C231.945 205.306 233.82 206.58 235.2 205.2C236.267 204.133 235.5 202 234.048 202C233.589 202 232.96 202.661 232.651 203.468ZM233.583 208.866C233.152 209.563 233.07 210.403 233.4 210.733C234.295 211.628 235.271 210.312 234.787 208.862C234.449 207.846 234.213 207.846 233.583 208.866ZM378.872 214.75C377.629 216.336 377.664 216.371 379.25 215.128C380.212 214.373 381 213.585 381 213.378C381 212.555 380.179 213.084 378.872 214.75ZM233 215C233 215.55 233.45 216 234 216C234.55 216 235 215.55 235 215C235 214.45 234.55 214 234 214C233.45 214 233 214.45 233 215ZM380.924 217.75L378.5 220.5L381.25 218.076C382.762 216.742 384 215.505 384 215.326C384 214.541 383.19 215.18 380.924 217.75ZM233.583 219.866C233.152 220.563 233.07 221.403 233.4 221.733C234.295 222.628 235.271 221.312 234.787 219.862C234.449 218.846 234.213 218.846 233.583 219.866ZM232.615 232.209C229.585 247.85 229.002 249.467 224.447 254.88C222.634 257.036 222.265 258 223.256 258C224.045 258 225.383 257.212 226.231 256.25C228.679 253.469 232.997 244.285 233.032 241.783C233.063 239.54 233.09 239.535 234.561 241.481C235.505 242.73 235.833 244.484 235.449 246.231C235 248.278 235.225 249 236.314 249C238.787 249 239.083 251.742 236.681 252.401C234.961 252.874 234.795 253.19 235.895 253.899C237.019 254.623 236.922 254.892 235.395 255.283C234.353 255.55 235.445 255.82 237.821 255.884C240.198 255.948 242.818 256.675 243.643 257.5C244.468 258.325 245.877 259 246.774 259C247.93 259 247.35 257.906 244.787 255.25C240.978 251.303 236.672 241.937 235.514 235.08C234.715 230.353 233.255 228.907 232.615 232.209ZM203.598 239.086C194.923 241.217 186.714 245.439 181.912 250.242C176.261 255.893 176.355 259.602 182.311 265.839C190.446 274.358 203.594 277.334 233.5 277.427C251.293 277.482 254.485 277.234 262.428 275.174C276.637 271.49 283.998 266.767 287.445 259.123L289.238 255.147L286.664 252.573C285.249 251.158 283.606 250 283.014 250C282.422 250 281.678 249.325 281.362 248.5C281.045 247.675 280.344 247 279.804 247C279.264 247 279.987 248.385 281.411 250.077C284.959 254.293 284.756 257.879 280.75 261.742C272.925 269.288 260.067 272.234 234.5 272.337C199.017 272.481 180 267.196 180 257.191C180 251.811 195.93 241.506 206.11 240.301C208.799 239.982 211.786 239.124 212.749 238.393C215.177 236.55 213.364 236.687 203.598 239.086ZM254 238.878C254 240.71 256.716 241.746 263 242.31C266.575 242.631 271.413 243.573 273.75 244.403C277.815 245.846 278 245.826 278 243.956C278 242.88 277.663 241.987 277.25 241.971C276.837 241.955 273.35 241.068 269.5 240C262.176 237.968 254 237.376 254 238.878ZM177 241.631C165.137 243.423 156.303 246.257 148.25 250.857C142.644 254.058 142 254.753 142 257.602C142 259.349 142.886 261.841 143.968 263.139L145.937 265.5L144.757 262.271C143.736 259.476 143.846 258.671 145.577 256.271C149.677 250.587 162.714 245.764 182.858 242.479C187.455 241.73 191.468 240.865 191.775 240.558C192.65 239.684 187.342 240.069 177 241.631ZM282.39 242.313C286.937 245.126 290.988 251.278 290.995 255.382C291.002 259.19 287.816 264.186 282.896 268.082C280.702 269.82 279.066 271.399 279.26 271.593C279.715 272.048 295.092 268.413 301.258 266.393C303.875 265.536 305.787 264.464 305.507 264.011C305.227 263.559 307.249 261.572 309.999 259.596C313.71 256.93 315 255.358 315 253.502C315 252.126 315.45 251 316 251C316.865 251 317.215 252.393 316.915 254.638C316.868 254.989 317.257 255.552 317.78 255.888C318.303 256.225 319.019 257.426 319.371 258.557C320.076 260.819 316.879 264.428 311.5 267.445C309.85 268.37 309.4 268.849 310.5 268.509C316.574 266.63 322.327 259.966 321.291 256.006C320.461 252.829 314.646 248.296 308.5 246.034C303.301 244.121 296.479 242.682 282 240.446L278.5 239.906L282.39 242.313ZM171 246.552C162.808 248.213 156.749 250.371 151.283 253.574C147.625 255.718 147 256.561 147 259.351C147 261.148 147.661 263.491 148.468 264.559C150.167 266.804 150.455 268.399 149 267.5C148.45 267.16 148 267.124 148 267.421C148 268.598 156.322 272.104 162.543 273.546C169.28 275.109 194.101 278.037 199.5 277.906C201.615 277.855 200.736 277.407 196.521 276.388C193.233 275.593 190.105 274.505 189.571 273.971C188.162 272.562 183.709 272.721 184.592 274.149C185.111 274.989 183.916 275.114 180.142 274.613C171.683 273.491 169.597 272.15 177 272.593L183.5 272.982L176.5 271.613C169.501 270.244 162 267.284 162 265.89C162 265.484 164.497 266.029 167.548 267.101C173.395 269.156 183.294 270.753 181.377 269.332C178.947 267.532 175 260.581 175.004 258.11C175.006 256.675 175.92 254.003 177.036 252.172C178.97 249.001 178.977 248.873 177.185 249.441C176.151 249.77 171.88 250.693 167.694 251.494C158.669 253.221 151.308 256.454 150.483 259.054C150.156 260.083 150.408 261.894 151.042 263.078C151.948 264.772 151.922 265.141 150.919 264.806C148.514 264.005 147.521 261.264 148.562 258.303C149.377 255.987 150.846 255.036 157.024 252.831C161.136 251.363 168.325 249.377 173 248.419C181.796 246.616 185.641 244.911 180.45 245.117C178.828 245.181 174.575 245.827 171 246.552ZM311.296 252.534C311.231 254.818 311.61 255.963 312.348 255.717C313.789 255.237 313.875 249.792 312.449 249.316C311.856 249.119 311.353 250.522 311.296 252.534ZM153.536 257.96C152.343 259.279 151.968 260.736 152.39 262.417C153.206 265.67 160.997 271.006 165.778 271.588L169.5 272.04L165.02 269.963C159.295 267.309 154 263.277 154 261.572C154 260.842 154.675 259.685 155.5 259C157.138 257.641 157.496 256 156.155 256C155.69 256 154.512 256.882 153.536 257.96ZM313.872 259.75C312.629 261.336 312.664 261.371 314.25 260.128C315.916 258.821 316.445 258 315.622 258C315.415 258 314.627 258.788 313.872 259.75ZM309 262.5C307.625 263.286 306.976 263.945 307.559 263.965C308.141 263.984 309.491 263.339 310.559 262.532C313.028 260.664 312.239 260.648 309 262.5ZM295.5 272.043C289.45 273.597 285.4 274.883 286.5 274.899C290.133 274.955 308 270.429 308 269.453C308 268.835 307.946 268.846 295.5 272.043ZM282.75 272.662C283.438 272.94 284.563 272.94 285.25 272.662C285.938 272.385 285.375 272.158 284 272.158C282.625 272.158 282.063 272.385 282.75 272.662ZM276.269 273.693C277.242 273.947 278.592 273.93 279.269 273.656C279.946 273.382 279.15 273.175 277.5 273.195C275.85 273.215 275.296 273.439 276.269 273.693ZM141 281.881C141 289.764 141.135 289.883 148 288.058C149.925 287.547 153.525 286.6 156 285.956L160.5 284.783L154.437 282.585C151.103 281.376 146.715 279.122 144.687 277.575L141 274.763V281.881ZM279.25 275.689C280.212 275.941 281.788 275.941 282.75 275.689C283.712 275.438 282.925 275.232 281 275.232C279.075 275.232 278.288 275.438 279.25 275.689ZM269.762 276.707C271.006 276.946 272.806 276.937 273.762 276.687C274.718 276.437 273.7 276.241 271.5 276.252C269.3 276.263 268.518 276.468 269.762 276.707ZM262.75 277.662C263.438 277.94 264.563 277.94 265.25 277.662C265.938 277.385 265.375 277.158 264 277.158C262.625 277.158 262.063 277.385 262.75 277.662ZM199 292.423C199 293.206 197.394 295.95 195.432 298.522C193.469 301.093 192.075 303.408 192.333 303.667C193.144 304.477 200 294.809 200 292.856C200 291.835 199.775 291 199.5 291C199.225 291 199 291.641 199 292.423ZM313.151 294.769C309.659 296.235 307.291 297.597 307.888 297.796C309.071 298.19 320 293.461 320 292.555C320 291.845 320.511 291.679 313.151 294.769ZM157.094 304.083C157.042 305.504 157.512 309.216 158.138 312.333C159.092 317.081 159.619 317.998 161.388 317.988C167.464 317.954 183.804 311.481 188.75 307.15C191.887 304.403 191.565 303.397 188.25 305.588C179.481 311.385 161.716 317.968 160.435 315.896C160.125 315.393 159.267 311.948 158.529 308.241C157.791 304.533 157.146 302.662 157.094 304.083ZM312.086 306.283C302.046 309.991 302.779 311.189 312.928 307.66C319.31 305.44 320 305.367 320 306.911C320 308.126 318.553 308.993 315.002 309.903C312.254 310.607 309.752 311.592 309.443 312.092C308.666 313.35 310.814 313.157 315.261 311.57C317.33 310.832 319.25 310.595 319.528 311.045C320.144 312.042 319.556 312.397 314.683 313.968C310.027 315.47 310.297 316.349 315 315C319.989 313.569 319.928 314.676 314.896 316.908C310.394 318.906 310.816 319.781 315.435 318.025C319.274 316.565 318.684 318.781 314.75 320.598C311.778 321.971 311.735 322.05 314.25 321.53C315.823 321.205 317 321.398 317 321.981C317 322.541 316.212 323.007 315.25 323.015C313.887 323.027 313.8 323.221 314.857 323.89C317.089 325.305 315.368 330.45 312.21 331.804C310.057 332.727 309.959 332.887 311.733 332.581C313.608 332.258 313.812 332.482 313.01 333.981C312.485 334.962 311.268 336.067 310.306 336.436C308.87 336.987 308.807 337.263 309.956 337.973C311.076 338.665 310.572 339.976 307.428 344.545C299.754 355.695 287.785 364.82 272.834 370.919C258.747 376.666 252.545 379.74 250.513 381.986C248.927 383.739 245.954 392.318 245.743 395.75C245.701 396.438 245.067 397 244.333 397C243.6 397 243 397.45 243 398C243 398.55 243.787 399.007 244.75 399.015C246.246 399.028 246.282 399.172 245 400C244 400.646 243.917 400.974 244.75 400.985C246.61 401.007 246.262 403.748 244.25 404.92C242.583 405.891 242.583 405.941 244.25 405.97C247.169 406.02 246.21 407.882 242.75 408.881L239.5 409.82L243 409.925C245.646 410.005 246.134 410.267 245 411C244.175 411.533 242.375 412.008 241 412.055C238.705 412.134 238.664 412.211 240.5 413C241.6 413.473 241.938 413.891 241.25 413.93C240.563 413.968 240 414.486 240 415.079C240 415.757 241.209 415.929 243.25 415.542L246.5 414.925L244 416.427C241.526 417.914 241.523 417.929 243.75 417.965C244.988 417.984 246 418.419 246 418.93C246 419.442 244.988 420.056 243.75 420.294C241.623 420.704 241.636 420.737 244 420.899L246.5 421.071L244 422.5L241.5 423.929L244 424.083C246.337 424.227 246.304 424.287 243.5 425L240.5 425.763L243.25 425.882C245.485 425.978 246 426.468 246 428.5C246 430.188 245.431 431.023 244.25 431.07C242.754 431.13 242.79 431.265 244.5 432C246.408 432.82 246.397 432.863 244.25 432.93C242.073 432.998 240.921 435 243.059 435C243.641 435 243.862 435.414 243.55 435.919C243.237 436.425 243.584 437.441 244.321 438.178C246.176 440.034 247.195 447.06 245.845 448.687C245.035 449.662 245.108 450.004 246.128 450.015C247.206 450.027 247.178 450.239 246 451C245 451.646 244.917 451.974 245.75 451.985C246.438 451.993 247 452.45 247 453C247 453.55 246.298 454 245.441 454C244.584 454 244.136 454.412 244.447 454.915C244.758 455.418 244.447 456.057 243.756 456.336C243.065 456.614 243.827 456.878 245.45 456.921C248.59 457.005 248.013 458.442 244.5 459.287C242.988 459.651 243.172 459.796 245.25 459.884C248.721 460.03 248.899 462 245.441 462C243.923 462 243.144 462.423 243.525 463.041C243.879 463.613 244.993 463.82 246 463.5C247.007 463.18 248.121 463.387 248.475 463.959C248.867 464.594 247.923 465 246.059 465C244.377 465 243 465.506 243 466.125C243 466.842 244.089 467.032 246 466.65C247.692 466.312 249 466.475 249 467.025C249 467.561 247.623 468 245.941 468C244.043 468 243.13 468.402 243.536 469.059C243.927 469.691 245.452 469.84 247.326 469.428C250.144 468.81 250.324 468.905 249.108 470.37C247.962 471.751 247.98 472 249.226 472C250.034 472 251.522 473.831 252.531 476.069C255.052 481.66 272.028 496.382 273.781 494.499C274.177 494.074 273.901 493.513 273.17 493.253C271.487 492.655 261.155 484.031 258.5 481.009L256.5 478.733L262.5 479.434C272.01 480.544 275.56 481.792 278.89 485.199C284.667 491.107 282.545 495.03 270.584 500.557C261.282 504.854 247.385 506.48 227 505.655C200.091 504.566 186.782 501.346 183.577 495.149C182.262 492.606 182.303 492.031 183.998 489.244C187.357 483.72 197.432 478.595 208.872 476.592C211.788 476.081 212.076 476.204 210.999 477.501C210.315 478.325 209.19 479 208.5 479C207.81 479 206.716 479.637 206.069 480.416C205.136 481.541 205.266 481.929 206.697 482.3C208.429 482.75 208.429 482.773 206.691 482.884C205.696 482.948 205.167 483.461 205.515 484.025C205.864 484.588 205.778 484.972 205.324 484.878C204.871 484.783 202.475 485.099 200 485.58L195.5 486.454L199.5 487.085L203.5 487.716L200 487.873C196.026 488.052 192.017 489.947 195.5 490C197.159 490.025 197.244 490.196 196 491C194.806 491.772 194.998 491.972 196.941 491.985C199.234 491.999 199.27 492.082 197.54 493.347C196.154 494.361 196.007 494.886 196.948 495.468C198.425 496.381 207.42 487.1 212.425 479.5C219.382 468.935 220.884 458.723 220.292 426C219.617 388.659 216.388 379.494 202.483 375.452C199.453 374.571 197.176 373.524 197.423 373.125C197.669 372.726 196.251 372.291 194.271 372.158C192.291 372.024 189.966 371.521 189.105 371.039C188.139 370.498 192.485 370.127 200.449 370.069C207.549 370.017 213.578 369.755 213.846 369.487C214.114 369.219 207.621 368.993 199.417 368.985C191.212 368.976 183.825 368.533 183 368C181.948 367.32 183.742 366.978 189 366.854L196.5 366.676L187.408 366.082C178.531 365.501 178.178 365.381 172.479 360.994L166.643 356.5L170.571 355.927L174.5 355.354L169.25 354.548C163.323 353.638 162.393 352.326 167.25 351.723C170.089 351.371 169.967 351.3 166.281 351.16C162.98 351.035 162.188 350.674 162.638 349.5C162.955 348.675 162.689 348 162.048 348C161.407 348 161.16 347.55 161.5 347C161.852 346.431 160.908 345.957 159.309 345.9L156.5 345.801L159 345C160.375 344.56 160.911 344.155 160.191 344.1C159.471 344.045 159.126 343.605 159.425 343.122C159.723 342.639 158.512 341.926 156.734 341.537C153.871 340.912 153.729 340.734 155.5 339.986C157.386 339.189 157.369 339.137 155.191 339.07C153.919 339.032 153.16 338.551 153.5 338C153.84 337.45 153.593 337 152.952 337C152.311 337 152.045 336.325 152.362 335.5C152.703 334.611 152.372 334 151.551 334C150.274 334 146.212 325.408 147.106 324.598C147.323 324.401 149.863 323.054 152.75 321.603C155.637 320.153 158 318.824 158 318.65C158 318.476 151.412 320.529 143.361 323.213C135.309 325.897 128.025 327.959 127.174 327.795C126.323 327.631 125.235 325.986 124.756 324.139C124.278 322.292 123.635 321.032 123.327 321.339C123.02 321.647 123.254 323.29 123.847 324.992C124.821 327.786 124.532 328.735 120.855 334.793C115.347 343.868 113.556 345.632 106.374 349.06C99.454 352.363 93.285 357.844 87.309 366C83.287 371.49 76.175 378.571 70.5 382.735C68.85 383.946 67.971 384.951 68.546 384.968C70.695 385.033 82.536 373.95 89.397 365.452C98.435 354.257 106.54 348.806 115.064 348.189C123.03 347.613 127.124 349.273 135.214 356.362C143.636 363.741 144.811 364.59 147.875 365.505C149.5 365.99 150.034 365.864 149.566 365.107C149.19 364.498 148.004 364 146.931 364C145.858 364 141.583 360.85 137.431 357C133.278 353.15 129.345 349.993 128.691 349.985C127.976 349.975 128.099 349.582 129 349C131.483 347.396 144.793 347.808 148.583 349.606C155.571 352.922 158.603 363.566 153 365.111C150.584 365.778 150.576 365.804 152.785 365.9C154.71 365.984 154.91 366.299 154.055 367.897C152.421 370.951 145.883 376.724 138.029 382.048C130.008 387.485 127.189 388.384 129.046 384.914C129.66 383.767 129.913 382.58 129.609 382.276C129.305 381.971 128.574 382.991 127.984 384.541C127.395 386.091 123.801 390.636 119.997 394.64C113.635 401.338 110.427 406.118 107.987 412.534C106.219 417.185 108.511 415.002 110.91 409.75C112.228 406.863 114.446 402.999 115.838 401.163C118.202 398.048 118.688 397.855 123.185 398.246C125.833 398.476 128 398.29 128 397.832C128 397.375 126.166 397 123.924 397H119.848L122.174 394.07C123.453 392.458 127.2 389.674 130.5 387.884C139.362 383.076 150.702 374.394 153.918 369.955L156.74 366.059L162.673 372.28C169.4 379.333 174.593 386.469 185.028 403C199.681 426.212 199.383 425.615 197.589 428.176C195.381 431.328 195.523 432.407 199.587 443.392C203.58 454.185 203.394 455.328 197.462 456.441C191.292 457.599 188.297 455.361 174.251 439.103C173.014 437.671 172.002 435.938 172.001 435.25C172.001 434.563 171.656 434 171.236 434C169.484 434 166.599 425.227 166.551 419.753C166.523 416.592 166.376 414.004 166.225 414.003C166.074 414.001 165.484 415.226 164.915 416.725L163.879 419.45L157.665 412.975C149.044 403.993 146.353 400.098 145.204 394.944L144.214 390.5L144.107 394.218C144.009 397.637 143.82 397.869 141.75 397.105C140.512 396.648 139.344 395.425 139.153 394.387C138.962 393.349 138.343 392.05 137.778 391.5C137.078 390.819 136.906 391.383 137.239 393.265C137.75 396.153 137.632 396.23 131 397.369C129.625 397.606 130.975 397.741 134 397.671C143.961 397.441 145.025 398.398 150.851 412.814C156.918 427.829 158.201 433.325 157.799 442.593C157.566 447.97 157.182 449.431 156.064 449.188C152.808 448.481 149.829 450.165 148.434 453.503C146.3 458.611 146.837 460.185 149.03 455.25C150.653 451.596 151.344 451 153.959 451C156.031 451 157 451.491 157 452.54C157 455.512 147.63 476.128 145.845 477.083C144.853 477.614 142.894 477.761 141.493 477.409C138.264 476.599 132.653 469.718 130.967 464.5C130.255 462.3 129.491 461.041 129.269 461.703C128.867 462.9 131.794 469.797 134.225 473.379C135.247 474.884 135.25 475.348 134.241 475.715C133.549 475.966 131.106 477.741 128.811 479.658C121.752 485.555 113 489.033 113 485.941C113 485.359 112.53 485.172 111.956 485.527C111.382 485.882 109.82 485.457 108.486 484.583C106.527 483.299 106.165 483.268 106.607 484.419C106.908 485.204 108.721 486.589 110.635 487.497C113.807 489.002 114.516 489.012 118.63 487.61C121.114 486.764 126.061 483.991 129.625 481.448C136.098 476.829 136.108 476.826 139.802 478.29C142.085 479.195 144.308 479.452 145.612 478.961C148.211 477.983 152 473.313 152 471.088C152 470.184 152.613 468.557 153.361 467.473C154.11 466.388 155.798 462.575 157.111 459C159.137 453.487 159.499 450.678 159.495 440.5C159.49 428.048 159.314 427.329 152.288 411.129C151.961 410.375 154.456 412.599 157.832 416.071C161.242 419.577 164.476 423.966 165.105 425.942C167.054 432.062 171.621 439.22 178.539 447C189.212 459 195.54 461.089 202.938 455.051C206.142 452.436 206.351 451.9 206.213 446.652C206.04 440.079 202.155 427.781 197.801 420.024C190.303 406.665 169.852 376.989 164.016 371C159.203 366.061 157.613 363.705 157.394 361.188C156.993 356.583 154.03 351.016 150.674 348.565C148.12 346.699 146.673 346.53 135.674 346.806C121.891 347.153 112.729 346.291 115.242 344.885C116.108 344.4 118.857 340.907 121.349 337.124C125.314 331.106 126.358 330.16 129.691 329.564C131.786 329.189 135.796 328.04 138.601 327.011L143.703 325.139L148.084 333.78C159.297 355.895 173.411 368.058 196.535 375.533C211.028 380.217 213.014 382.048 215.842 393.325C217.704 400.747 217.947 404.857 218.074 431.077C218.172 451.498 217.841 461.953 216.989 465.25C216.315 467.863 215.478 470.002 215.131 470.005C211.89 470.029 174.304 474.15 170.354 474.914C159.035 477.102 145.215 482.889 141.5 486.994C139.674 489.012 139.471 490.87 139.172 508.352C138.607 541.272 141.524 557.383 150.997 573.671C161.779 592.211 175.309 602.987 196.599 609.991C212.02 615.064 213.388 616.431 216.389 629.747C218.537 639.275 218.791 692.88 216.723 700C215.416 704.499 215.415 704.5 209.958 705.12C197.962 706.481 186.84 711.426 179.771 718.539C175.392 722.945 174.587 724.985 175.437 729.516C176.228 733.732 184.81 741.794 191.072 744.203C195.293 745.827 192.391 745.882 129 745.378C92.425 745.088 58.225 744.691 53 744.497C47.775 744.303 34.008 744.112 22.407 744.072L1.314 744L1.236 665.907L1.159 587.814L5.83 583.305C11.693 577.645 20.452 571.409 29.5 566.451C39.841 560.784 46.049 555.925 50.66 549.886C55.629 543.377 59.232 536.441 58.802 534.21C58.622 533.278 57.106 535.373 55.29 539.063C53.532 542.634 49.547 548.37 46.435 551.808C41.581 557.173 40.553 557.879 39.197 556.78C37.904 555.733 37.76 555.74 38.408 556.817C39.429 558.513 38.02 559.563 24.56 567.14C14.355 572.883 9.784 576.203 4.439 581.75C1.651 584.643 1 584.584 1 581.441C1 579.66 1.38 579.11 2.25 579.633C3.111 580.15 3.077 579.862 2.138 578.705C1.389 577.781 1.01 576.416 1.296 575.672C1.581 574.928 1.413 573.684 0.923 572.909C0.396 572.077 0.024 607.555 0.015 659.557L0 747.614L96.25 747.809C149.188 747.917 211.625 748.236 235 748.518C266.534 748.899 436.589 750 463.955 750H467L467.015 763.25C467.024 770.648 467.397 775.923 467.859 775.193C468.698 773.872 469.495 464.156 468.658 465.028C467.583 466.147 466.954 517.143 466.89 608.25C466.853 662.013 466.661 706 466.463 706C466.266 706 464.032 702.288 461.499 697.75C458.965 693.212 456.068 688.15 455.061 686.5C450.309 678.716 441.691 663.188 437.465 654.792C434.892 649.682 432.332 644.941 431.777 644.257C431.221 643.573 429.414 640.198 427.76 636.757C426.106 633.316 424.546 631.063 424.293 631.751C423.709 633.339 443.058 670.812 450.844 683.172C454.076 688.302 458.109 695.2 459.808 698.5C461.506 701.8 463.816 705.85 464.941 707.5C466.822 710.259 466.987 712.011 466.993 729.307L467 748.114L425.864 747.807L384.728 747.5L378.001 740.218C374.302 736.213 370.445 731.096 369.431 728.847L367.587 724.758L370.809 721.879C372.582 720.296 373.712 719 373.32 719C372.929 719 371.382 720.176 369.881 721.614L367.153 724.227L365.17 719.864C358.951 706.18 357.484 702.635 354.469 694C352.644 688.775 351.118 685.209 351.076 686.075C351.034 686.941 352.116 690.93 353.479 694.939L355.959 702.229L349.229 701.527C345.528 701.141 342.076 700.418 341.558 699.921C341.04 699.424 340.631 696.875 340.648 694.258L340.679 689.5L340.285 693.75C340.068 696.087 339.55 698 339.133 698C338.717 698 337.352 696.615 336.1 694.921C334.848 693.228 333.575 692.091 333.272 692.395C332.968 692.699 334.332 694.732 336.303 696.914C341.422 702.58 343 706.17 343 712.15C343 715.977 343.299 717.101 344.103 716.297C345.243 715.157 344.93 706.762 343.643 703.939C343.013 702.557 343.696 702.492 349.603 703.375L356.274 704.372L358.732 709.936C365.311 724.835 369.427 732.411 373.818 737.708C376.459 740.894 378.942 744.354 379.335 745.398C380.089 747.398 379.618 747.401 273.5 745.942C266.77 745.85 266.635 745.801 270 744.673C276.313 742.557 281.522 739.242 285.761 734.643C291.849 728.039 292.357 724.25 288.083 717.329C284.228 711.084 269.074 705 257.377 705C251.367 705 250.83 704.469 249.957 697.663L249.335 692.817L252.334 693.417C257.027 694.355 262.7 690.781 270.474 681.988C277.459 674.086 283.942 663.278 283.98 659.471C283.991 658.318 286.814 654.653 290.52 650.98L297.04 644.518L294.415 651.009C289.307 663.634 288.727 666.633 289.209 677.909C289.607 687.23 290.115 689.64 293.446 698C299.93 714.277 302.491 716.759 309.413 713.474C312.743 711.894 312.76 711.899 319.281 716.458C331.054 724.688 336.266 725.605 341.124 720.304L343.5 717.712L341 719.258C336.509 722.035 332.511 722.301 328.215 720.109C319.063 715.44 315.805 710.338 319.572 706.571C321.155 704.988 324.428 705.215 328.25 707.174C329.212 707.667 330 707.841 330 707.561C330 707.281 328.672 706.365 327.05 705.526C321.595 702.705 318.183 703.872 317.15 708.914C316.559 711.798 316.33 711.963 314.639 710.726C312.988 709.518 312.947 709.196 314.273 707.87C315.999 706.144 320 698.578 320 697.04C320 694.42 318.303 696.416 317.27 700.25C315.916 705.281 310.453 711.597 306.626 712.558C303.091 713.445 302.486 712.715 304.371 709.837C305.748 707.735 305.743 706.867 304.319 701.215C302.288 693.15 301.385 693.94 302.979 702.388C304.137 708.527 303.88 711 302.085 711C301.029 711 292 690.445 292 688.041C292 687.01 292.563 685.977 293.25 685.746C295.776 684.896 297.73 686.248 299.867 690.325C301.791 693.995 301.983 694.137 301.454 691.5C300.534 686.915 297.084 683.733 293.754 684.399L291 684.95L291.012 676.225C291.027 665.165 293.701 655.856 302.082 637.684C304.108 633.292 307.991 632.239 320.161 632.78C330.675 633.248 330.842 633.294 333.156 636.354C334.445 638.059 336.719 641.94 338.209 644.977C341.534 651.756 341.902 649.479 338.62 642.432C337.322 639.644 333.164 634.097 329.38 630.106C325.596 626.114 321.69 621.42 320.7 619.674C318.932 616.556 318.911 616.548 319.469 619.25C320.213 622.847 319.293 622.724 312.862 618.368C302.806 611.556 297.502 607.138 295.693 604.067C293.893 601.011 293.895 601 296.193 600.9C298.447 600.803 298.443 600.785 296 600.111C290.787 598.673 292.927 588.844 299.299 584.96C301.901 583.373 304.278 583.017 312 583.057L321.5 583.107L318.088 585.804C316.212 587.287 312.91 590.379 310.752 592.676C308.593 594.973 305.01 597.579 302.789 598.468C300.568 599.357 298.969 600.302 299.236 600.57C300.41 601.743 305.343 598.627 312.497 592.193C317.008 588.136 321.775 584.785 323.973 584.126C329.872 582.359 337.57 582.74 342.04 585.02C345.934 587.007 347.262 589 344.691 589C343.971 589 342.509 589.673 341.441 590.495C339.808 591.754 340.121 591.74 343.418 590.412C346.303 589.249 347.924 589.1 349.563 589.847C350.787 590.405 355.438 595.367 359.897 600.873C368.168 611.086 370 612.933 370 611.059C370 610.477 369.55 610 369 610C368.45 610 368 609.433 368 608.741C368 608.048 367.105 606.922 366.012 606.239C364.918 605.557 362.92 603.249 361.571 601.113C357.559 594.757 349.09 587.145 342.566 584.032C335.526 580.671 333.796 578.975 328.086 569.83C324.895 564.72 324.049 562.498 324.467 560.33L325.012 557.5L323.923 560.25C323.324 561.763 322.083 562.982 321.167 562.961C320.25 562.939 313.087 560.764 305.25 558.127C297.413 555.491 291 553.474 291 553.646C291 554.744 306.417 561.153 312.75 562.688C313.988 562.988 315 563.562 315 563.964C315 564.366 313.988 565.183 312.75 565.78C310.911 566.666 310.826 566.877 312.285 566.932C313.756 566.988 313.882 567.352 313 569C312.411 570.1 311.158 571.007 310.215 571.015C308.884 571.027 308.801 571.221 309.844 571.883C312.684 573.683 306.116 582 301.854 582C299.008 582 294.104 586.919 292.881 591.003C292.084 593.664 290.433 595.786 287.549 597.857C283.387 600.846 274.75 605.101 270 606.503C268.625 606.909 263.794 608.996 259.265 611.142C253.549 613.849 250.598 615.878 249.619 617.771C247.902 621.095 245.575 629.062 245.851 630.672C245.961 631.316 245.253 632.051 244.276 632.306C242.744 632.704 242.775 632.786 244.5 632.899C246.167 633.009 246.251 633.192 245 634C244 634.646 243.917 634.974 244.75 634.985C245.438 634.993 246 635.9 246 637C246 638.111 245.333 639 244.5 639C243.675 639 243 639.436 243 639.969C243 640.501 243.675 640.678 244.5 640.362C245.45 639.997 246 640.375 246 641.393C246 642.534 245.072 643 242.8 643C239.185 643 240.008 644.563 244 645.279C246.133 645.662 246.032 645.748 243.309 645.864C240.292 645.993 237.407 647.983 240.191 648.015C241.142 648.026 241.09 648.296 240 649C238.885 649.721 239.527 649.999 242.5 650.084C245.988 650.185 246.18 650.302 244 651C241.602 651.768 241.591 651.805 243.75 651.9C244.988 651.955 246 652.398 246 652.883C246 653.369 244.988 654.084 243.75 654.472L241.5 655.178L244 655.936L246.5 656.695L244 657.211L241.5 657.728L244 657.909C246.482 658.089 246.479 658.101 243.5 659.549L240.5 661.009L243.25 660.643C245.577 660.334 246 660.641 246 662.639C246 664.194 245.403 665.024 244.25 665.07C242.769 665.13 242.807 665.261 244.5 665.922C246.385 666.659 246.357 666.75 244 667.5C241.643 668.25 241.615 668.341 243.5 669.078C244.6 669.508 244.963 669.891 244.307 669.93C243.651 669.968 243.266 670.788 243.45 671.75C243.634 672.712 243.405 675.892 242.942 678.816C242.387 682.317 242.479 685.048 243.211 686.816C243.823 688.292 244.259 689.81 244.182 690.189C244.104 690.568 245.044 691.21 246.27 691.615C248.499 692.352 248.499 692.353 246 693.077C243.619 693.766 243.608 693.805 245.75 693.9C248.494 694.022 248.785 696 246.059 696C244.991 696 243.84 696.45 243.5 697C243.139 697.583 244.156 698 245.941 698C247.623 698 249 698.47 249 699.044C249 699.618 248.438 700.015 247.75 699.925C244.255 699.472 242.847 700.336 246 701C249.065 701.645 249.165 701.753 246.809 701.868C242.495 702.079 242.39 703.998 246.691 704.015C249.519 704.027 250.113 704.28 249 705C247.698 705.842 247.716 705.971 249.142 705.985C250.066 705.993 251.067 707.129 251.432 708.586C252.641 713.403 270.207 729.764 273.125 728.792C273.69 728.603 272.206 727.008 269.827 725.247C265.061 721.72 261.483 718.52 258.635 715.238L256.77 713.088L260.635 713.621C271.491 715.118 275.257 716.287 278.56 719.187C285.766 725.514 281.322 731.556 265.055 737.55C262.322 738.556 262.018 738.875 263.739 738.93C267.448 739.046 278.533 734.097 281.501 730.999C283.85 728.547 284.186 727.531 283.679 724.407C283.349 722.375 282.083 719.653 280.865 718.357C277.379 714.646 279.542 715.609 283.433 719.5C285.358 721.425 287.398 723 287.967 723C290.862 723 287.255 730.643 282.213 735.193C276.72 740.15 273.575 741.653 263.788 743.999C256.786 745.678 251.986 745.987 232.86 745.993C200.299 746.003 188.316 743.237 181.022 734.028C175.347 726.862 177.363 721.667 188.613 714.471C193.664 711.24 207.003 707 212.117 707C216.182 707 212.709 708.635 206.204 709.784C202.741 710.396 197.518 711.99 194.598 713.327C188.005 716.345 180 723.804 180 726.929C180 730.459 185.879 735.587 192.053 737.442C205.373 741.445 238.294 743.375 253.856 741.065C263.565 739.624 262.643 738.649 252.5 739.63C229.832 741.822 195.195 738.521 187.264 733.412C186.034 732.62 184.29 730.846 183.389 729.471C181.821 727.079 181.871 726.793 184.525 722.964C187.512 718.654 195.607 714.123 204.148 711.98C211 710.261 213.505 711.105 208.601 713.481C205.249 715.104 204.969 715.476 206.601 716.126C208.377 716.834 208.354 716.927 206.25 717.558C205.012 717.93 204 718.631 204 719.117C204 719.602 202.762 720.032 201.25 720.07C199.738 720.109 197.6 720.527 196.5 721C194.651 721.795 194.688 721.874 197 722.048C199.355 722.226 199.326 722.281 196.5 723C194.85 723.42 194.089 723.817 194.809 723.882C195.529 723.947 195.84 724.45 195.5 725C195.159 725.552 195.875 726 197.096 726C199.247 726 199.258 726.057 197.5 728C196.006 729.651 195.953 730 197.2 730C199.282 730 208.064 720.516 212.877 713.068C219.357 703.043 220.279 697.093 220.15 666.12C220.09 651.611 219.577 637.211 219.01 634.12C217.821 627.636 215.597 619.985 214.077 617.143C212.648 614.474 207.227 611.257 201.086 609.433C198.289 608.602 196 607.586 196 607.174C196 606.762 194.561 606.316 192.802 606.182C187.149 605.751 188.471 605.003 195.083 604.891C198.613 604.832 204.2 604.448 207.5 604.038C212.192 603.456 210.188 603.262 198.309 603.147C189.271 603.06 182.864 602.589 182.49 601.985C182.078 601.318 184.205 601.138 188.681 601.46C193.264 601.789 194.68 601.663 193 601.075C191.625 600.593 187.775 600.155 184.444 600.1C179.842 600.024 177.657 599.46 175.339 597.75C173.662 596.512 172.337 595.124 172.395 594.665C172.453 594.205 170.925 593.108 169 592.226L165.5 590.623L170 589.962L174.5 589.3L170.5 589.135C166.393 588.965 161.642 587.047 165.25 587.015C168.472 586.987 167.044 585.001 163.75 584.93C161.026 584.871 160.824 584.72 162.5 584C164.336 583.211 164.295 583.134 162 583.055C160.009 582.987 159.805 582.772 161 582C162.219 581.212 162.09 581.028 160.309 581.015C159.104 581.007 157.84 580.55 157.5 580C157.16 579.45 157.584 579 158.441 579C160.433 579 160.478 577.086 158.5 576.469C153.379 574.869 153.479 574.941 155.028 573.962C156.253 573.187 156.196 573.028 154.691 573.015C153.696 573.007 153.16 572.55 153.5 572C153.84 571.45 153.529 570.993 152.809 570.985C151.858 570.974 151.91 570.704 153 570C154.286 569.169 154.253 569.028 152.77 569.015C149.127 568.983 144.701 556.339 142.46 539.564C141.025 528.811 140.456 510 141.567 510C141.878 510 143.566 511.057 145.317 512.349C156.215 520.392 181.24 524.351 221.747 524.441C244.792 524.493 247.995 524.69 247.997 526.054C248.002 528.655 253.428 536.353 258.094 540.377C263.541 545.076 269.448 548.14 278.355 550.886C287.904 553.831 288.737 553.713 289.9 549.25C291.515 543.057 292.233 537.31 291.182 539C290.669 539.825 289.936 542.664 289.554 545.308C289.134 548.218 288.253 550.35 287.322 550.707C286.476 551.031 283.322 550.521 280.314 549.573C275.938 548.193 274.974 547.514 275.492 546.174C275.848 545.253 276.342 543.15 276.589 541.5C276.975 538.921 276.823 539.051 275.511 542.425C274.671 544.584 273.829 546.504 273.641 546.693C273.152 547.182 266.2 543.939 261.495 541.027C256.904 538.186 254.943 536.111 251.517 530.473C248.622 525.706 249.023 523.008 252.976 520.674C258.393 517.473 277.374 518.911 298.231 524.101C304.682 525.706 315.328 527.92 321.888 529.021C344.987 532.898 348.642 535.149 364.071 555C366.85 558.575 376.009 568.475 384.426 577C400.888 593.674 407.897 602.329 414.187 613.75C416.384 617.737 418.59 621 419.09 621C420.416 621 420.408 620.981 415.471 612.056C408.965 600.293 402.649 592.478 385.93 575.5C377.806 567.25 367.309 555.694 362.604 549.82C357.9 543.946 352.577 538.019 350.775 536.649C346.452 533.36 338.026 530.09 330.044 528.602L323.588 527.399L323.88 509.315C324.204 489.182 323.785 487.349 317.809 482.818C310.369 477.177 298.046 474.336 268.5 471.449C256.805 470.306 252.187 469.478 251.338 468.372C250.699 467.54 249.84 462.503 249.429 457.179C248.411 443.974 248.312 393.387 249.296 388.748C250.653 382.348 253.158 380.746 275.5 371.995C284.981 368.281 291.828 363.906 300.008 356.333C311.723 345.486 317.665 333.334 320.952 313.5C321.59 309.65 322.27 305.712 322.463 304.75C322.919 302.467 322.084 302.591 312.086 306.283ZM172.115 306C172.069 307.375 172.467 309.175 173 310C173.862 311.333 173.96 311.333 173.885 310C173.839 309.175 173.44 307.375 173 306L172.199 303.5L172.115 306ZM461.278 309.25C459.324 311.777 458.657 313.33 459.84 312.599C461.024 311.867 463.393 308 462.658 308C462.431 308 461.81 308.563 461.278 309.25ZM130.139 315.5C130.146 316.6 130.789 319.075 131.567 321L132.982 324.5L132.362 321C132.02 319.075 131.377 316.6 130.934 315.5L130.127 313.5L130.139 315.5ZM138.031 319.5C138.031 320.05 138.467 321.175 139 322C139.533 322.825 139.969 323.05 139.969 322.5C139.969 321.95 139.533 320.825 139 320C138.467 319.175 138.031 318.95 138.031 319.5ZM107 356.511C109.475 357.967 112.29 359.869 113.256 360.739C114.222 361.609 115.234 362.1 115.504 361.829C116.219 361.114 107.943 355.393 105 354.567C103.568 354.165 104.423 354.996 107 356.511ZM173 359.019C173 359.559 175.325 360 178.167 360C184.365 360 184.212 359.506 177.75 358.66C174.889 358.286 173 358.428 173 359.019ZM183.75 362.706C184.988 362.944 187.012 362.944 188.25 362.706C189.488 362.467 188.475 362.272 186 362.272C183.525 362.272 182.512 362.467 183.75 362.706ZM116.638 364.5C116.955 365.325 117.671 366 118.229 366C118.815 366 118.718 365.365 118 364.5C117.315 363.675 116.599 363 116.409 363C116.219 363 116.322 363.675 116.638 364.5ZM72.97 371.944C73.543 373.014 74.505 374.194 75.109 374.567C75.713 374.941 75.434 374.066 74.489 372.623C72.487 369.568 71.451 369.105 72.97 371.944ZM61 389.21C54.7 393.579 45.929 400.818 43.201 403.902C38.303 409.435 38.986 410.214 44.104 404.933C47.072 401.871 53.1 396.742 57.5 393.535C66.913 386.673 67.737 385.984 66.45 386.045C65.927 386.069 63.475 387.494 61 389.21ZM145.079 387.583C145.127 388.748 145.364 388.985 145.683 388.188C145.972 387.466 145.936 386.603 145.604 386.271C145.272 385.939 145.036 386.529 145.079 387.583ZM231 397C231 397.55 231.45 398 232 398C232.55 398 233 397.55 233 397C233 396.45 232.55 396 232 396C231.45 396 231 396.45 231 397ZM231.553 401.915C231.231 402.436 231.394 403.125 231.915 403.447C232.436 403.769 233.125 403.606 233.447 403.085C233.769 402.564 233.606 401.875 233.085 401.553C232.564 401.231 231.875 401.394 231.553 401.915ZM232 408C232 408.55 232.45 409 233 409C233.55 409 234 408.55 234 408C234 407.45 233.55 407 233 407C232.45 407 232 407.45 232 408ZM243.813 413.683C244.534 413.972 245.397 413.936 245.729 413.604C246.061 413.272 245.471 413.036 244.417 413.079C243.252 413.127 243.015 413.364 243.813 413.683ZM123.667 414.667C123.3 415.033 123 417 123 419.037C123 422.561 122.787 422.8 118.596 423.973C116.174 424.651 111.925 425.047 109.153 424.853L104.114 424.5L101.991 430.5C100.824 433.8 99.673 437.85 99.433 439.5C99.016 442.373 99.054 442.352 100.336 439L101.674 435.5L111.087 435.246C121.294 434.971 124.038 435.789 127.201 440.052C129.262 442.829 129.302 443.283 128.387 453.25C127.928 458.247 128.085 460 128.992 460C129.791 460 130.004 459.152 129.605 457.564C128.683 453.889 130.828 445.174 134.173 439C136.77 434.208 136.844 433.874 134.748 436.404L132.343 439.308L129.766 434.698C126.166 428.256 123.715 420.398 124.223 416.931C124.689 413.761 124.666 413.668 123.667 414.667ZM231.543 414.931C231.226 415.443 231.425 416.144 231.984 416.49C233.177 417.227 235 416.291 235 414.941C235 413.724 232.293 413.716 231.543 414.931ZM119 425.757C116.525 426.504 112.358 426.93 109.741 426.704C105.13 426.305 104.956 426.389 104.173 429.396L103.364 432.5L112.932 433.063C123.752 433.699 126.271 434.696 128.651 439.28C129.57 441.051 130.501 441.971 130.72 441.323C130.939 440.676 129.887 438.201 128.383 435.823C126.88 433.446 125.166 429.902 124.575 427.949L123.5 424.399L119 425.757ZM233 427C233 427.55 233.477 428 234.059 428C234.641 428 234.84 427.55 234.5 427C234.16 426.45 233.684 426 233.441 426C233.198 426 233 426.45 233 427ZM242.5 428C242.16 428.55 242.359 429 242.941 429C243.523 429 244 428.55 244 428C244 427.45 243.802 427 243.559 427C243.316 427 242.84 427.45 242.5 428ZM197.563 430.696C196.738 432.846 202.972 451.135 204.259 450.34C205.497 449.575 204.49 443.16 201.891 435.25C199.787 428.847 198.708 427.712 197.563 430.696ZM176.564 436.707C176.022 438.132 176.136 438.247 177.124 437.267C177.808 436.588 178.115 435.781 177.807 435.474C177.499 435.166 176.94 435.721 176.564 436.707ZM232.651 438.468C231.945 440.306 233.82 441.58 235.2 440.2C236.267 439.133 235.5 437 234.048 437C233.589 437 232.96 437.661 232.651 438.468ZM124.269 444.693C125.242 444.947 126.592 444.93 127.269 444.656C127.946 444.382 127.15 444.175 125.5 444.195C123.85 444.215 123.296 444.439 124.269 444.693ZM233 445C233 445.55 233.45 446 234 446C234.55 446 235 445.55 235 445C235 444.45 234.55 444 234 444C233.45 444 233 444.45 233 445ZM96.571 451.571C96.204 453.037 96.096 454.429 96.331 454.665C96.567 454.9 97.061 453.894 97.429 452.429C97.796 450.963 97.904 449.571 97.669 449.335C97.433 449.1 96.939 450.106 96.571 451.571ZM233 450C233 450.55 233.45 451 234 451C234.55 451 235 450.55 235 450C235 449.45 234.55 449 234 449C233.45 449 233 449.45 233 450ZM108.065 454.5C107.888 456.7 107.689 460.075 107.622 462L107.5 465.5L100.706 466.372C96.969 466.852 93.701 467.034 93.443 466.776C93.185 466.518 93.655 464.677 94.487 462.686C95.319 460.694 95.974 458.262 95.942 457.282C95.909 456.302 94.565 458.875 92.955 463C91.344 467.125 89.595 471.4 89.068 472.5C88.541 473.6 87.142 476.75 85.96 479.5C79.447 494.654 74.912 501.562 64.063 512.856C61.762 515.252 60.151 517.484 60.484 517.817C60.816 518.15 62.177 517.089 63.508 515.461C66.174 512.199 66.741 513.08 64.5 517C63.714 518.375 63.064 520.625 63.057 522C63.047 523.65 64.271 521.809 66.656 516.588C68.643 512.237 72.367 506.073 74.931 502.891C79.806 496.841 81.049 494.618 88.339 478.905L92.791 469.31L99.145 468.27C102.64 467.698 105.649 467.365 105.831 467.529C106.013 467.694 105.676 468.738 105.081 469.849C103.71 472.411 103.669 480.677 105.024 481.515C105.69 481.927 105.839 480.814 105.451 478.324C104.979 475.304 105.467 473.291 107.772 468.75C109.377 465.587 110.332 463 109.893 463C109.454 463 108.936 460.188 108.74 456.75C108.469 451.976 108.31 451.445 108.065 454.5ZM233.583 454.866C233.152 455.563 233.07 456.403 233.4 456.733C234.295 457.628 235.271 456.312 234.787 454.862C234.449 453.846 234.213 453.846 233.583 454.866ZM113 459.5C111.708 460.875 111.067 461.986 111.576 461.969C112.431 461.94 116.552 457 115.721 457C115.516 457 114.292 458.125 113 459.5ZM145.459 462.632C145.108 464.209 144.378 466.955 143.838 468.734C142.837 472.03 143.457 476 144.974 476C145.435 476 145.595 475.166 145.328 474.148C145.062 473.129 145.328 469.678 145.919 466.478C147.011 460.572 146.629 457.377 145.459 462.632ZM233 465.353C233 465.612 232.35 469.222 231.555 473.374C229.961 481.709 229.096 483.733 224.771 489.25C222.776 491.796 222.291 493 223.261 493C224.047 493 225.382 492.212 226.229 491.25C228.392 488.79 232.199 481.068 233.009 477.5L233.69 474.5L235.083 477.421C236.122 479.599 236.176 480.441 235.294 480.735C233.78 481.24 234.799 484 236.5 484C237.207 484 238.045 484.675 238.362 485.5C238.759 486.536 238.296 487 236.862 487C235.469 487 234.967 487.472 235.337 488.435C235.64 489.225 235.35 490.089 234.694 490.356C234.037 490.624 235.445 490.878 237.821 490.921C240.233 490.965 242.806 491.663 243.643 492.5C244.468 493.325 245.877 494 246.774 494C247.93 494 247.35 492.906 244.787 490.25C241.024 486.351 236.389 476.286 235.343 469.742C235.01 467.659 234.346 465.714 233.869 465.419C233.391 465.124 233 465.094 233 465.353ZM121.25 470.745C119.463 471.635 118 472.742 118 473.204C118 473.667 119.013 473.414 120.25 472.642C121.487 471.87 123.739 470.951 125.253 470.599C127.605 470.053 128.295 470.436 129.999 473.23C131.095 475.029 131.994 475.813 131.996 474.973C132.003 472.355 128.989 468.997 126.693 469.064C125.487 469.099 123.037 469.856 121.25 470.745ZM209 472.705C193.959 475.305 178.749 484.537 177.985 491.531C177.588 495.16 177.981 496.024 182.023 500.409C190.024 509.09 202.473 511.969 233.059 512.213C251.435 512.359 254.359 512.147 262 510.113C277.193 506.068 283.982 501.802 287.445 494.123L289.238 490.147L286.664 487.573C285.249 486.158 283.869 485 283.597 485C282.321 485 278 480.086 278 478.635C278 477.736 277.832 477 277.627 477C277.421 477 273.709 476.107 269.377 475.015C261.37 472.998 253.988 472.39 254.015 473.75C254.058 475.863 256.115 476.752 262.262 477.311C272.324 478.227 276.625 479.842 280.537 484.172C285.034 489.151 285.093 492.572 280.75 496.689C274.19 502.908 262.088 506.328 242.293 507.557C223.732 508.71 195.637 505.35 186.903 500.934C182.975 498.948 180 495.164 180 492.153C180 489.904 187.073 482.531 191.353 480.317C196.396 477.71 205.151 475 208.534 475C210.306 475 212.315 474.325 213 473.5C214.348 471.876 214.09 471.825 209 472.705ZM114 476.089C111.846 477.851 111.804 477.986 113.694 477.062C114.901 476.472 116.165 475.542 116.503 474.995C117.406 473.534 116.8 473.799 114 476.089ZM177.86 475.975C164.227 478.07 155.406 480.811 147.906 485.282C143.381 487.98 142.449 489.028 142.19 491.707C141.848 495.236 143.42 499 145.235 499C146.102 499 146.093 498.693 145.2 497.8C143.168 495.768 143.862 492.126 146.885 488.963C150.841 484.823 163.171 480.504 178.225 477.986C190.703 475.898 197.148 474.108 192 474.161C190.625 474.175 184.262 474.991 177.86 475.975ZM279.505 474.992C279.295 475.332 280.703 476.462 282.634 477.502C286.759 479.724 291 486.408 291 490.688C291 494.143 286.638 500.697 282.56 503.369C281.057 504.354 280.034 505.367 280.287 505.621C281.55 506.883 308.054 499.173 310.5 496.832C311.05 496.305 310.2 496.365 308.611 496.965C304.748 498.424 304.092 497.526 307.657 495.659C312.26 493.248 314.998 490.112 315.032 487.211C315.062 484.673 315.153 484.618 316.463 486.347C317.233 487.363 317.592 488.899 317.261 489.761C316.895 490.717 317.072 491.074 317.716 490.676C318.316 490.304 318.977 491.097 319.248 492.515C319.796 495.382 317.001 498.914 312.231 501.381C308.61 503.253 296.26 506.731 286.5 508.627C279.81 509.926 279.745 509.965 285.017 509.512C298.628 508.341 315.326 502.167 319.278 496.844C326.032 487.747 315.763 480.427 290.194 476.112C284.526 475.155 279.716 474.651 279.505 474.992ZM171.5 480.916C155.139 484.417 147 488.842 147 494.236C147 496.079 147.897 498.325 149.174 499.686C150.793 501.408 150.972 502 149.874 502C149.063 502 147.794 501.438 147.053 500.75C145.975 499.749 145.848 499.751 146.417 500.757C148.122 503.776 161.339 508.33 173 509.915C183.083 511.286 200.607 512.181 196 511.09C194.075 510.634 190.827 509.527 188.782 508.631C186.737 507.734 184.262 507.032 183.282 507.07C181.721 507.132 181.748 507.247 183.5 508C185.008 508.648 184.394 508.859 181 508.859C174.878 508.859 170.885 507.201 176.5 506.991C180.292 506.849 180.181 506.772 174.369 505.507C167.753 504.069 160.752 500.93 162.695 500.274C163.352 500.052 164.833 500.376 165.988 500.993C169.168 502.695 182.911 505.156 180.877 503.659C178.188 501.681 175.008 495.689 175.004 492.594C175.002 490.979 176.19 488.128 177.681 486.173C179.156 484.24 179.944 482.914 179.431 483.228C178.919 483.541 173.775 484.79 168 486.003C162.225 487.217 156.276 488.842 154.78 489.615C151.103 491.515 149.618 494.417 151 497C151.852 498.591 151.76 499 150.554 499C148.672 499 147.369 494.252 148.66 492.095C150.35 489.271 158.213 486.105 170 483.503C176.325 482.106 182.4 480.553 183.5 480.05C186.855 478.516 180.607 478.967 171.5 480.916ZM77 481.378C77 481.585 77.787 482.373 78.75 483.128C80.336 484.371 80.371 484.336 79.128 482.75C77.821 481.084 77 480.555 77 481.378ZM75.932 485.237C77.819 487.29 79.582 488.752 79.848 488.485C80.115 488.218 80.144 487.887 79.912 487.75C79.68 487.613 77.917 486.151 75.995 484.502L72.5 481.504L75.932 485.237ZM311.273 486.971C311.273 490.346 311.508 490.824 312.687 489.845C314.291 488.514 314.077 483.843 312.386 483.289C311.692 483.061 311.273 484.446 311.273 486.971ZM153.2 492.2C151.388 494.012 151.757 497.362 154.038 499.811C156.892 502.874 163.394 506.013 166.71 505.93C169.288 505.864 169.203 505.75 165.591 504.427C161.15 502.8 155.126 498.492 154.307 496.357C154.005 495.57 154.557 494.042 155.534 492.963C156.955 491.392 157.019 491 155.855 491C155.055 491 153.86 491.54 153.2 492.2ZM318.5 500.572C310.53 506.974 288.061 512.326 261.987 514.035C244.526 515.179 198.75 514.556 181.727 512.943C162.789 511.148 147.878 506.515 144.513 501.38C142.151 497.774 140.846 498.473 141.193 503.159C141.466 506.856 142.026 507.679 146.232 510.571C154.854 516.5 167.44 519.521 196.338 522.601C207.723 523.814 216.104 524.056 229.982 523.573C248.338 522.934 248.483 522.911 251.296 520.215C254.015 517.608 254.533 517.504 264.314 517.599C269.916 517.653 278.325 517.854 283 518.044C292.82 518.444 301.833 516.304 314.344 510.603C321.566 507.312 324.423 505.133 320 506.29C317.289 506.999 317.462 505.565 320.25 504.22C321.488 503.624 321.882 503.105 321.128 503.068C320.036 503.014 320.004 502.7 320.972 501.534C323.232 498.81 321.522 498.145 318.5 500.572ZM284.75 506.662C285.438 506.94 286.563 506.94 287.25 506.662C287.938 506.385 287.375 506.158 286 506.158C284.625 506.158 284.063 506.385 284.75 506.662ZM278.25 507.689C279.212 507.941 280.788 507.941 281.75 507.689C282.712 507.438 281.925 507.232 280 507.232C278.075 507.232 277.288 507.438 278.25 507.689ZM316.5 511.637C313.75 512.933 307.675 515.183 303 516.638C298.325 518.092 293.825 519.505 293 519.778C290.99 520.443 298.74 522.786 307.5 524.161C313.413 525.089 315.093 525.01 318.322 523.651C320.424 522.766 321.876 521.609 321.549 521.08C321.197 520.509 319.236 520.898 316.727 522.037C314.402 523.093 311.825 523.945 311 523.932C310.175 523.919 312.383 522.575 315.907 520.944C319.431 519.314 322.018 517.684 321.656 517.322C321.293 516.96 319.873 517.265 318.5 518C317.127 518.735 315.736 519.069 315.409 518.742C315.082 518.415 316.153 517.455 317.79 516.609C320.242 515.34 322.989 510.486 321.799 509.522C321.634 509.389 319.25 510.341 316.5 511.637ZM272.264 510.718C273.784 510.947 276.034 510.941 277.264 510.704C278.494 510.467 277.25 510.279 274.5 510.286C271.75 510.294 270.744 510.488 272.264 510.718ZM265.75 511.662C266.438 511.94 267.563 511.94 268.25 511.662C268.938 511.385 268.375 511.158 267 511.158C265.625 511.158 265.063 511.385 265.75 511.662ZM55.956 521.547C54.64 522.947 51.175 525.936 48.256 528.188C45.337 530.44 43.166 532.5 43.432 532.765C44.025 533.358 59 520.868 59 519.78C59 518.545 58.508 518.83 55.956 521.547ZM318.25 524.662C316.275 525.459 316.795 526.891 319 526.725C320.1 526.642 321 525.995 321 525.287C321 523.95 320.37 523.807 318.25 524.662ZM59.954 528.086C58.668 530.49 59.641 532.181 61.039 529.971C62.02 528.42 62.322 526 61.535 526C61.28 526 60.568 526.939 59.954 528.086ZM317.5 551C316.499 554.307 315.914 557.247 316.2 557.534C316.487 557.82 317.494 555.302 318.438 551.938C320.672 543.973 319.871 543.171 317.5 551ZM313.571 552.571C313.204 554.037 313.096 555.429 313.331 555.665C313.567 555.9 314.061 554.894 314.429 553.429C314.796 551.963 314.904 550.571 314.669 550.335C314.433 550.1 313.939 551.106 313.571 552.571ZM35 556C35.589 557.1 36.295 558 36.57 558C36.845 558 36.589 557.1 36 556C35.411 554.9 34.705 554 34.43 554C34.155 554 34.411 554.9 35 556ZM309.667 554.667C309.3 555.033 309.014 556.046 309.03 556.917C309.055 558.217 309.251 558.174 310.122 556.675C311.199 554.823 310.887 553.447 309.667 554.667ZM313.5 572.461L309.5 580.854L312.375 581.427C316.212 582.192 326.971 582.156 330.923 581.365C334.067 580.737 334.079 580.712 332.229 578.615C331.202 577.452 328.593 573.691 326.431 570.259C323.301 565.289 321.991 564.023 320 564.042C317.857 564.064 316.928 565.266 313.5 572.461ZM0.479 660C0.479 708.675 0.601 728.588 0.75 704.25C0.899 679.913 0.899 640.088 0.75 615.75C0.601 591.413 0.479 611.325 0.479 660ZM168 586C168 586.55 168.45 587 169 587C169.55 587 170 586.55 170 586C170 585.45 169.55 585 169 585C168.45 585 168 585.45 168 586ZM335.306 594.468C333.763 595.826 332.984 596.951 333.576 596.968C334.167 596.986 335.708 595.875 337 594.5C340.019 591.286 338.946 591.266 335.306 594.468ZM177 594.009C179.475 594.427 181.928 594.37 182.45 593.884C183.008 593.365 181.15 593.052 177.95 593.125L172.5 593.25L177 594.009ZM181.114 596.447C182.146 597.48 188 597.962 188 597.014C188 596.456 186.35 596 184.333 596C182.317 596 180.868 596.201 181.114 596.447ZM330.667 598.667C330.3 599.033 330 599.798 330 600.367C330 600.993 330.466 600.934 331.183 600.217C331.834 599.566 332.134 598.801 331.85 598.517C331.566 598.232 331.033 598.3 330.667 598.667ZM288.467 600.053C287.664 601.353 279.155 605.197 268.359 609.138C258.176 612.856 251.296 617.162 249.819 620.742C249.176 622.301 248.521 631.107 248.312 641C247.888 661.11 247.124 660.768 257.256 645C273.539 619.656 278.274 612.953 284.628 606.25C288.408 602.263 290.965 599 290.309 599C289.654 599 288.825 599.474 288.467 600.053ZM289.163 603.517C285.286 606.779 272.687 623.372 267.025 632.672C264.739 636.427 261.109 642.2 258.957 645.5C256.805 648.8 253.924 653.596 252.553 656.157C250.186 660.579 250.14 660.973 251.631 663.962C253.033 666.772 253.042 667.559 251.72 671.305C250.905 673.612 249.24 678.324 248.019 681.776C245.465 688.996 245.984 690.399 251.6 691.453C254.373 691.973 256.064 691.566 259.498 689.554C261.901 688.146 264.152 686.095 264.501 684.997C264.85 683.899 265.667 682.979 266.317 682.953C267.602 682.901 275.508 673.423 277.834 669.146C281.656 662.117 282.294 660.448 282.996 655.655C283.411 652.82 283.807 651.288 283.875 652.25C284.086 655.203 285.602 654.264 291.947 647.25C300.5 637.794 303.099 633.761 303.314 629.609C303.416 627.629 303.896 626.007 304.381 626.004C304.865 626.002 305.006 627.575 304.694 629.5C304.381 631.425 304.352 633 304.629 633C306.209 633 309.235 630.566 309.993 628.685L310.873 626.5L310.937 628.705C311.013 631.369 314.621 632.276 323.286 631.811L329.072 631.5L325.416 627.744C323.405 625.678 319.863 623.148 317.545 622.123C309.773 618.685 295.889 607.546 293.304 602.674C292.396 600.963 292.135 601.016 289.163 603.517ZM372.872 609.75C371.629 611.336 371.664 611.371 373.25 610.128C374.916 608.821 375.445 608 374.622 608C374.415 608 373.627 608.788 372.872 609.75ZM371 612.656C371 613.905 379.925 620.408 380.648 619.686C380.937 619.396 379.897 618.366 378.337 617.395C376.777 616.425 374.488 614.735 373.25 613.641C372.012 612.547 371 612.104 371 612.656ZM382.55 621.827C383.072 622.282 386.65 624.859 390.5 627.554C394.35 630.249 400.382 635.378 403.906 638.952C407.429 642.526 409.748 644.397 409.059 643.11C407.171 639.582 398.378 631.528 390.337 625.96C386.397 623.232 382.819 621 382.387 621C381.954 621 382.028 621.372 382.55 621.827ZM419.316 623.25C421.042 627.324 422.595 629.985 423.25 629.992C424.488 630.005 424.104 627.985 422.284 624.904C420.611 622.071 418.261 620.762 419.316 623.25ZM231 637C231 637.55 231.423 638 231.941 638C232.459 638 233.16 637.55 233.5 637C233.84 636.45 233.416 636 232.559 636C231.702 636 231 636.45 231 637ZM232 642C232 642.55 232.45 643 233 643C233.55 643 234 642.55 234 642C234 641.45 233.55 641 233 641C232.45 641 232 641.45 232 642ZM323.079 645.583C323.127 646.748 323.364 646.985 323.683 646.188C323.972 645.466 323.936 644.603 323.604 644.271C323.272 643.939 323.036 644.529 323.079 645.583ZM231.459 649.067C230.539 650.556 231.606 651.365 233.52 650.631C234.404 650.292 234.847 649.561 234.504 649.007C233.694 647.696 232.289 647.723 231.459 649.067ZM324.17 649C324.186 649.825 324.56 651.625 325 653C325.644 655.01 325.806 655.108 325.83 653.5C325.846 652.4 325.473 650.6 325 649.5C324.473 648.275 324.152 648.081 324.17 649ZM322.549 661.75C321.662 664.362 319.869 668.238 318.564 670.361L316.192 674.222L314.46 671.58C313.508 670.127 312.516 669.151 312.255 669.411C311.995 669.672 312.656 671.148 313.725 672.692C316.931 677.324 319.157 684.13 319.287 689.703C319.356 692.642 319.753 694.414 320.19 693.727C321.27 692.027 321.19 687.149 320.016 683.055C319.177 680.132 319.399 678.995 321.511 675.392C323.224 672.468 324.879 670.966 326.868 670.529C330.772 669.672 345.954 669.624 346.811 670.467C347.19 670.839 348.066 672.574 348.758 674.322C350.844 679.594 349.474 673.437 346.891 665.933L344.631 659.366L339.386 659.801C336.096 660.074 332.37 659.633 329.392 658.618C326.781 657.728 324.535 657 324.402 657C324.269 657 323.435 659.138 322.549 661.75ZM324.039 663.383C323.38 665.648 321.752 669.178 320.421 671.229C317.013 676.477 317.397 678.133 320.9 673.297C324.181 668.767 326.66 668.029 338.656 668.011L345.813 668L344.758 664.565C343.722 661.187 343.626 661.138 339.102 661.635C336.45 661.926 332.538 661.531 329.868 660.704L325.237 659.267L324.039 663.383ZM233 662C233 662.55 233.45 663 234 663C234.55 663 235 662.55 235 662C235 661.45 234.55 661 234 661C233.45 661 233 661.45 233 662ZM242.813 662.683C243.534 662.972 244.397 662.936 244.729 662.604C245.061 662.272 244.471 662.036 243.417 662.079C242.252 662.127 242.015 662.364 242.813 662.683ZM248.677 664.734C245.959 669.248 242.5 688.046 244.865 685.45C246.408 683.757 251 670.536 251 667.788C251 665.143 249.566 663.257 248.677 664.734ZM233 667C233 667.55 233.45 668 234 668C234.55 668 235 667.55 235 667C235 666.45 234.55 666 234 666C233.45 666 233 666.45 233 667ZM232.543 672.931C231.803 674.128 233.684 675.313 235.016 674.49C236.135 673.799 235.4 672 234 672C233.515 672 232.859 672.419 232.543 672.931ZM269.031 673C269.031 673.825 269.467 675.175 270 676C270.862 677.333 270.969 677.333 270.969 676C270.969 675.175 270.533 673.825 270 673C269.138 671.667 269.031 671.667 269.031 673ZM233 679C233 679.55 233.45 680 234 680C234.55 680 235 679.55 235 679C235 678.45 234.55 678 234 678C233.45 678 233 678.45 233 679ZM233 690C233 690.55 233.45 691 234 691C234.55 691 235 690.55 235 690C235 689.45 234.55 689 234 689C233.45 689 233 689.45 233 690ZM233 699.353C233 699.612 232.353 703.208 231.561 707.343C229.96 715.711 228.024 720.162 224.209 724.24C220.943 727.73 222.141 729.14 225.636 725.921C228.459 723.321 232.974 714.621 232.99 711.75C232.996 710.788 233.45 710 234 710C235.046 710 235.439 711.986 235.126 715.699C235.01 717.067 235.771 718.342 237.138 719.074L239.336 720.25L236.918 721.59C235.588 722.326 234.95 722.952 235.5 722.98C236.05 723.008 235.825 723.467 235 724C233.835 724.753 234.169 725.007 236.5 725.137C241.216 725.4 241.367 725.443 243.914 727.227C247.665 729.855 248.759 727.997 245.207 725.032C241.507 721.943 236.493 711.474 235.481 704.722C235.09 702.112 234.371 699.729 233.885 699.429C233.398 699.128 233 699.094 233 699.353ZM253.85 708.72C254.711 710.328 256.629 710.944 263.562 711.839C268.313 712.452 273.467 713.586 275.015 714.358C277.578 715.636 277.873 715.595 278.318 713.893C278.71 712.394 277.985 711.815 274.653 710.964C272.369 710.38 269.258 709.496 267.74 709C266.222 708.503 262.234 707.786 258.879 707.407C252.991 706.741 252.815 706.786 253.85 708.72ZM332 709.378C332 709.585 332.788 710.373 333.75 711.128C335.336 712.371 335.371 712.336 334.128 710.75C332.821 709.084 332 708.555 332 709.378ZM369.5 717C369.16 717.55 369.359 718 369.941 718C370.523 718 371 717.55 371 717C371 716.45 370.802 716 370.559 716C370.316 716 369.84 716.45 369.5 717ZM200.75 721.662C201.438 721.94 202.563 721.94 203.25 721.662C203.938 721.385 203.375 721.158 202 721.158C200.625 721.158 200.063 721.385 200.75 721.662ZM125.25 761.74C119.075 762.091 119 762.131 119 765.048C119 768.408 120.549 768.998 121.5 766C122.258 763.61 124.542 763.365 125.393 765.582C125.727 766.452 126 769.644 126 772.675C126 777.336 125.693 778.268 124.011 778.707C120.683 779.578 122.847 781 127.5 781C132.153 781 134.317 779.578 130.989 778.707C129.24 778.25 129 777.333 129 771.094C129 763.405 130.314 761.933 133.326 766.25C134.874 768.47 134.896 768.45 134.948 764.75C134.989 761.755 134.648 761.039 133.25 761.193C132.287 761.299 128.688 761.545 125.25 761.74ZM139.948 763.662C142.834 767.33 142.867 776.442 140 778.232C136.858 780.194 137.622 781 142.622 781C146.524 781 147.059 780.776 146.054 779.565C145.399 778.776 145.007 776.639 145.182 774.815C145.465 771.869 145.834 771.5 148.5 771.501C151.191 771.502 151.534 771.859 151.829 774.957C152.06 777.383 151.631 778.797 150.388 779.706C148.832 780.844 149.104 781 152.642 781C157.413 781 158.427 780.284 156.452 778.31C154.76 776.618 154.455 766.887 156.003 763.995C157.285 761.599 155.799 760.583 152.299 761.461C150.355 761.949 149.996 762.396 150.855 763.255C151.485 763.885 152 765.689 152 767.263C152 769.891 151.733 770.101 148.75 769.813C146.173 769.565 145.429 768.994 145.155 767.056C144.943 765.554 145.498 764.109 146.596 763.306C147.579 762.588 148.184 761.979 147.941 761.953C147.699 761.927 145.339 761.714 142.698 761.479L137.897 761.053L139.948 763.662ZM160 761.893C160 762.384 160.675 763.045 161.5 763.362C162.635 763.797 163 765.634 163 770.91C163 774.744 162.55 778.16 162 778.5C159.785 779.869 161.232 781 165.2 781C168.467 781 169.133 780.733 168.2 779.8C167.54 779.14 167 777.084 167 775.23C167 772.308 167.299 771.903 169.25 772.18C170.954 772.422 171.621 773.325 172 775.896C172.55 779.63 174.826 781.665 177.364 780.691C179.318 779.941 179.55 778 177.685 778C176.962 778 175.591 776.366 174.638 774.368C172.959 770.845 172.968 770.678 174.953 768.829C178.169 765.833 177.371 763.968 172.101 762.164C168.094 760.792 160 760.611 160 761.893ZM181.552 761.915C181.255 762.397 181.684 763.048 182.506 763.364C184.798 764.243 184.622 777.825 182.297 779.525C180.895 780.55 182.09 780.733 189.047 780.558L197.5 780.346L197.768 776.923L198.035 773.5L195.934 776.25C193.222 779.8 188.523 780.082 187.63 776.75C186.456 772.37 186.81 771.712 190 772.35C192.901 772.93 193 772.828 193 769.252C193 765.621 192.972 765.595 191.443 767.777C189.477 770.585 188.388 770.592 187.658 767.802C186.372 762.884 191.56 761.353 194.941 765.653C197.373 768.744 198.372 768.33 197.44 764.618C197.072 763.152 196.061 761.983 195.142 761.962C194.239 761.94 190.934 761.724 187.797 761.482C184.66 761.239 181.85 761.434 181.552 761.915ZM201.558 761.907C201.263 762.383 201.692 763.329 202.511 764.009C204.621 765.76 204.612 777.828 202.5 778.638C198.948 780.001 201.573 780.746 209.25 780.553L217.5 780.346L217.765 776.923L218.029 773.5L215.727 776.25C211.762 780.986 207 779.646 207 773.793C207 772.082 207.461 771.842 209.84 772.318C212.535 772.857 212.687 772.697 212.805 769.193L212.93 765.5L210.972 768C209.314 770.118 208.863 770.271 208.023 769C206.701 767.001 206.751 765.649 208.2 764.2C210.138 762.262 212.706 762.81 214.927 765.635L217 768.27V765.135C217 762.831 216.536 761.99 215.25 761.962C214.287 761.94 210.934 761.724 207.797 761.482C204.66 761.239 201.852 761.43 201.558 761.907ZM233.901 764.106C231.545 766.629 231 768.101 231 771.951C231 777.041 232.121 778.595 237.43 780.867C239.973 781.956 240.7 781.869 242.93 780.214C246.205 777.784 247.967 774.348 247.985 770.354C247.996 767.993 247.117 766.432 244.465 764.104C240.008 760.19 237.559 760.19 233.901 764.106ZM249 761.883C249 762.369 249.963 763.019 251.14 763.326C253.007 763.815 253.2 764.372 252.651 767.693C252.305 769.787 252.017 773.005 252.011 774.844C252.003 777.335 251.493 778.32 250.011 778.707C246.296 779.679 248.995 780.84 254.259 780.534C257.142 780.367 259.713 780.178 259.973 780.115C260.232 780.052 259.419 779.281 258.165 778.403C256.594 777.302 255.981 776.007 256.193 774.23C256.607 770.755 258.772 770.242 259.572 773.429C260.554 777.342 262.162 776.495 261.81 772.25C261.616 769.905 261.032 768.594 260.25 768.75C259.563 768.888 258.438 769.112 257.75 769.25C256.378 769.524 256.201 765.637 257.454 762.75C258.116 761.227 257.617 761 253.607 761C251.073 761 249 761.398 249 761.883ZM262.563 764.078C265.405 767.057 265.511 767.085 265.837 764.941C266.206 762.524 264.59 761.039 261.563 761.015C259.867 761.002 259.991 761.383 262.563 764.078ZM280.923 763.923C278.667 766.18 278 767.758 278 770.846C278 775.976 281.926 781.03 285.839 780.937C288.338 780.877 288.37 780.821 286.352 780.007C283.448 778.835 282.912 777.749 282.513 772.228C282.087 766.342 284.146 762.554 287.335 763.356C289.439 763.885 289.445 763.86 287.559 762.45C284.879 760.448 284.261 760.585 280.923 763.923ZM295.579 761.872C295.243 762.417 295.425 763.144 295.984 763.49C296.543 763.835 297 767.016 297 770.559C297 777.991 299.001 781 303.943 781C308.193 781 310 777.861 310 770.477C310 767.135 310.525 763.875 311.167 763.233C312.616 761.784 309.865 760.454 307.387 761.405C306.129 761.888 306.03 762.331 306.937 763.425C308.83 765.705 307.885 777.057 305.691 778.396C304.246 779.278 303.594 779.11 302.441 777.559C300.612 775.095 300.464 764.358 302.25 763.72C304.015 763.09 303.012 762.343 299.345 761.558C297.567 761.178 295.924 761.315 295.579 761.872ZM315.444 762.091C315.169 762.536 315.906 763.415 317.082 764.044C318.999 765.07 319.179 765.852 318.814 771.586C318.504 776.445 317.937 778.337 316.453 779.459C314.65 780.823 314.902 780.939 319.75 780.968C324.431 780.997 326.803 779.768 323.922 778.807C323.329 778.61 322.766 776.916 322.672 775.044C322.509 771.821 322.728 771.584 326.823 770.566C333.507 768.903 334.807 764.279 329.178 762.189C325.995 761.007 316.157 760.937 315.444 762.091ZM337.566 762.328C333.915 764.998 335.99 772 340.431 772C345.568 772 348.174 778.114 343.333 778.807C341.219 779.11 340.336 778.458 337.498 774.5C336.157 772.63 336.062 772.761 336.037 776.5L336.01 780.5L340.352 780.748C349.787 781.288 351.368 771.94 342.419 768.522C339.261 767.316 337.988 766.3 338.208 765.158C338.759 762.296 342.231 762.552 344.699 765.637L346.99 768.5L346.995 765.375C346.999 762.673 346.577 762.165 343.875 761.625C339.713 760.793 339.657 760.799 337.566 762.328ZM238.693 762.737C236.434 763.276 235 766.925 235 772.131C235 777.667 236.461 780 239.928 780C243.349 780 244 778.645 244 771.529C244 765.654 241.793 761.997 238.693 762.737ZM290.404 763.389C289.752 765.088 290.629 767 292.059 767C293.32 767 293.266 763.282 291.993 762.496C291.439 762.153 290.724 762.555 290.404 763.389ZM323.69 763.154C322.699 763.708 322 765.32 322 767.05C322 769.49 322.411 770 324.378 770C327.374 770 329.354 767.69 328.545 765.14C327.768 762.694 325.887 761.924 323.69 763.154ZM166.781 764.156C165.8 767.099 167.224 770 169.648 770C172.42 770 173.79 767.482 172.307 765.114C171.043 763.097 167.348 762.456 166.781 764.156ZM467.32 784C467.32 787.575 467.502 789.038 467.723 787.25C467.945 785.462 467.945 782.538 467.723 780.75C467.502 778.962 467.32 780.425 467.32 784ZM9.5 792.012C20.389 793.077 468 793.238 468 792.176C468 791.712 363.037 791.309 234.75 791.28C106.462 791.252 5.1 791.581 9.5 792.012Z" fill="black"/>
</svg>
