<svg width="612" height="777" viewBox="0 0 612 777" fill="none" xmlns="http://www.w3.org/2000/svg">
<mask id="path-1-inside-1_178_3" fill="white">
<path fill-rule="evenodd" clip-rule="evenodd" d="M383.082 12.5183C384.595 24.4682 384.429 24.9093 379.431 22.2365C376.551 20.6951 373.477 18.2739 372.599 16.8545C371.722 15.435 369.699 14.2725 368.107 14.2725C366.513 14.2725 367.751 16.9764 370.857 20.2773C378.662 28.5838 378.039 29.8424 366.116 29.8424C358.97 29.8424 355.729 30.9687 355.729 33.4573C355.729 37.4587 361.198 40.2224 369.112 40.2224C374.162 40.2224 374.152 40.3885 368.652 47.3586C363.626 53.7319 363.493 54.5909 367.422 55.3823C369.842 55.8728 375.076 53.1558 379.052 49.349L386.281 42.4281L388.581 52.1542C391.3 63.6344 397.274 67.2207 397.274 57.3701C397.274 51.3783 398.033 50.8826 405.064 52.2891C415.193 54.3132 415.071 50.3325 404.737 41.6445C400.273 37.8895 397.061 34.407 397.596 33.901C398.134 33.395 403.135 31.0932 408.71 28.7837C421.007 23.6871 420.119 21.5514 406.939 24.5227C396.794 26.8089 394.615 24.899 401.169 19.4624C407.598 14.1297 405.557 10.7562 398.643 15.2871C392.341 19.4131 392.12 19.3093 386.857 9.7468L381.495 0L383.082 12.5183ZM174.271 7.41389C174.079 10.4967 172.614 11.7138 170.207 10.79C167.691 9.82465 166.923 10.5928 167.889 13.1073C168.792 15.4636 167.717 16.8675 165.006 16.8675C162.628 16.8675 161.371 17.9833 162.215 19.3483C163.059 20.7132 165.669 21.0947 168.013 20.1968C171.41 18.8941 171.854 19.574 170.192 23.5522C169.047 26.2977 167.585 31.4643 166.946 35.0324L165.783 41.5199L171.119 35.0324C174.05 31.4643 176.478 30.0059 176.509 31.7887C176.595 36.6257 181.76 35.7149 181.76 30.8623C181.76 28.2206 183.188 27.2396 185.654 28.1868C190.141 29.9073 190.972 25.8383 186.675 23.1837C184.655 21.9355 184.808 20.7859 187.189 19.3171C189.661 17.7887 188.718 16.377 183.691 14.0882C179.906 12.3651 176.304 9.07469 175.689 6.77553C174.798 3.44096 174.512 3.57071 174.271 7.41389ZM342.747 14.2725C342.747 15.6997 343.915 16.8675 345.343 16.8675C346.771 16.8675 347.94 15.6997 347.94 14.2725C347.94 12.8452 346.771 11.6775 345.343 11.6775C343.915 11.6775 342.747 12.8452 342.747 14.2725ZM250.929 39.4283C247.827 42.5293 249.255 48.0074 253.165 48.0074C255.307 48.0074 257.06 46.3258 257.06 44.268C257.06 39.9317 253.355 37.0072 250.929 39.4283ZM77.8969 48.0074C77.8969 50.8904 79.6288 53.1974 81.7918 53.1974C83.9547 53.1974 85.6866 50.8904 85.6866 48.0074C85.6866 45.1243 83.9547 42.8174 81.7918 42.8174C79.6288 42.8174 77.8969 45.1243 77.8969 48.0074ZM458.405 58.2083C457.582 59.5369 458.099 61.356 459.55 62.2539C461.002 63.1492 462.188 62.0619 462.188 59.8379C462.188 55.2785 460.631 54.609 458.405 58.2083ZM529.777 59.1892C529.736 61.7712 528.824 63.3801 527.752 62.7651C526.679 62.1501 523.556 63.8316 520.806 66.5045C515.888 71.2845 515.919 71.3623 522.901 71.3623H529.993L525.438 79.0668C520.235 87.8691 522.603 93.0072 528.378 85.4453C531.686 81.1143 532.545 80.9664 534.804 84.3373C536.946 87.5395 537.416 87.2385 537.45 82.635C537.481 78.1352 538.634 77.3256 543.331 78.5011C549.049 79.931 549.072 79.8479 544.435 74.5931C539.844 69.3953 539.844 69.1851 544.435 67.9992C548.732 66.8885 548.75 66.7458 544.629 66.4733C542.132 66.3073 540.085 64.9345 540.085 63.4242C540.085 61.9139 538.99 61.3534 537.647 62.1812C536.307 63.009 534.007 61.6181 532.535 59.0906C529.987 54.718 529.852 54.7232 529.777 59.1892ZM477.768 67.4698C477.768 69.6107 479.521 71.3623 481.663 71.3623C483.805 71.3623 485.558 69.6107 485.558 67.4698C485.558 65.329 483.805 63.5773 481.663 63.5773C479.521 63.5773 477.768 65.329 477.768 67.4698ZM30.7381 79.4016L31.7534 90.0359L24.8829 85.5388C16.3869 79.9751 12.3207 82.8659 20.544 88.6216C25.2126 91.8887 25.7397 93.2666 22.9848 95.0105C21.0529 96.2327 16.9893 97.25 13.9487 97.2733C10.9108 97.2941 6.82118 99.2533 4.86077 101.625C1.5917 105.585 2.52126 105.813 16.1922 104.412L31.0861 102.884L24.631 112.379C17.9423 122.216 16.3869 128.452 20.6245 128.452C21.9721 128.452 24.7972 125.995 26.9004 122.992L30.7277 117.532L31.5924 123.439C33.0205 133.188 38.4863 132.259 40.4233 121.939C41.6878 115.205 42.9965 113.295 44.9855 115.283C48.4051 118.7 54.5279 118.952 54.5279 115.677C54.5279 114.359 51.5366 109.727 47.8807 105.385L41.2334 97.4887L47.8807 95.8227C55.0498 94.0244 57.0154 89.5273 50.633 89.5273C48.4908 89.5273 46.7018 88.0689 46.6551 86.2835C46.6057 84.3528 45.1283 84.9419 43.0095 87.7367C38.8654 93.1992 37.6735 91.7745 35.2769 78.4985C32.9114 65.3938 29.4658 66.0789 30.7381 79.4016ZM274.283 77.829C248.743 83.1254 232.865 88.728 207.45 101.41C142.144 133.995 92.7778 196.431 73.6411 270.642C65.7424 301.271 64.4675 351.904 70.8447 381.508C76.2429 406.565 89.1037 438.896 100.967 457.24C113.078 475.966 138.867 503.883 153.265 513.855L163.906 521.225L147.947 527.002C109.842 540.789 77.0063 590.088 49.5736 674.698C36.409 715.297 34.8719 722.706 39.6106 722.706C42.0202 722.706 45.8138 714.007 50.646 697.404C73.8177 617.808 109.222 555.347 139.859 540.008C166.419 526.711 168.748 526.62 192.133 537.991L213.16 548.218L203.303 549.962C178.677 554.322 149.97 576.143 143.156 595.678C138.955 607.719 143.826 604.745 158.157 586.518C179.384 559.527 207.858 546.768 231.245 553.769C238.357 555.899 240.837 557.877 239.795 560.591C237.648 566.183 242.389 565.594 290.55 554.306C314.26 548.748 338.325 543.158 344.024 541.886C353.325 539.81 356.685 536.515 376.691 509.823C409.668 465.827 435.646 444.177 462.188 438.572L471.276 436.652L465.821 442.791C458.792 450.704 456.741 456.724 459.974 459.955C463.269 463.248 413.407 538.383 386.029 571.376C352.206 612.135 335.037 621.2 281.203 626.73C224.792 632.522 210.405 639.562 205.178 663.926C201.569 680.737 198.583 754.909 200.997 767.765C203.991 783.722 209.06 777.886 208.779 758.805C208.338 728.902 212.474 664.487 215.315 657.042C219.61 645.782 236.342 639.871 276.046 635.584C316.051 631.266 340.882 624.202 389.97 603.183C430.648 585.763 500.984 551.029 511.869 542.984C517.212 539.037 523.418 527.593 534.62 501.031C550.568 463.209 586.824 371.214 586.824 368.564C586.824 367.737 592.001 356.287 598.329 343.123C604.657 329.956 610.577 316.558 611.486 313.345C613.903 304.808 607.51 305.882 598.345 315.554C588.807 325.615 579.021 329.816 576.043 325.124C574.877 323.284 573.903 316.893 573.88 310.919C573.797 288.182 560.858 242.271 546.592 214.087C514.686 151.062 452.366 99.7905 385.59 81.6307C358.7 74.3206 300.757 72.3406 274.283 77.829ZM78.8369 85.6348C76.3831 92.0236 79.9119 97.3122 86.6266 97.3122C93.3387 97.3122 96.8674 92.0236 94.4163 85.6348C93.5932 83.4939 90.0878 81.7423 86.6266 81.7423C83.1628 81.7423 79.6574 83.4939 78.8369 85.6348ZM281.727 84.7551C180.601 103.699 100.599 181.554 80.0053 281.061C73.1868 313.997 74.5084 366.408 82.885 395.256C88.8622 415.845 104.59 448.705 115.407 463.206C144.909 502.749 196.261 536.995 245.222 549.77C258.659 553.278 260.646 553.048 302.889 543.059C334.227 535.653 348.282 531.141 352.429 527.155L358.217 521.594L321.034 522.476C246.715 524.243 194.997 506.249 149.071 462.648C108.339 423.98 88.4728 376.487 88.3403 317.466C88.0859 203.992 167.201 109.441 278.959 89.6596C321.462 82.1367 369.53 90.0333 412.854 111.655C475.602 142.974 523.548 208.946 534.968 279.681C538.115 299.185 537.214 345.29 533.332 363.299C531.771 370.536 532.859 369.901 548.825 354.217L565.997 337.349L566.023 319.724C566.16 231.606 499.132 136.512 411.057 99.8683C372.703 83.9091 319.453 77.6863 281.727 84.7551ZM258.54 109.452C257.595 111.914 258.602 115.534 260.859 117.792C264.45 121.378 265.275 121.352 269.1 117.532C271.437 115.197 272.642 111.442 271.777 109.192C269.695 103.769 260.654 103.945 258.54 109.452ZM76.5883 125.868C72.6778 130.186 72.387 132.179 74.8667 137.618C78.6421 145.898 84.2767 148.091 92.3442 144.419C96.87 142.356 98.6695 139.458 98.6695 134.216C98.6695 120.711 85.6996 115.807 76.5883 125.868ZM559.406 123.511C558.438 125.076 559.479 128.187 561.717 130.424C564.997 133.699 566.544 133.868 569.66 131.283C571.79 129.519 572.893 126.407 572.111 124.37C570.434 120.003 561.93 119.429 559.406 123.511ZM266.582 140.563C262.778 144.365 264.966 151.807 269.889 151.807C276.007 151.807 278.391 148.498 276.264 142.958C274.639 138.721 269.656 137.488 266.582 140.563ZM547.01 143.158C543.936 146.228 545.17 153.805 548.984 155.269C554.746 157.477 559.671 150.144 555.665 145.32C552.146 141.085 549.698 140.472 547.01 143.158ZM219.464 150.824C214.404 155.881 215.164 161.891 221.357 165.789C231.06 171.895 241.431 156.795 232.18 150.032C226.153 145.631 224.564 145.73 219.464 150.824ZM589.384 150.554C586.533 153.987 586.678 155.367 590.274 158.962C595.33 164.017 600.842 160.381 599.401 152.946C598.186 146.687 593.52 145.571 589.384 150.554ZM280.852 195.507L249.506 242.061L263.746 324.444C271.577 369.755 277.609 407.206 277.15 407.666C276.69 408.125 271.845 390.157 266.384 367.734C260.921 345.313 254.972 324.587 253.16 321.675C248.99 314.973 221.069 293.307 219.116 295.258C218.314 296.06 214.409 310.312 210.439 326.93L203.22 357.144L209.325 361.14C215.001 364.856 216.247 364.661 226.984 358.374L238.536 351.606L229.64 325.212C224.748 310.696 221.168 298.398 221.679 297.884C222.193 297.373 226.997 307.208 232.356 319.745C237.715 332.281 242.475 342.957 242.937 343.468C243.397 343.979 245.609 340.004 247.855 334.637C253.609 320.868 255.219 324.784 250.428 340.904C246.484 354.175 246.552 354.819 254.082 375.729C266.278 409.607 275.864 440.088 274.693 441.258C273.46 442.49 260.583 411.46 250.42 382.761C246.632 372.057 242.623 362.329 241.517 361.143C240.408 359.957 234.542 361.514 228.482 364.604C222.422 367.695 215.31 369.659 212.677 368.972C208.148 367.788 208.174 368.279 213.181 378.088C216.091 383.789 219.072 387.858 219.802 387.129C220.531 386.397 219.771 383.265 218.111 380.166C216.452 377.068 215.665 373.959 216.367 373.261C218.504 371.126 235.485 403.75 241.893 422.307C247.655 438.987 248.465 439.973 259.451 443.715C273.969 448.659 277.825 448.638 281.509 443.601C284.124 440.03 285.882 440.36 296.847 446.487C308.041 452.738 310.843 453.234 325.957 451.614C340.906 450.016 343.281 448.952 348.332 441.595C351.44 437.067 359.712 426.651 366.715 418.445C376.118 407.432 379.018 402.167 377.8 398.334C375.346 390.601 372.869 391.831 361.886 406.223C351.126 420.324 349.121 419.642 351.562 402.709C352.424 396.733 353.639 376.554 354.26 357.87C354.883 339.184 356.14 313.493 357.054 300.78L358.715 277.664L353.452 285.499C349.16 291.887 347.68 300.503 345.429 332.208C343.912 353.591 341.947 381.01 341.064 393.141C340.179 405.273 338.48 416.951 337.286 419.091C334.495 424.097 334.624 415.92 338.418 348.015L341.448 293.805L332.36 287.188C327.362 283.55 318.892 276.471 313.535 271.457L303.798 262.338L303.79 272.596C303.759 309.871 310.087 392.667 313.475 399.336C320.847 413.842 334.845 447.872 332.96 446.71C331.914 446.064 326.967 437.832 321.971 428.42C316.277 417.695 311.624 411.781 309.505 412.575C307.646 413.273 306.789 412.767 307.599 411.457C308.412 410.144 307.991 408.4 306.667 407.583C305.34 406.763 300.659 411.937 296.263 419.081C291.864 426.222 287.702 432.066 287.009 432.066C286.318 432.066 290.036 423.015 295.271 411.955C301.059 399.722 304.683 388.286 304.523 382.761C303.954 363.304 298.275 274.628 297.102 266.867C295.943 259.216 294.596 258.272 277.108 252.89C254.925 246.062 258.218 242.684 280.868 249.034C289.452 251.442 296.746 253.03 297.078 252.563C298.683 250.305 314.501 151.26 313.429 150.188C312.751 149.508 298.091 169.902 280.852 195.507ZM312.032 202.908C307.345 230.783 303.866 253.912 304.302 254.309C304.738 254.704 318.017 255.856 333.809 256.865C362.374 258.695 362.566 258.669 370.81 251.735C380.558 243.537 381.846 245.938 372.812 255.464C367.11 261.477 366.149 266.08 362.501 304.912C354.483 390.274 354.699 390.653 369.912 317.887C377.818 280.065 384.289 246.314 384.289 242.886C384.292 237.88 331.433 151.807 328.356 151.807C327.91 151.807 333.869 170.701 341.604 193.791C349.337 216.882 355.262 236.181 354.766 236.674C353.725 237.717 338.252 197.45 329.896 171.947C326.744 162.327 323.353 153.956 322.361 153.343C321.366 152.728 316.719 175.032 312.032 202.908ZM246.674 156.997C246.674 158.424 247.842 159.592 249.27 159.592C250.698 159.592 251.867 158.424 251.867 156.997C251.867 155.57 250.698 154.402 249.27 154.402C247.842 154.402 246.674 155.57 246.674 156.997ZM31.6781 167.896C25.2853 174.285 31.5794 184.616 39.917 181.416C45.3334 179.34 45.4165 168.423 40.0338 166.357C34.8043 164.351 35.3185 164.258 31.6781 167.896ZM163.417 184.831C123.695 230.044 106.685 305.451 124.918 355.486L129.659 368.489L127.795 351.622C124.939 325.749 126.442 285.724 131.142 262.548C137.756 229.919 148.009 207.815 167.759 183.596C177.226 171.986 173.861 172.943 163.417 184.831ZM0 180.352C0 181.779 1.16845 182.947 2.59656 182.947C4.02468 182.947 5.19313 181.779 5.19313 180.352C5.19313 178.925 4.02468 177.757 2.59656 177.757C1.16845 177.757 0 178.925 0 180.352ZM12.2376 202.723C8.6076 206.349 10.4668 216.542 15.2211 219.085C22.0526 222.739 29.3152 216.936 28.1597 208.752C27.5158 204.192 25.41 202.194 20.6764 201.641C17.0516 201.218 13.2529 201.706 12.2376 202.723ZM154.753 218.628C141.019 239.876 136.325 253.121 132.383 281.746C129.176 305.031 131.412 348.65 135.167 336.052C136.231 332.483 137.215 320.059 137.358 308.441C137.833 269.75 149.056 228.692 165.1 206.951C167.471 203.741 168.66 201.112 167.743 201.112C166.827 201.112 160.982 208.993 154.753 218.628ZM479.077 212.789C491.854 253.264 490.569 299.986 475.33 349.146C468.558 370.996 448.871 404.738 431.396 424.45C423.741 433.084 418.081 440.749 418.815 441.486C421.121 443.791 447.45 415.783 458.216 399.577C471.918 378.947 484.846 348.5 489.803 325.197C497.574 288.662 493.56 235.298 481.481 214.546C479.121 210.493 478.121 209.761 479.077 212.789ZM472.058 267.284C471.061 282.984 467.914 304.556 465.063 315.222C459.797 334.928 459.704 342.908 464.899 329.276C471.214 312.702 475.356 284.014 474.629 261.848L473.873 238.739L472.058 267.284ZM16.039 246.662C17.2126 252.298 21.8215 252.643 22.8757 247.173C23.421 244.332 22.1487 242.632 19.4742 242.632C16.9789 242.632 15.5482 244.311 16.039 246.662ZM314.184 265.216C317.755 267.78 325.666 274.428 331.763 279.989C337.862 285.55 343.242 289.638 343.718 289.072C344.193 288.506 347.786 282.499 351.702 275.718L358.819 263.392H345.953C338.875 263.392 327.372 262.753 320.39 261.972L307.693 260.555L314.184 265.216ZM442.361 267.266C441.463 269.609 441.972 272.77 443.493 274.291C447.45 278.246 454.944 274.631 453.911 269.269C452.76 263.296 444.441 261.853 442.361 267.266ZM418.919 277.838C416.754 283.474 422.248 288.776 426.182 284.845C429.506 281.523 427.446 273.772 423.24 273.772C421.721 273.772 419.779 275.601 418.919 277.838ZM504.035 296.309C502.97 325.516 485.898 373.736 466.063 403.553C459.327 413.681 454.365 422.519 455.04 423.192C456.905 425.055 477.267 397.174 484.161 383.319C495.941 359.643 508.799 305.542 505.613 293.053C504.796 289.848 504.227 291.018 504.035 296.309ZM421.163 308.026C414.64 314.544 419.496 325.672 428.862 325.672C431.38 325.672 434.652 323.414 436.132 320.653C439.609 314.16 439.567 313.815 434.74 308.988C429.861 304.112 425.395 303.796 421.163 308.026ZM423.24 338.647C423.24 340.074 424.408 341.242 425.837 341.242C427.265 341.242 428.433 340.074 428.433 338.647C428.433 337.219 427.265 336.052 425.837 336.052C424.408 336.052 423.24 337.219 423.24 338.647ZM566.661 347.659C558.235 355.488 557.677 356.679 562.403 356.742C568.079 356.814 574.503 350.952 577.26 343.188C579.577 336.661 577.601 337.494 566.661 347.659ZM535.118 448.975C508.859 501.093 487.926 544.287 488.601 544.962C489.273 545.636 495.064 542.867 501.467 538.809C512.367 531.901 514.032 529.218 527.609 496.671C535.586 477.551 549.389 443.225 558.282 420.389C567.173 397.553 576.632 373.323 579.301 366.543C581.968 359.762 583.861 354.217 583.508 354.217C583.155 354.217 561.38 396.858 535.118 448.975ZM542.682 372.649C524.397 383.592 496.66 415.64 499.369 422.696C500.96 426.843 493.796 439.242 480.463 455.421C475.169 461.844 464.842 478.268 457.509 491.917C449.626 506.597 441.605 518.111 437.874 520.107C434.403 521.965 425.086 532.983 417.167 544.596C409.25 556.208 395.013 574.173 385.53 584.522C376.05 594.871 368.795 603.336 369.413 603.336C370.501 603.336 422.63 579.792 452.059 566.01C460.054 562.265 468.524 557.07 470.879 554.47C473.237 551.867 492.68 514.992 514.089 472.522C548.561 404.139 552.57 394.867 549.145 391.444C544.222 386.524 544.237 386.356 550.685 375.931C556.95 365.798 555.275 365.113 542.682 372.649ZM382.165 386.402C376.941 389.197 376.66 390.043 380.041 392.846C383.243 395.503 384.455 395.088 386.917 390.492C390.741 383.353 389.64 382.406 382.165 386.402ZM164.594 391.662C162.007 398.396 165.63 403.96 172.012 403.054C176.302 402.445 177.865 400.493 177.865 395.736C177.865 390.98 176.302 389.028 172.012 388.419C168.499 387.92 165.531 389.218 164.594 391.662ZM388.734 395.734C387.986 398.586 388.436 401.575 389.729 402.374C391.022 403.174 392.081 400.838 392.081 397.187C392.081 389.236 390.601 388.592 388.734 395.734ZM190.403 407.632C188.544 412.477 193.158 417.781 197.113 415.339C201.236 412.793 200.561 406.91 195.942 405.141C193.628 404.253 191.299 405.302 190.403 407.632ZM380.077 411.955C368.707 424.922 367.99 427.689 378.229 419.091C384.177 414.096 389.145 409.132 389.264 408.063C389.695 404.264 385.125 406.199 380.077 411.955ZM170.436 413.107C167.512 416.029 168.657 419.091 172.672 419.091C174.814 419.091 176.566 417.994 176.566 416.65C176.566 413.377 172.511 411.034 170.436 413.107ZM218.111 448.781C218.111 451.005 219.28 452.826 220.708 452.826C222.136 452.826 223.305 451.729 223.305 450.384C223.305 449.04 222.136 447.221 220.708 446.339C219.28 445.457 218.111 446.557 218.111 448.781Z"/>
</mask>
<path fill-rule="evenodd" clip-rule="evenodd" d="M383.082 12.5183C384.595 24.4682 384.429 24.9093 379.431 22.2365C376.551 20.6951 373.477 18.2739 372.599 16.8545C371.722 15.435 369.699 14.2725 368.107 14.2725C366.513 14.2725 367.751 16.9764 370.857 20.2773C378.662 28.5838 378.039 29.8424 366.116 29.8424C358.97 29.8424 355.729 30.9687 355.729 33.4573C355.729 37.4587 361.198 40.2224 369.112 40.2224C374.162 40.2224 374.152 40.3885 368.652 47.3586C363.626 53.7319 363.493 54.5909 367.422 55.3823C369.842 55.8728 375.076 53.1558 379.052 49.349L386.281 42.4281L388.581 52.1542C391.3 63.6344 397.274 67.2207 397.274 57.3701C397.274 51.3783 398.033 50.8826 405.064 52.2891C415.193 54.3132 415.071 50.3325 404.737 41.6445C400.273 37.8895 397.061 34.407 397.596 33.901C398.134 33.395 403.135 31.0932 408.71 28.7837C421.007 23.6871 420.119 21.5514 406.939 24.5227C396.794 26.8089 394.615 24.899 401.169 19.4624C407.598 14.1297 405.557 10.7562 398.643 15.2871C392.341 19.4131 392.12 19.3093 386.857 9.7468L381.495 0L383.082 12.5183ZM174.271 7.41389C174.079 10.4967 172.614 11.7138 170.207 10.79C167.691 9.82465 166.923 10.5928 167.889 13.1073C168.792 15.4636 167.717 16.8675 165.006 16.8675C162.628 16.8675 161.371 17.9833 162.215 19.3483C163.059 20.7132 165.669 21.0947 168.013 20.1968C171.41 18.8941 171.854 19.574 170.192 23.5522C169.047 26.2977 167.585 31.4643 166.946 35.0324L165.783 41.5199L171.119 35.0324C174.05 31.4643 176.478 30.0059 176.509 31.7887C176.595 36.6257 181.76 35.7149 181.76 30.8623C181.76 28.2206 183.188 27.2396 185.654 28.1868C190.141 29.9073 190.972 25.8383 186.675 23.1837C184.655 21.9355 184.808 20.7859 187.189 19.3171C189.661 17.7887 188.718 16.377 183.691 14.0882C179.906 12.3651 176.304 9.07469 175.689 6.77553C174.798 3.44096 174.512 3.57071 174.271 7.41389ZM342.747 14.2725C342.747 15.6997 343.915 16.8675 345.343 16.8675C346.771 16.8675 347.94 15.6997 347.94 14.2725C347.94 12.8452 346.771 11.6775 345.343 11.6775C343.915 11.6775 342.747 12.8452 342.747 14.2725ZM250.929 39.4283C247.827 42.5293 249.255 48.0074 253.165 48.0074C255.307 48.0074 257.06 46.3258 257.06 44.268C257.06 39.9317 253.355 37.0072 250.929 39.4283ZM77.8969 48.0074C77.8969 50.8904 79.6288 53.1974 81.7918 53.1974C83.9547 53.1974 85.6866 50.8904 85.6866 48.0074C85.6866 45.1243 83.9547 42.8174 81.7918 42.8174C79.6288 42.8174 77.8969 45.1243 77.8969 48.0074ZM458.405 58.2083C457.582 59.5369 458.099 61.356 459.55 62.2539C461.002 63.1492 462.188 62.0619 462.188 59.8379C462.188 55.2785 460.631 54.609 458.405 58.2083ZM529.777 59.1892C529.736 61.7712 528.824 63.3801 527.752 62.7651C526.679 62.1501 523.556 63.8316 520.806 66.5045C515.888 71.2845 515.919 71.3623 522.901 71.3623H529.993L525.438 79.0668C520.235 87.8691 522.603 93.0072 528.378 85.4453C531.686 81.1143 532.545 80.9664 534.804 84.3373C536.946 87.5395 537.416 87.2385 537.45 82.635C537.481 78.1352 538.634 77.3256 543.331 78.5011C549.049 79.931 549.072 79.8479 544.435 74.5931C539.844 69.3953 539.844 69.1851 544.435 67.9992C548.732 66.8885 548.75 66.7458 544.629 66.4733C542.132 66.3073 540.085 64.9345 540.085 63.4242C540.085 61.9139 538.99 61.3534 537.647 62.1812C536.307 63.009 534.007 61.6181 532.535 59.0906C529.987 54.718 529.852 54.7232 529.777 59.1892ZM477.768 67.4698C477.768 69.6107 479.521 71.3623 481.663 71.3623C483.805 71.3623 485.558 69.6107 485.558 67.4698C485.558 65.329 483.805 63.5773 481.663 63.5773C479.521 63.5773 477.768 65.329 477.768 67.4698ZM30.7381 79.4016L31.7534 90.0359L24.8829 85.5388C16.3869 79.9751 12.3207 82.8659 20.544 88.6216C25.2126 91.8887 25.7397 93.2666 22.9848 95.0105C21.0529 96.2327 16.9893 97.25 13.9487 97.2733C10.9108 97.2941 6.82118 99.2533 4.86077 101.625C1.5917 105.585 2.52126 105.813 16.1922 104.412L31.0861 102.884L24.631 112.379C17.9423 122.216 16.3869 128.452 20.6245 128.452C21.9721 128.452 24.7972 125.995 26.9004 122.992L30.7277 117.532L31.5924 123.439C33.0205 133.188 38.4863 132.259 40.4233 121.939C41.6878 115.205 42.9965 113.295 44.9855 115.283C48.4051 118.7 54.5279 118.952 54.5279 115.677C54.5279 114.359 51.5366 109.727 47.8807 105.385L41.2334 97.4887L47.8807 95.8227C55.0498 94.0244 57.0154 89.5273 50.633 89.5273C48.4908 89.5273 46.7018 88.0689 46.6551 86.2835C46.6057 84.3528 45.1283 84.9419 43.0095 87.7367C38.8654 93.1992 37.6735 91.7745 35.2769 78.4985C32.9114 65.3938 29.4658 66.0789 30.7381 79.4016ZM274.283 77.829C248.743 83.1254 232.865 88.728 207.45 101.41C142.144 133.995 92.7778 196.431 73.6411 270.642C65.7424 301.271 64.4675 351.904 70.8447 381.508C76.2429 406.565 89.1037 438.896 100.967 457.24C113.078 475.966 138.867 503.883 153.265 513.855L163.906 521.225L147.947 527.002C109.842 540.789 77.0063 590.088 49.5736 674.698C36.409 715.297 34.8719 722.706 39.6106 722.706C42.0202 722.706 45.8138 714.007 50.646 697.404C73.8177 617.808 109.222 555.347 139.859 540.008C166.419 526.711 168.748 526.62 192.133 537.991L213.16 548.218L203.303 549.962C178.677 554.322 149.97 576.143 143.156 595.678C138.955 607.719 143.826 604.745 158.157 586.518C179.384 559.527 207.858 546.768 231.245 553.769C238.357 555.899 240.837 557.877 239.795 560.591C237.648 566.183 242.389 565.594 290.55 554.306C314.26 548.748 338.325 543.158 344.024 541.886C353.325 539.81 356.685 536.515 376.691 509.823C409.668 465.827 435.646 444.177 462.188 438.572L471.276 436.652L465.821 442.791C458.792 450.704 456.741 456.724 459.974 459.955C463.269 463.248 413.407 538.383 386.029 571.376C352.206 612.135 335.037 621.2 281.203 626.73C224.792 632.522 210.405 639.562 205.178 663.926C201.569 680.737 198.583 754.909 200.997 767.765C203.991 783.722 209.06 777.886 208.779 758.805C208.338 728.902 212.474 664.487 215.315 657.042C219.61 645.782 236.342 639.871 276.046 635.584C316.051 631.266 340.882 624.202 389.97 603.183C430.648 585.763 500.984 551.029 511.869 542.984C517.212 539.037 523.418 527.593 534.62 501.031C550.568 463.209 586.824 371.214 586.824 368.564C586.824 367.737 592.001 356.287 598.329 343.123C604.657 329.956 610.577 316.558 611.486 313.345C613.903 304.808 607.51 305.882 598.345 315.554C588.807 325.615 579.021 329.816 576.043 325.124C574.877 323.284 573.903 316.893 573.88 310.919C573.797 288.182 560.858 242.271 546.592 214.087C514.686 151.062 452.366 99.7905 385.59 81.6307C358.7 74.3206 300.757 72.3406 274.283 77.829ZM78.8369 85.6348C76.3831 92.0236 79.9119 97.3122 86.6266 97.3122C93.3387 97.3122 96.8674 92.0236 94.4163 85.6348C93.5932 83.4939 90.0878 81.7423 86.6266 81.7423C83.1628 81.7423 79.6574 83.4939 78.8369 85.6348ZM281.727 84.7551C180.601 103.699 100.599 181.554 80.0053 281.061C73.1868 313.997 74.5084 366.408 82.885 395.256C88.8622 415.845 104.59 448.705 115.407 463.206C144.909 502.749 196.261 536.995 245.222 549.77C258.659 553.278 260.646 553.048 302.889 543.059C334.227 535.653 348.282 531.141 352.429 527.155L358.217 521.594L321.034 522.476C246.715 524.243 194.997 506.249 149.071 462.648C108.339 423.98 88.4728 376.487 88.3403 317.466C88.0859 203.992 167.201 109.441 278.959 89.6596C321.462 82.1367 369.53 90.0333 412.854 111.655C475.602 142.974 523.548 208.946 534.968 279.681C538.115 299.185 537.214 345.29 533.332 363.299C531.771 370.536 532.859 369.901 548.825 354.217L565.997 337.349L566.023 319.724C566.16 231.606 499.132 136.512 411.057 99.8683C372.703 83.9091 319.453 77.6863 281.727 84.7551ZM258.54 109.452C257.595 111.914 258.602 115.534 260.859 117.792C264.45 121.378 265.275 121.352 269.1 117.532C271.437 115.197 272.642 111.442 271.777 109.192C269.695 103.769 260.654 103.945 258.54 109.452ZM76.5883 125.868C72.6778 130.186 72.387 132.179 74.8667 137.618C78.6421 145.898 84.2767 148.091 92.3442 144.419C96.87 142.356 98.6695 139.458 98.6695 134.216C98.6695 120.711 85.6996 115.807 76.5883 125.868ZM559.406 123.511C558.438 125.076 559.479 128.187 561.717 130.424C564.997 133.699 566.544 133.868 569.66 131.283C571.79 129.519 572.893 126.407 572.111 124.37C570.434 120.003 561.93 119.429 559.406 123.511ZM266.582 140.563C262.778 144.365 264.966 151.807 269.889 151.807C276.007 151.807 278.391 148.498 276.264 142.958C274.639 138.721 269.656 137.488 266.582 140.563ZM547.01 143.158C543.936 146.228 545.17 153.805 548.984 155.269C554.746 157.477 559.671 150.144 555.665 145.32C552.146 141.085 549.698 140.472 547.01 143.158ZM219.464 150.824C214.404 155.881 215.164 161.891 221.357 165.789C231.06 171.895 241.431 156.795 232.18 150.032C226.153 145.631 224.564 145.73 219.464 150.824ZM589.384 150.554C586.533 153.987 586.678 155.367 590.274 158.962C595.33 164.017 600.842 160.381 599.401 152.946C598.186 146.687 593.52 145.571 589.384 150.554ZM280.852 195.507L249.506 242.061L263.746 324.444C271.577 369.755 277.609 407.206 277.15 407.666C276.69 408.125 271.845 390.157 266.384 367.734C260.921 345.313 254.972 324.587 253.16 321.675C248.99 314.973 221.069 293.307 219.116 295.258C218.314 296.06 214.409 310.312 210.439 326.93L203.22 357.144L209.325 361.14C215.001 364.856 216.247 364.661 226.984 358.374L238.536 351.606L229.64 325.212C224.748 310.696 221.168 298.398 221.679 297.884C222.193 297.373 226.997 307.208 232.356 319.745C237.715 332.281 242.475 342.957 242.937 343.468C243.397 343.979 245.609 340.004 247.855 334.637C253.609 320.868 255.219 324.784 250.428 340.904C246.484 354.175 246.552 354.819 254.082 375.729C266.278 409.607 275.864 440.088 274.693 441.258C273.46 442.49 260.583 411.46 250.42 382.761C246.632 372.057 242.623 362.329 241.517 361.143C240.408 359.957 234.542 361.514 228.482 364.604C222.422 367.695 215.31 369.659 212.677 368.972C208.148 367.788 208.174 368.279 213.181 378.088C216.091 383.789 219.072 387.858 219.802 387.129C220.531 386.397 219.771 383.265 218.111 380.166C216.452 377.068 215.665 373.959 216.367 373.261C218.504 371.126 235.485 403.75 241.893 422.307C247.655 438.987 248.465 439.973 259.451 443.715C273.969 448.659 277.825 448.638 281.509 443.601C284.124 440.03 285.882 440.36 296.847 446.487C308.041 452.738 310.843 453.234 325.957 451.614C340.906 450.016 343.281 448.952 348.332 441.595C351.44 437.067 359.712 426.651 366.715 418.445C376.118 407.432 379.018 402.167 377.8 398.334C375.346 390.601 372.869 391.831 361.886 406.223C351.126 420.324 349.121 419.642 351.562 402.709C352.424 396.733 353.639 376.554 354.26 357.87C354.883 339.184 356.14 313.493 357.054 300.78L358.715 277.664L353.452 285.499C349.16 291.887 347.68 300.503 345.429 332.208C343.912 353.591 341.947 381.01 341.064 393.141C340.179 405.273 338.48 416.951 337.286 419.091C334.495 424.097 334.624 415.92 338.418 348.015L341.448 293.805L332.36 287.188C327.362 283.55 318.892 276.471 313.535 271.457L303.798 262.338L303.79 272.596C303.759 309.871 310.087 392.667 313.475 399.336C320.847 413.842 334.845 447.872 332.96 446.71C331.914 446.064 326.967 437.832 321.971 428.42C316.277 417.695 311.624 411.781 309.505 412.575C307.646 413.273 306.789 412.767 307.599 411.457C308.412 410.144 307.991 408.4 306.667 407.583C305.34 406.763 300.659 411.937 296.263 419.081C291.864 426.222 287.702 432.066 287.009 432.066C286.318 432.066 290.036 423.015 295.271 411.955C301.059 399.722 304.683 388.286 304.523 382.761C303.954 363.304 298.275 274.628 297.102 266.867C295.943 259.216 294.596 258.272 277.108 252.89C254.925 246.062 258.218 242.684 280.868 249.034C289.452 251.442 296.746 253.03 297.078 252.563C298.683 250.305 314.501 151.26 313.429 150.188C312.751 149.508 298.091 169.902 280.852 195.507ZM312.032 202.908C307.345 230.783 303.866 253.912 304.302 254.309C304.738 254.704 318.017 255.856 333.809 256.865C362.374 258.695 362.566 258.669 370.81 251.735C380.558 243.537 381.846 245.938 372.812 255.464C367.11 261.477 366.149 266.08 362.501 304.912C354.483 390.274 354.699 390.653 369.912 317.887C377.818 280.065 384.289 246.314 384.289 242.886C384.292 237.88 331.433 151.807 328.356 151.807C327.91 151.807 333.869 170.701 341.604 193.791C349.337 216.882 355.262 236.181 354.766 236.674C353.725 237.717 338.252 197.45 329.896 171.947C326.744 162.327 323.353 153.956 322.361 153.343C321.366 152.728 316.719 175.032 312.032 202.908ZM246.674 156.997C246.674 158.424 247.842 159.592 249.27 159.592C250.698 159.592 251.867 158.424 251.867 156.997C251.867 155.57 250.698 154.402 249.27 154.402C247.842 154.402 246.674 155.57 246.674 156.997ZM31.6781 167.896C25.2853 174.285 31.5794 184.616 39.917 181.416C45.3334 179.34 45.4165 168.423 40.0338 166.357C34.8043 164.351 35.3185 164.258 31.6781 167.896ZM163.417 184.831C123.695 230.044 106.685 305.451 124.918 355.486L129.659 368.489L127.795 351.622C124.939 325.749 126.442 285.724 131.142 262.548C137.756 229.919 148.009 207.815 167.759 183.596C177.226 171.986 173.861 172.943 163.417 184.831ZM0 180.352C0 181.779 1.16845 182.947 2.59656 182.947C4.02468 182.947 5.19313 181.779 5.19313 180.352C5.19313 178.925 4.02468 177.757 2.59656 177.757C1.16845 177.757 0 178.925 0 180.352ZM12.2376 202.723C8.6076 206.349 10.4668 216.542 15.2211 219.085C22.0526 222.739 29.3152 216.936 28.1597 208.752C27.5158 204.192 25.41 202.194 20.6764 201.641C17.0516 201.218 13.2529 201.706 12.2376 202.723ZM154.753 218.628C141.019 239.876 136.325 253.121 132.383 281.746C129.176 305.031 131.412 348.65 135.167 336.052C136.231 332.483 137.215 320.059 137.358 308.441C137.833 269.75 149.056 228.692 165.1 206.951C167.471 203.741 168.66 201.112 167.743 201.112C166.827 201.112 160.982 208.993 154.753 218.628ZM479.077 212.789C491.854 253.264 490.569 299.986 475.33 349.146C468.558 370.996 448.871 404.738 431.396 424.45C423.741 433.084 418.081 440.749 418.815 441.486C421.121 443.791 447.45 415.783 458.216 399.577C471.918 378.947 484.846 348.5 489.803 325.197C497.574 288.662 493.56 235.298 481.481 214.546C479.121 210.493 478.121 209.761 479.077 212.789ZM472.058 267.284C471.061 282.984 467.914 304.556 465.063 315.222C459.797 334.928 459.704 342.908 464.899 329.276C471.214 312.702 475.356 284.014 474.629 261.848L473.873 238.739L472.058 267.284ZM16.039 246.662C17.2126 252.298 21.8215 252.643 22.8757 247.173C23.421 244.332 22.1487 242.632 19.4742 242.632C16.9789 242.632 15.5482 244.311 16.039 246.662ZM314.184 265.216C317.755 267.78 325.666 274.428 331.763 279.989C337.862 285.55 343.242 289.638 343.718 289.072C344.193 288.506 347.786 282.499 351.702 275.718L358.819 263.392H345.953C338.875 263.392 327.372 262.753 320.39 261.972L307.693 260.555L314.184 265.216ZM442.361 267.266C441.463 269.609 441.972 272.77 443.493 274.291C447.45 278.246 454.944 274.631 453.911 269.269C452.76 263.296 444.441 261.853 442.361 267.266ZM418.919 277.838C416.754 283.474 422.248 288.776 426.182 284.845C429.506 281.523 427.446 273.772 423.24 273.772C421.721 273.772 419.779 275.601 418.919 277.838ZM504.035 296.309C502.97 325.516 485.898 373.736 466.063 403.553C459.327 413.681 454.365 422.519 455.04 423.192C456.905 425.055 477.267 397.174 484.161 383.319C495.941 359.643 508.799 305.542 505.613 293.053C504.796 289.848 504.227 291.018 504.035 296.309ZM421.163 308.026C414.64 314.544 419.496 325.672 428.862 325.672C431.38 325.672 434.652 323.414 436.132 320.653C439.609 314.16 439.567 313.815 434.74 308.988C429.861 304.112 425.395 303.796 421.163 308.026ZM423.24 338.647C423.24 340.074 424.408 341.242 425.837 341.242C427.265 341.242 428.433 340.074 428.433 338.647C428.433 337.219 427.265 336.052 425.837 336.052C424.408 336.052 423.24 337.219 423.24 338.647ZM566.661 347.659C558.235 355.488 557.677 356.679 562.403 356.742C568.079 356.814 574.503 350.952 577.26 343.188C579.577 336.661 577.601 337.494 566.661 347.659ZM535.118 448.975C508.859 501.093 487.926 544.287 488.601 544.962C489.273 545.636 495.064 542.867 501.467 538.809C512.367 531.901 514.032 529.218 527.609 496.671C535.586 477.551 549.389 443.225 558.282 420.389C567.173 397.553 576.632 373.323 579.301 366.543C581.968 359.762 583.861 354.217 583.508 354.217C583.155 354.217 561.38 396.858 535.118 448.975ZM542.682 372.649C524.397 383.592 496.66 415.64 499.369 422.696C500.96 426.843 493.796 439.242 480.463 455.421C475.169 461.844 464.842 478.268 457.509 491.917C449.626 506.597 441.605 518.111 437.874 520.107C434.403 521.965 425.086 532.983 417.167 544.596C409.25 556.208 395.013 574.173 385.53 584.522C376.05 594.871 368.795 603.336 369.413 603.336C370.501 603.336 422.63 579.792 452.059 566.01C460.054 562.265 468.524 557.07 470.879 554.47C473.237 551.867 492.68 514.992 514.089 472.522C548.561 404.139 552.57 394.867 549.145 391.444C544.222 386.524 544.237 386.356 550.685 375.931C556.95 365.798 555.275 365.113 542.682 372.649ZM382.165 386.402C376.941 389.197 376.66 390.043 380.041 392.846C383.243 395.503 384.455 395.088 386.917 390.492C390.741 383.353 389.64 382.406 382.165 386.402ZM164.594 391.662C162.007 398.396 165.63 403.96 172.012 403.054C176.302 402.445 177.865 400.493 177.865 395.736C177.865 390.98 176.302 389.028 172.012 388.419C168.499 387.92 165.531 389.218 164.594 391.662ZM388.734 395.734C387.986 398.586 388.436 401.575 389.729 402.374C391.022 403.174 392.081 400.838 392.081 397.187C392.081 389.236 390.601 388.592 388.734 395.734ZM190.403 407.632C188.544 412.477 193.158 417.781 197.113 415.339C201.236 412.793 200.561 406.91 195.942 405.141C193.628 404.253 191.299 405.302 190.403 407.632ZM380.077 411.955C368.707 424.922 367.99 427.689 378.229 419.091C384.177 414.096 389.145 409.132 389.264 408.063C389.695 404.264 385.125 406.199 380.077 411.955ZM170.436 413.107C167.512 416.029 168.657 419.091 172.672 419.091C174.814 419.091 176.566 417.994 176.566 416.65C176.566 413.377 172.511 411.034 170.436 413.107ZM218.111 448.781C218.111 451.005 219.28 452.826 220.708 452.826C222.136 452.826 223.305 451.729 223.305 450.384C223.305 449.04 222.136 447.221 220.708 446.339C219.28 445.457 218.111 446.557 218.111 448.781Z" fill="#1F1F1F" stroke="#BE9A58" stroke-width="10" mask="url(#path-1-inside-1_178_3)"/>
</svg>
