<svg width="470" height="793" viewBox="0 0 470 793" fill="none" xmlns="http://www.w3.org/2000/svg">
<path fill-rule="evenodd" clip-rule="evenodd" d="M1.17572 1.22584C0.529716 1.87184 0.00771574 2.87284 0.0157157 3.45084C0.0257157 4.12384 0.295716 4.09884 0.765716 3.38184C1.29472 2.57584 30.3677 2.05784 104.606 1.53284L207.711 0.803844L208.226 7.21284C208.775 14.0488 211.79 22.0828 215.148 25.6578C217.996 28.6898 225.734 31.8348 232.221 32.5968C244.309 34.0178 256.073 26.9578 258.993 16.5308C259.699 14.0078 260.083 11.7488 259.846 11.5118C259.608 11.2748 258.801 13.1578 258.051 15.6968C255.362 24.8038 245.747 31.5268 235.501 31.4638C229.397 31.4268 219.825 27.9678 216.43 24.5718C213.614 21.7568 210.144 12.5298 209.822 7.00084L209.501 1.50084L234.693 1.23384L259.884 0.966844L260.268 5.23384L260.652 9.50084L260.826 5.25884L261.001 1.01784L317.751 0.744844C348.963 0.593844 290.767 0.376844 188.426 0.261844C47.0157 0.101844 2.06872 0.332844 1.17572 1.22584ZM0.225716 393.692C0.349716 607.537 0.585716 774.524 0.748716 764.775L1.04672 747.049L57.2737 747.481C88.1987 747.718 170.426 748.185 240.001 748.518C309.576 748.851 387.876 749.299 414.001 749.514C440.126 749.728 460.826 749.529 460.001 749.07C459.176 748.611 407.201 747.956 344.501 747.613C281.801 747.27 208.001 746.768 180.501 746.497C153.001 746.227 101.701 745.737 66.5007 745.409C31.3007 745.082 2.33672 744.655 2.13772 744.46C1.93772 744.266 1.79772 578.043 1.82672 375.076C1.85972 145.907 1.52372 5.82384 0.940716 5.46384C0.354716 5.10184 0.0857158 151.363 0.225716 393.692ZM235.845 13.1618C236.137 16.2238 236.475 16.9048 237.127 15.7408C237.652 14.8028 237.613 13.1098 237.031 11.5798C235.662 7.97984 235.386 8.34784 235.845 13.1618ZM232.001 13.5008C232.001 14.3258 232.451 15.0008 233.001 15.0008C233.551 15.0008 234.001 14.3258 234.001 13.5008C234.001 12.6758 233.551 12.0008 233.001 12.0008C232.451 12.0008 232.001 12.6758 232.001 13.5008ZM239.501 33.8878C231.848 36.1118 228.363 38.0048 223.985 42.3138C218.174 48.0328 215.662 54.2428 215.188 64.0558C214.803 72.0258 214.984 73.0238 217.829 78.6598C221.094 85.1268 228.725 92.7988 235.159 96.0818C240.981 99.0518 241.099 98.3058 235.339 94.9468C228.297 90.8418 222.607 85.1008 219.317 78.7848C217.082 74.4938 216.563 72.1858 216.559 66.5008C216.55 54.1928 221.304 44.2158 229.407 39.5388C235.214 36.1878 246.431 32.9658 250.266 33.5478C252.83 33.9368 253.086 33.8418 251.501 33.0898C248.667 31.7458 246.337 31.9008 239.501 33.8878ZM257.734 35.1248C258.413 35.8088 259.22 36.1158 259.527 35.8078C259.835 35.4998 259.28 34.9408 258.294 34.5648C256.869 34.0228 256.754 34.1368 257.734 35.1248ZM265.054 39.1538C269.403 42.3048 269.405 42.3078 266.954 43.3058C264.677 44.2338 264.645 44.3398 266.501 44.7878L268.501 45.2708L266.501 46.0658C265.06 46.6378 265.811 46.8798 269.192 46.9308C274.552 47.0108 276.939 48.9618 271.81 49.0708C269.99 49.1098 267.601 49.5478 266.501 50.0448C265.061 50.6958 266.108 50.9058 270.236 50.7928C273.39 50.7078 276.278 50.9448 276.653 51.3188C277.028 51.6938 275.208 52.0008 272.609 52.0008C269.381 52.0008 268.102 52.3548 268.574 53.1188C269.01 53.8238 270.876 54.0158 273.633 53.6378C276.228 53.2818 278.001 53.4368 278.001 54.0198C278.001 54.5598 276.624 55.0008 274.942 55.0008C273.044 55.0008 272.131 55.4028 272.537 56.0598C272.912 56.6668 274.43 56.8458 276.096 56.4798C277.903 56.0828 279.001 56.2498 279.001 56.9218C279.001 57.5148 277.903 58.0008 276.56 58.0008C273.411 58.0008 272.144 59.9628 275.192 60.1188C277.127 60.2178 277.016 60.3608 274.501 61.0008C271.823 61.6818 272.011 61.7768 276.251 61.8828C281.317 62.0088 283.019 64.0008 278.06 64.0008C276.442 64.0008 274.806 64.5068 274.424 65.1258C273.941 65.9068 274.841 66.1218 277.365 65.8268C279.365 65.5938 281.001 65.7618 281.001 66.2018C281.001 66.6408 278.414 67.0538 275.251 67.1188C272.088 67.1838 268.151 67.6068 266.501 68.0578C264.431 68.6238 266.214 68.8198 272.251 68.6898C278.128 68.5628 281.001 68.8668 281.001 69.6148C281.001 70.7268 274.499 71.9868 268.611 72.0158C266.901 72.0248 264.826 72.5089 264.001 73.0919C262.915 73.8589 264.983 74.0348 271.501 73.7288C280.419 73.3088 280.105 73.5378 268.501 75.9058C263.855 76.8538 264.05 76.8898 271.251 76.4218C276.281 76.0948 279.001 76.2828 279.001 76.9588C279.001 77.5318 277.314 78.0078 275.251 78.0158C273.189 78.0248 270.826 78.4678 270.001 79.0008C268.794 79.7808 268.952 79.9728 270.81 79.9858C272.288 79.9948 272.864 80.4129 272.411 81.1469C271.912 81.9529 272.487 82.0958 274.352 81.6278C276.347 81.1268 277.001 81.3378 277.001 82.4818C277.001 83.4358 276.07 84.0008 274.501 84.0008C271.862 84.0008 271.332 84.9318 273.014 86.6138C274.366 87.9658 270.981 91.0858 263.972 94.9488C260.963 96.6078 259.176 97.9688 260.001 97.9748C262.524 97.9908 270.569 92.7098 273.878 88.8658C285.013 75.9278 285.022 58.2168 273.9 45.5338C270.283 41.4088 263.362 36.0008 261.701 36.0008C261.151 36.0008 262.66 37.4198 265.054 39.1538ZM368.001 70.9798C371.026 71.3748 375.881 72.9068 378.79 74.3858L384.079 77.0738L377.79 84.7818C374.331 89.0218 369.026 95.4638 366.001 99.0988C362.976 102.733 356.978 110.498 352.671 116.354C348.365 122.21 344.52 127.001 344.127 127.001C343.458 127.001 338.418 120.627 334.661 115.028C333.748 113.669 333.001 113.055 333.001 113.665C333.001 117.746 346.776 133.01 350.448 132.997C351.027 132.995 350.014 132.087 348.196 130.979L344.891 128.964L346.863 126.232C347.947 124.73 352.688 118.551 357.399 112.501C362.109 106.451 369.846 96.4328 374.592 90.2388C379.338 84.0448 383.916 78.5878 384.765 78.1128C386.06 77.3888 385.892 76.9748 383.724 75.5548C379.171 72.5718 371.107 69.9968 366.74 70.1318C362.673 70.2578 362.724 70.2918 368.001 70.9798ZM350.03 71.9618C347.649 73.4668 349.273 73.7858 352.001 72.3478C353.379 71.6218 353.828 71.0308 353.001 71.0308C352.176 71.0308 350.839 71.4498 350.03 71.9618ZM111.001 72.9258C108.361 73.4238 109.836 73.7318 117.001 74.1788C130.395 75.0128 136.534 77.9908 142.266 86.4368C144.149 89.2098 144.64 90.7318 143.928 91.5888C143.229 92.4308 143.316 92.9658 144.209 93.3248C145.198 93.7208 145.208 93.8618 144.251 93.9218C143.564 93.9648 143.001 94.6388 143.001 95.4178C143.001 96.1968 142.439 97.0958 141.751 97.4158C141.064 97.7358 141.978 97.8488 143.782 97.6678C147.772 97.2668 146.829 98.3349 141.765 99.9529C139.71 100.61 137.771 101.564 137.456 102.074C136.648 103.381 138.098 103.231 143.001 101.501C145.339 100.676 147.421 100.001 147.627 100.001C147.833 100.001 148.001 101.541 148.001 103.423C148.001 106.446 147.593 106.98 144.515 107.996C140.697 109.256 138.299 111.63 141.876 110.608C143.045 110.274 144.901 109.746 146.001 109.434C147.101 109.122 148.001 109.338 148.001 109.915C148.001 110.491 146.78 111.269 145.287 111.644C142.862 112.253 142.782 112.399 144.537 113.021C146.193 113.609 145.992 113.831 143.251 114.439C141.464 114.835 140.001 115.574 140.001 116.08C140.001 117.313 141.681 117.242 144.182 115.904C145.796 115.04 146.138 115.091 145.787 116.143C145.542 116.878 143.202 118.083 140.587 118.822C134.786 120.46 135.186 121.396 141.296 120.48C145.365 119.869 145.916 119.444 147.341 115.818C148.426 113.055 148.834 109.164 148.666 103.165C148.378 92.8128 145.573 86.3588 138.87 80.6208C131.942 74.6908 119.642 71.2948 111.001 72.9258ZM101.82 74.9818C100.345 75.4268 98.3087 76.4008 97.2947 77.1458C95.5567 78.4238 95.6717 78.7278 99.3227 82.5008L103.194 86.5008L100.642 82.5838C98.1117 78.7008 98.0137 77.0428 100.31 76.9558C100.965 76.9308 102.851 76.2928 104.501 75.5368C107.777 74.0368 106.101 73.6898 101.82 74.9818ZM275.001 79.3938C275.001 79.6098 275.676 80.0458 276.501 80.3628C277.326 80.6788 278.001 80.5018 278.001 79.9698C278.001 79.4368 277.326 79.0008 276.501 79.0008C275.676 79.0008 275.001 79.1778 275.001 79.3938ZM338.873 80.7508C337.63 82.3368 337.665 82.3718 339.251 81.1288C340.917 79.8218 341.446 79.0008 340.623 79.0008C340.416 79.0008 339.628 79.7878 338.873 80.7508ZM392.001 84.0008C392.59 85.1008 393.296 86.0008 393.571 86.0008C393.846 86.0008 393.59 85.1008 393.001 84.0008C392.412 82.9008 391.706 82.0008 391.431 82.0008C391.156 82.0008 391.412 82.9008 392.001 84.0008ZM333.883 88.6928C332.301 91.2508 331.517 94.2438 331.327 98.4428L331.054 104.501L332.324 98.0008C333.023 94.4258 334.373 90.0378 335.324 88.2508C337.672 83.8348 336.7 84.1328 333.883 88.6928ZM394.582 88.5008C394.985 89.6008 395.796 92.4128 396.385 94.7508C396.974 97.0888 397.782 99.0008 398.181 99.0008C399.08 99.0008 396.752 91.0708 395.079 88.4368C393.882 86.5508 393.869 86.5528 394.582 88.5008ZM104.001 88.3788C104.001 88.5858 104.788 89.3738 105.751 90.1288C107.337 91.3718 107.372 91.3368 106.129 89.7508C104.822 88.0848 104.001 87.5558 104.001 88.3788ZM243.27 98.6938C244.243 98.9478 245.593 98.9308 246.27 98.6568C246.947 98.3828 246.151 98.1758 244.501 98.1958C242.851 98.2158 242.297 98.4398 243.27 98.6938ZM396.879 101.905C397.637 102.385 397.948 103.278 397.57 103.889C397.192 104.501 397.36 105.001 397.942 105.001C398.524 105.001 399.001 104.101 399.001 103.001C399.001 101.757 398.339 101.007 397.251 101.016C395.867 101.028 395.789 101.214 396.879 101.905ZM143.001 105.001C141.668 105.863 141.668 105.97 143.001 105.97C143.826 105.97 145.176 105.534 146.001 105.001C147.334 104.139 147.334 104.032 146.001 104.032C145.176 104.032 143.826 104.468 143.001 105.001ZM117.511 106.096C118.315 107.475 123.364 114.013 131.706 124.48C136.034 129.91 136.178 130.979 132.584 131.031C130.688 131.059 130.658 131.154 132.252 132.082C133.611 132.873 134.799 132.494 137.561 130.388C140.925 127.822 144.667 122.333 143.707 121.373C143.464 121.13 141.293 121.386 138.883 121.942C136.473 122.497 134.011 122.963 133.412 122.977C132.814 122.99 129.302 119.187 125.608 114.526C119.404 106.698 115.478 102.61 117.511 106.096ZM396.572 110.572C396.205 112.038 396.129 113.462 396.404 113.737C396.679 114.012 397.205 113.038 397.572 111.572C397.94 110.107 398.016 108.683 397.741 108.408C397.466 108.133 396.94 109.107 396.572 110.572ZM394.145 117.751C393.054 120.301 393.079 120.36 394.485 118.56C395.319 117.492 396.001 116.255 396.001 115.81C396.001 114.29 395.323 115 394.145 117.751ZM84.0867 117.001C84.0557 117.826 84.4677 119.176 85.0007 120.001C86.1817 121.829 86.1817 120.25 85.0007 117.501C84.4337 116.182 84.1227 116.012 84.0867 117.001ZM245.733 121.251C245.177 127.585 244.812 253.546 245.351 252.932C245.898 252.311 247.187 116.001 246.646 116.001C246.397 116.001 245.987 118.363 245.733 121.251ZM136.501 123.962C134.259 124.504 133.9 124.863 135.079 125.385C136.596 126.056 142.001 124.605 142.001 123.526C142.001 122.885 140.45 123.008 136.501 123.962ZM384.501 129.618C382.301 131.565 381.401 132.715 382.501 132.172C384.336 131.266 389.902 125.952 388.925 126.039C388.692 126.059 386.701 127.67 384.501 129.618ZM137.001 128.06C137.001 128.642 137.451 128.841 138.001 128.501C138.551 128.161 139.001 127.685 139.001 127.442C139.001 127.199 138.551 127.001 138.001 127.001C137.451 127.001 137.001 127.478 137.001 128.06ZM93.0007 131.431C93.0007 131.706 93.9007 132.412 95.0007 133.001C96.1007 133.59 97.0007 133.846 97.0007 133.571C97.0007 133.296 96.1007 132.59 95.0007 132.001C93.9007 131.412 93.0007 131.156 93.0007 131.431ZM130.001 134.001C129.1 134.583 128.976 134.976 129.692 134.986C130.347 134.994 131.161 134.551 131.501 134.001C132.268 132.759 131.922 132.759 130.001 134.001ZM377.798 133.537C377.503 133.832 374.391 134.733 370.881 135.539L364.501 137.004L369.921 136.446C374.605 135.963 382.443 133.153 379.418 133.041C378.822 133.019 378.093 133.242 377.798 133.537ZM99.4417 135.446C100.51 136.301 101.822 137.001 102.359 137.001C103.629 137.001 103.062 136.539 100.001 135.081C97.6437 133.959 97.6117 133.979 99.4417 135.446ZM124.501 136.001C123.182 136.568 123.012 136.879 124.001 136.915C124.826 136.946 126.176 136.534 127.001 136.001C128.829 134.82 127.25 134.82 124.501 136.001ZM174.159 147.001C174.159 148.376 174.386 148.939 174.663 148.251C174.941 147.564 174.941 146.439 174.663 145.751C174.386 145.064 174.159 145.626 174.159 147.001ZM325.117 160.001C323.294 166.876 320.023 178.74 317.849 186.365C315.674 193.99 314.103 200.436 314.357 200.69C314.611 200.944 315.055 200.33 315.344 199.326C315.633 198.322 317.477 191.876 319.442 185.001C321.406 178.126 323.427 171.151 323.932 169.501C326.921 159.74 329.084 150.686 328.781 149.206C328.59 148.268 326.941 153.126 325.117 160.001ZM430.355 148.766C429.725 149.17 431.942 149.582 435.28 149.682C452.784 150.204 463.59 161.301 465.654 180.874C466.422 188.158 467.001 188.7 467.001 182.136C467.001 175.776 463.864 166.116 459.953 160.431C456.556 155.493 449.469 150.84 442.808 149.175C437.511 147.85 432.063 147.671 430.355 148.766ZM175.08 151.584C175.128 152.749 175.365 152.986 175.684 152.189C175.973 151.467 175.937 150.604 175.605 150.272C175.273 149.94 175.037 150.53 175.08 151.584ZM421.001 151.001C419.173 152.182 420.752 152.182 423.501 151.001C424.82 150.434 424.99 150.123 424.001 150.087C423.176 150.056 421.826 150.468 421.001 151.001ZM176.105 154.857C175.944 156.952 178.708 167.295 182.956 180.501C185.079 187.101 188.019 197.001 189.488 202.501C192.749 214.712 194.819 221.003 194.916 219.001C195.031 216.618 189.385 195.891 184.02 179.001C181.312 170.476 178.447 161.251 177.653 158.501C176.859 155.751 176.162 154.111 176.105 154.857ZM411.583 156.115C410.105 157.278 409.125 158.459 409.406 158.739C409.687 159.02 411.32 158.069 413.035 156.625C416.739 153.509 415.465 153.061 411.583 156.115ZM36.1687 159.178C28.0937 160.096 21.8187 164 16.1757 171.617C9.93071 180.046 6.12272 194.483 8.96072 198.97C9.60072 199.982 9.87672 198.837 9.84972 195.293C9.79672 188.51 10.7197 184.548 13.7497 178.536C17.5047 171.086 21.5687 166.554 27.2827 163.444C31.8267 160.971 33.4737 160.644 41.4627 160.629C48.8507 160.616 51.2717 161.014 54.7227 162.813C60.5757 165.863 65.3017 170.218 68.7927 175.779C72.6747 181.963 73.4527 185.406 71.4257 187.433C69.9907 188.868 70.0577 189.093 72.1747 189.942C74.4467 190.853 74.4357 190.876 71.6917 190.938C68.4317 191.011 68.9947 192.96 72.3097 193.08C73.7037 193.13 73.9547 193.341 73.0007 193.659C68.6367 195.115 68.5007 195.276 71.0007 196.039C73.1797 196.704 72.9867 196.828 69.5007 197.006L65.5007 197.211L69.5007 198.482L73.5007 199.753L70.5007 200.236C67.6857 200.689 67.6397 200.766 69.7507 201.477C72.8477 202.52 72.5747 203.973 69.2507 204.137C66.8927 204.254 66.8217 204.335 68.7507 204.707C72.1307 205.358 71.4557 206.984 67.7507 207.119L64.5007 207.238L67.5007 208.001C70.4567 208.753 70.4617 208.766 67.8577 208.883C66.4037 208.948 64.9347 209.73 64.5927 210.622C64.1147 211.868 64.4367 212.12 65.9877 211.715C67.0957 211.425 67.7517 211.596 67.4427 212.094C67.1347 212.593 65.8967 213.033 64.6917 213.071C62.7387 213.134 62.7007 213.22 64.3477 213.868C65.9467 214.498 65.6727 214.957 62.2937 217.298C58.1477 220.171 56.4267 220.738 57.5957 218.846C58.0417 218.125 57.8697 217.964 57.1387 218.416C56.4947 218.814 56.1967 219.51 56.4767 219.963C56.7567 220.415 55.0767 221.745 52.7437 222.918C50.4097 224.091 49.6257 224.771 51.0007 224.429C52.3757 224.088 56.4907 222.06 60.1447 219.923C67.4987 215.623 70.6247 211.409 73.3917 202.069C77.2657 188.992 73.7847 176.587 63.6087 167.207C55.6347 159.858 48.5137 157.774 36.1687 159.178ZM433.56 164.125C428.815 165.237 427.142 166.526 431.714 165.546C437.926 164.216 445.775 164.807 450.695 166.977C453.484 168.206 454.871 168.507 454.001 167.694C451.695 165.538 444.331 162.989 440.731 163.101C438.954 163.157 435.728 163.617 433.56 164.125ZM425.508 166.99C425.158 167.556 425.559 167.724 426.449 167.383C428.181 166.718 428.498 166.001 427.06 166.001C426.542 166.001 425.844 166.446 425.508 166.99ZM461.001 175.001C461.001 175.551 461.478 176.001 462.06 176.001C462.642 176.001 462.841 175.551 462.501 175.001C462.161 174.451 461.685 174.001 461.442 174.001C461.199 174.001 461.001 174.451 461.001 175.001ZM30.2367 175.946C18.7597 178.789 10.7737 190.785 12.3637 202.795C12.7917 206.024 12.6797 207.03 12.0097 206.001C11.4717 205.176 11.0247 203.714 11.0157 202.751C11.0077 201.788 10.5737 201.001 10.0527 201.001C8.72372 201.001 10.5897 205.921 13.0887 209.001L15.1157 211.501L14.4867 208.288C13.5067 203.278 13.7467 194.796 14.9597 191.607C18.2937 182.843 26.9077 177.001 36.4947 177.001C44.4897 177.001 49.3667 178.691 54.5597 183.262C57.0027 185.412 59.0007 186.878 59.0007 186.519C59.0007 185.269 51.8997 179.181 48.7127 177.699C44.7027 175.834 34.5687 174.872 30.2367 175.946ZM402.086 182.783C402 186.101 404.344 193.001 405.557 193.001C405.919 193.001 405.881 192.214 405.473 191.251C405.065 190.288 404.155 187.251 403.451 184.501C402.313 180.056 402.162 179.865 402.086 182.783ZM119.001 192.001C119.59 193.101 120.296 194.001 120.571 194.001C120.846 194.001 120.59 193.101 120.001 192.001C119.412 190.901 118.706 190.001 118.431 190.001C118.156 190.001 118.412 190.901 119.001 192.001ZM413.732 192.081C414.086 193.433 414.539 193.887 414.789 193.138C415.029 192.416 414.751 191.351 414.169 190.769C413.427 190.027 413.297 190.418 413.732 192.081ZM121.971 196.945C122.544 198.015 123.506 199.195 124.11 199.568C124.714 199.942 124.435 199.067 123.49 197.624C121.488 194.569 120.452 194.106 121.971 196.945ZM414.701 196.751C415.836 199.87 420.921 206.792 423.747 209.064L426.501 211.279L423.501 210.626C421.05 210.093 420.832 210.174 422.312 211.071C423.308 211.675 424.77 211.92 425.562 211.616C426.353 211.312 427.001 211.5 427.001 212.032C427.001 212.565 428.463 212.991 430.251 212.979L433.501 212.957L429.501 211.101C424.417 208.742 419.933 204.272 417.448 199.086C415.534 195.093 413.454 193.325 414.701 196.751ZM462.001 197.811C462.001 198.257 460.598 200.057 458.882 201.811C457.167 203.566 456.227 205.001 456.793 205.001C457.99 205.001 463.001 199.289 463.001 197.924C463.001 197.416 462.776 197.001 462.501 197.001C462.226 197.001 462.001 197.366 462.001 197.811ZM456.814 198.684C457.535 198.973 458.398 198.937 458.73 198.605C459.062 198.273 458.472 198.037 457.418 198.08C456.253 198.128 456.016 198.365 456.814 198.684ZM62.1957 202.501C62.2157 204.151 62.4397 204.705 62.6937 203.732C62.9477 202.759 62.9307 201.409 62.6567 200.732C62.3827 200.055 62.1757 200.851 62.1957 202.501ZM126.154 204.437C126.796 205.847 127.716 207.001 128.197 207.001C129.22 207.001 127.456 203.4 125.988 202.493C125.416 202.139 125.487 202.973 126.154 204.437ZM413.501 205.586C418.317 209.621 420.894 210.507 416.501 206.618C414.301 204.67 412.051 203.075 411.501 203.075C410.951 203.074 411.851 204.204 413.501 205.586ZM451.814 204.684C452.535 204.973 453.398 204.937 453.73 204.605C454.062 204.273 453.472 204.037 452.418 204.08C451.253 204.128 451.016 204.365 451.814 204.684ZM61.6677 206.668C61.3007 207.034 61.0297 208.272 61.0637 209.418C61.1227 211.333 61.2047 211.308 62.0857 209.106C63.0647 206.658 62.8617 205.473 61.6677 206.668ZM129.08 209.584C129.128 210.749 129.365 210.986 129.684 210.189C129.973 209.467 129.937 208.604 129.605 208.272C129.273 207.94 129.037 208.53 129.08 209.584ZM15.9647 213.837C16.6237 215.121 17.4367 215.898 17.7717 215.563C18.1077 215.228 17.5687 214.177 16.5747 213.227C14.8467 211.577 14.8197 211.604 15.9647 213.837ZM368.001 214.001C367.412 215.101 367.156 216.001 367.431 216.001C367.706 216.001 368.412 215.101 369.001 214.001C369.59 212.901 369.846 212.001 369.571 212.001C369.296 212.001 368.59 212.901 368.001 214.001ZM309.08 215.584C309.128 216.749 309.365 216.986 309.684 216.189C309.973 215.467 309.937 214.604 309.605 214.272C309.273 213.94 309.037 214.53 309.08 215.584ZM133.005 215.78C133 217.282 138.003 227.19 140.942 231.501C143.881 235.811 143.474 233.881 139.988 226.975C135.889 218.856 133.009 214.238 133.005 215.78ZM21.7337 219.125C22.4127 219.809 23.2197 220.116 23.5267 219.808C23.8347 219.5 23.2797 218.941 22.2937 218.565C20.8687 218.023 20.7537 218.137 21.7337 219.125ZM363.636 222.435C362.737 223.807 362.001 225.135 362.001 225.384C362.001 225.634 359.254 230.487 355.898 236.17C349.249 247.423 345.732 254.001 346.363 254.001C347.685 254.001 366.571 221.238 365.732 220.399C365.479 220.146 364.536 221.062 363.636 222.435ZM196.149 226.501C196.153 227.601 197.017 230.751 198.068 233.501C199.599 237.504 199.858 237.81 199.364 235.037C198.52 230.29 196.14 223.972 196.149 226.501ZM305.117 228.099C304.503 229.859 304.033 231.795 304.071 232.4C304.11 233.006 304.787 231.74 305.575 229.588C306.364 227.436 306.834 225.501 306.621 225.287C306.407 225.074 305.73 226.339 305.117 228.099ZM77.0007 231.677C77.0007 232.76 83.7547 242.001 84.5467 242.001C85.3827 242.001 85.0217 241.39 81.0007 236.001C78.8007 233.052 77.0007 231.106 77.0007 231.677ZM303.08 235.584C303.128 236.749 303.365 236.986 303.684 236.189C303.973 235.467 303.937 234.604 303.605 234.272C303.273 233.94 303.037 234.53 303.08 235.584ZM299.001 248.001C297.823 251.956 297.031 255.364 297.24 255.574C297.45 255.783 298.621 252.754 299.843 248.843C301.065 244.932 301.857 241.524 301.604 241.27C301.35 241.017 300.179 244.046 299.001 248.001ZM85.0007 243.379C85.0007 243.586 85.6857 244.325 86.5237 245.02C87.7967 246.077 87.9437 246.015 87.4167 244.642C86.8787 243.241 85.0007 242.258 85.0007 243.379ZM201.08 244.584C201.128 245.749 201.365 245.986 201.684 245.189C201.973 244.467 201.937 243.604 201.605 243.272C201.273 242.94 201.037 243.53 201.08 244.584ZM417.747 252.751C408.381 264.59 394.894 285.001 396.436 285.001C396.722 285.001 400.185 280.164 404.13 274.251C408.076 268.338 413.849 260.126 416.959 256.001C423.273 247.628 424.354 246.001 423.603 246.001C423.319 246.001 420.683 249.038 417.747 252.751ZM202.08 248.584C202.128 249.749 202.365 249.986 202.684 249.189C202.973 248.467 202.937 247.604 202.605 247.272C202.273 246.94 202.037 247.53 202.08 248.584ZM344.001 257.001C343.412 258.101 343.156 259.001 343.431 259.001C343.706 259.001 344.412 258.101 345.001 257.001C345.59 255.901 345.846 255.001 345.571 255.001C345.296 255.001 344.59 255.901 344.001 257.001ZM38.5597 269.251C46.1487 277.757 50.9997 282.476 50.9997 281.352C51.0007 279.89 37.1467 265.001 35.7857 265.001C35.2257 265.001 36.4747 266.914 38.5597 269.251ZM123.279 268.187C114.939 269.107 93.9307 275.506 86.5397 279.378C79.1097 283.27 70.3347 291.314 63.5237 300.477C60.6517 304.34 55.4127 310.651 51.8797 314.501C44.4807 322.565 41.2877 327.323 38.1997 334.884C35.4007 341.737 35.3667 345.085 38.1607 338.751C40.4227 333.622 41.3537 333.031 42.8887 335.751C43.6797 337.153 44.1277 337.252 45.1387 336.251C45.8327 335.564 47.1677 335.001 48.1057 335.001C49.4807 335.001 49.7667 334.178 49.5837 330.751C49.3827 327.011 49.0947 326.539 47.1777 326.814C43.3997 327.357 44.7307 324.784 52.5137 316.499C56.6457 312.1 60.8077 307.432 61.7637 306.125C62.7187 304.819 64.5137 302.504 65.7507 300.981C66.9887 299.458 68.0007 297.928 68.0007 297.58C68.0007 294.722 82.0837 283.267 90.3037 279.44C96.3427 276.629 98.0007 276.426 98.0007 278.501C98.0007 279.326 97.3257 280.001 96.5007 280.001C95.6757 280.001 95.0007 280.676 95.0007 281.501C95.0007 282.326 95.4507 283.001 96.0007 283.001C96.5507 283.001 97.0007 283.826 97.0007 284.834C97.0007 287.681 97.8957 287.955 101.327 286.161C103.073 285.248 104.554 284.501 104.618 284.501C104.683 284.501 105.043 282.799 105.42 280.719C106.077 277.085 106.008 276.961 103.661 277.55C98.6067 278.819 100.262 276.15 105.764 274.159C117.927 269.757 125.334 268.869 139.717 270.088C147.174 270.72 150.995 271.707 159.726 275.257C169.849 279.374 175.028 282.588 184.245 290.477C187.804 293.524 187.92 293.789 185.929 294.31C183.028 295.068 184.006 297.424 187.387 297.823C188.89 298 190.361 298.9 190.656 299.823C190.951 300.746 191.38 302.114 191.609 302.864C191.948 303.975 192.308 303.991 193.563 302.95C194.823 301.904 195.377 301.949 196.626 303.197C197.991 304.563 197.823 304.787 195.009 305.349C193.258 305.7 192.145 306.425 192.494 306.989C192.838 307.546 192.219 308.001 191.119 308.001C190.019 308.001 188.841 308.451 188.501 309.001C188.161 309.551 188.81 310.001 189.942 310.001C191.074 310.001 192.001 310.451 192.001 311.001C192.001 311.551 193.603 312.001 195.56 312.001C197.678 312.001 198.869 312.406 198.501 313.001C197.871 314.02 199.12 314.371 202.243 314.055C203.507 313.926 203.804 314.35 203.325 315.598C202.761 317.069 203.118 317.228 205.794 316.692C207.515 316.348 209.192 316.502 209.521 317.034C209.856 317.575 208.797 318.001 207.119 318.001C205.469 318.001 203.841 318.451 203.501 319.001C203.12 319.617 204.804 320.001 207.883 320.001C210.633 320.001 213.161 320.451 213.501 321.001C213.882 321.617 212.178 322.001 209.06 322.001C206.278 322.001 204.001 322.451 204.001 323.001C204.001 323.555 206.648 324.001 209.942 324.001C213.21 324.001 216.161 324.451 216.501 325.001C216.885 325.622 215.011 326.001 211.56 326.001C208.503 326.001 206.001 326.451 206.001 327.001C206.001 327.565 208.834 328.001 212.501 328.001C216.168 328.001 219.001 328.437 219.001 329.001C219.001 329.565 216.168 330.001 212.501 330.001C208.37 330.001 206.001 330.409 206.001 331.121C206.001 331.889 208.359 332.096 213.501 331.781C217.626 331.529 221.001 331.7 221.001 332.161C221.001 332.623 217.176 333.001 212.501 333.001C207.501 333.001 204.001 333.413 204.001 334.001C204.001 334.597 207.834 335.001 213.501 335.001C218.726 335.001 223.001 335.409 223.001 335.907C223.001 336.406 222.104 336.579 221.009 336.293C218.273 335.577 210.001 336.907 210.001 338.062C210.001 338.579 211.486 339.001 213.301 339.001C215.116 339.001 217.028 339.419 217.551 339.93C218.073 340.44 220.076 341.043 222.001 341.27L225.501 341.681L221.751 341.841C219.689 341.929 218.001 342.396 218.001 342.88C218.001 344.181 223.731 346.319 225.451 345.659C226.268 345.345 227.203 345.519 227.528 346.045C227.853 346.571 227.166 347.001 226.001 347.001C224.836 347.001 224.161 347.451 224.501 348.001C224.841 348.551 225.981 349.001 227.034 349.001C229.369 349.001 231.198 352.377 233.536 361.001C235.268 367.391 237.001 370.866 237.001 367.951C237 362.526 224.306 331.873 219.213 325.001C216.625 321.508 214.413 319.113 194.867 298.647C175.522 278.391 159.426 269.684 138.501 268.158C133.551 267.796 126.701 267.81 123.279 268.187ZM142.001 273.384C142.001 274.145 140.996 275.03 139.768 275.352C137.999 275.814 137.791 276.191 138.768 277.168C139.446 277.846 140.001 279.185 140.001 280.144C140.001 281.535 140.759 281.838 143.751 281.645C146.478 281.469 147.504 280.949 147.513 279.74C147.519 278.826 148.081 277.521 148.763 276.839C150.653 274.949 150.252 274.001 147.56 274.001C146.217 274.001 144.841 273.551 144.501 273.001C143.596 271.537 142.001 271.781 142.001 273.384ZM439.167 289.092C434.779 293.081 429.082 299.619 431.027 298.432C432.601 297.472 443.601 285.978 442.896 286.03C442.679 286.046 441.001 287.424 439.167 289.092ZM159.615 297.565C159.264 298.48 158.114 298.999 156.844 298.815C154.901 298.534 154.651 298.998 154.465 303.238C154.266 307.762 154.363 307.948 156.629 307.38C158.056 307.021 159.001 307.226 159.001 307.893C159.001 308.502 159.676 309.001 160.501 309.001C161.326 309.001 162.001 308.263 162.001 307.361C162.001 306.459 162.788 305.109 163.751 304.361C165.418 303.064 165.418 302.95 163.751 301.951C162.788 301.374 162.001 299.799 162.001 298.451C162.001 295.708 160.536 295.164 159.615 297.565ZM331.27 299.694C332.243 299.948 333.593 299.931 334.27 299.657C334.947 299.383 334.151 299.176 332.501 299.196C330.851 299.216 330.297 299.44 331.27 299.694ZM336.814 299.684C337.535 299.973 338.398 299.937 338.73 299.605C339.062 299.273 338.472 299.037 337.418 299.08C336.253 299.128 336.016 299.365 336.814 299.684ZM344.122 300.351C348.251 301.379 348.658 301.728 347.947 303.636C345.952 308.985 353.754 312.322 357.569 307.751C358.603 306.513 358.807 306.064 358.024 306.751C355.894 308.622 353.211 308.261 351.967 305.937C350.148 302.539 352.21 301.036 357.162 302.148C359.419 302.656 361.466 302.869 361.712 302.623C362.337 301.998 352.697 300.246 345.501 299.677L339.501 299.202L344.122 300.351ZM323.814 300.684C324.535 300.973 325.398 300.937 325.73 300.605C326.062 300.273 325.472 300.037 324.418 300.08C323.253 300.128 323.016 300.365 323.814 300.684ZM120.001 302.001C120.001 302.551 118.86 303.001 117.466 303.001C115.311 303.001 115.079 303.278 115.919 304.848C116.585 306.092 116.56 307.042 115.841 307.761C114.47 309.132 115.645 311.075 117.432 310.389C118.184 310.101 119.096 310.345 119.459 310.933C120.486 312.595 123.001 312.189 123.001 310.361C123.001 309.459 123.788 308.142 124.751 307.433C126.418 306.205 126.418 306.112 124.751 305.465C123.788 305.092 123.001 303.935 123.001 302.894C123.001 301.853 122.326 301.001 121.501 301.001C120.676 301.001 120.001 301.451 120.001 302.001ZM316.001 302.578L313.501 304.084L316.001 303.43C317.376 303.071 318.929 302.377 319.451 301.889C320.978 300.461 318.787 300.899 316.001 302.578ZM310.508 304.99C310.158 305.556 310.559 305.724 311.449 305.383C313.181 304.718 313.498 304.001 312.06 304.001C311.542 304.001 310.844 304.446 310.508 304.99ZM366.001 305.001C366.826 305.534 367.951 305.97 368.501 305.97C369.051 305.97 368.826 305.534 368.001 305.001C367.176 304.468 366.051 304.032 365.501 304.032C364.951 304.032 365.176 304.468 366.001 305.001ZM306.442 307.556C304.578 309.05 304.59 309.068 306.751 308.021C307.989 307.421 309.001 306.721 309.001 306.466C309.001 305.701 308.482 305.922 306.442 307.556ZM370.027 306.308C370.945 307.317 378.065 312.001 378.68 312.001C379.569 312.001 374.852 308.48 372.001 307.015C370.626 306.308 369.738 305.99 370.027 306.308ZM195.814 307.684C196.535 307.973 197.398 307.937 197.73 307.605C198.062 307.273 197.472 307.037 196.418 307.08C195.253 307.128 195.016 307.365 195.814 307.684ZM297.501 311.561C295.851 312.37 295.313 312.804 296.306 312.527C297.298 312.249 299.459 313.019 301.107 314.238C303.862 316.274 304.316 316.334 306.722 314.977C308.162 314.165 309.545 312.826 309.796 312.001C310.163 310.79 309.995 310.742 308.926 311.751C307.138 313.438 304.517 313.327 303.001 311.501C301.502 309.694 301.306 309.697 297.501 311.561ZM78.0007 315.032C78.0007 316.15 77.3257 317.323 76.5007 317.639C74.5887 318.373 74.5367 321.001 76.4337 321.001C77.2217 321.001 78.1617 321.934 78.5237 323.074C79.1277 324.975 79.3257 325.017 80.9197 323.574C81.8757 322.709 83.3837 322.001 84.2707 322.001C86.2867 322.001 87.3927 320.361 85.9687 319.482C85.3837 319.12 85.0387 317.851 85.2027 316.662C85.4297 315.02 84.9737 314.494 83.3037 314.471C82.0957 314.454 80.7837 314.117 80.3877 313.721C79.0637 312.397 78.0007 312.981 78.0007 315.032ZM381.001 315.501C382.293 316.876 383.8 318.001 384.35 318.001C384.9 318.001 384.293 316.876 383.001 315.501C381.709 314.126 380.202 313.001 379.652 313.001C379.102 313.001 379.709 314.126 381.001 315.501ZM386.001 318.324C386.001 318.564 388.588 320.705 391.751 323.081C397.8 327.625 400.997 330.681 407.392 338.03C410.827 341.977 411.061 342.107 409.392 339.144C406.326 333.7 386.001 315.61 386.001 318.324ZM274.508 320.99C274.158 321.556 274.559 321.724 275.449 321.383C277.181 320.718 277.498 320.001 276.06 320.001C275.542 320.001 274.844 320.446 274.508 320.99ZM329.656 322.83C326.751 326.039 327.625 329.713 331.818 331.922C333.72 332.924 334.571 332.857 336.568 331.549C339.537 329.604 339.72 328.638 336.953 329.516C332.372 330.97 330.014 324.707 334.501 323.001C337.795 321.749 337.666 321.001 334.156 321.001C332.591 321.001 330.566 321.824 329.656 322.83ZM190.499 325.005C190.158 325.557 188.781 325.733 187.44 325.396C185.449 324.897 185.001 325.161 185.001 326.834C185.001 327.961 184.551 329.161 184.001 329.501C182.506 330.425 182.795 333.001 184.394 333.001C185.16 333.001 186.046 333.676 186.363 334.501C187.192 336.663 189.677 336.346 190.291 334.001C190.578 332.901 191.583 332.001 192.524 332.001C193.81 332.001 194.085 331.442 193.631 329.751C193.3 328.513 193.022 326.713 193.015 325.751C193 323.845 191.492 323.398 190.499 325.005ZM268.873 325.751C267.63 327.337 267.665 327.372 269.251 326.129C270.213 325.374 271.001 324.586 271.001 324.379C271.001 323.556 270.18 324.085 268.873 325.751ZM264.873 329.751C263.63 331.337 263.665 331.372 265.251 330.129C266.917 328.822 267.446 328.001 266.623 328.001C266.416 328.001 265.628 328.789 264.873 329.751ZM290.656 331.83C286.554 336.363 291.026 343.688 296.184 340.883L298.501 339.624L296.096 339.04C291.479 337.919 290.533 332.001 294.97 332.001C296.087 332.001 297.001 331.551 297.001 331.001C297.001 329.299 292.402 329.9 290.656 331.83ZM364.616 332.466C363.728 333.821 363.001 335.821 363.001 336.909C363.001 340.752 370.051 343.551 372.801 340.801C374.634 338.968 374.242 338.232 371.69 338.72C369.012 339.232 366.491 336.772 367.363 334.499C367.686 333.658 369.086 332.539 370.475 332.011C373.938 330.694 373.641 330.001 369.616 330.001C367.122 330.001 365.806 330.65 364.616 332.466ZM259.873 335.751C258.63 337.337 258.665 337.372 260.251 336.129C261.917 334.822 262.446 334.001 261.623 334.001C261.416 334.001 260.628 334.789 259.873 335.751ZM255.873 340.751C254.63 342.337 254.665 342.372 256.251 341.129C257.917 339.822 258.446 339.001 257.623 339.001C257.416 339.001 256.628 339.789 255.873 340.751ZM51.8807 341.312C47.1487 342.658 37.0007 348.582 37.0007 349.998C37.0007 350.432 36.3587 351.033 35.5737 351.335C34.3977 351.786 34.3297 351.355 35.1887 348.891C37.1517 343.26 35.3027 344.96 32.3997 351.454C30.4267 355.87 28.7017 358.275 27.0007 358.983L24.5007 360.023L27.0007 359.526C28.3757 359.252 30.3147 359.022 31.3097 359.015C32.3047 359.007 32.8717 358.6 32.5687 358.111C31.6167 356.571 41.2587 347.909 47.0007 345.147C52.0377 342.724 53.5117 342.506 64.5007 342.559C80.9597 342.638 86.0257 343.931 96.1457 350.632C100.741 353.675 107.593 357.736 111.372 359.657C120.77 364.432 126.883 370.825 129.876 379.008C131.183 382.579 135.124 391.578 138.636 399.005C143.205 408.672 145.272 414.355 145.909 419.005C146.399 422.578 147.582 430.581 148.538 436.79L150.276 448.079L148.139 450.355C146.558 452.037 146.036 453.785 146.135 457.065L146.268 461.501L146.942 456.649C147.395 453.386 148.245 451.444 149.536 450.722C150.805 450.011 165.033 449.604 191.479 449.521C221.134 449.427 232.537 449.061 235.501 448.104C237.701 447.395 244.676 446.48 251.001 446.072L262.501 445.33L252.349 445.166L242.197 445.001L242.168 437.551C242.135 429.205 241.573 424.359 239.207 412.001C238.043 405.922 237.63 398.73 237.759 386.751C237.857 377.539 237.571 370.001 237.122 370.001C236.672 370.001 236.241 373.489 236.164 377.751C235.997 386.878 234.643 390.802 231.374 391.622C228.725 392.287 228.189 394.752 230.501 395.639C231.326 395.956 232.001 397.292 232.001 398.608C232.001 401.176 233.399 401.785 234.649 399.761C235.171 398.917 235.637 399.316 236.109 401.011C237.284 405.234 237.086 408.001 235.608 408.001C233.603 408.001 232.843 410.727 234.654 411.421C235.494 411.744 236.591 411.754 237.091 411.445C237.592 411.136 238.001 411.328 238.001 411.872C238.001 412.417 236.989 413.04 235.751 413.258C233.506 413.653 233.507 413.657 236.001 414.764C238.441 415.848 238.447 415.876 236.251 415.938C233.913 416.003 233.056 417.894 235.251 418.143C235.939 418.221 234.736 418.558 232.579 418.893C230.422 419.227 228.513 419.951 228.338 420.501C227.906 421.851 232.737 424.001 236.2 424.001C237.741 424.001 239.001 424.451 239.001 425.001C239.001 425.551 237.903 426.001 236.56 426.001C235.217 426.001 233.841 426.451 233.501 427.001C233.161 427.551 233.585 428.001 234.442 428.001C235.299 428.001 236.001 428.451 236.001 429.001C236.001 429.551 236.901 430.001 238.001 430.001C239.112 430.001 240.001 430.668 240.001 431.501C240.001 432.334 239.112 433.001 238.001 433.001C236.211 433.001 235.808 433.556 236.086 435.639C236.23 436.709 233.632 437.969 231.251 437.986C230.013 437.994 229.001 438.42 229.001 438.931C229.001 439.443 230.013 440.057 231.251 440.295C232.489 440.534 231.39 440.79 228.81 440.865C226.23 440.94 223.811 441.499 223.434 442.109C222.948 442.896 225.242 443.113 231.376 442.859C236.12 442.662 240.001 442.838 240.001 443.251C240.001 443.664 238.463 444.001 236.583 444.001C232.53 444.001 229.818 444.896 230.505 446.008C231.336 447.352 220.432 448.077 200.001 448.036C189.276 448.015 178.701 448.08 176.501 448.181C174.301 448.282 167.773 448.283 161.994 448.183L151.486 448.001L151.241 441.751C151.107 438.314 150.337 432.351 149.531 428.501C148.725 424.651 147.803 419.476 147.482 417.001C147.161 414.526 144.483 407.326 141.531 401.001C136.537 390.301 136.297 389.451 138.082 388.783C140.252 387.972 140.505 386.905 138.908 385.308C138.118 384.518 138.13 383.628 138.951 382.094C139.861 380.394 139.789 379.857 138.592 379.398C137.77 379.082 136.627 379.114 136.053 379.469C134.832 380.223 131.511 376.723 128.054 371.038C125.509 366.852 118.082 361.105 109.501 356.681C106.751 355.263 103.28 353.272 101.789 352.257C99.2447 350.525 99.1627 350.243 100.47 347.723C101.965 344.843 101.195 343.605 98.5427 344.623C97.5557 345.002 96.3877 344.546 95.6047 343.474C94.1947 341.546 92.0007 342.221 92.0007 344.583C92.0007 345.863 91.7177 345.865 89.7507 344.601C84.4897 341.219 59.7607 339.071 51.8807 341.312ZM132.05 342.442C131.393 343.234 130.14 343.608 129.267 343.273C128.002 342.787 127.806 343.147 128.302 345.045C128.696 346.549 128.35 348.063 127.365 349.151C125.471 351.244 126.476 353.302 129.001 352.501C130.008 352.181 131.122 352.388 131.476 352.96C132.4 354.456 134.001 354.242 134.001 352.623C134.001 351.865 135.013 350.498 136.251 349.585C137.795 348.445 138.109 347.753 137.251 347.379C136.564 347.08 136.001 345.522 136.001 343.918C136.001 340.739 134.064 340.016 132.05 342.442ZM412.001 345.001C412.59 346.101 413.296 347.001 413.571 347.001C413.846 347.001 413.59 346.101 413.001 345.001C412.412 343.901 411.706 343.001 411.431 343.001C411.156 343.001 411.412 343.901 412.001 345.001ZM391.001 348.001C388.583 350.419 388.412 354.27 390.626 356.484C392.452 358.309 398.117 358.201 398.731 356.33C398.962 355.625 398.395 355.345 397.308 355.628C396.314 355.886 394.601 355.427 393.501 354.607C391.898 353.414 391.72 352.759 392.603 351.31C393.209 350.315 394.672 349.357 395.853 349.181C398.376 348.806 398.669 347.471 396.419 346.608C393.938 345.656 393.141 345.861 391.001 348.001ZM259.243 350.103C256.09 351.275 254.376 355.334 255.756 358.362C257.214 361.562 260.475 362.257 263.255 359.96C265.471 358.13 265.472 358.112 263.368 358.639C261.9 359.006 260.754 358.486 259.693 356.972C257.757 354.207 258.432 352.357 261.786 351.239C263.605 350.633 263.959 350.2 262.95 349.816C262.153 349.512 260.485 349.642 259.243 350.103ZM341.441 352.229C336.846 354.646 335.611 359.433 338.83 362.346C340.913 364.231 344.235 364.481 347.067 362.966C349.805 361.5 349.466 360.189 346.495 360.757C341.475 361.717 338.608 355.64 343.501 354.412C344.876 354.067 346.001 353.431 346.001 353C346.001 351.612 343.438 351.179 341.441 352.229ZM165.001 353.831C165.001 354.663 164.282 356.138 163.403 357.109C161.662 359.033 162.412 361.441 164.504 360.638C165.222 360.363 166.03 361.004 166.309 362.07C166.966 364.582 168.694 364.544 169.501 362.001C169.85 360.901 170.948 360.001 171.94 360.001C173.389 360.001 173.724 359.231 173.642 356.095L173.54 352.189L169.27 352.253C166.154 352.3 165.001 352.726 165.001 353.831ZM35.0837 359.366C35.3137 359.566 36.6257 360.266 38.0007 360.921C40.3577 362.043 40.3897 362.023 38.5597 360.556C36.9667 359.28 33.7117 358.165 35.0837 359.366ZM422.565 360.294C422.941 361.28 423.5 361.835 423.808 361.527C424.116 361.22 423.809 360.413 423.125 359.734C422.137 358.754 422.023 358.869 422.565 360.294ZM21.4417 361.556C19.5777 363.05 19.5897 363.068 21.7507 362.021C22.9887 361.421 24.0007 360.721 24.0007 360.466C24.0007 359.701 23.4817 359.922 21.4417 361.556ZM16.4057 365.251L14.5007 367.501L16.7507 365.596C17.9887 364.548 19.0007 363.536 19.0007 363.346C19.0007 362.546 18.1957 363.137 16.4057 365.251ZM211.001 364.884C211.001 365.977 210.056 367.043 208.751 367.423L206.501 368.078L208.751 369.661C209.989 370.532 211.001 371.865 211.001 372.623C211.001 373.381 211.676 374.001 212.501 374.001C213.326 374.001 214.001 373.551 214.001 373.001C214.001 372.451 214.874 372.001 215.942 372.001C218.231 372.001 219.494 370.424 217.963 369.477C217.239 369.03 217.396 368.048 218.447 366.444C219.302 365.139 220.001 363.831 220.001 363.536C220.001 362.51 216.392 363.01 215.201 364.201C214.268 365.134 214.001 365.134 214.001 364.201C214.001 363.541 213.326 363.001 212.501 363.001C211.676 363.001 211.001 363.849 211.001 364.884ZM301.7 364.781C298.284 368.556 300.914 374.06 306.08 373.949L308.501 373.896L306.251 372.327C303.424 370.355 303.273 366.367 305.992 365.504C307.087 365.156 308.496 365.189 309.122 365.576C309.816 366.005 310.082 365.738 309.804 364.89C309.08 362.689 303.66 362.616 301.7 364.781ZM396.501 364.047C393.751 364.475 389.026 364.886 386.001 364.958C382.976 365.031 379.151 365.751 377.501 366.557C374.943 367.807 374.87 367.937 377.001 367.441C378.376 367.121 384.001 366.415 389.501 365.873C395.001 365.33 401.751 364.515 404.501 364.061C409.295 363.269 409.336 363.235 405.501 363.252C403.301 363.261 399.251 363.619 396.501 364.047ZM37.7507 365.663C38.4387 365.941 39.5637 365.941 40.2507 365.663C40.9387 365.386 40.3757 365.159 39.0007 365.159C37.6257 365.159 37.0637 365.386 37.7507 365.663ZM415.001 366.001C415.826 366.534 416.951 366.97 417.501 366.97C418.051 366.97 417.826 366.534 417.001 366.001C416.176 365.468 415.051 365.032 414.501 365.032C413.951 365.032 414.176 365.468 415.001 366.001ZM363.272 369.541C357.682 371.047 351.653 374.453 348.665 377.795C347.243 379.385 346.056 379.722 343.393 379.29C340.91 378.887 339.407 379.229 337.978 380.521C335.817 382.478 335.294 387.894 337.094 389.694C337.884 390.484 337.874 391.37 337.058 392.894C335.142 396.475 336.708 395.215 339.102 391.251C346.621 378.796 354.416 372.705 366.261 370.03C370.793 369.007 373.151 368.161 371.501 368.151C369.851 368.141 366.148 368.766 363.272 369.541ZM11.9707 371.056C11.3657 372.187 11.0187 373.556 11.2007 374.1C11.3817 374.643 12.0467 373.718 12.6787 372.044C13.9917 368.563 13.5987 368.014 11.9707 371.056ZM25.6677 372.668C25.3007 373.034 25.0297 374.272 25.0637 375.418C25.1227 377.333 25.2047 377.308 26.0857 375.106C27.0647 372.658 26.8617 371.473 25.6677 372.668ZM428.876 376.501C428.807 377.326 428.638 378.451 428.501 379.001C428.364 379.551 428.195 380.911 428.126 382.022C428.057 383.134 426.989 384.468 425.751 384.986C424.513 385.504 421.818 386.594 419.761 387.409C415.175 389.226 415.562 391.048 421.06 393.528C424.814 395.221 425.002 395.522 425.016 399.903C425.027 403.218 425.299 404.083 425.991 403.001C426.519 402.176 426.886 399.747 426.806 397.604C426.675 394.064 426.311 393.569 422.831 392.202C420.725 391.375 419.001 390.377 419.001 389.985C419.001 389.593 421.138 388.465 423.751 387.479C429.002 385.495 429.963 384.544 429.986 381.31C430.01 377.829 431.694 377.69 435.043 380.891C438.092 383.804 438.226 383.833 442.201 382.43C447.359 380.61 447.386 380.616 445.001 383.001C443.901 384.101 442.573 385.001 442.051 385.001C441.528 385.001 440.741 385.626 440.301 386.39C439.861 387.153 438.601 387.947 437.501 388.153C433.082 388.982 437.259 395.001 442.254 395.001C443.594 395.001 445.506 395.901 446.501 397.001C448.665 399.392 447.674 399.502 442.001 397.501C435.899 395.348 434.82 395.615 431.761 400.039C428.428 404.858 429.869 405.352 433.473 400.627C436.01 397.301 436.1 397.271 439.774 398.583C443.937 400.069 450.001 400.433 450.001 399.197C450.001 398.755 448.426 396.867 446.501 395.001C442.588 391.209 442.243 389.874 444.656 387.873C446.629 386.237 449.374 380.041 448.509 379.176C448.175 378.841 445.666 379.361 442.934 380.331L437.967 382.095L434.234 378.557C430.123 374.66 429.063 374.253 428.876 376.501ZM26.0007 382.062C26.0007 384.645 33.4597 389.373 39.0007 390.302C43.0907 390.989 40.3317 389.54 35.5917 388.513C33.9917 388.167 31.1797 386.38 29.3417 384.542C27.5037 382.704 26.0007 381.588 26.0007 382.062ZM339.608 383.583C338.049 387.646 339.942 388.266 342.409 384.501C343.96 382.134 343.945 382.001 342.131 382.001C341.077 382.001 339.942 382.713 339.608 383.583ZM272.656 384.83C270.59 387.112 270.565 388.933 272.558 391.778C274.352 394.34 278.177 394.699 280.02 392.478C281.07 391.212 281.02 391.057 279.721 391.555C277.201 392.522 273.837 390.167 274.19 387.683C274.41 386.14 275.311 385.408 277.268 385.183C278.79 385.008 279.776 384.446 279.459 383.933C278.487 382.36 274.404 382.898 272.656 384.83ZM164.499 392.005C164.158 392.557 162.781 392.733 161.44 392.396C159.254 391.848 159.001 392.101 159.001 394.834C159.001 396.511 158.551 398.161 158.001 398.501C156.326 399.536 156.883 401.001 158.951 401.001C160.024 401.001 161.385 401.789 161.976 402.751C162.972 404.374 163.165 404.338 164.647 402.251C165.526 401.013 166.865 400.001 167.623 400.001C169.251 400.001 169.453 398.398 167.942 397.465C167.335 397.09 167.156 395.572 167.522 393.906C168.008 391.693 167.798 391.001 166.639 391.001C165.803 391.001 164.84 391.453 164.499 392.005ZM20.0007 395.001C20.8257 395.534 21.9507 395.97 22.5007 395.97C23.0507 395.97 22.8257 395.534 22.0007 395.001C21.1757 394.468 20.0507 394.032 19.5007 394.032C18.9507 394.032 19.1757 394.468 20.0007 395.001ZM36.0007 395.001C35.1757 395.534 34.9507 395.97 35.5007 395.97C36.0507 395.97 37.1757 395.534 38.0007 395.001C38.8257 394.468 39.0507 394.032 38.5007 394.032C37.9507 394.032 36.8257 394.468 36.0007 395.001ZM26.7627 396.708C28.0067 396.947 29.8067 396.938 30.7627 396.688C31.7187 396.438 30.7007 396.242 28.5007 396.253C26.3007 396.264 25.5187 396.469 26.7627 396.708ZM334.972 399.584C334.956 400.088 334.113 403.539 333.099 407.251C332.085 410.963 331.575 414.001 331.965 414.001C332.876 414.001 336.288 399.954 335.554 399.221C335.25 398.917 334.988 399.08 334.972 399.584ZM310.243 401.544C308.68 402.639 308.001 404.127 308.001 406.46C308.001 409.305 308.466 409.968 311.116 410.891C314.931 412.221 317.071 411.219 313.848 409.612C312.567 408.973 311.365 407.653 311.177 406.678C310.706 404.23 312.982 401.763 315.181 402.338C316.182 402.6 317.001 402.406 317.001 401.907C317.001 401.409 316.588 401.001 316.083 401.001C315.578 401.001 314.562 400.77 313.825 400.487C313.089 400.204 311.477 400.68 310.243 401.544ZM195.299 402.968C195.017 404.05 193.934 405.205 192.893 405.535C190.403 406.325 190.47 408.629 193.001 409.291C194.101 409.578 195.001 410.531 195.001 411.407C195.001 413.404 195.88 413.407 199.858 411.423C201.598 410.554 202.754 409.41 202.425 408.879C202.097 408.348 202.537 406.831 203.404 405.509C205.159 402.83 204.141 401.504 201.076 402.477C200.027 402.81 198.88 402.614 198.526 402.042C197.493 400.37 195.856 400.84 195.299 402.968ZM426.03 405.962C425.221 406.474 424.894 407.227 425.304 407.637C425.713 408.047 426.809 407.621 427.739 406.691C429.546 404.884 428.465 404.422 426.03 405.962ZM250.204 407.257C249.631 407.947 248.865 409.696 248.501 411.144C247.371 415.648 254.135 418.955 257.121 415.357C258.329 413.901 258.241 413.79 256.349 414.391C253.844 415.186 250.735 412.622 251.21 410.155C251.38 409.273 252.64 407.984 254.01 407.291L256.501 406.03L253.873 406.016C252.428 406.008 250.777 406.566 250.204 407.257ZM329.693 419.693C328.751 422.235 328.145 424.479 328.346 424.68C328.548 424.881 329.5 422.983 330.463 420.463C331.425 417.942 332.031 415.698 331.809 415.476C331.587 415.254 330.635 417.152 329.693 419.693ZM221.001 425.595C221.001 426.471 220.101 427.424 219.001 427.711C216.652 428.326 216.349 430.537 218.501 431.363C219.326 431.679 220.001 432.852 220.001 433.97C220.001 436.27 222.771 436.765 223.597 434.612C223.922 433.766 224.945 433.435 226.213 433.767C228.024 434.24 228.212 433.979 227.658 431.771C227.239 430.102 227.528 428.808 228.5 428.002C230.397 426.428 229.346 424.678 226.889 425.32C225.852 425.591 224.751 425.405 224.443 424.907C223.508 423.394 221.001 423.895 221.001 425.595ZM282.251 426.032C281.013 426.53 280.001 427.401 280.001 427.969C280.001 429.289 281.692 429.31 282.501 428.001C282.841 427.451 284.244 427.001 285.619 427.001C287.031 427.001 287.85 426.566 287.501 426.001C286.762 424.805 285.283 424.813 282.251 426.032ZM327.08 427.584C327.128 428.749 327.365 428.986 327.684 428.189C327.973 427.467 327.937 426.604 327.605 426.272C327.273 425.94 327.037 426.53 327.08 427.584ZM169.001 431.501C168.478 432.876 167.589 434.001 167.026 434.001C166.462 434.001 166.001 434.676 166.001 435.501C166.001 436.326 166.462 437.001 167.026 437.001C167.589 437.001 168.501 438.185 169.051 439.633C169.988 442.096 170.168 442.16 171.855 440.633C172.847 439.735 174.523 439.001 175.58 439.001C177.18 439.001 177.517 438.237 177.599 434.431C177.69 430.151 177.551 429.897 175.41 430.435C174.152 430.75 172.844 430.557 172.503 430.005C171.438 428.281 169.99 428.899 169.001 431.501ZM279.181 432.231C279.624 435.32 284.434 436.996 286.61 434.82C288.047 433.383 287.963 433.286 285.667 433.724C283.851 434.072 282.779 433.619 281.833 432.104C280.116 429.355 278.779 429.419 279.181 432.231ZM327.08 433.584C327.128 434.749 327.365 434.986 327.684 434.189C327.973 433.467 327.937 432.604 327.605 432.272C327.273 431.94 327.037 432.53 327.08 433.584ZM325.501 437.725C322.388 438.49 321.001 440.027 321.001 442.713V445.181L312.751 444.594C295.244 443.35 288.222 443.207 280.501 443.94C273.091 444.643 273.578 444.71 287.094 444.85C295.12 444.933 307.27 445.255 314.094 445.565C323.414 445.989 326.066 445.852 324.751 445.016C323.789 444.403 323.001 443.279 323.001 442.519C323.001 440.546 327.043 439.459 328.111 441.144C328.712 442.093 328.975 441.674 328.986 439.751C328.994 438.239 328.664 437.053 328.251 437.117C327.838 437.181 326.601 437.454 325.501 437.725ZM267.251 445.69C268.213 445.942 269.789 445.942 270.751 445.69C271.713 445.439 270.926 445.233 269.001 445.233C267.076 445.233 266.289 445.439 267.251 445.69ZM323.501 452.001C321.669 452.788 321.711 452.865 324.001 452.915C325.376 452.946 327.176 452.534 328.001 452.001C329.239 451.201 329.152 451.041 327.501 451.087C326.401 451.117 324.601 451.528 323.501 452.001ZM325.751 454.663C326.439 454.941 327.564 454.941 328.251 454.663C328.939 454.386 328.376 454.159 327.001 454.159C325.626 454.159 325.064 454.386 325.751 454.663ZM469.08 456.584C469.128 457.749 469.365 457.986 469.684 457.189C469.973 456.467 469.937 455.604 469.605 455.272C469.273 454.94 469.037 455.53 469.08 456.584ZM330.601 457.4C331.38 459.43 329.416 460.281 322.044 461.109L315.501 461.844L322.751 461.64C327.908 461.495 330.001 461.788 330.001 462.658C330.001 463.334 328.325 464.056 326.251 464.273L322.501 464.665L326.31 464.833C328.56 464.932 329.866 465.41 329.501 466.001C329.161 466.551 329.36 467.001 329.942 467.001C330.524 467.001 331.001 467.676 331.001 468.501C331.001 469.467 330.022 470.006 328.251 470.016C326.739 470.025 324.849 470.444 324.053 470.948C323.111 471.544 324.071 471.667 326.803 471.301C331.263 470.702 332.942 472.549 328.751 473.443C323.197 474.628 322.782 474.884 326.751 474.673C332.158 474.387 332.558 476.66 327.251 477.513C321.068 478.507 318.743 479.076 319.16 479.494C319.378 479.711 322.138 479.539 325.293 479.11C330.806 478.362 331.006 478.413 330.392 480.416C330.04 481.563 329.696 482.535 329.627 482.577C322.021 487.194 324.247 486.918 292.254 487.218C275.014 487.38 263.283 487.845 264.818 488.306C266.294 488.748 279.896 488.905 295.046 488.655C327.844 488.112 330.538 487.467 332.392 479.711C333.249 476.129 331.969 456.001 330.885 456.001C330.433 456.001 330.305 456.63 330.601 457.4ZM324.751 457.663C325.439 457.941 326.564 457.941 327.251 457.663C327.939 457.386 327.376 457.159 326.001 457.159C324.626 457.159 324.064 457.386 324.751 457.663ZM316.27 458.694C317.243 458.948 318.593 458.931 319.27 458.657C319.947 458.383 319.151 458.176 317.501 458.196C315.851 458.216 315.297 458.44 316.27 458.694ZM145.195 475.178L145.001 488.856L147.636 490.928C150.827 493.439 159.647 493.65 170.501 491.476C177.28 490.118 177.328 490.088 172.001 490.539C144.748 492.847 146.694 493.983 145.945 475.335L145.39 461.501L145.195 475.178ZM469.356 472.501C469.353 477.451 469.522 479.602 469.732 477.281C469.941 474.96 469.944 470.91 469.737 468.281C469.531 465.652 469.359 467.551 469.356 472.501ZM323.751 467.663C324.439 467.941 325.564 467.941 326.251 467.663C326.939 467.386 326.376 467.159 325.001 467.159C323.626 467.159 323.064 467.386 323.751 467.663ZM317.751 475.663C318.439 475.941 319.564 475.941 320.251 475.663C320.939 475.386 320.376 475.159 319.001 475.159C317.626 475.159 317.064 475.386 317.751 475.663ZM381.001 476.281C381.001 477.018 399.004 490.487 402.001 491.991C405.69 493.843 403.439 491.905 395.001 485.964C390.876 483.061 386.039 479.577 384.251 478.224C382.463 476.871 381.001 475.996 381.001 476.281ZM80.5007 483.927C77.2007 485.534 75.0777 486.882 75.7837 486.924C77.1997 487.009 87.0007 482.255 87.0007 481.484C87.0007 480.766 86.9807 480.774 80.5007 483.927ZM324.251 481.69C325.213 481.942 326.789 481.942 327.751 481.69C328.713 481.439 327.926 481.233 326.001 481.233C324.076 481.233 323.289 481.439 324.251 481.69ZM469.329 488.501C469.334 492.351 469.514 493.803 469.731 491.729C469.947 489.654 469.944 486.504 469.723 484.729C469.502 482.953 469.325 484.651 469.329 488.501ZM241.614 487.819C241.335 488.269 245.021 488.468 249.805 488.261C262.227 487.724 263.055 487.252 251.81 487.117C246.48 487.053 241.892 487.369 241.614 487.819ZM70.0007 489.001C69.1757 489.534 68.9507 489.97 69.5007 489.97C70.0507 489.97 71.1757 489.534 72.0007 489.001C72.8257 488.468 73.0507 488.032 72.5007 488.032C71.9507 488.032 70.8257 488.468 70.0007 489.001ZM227.001 489.001L222.501 489.701L228.001 489.732C231.026 489.75 234.851 489.421 236.501 489.001C239.33 488.281 239.273 488.239 235.501 488.27C233.301 488.287 229.476 488.616 227.001 489.001ZM215.501 490.001L209.501 490.665L215.751 490.833C219.363 490.93 222.001 490.579 222.001 490.001C222.001 489.451 221.888 489.077 221.751 489.169C221.614 489.262 218.801 489.636 215.501 490.001ZM63.7507 491.573C59.8737 493.676 60.3127 494.402 64.2507 492.4C68.0207 490.482 68.6877 489.986 67.4177 490.041C66.9127 490.063 65.2637 490.752 63.7507 491.573ZM184.501 491.034C188.351 491.429 195.101 491.739 199.501 491.722L207.501 491.691L199.001 490.945C194.326 490.535 187.576 490.226 184.001 490.258L177.501 490.316L184.501 491.034ZM468.943 515.751C468.911 526.064 468.65 549.463 468.363 567.751C467.994 591.219 468.158 601.001 468.921 601.001C469.681 601.001 470.001 585.574 470.001 549.001C470.001 520.401 469.776 497.001 469.501 497.001C469.226 497.001 468.975 505.439 468.943 515.751ZM365.008 512.418C374.292 522.117 379.973 527.532 385.001 531.475C386.376 532.553 382.101 528.139 375.501 521.666C357.873 504.376 354.275 501.205 365.008 512.418ZM96.5007 510.89C92.6507 514.113 87.9257 518.471 86.0007 520.575L82.5007 524.4L86.5007 521.032C92.6047 515.892 104.481 504.999 103.962 505.016C103.708 505.024 100.351 507.668 96.5007 510.89ZM133.873 517.751C132.63 519.337 132.665 519.372 134.251 518.129C135.917 516.822 136.446 516.001 135.623 516.001C135.416 516.001 134.628 516.789 133.873 517.751ZM324.001 522.942C324.001 523.46 324.446 524.158 324.99 524.494C325.556 524.844 325.724 524.443 325.383 523.553C324.718 521.821 324.001 521.504 324.001 522.942ZM126.406 526.251L124.501 528.501L126.751 526.596C127.989 525.548 129.001 524.536 129.001 524.346C129.001 523.546 128.196 524.137 126.406 526.251ZM165.45 532.149C163.426 536.192 160.177 542.426 158.23 546.001C156.282 549.576 155.241 551.997 155.916 551.38C157.476 549.955 170.07 525.737 169.531 525.198C169.31 524.977 167.474 528.105 165.45 532.149ZM285.08 527.584C285.128 528.749 285.365 528.986 285.684 528.189C285.973 527.467 285.937 526.604 285.605 526.272C285.273 525.94 285.037 526.53 285.08 527.584ZM326.001 526.227C326.001 527.393 339.403 552.642 341.607 555.628C342.876 557.347 343.677 558.992 343.386 559.282C342.87 559.798 351.878 574.001 352.721 574.001C352.956 574.001 351.823 571.639 350.203 568.751C348.583 565.863 344.663 558.572 341.492 552.547C333.727 537.797 326.001 524.669 326.001 526.227ZM239.273 531.001C239.273 533.476 239.468 534.488 239.707 533.251C239.945 532.014 239.945 529.988 239.707 528.751C239.468 527.514 239.273 528.526 239.273 531.001ZM117.558 535.822L111.615 542.501L118.308 536.03C121.989 532.471 125.001 529.433 125.001 529.28C125.001 528.042 122.617 530.137 117.558 535.822ZM287.064 534.294C286.946 535.774 295.912 569.246 296.595 569.875C297.491 570.701 296.923 568.094 292.699 552.001C289.355 539.261 287.207 532.511 287.064 534.294ZM239.001 541.775C239.001 545.135 239.484 548.182 240.075 548.547C240.822 549.009 240.952 547.279 240.5 542.864C239.653 534.587 239.001 534.113 239.001 541.775ZM436.084 539.368C436.314 539.57 438.301 540.01 440.501 540.345C443.289 540.769 443.895 540.679 442.501 540.048C440.581 539.178 435.225 538.611 436.084 539.368ZM415.508 540.99C415.158 541.556 415.559 541.724 416.449 541.383C418.181 540.718 418.498 540.001 417.06 540.001C416.542 540.001 415.844 540.446 415.508 540.99ZM431.001 541.001C430.1 541.583 429.976 541.976 430.692 541.986C431.347 541.994 432.161 541.551 432.501 541.001C433.268 539.759 432.922 539.759 431.001 541.001ZM450.27 546.251C455.707 551.153 462.008 561.205 461.986 564.942C461.933 573.907 455.451 583.99 447.359 587.694C438.474 591.763 430.527 590.085 421.941 582.328C419.774 580.37 418.001 579.224 418.001 579.781C418.001 581.39 424.986 587.09 429.436 589.111C434.044 591.204 440.615 591.506 446.501 589.896C451.549 588.515 459.315 580.713 460.951 575.378C461.605 573.246 462.596 570.561 463.153 569.413C465.385 564.81 458.02 550.303 450.561 544.614C445.223 540.543 445.045 541.541 450.27 546.251ZM41.0007 551.135C46.5177 553.578 49.4237 556.166 53.1417 561.947C54.7137 564.392 56.0007 565.823 56.0007 565.127C56.0007 563.081 50.3527 555.467 47.3077 553.407C43.8777 551.087 39.1687 548.976 37.6357 549.072C37.0117 549.11 38.5257 550.039 41.0007 551.135ZM197.056 551.501C196.923 552.806 194.462 561.923 187.517 586.841C184.4 598.029 182.03 607.364 182.253 607.586C182.953 608.286 191.926 578.871 193.565 570.501C194.427 566.101 195.815 560.361 196.649 557.747C197.482 555.132 197.938 552.432 197.662 551.747C197.385 551.061 197.113 550.951 197.056 551.501ZM240.101 554.001C239.899 560.718 242.162 594.525 243.012 597.501C243.612 599.599 243.747 598.245 243.46 593.001C243.235 588.876 242.784 579.201 242.459 571.501C242.134 563.801 241.494 555.926 241.037 554.001L240.206 550.501L240.101 554.001ZM148.057 564.557C144.66 570.968 142.029 576.363 142.211 576.544C142.393 576.726 145.361 571.669 148.807 565.307C152.252 558.944 154.883 553.55 154.652 553.319C154.421 553.088 151.453 558.145 148.057 564.557ZM13.8257 558.514C9.54172 562.675 6.44572 568.853 5.50672 575.112C4.78872 579.9 4.68172 579.679 11.5407 587.501L14.1717 590.501L11.4687 586.753C9.98272 584.692 8.18872 581.325 7.48372 579.273C6.34672 575.967 6.44672 574.885 8.35072 569.818C9.62172 566.433 12.2737 562.237 14.8407 559.548C19.9297 554.216 19.1097 553.381 13.8257 558.514ZM397.233 569.001C397.233 570.926 397.439 571.713 397.69 570.751C397.942 569.789 397.942 568.213 397.69 567.251C397.439 566.289 397.233 567.076 397.233 569.001ZM414.159 569.001C414.159 570.376 414.386 570.939 414.663 570.251C414.941 569.564 414.941 568.439 414.663 567.751C414.386 567.064 414.159 567.626 414.159 569.001ZM57.2327 574.001C57.2327 575.926 57.4387 576.713 57.6897 575.751C57.9417 574.789 57.9417 573.213 57.6897 572.251C57.4387 571.289 57.2327 572.076 57.2327 574.001ZM397.159 575.001C397.159 576.376 397.386 576.939 397.663 576.251C397.941 575.564 397.941 574.439 397.663 573.751C397.386 573.064 397.159 573.626 397.159 575.001ZM354.001 577.001C354.59 578.101 355.296 579.001 355.571 579.001C355.846 579.001 355.59 578.101 355.001 577.001C354.412 575.901 353.706 575.001 353.431 575.001C353.156 575.001 353.412 575.901 354.001 577.001ZM70.1957 580.501C70.2157 582.151 70.4397 582.705 70.6937 581.732C70.9477 580.759 70.9307 579.409 70.6567 578.732C70.3827 578.055 70.1757 578.851 70.1957 580.501ZM299.08 579.584C299.128 580.749 299.365 580.986 299.684 580.189C299.973 579.467 299.937 578.604 299.605 578.272C299.273 577.94 299.037 578.53 299.08 579.584ZM398.08 579.584C398.128 580.749 398.365 580.986 398.684 580.189C398.973 579.467 398.937 578.604 398.605 578.272C398.273 577.94 398.037 578.53 398.08 579.584ZM300.08 583.584C300.128 584.749 300.365 584.986 300.684 584.189C300.973 583.467 300.937 582.604 300.605 582.272C300.273 581.94 300.037 582.53 300.08 583.584ZM6.54572 590.251C6.91972 591.488 7.63672 592.941 8.14072 593.478C8.64372 594.016 8.54872 593.003 7.92972 591.228C6.66372 587.595 5.49372 586.77 6.54572 590.251ZM403.001 591.001C403.59 592.101 404.296 593.001 404.571 593.001C404.846 593.001 404.59 592.101 404.001 591.001C403.412 589.901 402.706 589.001 402.431 589.001C402.156 589.001 402.412 589.901 403.001 591.001ZM18.0007 593.601C18.0007 594.979 27.0497 597.945 31.0007 597.862L35.5007 597.767L30.2317 596.89C27.3337 596.407 23.3967 595.357 21.4817 594.558C19.5667 593.758 18.0007 593.327 18.0007 593.601ZM45.0007 594.001C44.0997 594.583 43.9757 594.976 44.6917 594.986C45.3467 594.994 46.1607 594.551 46.5007 594.001C47.2677 592.759 46.9217 592.759 45.0007 594.001ZM450.767 596.091L447.501 599.181L451.251 596.472C453.314 594.983 455.001 593.592 455.001 593.382C455.001 592.451 453.806 593.216 450.767 596.091ZM406.001 594.379C406.001 594.586 406.789 595.374 407.751 596.129C409.337 597.372 409.372 597.337 408.129 595.751C406.822 594.085 406.001 593.556 406.001 594.379ZM410.553 598.085C411.238 599.194 417.04 602.295 417.525 601.811C417.71 601.625 416.088 600.501 413.92 599.314C411.752 598.126 410.237 597.573 410.553 598.085ZM444.251 600.032C443.013 600.53 442.001 601.134 442.001 601.375C442.001 602.119 445.999 600.813 446.576 599.88C447.212 598.851 447.185 598.853 444.251 600.032ZM243.253 604.501C243.264 606.701 243.469 607.483 243.708 606.239C243.947 604.995 243.938 603.195 243.688 602.239C243.438 601.283 243.242 602.301 243.253 604.501ZM430.001 604.001L423.501 604.656L429.501 604.813C432.801 604.9 436.176 604.534 437.001 604.001C437.826 603.468 438.051 603.102 437.501 603.189C436.951 603.275 433.576 603.641 430.001 604.001ZM468.047 655.001C468.063 687.684 468.431 707.001 469.037 707.001C469.643 707.001 470.001 687.703 470.001 655.001C470.001 621.337 469.652 603.001 469.011 603.001C468.369 603.001 468.03 621.32 468.047 655.001ZM98.2667 626.542C95.3877 627.318 91.2427 629.136 89.0557 630.584C82.0507 635.219 73.9587 647.407 74.0277 653.219C74.0437 654.603 75.1847 652.853 76.9237 648.776C78.5017 645.077 81.2107 640.261 82.9437 638.072C87.0347 632.907 95.1527 628.315 101.737 627.442C104.611 627.06 106.72 626.355 106.423 625.875C105.724 624.744 104.601 624.836 98.2667 626.542ZM346.837 626.92C339.885 629.143 335.429 631.834 331.501 636.181L328.501 639.501L331.728 636.586L334.954 633.672L337.228 636.529C338.478 638.1 340.626 640.808 342.001 642.545C351.642 654.728 355.311 659.024 355.722 658.613C356.158 658.177 347.837 647.263 339.464 637.29L335.929 633.078L339.966 631.019C351.672 625.047 364.669 624.631 373.232 629.954C375.996 631.672 378.433 632.902 378.647 632.688C379.366 631.97 371.367 626.966 367.921 625.978C362.702 624.481 353.125 624.909 346.837 626.92ZM108.751 626.663C109.439 626.941 110.564 626.941 111.251 626.663C111.939 626.386 111.376 626.159 110.001 626.159C108.626 626.159 108.064 626.386 108.751 626.663ZM118.793 629.25C119.494 630.095 121.41 631.342 123.051 632.022C126.032 633.257 126.033 633.26 124.268 635.994C123.296 637.5 121.303 640.254 119.84 642.116C104.229 661.973 100.568 666.572 100.026 667.001C98.4287 668.267 93.8597 674.995 94.6317 674.944C95.5287 674.885 110.188 657.487 110.902 655.633C111.123 655.061 112.121 653.715 113.121 652.642C114.12 651.57 117.52 647.162 120.676 642.847C123.832 638.531 127.109 634.987 127.958 634.969C129.934 634.928 127.186 632.716 121.509 629.779C118.656 628.303 117.881 628.152 118.793 629.25ZM381.607 637.153C382.649 638.612 383.701 639.612 383.945 639.375C384.19 639.139 383.338 637.945 382.051 636.723L379.713 634.501L381.607 637.153ZM133.001 640.379C133.001 640.586 133.788 641.374 134.751 642.129C136.337 643.372 136.372 643.337 135.129 641.751C133.822 640.085 133.001 639.556 133.001 640.379ZM384.001 642.001C385.17 642.756 384.894 642.974 382.751 642.986C381.239 642.994 380.001 643.451 380.001 644.001C380.001 644.551 381.351 645.001 383.001 645.001C384.651 645.001 386.001 645.414 386.001 645.919C386.001 646.424 386.259 647.51 386.574 648.332C386.929 649.255 386.45 650.006 385.324 650.298C383.965 650.649 384.137 650.815 386.001 650.948L388.501 651.128L386.199 652.051C384.281 652.821 384.114 653.209 385.199 654.383C385.915 655.157 386.791 655.616 387.146 655.402C387.926 654.931 389.251 658.084 388.563 658.772C388.296 659.039 385.473 659.59 382.29 659.998C375.767 660.833 376.169 661.259 383.251 661.016C386.071 660.919 388.001 661.289 388.001 661.927C388.001 662.518 386.539 663.001 384.751 663.002C381.665 663.002 381.489 663.204 381.27 667.002C381.074 670.399 381.337 671.001 383.02 671.001C384.11 671.001 385.019 671.564 385.041 672.251C385.115 674.556 387.723 668.558 388.985 663.181C389.688 660.189 389.945 656.05 389.573 653.723C388.686 648.181 385.427 640.997 383.807 641.016C382.862 641.027 382.915 641.299 384.001 642.001ZM380.251 656.69C381.213 656.942 382.789 656.942 383.751 656.69C384.713 656.439 383.926 656.233 382.001 656.233C380.076 656.233 379.289 656.439 380.251 656.69ZM73.3557 662.897C73.9517 669.838 77.4237 677.229 82.0947 681.501L85.3757 684.501L82.0807 680.222C77.8517 674.728 75.0007 667.186 75.0007 661.49C75.0007 658.955 74.5327 657.001 73.9257 657.001C73.2227 657.001 73.0257 659.044 73.3557 662.897ZM139.698 666.751C138.923 668.132 137.831 673.505 138.451 672.885C139.194 672.142 141.013 666.001 140.49 666.001C140.286 666.001 139.93 666.338 139.698 666.751ZM89.6167 680.004C86.1127 683.883 85.0227 685.723 86.9277 684.546C88.1307 683.803 94.3147 676.001 93.7007 676.001C93.4437 676.001 91.6057 677.802 89.6167 680.004ZM372.674 681.825C374.456 685.068 374.453 685.185 372.56 686.575C371.492 687.359 371.08 688.001 371.643 688.001C372.207 688.001 374.235 686.539 376.15 684.751C378.066 682.963 378.837 682.114 377.865 682.863C376.312 684.058 375.777 683.876 373.472 681.363L370.847 678.501L372.674 681.825ZM191.163 684.544C190.524 685.947 190.021 687.861 190.045 688.798C190.069 689.735 190.724 688.718 191.5 686.539C193.113 682.011 192.898 680.737 191.163 684.544ZM253.593 685.501C255.821 692.63 256.171 695.095 255.658 700.011C255.341 703.041 254.37 707.537 253.501 710.001C252.631 712.466 252.347 714.036 252.87 713.491C254.585 711.703 257.002 701.74 256.975 696.569C256.959 693.564 256.139 689.873 254.958 687.501C253.864 685.301 253.249 684.401 253.593 685.501ZM189.287 695.501C189.295 698.251 189.489 699.257 189.719 697.737C189.948 696.217 189.942 693.967 189.705 692.737C189.468 691.507 189.28 692.751 189.287 695.501ZM192.501 710.001C193.354 711.651 194.277 713.001 194.552 713.001C194.827 713.001 194.354 711.651 193.501 710.001C192.648 708.351 191.725 707.001 191.45 707.001C191.175 707.001 191.648 708.351 192.501 710.001ZM467.772 728.707L467.501 748.412L465.001 749.107L462.501 749.802L465.251 749.901L468.001 750.001V763.001C468.001 771.001 468.386 776.001 469.001 776.001C469.648 776.001 470.001 764.168 470.001 742.501C470.001 721.317 469.641 709.001 469.022 709.001C468.426 709.001 467.937 716.705 467.772 728.707ZM236.001 727.001C234.708 727.836 234.735 727.972 236.192 727.986C237.122 727.994 238.161 727.551 238.501 727.001C239.283 725.735 237.959 725.735 236.001 727.001ZM164.433 761.918C164.195 762.147 164.037 763.722 164.08 765.418C164.123 767.113 164.409 767.826 164.714 767.001C167.104 760.545 170.001 763.095 170.001 771.655C170.001 776.429 169.618 778.211 168.501 778.639C165.558 779.769 167.074 780.744 171.484 780.558C175.64 780.383 179.37 779.001 175.687 779.001C173.593 779.001 172.8 775.831 173.192 769.026C173.546 762.879 175.173 761.587 177.397 765.689L178.921 768.501L178.961 764.897L179.001 761.293L171.933 761.397C168.046 761.454 164.671 761.689 164.433 761.918ZM183.001 762.048C183.001 762.455 183.676 763.046 184.501 763.363C185.64 763.8 186.001 765.652 186.001 771.063C186.001 777.334 185.763 778.251 184.012 778.708C180.769 779.556 182.739 780.905 186.974 780.737C189.944 780.618 190.65 780.283 189.881 779.356C189.322 778.683 189.008 776.64 189.183 774.816C189.477 771.755 189.769 771.501 193.001 771.501C195.895 771.501 196.558 771.9 196.828 773.809C197.008 775.078 196.392 777.282 195.458 778.707C193.783 781.264 193.791 781.289 196.131 780.663C197.434 780.314 199.321 780.022 200.322 780.015C202.015 780.002 202.027 779.884 200.494 778.351C199.221 777.078 198.931 775.307 199.227 770.601C199.439 767.246 199.986 763.678 200.444 762.671C201.16 761.097 200.872 760.888 198.389 761.171C196.395 761.399 195.628 761.965 195.911 763.001C196.137 763.826 196.362 765.626 196.411 767.001C196.491 769.209 196.092 769.501 193.001 769.501C189.9 769.501 189.464 769.178 189.176 766.666C188.977 764.921 189.464 763.383 190.444 762.666C191.746 761.713 191.214 761.484 187.519 761.405C185.034 761.352 183.001 761.642 183.001 762.048ZM205.672 761.663C205.355 761.98 205.75 762.893 206.549 763.691C208.356 765.499 208.549 777.053 206.801 778.801C205.868 779.734 206.431 780.001 209.336 780.001C212.719 780.001 212.974 779.819 212.036 778.067C209.827 773.939 211.542 769.545 214.428 771.94C215.487 772.819 215.859 772.419 216.21 770.028C216.634 767.142 216.57 767.081 214.804 768.679C212.522 770.745 210.678 769.319 211.166 765.866C211.651 762.44 217.167 761.972 219.405 765.167L221.001 767.446V764.724C221.001 762.826 220.47 761.978 219.251 761.924C218.288 761.882 214.969 761.677 211.875 761.467C208.78 761.258 205.989 761.346 205.672 761.663ZM235.001 761.884C235.001 762.37 235.962 763.019 237.138 763.326C238.943 763.799 239.176 764.378 238.638 767.068C238.287 768.819 238.001 772.009 238.001 774.158C238.001 777.276 237.546 778.248 235.751 778.97C234.016 779.667 234.852 779.889 239.406 779.938C245.065 779.998 245.242 779.925 243.656 778.172C241.651 775.956 241.438 771.001 243.348 771.001C244.089 771.001 245.184 772.014 245.781 773.251C246.773 775.308 246.871 775.18 246.933 771.751C247.003 767.875 246.249 767.153 244.234 769.168C242.455 770.947 241.443 767.318 242.751 763.854L243.827 761.001H239.414C236.987 761.001 235.001 761.399 235.001 761.884ZM248.327 763.602C251.409 766.46 252.54 766.274 251.525 763.076C251.075 761.658 250.02 761.001 248.194 761.001H245.521L248.327 763.602ZM256.924 763.924C254.641 766.207 254.001 767.748 254.001 770.959C254.001 775.529 256.382 780.001 258.816 780.001C260.049 780.001 260.134 779.734 259.201 778.801C257.954 777.554 257.591 769.134 258.619 765.3C258.943 764.089 260.4 762.662 261.855 762.129C264.404 761.194 264.416 761.156 262.174 761.08C260.857 761.035 258.579 762.27 256.924 763.924ZM277.438 764.067C273.631 768.041 273.291 774.736 276.723 778.168C279.524 780.969 280.302 780.26 278.799 776.277C277.988 774.127 277.917 771.737 278.566 768.439C280.271 759.785 285.775 759.783 287.373 768.435C288.616 775.161 287.225 779.323 283.465 780.129C280.535 780.757 280.532 780.766 283.162 780.883C287.073 781.057 291.001 776.017 291.001 770.825C291.001 767.616 290.374 766.218 287.895 763.902C283.921 760.19 281.11 760.234 277.438 764.067ZM266.127 764.804C266.736 766.621 267.042 770.757 266.808 773.995C266.341 780.446 266.916 780.808 269.379 775.616C271.693 770.74 271.408 768.477 268.011 764.767L265.021 761.501L266.127 764.804ZM292.751 763.032C295.238 764.032 295.232 764.007 295.002 772.492C294.913 775.787 294.38 778.767 293.818 779.114C293.256 779.462 295.754 780.063 299.37 780.45C302.986 780.837 306.407 780.868 306.973 780.519C307.538 780.169 307.994 778.447 307.986 776.692L307.972 773.501L306.707 776.001C305.785 777.823 304.636 778.501 302.471 778.501C299.58 778.501 299.487 778.348 298.987 772.728C298.44 766.582 299.333 762.47 300.993 763.496C301.547 763.839 302.001 763.642 302.001 763.06C302.001 762.43 299.671 762.027 296.251 762.064C291.79 762.114 291.005 762.33 292.751 763.032ZM220.103 775.81C219.425 777.077 217.9 778.473 216.714 778.911C214.779 779.627 214.89 779.758 217.803 780.185C220.547 780.588 221.137 780.308 221.622 778.374C222.519 774.802 221.533 773.139 220.103 775.81ZM468.132 784.051L468.264 790.501L469.281 785.2C470.023 781.335 469.988 779.588 469.15 778.75C468.285 777.885 468.033 779.193 468.132 784.051ZM261.751 780.663C262.439 780.941 263.564 780.941 264.251 780.663C264.939 780.386 264.376 780.159 263.001 780.159C261.626 780.159 261.064 780.386 261.751 780.663ZM0.195716 786.501C0.215716 788.151 0.439716 788.705 0.693716 787.732C0.947716 786.759 0.930716 785.409 0.656716 784.732C0.382716 784.055 0.175716 784.851 0.195716 786.501ZM10.8137 791.684C11.5347 791.973 12.3977 791.937 12.7297 791.605C13.0617 791.273 12.4717 791.037 11.4177 791.08C10.2527 791.128 10.0157 791.365 10.8137 791.684ZM17.7627 791.708C19.0067 791.947 20.8067 791.938 21.7627 791.688C22.7187 791.438 21.7007 791.242 19.5007 791.253C17.3007 791.264 16.5187 791.469 17.7627 791.708ZM24.3577 791.769C25.0917 792.958 170.001 793.361 170.001 792.174C170.001 791.585 142.29 791.171 96.9227 791.082C56.7297 791.004 24.0757 791.313 24.3577 791.769ZM171.435 792.108C171.122 792.614 176.326 793.001 183.442 793.001C190.349 793.001 196.001 792.65 196.001 792.221C196.001 791.127 172.109 791.016 171.435 792.108ZM197.001 792.242C197.001 792.66 254.263 792.965 324.251 792.922C394.239 792.879 451.051 792.676 450.501 792.472C448.505 791.733 197.001 791.504 197.001 792.242ZM460.001 792.001L451.501 792.628L459.692 792.815C464.287 792.919 468.154 792.562 468.501 792.001C468.841 791.451 468.98 791.085 468.81 791.187C468.64 791.29 464.676 791.656 460.001 792.001Z" fill="black"/>
</svg>
