<svg width="471" height="793" viewBox="0 0 471 793" fill="none" xmlns="http://www.w3.org/2000/svg">
<path fill-rule="evenodd" clip-rule="evenodd" d="M0.666808 0.667909C0.299808 1.03391 0.0358085 179.347 0.0788085 396.918C0.121808 614.489 0.355808 792.026 0.596808 791.446C0.838808 790.865 1.14081 780.791 1.26781 769.058L1.49981 747.726L45.9998 747.862C152.661 748.186 324.624 749.159 337 749.509C344.425 749.719 376.938 749.915 409.25 749.946L468 750.001V770.751V791.501L235.25 791.289C98.3598 791.165 3.32381 791.445 4.49981 791.969C5.65081 792.482 104.706 792.89 237.75 792.931C446.56 792.994 469 792.85 469 791.442C469 790.585 469.45 790.161 470 790.501C470.666 790.913 470.923 658.987 470.768 395.31C470.641 177.615 470.408 10.6569 470.251 24.2929L469.965 49.0849L466.232 48.2979C457.882 46.5389 447.892 48.8799 441.943 53.9919C438.515 56.9359 438.532 56.9329 445.726 53.3039C452.016 50.1309 453.808 49.6749 459.551 49.7859C471.293 50.0129 470 42.2389 470 112.593V174.051L467.435 175.026C463.733 176.433 457.471 176.225 453.489 174.561C451.593 173.769 447.686 170.956 444.806 168.311C440.502 164.359 439.901 164.036 441.43 166.501C442.454 168.151 444.801 170.771 446.646 172.324C448.491 173.876 450 175.492 450 175.915C450 176.337 447.699 177.936 444.886 179.466C440.297 181.964 439.036 182.202 432.582 181.788C427.658 181.472 423.529 180.474 419.487 178.624C406.993 172.904 403.504 168.058 401.401 153.501L400.101 144.501L400.37 153.217L400.638 161.933L396.249 162.591C391.949 163.236 383.962 162.118 379 160.178C366.833 155.419 359.11 139.228 363.288 127.24C364.105 124.897 364.411 122.755 363.967 122.481C363.524 122.207 362.63 123.593 361.98 125.56C361.154 128.066 360.355 128.968 359.318 128.57C358.503 128.257 357.439 128.001 356.953 128.001C354.941 128.001 348.532 121.196 346.75 117.168C345.695 114.785 344.641 113.027 344.406 113.262C343.8 113.868 346.781 122.031 348.263 123.825C349.349 125.14 348.664 125.237 342.632 124.622C332.231 123.561 325.133 119.102 321.026 111.052C317.812 104.752 317.509 99.9749 319.839 92.3049C321.991 85.2189 325.362 80.9639 331.5 77.5809C334.092 76.1529 334.16 76.0209 332 76.6079C330.625 76.9829 328.045 78.3969 326.266 79.7519L323.032 82.2139L321.827 79.3579C319.889 74.7599 320.188 57.1459 322.27 53.2979C323.923 50.2429 330.355 45.1209 334.393 43.6459C335.434 43.2649 336.039 42.7059 335.736 42.4039C334.972 41.6399 329.181 44.7329 325.088 48.0919C321.785 50.8029 321.561 50.8449 318.088 49.3959C309.455 45.7959 303.013 35.7909 302.217 24.7479C301.605 16.2549 303.585 10.6519 309.169 5.06691L313.217 1.01991L362.858 0.750909C390.161 0.602909 319.988 0.373909 206.917 0.240909C93.8458 0.108909 1.03281 0.300909 0.666808 0.667909ZM0.326808 396.501L0.495808 792.501L0.999808 417.001C1.27681 210.476 1.62681 50.2759 1.77681 61.0009C1.92681 71.7259 2.02781 113.197 2.00081 153.159L1.95081 225.817L6.22581 225.269C12.3538 224.484 23.9248 220.16 27.7918 217.211C34.6348 211.991 39.5948 199.541 38.7138 189.796C38.2238 184.386 33.3948 173.683 30.5948 171.805C30.0248 171.423 29.8488 170.818 30.2048 170.462C30.7538 169.914 35.6458 175.826 37.8318 179.678C38.8528 181.477 49.3758 178.705 54.1878 175.37C60.2668 171.158 65.7038 164.408 68.0338 158.182C71.9718 147.654 72.9708 137.744 70.9158 129.583L69.8328 125.28L63.0508 125.765C59.1638 126.043 55.4638 125.798 54.3838 125.19C52.9328 124.374 53.8798 124.207 58.4998 124.465C65.8408 124.875 72.8848 122.689 80.4888 117.64C88.3498 112.42 91.4998 107.253 91.4998 99.5759C91.4998 96.2349 91.1758 91.7009 90.7798 89.5009L90.0588 85.5009L91.4538 89.0009C93.3028 93.6449 93.3308 104.798 91.4998 108.001C89.3088 111.834 89.6338 112.606 94.7498 115.723C109.638 124.792 126.735 124.357 143.002 114.493C149.442 110.589 151.888 108.143 155.493 102.001C158.134 97.5019 158.044 99.9489 155.376 105.196C154.121 107.664 154.195 108.025 156.253 109.476C159.777 111.961 170.717 115.001 176.134 115.001C179.584 115.001 182.769 114.133 186.779 112.101C193.692 108.597 195.734 106.472 200.405 97.9179C203.462 92.3209 204.024 90.2989 204.16 84.4179C204.248 80.5969 204.504 79.0679 204.731 81.0009C205.381 86.5259 206.516 86.5549 210.786 81.1519C215.673 74.9699 217.48 68.2399 216.706 59.1109C215.892 49.5269 215.489 48.8349 211.134 49.5519C208.418 49.9989 207.879 49.8829 209 49.0909C209.825 48.5079 211.216 48.0249 212.09 48.0159C212.965 48.0079 216.433 46.6259 219.796 44.9449C229.065 40.3129 236 29.9329 236 20.6919C236 15.2319 233.889 8.05791 231.15 4.21091L229.06 1.27591L118.28 1.67191C57.3508 1.88891 6.04481 2.18591 4.26581 2.33191C2.48681 2.47691 0.834809 2.12391 0.594809 1.54791C0.353809 0.971909 0.233808 178.701 0.326808 396.501ZM233 2.67191C233 3.04091 233.73 4.15091 234.623 5.13691C236.969 7.72891 239.065 17.7289 238.367 23.0009C237.134 32.3129 229.677 42.5749 220.88 47.0619C216.493 49.2999 216.661 48.9799 218.009 52.5249C219.567 56.6219 219.526 67.9589 217.933 73.4419C216.964 76.7799 214.963 79.9849 211.75 83.3449C209.137 86.0779 207 88.9359 207 89.6969C207 90.4579 206.148 92.7499 205.107 94.7909C204.066 96.8309 203.179 98.8479 203.136 99.2729C203.093 99.6979 201.505 102.079 199.607 104.565C195.798 109.553 190.363 113.671 185 115.633C177.558 118.355 164.544 116.688 156.693 112.006L152.886 109.736L150.138 112.369C148.627 113.816 146.913 115.001 146.33 115.001C145.747 115.001 144.082 115.935 142.63 117.077C141.179 118.219 137.181 120.287 133.746 121.673C128.616 123.742 125.714 124.211 117.5 124.293C108.277 124.387 106.973 124.15 100.72 121.247C96.9918 119.516 92.7908 117.195 91.3858 116.09L88.8308 114.08L86.6658 116.118C85.4748 117.238 81.7158 119.718 78.3118 121.629L72.1248 125.103L73.3788 128.802C76.6008 138.311 72.9508 157.398 65.9698 167.545C61.1578 174.539 48.9978 182.001 42.4118 182.001C40.4548 182.001 39.9858 182.406 40.3858 183.751C41.2468 186.643 41.3588 198.322 40.5518 201.001C38.6948 207.164 34.3758 214.403 30.6048 217.671C26.1208 221.557 16.2888 225.767 8.62381 227.083C5.94181 227.544 3.54681 228.121 3.30081 228.366C3.05581 228.612 2.77481 344.675 2.67781 486.285L2.49981 743.758L72.9998 744.387C111.775 744.733 159.475 745.234 179 745.5C198.525 745.766 271.313 746.268 340.75 746.614L467 747.245L466.973 723.873C466.921 678.498 467.927 464.022 468.361 428.001C468.603 407.926 469.113 343.045 469.495 283.82L470.19 176.139L465.353 177.595C462.454 178.468 458.891 178.807 456.459 178.443C453.006 177.925 451.603 178.331 447.039 181.168C441.996 184.302 441.18 184.492 433.337 184.345C426.399 184.214 423.939 183.693 418.701 181.242C411.26 177.76 405.571 173.02 403.137 168.276L401.38 164.851L390.653 164.675C382.349 164.539 379.712 164.161 378.978 163C378.457 162.176 378.024 161.86 378.015 162.299C377.995 163.355 370.09 157.853 367.325 154.857C363.104 150.285 360 142.571 360 136.651C360 131.1 359.995 131.091 356.536 130.442C354.63 130.084 352.55 129.164 351.913 128.396C351.154 127.482 348.644 126.999 344.628 126.995C336.165 126.988 331.941 125.602 325.957 120.873C316.14 113.113 313.097 99.7779 318.497 88.1789C320.962 82.8849 320.966 82.8279 319.231 77.6789C317.889 73.6959 317.62 70.6549 318.066 64.5009C318.384 60.1009 318.989 55.7359 319.41 54.8009C320.003 53.4839 319.408 52.7799 316.765 51.6759C304.853 46.6989 296.953 30.7919 299.756 17.4289C300.408 14.3199 302.037 10.5569 303.466 8.85891C304.867 7.19391 305.716 5.34991 305.352 4.76191C304.987 4.17091 305.157 3.97991 305.732 4.33491C306.305 4.68891 307.329 4.30891 308.009 3.48991C309.1 2.17591 304.77 2.00091 271.122 2.00091C250.155 2.00091 233 2.30291 233 2.67191ZM217.033 5.22691C217.015 5.62591 217.898 7.42591 218.996 9.22691C220.185 11.1769 220.994 11.8379 220.996 10.8619C221 9.28591 217.101 3.74291 217.033 5.22691ZM1.41281 23.5009C1.41381 33.4009 1.56381 37.3159 1.74581 32.1999C1.92781 27.0849 1.92681 18.9849 1.74381 14.1999C1.56081 9.41591 1.41181 13.6009 1.41281 23.5009ZM214 6.61891C214 7.16891 214.661 8.49191 215.468 9.55991C216.276 10.6269 216.936 11.0509 216.936 10.5009C216.936 9.95091 216.276 8.62691 215.468 7.55991C214.661 6.49191 214 6.06891 214 6.61891ZM227.13 11.8039C227.737 13.6209 228.039 17.7869 227.802 21.0629C227.565 24.3389 227.731 26.4519 228.17 25.7599C229.585 23.5299 229.114 12.5319 227.514 10.4419C226.157 8.66991 226.123 8.78791 227.13 11.8039ZM230.18 12.0879C230.773 13.7899 231.031 18.3249 230.754 22.1929C230.195 30.0009 231.552 29.4379 232.55 21.4469C232.993 17.9049 232.719 15.2639 231.643 12.6889C229.777 8.22291 228.675 7.76991 230.18 12.0879ZM224.625 14.0009C225.438 19.6019 226.005 20.4009 225.985 15.9179C225.976 14.0379 225.52 11.8259 224.97 11.0009C224.272 9.95291 224.168 10.8559 224.625 14.0009ZM68.4998 12.7139C67.3998 12.9789 66.0498 13.6329 65.4998 14.1689C64.8478 14.8039 65.3688 14.9309 66.9998 14.5329C68.3748 14.1979 72.3078 13.8289 75.7408 13.7119C79.1728 13.5959 81.9858 13.1629 81.9908 12.7509C82.0008 11.9459 71.8098 11.9179 68.4998 12.7139ZM368.75 13.6629C369.438 13.9409 370.563 13.9409 371.25 13.6629C371.938 13.3859 371.375 13.1589 370 13.1589C368.625 13.1589 368.063 13.3859 368.75 13.6629ZM77.9998 17.0339C81.5748 17.4459 86.0748 18.0489 87.9998 18.3739C91.4658 18.9589 91.4608 18.9519 87.4998 17.5599C85.2998 16.7869 80.7998 16.1839 77.4998 16.2199L71.4998 16.2849L77.9998 17.0339ZM82.5828 21.1339C82.8768 21.6109 83.9868 22.0009 85.0478 22.0009C86.1098 22.0009 89.3188 22.8899 92.1798 23.9769C98.1508 26.2459 100.193 25.8149 94.5808 23.4699C89.9488 21.5349 81.8558 19.9589 82.5828 21.1339ZM356 22.0009L352.5 22.7379L356 22.7699C357.925 22.7869 360.625 22.4409 362 22.0009L364.5 21.1999L362 21.2319C360.625 21.2499 357.925 21.5959 356 22.0009ZM99.9998 27.0499C100.825 27.6099 102.4 28.5279 103.5 29.0909C105.072 29.8949 104.995 29.6739 103.139 28.0569C101.841 26.9259 100.266 26.0079 99.6388 26.0159C99.0128 26.0249 99.1748 26.4899 99.9998 27.0499ZM346.994 26.9349C343.808 27.9039 338 30.8919 338 31.5619C338 31.8419 338.959 31.5579 340.132 30.9309C341.304 30.3029 344.567 28.9699 347.382 27.9679C352.347 26.2009 352.046 25.3989 346.994 26.9349ZM93.0828 27.3739C94.1118 28.2949 99.9998 30.9999 99.9998 30.5519C99.9998 29.9759 94.4558 27.0009 93.3828 27.0009C92.9888 27.0009 92.8538 27.1689 93.0828 27.3739ZM90.9998 30.4059C90.9998 30.6289 93.1378 32.0349 95.7498 33.5309C98.3618 35.0269 102.933 38.5569 105.906 41.3759C109.938 45.1979 110.768 45.7049 109.171 43.3679C106.325 39.2019 100.849 34.4749 96.0118 32.0069C92.0658 29.9939 90.9998 29.6529 90.9998 30.4059ZM73.2868 32.0219C61.6628 33.2719 48.5368 41.9729 42.5658 52.3869C38.6298 59.2529 38.5448 61.9289 42.4678 55.5009C49.1998 44.4689 56.5408 38.4279 66.5658 35.6699C79.2298 32.1849 90.6778 34.4439 99.4408 42.1579C105.001 47.0519 106.478 46.7109 101.694 41.6379C98.1628 37.8939 87.7098 32.5259 82.4998 31.7819C80.8498 31.5469 76.7038 31.6539 73.2868 32.0219ZM104.5 34.4269C106.7 36.4259 109.963 39.6969 111.75 41.6979C113.537 43.6979 115 45.0239 115 44.6449C115 43.4639 106.779 34.9729 103.562 32.8309C101.218 31.2709 101.438 31.6449 104.5 34.4269ZM341.134 33.6329C339.282 34.4409 337.978 35.3119 338.235 35.5689C338.492 35.8259 340.682 35.1379 343.101 34.0409C345.52 32.9429 346.825 32.0719 346 32.1049C345.175 32.1369 342.985 32.8249 341.134 33.6329ZM180.5 38.0009C181.495 39.1009 182.535 40.0009 182.81 40.0009C183.085 40.0009 182.495 39.1009 181.5 38.0009C180.505 36.9009 179.465 36.0009 179.19 36.0009C178.915 36.0009 179.505 36.9009 180.5 38.0009ZM333 38.0829L330.5 40.1209L333.75 38.5359C335.538 37.6629 337 36.7359 337 36.4749C337 35.4809 335.407 36.1209 333 38.0829ZM453.5 37.0009C451.682 37.7819 451.727 37.8579 454 37.8309C455.375 37.8149 457.625 37.4409 459 37.0009C461.438 36.2199 461.425 36.1999 458.5 36.1709C456.85 36.1549 454.6 36.5279 453.5 37.0009ZM451.75 40.1939C449.688 40.7469 448 41.5689 448 42.0199C448 42.4709 449.645 42.3849 451.656 41.8299C453.667 41.2749 457.03 40.9849 459.13 41.1849C461.23 41.3849 462.622 41.2479 462.224 40.8799C460.793 39.5589 455.428 39.2069 451.75 40.1939ZM184.433 40.8919C185.146 42.0459 189 44.3749 189 43.6509C189 43.4199 187.82 42.4579 186.377 41.5119C184.934 40.5669 184.059 40.2879 184.433 40.8919ZM326.5 42.5589C324.636 44.1419 324.288 44.7289 325.582 44.1079C327.441 43.2169 330.812 39.9929 329.872 40.0059C329.668 40.0089 328.15 41.1569 326.5 42.5589ZM180 42.3789C180 42.5859 180.787 43.3739 181.75 44.1289C183.336 45.3719 183.371 45.3369 182.128 43.7509C180.821 42.0849 180 41.5559 180 42.3789ZM452.69 44.0979C448.486 45.0869 444.588 46.9219 445.261 47.5949C445.498 47.8329 447.323 47.3459 449.314 46.5139C451.306 45.6819 454.3 45.0009 455.968 45.0009C457.636 45.0009 459 44.5509 459 44.0009C459 42.8449 457.948 42.8609 452.69 44.0979ZM190.448 44.9169C191.247 46.2099 200.732 49.2639 202.254 48.7189C202.94 48.4729 201.475 47.7459 199 47.1029C196.525 46.4589 193.459 45.4949 192.186 44.9589C190.824 44.3859 190.109 44.3689 190.448 44.9169ZM461.813 44.6839C462.534 44.9729 463.397 44.9369 463.729 44.6049C464.061 44.2729 463.471 44.0369 462.417 44.0799C461.252 44.1279 461.015 44.3649 461.813 44.6839ZM184.893 46.3719C186.345 48.1209 194.315 51.5569 199 52.4529C201.578 52.9459 202.105 52.8469 201 52.0769C200.175 51.5019 198.533 51.0249 197.352 51.0159C196.17 51.0079 192.62 49.6419 189.463 47.9809C186.306 46.3209 184.249 45.5959 184.893 46.3719ZM193.5 55.0109C195.416 55.8249 203.778 56.3849 202.917 55.6409C202.688 55.4429 200.025 55.0289 197 54.7209C193.577 54.3729 192.255 54.4819 193.5 55.0109ZM21.8488 63.3479C18.2238 64.5679 13.6078 66.8249 11.5898 68.3639C7.71981 71.3159 2.30781 78.6429 3.27981 79.6139C3.59481 79.9289 4.54881 78.8399 5.39981 77.1939C7.69181 72.7619 14.5928 67.2989 20.9208 64.9099C29.8958 61.5199 40.8348 62.9919 48.9998 68.6889L51.4998 70.4329L49.4998 68.0719C44.2398 61.8619 32.3168 59.8259 21.8488 63.3479ZM354.5 70.0009C356.15 70.4209 358.625 70.7729 360 70.7829L362.5 70.8019L360 70.0009C358.625 69.5609 356.15 69.2089 354.5 69.2189L351.5 69.2379L354.5 70.0009ZM350.264 73.7189C351.784 73.9479 354.034 73.9419 355.264 73.7049C356.494 73.4679 355.25 73.2799 352.5 73.2869C349.75 73.2949 348.744 73.4889 350.264 73.7189ZM361.462 75.4999C363.641 76.2759 365.616 76.7189 365.85 76.4839C366.442 75.8929 361.246 73.9909 359.185 74.0449C358.258 74.0689 359.283 74.7239 361.462 75.4999ZM142.087 80.8389C141.4 82.1219 141.035 83.3699 141.276 83.6109C142.062 84.3959 144.201 81.1049 143.762 79.7869C143.492 78.9769 142.877 79.3629 142.087 80.8389ZM146.008 82.4759C145.353 84.4599 142.271 88.8569 139.159 92.2469C134.502 97.3189 134.152 97.9189 137.183 95.6379C139.208 94.1139 141.936 91.4339 143.244 89.6839C145.973 86.0329 148.524 80.1909 147.734 79.4019C147.44 79.1079 146.663 80.4909 146.008 82.4759ZM148.61 85.7879C147.764 87.4229 145.89 90.1669 144.444 91.8849C142.877 93.7469 142.44 94.7699 143.36 94.4159C145.175 93.7199 151.514 84.1819 150.702 83.3699C150.397 83.0649 149.456 84.1529 148.61 85.7879ZM138.638 86.5009C138.322 87.3259 138.451 88.0009 138.924 88.0009C139.398 88.0009 140.045 87.3259 140.362 86.5009C140.678 85.6759 140.549 85.0009 140.076 85.0009C139.602 85.0009 138.955 85.6759 138.638 86.5009ZM414.861 91.0569C413.005 92.6739 412.928 92.8949 414.5 92.0909C417.892 90.3559 419.554 89.0319 418.361 89.0159C417.734 89.0079 416.159 89.9259 414.861 91.0569ZM405.2 94.4259C402.624 96.8599 400.738 99.0709 401.008 99.3389C401.279 99.6079 403.656 97.6169 406.292 94.9139C412.257 88.7969 411.511 88.4629 405.2 94.4259ZM145.958 95.6449C141.606 100.179 142.172 100.792 146.842 96.6019C148.969 94.6929 151.541 91.0009 150.743 91.0009C150.564 91.0009 148.41 93.0909 145.958 95.6449ZM418.379 93.4449C415.563 94.7259 412.88 96.3869 412.418 97.1369C411.813 98.1189 412.267 98.0539 414.039 96.9049C417.123 94.9039 425.388 92.2119 430 91.7049C432.633 91.4159 432.262 91.2959 428.5 91.2189C425.216 91.1509 421.743 91.9149 418.379 93.4449ZM398.807 96.7509C396.587 99.3369 395.771 101.001 396.725 101.001C397.189 101.001 398.366 99.6509 399.341 98.0009C401.32 94.6509 401.085 94.0989 398.807 96.7509ZM320.158 98.0009C320.158 99.3759 320.385 99.9389 320.662 99.2509C320.94 98.5639 320.94 97.4389 320.662 96.7509C320.385 96.0639 320.158 96.6259 320.158 98.0009ZM421.724 97.4679C413.02 100.802 405.105 108.66 402.977 116.081C401.011 122.935 402.405 122.612 404.929 115.629C407.557 108.357 414.992 101.354 423.234 98.3879C430.296 95.8469 441.503 97.7409 446.746 102.362C447.981 103.451 449.299 104.036 449.673 103.661C450.437 102.898 447.995 100.782 443.5 98.3119C439.412 96.0659 426.674 95.5719 421.724 97.4679ZM138 105.569C134.975 108.007 131.964 110.001 131.309 110.001C130.654 110.001 129.826 110.474 129.468 111.052C128.227 113.06 136.105 109.049 140.54 105.415C142.993 103.405 145 101.589 145 101.381C145 100.342 143.006 101.536 138 105.569ZM324.012 101.186C323.947 104.893 330.56 113.265 335.398 115.6C337.394 116.564 337.938 116.635 336.923 115.799C330.44 110.462 328.626 108.55 326.471 104.781C325.125 102.427 324.019 100.809 324.012 101.186ZM322.623 108.251C325.013 112.892 328.841 117.726 330.687 118.434C331.557 118.768 330.659 117.259 328.691 115.081C326.723 112.903 324.401 109.744 323.531 108.061C322.661 106.378 321.724 105.001 321.449 105.001C321.174 105.001 321.702 106.464 322.623 108.251ZM139.022 110.555C137.109 111.905 133.509 113.757 131.022 114.671C125.616 116.656 123.333 118.34 127.772 117.066C132.019 115.848 143 109.932 143 108.862C143 107.732 143.049 107.711 139.022 110.555ZM378.826 109.915C374.26 111.404 368.604 115.062 366.174 118.096C364.895 119.694 364.322 121.001 364.901 121.001C365.48 121.001 366.732 119.813 367.684 118.361C368.635 116.908 372.133 114.434 375.457 112.861C382.367 109.592 388.427 109.187 397.031 111.419C403.233 113.028 404.738 112.823 399.801 111.041C395.535 109.502 382.277 108.79 378.826 109.915ZM336.5 113.366C337.6 114.23 339.152 114.952 339.95 114.969C342.008 115.014 340.052 113.384 337 112.51C334.571 111.815 334.557 111.839 336.5 113.366ZM193.395 116.171C192.654 117.37 192.282 130.051 191.662 175.263C191.468 189.432 191.099 201.235 190.842 201.492C190.586 201.749 188.379 199.534 185.938 196.571C183.198 193.246 179.657 190.306 176.684 188.891C172.102 186.709 166.275 181.314 164.209 177.339C163.684 176.328 163.17 171.451 163.068 166.501C162.795 153.284 162.147 149.098 159.458 143.173C156.955 137.659 145.131 125.001 142.483 125.001C141.027 125.001 140.92 125.471 138.968 140.501C138.325 145.451 137.639 150.049 137.444 150.718C136.871 152.679 139.966 161.987 142.555 166.088C145.931 171.436 148.836 173.88 153.222 175.061C157.561 176.229 164 179.791 164 181.023C164 181.477 165.165 183.232 166.589 184.924L169.178 188.001L164.839 188.016C155.804 188.047 146.795 193.286 142.636 200.928C141.186 203.592 140 206.75 140 207.945C140 209.141 139.555 209.844 139.011 209.508C138.45 209.161 138.274 209.552 138.605 210.414C138.925 211.248 137.782 214.387 136.064 217.389C134.347 220.391 133.315 223.078 133.771 223.36C134.711 223.94 151.091 220.519 155.173 218.889C161.503 216.362 167.951 207.341 169.52 198.816C169.893 196.79 171.067 194.346 172.128 193.385C173.973 191.715 174.125 191.735 175.603 193.844C176.453 195.058 178.802 197.97 180.824 200.317C190.754 211.843 194.306 228.283 195.336 267.501C195.633 278.799 195.387 292.578 194.771 299.17L193.679 310.838L187.23 312.458C176.296 315.205 171.41 318.41 157.823 331.751C150.832 338.615 143.859 346.04 142.327 348.251C138.667 353.532 138.651 359.195 142.287 362.566C145.885 365.903 148.539 366.286 156.489 364.614C160.333 363.806 163.579 363.246 163.702 363.37C163.826 363.493 163.271 365.775 162.469 368.439C161.667 371.104 160.52 377.383 159.92 382.393C159.32 387.402 157.743 395.955 156.415 401.399C153.134 414.847 153.176 423.507 156.545 428.472L159.09 432.222L157.084 438.361C154.67 445.753 154.077 451.6 155.091 458.012C155.982 463.651 159.804 472.389 163.197 476.548C164.9 478.635 166.125 482.288 167.371 489.001C170.613 506.466 177.757 513.985 195 518.082C198.025 518.801 200.603 519.442 200.729 519.507C200.855 519.572 200.53 531.187 200.007 545.319C199.227 566.387 199.324 573.178 200.545 583.036C201.363 589.649 202.195 602.809 202.393 612.281C202.855 634.389 204.526 638.708 210.295 632.709C218.542 624.134 225.346 616.15 226.125 614.133C226.629 612.83 226.958 607.205 226.857 601.633C226.466 580.093 227.928 531.001 228.96 531.001C229.381 531.001 231.779 533.195 234.288 535.878C238.578 540.464 242 548.097 242 553.081C242 555.888 250.714 572.439 254.755 577.305C258.203 581.46 265.498 587.795 277.688 597.223C283.581 601.781 292 609.792 292 610.842C292 611.266 290.915 613.084 289.588 614.882C288.261 616.68 286.191 621.155 284.987 624.826L282.799 631.501L277.096 633.306C273.96 634.299 270.068 636.196 268.447 637.521C266.335 639.247 264.225 639.942 261 639.975C242.529 640.163 228.102 663.055 234.978 681.267C236.176 684.438 238.183 688.263 239.44 689.767C241.24 691.922 241.825 694.101 242.199 700.056C242.929 711.656 248.834 722.95 257 728.363C267.495 735.32 282.556 737.065 293 732.535L298.5 730.149L301.15 732.666C305.887 737.166 313.797 740.168 321 740.199C327.927 740.228 336.114 737.63 340.864 733.893C343.212 732.047 343.536 732.013 344.625 733.503C346.019 735.41 354.894 737.972 360.161 737.989C369.8 738.02 381.344 730.177 386.43 720.14C390.748 711.617 389.508 710.429 384.845 718.622C381.771 724.025 378.308 727.966 374 730.967C372.075 732.308 370.275 733.651 370 733.953C368.398 735.709 353.86 735.329 349.052 733.405C344.523 731.593 344.041 730.179 347.032 727.472C350.211 724.595 352.698 719.986 354.3 714.001C355.109 710.976 356.119 707.601 356.542 706.501C357.106 705.037 356.734 705.214 355.156 707.159C353.97 708.62 352.996 710.87 352.99 712.159C352.974 715.943 348.605 724.213 344.545 728.142C339.146 733.367 330.791 737.168 323.401 737.761C318.318 738.169 315.967 737.781 310.223 735.586C306.378 734.117 302.431 732.029 301.452 730.947C299.736 729.052 299.759 728.883 302.086 726.313L304.5 723.646L301.5 725.627C289.498 733.556 274.468 734.429 261.292 727.963C253.877 724.325 248.815 718.771 245.905 711.08C244.153 706.453 243.879 704.051 244.297 697.001C244.573 692.326 245.52 686.828 246.4 684.783C248.216 680.562 248.37 679.654 247.137 680.416C246.663 680.71 245.7 683.003 244.997 685.512C244.294 688.021 243.22 689.928 242.61 689.748C241.999 689.569 240.15 686.74 238.5 683.462C232.682 671.902 235.33 657.282 244.742 648.997C250.255 644.144 263 639.049 263 641.697C263 642.08 261.847 644.057 260.437 646.091C257.437 650.421 255.029 658.718 255.012 664.784C254.997 670.253 258.893 678.055 263.33 681.439C268.45 685.344 268.695 684.499 263.82 679.751C257.993 674.077 255.879 667.703 257.145 659.629C258.286 652.354 260.008 648.975 265.652 642.941C269.829 638.477 276.07 635.125 283 633.625C284.939 633.205 285.548 632.395 285.712 630.015C286.07 624.833 291.631 614.596 296.553 610.059C299.076 607.733 304.147 604.406 307.82 602.666C314.084 599.698 315.155 599.509 325 599.627C332.66 599.718 336.852 600.267 340.5 601.655C345.317 603.488 345.519 603.723 346.021 608.05C346.699 613.909 351.404 623.442 354.812 625.863C359.198 628.979 370.57 632.001 377.91 632.001C383.582 632.001 385.29 631.562 389.054 629.135C394.534 625.603 398.554 621.304 399.465 618.001C400.093 615.724 399.983 615.769 398.237 618.501C395.746 622.398 388.587 628.827 385.383 630.046C379.157 632.413 364.117 629.881 356.5 625.184C354.849 624.166 352.149 620.896 350.5 617.917C347.776 612.999 347.504 611.673 347.543 603.501C347.596 592.655 350.079 585.408 356.357 577.779C360.667 572.541 369.472 567.001 373.486 567.001C374.319 567.001 375 566.562 375 566.026C375 565.481 373.706 565.31 372.066 565.638C369.317 566.188 369.082 565.982 368.327 562.363C366.86 555.336 367.58 542.926 369.887 535.47C373.68 523.207 378.794 517.332 390.403 511.899C395.707 509.417 398.422 508.786 404.251 508.677C408.238 508.603 412.85 508.852 414.5 509.23C417.295 509.871 417.261 509.811 414 508.355C410.125 506.624 402.001 506.081 397.75 507.27C394.007 508.317 394.071 505.858 397.947 499.746C402.397 492.729 407.522 489.795 416.319 489.231C425.278 488.656 432.393 491.306 437.308 497.048C440.326 500.573 443.686 507.648 442.776 508.559C442.551 508.783 440.917 508.551 439.145 508.043C432.665 506.184 419.335 510.278 415.048 515.443C413.09 517.803 414.293 517.341 419.851 513.602C426.381 509.207 432.617 508.282 441.159 510.442C444.646 511.324 448.625 512.867 450 513.87C455.899 518.176 461.003 534.747 459.433 544.501C458.57 549.868 454.251 557.686 450.787 560.153C449.238 561.256 445.39 563.467 442.236 565.067C435.775 568.343 437.109 569.042 443.923 565.95C448.865 563.709 448.869 563.711 451.974 570.501C454.614 576.276 455.407 584.107 453.975 590.267C452.238 597.736 447.305 606.574 442.57 610.7C439.922 613.007 439.374 613.809 441 612.995C442.375 612.307 444.29 611.055 445.256 610.212C447.316 608.415 447.114 608.256 450.068 614.001C453.197 620.087 453.94 634.781 451.585 643.976C447.515 659.863 435.872 675.434 423.246 681.876C418.707 684.191 407.949 687.283 407.164 686.498C406.897 686.232 407.244 683.488 407.935 680.402C408.678 677.08 408.824 674.425 408.291 673.892C407.758 673.359 406.892 675.964 406.167 680.279C404.324 691.246 399.549 698.1 390.5 702.765C386.38 704.89 384.055 705.357 377.291 705.422C369.372 705.498 369.211 705.546 372.735 706.766C375.458 707.709 377.786 707.772 381.878 707.016C389.271 705.649 389.303 705.656 388.605 708.44C388.268 709.781 388.422 711.144 388.946 711.468C389.47 711.791 390.197 710.469 390.561 708.529C390.925 706.589 391.561 705.001 391.974 705.001C393.644 705.001 400.654 698.574 403.775 694.182C407.34 689.164 408.881 688.181 413.355 688.071C419.913 687.91 433.29 679.313 440.57 670.582C451.455 657.526 455.464 646.485 455.486 629.501C455.499 619.065 455.343 618.225 452.447 613.118L449.394 607.736L452.447 601.618C454.126 598.254 455.745 595.276 456.045 595.001C456.344 594.726 456.569 589.551 456.545 583.501C456.506 573.88 456.196 571.906 454.074 567.753L451.648 563.005L453.662 560.753C457.521 556.439 459.997 551.243 460.743 545.89C463.074 529.177 458.262 514.591 449.011 510.327C446.834 509.322 445.04 507.921 445.026 507.211C444.982 505.045 440.935 497.667 438.14 494.662C432.801 488.92 422.758 485.706 414.428 487.073C411.718 487.518 409.005 487.909 408.4 487.941C406.279 488.056 399.028 493.575 396.505 496.994C395.103 498.894 393.504 502.13 392.95 504.186C392.108 507.315 391.092 508.35 386.722 510.534C376.985 515.401 371.583 522.266 367.621 534.807C366.18 539.37 364.988 544.319 364.973 545.803L364.946 548.501L361.459 544.751C359.542 542.689 357.585 541.001 357.111 541.001C356.254 541.001 346.241 530.228 341.775 524.501C333.165 513.461 327.403 499.84 323.908 482.265C323.445 479.935 322.425 476.785 321.642 475.265C320.274 472.609 313.806 444.735 314.209 443.232C314.511 442.107 312.982 435.022 311.469 430.531C310.722 428.314 309.896 425.294 309.634 423.819C309.372 422.344 308.287 418.519 307.223 415.319C306.159 412.119 304.257 406.351 302.996 402.501C299.146 390.746 291.142 376.398 285.981 372.001C285.354 371.467 276.897 360.903 273.395 356.28C272.237 354.752 270.558 352.151 269.665 350.501C267.941 347.317 263.099 341.398 251.134 327.844C237.341 312.22 236.113 310.898 235.306 310.81C232.53 310.509 229 308.588 229 307.378C229 306.233 232.666 304.001 234.548 304.001C234.778 304.001 236.068 306.138 237.414 308.751C242.216 318.067 253.325 324.419 260.866 322.159C262.992 321.522 266.173 321.001 267.933 321.001C271.429 321.001 271.459 320.516 268.398 313.588C265.872 307.874 263.209 305.844 253.989 302.603C248.635 300.722 246.589 300.576 238 301.465L231.5 302.137L236.5 297.547C240.216 294.135 242.116 293.062 243.9 293.369C246.073 293.742 259.02 289.685 263.633 287.185C265.952 285.928 270.412 281.172 271.783 278.493C272.349 277.389 273.482 273.918 274.301 270.779C275.501 266.185 275.544 264.868 274.522 264.02C273.15 262.88 271.808 263.186 265.176 266.149C262.798 267.211 259.423 268.352 257.676 268.684C255.929 269.015 253.311 269.884 251.858 270.614C248.44 272.33 243.331 278.801 242.425 282.56C241.289 287.273 238.158 292.846 235.997 294.003C232.83 295.698 233.485 292.968 237.334 288.431C243.667 280.967 244.578 273.246 240.419 262.296C238.999 258.559 237.596 254.488 237.302 253.251C237.008 252.013 236.233 251.001 235.58 251.001C234.304 251.001 228 257.105 228 258.34C228 258.75 226.65 261.972 225 265.501C220.563 274.991 221.084 279.73 227.415 287.469C232.391 293.552 232.571 295.096 228.764 299.091C226.969 300.975 224.263 304.088 222.751 306.009L220.002 309.501L220.425 295.001C220.691 285.866 220.368 277.541 219.553 272.501C217.653 260.76 216.623 231.733 216.503 186.501C216.385 142.279 216.692 144.564 209.578 135.057C208.16 133.162 207 130.87 207 129.962C207 129.054 206.111 127.507 205.026 126.524C203.94 125.541 202.756 123.784 202.394 122.619C200.573 116.744 195.352 113.004 193.395 116.171ZM34.4958 117.844C35.5858 119.132 37.3828 120.65 38.4888 121.216C40.6128 122.304 40.3028 121.968 35.5068 117.986C32.6198 115.589 32.5838 115.584 34.4958 117.844ZM40.7328 127.125C41.4118 127.809 42.2188 128.116 42.5258 127.808C42.8338 127.5 42.2788 126.941 41.2928 126.565C39.8678 126.023 39.7528 126.137 40.7328 127.125ZM54.9998 128.384C54.9998 129.233 59.7618 129.606 61.5688 128.898C62.9348 128.363 62.2568 128.121 59.2498 128.071C56.9128 128.033 54.9998 128.174 54.9998 128.384ZM50.9998 131.042C57.0558 133.064 60.6058 133.447 61.3998 132.163C61.6838 131.703 60.2478 131.257 58.2088 131.173C56.1688 131.089 52.9278 130.566 51.0068 130.011C45.1488 128.318 45.1438 129.087 50.9998 131.042ZM144.005 130.039C144.007 130.843 145.311 134.876 146.901 139.001C148.492 143.126 150.563 149.876 151.505 154.001C153.867 164.354 155.842 169.503 158.358 171.87L160.5 173.885L159.968 161.649C159.507 151.052 159.078 148.681 156.763 143.957C154.012 138.342 143.996 127.416 144.005 130.039ZM50.4998 135.032C52.4168 135.826 65.7758 136.387 64.9168 135.638C64.6868 135.438 60.8998 135.033 56.4998 134.739C51.8728 134.429 49.3428 134.553 50.4998 135.032ZM142.246 138.039C139.967 147.303 139.767 151.689 141.374 157.217C143.996 166.234 149.001 172.077 155.415 173.606L158.33 174.301L155.781 170.901C153.293 167.583 152.426 165.579 151.424 160.831C149.614 152.257 148.886 149.603 146.27 142.039L143.344 133.578L142.246 138.039ZM53.7678 139.726C55.5648 139.948 58.2648 139.944 59.7678 139.716C61.2708 139.487 59.7998 139.305 56.4998 139.311C53.1998 139.316 51.9708 139.503 53.7678 139.726ZM55.2688 143.694C56.2418 143.948 57.5918 143.931 58.2688 143.657C58.9458 143.383 58.1498 143.176 56.4998 143.196C54.8498 143.216 54.2958 143.44 55.2688 143.694ZM406.673 163.24C408.9 167.571 415.362 172.993 420.657 174.974C428.519 177.916 428.389 176.839 420.431 173.116C416.594 171.32 412.07 168.193 409.771 165.748C407.575 163.412 406.181 162.284 406.673 163.24ZM433.5 166.001C431.572 166.83 431.579 166.863 433.691 166.931C434.896 166.969 436.16 166.551 436.5 166.001C437.231 164.818 436.252 164.818 433.5 166.001ZM431 169.001C427.56 169.725 427.581 169.74 432.191 169.869C434.771 169.942 437.16 169.551 437.5 169.001C438.185 167.892 436.268 167.892 431 169.001ZM422.318 171.329C424.783 173.352 435.312 174.523 437.678 173.037C439.216 172.072 438.972 171.956 436.118 172.294C432.868 172.678 426.7 171.861 422.5 170.49C420.591 169.867 420.583 169.906 422.318 171.329ZM430.793 177.26C433.197 178.03 434.398 178.003 435.243 177.158C436.119 176.282 435.319 176.026 431.95 176.103L427.5 176.205L430.793 177.26ZM26.0738 179.501C26.0808 180.051 26.7348 183.201 27.5258 186.501L28.9648 192.501L28.5288 187.245C28.2888 184.354 27.6358 181.204 27.0768 180.245C26.5178 179.286 26.0668 178.951 26.0738 179.501ZM30.7428 192.251C30.4508 195.689 29.2528 200.702 28.0808 203.393C25.6688 208.929 25.9838 210.865 28.5048 205.991C30.9798 201.206 32.9768 193.972 32.9888 189.751C33.0068 183.615 31.3168 185.496 30.7428 192.251ZM34.7158 194.747C33.7368 201.301 31.1038 207.535 27.5148 211.801C25.9948 213.607 24.9878 215.322 25.2768 215.612C26.2778 216.612 32.8898 206.847 34.5058 201.984C35.3968 199.299 35.9858 195.393 35.8128 193.302C35.5098 189.627 35.4738 189.675 34.7158 194.747ZM157.67 191.624C150.097 193.951 145.037 199.737 142.035 209.501C138.735 220.239 138.729 220.313 141.324 219.585C142.521 219.249 145.525 218.68 148 218.32C153.571 217.511 160.928 213.103 163.232 209.192C164.861 206.429 168.288 193.955 167.606 193.273C167.433 193.101 165.371 195.107 163.023 197.731C152.688 209.276 149.435 212.198 142.25 216.39C139.218 218.159 141.43 215.856 145.951 212.537C148.674 210.538 153.867 205.319 157.491 200.938C161.115 196.558 165.524 192.342 167.29 191.569L170.5 190.164L166.5 190.152C164.3 190.146 160.327 190.808 157.67 191.624ZM231.31 257.227C230.773 257.928 228.866 262.119 227.072 266.54C224.134 273.781 223.919 274.973 224.915 278.54C225.524 280.719 227.268 283.996 228.793 285.822L231.565 289.144L231.323 275.531C231.19 268.044 231.525 260.75 232.068 259.321C233.18 256.398 232.783 255.302 231.31 257.227ZM233.441 260.251C232.418 264.88 232.668 284.585 233.774 286.562C234.567 287.978 234.998 287.73 236.737 284.86C239.495 280.307 240.263 277.46 240.157 272.175C240.068 267.771 236.334 257.001 234.895 257.001C234.49 257.001 233.836 258.463 233.441 260.251ZM264.24 274.803C259.393 280.171 255.231 283.665 250.994 285.924C242.456 290.474 244.434 291.996 254.098 288.312C263.31 284.801 269.045 279.483 270.947 272.689C271.678 270.079 272.058 267.726 271.792 267.46C271.526 267.193 268.127 270.498 264.24 274.803ZM265 268.99C264.175 269.517 261.133 270.443 258.24 271.047C255.347 271.652 251.694 273.229 250.123 274.551C247.494 276.763 242.314 286.648 243.278 287.613C243.929 288.264 253.057 282.985 257.543 279.363C264.308 273.902 270.249 265.637 265 268.99ZM240.569 303.889C239.248 306.026 248.771 311.903 257.571 314.382C262.455 315.757 266.608 316.726 266.8 316.535C267.568 315.767 263.956 310.205 261.801 308.837C255.387 304.766 241.961 301.637 240.569 303.889ZM239.601 308.403C240.219 310.015 248.439 317.114 251.684 318.84C254.155 320.153 260.498 320.266 263.5 319.05C265.159 318.378 264.817 318.12 261.5 317.537C253.841 316.192 247.968 313.817 243.903 310.42C239.352 306.618 238.82 306.368 239.601 308.403ZM224.912 312.089C221.811 315.19 220.242 319.967 220.754 324.745C221.004 327.08 221.499 328.814 221.855 328.599C222.21 328.384 222.633 334.423 222.797 342.019C223.066 354.58 223.392 356.71 226.389 365.539L229.685 375.247L231.854 371.737C235.61 365.66 236.752 365.813 233.694 371.983L230.761 377.901L233.34 385.201C234.759 389.216 237.307 397.114 239.003 402.751C240.699 408.388 242.433 413.001 242.858 413.001C243.282 413.001 244.407 411.37 245.358 409.377C246.308 407.384 247.312 405.98 247.589 406.257C247.866 406.534 247.136 408.597 245.966 410.842C242.193 418.08 243.886 418.651 250.5 412.37C257.308 405.906 263.774 400.986 265.4 401.033C266.005 401.05 265.153 402.063 263.507 403.283C261.861 404.503 257.224 408.366 253.203 411.867C244.777 419.204 243.966 422.053 250 423.119C252.147 423.499 252.63 423.789 251.25 423.869C250.012 423.942 249 424.499 249 425.107C249 426.651 254.673 433.778 259.431 438.211C261.621 440.252 263.172 442.162 262.879 442.455C262.586 442.749 259.352 440.04 255.694 436.435C247.985 428.839 240.764 415.641 236.404 401.182C232.521 388.303 221.018 354.952 219.269 351.501C216.22 345.484 208.706 335.792 205.642 333.924C201.661 331.497 197.916 331.491 193.21 333.904C188.132 336.508 185.49 339.637 183.601 345.286C181.462 351.679 181.601 355.403 184.486 369.001C190.145 395.678 195.133 413.514 198.049 417.501C199.619 419.647 205.953 436.03 207.457 441.834C209.554 449.928 211.996 468.722 212.017 476.937C212.046 488.122 215.86 499.319 228.348 524.887C230.927 530.168 241.678 540.285 248.265 543.63C252.465 545.763 257.11 547.181 267.368 549.461C268.945 549.811 269.993 550.342 269.695 550.639C268.448 551.886 253.166 547.726 247.447 544.582L241.3 541.204L243.474 548.852C248.861 567.798 253.679 574.336 275.808 592.731L293.116 607.118L296.808 605.908C298.839 605.243 305.9 602.11 312.5 598.945C331.25 589.956 353.507 572.079 362.41 558.858C366.371 552.976 366.17 551.758 360.531 547.457L357.088 544.831L353.911 548.45C352.164 550.44 350.487 551.821 350.185 551.52C349.884 551.218 351.15 549.41 353 547.501C357.189 543.179 356.15 541.589 351.74 545.574L348.5 548.501L351.25 545.446C354.372 541.978 354.647 541.001 352.5 541.001C351.675 541.001 350.99 540.664 350.978 540.251C350.966 539.838 350.096 538.382 349.045 537.014L347.134 534.527L344.567 536.938C343.155 538.264 342 538.891 342 538.33C342 537.77 342.909 536.488 344.021 535.482L346.041 533.654L343.653 531.077C340.87 528.075 331.939 514.876 329.711 510.473C328.868 508.808 327.517 504.983 326.71 501.973C325.902 498.963 323.2 489.526 320.705 481.001C318.211 472.476 314.525 457.401 312.515 447.501C309.139 430.869 306.998 423.053 300.328 403.001C296.99 392.969 290.848 381.689 285.157 375.145C279.006 368.071 273.307 360.562 266.553 350.634C258.433 338.698 237.33 315.168 232.223 312.356C227.056 309.511 227.475 309.526 224.912 312.089ZM185.5 314.849C177.406 317.523 172.814 320.43 164.675 328.031C157.639 334.602 157 335.524 157 339.109C157 342.416 156.189 343.926 151.75 348.884C148.863 352.109 145.488 355.331 144.25 356.043C143.012 356.756 142 357.695 142 358.131C142 358.567 143.012 359.884 144.25 361.058C146.175 362.884 147.367 363.126 152.5 362.732C161.622 362.032 177.657 354.406 176.535 351.302C176.286 350.611 176.685 350.327 177.476 350.63C178.856 351.16 182.295 347.005 181.833 345.367C181.024 342.5 191.314 331.001 194.689 331.001C195.992 331.001 195.897 326.11 194.402 316.251C193.836 312.516 192.973 312.38 185.5 314.849ZM181.953 330.695C183.066 333.004 184.666 334.318 186.75 334.634C188.509 334.901 188.276 333.893 185.911 331.001C184.164 328.866 184.022 328.82 184.933 330.685C186.717 334.338 186.126 334.662 183.442 331.501C181.659 329.401 181.212 329.159 181.953 330.695ZM191.984 335.844C190.068 336.858 187.611 339.306 186.524 341.284L184.549 344.881L187.335 353.436C191.443 366.051 196.467 370.736 203.061 368.102C205.183 367.255 204.892 367.12 200.823 367.064C197.027 367.013 195.762 366.514 194.113 364.418C191.47 361.058 187.901 351.628 187.259 346.308C186.802 342.527 187.082 341.813 190.099 339.058C192.82 336.572 194.31 336.001 198.068 336.001C203.312 336.001 204.383 336.881 208.414 344.501C211.116 349.609 211.002 347.148 208.262 341.224C205.056 334.291 198.818 332.229 191.984 335.844ZM179 335.679C179 336.236 180.012 337.548 181.25 338.596L183.5 340.501L181.511 338.001C180.417 336.626 179.404 335.314 179.261 335.084C179.117 334.855 179 335.123 179 335.679ZM182.5 336.001C182.84 336.551 183.316 337.001 183.559 337.001C183.802 337.001 184 336.551 184 336.001C184 335.451 183.523 335.001 182.941 335.001C182.359 335.001 182.16 335.451 182.5 336.001ZM149.744 342.844C144.926 347.994 141.433 353.768 142.494 354.828C143.586 355.92 156 342.392 156 340.111C156 336.953 154.738 337.504 149.744 342.844ZM82.8128 340.684C83.5338 340.973 84.3968 340.937 84.7288 340.605C85.0608 340.273 84.4708 340.037 83.4168 340.08C82.2518 340.128 82.0148 340.365 82.8128 340.684ZM178.08 341.751C178.851 342.989 179.796 344.001 180.182 344.001C181.576 344.001 182.2 341.801 181.113 340.714C180.296 339.897 180 339.952 180 340.923C180 342 179.691 341.991 178.339 340.873C176.819 339.617 176.797 339.692 178.08 341.751ZM211.733 355.501C212.032 358.801 212.439 361.689 212.638 361.918C213.378 362.77 212.828 353.426 212.025 351.501C211.521 350.293 211.405 351.878 211.733 355.501ZM372.813 350.684C373.534 350.973 374.397 350.937 374.729 350.605C375.061 350.273 374.471 350.037 373.417 350.08C372.252 350.128 372.015 350.365 372.813 350.684ZM178.005 353.495C177.265 354.387 174.599 356.295 172.08 357.737C169.561 359.178 167.389 360.426 167.252 360.51C166.553 360.942 162.755 377.705 161.477 386.001C160.672 391.226 159.322 397.976 158.477 401.001C157.632 404.026 156.681 410.326 156.365 415.001C155.811 423.181 155.899 423.662 158.691 427.764C160.287 430.109 162.472 432.642 163.546 433.393C168.83 437.087 183.55 444.563 189.112 446.378C191.649 447.206 196.697 449.349 200.33 451.141C203.963 452.933 207.226 454.109 207.58 453.754C207.935 453.4 207.46 449.671 206.525 445.468C204.924 438.273 204.619 437.74 201.308 436.356C197.007 434.559 190.411 434.19 188.937 435.664C188.339 436.262 187.229 438.494 186.469 440.626L185.088 444.501L185.044 441.386C184.996 438.02 187.976 433.461 190.811 432.561C191.779 432.254 194.917 432.611 197.785 433.355C200.653 434.099 203 434.381 203 433.982C203 432.013 198.754 423.999 197.703 423.986C196.839 423.975 196.866 423.738 197.797 423.147C199.429 422.112 199.036 421.785 188.635 415.516C181.999 411.517 180.22 410.866 177.25 411.348C174.037 411.869 173.894 411.794 175.615 410.492C178.214 408.524 180.974 408.667 184.438 410.951C187.789 413.16 188.456 412.954 190.451 409.095C191.734 406.614 191.675 405.63 189.895 399.912C188.799 396.39 186.687 392.216 185.201 390.636C182.63 387.902 182.608 387.796 184.75 388.45C186.512 388.987 186.997 388.742 186.985 387.318C186.957 384.04 185.51 382.835 182.506 383.589C180.515 384.089 179.907 383.96 180.41 383.147C180.799 382.517 181.991 382.001 183.059 382.001C185.373 382.001 185.437 381.012 183.528 374.722C182.731 372.093 181.777 366.468 181.409 362.222C180.604 352.936 179.922 351.186 178.005 353.495ZM66.2688 374.694C67.2418 374.948 68.5918 374.931 69.2688 374.657C69.9458 374.383 69.1498 374.176 67.4998 374.196C65.8498 374.216 65.2958 374.44 66.2688 374.694ZM180 378.001C179.099 378.583 178.975 378.976 179.691 378.986C180.346 378.994 181.16 378.551 181.5 378.001C182.267 376.759 181.921 376.759 180 378.001ZM180.5 380.001C179.181 380.568 179.011 380.879 180 380.915C180.825 380.946 182.175 380.534 183 380.001C184.828 378.82 183.249 378.82 180.5 380.001ZM56.7758 408.734C59.1278 408.946 62.7278 408.943 64.7758 408.728C66.8238 408.513 64.8998 408.34 60.4998 408.344C56.0998 408.347 54.4238 408.523 56.7758 408.734ZM191.189 411.485C189.624 414.921 189.546 414.715 193.09 416.548C196.153 418.131 196.174 418.125 195.466 415.823C195.072 414.546 194.217 412.46 193.565 411.188L192.378 408.875L191.189 411.485ZM197 427.001C197 427.551 197.45 428.001 198 428.001C198.55 428.001 199 427.551 199 427.001C199 426.451 198.55 426.001 198 426.001C197.45 426.001 197 426.451 197 427.001ZM158.53 439.751C155.483 449.294 155.916 455.159 160.542 467.001C163.084 473.508 166.153 476.334 177.444 482.561C185.194 486.836 190.423 488.865 200.25 491.409C214.084 494.992 214.424 494.918 212.129 488.816C211.651 487.543 210.952 483.59 210.577 480.032C210.203 476.475 209.708 473.376 209.478 473.146C209.249 472.916 207.183 472.728 204.887 472.728C199.491 472.728 196.875 475.72 197.245 481.468C197.451 484.673 198.115 485.849 200.695 487.582C202.453 488.762 205.775 490.029 208.079 490.398C210.382 490.766 212.048 491.287 211.779 491.555C211.511 491.823 208.885 491.526 205.943 490.895C196.019 488.767 192.421 482.109 197.299 474.899C199.419 471.765 200.001 471.501 204.8 471.501H210.004L210.002 467.271C210 463.356 209.707 462.892 206.068 461.036C203.905 459.932 201.852 458.57 201.504 458.008C201.157 457.446 199.465 456.258 197.743 455.368C194.682 453.785 194.561 453.81 192.255 456.491C189.294 459.934 188.243 459.233 191.039 455.679L193.105 453.052L188.847 454.958C186.505 456.007 184.141 456.588 183.594 456.25C183.046 455.912 184.489 455.005 186.799 454.235C189.11 453.464 191 452.506 191 452.106C191 450.781 184.635 446.619 175 441.642C169.775 438.943 164.79 436.119 163.921 435.368C161.28 433.082 160.441 433.764 158.53 439.751ZM194 451.25C195.925 452.468 199.75 455.159 202.5 457.229C205.25 459.299 207.838 460.994 208.25 460.997C208.662 460.999 209 459.876 209 458.501C209 456.927 208.435 456.001 207.475 456.001C206.636 456.001 202.823 454.426 199 452.501C191.131 448.538 188.79 447.952 194 451.25ZM168.341 483.751C168.669 485.814 169.216 489.301 169.557 491.501C170.482 497.479 172.642 501.357 178.067 506.783C181.876 510.592 184.458 512.155 189.73 513.845C204.366 518.536 215.567 520.197 218.789 518.152C219.577 517.653 218.41 517.318 215.789 517.294C209.945 517.238 200.128 513.376 198.883 510.643C198.197 509.137 198.293 507.274 199.198 504.531C200.783 499.727 203.307 498.856 210.75 500.546C213.637 501.202 216 501.594 216 501.417C216 501.24 215.516 500.033 214.925 498.736C214.014 496.737 212.062 495.947 202.175 493.578C193.799 491.57 187.484 489.257 179.827 485.39C173.957 482.426 168.837 480.001 168.449 480.001C168.061 480.001 168.013 481.689 168.341 483.751ZM414.5 491.994C413.053 492.611 413.894 492.834 417.539 492.798C420.31 492.771 424.135 493.025 426.039 493.363L429.5 493.976L426.5 492.534C423.174 490.935 417.575 490.683 414.5 491.994ZM413.019 495.968C412.057 496.576 413.634 496.698 417.519 496.314C420.809 495.99 423.688 495.562 423.917 495.363C424.877 494.529 414.373 495.112 413.019 495.968ZM201.667 501.668C201.3 502.034 201 504.3 201 506.703C201 510.962 201.119 511.123 205.75 513.111C208.363 514.232 212.628 515.403 215.229 515.712C221.318 516.436 222.145 514.715 218.965 507.926C217.073 503.887 216.014 502.822 213.079 502.006C208.985 500.869 202.653 500.681 201.667 501.668ZM391.185 513.852C387.673 515.725 377.692 525.026 378.417 525.751C378.652 525.986 380.546 524.296 382.625 521.994C384.704 519.693 388.677 516.507 391.453 514.915C396.885 511.799 396.666 510.93 391.185 513.852ZM385.198 524.402C381.244 528.692 376.424 536.759 377.296 537.63C377.535 537.869 378.331 536.617 379.064 534.846C379.797 533.076 382.574 529.011 385.235 525.814C390.954 518.942 390.934 518.179 385.198 524.402ZM373.6 534.601C373.244 535.528 373.178 536.512 373.453 536.787C373.728 537.062 374.244 536.528 374.6 535.601C374.956 534.674 375.022 533.69 374.747 533.415C374.472 533.14 373.956 533.674 373.6 534.601ZM347.981 543.524C346.924 544.797 346.986 544.944 348.359 544.417C349.261 544.07 350 543.385 350 542.894C350 541.608 349.421 541.789 347.981 543.524ZM379.158 544.001C379.158 545.376 379.385 545.939 379.662 545.251C379.94 544.564 379.94 543.439 379.662 542.751C379.385 542.064 379.158 542.626 379.158 544.001ZM358.872 551.751C357.629 553.337 357.664 553.372 359.25 552.129C360.916 550.822 361.445 550.001 360.622 550.001C360.415 550.001 359.627 550.789 358.872 551.751ZM362.853 560.648C356.552 570.168 340.498 584.408 325.752 593.556C323.14 595.176 321.003 596.847 321.002 597.27C320.998 598.788 326.603 596.623 332 593.02C339.686 587.89 340.443 587.475 339.588 588.858C339.192 589.499 336.327 591.649 333.222 593.636L327.576 597.248L334.538 599.084C338.367 600.094 342.446 601.199 343.602 601.539C345.521 602.103 345.755 601.665 346.286 596.519C346.653 592.961 348.169 588.32 350.394 583.941C352.333 580.124 353.628 577.001 353.272 577.001C352.917 577.001 353.764 575.764 355.155 574.251C359.409 569.627 366.23 559.19 365.814 557.943C365.598 557.295 364.266 558.512 362.853 560.648ZM363 565.75C361.625 567.798 360.121 570.076 359.658 570.812C359.196 571.548 360.771 570.898 363.158 569.367C365.546 567.837 367.595 566.546 367.71 566.499C368.213 566.295 366.704 562.002 366.133 562.013C365.785 562.02 364.375 563.702 363 565.75ZM427 571.001C426.175 571.534 425.95 571.97 426.5 571.97C427.05 571.97 428.175 571.534 429 571.001C429.825 570.468 430.05 570.032 429.5 570.032C428.95 570.032 427.825 570.468 427 571.001ZM431 573.08C426.049 574.775 425.897 574.906 429.48 574.394C431.668 574.08 434.593 573.207 435.98 572.453C439.398 570.592 437.607 570.818 431 573.08ZM421.813 572.684C422.534 572.973 423.397 572.937 423.729 572.605C424.061 572.273 423.471 572.037 422.417 572.08C421.252 572.128 421.015 572.365 421.813 572.684ZM441 574.077C438.339 575.592 438.099 575.916 440 575.428C441.375 575.075 443.159 574.16 443.964 573.394C445.93 571.524 445.183 571.696 441 574.077ZM446.506 574.995C445.507 576.098 445.155 577.001 445.723 577.001C446.981 577.001 449.475 574.143 448.803 573.471C448.538 573.206 447.504 573.891 446.506 574.995ZM349.74 579.541C348.233 580.939 347 582.373 347 582.729C347 583.084 348.35 582.082 350 580.501C352.757 577.86 353.429 577.001 352.74 577.001C352.597 577.001 351.247 578.144 349.74 579.541ZM343.405 585.143C341.507 587.277 341.508 587.279 343.75 585.902C344.988 585.142 346 584.178 346 583.76C346 582.555 345.443 582.851 343.405 585.143ZM385 601.606C383.418 602.576 383.234 602.871 384.5 602.408C392.948 599.321 399.577 602.636 400.27 610.293L400.651 614.501L400.825 610.174C400.97 606.597 400.494 605.341 398.077 602.924C394.717 599.564 389.229 599.011 385 601.606ZM402.319 602.974C404.455 606.115 404.518 614.475 402.437 618.501C400.988 621.304 400.996 621.393 402.559 619.849C404.533 617.901 406.061 610.636 405.303 606.802C405.01 605.318 403.841 603.293 402.704 602.302C400.649 600.51 400.647 600.514 402.319 602.974ZM408.195 608.501C408.215 610.151 408.439 610.705 408.693 609.732C408.947 608.759 408.93 607.409 408.656 606.732C408.382 606.055 408.175 606.851 408.195 608.501ZM294 609.06C294 609.642 294.45 609.841 295 609.501C295.55 609.161 296 608.685 296 608.442C296 608.199 295.55 608.001 295 608.001C294.45 608.001 294 608.478 294 609.06ZM302.281 611.912C298.645 614.546 293.254 620.789 294.141 621.338C294.338 621.46 297.274 618.735 300.664 615.281C304.055 611.827 306.71 609.001 306.565 609.001C306.419 609.001 304.492 610.311 302.281 611.912ZM408.079 613.584C408.127 614.749 408.364 614.986 408.683 614.189C408.972 613.467 408.936 612.604 408.604 612.272C408.272 611.94 408.036 612.53 408.079 613.584ZM294.081 614.85C292.448 617.902 292.786 618.752 294.602 616.159C295.483 614.901 295.97 613.637 295.683 613.351C295.396 613.064 294.676 613.739 294.081 614.85ZM411.079 616.584C411.127 617.749 411.364 617.986 411.683 617.189C411.972 616.467 411.936 615.604 411.604 615.272C411.272 614.94 411.036 615.53 411.079 616.584ZM298.221 620.751C296.062 623.852 293.741 630.075 294.472 630.806C294.736 631.071 295.207 630.435 295.517 629.394C295.827 628.353 297.139 625.363 298.432 622.751C301.092 617.376 301.024 616.727 298.221 620.751ZM435.141 619.001C435.141 619.826 435.527 621.401 436 622.501C436.542 623.762 436.859 623.946 436.859 623.001C436.859 622.176 436.473 620.601 436 619.501C435.458 618.24 435.141 618.056 435.141 619.001ZM289.564 623.708C289.022 625.133 289.136 625.248 290.124 624.268C290.808 623.589 291.115 622.782 290.807 622.475C290.499 622.167 289.94 622.722 289.564 623.708ZM356.409 629.854C357.243 631.204 367.968 635.187 369.388 634.674C369.999 634.453 368.475 633.714 366 633.032C363.525 632.35 360.213 631.126 358.64 630.314C357.067 629.501 356.063 629.294 356.409 629.854ZM300.134 640.451C300.057 643.861 300.37 645.995 300.866 645.451C301.343 644.929 301.403 642.251 301 639.501L300.267 634.501L300.134 640.451ZM442.564 649.708C442.022 651.133 442.136 651.248 443.124 650.268C443.808 649.589 444.115 648.782 443.807 648.475C443.499 648.167 442.94 648.722 442.564 649.708ZM440.667 652.668C440.3 653.034 440 653.799 440 654.368C440 654.994 440.466 654.935 441.183 654.218C441.834 653.567 442.134 652.802 441.85 652.518C441.566 652.233 441.033 652.301 440.667 652.668ZM340 676.386C340 676.598 341.238 677.567 342.75 678.541L345.5 680.311L343.595 678.156C341.909 676.249 340 675.309 340 676.386ZM330.5 682.459C335.611 684.665 338.744 685.103 334.5 683.018C332.3 681.938 329.825 681.078 329 681.109C328.175 681.139 328.85 681.747 330.5 682.459ZM342.5 683.562C343.6 684.386 345.327 686.06 346.337 687.281C347.347 688.502 347.843 688.826 347.438 688.001C346.246 685.569 342.738 681.998 341.576 682.033C340.984 682.05 341.4 682.739 342.5 683.562ZM351.035 687.136C351.016 687.486 351.657 689.286 352.461 691.136C353.264 692.987 353.923 693.826 353.925 693.001C353.929 691.56 351.108 685.835 351.035 687.136ZM357.079 693.584C357.127 694.749 357.364 694.986 357.683 694.189C357.972 693.467 357.936 692.604 357.604 692.272C357.272 691.94 357.036 692.53 357.079 693.584ZM358.079 698.584C358.127 699.749 358.364 699.986 358.683 699.189C358.972 698.467 358.936 697.604 358.604 697.272C358.272 696.94 358.036 697.53 358.079 698.584ZM357.079 702.584C357.127 703.749 357.364 703.986 357.683 703.189C357.972 702.467 357.936 701.604 357.604 701.272C357.272 700.94 357.036 701.53 357.079 702.584ZM365.733 704.125C366.412 704.809 367.219 705.116 367.526 704.808C367.834 704.5 367.279 703.941 366.293 703.565C364.868 703.023 364.753 703.137 365.733 704.125ZM247.071 706.783C246.94 709.154 249.838 714.474 253.182 718.001C258.881 724.012 260.744 724.78 255.609 719.001C252.92 715.976 249.916 711.701 248.931 709.501C247.947 707.301 247.109 706.078 247.071 706.783ZM376.459 714.068C376.096 714.654 376.014 715.349 376.276 715.611C376.538 715.873 377.019 715.393 377.345 714.544C378.021 712.782 377.445 712.472 376.459 714.068ZM377.459 718.068C377.096 718.654 377.014 719.349 377.276 719.611C377.538 719.873 378.019 719.393 378.345 718.544C379.021 716.782 378.445 716.472 377.459 718.068ZM375.543 724.784C373.333 727.419 372.667 728.618 374.035 727.501C377.419 724.737 380 721.858 380 720.848C380 719.541 379.77 719.744 375.543 724.784ZM264 721.394C264 721.61 264.698 722.055 265.552 722.383C266.442 722.724 266.843 722.556 266.493 721.99C265.906 721.039 264 720.584 264 721.394ZM372.921 723.641C370.613 726.15 370.602 726.219 372.694 725.131C375.015 723.925 376.488 722.156 375.771 721.438C375.535 721.202 374.252 722.193 372.921 723.641ZM302.25 760.79C298.825 761.146 297.976 762.394 300.5 763.363C301.519 763.754 301.988 765.311 301.964 768.22L301.928 772.501L299.487 769.513C298.144 767.87 296.531 765.282 295.902 763.763C294.93 761.418 294.171 761.001 290.879 761.001C286.658 761.001 285.839 762.309 289 764.001C290.662 764.891 291 766.095 291 771.13C291 776.347 290.722 777.261 289 777.711C287.9 777.999 287 778.601 287 779.05C287 780.36 290.609 781.137 293.415 780.433C296.303 779.708 296.769 778.51 294.5 777.639C293.464 777.242 293 775.624 293 772.41C293 766.856 294.078 767.331 299.049 775.078C303.414 781.88 304.422 781.453 303.649 773.13C303.095 767.168 303.276 765.919 305.023 763.699C307.308 760.793 306.85 760.313 302.25 760.79ZM333.455 762.456C329.357 766.553 330.51 769.5 337.17 771.954C340.149 773.052 341.594 774.204 341.803 775.648C342.482 780.352 335.785 779.124 333.849 774.19L332.794 771.501L331.854 773.954C330.178 778.329 331.119 780.296 335 780.526C340.25 780.836 341.87 780.152 343.541 776.921C345.583 772.972 344.228 770.638 338.398 768.059C333.568 765.922 332.869 763.501 337.083 763.501C338.63 763.501 339.855 764.311 340.487 765.751C341.936 769.054 343 768.497 343 764.434C343 761.374 342.728 760.953 341.084 761.474C340.03 761.809 338.879 761.614 338.525 761.042C337.516 759.409 336.109 759.801 333.455 762.456ZM133.614 769.028C132.004 773.558 129.86 777.686 128.691 778.505C125.803 780.528 127.123 781.325 131.998 780.501C135.824 779.855 136.016 779.676 134.579 778.088C132.778 776.099 134.139 774.001 137.231 774.001C139.743 774.001 140.749 777.002 138.633 778.186C135.976 779.674 137.509 780.631 142.189 780.406C148.039 780.125 148 780.134 148 779.001C148 778.451 147.142 778.001 146.094 778.001C144.718 778.001 143.745 776.7 142.594 773.323C141.717 770.75 140.986 767.712 140.968 766.573C140.933 764.299 138.805 761.001 137.373 761.001C136.874 761.001 135.182 764.613 133.614 769.028ZM150.696 763.578C146.521 767.752 146.737 773.963 151.222 778.737C152.977 780.605 154.151 781.021 156.4 780.571C160.025 779.846 162.019 778.246 161.937 776.129C161.894 775.027 161.581 775.228 160.969 776.751C159.972 779.232 156.214 779.815 154.2 777.801C153.54 777.141 153 774.081 153 771.001C153 765.05 154.132 763.01 157.45 762.986C159.14 762.973 159.237 762.8 158 762.001C155.527 760.403 153.415 760.858 150.696 763.578ZM165 761.854C165 762.367 165.675 763.046 166.5 763.363C168.839 764.26 168.626 777.537 166.25 778.921C164.179 780.127 163.938 780.088 173.717 780.151C181.203 780.2 181.46 780.122 182.321 777.539C183.592 773.724 182.419 773.257 179.495 776.412C175.809 780.389 172.596 779.659 172.19 774.751C171.898 771.227 173.121 769.77 174.5 772.001C175.822 774.14 176.999 772.83 176.97 769.251C176.945 766.218 176.744 765.836 175.92 767.251C174.261 770.098 171.816 769.444 172.184 766.251C172.649 762.208 176.683 761.89 179.762 765.653L182.092 768.501L181.796 765.001L181.5 761.501L173.25 761.211C168.601 761.047 165 761.328 165 761.854ZM198.783 762.751C192.781 769.632 194.445 778.842 201.99 780.499C206.555 781.501 209.01 780.191 211.07 775.654C213.638 770 213.493 768.633 209.896 764.536C206.36 760.508 201.431 759.716 198.783 762.751ZM213 761.884C213 762.37 213.906 763.005 215.014 763.294C216.8 763.761 217.011 764.581 216.882 770.539C216.76 776.188 216.439 777.335 214.868 777.746C212.767 778.295 212.332 779.949 214.25 780.098C216.954 780.307 223.527 779.793 223.992 779.335C224.262 779.069 223.7 778.412 222.742 777.876C220.866 776.826 220.258 771.001 222.025 771.001C222.588 771.001 223.587 772.238 224.244 773.751C225.43 776.48 225.441 776.468 225.782 772.147C226.115 767.927 225.187 765.212 224.28 767.751C224.034 768.439 223.167 769.001 222.353 769.001C221.287 769.001 220.961 768.096 221.187 765.759C221.589 761.6 224.126 761.037 227.458 764.368C230.096 767.006 231.561 766.343 230.497 762.992C229.932 761.211 228.974 761.001 221.433 761.001C216.795 761.001 213 761.399 213 761.884ZM242.572 761.885C242.234 762.431 242.707 763.297 243.622 763.809C244.538 764.322 246.498 768.508 247.979 773.113C250.822 781.957 251.831 782.195 253.31 774.37C253.791 771.83 253.581 771.264 252.201 771.37C250.819 771.477 250.485 770.564 250.419 766.501C250.338 761.507 250.334 761.501 246.762 761.196C244.795 761.029 242.91 761.338 242.572 761.885ZM252.322 762.289C252.021 762.777 252.275 763.676 252.887 764.288C253.499 764.9 254 766.571 254 768.001C254 769.431 254.396 771.029 254.879 771.551C255.363 772.073 256.298 774.189 256.957 776.251C257.616 778.314 258.553 780.001 259.039 780.001C259.525 780.001 260.416 778.088 261.018 775.751C263.126 767.566 264.213 764.857 265.601 764.324C266.37 764.029 267 763.202 267 762.486C267 760.972 253.25 760.788 252.322 762.289ZM272.394 762.668C269.274 772.088 266.446 778.042 264.85 778.549C263.832 778.872 263 779.516 263 779.981C263 780.843 283.915 780.419 284.795 779.54C285.06 779.274 284.174 778.638 282.826 778.125C280.911 777.397 279.985 775.804 278.594 770.847C277.615 767.357 276.486 763.853 276.085 763.061C274.961 760.837 273.067 760.635 272.394 762.668ZM309 762.001C309 762.551 309.675 763.001 310.5 763.001C311.699 763.001 312 764.494 312 770.442C312 774.535 311.55 778.161 311 778.501C310.45 778.841 310 779.604 310 780.197C310 781.975 322.764 780.525 325.011 778.491C328.245 775.564 329.368 770.613 327.581 767.157C324.77 761.722 323.405 761.001 315.929 761.001C311.976 761.001 309 761.431 309 762.001ZM160.38 763.453C160.074 764.252 160.114 765.377 160.47 765.953C161.635 767.838 163 767.054 163 764.501C163 761.79 161.282 761.103 160.38 763.453ZM201.571 763.572C199.636 765.508 199.409 775.849 201.25 778.248C203.259 780.866 207.956 779.432 208.175 776.134C208.926 764.833 205.958 759.186 201.571 763.572ZM258.433 764.11C258.086 764.671 258.112 766.783 258.491 768.803C259.138 772.254 259.265 772.359 260.59 770.547C261.365 769.487 262 767.628 262 766.417C262 764.055 259.476 762.422 258.433 764.11ZM316.417 764.356C316.131 765.102 316.033 768.589 316.199 772.106C316.478 778.028 316.681 778.527 318.944 778.846C320.446 779.058 321.891 778.503 322.694 777.405C324.254 775.271 324.419 767.653 322.965 764.935C321.773 762.708 317.205 762.304 316.417 764.356ZM135.409 769.377C134.562 771.585 135.689 772.712 137.217 771.184C138.119 770.282 138.122 769.723 137.233 768.834C136.343 767.944 135.909 768.073 135.409 769.377ZM272 770.001C272 771.101 272.45 772.001 273 772.001C273.55 772.001 274 771.101 274 770.001C274 768.901 273.55 768.001 273 768.001C272.45 768.001 272 768.901 272 770.001ZM270.667 774.668C269.354 775.98 270.036 777.878 272.048 778.516C274.503 779.295 277.099 777.424 276.334 775.428C275.777 773.976 271.881 773.454 270.667 774.668Z" fill="black"/>
</svg>
