<svg width="472" height="794" viewBox="0 0 472 794" fill="none" xmlns="http://www.w3.org/2000/svg">
<path fill-rule="evenodd" clip-rule="evenodd" d="M16.0209 0.748468C8.60685 0.920468 2.19786 1.40347 1.77886 1.82247C1.17386 2.42747 0.878856 285.47 0.992856 756.416C0.997856 776.17 1.33486 791.999 1.74186 791.593C2.14786 791.186 2.55586 781.998 2.64786 771.176C2.73986 760.354 2.85686 750.676 2.90886 749.671C2.99786 747.912 5.91685 747.863 80.2519 748.381C122.739 748.677 213.752 749.175 282.502 749.488C351.252 749.801 420.327 750.261 436.002 750.511C451.677 750.761 465.514 750.973 466.752 750.982C468.969 750.999 469.002 751.189 469.002 763.999C469.002 771.999 469.387 776.999 470.002 776.999C470.613 776.999 471.042 771.847 471.106 763.749C471.162 756.461 471.352 748.024 471.527 744.999C471.795 740.37 471.96 719.066 471.81 708.499C471.786 706.849 471.817 611.034 471.879 495.576C471.94 380.119 471.768 285.432 471.496 285.16C471.224 284.888 470.977 312.528 470.947 346.582C470.917 380.636 470.661 428.749 470.379 453.499C469.776 506.387 468.866 601.895 468.946 603.88C468.988 604.918 468.086 605.112 465.316 604.663C463.289 604.334 454.851 604.739 446.566 605.563C430.364 607.176 415.682 610.684 403.065 615.958C384.101 623.885 365.018 638.886 352.117 656.007C343.091 667.986 331.708 691.726 327.075 708.238C324.506 717.393 322.67 734.764 323.505 741.999L324.141 747.499L238.321 747.218C191.121 747.064 151.987 746.759 151.357 746.54C150.63 746.287 150.193 743.162 150.159 737.96C150.027 717.888 143.375 692.139 134.28 676.499C128.247 666.123 116.373 650.575 109.783 644.42C106.296 641.164 99.4059 635.744 94.4719 632.376C85.2269 626.066 69.0139 617.39 68.9869 618.738C68.9779 619.156 68.6409 619.049 68.2369 618.499C64.9669 614.049 40.7639 608.134 16.7209 605.91L3.00186 604.641V374.87C3.00186 157.095 3.09286 145.045 4.75186 144.079C6.41886 143.108 6.41886 143.058 4.75186 143.029C3.10186 143.001 3.00186 138.987 3.00186 72.9995V2.99947L52.2519 2.80947C79.3399 2.70547 111.627 2.59247 124.002 2.55947L146.502 2.49947L146.365 11.9995C146.212 22.6295 143.012 42.1825 139.342 54.9115C135.641 67.7475 126.255 86.1535 118.519 95.7445C111.877 103.98 100.008 114.525 88.8639 122.093C73.2819 132.674 45.7929 141.439 23.1129 143.058C16.2999 143.545 10.4499 144.238 10.1129 144.6C8.66686 146.153 36.8789 144.087 45.4089 142.014C65.6619 137.092 82.2419 129.715 95.6039 119.679C109.989 108.874 119.662 98.8865 126.774 87.4925C130.593 81.3725 138.246 65.2245 140.41 58.7175C143.359 49.8485 147.029 29.5895 148.194 15.7495L149.35 1.99947H179.06H208.769L209.17 8.29947C210.062 22.3025 217.683 30.7585 231.537 33.1185C241.482 34.8115 248.729 32.6515 255.068 26.1045C259.83 21.1855 261.342 17.3795 262.559 7.24947L263.19 1.99947H292.096H321.002V11.8685C321.002 28.7185 323.406 39.1555 332.409 61.3795C345.697 94.1855 365.419 114.653 400.874 132.435C406.868 135.441 414.44 138.799 417.703 139.898C426.402 142.829 445.34 145.878 459.557 146.639C470.895 147.245 472.002 147.152 472.002 145.592C472.002 144.651 471.665 144.069 471.252 144.299C469.369 145.349 441.809 142.772 430.294 140.47C418.978 138.206 415.762 137.056 402.418 130.499C370.478 114.803 352.45 97.7385 339.033 70.4995C328.098 48.3005 323.82 33.2785 322.585 12.7495L321.939 1.99947L326.72 1.98947C356.559 1.92847 471.603 0.640468 471.919 0.364468C472.415 -0.0705315 35.5009 0.297468 16.0209 0.748468ZM230.752 1.72647L211.002 2.04147V6.48347C211.002 12.5655 214.332 20.9585 218.25 24.7505C222.383 28.7505 227.478 30.8705 234.794 31.6355C248.991 33.1195 261.859 20.3465 260.812 5.80947L260.502 1.49947L255.502 1.45547C252.752 1.43147 241.615 1.55347 230.752 1.72647ZM235.351 13.9985C235.548 20.5165 237.5 20.5145 237.509 13.9965C237.514 10.8715 237.083 8.99947 236.358 8.99947C235.615 8.99947 235.254 10.7895 235.351 13.9985ZM41.1979 30.4875C31.2989 35.4655 27.8029 38.9575 23.7599 47.9085C22.1419 51.4885 21.8479 53.8385 22.1929 60.4085C22.9969 75.7335 29.9439 84.7985 44.2049 89.1295C50.4949 91.0405 52.1829 91.1675 59.4939 90.2805C72.5359 88.6995 79.7109 84.1345 85.4229 73.7865C90.7159 64.1975 89.7769 52.8665 82.7449 41.4995C75.7179 30.1385 70.5229 26.8665 58.5019 26.2315C50.6149 25.8145 50.3699 25.8755 41.1979 30.4875ZM392.277 26.9705C390.503 27.3915 387.858 28.5185 386.399 29.4755C383.81 31.1715 383.762 31.3925 384.41 38.5475C385.706 52.8445 390.105 61.1835 398.647 65.5355C405.445 68.9985 406.925 71.5155 406.966 79.6825C407.005 87.4505 407.273 87.0935 400.356 88.4815C396.358 89.2835 393.62 92.2205 394.445 94.8205C395.471 98.0525 400.658 99.4995 411.224 99.4995C420 99.4995 421.168 99.2785 423.218 97.2285C425.329 95.1175 425.383 94.7705 423.995 92.3085C423.072 90.6705 420.881 89.1205 418.252 88.2465L414.002 86.8325L414.037 79.6665C414.079 71.3255 415.273 68.6705 420.615 65.0425C425.871 61.4725 431.318 54.0105 433.333 47.6175C435.349 41.2245 435.528 32.6815 433.679 31.1465C430.679 28.6565 408.087 24.7095 409.449 26.9135C409.818 27.5105 411.781 28.0075 413.811 28.0165C419.452 28.0435 431.227 30.7965 432.914 32.4835C435.245 34.8145 433.313 35.8855 422.905 38.0325C411.913 40.3015 405.852 40.4335 397.272 38.5925C389.991 37.0305 385.744 34.5755 386.203 32.1935C386.673 29.7515 390.502 28.2555 399.002 27.1945C406.234 26.2915 406.305 26.2565 401.002 26.2305C397.977 26.2165 394.051 26.5495 392.277 26.9705ZM51.9689 39.9995C48.7279 52.7635 48.5579 52.9955 40.0019 56.3815L36.5019 57.7665L41.2049 59.9095L45.9079 62.0515L46.2049 68.1595L46.5019 74.2675L51.7529 69.5395L57.0039 64.8125L61.6809 66.4055C66.3669 68.0025 70.0019 68.4655 70.0019 67.4665C70.0019 67.1725 68.8909 64.7415 67.5339 62.0625C65.4009 57.8535 65.2639 57.0275 66.5219 55.9835C68.3619 54.4555 72.3669 48.0315 71.8199 47.4835C71.5939 47.2575 68.9549 47.7305 65.9549 48.5345C59.8919 50.1585 60.8979 50.6635 54.7989 42.9285C53.3119 41.0425 52.0389 39.7245 51.9689 39.9995ZM230.077 71.5205C228.322 74.6305 226.508 78.1695 226.046 79.3845C225.237 81.5115 224.943 81.5575 218.12 80.6145C214.222 80.0755 210.738 79.9295 210.378 80.2905C210.017 80.6515 211.585 83.4145 213.862 86.4305C216.139 89.4465 218.002 92.1115 218.002 92.3525C218.002 92.5935 215.752 94.2345 213.002 95.9995C205.838 100.596 206.328 101.643 216.22 102.859L221.42 103.499L223.869 109.749C226.048 115.311 228.002 117.793 228.002 114.999C228.002 114.449 227.552 113.999 227.002 113.999C226.452 113.999 226.002 113.081 226.002 111.959C226.002 109.083 222.403 102.367 220.463 101.622C219.569 101.28 217.327 100.999 215.479 100.999C210.449 100.999 210.449 99.4755 215.481 96.0135C217.968 94.3035 220.002 92.6635 220.002 92.3695C220.002 92.0765 218.427 89.9145 216.502 87.5645C212.186 82.2975 211.965 80.5035 215.752 81.4635C217.264 81.8465 220.161 82.3935 222.19 82.6795L225.877 83.1975L229.624 75.8485L233.371 68.4995L234.937 76.4995L236.502 84.4995L242.683 85.4995C246.082 86.0495 249.12 86.7625 249.433 87.0835C249.746 87.4045 247.527 89.3715 244.502 91.4545C241.477 93.5385 239.002 95.4315 239.002 95.6615C239.002 95.8915 239.902 97.8435 241.002 99.9995C242.102 102.155 243.002 104.162 243.002 104.459C243.002 104.756 240.865 105.045 238.252 105.101L233.502 105.204L239.502 106.514C242.802 107.235 245.702 107.626 245.947 107.384C246.191 107.142 245.15 104.412 243.633 101.319C241.472 96.9135 241.159 95.5305 242.188 94.9295C246.838 92.2175 252.906 87.3455 252.654 86.5275C252.257 85.2425 248.45 84.2265 243.502 84.0835C241.302 84.0205 239.004 83.6385 238.396 83.2345C237.788 82.8305 236.803 79.1745 236.207 75.1105C235.612 71.0465 234.707 67.3045 234.196 66.7935C233.626 66.2235 232.04 68.0425 230.077 71.5205ZM222.588 121.249C220.394 124.631 213.263 157.593 214.465 158.796C215.556 159.886 216.147 157.986 218.018 147.365C220.235 134.781 222.916 124.042 224.29 122.249C225.719 120.383 227.002 120.738 227.002 122.999C227.002 124.099 226.648 124.999 226.216 124.999C225.784 124.999 225.431 125.899 225.431 126.999C225.431 128.099 225.874 128.999 226.416 128.999C226.983 128.999 226.925 129.476 226.28 130.121C225.663 130.738 225.396 131.863 225.687 132.621C225.978 133.379 225.628 133.999 224.909 133.999C223.914 133.999 223.88 134.277 224.767 135.164C225.654 136.051 225.523 136.648 224.217 137.664C222.608 138.916 222.622 139.092 224.443 140.499C226.342 141.967 226.337 141.999 224.193 141.999C221.722 141.999 221.201 144.736 223.252 146.946C224.095 147.854 224.117 148.076 223.321 147.629C222.672 147.265 221.875 147.396 221.55 147.921C221.225 148.446 221.757 149.34 222.731 149.907C224.405 150.881 224.406 150.94 222.752 150.969C220.786 151.003 220.3 152.99 222.252 153.014C223.157 153.025 223.122 153.27 222.124 153.903C221.366 154.383 221.055 155.276 221.433 155.887C221.811 156.499 221.531 157.013 220.811 157.031C220.005 157.05 220.27 157.678 221.502 158.665C223.126 159.967 223.173 160.155 221.752 159.665C220.789 159.333 220.002 159.498 220.002 160.03C220.002 160.563 220.452 160.999 221.002 160.999C221.552 160.999 222.002 161.449 222.002 161.999C222.002 162.549 220.99 163.013 219.752 163.031C217.558 163.062 217.551 163.099 219.443 164.531C221.136 165.811 221.168 165.999 219.693 165.999C218.763 165.999 218.002 166.449 218.002 166.999C218.002 167.549 218.565 168.006 219.252 168.014C220.213 168.026 220.201 168.22 219.202 168.854C218.487 169.308 217.829 170.651 217.739 171.839C217.65 173.027 217.192 173.999 216.722 173.999C215.662 173.999 216.941 178.374 218.134 178.832C218.611 179.016 219.002 179.789 219.002 180.551C219.002 181.313 218.386 181.7 217.633 181.411C215.555 180.614 214.832 184.796 216.845 185.971C218.338 186.842 218.318 186.941 216.645 186.969C215.411 186.989 214.981 187.502 215.364 188.499C215.68 189.324 215.503 189.999 214.971 189.999C213.298 189.999 213.918 191.83 215.752 192.31C217.419 192.745 217.419 192.773 215.752 192.883C213.557 193.029 213.423 194.999 215.609 194.999C216.664 194.999 217.007 195.543 216.609 196.581C216.275 197.451 216.002 198.351 216.002 198.581C216.002 198.811 215.272 198.999 214.38 198.999C213.101 198.999 213.004 199.296 213.921 200.402C214.815 201.479 214.786 201.925 213.794 202.326C212.788 202.731 212.834 203.081 214.002 203.908C215.296 204.823 215.262 204.97 213.752 204.984C211.737 205.001 211.4 206.589 213.252 207.337C213.999 207.638 213.797 207.873 212.752 207.92C211.789 207.963 211.002 208.416 211.002 208.926C211.002 209.435 211.789 210.058 212.752 210.31C214.069 210.654 213.945 210.796 212.252 210.883C209.588 211.02 209.251 212.656 211.752 213.31C213.069 213.654 212.945 213.796 211.252 213.883C208.47 214.026 208.237 215.999 211.002 215.999C212.102 215.999 213.002 216.449 213.002 216.999C213.002 217.549 212.327 217.999 211.502 217.999C210.677 217.999 210.002 218.449 210.002 218.999C210.002 219.549 210.452 219.999 211.002 219.999C211.552 219.999 212.002 220.899 212.002 221.999C212.002 223.397 211.325 224.009 209.752 224.031C207.558 224.062 207.551 224.099 209.443 225.531C211.34 226.966 211.334 226.999 209.193 226.999C206.358 226.999 206.387 228.397 209.252 229.779C211.422 230.825 211.395 230.868 208.502 230.999C205.609 231.13 205.582 231.173 207.752 232.219C210.757 233.669 210.613 234.838 207.502 234.244C206.043 233.965 205.002 234.231 205.002 234.882C205.002 235.497 205.732 235.999 206.624 235.999C207.953 235.999 208.022 236.27 207.002 237.499C206.317 238.324 206.053 238.999 206.415 238.999C206.776 238.999 206.56 239.956 205.934 241.126C205.046 242.785 205.093 243.442 206.149 244.111C207.147 244.744 207.174 244.972 206.252 244.984C204.298 245.008 204.786 246.996 206.752 247.022C207.818 247.036 207.233 247.67 205.252 248.647C201.287 250.601 201.201 251.297 204.752 252.7L207.502 253.786L204.252 253.893C200.834 254.005 199.594 255.999 202.943 255.999C204.011 255.999 205.162 256.449 205.502 256.999C205.844 257.553 205.089 258.015 203.811 258.034L201.502 258.07L204.002 259.499L206.502 260.928L203.752 260.964C200.799 261.002 199.83 262.989 202.752 263.014C204.18 263.027 204.24 263.195 203.076 263.932C202.292 264.428 201.507 265.772 201.332 266.917C201.091 268.499 201.553 269.003 203.258 269.014C205.074 269.027 205.216 269.215 204.002 269.999C203.002 270.645 202.919 270.973 203.752 270.984C204.44 270.992 205.002 271.435 205.002 271.968C205.002 272.5 204.349 272.685 203.55 272.379C201.423 271.563 199.411 273.01 201.145 274.109C202.144 274.741 202.172 274.972 201.252 274.984C200.565 274.992 200.002 275.449 200.002 275.999C200.002 276.549 200.902 276.999 202.002 276.999C203.102 276.999 204.002 277.449 204.002 277.999C204.002 278.549 203.52 278.999 202.931 278.999C201.45 278.999 198.958 281.621 199.716 282.38C200.057 282.72 198.402 282.999 196.039 282.999H191.742L192.284 278.749C193.971 265.522 195.398 257.485 197.566 248.999C200.235 238.552 204.228 219.85 209.522 192.999C211.419 183.374 213.429 173.327 213.987 170.673C215.279 164.53 215.285 159.999 214.002 159.999C213.452 159.999 212.925 161.462 212.831 163.249C212.658 166.538 212.359 169.086 212.04 169.999C211.943 170.274 209.042 184.224 205.593 200.999C200.143 227.5 193.119 258.781 192.379 259.849C192.103 260.246 183.638 253.39 173.389 244.469C159.461 232.345 149.329 225.421 135.029 218.253C120.969 211.206 114.171 209.298 112.539 211.94C112.198 212.491 113.313 212.667 115.23 212.365C117.656 211.983 120.053 212.666 124.502 215.007C127.802 216.744 134.327 220.103 139.002 222.471C147.957 227.009 157.915 234.108 172.002 245.997C176.677 249.942 183.104 255.269 186.284 257.835L192.065 262.499L191.407 271.499C190.44 284.72 190.392 284.76 181.983 279.28C175.082 274.784 174.99 274.668 176.731 272.641C178.497 270.584 178.494 270.583 175.798 272.281C173.716 273.593 172.494 273.756 170.483 272.992C164.853 270.851 158.929 272.732 160.329 276.215C160.656 277.03 160.873 276.866 160.923 275.768C161.041 273.179 165.401 272.541 170.107 274.424C172.364 275.327 176.977 277.964 180.357 280.283C186.377 284.414 186.441 284.505 183.502 284.788C181.852 284.947 175.859 283.476 170.185 281.52C164.51 279.564 159.428 278.236 158.891 278.567C157.784 279.252 153.328 276.072 144.249 268.118C138.801 263.344 138.158 262.418 139.249 260.921C144.994 253.042 145.245 252.464 141.046 256.775L136.882 261.051L131.192 256.288C114.536 242.348 110.978 238.713 108.024 232.623C106.007 228.465 105.045 227.234 105.028 228.789C105.002 231.066 107.8 237.111 110.229 240.026C110.929 240.866 115.552 245.11 120.502 249.456C125.452 253.803 133.327 260.793 138.002 264.989C142.677 269.186 149.315 274.756 152.752 277.367C157.21 280.754 159.002 282.771 159.002 284.401C159.002 287.773 162.718 297.978 165.41 301.998C166.699 303.923 171.209 309.039 175.432 313.366C182.309 320.414 183.043 321.534 182.476 324.116C181.84 327.013 180.623 327.814 179.535 326.052C177.525 322.8 153.133 309.749 142.149 306.048C138.803 304.921 133.913 304.052 131.284 304.116L126.502 304.233L132.002 305.141C139.208 306.33 145.255 308.645 157.963 315.076C169.768 321.051 179.863 327.474 180.643 329.506C180.931 330.257 180.442 334.162 179.555 338.185C178.669 342.208 177.278 349.774 176.464 354.999C173.483 374.146 169.187 404.686 168.515 411.499C168.136 415.349 166.943 422.774 165.865 427.999C162.709 443.298 160.113 457.59 157.979 471.424C156.882 478.533 155.82 484.515 155.617 484.717C155.415 484.919 153.796 482.253 152.019 478.792C148.282 471.51 145.152 467.544 146.978 472.403C147.578 474 149.711 477.967 151.718 481.218L155.366 487.128L154.124 496.314C153.441 501.366 151.785 511.931 150.442 519.791C146.265 544.258 146.917 546.728 157.824 547.717C165.55 548.417 165.851 547.87 167.542 529.999C167.776 527.524 168.542 521.32 169.245 516.213L170.521 506.926L176.318 512.093C179.506 514.934 185.716 521.707 190.119 527.143C197.707 536.514 206.541 544.006 209.989 543.994C210.821 543.991 209.863 542.979 207.86 541.744C202.476 538.424 197.285 533.415 189.208 523.745C185.238 518.993 179.496 512.951 176.448 510.319L170.905 505.534L171.559 497.516C171.918 493.107 173.269 483.649 174.56 476.499C175.851 469.349 178.278 454.949 179.953 444.499C181.628 434.049 183.696 421.674 184.548 416.999C185.4 412.324 187.65 397.474 189.548 383.999C194.051 352.027 197.033 332.949 197.888 330.642C198.421 329.205 199.446 330.563 202.42 336.642C204.534 340.963 207.09 346.889 208.1 349.81C209.755 354.597 209.793 355.486 208.486 358.81C206.065 364.964 204.002 376.716 204.007 384.314C204.01 388.266 204.933 397.766 206.057 405.425C207.182 413.085 208.464 425.01 208.907 431.925L209.712 444.499L209.856 432.499C209.942 425.26 209.378 417.127 208.433 411.999C207.571 407.324 206.609 397.559 206.294 390.299C205.686 376.275 206.614 368.628 210.064 359.211C212.114 353.618 212.549 350.543 211.171 351.395C210.714 351.677 209.3 348.891 208.029 345.204C206.758 341.516 204.819 336.993 203.719 335.153C202.619 333.312 201.671 330.868 201.611 329.722C201.529 328.154 199.153 326.38 192.031 322.568C177.824 314.964 165.925 302.214 162.607 291.039C161.101 285.97 160.467 279.999 161.434 279.999C161.671 279.999 165.494 281.337 169.928 282.972C178.669 286.195 183.925 286.847 191.145 285.603C196.543 284.674 213.668 286.265 215.246 287.843C216.014 288.611 215.632 289.494 213.912 290.926C210.99 293.359 212.099 293.637 215.594 291.347C218.07 289.725 218.197 289.774 222.567 294.063L227.018 298.431L222.559 299.731C220.107 300.446 217.799 301.519 217.431 302.115C216.964 302.87 217.328 302.905 218.631 302.23C219.66 301.698 222.17 300.961 224.208 300.594C227.527 299.995 228.359 300.32 232.178 303.712L236.443 307.499L233.472 303.437C231.839 301.203 227.802 297.022 224.502 294.145C215.019 285.879 213.71 284.598 210.11 280.065L206.717 275.794L207.336 267.073C207.677 262.277 208.637 255.111 209.471 251.148C210.963 244.052 216.165 214.491 219.878 191.999C221.723 180.825 224.063 164.357 227.647 137.326C229.023 126.941 229.145 123.607 228.219 121.576C226.772 118.401 224.521 118.27 222.588 121.249ZM471.362 255.999C471.362 261.224 471.531 263.362 471.737 260.749C471.943 258.136 471.943 253.862 471.737 251.249C471.531 248.636 471.362 250.774 471.362 255.999ZM471.338 273.999C471.338 278.124 471.515 279.812 471.73 277.749C471.946 275.687 471.946 272.312 471.73 270.249C471.515 268.187 471.338 269.874 471.338 273.999ZM206.002 280.882C206.002 283.164 206.524 283.866 208.502 284.244C211.412 284.8 211.627 283.882 209.387 280.464C207.245 277.195 206.002 277.348 206.002 280.882ZM113.509 308.988C113.159 309.554 113.56 309.722 114.45 309.381C116.182 308.716 116.499 307.999 115.061 307.999C114.543 307.999 113.845 308.444 113.509 308.988ZM236.862 309.693C238.137 312.124 240.002 313.621 240.002 312.213C240.002 311.716 239.037 310.452 237.856 309.404C235.726 307.512 235.719 307.514 236.862 309.693ZM110.277 311.225C108.158 313.899 107.052 316.949 104.537 327.061C103.108 332.802 101.279 339.688 100.471 342.364C99.6629 345.039 99.0019 349.16 99.0019 351.522C99.0019 354.202 98.0179 357.712 96.3819 360.865C92.5589 368.233 93.5119 374.023 100.908 388.378C108.815 403.723 111.043 407.008 116.986 412.087C119.826 414.514 123.804 417.966 125.826 419.759L129.502 423.019L127.256 424.916C125.842 426.11 124.195 426.601 122.812 426.239C120.384 425.604 110.546 416.372 109.768 413.999C109.497 413.174 108.956 412.795 108.565 413.156C107.533 414.11 110.37 419.084 113.663 422.096C120.574 428.416 125.217 429.629 128.523 425.975C131.146 423.077 132.614 425.07 130.486 428.642L128.785 431.499L130.846 429.197L132.907 426.894L136.435 430.633C138.374 432.69 140.28 434.054 140.669 433.665C141.059 433.276 139.38 430.855 136.94 428.285L132.502 423.613L138.333 428.806C141.539 431.662 144.914 434.051 145.833 434.114C149.76 434.385 151.689 433.65 154.752 430.718C160.586 425.133 158.524 418.09 148.262 408.549C141.931 402.662 134.469 402.544 130.975 408.276C128.464 412.393 128.462 417.129 130.969 420.138C133.37 423.021 133.481 422.39 131.434 417.491C130.153 414.424 130.086 413.209 131.072 410.831C132.571 407.212 134.762 405.999 139.801 405.999C144.416 405.999 147.472 408.122 153.092 415.232C158.279 421.794 158.376 425.585 153.467 429.895C148.423 434.325 145.885 433.947 139.384 427.799C136.36 424.939 133.258 422.507 132.49 422.394C130.667 422.127 121.955 414.94 115.01 407.975C107.554 400.497 95.7709 377.27 95.7709 370.051C95.7709 365.895 98.1469 358.999 99.5789 358.999C99.8679 358.999 100.757 360.561 101.554 362.47C103.001 365.933 111.763 379.999 112.474 379.999C112.68 379.999 112.124 378.547 111.239 376.772C110.353 374.997 109.436 371.216 109.2 368.371C108.812 363.7 109.018 363.035 111.31 361.533C112.706 360.618 115.32 359.828 117.119 359.777C121.155 359.662 125.584 364.373 130.138 373.624C133.14 379.722 133.16 379.864 131.497 383.369C130.568 385.325 128.952 387.197 127.906 387.53C126.859 387.862 126.002 388.611 126.002 389.195C126.002 391.489 132.475 385.113 133.273 382.031C134.29 378.107 131.166 370.95 125.237 363.621C120.87 358.223 116.931 356.95 112.187 359.403C108.634 361.241 107.921 362.208 107.024 366.412L106.365 369.499L104.299 365.499C103.163 363.299 101.719 359.007 101.091 355.962C100.072 351.021 100.225 349.35 102.511 340.462C103.921 334.982 105.958 327.91 107.038 324.745C108.118 321.58 109.005 318.43 109.008 317.745C109.012 317.06 109.695 315.195 110.526 313.6C112.127 310.531 111.975 309.083 110.277 311.225ZM240.002 314.371C240.002 315.588 253.783 332.978 256.608 335.325C269.303 345.872 282.865 378.742 287.003 408.997C287.642 413.671 288.354 417.684 288.584 417.914C289.53 418.86 288.873 411.815 287.007 400.999C281.91 371.465 272.212 349.152 258.104 334.499C253.868 330.099 248.221 323.687 245.555 320.249C241.108 314.517 240.002 313.345 240.002 314.371ZM183.658 327.249C183.318 330.136 182.171 335.874 181.111 339.999C180.05 344.124 178.653 351.549 178.005 356.499C177.357 361.449 176.671 366.624 176.481 367.999C176.29 369.374 174.978 379.274 173.565 389.999C169.606 420.053 168.034 429.528 161.953 459.999C160.91 465.224 159.364 474.899 158.517 481.499C157.67 488.099 156.532 495.974 155.987 498.999C153.054 515.305 150.613 531.189 150.234 536.44C149.882 541.315 150.126 542.617 151.595 543.69C154.072 545.502 156.076 545.355 155.332 543.417C154.813 542.063 155.431 541.917 159.614 542.403C163.994 542.912 164.16 542.864 161.216 541.947C157.272 540.718 157.879 539.034 162.311 538.909L165.502 538.819L162.252 537.88C158.91 536.915 157.785 534.999 160.561 534.999C161.418 534.999 161.842 534.549 161.502 533.999C161.162 533.449 161.837 532.999 163.002 532.999C164.167 532.999 164.842 532.549 164.502 531.999C164.162 531.449 163.011 530.999 161.943 530.999C158.606 530.999 159.827 529.006 163.252 528.863C165.977 528.749 166.098 528.654 164.002 528.278C159.862 527.535 159.246 526.007 163.052 525.92C166.634 525.838 166.398 525.592 161.752 524.567C157.334 523.593 158.39 521.654 163.002 522.272C165.202 522.567 167.002 522.43 167.002 521.967C167.002 521.504 165.539 520.985 163.752 520.812C161.965 520.64 160.626 520.055 160.777 519.512C160.928 518.97 162.39 518.666 164.027 518.838C167.627 519.215 168.009 517.29 164.509 516.411C161.471 515.649 162.19 513.999 165.561 513.999C168.765 513.999 168.699 512.391 165.461 511.578C162.395 510.809 163.249 508.704 166.336 509.421C167.629 509.721 167.393 509.458 165.752 508.768C162.07 507.221 162.279 506.022 166.252 505.896L169.502 505.792L165.752 504.796C163.69 504.249 162.002 503.395 162.002 502.9C162.002 501.575 166.406 501.803 167.802 503.199C168.735 504.132 169.002 504.039 169.002 502.778C169.002 501.791 167.83 500.901 166.002 500.499C161.798 499.576 162.206 497.687 166.502 498.189C168.427 498.414 170.002 498.238 170.002 497.798C170.002 497.359 168.904 496.999 167.561 496.999C166.218 496.999 164.842 496.549 164.502 495.999C164.14 495.414 165.178 494.999 167.002 494.999C168.826 494.999 169.864 494.584 169.502 493.999C169.162 493.449 168.011 492.999 166.943 492.999C163.583 492.999 164.84 491.003 168.252 490.92L171.502 490.841L168.752 489.837C165.316 488.582 165.125 486.598 168.502 487.244C169.877 487.507 171.002 487.334 171.002 486.86C171.002 486.387 170.638 485.999 170.193 485.999C169.748 485.999 168.511 485.294 167.443 484.433C165.58 482.931 165.612 482.885 168.252 483.295C169.764 483.53 171.002 483.548 171.002 483.336C171.002 483.123 169.764 482.447 168.252 481.834L165.502 480.718L168.002 479.958C170.391 479.232 170.402 479.194 168.252 479.099C167.014 479.044 166.002 478.498 166.002 477.886C166.002 477.214 167.209 476.949 169.046 477.219C173.06 477.808 173.878 476.35 170.011 475.501C165.865 474.59 166.092 472.579 170.252 473.356C173.168 473.901 173.316 473.822 171.699 472.582C170.349 471.548 170.223 471.07 171.199 470.679C172.041 470.342 171.882 470.129 170.752 470.078C168.003 469.954 168.708 467.999 171.502 467.999C172.877 467.999 174.002 467.549 174.002 466.999C174.002 466.449 172.877 465.999 171.502 465.999C170.127 465.999 169.002 465.549 169.002 464.999C169.002 464.449 169.929 463.999 171.061 463.999C172.193 463.999 172.842 463.549 172.502 462.999C172.162 462.449 172.618 461.999 173.514 461.999C174.964 461.999 174.978 461.832 173.645 460.499C172.82 459.674 171.615 458.999 170.966 458.999C170.303 458.999 170.053 458.308 170.395 457.417C170.729 456.547 171.002 455.422 171.002 454.917C171.002 454.412 172.014 453.947 173.252 453.883C174.945 453.796 175.069 453.654 173.752 453.31C171.251 452.656 171.588 451.02 174.252 450.883C175.945 450.796 176.069 450.654 174.752 450.31C172.625 449.754 172.52 448.644 174.443 447.048C175.235 446.391 175.637 445.211 175.336 444.426C174.987 443.517 175.462 442.974 176.645 442.929C178.395 442.862 178.391 442.815 176.568 442.101C175.115 441.532 174.955 441.146 175.925 440.547C176.964 439.904 176.968 439.596 175.947 438.965C174.939 438.342 174.972 437.886 176.108 436.75C176.894 435.964 178.205 435.059 179.02 434.739C179.886 434.399 179.359 434.124 177.752 434.078C176.24 434.035 175.002 433.586 175.002 433.081C175.002 432.576 174.729 431.451 174.395 430.581C173.934 429.379 174.474 428.971 176.645 428.883C178.334 428.814 178.787 428.58 177.752 428.31C175.04 427.601 175.688 426.015 178.752 425.863C181.11 425.746 181.181 425.665 179.252 425.293C178.014 425.055 177.002 424.441 177.002 423.929C177.002 423.418 178.014 422.963 179.252 422.92C180.49 422.877 180.94 422.614 180.252 422.337C178.4 421.589 178.737 420.001 180.752 419.984C182.22 419.971 182.265 419.818 181.031 419.038C180.222 418.526 179.88 417.787 180.272 417.395C180.664 417.004 180.483 416.079 179.871 415.341C179.002 414.294 179.2 413.999 180.773 413.999C182.769 413.999 184.418 411.749 183.266 410.597C182.938 410.268 181.844 409.999 180.835 409.999C178.501 409.999 178.44 408.293 180.752 407.688C181.853 407.401 181.504 407.188 179.811 407.115C176.228 406.961 175.301 405.212 178.188 404.054C179.461 403.543 179.913 403.097 179.193 403.062C178.473 403.028 178.178 402.523 178.538 401.94C178.913 401.333 180.431 401.154 182.097 401.52C183.904 401.917 185.002 401.75 185.002 401.078C185.002 400.485 183.904 399.999 182.561 399.999C179.948 399.999 177.863 397.879 179.831 397.223C180.482 397.006 180.76 396.417 180.449 395.914C180.138 395.411 180.923 394.992 182.193 394.984C183.557 394.975 184.031 394.668 183.352 394.234C182.719 393.83 182.044 392.599 181.852 391.499C181.57 389.885 181.984 389.553 184.002 389.78C186.137 390.019 186.283 389.873 185.002 388.78C184.177 388.075 182.828 386.644 182.005 385.599C180.59 383.803 180.686 383.726 183.755 384.176C187.722 384.758 187.982 383.773 184.252 382.298L181.502 381.212L185.002 381.042C188.406 380.877 188.433 380.843 186.002 379.822C184.45 379.169 183.992 378.588 184.794 378.288C185.786 377.917 185.815 377.479 184.921 376.402C184.117 375.433 184.095 374.999 184.848 374.999C185.454 374.999 185.656 374.261 185.302 373.338C184.796 372.021 185.113 371.795 186.833 372.245C188.026 372.557 189.002 372.404 189.002 371.905C189.002 371.407 188.343 370.999 187.537 370.999C186.21 370.999 184.002 368.152 184.002 366.44C184.002 366.06 185.465 365.999 187.252 366.304L190.502 366.859L187.002 365.301C184.098 364.009 183.813 363.631 185.326 363.082C186.329 362.719 187.229 361.988 187.326 361.46C187.423 360.931 188.289 360.535 189.252 360.578C190.215 360.622 191.002 360.06 191.002 359.328C191.002 358.597 190.102 357.999 189.002 357.999C187.902 357.999 187.002 357.549 187.002 356.999C187.002 356.449 188.014 355.985 189.252 355.969C191.444 355.939 191.45 355.908 189.502 354.771C187.566 353.64 187.582 353.58 190.002 352.901C192.3 352.255 192.325 352.19 190.311 352.099C186.989 351.948 186.45 350.017 189.693 349.883C191.775 349.797 191.985 349.643 190.502 349.286C186.853 348.408 186.458 346.999 189.861 346.999C191.779 346.999 192.866 346.588 192.502 345.999C192.162 345.449 190.984 344.999 189.884 344.999C188.784 344.999 188.163 344.547 188.504 343.995C188.845 343.443 190.334 343.221 191.813 343.501C194.109 343.935 193.991 343.762 191.002 342.314L187.502 340.618L191.002 339.94C192.927 339.567 193.741 339.203 192.811 339.131C189.142 338.845 189.639 334.084 193.359 333.883C195.049 333.791 195.132 333.67 193.752 333.31C191.864 332.816 191.32 330.999 193.061 330.999C193.643 330.999 193.842 330.549 193.502 329.999C193.162 329.449 193.586 328.999 194.443 328.999C195.3 328.999 196.002 328.549 196.002 327.999C196.002 327.449 195.189 326.999 194.196 326.999C193.203 326.999 190.866 325.874 189.002 324.499C187.138 323.124 185.313 321.999 184.945 321.999C184.578 321.999 183.999 324.362 183.658 327.249ZM141.552 334.174C141.167 337.653 139.825 342.488 138.57 344.92L136.287 349.341L133.523 344.625C129.389 337.571 129.359 339.772 133.478 347.951C135.46 351.887 137.798 358.346 138.674 362.303C139.549 366.261 140.685 370.174 141.197 370.999C142.137 372.514 141.861 370.539 140.393 365.249C140.024 363.92 140.21 362.999 140.848 362.999C142.861 362.999 152.814 367.068 153.848 368.313C154.947 369.637 153.907 373.741 149.294 386.287C146.6 393.614 146.87 393.529 141.42 388.78C139.393 387.014 139.31 387.028 138.259 389.334C137.666 390.636 135.228 392.668 132.841 393.85C129.27 395.617 128.936 395.998 130.954 395.998C132.348 395.999 134.8 394.649 136.632 392.873L139.858 389.747L143.18 391.839C151.15 396.857 159.938 408.575 162.613 417.749C164.296 423.521 165.574 424.908 164.457 419.749C163.248 414.173 157.05 402.964 152.462 398.06L148.07 393.364L151.002 385.932C152.614 381.844 153.949 377.891 153.968 377.149C154.046 374.065 166.297 350.39 170.771 344.675C176.025 337.964 177.362 335.999 176.674 335.999C175.477 335.999 164.912 350.166 162.504 354.999C158.296 363.447 158.508 363.342 152.658 359.887C149.822 358.212 145.139 355.72 142.252 354.347C139.365 352.975 137.002 351.628 137.002 351.354C137.002 351.08 138.141 348.912 139.533 346.537C142.45 341.559 144.795 330.392 143.247 328.844C142.586 328.183 142.016 329.973 141.552 334.174ZM139.002 356.371C139.002 359.226 141.37 361.994 143.823 362.009C144.747 362.014 147.909 363.139 150.851 364.509C157.222 367.474 157.008 367.449 156.978 365.249C156.964 364.146 155.208 362.698 152.228 361.332C149.629 360.14 145.59 357.977 143.252 356.525L139.002 353.886V356.371ZM117.887 371.549C117.824 372.071 117.842 373.231 117.929 374.126C118.015 375.021 117.364 376.03 116.481 376.369C115.598 376.708 115.16 377.445 115.508 378.008C115.856 378.571 116.562 378.771 117.078 378.452C117.594 378.133 118.286 378.576 118.616 379.436C119.358 381.37 121.002 381.494 121.002 379.616C121.002 378.855 121.882 378.002 122.958 377.721C124.682 377.27 124.771 376.902 123.708 374.604C123.045 373.171 121.994 372.188 121.374 372.42C120.753 372.653 119.741 372.338 119.124 371.721C118.507 371.104 117.95 371.027 117.887 371.549ZM200.521 382.749C199.884 388.615 198.401 396.623 195.476 409.999C193.7 418.12 194.196 435.383 196.241 436.647C196.946 437.083 197.046 436.341 196.542 434.398C194.916 428.125 195.91 413.654 198.566 404.934C200.181 399.634 201.351 392.875 201.714 386.749C202.342 376.164 201.532 373.447 200.521 382.749ZM91.5969 385.498C81.5239 394.834 85.8799 413.026 100.56 422.934C105.458 426.239 109.002 428.251 109.002 427.727C109.002 427.539 106.071 425.232 102.488 422.602C87.0239 411.248 83.3159 395.958 93.5459 385.728C96.9659 382.308 95.2569 382.106 91.5969 385.498ZM118.631 390.463C119.283 392.143 125.806 396.231 127.129 395.79C127.799 395.567 126.912 394.79 125.158 394.064C122.296 392.878 122.144 392.616 123.668 391.502C125.154 390.415 124.921 390.208 121.797 389.844C119.591 389.586 118.383 389.823 118.631 390.463ZM181.815 404.682C182.536 404.971 183.399 404.935 183.731 404.603C184.063 404.271 183.473 404.035 182.419 404.078C181.254 404.126 181.017 404.363 181.815 404.682ZM179.815 412.682C180.536 412.971 181.399 412.935 181.731 412.603C182.063 412.271 181.473 412.035 180.419 412.078C179.254 412.126 179.017 412.363 179.815 412.682ZM140.657 415.828C137.167 419.684 139.555 425.999 144.502 425.999C147.132 425.999 150.002 423.614 150.002 421.428C150.002 419.57 148.575 419.604 147.002 421.499C145.454 423.364 143.594 423.418 142.119 421.64C141.258 420.603 141.466 419.679 142.997 417.733C144.1 416.331 145.002 414.917 145.002 414.591C145.002 413.308 142.222 414.099 140.657 415.828ZM289.197 422.499C289.217 424.149 289.441 424.703 289.695 423.73C289.949 422.757 289.932 421.407 289.658 420.73C289.384 420.053 289.177 420.849 289.197 422.499ZM289.401 429.165C289.665 430.449 290.145 433.974 290.468 436.999C291.428 445.983 293.966 457.95 296.778 466.751L299.415 475.002L295.072 479.427C292.684 481.861 288.203 485.224 285.116 486.899C280.453 489.429 279.943 489.95 282.102 489.972C285.272 490.005 291.375 485.718 296.224 480.053L299.827 475.843L304.436 484.671C309.452 494.28 311.689 497.645 312.513 496.822C312.805 496.529 311.182 493.502 308.907 490.094C306.631 486.687 305.03 483.638 305.348 483.319C305.667 483.001 312.357 489.257 320.215 497.223C328.073 505.188 336.391 513.141 338.701 514.896L342.9 518.086L340.431 522.729C337.237 528.735 337.389 528.636 334.758 526.417L332.502 524.513L334.761 527.08C337.695 530.414 336.415 531.688 333.076 528.758L330.502 526.499L332.752 529.063C336.007 532.774 335.725 534.694 332.252 532.459C329.529 530.707 329.519 530.709 331.252 532.673C333.154 534.829 333.56 536.999 332.061 536.999C331.543 536.999 330.843 536.551 330.505 536.004C330.167 535.457 328.903 534.499 327.696 533.875C325.82 532.904 325.904 533.168 328.273 535.696C331.041 538.649 331.042 538.653 329.023 540.48C327.213 542.118 326.819 542.152 325.252 540.806C322.048 538.055 320.471 537.642 322.752 540.152C323.99 541.514 325.002 542.936 325.002 543.313C325.002 544.562 322.688 544.024 320.831 542.344C319.683 541.306 319.002 541.131 319.002 541.875C319.002 542.528 319.677 543.321 320.502 543.637C322.706 544.483 322.332 546.319 320.077 545.729C318.897 545.42 318.316 545.665 318.577 546.362C318.811 546.987 317.852 548.031 316.445 548.682C314.362 549.645 313.786 549.599 313.338 548.432C313.035 547.644 312.331 546.999 311.773 546.999C311.209 546.999 311.339 547.701 312.065 548.575C313.149 549.882 313.128 550.307 311.938 551.06C310.045 552.257 308.266 552.235 307.505 551.004C307.167 550.457 305.903 549.496 304.696 548.869C302.604 547.781 302.615 547.85 304.923 550.359C307.277 552.919 307.149 555.546 304.785 553.182C303.113 551.51 301.514 551.706 302.928 553.41C305.039 555.954 302.358 556.006 299.973 553.468C298.697 552.11 297.198 550.999 296.641 550.999C296.084 550.999 296.837 552.261 298.315 553.804C299.793 555.346 301.002 556.921 301.002 557.304C301.002 558.649 298.209 557.981 297.64 556.499C297.324 555.674 296.531 554.999 295.878 554.999C295.134 554.999 295.309 555.68 296.347 556.828C299.446 560.252 297.281 561.364 293.581 558.249C291.533 556.525 291.528 556.53 293.252 558.578C295.412 561.143 295.459 561.999 293.443 561.999C292.586 561.999 292.162 562.449 292.502 562.999C292.842 563.549 292.445 563.999 291.62 563.999C290.795 563.999 289.842 563.549 289.502 562.999C289.162 562.449 288.391 561.999 287.788 561.999C287.185 561.999 287.509 562.902 288.508 564.005C290.665 566.389 289.776 567.886 287.382 565.899C285.897 564.667 285.787 564.746 286.38 566.616C286.807 567.96 286.492 569.177 285.506 569.996C284.231 571.054 283.596 570.948 281.838 569.387C279.727 567.513 279.72 567.516 280.898 569.761C281.94 571.746 281.743 572.319 279.294 574.432C276.665 576.7 276.391 576.743 274.606 575.17C272.788 573.567 272.761 573.594 273.938 575.835C275.681 579.155 274.43 579.75 271.498 576.995C270.125 575.706 269.002 575.193 269.002 575.856C269.002 576.519 269.677 577.321 270.502 577.637C271.327 577.954 272.002 578.792 272.002 579.499C272.002 581.278 269.02 582.259 267.484 580.984C266.53 580.193 265.943 580.728 265.093 583.168L263.966 586.401L258.234 580.843C255.081 577.787 248.902 572.581 244.502 569.276C240.102 565.97 233.285 560.28 229.353 556.632C225.421 552.984 221.832 549.999 221.377 549.999C220.123 549.999 235.977 565.697 240.176 568.614L243.85 571.166L239.926 577.238C232.927 588.067 234.309 592.41 248.337 603.655C257.256 610.804 258.032 611.659 264.567 621.518C267.49 625.929 270.921 630.499 272.192 631.673C276.107 635.293 287.498 640.999 290.809 640.999C293.996 640.999 304.185 636.481 311.543 631.805C320.809 625.917 340.056 606.248 348.64 593.894C356.324 582.836 361.125 577.816 371.305 570.198C387.368 558.177 400.002 542.66 400.002 534.953C400.002 530.774 394.677 524.478 386.304 518.759C376.802 512.267 370.876 507.005 365.745 500.499C363.576 497.749 359.525 493.1 356.743 490.167C352.004 485.171 351.462 484.878 348.128 485.503C342.688 486.524 339.088 488.75 332.23 495.336L325.948 501.368L313.6 488.893L301.251 476.419L298.706 467.959C296.081 459.232 292.558 442.487 291.398 433.227C291.035 430.327 290.33 427.702 289.83 427.393C289.331 427.084 289.138 427.882 289.401 429.165ZM111.471 429.555C114.05 431.5 120.583 433.23 123.329 432.695C125.105 432.349 125.002 432.246 122.763 432.135C121.256 432.06 117.656 431.115 114.763 430.034C111.101 428.666 110.1 428.521 111.471 429.555ZM155.502 434.999C153.852 436.092 151.715 436.989 150.752 436.992C149.789 436.996 149.002 437.449 149.002 437.999C149.002 438.549 149.241 438.999 149.534 438.999C151.094 438.999 156.688 436.085 157.874 434.654C159.659 432.502 159.163 432.575 155.502 434.999ZM142.002 434.604C142.002 435.43 145.196 437.923 146.311 437.967C146.756 437.985 146.843 437.551 146.505 437.004C145.701 435.703 142.002 433.731 142.002 434.604ZM125.191 437.516C125.362 438.076 127.505 442.246 129.953 446.783C134.612 455.417 139.452 461.999 141.142 461.999C141.689 461.999 140.599 460.086 138.721 457.749C136.843 455.412 134.021 450.917 132.451 447.761C129.926 442.686 124.379 434.858 125.191 437.516ZM156.641 440.643C151.504 444.003 144.549 451.04 142.558 454.891C140.329 459.2 140.99 458.787 145.241 453.212C147.249 450.579 151.617 446.451 154.947 444.039C158.277 441.626 161.002 439.28 161.002 438.826C161.002 437.757 161.139 437.7 156.641 440.643ZM196.16 441.999C196.16 443.374 196.387 443.937 196.664 443.249C196.942 442.562 196.942 441.437 196.664 440.749C196.387 440.062 196.16 440.624 196.16 441.999ZM337.002 519.499C337.687 520.324 338.697 520.999 339.247 520.999C339.805 520.999 339.696 520.336 339.002 519.499C338.317 518.674 337.307 517.999 336.757 517.999C336.199 517.999 336.308 518.662 337.002 519.499ZM227.443 529.091C224.199 534.089 219.849 539.712 217.774 541.586C213.929 545.06 213.314 545.999 214.887 545.999C216.845 545.999 224.427 537.015 229.121 529.133C231.861 524.531 233.931 520.595 233.721 520.385C233.511 520.175 230.686 524.092 227.443 529.091ZM335.463 522.956C337.641 525.363 338.14 525.523 337.393 523.576C337.093 522.794 336.12 521.874 335.231 521.533C333.903 521.024 333.944 521.278 335.463 522.956ZM325.228 537.578C326.178 538.569 327.17 539.165 327.433 538.902C327.696 538.639 326.919 537.828 325.707 537.099C323.6 535.834 323.579 535.856 325.228 537.578ZM157.752 545.661C158.44 545.939 159.565 545.939 160.252 545.661C160.94 545.384 160.377 545.157 159.002 545.157C157.627 545.157 157.065 545.384 157.752 545.661ZM313.002 545.408C313.002 545.598 313.677 546.314 314.502 546.999C315.367 547.717 316.002 547.814 316.002 547.228C316.002 546.67 315.327 545.954 314.502 545.637C313.677 545.321 313.002 545.218 313.002 545.408ZM277.508 571.005C278.506 572.109 279.54 572.794 279.805 572.529C280.477 571.857 277.983 568.999 276.725 568.999C276.157 568.999 276.509 569.902 277.508 571.005ZM451.502 606.709C431.979 608.115 411.518 613.666 394.66 622.129C373.26 632.872 353.708 652.822 342.821 675.02C333.508 694.009 330.412 701.885 327.891 712.999C325.826 722.102 324.344 744.752 325.689 746.641C326.281 747.473 345.783 747.88 397.502 748.141L468.502 748.499V677.499V606.499L462.002 606.46C458.427 606.438 453.702 606.55 451.502 606.709ZM3.66886 607.666C3.30186 608.032 3.00186 639.064 3.00186 676.625V744.917L22.7519 745.208C33.6139 745.368 64.7769 745.628 92.0019 745.786C119.227 745.943 143.26 746.35 145.409 746.689L149.316 747.305L148.622 736.567C147.697 722.264 145.651 711.957 140.867 697.499C136.318 683.755 131.175 674.286 120.673 660.322C108.711 644.416 96.5709 634.479 76.0019 623.757C59.7999 615.311 44.5419 610.976 22.1709 608.462C7.84886 606.852 4.62086 606.713 3.66886 607.666ZM20.1759 632.313C18.9799 633.586 18.0019 635.767 18.0019 637.158C18.0019 639.666 20.6879 642.999 22.7089 642.999C23.6799 642.999 32.0019 653.034 32.0019 654.205C32.0019 654.492 30.2159 655.965 28.0329 657.477C23.6189 660.537 22.2239 663.356 24.0419 665.547C25.9199 667.81 28.8659 667.275 33.1329 663.895L37.0509 660.792L39.2679 663.645C40.4869 665.215 43.0799 668.299 45.0289 670.499C46.9779 672.699 51.2339 678.099 54.4869 682.499C57.7399 686.899 64.0239 695.023 68.4519 700.553C72.8789 706.083 79.4219 714.295 82.9899 718.802C89.0529 726.459 93.6089 729.999 97.4029 729.999C98.5849 729.999 99.0019 729.018 99.0019 726.237C99.0019 723.048 97.7339 720.843 90.6719 711.748C86.0909 705.848 80.8039 699.326 78.9219 697.255C74.7349 692.646 66.5909 682.473 57.5029 670.499C53.7459 665.549 49.3539 659.973 47.7429 658.107L44.8139 654.715L48.9079 650.972C53.2939 646.963 53.6749 646.072 51.8019 644.199C49.8919 642.289 46.9629 642.791 43.1789 645.678L39.6669 648.356L35.3839 643.428C33.0289 640.717 30.8189 637.374 30.4739 635.999C28.9719 630.019 24.0029 628.24 20.1759 632.313ZM443.549 637.299C431.97 646.671 426.072 654.829 426.024 661.537C426.012 663.208 424.99 666.575 423.752 669.019C421.976 672.526 420.142 674.225 415.052 677.077C410.494 679.631 407.649 682.101 405.354 685.5C403.567 688.144 400.555 691.926 398.66 693.904C396.765 695.881 394.273 699.381 393.122 701.681C391.972 703.981 390.645 706.101 390.175 706.392C388.818 707.231 391.083 695.673 392.619 693.92C393.38 693.052 394.002 691.563 394.002 690.611C394.002 689.66 394.439 689.151 394.974 689.482C395.509 689.812 397.291 687.926 398.934 685.291C403.009 678.757 400.788 678.343 395.204 684.596C388.637 691.948 388.062 693.087 387.39 700.068C386.575 708.535 381.02 718.93 371.857 729.131C368.087 733.329 365.002 737.251 365.002 737.846C365.002 738.442 365.956 739.439 367.121 740.063C369.008 741.073 369.805 740.594 374.371 735.704C377.796 732.037 380.758 729.868 383.281 729.178C385.939 728.451 389.243 725.911 394.414 720.621C398.459 716.484 401.541 712.871 401.263 712.594C400.187 711.518 390.993 717.144 388.512 720.398C385.868 723.863 383.002 725.731 383.002 723.988C383.002 723.466 385.607 720.165 388.79 716.652C391.974 713.139 395.407 708.427 396.42 706.181C398.48 701.612 403.239 698.78 411.002 697.503C417.409 696.449 420.169 694.771 425.009 688.991C427.351 686.193 430.952 683.045 433.012 681.994C436.574 680.177 439.071 676.999 436.937 676.999C434.45 676.999 425.839 682.302 423.78 685.102C421.284 688.495 415.288 691.999 411.976 691.999C410.818 691.999 409 692.465 407.936 693.034C402.184 696.113 410.43 685.049 416.356 681.736C423.955 677.489 434.278 669.745 438.502 665.121C440.702 662.713 445.089 658.103 448.252 654.877C453.192 649.839 455.432 645.999 453.432 645.999C451.599 645.999 443.326 652.9 440.711 656.61C438.057 660.375 430.309 666.78 429.566 665.824C429.427 665.645 430.128 662.793 431.124 659.486C432.623 654.506 434.316 651.967 440.968 644.72C448.343 636.686 450.234 633.916 448.252 634.049C447.839 634.077 445.723 635.539 443.549 637.299ZM206.925 700.922C203.376 704.471 203.184 707.937 206.333 711.597C208.21 713.78 209.741 714.396 214.21 714.766C218.976 715.162 220.967 714.707 228.342 711.539L236.927 707.852L241.543 711.027C244.997 713.404 247.634 714.337 252.024 714.735C257.554 715.236 258.062 715.092 260.945 712.21C264.499 708.656 264.846 705.282 261.974 702.2C259.335 699.367 255.649 698.497 251.685 699.772C248.543 700.782 248.563 700.796 253.252 700.897C258.218 701.004 262.002 703.446 262.002 706.544C262.002 709.644 257.34 712.999 253.032 712.999C249.236 712.999 237.996 707.878 238.006 706.154C238.008 705.794 240.124 704.629 242.708 703.566C245.292 702.503 246.862 701.452 246.197 701.231C245.532 701.009 242.895 701.84 240.338 703.078L235.689 705.329L231.095 702.777C226.355 700.143 218.18 697.999 212.876 697.999C210.863 697.999 208.869 698.979 206.925 700.922ZM208.129 701.872C205.456 704.545 205.403 708.4 208.002 710.999C209.514 712.511 211.335 712.999 215.464 712.999C221.05 712.999 230.964 709.954 232.875 707.652C234.54 705.646 223.882 700.863 216.379 700.248C211.075 699.813 209.971 700.03 208.129 701.872ZM129.002 764.61V768.221L130.84 765.951C133.644 762.488 135.002 764.302 135.002 771.508C135.002 776.54 134.63 778.116 133.252 778.919C131.214 780.106 131.252 780.124 136.502 780.475C141.318 780.797 142.647 780.206 140.603 778.653C139.574 777.872 139.017 775.469 138.877 771.214C138.633 763.759 140.095 761.395 142.326 765.639L143.83 768.499L144.51 765.806C144.884 764.325 144.896 762.637 144.537 762.056C144.173 761.467 140.592 760.999 136.443 760.999H129.002V764.61ZM148.002 761.914C148.002 762.393 148.677 763.044 149.502 763.361C150.637 763.796 151.002 765.632 151.002 770.9C151.002 777.003 150.753 777.943 148.987 778.504C145.849 779.5 147.695 780.999 152.061 780.999C156.364 780.999 156.517 780.83 154.917 777.84C154.32 776.725 154.111 774.702 154.451 773.345C154.973 771.268 155.579 770.927 158.286 771.188C162.124 771.559 163.089 774.691 160.556 778.557C158.969 780.979 158.983 780.999 162.312 780.999C166.623 780.999 167.107 780.429 165.471 777.277C164.069 774.574 164.501 765.492 166.131 763.407C167.333 761.87 166.142 760.999 162.835 760.999C159.853 760.999 159.281 761.878 161.087 763.684C161.683 764.28 162.021 765.833 161.837 767.134C161.208 771.575 154.002 770.39 154.002 765.845C154.002 764.795 154.677 763.677 155.502 763.361C158.264 762.301 157.042 761.436 152.502 761.238C150.027 761.13 148.002 761.434 148.002 761.914ZM170.002 761.898C170.002 762.386 170.677 763.044 171.502 763.361C173.841 764.258 173.628 777.535 171.252 778.919C169.181 780.125 168.94 780.086 178.72 780.149C186.201 780.197 186.46 780.119 187.132 777.604C188.09 774.023 186.734 773.572 184.104 776.596C180.798 780.399 177.588 779.541 177.192 774.749C176.9 771.225 178.123 769.768 179.502 771.999C180.824 774.138 182.001 772.828 181.972 769.249C181.947 766.216 181.746 765.834 180.922 767.249C179.263 770.096 176.818 769.442 177.186 766.249C177.651 762.206 181.685 761.888 184.764 765.651L187.094 768.499L186.798 764.999L186.502 761.499L178.252 761.255C173.715 761.12 170.002 761.41 170.002 761.898ZM200.002 761.758C200.002 762.176 200.955 763.113 202.119 763.84C203.967 764.994 204.178 765.866 203.776 770.708C203.421 774.992 202.795 776.647 201.023 777.983C198.375 779.98 199.628 781.382 203.25 780.473C205.463 779.917 205.567 779.53 205.171 773.306C204.661 765.307 206.282 765.423 208.093 773.516C209.448 779.568 210.463 780.431 211.307 776.249C211.612 774.736 212.195 772.638 212.602 771.585C213.094 770.312 212.977 769.896 212.253 770.344C211.597 770.75 210.681 769.521 209.952 767.258C209.286 765.191 208.295 762.937 207.749 762.249C206.688 760.912 200.002 760.488 200.002 761.758ZM214.649 762.749C214.38 763.711 213.871 765.509 213.516 766.743C213.009 768.507 213.206 768.858 214.437 768.386C215.726 767.891 216.002 768.65 216.002 772.692C216.002 775.391 215.462 778.139 214.802 778.799C213.869 779.732 214.58 779.999 218.002 779.999C221.424 779.999 222.135 779.732 221.202 778.799C219.743 777.34 219.574 764.382 221.002 763.499C223.07 762.221 221.882 760.999 218.569 760.999C216.153 760.999 214.992 761.517 214.649 762.749ZM234.198 762.749C233.717 763.711 232.289 767.329 231.026 770.788C229.763 774.247 227.805 777.724 226.676 778.515C223.804 780.527 225.135 781.321 230 780.499C233.826 779.853 234.018 779.674 232.581 778.086C230.78 776.097 232.141 773.999 235.233 773.999C237.761 773.999 238.726 776.996 236.68 778.492C234.297 780.235 235.435 780.772 240.681 780.379C245.987 779.982 247.392 779.175 244.224 778.347C242.589 777.919 241.617 776.345 240.391 772.136C237.024 760.573 236.035 759.074 234.198 762.749ZM249.078 763.418C245.853 766.851 245.059 774.3 247.617 777.126C250.422 780.226 254.367 782.012 256.061 780.949C256.854 780.452 258.247 780.276 259.158 780.559C260.446 780.96 260.965 780.178 261.496 777.036C261.871 774.816 262.588 772.999 263.09 772.999C263.592 772.999 264.002 772.549 264.002 771.999C264.002 771.449 262.47 770.999 260.597 770.999H257.192L257.739 775.073L258.285 779.147L254.894 778.823C251.905 778.538 251.393 778.057 250.584 774.782C249.219 769.259 251.292 762.999 254.485 762.999C255.824 762.999 257.568 763.969 258.422 765.189C260.042 767.501 260.676 767.455 261.025 764.999C261.461 761.94 260.887 761.493 256.189 761.231C252.182 761.007 251.002 761.37 249.078 763.418ZM265.002 761.916C265.002 762.42 265.474 762.99 266.05 763.182C266.627 763.374 267.363 766.097 267.687 769.232C268.138 773.604 267.888 775.524 266.615 777.466L264.956 779.999H269.179C272.464 779.999 273.135 779.732 272.202 778.799C270.359 776.956 270.609 764.087 272.502 763.361C275.469 762.222 273.915 760.999 269.502 760.999C267.027 760.999 265.002 761.412 265.002 761.916ZM278.369 762.771C275.122 765.401 273.787 768.727 274.541 772.308C275.376 776.273 279.688 781.006 282.439 780.977C284.409 780.956 284.395 780.872 282.119 779.122C278.859 776.615 277.878 767.898 280.527 764.971C281.509 763.887 282.944 762.999 283.716 762.999C284.488 762.999 284.842 762.549 284.502 761.999C283.566 760.485 280.755 760.839 278.369 762.771ZM292.002 761.57C292.002 761.885 292.677 762.817 293.502 763.642C295.636 765.776 295.53 775.759 293.347 778.17C291.768 779.915 291.891 779.999 296.047 779.999C299.434 779.999 300.135 779.732 299.202 778.799C297.421 777.018 297.649 765.494 299.502 763.642C301.788 761.356 301.382 760.999 296.502 760.999C294.027 760.999 292.002 761.256 292.002 761.57ZM309.871 768.249C308.576 772.236 306.473 776.559 305.198 777.855C302.267 780.835 302.834 781.372 307.992 780.501C311.674 779.879 311.927 779.665 310.347 778.51C308.849 777.414 308.782 776.969 309.912 775.607C310.646 774.723 312.106 773.999 313.156 773.999C315.883 773.999 316.732 776.992 314.473 778.644C312.431 780.137 312.585 780.191 318.835 780.176C323.746 780.165 325.508 779.206 322.205 778.342C320.444 777.881 319.474 776.058 317.438 769.381C315.908 764.367 314.348 760.999 313.554 760.999C312.79 760.999 311.228 764.075 309.871 768.249ZM326.002 762.093C326.002 762.694 326.902 763.422 328.002 763.709C329.558 764.116 330.037 765.149 330.16 768.366C330.405 774.757 330.091 776.404 328.383 777.682C325.159 780.096 330.341 782.336 333.914 780.074C335.108 779.319 335.069 778.923 333.664 777.518C331.892 775.746 331.303 767.999 332.941 767.999C333.457 767.999 335.546 770.699 337.583 773.999C339.62 777.299 341.672 779.999 342.144 779.999C342.616 779.999 343.002 776.547 343.002 772.328C343.002 766.593 343.42 764.195 344.657 762.828C346.237 761.082 346.112 761 341.907 761.031C338.03 761.059 337.712 761.222 339.252 762.391C340.459 763.307 340.995 765.082 340.98 768.109L340.958 772.499L339.002 769.999C337.927 768.624 336.341 766.037 335.477 764.249C334.099 761.395 333.426 760.999 329.955 760.999C327.761 760.999 326.002 761.486 326.002 762.093ZM286.668 763.426C286.367 764.211 286.769 765.391 287.561 766.048C288.753 767.037 289.002 766.791 289.002 764.621C289.002 761.811 287.57 761.077 286.668 763.426ZM233.641 768.693C232.446 769.888 232.996 771.999 234.502 771.999C235.327 771.999 236.002 771.351 236.002 770.558C236.002 768.887 234.575 767.76 233.641 768.693ZM311.641 768.693C310.446 769.888 310.996 771.999 312.502 771.999C313.327 771.999 314.002 771.351 314.002 770.558C314.002 768.887 312.575 767.76 311.641 768.693ZM469.002 784.999V791.999L465.752 792.012C463.964 792.019 382.627 791.949 285.002 791.857C111.601 791.693 95.3459 791.715 33.5019 792.203L3.50186 792.44L25.5019 792.969C37.6019 793.261 142.147 793.639 257.825 793.811C418.784 794.05 468.483 793.845 469.575 792.938C471.249 791.549 471.637 777.999 470.002 777.999C469.431 777.999 469.002 780.999 469.002 784.999Z" fill="black"/>
</svg>
