<svg width="622" height="841" viewBox="0 0 622 841" fill="none" xmlns="http://www.w3.org/2000/svg">
<mask id="path-1-inside-1_178_4" fill="white">
<path fill-rule="evenodd" clip-rule="evenodd" d="M229.392 3.72495C208.418 8.28487 178.002 19.3211 164.213 27.3737C150.247 35.5302 150.211 38.3944 163.561 78.9611L173.788 110.039L168.144 116.048C163.915 120.551 162.24 126.163 161.458 138.445C160.223 157.869 164.491 168.448 178.519 180.715C187.635 188.688 188.214 190.339 200.352 243.038C207.209 272.81 212.837 301.512 212.858 306.82C212.889 314.997 209.216 321.349 188.829 348.368C175.593 365.912 161.697 385.021 157.948 390.83C126.203 440.039 117.3 488.155 131.112 535.831C161.11 639.365 297.382 806.184 376.526 836.262C392.403 842.297 410.385 842.59 422.147 837.007C435.165 830.829 456.572 806.233 470.519 781.434C511.375 708.784 543.713 563.775 539.138 473.75C536.521 422.264 526.553 395.941 497.789 364.546C477.566 342.471 458.316 328.983 412.616 304.857C392.019 293.981 372.422 282.405 369.067 279.128C364.272 274.441 360.857 263.815 353.071 229.34C347.624 205.232 341.53 178.472 339.531 169.871C336.242 155.737 336.314 153.53 340.302 146.939C346.232 137.134 348.359 122.14 345.324 111.553C341.676 98.8368 330.288 83.6405 322.328 80.8646C315.595 78.5171 315.263 77.4057 310.865 42.6375C308.372 22.9436 305.031 5.25704 303.434 3.33543C299.589 -1.29721 251.318 -1.04532 229.392 3.72495ZM230.056 11.8892C209.062 16.392 167.791 32.3985 163.338 37.766C160.885 40.7211 162.266 47.8181 169.987 71.955C183.683 114.75 187.336 121.242 198.944 123.42C222.836 127.902 264.473 119.354 292.083 104.298L305.065 97.219L305.849 82.0772C306.589 67.8054 300.165 14.904 297.089 9.92603C294.864 6.32431 249.853 7.64347 230.056 11.8892ZM262.225 26.0494C229.849 37.2596 202.2 42.2506 180.915 40.7263C168.975 39.872 164.229 40.2563 167.069 41.8455C175.492 46.5586 199.253 48.7763 217.207 46.5197C237.417 43.9826 275.69 30.9313 285.592 23.2007C294.588 16.179 288.643 16.9035 262.225 26.0494ZM277.803 49.1788C277.803 52.6403 279.535 54.3723 282.996 54.3723C286.457 54.3723 288.188 52.6403 288.188 49.1788C288.188 45.7173 286.457 43.9852 282.996 43.9852C279.535 43.9852 277.803 45.7173 277.803 49.1788ZM243.256 61.2252C241.182 63.3 243.526 67.3562 246.8 67.3562C248.145 67.3562 249.243 65.6033 249.243 63.461C249.243 59.4464 246.18 58.3012 243.256 61.2252ZM264.821 63.2455C264.821 65.5073 266.67 67.3562 268.931 67.3562C273.517 67.3562 272.719 61.7653 267.906 60.1605C266.208 59.5944 264.821 60.9837 264.821 63.2455ZM208.79 65.0996C206.578 68.6805 211.659 73.6196 215.265 71.3915C216.818 70.4307 218.087 68.6727 218.087 67.4808C218.087 64.0271 210.633 62.1159 208.79 65.0996ZM190.047 70.4723C183.655 76.8655 189.948 87.2033 198.285 84.0014C203.701 81.924 203.784 70.9994 198.402 68.9324C193.173 66.9251 193.687 66.8316 190.047 70.4723ZM251.84 81.6384C251.84 83.7807 253.592 85.5335 255.734 85.5335C257.876 85.5335 259.629 83.7807 259.629 81.6384C259.629 79.4961 257.876 77.7432 255.734 77.7432C253.592 77.7432 251.84 79.4961 251.84 81.6384ZM206.404 82.9368C205.521 84.365 206.038 85.5335 207.549 85.5335C209.06 85.5335 210.298 84.365 210.298 82.9368C210.298 81.5086 209.784 80.34 209.153 80.34C208.522 80.34 207.286 81.5086 206.404 82.9368ZM271.312 90.7271C269.139 94.2431 272.07 98.5174 276.658 98.5174C278.717 98.5174 280.399 96.1803 280.399 93.3238C280.399 87.9485 274.134 86.1568 271.312 90.7271ZM190.685 98.7433C189.727 100.296 190.291 102.916 191.939 104.565C194.203 106.83 195.502 106.648 197.254 103.812C199.728 99.808 198.48 95.9206 194.72 95.9206C193.461 95.9206 191.646 97.1904 190.685 98.7433ZM327.118 105.027C308.089 127.96 212.565 150.398 177.177 140.247C169.024 137.908 168.757 138.077 168.757 145.568C168.757 161.229 180.954 176.013 198.615 181.754C221.021 189.041 266.192 184.068 295.692 171.066C325.173 158.072 337.994 143.221 338.319 121.683C338.55 106.284 332.965 97.9799 327.118 105.027ZM197.81 113.449C198.293 115.947 200.406 117.993 202.509 117.993C204.612 117.993 206.726 115.947 207.209 113.449C207.821 110.26 206.419 108.904 202.509 108.904C198.599 108.904 197.197 110.26 197.81 113.449ZM324.153 164.387C320.245 167.246 320.853 171.915 331.332 219.358C337.628 247.873 344.07 274.404 345.646 278.315C350.166 289.541 366.572 302.556 392.642 315.607C462.637 350.643 496.732 380.404 511.209 419.107C527.2 461.857 522.477 556.107 499.816 646.436C473.048 753.137 434.056 823.016 401.285 823.016C379.463 823.016 340.525 797.282 297.164 754.201C260.636 717.912 239.369 691.887 208.039 645.137C166.809 583.617 142.731 528.319 142.856 495.439C143.022 452.543 158.143 419.501 207.076 355.117C237.064 315.659 236.664 318.401 221.987 252.895C207.05 186.226 208.896 192.001 202.54 192.001C198.363 192.001 197.501 193.258 198.532 197.844C199.256 201.056 205.17 227.26 211.679 256.074C222.623 304.516 223.241 309.11 219.868 317.098C217.864 321.847 204.35 341.51 189.839 360.791C135.274 433.288 121.615 482.294 140.36 538.285C170.751 629.053 272.758 762.384 350.501 812.953C385.51 835.724 408.955 838.989 427.937 823.73C458.672 799.019 488.543 735.255 510.009 648.523C522.142 599.502 526.148 574.954 529.796 527.27C533.107 483.992 530.38 440.995 523.004 420.086C508.039 377.662 471.007 344.133 394.644 303.867C377.243 294.69 361.172 284.373 358.915 280.925C356.657 277.479 349.169 249.442 342.273 218.618C335.377 187.794 329.439 162.281 329.078 161.92C328.717 161.559 326.503 162.671 324.153 164.387ZM453.705 162.325C452.633 163.413 451.758 168.781 451.758 174.257C451.758 184.779 449.284 186.719 443.992 180.344C442.227 178.217 439.672 177.166 438.314 178.004C436.912 178.872 437.691 181.578 440.119 184.26C444.133 188.695 444.023 189.059 438.34 190.139C433.163 191.126 433.376 191.344 439.828 191.648C447.202 191.993 447.266 192.118 442.671 197.195C437.631 202.765 440.775 204.543 446.155 199.163C448.72 196.597 449.876 196.727 451.826 199.812C453.723 202.817 454.284 202.894 454.315 200.16C454.344 197.62 456.359 197.122 461.494 198.384C468.125 200.009 468.281 199.872 463.68 196.452C458.934 192.923 459.015 192.697 465.628 191.038C473.861 188.971 474.832 184.211 467.019 184.211C462.374 184.211 462.024 183.588 464.792 180.253C468.982 175.203 466.087 172.068 461.076 176.228C457.885 178.877 457.156 177.867 456.468 169.861C456.021 164.629 454.778 161.237 453.705 162.325ZM296.998 179.173C281.724 186.208 260.999 191.186 238.035 193.338C227.065 194.367 218.087 196.151 218.087 197.304C218.087 198.454 223.405 223.149 229.906 252.179C238.032 288.481 241.215 307.799 240.096 314.049C237.928 326.179 230.692 337.978 202.678 375.073C166.893 422.456 150.582 459.853 150.582 494.517C150.582 514.161 162.429 549.233 180.848 584.113C212.528 644.101 249.542 693.746 301.025 745.305C340.798 785.132 365.689 803.844 389.023 811.452C401.693 815.584 403.606 815.625 411.348 811.933C443.385 796.653 486.526 692.328 503.69 588.629C514.8 521.513 514.914 452.044 503.963 423.22C490.062 386.626 456.146 356.924 389.5 322.982C371.741 313.938 355.403 303.506 349.067 297.173C337.563 285.667 337.441 285.28 320.043 205.634C316.219 188.14 311.87 173.922 310.377 174.042C308.884 174.164 302.863 176.472 296.998 179.173ZM390.318 196.07C388.153 201.71 393.647 207.016 397.58 203.081C400.903 199.758 398.845 192.001 394.638 192.001C393.12 192.001 391.178 193.832 390.318 196.07ZM226.318 205.426C226.889 209.459 228.906 211.477 232.367 211.477C240.099 211.477 239.328 201.339 231.51 200.233C226.476 199.519 225.604 200.391 226.318 205.426ZM233.681 225.11C233.709 238.003 241.137 281.332 245.479 293.924C248.688 303.228 251.035 306.259 255.038 306.259C260.016 306.259 260.239 305.21 258.624 289.442C256.928 272.89 246.372 232.355 241.28 222.835C237.482 215.741 233.663 216.883 233.681 225.11ZM492.173 229.208C483.013 235.907 488.003 254.324 498.98 254.324C513.128 254.324 519.53 239.299 509.322 230.057C503.581 224.861 498.464 224.606 492.173 229.208ZM426.859 250.104C423.746 258.213 426.895 263.412 434.918 263.412C441.801 263.412 442.671 262.54 442.671 255.622C442.671 249.049 441.552 247.702 435.515 247.008C430.951 246.484 427.817 247.603 426.859 250.104ZM116.02 274.178C115.036 275.16 114.234 278.133 114.234 280.785C114.234 285.28 113.813 285.329 107.984 281.509C103.648 278.668 101.192 278.286 99.9692 280.265C97.8896 283.631 105.115 295.524 110.49 297.588C116.443 299.871 114.833 303.662 107.911 303.662C99.1384 303.662 88.2701 308.123 88.2701 311.725C88.2701 313.735 92.0478 314.298 99.7044 313.436L111.139 312.146L106.206 320.24C96.1681 336.701 104.521 341.204 115.394 325.195L121.937 315.566L123.614 323.951C126.2 336.888 130.871 337.633 129.155 324.834C128.36 318.903 128.42 314.049 129.287 314.049C130.154 314.049 134.716 317.783 139.423 322.348C149.141 331.767 151.584 327.116 142.793 315.937C136.069 307.388 136.165 306.986 145.413 304.955C155.775 302.678 153.173 299.011 142.258 300.51L133.706 301.683L142.653 292.286C153.002 281.418 149.624 279.66 137.689 289.702C133.236 293.452 129.085 296.012 128.467 295.391C127.846 294.773 126.4 289.746 125.252 284.223C123.225 274.451 119.642 270.553 116.02 274.178ZM319.08 312.203C314.227 315.47 307.557 323.037 304.257 329.014L298.26 339.882L288.469 333.403C274.35 324.057 262.757 321.26 252.356 324.693C233.66 330.866 236.469 351.022 258.801 370.926C274.823 385.208 307.246 403.552 312.742 401.443C318.415 399.265 340.375 366.756 346.915 350.851C354.439 332.559 354.663 321.936 347.715 313.101C340.949 304.498 330.981 304.184 319.08 312.203ZM558.366 311.354C553.296 314.488 556.289 323.042 562.778 323.969C567.451 324.634 568.593 323.54 568.593 318.404C568.593 311.51 563.637 308.095 558.366 311.354ZM367.224 338.802C372.85 343.058 379.06 343.842 379.06 340.295C379.06 337.555 372.624 334.79 366.515 334.906C362.779 334.977 362.877 335.511 367.224 338.802ZM384.253 344.683C384.253 347.529 438.592 369.633 440.615 367.61C442.964 365.26 442.557 365.037 414.35 353.31C387.613 342.193 384.253 341.23 384.253 344.683ZM538.086 354.72C533.54 356.556 534.028 365.837 538.769 367.654C545.06 370.069 550.814 363.783 547.677 357.922C544.974 352.873 543.71 352.45 538.086 354.72ZM565.982 356.914C563.107 360.378 563.222 361.723 566.667 365.172C572.236 370.739 579.576 367.647 578.511 360.181C577.496 353.068 570.652 351.284 565.982 356.914ZM354.242 364.769C361.239 370.061 367.894 370.002 363.482 364.686C361.704 362.544 357.765 360.827 354.727 360.874C349.312 360.955 349.301 361.03 354.242 364.769ZM228.992 366.504C227.278 368.218 225.876 371.321 225.876 373.398C225.876 376.398 226.946 376.208 231.069 372.476C236.402 367.649 237.864 363.388 234.185 363.388C233.042 363.388 230.705 364.79 228.992 366.504ZM371.271 371.134C371.271 374.497 422.713 400.35 426.675 398.977C428.331 398.4 416.546 391.319 400.48 383.235C384.417 375.151 371.271 369.706 371.271 371.134ZM443.432 380.916C438.265 387.701 428.189 407.709 421.038 425.383C413.888 443.057 403.609 463.95 398.193 471.813C382.158 495.101 352.331 511.404 325.763 511.404C319.75 511.404 300.365 508.373 282.687 504.668C246.727 497.134 229.171 497.376 205.061 505.74C189.138 511.263 163.564 526.107 163.564 529.828C163.564 531.194 169.507 531.523 177.415 530.594C195.13 528.511 210.714 531.939 249.49 546.447C266.685 552.882 281.386 558.145 282.155 558.145C282.923 558.145 282.853 556.328 282.001 554.105C279.444 547.439 287.225 532.809 295.645 528.454C313.389 519.277 337.161 527.745 337.436 543.341C337.527 548.485 319.589 557.992 309.608 558.088C306.397 558.119 303.766 559.314 303.766 560.742C303.766 564.253 338.944 564.071 356.215 560.47C390.92 553.23 422.739 530.228 435.99 502.795C446.677 480.673 450.081 458.78 448.025 425.386C446.921 407.424 447.383 393.601 449.351 385.785C453.44 369.542 456.457 370.563 454.162 387.408C453.142 394.905 453.414 414.36 454.77 430.639C459.106 482.751 450.857 512.219 425.133 536.525C384.946 574.497 328.042 587.079 277.71 569.119C265.624 564.806 245.219 556.658 232.367 551.012C205.89 539.381 189.372 534.775 174.136 534.775H163.639L168.777 547.81C209.376 650.829 338.448 797.775 398.053 808.835C407.464 810.582 408.581 810.027 420.506 797.653C464.304 752.205 506.671 602.488 507.019 491.928C507.151 449.733 503.293 427.72 492.715 410.343C486.884 400.763 457.418 368.581 454.476 368.581C453.568 368.581 448.598 374.131 443.432 380.916ZM198.747 401.311C187.785 413.599 179.581 424.409 180.516 425.331C182.224 427.016 223.018 384.559 223.189 380.916C223.441 375.51 216.867 380.997 198.747 401.311ZM252.359 384.681C250.645 386.395 249.243 389.498 249.243 391.576C249.243 394.575 250.313 394.385 254.436 390.654C259.769 385.826 261.231 381.565 257.552 381.565C256.409 381.565 254.073 382.967 252.359 384.681ZM340.764 390.005C341.356 391.791 344.046 393.677 346.739 394.198C350.973 395.019 351.165 394.583 348.154 390.953C344.036 385.99 339.222 385.372 340.764 390.005ZM44.1167 393.269C41.2425 396.733 41.3568 398.078 44.8021 401.527C50.3713 407.094 57.7112 404.001 56.6467 396.536C55.6315 389.423 48.7875 387.639 44.1167 393.269ZM350.503 399.093C350.506 402.586 384.489 431.535 386.343 429.626C387.335 428.603 380.553 420.898 371.271 412.5C355.057 397.829 350.498 394.887 350.503 399.093ZM223.534 422.464C213.468 434.963 205.202 446.716 205.168 448.585C205.066 454.075 208.953 450.26 226.523 427.619C246.047 402.456 247.787 399.743 244.396 399.743C242.989 399.743 233.6 409.969 223.534 422.464ZM274.415 405.084C273.527 408.483 274.127 410.057 276.061 409.413C279.794 408.169 281.744 399.743 278.296 399.743C276.931 399.743 275.183 402.147 274.415 405.084ZM311.556 413.872C311.556 420.026 314.702 424.295 317.312 421.683C319.355 419.642 316.39 407.533 313.848 407.533C312.589 407.533 311.556 410.384 311.556 413.872ZM264.029 432.851C253.701 459.46 253.699 459.468 256.513 459.468C259.057 459.468 275.207 423.732 275.207 418.102C275.207 410.457 270.115 417.177 264.029 432.851ZM316.748 433.059C316.748 443.521 330.4 493.595 332.64 491.354C333.845 490.149 331.794 476.347 328.084 460.684C321.484 432.812 316.748 421.272 316.748 433.059ZM413.75 464.013C413.95 466.537 412.582 468.24 410.674 467.843C408.781 467.451 407.973 468.328 408.879 469.79C411.016 473.249 419.561 473.192 426.132 469.674C430.276 467.456 430.702 466.147 428.24 463.182C423.744 457.762 413.301 458.359 413.75 464.013ZM49.3535 481.507C47.4815 483.764 46.8455 488.147 47.8269 492.053C49.2549 497.745 50.7426 498.617 57.8513 497.929C64.2955 497.306 66.3959 495.756 67.0502 491.136C68.6703 479.705 56.3922 473.026 49.3535 481.507ZM394.48 495.981C387.447 503.016 388.753 512.419 396.921 513.575C405.177 514.743 425.795 506.68 425.795 502.286C425.795 490.822 404.019 486.441 394.48 495.981ZM586.768 502.315C586.768 508.872 583.234 510.993 580.277 506.21C578.026 502.567 571.19 502.964 571.19 506.735C571.19 508.454 574.765 513.549 579.137 518.059L587.082 526.257L576.227 527.714C564.037 529.35 558.312 533.32 562.336 537.345C563.977 538.987 567.929 539.051 573.241 537.527C582.424 534.894 583.312 536.153 577.598 543.71C572.883 549.945 572.48 561.597 577.032 560.127C578.818 559.55 582.614 555.408 585.47 550.921C591.984 540.69 593.713 540.596 595.855 550.355C598.454 562.186 602.042 559.659 600.466 547.109L599.08 536.073L608.463 544.985C619.695 555.65 623.228 554.05 615.624 541.747C608.87 530.814 608.824 529.581 615.174 529.581C617.947 529.581 620.936 528.412 621.818 526.984C622.763 525.457 619.952 524.387 614.995 524.387H606.567L614.003 516.623C624.114 506.07 620.655 503.972 609.416 513.839C604.436 518.212 599.64 521.791 598.758 521.791C597.875 521.791 597.153 517.797 597.153 512.915C597.153 501.476 594.915 495.823 590.385 495.823C588.258 495.823 586.768 498.498 586.768 502.315ZM396.017 501.777C394.906 504.338 394.727 507.163 395.615 508.054C398.253 510.69 400.379 506.987 399.164 501.868C398.089 497.332 397.949 497.329 396.017 501.777ZM217.726 508.672L211.596 513.73L217.438 512.266C222.078 511.1 223.28 511.897 223.28 516.14C223.28 523.777 217.942 526.036 213.596 520.24C210.078 515.551 209.932 515.629 210.742 521.791C211.846 530.176 222.265 531.666 237.936 525.681C250.775 520.775 252.798 514.19 243.472 507.656C235.628 502.159 225.113 502.575 217.726 508.672ZM462.663 514.52C457.898 519.285 458.952 529.08 464.553 532.076C471.321 535.702 477.436 532.923 479.331 525.366C482.073 514.447 470.356 506.826 462.663 514.52ZM14.9234 531.066C13.8511 532.154 12.9762 536.353 12.9762 540.402V547.758L7.56797 542.349C4.59256 539.373 1.64315 537.452 1.01484 538.083C-0.945402 540.041 2.99844 547.758 5.96086 547.758C7.50828 547.758 6.50871 549.475 3.73581 551.57C-1.24916 555.344 -1.24916 555.385 3.75919 555.466C7.69784 555.531 8.12883 556.242 5.70644 558.665C0.529338 563.843 2.21431 567.081 7.56797 562.235C11.6105 558.577 13.5941 558.293 18.1507 560.732C23.2603 563.469 23.5147 563.282 21.0145 558.61C18.657 554.204 19.2619 553.24 25.3582 551.711C31.4102 550.192 31.862 549.49 28.4556 546.899C26.2643 545.229 24.9401 541.562 25.5139 538.753C26.3993 534.416 25.9527 534.144 22.5644 536.956C19.197 539.753 18.4363 539.394 17.7197 534.678C17.2523 531.604 15.9957 529.978 14.9234 531.066ZM288.079 542.767C285.164 548.218 286.303 555.549 290.068 555.549C291.192 555.549 293.392 551.459 294.955 546.46C297.216 539.236 297.099 537.371 294.383 537.371C292.504 537.371 289.668 539.799 288.079 542.767ZM116.085 546.774C112.58 550.28 114.244 557.969 119.068 560.55C125.387 563.934 133.327 558.374 132.018 551.482C131.055 546.411 119.777 543.079 116.085 546.774ZM98.6555 582.815C98.6555 585.196 99.9121 586.723 101.447 586.211C102.981 585.7 104.238 584.17 104.238 582.815C104.238 581.459 102.981 579.93 101.447 579.418C99.9121 578.907 98.6555 580.434 98.6555 582.815ZM402.428 585.412C402.428 588.086 404.128 589.359 406.971 588.813C412.444 587.759 412.099 583.15 406.46 581.976C404.107 581.485 402.428 582.916 402.428 585.412ZM444.488 587.229C438.096 593.622 444.39 603.96 452.726 600.758C458.142 598.681 458.226 587.756 452.843 585.689C447.614 583.682 448.128 583.589 444.488 587.229ZM562.214 604.708C560.441 607.578 564.535 610.678 566.934 608.279C569.401 605.809 568.941 602.291 566.15 602.291C564.805 602.291 563.035 603.379 562.214 604.708ZM144.525 606.619C143.572 607.57 142.793 615.892 142.793 625.114V641.876L136.952 637.684C125.486 629.461 122.394 628.152 120.743 630.826C119.865 632.247 122.069 636.332 125.644 639.907L132.14 646.404L125.133 647.944C112.868 650.645 112.676 651.214 123.97 651.424C130.037 651.536 135.004 652.442 135.004 653.434C135.004 654.428 131.79 658.669 127.864 662.86L120.724 670.479L127.215 667.212C130.785 665.415 135.752 662.162 138.25 659.983C142.435 656.332 142.793 656.573 142.793 663.065C142.793 667.103 143.902 669.427 145.39 668.508C146.818 667.625 147.986 664.605 147.986 661.795C147.986 656.976 148.417 656.914 155.645 660.65C167.168 666.61 171.052 665.241 162.492 658.24L154.929 652.058L165.737 649.147C178.989 645.576 179.83 641.242 167.269 641.242H157.995L163.45 634.306C171.184 624.472 166.01 619.891 156.806 628.422L149.977 634.75L151.712 626.643C154.498 613.618 150.014 601.127 144.525 606.619ZM248.179 612.298C245.601 616.471 249.615 623.374 254.114 622.506C259.644 621.442 259.577 611.691 254.028 610.621C251.663 610.166 249.03 610.922 248.179 612.298ZM81.7792 654.226C79.6606 657.654 82.4984 662.016 86.8473 662.016C90.6457 662.016 94.0314 655.659 91.5519 653.182C89.1321 650.759 83.5525 651.356 81.7792 654.226ZM562.557 658.531C560.591 660.497 565.506 667.21 568.91 667.21C570.164 667.21 571.19 664.873 571.19 662.016C571.19 657.025 566.111 654.976 562.557 658.531ZM365.214 661.151C362.052 664.314 363.425 669.806 367.377 669.806C369.54 669.806 371.271 667.498 371.271 664.613C371.271 659.44 368.504 657.859 365.214 661.151ZM302.902 668.942C300.176 671.668 300.879 679.708 304.016 681.645C305.581 682.614 308.694 681.572 310.932 679.334C314.287 675.979 314.417 674.551 311.665 671.235C308.045 666.872 305.607 666.236 302.902 668.942ZM331.277 680.988C324.657 685.829 326.697 696.826 334.416 697.922C345.9 699.55 351.692 689.547 343.826 681.676C338.867 676.719 337.239 676.628 331.277 680.988ZM187.562 685.662C180.674 688.21 177.647 698.514 181.609 705.92C186.038 714.198 201.639 713.51 205.578 704.863C211.35 692.193 200.668 680.812 187.562 685.662ZM388.007 703.79C387.049 705.343 387.613 707.963 389.262 709.612C391.526 711.877 392.824 711.695 394.576 708.859C397.051 704.855 395.802 700.968 392.042 700.968C390.783 700.968 388.968 702.238 388.007 703.79ZM119.821 708.018C116.241 714.71 120.802 721.742 128.724 721.742C132.294 721.742 135.895 719.849 136.798 717.494C140.651 707.449 124.847 698.628 119.821 708.018ZM360.091 710.417C358.017 712.492 360.362 716.548 363.636 716.548C364.981 716.548 366.079 714.795 366.079 712.653C366.079 708.639 363.015 707.493 360.091 710.417ZM395.158 753.422C390.612 757.969 391.341 762.732 397.056 765.791C400.839 767.816 403.066 767.474 406.143 764.399C408.384 762.155 410.217 759.47 410.217 758.432C410.217 755.552 404.351 750.306 401.129 750.306C399.559 750.306 396.871 751.709 395.158 753.422ZM358.29 758.097C358.29 761.558 360.021 763.29 363.482 763.29C366.943 763.29 368.675 761.558 368.675 758.097C368.675 754.635 366.943 752.903 363.482 752.903C360.021 752.903 358.29 754.635 358.29 758.097ZM244.391 758.985C241.213 762.812 242.989 765.887 248.379 765.887C250.282 765.887 251.84 763.55 251.84 760.693C251.84 754.703 248.568 753.952 244.391 758.985Z"/>
</mask>
<path fill-rule="evenodd" clip-rule="evenodd" d="M229.392 3.72495C208.418 8.28487 178.002 19.3211 164.213 27.3737C150.247 35.5302 150.211 38.3944 163.561 78.9611L173.788 110.039L168.144 116.048C163.915 120.551 162.24 126.163 161.458 138.445C160.223 157.869 164.491 168.448 178.519 180.715C187.635 188.688 188.214 190.339 200.352 243.038C207.209 272.81 212.837 301.512 212.858 306.82C212.889 314.997 209.216 321.349 188.829 348.368C175.593 365.912 161.697 385.021 157.948 390.83C126.203 440.039 117.3 488.155 131.112 535.831C161.11 639.365 297.382 806.184 376.526 836.262C392.403 842.297 410.385 842.59 422.147 837.007C435.165 830.829 456.572 806.233 470.519 781.434C511.375 708.784 543.713 563.775 539.138 473.75C536.521 422.264 526.553 395.941 497.789 364.546C477.566 342.471 458.316 328.983 412.616 304.857C392.019 293.981 372.422 282.405 369.067 279.128C364.272 274.441 360.857 263.815 353.071 229.34C347.624 205.232 341.53 178.472 339.531 169.871C336.242 155.737 336.314 153.53 340.302 146.939C346.232 137.134 348.359 122.14 345.324 111.553C341.676 98.8368 330.288 83.6405 322.328 80.8646C315.595 78.5171 315.263 77.4057 310.865 42.6375C308.372 22.9436 305.031 5.25704 303.434 3.33543C299.589 -1.29721 251.318 -1.04532 229.392 3.72495ZM230.056 11.8892C209.062 16.392 167.791 32.3985 163.338 37.766C160.885 40.7211 162.266 47.8181 169.987 71.955C183.683 114.75 187.336 121.242 198.944 123.42C222.836 127.902 264.473 119.354 292.083 104.298L305.065 97.219L305.849 82.0772C306.589 67.8054 300.165 14.904 297.089 9.92603C294.864 6.32431 249.853 7.64347 230.056 11.8892ZM262.225 26.0494C229.849 37.2596 202.2 42.2506 180.915 40.7263C168.975 39.872 164.229 40.2563 167.069 41.8455C175.492 46.5586 199.253 48.7763 217.207 46.5197C237.417 43.9826 275.69 30.9313 285.592 23.2007C294.588 16.179 288.643 16.9035 262.225 26.0494ZM277.803 49.1788C277.803 52.6403 279.535 54.3723 282.996 54.3723C286.457 54.3723 288.188 52.6403 288.188 49.1788C288.188 45.7173 286.457 43.9852 282.996 43.9852C279.535 43.9852 277.803 45.7173 277.803 49.1788ZM243.256 61.2252C241.182 63.3 243.526 67.3562 246.8 67.3562C248.145 67.3562 249.243 65.6033 249.243 63.461C249.243 59.4464 246.18 58.3012 243.256 61.2252ZM264.821 63.2455C264.821 65.5073 266.67 67.3562 268.931 67.3562C273.517 67.3562 272.719 61.7653 267.906 60.1605C266.208 59.5944 264.821 60.9837 264.821 63.2455ZM208.79 65.0996C206.578 68.6805 211.659 73.6196 215.265 71.3915C216.818 70.4307 218.087 68.6727 218.087 67.4808C218.087 64.0271 210.633 62.1159 208.79 65.0996ZM190.047 70.4723C183.655 76.8655 189.948 87.2033 198.285 84.0014C203.701 81.924 203.784 70.9994 198.402 68.9324C193.173 66.9251 193.687 66.8316 190.047 70.4723ZM251.84 81.6384C251.84 83.7807 253.592 85.5335 255.734 85.5335C257.876 85.5335 259.629 83.7807 259.629 81.6384C259.629 79.4961 257.876 77.7432 255.734 77.7432C253.592 77.7432 251.84 79.4961 251.84 81.6384ZM206.404 82.9368C205.521 84.365 206.038 85.5335 207.549 85.5335C209.06 85.5335 210.298 84.365 210.298 82.9368C210.298 81.5086 209.784 80.34 209.153 80.34C208.522 80.34 207.286 81.5086 206.404 82.9368ZM271.312 90.7271C269.139 94.2431 272.07 98.5174 276.658 98.5174C278.717 98.5174 280.399 96.1803 280.399 93.3238C280.399 87.9485 274.134 86.1568 271.312 90.7271ZM190.685 98.7433C189.727 100.296 190.291 102.916 191.939 104.565C194.203 106.83 195.502 106.648 197.254 103.812C199.728 99.808 198.48 95.9206 194.72 95.9206C193.461 95.9206 191.646 97.1904 190.685 98.7433ZM327.118 105.027C308.089 127.96 212.565 150.398 177.177 140.247C169.024 137.908 168.757 138.077 168.757 145.568C168.757 161.229 180.954 176.013 198.615 181.754C221.021 189.041 266.192 184.068 295.692 171.066C325.173 158.072 337.994 143.221 338.319 121.683C338.55 106.284 332.965 97.9799 327.118 105.027ZM197.81 113.449C198.293 115.947 200.406 117.993 202.509 117.993C204.612 117.993 206.726 115.947 207.209 113.449C207.821 110.26 206.419 108.904 202.509 108.904C198.599 108.904 197.197 110.26 197.81 113.449ZM324.153 164.387C320.245 167.246 320.853 171.915 331.332 219.358C337.628 247.873 344.07 274.404 345.646 278.315C350.166 289.541 366.572 302.556 392.642 315.607C462.637 350.643 496.732 380.404 511.209 419.107C527.2 461.857 522.477 556.107 499.816 646.436C473.048 753.137 434.056 823.016 401.285 823.016C379.463 823.016 340.525 797.282 297.164 754.201C260.636 717.912 239.369 691.887 208.039 645.137C166.809 583.617 142.731 528.319 142.856 495.439C143.022 452.543 158.143 419.501 207.076 355.117C237.064 315.659 236.664 318.401 221.987 252.895C207.05 186.226 208.896 192.001 202.54 192.001C198.363 192.001 197.501 193.258 198.532 197.844C199.256 201.056 205.17 227.26 211.679 256.074C222.623 304.516 223.241 309.11 219.868 317.098C217.864 321.847 204.35 341.51 189.839 360.791C135.274 433.288 121.615 482.294 140.36 538.285C170.751 629.053 272.758 762.384 350.501 812.953C385.51 835.724 408.955 838.989 427.937 823.73C458.672 799.019 488.543 735.255 510.009 648.523C522.142 599.502 526.148 574.954 529.796 527.27C533.107 483.992 530.38 440.995 523.004 420.086C508.039 377.662 471.007 344.133 394.644 303.867C377.243 294.69 361.172 284.373 358.915 280.925C356.657 277.479 349.169 249.442 342.273 218.618C335.377 187.794 329.439 162.281 329.078 161.92C328.717 161.559 326.503 162.671 324.153 164.387ZM453.705 162.325C452.633 163.413 451.758 168.781 451.758 174.257C451.758 184.779 449.284 186.719 443.992 180.344C442.227 178.217 439.672 177.166 438.314 178.004C436.912 178.872 437.691 181.578 440.119 184.26C444.133 188.695 444.023 189.059 438.34 190.139C433.163 191.126 433.376 191.344 439.828 191.648C447.202 191.993 447.266 192.118 442.671 197.195C437.631 202.765 440.775 204.543 446.155 199.163C448.72 196.597 449.876 196.727 451.826 199.812C453.723 202.817 454.284 202.894 454.315 200.16C454.344 197.62 456.359 197.122 461.494 198.384C468.125 200.009 468.281 199.872 463.68 196.452C458.934 192.923 459.015 192.697 465.628 191.038C473.861 188.971 474.832 184.211 467.019 184.211C462.374 184.211 462.024 183.588 464.792 180.253C468.982 175.203 466.087 172.068 461.076 176.228C457.885 178.877 457.156 177.867 456.468 169.861C456.021 164.629 454.778 161.237 453.705 162.325ZM296.998 179.173C281.724 186.208 260.999 191.186 238.035 193.338C227.065 194.367 218.087 196.151 218.087 197.304C218.087 198.454 223.405 223.149 229.906 252.179C238.032 288.481 241.215 307.799 240.096 314.049C237.928 326.179 230.692 337.978 202.678 375.073C166.893 422.456 150.582 459.853 150.582 494.517C150.582 514.161 162.429 549.233 180.848 584.113C212.528 644.101 249.542 693.746 301.025 745.305C340.798 785.132 365.689 803.844 389.023 811.452C401.693 815.584 403.606 815.625 411.348 811.933C443.385 796.653 486.526 692.328 503.69 588.629C514.8 521.513 514.914 452.044 503.963 423.22C490.062 386.626 456.146 356.924 389.5 322.982C371.741 313.938 355.403 303.506 349.067 297.173C337.563 285.667 337.441 285.28 320.043 205.634C316.219 188.14 311.87 173.922 310.377 174.042C308.884 174.164 302.863 176.472 296.998 179.173ZM390.318 196.07C388.153 201.71 393.647 207.016 397.58 203.081C400.903 199.758 398.845 192.001 394.638 192.001C393.12 192.001 391.178 193.832 390.318 196.07ZM226.318 205.426C226.889 209.459 228.906 211.477 232.367 211.477C240.099 211.477 239.328 201.339 231.51 200.233C226.476 199.519 225.604 200.391 226.318 205.426ZM233.681 225.11C233.709 238.003 241.137 281.332 245.479 293.924C248.688 303.228 251.035 306.259 255.038 306.259C260.016 306.259 260.239 305.21 258.624 289.442C256.928 272.89 246.372 232.355 241.28 222.835C237.482 215.741 233.663 216.883 233.681 225.11ZM492.173 229.208C483.013 235.907 488.003 254.324 498.98 254.324C513.128 254.324 519.53 239.299 509.322 230.057C503.581 224.861 498.464 224.606 492.173 229.208ZM426.859 250.104C423.746 258.213 426.895 263.412 434.918 263.412C441.801 263.412 442.671 262.54 442.671 255.622C442.671 249.049 441.552 247.702 435.515 247.008C430.951 246.484 427.817 247.603 426.859 250.104ZM116.02 274.178C115.036 275.16 114.234 278.133 114.234 280.785C114.234 285.28 113.813 285.329 107.984 281.509C103.648 278.668 101.192 278.286 99.9692 280.265C97.8896 283.631 105.115 295.524 110.49 297.588C116.443 299.871 114.833 303.662 107.911 303.662C99.1384 303.662 88.2701 308.123 88.2701 311.725C88.2701 313.735 92.0478 314.298 99.7044 313.436L111.139 312.146L106.206 320.24C96.1681 336.701 104.521 341.204 115.394 325.195L121.937 315.566L123.614 323.951C126.2 336.888 130.871 337.633 129.155 324.834C128.36 318.903 128.42 314.049 129.287 314.049C130.154 314.049 134.716 317.783 139.423 322.348C149.141 331.767 151.584 327.116 142.793 315.937C136.069 307.388 136.165 306.986 145.413 304.955C155.775 302.678 153.173 299.011 142.258 300.51L133.706 301.683L142.653 292.286C153.002 281.418 149.624 279.66 137.689 289.702C133.236 293.452 129.085 296.012 128.467 295.391C127.846 294.773 126.4 289.746 125.252 284.223C123.225 274.451 119.642 270.553 116.02 274.178ZM319.08 312.203C314.227 315.47 307.557 323.037 304.257 329.014L298.26 339.882L288.469 333.403C274.35 324.057 262.757 321.26 252.356 324.693C233.66 330.866 236.469 351.022 258.801 370.926C274.823 385.208 307.246 403.552 312.742 401.443C318.415 399.265 340.375 366.756 346.915 350.851C354.439 332.559 354.663 321.936 347.715 313.101C340.949 304.498 330.981 304.184 319.08 312.203ZM558.366 311.354C553.296 314.488 556.289 323.042 562.778 323.969C567.451 324.634 568.593 323.54 568.593 318.404C568.593 311.51 563.637 308.095 558.366 311.354ZM367.224 338.802C372.85 343.058 379.06 343.842 379.06 340.295C379.06 337.555 372.624 334.79 366.515 334.906C362.779 334.977 362.877 335.511 367.224 338.802ZM384.253 344.683C384.253 347.529 438.592 369.633 440.615 367.61C442.964 365.26 442.557 365.037 414.35 353.31C387.613 342.193 384.253 341.23 384.253 344.683ZM538.086 354.72C533.54 356.556 534.028 365.837 538.769 367.654C545.06 370.069 550.814 363.783 547.677 357.922C544.974 352.873 543.71 352.45 538.086 354.72ZM565.982 356.914C563.107 360.378 563.222 361.723 566.667 365.172C572.236 370.739 579.576 367.647 578.511 360.181C577.496 353.068 570.652 351.284 565.982 356.914ZM354.242 364.769C361.239 370.061 367.894 370.002 363.482 364.686C361.704 362.544 357.765 360.827 354.727 360.874C349.312 360.955 349.301 361.03 354.242 364.769ZM228.992 366.504C227.278 368.218 225.876 371.321 225.876 373.398C225.876 376.398 226.946 376.208 231.069 372.476C236.402 367.649 237.864 363.388 234.185 363.388C233.042 363.388 230.705 364.79 228.992 366.504ZM371.271 371.134C371.271 374.497 422.713 400.35 426.675 398.977C428.331 398.4 416.546 391.319 400.48 383.235C384.417 375.151 371.271 369.706 371.271 371.134ZM443.432 380.916C438.265 387.701 428.189 407.709 421.038 425.383C413.888 443.057 403.609 463.95 398.193 471.813C382.158 495.101 352.331 511.404 325.763 511.404C319.75 511.404 300.365 508.373 282.687 504.668C246.727 497.134 229.171 497.376 205.061 505.74C189.138 511.263 163.564 526.107 163.564 529.828C163.564 531.194 169.507 531.523 177.415 530.594C195.13 528.511 210.714 531.939 249.49 546.447C266.685 552.882 281.386 558.145 282.155 558.145C282.923 558.145 282.853 556.328 282.001 554.105C279.444 547.439 287.225 532.809 295.645 528.454C313.389 519.277 337.161 527.745 337.436 543.341C337.527 548.485 319.589 557.992 309.608 558.088C306.397 558.119 303.766 559.314 303.766 560.742C303.766 564.253 338.944 564.071 356.215 560.47C390.92 553.23 422.739 530.228 435.99 502.795C446.677 480.673 450.081 458.78 448.025 425.386C446.921 407.424 447.383 393.601 449.351 385.785C453.44 369.542 456.457 370.563 454.162 387.408C453.142 394.905 453.414 414.36 454.77 430.639C459.106 482.751 450.857 512.219 425.133 536.525C384.946 574.497 328.042 587.079 277.71 569.119C265.624 564.806 245.219 556.658 232.367 551.012C205.89 539.381 189.372 534.775 174.136 534.775H163.639L168.777 547.81C209.376 650.829 338.448 797.775 398.053 808.835C407.464 810.582 408.581 810.027 420.506 797.653C464.304 752.205 506.671 602.488 507.019 491.928C507.151 449.733 503.293 427.72 492.715 410.343C486.884 400.763 457.418 368.581 454.476 368.581C453.568 368.581 448.598 374.131 443.432 380.916ZM198.747 401.311C187.785 413.599 179.581 424.409 180.516 425.331C182.224 427.016 223.018 384.559 223.189 380.916C223.441 375.51 216.867 380.997 198.747 401.311ZM252.359 384.681C250.645 386.395 249.243 389.498 249.243 391.576C249.243 394.575 250.313 394.385 254.436 390.654C259.769 385.826 261.231 381.565 257.552 381.565C256.409 381.565 254.073 382.967 252.359 384.681ZM340.764 390.005C341.356 391.791 344.046 393.677 346.739 394.198C350.973 395.019 351.165 394.583 348.154 390.953C344.036 385.99 339.222 385.372 340.764 390.005ZM44.1167 393.269C41.2425 396.733 41.3568 398.078 44.8021 401.527C50.3713 407.094 57.7112 404.001 56.6467 396.536C55.6315 389.423 48.7875 387.639 44.1167 393.269ZM350.503 399.093C350.506 402.586 384.489 431.535 386.343 429.626C387.335 428.603 380.553 420.898 371.271 412.5C355.057 397.829 350.498 394.887 350.503 399.093ZM223.534 422.464C213.468 434.963 205.202 446.716 205.168 448.585C205.066 454.075 208.953 450.26 226.523 427.619C246.047 402.456 247.787 399.743 244.396 399.743C242.989 399.743 233.6 409.969 223.534 422.464ZM274.415 405.084C273.527 408.483 274.127 410.057 276.061 409.413C279.794 408.169 281.744 399.743 278.296 399.743C276.931 399.743 275.183 402.147 274.415 405.084ZM311.556 413.872C311.556 420.026 314.702 424.295 317.312 421.683C319.355 419.642 316.39 407.533 313.848 407.533C312.589 407.533 311.556 410.384 311.556 413.872ZM264.029 432.851C253.701 459.46 253.699 459.468 256.513 459.468C259.057 459.468 275.207 423.732 275.207 418.102C275.207 410.457 270.115 417.177 264.029 432.851ZM316.748 433.059C316.748 443.521 330.4 493.595 332.64 491.354C333.845 490.149 331.794 476.347 328.084 460.684C321.484 432.812 316.748 421.272 316.748 433.059ZM413.75 464.013C413.95 466.537 412.582 468.24 410.674 467.843C408.781 467.451 407.973 468.328 408.879 469.79C411.016 473.249 419.561 473.192 426.132 469.674C430.276 467.456 430.702 466.147 428.24 463.182C423.744 457.762 413.301 458.359 413.75 464.013ZM49.3535 481.507C47.4815 483.764 46.8455 488.147 47.8269 492.053C49.2549 497.745 50.7426 498.617 57.8513 497.929C64.2955 497.306 66.3959 495.756 67.0502 491.136C68.6703 479.705 56.3922 473.026 49.3535 481.507ZM394.48 495.981C387.447 503.016 388.753 512.419 396.921 513.575C405.177 514.743 425.795 506.68 425.795 502.286C425.795 490.822 404.019 486.441 394.48 495.981ZM586.768 502.315C586.768 508.872 583.234 510.993 580.277 506.21C578.026 502.567 571.19 502.964 571.19 506.735C571.19 508.454 574.765 513.549 579.137 518.059L587.082 526.257L576.227 527.714C564.037 529.35 558.312 533.32 562.336 537.345C563.977 538.987 567.929 539.051 573.241 537.527C582.424 534.894 583.312 536.153 577.598 543.71C572.883 549.945 572.48 561.597 577.032 560.127C578.818 559.55 582.614 555.408 585.47 550.921C591.984 540.69 593.713 540.596 595.855 550.355C598.454 562.186 602.042 559.659 600.466 547.109L599.08 536.073L608.463 544.985C619.695 555.65 623.228 554.05 615.624 541.747C608.87 530.814 608.824 529.581 615.174 529.581C617.947 529.581 620.936 528.412 621.818 526.984C622.763 525.457 619.952 524.387 614.995 524.387H606.567L614.003 516.623C624.114 506.07 620.655 503.972 609.416 513.839C604.436 518.212 599.64 521.791 598.758 521.791C597.875 521.791 597.153 517.797 597.153 512.915C597.153 501.476 594.915 495.823 590.385 495.823C588.258 495.823 586.768 498.498 586.768 502.315ZM396.017 501.777C394.906 504.338 394.727 507.163 395.615 508.054C398.253 510.69 400.379 506.987 399.164 501.868C398.089 497.332 397.949 497.329 396.017 501.777ZM217.726 508.672L211.596 513.73L217.438 512.266C222.078 511.1 223.28 511.897 223.28 516.14C223.28 523.777 217.942 526.036 213.596 520.24C210.078 515.551 209.932 515.629 210.742 521.791C211.846 530.176 222.265 531.666 237.936 525.681C250.775 520.775 252.798 514.19 243.472 507.656C235.628 502.159 225.113 502.575 217.726 508.672ZM462.663 514.52C457.898 519.285 458.952 529.08 464.553 532.076C471.321 535.702 477.436 532.923 479.331 525.366C482.073 514.447 470.356 506.826 462.663 514.52ZM14.9234 531.066C13.8511 532.154 12.9762 536.353 12.9762 540.402V547.758L7.56797 542.349C4.59256 539.373 1.64315 537.452 1.01484 538.083C-0.945402 540.041 2.99844 547.758 5.96086 547.758C7.50828 547.758 6.50871 549.475 3.73581 551.57C-1.24916 555.344 -1.24916 555.385 3.75919 555.466C7.69784 555.531 8.12883 556.242 5.70644 558.665C0.529338 563.843 2.21431 567.081 7.56797 562.235C11.6105 558.577 13.5941 558.293 18.1507 560.732C23.2603 563.469 23.5147 563.282 21.0145 558.61C18.657 554.204 19.2619 553.24 25.3582 551.711C31.4102 550.192 31.862 549.49 28.4556 546.899C26.2643 545.229 24.9401 541.562 25.5139 538.753C26.3993 534.416 25.9527 534.144 22.5644 536.956C19.197 539.753 18.4363 539.394 17.7197 534.678C17.2523 531.604 15.9957 529.978 14.9234 531.066ZM288.079 542.767C285.164 548.218 286.303 555.549 290.068 555.549C291.192 555.549 293.392 551.459 294.955 546.46C297.216 539.236 297.099 537.371 294.383 537.371C292.504 537.371 289.668 539.799 288.079 542.767ZM116.085 546.774C112.58 550.28 114.244 557.969 119.068 560.55C125.387 563.934 133.327 558.374 132.018 551.482C131.055 546.411 119.777 543.079 116.085 546.774ZM98.6555 582.815C98.6555 585.196 99.9121 586.723 101.447 586.211C102.981 585.7 104.238 584.17 104.238 582.815C104.238 581.459 102.981 579.93 101.447 579.418C99.9121 578.907 98.6555 580.434 98.6555 582.815ZM402.428 585.412C402.428 588.086 404.128 589.359 406.971 588.813C412.444 587.759 412.099 583.15 406.46 581.976C404.107 581.485 402.428 582.916 402.428 585.412ZM444.488 587.229C438.096 593.622 444.39 603.96 452.726 600.758C458.142 598.681 458.226 587.756 452.843 585.689C447.614 583.682 448.128 583.589 444.488 587.229ZM562.214 604.708C560.441 607.578 564.535 610.678 566.934 608.279C569.401 605.809 568.941 602.291 566.15 602.291C564.805 602.291 563.035 603.379 562.214 604.708ZM144.525 606.619C143.572 607.57 142.793 615.892 142.793 625.114V641.876L136.952 637.684C125.486 629.461 122.394 628.152 120.743 630.826C119.865 632.247 122.069 636.332 125.644 639.907L132.14 646.404L125.133 647.944C112.868 650.645 112.676 651.214 123.97 651.424C130.037 651.536 135.004 652.442 135.004 653.434C135.004 654.428 131.79 658.669 127.864 662.86L120.724 670.479L127.215 667.212C130.785 665.415 135.752 662.162 138.25 659.983C142.435 656.332 142.793 656.573 142.793 663.065C142.793 667.103 143.902 669.427 145.39 668.508C146.818 667.625 147.986 664.605 147.986 661.795C147.986 656.976 148.417 656.914 155.645 660.65C167.168 666.61 171.052 665.241 162.492 658.24L154.929 652.058L165.737 649.147C178.989 645.576 179.83 641.242 167.269 641.242H157.995L163.45 634.306C171.184 624.472 166.01 619.891 156.806 628.422L149.977 634.75L151.712 626.643C154.498 613.618 150.014 601.127 144.525 606.619ZM248.179 612.298C245.601 616.471 249.615 623.374 254.114 622.506C259.644 621.442 259.577 611.691 254.028 610.621C251.663 610.166 249.03 610.922 248.179 612.298ZM81.7792 654.226C79.6606 657.654 82.4984 662.016 86.8473 662.016C90.6457 662.016 94.0314 655.659 91.5519 653.182C89.1321 650.759 83.5525 651.356 81.7792 654.226ZM562.557 658.531C560.591 660.497 565.506 667.21 568.91 667.21C570.164 667.21 571.19 664.873 571.19 662.016C571.19 657.025 566.111 654.976 562.557 658.531ZM365.214 661.151C362.052 664.314 363.425 669.806 367.377 669.806C369.54 669.806 371.271 667.498 371.271 664.613C371.271 659.44 368.504 657.859 365.214 661.151ZM302.902 668.942C300.176 671.668 300.879 679.708 304.016 681.645C305.581 682.614 308.694 681.572 310.932 679.334C314.287 675.979 314.417 674.551 311.665 671.235C308.045 666.872 305.607 666.236 302.902 668.942ZM331.277 680.988C324.657 685.829 326.697 696.826 334.416 697.922C345.9 699.55 351.692 689.547 343.826 681.676C338.867 676.719 337.239 676.628 331.277 680.988ZM187.562 685.662C180.674 688.21 177.647 698.514 181.609 705.92C186.038 714.198 201.639 713.51 205.578 704.863C211.35 692.193 200.668 680.812 187.562 685.662ZM388.007 703.79C387.049 705.343 387.613 707.963 389.262 709.612C391.526 711.877 392.824 711.695 394.576 708.859C397.051 704.855 395.802 700.968 392.042 700.968C390.783 700.968 388.968 702.238 388.007 703.79ZM119.821 708.018C116.241 714.71 120.802 721.742 128.724 721.742C132.294 721.742 135.895 719.849 136.798 717.494C140.651 707.449 124.847 698.628 119.821 708.018ZM360.091 710.417C358.017 712.492 360.362 716.548 363.636 716.548C364.981 716.548 366.079 714.795 366.079 712.653C366.079 708.639 363.015 707.493 360.091 710.417ZM395.158 753.422C390.612 757.969 391.341 762.732 397.056 765.791C400.839 767.816 403.066 767.474 406.143 764.399C408.384 762.155 410.217 759.47 410.217 758.432C410.217 755.552 404.351 750.306 401.129 750.306C399.559 750.306 396.871 751.709 395.158 753.422ZM358.29 758.097C358.29 761.558 360.021 763.29 363.482 763.29C366.943 763.29 368.675 761.558 368.675 758.097C368.675 754.635 366.943 752.903 363.482 752.903C360.021 752.903 358.29 754.635 358.29 758.097ZM244.391 758.985C241.213 762.812 242.989 765.887 248.379 765.887C250.282 765.887 251.84 763.55 251.84 760.693C251.84 754.703 248.568 753.952 244.391 758.985Z" fill="#1F1F1F" stroke="#BE9A58" stroke-width="10" mask="url(#path-1-inside-1_178_4)"/>
</svg>
