<svg width="472" height="794" viewBox="0 0 472 794" fill="none" xmlns="http://www.w3.org/2000/svg">
<path fill-rule="evenodd" clip-rule="evenodd" d="M0.185 15.25C0.372 30.709 0.756 28.884 1.236 10.248C1.381 4.60905 1.163 -0.00295296 0.75 -0.00195296C0.337 -0.000952962 0.083 6.86305 0.185 15.25ZM73.63 2.00005L2.76 2.50005L2.889 23C2.961 34.275 3.013 73.902 3.006 111.059L2.992 178.618L5.923 181.427C7.536 182.971 9.408 185.645 10.085 187.367C13.458 195.952 15.229 199.027 17.895 200.926C19.498 202.066 21.096 203 21.446 203C21.797 203 23.05 203.9 24.23 205C25.411 206.1 26.674 207 27.037 207C28.408 207 31.183 198.257 31.717 192.25C32.023 188.812 32.662 186 33.137 186C33.612 186 34.071 186.563 34.157 187.25C34.244 187.938 34.588 186.25 34.923 183.5C35.52 178.598 33.737 172 31.815 172C31.367 172 31 171.472 31 170.826C31 170.18 32.125 170.708 33.5 172L36 174.349L36.084 158.924C36.13 150.441 36.468 138.355 36.834 132.066C37.442 121.629 37.328 120.409 35.527 118.066C34.004 116.086 33.947 115.813 35.277 116.872C36.888 118.156 37 117.466 37 106.228C37 99.619 36.487 89.552 35.861 83.856C35.235 78.16 34.688 71.138 34.647 68.25L34.571 63H30.823C22.415 63 10.012 70.208 6.4 77.193C5.549 78.839 4.595 79.928 4.28 79.613C3.226 78.559 8.991 71.019 13.16 67.999C17.226 65.054 24.05 62.589 31.125 61.509C34.617 60.977 34.767 60.783 35.212 56.228C35.534 52.934 37.468 48.219 41.587 40.684C44.839 34.735 48.508 27.872 49.74 25.434C50.972 22.995 52.671 21 53.515 21C55.794 21 57.189 25.75 56.823 32.263C56.622 35.854 56.877 37.854 57.5 37.57C66.862 33.295 71.38 32.027 77.711 31.897C84.737 31.752 90.784 33.104 94.473 35.642C96.646 37.138 100 37.467 100 36.184C100 35.735 98.17 34.34 95.934 33.083C90.725 30.156 91.5 29.194 96.863 31.93C101.633 34.364 103.427 34.556 102.658 32.551C102.286 31.582 102.582 31.286 103.551 31.658C106.067 32.623 105.147 29.417 102.502 28.001C101.127 27.265 100.204 26.463 100.449 26.218C101.189 25.478 107.757 29.925 108.401 31.602C108.73 32.461 109 33.893 109 34.784C109 35.676 110.463 37.997 112.25 39.943C114.703 42.614 114.827 42.89 112.754 41.07C109.059 37.826 108.408 38.919 111.004 44.008C112.183 46.318 112.777 47.98 112.324 47.7C111.871 47.42 111.497 50.636 111.493 54.845C111.482 67.242 105.862 76.225 96.082 79.473C93.372 80.373 90.614 81.76 89.955 82.555C89.295 83.35 88.27 84 87.678 84C86.976 84 87.018 83.582 87.8 82.8C88.46 82.14 89 80.763 89 79.741C89 78.719 89.39 78.123 89.866 78.417C92.309 79.927 97.479 69.379 98.532 60.737C98.918 57.567 99.631 54.728 100.117 54.428C101.327 53.68 101.24 54.891 99.446 63.792C98.592 68.031 97.1 72.625 96.132 74C92.769 78.776 92.759 78.93 95.854 78.042C100.982 76.571 103.889 73.927 106.725 68.152C109.115 63.284 109.494 61.321 109.455 54C109.427 48.53 108.853 44.252 107.845 42L106.279 38.5L104.042 45.75C102.812 49.738 101.399 53 100.903 53C99.651 53 99.643 53.035 103 43.837C104.65 39.316 106 34.946 106 34.126C106 33.306 103.515 35.305 100.479 38.568C92.619 47.012 90.602 52.673 90.705 66C90.771 74.586 90.603 75.862 89.784 73C89.232 71.075 89 65.55 89.267 60.723C89.665 53.524 90.314 50.805 92.876 45.6C94.594 42.11 96 39.005 96 38.699C96 37.289 84.395 34 79.418 34C72.654 34 62.314 36.5 59.122 38.908C56.391 40.968 56.311 42.075 57.974 54.831C58.643 59.963 59.035 67.613 58.845 71.831C58.655 76.049 58.883 86.106 59.35 94.18C60.053 106.301 60.451 108.764 61.637 108.309C62.428 108.006 63.69 106.567 64.442 105.112C65.194 103.657 67.315 100.999 69.155 99.205C72.811 95.641 84.363 88.637 82.128 91.34C80.885 92.843 81.194 93.014 85.378 93.15C87.92 93.233 90.563 93.345 91.25 93.4C91.938 93.455 92.422 93.042 92.327 92.481C92.232 91.921 91.892 90.121 91.571 88.481C91.183 86.497 91.518 86.918 92.573 89.738C93.839 93.122 95 94.349 98.329 95.822C103.64 98.171 108.279 103.45 110.477 109.645C113.84 119.127 115.324 122.001 116.902 122.093C126.093 122.626 134.502 120.27 144.002 114.499C150.444 110.585 152.889 108.139 156.493 102C159.121 97.523 159.05 99.937 156.4 105.149C155.321 107.271 155.303 108.007 156.31 108.842C159.415 111.419 168.094 114.216 174.531 114.713C180.806 115.197 182.139 114.963 186.932 112.534L192.303 109.813L191.666 95.824C191.316 88.131 190.552 79.06 189.968 75.668C189.255 71.521 189.216 66.223 189.849 59.5C190.391 53.75 190.416 49.36 189.909 49.171C189.424 48.99 188.008 47.929 186.763 46.812L184.5 44.783L187.331 46.467C190.629 48.43 193.928 47.823 192.078 45.593C191.171 44.501 191.304 44.241 192.715 44.355C193.936 44.454 195.366 42.79 197.242 39.086C198.751 36.108 200.768 32.508 201.726 31.086C202.683 29.664 204.24 26.813 205.184 24.75C206.914 20.975 209.199 19.936 210.684 22.25C211.126 22.938 211.49 28.75 211.493 35.167C211.497 41.583 211.827 47.161 212.228 47.561C213.231 48.564 220.932 45.5 225.08 42.447C229.538 39.166 235.74 29.901 236.623 25.204C237.65 19.737 235.57 9.45905 232.496 4.81505L229.843 0.806047L187.172 1.15305C163.702 1.34405 112.608 1.72505 73.63 2.00005ZM218.033 5.22605C218.015 5.62505 218.898 7.42505 219.996 9.22605C221.185 11.176 221.994 11.837 221.996 10.861C222 9.28505 218.101 3.74205 218.033 5.22605ZM215.032 6.55905C215.049 7.07605 215.724 8.37405 216.532 9.44105C217.339 10.509 217.986 10.959 217.968 10.441C217.951 9.92405 217.276 8.62605 216.468 7.55905C215.661 6.49105 215.014 6.04105 215.032 6.55905ZM227.516 9.80005C227.881 10.515 228.537 13.215 228.972 15.8L229.765 20.5L229.882 16.441C229.951 14.078 229.342 11.571 228.426 10.441C227.56 9.37405 227.151 9.08505 227.516 9.80005ZM231.18 12.087C231.773 13.789 232.031 18.324 231.754 22.192C231.195 30 232.552 29.437 233.55 21.446C233.993 17.904 233.719 15.263 232.643 12.688C230.777 8.22205 229.675 7.76905 231.18 12.087ZM225.625 14C226.438 19.601 227.005 20.4 226.985 15.917C226.976 14.037 226.52 11.825 225.97 11C225.272 9.95205 225.168 10.855 225.625 14ZM69.5 12.713C68.4 12.978 67.05 13.632 66.5 14.168C65.848 14.803 66.369 14.93 68 14.532C69.375 14.197 73.264 13.828 76.642 13.711C80.021 13.595 82.582 13.162 82.333 12.75C81.849 11.945 72.802 11.919 69.5 12.713ZM79 17.033C82.575 17.445 87.075 18.048 89 18.373C92.466 18.958 92.461 18.951 88.5 17.559C86.3 16.786 81.8 16.183 78.5 16.219L72.5 16.284L79 17.033ZM88.5 22.488C91.25 23.234 94.763 24.328 96.307 24.919C97.851 25.51 98.863 25.587 98.556 25.091C97.747 23.781 89.086 20.989 86.072 21.066C84.372 21.109 85.195 21.592 88.5 22.488ZM229.116 22.168C229.052 23.086 228.741 24.661 228.424 25.668C227.879 27.404 227.909 27.407 228.992 25.719C229.62 24.739 229.931 23.164 229.683 22.219C229.277 20.67 229.221 20.665 229.116 22.168ZM94.083 27.373C95.112 28.294 101 30.999 101 30.551C101 29.975 95.456 27 94.383 27C93.989 27 93.854 27.168 94.083 27.373ZM0.079 33.583C0.127 34.748 0.364 34.985 0.683 34.188C0.972 33.466 0.936 32.603 0.604 32.271C0.272 31.939 0.036 32.529 0.079 33.583ZM255.65 37.943C253.016 40.759 249.739 45.512 248.37 48.504C246.188 53.269 245.856 55.489 245.69 66.402C245.511 78.153 245.598 78.771 247.229 77.294C249.502 75.236 252.583 66.828 253.475 60.251C253.867 57.364 254.595 54.75 255.094 54.442C257.401 53.016 253.765 69.019 250.527 74.544L247.997 78.861L251.249 77.961C253.037 77.465 256.187 75.189 258.249 72.902C264.751 65.692 266.654 54.162 263.173 43.065L261.468 37.63L259.058 45.315C257.732 49.542 256.277 53 255.824 53C254.63 53 254.701 52.686 258.029 43.258C259.695 38.537 260.919 34.258 260.749 33.748C260.58 33.239 258.285 35.126 255.65 37.943ZM401.904 38.355C394.085 46.287 392.582 50.465 392.156 65.46C391.832 76.878 391.966 78.273 393.285 77.179C395.501 75.339 398.694 67.207 399.46 61.452C399.83 58.676 400.589 55.751 401.147 54.952C401.868 53.92 401.989 54.735 401.565 57.773C400.33 66.622 398.773 72.056 396.519 75.377L394.192 78.805L396.969 78.009C401.75 76.638 404.602 74.145 407.583 68.733C410.152 64.068 410.467 62.523 410.483 54.5C410.493 49.351 409.909 43.825 409.118 41.585L407.736 37.671L405.27 45.335C403.913 49.551 402.398 53 401.902 53C400.663 53 400.63 53.14 404.032 43.914C405.699 39.391 406.92 35.259 406.744 34.731C406.568 34.203 404.39 35.834 401.904 38.355ZM181.5 38C182.495 39.1 183.535 40 183.81 40C184.085 40 183.495 39.1 182.5 38C181.505 36.9 180.465 36 180.19 36C179.915 36 180.505 36.9 181.5 38ZM0.402 52C0.402 60.525 0.556 64.013 0.743 59.75C0.931 55.487 0.931 48.513 0.743 44.25C0.556 39.987 0.402 43.475 0.402 52ZM186 41.43C186 41.705 186.9 42.411 188 43C189.1 43.589 190 43.845 190 43.57C190 43.295 189.1 42.589 188 42C186.9 41.411 186 41.155 186 41.43ZM181 42.378C181 42.585 181.787 43.373 182.75 44.128C184.336 45.371 184.371 45.336 183.128 43.75C181.821 42.084 181 41.555 181 42.378ZM212.615 49.814C212.339 50.261 212.584 53.974 213.16 58.064C213.736 62.154 213.93 68.568 213.59 72.317C212.868 80.302 214.177 80.51 216.474 72.776C218.273 66.716 218.409 61.003 216.917 54.049C215.924 49.416 214.019 47.541 212.615 49.814ZM0.158 71C0.158 72.375 0.385 72.938 0.662 72.25C0.94 71.563 0.94 70.438 0.662 69.75C0.385 69.063 0.158 69.625 0.158 71ZM0.252 78.5C0.263 80.7 0.468 81.482 0.707 80.238C0.946 78.994 0.937 77.194 0.687 76.238C0.437 75.282 0.241 76.3 0.252 78.5ZM143.087 80.838C142.4 82.121 142.035 83.369 142.276 83.61C143.062 84.395 145.201 81.104 144.762 79.786C144.492 78.976 143.877 79.362 143.087 80.838ZM147.008 82.475C146.353 84.459 143.271 88.856 140.159 92.246C135.502 97.318 135.152 97.918 138.183 95.637C140.208 94.113 142.936 91.433 144.244 89.683C146.973 86.032 149.524 80.19 148.734 79.401C148.44 79.107 147.663 80.49 147.008 82.475ZM53.5 83C53.84 83.55 54.316 84 54.559 84C54.802 84 55 83.55 55 83C55 82.45 54.523 82 53.941 82C53.359 82 53.16 82.45 53.5 83ZM149.61 85.787C148.764 87.422 146.89 90.166 145.444 91.884C143.877 93.746 143.44 94.769 144.36 94.415C146.175 93.719 152.514 84.181 151.702 83.369C151.397 83.064 150.456 84.152 149.61 85.787ZM0.232 88C0.232 89.925 0.438 90.713 0.689 89.75C0.941 88.787 0.941 87.213 0.689 86.25C0.438 85.287 0.232 86.075 0.232 88ZM140 86.5C139.282 87.365 139.185 88 139.771 88C140.329 88 141.045 87.325 141.362 86.5C141.678 85.675 141.781 85 141.591 85C141.401 85 140.685 85.675 140 86.5ZM146.958 95.644C142.606 100.178 143.172 100.791 147.842 96.601C149.969 94.692 152.541 91 151.743 91C151.564 91 149.41 93.09 146.958 95.644ZM0.079 93.583C0.127 94.748 0.364 94.985 0.683 94.188C0.972 93.466 0.936 92.603 0.604 92.271C0.272 91.939 0.036 92.529 0.079 93.583ZM82 94.833C82 95.342 83.353 96.318 85.007 97.003C86.661 97.688 90.824 101.423 94.257 105.302C97.691 109.182 103.137 114.301 106.36 116.678C112.815 121.439 113.137 122.163 107.307 118.81C102.121 115.827 97.338 111.668 92.11 105.598C89.695 102.794 86.853 99.892 85.795 99.148C83.97 97.866 83.906 97.994 84.54 101.648C85.798 108.895 89.548 115.673 93.891 118.547C97.518 120.946 111.649 124.521 112.93 123.362C113.49 122.855 109.233 110.592 106.798 105.698C104.61 101.3 97.418 96.301 92.073 95.465C90.108 95.158 87.037 94.682 85.25 94.408C83.463 94.134 82 94.325 82 94.833ZM237.556 94.909C237.33 95.276 238.441 96.149 240.025 96.851C241.609 97.552 245.739 101.328 249.203 105.241C252.666 109.154 258.2 114.373 261.5 116.838C268.373 121.973 266.447 121.731 258.51 116.463C255.577 114.516 251 110.353 248.339 107.212C243.386 101.366 239.757 97.917 239.17 98.499C238.375 99.288 242.205 111.479 244.071 114.1C246.808 117.944 253.447 121.62 259 122.367C261.475 122.7 264.478 123.247 265.673 123.583C267.516 124.1 267.79 123.837 267.484 121.846C266.825 117.566 262.974 107.56 260.611 103.989C257.78 99.71 249.418 95.371 242.734 94.712C240.113 94.454 237.783 94.542 237.556 94.909ZM383.484 95.025C383.153 95.561 383.67 96 384.632 96C385.595 96 390.474 100.275 395.475 105.5C400.476 110.725 405.103 115 405.758 115C406.413 115 407.616 113.709 408.433 112.13C409.83 109.428 409.75 108.997 407.058 104.752C404.966 101.454 402.764 99.567 398.85 97.718C393.021 94.965 384.45 93.463 383.484 95.025ZM73.777 100.362C67.961 107.32 64.262 113.741 62.972 119.116C62.314 121.862 62.037 124.371 62.359 124.692C64.007 126.34 78.797 120.333 84.376 115.75C87.146 113.475 87.196 113.279 85.746 110.444C84.918 108.825 83.903 105.931 83.489 104.014C82.661 100.175 80.082 96.08 78.462 96.031C77.891 96.014 75.783 97.963 73.777 100.362ZM385.666 101.242C386.829 107.359 390.123 114.952 392.384 116.727C393.626 117.702 396.289 119.385 398.302 120.467C401.942 122.423 401.97 122.423 403.449 120.467C405.614 117.603 405.365 116.758 401.596 114.192C399.731 112.922 396.247 109.418 393.853 106.405C391.459 103.393 388.498 100.266 387.273 99.456C385.099 98.019 385.061 98.061 385.666 101.242ZM138.192 106.092C131.83 111.042 130.958 112.594 136.5 109.103C140.555 106.548 146.742 101.069 145.5 101.133C144.95 101.161 141.662 103.393 138.192 106.092ZM443 106.059C443 106.641 443.45 106.84 444 106.5C444.55 106.16 445 105.684 445 105.441C445 105.198 444.55 105 444 105C443.45 105 443 105.477 443 106.059ZM0.079 108.583C0.127 109.748 0.364 109.985 0.683 109.188C0.972 108.466 0.936 107.603 0.604 107.271C0.272 106.939 0.036 107.529 0.079 108.583ZM140.022 110.554C138.109 111.904 134.509 113.756 132.022 114.67C126.736 116.611 124.293 118.35 128.577 117.121C132.887 115.885 141.422 111.401 142.935 109.578C144.693 107.461 144.142 107.645 140.022 110.554ZM0.37 121C0.37 126.775 0.535 129.137 0.737 126.25C0.939 123.362 0.939 118.638 0.737 115.75C0.535 112.862 0.37 115.225 0.37 121ZM65 125.731C60.744 126.231 58.515 127.98 62.05 128.045L64.5 128.09L62 129.295C60.625 129.958 59.398 131.486 59.272 132.691C59.08 134.536 59.633 134.944 62.772 135.273L66.5 135.664L62.75 135.832C58.574 136.019 57.225 138.938 61.25 139.079C63.389 139.154 63.171 139.311 59.137 140.591C58.047 140.937 58.021 141.321 59.01 142.512C59.789 143.45 59.853 144 59.185 144C58.601 144 58.087 144.787 58.041 145.75C57.995 146.713 57.693 152.828 57.368 159.339C57.011 166.505 57.162 171.562 57.75 172.15C59.281 173.681 66.645 164.564 69.034 158.181C71.49 151.615 73 144.28 73 138.913C73 133.231 71 124.977 69.667 125.16C69.025 125.248 66.925 125.505 65 125.731ZM0.158 134C0.158 135.375 0.385 135.938 0.662 135.25C0.94 134.563 0.94 133.438 0.662 132.75C0.385 132.063 0.158 132.625 0.158 134ZM0.158 139C0.158 140.375 0.385 140.938 0.662 140.25C0.94 139.563 0.94 138.438 0.662 137.75C0.385 137.063 0.158 137.625 0.158 139ZM0.252 146.5C0.263 148.7 0.468 149.482 0.707 148.238C0.946 146.994 0.937 145.194 0.687 144.238C0.437 143.282 0.241 144.3 0.252 146.5ZM0.158 160C0.158 161.375 0.385 161.938 0.662 161.25C0.94 160.563 0.94 159.438 0.662 158.75C0.385 158.063 0.158 158.625 0.158 160ZM17 159.579C17 160.448 15.843 164.051 14.429 167.586C10.012 178.627 11.435 188.421 18.403 194.924C19.831 196.258 21.061 198.508 21.136 199.924L21.272 202.5L21.731 200.059C22.362 196.7 27.028 190.797 28.582 191.393C29.492 191.742 30.054 190.01 30.559 185.29C31.193 179.369 30.998 178.17 28.633 173.499C27.185 170.64 26 167.784 26 167.153C26 165.757 19.121 158 17.884 158C17.398 158 17 158.711 17 159.579ZM15.97 167.742C12.855 175.2 12.789 182.927 15.79 188.682C18.013 192.945 19.691 194.642 20.691 193.642C21.827 192.506 20.951 168.114 19.665 165.055L18.374 161.985L15.97 167.742ZM20.935 164.33C21.507 165.834 22.093 173.348 22.238 181.028C22.382 188.708 22.737 194.994 23.027 194.996C24.176 195.005 29.015 186.438 29.589 183.376C30.049 180.927 29.431 178.489 27.1 173.556C25.395 169.947 24 166.616 24 166.152C24 165.689 23.077 164.474 21.948 163.453C19.914 161.612 19.905 161.62 20.935 164.33ZM175.495 163.586C176.72 166.397 178.096 186.852 177.371 191.477C176.81 195.058 176.908 195.321 178.362 194.115C181.415 191.581 184.125 186.056 184.165 182.281C184.208 178.285 178.233 163.88 175.947 162.467C174.98 161.87 174.868 162.148 175.495 163.586ZM171.05 167.5C167.647 174.947 167.339 180.594 170.001 186.78C172.209 191.914 174.538 194.795 175.612 193.721C176.772 192.562 175.958 168.883 174.649 165.699L173.334 162.5L171.05 167.5ZM137.154 177.615C139.365 185.668 143.472 190.461 150.871 193.627C162.99 198.811 169.456 198.274 158.907 192.959C154.821 190.9 149.527 186.833 144.293 181.73L136.087 173.73L137.154 177.615ZM284.01 179.529C286.403 186.484 289.589 190.116 295.898 193.083C307.938 198.742 316.162 198.63 304.907 192.959C300.81 190.895 295.522 186.828 290.239 181.678L281.978 173.624L284.01 179.529ZM314.477 176.071C313.398 179.472 314.995 185.606 318.278 190.672L321.408 195.5L321.984 191.5C322.302 189.3 322.398 185.467 322.198 182.981C321.89 179.144 321.329 178.13 318.476 176.26C315.144 174.076 315.111 174.075 314.477 176.071ZM146.539 181.658C152.123 187.085 164.013 195 166.583 195C166.828 195 165.689 192.346 164.051 189.102C160.855 182.77 157.232 179.254 153.088 178.462C149.011 177.683 143.684 176.342 141.5 175.545C140.4 175.144 142.668 177.895 146.539 181.658ZM292.605 181.67C296.513 185.426 302.506 189.963 305.923 191.75C309.34 193.537 312.295 195 312.488 195C312.681 195 312.097 193.11 311.189 190.8C309.054 185.365 303.264 179.313 299.477 178.56C294.871 177.643 289.703 176.348 287.5 175.557C286.4 175.163 288.697 177.913 292.605 181.67ZM323.481 187.641C323.471 191.689 323.581 195 323.725 195C324.591 195 330 186.41 330 185.035C330 184.12 328.538 182.676 326.75 181.826L323.5 180.283L323.481 187.641ZM3 186.031C3 188.764 3.387 191 3.86 191C4.334 191 6.359 192.111 8.36 193.47C10.362 194.828 12 195.68 12 195.363C12 193.546 5.756 182.12 4.5 181.638C3.291 181.174 3 182.026 3 186.031ZM3.177 194.637C3.571 196.636 7.195 198.116 8.985 197.009C9.93 196.425 9.436 195.76 7.195 194.601C3.314 192.594 2.774 192.599 3.177 194.637ZM32.457 198.25C32.072 200.037 30.914 203.163 29.885 205.196C28.046 208.829 28.727 211.239 30.865 208.662C32.678 206.478 35 200.228 35 197.532C35 193.917 33.288 194.4 32.457 198.25ZM3.006 203.499L3.012 208.5L13.474 208.749C25.43 209.034 25.708 208.687 18.406 202.584C14.489 199.309 13.165 198.787 8.444 198.653L3 198.498L3.006 203.499ZM32.534 208.567C31.513 210.462 31.015 212.347 31.425 212.756C32.312 213.64 36 209.361 36 207.448C36 204.7 34.325 205.241 32.534 208.567ZM330.066 210.43L327.747 212.898L330.331 213.547C334.092 214.491 334.828 213.844 333.535 210.731L332.384 207.962L330.066 210.43ZM9.462 209.592C8.933 209.72 7.263 210.098 5.75 210.432C3.246 210.984 3 211.442 3 215.551C3 219.993 3.037 220.044 5.371 218.782C7.806 217.465 15 211.388 15 210.647C15 210.108 10.708 209.29 9.462 209.592ZM16.932 214.421C15.856 216.853 13.575 220.021 11.863 221.462C10.15 222.903 8.983 224.316 9.268 224.602C10.077 225.41 25.286 220.044 27.274 218.249C29.649 216.104 27.829 214.108 25.292 216.075C23.594 217.393 23.588 217.361 25.179 215.482C27.503 212.738 25.862 210 21.894 210C19.3 210 18.619 210.607 16.932 214.421ZM157 211.657C148.451 215.392 146.472 216.7 144.674 219.797C143.622 221.611 143.003 223.336 143.299 223.632C143.595 223.928 147.586 223.02 152.169 221.613C157.746 219.901 162.054 217.807 165.202 215.278C167.788 213.2 169.926 211.162 169.952 210.75C170.037 209.42 160.61 210.08 157 211.657ZM303 211.657C294.855 215.215 292.417 216.912 290.848 220.122C289.939 221.98 289.34 223.651 289.517 223.835C289.693 224.02 293.677 222.999 298.371 221.568C304.292 219.762 308.276 217.823 311.388 215.232C313.855 213.18 315.901 211.162 315.936 210.75C316.049 209.419 306.609 210.08 303 211.657ZM11.5 216.598C9.3 218.575 6.487 220.589 5.25 221.072C3.947 221.581 3 222.802 3 223.975C3 225.089 3.198 226 3.439 226C4.547 226 13.639 217.477 14.782 215.366C15.487 214.065 15.937 213 15.782 213.001C15.627 213.001 13.7 214.62 11.5 216.598ZM166.02 216.872C161.587 220.766 155.912 223.25 148.5 224.542C145.185 225.12 144.842 225.378 146.5 226.049C149.707 227.348 155.873 227.117 158.831 225.587C162.432 223.725 172.557 213 170.714 213C170.556 213 168.444 214.743 166.02 216.872ZM312 217.002C307.582 220.928 302.44 223.141 294.5 224.536C291.183 225.119 290.841 225.377 292.5 226.049C295.707 227.348 301.873 227.117 304.831 225.587C308.378 223.753 318.569 212.991 316.75 213.001C316.613 213.002 314.475 214.802 312 217.002ZM410.5 338C410.84 338.55 411.316 339 411.559 339C411.802 339 412 338.55 412 338C412 337.45 411.523 337 410.941 337C410.359 337 410.16 337.45 410.5 338ZM0.079 406.583C0.127 407.748 0.364 407.985 0.683 407.188C0.972 406.466 0.936 405.603 0.604 405.271C0.272 404.939 0.036 405.529 0.079 406.583ZM0.32 434C0.32 437.575 0.502 439.038 0.723 437.25C0.945 435.462 0.945 432.538 0.723 430.75C0.502 428.962 0.32 430.425 0.32 434ZM401 429C401 429.55 401.45 430 402 430C402.55 430 403 429.55 403 429C403 428.45 402.55 428 402 428C401.45 428 401 428.45 401 429ZM0.195 445.5C0.215 447.15 0.439 447.704 0.693 446.731C0.947 445.758 0.93 444.408 0.656 443.731C0.382 443.054 0.175 443.85 0.195 445.5ZM449.845 502.466C447.834 503.216 445.048 504.578 443.653 505.492L441.116 507.154L441.308 521.726C441.487 535.278 441.64 536.353 443.5 537.079C445.273 537.771 445.204 537.867 442.892 537.93C440.445 537.996 440.245 538.378 439.642 544.147C439.289 547.527 439 557.926 439 567.255V584.217L441.75 583.676L444.5 583.136L441.75 584.261C437.868 585.849 438.059 588.438 442 587.65C443.65 587.32 445 587.287 445 587.577C445 587.867 443.65 588.575 442 589.15C440.35 589.725 439 590.815 439 591.573C439 592.6 439.589 592.726 441.316 592.07C443.898 591.088 448.216 590.666 452 591.025C453.375 591.156 451.404 591.622 447.62 592.061C443.836 592.501 440.407 593.229 440.001 593.68C439.594 594.131 439.467 596.105 439.719 598.067L440.176 601.633L445.338 599.813C451.141 597.767 460.31 598.126 465.412 600.598C467.014 601.374 468.433 601.894 468.565 601.754C468.698 601.614 468.957 579 469.141 551.5L469.476 501.5L461.488 501.301C456.708 501.182 452.032 501.65 449.845 502.466ZM71.5 517.951C69.842 518.622 70.185 518.88 73.5 519.457C79.813 520.556 87.575 523.918 90.145 526.665C91.44 528.05 93.355 529.644 94.401 530.208C99.08 532.729 88.439 521.443 82.691 517.788C81.147 516.806 74.072 516.909 71.5 517.951ZM217 517.952C214.696 518.645 214.813 518.761 218.5 519.429C223.951 520.417 232.657 523.882 234.122 525.647C234.782 526.442 236.652 528.04 238.277 529.197C241 531.136 241.15 531.152 240.195 529.401C238.985 527.182 232.592 521.027 229.027 518.649C226.468 516.942 221.344 516.645 217 517.952ZM373.5 517.956C371.712 518.685 371.818 518.839 374.5 519.413C382.697 521.169 388.511 523.697 392.571 527.272C398.237 532.258 398.394 530.074 392.75 524.789C384.827 517.369 379.542 515.493 373.5 517.956ZM68.004 520.643C68.006 521.114 68.912 522.984 70.019 524.798C72.768 529.309 83.207 534.015 90.343 533.962L95.5 533.923L90.526 529.541C86.782 526.242 83.691 524.609 78.026 522.938C73.887 521.716 69.938 520.507 69.25 520.251C68.563 519.995 68.002 520.172 68.004 520.643ZM213.073 520.75C213.633 526.499 224.567 533.123 234.5 533.731L240.5 534.098L235.922 529.799C232.388 526.481 229.407 524.872 222.862 522.75C213.663 519.767 212.963 519.624 213.073 520.75ZM371.064 523.899C373.338 527.946 374.112 528.49 382.605 532.007C386.036 533.428 389.304 534.02 392.574 533.811L397.438 533.5L392.13 529.284C388.393 526.315 384.365 524.317 378.517 522.534C373.949 521.14 369.91 520 369.541 520C369.173 520 369.858 521.755 371.064 523.899ZM247 531C247 531.55 247.477 532 248.059 532C248.641 532 248.84 531.55 248.5 531C248.16 530.45 247.684 530 247.441 530C247.198 530 247 530.45 247 531ZM411.5 539.095C408.75 540.187 405.753 541.962 404.84 543.04C403.927 544.118 402.577 545.018 401.84 545.041C399.511 545.111 394.131 550.443 392.535 554.261C390.71 558.629 390.636 559.343 392.1 558.438C393.875 557.341 391.399 561.44 389.305 563.065C387.577 564.406 387.574 564.378 389.25 562.404C392.721 558.315 390.902 558.679 386.558 562.943C379.595 569.777 375.033 582.132 375.012 594.218C375.001 600.499 375.179 601.04 377.75 602.532C379.262 603.409 379.6 603.833 378.5 603.474C367.244 599.797 354.727 600.848 343.502 606.411C336.673 609.796 327.405 617.852 328.135 619.768C328.353 620.339 331.428 620.032 335.75 619.008C339.738 618.063 343 617.684 343 618.166C343 618.649 341.893 620.721 340.539 622.771C339.186 624.822 337.176 629.432 336.072 633.016C333.951 639.899 329.533 645.256 323.462 648.306C319.881 650.105 310.197 652.013 308.314 651.29C306.671 650.66 306.601 652.201 308.2 653.8C308.867 654.467 308.956 655 308.4 655C307.85 655 306.862 654.462 306.204 653.804C304.727 652.327 303.186 654.176 299.5 661.852C296.181 668.763 294.033 677.972 294.015 685.375L294 691.25L297.125 690.625C298.844 690.281 303.46 690 307.382 690H314.515L314.163 682.25C313.97 677.987 314.302 672.925 314.9 671C315.824 668.03 315.916 668.711 315.509 675.5C314.945 684.889 316.549 692.865 320.263 699.147C323.051 703.864 331 712.11 331 710.286C331 709.67 329.45 704.516 327.556 698.833C325.661 693.15 323.79 686.025 323.397 683C322.344 674.9 317.209 664.135 315.037 665.477C314.179 666.007 312.76 661.907 313.534 661.133C313.783 660.883 314.837 661.448 315.876 662.387C316.914 663.327 319.378 664.542 321.351 665.086C326.768 666.582 331.022 670.771 334.167 677.707C337.444 684.936 337.826 691.41 335.5 700.339C334.675 703.506 334 707.23 334 708.615C334 709.999 333.519 712.03 332.931 713.128C331.94 714.98 331.375 714.629 325.173 708.313C320.704 703.763 318.007 700.056 317.049 697.152C315.236 691.655 312.751 690.605 303.517 691.432C298.393 691.891 294.598 693.014 289.267 695.648C281.121 699.673 281.687 698.326 281.977 713C282.12 720.239 280.493 723.787 277.55 722.657C276.593 722.29 275.575 721.092 275.288 719.995C274.654 717.571 274.183 717.524 271.829 719.655C270.823 720.565 270 720.845 270 720.277C270 719.71 270.675 718.685 271.5 718C273.102 716.67 273.549 714 272.17 714C271.713 714 269.885 716.025 268.107 718.5C266.33 720.975 264.663 723 264.403 723C263.639 723 266.106 718.73 268.607 715.723C270.001 714.047 270.665 712.291 270.282 711.293C269.403 709.002 261.507 717.754 258.371 724.495C256.227 729.104 256.181 729.541 257.774 730.143C259.15 730.663 258.791 731.104 256 732.319C254.075 733.158 251.119 735.341 249.43 737.172C246.19 740.684 242.613 745.985 243.17 746.448C243.352 746.599 294.242 747.007 356.261 747.355L469.021 747.987L468.761 705.244L468.5 662.5L462 660.285C455.098 657.934 446.788 657.37 442.584 658.968C440.04 659.935 440.039 659.94 440.137 672.218C440.192 678.973 439.718 688.163 439.085 692.64C438.453 697.116 438.041 705.223 438.172 710.655C438.425 721.228 437.965 723 434.969 723C433.63 723 432.419 721.52 430.935 718.071C429.769 715.361 427.957 712.366 426.908 711.416C425.858 710.467 425 709.048 425 708.263C425 707.479 423.35 704.061 421.334 700.668C418.59 696.052 417.554 693.053 417.214 688.75C416.964 685.587 416.4 683 415.96 683C415.127 683 412.602 690.188 411.508 695.673C410.936 698.539 411.196 699 414.187 700.426C416.009 701.295 418.85 703.172 420.5 704.597L423.5 707.189L420 705.028C413.244 700.858 409.536 699.715 402.5 699.637C393.719 699.539 385.23 702.54 378.457 708.137C372.132 713.363 369.419 717.149 366.735 724.49C365.457 727.987 364.392 729.755 364.19 728.718C363.596 725.683 369.449 714.694 374.086 710.139C376.514 707.755 380.3 704.756 382.5 703.476C388.179 700.171 398.527 697.725 404.691 698.23L409.883 698.655L410.554 694.577C410.924 692.335 412.3 687.835 413.613 684.578C414.926 681.32 416 677.015 416 675.011C416 673.007 416.432 668.922 416.959 665.934C418.074 659.617 419.158 615.09 418.317 610.162C417.766 606.935 417.627 606.847 414.124 607.498C408.715 608.502 403.193 611.973 399.917 616.428C398.312 618.609 397 619.791 397 619.054C397 618.317 399.137 615.616 401.75 613.051C405.987 608.892 408.638 607.537 416.529 605.498C417.212 605.322 417.402 598.053 417.094 583.866C416.839 572.115 416.653 556.763 416.681 549.75C416.709 542.737 416.68 537.025 416.616 537.055C416.552 537.085 414.25 538.003 411.5 539.095ZM229.5 547.321C217.013 551.342 210.702 556.24 208.138 563.899C205.994 570.302 207.009 570.086 214.065 562.637C218.933 557.499 223.286 554.046 228.065 551.535C231.879 549.531 235 547.739 235 547.552C235 546.588 232.147 546.468 229.5 547.321ZM398.081 551.019C395.633 553.922 393.682 557.361 393.452 559.178C393.234 560.906 391.884 564.089 390.452 566.251C389.021 568.414 388.073 570.406 388.345 570.679C388.617 570.951 389.64 569.954 390.617 568.462L392.393 565.751L395.535 575.381C397.263 580.677 398.976 585.309 399.342 585.675C400.675 587.008 405.246 581.329 408.491 574.309C412.606 565.407 413.366 562.093 412.072 558.688C410.954 555.75 403.94 546 402.943 546C402.597 546 400.409 548.258 398.081 551.019ZM83 547.669C82.175 547.949 80.082 548.814 78.349 549.59C76.616 550.365 74.806 551 74.327 551C73.848 551 71.779 552.382 69.73 554.071C66.443 556.781 66.138 557.397 67.138 559.321C67.761 560.519 68.426 561.678 68.615 561.896C68.804 562.114 70.956 560.452 73.396 558.203C75.836 555.954 80.57 552.731 83.916 551.042C87.262 549.353 90 547.753 90 547.486C90 546.865 84.973 546.997 83 547.669ZM384 547.947C378.339 549.702 371.727 553.462 368.749 556.619C366.049 559.481 363.067 566.159 363.015 569.459C363.007 569.987 366.509 566.837 370.799 562.459C375.843 557.311 380.591 553.528 384.241 551.747C387.346 550.233 390.163 548.546 390.502 547.997C391.216 546.841 387.657 546.813 384 547.947ZM84.322 552.692C75.848 557.367 69.653 562.996 70.523 565.229C71.704 568.256 81.298 565.711 85.136 561.352C87.251 558.95 91.207 551.08 90.808 550.067C90.639 549.636 87.72 550.817 84.322 552.692ZM229.802 552.392C223.948 555.639 211 566.415 211 568.04C211 568.564 212.118 568.525 213.636 567.948C215.087 567.397 217.899 566.693 219.886 566.385C225.464 565.519 229.781 563.095 231.887 559.644C234.404 555.52 237.087 548.969 236.199 549.116C235.815 549.18 232.936 550.655 229.802 552.392ZM247.516 561.251C247.524 568.069 246.975 575.495 246.276 578C245.586 580.475 245.027 582.725 245.033 583C245.051 583.782 248.953 578.592 248.978 577.753C248.99 577.342 250.362 574.123 252.027 570.599C254.645 565.058 254.932 563.654 254.156 560.2C253.485 557.211 248.696 548.992 247.631 549.001C247.559 549.002 247.507 554.514 247.516 561.251ZM385.9 552.721C381.947 554.771 376.735 558.736 372.9 562.61L366.5 569.077L370.876 567.539C373.282 566.692 376.44 566 377.894 566C382.254 566 387.565 561.589 390.55 555.488C392.044 552.433 393.095 549.791 392.884 549.617C392.673 549.442 389.53 550.839 385.9 552.721ZM404.203 554.526C404.386 562.607 403.391 576.928 402.433 580C401.731 582.251 401.82 582.363 403.327 581.128C404.247 580.373 405 579.335 405 578.821C405 578.308 406.35 575.167 408 571.841C412.327 563.121 411.962 557.952 406.565 551.526L404.067 548.551L404.203 554.526ZM97.408 552.657C94.838 556.149 92.705 562.374 93.268 564.742C93.542 565.898 94.794 564.198 96.922 559.782C100.586 552.177 100.874 547.948 97.408 552.657ZM242.203 553.25C237.433 561.157 237.254 565.329 241.21 576.336L243.308 582.172L244.572 579.166C245.268 577.512 245.914 571.736 246.009 566.33C246.255 552.374 246.12 550 245.082 550C244.576 550 243.281 551.462 242.203 553.25ZM399.745 551.729C397.05 554.708 395 560.604 395 565.379C395 569.812 398.603 581 400.03 581C400.444 581 401.102 579.763 401.491 578.25C402.518 574.262 403.019 554.226 402.151 551.88C401.436 549.946 401.363 549.941 399.745 551.729ZM107.325 564C106.678 567.025 105.864 570.4 105.516 571.5C105.168 572.6 105.834 571.784 106.998 569.686C108.354 567.241 109.003 564.55 108.807 562.186C108.51 558.617 108.463 558.674 107.325 564ZM384.5 570C383.106 572.75 382.191 575 382.466 575C382.741 575 384.106 572.75 385.5 570C386.894 567.25 387.809 565 387.534 565C387.259 565 385.894 567.25 384.5 570ZM385.056 578.556C383.909 582.267 383.192 585.525 383.462 585.795C384.015 586.349 384.266 585.7 386.444 578.08C388.698 570.192 387.513 570.598 385.056 578.556ZM290.047 576.5C290.023 577.986 291.808 580.526 292.435 579.898C292.735 579.599 292.323 578.487 291.521 577.427C290.72 576.367 290.056 575.95 290.047 576.5ZM385.684 586.382C385.308 587.362 385.049 589.814 385.11 591.832L385.219 595.5L386.105 591C387.054 586.175 386.806 583.457 385.684 586.382ZM446.75 587.662C447.438 587.94 448.563 587.94 449.25 587.662C449.938 587.385 449.375 587.158 448 587.158C446.625 587.158 446.063 587.385 446.75 587.662ZM387.672 591.891C387.302 593.738 387.049 596.206 387.11 597.375C387.17 598.544 387.618 597.475 388.105 595C388.592 592.525 388.845 590.057 388.667 589.516C388.489 588.974 388.041 590.043 387.672 591.891ZM444.5 594.535C442.376 595.558 442.183 595.809 443.838 595.395C445.124 595.073 448.397 594.827 451.112 594.848C453.958 594.87 455.801 594.487 455.465 593.943C454.592 592.53 447.914 592.891 444.5 594.535ZM457 594.335C457 594.593 458.452 595.311 460.227 595.929C462.002 596.548 463.015 596.643 462.477 596.14C461.338 595.074 457 593.644 457 594.335ZM390.158 598C390.158 599.375 390.385 599.938 390.662 599.25C390.94 598.563 390.94 597.438 390.662 596.75C390.385 596.063 390.158 596.625 390.158 598ZM443.694 601.614L439.888 603.258L440.543 608.879C441.276 615.179 444.512 626.942 446.765 631.5C447.581 633.15 450.739 637.774 453.782 641.776L459.317 649.051L461.606 646.9C462.866 645.717 464.196 643.343 464.561 641.624C464.927 639.906 466.076 636.612 467.113 634.305C468.651 630.886 469 627.7 469 617.081V604.051L465.846 602.421C461.195 600.015 448.465 599.552 443.694 601.614ZM335.5 620.57C332.75 621.335 329.375 621.981 328 622.004C326.625 622.028 323.26 623.274 320.523 624.773C316.504 626.975 315.034 628.559 312.884 633C311.42 636.025 309.928 640.181 309.569 642.235C308.677 647.328 310.381 646.529 317.159 638.676C323.026 631.879 325.332 629.834 331.714 625.772C337.879 621.848 336.907 623.781 330.351 628.482C327.297 630.672 322.943 634.722 320.675 637.482C314.853 644.569 312.277 646.892 309.458 647.6C308.106 647.939 307 648.67 307 649.224C307 650.899 318.035 649.017 322.983 646.498C329.571 643.144 331.67 640.369 335.132 630.445C336.838 625.552 338.969 620.99 339.867 620.307C341.828 618.814 341.807 618.815 335.5 620.57ZM190.891 620.442C190.648 620.685 187.579 621.346 184.07 621.911C172.797 623.727 166.608 630.214 164.427 642.5L163.717 646.5L166.044 644.5C167.324 643.4 169.739 640.925 171.411 639C176.86 632.724 182.287 628.009 186.937 625.508C190.925 623.364 191.122 623.331 188.5 625.248C186.85 626.454 180.967 632.067 175.428 637.72C169.888 643.374 164.6 648 163.678 648C162.755 648 162 648.492 162 649.094C162 650.878 171.882 649.149 177.801 646.329C181.172 644.723 183.985 642.468 185.528 640.137C187.678 636.888 191.622 626.56 192.548 621.753C192.859 620.135 191.932 619.401 190.891 620.442ZM160 632C160 632.55 160.45 633 161 633C161.55 633 162 632.55 162 632C162 631.45 161.55 631 161 631C160.45 631 160 631.45 160 632ZM441.618 639.75C441.311 641.813 440.952 646.65 440.82 650.5C440.624 656.219 440.847 657.431 442.04 657.126C446.664 655.94 458.027 656.918 462.472 658.884C465.102 660.048 467.567 661 467.948 661C468.33 661 468.745 658.75 468.871 656C469.097 651.031 469.08 651 466.014 651C463.132 651 463.007 651.148 464.11 653.25C465.236 655.395 465.203 655.424 463.396 653.867C462.353 652.968 459.7 651.32 457.5 650.204C453.353 648.101 448.603 643.507 445.657 638.75C443.351 635.026 442.281 635.291 441.618 639.75ZM466.359 641.056C465.802 643.775 465.629 646 465.973 646C467.556 646 469 643.309 469 640.359C469 635.233 467.469 635.637 466.359 641.056ZM464.441 648.523C462.589 649.975 462.635 650.033 465.423 649.773C467.03 649.623 468.53 648.938 468.756 648.25C469.324 646.522 466.787 646.682 464.441 648.523ZM142.574 657.25C142.258 658.212 141.789 659.675 141.531 660.5C141.033 662.095 142.342 662.316 145.33 661.139C147.08 660.449 147.073 660.312 145.154 657.959C143.373 655.776 143.084 655.696 142.574 657.25ZM300.559 665.514C298.304 670.91 298.777 672.321 301.092 667.104C302.164 664.687 302.834 662.5 302.579 662.246C302.325 661.992 301.416 663.462 300.559 665.514ZM170.551 677.251C170.617 691.977 172.3 697.05 179.808 705.159C182.897 708.496 185.568 710.795 185.744 710.268C185.92 709.74 184.736 705.709 183.114 701.308C181.491 696.907 179.39 689.3 178.445 684.403C176.925 676.524 172.719 665.998 171.091 666.001C170.766 666.001 170.523 671.064 170.551 677.251ZM174 666.221C174 666.417 174.883 668.309 175.962 670.426C177.042 672.543 178.651 677.701 179.538 681.888C180.426 686.074 182.347 693.29 183.808 697.923L186.465 706.346L188.31 700.423C192.659 686.467 186.629 669.512 176.25 666.515C175.012 666.158 174 666.025 174 666.221ZM319 666.432C319 666.789 319.867 668.3 320.927 669.79C321.986 671.281 323.557 676.1 324.417 680.5C326.419 690.744 331.181 706.254 332.02 705.262C332.375 704.843 333.19 702.103 333.832 699.174C336.406 687.431 334.504 677.991 328.169 671.062C324.981 667.576 319 664.556 319 666.432ZM301.098 673.149C300.494 674.881 300.052 677.469 300.115 678.899C300.21 681.039 300.356 680.88 300.942 678C301.333 676.075 301.987 673.487 302.394 672.25C302.801 671.013 302.923 670 302.665 670C302.407 670 301.702 671.417 301.098 673.149ZM304.624 673.539C303.659 676.053 303.943 676.702 305.122 674.675C305.706 673.671 305.973 672.639 305.715 672.382C305.458 672.124 304.966 672.645 304.624 673.539ZM303.252 681.5C303.263 683.7 303.468 684.482 303.707 683.238C303.946 681.994 303.937 680.194 303.687 679.238C303.437 678.282 303.241 679.3 303.252 681.5ZM307.123 680C307.04 680.825 306.723 682.625 306.418 684C305.938 686.161 306.016 686.259 306.997 684.721C307.621 683.743 307.938 681.943 307.702 680.721C307.466 679.5 307.205 679.175 307.123 680ZM16.5 685C16.84 685.55 17.316 686 17.559 686C17.802 686 18 685.55 18 685C18 684.45 17.523 684 16.941 684C16.359 684 16.16 684.45 16.5 685ZM386.409 693.806C384.159 694.738 381.234 696.281 379.909 697.236C378.339 698.367 379.241 698.165 382.5 696.656C385.25 695.383 388.625 693.845 390 693.238C394.045 691.454 390.882 691.954 386.409 693.806ZM396.813 694.683C397.534 694.972 398.397 694.936 398.729 694.604C399.061 694.272 398.471 694.036 397.417 694.079C396.252 694.127 396.015 694.364 396.813 694.683ZM371.482 698.014C369.396 699.672 366.367 702.934 364.751 705.264L361.812 709.5L365.352 705.5C367.299 703.3 370.604 700.044 372.696 698.265C377.5 694.18 376.553 693.984 371.482 698.014ZM386.5 697.063C383.75 698.14 380.375 699.941 379 701.065C377.012 702.69 377.62 702.559 381.971 700.425C384.98 698.95 389.03 697.157 390.971 696.442C392.912 695.726 393.825 695.133 393 695.123C392.175 695.112 389.25 695.985 386.5 697.063ZM373.437 702.25L370.5 705.5L373.75 702.563C376.779 699.825 377.46 699 376.687 699C376.515 699 375.052 700.462 373.437 702.25ZM359.083 707.114C356.837 710.477 355.018 713.739 355.04 714.364C355.062 714.989 355.806 714.15 356.693 712.5C357.58 710.85 359.295 708.15 360.505 706.5C363.261 702.742 364.254 701 363.642 701C363.38 701 361.328 703.751 359.083 707.114ZM350.366 714.513C348.977 717.545 348.002 720.506 348.197 721.092C348.393 721.679 349.717 719.199 351.139 715.58C354.284 707.577 353.829 706.949 350.366 714.513ZM267.624 723.539C266.659 726.053 266.943 726.702 268.122 724.675C268.706 723.671 268.973 722.639 268.715 722.382C268.458 722.124 267.966 722.645 267.624 723.539ZM2.722 747.611C2.325 748.008 1.968 758.271 1.93 770.417C1.887 783.681 1.516 791.701 1 790.5C0.239 788.728 0.133 788.814 0.07 791.252L0 794.004L235.75 793.752L471.5 793.5L471.691 790.5L471.882 787.5L470.746 790.254L469.611 793.008L239.055 792.9C112.25 792.841 7.375 792.418 6 791.961C4.625 791.503 108.238 791.213 236.25 791.315L469 791.5V770.75V750L410.25 749.94C377.938 749.907 347.9 749.735 343.5 749.559C339.1 749.382 263.5 748.948 175.5 748.592C87.5 748.237 12.788 747.708 9.472 747.417C6.157 747.126 3.12 747.214 2.722 747.611ZM135.75 762.065C133.977 763.113 133.398 767.548 134.765 769.605C135.169 770.213 137.152 771.248 139.17 771.906C143.964 773.469 145.688 775.466 144 777.5C142.001 779.908 139.055 779.261 137.203 776.006C134.918 771.99 134 772.228 134 776.835V780.671L139.091 780.571C144.471 780.466 147 778.602 147 774.743C147 772.033 145.158 769 143.512 769C141.014 769 137 766.724 137 765.308C137 762.546 140.256 762.597 142.664 765.396C144.525 767.559 145.134 767.814 145.591 766.622C146.856 763.328 145.587 761.696 141.5 761.359C139.3 761.178 136.713 761.496 135.75 762.065ZM149 761.893C149 762.384 149.675 763.045 150.5 763.362C152.749 764.225 152.638 777.544 150.372 778.812C148.099 780.084 149.876 780.857 153.726 780.271C156.543 779.842 156.823 779.537 155.929 777.868C154.783 775.727 155.736 764.281 157.132 763.419C159.273 762.095 157.628 761 153.5 761C151.025 761 149 761.402 149 761.893ZM161.483 762.028C161.133 762.593 161.768 763.831 162.894 764.778C164.019 765.725 165.606 767.819 166.42 769.43C167.746 772.057 167.727 772.653 166.234 775.182C165.317 776.733 163.758 778.259 162.769 778.573C160.318 779.351 161.547 781 164.578 781C166.653 781 166.947 780.636 166.455 778.676C166.092 777.229 166.436 775.883 167.366 775.111C168.595 774.091 169.063 774.249 170 775.999C170.86 777.607 170.847 778.479 169.947 779.564C168.944 780.773 169.408 781 172.878 781C175.145 781 177 780.771 177 780.491C177 780.212 175.65 778.119 174 775.841C172.35 773.564 171 770.823 171 769.751C171 768.679 172.35 766.541 174 765C177.763 761.485 177.75 761 173.892 761C171.164 761 170.853 761.277 171.35 763.258C171.662 764.5 171.477 766.188 170.939 767.008C170.098 768.293 169.757 768.231 168.481 766.559C166.76 764.303 166.584 763 168 763C168.55 763 169 762.55 169 762C169 760.68 162.301 760.705 161.483 762.028ZM193.241 763.25C190.363 766.322 189.166 769.886 189.733 773.69C190.347 777.805 192.89 780.043 197.672 780.677C202.739 781.349 206.013 778.067 206.744 771.583C207.21 767.445 206.968 766.772 204.022 764.021C200.124 760.38 196.193 760.099 193.241 763.25ZM208 761.96C208 762.532 208.675 763 209.5 763C210.698 763 211 764.487 211 770.383C211 777.044 210.794 777.821 208.899 778.316C205.148 779.297 207.85 780.787 212.74 780.433C215.358 780.244 217.922 780.069 218.439 780.044C218.955 780.02 218.366 779.058 217.131 777.908C214.823 775.758 214.557 771.967 216.665 771.273C217.306 771.062 218.124 771.815 218.483 772.945C219.378 775.767 221 775.534 221 772.582C221 768.465 219.985 766.767 218.341 768.132C216.134 769.964 214.706 767.902 215.938 764.663C217.222 761.286 218.661 761.306 222.278 764.75L225.165 767.5L224.832 764.5L224.5 761.5L216.25 761.21C211.017 761.025 208 761.3 208 761.96ZM237.453 762.075C237.04 762.744 237.407 763.648 238.294 764.144C239.16 764.629 240.869 768.282 242.093 772.263C244.762 780.949 245.686 782.231 246.514 778.395C246.857 776.803 247.617 774.375 248.201 773C249.231 770.578 249.315 770.651 250.882 775.347C251.772 778.013 252.943 780.177 253.484 780.156C254.026 780.136 255.224 777.125 256.148 773.466C257.071 769.807 258.799 765.778 259.989 764.512C261.178 763.247 261.779 761.997 261.325 761.735C259.73 760.816 246.993 761.501 247.116 762.5C247.184 763.05 247.636 764.542 248.12 765.815C249.316 768.961 249.242 769.554 247.476 771.02C245.323 772.807 244.563 771.588 244.468 766.192C244.389 761.699 244.254 761.487 241.286 761.194C239.582 761.025 237.857 761.422 237.453 762.075ZM267.196 762.75C266.715 763.712 265.279 767.352 264.006 770.838C262.732 774.324 260.86 777.695 259.845 778.329C257.097 780.045 257.603 781.002 261.25 780.985C265.776 780.963 267.575 779.722 265.535 778.029C263.622 776.442 265.209 774 268.154 774C270.881 774 271.73 776.993 269.471 778.645C268.452 779.39 267.816 780.04 268.059 780.088C274.483 781.375 282.678 779.775 277.116 778.32C275.605 777.925 274.58 776.224 273.389 772.137C270.022 760.574 269.033 759.075 267.196 762.75ZM281 761.635C281 761.985 282.077 763.269 283.394 764.489C285.405 766.353 285.735 767.484 285.459 771.569C285.252 774.653 284.523 776.876 283.466 777.649C281.204 779.303 282.488 781 286 781C289.144 781 290.974 779.22 289.052 778.032C287.479 777.06 286.461 769.451 287.794 768.627C288.357 768.279 290.771 771.033 293.159 774.747L297.5 781.5L297.79 772.703C298.007 766.11 298.445 763.766 299.54 763.346C302.384 762.255 300.943 761 296.845 761C292.883 761 292.767 761.085 294.345 762.829C295.304 763.889 295.991 766.306 295.978 768.579L295.956 772.5L294 770C292.925 768.625 291.339 766.038 290.475 764.25C289.097 761.396 288.424 761 284.953 761C282.779 761 281 761.286 281 761.635ZM304 761.571C304 761.886 304.722 762.865 305.605 763.748C306.85 764.992 307.117 766.817 306.796 771.863C306.553 775.674 305.888 778.537 305.191 778.77C304.536 778.988 304 779.64 304 780.218C304 780.903 306.505 781.089 311.194 780.754C317.076 780.333 318.719 779.83 320.207 777.993C323.994 773.315 323.768 768.199 319.572 763.672C317.374 761.3 316.36 761 310.548 761C306.946 761 304 761.257 304 761.571ZM327.8 762.221C323.957 765.179 325.593 770.262 330.9 771.852C335.853 773.336 337.73 775.415 336 777.5C334.001 779.908 331.055 779.261 329.203 776.006C326.923 771.998 326 772.226 326 776.797V780.595L330.25 780.455C336.815 780.24 336.984 780.172 338.07 777.316C339.253 774.204 337.598 769 335.426 769C333.001 769 329 766.701 329 765.308C329 762.564 332.253 762.593 334.632 765.359L336.949 768.052L337.595 765.479C337.95 764.065 337.956 762.622 337.608 762.274C336.345 761.011 329.421 760.974 327.8 762.221ZM197.693 762.752C194.38 763.516 192.842 771.825 194.975 777.435C196.222 780.714 200.414 780.963 202.077 777.857C203.56 775.085 202.76 765.291 200.914 763.617C200.136 762.912 198.687 762.523 197.693 762.752ZM310.68 764.75C310.282 766.28 310.359 772.138 310.842 777.133C311.096 779.757 314.816 780.114 317.039 777.728C319.451 775.138 319.669 768.4 317.443 765.223C315.567 762.543 311.33 762.247 310.68 764.75ZM252.478 767.75C252.863 769.813 253.388 771.712 253.644 771.971C254.494 772.832 255.969 769.541 255.985 766.75C255.997 764.614 255.529 764 253.889 764C251.991 764 251.848 764.38 252.478 767.75ZM266.639 768.694C265.444 769.889 265.994 772 267.5 772C268.325 772 269 771.352 269 770.559C269 768.888 267.573 767.761 266.639 768.694ZM0.195 791.5C0.215 793.15 0.439 793.704 0.693 792.731C0.947 791.758 0.93 790.408 0.656 789.731C0.382 789.054 0.175 789.85 0.195 791.5Z" fill="black"/>
</svg>
