<svg width="167" height="42" viewBox="0 0 167 42" fill="none" xmlns="http://www.w3.org/2000/svg">
<path fill-rule="evenodd" clip-rule="evenodd" d="M46.8737 0.648772C44.8407 1.46977 45.4467 2.98677 47.8077 2.98677C53.8567 2.98677 61.5357 9.57577 63.1447 16.1468C63.9087 19.2688 62.8847 19.6688 55.4807 19.1398C52.1707 18.9038 50.6237 18.3518 50.6237 17.4058C50.6237 16.6428 49.3717 14.6168 47.8417 12.9038C45.6707 10.4748 43.9887 9.66977 40.1917 9.24177C36.6737 8.84477 35.5207 9.01077 36.0327 9.83977C36.4227 10.4708 37.5747 10.9868 38.5937 10.9868C39.6127 10.9868 41.6107 12.3718 43.0347 14.0638C47.6807 19.5858 45.8687 27.0618 39.1437 30.1168L35.1237 31.9428L39.4737 31.9648C43.1027 31.9828 44.3877 31.4228 47.2237 28.5868C49.0937 26.7168 50.6237 24.2368 50.6237 23.0748C50.6237 21.1278 51.1307 20.9738 57.1237 21.1038C63.0417 21.2318 63.6227 21.4348 63.6077 23.3658C63.5597 29.5008 54.8007 37.9318 48.4327 37.9708C44.1087 37.9968 44.2137 39.7988 48.6087 40.9828C57.9977 43.5108 68.3067 38.2398 72.6197 28.7068C74.1307 25.3678 74.4837 25.1138 75.6537 26.5228C78.3927 29.8228 82.4937 31.1848 86.1047 29.9928C87.9527 29.3838 90.0157 28.2188 90.6907 27.4058C91.7267 26.1568 92.3627 26.7038 94.7657 30.9108C99.4577 39.1268 107.777 42.6208 118.707 40.9688C122.392 40.4118 121.989 37.9908 118.207 37.9708C111.383 37.9338 102.687 29.6768 102.64 23.1888C102.625 21.0038 102.93 20.9058 108.874 21.1888C114.445 21.4548 115.158 21.7258 115.437 23.6888C115.938 27.2098 122.111 31.9868 126.159 31.9868C128.065 31.9868 129.624 31.5368 129.624 30.9868C129.624 30.4368 128.703 29.9868 127.576 29.9868C124.249 29.9868 120.624 25.2578 120.624 20.9178C120.624 16.2388 124.638 10.9868 128.213 10.9868C129.539 10.9868 130.624 10.5368 130.624 9.98677C130.624 8.23677 124.249 8.91777 120.768 11.0398C118.923 12.1648 116.925 14.3788 116.328 15.9598C115.313 18.6488 114.84 18.8538 108.932 19.1598C103.269 19.4528 102.62 19.2898 102.622 17.5748C102.623 16.5228 103.743 13.7538 105.11 11.4208C107.678 7.03877 114.082 2.98677 118.44 2.98677C120.974 2.98677 121.353 1.48077 119.042 0.593771C116.506 -0.379229 108.002 -0.106233 104.939 1.04677C101.278 2.42477 95.0757 8.48077 93.5467 12.1718L92.3447 15.0738L90.1867 13.0458C85.8067 8.93077 79.1157 9.49577 75.7337 14.2648C74.4037 16.1398 74.2817 16.0788 72.9287 12.8558C69.6597 5.07377 61.8267 -0.0602286 53.4137 0.0657714C50.5037 0.108771 47.5617 0.371772 46.8737 0.648772ZM54.7527 2.94277C56.7487 4.02477 59.5107 6.25277 60.8917 7.89277C62.2717 9.53377 63.5797 10.6968 63.7977 10.4788C64.0167 10.2608 64.2647 10.8478 64.3487 11.7848C64.4327 12.7208 64.8137 15.6298 65.1947 18.2488C66.3837 26.4348 62.3087 33.8608 54.1237 38.4208L51.1237 40.0918L55.6237 39.5138C64.5717 38.3658 72.7287 29.4538 72.5477 21.0248C72.4477 16.3988 70.1857 10.4128 68.6687 10.7618C68.0127 10.9128 67.7727 10.5558 68.1357 9.96777C69.6617 7.49877 62.2847 2.76377 55.1237 1.61677L51.1237 0.975767L54.7527 2.94277ZM109.624 1.92277C94.8077 4.91277 88.7347 21.6468 98.3287 33.0478C101.527 36.8488 104.918 38.5878 110.624 39.3548L115.124 39.9598L112.032 38.5348C108.503 36.9088 102.94 30.9468 101.557 27.3108C100.019 23.2648 100.496 16.1578 102.58 12.0728C104.398 8.50877 107.702 5.16477 112.24 2.29577C114.363 0.953767 114.402 0.958766 109.624 1.92277ZM78.2657 14.1348C76.3347 15.8128 75.5227 17.5168 75.4347 20.0798C75.2847 24.4628 75.9157 25.5698 79.6787 27.5148C83.3437 29.4108 87.0187 28.5708 89.6397 25.2398C93.7247 20.0468 91.0987 13.4018 84.5487 12.3538C81.7117 11.8998 80.4147 12.2678 78.2657 14.1348ZM79.2787 16.8158C78.3687 17.8218 77.6237 19.5518 77.6237 20.6608C77.6237 25.1578 84.8587 27.8178 87.7187 24.3718C89.1237 22.6788 89.8357 15.7378 88.5217 16.5498C88.1037 16.8078 87.4797 16.5618 87.1337 16.0028C86.1007 14.3308 81.0547 14.8528 79.2787 16.8158ZM30.5537 18.5708C29.6247 19.6908 29.5367 20.6248 30.2527 21.7608C31.6637 23.9968 32.9047 24.2328 35.0407 22.6708C36.5647 21.5568 36.6797 20.9588 35.7147 19.1578C34.3427 16.5938 32.3807 16.3708 30.5537 18.5708ZM130.713 18.3798C129.257 20.1338 130.854 23.9868 133.037 23.9868C135.361 23.9868 137.145 21.0358 135.959 19.1528C134.55 16.9158 132.214 16.5708 130.713 18.3798ZM18.9597 19.5538C18.1717 21.6078 19.7537 23.1428 21.5277 22.0458C23.0387 21.1118 22.3427 17.9868 20.6237 17.9868C20.0387 17.9868 19.2907 18.6918 18.9597 19.5538ZM143.947 19.5878C143.239 21.4318 145.658 23.3528 146.998 22.0128C148.09 20.9208 147.088 17.9868 145.624 17.9868C145.039 17.9868 144.285 18.7068 143.947 19.5878ZM0.166701 19.9178C-0.516299 21.0228 1.06069 22.2168 1.98469 21.2928C2.93469 20.3418 2.75769 18.9868 1.68269 18.9868C1.16469 18.9868 0.482701 19.4058 0.166701 19.9178ZM8.3177 19.6258C7.5187 20.4248 8.42169 21.9868 9.68269 21.9868C10.2007 21.9868 10.6237 21.3118 10.6237 20.4868C10.6237 18.9408 9.4437 18.4998 8.3177 19.6258ZM155.624 20.4868C155.624 21.3118 156.074 21.9868 156.624 21.9868C157.174 21.9868 157.624 21.3118 157.624 20.4868C157.624 19.6618 157.174 18.9868 156.624 18.9868C156.074 18.9868 155.624 19.6618 155.624 20.4868ZM164.177 19.9018C163.855 20.4228 164.018 21.1118 164.539 21.4338C165.06 21.7558 165.749 21.5928 166.071 21.0718C166.393 20.5508 166.23 19.8618 165.709 19.5398C165.188 19.2178 164.499 19.3808 164.177 19.9018Z" fill="black"/>
</svg>
