<svg width="244" height="273" viewBox="0 0 244 273" fill="none" xmlns="http://www.w3.org/2000/svg">
<path fill-rule="evenodd" clip-rule="evenodd" d="M241.691 1C241.691 1.55 242.141 2 242.691 2C243.241 2 243.691 1.55 243.691 1C243.691 0.45 243.241 0 242.691 0C242.141 0 241.691 0.45 241.691 1ZM241.691 7C241.691 7.55 242.141 8 242.691 8C243.241 8 243.691 7.55 243.691 7C243.691 6.45 243.241 6 242.691 6C242.141 6 241.691 6.45 241.691 7ZM242.274 11.866C241.843 12.563 241.761 13.403 242.091 13.733C242.986 14.628 243.962 13.312 243.478 11.862C243.14 10.846 242.904 10.846 242.274 11.866ZM241.691 19C241.691 19.55 242.141 20 242.691 20C243.241 20 243.691 19.55 243.691 19C243.691 18.45 243.241 18 242.691 18C242.141 18 241.691 18.45 241.691 19ZM242.274 23.866C241.843 24.563 241.761 25.403 242.091 25.733C242.986 26.628 243.962 25.312 243.478 23.862C243.14 22.846 242.904 22.846 242.274 23.866ZM241.691 29.882C241.691 30.432 242.141 31.16 242.691 31.5C243.241 31.84 243.691 31.668 243.691 31.118C243.691 30.568 243.241 29.84 242.691 29.5C242.141 29.16 241.691 29.332 241.691 29.882ZM166.902 35.611C166.192 36.375 166.047 37 166.578 37C167.11 37 167.75 37.788 168.002 38.75C168.437 40.417 168.465 40.417 168.575 38.75C168.639 37.788 169.479 36.964 170.441 36.921C171.835 36.858 171.886 36.726 170.691 36.271C169.866 35.957 168.966 35.367 168.691 34.961C168.416 34.554 167.611 34.847 166.902 35.611ZM241.691 35.941C241.691 36.459 242.141 37.16 242.691 37.5C243.241 37.84 243.691 37.416 243.691 36.559C243.691 35.702 243.241 35 242.691 35C242.141 35 241.691 35.423 241.691 35.941ZM241.691 42.5C241.691 43.325 242.141 44 242.691 44C243.241 44 243.691 43.325 243.691 42.5C243.691 41.675 243.241 41 242.691 41C242.141 41 241.691 41.675 241.691 42.5ZM241.691 48C241.691 48.55 242.141 49 242.691 49C243.241 49 243.691 48.55 243.691 48C243.691 47.45 243.241 47 242.691 47C242.141 47 241.691 47.45 241.691 48ZM241.691 54C241.691 54.55 242.141 55 242.691 55C243.241 55 243.691 54.55 243.691 54C243.691 53.45 243.241 53 242.691 53C242.141 53 241.691 53.45 241.691 54ZM241.691 60C241.691 60.55 242.141 61 242.691 61C243.241 61 243.691 60.55 243.691 60C243.691 59.45 243.241 59 242.691 59C242.141 59 241.691 59.45 241.691 60ZM241.691 67C241.691 67.55 242.141 68 242.691 68C243.241 68 243.691 67.55 243.691 67C243.691 66.45 243.241 66 242.691 66C242.141 66 241.691 66.45 241.691 67ZM173.691 71C173.691 71.55 174.141 72 174.691 72C175.241 72 175.691 71.55 175.691 71C175.691 70.45 175.241 70 174.691 70C174.141 70 173.691 70.45 173.691 71ZM241.691 74.5C241.691 75.325 242.141 76 242.691 76C243.241 76 243.691 75.325 243.691 74.5C243.691 73.675 243.241 73 242.691 73C242.141 73 241.691 73.675 241.691 74.5ZM141.909 75.977C142.604 77.09 143.514 78 143.932 78C145.375 78 144.684 76.476 142.668 75.218C140.792 74.046 140.737 74.101 141.909 75.977ZM241.691 80C241.691 80.55 242.141 81 242.691 81C243.241 81 243.691 80.55 243.691 80C243.691 79.45 243.241 79 242.691 79C242.141 79 241.691 79.45 241.691 80ZM241.691 86.5C241.691 87.325 242.141 88 242.691 88C243.241 88 243.691 87.325 243.691 86.5C243.691 85.675 243.241 85 242.691 85C242.141 85 241.691 85.675 241.691 86.5ZM241.691 92.5C241.691 93.325 242.141 94 242.691 94C243.241 94 243.691 93.325 243.691 92.5C243.691 91.675 243.241 91 242.691 91C242.141 91 241.691 91.675 241.691 92.5ZM241.691 98.5C241.691 99.325 242.141 100 242.691 100C243.241 100 243.691 99.325 243.691 98.5C243.691 97.675 243.241 97 242.691 97C242.141 97 241.691 97.675 241.691 98.5ZM129.691 105C129.691 105.55 130.114 106 130.632 106C131.15 106 131.851 105.55 132.191 105C132.531 104.45 132.107 104 131.25 104C130.393 104 129.691 104.45 129.691 105ZM170.191 105C169.851 105.55 170.275 106 171.132 106C171.989 106 172.691 105.55 172.691 105C172.691 104.45 172.268 104 171.75 104C171.232 104 170.531 104.45 170.191 105ZM241.691 105C241.691 105.55 242.141 106 242.691 106C243.241 106 243.691 105.55 243.691 105C243.691 104.45 243.241 104 242.691 104C242.141 104 241.691 104.45 241.691 105ZM241.349 111.449C240.977 112.418 241.273 112.714 242.242 112.342C243.039 112.036 243.691 111.384 243.691 110.893C243.691 109.455 241.956 109.867 241.349 111.449ZM241.349 117.449C240.977 118.418 241.273 118.714 242.242 118.342C243.039 118.036 243.691 117.384 243.691 116.893C243.691 115.455 241.956 115.867 241.349 117.449ZM241.691 123.5C241.691 124.325 242.141 125 242.691 125C243.241 125 243.691 124.325 243.691 123.5C243.691 122.675 243.241 122 242.691 122C242.141 122 241.691 122.675 241.691 123.5ZM241.691 129.559C241.691 130.416 242.141 130.84 242.691 130.5C243.241 130.16 243.691 129.459 243.691 128.941C243.691 128.423 243.241 128 242.691 128C242.141 128 241.691 128.702 241.691 129.559ZM156.77 131.25C156.727 132.212 156.129 133.007 155.441 133.015C154.576 133.026 154.53 133.257 155.291 133.765C155.896 134.169 156.648 135.175 156.962 136C157.417 137.195 157.549 137.144 157.612 135.75C157.655 134.788 158.254 133.993 158.941 133.985C159.806 133.974 159.852 133.743 159.091 133.235C158.486 132.831 157.734 131.825 157.42 131C156.965 129.805 156.833 129.856 156.77 131.25ZM241.349 135.449C240.977 136.418 241.273 136.714 242.242 136.342C243.039 136.036 243.691 135.384 243.691 134.893C243.691 133.455 241.956 133.867 241.349 135.449ZM241.691 141C241.691 141.55 242.141 142 242.691 142C243.241 142 243.691 141.55 243.691 141C243.691 140.45 243.241 140 242.691 140C242.141 140 241.691 140.45 241.691 141ZM241.691 147C241.691 147.55 242.141 148 242.691 148C243.241 148 243.691 147.55 243.691 147C243.691 146.45 243.241 146 242.691 146C242.141 146 241.691 146.45 241.691 147ZM241.691 153C241.691 153.55 242.141 154 242.691 154C243.241 154 243.691 153.55 243.691 153C243.691 152.45 243.241 152 242.691 152C242.141 152 241.691 152.45 241.691 153ZM241.349 159.449C240.977 160.418 241.273 160.714 242.242 160.342C243.039 160.036 243.691 159.384 243.691 158.893C243.691 157.455 241.956 157.867 241.349 159.449ZM241.349 164.551C241.655 165.348 242.307 166 242.798 166C244.236 166 243.824 164.265 242.242 163.658C241.273 163.286 240.977 163.582 241.349 164.551ZM241.691 170.441C241.691 171.298 242.141 172 242.691 172C243.241 172 243.691 171.577 243.691 171.059C243.691 170.541 243.241 169.84 242.691 169.5C242.141 169.16 241.691 169.584 241.691 170.441ZM242.274 175.866C241.843 176.563 241.761 177.403 242.091 177.733C242.986 178.628 243.962 177.312 243.478 175.862C243.14 174.846 242.904 174.846 242.274 175.866ZM242.274 181.866C241.843 182.563 241.761 183.403 242.091 183.733C242.986 184.628 243.962 183.312 243.478 181.862C243.14 180.846 242.904 180.846 242.274 181.866ZM241.691 188.5C241.691 189.325 242.141 190 242.691 190C243.241 190 243.691 189.325 243.691 188.5C243.691 187.675 243.241 187 242.691 187C242.141 187 241.691 187.675 241.691 188.5ZM241.691 208.844C241.691 225.368 241.643 225.744 239.192 228.594C237.818 230.193 236.693 232.455 236.692 233.622C236.691 235.298 235.902 235.874 232.941 236.36C225.13 237.642 217.503 245.233 216.185 253.037C215.816 255.217 215.078 257 214.544 257C214.01 257 213.851 256.55 214.191 256C215.385 254.068 213.55 255.03 210.387 257.995C207.231 260.953 207.05 260.991 196 260.995C189.623 260.998 184.543 261.43 184.191 262C183.784 262.658 193.847 263 213.632 263H243.691V227.5C243.691 204.5 243.339 192 242.691 192C242.064 192 241.691 198.281 241.691 208.844ZM239.876 230.277C239.283 230.992 238.678 237.493 238.503 245.027L238.191 258.5L226.191 258.745C211.309 259.05 206.097 260.21 216.191 260.972C220.041 261.262 227.354 261.357 232.441 261.181L241.691 260.863V244.931C241.691 236.169 241.521 229 241.313 229C241.106 229 240.459 229.575 239.876 230.277ZM233.691 233.5C233.691 234.325 234.141 235 234.691 235C235.241 235 235.691 234.325 235.691 233.5C235.691 232.675 235.241 232 234.691 232C234.141 232 233.691 232.675 233.691 233.5ZM229.691 234C229.691 234.55 230.141 235 230.691 235C231.241 235 231.691 234.55 231.691 234C231.691 233.45 231.241 233 230.691 233C230.141 233 229.691 233.45 229.691 234ZM225.691 236C225.691 236.55 226.141 237 226.691 237C227.241 237 227.691 236.55 227.691 236C227.691 235.45 227.241 235 226.691 235C226.141 235 225.691 235.45 225.691 236ZM222.691 238.059C222.691 238.641 223.141 238.84 223.691 238.5C224.241 238.16 224.691 237.684 224.691 237.441C224.691 237.198 224.241 237 223.691 237C223.141 237 222.691 237.477 222.691 238.059ZM231.576 238.38C223.871 241.133 219.642 245.994 218.057 253.92C217.58 256.305 217.792 257 218.999 257C219.855 257 220.84 255.987 221.186 254.75C223.138 247.781 228.045 242.399 233.355 241.403C235.738 240.956 236.691 240.238 236.691 238.889C236.691 236.69 236.389 236.66 231.576 238.38ZM219.201 241.016C219.547 241.575 220.248 241.774 220.76 241.457C222.147 240.6 221.889 240 220.132 240C219.275 240 218.856 240.457 219.201 241.016ZM216.691 244C216.691 244.55 217.141 245 217.691 245C218.241 245 218.691 244.55 218.691 244C218.691 243.45 218.241 243 217.691 243C217.141 243 216.691 243.45 216.691 244ZM228.888 245.454C225.936 247.377 224.702 249.389 223.191 254.75C222.68 256.562 222.958 257 224.624 257C226.118 257 226.691 256.358 226.691 254.687C226.691 252.075 231.171 247.379 234.18 246.836C235.273 246.638 236.318 245.697 236.502 244.744C236.956 242.386 233.037 242.752 228.888 245.454ZM232.547 249.516C231.093 250.306 229.429 252.313 228.849 253.976L227.795 257H232.243H236.691V252.5C236.691 247.58 236.442 247.4 232.547 249.516ZM5.88073 252.026C2.04973 254.362 -0.744277 260.129 0.176723 263.801C0.524723 265.185 2.31174 267.821 4.14974 269.659C6.89374 272.403 8.25272 273 11.7577 273C16.0737 273 16.5087 271.877 12.4147 271.304C11.1917 271.132 9.17873 269.844 7.94073 268.44C3.24473 263.114 6.58673 252.147 12.9407 252.032C13.9027 252.014 14.6907 251.55 14.6907 251C14.6907 249.288 9.35073 249.91 5.88073 252.026ZM213.234 250.931C212.917 251.443 213.116 252.144 213.675 252.49C214.234 252.835 214.691 252.416 214.691 251.559C214.691 249.802 214.091 249.544 213.234 250.931ZM15.7367 259.444C13.0357 262.699 17.5057 266.614 20.5017 263.618C21.7747 262.344 21.9057 261.563 21.0667 260.231C19.6067 257.913 17.2917 257.571 15.7367 259.444ZM29.0267 260.567C28.1927 262.739 30.3087 264.782 31.8237 263.267C33.1037 261.987 32.3107 259 30.6907 259C30.1057 259 29.3577 259.705 29.0267 260.567ZM99.7027 261.023C100.944 263.341 101.691 263.56 101.691 261.607C101.691 260.841 101.006 259.951 100.168 259.629C98.9247 259.153 98.8397 259.409 99.7027 261.023ZM40.6907 261.5C40.6907 262.325 41.1407 263 41.6907 263C42.2407 263 42.6907 262.325 42.6907 261.5C42.6907 260.675 42.2407 260 41.6907 260C41.1407 260 40.6907 260.675 40.6907 261.5ZM46.6907 260.941C46.6907 261.459 47.1407 262.16 47.6907 262.5C48.2407 262.84 48.6907 262.416 48.6907 261.559C48.6907 260.702 48.2407 260 47.6907 260C47.1407 260 46.6907 260.423 46.6907 260.941ZM52.3847 260.639C51.5857 261.438 52.4887 263 53.7497 263C54.2677 263 54.6907 262.325 54.6907 261.5C54.6907 259.954 53.5107 259.513 52.3847 260.639ZM58.2337 260.931C57.5507 262.036 59.1277 263.23 60.0517 262.306C61.0017 261.355 60.8247 260 59.7497 260C59.2317 260 58.5497 260.419 58.2337 260.931ZM64.2437 260.915C63.9217 261.436 64.0847 262.125 64.6057 262.447C65.1267 262.769 65.8157 262.606 66.1377 262.085C66.4597 261.564 66.2967 260.875 65.7757 260.553C65.2547 260.231 64.5657 260.394 64.2437 260.915ZM69.6907 261.5C69.6907 262.417 70.1747 263.005 70.7657 262.808C71.3567 262.611 71.8407 262.023 71.8407 261.5C71.8407 260.977 71.3567 260.389 70.7657 260.192C70.1747 259.995 69.6907 260.583 69.6907 261.5ZM76.2437 260.915C75.9217 261.436 76.0847 262.125 76.6057 262.447C77.1267 262.769 77.8157 262.606 78.1377 262.085C78.4597 261.564 78.2967 260.875 77.7757 260.553C77.2547 260.231 76.5657 260.394 76.2437 260.915ZM82.2437 260.915C81.9217 261.436 82.0847 262.125 82.6057 262.447C83.1267 262.769 83.8157 262.606 84.1377 262.085C84.4597 261.564 84.2967 260.875 83.7757 260.553C83.2547 260.231 82.5657 260.394 82.2437 260.915ZM87.6907 260.941C87.6907 261.459 88.1407 262.16 88.6907 262.5C89.2407 262.84 89.6907 262.416 89.6907 261.559C89.6907 260.702 89.2407 260 88.6907 260C88.1407 260 87.6907 260.423 87.6907 260.941ZM93.6907 260.941C93.6907 261.459 94.1407 262.16 94.6907 262.5C95.2407 262.84 95.6907 262.416 95.6907 261.559C95.6907 260.702 95.2407 260 94.6907 260C94.1407 260 93.6907 260.423 93.6907 260.941ZM105.691 261.5C105.691 262.325 106.141 263 106.691 263C107.241 263 107.691 262.325 107.691 261.5C107.691 260.675 107.241 260 106.691 260C106.141 260 105.691 260.675 105.691 261.5ZM111.691 261.5C111.691 262.325 112.141 263 112.691 263C113.241 263 113.691 262.325 113.691 261.5C113.691 260.675 113.241 260 112.691 260C112.141 260 111.691 260.675 111.691 261.5ZM117.691 260.941C117.691 261.459 118.141 262.16 118.691 262.5C119.241 262.84 119.691 262.416 119.691 261.559C119.691 260.702 119.241 260 118.691 260C118.141 260 117.691 260.423 117.691 260.941ZM123.691 261C123.691 261.55 124.141 262 124.691 262C125.241 262 125.691 261.55 125.691 261C125.691 260.45 125.241 260 124.691 260C124.141 260 123.691 260.45 123.691 261ZM129.691 260.941C129.691 261.459 130.141 262.16 130.691 262.5C131.241 262.84 131.691 262.416 131.691 261.559C131.691 260.702 131.241 260 130.691 260C130.141 260 129.691 260.423 129.691 260.941ZM135.691 261C135.691 261.55 136.141 262 136.691 262C137.241 262 137.691 261.55 137.691 261C137.691 260.45 137.241 260 136.691 260C136.141 260 135.691 260.45 135.691 261ZM141.691 261.559C141.691 262.416 142.141 262.84 142.691 262.5C143.241 262.16 143.691 261.459 143.691 260.941C143.691 260.423 143.241 260 142.691 260C142.141 260 141.691 260.702 141.691 261.559ZM147.234 260.931C146.551 262.036 148.128 263.23 149.052 262.306C150.002 261.355 149.825 260 148.75 260C148.232 260 147.55 260.419 147.234 260.931ZM152.841 260.95C153.061 261.61 153.567 262.116 153.966 262.075C155.162 261.951 154.93 260.58 153.641 260.15C152.981 259.93 152.621 260.29 152.841 260.95ZM159.244 260.915C158.922 261.436 159.085 262.125 159.606 262.447C160.127 262.769 160.816 262.606 161.138 262.085C161.46 261.564 161.297 260.875 160.776 260.553C160.255 260.231 159.566 260.394 159.244 260.915ZM166.244 260.915C165.922 261.436 166.085 262.125 166.606 262.447C167.127 262.769 167.816 262.606 168.138 262.085C168.46 261.564 168.297 260.875 167.776 260.553C167.255 260.231 166.566 260.394 166.244 260.915ZM171.691 260.893C171.691 261.384 172.366 262.045 173.191 262.362C174.105 262.712 174.691 262.363 174.691 261.469C174.691 260.661 174.016 260 173.191 260C172.366 260 171.691 260.402 171.691 260.893ZM178.244 260.915C177.922 261.436 178.085 262.125 178.606 262.447C179.127 262.769 179.816 262.606 180.138 262.085C180.46 261.564 180.297 260.875 179.776 260.553C179.255 260.231 178.566 260.394 178.244 260.915Z" fill="black"/>
</svg>
