<svg width="470" height="793" viewBox="0 0 470 793" fill="none" xmlns="http://www.w3.org/2000/svg">
<path fill-rule="evenodd" clip-rule="evenodd" d="M36.75 0.762613C8.353 0.965613 0 1.30661 0 2.26261C0 3.23861 18.682 3.46061 88.25 3.30961C161.044 3.15161 175.799 3.34161 172.5 4.39461C160.918 8.09061 149.898 17.3996 144.768 27.8206C141.9 33.6456 141.5 35.4406 141.502 42.4796C141.503 49.0216 141.922 51.2096 143.773 54.3446L146.043 58.1876L142.951 61.7086C140.002 65.0676 139.528 65.2396 132.68 65.4466C124.895 65.6816 120.474 67.4126 111.684 73.6656L106.868 77.0916L103.406 74.0526C98.622 69.8516 93.722 67.5316 85.365 65.5116C77.233 63.5446 61.921 63.6786 59.867 65.7336C58.89 66.7106 60.283 66.8386 66.582 66.3536C77.461 65.5146 87.227 67.3336 96.868 71.9966C101.213 74.0976 105.04 76.2566 105.372 76.7936C105.704 77.3316 104 80.7186 101.584 84.3206C96.134 92.4476 92.962 100.68 92.267 108.501C91.974 111.801 91.289 115.064 90.745 115.751C89.985 116.711 90.77 117.006 94.128 117.023C102.812 117.067 111.202 123.229 112.58 130.577C112.943 132.511 113.041 136.495 112.797 139.431C112.222 146.372 107.432 153.253 100.75 156.737C95.411 159.521 94.452 161.305 98.996 160.002C106.072 157.973 113.435 149.388 114.657 141.742C115.303 137.705 117 135.586 117 138.816C117 139.88 116.345 142.606 115.544 144.875C113.779 149.88 114.53 150.371 116.551 145.533C118.19 141.61 118.526 134.558 117.029 135.483C116.495 135.813 115.779 134.827 115.436 133.292C114.146 127.503 113.707 126.42 111.411 123.353C108.635 119.646 101.639 116.001 97.298 116.001C94.656 116.001 94.166 115.586 93.79 113.024C93.14 108.594 97.57 94.4986 101.731 87.7576C109.033 75.9276 120.717 68.0396 132.15 67.2216C135.918 66.9526 139 66.9956 139 67.3176C139 67.6396 138.307 70.5126 137.459 73.7016C133.657 88.0146 141.088 105.342 153.5 111.101C155.7 112.122 158.204 112.967 159.065 112.979C159.925 112.991 161.341 114.464 162.211 116.251C167.093 126.286 177.394 132.934 189.399 133.796C194.429 134.157 196.106 133.981 195.59 133.146C195.2 132.516 192.894 132.001 190.464 132.001C180.62 132.001 166.943 123.313 163.588 114.929C162.689 112.682 161.654 108.066 161.288 104.672C160.674 98.9736 160.568 98.7626 159.902 101.924C159.506 103.807 159.427 106.856 159.726 108.701C160.268 112.037 160.256 112.049 157.396 110.962C145.963 106.615 139.213 96.9146 138.286 83.5006C137.358 70.0616 144.367 58.6216 157.337 52.4066C166.981 47.7846 173.968 46.4636 181.442 47.8496C188.651 49.1856 190.038 48.5376 183.635 46.8256C181.086 46.1436 179 45.0796 179 44.4606C179 41.9906 187.586 27.7416 192.182 22.5856C198.273 15.7516 207.914 10.7026 218.18 8.96961C235.458 6.05261 258.088 10.8896 270.756 20.2076C276.292 24.2786 286.331 35.7456 289.483 41.5986L291.347 45.0606L287.863 48.7806C281.485 55.5896 273.012 69.3456 274.363 70.6966C274.637 70.9706 275.842 69.2386 277.041 66.8476C282.156 56.6516 292.1 45.5836 299.657 41.6776C303.597 39.6406 315.821 36.3516 322.659 35.4886C332.447 34.2536 345.076 38.9146 352.424 46.4756C357.258 51.4496 359 56.2736 359 64.6856C359 80.5866 351.573 90.2866 339.397 90.2866C333.476 90.2866 326.246 86.8776 324.426 83.2286C322.664 79.6946 321.754 79.2236 322.996 82.4886C324.587 86.6736 325.957 88.0706 330.5 90.1376C339.481 94.2226 349.802 91.7246 355.424 84.1036C359.905 78.0296 362.281 61.3596 359.582 54.9286C358.165 51.5516 372.986 48.2916 381.991 49.9986C400.777 53.5616 410.432 60.3606 417.28 74.8496C426.31 93.9536 417.242 123.033 399.49 131.899C396.95 133.168 394.722 134.047 394.539 133.853C394.356 133.66 394.896 130.311 395.739 126.413C397.231 119.508 396.852 108.001 395.132 108.001C394.734 108.001 394.411 111.938 394.414 116.751C394.422 131.905 389.934 141.626 379.979 148.014C372.638 152.725 360.778 155.921 353.708 155.094C353.272 155.043 354.102 152.976 355.553 150.501C359.075 144.492 357.465 144.919 352.445 151.325C347.052 158.207 334.723 168.615 328.454 171.577C319.872 175.631 309.22 177.285 295.061 176.76C281.046 176.241 273.897 174.17 267.835 168.876L264.5 165.963L266.75 164.36C267.988 163.478 269 162.284 269 161.705C269 161.126 267.958 161.631 266.686 162.827C263.824 165.515 262.801 165.543 260.5 163.001C259.505 161.901 258.231 161.001 257.671 161.001C257.11 161.001 257.707 162.124 258.996 163.497C260.286 164.87 261.103 166.232 260.811 166.523C259.563 167.772 249.061 170.871 244 171.484C233.134 172.801 216.75 167.434 209.25 160.1C202.204 153.211 198.218 140.797 199.463 129.619C199.828 126.34 199.683 124.918 199.049 125.552C198.512 126.089 197.843 129.282 197.561 132.648C196.961 139.816 198.926 148.491 202.552 154.679C203.898 156.977 205 159.493 205 160.269C205 161.046 203.629 164.426 201.953 167.78C197.664 176.363 189.213 184.496 180 188.909C173.003 192.26 171.863 192.5 163 192.483C154.177 192.467 153.001 192.217 146.5 188.983C137.474 184.493 137.597 184.54 138.443 185.909C138.84 186.552 141.603 188.453 144.583 190.135L150 193.192L148.25 196.321C145.409 201.401 136.913 209.154 131.517 211.59C116.38 218.426 100.713 216.229 89.25 205.664C84.036 200.858 83.572 202.507 88.696 207.631L92.393 211.327L87.99 215.119C81.284 220.895 72.268 225.076 65.122 225.724C45.378 227.514 28.399 217.415 22.496 200.37C21.188 196.592 20.091 194.123 20.059 194.883C19.972 196.933 13.019 195.734 6.498 192.544C1.9 190.294 1.062 189.448 0.72 186.707C0.5 184.944 0.346 191.151 0.377 200.501C0.424 214.396 0.492 215.181 0.747 204.802L1.059 192.103L4.436 194.096C6.294 195.192 10.607 196.658 14.02 197.355C19.843 198.542 20.304 198.843 21.463 202.217C24.563 211.233 30.539 218.354 38.187 222.143C46.44 226.233 49.631 227.203 56.545 227.726C63.638 228.262 64.128 228.467 68.611 232.762C75.022 238.905 80.828 241.31 89.5 241.416C93.35 241.463 97.801 241.139 99.391 240.697C101.764 240.036 100.868 241.222 94.391 247.317C85.636 255.555 79.276 265.513 76.455 275.398C75.145 279.989 74.868 284.085 75.202 293.898C75.608 305.805 75.839 306.978 79.389 315.145C86.626 331.795 99.471 343.82 116.285 349.685C127.554 353.616 137.05 354.61 147.574 352.961C168.11 349.741 184.894 339.445 193.253 324.938C194.66 322.498 197.203 316.398 198.905 311.382C201.515 303.692 202 300.763 202 292.682C202 274.031 197.68 263.775 183.975 249.89C171.305 237.053 159.894 232.027 140 230.522C133.135 230.002 129.978 230.275 123.59 231.94C119.24 233.073 115.502 234.001 115.285 234.001C115.068 234.001 116.904 231.529 119.366 228.507C121.827 225.485 124.346 221.482 124.964 219.612C125.852 216.92 127.088 215.779 130.886 214.145C137.066 211.487 144.291 205.492 148.572 199.47C150.432 196.854 152.115 194.553 152.311 194.357C152.508 194.16 154.841 194.405 157.498 194.902C164.013 196.119 173.552 194.649 180.699 191.327C188.434 187.731 200.585 175.547 203.96 168.001C205.314 164.976 206.532 162.332 206.669 162.126C206.805 161.92 209.298 163.318 212.208 165.234C221.319 171.23 228.205 173.316 239 173.348C246.945 173.371 249.679 172.931 255.703 170.659L262.905 167.942L267.455 171.414C269.957 173.324 275.04 175.865 278.752 177.06L285.5 179.233V193.406V207.578L289.266 215.211C293.945 224.695 299.861 230.23 311.184 235.72C319.169 239.591 334.02 245.358 334.514 244.779C334.645 244.626 335.063 243.488 335.443 242.251C335.964 240.556 335.733 240.001 334.508 240.001C333.614 240.001 333.16 240.451 333.5 241.001C334.53 242.668 332.529 242.157 324.099 238.602C319.667 236.733 313.8 233.419 311.062 231.239C305.863 227.1 297.683 217.647 294.846 212.501C292.499 208.242 289.72 198.173 290.402 196.396C290.718 195.571 290.594 195.134 290.125 195.424C289.656 195.714 288.99 193.599 288.645 190.726C287.675 182.65 287.85 180.001 289.353 180.001C290.355 180.001 290.852 182.438 291.266 189.382C291.606 195.078 292.465 200 293.454 201.911C294.349 203.643 294.766 205.609 294.381 206.28C293.995 206.952 294.039 207.176 294.479 206.779C294.918 206.381 296.127 207.771 297.164 209.867C298.201 211.963 301.695 216.563 304.928 220.089C308.162 223.616 310.557 226.908 310.249 227.406C309.942 227.903 310.144 228.03 310.697 227.688C311.25 227.346 314.452 228.853 317.812 231.036C324.159 235.16 335.766 239.912 337.819 239.228C339.661 238.614 339.205 236.005 337.25 235.967C336.288 235.948 333.7 235.064 331.5 234.001C329.3 232.938 326.969 232.054 326.319 232.035C320.651 231.872 300.18 212.159 301.468 208.103C301.755 207.197 301.589 205.054 301.098 203.342C300.319 200.627 300.495 200.097 302.47 199.197C305.505 197.814 306.498 192.944 303.885 192.261C302.848 191.99 302 191.37 302 190.884C302 190.399 301.212 189.965 300.25 189.922C299.205 189.875 299.003 189.64 299.75 189.339C301.486 188.638 301.319 187.001 299.511 187.001C297.337 187.001 294 183.839 294 181.779C294 180.286 294.923 179.994 299.75 179.958C304.559 179.922 306.92 180.617 314.181 184.208C318.956 186.569 322.894 188.814 322.931 189.198C322.969 189.581 320.525 195.468 317.5 202.281C308.366 222.852 309.936 225.056 327.469 216.282C332.436 213.796 339.65 209.921 343.5 207.67C347.35 205.419 351.069 203.487 351.764 203.376C353.078 203.166 360.587 206.894 364.972 209.933C372.017 214.817 387.337 221.529 389.04 220.477C390.875 219.342 389.485 214.903 384.458 205.843C381.911 201.255 379.001 195.339 377.99 192.697L376.151 187.894L378.326 186.966C379.522 186.456 382.558 184.793 385.073 183.27C387.588 181.747 391.505 179.417 393.777 178.093C404.235 171.996 398.134 168.785 377.224 169.379C371.527 169.541 367.606 169.23 367.062 168.572C366.575 167.983 365.28 165.138 364.185 162.251C362.347 157.408 362.325 157.001 363.902 157.001C364.842 157.001 368.409 156.056 371.827 154.902C377.833 152.874 381.789 152.916 380.504 154.994C380.162 155.548 380.584 156.001 381.441 156.001C382.298 156.001 383 156.507 383 157.126C383 157.842 384.088 158.033 385.991 157.653C387.636 157.324 388.874 157.41 388.741 157.845C388.449 158.802 395.636 166.061 399.162 168.371C403.06 170.926 405.773 182.001 402.5 182.001C401.675 182.001 401 182.736 401 183.634C401 185.276 397.424 189.001 395.847 189.001C395.381 189.001 395 190.096 395 191.434C395 192.988 394.278 194.095 393 194.501C390.74 195.218 390.285 197.001 392.361 197.001C393.256 197.001 393.567 197.817 393.267 199.384C393.017 200.694 393.304 202.071 393.906 202.443C394.508 202.815 395 204.425 395 206.021C395 207.616 395.608 209.49 396.35 210.183C397.47 211.229 396.914 212.434 393.1 217.231C383.464 229.353 369.836 235.721 351.08 236.865C340.703 237.498 337.959 238.631 342.246 240.512C347.18 242.677 374.434 237.039 381.537 232.384C383.702 230.966 383.814 230.997 383.323 232.873C381.943 238.152 359.459 244.301 345.124 243.32C341.617 243.08 338.029 243.16 337.152 243.496C331.287 245.747 351.181 246.908 361.5 244.917C364.25 244.387 369.875 243.699 374 243.388C385.595 242.516 398.917 236.88 405.404 230.104C408.189 227.194 408.648 227.071 416.643 227.101C424.768 227.131 427 226.7 427 225.101C427 224.67 424.875 224.641 422.278 225.035C419.681 225.429 415.856 225.523 413.778 225.244L410 224.738L411.934 221.608C414.602 217.291 416.147 213.001 415.034 213.001C414.53 213.001 412.678 215.702 410.918 219.003C409.159 222.304 405.728 226.84 403.295 229.083C398.345 233.646 386.59 239.555 380.5 240.542C376.665 241.164 376.809 241.006 384 236.713C394.213 230.617 401.227 222.954 405.948 212.734C411.27 201.215 413.437 190.791 412.63 180.594C411.429 165.415 407.561 156.382 397.502 145.266C394.476 141.922 392 138.694 392 138.092C392 137.491 394.91 135.624 398.466 133.943C409.616 128.675 417.874 118.328 421.076 105.615C421.715 103.077 422.554 101.001 422.941 101.001C423.327 101.001 425.809 101.739 428.456 102.641C434.653 104.752 445.15 114.852 447.959 121.405C453.326 133.925 453.886 141.91 450.248 154.001C448.491 159.84 442.296 170.63 441.282 169.616C440.95 169.285 441.395 168.222 442.27 167.255C443.145 166.288 444.345 164.148 444.936 162.499C446.136 159.153 446.164 159.125 440 167.552C433.786 176.048 433.491 176.606 436.856 173.513C438.643 171.87 440.732 170.52 441.497 170.513C443.48 170.496 449.718 161.365 451.583 155.751C452.451 153.138 453.535 151.001 453.991 151.001C455.701 151.001 459.919 157.166 462.02 162.735C465.162 171.065 465.147 185.221 461.988 193.501C459.034 201.241 453.132 209.936 448.158 213.876C443.69 217.414 433.466 223.001 431.457 223.001C430.721 223.001 429.797 223.521 429.404 224.157C428.031 226.378 434.943 224.122 441.8 220.113C450.001 215.317 455.423 210.064 459.915 202.563C464.375 195.114 466 188.526 466 177.888C466 166.521 463.373 157.843 458.129 151.885C454.463 147.72 454.275 147.19 454.744 142.313C455.319 136.326 452.333 125.082 448.335 118.18C443.388 109.639 430.186 99.0006 424.533 99.0006C423.314 99.0006 423 97.6796 423 92.5496C423 80.4426 419.186 70.8726 410.518 61.2316C406.219 56.4496 406.218 56.4466 406.526 49.4746C407.58 25.6566 391.993 9.91861 367.279 9.85061C360.049 9.82961 358.106 10.2146 353.394 12.5986C346.658 16.0066 338.342 24.0926 335.851 29.6546C334.06 33.6556 333.851 33.7906 330.184 33.2986C322.312 32.2426 302.941 36.7706 296.886 41.0816C295.404 42.1376 293.741 43.0006 293.191 43.0006C292.64 43.0006 290.948 40.8806 289.429 38.2896C285.102 30.9066 271.425 17.7106 264.5 14.2386C248.706 6.31961 231.92 4.15461 215.581 7.93061L206.008 10.1426L203.072 8.05161C201.457 6.90161 198.673 5.34561 196.884 4.59361C193.987 3.37561 196.457 3.17661 219.566 2.77161C233.83 2.52061 284.2 2.24661 331.5 2.16161C378.8 2.07661 428.905 1.70961 442.844 1.34661C464.059 0.793613 468.333 0.915613 469.079 2.09361C469.794 3.22361 469.972 3.15061 469.985 1.72261C469.999 0.0236133 461.196 -0.0433867 271.75 0.222613C162.712 0.375613 56.963 0.618613 36.75 0.762613ZM0.079 2.58361C0.127 3.74861 0.364 3.98561 0.683 3.18861C0.972 2.46661 0.936 1.60361 0.604 1.27161C0.272 0.939613 0.036 1.52961 0.079 2.58361ZM173.5 6.34561C157.527 11.6396 145.266 25.0216 143.509 39.0786C142.794 44.8036 143.942 51.1706 146.26 54.3406C147.479 56.0076 147.934 55.8946 153.519 52.5316C159.192 49.1156 170.553 45.0396 174.608 44.9666C175.985 44.9416 177.453 42.8356 180 37.2286C182.723 31.2346 185.164 27.8586 191 22.0136C195.125 17.8816 200.042 13.6886 201.927 12.6956L205.355 10.8896L199.927 8.30161C193.372 5.17661 180.012 4.18661 173.5 6.34561ZM0.402 26.0006C0.402 34.5256 0.556 38.0136 0.743 33.7506C0.931 29.4886 0.931 22.5136 0.743 18.2506C0.556 13.9886 0.402 17.4756 0.402 26.0006ZM361.344 12.0416C359.058 12.4946 355.267 13.8446 352.919 15.0416C348 17.5516 338.968 26.2266 336.692 30.6296L335.138 33.6346L341.319 36.5386C344.983 38.2606 349.83 41.7526 353.223 45.1146L358.945 50.7856L363.142 49.3396C370.842 46.6866 378.776 46.5496 387.888 48.9116C392.469 50.0986 397.95 51.9546 400.069 53.0356C402.187 54.1166 404.231 55.0006 404.611 55.0006C405.994 55.0006 404.111 35.1166 402.419 31.8436C397.515 22.3606 385.905 14.2586 373.98 11.9966C368.086 10.8786 367.206 10.8826 361.344 12.0416ZM159.341 15.8686C154.413 19.4376 147.996 26.8366 148.011 28.9306C148.018 29.8936 149.078 29.1466 150.751 27.0006C154.138 22.6556 156.401 20.3876 161.478 16.2456C166.394 12.2356 164.756 11.9466 159.341 15.8686ZM377.813 15.6836C378.534 15.9726 379.397 15.9366 379.729 15.6046C380.061 15.2726 379.471 15.0366 378.417 15.0796C377.252 15.1276 377.015 15.3646 377.813 15.6836ZM363.75 17.7066C364.988 17.9446 367.012 17.9446 368.25 17.7066C369.488 17.4676 368.475 17.2726 366 17.2726C363.525 17.2726 362.512 17.4676 363.75 17.7066ZM352.657 24.6326C350.543 26.0156 349.078 27.4116 349.401 27.7346C349.724 28.0576 350.778 27.6306 351.744 26.7866C352.71 25.9416 354.85 24.5376 356.5 23.6656C358.15 22.7936 358.825 22.0896 358 22.0996C357.175 22.1096 354.771 23.2496 352.657 24.6326ZM151.883 28.7716C150.444 30.8226 148.951 33.6256 148.566 35.0006C148.164 36.4346 148.994 35.5816 150.511 33.0006C151.967 30.5256 153.867 27.7126 154.734 26.7506C155.601 25.7886 155.903 25.0106 155.405 25.0216C154.907 25.0336 153.322 26.7216 151.883 28.7716ZM269.023 43.0906C266.81 45.8896 265 48.6646 265 49.2566C265 49.8496 265.154 50.1466 265.342 49.9176C267.742 46.9906 273.938 38.0006 273.555 38.0006C273.275 38.0006 271.236 40.2906 269.023 43.0906ZM156.723 41.0006C156.34 42.3756 156.062 44.6256 156.104 46.0006C156.17 48.1526 156.314 48.0346 157.144 45.1516C157.675 43.3096 157.953 41.0596 157.764 40.1516C157.52 38.9846 157.215 39.2336 156.723 41.0006ZM0.385 56.0006C0.385 62.8756 0.545 65.6886 0.74 62.2506C0.936 58.8136 0.936 53.1886 0.74 49.7506C0.545 46.3136 0.385 49.1256 0.385 56.0006ZM270.5 48.0006C269.046 50.3046 268.035 52.3686 268.255 52.5886C268.474 52.8076 269.87 51.1286 271.357 48.8576C272.844 46.5866 273.855 44.5216 273.603 44.2696C273.351 44.0176 271.954 45.6966 270.5 48.0006ZM272.104 52.5356C270.397 54.4796 269.026 56.6166 269.059 57.2856C269.091 57.9536 269.654 57.6526 270.309 56.6166C270.964 55.5806 272.553 53.4426 273.839 51.8666C277.168 47.7876 275.814 48.3096 272.104 52.5356ZM276.745 54.7036C272.805 60.1126 268.991 67.2736 269.018 69.2106C269.028 69.9206 270.303 68.2046 271.85 65.3976C273.398 62.5916 276.165 58.2046 278 55.6496C279.835 53.0946 281.09 50.7566 280.788 50.4556C280.486 50.1536 278.667 52.0656 276.745 54.7036ZM266.459 55.0676C266.096 55.6536 266.014 56.3486 266.276 56.6106C266.538 56.8726 267.019 56.3926 267.345 55.5436C268.021 53.7816 267.445 53.4716 266.459 55.0676ZM266.162 64.5436C264.487 68.2206 264.807 69.0056 266.618 65.6626C267.464 64.1006 267.969 62.6366 267.741 62.4076C267.512 62.1796 266.802 63.1406 266.162 64.5436ZM326.073 68.7286C324.383 70.7786 323.018 73.5916 323.039 74.9786C323.075 77.3176 323.183 77.2586 324.528 74.1626C325.325 72.3256 327.38 69.5136 329.095 67.9126C331.158 65.9856 331.693 65.0006 330.679 65.0006C329.835 65.0006 327.763 66.6786 326.073 68.7286ZM368.518 71.6746C368.125 75.3456 367.589 79.0586 367.326 79.9246C366.958 81.1406 367.103 81.1066 367.96 79.7766C369.111 77.9896 370.694 65.0006 369.761 65.0006C369.471 65.0006 368.911 68.0036 368.518 71.6746ZM54.234 67.0376C49.602 68.8986 40.089 76.0776 36.113 80.7136C28.995 89.0106 23.56 101.118 21.56 113.127C21.008 116.438 20.611 116.808 16.981 117.388C14.794 117.738 10.473 119.144 7.378 120.512C4.283 121.881 1.606 123.001 1.428 123.001C1.25 123.001 0.939 120.639 0.737 117.751C0.423 113.261 0.343 113.561 0.185 119.824L0 127.146L2.638 125.071C9.569 119.619 27.4 117.201 40.5 119.937C46.212 121.129 58.514 126.406 59.572 128.117C59.845 128.559 58.664 131.704 56.947 135.105C54.915 139.131 53.683 143.246 53.417 146.895L53.007 152.501L54.809 146.001C58.366 133.166 63.8 126.262 74.5 120.98C77.8 119.352 79.825 118.029 79 118.041C77.048 118.07 69.401 121.851 65.145 124.89L61.8 127.28L58.15 125.09C49.158 119.696 40.56 117.215 29.007 116.68L23.514 116.426L23.854 112.464C24.565 104.194 30.688 90.5836 37.22 82.7536C39.398 80.1436 44.965 75.4896 49.59 72.4116C59.162 66.0436 60.465 64.5346 54.234 67.0376ZM57.75 70.1626C56.237 70.7156 55 71.5706 55 72.0626C55 72.9606 59.668 71.3306 61.45 69.8106C62.702 68.7426 61.262 68.8796 57.75 70.1626ZM0.158 73.0006C0.158 74.3756 0.385 74.9386 0.662 74.2506C0.94 73.5636 0.94 72.4386 0.662 71.7506C0.385 71.0636 0.158 71.6256 0.158 73.0006ZM49.443 74.4186C48.376 75.1986 47.734 76.0676 48.017 76.3506C48.299 76.6326 49.648 76.0046 51.015 74.9546C53.861 72.7676 52.388 72.2656 49.443 74.4186ZM193.459 79.0676C193.096 79.6536 193.014 80.3486 193.276 80.6106C193.538 80.8726 194.019 80.3926 194.345 79.5436C195.021 77.7816 194.445 77.4716 193.459 79.0676ZM0.407 95.0006C0.407 104.076 0.559 107.788 0.744 103.251C0.929 98.7136 0.929 91.2876 0.744 86.7506C0.559 82.2136 0.407 85.9256 0.407 95.0006ZM48.964 81.1646C47.819 83.3976 47.846 83.4246 49.574 81.7746C50.568 80.8246 51.107 79.7736 50.771 79.4386C50.436 79.1036 49.623 79.8806 48.964 81.1646ZM314.195 81.5006C314.215 83.1506 314.439 83.7046 314.693 82.7316C314.947 81.7586 314.93 80.4086 314.656 79.7316C314.382 79.0546 314.175 79.8506 314.195 81.5006ZM311.079 82.5836C311.127 83.7486 311.364 83.9856 311.683 83.1886C311.972 82.4666 311.936 81.6036 311.604 81.2716C311.272 80.9396 311.036 81.5296 311.079 82.5836ZM358.556 83.5566C357.612 84.9956 357.065 86.3996 357.34 86.6746C357.615 86.9496 358.612 85.9956 359.556 84.5566C360.499 83.1166 361.046 81.7136 360.771 81.4386C360.496 81.1636 359.499 82.1166 358.556 83.5566ZM53.667 87.1226C49.881 90.3566 45.393 96.7266 46.277 97.6106C46.555 97.8886 47.801 96.6276 49.048 94.8086C50.294 92.9886 52.909 89.8136 54.86 87.7506C59.174 83.1876 58.617 82.8946 53.667 87.1226ZM353.981 89.5236C352.924 90.7966 352.986 90.9436 354.359 90.4166C355.261 90.0696 356 89.3846 356 88.8936C356 87.6076 355.421 87.7886 353.981 89.5236ZM46.073 91.6356C44.933 93.0846 44.014 94.7726 44.032 95.3856C44.064 96.5266 46.383 93.8906 48.108 90.7506C49.536 88.1526 48.436 88.6316 46.073 91.6356ZM197.667 98.1676C196.762 100.471 196.185 102.52 196.386 102.72C196.586 102.92 197.5 101.209 198.417 98.9176C199.334 96.6256 199.91 94.5776 199.698 94.3646C199.485 94.1526 198.572 95.8636 197.667 98.1676ZM193.564 99.7076C193.022 101.133 193.136 101.248 194.124 100.268C194.808 99.5886 195.115 98.7816 194.807 98.4746C194.499 98.1666 193.94 98.7216 193.564 99.7076ZM85.813 116.684C86.534 116.973 87.397 116.937 87.729 116.605C88.061 116.273 87.471 116.037 86.417 116.08C85.252 116.128 85.015 116.365 85.813 116.684ZM119.32 139.001C119.32 142.576 119.502 144.038 119.723 142.251C119.945 140.464 119.945 137.538 119.723 135.751C119.502 133.964 119.32 135.426 119.32 139.001ZM81.627 142.251C79.024 146.379 78.728 149.073 80.461 152.861C82.487 157.29 85.901 159.948 90.527 160.699C95.226 161.462 95.058 159.422 90.35 158.539C88.319 158.158 85.379 156.534 83.724 154.879C81.135 152.29 80.82 151.383 81.29 147.875C81.587 145.659 82.613 142.981 83.57 141.923C84.541 140.85 84.81 140.001 84.178 140.001C83.555 140.001 82.408 141.013 81.627 142.251ZM389.633 142.701C389.323 143.011 391.001 145.567 393.361 148.383C400.436 156.824 402.001 159.586 405.068 169.047C409.23 181.887 409.052 188.616 404.127 204.764C402.344 210.613 397.004 218.825 391.313 224.47C388.247 227.512 386.154 230.001 386.663 230.001C387.479 230.001 389.366 228.416 398.708 219.887C401.324 217.499 406.137 207.633 408.427 199.965C409.722 195.629 409.92 192.282 409.387 183.751C409.018 177.839 408.403 173.001 408.022 173.001C407.177 173.001 404 161.868 404 158.91C404 156.891 402.952 155.355 395.73 146.781C392.522 142.972 390.629 141.705 389.633 142.701ZM437.624 143.54C436.659 146.054 436.943 146.703 438.122 144.676C438.706 143.672 438.973 142.64 438.715 142.383C438.458 142.125 437.966 142.646 437.624 143.54ZM339.461 145.044C337.942 146.722 337.901 146.976 339.229 146.467C340.118 146.126 341.091 145.206 341.391 144.424C342.138 142.477 341.639 142.637 339.461 145.044ZM439.564 148.708C439.022 150.133 439.136 150.248 440.124 149.268C440.808 148.589 441.115 147.782 440.807 147.475C440.499 147.167 439.94 147.722 439.564 148.708ZM4.25 149.167C1.599 149.761 0 150.674 0 151.595C0 152.685 0.459 152.831 1.75 152.152C2.712 151.647 5.412 150.916 7.75 150.529C10.088 150.142 12 149.415 12 148.913C12 147.822 9.958 147.889 4.25 149.167ZM335 153.001C333.625 154.077 332.993 154.967 333.595 154.979C334.197 154.991 335.505 154.101 336.5 153.001C338.78 150.481 338.221 150.481 335 153.001ZM349.245 159.751C348.28 160.714 344.793 163.7 341.495 166.388L335.5 171.275L341.5 170.674C344.8 170.343 351.223 170.057 355.773 170.037L364.046 170.001L362.635 167.751C361.858 166.513 360.688 163.814 360.034 161.751C358.926 158.257 358.577 158.001 354.922 158.001C352.522 158.001 350.319 158.68 349.245 159.751ZM436.997 164.251C435.525 166.262 435.283 166.961 436.363 166.083C438.003 164.752 440.483 161.001 439.723 161.001C439.532 161.001 438.305 162.464 436.997 164.251ZM0.31 168.501C0.315 171.801 0.502 173.03 0.725 171.233C0.947 169.436 0.943 166.736 0.715 165.233C0.486 163.73 0.304 165.201 0.31 168.501ZM320.441 168.556C318.577 170.05 318.589 170.068 320.75 169.021C321.988 168.421 323 167.721 323 167.466C323 166.701 322.481 166.922 320.441 168.556ZM340.75 173.793C336.488 173.954 333 174.206 333 174.353C333 174.501 331.899 177.431 330.554 180.863C328.32 186.563 328.255 187.156 329.804 187.692C330.737 188.015 336.145 190.505 341.821 193.226L352.142 198.173L355.821 195.837C357.845 194.552 362.086 192.151 365.247 190.501C368.407 188.851 370.995 187.044 370.997 186.486C370.998 185.928 369.641 182.686 367.98 179.281L364.96 173.092L356.73 173.296C352.204 173.409 345.012 173.632 340.75 173.793ZM369 173.805C369 174.248 370.315 176.683 371.922 179.217C373.529 181.751 374.579 184.089 374.255 184.412C372.564 186.104 376.312 184.583 381.43 181.501C384.627 179.576 387.559 178.001 387.947 178.001C388.334 178.001 389.708 176.876 391 175.501L393.349 173.001H381.174C374.478 173.001 369 173.363 369 173.805ZM323.5 176.498C321.3 177.235 317.758 178.13 315.628 178.487L311.756 179.137L317.128 182.03C320.083 183.62 323.041 184.939 323.703 184.961C324.642 184.992 329 177.104 329 175.374C329 174.805 327.864 175.037 323.5 176.498ZM0.116 179.918C0.052 181.797 0.296 183.038 0.658 182.676C1.02 182.314 2.032 182.569 2.908 183.242C4.274 184.293 4.266 184.185 2.853 182.484C1.948 181.393 0.987 179.601 0.719 178.501C0.416 177.254 0.188 177.788 0.116 179.918ZM183.5 179.626C181.702 181.156 181.334 181.764 182.582 181.144C184.415 180.234 187.853 176.942 186.872 177.037C186.668 177.057 185.15 178.222 183.5 179.626ZM183.573 183.522C182.513 184.324 181.838 185.171 182.073 185.405C182.308 185.638 183.562 184.968 184.861 183.915C187.596 181.697 186.448 181.348 183.573 183.522ZM307 183.501C307 184.326 307.45 185.001 308 185.001C308.55 185.001 309 184.326 309 183.501C309 182.676 308.55 182.001 308 182.001C307.45 182.001 307 182.676 307 183.501ZM26.25 185.69C27.212 185.942 28.788 185.942 29.75 185.69C30.712 185.439 29.925 185.233 28 185.233C26.075 185.233 25.288 185.439 26.25 185.69ZM173.188 187.684C170.816 188.523 169.041 189.375 169.244 189.578C169.869 190.203 176.891 187.986 177.523 186.964C177.85 186.434 177.979 186.037 177.809 186.08C177.639 186.123 175.559 186.845 173.188 187.684ZM21.25 187.69C22.212 187.942 23.788 187.942 24.75 187.69C25.712 187.439 24.925 187.233 23 187.233C21.075 187.233 20.288 187.439 21.25 187.69ZM326 191.075C326 191.56 324.435 195.299 322.523 199.384C318.214 208.587 314.812 217.146 315.278 217.612C315.471 217.805 318.3 216.636 321.564 215.013C324.829 213.391 327.795 212.05 328.156 212.032C328.924 211.996 346.087 202.084 347.373 200.935C348.309 200.099 339.423 195.293 331.083 192.124C328.287 191.062 326 190.59 326 191.075ZM79.441 192.556C77.577 194.05 77.589 194.068 79.75 193.021C80.987 192.421 82 191.721 82 191.466C82 190.701 81.481 190.922 79.441 192.556ZM368.465 192.859C366.796 193.762 363.068 195.818 360.181 197.429L354.931 200.356L365.501 206.524C377.958 213.794 385.76 217.574 386.592 216.743C387.42 215.914 373.735 191.055 372.5 191.145C371.95 191.185 370.134 191.956 368.465 192.859ZM75 195.001C74.099 195.583 73.975 195.976 74.691 195.986C75.346 195.994 76.16 195.551 76.5 195.001C77.267 193.759 76.921 193.759 75 195.001ZM76.441 198.556C74.611 200.023 74.643 200.043 77 198.921C80.061 197.463 80.628 197.001 79.358 197.001C78.821 197.001 77.509 197.701 76.441 198.556ZM288.466 206.842C289.63 214.312 296.145 224.055 303.5 229.324C305.617 230.841 304.757 229.417 300.581 224.487C297.325 220.645 293.151 214.351 291.303 210.501C288.745 205.169 288.069 204.297 288.466 206.842ZM321.543 204.932C321.226 205.444 321.425 206.145 321.984 206.491C322.543 206.836 323 206.417 323 205.56C323 203.803 322.4 203.545 321.543 204.932ZM90.496 215.628C85.493 219.905 77.725 224.383 72.5 226.003C70.3 226.685 68.133 227.578 67.684 227.988C66.321 229.233 74.958 235.826 80.258 237.587C83.838 238.776 87.516 239.12 93.367 238.812C100.181 238.455 102.512 237.846 107.739 235.06C113.521 231.978 119.059 226.582 121.845 221.317C123.845 217.534 123.323 216.771 119.209 217.466C114.295 218.296 102.781 216.44 98.133 214.069L94.492 212.211L90.496 215.628ZM0.413 235.501C0.414 245.401 0.564 249.316 0.746 244.2C0.928 239.085 0.927 230.985 0.744 226.2C0.561 221.416 0.412 225.601 0.413 235.501ZM60 221.001L55.5 221.701L60 221.751C62.475 221.779 65.625 221.441 67 221.001L69.5 220.2L67 220.251C65.625 220.279 62.475 220.616 60 221.001ZM340 221.001C340 221.551 340.477 222.001 341.059 222.001C341.641 222.001 341.84 221.551 341.5 221.001C341.16 220.451 340.684 220.001 340.441 220.001C340.198 220.001 340 220.451 340 221.001ZM112.427 228.141C110.208 230.506 110.004 231 111.582 230.185C113.996 228.939 116.498 226.166 115.82 225.487C115.564 225.231 114.037 226.425 112.427 228.141ZM125 234.506C107.415 238.663 97.398 245.508 87.213 260.329C77.646 274.251 74.869 289.367 79.008 305.001C82.449 318.001 85.782 323.938 95.631 334.611C106.652 346.555 129.717 353.214 149.017 350.023C159.476 348.295 172 343.29 172 340.839C172 339.002 171.918 339.002 168.25 340.845C159.035 345.476 149.937 347.468 138 347.468C128.412 347.469 125.419 347.076 120 345.106C116.425 343.806 112.79 342.126 111.921 341.372C111.053 340.618 110.021 340.001 109.629 340.001C106.676 340.001 90.567 324.667 87.448 318.888C86.869 317.815 86.01 317.29 85.538 317.72C85.066 318.149 84.994 317.954 85.377 317.285C85.761 316.617 85.159 314.272 84.038 312.075C82.917 309.878 82 307.361 82 306.482C82 305.602 81.662 305.087 81.25 305.337C79.941 306.129 79.804 288.842 81.065 282.038C84.337 264.387 99.062 247.211 117 240.122C125.395 236.805 125.497 236.792 139.467 237.187C149.738 237.478 154.438 238.026 157 239.23C158.925 240.136 162.075 241.571 164 242.42C176.935 248.125 192 263.546 192 271.082C192 272.137 192.398 273.001 192.883 273.001C194.097 273.001 195.058 267.582 193.918 267.168C193.413 266.984 193 266.227 193 265.484C193 263.535 184.314 253.019 178.689 248.158C175.883 245.733 172.862 244.001 171.439 244.001C169.938 244.001 169 243.424 169 242.501C169 241.676 168.662 241.072 168.25 241.16C167.838 241.247 166.825 241.048 166 240.717C161.738 239.01 154.698 237.001 152.974 237.001C151.897 237.001 150.455 236.101 149.768 235.001C148.66 233.227 147.499 233.013 139.509 233.103C134.554 233.16 128.025 233.791 125 234.506ZM124.5 241.492C117.741 243.33 110.846 246.514 111.724 247.392C112.117 247.785 111.754 247.844 110.916 247.522C109.947 247.151 107.23 248.934 103.447 252.424C98.595 256.9 97.895 257.919 99.643 257.956C101.716 258 103.967 261.001 101.926 261.001C100.974 261.001 99.832 261.796 96.537 264.751C95.77 265.439 94.691 266.001 94.139 266.001C93.587 266.001 92.849 266.901 92.5 268.001C92.151 269.101 91.451 270.001 90.944 270.001C90.438 270.001 90.131 271.013 90.262 272.251C90.43 273.842 89.998 274.462 88.787 274.368C87.151 274.242 85.888 277.288 83.47 287.192C82.774 290.043 84.81 293.073 88.25 294.31C90.261 295.032 90.61 296.964 88.75 297.077C88.063 297.119 89.075 297.719 91 298.411C96.103 300.245 95.965 305.5 90.768 307.249C89.766 307.586 89.788 308.024 90.872 309.338C91.627 310.253 91.836 311.001 91.336 311.001C89.707 311.001 90.61 317.908 92.543 320.234C97.491 326.189 104.848 333.425 108.051 335.488C110.004 336.746 115.179 339.224 119.551 340.996C126.738 343.909 128.506 344.219 138 344.234C147.011 344.249 149.786 343.826 157.57 341.252C162.558 339.603 168.408 337.118 170.57 335.731C174.604 333.141 181.51 326.3 184.242 322.186C185.747 319.92 185.564 316.001 183.953 316.001C183.506 316.001 183.52 314.676 183.984 313.056C184.496 311.273 184.45 309.984 183.87 309.791C183.343 309.615 182.837 308.494 182.747 307.298C182.656 306.086 181.681 304.835 180.542 304.468C178.647 303.857 178.698 303.731 181.25 302.712C183.336 301.88 184 300.937 184 298.808C184 296.644 184.47 296.001 186.051 296.001C187.45 296.001 188.567 294.888 189.564 292.501C190.369 290.576 191.648 289.001 192.408 289.001C193.856 289.001 193.784 288.426 190.996 277.731C189.988 273.865 189.492 273.177 188.38 274.101C187.304 274.994 186.141 274.457 183.001 271.621C180.797 269.63 179.253 268.001 179.569 268.001C179.884 268.001 179.468 267.326 178.643 266.501C177.818 265.676 176.047 265.001 174.707 265.001C173.367 265.001 170.806 263.722 169.016 262.159C166.171 259.675 165.906 259.045 166.915 257.159C167.551 255.972 168.448 255.001 168.909 255.001C169.37 255.001 169.458 253.538 169.103 251.751C167.463 243.471 140.244 237.211 124.5 241.492ZM133.532 245.256C131.599 248.011 126 262.337 126 264.528C126 265.403 125.555 265.844 125.011 265.508C124.424 265.145 124.29 265.594 124.681 266.613C125.164 267.869 124.985 268.11 124.015 267.511C123.147 266.974 122.93 267.079 123.386 267.817C123.768 268.435 123.123 271.17 121.951 273.894L119.821 278.846L107.012 279.173C96.121 279.452 93.89 279.785 92.108 281.4L90.012 283.3L93.756 286.04C95.815 287.547 100.909 290.529 105.075 292.667C109.489 294.932 112.478 297.067 112.239 297.784C112.014 298.46 111.46 298.785 111.008 298.506C110.556 298.227 110.44 298.969 110.751 300.156C111.171 301.763 110.98 302.107 110.003 301.503C109.19 301 108.933 301.084 109.328 301.723C110.041 302.876 101.616 322.283 100.77 321.437C100.474 321.142 100.527 322.342 100.887 324.105C102.13 330.179 103.657 330.063 118.206 322.793C125.518 319.139 133.611 314.741 136.191 313.02L140.882 309.891L147.43 313.426C151.031 315.371 155.855 318.147 158.149 319.595C163.684 323.089 174.719 328.001 177.034 328.001C178.05 328.001 179.169 327.536 179.52 326.969C180.262 325.768 175.273 314.709 171.261 308.663C169.743 306.374 167.61 302.814 166.523 300.751C165.435 298.689 164.198 297.001 163.773 297.001C161.669 297.001 163.375 295.176 165.963 294.658C169.602 293.931 186.654 284.009 187.437 282.163C187.749 281.427 186.991 279.98 185.752 278.946C183.793 277.312 181.708 277.063 169.719 277.034C157.506 277.005 155.869 276.802 155.337 275.251C152.627 267.343 143.154 247.214 141.728 246.333C141.253 246.039 141.061 245.282 141.303 244.65C141.57 243.953 140.437 243.405 138.425 243.256C135.947 243.073 134.708 243.579 133.532 245.256ZM134.89 250.751C133.769 253.364 131.256 259.776 129.307 265.001C127.358 270.226 125.317 275.353 124.771 276.393C123.812 278.219 124.249 278.264 137.139 277.664C144.487 277.322 151.042 277.033 151.703 277.021C152.593 277.006 152.54 276.284 151.498 274.251C150.724 272.739 147.351 265.763 144.003 258.751C140.656 251.739 137.695 246.001 137.423 246.001C137.151 246.001 136.011 248.138 134.89 250.751ZM0.449 289.501C0.449 308.201 0.584 315.71 0.749 306.187C0.913 296.664 0.913 281.364 0.748 272.187C0.583 263.01 0.449 270.801 0.449 289.501ZM194.079 275.125C194.036 276.019 194.675 278.663 195.5 281.001C196.34 283.381 197 288.672 197 293.021C197 305.94 191.832 319.23 182.832 329.454C177.924 335.03 178.234 336.419 183.29 331.508C185.276 329.579 187.261 327.998 187.7 327.993C189.006 327.981 192.82 320.622 196.107 311.774C199.027 303.914 199.154 302.96 198.652 292.678C198.361 286.725 197.706 281.325 197.196 280.678C196.686 280.031 195.794 278.151 195.213 276.501C194.633 274.851 194.122 274.232 194.079 275.125ZM160.588 281.348C159.234 282.369 159.313 283.044 161.28 287.25C162.501 289.862 163.974 292 164.554 292C165.134 292.001 167.834 290.584 170.554 288.852C173.274 287.12 177.455 284.658 179.845 283.381L184.189 281.059L179.845 281.117C177.455 281.148 174.6 280.977 173.5 280.736C172.4 280.495 170.296 280.64 168.825 281.058C167.354 281.476 165.879 281.546 165.546 281.214C164.448 280.115 162.14 280.178 160.588 281.348ZM125.348 281.717C122.88 282.027 121.94 282.806 121.015 285.307C120.366 287.064 119.227 289.914 118.486 291.641L117.137 294.782L121.818 296.539C124.393 297.505 129.526 299.804 133.225 301.648C136.924 303.492 140.411 305.001 140.975 305.001C141.539 305.001 146.267 302.61 151.483 299.687L160.965 294.373L157.733 287.717L154.5 281.06L141.5 281.191C134.35 281.262 127.082 281.499 125.348 281.717ZM97.518 282.876C94.71 283.477 95.086 283.789 103.946 288.206C113.122 292.781 115.714 293.303 114.58 290.348C114.273 289.55 114.358 289.104 114.768 289.358C115.178 289.611 116.264 288.059 117.182 285.91L118.851 282.001L109.676 282.119C104.629 282.184 99.158 282.525 97.518 282.876ZM468.085 362.001C467.958 402.426 467.65 449.676 467.4 467.001C467.15 484.326 466.672 524.151 466.337 555.501C466.003 586.851 465.677 612.577 465.613 612.669C465.549 612.761 463.248 612.255 460.499 611.544C453.462 609.724 440 608.611 440 609.849C440 610.395 443.038 611.128 446.75 611.478C450.462 611.828 456.2 612.655 459.5 613.316L465.5 614.517L465.789 622.64L466.077 630.762L461.665 631.424C458.752 631.861 455.935 631.59 453.376 630.628C451.244 629.827 447.531 628.893 445.125 628.554C438.865 627.672 437.664 626.793 431.697 618.724C428.757 614.748 425.543 610.687 424.556 609.7C421.809 606.952 423.48 606.472 429.35 608.322C434.869 610.062 438.861 610.528 437.621 609.288C436.09 607.758 427.318 605.003 423.973 605.002C421.395 605.001 418.974 603.893 414.973 600.882C403.332 592.123 389.996 588.455 372.603 589.229C363.153 589.65 360.309 590.199 353.5 592.918C345.287 596.197 339.538 599.553 334.81 603.828C332.97 605.492 329.487 606.809 323.781 607.997C319.195 608.953 313.624 610.662 311.401 611.797C304.791 615.169 295.081 617.876 285.5 619.017C280.55 619.607 270.425 621.816 263 623.926C244.586 629.16 233.88 630.577 223.556 629.148C219.125 628.535 209.425 627.828 202 627.577C193.607 627.294 186.608 626.518 183.5 625.526C180.75 624.649 173.775 623.24 168 622.394C160.308 621.267 155.628 619.948 150.5 617.46C139.257 612.005 125.172 611.865 104.5 617.003C91.239 620.298 81.502 620.652 73.226 618.138C65.481 615.786 64 615.581 64 616.86C64 617.333 66.934 618.683 70.521 619.86C78.847 622.594 88.477 622.617 101 619.935C117.999 616.294 120.954 615.884 131.355 615.727C141.253 615.578 141.877 615.7 149.057 619.191C157.986 623.533 158.588 623.705 167.5 624.452C171.35 624.775 176.975 625.736 180 626.589C183.025 627.442 187.075 628.548 189 629.047C190.925 629.545 198.653 629.964 206.174 629.977C213.694 629.99 222.133 630.529 224.927 631.173C231.88 632.779 245.559 630.914 263 625.984C270.425 623.885 281.119 621.654 286.764 621.026C297.546 619.826 305.944 617.435 311.556 613.967C314.392 612.213 326.897 608.778 327.787 609.507C327.945 609.636 325.743 613.406 322.893 617.883L317.712 626.024L309.962 625.377C302.865 624.786 296.087 625.421 297.236 626.57C297.496 626.83 301.883 627.243 306.987 627.488C312.09 627.732 316.411 628.079 316.589 628.257C317.59 629.257 312.917 640.512 310.36 643.26C306.455 647.458 301.328 655.745 300.459 659.264C300.084 660.783 300.094 664.158 300.482 666.764C301.087 670.83 302.028 672.318 307.125 677.269C310.391 680.441 313.475 684.12 313.979 685.446C315.396 689.172 322.605 692.805 331.044 694.047C335.145 694.65 341.027 695.519 344.116 695.978C350.151 696.873 354.823 698.878 357.006 701.508C357.754 702.41 360.196 704.127 362.433 705.324C366.167 707.323 367.76 707.483 381.884 707.283C390.346 707.163 397.508 706.826 397.801 706.533C398.094 706.241 396.796 705.994 394.917 705.986C393.037 705.977 390.825 705.534 390 705.001C388.794 704.222 388.954 704.029 390.816 704.016C393.472 703.999 397 702.33 397 701.092C397 700.63 395.022 700.308 392.604 700.377C390.185 700.445 388.374 700.777 388.579 701.115C389.332 702.36 376.043 703 369.298 702.043C358.973 700.579 343.496 692.487 336.845 685.076C331.783 679.436 328.302 674.014 329.724 673.986C330.151 673.977 329.825 673.534 329 673.001C328 672.355 327.917 672.027 328.75 672.016C329.438 672.008 330 671.551 330 671.001C330 669.498 327.413 669.799 326.032 671.462C323.909 674.02 326.552 679.049 334.112 686.837C339.454 692.34 340.468 693.777 338.167 692.587C336.48 691.715 334.456 691.001 333.67 691.001C332.055 691.001 325.69 683.61 323.875 679.626C323.217 678.182 322.301 677.001 321.839 677.001C319.9 677.001 321.266 680.672 325.09 685.737C327.34 688.716 328.919 691.415 328.6 691.734C327.005 693.329 314 685.202 314 682.61C314 681.942 311.525 678.881 308.5 675.808L303 670.219V663.848C303 657.982 303.367 656.901 307.621 650.239C310.163 646.258 312.638 643.001 313.121 643.001C313.605 643.001 314.009 647.164 314.021 652.251C314.037 659.441 314.581 663.028 316.462 668.359C319.07 675.749 319.626 676.708 320.689 675.645C321.069 675.266 320.344 671.743 319.08 667.818C314.287 652.936 315.302 638.281 322.024 625.307C326.623 616.43 333.107 608.291 336.654 606.942C337.952 606.449 338.899 605.509 338.757 604.855C338.616 604.2 339.4 603.172 340.5 602.571C341.6 601.969 343.734 600.645 345.242 599.629C346.751 598.613 348.686 598.05 349.544 598.38C350.402 598.709 350.86 598.584 350.562 598.102C349.664 596.649 359.955 593.161 368.8 591.92C378.831 590.513 386.871 591.104 388.528 593.37C389.192 594.278 391.112 595.001 392.86 595.001C394.587 595.001 396 595.478 396 596.06C396 596.642 396.47 596.829 397.044 596.474C397.618 596.119 398.63 596.259 399.294 596.785C399.957 597.31 402.188 598.044 404.25 598.416C406.555 598.831 408 599.652 408 600.546C408 601.421 408.971 602.001 410.438 602.001C413.616 602.001 428.564 616.237 427.437 618.19C427.02 618.911 427.036 619.179 427.472 618.785C428.919 617.479 431.686 622.426 432.346 627.501L432.997 632.501L430.507 627.17C429.137 624.238 426.452 620.01 424.539 617.775C422.626 615.54 421.344 613.214 421.691 612.606C422.037 611.998 421.979 611.808 421.562 612.183C421.145 612.557 418.263 610.795 415.159 608.266C408.531 602.868 397.977 597.669 393.883 597.785C392.297 597.83 391 597.499 391 597.049C391 595.698 375.309 593.833 370.228 594.581C365.075 595.339 352.035 599.356 348.63 601.234C347.458 601.88 346.05 602.439 345.5 602.476C344.148 602.567 330.927 616.2 328.796 619.702C323.738 628.012 321.1 634.244 319.914 640.684C319.179 644.673 318.169 647.605 317.641 647.279C317.118 646.956 316.942 647.099 317.249 647.596C317.557 648.094 318.52 652.629 319.391 657.675C320.969 666.823 322.657 672.001 324.062 672.001C324.469 672.001 325.732 670.426 326.867 668.501C328.003 666.576 329.386 665.001 329.941 665.001C330.495 665.001 331.634 663.677 332.471 662.058C334.113 658.882 333.973 658.651 329.005 656.332C327.627 655.689 327.063 655.127 327.75 655.082C329.708 654.955 329.213 653.001 327.222 653.001C326.244 653.001 324.627 652.046 323.627 650.878C321.383 648.257 322.148 640.6 324.809 639.048C325.739 638.506 325.98 638.048 325.344 638.031C323.341 637.979 325.142 633.893 327.677 632.738C329.014 632.129 329.855 631.064 329.575 630.335C329.006 628.852 333.102 624.001 334.924 624.001C335.581 624.001 335.84 623.551 335.5 623.001C335.16 622.451 335.646 622.001 336.581 622.001C338.156 622.001 340.895 619.389 340.968 617.817C340.986 617.441 339.774 616.991 338.276 616.817L335.552 616.501L339.026 613.158C343.673 608.687 351.772 603.455 356.036 602.168C357.941 601.593 361.525 600.371 364 599.452C369.747 597.317 388.795 597.936 393.5 600.411C395.15 601.279 397.089 601.991 397.809 601.995C398.543 601.998 398.805 602.508 398.405 603.156C397.962 603.872 398.13 604.039 398.85 603.594C399.487 603.2 401.74 603.851 403.857 605.041C408.002 607.371 408.696 610.211 406.212 614.685C404.559 617.665 404.658 617.989 407.25 618.08C408.488 618.123 408.919 618.392 408.209 618.677C406.106 619.521 410.89 623.001 414.153 623.001C415.719 623.001 417 623.459 417 624.019C417 625.083 421.584 629.735 426.836 634.001C428.891 635.671 430.337 638.11 431.189 641.344C432.332 645.683 432.284 646.32 430.732 647.455C429.78 648.151 429 649.369 429 650.161C429 652.104 426.978 654.001 424.907 654.001C423.976 654.001 422.955 654.676 422.638 655.501C422.322 656.326 422.485 657.001 423 657.001C424.655 657.001 422.886 659.902 420.834 660.554C419.549 660.961 418.405 660.57 417.578 659.439C416.424 657.86 413.989 658.113 414.008 659.81C414.017 660.655 418.915 663.001 420.668 663.001C421.41 663.001 421.687 663.653 421.336 664.568C420.754 666.084 422.738 671.014 423.919 670.989C425.237 670.96 432.938 663.022 434.411 660.173C436.469 656.193 436.468 646.418 434.407 639.331C433.532 636.318 433.039 633.629 433.312 633.355C433.586 633.082 434.12 634.272 434.5 636C434.889 637.773 435.693 638.948 436.345 638.697C437.156 638.384 437.397 639.875 437.153 643.703C436.715 650.587 437.73 656.256 439.307 655.736C441.101 655.145 441.286 645.313 439.651 637.433C438.86 633.62 438.323 630.381 438.457 630.234C438.591 630.087 441.806 630.507 445.6 631.168C449.395 631.828 455.538 632.399 459.251 632.435L466.001 632.501V636.76L466 641.018L460.586 640.382C454.417 639.657 448 640.571 448 642.174C448 642.88 449.417 643.03 452.077 642.605C454.32 642.246 458.37 642.246 461.077 642.606L466 643.259V696.283V749.306L422.75 748.657C398.962 748.299 317.625 747.739 242 747.412C166.375 747.085 102.25 746.673 99.5 746.496C96.75 746.32 73.495 746.136 47.823 746.088C4.253 746.007 1.116 745.885 0.689 744.251C0.438 743.289 0.18 743.923 0.116 745.661L0 748.82L51.25 748.904C115.282 749.008 263.47 749.993 291.5 750.501C303.05 750.71 347.038 750.908 389.25 750.941L466 751.001V772.001C466 785.334 466.365 793.001 467 793.001C467.55 793.001 468.076 791.314 468.169 789.251C468.261 787.189 468.505 783.476 468.711 781.001C469.49 771.621 469.858 333.438 469.105 311.501C468.481 293.309 468.268 303.864 468.085 362.001ZM112.087 306.251C107.279 316.734 104.575 323.909 105.197 324.531C105.804 325.139 118.813 319.016 125.5 314.976C128.25 313.314 131.971 311.203 133.769 310.284C135.566 309.365 136.896 308.189 136.723 307.671C136.43 306.79 118.467 298.169 116.685 298.054C116.237 298.025 114.168 301.713 112.087 306.251ZM153.167 302.665C145.924 306.661 145.021 307.451 146.269 308.699C147.059 309.488 148.425 310.24 149.305 310.369C150.184 310.499 151.713 311.292 152.702 312.133C156.35 315.236 175.816 325.519 176.585 324.749C176.751 324.584 174.725 320.578 172.083 315.848C169.441 311.118 166.981 306.061 166.617 304.609C165.979 302.067 163.116 297.966 162.028 298.034C161.737 298.052 157.75 300.136 153.167 302.665ZM272.5 347.431C258.514 350.469 249.391 355.424 239.403 365.407C232.957 371.851 230.408 375.321 226.903 382.426L222.5 391.35V406.926V422.501L226.755 432.001C234.093 448.387 246.581 459.958 263.269 465.833C274.052 469.63 287 471.161 287 468.639C287 467.363 285.95 466.983 282.25 466.919C275.629 466.804 272.477 466.242 265 463.843C242.922 456.761 228.916 439.844 225.022 415.56C223.502 406.086 226.533 386.679 230.226 382.228C231.123 381.147 231.493 381.143 232.256 382.204C232.914 383.119 233.008 382.946 232.575 381.619C231.76 379.118 236.439 371.938 243.203 365.311C248.552 360.069 259.434 353.533 261.098 354.562C261.594 354.868 262 354.715 262 354.22C262 352.883 269.587 350.628 271.048 351.531C271.811 352.002 272.059 351.905 271.674 351.283C270.808 349.882 276.656 349.025 287.183 349.012C294.898 349.002 295.934 349.217 296.48 350.938C296.818 352.003 298.086 353.098 299.297 353.373C301.842 353.948 288.508 352.993 285.5 352.384C281.636 351.602 268.428 354.223 261.557 357.134C247.85 362.942 235.79 375.787 229.8 390.959C227.985 395.556 227.608 398.548 227.589 408.501C227.568 419.491 227.796 420.998 230.298 426.403C231.8 429.65 232.831 432.504 232.589 432.745C232.099 433.236 234.765 436.435 243.164 445.433C253.609 456.623 269.754 464.001 283.796 464.001C289.778 464.001 294 462.839 294 461.193C294 460.787 289.837 460.427 284.75 460.393C277.453 460.343 273.991 459.788 268.354 457.763C252.235 451.972 237.955 438.91 237.537 429.574C237.433 427.264 237.018 424.84 236.615 424.187C236.193 423.504 236.437 422.995 237.191 422.986C241.233 422.938 243.608 416.234 239.924 415.271C238.866 414.994 238 414.362 238 413.865C238 413.369 236.762 413.207 235.25 413.505C232.739 414 232.696 413.961 234.75 413.056C237.647 411.781 237.585 411.174 234.44 409.978C233.032 409.443 232.165 408.543 232.514 407.978C232.863 407.413 232.553 407.075 231.824 407.226C230.065 407.591 230.454 401.16 232.577 394.768C233.773 391.168 234.657 390.001 236.187 390.001C237.558 390.001 238.032 389.526 237.651 388.533C237.341 387.726 237.525 386.795 238.06 386.464C238.595 386.133 238.774 385.444 238.457 384.932C238.141 384.42 238.274 384.001 238.752 384.001C239.231 384.001 240.704 382.989 242.026 381.751C243.347 380.513 245.309 379.051 246.385 378.501C249.215 377.055 249.498 375.121 247.014 374.202C244.99 373.453 245.157 373.127 249.785 368.799C256.182 362.815 270.952 356.001 274.541 357.378C275.344 357.686 276 357.502 276 356.97C276 356.432 279.285 356.001 283.377 356.001C298.434 356.001 314.99 361.872 316.033 367.582C316.344 369.279 316.059 370.92 315.353 371.501C314.685 372.051 313.995 373.401 313.819 374.501C313.582 375.989 313.983 376.418 315.386 376.176C316.753 375.94 317.105 376.284 316.667 377.426C316.24 378.54 316.656 379.001 318.09 379.001C319.206 379.001 319.84 379.451 319.5 380.001C319.138 380.586 320.176 381.001 322 381.001C323.824 381.001 324.862 381.416 324.5 382.001C324.16 382.551 324.61 383.001 325.5 383.001C326.39 383.001 326.891 383.369 326.613 383.819C326.335 384.269 327.037 385.281 328.173 386.069C329.309 386.857 331.5 388.739 333.042 390.251C334.584 391.763 336.26 393.001 336.765 393.001C337.814 393.001 340 399.668 340 402.867C340 404.041 339.556 405.001 339.013 405.001C338.471 405.001 337.369 406.576 336.564 408.501C335.567 410.888 334.45 412.001 333.051 412.001C331.498 412.001 331 412.646 331 414.656C331 417.09 331.145 417.186 332.75 415.808C335.898 413.104 337.631 412.508 335.595 414.829C334.547 416.024 334.071 417.001 334.536 417.001C335.002 417.001 334.641 417.564 333.734 418.251C331.555 419.904 328.855 425.28 329.861 425.963C330.298 426.259 331.085 428.526 331.61 431.001C332.758 436.411 331.282 439.557 324.744 445.628C318.335 451.578 315.192 453.502 307.172 456.383C298.383 459.539 296 460.749 296 462.055C296 463.285 299.133 462.586 309.963 458.941C314.617 457.374 318.66 456.328 318.948 456.615C320.698 458.366 304.485 465.005 295.116 466.374C291.947 466.837 289.094 468.51 290.067 469.335C291.093 470.206 305.081 467.039 311.5 464.483C324.093 459.469 334.496 450.947 340.245 440.938C341.646 438.498 344.077 432.901 345.647 428.501C348.22 421.287 348.496 419.273 348.457 408.001C348.427 399.179 347.91 393.831 346.701 389.825C342.997 377.556 328.396 360.623 315.801 353.99C304.088 347.822 284.42 344.842 272.5 347.431ZM308 356.812C311.025 358.291 313.725 359.778 314 360.117C314.275 360.455 316.305 361.647 318.511 362.765C320.717 363.883 324.863 367.102 327.725 369.919C332.764 374.88 340 385.772 340 388.398C340 389.107 340.9 392.304 342 395.501C347.424 411.266 341.732 432.859 328.51 446.68C320.637 454.909 323.933 453.832 332.523 445.368C337.175 440.784 338.964 438.349 338.523 437.2C338.177 436.299 338.216 435.884 338.609 436.277C339.003 436.67 340.712 433.732 342.407 429.747C345.347 422.834 345.48 421.93 345.299 410.094C345.194 403.269 344.681 397.419 344.158 397.094C343.113 396.442 341.412 390.707 340.437 384.544C340.093 382.367 338.55 378.767 337.008 376.544C333.069 370.861 320.272 358.715 319.031 359.482C318.464 359.832 318 359.417 318 358.56C318 357.701 317.156 357.001 316.122 357.001C315.089 357.001 312.629 356.326 310.654 355.501C308.68 354.676 306.037 354.028 304.782 354.062C303.142 354.106 304.048 354.88 308 356.812ZM280.717 360.995C279.949 362.091 279 362.667 278.607 362.275C278.215 361.883 278.19 362.332 278.551 363.273C278.971 364.367 278.631 365.205 277.609 365.597C276.731 365.935 276.269 366.626 276.583 367.135C277.126 368.014 274.664 375.264 269.312 388.543L266.877 394.585L254.789 394.875C241.27 395.199 238 395.993 238 398.956C238 400.863 239.305 401.808 249.171 407.045C250.77 407.894 251.724 408.979 251.289 409.455C250.855 409.932 251.023 410.023 251.661 409.657C252.911 408.942 258.983 411.969 258.994 413.313C258.997 413.759 257.918 416.459 256.596 419.313C247.476 438.998 246.254 444.18 250.584 444.799C252.644 445.093 276.726 433.473 282.511 429.394C284.155 428.235 286.125 427.505 286.889 427.773C287.737 428.071 288.006 427.82 287.58 427.131C287.196 426.509 287.155 426.001 287.488 426.001C288.038 426.001 297.294 431.118 306.79 436.67C310.686 438.948 314 439.613 314 438.116C314 437.272 310.812 434.896 306.5 432.526C299.187 428.506 292.925 424.688 292.49 423.984C292.209 423.53 293.221 422.502 294.739 421.701C296.258 420.9 300.114 418.791 303.309 417.015C306.505 415.239 309.242 413.947 309.392 414.144C309.542 414.34 311.575 418.101 313.909 422.501C318.877 431.866 319.714 432.909 320.539 430.761C320.871 429.895 320.054 427.458 318.723 425.344C317.392 423.23 315.363 419.37 314.214 416.765L312.125 412.029L318.312 408.474C331.783 400.736 335 398.346 335 396.075C335 393.588 331.414 393.001 316.235 393.001C305.489 393.001 303.533 392.754 302.392 391.251C301.661 390.289 301.049 388.713 301.032 387.751C301.014 386.789 300.55 386.001 300 386.001C299.45 386.001 298.998 385.439 298.995 384.751C298.985 381.845 290.042 362.9 287.464 360.322C285.531 358.389 282.318 358.709 280.717 360.995ZM280.169 370.751C278.412 375.013 276.789 379.469 276.563 380.653C276.337 381.837 275.433 384.196 274.554 385.896C273.675 387.596 272.532 390.102 272.014 391.465L271.072 393.942L280.786 393.88C286.129 393.846 290.95 393.92 291.5 394.044C292.05 394.167 293.957 393.928 295.738 393.512C298.621 392.839 298.906 392.467 298.334 390.128C297.981 388.683 297.424 387.276 297.096 387.001C296.768 386.726 295.557 384.476 294.404 382.001C286.901 365.895 285.387 363.01 284.432 363.006C283.845 363.003 281.926 366.489 280.169 370.751ZM290.665 396.652C290.574 396.735 285.775 397.122 280 397.511C274.008 397.915 269.178 398.709 268.75 399.36C268.337 399.987 267.506 402.301 266.902 404.501C266.298 406.701 265.391 409.006 264.886 409.623C264.262 410.386 265.013 411.135 267.234 411.964C274.296 414.6 275 415.01 275 416.48C275 418.487 273.412 418.371 268.141 415.979C263.149 413.714 262 413.552 262 415.112C262 415.722 260.438 419.435 258.53 423.362C253.858 432.974 250.838 441.001 251.894 441.001C254.737 441.001 282.098 426.27 283.515 423.976C283.838 423.454 282.28 422.296 280.051 421.405C277.823 420.513 276 419.158 276 418.392C276 416.414 277.992 416.662 283.179 419.288L287.696 421.575L297.902 415.914C306.449 411.173 307.896 410.029 306.804 408.877C306.087 408.12 305.5 407.051 305.5 406.501C305.5 405.951 304.6 403.63 303.5 401.343C301.567 397.324 301.321 397.173 296.165 396.843C293.23 396.655 290.755 396.569 290.665 396.652ZM305.997 398.251C305.993 400.237 310.391 408.001 311.52 408.001C312.083 408.001 316.584 405.529 321.522 402.507L330.5 397.013L318.25 397.007C309.115 397.003 305.999 397.319 305.997 398.251ZM243.727 398.842C242.2 399.446 242.373 399.79 244.979 401.33C246.643 402.312 248.453 402.839 249.002 402.5C249.551 402.161 250 402.277 250 402.758C250 403.77 256.662 407.658 259.258 408.161C260.54 408.409 261.677 407.08 263.462 403.251L265.908 398.001L255.704 398.071C250.092 398.11 244.702 398.457 243.727 398.842ZM327.029 418.962C326.22 419.474 325.863 420.197 326.236 420.57C327.151 421.485 330 420.321 330 419.032C330 417.762 328.965 417.738 327.029 418.962ZM269.813 423.684C270.534 423.973 271.397 423.937 271.729 423.605C272.061 423.273 271.471 423.037 270.417 423.08C269.252 423.128 269.015 423.365 269.813 423.684ZM321.274 434.102C321.585 435.422 322.164 437.558 322.562 438.85C323.27 441.149 323.222 441.168 320.393 439.738C317.469 438.26 315 438.412 315 440.071C315 441.168 321.534 444.001 324.063 444.001C326.917 444.001 327.156 442.53 325.086 437.702C322.9 432.602 320.356 430.2 321.274 434.102ZM106.5 466.57C95.462 468.896 82.479 475.778 74.913 483.312C68.591 489.608 61.54 500.164 59.092 507.001C56.822 513.338 55.934 530.492 57.467 538.4C59.192 547.299 64.599 559.044 69.833 565.264C75.811 572.367 84 578.873 84 576.518C84 576.253 81.399 573.44 78.22 570.268C68.192 560.264 62.665 551.208 61.881 543.501C61.713 541.851 61.273 540.051 60.903 539.501C59.372 537.224 58.858 531.877 60.034 530.46C60.984 529.316 60.979 529.001 60.013 529.001C59.079 529.001 58.949 526.889 59.474 520.251C59.855 515.439 60.544 511.109 61.005 510.629C61.466 510.15 61.577 509.063 61.252 508.215C60.832 507.12 61.044 506.91 61.985 507.491C62.832 508.015 63.069 507.922 62.643 507.232C62.043 506.261 63.544 503.002 67.76 496.119C68.932 494.206 69.407 494.009 70.175 495.119C70.879 496.137 70.983 495.967 70.569 494.473C69.579 490.906 81.048 480.098 91.062 475.16C105.421 468.08 123.852 465.871 132.211 470.228C134.56 471.453 137.162 472.553 137.991 472.673C142.205 473.283 150.218 476.405 150.683 477.618C150.975 478.379 152.345 479.001 153.728 479.001C155.532 479.001 158.427 481.19 163.976 486.751C172.218 495.01 174.457 498.413 175.322 504.001C176.176 509.519 178.009 515.001 179 515.001C179.498 515.001 179.829 516.014 179.735 517.251C179.642 518.488 179.91 523.108 180.331 527.517C181.228 536.906 180.053 542.477 174.718 554.128C172.222 559.579 170.338 562.279 168.113 563.593C166.401 564.605 165 566.01 165 566.717C165 567.423 164.433 568.001 163.741 568.001C163.048 568.001 161.919 568.901 161.232 570.001C160.545 571.101 159.249 572.001 158.351 572.001C157.327 572.001 158.419 570.504 161.278 567.987C168.1 561.982 175.359 549.504 177.625 539.885C177.934 538.574 178.412 533.901 178.688 529.501C179.129 522.482 178.814 520.336 176.118 512.001C172.537 500.93 168.451 494.442 160.459 487.138C154.585 481.769 142.385 475.222 134 472.938C131.525 472.264 124.55 471.7 118.5 471.684C108.837 471.659 106.649 471.989 100.5 474.397C87.705 479.408 81.632 483.95 73.564 494.544C68.172 501.623 63 512.142 63 516.03C63 517.179 62.663 517.91 62.25 517.654C61.837 517.398 61.754 522.434 62.064 528.845C62.465 537.158 63.131 541.459 64.386 543.841C65.353 545.678 65.892 547.839 65.584 548.643C65.275 549.447 65.394 549.876 65.847 549.596C66.3 549.316 67.368 550.53 68.221 552.294C71.317 558.695 84.262 572.001 87.394 572.001C89.833 572.001 89.312 569.464 86.623 568.239C82.804 566.499 72.554 553.371 72.385 550.002C72.304 548.398 71.963 545.99 71.627 544.65C71.135 542.689 71.459 542.103 73.292 541.642C74.967 541.222 75.631 540.258 75.804 537.996C75.995 535.484 75.53 534.699 73.269 533.711C71.746 533.045 70.5 531.939 70.5 531.251C70.5 530.564 70.264 530.113 69.975 530.251C69.11 530.664 66.174 527.561 66.664 526.751C66.914 526.338 66.602 526.001 65.971 526.001C65.187 526.001 65.038 524.735 65.5 521.998C65.872 519.797 66.309 516.984 66.47 515.748C66.96 512.001 68.037 510.224 70.156 509.67C71.422 509.339 72.047 508.483 71.833 507.371C71.536 505.829 75.161 501.001 76.617 501.001C76.906 501.001 77.731 500.439 78.449 499.751C79.167 499.064 80.71 497.839 81.877 497.03C84.544 495.183 84.562 494.144 81.944 493.176C79.954 492.44 79.98 492.318 82.767 489.402C87.073 484.896 91.136 482.263 99.212 478.741C106.222 475.685 106.995 475.567 119.5 475.653C131.426 475.735 133.078 475.98 139.5 478.621C143.35 480.205 147.285 481.968 148.245 482.538C150.466 483.858 151.113 489.126 149.351 491.536C147.581 493.956 147.644 495.001 149.559 495.001C150.416 495.001 150.859 495.42 150.542 495.933C149.743 497.225 153.959 500.001 156.723 500.001C157.975 500.001 159 500.451 159 501.001C159 501.551 159.75 502.001 160.667 502.001C161.583 502.001 162.045 502.289 161.692 502.642C160.929 503.405 166.393 508.487 170.175 510.53C172.266 511.659 173.129 513.22 174.126 517.671C175.105 522.05 175.125 523.459 174.209 523.765C173.554 523.983 172.28 525.717 171.378 527.617C170.476 529.518 169.513 530.847 169.238 530.572C168.03 529.365 165.207 532.078 165.702 533.97C166.09 535.451 165.551 536.221 163.612 536.958C160.595 538.106 160.127 540.001 162.861 540.001C164.308 540.001 164.616 540.559 164.245 542.501C163.966 543.96 164.232 545.001 164.883 545.001C165.498 545.001 166.032 546.238 166.07 547.751C166.109 549.264 166.494 551.401 166.925 552.501C167.486 553.932 166.985 555.496 165.164 558.001C161.797 562.629 156.797 568.001 155.855 568.001C155.442 568.001 153.889 569.126 152.406 570.501C150.871 571.923 145.672 574.293 140.342 576.001C132.254 578.592 129.462 579.001 119.877 579.001C109.437 579.001 108.248 578.786 99.841 575.383C90.399 571.56 87.548 571.62 92.451 575.538C95.405 577.899 100.998 580.204 108.5 582.154C115.756 584.04 132.355 582.495 142.465 578.994C147.396 577.286 152.009 575.409 152.715 574.822C153.687 574.016 154 574.23 154 575.701C154 579.646 132.925 586 119.838 586.001C111.851 586.001 100.458 583.617 94 580.595C87.847 577.715 84.028 577.125 85.865 579.338C88.757 582.823 109.806 588.95 119 588.982C137.066 589.046 157.891 580.437 169.111 568.265C176.739 559.989 184 540.351 184 527.995C184 519.716 181.969 508.876 179.391 503.393C173.916 491.75 160.699 477.923 149.733 472.366C138.348 466.597 118.804 463.977 106.5 466.57ZM114.574 481.751C113.223 483.814 110.569 490.001 108.676 495.501C106.782 501.001 104.474 507.37 103.546 509.655L101.86 513.808L88.18 514.355C71.457 515.023 72.157 514.884 72.815 517.401C73.547 520.201 75.998 522.034 85.726 527.06C90.277 529.41 94 531.711 94 532.172C94 532.633 92.851 535.371 91.447 538.256C83.151 555.297 81.289 563.064 85.315 563.828C87.278 564.201 95.965 560.2 99.985 557.071C104.373 553.657 101.237 553.596 93.952 556.953C90.062 558.746 86.682 560.016 86.44 559.775C86.199 559.533 88.548 553.403 91.661 546.152C97.999 531.386 96.859 532.119 106.674 536.507C109.519 537.779 112.107 538.561 112.424 538.244C113.993 536.675 112.401 535.252 106.124 532.614L99.256 529.727L101.613 523.712C102.91 520.404 104.146 517.521 104.362 517.306C104.577 517.091 110.25 516.638 116.968 516.301C126.022 515.845 129.321 515.328 129.715 514.301C130.008 513.538 130.079 512.794 129.874 512.647C129.668 512.499 124.212 512.631 117.748 512.94C111.285 513.248 105.997 513.221 105.998 512.878C105.999 512.536 106.827 510.286 107.838 507.878C108.849 505.471 111.206 499.603 113.076 494.839C114.945 490.075 116.888 486.432 117.392 486.743C117.896 487.055 117.999 486.809 117.621 486.196C117.242 485.584 117.498 484.176 118.19 483.069C119.399 481.133 119.511 481.18 121.096 484.278C127.698 497.188 131.022 504.312 130.626 504.708C130.05 505.285 133.163 509.001 134.222 509.001C135.816 509.001 134.916 503.862 132.342 498.273C122.556 477.021 119.519 474.197 114.574 481.751ZM134.736 509.599C134.407 509.928 134.357 510.768 134.625 511.467C134.894 512.167 134.188 512.98 133.057 513.276C130.174 514.03 130.486 516.001 133.487 516.001C135.557 516.001 136.549 517.141 139.395 522.792L142.815 529.584L137.158 532.498C134.046 534.101 129.801 536.512 127.724 537.857C124.322 540.059 123.566 540.188 120.108 539.151C117.996 538.519 115.758 538.001 115.134 538.001C113.083 538.001 113.95 540.021 116.5 541.183C117.875 541.809 118.998 542.587 118.997 542.912C118.995 543.236 116.502 544.845 113.457 546.487C108.154 549.348 102.167 554.501 103.082 555.416C103.483 555.817 107.616 553.915 115.645 549.636C117.374 548.714 119.342 547.294 120.017 546.48C120.692 545.667 121.672 545.001 122.195 545.001C122.717 545.001 127.499 547.536 132.822 550.634C151.758 561.655 159.746 564.839 161.468 562.052C161.791 561.53 158.692 554.472 154.583 546.367C150.473 538.262 147.307 531.313 147.547 530.925C148.506 529.374 158.159 524.981 159.198 525.623C159.809 526.001 160.032 525.862 159.694 525.315C159.089 524.336 164.074 520.001 165.805 520.001C166.292 520.001 167.431 519.182 168.337 518.181C169.771 516.597 169.801 516.111 168.575 514.431C167.314 512.705 165.619 512.467 152.523 512.176C140.991 511.92 137.764 511.549 137.333 510.426C136.757 508.925 135.735 508.599 134.736 509.599ZM140 515.899C140 516.394 141.287 519.245 142.861 522.236L145.721 527.674L151.111 524.71C154.075 523.08 157.932 520.679 159.683 519.374C161.434 518.069 163.459 516.949 164.183 516.886C164.907 516.823 163.7 516.399 161.5 515.944C156.059 514.818 140 514.785 140 515.899ZM80.5 517.967L75.5 518.501L79 519.926C80.925 520.709 83.625 522.097 85 523.01C86.375 523.923 89.336 525.385 91.579 526.259L95.658 527.848L98.33 522.4L101.002 516.952L93.251 517.192C88.988 517.324 83.25 517.673 80.5 517.967ZM135.25 537.619C130.713 540.123 127 542.471 127 542.838C127 543.625 135.967 548.501 137.414 548.501C137.961 548.501 139.437 549.528 140.692 550.784C143.041 553.133 157.035 560.299 157.793 559.541C158.027 559.308 155.581 554.253 152.359 548.309C149.136 542.365 146.125 536.488 145.667 535.251C145.208 534.014 144.533 533.016 144.167 533.034C143.8 533.052 139.787 535.115 135.25 537.619ZM372.278 603.751C370.247 606.757 367.565 613.39 363.675 625.029C360.131 635.634 359.03 637.76 356.777 638.349C355.68 638.636 355.097 639.349 355.468 639.95C355.837 640.546 356.561 640.773 357.077 640.454C357.593 640.135 357.49 641.027 356.847 642.437C356.205 643.847 355.253 645.001 354.732 645.001C354.212 645.001 354.028 645.632 354.324 646.404C354.62 647.175 354.246 648.638 353.492 649.654C352.333 651.217 351.807 651.309 350.074 650.251C348.948 649.564 347.346 649.001 346.514 649.001C345.681 649.001 344.993 648.664 344.984 648.251C344.976 647.838 342.685 646.38 339.894 645.009C337.103 643.639 334.608 642.176 334.35 641.759C334.093 641.342 337.763 641.001 342.507 641.001C350.935 641.001 355 639.987 355 637.886C355 636.689 335.302 636.975 331.933 638.222C328.27 639.577 329.941 643.038 336 646.647C339.025 648.449 342.288 649.941 343.25 649.962C344.212 649.983 345 650.396 345 650.88C345 651.363 346.345 652.316 347.99 652.997C350.535 654.051 350.888 654.626 350.361 656.868C350.021 658.316 348.925 661.076 347.927 663.001C343.633 671.28 339.901 681.314 340.189 683.808C340.468 686.223 340.873 686.48 344.114 686.297C346.256 686.176 351.51 684.037 357.014 681.047C362.121 678.272 366.613 676.001 366.995 676.001C367.377 676.001 370.386 674.258 373.682 672.128C378.872 668.774 379.967 668.413 381.868 669.43C383.075 670.076 383.725 670.943 383.312 671.356C382.899 671.769 383.409 671.781 384.445 671.384C385.746 670.884 386.107 671.019 385.612 671.82C385.173 672.53 385.402 672.784 386.202 672.477C386.92 672.201 389.981 673.612 393.004 675.612C396.027 677.612 401.2 680.358 404.5 681.715C407.8 683.071 411.281 684.591 412.236 685.091C414.537 686.296 417.729 686.248 418.503 684.996C419.107 684.019 415.332 675.857 410.297 667.251C408.929 664.914 408.217 663.001 408.714 663.001C409.211 663.001 410.491 662.294 411.559 661.429C413.41 659.93 413.36 659.881 410.478 660.359C407.915 660.784 407.192 660.401 405.723 657.842C404.771 656.182 404.21 654.471 404.476 654.039C405.154 652.943 416.095 647.668 417.69 647.668C418.411 647.668 419 647.158 419 646.535C419 645.913 420.796 644.3 422.992 642.952C431.155 637.94 425.499 635.068 407.73 635.205C401.257 635.254 395.683 635.018 395.344 634.679C395.005 634.34 392.832 629.601 390.515 624.148C388.198 618.695 385.334 612.875 384.151 611.213C382.968 609.552 382 607.76 382 607.231C382 605.339 377.819 601.001 375.996 601.001C374.973 601.001 373.3 602.238 372.278 603.751ZM373.059 610.251C371.785 613.139 370.307 617.076 369.773 619.001C369.24 620.926 367.725 623.931 366.406 625.679C365.087 627.427 364.249 629.487 364.545 630.257C364.84 631.026 364.604 632.912 364.021 634.446L362.96 637.237L370.23 636.649C374.228 636.326 380.736 636.048 384.691 636.031L391.881 636.001L390.447 633.251C389.658 631.738 389.01 629.912 389.006 629.192C389.003 628.458 388.493 628.196 387.845 628.596C387.191 629.001 386.96 628.874 387.313 628.303C387.947 627.278 384.596 619.738 383.842 620.492C383.615 620.72 383.376 620.14 383.312 619.203C383.046 615.297 377.797 605.001 376.072 605.001C375.689 605.001 374.333 607.363 373.059 610.251ZM9.5 611.047C2.497 612.143 1 612.626 1 613.794C1 614.265 5.612 614.027 11.25 613.266C23.602 611.597 30.77 612.088 43.501 615.476C48.797 616.885 53.559 617.774 54.082 617.45C55.58 616.524 54.102 615.002 51.691 614.988C50.486 614.981 46.575 614.051 43 612.921C35.439 610.531 18.757 609.598 9.5 611.047ZM56 616.608C56 617.663 56.544 618.006 57.582 617.608C58.452 617.274 60.053 617.001 61.141 617.001C62.228 617.001 62.84 616.551 62.5 616.001C61.439 614.285 56 614.793 56 616.608ZM14 622.853C15.925 623.828 18.4 625.107 19.5 625.696C25.211 628.752 32.994 630.99 37.519 630.876L42.5 630.751L37.412 630.005C34.613 629.595 31.238 628.553 29.912 627.69C28.585 626.827 26.372 625.973 24.993 625.793C23.615 625.613 20.862 624.461 18.875 623.233C16.889 622.005 14.192 621.019 12.882 621.041C10.773 621.076 10.901 621.284 14 622.853ZM44.75 629.707C45.987 629.945 48.013 629.945 49.25 629.707C50.487 629.468 49.475 629.273 47 629.273C44.525 629.273 43.513 629.468 44.75 629.707ZM53 630.949C53.825 631.511 55.813 631.977 57.417 631.986C61.259 632.006 60.461 631.427 55.5 630.597C52.634 630.117 51.925 630.216 53 630.949ZM94.435 635.896C94.811 636.504 96.195 637.001 97.51 637.001C98.826 637.001 102.383 637.647 105.415 638.437C117.959 641.704 130.487 641.267 146.5 637.004C152.448 635.42 139.612 635.919 131.56 637.584C124.476 639.049 123.148 639.037 113.703 637.428C99.425 634.995 93.591 634.531 94.435 635.896ZM35 636.904C35 637.508 36.41 638.001 38.134 638.001C39.858 638.001 42.967 638.51 45.043 639.132C47.29 639.805 49.969 639.936 51.659 639.455C54.332 638.694 54.204 638.594 49.5 637.773C39.642 636.051 35 635.773 35 636.904ZM368.927 639.741L361.353 640.079L358.836 646.485L356.319 652.891L359.41 654.103C361.109 654.769 366.385 657.213 371.133 659.533L379.766 663.75L384.633 660.993C387.31 659.477 391.855 657.029 394.734 655.553L399.967 652.87L397.467 647.935C396.092 645.222 394.566 643.001 394.077 643.001C393.588 643.001 393.423 642.101 393.71 641.001C394.207 639.101 393.788 639.011 385.367 639.202C380.49 639.313 373.092 639.555 368.927 639.741ZM398.32 641.751C398.994 643.264 400.327 645.951 401.284 647.724C402.87 650.663 403.243 650.847 405.512 649.814C406.88 649.19 408 648.302 408 647.84C408 647.379 408.64 647.001 409.423 647.001C410.206 647.001 412.184 645.876 413.818 644.501C415.452 643.126 417.231 642.001 417.772 642.001C418.313 642.001 419.315 641.326 420 640.501C421.095 639.182 419.79 639.001 409.171 639.001H397.097L398.32 641.751ZM185 644.96C183.625 645.378 179.35 645.547 175.5 645.336C169.917 645.03 168.995 645.168 170.946 646.017C173.229 647.011 178.969 647.307 191.822 647.095C197.696 646.998 200.524 648.126 203.319 651.68C206.199 655.34 210.553 657.114 216.296 656.966C219.158 656.892 224.875 657.125 229 657.483C235.321 658.033 236.912 657.849 239.118 656.318C240.558 655.319 243.606 653.197 245.891 651.603C248.177 650.008 252.399 647.863 255.274 646.835L260.5 644.965L255.62 645.482C250.939 645.977 245.757 648.385 241.5 652.043C237.519 655.464 232.653 656.465 226.599 655.111C223.396 654.394 219.144 654.157 216.526 654.549C211.482 655.306 208.85 654.097 204.166 648.87C200.424 644.694 191.718 642.918 185 644.96ZM184 653.784C184 654.214 186.037 654.655 188.528 654.763C191.018 654.871 193.913 655.419 194.962 655.981C196.011 656.542 197.911 656.982 199.184 656.959C201.214 656.922 201.067 656.68 198 655.001C194.516 653.094 184 652.179 184 653.784ZM355 657.488C355 658.32 354.613 659.001 354.139 659.001C353.265 659.001 346.831 672.396 344.412 679.251C343.402 682.114 343.374 683.006 344.294 683.02C346.106 683.049 369.059 671.177 372.48 668.442C375.399 666.108 375.419 666.027 373.48 664.558C372.391 663.733 370.914 663.264 370.198 663.518C369.482 663.771 369.132 663.597 369.42 663.13C369.708 662.664 368.269 661.597 366.222 660.758C364.175 659.92 360.813 658.501 358.75 657.604C355.453 656.171 355 656.157 355 657.488ZM399.137 656.886C397.986 657.623 397.986 657.846 399.137 658.317C399.891 658.625 399.606 658.791 398.5 658.688C396.617 658.512 384 664.861 384 665.984C384 666.27 386.124 667.629 388.721 669.003C391.317 670.377 394.846 672.451 396.562 673.613C401.68 677.077 414.015 683.32 414.595 682.739C415.559 681.776 405.8 664.091 403.806 663.186C403.425 663.013 403.332 662.3 403.6 661.601C404.355 659.633 400.766 655.842 399.137 656.886ZM436.612 665.251C433.23 675.566 430.092 682.176 428.921 681.452C428.427 681.147 428.278 681.561 428.589 682.372C428.9 683.183 428.272 684.609 427.194 685.54C426.116 686.472 423.599 688.749 421.601 690.6C417.147 694.727 413.298 696.772 410 696.764C407.611 696.758 400 699.454 400 700.306C400 700.98 423.505 700.268 427.133 699.484C431.29 698.586 437.426 695.578 441.816 692.286C447.077 688.34 444.905 688.6 436.885 692.876C430.02 696.536 421 699.13 421 697.443C421 697.039 422.99 694.581 425.422 691.981C430.464 686.59 434.977 678.213 437.853 668.903C440.587 660.055 441.184 657.001 440.178 657.001C439.704 657.001 438.1 660.713 436.612 665.251ZM3.441 667.419C5.694 669.255 6.641 669.391 7.5 668.001C7.84 667.451 7.453 667.001 6.641 667.001C5.828 667.001 4.339 666.739 3.332 666.419C1.656 665.887 1.665 665.972 3.441 667.419ZM427.654 670.563C425.539 673.037 424.051 675.691 424.346 676.461C424.992 678.145 420.161 685.042 415.422 689.204C411.95 692.252 410.94 695.001 413.292 695.001C417.648 695.001 432.858 673.937 432.969 667.751C433.017 665.051 431.832 665.678 427.654 670.563ZM144.963 670.685C142.206 673.005 140.397 673.501 131.637 674.336C126.061 674.867 118.654 675.291 115.176 675.278C110.79 675.261 109.171 675.572 109.894 676.295C111.066 677.467 117.466 677.554 130 676.567C141.231 675.683 142.01 675.479 145.406 672.527C147.855 670.397 149.345 669.99 154.906 669.931C162.506 669.85 160.65 668.189 152.827 668.071C149.152 668.016 147.472 668.575 144.963 670.685ZM66 669.849C66 671.054 73.881 674.002 74.486 673.024C74.762 672.578 73.181 671.49 70.973 670.607C66.344 668.755 66 668.702 66 669.849ZM261 670.535C259.625 671.34 256.25 671.961 253.5 671.915C245.634 671.782 245.221 671.851 247 673.001C249.419 674.565 259.767 674.173 263.22 672.387C266.168 670.863 266.637 670.897 271.744 673.014C275.75 674.674 277.439 674.962 278.274 674.127C279.109 673.292 278.95 673.001 277.66 673.001C276.703 673.001 274.156 672.101 272 671.001C267.39 668.649 264.436 668.524 261 670.535ZM286.695 672.639C284.357 674.978 289.151 686.602 293.607 689.4C295.198 690.399 297.703 692.627 299.173 694.352C300.643 696.077 302.158 697.176 302.54 696.794C302.922 696.412 300.257 693.166 296.617 689.58C292.978 685.994 289.98 682.709 289.956 682.28C289.802 679.558 287.268 672.066 286.695 672.639ZM76 674.001C76 674.551 78.025 675.001 80.5 675.001C82.975 675.001 85 674.551 85 674.001C85 673.451 82.975 673.001 80.5 673.001C78.025 673.001 76 673.451 76 674.001ZM7.732 675.834C8.934 676.741 11.1 676.984 14.5 676.593C17.25 676.277 20.539 676.014 21.809 676.01C23.079 676.005 23.866 675.593 23.558 675.095C23.25 674.596 19.165 674.259 14.481 674.345C7.147 674.479 6.209 674.686 7.732 675.834ZM198.465 681.953C197.346 682.406 195.825 683.507 195.084 684.399C194.344 685.291 191.215 686.755 188.131 687.651C185.047 688.548 180.812 690.174 178.719 691.264C174.547 693.439 169.771 693.287 160.5 690.684C156.696 689.615 154.782 689.541 152.5 690.373C149.616 691.423 149.733 691.49 155.5 692.107C158.8 692.46 162.85 693.29 164.5 693.952C169.22 695.845 175.467 695.392 181.271 692.734C184.194 691.396 188.209 689.997 190.192 689.625C192.176 689.253 194.407 688.215 195.15 687.32C197.574 684.396 202.745 683.001 211.218 682.986C216.934 682.975 219.035 682.67 218 682.001C216.189 680.831 201.324 680.794 198.465 681.953ZM215 689.501C211.975 690.832 207.925 691.943 206 691.97C204.075 691.997 200.25 693.126 197.5 694.479C194.75 695.832 191.011 696.953 189.191 696.97C187.246 696.988 186.137 697.413 186.5 698.001C187.581 699.75 193.333 699.021 198.5 696.479C201.25 695.126 205.075 694.005 207 693.988C208.925 693.971 212.525 692.987 215 691.802C218.313 690.215 221.347 689.654 226.5 689.674C233.114 689.701 233.334 689.63 230.5 688.397C226.027 686.45 221.144 686.798 215 689.501ZM244.045 695.656C241.393 696.584 237.844 697.018 235.279 696.729C229.927 696.126 228.894 697.326 233.538 698.751C237.266 699.895 239.708 699.599 244.651 697.402C246.384 696.631 248.548 696.001 249.46 696.001C250.372 696.001 250.84 695.551 250.5 695.001C249.72 693.738 249.443 693.766 244.045 695.656ZM48.32 698.105C50.421 699.214 52.671 699.941 53.32 699.722C54.835 699.21 48.68 695.987 46.3 696.045C45.19 696.072 45.964 696.862 48.32 698.105ZM304 697.963C304 698.856 312.824 701.51 313.51 700.824C313.759 700.575 311.722 699.654 308.982 698.778C306.242 697.902 304 697.535 304 697.963ZM102.5 701.124C96.418 702.812 94.385 702.934 87 702.056C73.518 700.452 54.64 700.041 55.978 701.38C56.917 702.319 83.382 704.126 95.5 704.079C98.897 704.066 111.722 701.167 114 699.898C116.77 698.354 109.806 699.097 102.5 701.124ZM34 700.865C34 701.9 41.863 708.001 43.197 708.001C44.978 708.001 43.775 706.366 40.251 704.001C34.283 699.994 34 699.852 34 700.865ZM441.5 705.755C440.4 706.019 438.371 707.035 436.991 708.014C435.611 708.993 432.656 710.286 430.426 710.886C428.195 711.487 425.282 713.137 423.952 714.552C418.765 720.073 415.158 721.451 404 722.175C394.188 722.812 382.44 724.512 379 725.794C375.86 726.964 381.898 727.109 387.172 725.99C390.103 725.368 397.675 724.523 404 724.11C416.297 723.309 418.109 722.704 423.91 717.464C426.051 715.529 429.464 713.682 431.916 713.131C434.267 712.603 437.16 711.261 438.345 710.149C439.939 708.654 442.526 707.944 448.276 707.424C452.553 707.037 455.928 706.621 455.776 706.501C455.077 705.945 443.28 705.329 441.5 705.755ZM46 708.001C46 708.551 46.9 709.001 48 709.001C49.1 709.001 50 708.551 50 708.001C50 707.451 49.1 707.001 48 707.001C46.9 707.001 46 707.451 46 708.001ZM210.5 708.94C209.4 709.446 207.024 709.892 205.22 709.931C203.416 709.969 199.267 711.126 196 712.501C188.167 715.798 180.173 715.894 175.118 712.753C171.815 710.7 170.236 710.499 157 710.444C143.219 710.387 142.723 710.452 147 711.761C150.148 712.725 154.119 712.958 160.217 712.536C168.217 711.984 169.346 712.143 173.934 714.468C180.274 717.68 188.5 717.864 194.952 714.937C199.245 712.99 206.491 711.413 216.063 710.343C219.518 709.957 222.172 710.461 226.986 712.417C231.012 714.053 235.259 715.001 238.563 715.001C241.626 715.001 245.582 715.818 248.141 716.979C250.538 718.067 253.85 718.922 255.5 718.88C258.328 718.808 258.266 718.729 254.416 717.514C252.17 716.804 248.93 715.499 247.216 714.613C245.502 713.726 241.809 713.001 239.01 713.001C235.774 713.001 232.387 712.218 229.71 710.851C225.096 708.495 213.888 707.38 210.5 708.94ZM269.5 710.176C273.35 711.276 278.75 712.347 281.5 712.557L286.5 712.938L281.994 711.636C279.516 710.919 276.508 709.808 275.31 709.167C274.112 708.526 270.739 708.041 267.816 708.089L262.5 708.177L269.5 710.176ZM54 709.766C54 711.997 62.755 712.893 78.75 712.297C87.688 711.965 95 711.361 95 710.956C95 709.736 79.987 709.272 72.5 710.261C65.826 711.143 61.201 710.908 56.25 709.436C54.973 709.057 54 709.199 54 709.766ZM312 711.76C312 712.83 323.984 717.005 327 716.986C328.375 716.977 330.175 716.534 331 716.001C332.115 715.281 331.531 715.028 328.725 715.016C326.649 715.008 322.389 714.101 319.26 713.001C313.007 710.803 312 710.631 312 711.76ZM111.722 717.794C106.786 720.404 103.321 721.495 98.972 721.809C91.897 722.321 90.935 724.001 97.717 724.001C102.907 724.001 109.483 721.863 115.23 718.308C117.282 717.039 119.869 716.001 120.98 716.001C122.091 716.001 123 715.551 123 715.001C123 713.103 118.478 714.223 111.722 717.794ZM11 717.895C11 719.893 15.189 722.118 20.03 722.691C24.854 723.262 25.847 723.848 30.997 729.16C35.35 733.65 37.334 735.002 39.58 735.005C41.186 735.007 43.973 735.907 45.774 737.005C48.303 738.547 50.813 739.001 56.806 739.001C61.073 739.001 66.912 739.61 69.782 740.355C72.652 741.099 75 741.561 75 741.38C75 741.2 73.672 740.366 72.05 739.527C70.106 738.522 66.267 737.998 60.8 737.992C54.017 737.984 51.586 737.533 47.5 735.523C44.75 734.17 41.43 733.049 40.122 733.032C38.545 733.012 35.811 730.982 32 727.001C27.22 722.009 25.688 720.997 22.878 720.979C21.02 720.967 17.587 720.089 15.25 719.028C12.912 717.967 11 717.457 11 717.895ZM161.529 728.113C157.219 730.423 152.421 730.925 147 729.634C143.611 728.827 143.557 728.859 145.286 730.651C147.882 733.341 158.927 733.282 161.932 730.562C163.402 729.232 166.025 728.481 170.287 728.169C174.673 727.848 175.912 727.483 174.5 726.928C170.841 725.49 165.517 725.976 161.529 728.113ZM327.887 732.751C325.02 735.164 323.388 735.609 314.56 736.379C309.027 736.862 301.907 737.284 298.737 737.316C292.398 737.381 292.242 738.957 298.559 739.12C306.723 739.331 323.598 737.682 326.073 736.432C327.488 735.718 329.23 734.428 329.945 733.567C330.883 732.437 333.092 731.997 337.872 731.986C342.521 731.975 344.052 731.681 343 731.001C342.175 730.468 339.172 730.025 336.327 730.016C332.129 730.004 330.538 730.519 327.887 732.751ZM442.845 732.486C438.725 734.002 434.886 736.289 430.546 739.815C428.037 741.853 426.788 742.148 422.254 741.772C415.445 741.208 414.389 742.592 420.941 743.493C426.637 744.276 429.302 743.625 433.507 740.424C438.749 736.433 447.24 733.022 452 732.995C454.475 732.982 457.175 732.534 458 732.001C460.354 730.48 447.151 730.903 442.845 732.486ZM208.37 732.791C208.71 733.34 210.678 734.015 212.744 734.29C214.81 734.565 220.1 735.497 224.5 736.361C234.576 738.339 241.011 738.377 248 736.501C251.025 735.689 255.075 735.013 257 734.998C258.925 734.983 261.175 734.534 262 734.001C264.426 732.433 256.646 732.768 246.797 734.655C238.555 736.235 237.547 736.226 227.797 734.498C214.279 732.102 207.581 731.514 208.37 732.791ZM69.5 735.001C69.84 735.551 72.013 736.001 74.329 736.001C76.645 736.001 81.788 736.901 85.757 738.001C89.727 739.101 93.318 739.983 93.737 739.961C95.223 739.883 88.79 736.842 84.179 735.443C78.74 733.792 68.564 733.486 69.5 735.001ZM444.5 741.244C441.501 742.858 440.95 743.494 442.299 743.782C443.289 743.994 445.275 743.396 446.713 742.454C448.151 741.511 450.491 740.388 451.914 739.957C454.493 739.175 454.492 739.173 451.5 739.131C449.85 739.108 446.7 740.059 444.5 741.244ZM0.232 746.001C0.232 747.926 0.438 748.713 0.689 747.751C0.941 746.789 0.941 745.213 0.689 744.251C0.438 743.289 0.232 744.076 0.232 746.001ZM106.5 761.901C103.888 762.479 103.727 762.696 105.259 763.578C106.644 764.375 107.039 766.018 107.118 771.311C107.178 775.31 106.72 778.633 105.987 779.516C104.93 780.79 105.369 781.001 109.078 781.001C112.439 781.001 113.133 780.734 112.2 779.801C110.4 778.001 110.628 765.555 112.489 764.01C115.556 761.464 112.824 760.502 106.5 761.901ZM172.244 762.527C166.969 766.258 165.618 774.711 169.595 779.105C171.703 781.435 177.161 782.52 179.764 781.127C182.164 779.843 185 774.149 185 770.616C185 767.481 180.44 762.287 177 761.502C175.493 761.158 173.604 761.565 172.244 762.527ZM219.25 761.738C213.592 762.134 212.866 762.812 216 764.769C218.481 766.318 218.761 774.019 216.494 778.365C215.672 779.941 215 781.403 215 781.615C215 781.827 217.025 782.001 219.5 782.001C222.716 782.001 224 781.597 224 780.584C224 779.805 223.62 779.018 223.155 778.834C222.69 778.651 222.004 777.253 221.63 775.728C221.069 773.44 221.348 772.795 223.225 772.041C225.043 771.311 225.136 771.115 223.69 771.064C222.218 771.013 221.937 770.3 222.19 767.259C222.401 764.707 223.035 763.416 224.183 763.199C226.574 762.746 228.369 766.443 227 769.001C226.231 770.438 226.24 771.001 227.031 771.001C229.604 771.001 232 768.789 232 766.415C232 764.489 231.186 763.559 228.532 762.45C226.625 761.653 224.937 761.084 224.782 761.186C224.627 761.288 222.137 761.536 219.25 761.738ZM255.25 761.789C252.47 762.223 252.393 763.141 255 764.769C256.601 765.769 257 767.101 257 771.453C257 775.953 256.613 777.16 254.75 778.472C252.831 779.824 252.721 780.204 254 781.056C255.441 782.016 260.748 781.586 261.919 780.416C262.229 780.105 261.7 779.412 260.742 778.876C259.482 778.171 259 776.636 259 773.329C259 767.861 260.096 768.359 265.049 776.078C266.787 778.786 268.629 781.001 269.143 781.001C269.67 781.001 269.952 777.476 269.789 772.933C269.543 766.066 269.764 764.716 271.271 763.871C274.734 761.929 271.523 760.924 265.095 761.937C264.872 761.972 265.465 762.857 266.411 763.903C267.552 765.164 268.026 767.051 267.816 769.502L267.5 773.198L264.25 768.57C262.462 766.025 261 763.558 261 763.088C261 761.989 258.128 761.34 255.25 761.789ZM282.357 761.793C275.285 762.081 275.21 762.114 274.78 765.048C274.214 768.905 274.846 769.412 276.962 766.799C279.635 763.499 281 765.41 281 772.453C281 777.275 280.627 778.93 279.437 779.387C276.711 780.433 278.73 781.629 283.11 781.564C285.551 781.528 287.51 780.973 287.75 780.251C287.979 779.564 287.454 779.001 286.583 779.001C285.291 779.001 285 777.725 285 772.06C285 764.823 286.133 762.513 287.985 765.973C288.582 767.088 289.505 768.001 290.035 768.001C291.161 768.001 291.36 762.268 290.25 761.81C289.837 761.64 286.286 761.632 282.357 761.793ZM300.14 763.089C299.61 764.416 298.176 768.201 296.955 771.501C295.733 774.801 293.83 778.3 292.725 779.276C290.049 781.641 290.883 782.203 295.881 781.404C299.225 780.869 299.811 780.478 298.903 779.384C297.334 777.493 298.526 775.001 301 775.001C303.856 775.001 304.806 777.956 302.404 779.369C300.731 780.352 300.986 780.553 304.5 781.021C306.7 781.314 309.288 781.376 310.25 781.16C312.368 780.685 312.59 779.001 310.535 779.001C308.653 779.001 307.382 776.567 305.507 769.367C304.677 766.178 303.346 762.919 302.551 762.123C301.289 760.862 300.982 760.985 300.14 763.089ZM316.775 762.591C313.274 764.451 312 766.908 312 771.8C312 778.533 317.047 783.074 322.307 781.074C324.834 780.114 327.95 776.001 326.152 776.001C325.647 776.001 324.998 776.901 324.71 778.001C324.015 780.659 319.446 780.704 318.035 778.067C316.617 775.416 316.729 766.672 318.2 765.201C320.015 763.386 322.833 763.76 324.232 766.001C325.914 768.694 327 768.521 327 765.56C327 762.907 325.515 761.359 324.517 762.974C324.122 763.613 323.096 763.463 321.698 762.561C319.797 761.335 319.131 761.339 316.775 762.591ZM371.25 762.52C368.756 764.287 368.172 769.099 370.25 770.748C370.938 771.294 373.219 772.294 375.32 772.971C379.78 774.409 381.098 776.725 378.524 778.607C376.219 780.293 373.272 778.846 371.954 775.38C370.654 771.96 369 773.321 369 777.81V781.501H374.081C379.97 781.501 382.276 779.411 381.794 774.509C381.551 772.034 380.68 771.129 376.75 769.269C371.569 766.816 370.378 764.001 374.521 764.001C376.232 764.001 377.405 764.795 378.168 766.47C379.58 769.569 381 768.803 381 764.942C381 762.813 380.517 761.997 379.25 761.987C378.288 761.98 376.6 761.738 375.5 761.449C374.4 761.161 372.488 761.643 371.25 762.52ZM84.5 763.001C84.84 763.551 85.766 764.001 86.559 764.001C87.678 764.001 88 765.585 88 771.095C88 777.347 87.763 778.25 86 778.711C83.881 779.265 83.331 780.61 84.994 781.168C85.541 781.351 88.276 781.343 91.073 781.149L96.157 780.797L93.988 778.488C91.761 776.117 91.597 772.967 93.665 772.279C94.306 772.065 95.124 772.816 95.483 773.946C96.494 777.134 98 776.37 98 772.668C98 768.683 97.174 767.612 95.3 769.167C93.017 771.061 91.376 768.666 92.806 765.528C94.274 762.306 95.702 762.342 99.195 765.688L102 768.375V765.188V762.001H92.941C87.156 762.001 84.105 762.362 84.5 763.001ZM116 762.541C116 762.839 116.93 764.34 118.066 765.877C119.203 767.414 121.147 771.475 122.388 774.901C123.629 778.327 125.061 781.137 125.572 781.145C126.082 781.154 127.535 777.753 128.8 773.589C130.271 768.746 131.803 765.642 133.05 764.974C136.194 763.292 135.304 762.001 131 762.001C126.598 762.001 126.454 762.154 128.207 764.961C129.177 766.514 129.098 767.542 127.804 770.197L126.194 773.501L124.529 769.619C123.347 766.866 123.174 765.427 123.932 764.669C125.91 762.691 125.023 762.001 120.5 762.001C118.025 762.001 116 762.244 116 762.541ZM137 763.001C137 763.551 137.643 764.001 138.428 764.001C140.667 764.001 141.607 774.078 139.721 777.859L138.228 780.851L145.864 781.176C153.842 781.516 154.959 781.035 154.985 777.251C155.004 774.468 153.43 774.329 152.006 776.989C150.632 779.558 146.1 780.769 144.908 778.886C143.937 777.354 143.671 772.001 144.566 772.001C144.877 772.001 145.952 772.44 146.956 772.977C148.516 773.812 148.851 773.486 149.271 770.727C149.883 766.71 149.39 766.091 147.557 768.574C145.868 770.863 143.592 769.375 144.165 766.357C144.748 763.285 149.398 763.42 151.884 766.581L154 769.271V765.636V762.001H145.5C140.5 762.001 137 762.413 137 763.001ZM185.5 763.001C185.84 763.551 186.766 764.001 187.559 764.001C188.678 764.001 189 765.585 189 771.095C189 777.347 188.763 778.25 187 778.711C184.752 779.299 184.357 780.592 186.25 781.167C186.938 781.375 189.69 781.311 192.367 781.024L197.234 780.501L195.117 778.596C192.739 776.456 192.243 772.001 194.383 772.001C195.144 772.001 196.116 773.014 196.543 774.251C197.21 776.182 197.378 775.955 197.726 772.651C198.124 768.878 197.162 766.282 196.28 768.751C195.574 770.728 193 770.204 193 768.083C193 762.889 196.211 761.366 199.5 765.001C201.92 767.676 203 767.521 203 764.501C203 762.018 202.937 762.001 193.941 762.001C188.156 762.001 185.105 762.362 185.5 763.001ZM233 762.894C233 763.385 233.675 764.046 234.5 764.363C236.393 765.089 236.643 777.958 234.8 779.801C233.867 780.734 235.2 781.001 240.8 781.001C244.76 781.001 248.327 781.113 248.726 781.251C249.76 781.607 251.519 776.187 250.651 775.319C250.254 774.922 248.802 775.813 247.424 777.299C243.253 781.798 240 780.536 240 774.419C240 771.706 240.314 771.564 243.066 773.036C244.822 773.976 244.997 773.722 244.97 770.286C244.945 767.229 244.743 766.838 243.92 768.251C242.261 771.098 239.816 770.444 240.184 767.251C240.64 763.281 244.991 762.903 247.884 766.581L250 769.271V765.636V762.001H241.5C236.825 762.001 233 762.403 233 762.894ZM328.673 762.662C328.309 763.025 329.022 763.826 330.256 764.441C332.186 765.403 332.525 766.429 332.68 771.779C332.804 776.056 332.411 778.447 331.421 779.437C330.169 780.689 330.539 780.959 334.268 781.518C336.625 781.872 340.116 782.013 342.026 781.831C345.249 781.525 345.522 781.23 345.81 777.751C345.99 775.58 345.674 774.001 345.06 774.001C344.477 774.001 344 774.916 344 776.033C344 777.226 343.071 778.411 341.75 778.902C337.773 780.38 337 779.259 337 772.011C337 765.967 337.227 765.175 339.101 764.685C342.861 763.701 340.015 762.001 334.608 762.001C331.707 762.001 329.036 762.298 328.673 762.662ZM348 763.001C348 763.551 348.675 764.001 349.5 764.001C350.699 764.001 351 765.494 351 771.442C351 775.535 350.55 779.161 350 779.501C347.631 780.965 349.501 781.501 356.979 781.501C364.932 781.501 364.954 781.494 365.578 778.652C366.436 774.736 364.712 773.303 362.996 776.508C361.382 779.525 357.201 780.928 355.908 778.886C354.937 777.354 354.671 772.001 355.566 772.001C355.877 772.001 356.952 772.44 357.956 772.977C359.516 773.812 359.851 773.486 360.271 770.727C360.883 766.71 360.39 766.091 358.557 768.574C356.868 770.863 354.591 769.375 355.166 766.357C355.765 763.219 360.099 763.389 362.711 766.653L364.99 769.501L364.995 765.751L365 762.001H356.5C351.5 762.001 348 762.413 348 763.001ZM172.975 765.566C171.6 769.184 171.763 777.31 173.25 779.248C174.079 780.329 175.386 780.698 177.134 780.345C179.205 779.926 179.887 779.083 180.322 776.407C180.97 772.409 180.14 766.032 178.739 764.251C177.066 762.125 174.019 762.821 172.975 765.566ZM299.5 770.001C299.101 770.647 299.224 771.625 299.774 772.175C300.441 772.842 301.016 772.784 301.5 772.001C301.899 771.355 301.776 770.377 301.226 769.827C300.559 769.16 299.984 769.218 299.5 770.001ZM99.33 792.751C153.686 792.894 242.336 792.894 296.33 792.751C350.323 792.608 305.85 792.491 197.5 792.491C89.15 792.491 44.973 792.608 99.33 792.751ZM402.797 792.746C407.361 792.931 414.561 792.93 418.797 792.743C423.034 792.556 419.3 792.405 410.5 792.406C401.7 792.407 398.234 792.56 402.797 792.746ZM430.75 792.733C433.087 792.944 436.913 792.944 439.25 792.733C441.587 792.523 439.675 792.35 435 792.35C430.325 792.35 428.413 792.523 430.75 792.733Z" fill="black"/>
</svg>
