<svg width="473" height="795" viewBox="0 0 473 795" fill="none" xmlns="http://www.w3.org/2000/svg">
<path fill-rule="evenodd" clip-rule="evenodd" d="M314.89 0.392107C314.676 0.578107 244.141 1.01811 158.145 1.37111C72.149 1.72411 1.38696 2.26111 0.894957 2.56511C0.371957 2.88811 0.0939566 165.073 0.225957 393.808C0.349957 608.688 0.585957 776.459 0.749957 766.631L1.04796 748.764L134.275 749.498C207.549 749.902 268.234 750.368 269.129 750.535C270.024 750.701 313.807 750.955 366.425 751.098C419.042 751.241 463.422 751.554 465.047 751.792L468.001 752.226V765.172C468.001 773.546 468.354 777.899 469.001 777.499C469.646 777.1 469.999 759.074 469.995 726.69C469.992 699.085 470.214 669.074 470.487 659.999C470.761 650.924 471.205 561.599 471.475 461.499C471.745 361.399 472.154 216.724 472.384 139.999C472.636 55.4711 472.487 14.0941 472.005 34.9991C471.568 53.9741 471.145 96.1611 471.067 128.749C470.988 161.337 470.58 187.999 470.158 187.999C469.737 187.999 467.167 186.632 464.447 184.962C460.864 182.762 460.221 182.556 462.114 184.212C463.552 185.47 466.175 187.286 467.943 188.248L471.159 189.997L470.569 288.748C469.752 425.602 469.098 505.841 468.375 557.865C467.861 594.832 467.987 602.391 469.13 603.191C470.223 603.956 470.24 604.257 469.216 604.67C468.202 605.079 467.946 612.405 468.003 639.344C468.042 658.129 468.058 680.812 468.038 689.749L468.001 705.999H465.442C463.947 705.999 463.147 706.426 463.517 707.026C463.866 707.59 464.905 707.928 465.826 707.776C467.342 707.525 467.527 709.527 467.771 728.857L468.041 750.215L407.271 749.609C373.848 749.275 302.176 748.776 248.001 748.5C129.754 747.897 2.61496 746.863 2.20396 746.501C1.98596 746.308 1.78696 280.16 1.97496 207.319C1.99996 197.566 2.09596 197.12 4.25096 196.705L6.50096 196.271L4.25096 196.135L2.00096 195.999L1.95596 173.249C1.77696 83.4201 2.01296 4.78911 2.46296 4.06011C2.75796 3.58311 32.362 3.16011 68.25 3.11911C208.588 2.96011 440.189 1.69311 453.001 1.01511C460.825 0.601107 434.708 0.249107 390.89 0.178107C349.304 0.110107 315.104 0.206107 314.89 0.392107ZM222.001 31.4291C222.001 31.7041 222.901 32.4101 224.001 32.9991C225.101 33.5881 226.001 33.8441 226.001 33.5691C226.001 33.2941 225.101 32.5881 224.001 31.9991C222.901 31.4101 222.001 31.1541 222.001 31.4291ZM104.001 40.2281C100.976 43.5841 99.44 45.8291 100.587 45.2171C103.111 43.8701 110.001 36.3901 110.001 34.9961C110.001 33.5641 110.034 33.5361 104.001 40.2281ZM229.001 35.4141C229.001 36.2871 235.14 39.1931 235.733 38.6011C236.033 38.3011 235.026 37.5791 233.496 36.9971C231.965 36.4151 230.328 35.7011 229.857 35.4101C229.386 35.1191 229.001 35.1211 229.001 35.4141ZM318.461 40.0401C316.291 42.2621 311.7 45.9151 308.258 48.1571C300.891 52.9571 299.943 54.3851 306.751 50.4281C312.895 46.8571 319.42 41.5351 321.446 38.4421C323.69 35.0171 323.01 35.3811 318.461 40.0401ZM237.814 39.6821C238.535 39.9711 239.398 39.9351 239.73 39.6031C240.062 39.2711 239.472 39.0351 238.418 39.0781C237.253 39.1261 237.016 39.3631 237.814 39.6821ZM245.501 41.4361C251.449 43.0671 261.001 43.4131 261.001 41.9991C261.001 41.4291 258.043 40.9991 254.126 40.9991C250.345 40.9991 245.732 40.7891 243.876 40.5321C241.858 40.2531 242.511 40.6171 245.501 41.4361ZM286.501 44.9921C284.301 46.0211 281.649 47.1281 280.608 47.4541C279.567 47.7801 278.975 48.3071 279.294 48.6251C279.925 49.2571 291.001 44.4591 291.001 43.5541C291.001 42.8551 291.233 42.7811 286.501 44.9921ZM343.603 45.9411C347.15 53.3501 365.009 69.4671 364.999 65.2491C364.998 64.8371 363.047 63.2671 360.662 61.7601C356.423 59.0821 347.217 49.9771 343.715 44.9991C342.008 42.5731 342.005 42.6011 343.603 45.9411ZM362.501 49.9621C367.724 56.2931 377.414 62.2771 384.501 63.5471C389.612 64.4641 388.519 63.3101 381.617 60.5051C375.578 58.0501 369.288 54.3961 364.001 50.2691C360.73 47.7161 360.632 47.6961 362.501 49.9621ZM268.251 49.7151C269.763 49.9441 272.239 49.9441 273.751 49.7151C275.263 49.4861 274.026 49.2991 271.001 49.2991C267.976 49.2991 266.739 49.4861 268.251 49.7151ZM229.001 51.3291C233.882 56.2271 257.922 61.5751 264.622 59.2541C267.038 58.4181 266.264 58.2391 259.805 58.1451C249.524 57.9941 243.672 56.6211 231.501 51.5051C228.208 50.1211 227.766 50.0901 229.001 51.3291ZM335.612 52.4131C334.397 57.2521 314.143 73.4111 301.039 79.9951C294.205 83.4291 281.996 86.3601 269.751 87.5081C260.644 88.3611 243.718 85.2371 234.263 80.9581C227.483 77.8901 215.43 69.8641 210.251 64.9691C208.464 63.2801 207.001 62.2791 207.001 62.7451C207.001 64.0731 213.872 70.2951 220.919 75.3491C229.385 81.4211 239.934 85.7061 252.366 88.1231C263.589 90.3051 269.168 90.1041 284.681 86.9571C299.277 83.9961 316.824 74.0621 330.252 61.1571C333.966 57.5881 337.143 54.8551 337.314 55.0841C337.485 55.3121 339.324 57.8631 341.401 60.7531C347.18 68.7931 347.671 65.9021 341.964 57.4441C339.201 53.3491 336.778 49.9991 336.579 49.9991C336.38 49.9991 335.945 51.0851 335.612 52.4131ZM106.154 52.3151C103.635 55.3501 90.764 63.3411 84.865 65.5321C81.365 66.8311 79.401 67.9181 80.501 67.9461C85.036 68.0621 108.001 54.7031 108.001 51.9481C108.001 50.6481 107.446 50.7581 106.154 52.3151ZM136.965 58.1631C135.82 60.3961 135.847 60.4231 137.575 58.7731C138.569 57.8231 139.108 56.7721 138.772 56.4371C138.437 56.1021 137.624 56.8791 136.965 58.1631ZM217.501 59.3971C219.701 61.4001 223.545 64.1161 226.044 65.4311C231.543 68.3261 241.356 71.2841 243.756 70.7701C244.716 70.5641 243.039 69.7881 240.03 69.0451C232.666 67.2261 224.561 63.5501 218.502 59.2801L213.501 55.7551L217.501 59.3971ZM275.001 56.9991C272.941 57.6591 272.853 57.8151 274.501 57.8841C275.601 57.9301 277.176 57.5321 278.001 56.9991C279.753 55.8671 278.537 55.8671 275.001 56.9991ZM112.982 62.5221C111.925 63.7951 111.987 63.9421 113.36 63.4151C114.262 63.0681 115.001 62.3831 115.001 61.8921C115.001 60.6061 114.422 60.7871 112.982 62.5221ZM133.509 63.7181C132.54 65.2471 128.991 69.1691 125.624 72.4331C120.816 77.0941 120.465 77.6041 123.992 74.8111C129.062 70.7971 136.606 62.2711 135.802 61.4661C135.51 61.1751 134.479 62.1881 133.509 63.7181ZM196.001 64.0581C196.001 64.6401 196.451 64.8391 197.001 64.4991C197.551 64.1591 198.001 63.6831 198.001 63.4401C198.001 63.1971 197.551 62.9991 197.001 62.9991C196.451 62.9991 196.001 63.4761 196.001 64.0581ZM174.501 66.5271C172.301 67.2521 168.251 67.9321 165.501 68.0381C162.751 68.1441 161.353 68.4491 162.395 68.7161C165.509 69.5131 176.669 67.9661 178.655 66.4621C180.893 64.7661 179.792 64.7831 174.501 66.5271ZM201.712 68.7831C199.68 70.8641 195.535 74.0711 192.501 75.9101C175.701 86.0911 160.702 86.6291 143.088 77.6801L136.225 74.1941L129.724 80.5381C126.148 84.0271 120.923 88.2961 118.112 90.0261C115.301 91.7551 113.001 93.3731 113.001 93.6201C113.001 95.4301 130.121 82.9381 133.423 78.7191L135.838 75.6331L141.873 78.8501C154.709 85.6911 165.655 87.3131 177.348 84.1051C181.615 82.9341 186.32 81.2341 187.803 80.3281C198.666 73.6881 203.351 70.0151 205.122 66.7491C206.528 64.1561 205.813 64.5831 201.712 68.7831ZM347.607 67.4151C347.942 68.2861 348.654 68.9991 349.191 68.9991C350.506 68.9991 349.683 66.7261 348.188 66.2281C347.457 65.9841 347.234 66.4421 347.607 67.4151ZM413.896 67.0781C416.468 68.1131 422.877 68.0081 423.55 66.9201C423.774 66.5571 421.155 66.2271 417.73 66.1871C412.79 66.1301 411.997 66.3141 413.896 67.0781ZM185.001 70.9991C183.076 72.0531 181.861 72.9341 182.301 72.9571C183.36 73.0131 189.001 70.0801 189.001 69.4731C189.001 68.8191 188.942 68.8411 185.001 70.9991ZM352.251 71.2491C352.479 71.9371 353.515 72.6631 354.552 72.8641C356.183 73.1801 356.257 73.0121 355.097 71.6141C353.511 69.7031 351.657 69.4651 352.251 71.2491ZM280.501 71.5241C279.951 71.7261 277.543 72.3951 275.15 73.0111C272.757 73.6271 271.035 74.3661 271.322 74.6541C272.106 75.4381 283.001 72.8131 283.001 71.8401C283.001 70.9761 282.252 70.8811 280.501 71.5241ZM113.491 73.0151C113.146 73.5731 110.757 75.1281 108.182 76.4681C105.608 77.8091 104.2 78.9271 105.055 78.9521C106.623 78.9991 116.001 73.4891 116.001 72.5211C116.001 71.5991 114.14 71.9651 113.491 73.0151ZM149.501 74.1081C152.525 75.7911 155.453 76.4001 161.501 76.6021L169.501 76.8701L162.501 76.0001C156.176 75.2131 154.133 74.7431 147.501 72.5441C146.401 72.1801 147.301 72.8831 149.501 74.1081ZM266.814 74.6821C267.535 74.9711 268.398 74.9351 268.73 74.6031C269.062 74.2711 268.472 74.0351 267.418 74.0781C266.253 74.1261 266.016 74.3631 266.814 74.6821ZM389.001 75.6391C390.926 76.5301 395.651 77.3981 399.501 77.5681L406.501 77.8771L400.501 77.1001C397.201 76.6721 393.376 75.9891 392.001 75.5811C386.833 74.0501 385.616 74.0731 389.001 75.6391ZM361.237 77.2081C361.918 79.2511 377.889 86.6801 386.384 88.9051C390.673 90.0291 398.887 91.2521 404.638 91.6241L415.094 92.3001L414.55 95.3991C414.018 98.4351 414.034 98.4261 415.348 94.9991C416.086 93.0741 417.016 90.1741 417.413 88.5541L418.137 85.6101L416.196 88.0071L414.255 90.4031L401.378 89.3321C387.175 88.1501 378.455 85.6311 367.253 79.4731C363.71 77.5261 361.004 76.5071 361.237 77.2081ZM115.204 80.4281C110.559 83.7121 109.906 84.6511 113.828 82.4051C115.658 81.3561 117.625 79.9371 118.2 79.2491C119.678 77.4821 118.985 77.7551 115.204 80.4281ZM99.765 79.5681C99.453 79.8811 97.015 80.5031 94.349 80.9501L89.501 81.7641L93.501 81.8361C97.253 81.9041 105.341 79.2561 101.918 79.0801C101.047 79.0361 100.078 79.2551 99.765 79.5681ZM59.876 97.2401C58.432 101.507 57.445 104.999 57.681 104.999C58.752 104.999 63.102 93.7821 62.819 91.7521C62.607 90.2391 61.625 92.0691 59.876 97.2401ZM423.649 92.6771C422.391 99.2231 422.022 105.588 422.829 106.811C423.37 107.629 423.928 104.828 424.314 99.3591C424.939 90.4951 424.642 87.5091 423.649 92.6771ZM35.847 98.0281C34.938 100.762 34.364 102.999 34.572 102.999C35.532 102.999 38.088 96.6551 37.812 94.9601C37.62 93.7831 36.87 94.9541 35.847 98.0281ZM106.572 95.5791C100.261 97.8911 90.293 98.3841 83.251 96.7321C79.814 95.9261 77.001 95.5951 77.001 95.9961C77.001 96.3971 79.713 97.3011 83.028 98.0051C90.764 99.6471 102.423 98.7941 108.142 96.1691C113.212 93.8411 112.276 93.4901 106.572 95.5791ZM76.449 101.631C74.497 110.262 73.607 112.898 71.304 116.874C66.201 125.686 53.293 137.117 46.848 138.533C44.029 139.152 43.971 139.292 44.59 143.956C46.029 154.808 40.482 171.729 32.754 180.059C28.332 184.825 18.756 191.202 12.001 193.879C6.81596 195.934 6.72796 196.023 10.477 195.441C15.365 194.682 26.875 188.078 32.752 182.661C40.88 175.169 48.211 155.119 46.508 145.038C45.931 141.626 46.107 141.319 49.593 139.656C62.913 133.305 74.828 118.092 76.967 104.707C77.866 99.0801 77.508 96.9521 76.449 101.631ZM413.001 107.339C413.001 115.514 415.983 126.903 420.113 134.499C424.018 141.682 432.977 150.793 438.644 153.342C441.986 154.846 442.966 155.939 443.966 159.276C445.717 165.122 450.48 173.188 455.134 178.191C459.941 183.357 459.137 181.309 453.882 174.999C449.642 169.907 444.003 158.636 444.002 155.249C444.001 153.736 443.402 152.999 442.172 152.999C439.155 152.999 431.055 147.006 426.743 141.584C418.485 131.197 413.988 118.063 414.593 106.098C414.735 103.294 414.434 100.999 413.926 100.999C413.417 100.999 413.001 103.852 413.001 107.339ZM41.169 106.686C39.443 109.909 39.75 111.802 41.576 109.196C42.442 107.959 42.967 106.398 42.743 105.726C42.498 104.989 41.873 105.37 41.169 106.686ZM54.001 108.999C52.826 110.649 52.09 111.999 52.365 111.999C52.64 111.999 53.826 110.649 55.001 108.999C56.176 107.349 56.912 105.999 56.637 105.999C56.362 105.999 55.176 107.349 54.001 108.999ZM62.946 112.108C61.738 114.474 58.22 119.101 55.126 122.391C51.168 126.598 50.441 127.72 52.672 126.173C57.878 122.565 67.176 109.841 65.692 108.357C65.389 108.053 64.153 109.741 62.946 112.108ZM431.071 112.229C430.986 114.318 433.907 122.103 435.299 123.499C435.961 124.164 436.03 123.829 435.503 122.499C435.068 121.399 433.908 118.249 432.926 115.499C431.945 112.749 431.11 111.277 431.071 112.229ZM34.501 116.844C30.94 120.988 30.844 121.225 33.628 118.999C36.701 116.542 39.448 113.102 38.82 112.497C38.645 112.328 36.701 114.284 34.501 116.844ZM46.56 129.531C45.492 130.338 45.1 130.999 45.687 130.999C46.275 130.999 47.316 130.324 48.001 129.499C49.558 127.623 49.068 127.633 46.56 129.531ZM430.026 129.659C430.066 131.009 437.102 140.232 437.663 139.67C437.944 139.389 436.335 136.833 434.088 133.989C431.84 131.146 430.012 129.197 430.026 129.659ZM35.957 142.082C35.933 142.862 35.546 145.399 35.097 147.722C34.647 150.045 34.641 151.722 35.082 151.449C36.118 150.808 37.437 142.102 36.621 141.286C36.28 140.945 35.981 141.303 35.957 142.082ZM18.113 150.249C17.121 153.222 17.155 153.334 18.515 151.558C19.332 150.49 20.001 149.028 20.001 148.308C20.001 146.078 19.245 146.856 18.113 150.249ZM25.001 151.803C25.001 154.583 20.401 163.171 16.424 167.818C11.978 173.013 12.954 173.373 17.592 168.249C22.557 162.764 28.389 149.999 25.931 149.999C25.42 149.999 25.001 150.811 25.001 151.803ZM240.201 160.199C238.469 161.931 238.722 163.476 240.497 162.003C241.744 160.967 243.031 161.733 248.267 166.63C256.866 174.672 275.012 187.369 274.993 185.331C274.989 184.873 273.149 183.45 270.904 182.168C265.263 178.946 251.321 168.024 246.548 163.087C242.193 158.583 241.935 158.465 240.201 160.199ZM455.911 164.499C457.646 167.891 458.97 169.553 458.986 168.36C458.994 167.733 458.076 166.158 456.945 164.86C455.328 163.004 455.107 162.927 455.911 164.499ZM232.292 167.369C228.359 170.293 227 172.055 228.751 171.957C229.825 171.898 237.417 165.075 236.918 164.619C236.688 164.409 234.607 165.647 232.292 167.369ZM26.509 171.249C24.992 173.587 22.571 176.849 21.128 178.499C18.658 181.324 18.714 181.307 22.091 178.21C25.224 175.337 30.881 166.999 29.698 166.999C29.461 166.999 28.026 168.911 26.509 171.249ZM240.251 169.73C239.564 169.969 239.001 171.059 239.001 172.152C239.001 173.637 239.566 174.058 241.241 173.819C242.473 173.643 243.62 172.768 243.79 171.875C244.122 170.131 242.288 169.019 240.251 169.73ZM221.618 174.993C216.123 179.151 215.945 179.525 220.568 177.195C224.508 175.209 228.146 171.97 226.373 172.027C225.894 172.042 223.754 173.377 221.618 174.993ZM206.501 184.095C201.551 186.847 195.701 189.929 193.501 190.943C191.301 191.957 185.676 194.561 181.001 196.73C176.326 198.899 169.435 201.693 165.687 202.939C161.939 204.185 159.112 205.444 159.405 205.736C160.117 206.448 169.699 202.965 185.001 196.431C193.032 193.002 218.31 178.803 215.951 179.045C215.704 179.071 211.451 181.343 206.501 184.095ZM233.92 184.81C230.85 187.389 227.025 190.522 225.42 191.772C223.132 193.552 223.475 193.465 227.001 191.366C229.476 189.893 233.347 187.183 235.604 185.343C237.861 183.504 240.26 181.999 240.936 181.999C241.611 181.999 244.153 183.628 246.583 185.619C249.013 187.611 251.001 188.828 251.001 188.325C251.001 187.236 241.676 179.972 240.392 180.06C239.902 180.094 236.989 182.231 233.92 184.81ZM56.252 185.148C54.758 186.642 56.699 190.497 61.557 195.686C63.521 197.783 68.541 204.674 72.713 210.999C76.885 217.324 82.087 224.461 84.272 226.859L88.2439 231.218L87.805 242.687C87.325 255.248 86.973 255.957 81.212 255.984C78.448 255.997 78.128 256.222 79.212 257.394C79.921 258.161 80.839 258.585 81.251 258.335C82.716 257.448 81.973 260.372 80.251 262.273C78.865 263.803 78.47 266.212 78.352 273.852L78.204 283.499L78.914 273.959C79.304 268.712 79.986 263.832 80.43 263.114C81.289 261.725 84.066 266.885 86.558 274.499C87.831 278.39 87.872 278.417 88.026 275.499C88.113 273.849 88.281 271.374 88.398 269.999C88.515 268.624 88.699 265.529 88.806 263.121L89.001 258.743L93.209 259.416C95.523 259.786 99.348 260.943 101.709 261.988L106.001 263.887V273.869C106.001 282.536 105.77 283.913 104.251 284.31C102.624 284.735 102.628 284.775 104.299 284.883C105.859 284.984 106.057 285.824 105.799 291.249L105.501 297.499L102.001 298.117L98.501 298.736L102.251 298.867C105.521 298.982 106.001 299.311 106.001 301.433C106.001 303.32 105.384 303.96 103.251 304.283L100.501 304.699L103.251 304.849C106.237 305.012 107.112 306.954 104.251 307.069C102.753 307.129 102.786 307.251 104.475 307.911C106.26 308.609 106.164 308.786 103.475 309.762L100.501 310.841L103.501 310.999C105.151 311.086 105.92 311.39 105.209 311.675C104.217 312.073 104.188 312.519 105.082 313.596C105.999 314.702 105.902 314.999 104.623 314.999C103.731 314.999 103.001 315.449 103.001 315.999C103.001 316.549 103.551 316.886 104.223 316.749C106.062 316.373 106.625 386.986 104.792 388.149C103.793 388.783 103.783 388.972 104.751 388.984C105.439 388.992 106.001 390.124 106.001 391.499C106.001 393.395 105.458 394.023 103.751 394.099C101.592 394.194 101.603 394.231 104.001 394.999C105.376 395.439 105.826 395.851 105.001 395.915C103.668 396.017 103.668 396.139 105.001 397.014C106.334 397.89 106.334 398.108 105.001 398.984C103.998 399.642 103.915 399.973 104.751 399.984C105.439 399.992 106.001 401.124 106.001 402.499C106.001 404.696 105.546 405.016 102.251 405.141L98.501 405.283L102.284 405.891C107.123 406.669 107.548 408.403 103.001 408.82C101.076 408.997 99.051 409.597 98.501 410.153C97.828 410.833 99.032 410.939 102.187 410.477L106.873 409.791L106.785 412.895C106.715 415.347 106.256 416.002 104.599 416.014C103.445 416.023 101.826 416.492 101.001 417.058C99.867 417.835 100.355 418.014 103.001 417.792C105.576 417.577 106.501 417.896 106.501 418.999C106.501 419.824 105.938 420.386 105.251 420.249C104.563 420.111 104.001 420.397 104.001 420.882C104.001 421.887 108.15 423.183 108.916 422.418C109.571 421.762 109.655 364.999 109.001 364.999C108.726 364.999 108.501 363.424 108.501 361.499C108.501 359.574 108.854 357.999 109.286 357.999C109.718 357.999 109.673 357.211 109.186 356.249C108.699 355.287 108.419 349.324 108.563 342.999C108.707 336.674 108.876 326.099 108.94 319.499C109.003 312.899 109.121 305.474 109.203 302.999C109.647 289.447 109.405 270.201 108.765 268.221C108.113 266.203 108.249 266.062 109.96 266.977C111.021 267.545 112.186 268.489 112.548 269.074C112.91 269.66 113.994 270.445 114.958 270.819C117.331 271.74 125.001 280.752 125.001 282.619C125.001 283.443 125.395 283.873 125.877 283.576C126.359 283.278 128.047 284.93 129.627 287.247C132.304 291.171 135.075 294.723 137.534 297.382C140.137 300.197 142.942 304.868 142.258 305.249C141.842 305.481 142.033 305.546 142.684 305.392C143.335 305.239 146.47 308.35 149.651 312.306C152.832 316.262 156.009 320.174 156.712 320.999C160.281 325.187 163.001 328.864 163.001 329.499C163.001 329.891 164.13 331.099 165.511 332.185C166.891 333.271 167.721 334.643 167.356 335.234C166.991 335.825 167.143 336.029 167.694 335.688C168.246 335.348 170.003 336.722 171.599 338.741C177.137 345.75 188.347 359.502 188.928 359.999C189.25 360.274 190.696 362.074 192.143 363.999C193.59 365.924 195.74 368.598 196.921 369.941C198.102 371.283 198.851 372.948 198.585 373.64C198.32 374.331 198.642 374.712 199.302 374.486C199.961 374.259 202.612 376.87 205.192 380.287C207.772 383.703 212.411 389.57 215.502 393.324C220.015 398.806 220.89 400.428 219.948 401.563C219.302 402.341 218.472 402.79 218.102 402.561C217.732 402.333 217.43 403.024 217.43 404.097C217.43 405.415 217.928 405.877 218.965 405.519C219.81 405.228 219.24 406.115 217.699 407.491C215.473 409.478 215.108 410.352 215.919 411.745C216.481 412.71 216.954 413.034 216.971 412.465C216.987 411.896 218.464 410.601 220.251 409.587L223.501 407.744L220.001 410.831C218.076 412.529 216.163 413.936 215.751 413.958C214.536 414.024 214.894 416.999 216.117 416.999C217.826 416.999 226.999 409.984 227.016 408.664C227.025 407.989 227.422 408.117 227.961 408.968C228.64 410.043 228.178 410.984 226.243 412.468C219.782 417.425 215.722 421.709 216.834 422.396C217.471 422.79 219.103 421.988 220.493 420.598C221.872 419.219 223.008 418.407 223.016 418.794C223.025 419.182 223.362 419.033 223.766 418.465C224.947 416.802 230.179 412.999 231.285 412.999C231.843 412.999 229.195 415.332 225.4 418.183C218.584 423.305 217.046 424.784 217.016 426.249C216.98 428.044 219.938 426.617 225.869 421.979C229.371 419.24 232.607 416.999 233.06 416.999C235.594 416.999 234.181 419.142 228.745 423.542C224.572 426.92 223.143 428.595 224.254 428.809C225.15 428.982 227.147 428.36 228.692 427.428C230.694 426.219 230.352 426.765 227.501 429.328C221.846 434.412 225.442 434.206 233.239 428.999C240.277 424.299 243.293 423.603 237.198 428.086C232.611 431.459 231.222 434.941 235.251 432.967C237.396 431.916 237.389 431.955 235.107 433.795C232.55 435.857 232.975 438.33 235.707 437.282C236.907 436.821 237.187 437.071 236.749 438.212C236.3 439.383 236.641 439.644 238.118 439.258C239.201 438.975 240.014 439.138 239.925 439.621C239.423 442.359 240.015 443.232 241.524 441.98C242.797 440.923 242.944 440.985 242.417 442.358C242.009 443.421 242.305 443.999 243.259 443.999C245.014 443.999 250.001 440.247 250.001 438.926C250.001 437.464 247.832 437.842 245.83 439.654C243.829 441.464 243.258 440.142 245.201 438.199C246.803 436.597 249.491 436.679 250.896 438.373C251.789 439.449 251.492 440.103 249.518 441.396C248.134 442.303 247.001 443.71 247.001 444.522C247.001 446.457 247.883 446.386 250.422 444.249C252.5 442.5 252.5 442.5 250.59 444.755C248.074 447.727 249.397 448.882 252.97 446.832C255.796 445.21 255.83 445.223 259.786 449.498L263.762 453.794L261.687 455.869C258.992 458.563 260.206 459.75 263.47 457.611C264.862 456.699 266.001 456.427 266.001 457.007C266.001 457.587 265.326 458.321 264.501 458.637C263.676 458.954 263.001 459.866 263.001 460.665C263.001 461.464 263.446 461.842 263.99 461.506C264.556 461.156 264.724 461.557 264.383 462.447C263.59 464.512 266.345 464.494 268.064 462.423C269.148 461.116 269.127 460.691 267.937 459.938C267.051 459.378 266.954 459.024 267.683 459.014C268.333 459.006 269.881 460.461 271.122 462.249C273.171 465.199 273.19 465.335 271.333 463.724C269.54 462.167 269.136 462.131 268.058 463.43C266.298 465.551 267.707 467.454 269.84 465.836C270.754 465.143 270.263 465.933 268.751 467.592C267.238 469.251 266.001 471.173 266.001 471.863C266.001 472.556 265.485 472.798 264.846 472.404C264.131 471.961 263.963 472.129 264.405 472.844C264.891 473.631 266.455 472.963 269.31 470.749C271.615 468.961 273.782 467.113 274.126 466.642C274.47 466.171 275.077 466.313 275.476 466.959C275.875 467.604 276.044 468.24 275.851 468.373C271.338 471.474 267.001 475.482 267.001 476.552C267.001 477.34 267.615 477.7 268.428 477.389C269.47 476.989 269.708 477.402 269.311 478.92C268.476 482.116 270.676 481.455 275.752 476.987C278.259 474.78 280.539 473.203 280.818 473.483C281.098 473.762 280.101 475.005 278.603 476.245C272.654 481.168 270.607 483.368 271.653 483.716C272.855 484.117 280.001 480.201 280.001 479.141C280.001 478.777 280.901 477.918 282.001 477.231C285.681 474.933 283.978 477.458 279.463 480.994C275.018 484.477 273.734 486.999 276.407 486.999C277.321 486.999 277.631 487.699 277.291 488.999C276.486 492.076 279.062 491.475 284.355 487.351C286.931 485.344 289.264 483.928 289.54 484.204C289.816 484.48 288.233 485.904 286.021 487.367C283.81 488.83 282.001 490.696 282.001 491.513C282.001 493.436 282.983 493.389 286.028 491.318C288.437 489.68 288.46 489.687 286.903 491.568C284.868 494.027 283.799 496.999 284.949 496.999C285.436 496.999 286.063 496.436 286.342 495.749C286.732 494.786 287.073 494.82 287.824 495.895C288.36 496.662 289.5 497.021 290.357 496.693C291.645 496.198 291.753 496.52 290.983 498.547C289.952 501.257 291.607 501.993 293.801 499.799C294.734 498.866 295.001 498.866 295.001 499.799C295.001 501.526 297.015 501.276 299.422 499.249L301.501 497.499L299.541 499.81C297.915 501.727 297.82 502.269 298.983 502.988C299.909 503.56 300.794 503.297 301.585 502.215C302.612 500.811 303.023 500.772 304.438 501.947C305.348 502.702 305.863 503.917 305.582 504.647C305.302 505.378 305.572 505.868 306.183 505.737C307.694 505.413 315.035 515.113 314.282 516.439C313.951 517.022 314.038 517.176 314.475 516.781C314.913 516.386 316.573 517.701 318.164 519.704L321.058 523.345L317.779 526.901C315.976 528.857 314.214 530.692 313.863 530.978C313.512 531.265 307.959 536.449 301.524 542.499C295.088 548.549 289.075 553.921 288.162 554.437C287.248 554.953 283.771 557.653 280.434 560.437C271.675 567.746 268.678 569.999 267.717 569.999C267.25 569.999 265.395 571.122 263.596 572.494C261.797 573.867 260.027 574.692 259.663 574.328C259.299 573.964 259.001 574.2 259.001 574.853C259.001 576.236 244.413 585.999 242.346 585.999C240.874 585.999 230.623 580.717 223.001 576.031C220.493 574.489 218.649 572.652 218.834 571.882C219.018 571.121 218.831 570.836 218.419 571.247C217.421 572.246 198.088 560.894 197.168 558.769C196.984 558.345 196.455 557.999 195.991 557.999C194.957 557.999 180.887 548.742 178.899 546.754C178.111 545.966 176.96 545.136 176.342 544.91C174.992 544.416 161.009 531.849 156.62 527.185C154.904 525.362 152.489 522.918 151.251 521.754C150.013 520.591 148.994 518.707 148.986 517.569C148.975 516.07 148.739 515.863 148.133 516.819C147.528 517.773 145.51 515.973 140.847 510.319C131.462 498.94 126.057 491.38 124.312 487.188C123.467 485.159 122.456 483.274 122.064 482.999C120.705 482.046 114.879 463.005 115.593 461.85C116.062 461.091 115.87 460.962 115.038 461.476C114.068 462.076 113.857 461.302 114.152 458.215C114.364 455.989 114.192 454.381 113.769 454.642C113.347 454.903 113.001 454.966 113.001 454.781C113.001 452.84 108.82 425.485 108.47 425.135C107.096 423.761 107.103 427.05 108.504 440.103C109.353 448.021 111.179 458.514 112.561 463.421C115.767 474.803 121.986 489.705 126.033 495.702C135.445 509.647 154.87 530.578 171.001 544.155C176.121 548.465 192.478 559.553 209.018 569.927C213.606 572.805 215.894 574.836 215.551 575.729C215.247 576.522 215.468 576.829 216.073 576.455C217.398 575.636 223.001 577.899 223.001 579.252C223.001 579.808 222.057 581.891 220.903 583.881L218.805 587.499L221.857 584.285C224.638 581.356 225.179 581.165 227.955 582.133C231.57 583.393 231.633 583.813 228.902 588.442C226.187 593.044 227.161 593.095 230.001 588.499C231.191 586.574 232.465 585.006 232.833 585.014C234.535 585.053 236.185 586.893 235.504 587.994C234.936 588.913 234.574 588.926 234.03 588.046C233.554 587.276 232.695 587.833 231.5 589.689L229.691 592.499L231.846 590.594C233.031 589.546 234.001 589.054 234.001 589.499C234.001 589.944 234.901 589.494 236.001 588.499C237.713 586.95 238.001 586.915 238.001 588.256C238.001 589.208 238.687 589.691 239.751 589.487C240.714 589.303 242.223 589.118 243.105 589.076C243.987 589.033 245.804 587.986 247.143 586.749C248.481 585.512 250.891 583.903 252.498 583.175C256.2 581.498 276.747 567.101 284.001 561.102C294.014 552.821 306.389 541.753 314.693 533.651C321.374 527.132 323.149 525.877 324.315 526.845C326.464 528.628 334.143 540.087 333.8 540.998C333.315 542.286 321.933 554.023 314.969 560.417C309.243 565.675 301.089 572.074 284.59 584.257C281.791 586.324 279.326 588.537 279.112 589.174C278.677 590.471 283.22 587.474 290.001 581.99C292.476 579.988 297.497 576.237 301.158 573.654C304.819 571.07 314.095 562.905 321.771 555.51L335.728 542.063L338.574 545.281C340.139 547.051 345.263 552.553 349.961 557.508C354.658 562.462 361.122 570.01 364.325 574.281C374.686 588.096 381.014 592.64 380.991 586.249C380.986 584.736 381.518 579.17 382.172 573.879C383.358 564.303 383.351 564.234 380.613 558.639C379.101 555.548 374.587 549.527 370.582 545.259C366.577 540.991 361.518 534.574 359.34 530.999C357.162 527.424 354.794 523.578 354.077 522.453C352.903 520.608 353.612 519.131 361.283 507.453C365.963 500.328 372.309 489.49 375.387 483.368C380.779 472.641 387.082 455.592 386.925 452.159C386.883 451.246 385.52 454.549 383.896 459.499C379.98 471.436 370.889 489.731 361.55 504.467C357.378 511.049 353.478 516.899 352.881 517.467C352.124 518.188 351.151 517.623 349.649 515.587C348.468 513.985 345.229 509.935 342.452 506.587C339.675 503.239 336.307 498.924 334.967 496.999C333.627 495.074 330.274 491.024 327.516 487.999C324.758 484.974 320.284 479.237 317.574 475.249C314.865 471.261 312.269 467.999 311.805 467.999C310.851 467.999 320.976 483.169 324.485 486.999C327.245 490.011 328.47 493.591 327.042 494.474C325.311 495.544 325.876 496.983 327.751 496.28C329.283 495.706 329.33 495.834 328.129 497.312C326.365 499.48 327.787 499.503 330.172 497.344C331.178 496.434 332.001 496.176 332.001 496.771C332.001 497.367 330.807 498.793 329.348 499.94C325.623 502.87 327.18 503.705 331.193 500.931L334.501 498.644L332.077 501.321C329.38 504.3 331.089 505.134 334.172 502.344C335.178 501.434 336.001 501.186 336.001 501.794C336.001 502.402 335.217 503.338 334.259 503.874C333.301 504.41 332.859 505.19 333.276 505.607C333.693 506.024 334.567 505.833 335.218 505.182C337.252 503.148 338.408 503.892 336.495 506.005C334.556 508.148 335.228 510.172 337.218 508.182C339.071 506.329 339.765 506.78 339.246 509.499C338.749 512.099 339.841 512.759 341.649 510.951C342.824 509.776 352.31 522.201 358.095 532.489C359.947 535.784 364.435 541.634 368.068 545.489C374.597 552.419 380.001 559.611 380.001 561.371C380.001 561.87 378.818 560.528 377.372 558.389C375.926 556.249 371.117 550.787 366.685 546.25C362.138 541.594 356.996 535.076 354.884 531.289C351.042 524.401 343.184 514.483 342.282 515.384C342.004 515.662 343.362 517.827 345.3 520.194C347.237 522.562 350.749 528.099 353.103 532.499C356.2 538.285 359.925 543.073 366.563 549.799C371.612 554.914 376.538 560.864 377.511 563.022C378.484 565.179 379.672 566.703 380.15 566.407C381.191 565.763 380.077 586.133 379.006 587.317C378.169 588.241 370.443 580.403 365.73 573.847C361.162 567.494 353.531 558.6 345.001 549.687C340.876 545.376 335.472 538.846 332.992 535.174C330.512 531.503 326.504 526.024 324.085 522.999C321.666 519.974 317.334 513.899 314.459 509.499C311.583 505.099 306.648 498.574 303.491 494.999C300.335 491.424 294.496 484.44 290.515 479.479C286.535 474.518 280.357 467.275 276.786 463.384C273.215 459.493 268.404 453.752 266.095 450.627C263.787 447.502 255.059 436.711 246.699 426.648C230.118 406.687 219.471 392.887 211.095 380.499C205.069 371.586 192.344 355.999 191.094 355.999C189.464 355.999 173.715 336.22 168.003 326.999C164.766 321.774 160.001 315.024 157.415 311.999C154.828 308.974 149.997 302.899 146.678 298.499C141.189 291.222 132.617 281.738 110.242 258.189C105.719 253.428 100.03 245.982 96.924 240.757C93.941 235.74 88.789 228.68 85.475 225.067C79.781 218.862 78.389 216.96 71.52 205.999C69.969 203.524 66.926 199.362 64.757 196.749C62.589 194.136 61.045 191.999 61.326 191.999C61.608 191.999 64.21 194.024 67.11 196.499C72.928 201.465 77.037 202.272 82.365 199.493C83.941 198.671 85.645 197.999 86.152 197.999C87.691 197.999 98.909 210.136 102.789 215.999C111.975 229.882 132.824 256.606 142.967 267.499C149.669 274.697 154.363 280.6 154.696 282.249C155.001 283.761 155.7 284.999 156.248 284.999C156.906 284.999 156.91 285.425 156.26 286.249C155.717 286.937 155.287 288.293 155.304 289.263C155.327 290.583 155.86 290.868 157.418 290.395C159.24 289.841 159.152 290.132 156.716 292.722L153.931 295.682L156.959 295.501C158.625 295.402 160.89 294.504 161.994 293.505C163.098 292.506 164.001 292.161 164.001 292.737C164.001 293.313 163.326 294.044 162.501 294.361C161.676 294.677 161.001 295.695 161.001 296.623C161.001 298.193 161.127 298.195 162.83 296.654C165.407 294.321 166.681 294.59 164.495 297.005C162.053 299.704 163.416 300.809 166.228 298.41C168.434 296.527 168.445 296.527 166.984 298.422C165.608 300.207 165.664 300.304 167.752 299.766C169.221 299.387 169.772 299.56 169.338 300.262C168.921 300.938 169.278 301.107 170.299 300.715C172.197 299.987 178.203 306.683 185.131 317.251C187.565 320.965 193.852 328.39 199.101 333.751C207.574 342.404 219.762 356.583 231.55 371.499C233.723 374.249 235.747 376.724 236.048 376.999C237.478 378.307 246.308 390.451 251.856 398.741C261.722 413.481 273.439 427.516 287.554 441.499C294.771 448.649 301.476 455.737 302.454 457.249C303.431 458.762 304.667 459.999 305.2 459.999C306.598 459.999 300.807 452.942 290.871 442.537C280.982 432.18 259.856 406.793 252.55 396.485C243.699 383.998 222.927 358.02 207.108 339.656L198.63 329.813L197.668 317.836C196.706 305.859 195.048 303.316 195.2 314.052C195.244 317.146 194.839 320.466 194.301 321.427C193.457 322.936 192.624 322.307 188.23 316.837C185.429 313.351 179.69 306.224 175.476 300.999C171.262 295.774 164.818 287.734 161.157 283.133C157.496 278.532 148.426 267.712 141.001 259.089C133.576 250.465 125.589 241.188 123.251 238.474C120.913 235.759 119.001 233.192 119.001 232.769C119.001 232.345 120.464 231.998 122.251 231.996C125.398 231.994 148.885 226.448 149.855 225.479C150.981 224.353 145.883 225.195 137.501 227.521C132.551 228.894 125.576 230.288 122.001 230.617L115.501 231.217L111.251 225.157C108.913 221.824 107.001 218.69 107.001 218.192C107.001 217.695 109.825 217.025 113.276 216.702C124.311 215.672 158.057 207.722 156.787 206.451C156.578 206.243 154.179 206.751 151.454 207.58C145.055 209.527 119.282 214.614 111.4 215.486C105.438 216.145 105.257 216.094 103.4 213.219C102.356 211.602 98.713 207.251 95.305 203.552C90.065 197.865 87.98 196.388 81.805 193.987C77.788 192.425 73.151 190.442 71.501 189.579C69.851 188.717 67.921 188.009 67.211 188.005C66.502 188.002 64.157 187.099 62.001 185.999C57.39 183.646 57.707 183.693 56.252 185.148ZM57.037 187.42C58.525 188.865 60.3 189.359 63.001 189.082C65.079 188.869 60.079 186.08 57.537 186.034C55.819 186.003 55.756 186.177 57.037 187.42ZM277.001 186.758C277.001 187.568 282.229 190.999 283.464 190.999C283.824 190.999 283.839 190.546 283.497 189.992C282.62 188.574 277.001 185.776 277.001 186.758ZM67.627 191.876C65.931 192.542 66.056 192.868 68.954 195.306C72.157 198.001 75.093 198.477 80.001 197.096C82.296 196.45 82.02 196.172 76.63 193.696C70.267 190.773 70.377 190.795 67.627 191.876ZM285.001 191.473C285.001 192.06 290.602 195.001 291.701 194.992C292.141 194.989 291.151 194.092 289.501 192.999C286.565 191.055 285.001 190.524 285.001 191.473ZM257.409 192.851C257.804 193.489 261.136 195.942 264.814 198.301C268.492 200.66 274.426 204.46 278.001 206.746C283.626 210.343 288.447 212.753 303.501 219.493C309.685 222.262 330.305 228.996 332.362 228.919C333.539 228.874 329.326 227.149 323.001 225.085C298.454 217.073 285.761 210.93 265.001 197.015C257.437 191.944 256.548 191.457 257.409 192.851ZM220.001 194.999C219.1 195.581 218.976 195.974 219.692 195.984C220.347 195.992 221.161 195.549 221.501 194.999C222.268 193.757 221.922 193.757 220.001 194.999ZM294.001 195.9C296.078 197.409 306.166 201.168 306.702 200.632C307.078 200.255 301.098 197.735 294.501 195.491C292.881 194.939 292.786 195.017 294.001 195.9ZM194.123 198.277C192.636 199.764 192.698 201.674 194.251 202.245C196.276 202.989 198.001 201.967 198.001 200.023C198.001 197.806 195.652 196.748 194.123 198.277ZM203.001 204.162C194.979 208.313 181.588 213.969 170.001 218.102C159.276 221.926 152.076 224.757 154.001 224.393C164.402 222.424 202.759 206.702 214.001 199.8C221.789 195.018 217.007 196.915 203.001 204.162ZM285.677 202.401C285.003 204.158 285.808 204.999 288.168 204.999C289.334 204.999 290.001 204.272 290.001 202.999C290.001 200.67 286.526 200.189 285.677 202.401ZM311.001 202.297C311.001 203.04 320.25 206.083 320.809 205.524C321.067 205.266 320.071 204.596 318.596 204.035C314.685 202.548 311.001 201.705 311.001 202.297ZM326.523 207.468C333.49 209.671 338.123 210.141 332.001 208.024C328.976 206.977 325.601 206.138 324.501 206.159C323.401 206.18 324.311 206.769 326.523 207.468ZM91.635 208.249C95.997 215.498 100.072 221.245 103.505 224.988C105.78 227.469 109.742 232.649 112.308 236.499C117.562 244.379 122.859 250.475 123.712 249.621C124.025 249.309 123.655 248.202 122.891 247.161C122.126 246.121 118.621 241.046 115.102 235.884C111.582 230.722 106.632 224.237 104.102 221.473C101.571 218.709 98.048 214.321 96.272 211.723C94.495 209.125 92.556 206.999 91.963 206.999C91.364 206.999 91.218 207.556 91.635 208.249ZM349.501 212.999C350.601 213.472 352.401 213.845 353.501 213.829C355.109 213.805 355.011 213.643 353.001 212.999C349.582 211.904 346.953 211.904 349.501 212.999ZM148.001 214.987C146.839 215.727 146.751 216.343 147.61 217.721C149.221 220.304 151.501 219.93 151.501 217.082C151.501 214.35 150.212 213.579 148.001 214.987ZM358.501 214.999C359.601 215.472 361.401 215.845 362.501 215.829C364.109 215.805 364.011 215.643 362.001 214.999C358.582 213.904 355.953 213.904 358.501 214.999ZM334.702 216.631C334.317 217.017 334.001 218.189 334.001 219.235C334.001 220.637 334.594 221.054 336.251 220.819C337.722 220.61 338.501 219.811 338.501 218.513C338.501 216.529 336.029 215.305 334.702 216.631ZM368.27 216.692C369.243 216.946 370.593 216.929 371.27 216.655C371.947 216.381 371.151 216.174 369.501 216.194C367.851 216.214 367.297 216.438 368.27 216.692ZM376.001 217.999C377.376 218.439 379.851 218.791 381.501 218.781L384.501 218.762L381.501 217.999C379.851 217.579 377.376 217.227 376.001 217.217L373.501 217.198L376.001 217.999ZM386.185 219.676C388.293 220.232 388.722 222.536 389.516 237.554L390.153 249.609L386.327 250.678L382.501 251.746L386.251 251.873L390.001 251.999L390.185 265.249C390.287 272.537 390.399 284.574 390.435 291.999L390.501 305.499L386.501 306.107L382.501 306.715L386.774 306.857L391.048 306.999L390.958 347.749C390.879 383.54 389.384 423.974 387.399 443.999C387.045 447.574 387.08 450.191 387.478 449.815C387.876 449.439 388.874 442.914 389.696 435.315C392.745 407.128 392.472 236.374 389.354 221.749C388.925 219.736 388.196 219.03 386.634 219.115C385.046 219.201 384.931 219.345 386.185 219.676ZM20.008 225.749C20.011 226.161 20.917 227.849 22.02 229.499C23.123 231.149 25.658 235.78 27.653 239.791C29.857 244.22 32.867 248.44 35.321 250.541C41.328 255.682 41.994 254.725 36.22 249.249C29.826 243.184 20.972 226.419 23.775 225.684C24.808 225.413 24.396 225.184 22.751 225.115C21.239 225.051 20.004 225.337 20.008 225.749ZM378.668 225.666C378.301 226.032 378.001 227.189 378.001 228.235C378.001 229.637 378.594 230.054 380.251 229.819C383.19 229.401 384.091 224.999 381.237 224.999C380.191 224.999 379.034 225.299 378.668 225.666ZM31.556 226.991C41.951 228.517 49.269 233.282 56.678 243.347C61.514 249.916 62.586 250.162 58.124 243.679C54.051 237.762 45.706 230.222 40.733 227.964C38.195 226.812 34.499 226.084 31.501 226.146L26.501 226.249L31.556 226.991ZM336.27 229.692C337.243 229.946 338.593 229.929 339.27 229.655C339.947 229.381 339.151 229.174 337.501 229.194C335.851 229.214 335.297 229.438 336.27 229.692ZM344.27 230.692C345.243 230.946 346.593 230.929 347.27 230.655C347.947 230.381 347.151 230.174 345.501 230.194C343.851 230.214 343.297 230.438 344.27 230.692ZM353.501 231.991C356.251 232.449 360.826 232.863 363.668 232.911C366.793 232.964 369.034 233.493 369.339 234.249C369.64 234.996 369.875 234.794 369.922 233.749C369.974 232.592 369.238 231.98 367.751 231.944C366.513 231.914 361.676 231.725 357.001 231.524C349.949 231.22 349.353 231.3 353.501 231.991ZM29.001 232.429C29.001 232.704 29.901 233.41 31.001 233.999C32.101 234.588 33.001 234.844 33.001 234.569C33.001 234.294 32.101 233.588 31.001 232.999C29.901 232.41 29.001 232.154 29.001 232.429ZM286.1 236.064C285.419 238.335 285.076 240.407 285.337 240.668C285.597 240.929 286.121 239.728 286.501 237.999C286.881 236.27 287.374 235.039 287.598 235.262C287.821 235.486 288.732 239.59 289.621 244.383C290.51 249.175 291.44 252.893 291.689 252.644C292.343 251.99 289.066 233.664 288.127 232.725C287.693 232.291 286.78 233.793 286.1 236.064ZM89.001 243.573V253.592L96.323 255.295C100.351 256.232 104.198 256.999 104.872 256.999C106.041 256.999 94.719 239.666 90.846 235.527C89.044 233.601 89.001 233.789 89.001 243.573ZM36.001 236.892C36.001 237.383 36.74 238.068 37.642 238.415C39.015 238.942 39.077 238.795 38.02 237.522C36.58 235.787 36.001 235.606 36.001 236.892ZM262.001 237.047C262.001 237.624 261.101 239.958 260.001 242.235C258.901 244.512 258.04 246.853 258.087 247.437C258.134 248.021 259.423 245.827 260.951 242.56C263.623 236.849 263.776 236.71 264.962 238.925C265.64 240.192 265.981 242.64 265.719 244.364C265.172 247.981 267.128 252.45 269.69 253.433C271.093 253.972 270.999 253.625 269.227 251.74C267.666 250.078 267.001 248.134 267.001 245.232C267.001 240.404 265.255 235.999 263.34 235.999C262.604 235.999 262.001 236.471 262.001 237.047ZM309.385 238.273L307.501 240.499L309.751 238.594C311.99 236.699 312.001 236.701 312.001 239.122C312.001 240.459 311.28 242.583 310.399 243.841C309.518 245.099 309.035 246.366 309.325 246.657C310.092 247.424 313.001 241.451 313.001 239.108C313.001 236.121 311.498 235.774 309.385 238.273ZM370.287 240.499C370.295 243.249 370.489 244.255 370.719 242.735C370.948 241.215 370.942 238.965 370.705 237.735C370.468 236.505 370.28 237.749 370.287 240.499ZM302.202 242.027C299.122 244.896 298.525 248.375 300.362 252.747L301.938 256.499L301.341 250.832C300.798 245.666 300.974 244.935 303.328 242.582C306.364 239.545 305.384 239.062 302.202 242.027ZM281.73 250.747C280.851 253.911 279.843 257.399 279.49 258.499C278.874 260.425 278.895 260.428 280.06 258.597C281.429 256.446 284.329 245.994 283.725 245.389C283.508 245.172 282.61 247.583 281.73 250.747ZM241.458 250.523C242.232 253.093 243.12 255.452 243.433 255.764C244.207 256.538 244.153 256.016 243.072 252.245C242.244 249.359 242.326 249.112 243.822 249.985C244.745 250.524 249.326 254.572 254.001 258.981L262.501 266.997L260.001 269.01C258.626 270.117 255.849 272.363 253.829 274.002L250.157 276.981L247.929 269.474C246.703 265.345 245.498 262.169 245.25 262.417C245.003 262.664 245.793 266.212 247.007 270.3C248.763 276.217 248.981 278.168 248.072 279.866C246.841 282.166 245.488 282.596 244.501 280.999C244.161 280.449 243.374 279.999 242.751 279.999C242.128 279.999 242.492 280.638 243.56 281.418C245.322 282.707 245.377 283.143 244.152 286.168C240.552 295.059 239.373 301.915 240.168 309.338C240.601 313.377 241.638 317.991 242.472 319.59C243.306 321.19 243.991 322.914 243.995 323.42C243.998 323.927 244.712 325.127 245.581 326.087C246.831 327.468 246.931 328.32 246.06 330.166C245.192 332.007 245.209 332.158 246.141 330.882C247.172 329.472 248.114 330.069 253.546 335.582C256.969 339.055 260.083 341.584 260.467 341.2C260.851 340.816 261.76 341.316 262.487 342.31C263.214 343.305 264.075 343.688 264.401 343.161C264.727 342.634 262.734 340.753 259.972 338.98C241.713 327.264 235.898 301.569 247.428 283.546C252.714 275.283 263.571 267.45 274.501 264.015C279.251 262.522 281.88 260.517 277.751 261.537C275.322 262.137 275.001 261.934 275.001 259.799C275.001 258.469 274.301 256.508 273.446 255.44C271.944 253.565 271.927 253.573 272.946 255.683C275.27 260.495 274.127 263.68 269.829 264.365C269.099 264.481 267.636 265.07 266.579 265.674C264.912 266.625 263.151 265.427 253.293 256.635C247.043 251.06 241.507 246.353 240.99 246.174C240.474 245.995 240.684 247.952 241.458 250.523ZM308.092 249.499C308.069 250.599 308.476 253.346 308.998 255.603C309.597 258.197 309.594 260.931 308.991 263.035C308.317 265.383 308.349 266.051 309.097 265.303C310.891 263.509 311.149 256.735 309.603 251.999C308.796 249.524 308.116 248.399 308.092 249.499ZM257.681 250.499C258.503 253.135 260.816 255.756 264.501 258.227C266.948 259.868 266.764 259.513 263.501 256.299C261.301 254.132 258.951 251.491 258.279 250.429C257.089 248.549 257.073 248.551 257.681 250.499ZM370.001 258.391C370.001 264.904 370.346 267.904 371.047 267.471C372.03 266.863 371.462 250.127 370.423 249.088C370.191 248.856 370.001 253.042 370.001 258.391ZM64.001 253.999C62.794 254.779 62.952 254.971 64.81 254.984C66.098 254.992 66.846 254.557 66.501 253.999C65.758 252.797 65.862 252.797 64.001 253.999ZM384.501 254.999L381.501 255.762L384.692 255.881C386.447 255.946 388.161 255.549 388.501 254.999C389.185 253.892 388.85 253.892 384.501 254.999ZM47.501 256.952C49.421 257.822 54.777 258.389 53.918 257.632C53.689 257.43 51.701 256.99 49.501 256.655C46.713 256.231 46.107 256.321 47.501 256.952ZM90.001 256.866C90.826 257.34 93.751 257.989 96.501 258.308C102.505 259.003 99.506 257.581 93.001 256.648C90.312 256.262 89.105 256.35 90.001 256.866ZM203.967 261.558C202.218 264.616 201.005 267.336 201.273 267.604C201.54 267.871 203.177 265.577 204.911 262.505C206.645 259.433 208.499 257.189 209.032 257.518C209.565 257.848 210.001 257.64 210.001 257.058C210.001 254.211 206.808 256.593 203.967 261.558ZM329.751 257.571C325.874 259.674 326.313 260.4 330.251 258.398C334.021 256.48 334.688 255.984 333.418 256.039C332.914 256.061 331.263 256.75 329.751 257.571ZM83.425 259.446C82.778 262.022 84.496 268.569 86.074 269.544C86.607 269.874 87.001 267.332 87.001 263.558C87.001 258.432 86.677 256.999 85.52 256.999C84.706 256.999 83.763 258.1 83.425 259.446ZM244.08 259.582C244.128 260.747 244.365 260.984 244.684 260.187C244.973 259.465 244.937 258.602 244.605 258.27C244.273 257.938 244.037 258.528 244.08 259.582ZM105.591 259.853C105.301 260.322 106.196 261.222 107.579 261.853C111.143 263.477 111.571 263.286 109.501 260.999C107.546 258.838 106.422 258.509 105.591 259.853ZM210.082 259.127C210.037 259.472 210.676 261.37 211.501 263.345C213.818 268.889 213.414 275.924 210.462 281.477C209.065 284.104 208.091 286.422 208.297 286.628C208.503 286.834 209.871 284.633 211.336 281.737C214.559 275.368 214.821 268.344 212.056 262.499C211.015 260.299 210.126 258.782 210.082 259.127ZM321.001 261.999C319.076 263.053 317.951 263.915 318.501 263.915C319.051 263.915 321.076 263.053 323.001 261.999C324.926 260.945 326.051 260.083 325.501 260.083C324.951 260.083 322.926 260.945 321.001 261.999ZM72.979 264.676C69.585 268.542 66.653 274.455 67.247 276.237C67.44 276.815 68.129 275.516 68.778 273.349C69.427 271.182 71.578 267.516 73.558 265.204C75.537 262.891 76.943 260.999 76.683 260.999C76.422 260.999 74.755 262.654 72.979 264.676ZM292.001 262.999C292.001 263.549 292.478 263.999 293.06 263.999C293.642 263.999 293.841 263.549 293.501 262.999C293.161 262.449 292.685 261.999 292.442 261.999C292.199 261.999 292.001 262.449 292.001 262.999ZM132.921 265.71C131.871 268.47 132.223 271.327 133.938 273.97C135.349 276.146 136.483 274.371 135.353 271.753C134.348 269.425 134.633 265.971 135.824 266.035C136.196 266.055 137.731 267.694 139.235 269.676C141.965 273.275 142.162 276.667 139.815 279.66C139.254 280.374 139.307 281.07 139.952 281.469C141.762 282.588 142.747 281.177 143.456 276.45C144.093 272.206 143.88 271.557 140.504 267.438C136.316 262.327 134.375 261.884 132.921 265.71ZM384.814 263.682C385.535 263.971 386.398 263.935 386.73 263.603C387.062 263.271 386.472 263.035 385.418 263.078C384.253 263.126 384.016 263.363 384.814 263.682ZM298.814 264.682C299.535 264.971 300.398 264.935 300.73 264.603C301.062 264.271 300.472 264.035 299.418 264.078C298.253 264.126 298.016 264.363 298.814 264.682ZM302.465 265.941C302.758 266.414 304.364 267.278 306.033 267.86C307.703 268.443 308.83 268.531 308.537 268.057C308.244 267.584 306.638 266.72 304.969 266.138C303.299 265.555 302.172 265.467 302.465 265.941ZM385.751 266.661C386.439 266.939 387.564 266.939 388.251 266.661C388.939 266.384 388.376 266.157 387.001 266.157C385.626 266.157 385.064 266.384 385.751 266.661ZM205.616 272.614C205.25 275.731 205.15 278.481 205.393 278.725C205.637 278.968 206.153 276.634 206.539 273.537C206.926 270.441 207.027 267.691 206.763 267.427C206.499 267.163 205.983 269.497 205.616 272.614ZM170.001 269.999C170.001 270.549 170.703 270.999 171.56 270.999C172.417 270.999 172.841 270.549 172.501 269.999C172.161 269.449 171.46 268.999 170.942 268.999C170.424 268.999 170.001 269.449 170.001 269.999ZM379.153 269.885C377.176 271.137 378.168 274.499 380.515 274.499C381.948 274.499 382.501 273.827 382.501 272.082C382.501 269.415 381.221 268.576 379.153 269.885ZM312.001 270.377C312.001 270.584 312.789 271.372 313.751 272.127C315.337 273.37 315.372 273.335 314.129 271.749C312.822 270.083 312.001 269.554 312.001 270.377ZM370.763 303.248C370.908 321.536 371.156 339.649 371.315 343.499C371.474 347.349 371.693 332.386 371.802 310.249C371.912 288.112 371.664 269.999 371.251 269.998C370.838 269.998 370.619 284.96 370.763 303.248ZM95.1049 271.914C93.2149 273.11 94.533 276.236 96.748 275.809C97.712 275.624 98.501 274.615 98.501 273.569C98.501 271.35 97.0869 270.661 95.1049 271.914ZM174.001 271.884C174.001 272.781 177.006 274.327 177.599 273.735C177.77 273.563 177.031 272.874 175.956 272.203C174.881 271.531 174.001 271.388 174.001 271.884ZM217.144 272.889C216.198 273.489 216.123 273.956 216.894 274.433C217.503 274.809 218.001 274.672 218.001 274.128C218.001 273.583 219.013 272.943 220.251 272.705C222.192 272.331 222.226 272.255 220.501 272.15C219.401 272.084 217.89 272.416 217.144 272.889ZM225.628 276.429C229.067 280.776 231.354 281.506 237.141 280.103L241.501 279.046L235.778 279.528C230.493 279.973 229.927 279.815 228.386 277.464C227.469 276.064 225.826 274.441 224.736 273.857C223.196 273.033 223.395 273.606 225.628 276.429ZM145.411 275.626C145.755 276.52 145.507 277.89 144.861 278.668C144 279.705 143.983 280.381 144.796 281.194C145.608 282.006 146.221 281.611 147.085 279.715C148.357 276.922 147.764 273.999 145.925 273.999C145.285 273.999 145.06 274.711 145.411 275.626ZM317.033 274.367C317.015 274.844 318.418 276.849 320.15 278.821C321.882 280.794 324.438 284.895 325.83 287.936C328.037 292.757 328.366 294.872 328.404 304.481C328.431 311.146 327.925 317.007 327.125 319.316C326.397 321.415 326.045 323.376 326.342 323.673C327.343 324.674 329.998 313.545 330.13 307.795C330.23 303.46 330.65 301.992 331.881 301.663C333.374 301.265 333.374 301.222 331.881 301.115C330.744 301.034 330.118 299.733 329.781 296.749C329.516 294.412 328.008 289.799 326.429 286.499C324.849 283.199 323.657 280.162 323.779 279.749C323.901 279.336 323.529 278.999 322.953 278.999C322.377 278.999 320.816 277.761 319.485 276.249C318.153 274.737 317.05 273.89 317.033 274.367ZM335.784 276.749C334.082 278.701 331.708 282.999 332.333 282.999C332.554 282.999 333.926 281.199 335.382 278.999C338.171 274.785 338.345 273.814 335.784 276.749ZM185.675 280.168C189.919 284.867 191.985 289.942 191.995 295.69C191.998 297.445 191.544 299.164 190.985 299.509C189.842 300.215 190.613 301.999 192.06 301.999C192.578 301.999 192.981 299.187 192.956 295.749C192.902 288.354 190.316 282.711 185.001 278.391C181.664 275.679 181.695 275.761 185.675 280.168ZM66.136 280.499C66.098 282.149 66.977 285.974 68.09 288.999C69.204 292.024 70.622 296.524 71.243 298.999C71.864 301.474 72.536 302.765 72.737 301.868C72.938 300.97 72.132 297.595 70.947 294.368C69.762 291.14 68.211 286.024 67.499 282.999C66.556 278.987 66.187 278.311 66.136 280.499ZM252.873 279.749C251.63 281.335 251.665 281.37 253.251 280.127C254.917 278.82 255.446 277.999 254.623 277.999C254.416 277.999 253.628 278.787 252.873 279.749ZM352.001 279.56C352.001 279.773 353.351 280.646 355.001 281.499C356.651 282.352 358.001 282.687 358.001 282.244C358.001 281.8 356.651 280.928 355.001 280.305C353.351 279.682 352.001 279.347 352.001 279.56ZM221.08 282.582C221.128 283.747 221.365 283.984 221.684 283.187C221.973 282.465 221.937 281.602 221.605 281.27C221.273 280.938 221.037 281.528 221.08 282.582ZM202.163 285.542C200.488 289.219 200.808 290.004 202.619 286.661C203.465 285.099 203.97 283.635 203.742 283.406C203.513 283.178 202.803 284.139 202.163 285.542ZM247.322 288.61C245.634 292.297 244.667 296.326 244.502 300.36C244.364 303.736 244.425 304.924 244.636 302.999C245.223 297.662 247.11 290.913 249.179 286.749C250.203 284.687 250.783 282.999 250.466 282.999C250.149 282.999 248.734 285.524 247.322 288.61ZM86.239 286.933C85.545 288.821 85.365 290.621 85.839 290.933C86.314 291.244 86.776 320.074 86.867 354.999C87.078 436.273 87.717 444.71 95.533 469.499C104.615 498.305 118.257 522.082 135.799 539.684C154.904 558.853 182.316 579.386 207.96 593.735C225.337 603.458 242.087 611.196 244.453 610.592C249.28 609.36 278.626 591.291 277.549 590.214C277.27 589.935 275.166 591.01 272.874 592.603C270.582 594.196 268.211 595.828 267.604 596.23C265.83 597.405 256.402 602.736 249.635 606.39L243.384 609.765L229.442 603.066C214.77 596.016 196.347 585.285 179.308 573.863C155.619 557.984 130.814 534.291 118.728 515.999C109.412 501.899 100.64 482.465 95.251 463.985C89.462 444.135 88.964 436.153 88.138 349.999C87.609 294.78 87.287 284.081 86.239 286.933ZM223.723 287.049C224.945 288.336 226.139 289.188 226.375 288.943C226.612 288.699 225.612 287.647 224.153 286.605L221.501 284.711L223.723 287.049ZM341.256 286.249C339.353 288.652 337.753 292.271 338.908 291.556C339.517 291.18 340.699 289.551 341.534 287.936C343.109 284.89 342.975 284.078 341.256 286.249ZM172.103 287.881C171.996 290.379 175.832 297.502 176.776 296.558C177.076 296.257 176.522 295.127 175.544 294.046C174.565 292.965 173.414 290.6 172.985 288.79C172.37 286.193 172.184 286.001 172.103 287.881ZM182.001 289.999C182.59 291.099 183.296 291.999 183.571 291.999C183.846 291.999 183.59 291.099 183.001 289.999C182.412 288.899 181.706 287.999 181.431 287.999C181.156 287.999 181.412 288.899 182.001 289.999ZM228.751 289.661C229.439 289.939 230.564 289.939 231.251 289.661C231.939 289.384 231.376 289.157 230.001 289.157C228.626 289.157 228.064 289.384 228.751 289.661ZM136.001 290.377C136.001 290.584 136.788 291.372 137.751 292.127C139.337 293.37 139.372 293.335 138.129 291.749C136.822 290.083 136.001 289.554 136.001 290.377ZM158.925 292.749L156.501 295.499L159.251 293.075C161.821 290.809 162.46 289.999 161.675 289.999C161.496 289.999 160.259 291.237 158.925 292.749ZM203.447 293.086C203.078 293.684 201.926 293.951 200.888 293.68C199.846 293.407 198.994 293.704 198.986 294.343C198.977 295.009 198.521 294.863 197.91 293.999C196.967 292.666 196.894 292.666 197.258 293.999C197.879 296.279 200.401 296.312 203.088 294.074C204.415 292.969 205.19 292.051 204.81 292.032C204.43 292.014 203.817 292.488 203.447 293.086ZM101.001 294.968C101.001 295.5 101.676 295.677 102.501 295.361C103.326 295.044 104.001 294.608 104.001 294.392C104.001 294.176 103.326 293.999 102.501 293.999C101.676 293.999 101.001 294.435 101.001 294.968ZM141.438 297.328C142.978 299.347 144.441 300.999 144.688 300.999C145.382 300.999 141.053 295.149 139.773 294.358C139.149 293.972 139.898 295.309 141.438 297.328ZM382.001 294.386C382.001 295.207 388.117 295.62 388.604 294.832C388.887 294.374 387.517 293.999 385.56 293.999C383.603 293.999 382.001 294.173 382.001 294.386ZM78.607 297.847L76.713 300.499L79.051 298.277C80.338 297.055 81.19 295.861 80.945 295.625C80.701 295.388 79.649 296.388 78.607 297.847ZM232.001 298.392C232.001 298.608 232.699 299.053 233.553 299.381C234.443 299.722 234.844 299.554 234.494 298.988C233.907 298.037 232.001 297.582 232.001 298.392ZM207.767 303.089L204.501 306.179L208.501 303.38C210.701 301.84 212.689 300.449 212.918 300.289C213.147 300.13 212.816 299.999 212.183 299.999C211.55 299.999 209.563 301.39 207.767 303.089ZM197.159 302.999C197.159 304.374 197.386 304.937 197.663 304.249C197.941 303.562 197.941 302.437 197.663 301.749C197.386 301.062 197.159 301.624 197.159 302.999ZM231.639 307.58C228.445 310.649 226.74 312.674 227.85 312.08C228.961 311.485 230.912 310.992 232.185 310.984C234.022 310.972 234.193 310.774 233.013 310.027C231.778 309.247 232.11 308.482 234.959 305.543C240.316 300.015 238.09 301.381 231.639 307.58ZM224.501 306.054C222.301 307.095 219.601 307.994 218.501 308.052C217.401 308.11 217.03 308.373 217.677 308.637C219.303 309.3 226.146 307.355 228.532 305.551C231.209 303.528 229.35 303.759 224.501 306.054ZM171.293 307.321C177.367 316.593 182.326 322.567 194.314 335.059C201.842 342.904 208.001 348.993 208.001 348.591C208.001 346.61 200.608 337.562 192.403 329.499C187.365 324.549 180.711 317.011 177.615 312.749C174.52 308.487 171.488 304.999 170.879 304.999C170.187 304.999 170.342 305.871 171.293 307.321ZM349.769 307.167C350.351 307.749 351.416 308.027 352.138 307.787C352.887 307.537 352.433 307.084 351.081 306.73C349.418 306.295 349.027 306.425 349.769 307.167ZM203.668 307.666C202.562 308.771 202.909 309.75 204.642 310.415C205.94 310.913 206.046 310.759 205.151 309.68C204.528 308.929 204.314 308.019 204.676 307.657C205.038 307.295 205.109 306.999 204.834 306.999C204.559 306.999 204.034 307.299 203.668 307.666ZM385.27 310.692C386.243 310.946 387.593 310.929 388.27 310.655C388.947 310.381 388.151 310.174 386.501 310.194C384.851 310.214 384.297 310.438 385.27 310.692ZM130.708 315.988C130.994 317.082 131.649 317.717 132.163 317.399C132.715 317.058 132.618 316.243 131.927 315.41C130.35 313.509 130.092 313.631 130.708 315.988ZM246.08 316.582C246.128 317.747 246.365 317.984 246.684 317.187C246.973 316.465 246.937 315.602 246.605 315.27C246.273 314.938 246.037 315.528 246.08 316.582ZM95.062 319.961C93.152 321.142 94.227 324.499 96.515 324.499C97.777 324.499 98.611 323.726 98.804 322.376C99.134 320.061 97.063 318.725 95.062 319.961ZM379.251 320.73C378.564 320.969 378.001 322.284 378.001 323.652C378.001 325.658 378.435 326.076 380.251 325.819C381.65 325.62 382.616 324.696 382.804 323.376C383.115 321.193 381.459 319.959 379.251 320.73ZM195.732 326.079C196.086 327.431 196.539 327.885 196.789 327.136C197.029 326.414 196.751 325.349 196.169 324.767C195.427 324.025 195.297 324.416 195.732 326.079ZM221.27 324.692C222.243 324.946 223.593 324.929 224.27 324.655C224.947 324.381 224.151 324.174 222.501 324.194C220.851 324.214 220.297 324.438 221.27 324.692ZM216.406 327.249L214.501 329.499L216.751 327.594C217.989 326.546 219.001 325.534 219.001 325.344C219.001 324.544 218.196 325.135 216.406 327.249ZM319.092 331.831C315.058 336.803 314.547 337.736 317.082 335.499C318.952 333.849 320.86 331.912 321.322 331.194C321.88 330.327 322.556 330.213 323.332 330.854C324.182 331.556 324.521 330.891 324.576 328.409C324.617 326.534 324.617 325.036 324.576 325.081C324.535 325.127 322.067 328.164 319.092 331.831ZM330.673 326.277C330.937 326.705 333.895 326.973 337.246 326.872C342.743 326.707 343.566 326.954 345.67 329.4C347.345 331.348 348.001 333.344 348.001 336.496C348.001 338.908 348.527 341.206 349.171 341.604C349.969 342.097 350.128 341.772 349.671 340.581C349.302 339.621 348.999 337.185 348.996 335.167C348.993 332.829 348.144 330.441 346.655 328.58C344.486 325.868 343.816 325.655 337.255 325.58C333.37 325.535 330.408 325.849 330.673 326.277ZM236.873 327.749C235.63 329.335 235.665 329.37 237.251 328.127C238.214 327.372 239.001 326.584 239.001 326.377C239.001 325.554 238.18 326.083 236.873 327.749ZM256.704 329.403C257.692 330.726 259.401 332.355 260.501 333.024C261.601 333.693 260.95 332.611 259.055 330.62C255.078 326.441 254.121 325.946 256.704 329.403ZM213.625 331.538C212.66 334.052 212.944 334.701 214.123 332.674C214.707 331.67 214.974 330.638 214.716 330.381C214.459 330.123 213.967 330.644 213.625 331.538ZM230.001 333.999C227.674 334.744 227.652 334.807 229.692 334.899C230.897 334.954 232.161 334.549 232.501 333.999C232.841 333.449 232.98 333.044 232.81 333.099C232.64 333.154 231.376 333.559 230.001 333.999ZM328.442 334.425C329.51 335.291 332.078 335.999 334.149 335.999C337.279 335.999 338.388 336.602 340.708 339.568C343.282 342.858 347.786 346.057 349.701 345.957C350.141 345.934 349.067 345.147 347.315 344.207C345.563 343.268 343.072 340.924 341.78 338.999C339.746 335.968 338.765 335.43 334.466 334.981C331.735 334.696 328.826 334.101 328.001 333.657C327.176 333.214 327.375 333.559 328.442 334.425ZM241.698 337.934C240.765 339.514 240.003 341.188 240.005 341.653C240.007 342.118 240.931 340.986 242.059 339.136C243.186 337.287 243.948 335.613 243.752 335.417C243.556 335.221 242.632 336.354 241.698 337.934ZM310.873 339.749C309.63 341.335 309.665 341.37 311.251 340.127C312.917 338.82 313.446 337.999 312.623 337.999C312.416 337.999 311.628 338.787 310.873 339.749ZM324.076 339.999C324.072 341.44 326.893 347.165 326.966 345.864C326.985 345.514 326.344 343.714 325.54 341.864C324.737 340.013 324.078 339.174 324.076 339.999ZM141.972 341.031C135.694 341.601 123.548 346.458 124.51 348.014C124.731 348.372 123.893 350.203 122.648 352.082C119.577 356.714 118.001 362.597 118.001 369.424C118.001 373.473 117.668 374.911 116.846 374.404C116.125 373.958 115.964 374.13 116.416 374.861C116.814 375.505 117.511 375.802 117.965 375.521C119.134 374.798 119.945 377.377 119.422 380.153C119.178 381.443 119.257 381.905 119.597 381.179C120.047 380.216 120.657 380.486 121.85 382.179C122.75 383.455 123.49 384.949 123.494 385.499C123.498 386.049 124.064 386.555 124.751 386.624C125.439 386.693 126.478 386.805 127.06 386.874C127.642 386.943 127.887 387.374 127.604 387.832C127.321 388.291 127.694 388.666 128.434 388.666C129.174 388.666 131.516 389.503 133.64 390.527C135.764 391.551 140.314 392.578 143.751 392.81C147.189 393.042 150.001 393.662 150.001 394.187C150.001 394.712 150.743 394.4 151.65 393.493C152.557 392.586 154.133 392.062 155.151 392.328C156.17 392.595 156.772 392.437 156.488 391.978C156.204 391.519 156.766 390.889 157.736 390.579C160.116 389.818 168.001 382.52 168.001 381.079C168.001 380.446 168.764 378.765 169.695 377.343C170.627 375.92 171.527 373.799 171.695 372.628C172.874 364.384 172.656 362.546 169.869 357.249C168.294 354.253 167.298 351.327 167.657 350.746C168.023 350.155 167.837 349.982 167.236 350.354C166.645 350.719 165.338 349.99 164.331 348.733C162.062 345.9 156.159 342.39 151.793 341.277C149.983 340.816 145.563 340.705 141.972 341.031ZM303.043 343.653C300.041 345.022 295.316 346.433 292.543 346.788C287.644 347.415 287.6 347.449 291.001 347.988C292.926 348.293 294.726 348.29 295.001 347.983C295.276 347.675 298.308 346.542 301.738 345.465C305.169 344.388 308.192 342.943 308.457 342.253C308.722 341.563 308.84 341.036 308.72 341.081C308.599 341.126 306.045 342.283 303.043 343.653ZM139.239 342.925C129.378 344.572 121.197 354.686 120.257 366.393C119.619 374.343 121.128 379.025 125.59 382.943C136.521 392.541 151.278 393.527 161.04 385.312C162.669 383.942 164.001 382.168 164.001 381.37C164.001 380.571 164.982 378.592 166.18 376.971C169.23 372.845 169.607 363.106 166.92 357.839C161.052 346.337 141.863 347.948 135.224 360.499C131.62 367.313 135.388 376.628 143.088 379.941C148.283 382.176 157.791 382.717 161.067 380.964C162.131 380.394 163.001 380.323 163.001 380.806C163.001 382.035 155.991 383.999 151.602 383.999C144.696 383.999 135.391 377.817 133.068 371.684C127.813 357.816 143.011 344.413 158.842 348.953C161.771 349.794 162.018 349.725 160.903 348.38C157.173 343.887 147.724 341.507 139.239 342.925ZM248.722 347.398C239.972 352.706 236.254 355.406 241.001 353.006C244.801 351.085 258.001 342.846 258.001 342.395C258.001 341.772 257.975 341.786 248.722 347.398ZM268.501 344.684C270.151 345.567 271.782 346.722 272.126 347.251C272.513 347.847 273.004 347.803 273.416 347.136C273.802 346.511 272.544 345.417 270.419 344.529C265.684 342.551 264.668 342.633 268.501 344.684ZM350.565 344.292C350.941 345.278 351.5 345.833 351.808 345.525C352.116 345.218 351.809 344.411 351.125 343.732C350.137 342.752 350.023 342.867 350.565 344.292ZM262.137 349.299C262.062 350.838 262.699 353.448 263.553 355.099C264.406 356.749 264.834 359.089 264.505 360.299C263.958 362.305 264.007 362.336 265.06 360.648C265.959 359.206 265.867 357.991 264.645 355.148C263.782 353.141 262.895 350.374 262.675 348.999C262.293 346.619 262.267 346.633 262.137 349.299ZM277.016 348.749C277.025 349.711 277.488 351.174 278.047 351.999C278.806 353.121 278.907 352.829 278.446 350.839C277.969 348.784 278.247 348.071 279.665 347.705C281.152 347.321 281.074 347.209 279.251 347.115C277.725 347.036 277.006 347.562 277.016 348.749ZM327.589 348.999C327.953 350.374 328.886 352.624 329.662 353.999L331.074 356.499L330.413 353.999C330.049 352.624 329.116 350.374 328.34 348.999L326.928 346.499L327.589 348.999ZM293.08 351.582C293.128 352.747 293.365 352.984 293.684 352.187C293.973 351.465 293.937 350.602 293.605 350.27C293.273 349.938 293.037 350.528 293.08 351.582ZM298.005 351.714C298.003 352.383 299.338 354.452 300.972 356.313C303.664 359.38 303.887 360.162 303.354 364.669C302.701 370.18 304.559 375.157 307.946 376.969C310.773 378.483 311.001 378.316 311.001 374.734C311.001 372.939 311.901 369.79 313.001 367.738C316.362 361.467 315.466 356.77 310.292 353.54C307.681 351.911 307.71 352.001 310.751 354.949C314.542 358.625 314.84 361.621 312.001 367.499C310.938 369.699 310.054 372.722 310.035 374.218C309.989 377.887 307.671 376.931 305.495 372.345C304.289 369.803 304.013 367.547 304.487 364.102C305.012 360.285 304.801 359.079 303.408 357.929C302.456 357.142 300.851 355.149 299.843 353.499C298.834 351.849 298.007 351.046 298.005 351.714ZM371.379 361.999C371.379 368.324 371.542 370.912 371.74 367.749C371.938 364.586 371.938 359.412 371.74 356.249C371.542 353.086 371.379 355.674 371.379 361.999ZM271.087 353.999C271.056 354.824 271.468 356.174 272.001 356.999C273.182 358.827 273.182 357.248 272.001 354.499C271.434 353.18 271.123 353.01 271.087 353.999ZM142.501 354.999C142.841 355.549 143.317 355.999 143.56 355.999C143.803 355.999 144.001 355.549 144.001 354.999C144.001 354.449 143.524 353.999 142.942 353.999C142.36 353.999 142.161 354.449 142.501 354.999ZM232.46 355.066C232.097 355.652 232.015 356.347 232.277 356.609C232.539 356.871 233.02 356.391 233.346 355.542C234.022 353.78 233.446 353.47 232.46 355.066ZM290.572 362.57C289.631 367.312 289.053 371.384 289.289 371.62C289.525 371.856 290.488 368.169 291.43 363.428C292.371 358.686 292.949 354.614 292.713 354.378C292.477 354.142 291.514 357.829 290.572 362.57ZM279.122 355.999C279.105 356.824 279.709 358.849 280.465 360.499C282.233 364.361 282.259 362.565 280.501 357.999C279.76 356.074 279.139 355.174 279.122 355.999ZM123.159 363.999C123.159 365.374 123.386 365.937 123.663 365.249C123.941 364.562 123.941 363.437 123.663 362.749C123.386 362.062 123.159 362.624 123.159 363.999ZM262.501 363.764C261.951 364.168 260.84 365.399 260.031 366.499C258.946 367.976 259.273 367.865 261.281 366.075C263.729 363.893 264.474 362.97 263.751 363.014C263.614 363.023 263.051 363.36 262.501 363.764ZM269.815 367.218C268.337 368.748 267.471 369.999 267.89 369.999C268.839 369.999 273.498 365.113 272.922 364.722C272.69 364.565 271.292 365.688 269.815 367.218ZM114.08 366.582C114.128 367.747 114.365 367.984 114.684 367.187C114.973 366.465 114.937 365.602 114.605 365.27C114.273 364.938 114.037 365.528 114.08 366.582ZM283.087 368.499C283.191 370.393 284.857 373.583 284.915 371.999C284.946 371.174 284.534 369.824 284.001 368.999C283.468 368.174 283.056 367.949 283.087 368.499ZM228.278 371.024C228.546 371.863 231.247 376.007 234.278 380.233C237.31 384.459 242.623 392.67 246.084 398.481C249.545 404.291 255.182 412.522 258.611 416.772C265.78 425.659 292.785 452.548 293.661 451.672C294.332 451.001 283.183 437.999 281.937 437.999C280.064 437.999 258.031 412.742 252.679 404.46C238.609 382.687 234.885 377.256 231.449 373.499C229.437 371.299 228.01 370.185 228.278 371.024ZM260.251 371.988C258.463 373.078 257.001 374.505 257.001 375.159C257.001 375.826 257.988 375.453 259.251 374.31C260.489 373.189 262.401 371.774 263.501 371.166C264.601 370.558 265.051 370.048 264.501 370.033C263.951 370.018 262.039 370.898 260.251 371.988ZM288.08 374.582C288.128 375.747 288.365 375.984 288.684 375.187C288.973 374.465 288.937 373.602 288.605 373.27C288.273 372.938 288.037 373.528 288.08 374.582ZM95.624 377.54C94.779 379.74 95.691 380.999 98.13 380.999C99.64 380.999 100.061 380.442 99.821 378.759C99.438 376.077 96.511 375.227 95.624 377.54ZM371.861 382.249C371.471 394.113 371.568 398.225 372.251 398.65C372.664 398.907 373.001 394.365 373.001 388.558C373.001 382.751 372.776 377.999 372.501 377.999C372.226 377.999 371.938 379.912 371.861 382.249ZM379.171 379.749C377.935 382.152 378.78 383.999 381.116 383.999C383.562 383.999 384.621 381.451 382.99 379.486C381.369 377.533 380.272 377.608 379.171 379.749ZM219.001 382.811C219.001 383.251 220.171 385.16 221.602 387.055C223.032 388.949 226.581 394.099 229.487 398.499C235.268 407.249 240.244 412.999 242.038 412.999C242.67 412.999 241.418 410.862 239.255 408.249C237.093 405.636 232.818 399.674 229.756 394.999C224.689 387.264 219.001 380.818 219.001 382.811ZM153.08 394.582C153.128 395.747 153.365 395.984 153.684 395.187C153.973 394.465 153.937 393.602 153.605 393.27C153.273 392.938 153.037 393.528 153.08 394.582ZM371.936 400.249C371.42 402.217 371.707 421.999 372.251 421.999C372.664 421.999 373.001 417.049 373.001 410.999C373.001 404.949 372.776 399.999 372.501 399.999C372.226 399.999 371.972 400.112 371.936 400.249ZM102.814 413.682C103.535 413.971 104.398 413.935 104.73 413.603C105.062 413.271 104.472 413.035 103.418 413.078C102.253 413.126 102.016 413.363 102.814 413.682ZM148.001 419.499C148.001 420.324 148.437 420.999 148.97 420.999C149.502 420.999 149.679 420.324 149.363 419.499C149.046 418.674 148.61 417.999 148.394 417.999C148.178 417.999 148.001 418.674 148.001 419.499ZM233.001 423.999C232.1 424.581 231.976 424.974 232.692 424.984C233.347 424.992 234.161 424.549 234.501 423.999C235.268 422.757 234.922 422.757 233.001 423.999ZM371.181 428.113C371.082 430.65 370.508 435.15 369.906 438.113C366.79 453.437 366.389 455.877 367.05 455.468C367.446 455.224 368.023 453.78 368.332 452.261C371.164 438.333 372.046 432.073 371.731 428.127L371.361 423.499L371.181 428.113ZM97.668 430.666C96.618 431.716 96.889 434.812 98.097 435.558C98.7 435.931 99.899 435.53 100.761 434.668C102.053 433.376 102.103 432.826 101.043 431.549C99.649 429.869 98.71 429.624 97.668 430.666ZM175.501 431.301C172.751 431.778 169.714 432.227 168.751 432.298C167.788 432.369 167.001 432.751 167.001 433.146C167.001 434.027 162.879 435.502 161.501 435.114C160.951 434.959 160.828 435.16 161.228 435.56C161.628 435.96 160.571 437.863 158.88 439.79C151.855 447.79 149.27 460.04 152.901 468.117C154.043 470.657 155.658 473.299 156.489 473.989C157.321 474.679 158.008 476.201 158.016 477.371C158.028 478.962 158.251 479.153 158.899 478.129C159.629 476.977 159.905 476.986 160.634 478.187C162.471 481.212 171.286 484.247 179.251 484.596C184.111 484.809 187.001 484.553 187.001 483.909C187.001 483.343 187.459 483.164 188.019 483.51C190.863 485.268 201.946 474.782 204.012 468.38C204.7 466.245 205.528 464.049 205.851 463.499C206.175 462.949 206.302 461.436 206.134 460.137C205.918 458.465 206.191 457.998 207.069 458.541C207.891 459.049 208.056 458.898 207.559 458.092C207.145 457.424 206.595 455.441 206.335 453.688C205.619 448.846 201.992 441.873 198.323 438.284C191.864 431.965 184.557 429.729 175.501 431.301ZM377.363 431.499C376.404 433.997 377.689 435.893 379.94 435.305C382.368 434.67 382.694 431.479 380.419 430.606C378.202 429.755 378.01 429.811 377.363 431.499ZM169.129 434.706C163.534 437.462 156.68 444.988 154.746 450.499C151.358 460.151 153.265 468.153 160.632 475.2C165.159 479.531 169.735 481.63 176.65 482.547C181.26 483.158 181.762 483.013 183.337 480.609C190.808 469.206 188.535 442.284 179.5 435.177C176.203 432.584 173.67 432.469 169.129 434.706ZM243.576 435.128C242.517 436.157 242.125 436.999 242.704 436.999C243.858 436.999 246.524 434.161 245.894 433.604C245.678 433.413 244.635 434.099 243.576 435.128ZM183.931 436.637C186.22 439.547 189.856 450.296 190.626 456.426C190.897 458.587 191.182 460.612 191.259 460.926C191.626 462.435 189.712 471.319 188.027 475.929L186.14 481.09L188.321 480.428C192.202 479.251 196.737 475.161 199.58 470.274C203.463 463.599 203.657 453.206 200.024 446.547C198.046 442.921 197.141 442.121 195.524 442.569C194.103 442.963 193.895 442.856 194.825 442.21C195.898 441.464 195.831 440.972 194.471 439.611C192.305 437.445 185.548 433.999 183.468 433.999C182.102 433.999 182.173 434.402 183.931 436.637ZM266.278 445.208C277.916 460.674 287.405 471.999 288.726 471.999C290.553 471.999 291.025 472.659 278.359 457.499C273.304 451.449 267.721 445.149 265.952 443.499L262.735 440.499L266.278 445.208ZM365.728 457.999C360.981 472.065 358.125 477.726 348.543 492.067C340.343 504.34 338.917 508.18 346.511 497.537C356.973 482.876 367.972 461.11 366.668 457.65C366.391 456.917 366.05 457.044 365.728 457.999ZM255.46 461.066C255.097 461.652 255.015 462.347 255.277 462.609C255.539 462.871 256.02 462.391 256.346 461.542C257.022 459.78 256.446 459.47 255.46 461.066ZM309.001 464.94C309.001 465.458 309.446 466.156 309.99 466.492C310.556 466.842 310.724 466.441 310.383 465.551C309.718 463.819 309.001 463.502 309.001 464.94ZM273.636 473.582C269.593 477.136 270.779 477.454 275.007 473.949C276.929 472.356 278.051 471.055 277.501 471.058C276.951 471.06 275.212 472.196 273.636 473.582ZM298.251 471.661C295.225 472.882 297.889 483.975 301.546 485.378C303.582 486.159 307.817 486.155 310.751 485.369C312.601 484.873 312.974 484.12 312.851 481.132C312.727 478.112 312.631 477.963 312.285 480.249C311.913 482.701 311.451 482.999 308.016 482.999C302.491 482.999 301.245 482.267 299.917 478.244C298.912 475.199 298.977 474.49 300.353 473.484C302.699 471.768 301.202 470.47 298.251 471.661ZM143.159 473.999C143.159 475.374 143.386 475.937 143.663 475.249C143.941 474.562 143.941 473.437 143.663 472.749C143.386 472.062 143.159 472.624 143.159 473.999ZM108.624 481.54C107.779 483.74 108.691 484.999 111.13 484.999C112.64 484.999 113.061 484.442 112.821 482.759C112.438 480.077 109.511 479.227 108.624 481.54ZM282.251 482.583C280.463 483.991 279.001 485.601 279.001 486.16C279.001 486.719 280.386 486.012 282.078 484.588C283.77 483.164 285.57 481.999 286.078 481.999C286.586 481.999 287.001 481.549 287.001 480.999C287.001 479.412 285.741 479.832 282.251 482.583ZM316.001 482.381C316.001 483.756 315.551 485.159 315.001 485.499C314.451 485.839 314.001 486.835 314.001 487.713C314.001 489.103 314.259 489.075 316.001 487.499C318.111 485.589 318.69 481.543 317.001 480.499C316.436 480.15 316.001 480.969 316.001 482.381ZM361.365 484.492C361.019 485.395 361.215 486.613 361.801 487.199C363.325 488.723 366.211 487.33 365.813 485.264C365.37 482.962 362.166 482.406 361.365 484.492ZM289.873 488.749C288.63 490.335 288.665 490.37 290.251 489.127C291.213 488.372 292.001 487.584 292.001 487.377C292.001 486.554 291.18 487.083 289.873 488.749ZM148.46 489.066C148.097 489.652 148.015 490.347 148.277 490.609C148.539 490.871 149.02 490.391 149.346 489.542C150.022 487.78 149.446 487.47 148.46 489.066ZM255.46 490.066C255.097 490.652 255.015 491.347 255.277 491.609C255.539 491.871 256.02 491.391 256.346 490.542C257.022 488.78 256.446 488.47 255.46 490.066ZM294.58 491.262C294.935 492.231 294.612 493.806 293.863 494.762C292.618 496.349 292.658 496.375 294.327 495.063C295.893 493.832 296.277 493.828 297.023 495.034C297.501 495.808 298.101 496.229 298.357 495.97C298.613 495.711 297.722 494.149 296.379 492.499C295.035 490.849 294.226 490.292 294.58 491.262ZM307.001 494.452C307.001 496.002 317.017 510.073 324.612 519.194C328.594 523.977 333.636 530.502 335.815 533.694C340.726 540.887 345.001 545.093 345.001 542.732C345.001 541.844 344.513 540.815 343.916 540.446C342.933 539.839 331.053 524.369 317.201 505.658C311.46 497.904 307.001 493.005 307.001 494.452ZM238.016 501.321C238.005 502.625 237.362 503.06 235.751 502.854C231.83 502.353 219.651 513.764 218.496 519.021C217.956 521.48 217.552 521.93 216.827 520.882C216.113 519.85 216 520.007 216.383 521.499C216.666 522.599 217.033 527.167 217.199 531.65C217.365 536.132 217.839 539.593 218.251 539.341C218.663 539.088 219.001 539.368 219.001 539.962C219.001 541.921 227.332 550.127 231.456 552.231C235.338 554.212 253.408 556.466 252.406 554.845C252.176 554.473 253.945 553.422 256.336 552.509C260.844 550.787 264.121 548.204 267.911 543.387C269.554 541.298 270.327 540.909 270.922 541.871C271.545 542.879 271.862 542.803 272.35 541.531C272.717 540.575 272.567 540.149 271.99 540.506C270.83 541.223 270.818 539.344 271.936 532.523C272.704 527.841 270.86 516.424 269.105 514.999C268.767 514.724 267.311 512.924 265.871 510.999C261.897 505.688 253.087 501.666 245.586 501.738C242.034 501.773 239.195 501.319 238.766 500.648C238.301 499.92 238.026 500.166 238.016 501.321ZM236.995 504.933C221.857 509.538 214.578 526.303 221.752 540.037C229.698 555.247 249.663 557.334 263.929 544.445C269.256 539.632 270.343 536.45 269.804 527.234C269.163 516.255 265.264 510.286 255.983 506.076C251.35 503.974 241.997 503.412 236.995 504.933ZM217.814 510.682C218.535 510.971 219.398 510.935 219.73 510.603C220.062 510.271 219.472 510.035 218.418 510.078C217.253 510.126 217.016 510.363 217.814 510.682ZM289.001 512.94C289.001 513.458 289.446 514.156 289.99 514.492C290.556 514.842 290.724 514.441 290.383 513.551C289.718 511.819 289.001 511.502 289.001 512.94ZM158.08 516.582C158.128 517.747 158.365 517.984 158.684 517.187C158.973 516.465 158.937 515.602 158.605 515.27C158.273 514.938 158.037 515.528 158.08 516.582ZM130.557 518.909C129.604 520.45 131.118 522.999 132.986 522.999C135.15 522.999 137.412 520.473 136.528 519.043C135.735 517.759 131.328 517.66 130.557 518.909ZM215.08 528.582C215.128 529.747 215.365 529.984 215.684 529.187C215.973 528.465 215.937 527.602 215.605 527.27C215.273 526.938 215.037 527.528 215.08 528.582ZM221.08 528.582C221.128 529.747 221.365 529.984 221.684 529.187C221.973 528.465 221.937 527.602 221.605 527.27C221.273 526.938 221.037 527.528 221.08 528.582ZM215.501 535.999C215.841 536.549 216.317 536.999 216.56 536.999C216.803 536.999 217.001 536.549 217.001 535.999C217.001 535.449 216.524 534.999 215.942 534.999C215.36 534.999 215.161 535.449 215.501 535.999ZM162.701 548.34C161.931 550.344 163.576 552.376 165.4 551.676C167.707 550.791 167.471 546.999 165.108 546.999C164.067 546.999 162.983 547.602 162.701 548.34ZM310.442 550.095C309.385 551.805 312.719 554.681 314.127 553.273C314.754 552.646 314.996 551.428 314.665 550.566C313.973 548.763 311.44 548.48 310.442 550.095ZM255.08 555.582C255.128 556.747 255.365 556.984 255.684 556.187C255.973 555.465 255.937 554.602 255.605 554.27C255.273 553.938 255.037 554.528 255.08 555.582ZM216.08 568.582C216.128 569.747 216.365 569.984 216.684 569.187C216.973 568.465 216.937 567.602 216.605 567.27C216.273 566.938 216.037 567.528 216.08 568.582ZM202.691 573.642C202.312 574.022 202.001 575.382 202.001 576.666C202.001 579.338 204.719 579.898 205.669 577.421C206.327 575.706 203.816 572.518 202.691 573.642ZM278.001 576.499C278.001 578.664 278.405 579.081 280.251 578.819C281.728 578.609 282.501 577.812 282.501 576.499C282.501 575.186 281.728 574.389 280.251 574.179C278.405 573.917 278.001 574.334 278.001 576.499ZM224.565 583.706C224.023 585.131 224.137 585.246 225.125 584.266C225.809 583.587 226.116 582.78 225.808 582.473C225.5 582.165 224.941 582.72 224.565 583.706ZM226.512 586.622C225.567 588.065 225.288 588.94 225.892 588.566C227.046 587.853 229.375 583.999 228.651 583.999C228.42 583.999 227.458 585.179 226.512 586.622ZM243.123 596.277C241.768 597.632 241.664 599.673 242.911 600.443C244.457 601.399 247.001 599.879 247.001 597.999C247.001 595.801 244.645 594.755 243.123 596.277ZM200.766 649.438C199.261 650.223 195.508 652.92 192.424 655.432C188.473 658.651 185.909 659.999 183.74 659.999C180.218 659.999 174.612 662.994 159.551 672.92C153.707 676.771 147.472 680.195 145.693 680.529C142.951 681.043 120.17 678.418 119.161 677.471C118.973 677.295 117.004 677.792 114.785 678.575C112.565 679.358 108.387 679.999 105.5 679.999C99.322 679.999 94.001 680.933 94.001 682.019C94.001 682.442 95.661 682.414 97.69 681.956C99.719 681.499 102.594 681.368 104.08 681.665C105.565 681.962 109.366 681.454 112.525 680.535C118.48 678.804 119.481 678.863 137.802 682.035C144.989 683.279 149.227 681.552 165.662 670.686C175.584 664.125 179.619 661.998 182.15 661.994C185.79 661.988 188.017 660.74 195.979 654.244C204.958 646.918 207.393 647.437 216.014 658.515C221.683 665.801 227.574 668.259 239.057 668.128C244.863 668.062 247.41 668.499 250.057 670.016C251.951 671.102 260.026 675.397 268.001 679.56C275.976 683.723 284.976 688.554 288.001 690.295C295.528 694.627 301.864 694.468 315.827 689.6C321.506 687.619 326.849 685.999 327.701 685.999C328.552 685.999 332.845 687.799 337.241 689.999C347.097 694.932 352.092 695.22 360.56 691.343C367.178 688.313 373.914 687.949 377.3 690.438C384.42 695.671 388.751 697.994 393.149 698.937C399.383 700.274 405.695 700.304 406.501 698.999C406.886 698.376 404.927 697.997 401.31 697.993C393.342 697.986 389.215 696.658 381.825 691.723C376.497 688.164 374.713 687.499 370.501 687.499C367.556 687.499 363.423 688.401 360.446 689.693C352.21 693.267 347.547 692.99 337.868 688.349C329.605 684.386 329.433 684.351 324.001 685.542C320.976 686.205 315.902 687.712 312.724 688.891C309.547 690.07 304.372 691.292 301.224 691.606C296.188 692.108 294.841 691.824 290.001 689.231C286.976 687.611 276.176 681.874 266.001 676.482L247.501 666.679L239.001 666.489C227.125 666.225 221.468 663.917 217.371 657.666C213.831 652.264 208.612 647.996 205.557 648.005C204.426 648.009 202.27 648.653 200.766 649.438ZM88.501 683.55L85.501 685.01L88.501 684.434C90.151 684.117 91.928 683.439 92.451 682.928C93.856 681.554 92.001 681.846 88.501 683.55ZM71.001 689.245C66.326 690.866 58.901 692.845 54.501 693.642C48.382 694.75 45.074 696.02 40.431 699.045C35.523 702.242 33.418 703.012 29.431 703.067C25.138 703.126 24.793 703.275 26.758 704.223C29.822 705.7 36.039 703.812 42.501 699.443C46.354 696.837 49.516 695.714 56.285 694.547C61.117 693.714 65.842 692.635 66.785 692.148C67.729 691.661 70.841 690.714 73.701 690.043C76.562 689.372 79.429 688.188 80.074 687.411C81.555 685.626 81.263 685.685 71.001 689.245ZM411.501 697.999C411.841 698.549 413.115 698.999 414.332 698.999C415.549 698.999 418.216 700.376 420.258 702.059C424.99 705.959 428.677 706.518 438.019 704.75C444.902 703.447 446.084 703.482 452.019 705.159C461.637 707.877 463.799 707.284 454.501 704.478C446.663 702.112 446.341 702.095 438.605 703.627C429.012 705.526 426.27 705.06 420.32 700.517C416.132 697.319 409.998 695.568 411.501 697.999ZM12.814 704.682C13.535 704.971 14.398 704.935 14.73 704.603C15.062 704.271 14.472 704.035 13.418 704.078C12.253 704.126 12.016 704.363 12.814 704.682ZM100.428 764.918C101.829 766.466 102.101 768.303 101.833 774.42C101.515 781.693 101.592 782.004 103.726 782.001C105.608 781.999 105.874 781.575 105.449 779.249C105.173 777.736 105.418 775.824 105.994 774.999C106.892 773.713 107.325 773.836 109.021 775.86C110.11 777.158 111.001 779.071 111.001 780.11C111.001 781.541 111.726 781.999 113.992 781.999H116.983L113.992 777.138C110.177 770.939 110.226 768.754 114.251 765.583L117.501 763.021L113.243 763.01C109.264 763 109.064 763.128 110.207 764.957C111.243 766.615 111.069 767.298 109.07 769.426C107.772 770.807 106.326 771.7 105.856 771.409C104.672 770.677 104.78 766.253 106.001 765.499C108.209 764.135 106.775 762.999 102.846 762.999C98.813 762.999 98.742 763.055 100.428 764.918ZM121.001 763.758C121.001 764.176 121.901 765.08 123.001 765.767C124.632 766.785 125.001 768.099 125.001 772.886C125.001 777.841 124.651 779 122.751 780.325C120.556 781.856 120.607 781.895 124.873 781.947C128.435 781.989 129.038 781.749 128.125 780.648C127.508 779.905 126.717 777.205 126.366 774.648C125.452 767.974 127.665 768.534 132.549 776.212L136.501 782.425L136.797 774.49C137.004 768.931 137.575 766.022 138.702 764.777C140.218 763.102 140.086 763.001 136.406 763.031C132.945 763.059 132.7 763.214 134.251 764.391C135.499 765.339 136 767.121 135.996 770.609L135.991 775.499L133.557 772.499C132.219 770.849 130.534 768.374 129.814 766.999C129.094 765.624 128.053 764.168 127.503 763.764C126.178 762.793 121.001 762.788 121.001 763.758ZM144.497 764.571C146.156 765.824 146.493 767.257 146.497 773.073C146.5 778.206 146.102 780.321 145.001 781.018C143.899 781.716 144.506 781.972 147.286 781.984C150.686 781.997 150.969 781.807 150.063 780.115C148.905 777.951 149.832 764.999 151.146 764.999C151.616 764.999 152.001 764.549 152.001 763.999C152.001 763.449 149.864 763.013 147.251 763.031C142.799 763.061 142.626 763.157 144.497 764.571ZM156.675 765.975C153.256 770.037 152.401 774.434 154.427 777.526C157.172 781.716 160.456 783.267 164.968 782.505C168.758 781.864 169.001 781.617 169.001 778.411C169.001 776.534 169.451 774.999 170.001 774.999C170.551 774.999 171.001 774.519 171.001 773.933C171.001 773.346 169.763 773.009 168.251 773.183C165.885 773.455 165.547 773.89 165.83 776.302C166.451 781.604 161.247 784.177 158.857 779.749C157.035 776.373 157.436 768.281 159.541 765.955C161.895 763.354 163.455 763.489 165.822 766.499C168.277 769.619 169.001 769.648 169.001 766.624C169.001 764.764 168.323 764.113 165.876 763.624C160.571 762.563 159.265 762.897 156.675 765.975ZM174.458 765.241C175.412 766.603 176.001 769.627 176.001 773.165C176.001 777.82 175.615 779.156 173.928 780.338C171.388 782.117 172.793 783.191 176.65 782.419C179.343 781.881 179.484 781.599 179.152 777.424C178.901 774.278 179.176 772.999 180.1 772.999C181.112 772.999 181.134 772.732 180.201 771.799C178.752 770.35 178.594 764.999 180.001 764.999C180.551 764.999 180.999 764.662 180.996 764.249C180.993 763.836 179.174 763.395 176.953 763.269C172.978 763.042 172.939 763.072 174.458 765.241ZM185.001 763.434C185.001 763.673 185.39 764.911 185.866 766.184C186.342 767.457 186.409 769.399 186.015 770.499C185.621 771.599 185.748 773.221 186.298 774.102C186.974 775.184 186.942 776.729 186.202 778.852C185.131 781.923 185.177 781.999 188.088 781.999C190.805 781.999 190.971 781.812 189.952 779.907C188.767 777.693 189.075 767.701 190.418 764.749C191.084 763.287 190.704 762.999 188.108 762.999C186.399 762.999 185.001 763.195 185.001 763.434ZM194.508 763.826C194.229 764.104 194.011 765.495 194.023 766.916L194.045 769.499L195.886 767.105C198.302 763.963 199.617 764.951 200.454 770.536C201.3 776.176 200.336 780.999 198.363 780.999C197.549 780.999 197.095 781.343 197.355 781.763C197.615 782.183 200.004 782.328 202.664 782.086C205.324 781.843 206.714 781.466 205.751 781.248C204.461 780.956 204.001 779.854 204.001 777.051C204.001 774.96 203.764 771.955 203.474 770.374C203.184 768.793 203.412 766.824 203.981 765.999C204.862 764.722 205.303 764.87 206.946 766.992C208.664 769.211 208.951 769.294 209.546 767.742C210.98 764.006 209.456 763.082 202.056 763.203C198.183 763.267 194.786 763.547 194.508 763.826ZM226.3 765.249C222.561 769.355 221.836 771.671 222.971 775.887C223.935 779.467 226.482 782.852 227.469 781.864C227.7 781.634 227.455 779.514 226.925 777.154C225.659 771.522 227.277 765.23 230.303 764.011C232.44 763.15 232.444 763.124 230.425 763.062C229.284 763.028 227.427 764.012 226.3 765.249ZM241.001 763.999C241.001 764.549 241.628 764.999 242.394 764.999C244.323 764.999 244.649 766.547 244.213 773.633C243.899 778.728 243.468 779.945 241.668 780.816C239.885 781.678 240.549 781.876 245.406 781.931C251.065 781.996 251.242 781.923 249.656 780.17C247.651 777.954 247.438 772.999 249.348 772.999C250.089 772.999 251.184 774.012 251.781 775.249C252.742 777.243 252.873 776.998 252.933 773.094C253 768.767 252.966 768.721 251.022 770.48C249.197 772.131 248.993 772.141 248.403 770.604C248.051 769.687 248.031 767.601 248.357 765.968C248.936 763.074 248.85 762.999 244.976 762.999C242.79 762.999 241.001 763.449 241.001 763.999ZM253.001 763.707C253.001 764.601 256.628 767.999 257.582 767.999C257.889 767.999 257.996 766.986 257.821 765.749C257.615 764.303 256.697 763.385 255.251 763.179C254.013 763.004 253.001 763.241 253.001 763.707ZM270.753 763.58C270.433 763.9 271.258 765.763 272.586 767.72C273.914 769.677 275.001 772.06 275.001 773.016C275.001 773.973 275.733 776.497 276.628 778.627C278.366 782.764 278.736 782.488 280.343 775.862C280.855 773.751 280.635 773.252 279.242 773.362C277.825 773.473 277.501 772.662 277.501 768.999C277.501 766.524 277.051 764.168 276.501 763.764C275.302 762.884 271.569 762.764 270.753 763.58ZM280.209 763.675C279.386 764.006 279.249 764.611 279.832 765.346C280.334 765.98 281.769 769.986 283.019 774.249C284.269 778.512 285.656 781.999 286.1 781.999C286.544 781.999 287.376 780.312 287.948 778.249C289.307 773.357 289.274 772.957 287.562 773.614C286.536 774.008 285.93 773.14 285.452 770.59C285.083 768.623 285.042 766.336 285.36 765.507C285.678 764.677 285.539 763.999 285.051 763.999C284.564 763.999 283.565 763.81 282.833 763.578C282.1 763.347 280.92 763.391 280.209 763.675ZM288.144 763.889C287.198 764.489 287.123 764.956 287.894 765.433C288.503 765.809 289.015 767.328 289.031 768.808C289.06 771.312 289.138 771.36 290.156 769.499C290.757 768.399 291.914 766.966 292.725 766.316C295.625 763.99 291.463 761.786 288.144 763.889ZM300.684 763.703C300.385 764.186 298.969 767.694 297.537 771.499C296.105 775.303 294.204 779.222 293.312 780.207C291.781 781.899 291.901 781.999 295.468 781.999C298.698 781.999 299.067 781.783 298.012 780.512C296.226 778.36 297.528 775.999 300.501 775.999C303.782 775.999 304.977 778.813 302.472 780.644C300.837 781.84 301.317 781.997 306.56 781.984C311.955 781.971 312.275 781.855 310.041 780.725C308.193 779.79 306.998 777.617 305.237 771.989C302.84 764.327 301.644 762.15 300.684 763.703ZM314.001 763.999C314.001 764.549 314.649 764.999 315.442 764.999C317.422 764.999 318.073 766.322 318.525 771.264C319.015 776.607 318.186 779.999 316.393 779.999C315.627 779.999 315.001 780.449 315.001 780.999C315.001 781.549 316.871 781.999 319.156 781.999C323.118 781.999 323.234 781.914 321.656 780.17C319.831 778.154 319.332 769.999 321.033 769.999C321.6 769.999 323.738 772.679 325.783 775.954C327.828 779.229 329.856 781.929 330.289 781.954C330.722 781.979 330.998 778.596 330.901 774.437C330.796 769.888 331.179 766.421 331.863 765.737C333.746 763.854 333.165 762.999 330.001 762.999C328.351 762.999 327.001 763.449 327.001 763.999C327.001 764.549 327.451 764.999 328.001 764.999C328.551 764.999 328.997 767.361 328.992 770.249L328.983 775.499L324.863 769.249C321.161 763.633 320.4 762.999 317.372 762.999C315.518 762.999 314.001 763.449 314.001 763.999ZM338.435 764.926C339.811 766.446 340.097 768.185 339.791 773.176C339.579 776.653 339.201 780.147 338.953 780.94C338.45 782.543 341.235 783.507 343.672 782.572C344.881 782.108 344.968 781.664 344.066 780.577C343.362 779.728 343.023 776.491 343.203 772.339C343.497 765.586 343.539 765.495 346.452 765.163C348.415 764.94 349.837 765.422 350.702 766.604C352.543 769.122 352.333 777.08 350.351 779.91C349.08 781.724 349.023 782.16 350.101 781.805C350.871 781.552 352.546 779.805 353.823 777.922C356.414 774.104 356.241 770.552 353.268 766.53C351.138 763.648 349.177 763.031 342.096 763.013C336.823 762.999 336.733 763.046 338.435 764.926ZM360.572 764.57C358.691 766.452 358.505 770.56 360.251 771.69C360.939 772.135 363.027 772.95 364.893 773.501C369.167 774.763 370.898 777.213 369.071 779.415C368.348 780.286 366.981 780.999 366.034 780.999C364.127 780.999 361.001 778 361.001 776.17C361.001 775.526 360.551 774.999 360.001 774.999C359.451 774.999 359.001 776.622 359.001 778.606C359.001 781.475 359.323 782.09 360.573 781.61C361.438 781.278 363.013 781.47 364.073 782.038C368.538 784.427 373.43 777.829 370.505 773.364C369.652 772.063 368.178 770.989 367.228 770.977C364.74 770.945 360.584 767.483 361.416 766.136C362.602 764.217 366.793 764.865 368.444 767.222L370.001 769.444V766.847C370.001 764.737 369.414 764.132 366.876 763.624C362.564 762.762 362.349 762.794 360.572 764.57ZM234.69 766.499C235.136 768.149 235.501 772.087 235.501 775.249C235.501 778.412 235.784 781 236.13 780.999C237.272 780.999 239.303 774.915 239.213 771.764C239.158 769.831 238.14 767.698 236.502 766.084L233.878 763.499L234.69 766.499ZM299.683 769.651C298.413 770.921 298.992 773.999 300.501 773.999C301.326 773.999 301.994 773.437 301.986 772.749C301.963 770.887 300.464 768.87 299.683 769.651ZM468.001 786.999V793.999L459.751 794.2L451.501 794.401L459.406 794.745C463.754 794.934 467.668 794.731 468.104 794.294C469.489 792.905 470.423 779.999 469.139 779.999C468.397 779.999 468.001 782.433 468.001 786.999ZM0.195957 788.499C0.215957 790.149 0.439957 790.703 0.693957 789.73C0.947957 788.757 0.930957 787.407 0.656957 786.73C0.382957 786.053 0.175957 786.849 0.195957 788.499ZM32.001 793.947C68.29 794.799 452.155 794.898 446.501 794.053C443.751 793.642 344.076 793.326 225.001 793.351C105.926 793.375 19.076 793.643 32.001 793.947Z" fill="black"/>
</svg>
