<svg width="472" height="793" viewBox="0 0 472 793" fill="none" xmlns="http://www.w3.org/2000/svg">
<path fill-rule="evenodd" clip-rule="evenodd" d="M332.854 0.445369C332.66 0.620369 258.476 1.06937 168.001 1.44437C77.5257 1.81937 2.71373 2.35337 1.75073 2.63037C0.0877342 3.11037 0.00373427 22.7813 0.0637343 398.317C0.0987343 615.668 0.493734 792.597 0.941734 791.494C1.38973 790.391 1.77173 781.616 1.79173 771.994C1.81273 762.372 1.86773 753.421 1.91473 752.102L2.00073 749.703L104.251 750.359C160.489 750.72 231.251 751.25 261.501 751.536C291.751 751.822 349.351 752.259 389.501 752.508C429.651 752.756 463.71 752.969 465.189 752.98L467.876 753L467.956 772.685C468.001 783.511 468.224 792.556 468.452 792.785C468.681 793.013 469.348 792.904 469.934 792.541C471.608 791.507 471.425 2.38937 469.751 1.32037C468.603 0.586369 333.655 -0.275631 332.854 0.445369ZM0.484734 398C0.485734 615.525 0.718734 744 1.00073 683.5C1.28273 623 1.62373 576.542 1.75773 580.259L2.00073 587.018L10.6347 593.403C20.8347 600.945 34.0977 608.132 44.0857 611.529L51.2627 613.97L61.7737 605.235C67.5547 600.431 75.1387 594.115 78.6277 591.2C84.6797 586.143 91.9037 577.134 95.3527 570.344C97.2477 566.612 102.213 549.878 101.605 549.271C101.374 549.039 99.4357 550.007 97.2997 551.421C93.2087 554.128 78.2187 558.426 75.2457 557.745C74.2347 557.513 75.3937 556.861 78.0007 556.196C93.7857 552.168 100.232 548.752 109.335 539.589C113.617 535.279 115.598 531.918 120.915 519.945C129.423 500.785 131.001 495.487 131.001 486.087C131.001 470.734 135.198 448.365 140.492 435.497C148.167 416.846 151.866 406.209 153.88 397C155.022 391.775 156.833 383.675 157.904 379C161.501 363.3 161.358 352.487 157.488 347.382C156.221 345.711 156.194 345.863 157.243 348.732C158.696 352.704 157.366 358.576 152.956 367.658C149.43 374.921 146.263 376.686 139.854 374.961C134.836 373.609 134.888 372.566 139.933 373.373C147.456 374.576 150.043 372.15 154.073 360.114C156.783 352.016 156.56 349.325 152.895 345.901C150.346 343.52 148.914 343 144.909 343C140.262 343 139.9 343.203 137.307 347.25C135.809 349.588 134.453 351.688 134.293 351.917C134.132 352.146 133.745 352.077 133.431 351.764C132.5 350.833 136.847 343.153 138.939 342.033C141.736 340.537 148.049 340.777 151.365 342.506C155.843 344.841 155.927 344.2 151.501 341.474C145.139 337.556 139.697 338.264 133.781 343.781C131.319 346.076 130.996 346.15 130.386 344.56C129.856 343.18 129.407 343.629 128.293 346.651C127.513 348.768 126.735 351.4 126.565 352.5C126.096 355.536 126.036 355.603 125.097 354.122C124.59 353.321 123.695 353.071 122.961 353.525C121.994 354.123 122.1 354.599 123.416 355.562C125.034 356.744 125.022 357.043 123.218 360.659C121.527 364.048 114.327 385.379 106.677 409.658C101.902 424.814 96.6927 434.298 88.3387 443.042C79.0347 452.78 76.3317 453.693 85.1567 444.116C88.6457 440.33 92.3137 435.83 93.3077 434.116L95.1137 431L92.3077 430.868C89.7857 430.75 89.8557 430.674 92.9897 430.118C97.5547 429.309 98.0397 426.698 94.3427 422.821C92.1827 420.556 80.0807 410.366 77.0837 408.289C76.8547 408.13 76.8797 407.788 77.1397 407.528C77.8417 406.826 86.7317 413.201 93.0007 418.902C99.3277 424.655 100.673 423.685 96.5627 416.332C93.1447 410.217 94.0907 409.495 97.8177 415.373L100.738 419.977L102.326 415.738C103.199 413.407 104.779 408.35 105.836 404.5C106.893 400.65 108.788 394.565 110.047 390.978L112.335 384.456L109.595 379C108.088 375.999 104.759 371.092 102.198 368.094C99.6367 365.096 98.2797 363.061 99.1807 363.572C100.761 364.466 108.906 374.211 112.121 379.054C113.647 381.352 113.752 381.191 116.747 371.953C119.16 364.509 119.956 359.898 120.493 350.259C121.125 338.926 121.021 337.768 119.088 334.641C116.247 330.045 116.464 328.832 119.47 332.5L121.929 335.5L121.961 330C121.983 326.232 121.369 323.477 120.012 321.25C117.768 317.57 115.526 317.183 110.442 319.595C106.554 321.44 105.144 322.936 85.7027 345.841C83.2097 348.779 78.2297 355.529 74.6357 360.841C71.0407 366.153 64.7797 374.431 60.7217 379.235C50.5527 391.273 45.3137 402.196 38.2947 426C35.5067 435.454 30.5527 457.074 29.4477 464.614C29.0537 467.301 27.0367 475.35 24.9647 482.5C22.8937 489.65 20.1987 499.325 18.9757 504C16.3957 513.86 12.5547 522.03 6.49073 530.55L2.18473 536.601L2.07673 554.483C2.01773 564.318 1.75173 572.582 1.48473 572.849C1.21873 573.115 1.09273 477.971 1.20473 361.417C1.31573 244.862 1.56073 153.273 1.74673 157.884L2.08573 166.269L4.29373 164.273C7.04273 161.787 12.2357 160 16.7087 160C21.7077 160 19.8157 161.7 13.9137 162.512C10.3507 163.002 7.80873 164.108 5.41573 166.209L2.00073 169.207V181.987V194.767L5.95573 198.34C10.5617 202.502 15.7567 205.319 21.8497 206.959C25.6397 207.98 26.3457 207.911 27.4417 206.411C28.5397 204.91 28.7817 205.226 29.3747 208.94C32.3607 227.612 56.2187 241.626 76.2047 236.447C83.7627 234.489 85.7787 233.475 93.6837 227.654L99.8677 223.102L95.9337 219.169C90.4477 213.682 90.9907 211.814 96.5757 216.962C103.057 222.936 110.785 226.222 119.696 226.794C126.847 227.253 127.002 227.213 127.043 224.882C127.231 214.085 126.703 180.77 125.934 155L125.8 150.5L124.899 154.333C124.403 156.442 123.268 159.142 122.376 160.333C120.894 162.314 120.814 162.328 121.448 160.5C121.829 159.4 122.339 157.15 122.581 155.5L123.021 152.5L121.863 155.5C116.347 169.787 101.153 176.93 91.6677 169.695C87.8677 166.797 85.7677 161.731 86.7257 157.774C87.3487 155.202 90.8367 151 92.3497 151C92.8997 151 92.4297 152.012 91.3067 153.25C84.8327 160.379 89.7337 170 99.8397 170C105.102 170 107.973 168.841 112.449 164.912C117.672 160.325 120.317 154.644 120.321 148C120.326 139.882 115.663 132.7 108.674 130.059C104.262 128.392 93.0767 128.625 87.5007 130.501C72.4437 135.565 63.8467 145.61 62.3557 159.88C61.9787 163.483 61.3207 165.698 60.7327 165.335C58.7567 164.113 60.8727 152.989 64.3167 146.504L67.6377 140.25L62.4227 137.131C50.8597 130.215 31.7997 128.386 18.3437 132.902C9.24373 135.956 2.10873 141.733 1.76073 146.328C1.62873 148.073 1.28673 116.425 1.00073 76.0004C0.714734 35.5754 0.482734 180.475 0.484734 398ZM376.767 3.51437C376.549 3.68737 60.3857 4.98437 15.2927 4.99637L2.08473 5.00037L2.10373 71.5004C2.11373 108.075 2.43273 137.998 2.81173 137.996C3.19073 137.993 5.45073 136.697 7.83473 135.116C10.2187 133.534 15.7097 131.174 20.0377 129.87L27.9067 127.5L28.5597 123.5C30.5327 111.429 37.5237 97.7634 46.1267 89.1604C58.6587 76.6284 73.8157 72.5024 92.3037 76.5924C98.8717 78.0454 111.926 84.4514 113.496 86.9924C113.823 87.5214 116.81 86.0984 120.134 83.8294C128.087 78.4004 132.035 77.0974 140.684 77.0444C146.797 77.0074 147.955 76.7224 148.459 75.1324C148.785 74.1044 149.936 72.4634 151.017 71.4854C152.97 69.7184 152.97 69.6864 151.022 66.5344C148.356 62.2204 147.456 53.4804 148.996 46.8564C150.242 41.4934 155.478 31.0004 156.908 31.0004C158.869 31.0004 158.533 32.5354 155.453 37.6494C150.556 45.7814 149.572 58.4874 153.29 65.5824L154.608 68.0974L157.208 66.0524C161.807 62.4344 172.232 58.0744 177.946 57.3794L183.501 56.7034L187.832 47.7944C192.729 37.7224 200.666 28.7424 207.962 25.0204L212.417 22.7474L207.604 20.3014C204.957 18.9564 200.046 17.4134 196.691 16.8734C186.066 15.1624 171.909 19.7024 163.795 27.4254C160.687 30.3824 160.001 30.5824 160.001 28.5324C160.001 26.5384 169.261 19.8514 176.001 16.9774C180.077 15.2394 183.96 14.5254 191.001 14.2184C200.361 13.8094 200.602 13.8574 207.368 17.4564L214.234 21.1084L220.868 19.3864C229.8 17.0684 247.349 17.0174 255.786 19.2864C259.243 20.2164 265.768 22.7424 270.286 24.8994C279.545 29.3204 288.752 37.6274 295.456 47.6114C297.631 50.8504 299.568 53.7124 299.761 53.9724C299.954 54.2314 302.224 53.2654 304.806 51.8234C312.374 47.5994 323.495 44.7134 332.634 44.6004L340.767 44.5004L342.935 40.4164C346.219 34.2304 353.62 27.3134 360.668 23.8434C366.755 20.8474 367.347 20.7514 376.744 21.2504C392.47 22.0844 401.284 26.5614 408.448 37.3544C412.914 44.0824 414.995 52.1504 414.622 61.2964L414.329 68.5004L419.115 73.7764C426.638 82.0694 429.993 89.8704 430.695 100.705L431.281 109.748L436.725 112.004C451.733 118.225 464.315 139.163 462.412 154.75C462.003 158.097 462.144 160 462.799 160C463.365 160 465.217 161.889 466.914 164.197L470.001 168.394V85.6354V2.87737L423.517 3.08937C397.95 3.20637 376.913 3.39737 376.767 3.51437ZM219.946 21.8854C206.075 26.3244 197.394 33.9074 190.072 47.9804C187.734 52.4754 185.973 56.2834 186.161 56.4424C186.348 56.6004 188.751 57.4824 191.501 58.4014C194.251 59.3204 197.626 60.7624 199.001 61.6054C200.681 62.6364 200.845 62.9154 199.501 62.4574C184.666 57.4044 175.728 58.0054 162.986 64.9114C153.349 70.1344 148.063 77.3794 145.849 88.4014C143.27 101.243 151.108 116.675 162.66 121.502C167.329 123.453 167.182 123.513 166.976 119.75C166.636 113.532 167.007 110 168.001 110C168.551 110 169.001 112.168 169.001 114.818C169.001 125.582 174.493 134.762 183.701 139.391C188.282 141.694 188.913 141.512 194.121 136.382C196.7 133.842 199.303 132.068 199.905 132.441C200.508 132.813 201.008 135.004 201.016 137.309C201.025 139.614 201.424 142.12 201.905 142.878C203.085 144.741 204.997 143.397 205.016 140.691C205.025 139.486 205.468 137.825 206.001 137C206.666 135.972 206.975 138.405 206.986 144.739C207.016 163.1 214.27 173.71 231.22 180.186C241.221 184.007 254.56 183.718 264.753 179.459L268.171 178.031L266.072 175.363C263.344 171.895 264.295 170.988 267.501 174C270.792 177.092 271.564 176.08 269.12 171.876C268.04 170.019 266.405 166.168 265.486 163.319C263.952 158.559 263.941 157.46 265.361 149.819C266.211 145.243 267.18 139.363 267.515 136.75C267.85 134.137 268.608 132 269.2 132C269.792 132 273.115 134.77 276.583 138.156C285.671 147.028 287.217 151.13 288.017 168.5C288.372 176.2 289.055 183.399 289.534 184.497C290.368 186.41 290.301 186.426 287.953 184.888C283.824 182.183 272.763 178.008 274.149 179.678C275.905 181.794 284.996 186.232 288.069 186.474C289.501 186.586 291.11 186.949 291.646 187.28C293.605 188.491 307.952 189.234 313.646 188.419L319.501 187.581L314.501 186.947L309.501 186.314L313.692 186.157C318.436 185.979 320.668 184.055 316.31 183.9C313.593 183.804 313.58 183.778 315.911 183.126C318.564 182.384 318.524 182.921 319.274 138.294C319.518 123.801 320.222 121.103 323.435 122.336C324.298 122.667 325.781 124.64 326.73 126.719C327.68 128.799 329.479 131.772 330.729 133.327C331.979 134.881 333.001 136.633 333.001 137.219C333.001 137.805 334.867 141.238 337.147 144.849C339.747 148.966 341.474 153.014 341.777 155.706L342.261 159.998L346.134 156.499C351.903 151.287 352.144 152.271 346.501 158C343.587 160.958 342.194 163 343.089 163C343.92 163 345.141 162.46 345.801 161.8C346.583 161.018 347.001 160.975 347.001 161.678C347.001 162.271 345.989 163.503 344.751 164.416C343.152 165.596 342.875 166.238 343.793 166.636C344.626 166.996 344.754 167.604 344.155 168.347C343.122 169.629 342.126 178 343.007 178C344.566 178 357.322 166.331 360.51 161.987C364.216 156.938 367.592 154.894 364.616 159.5C363.728 160.875 362.227 163.196 361.282 164.659L359.563 167.317L365.532 166.73C378.64 165.438 390.065 159.553 395.811 151.134C399.896 145.148 402.409 133.974 401.632 125.25C401.074 118.976 402.356 116.583 403.607 121.565C404.27 124.208 403.547 136.932 402.398 142.835L401.749 146.169L405.625 144.187C412.765 140.536 418.489 134.535 422.211 126.797C426.921 117.004 428.209 111.134 427.867 101.004C427.625 93.8344 427.082 91.4814 424.407 86.0004C420.766 78.5384 413.126 70.1254 407.287 67.1464C402.097 64.4984 388.71 61.0004 383.768 61.0004C381.647 61.0004 377.045 61.7204 373.541 62.6004L367.17 64.2014L367.726 71.5484C368.79 85.6184 365.255 95.6424 357.34 101C354.329 103.039 352.434 103.5 347.074 103.5C339.746 103.5 335.205 101.506 331.639 96.7224C327.752 91.5074 330.169 80.7774 336.042 77.1814C339.312 75.1784 339.685 76.6744 336.532 79.1544C330.6 83.8204 329.293 92.4464 333.83 96.9834C339.043 102.196 347.901 103.352 355.031 99.7504C359.995 97.2424 363.441 92.7554 365.13 86.5994C366.801 80.5124 366.452 68.7534 364.478 64.5934C362.164 59.7174 354.934 53.3274 348.179 50.1884C343.345 47.9424 341.163 47.5544 333.501 47.5784C322.172 47.6154 310.859 50.6604 303.221 55.7294C297.392 59.5994 287.519 71.7924 283.788 79.7304C280.939 85.7904 279.583 86.1234 281.829 80.2104C283.784 75.0664 291.037 64.2374 295.552 59.7224C298.759 56.5154 298.411 55.0844 292.523 47.2824C281.202 32.2834 272.445 26.3444 255.091 21.8984C245.238 19.3744 227.814 19.3674 219.946 21.8854ZM168.947 25.9444C161.537 30.8514 155.001 37.7964 155.001 40.7634C155.001 41.8794 156.095 41.1014 158.212 38.4784C161.226 34.7444 164.354 31.7184 171.501 25.6224C175.519 22.1954 174.394 22.3374 168.947 25.9444ZM366.095 24.1594C360.275 25.8324 352.298 31.6594 347.551 37.7064C345.049 40.8934 343.002 43.9804 343.002 44.5664C343.001 45.1524 345.582 46.7024 348.736 48.0094C352.397 49.5264 356.623 52.4784 360.418 56.1684L366.363 61.9514L371.674 60.4074C379.788 58.0484 390.103 58.4424 399.461 61.4704C403.839 62.8864 408.514 64.7614 409.85 65.6374L412.279 67.2294L411.797 57.3644C411.248 46.1314 409.507 41.6754 402.848 34.4504C394.604 25.5064 377.791 20.7984 366.095 24.1594ZM368.501 26.4604L364.501 27.8954L370.501 27.2744C377.714 26.5284 379.182 26.5444 385.001 27.4374C388.524 27.9774 389.117 27.8834 387.733 27.0044C384.854 25.1754 373.018 24.8414 368.501 26.4604ZM367.943 28.9484C364.52 29.9874 360.725 32.0584 361.262 32.5944C361.499 32.8324 363.324 32.3454 365.315 31.5134C367.307 30.6814 370.976 30.0004 373.469 30.0004C375.962 30.0004 378.001 29.5504 378.001 29.0004C378.001 27.8434 371.693 27.8104 367.943 28.9484ZM167.843 35.2504C165.558 37.5874 162.408 42.3034 160.844 45.7284C156.794 54.6014 157.376 54.7774 161.993 46.0774C164.16 41.9954 167.614 36.9324 169.67 34.8274C171.725 32.7224 173.09 31.0004 172.703 31.0004C172.316 31.0004 170.129 32.9134 167.843 35.2504ZM162.213 36.3864C157.641 41.3454 155.571 44.9734 154.515 49.8754C154.004 52.2424 154.118 53.0464 154.894 52.5664C155.503 52.1904 156.001 51.2164 156.001 50.4014C156.001 48.0744 159.521 41.7634 163.429 37.0864C166.83 33.0164 167.469 32.0004 166.628 32.0004C166.423 32.0004 164.437 33.9744 162.213 36.3864ZM361.223 35.1194C358.87 36.2844 356.437 38.1854 355.817 39.3444C354.713 41.4064 354.74 41.4154 357.095 39.7284C358.418 38.7804 361.526 36.8994 364.001 35.5494C369.514 32.5414 367.166 32.1784 361.223 35.1194ZM359.418 40.6084L355.501 44.2164L359.501 41.4364C364.67 37.8444 364.412 38.0784 363.834 37.5004C363.559 37.2254 361.572 38.6244 359.418 40.6084ZM274.981 40.5244C273.049 42.8534 274.427 43.2914 276.495 41.0064C277.494 39.9034 277.846 39.0004 277.278 39.0004C276.711 39.0004 275.677 39.6864 274.981 40.5244ZM273.497 49.7234L270.714 53.5004L274.056 50.2824C275.894 48.5124 277.147 46.8124 276.839 46.5054C276.532 46.1974 275.028 47.6454 273.497 49.7234ZM161.626 50.9794C160.732 53.2134 160.022 55.5944 160.048 56.2704C160.074 56.9474 160.963 55.2774 162.024 52.5594C163.085 49.8424 163.795 47.4604 163.602 47.2684C163.409 47.0754 162.52 48.7454 161.626 50.9794ZM277.431 52.6624C273.879 57.1004 269.788 64.1204 270.397 64.7294C270.64 64.9724 271.394 64.1204 272.073 62.8364C272.752 61.5514 275.29 57.9134 277.713 54.7504C282.488 48.5174 282.237 46.6564 277.431 52.6624ZM163.626 53.1254C163.282 54.8444 163.015 57.4314 163.031 58.8754C163.075 62.6004 164.553 59.6874 165.379 54.2504C166.118 49.3844 164.573 48.3924 163.626 53.1254ZM280.809 55.7504C277.518 59.2764 273.487 65.7924 272.611 69.0004C272.003 71.2264 272.111 71.1774 273.601 68.5494C274.522 66.9274 277.256 62.7644 279.678 59.2994C284.475 52.4374 284.772 51.5034 280.809 55.7504ZM280.15 63.3464C277.166 66.4254 270.254 81.5864 271.339 82.6724C271.592 82.9254 273.297 79.4684 275.127 74.9914C276.957 70.5154 279.703 65.4544 281.228 63.7464C283.862 60.7954 284.386 60.0004 283.697 60.0004C283.53 60.0004 281.934 61.5064 280.15 63.3464ZM283.68 66.5424C279.687 71.6314 273.295 85.6274 274.442 86.7744C274.901 87.2344 278.001 80.3914 278.001 78.9174C278.001 78.4554 280.499 74.4084 283.553 69.9244C286.606 65.4394 288.893 61.5594 288.634 61.3004C288.376 61.0414 286.146 63.4004 283.68 66.5424ZM375.755 83.0004C375.344 87.1254 374.773 91.6254 374.485 93.0004C374.196 94.3754 374.662 93.7004 375.519 91.5004C376.481 89.0294 376.967 85.2074 376.789 81.5004L376.501 75.5004L375.755 83.0004ZM72.7077 78.1194C55.3257 80.5794 39.3587 95.9954 33.1057 116.355C29.6337 127.661 29.6027 127.602 39.2507 128.301C48.3697 128.963 56.4917 131.422 64.3367 135.898L69.5007 138.844L72.0007 136.778C76.3117 133.214 88.4197 127.975 93.8217 127.335L99.0007 126.721L99.0127 122.611C99.0367 114.181 103.363 102.95 110.343 93.1904C113.84 88.3014 114.143 88.8014 104.726 83.9324C94.9357 78.8704 82.8747 76.6814 72.7077 78.1194ZM139.501 78.7394C127.143 79.8714 114.682 88.9834 107.535 102.114C104.627 107.457 101.048 119.552 101.018 124.136C101.003 126.522 101.453 126.838 105.751 127.46C113.709 128.611 120.655 134.733 122.531 142.25C122.909 143.762 123.588 145 124.04 145C124.492 145 125.057 146.012 125.295 147.25C125.603 148.848 125.798 148.486 125.97 146L126.211 142.5L127.529 146.5C128.762 150.242 128.852 150.312 128.924 147.583C128.966 145.979 129.295 144.961 129.654 145.32C130.431 146.097 134.714 140.52 135.607 137.569C135.951 136.431 137.193 134.15 138.367 132.5C139.541 130.85 141.359 127.813 142.408 125.75C144.263 122.103 147.151 120.816 148.518 123.027C149.309 124.307 150.395 155.713 150.16 170.5C150.063 176.55 150.254 185.641 150.583 190.702L151.18 199.904L154.757 201.085C157.808 202.091 158.51 202.025 159.528 200.633C160.184 199.735 161.246 199 161.887 199C163.47 199 160.458 204.921 157.643 207.343C155.969 208.784 155.883 209.064 157.251 208.624C159.574 207.879 159.468 208.462 156.001 215.5C154.376 218.8 153.036 222.233 153.023 223.128C153.011 224.023 152.384 226.273 151.63 228.128C148.833 235.007 147.501 251.094 147.501 278C147.501 308.467 148.294 318 150.827 318C151.744 318 156.03 319.178 160.352 320.617C169.856 323.782 175.392 327.995 190.253 343.374C204.759 358.385 206.599 362.556 201.129 368.026C197.139 372.016 193.757 372.62 186.392 370.657C178.557 368.569 178.869 368.523 180.04 371.603C180.585 373.035 181.706 378.773 182.533 384.353C183.359 389.934 185.377 400.709 187.018 408.297C190.669 425.184 190.707 427.932 187.375 434.054L184.749 438.879L186.875 446.757C188.044 451.091 189.001 456.341 189.001 458.424C189.001 466.629 184.249 479.379 179.84 483C178.578 484.037 177.717 486.814 177.049 492C175.592 503.316 173.451 508.4 167.383 514.954C161.315 521.508 161.045 522.825 163.445 534.148C165.986 546.136 171.332 555.326 182.001 566.043C190.4 574.481 192.718 576.182 202.001 580.718C216.036 587.577 223.664 589.403 237.566 589.232C258.469 588.974 274.749 582.362 287.283 569.038C291.287 564.782 296.011 558.582 297.782 555.26L301.001 549.22V531.765C301.001 515.862 300.831 514.156 299.093 512.584C296.061 509.839 293.273 502.194 291.951 493C291.279 488.325 290.16 484.165 289.463 483.755C287.355 482.515 282.826 474.02 281.383 468.6C279.469 461.413 279.673 454.851 282.089 445.897L284.178 438.158L281.839 434.988C279.835 432.271 279.517 430.722 279.615 424.159C279.68 419.774 280.813 412.012 282.266 406C283.661 400.225 285.346 391.256 286.01 386.068C286.675 380.881 287.824 374.918 288.565 372.818C290.131 368.381 289.903 368.293 282.592 370.511C274.953 372.828 272.268 372.467 268.401 368.6C264.384 364.583 264.027 361.11 267.11 356.052C270.253 350.898 290.739 330.352 296.757 326.319C301.833 322.918 314.355 318 317.938 318C319.451 318 319.829 316.298 320.774 305.25C321.373 298.238 321.701 285.3 321.502 276.5C321.304 267.7 321.11 257.939 321.071 254.809L321.001 249.117L314.789 245.809C304.051 240.09 296.837 231.412 293.016 219.618L291.759 215.736L289.286 218.896C285.994 223.102 280.483 225.781 271.72 227.434C267.75 228.183 263.489 229.119 262.251 229.515C259.307 230.455 259.351 228.978 262.422 223.678C263.754 221.38 265.575 216.952 266.468 213.837C267.361 210.722 269.381 206.396 270.955 204.222C274.286 199.624 282.68 195.034 287.947 194.93C289.902 194.891 292.318 194.537 293.316 194.144C295.07 193.452 295.07 193.376 293.316 191.904C292.318 191.065 288.934 189.603 285.797 188.653C282.66 187.704 277.796 185.381 274.987 183.491L269.881 180.054L262.191 182.703C248.117 187.551 231.972 185.556 219.979 177.485C215.09 174.195 214.661 174.08 213.434 175.732C212.712 176.705 211.843 178.581 211.504 179.901C210.469 183.931 197.262 198.89 194.667 198.973C194.208 198.988 195.264 200.807 197.013 203.016C198.763 205.224 200.993 209.67 201.969 212.894C202.945 216.119 205 221.064 206.534 223.884C208.069 226.703 209.071 229.263 208.761 229.573C208.452 229.883 205.822 229.43 202.918 228.568C200.014 227.706 196.482 226.996 195.069 226.99C187.649 226.962 177.173 218.575 174.825 210.784C174.06 208.247 172.879 206.765 171.103 206.113C169.487 205.52 169.142 205.128 170.192 205.079C172.801 204.957 173.335 203.159 171.564 200.456C169.688 197.592 167.495 197.271 166.554 199.722C165.988 201.197 165.76 201.233 164.963 199.972C163.43 197.548 163.864 196.251 166.424 195.609C169.666 194.795 174.02 191.023 177.481 186.029C180.206 182.096 180.324 181.437 180.473 169.218C180.611 157.956 180.932 155.761 183.28 150.048C184.738 146.5 185.834 143.541 185.716 143.472C178.036 139.016 172.082 133.323 168.938 127.43C167.772 125.242 166.174 124.18 162.629 123.238C149.668 119.792 140.538 101.162 144.408 86.0564C145.284 82.6374 146.001 79.7024 146.001 79.5364C146.001 78.9154 142.4 78.4734 139.501 78.7394ZM67.5007 80.9534C62.4357 82.2164 57.5937 84.6194 55.5957 86.8624C53.3327 89.4024 54.5997 89.6704 57.9097 87.3514C59.2047 86.4444 63.2417 84.4324 66.8817 82.8784C73.3387 80.1234 73.5577 79.4424 67.5007 80.9534ZM373.162 83.0004C373.058 84.9254 372.724 87.6254 372.419 89.0004C371.942 91.1464 372.023 91.2504 372.989 89.7374C373.608 88.7684 373.943 86.0684 373.733 83.7374C373.379 79.8174 373.336 79.7624 373.162 83.0004ZM200.389 83.5314C199.476 84.9234 198.912 86.2444 199.134 86.4674C199.357 86.6894 200.297 85.5504 201.223 83.9354C203.287 80.3404 202.674 80.0434 200.389 83.5314ZM201.979 88.6964C200.341 91.2784 199.001 93.8284 199.001 94.3624C199.001 95.5774 198.993 95.5884 202.816 89.2504C206.746 82.7354 206.051 82.2754 201.979 88.6964ZM61.0007 86.8204C58.1997 88.0894 55.0007 90.4784 55.0007 91.3004C55.0007 91.7504 55.5637 91.7784 56.2507 91.3634C56.9387 90.9484 56.0387 92.2874 54.2507 94.3394C49.5367 99.7504 50.2667 100.137 55.5007 95.0004C57.9757 92.5714 60.0007 90.1644 60.0007 89.6524C60.0007 89.1404 60.7887 88.1234 61.7507 87.3924C63.6457 85.9534 63.3727 85.7454 61.0007 86.8204ZM367.178 92.3884C366.504 94.2514 364.942 96.8394 363.708 98.1384C362.473 99.4374 360.796 101.379 359.982 102.453C358.513 104.391 358.522 104.391 361.17 102.453C364.425 100.072 369.001 93.2624 369.001 90.8004C369.001 88.1844 368.559 88.5694 367.178 92.3884ZM321.171 92.0004C321.155 93.3754 321.528 95.4004 322.001 96.5004L322.86 98.5004L322.831 96.5004C322.815 95.4004 322.441 93.3754 322.001 92.0004L321.2 89.5004L321.171 92.0004ZM201.089 98.3154C196.874 107.148 197.23 108.172 201.529 99.5794C203.433 95.7724 204.808 92.4744 204.585 92.2504C204.361 92.0274 202.788 94.7564 201.089 98.3154ZM318.388 94.9694C318.746 96.8774 319.489 98.8884 320.039 99.4384C320.705 100.104 320.822 99.2814 320.388 96.9694C320.029 95.0614 319.287 93.0504 318.737 92.5004C318.07 91.8334 317.954 92.6564 318.388 94.9694ZM60.4017 99.1984C56.0927 103.17 52.3377 108.671 53.2877 109.62C53.5267 109.859 54.9777 108.355 56.5127 106.277C58.0487 104.2 60.9027 100.813 62.8557 98.7504C67.6407 93.6974 66.0557 93.9864 60.4017 99.1984ZM205.969 98.0614C203.762 102.184 200.039 113 200.827 113C201.272 113 202.446 110.412 203.436 107.25C204.426 104.088 205.87 100.263 206.644 98.7504C208.263 95.5894 207.635 94.9484 205.969 98.0614ZM53.4757 102.858C52.0047 105.082 50.9837 107.449 51.2067 108.119C51.4307 108.789 52.8647 107.201 54.3947 104.59C57.8457 98.7034 57.1247 97.3454 53.4757 102.858ZM209.294 100.25C206.743 103.6 201.987 116.115 202.027 119.376C202.041 120.544 203.177 118.197 204.553 114.159C205.928 110.122 207.951 105.059 209.047 102.909C211.022 99.0394 211.133 97.8354 209.294 100.25ZM210.68 111.546C208.331 116.473 208.662 117.311 211.117 112.656C212.233 110.541 212.969 108.634 212.753 108.418C212.536 108.202 211.604 109.61 210.68 111.546ZM428.744 116.198C427.744 122.36 421.814 133.312 416.868 138.129C414.255 140.675 409.39 144.017 406.059 145.555C402.727 147.093 400.001 148.674 400.001 149.067C400.001 151.129 390.342 160.073 385.094 162.87C378.686 166.285 365.108 169.475 361.152 168.494C359.333 168.044 357.743 168.882 354.112 172.206C351.532 174.568 347.722 177.85 345.644 179.5L341.865 182.5L341.379 202.181L340.893 221.861L345.48 222.549C348.002 222.927 351.384 222.973 352.995 222.651C354.606 222.329 356.182 222.483 356.497 222.994C356.813 223.504 354.811 224.222 352.049 224.588C347.251 225.225 347.054 225.371 347.639 227.877C349.726 236.822 358.294 246.476 367.032 249.728C379.354 254.313 388.719 253.41 402.178 246.338C409.875 242.293 414.902 237.129 418.812 229.25C421.26 224.318 423.001 222.595 423.001 225.105C423.001 225.712 421.876 228.449 420.501 231.187C419.126 233.924 418.001 236.419 418.001 236.73C418.001 237.71 433.29 236.096 438.102 234.608C450.312 230.833 460.876 221.922 466.548 210.616C469.99 203.754 470.001 203.685 470.001 189.834C470.001 179.96 469.581 174.932 468.552 172.468C466.84 168.371 461.948 161.72 461.198 162.47C460.91 162.758 459.877 165.258 458.902 168.025C457.049 173.288 450.534 183 448.857 183C448.321 183 448.201 182.438 448.589 181.75C448.977 181.063 447.541 182.09 445.398 184.033C437.639 191.066 436.678 191.374 442.376 185C445.572 181.425 449.054 176.813 450.114 174.75C451.174 172.688 452.468 171 452.99 171C454.099 171 453.302 173.481 451.076 176.961C449.906 178.79 449.854 179.205 450.875 178.575C453.283 177.091 457.992 165.23 459.148 157.739C459.983 152.323 459.971 149.099 459.1 144.935C455.887 129.575 444.13 115.776 432.227 113.395C429.514 112.853 429.253 113.062 428.744 116.198ZM206.625 120.539C206.282 121.432 206.03 122.689 206.064 123.332C206.099 123.974 206.559 123.422 207.086 122.105C207.613 120.787 207.865 119.531 207.646 119.312C207.427 119.093 206.967 119.645 206.625 120.539ZM192.753 141.104C190.043 143.751 186.872 148.263 185.362 151.62C183.042 156.781 182.705 158.875 182.61 168.745C182.505 179.599 182.561 179.911 184.234 177.745C186.476 174.842 188.424 169.338 190.517 160C191.441 155.875 193.517 149.168 195.131 145.095C196.744 141.023 197.938 137.415 197.783 137.079C197.628 136.743 195.365 138.554 192.753 141.104ZM271.265 138.543C271.598 139.619 273.029 143.572 274.447 147.327C275.864 151.082 276.767 154.569 276.453 155.077C276.14 155.585 276.319 156 276.851 156C277.384 156 278.372 159.262 279.048 163.25C280.13 169.628 283.633 178.031 285.763 179.356C287.2 180.249 285.401 155.618 283.764 152C281.825 147.71 277.069 141.628 273.397 138.739C270.795 136.693 270.69 136.683 271.265 138.543ZM127.732 142.08C128.086 143.432 128.539 143.886 128.789 143.137C129.029 142.415 128.751 141.35 128.169 140.768C127.427 140.026 127.297 140.417 127.732 142.08ZM348.308 142.25C347.185 143.488 345.479 145.85 344.516 147.5C342.852 150.354 342.92 150.329 345.908 147C348.975 143.584 351.433 140 350.71 140C350.512 140 349.431 141.012 348.308 142.25ZM268.015 149.418C267.308 153.553 266.999 158.601 267.329 160.635C268.329 166.793 272.836 174.816 276.817 177.521C282.18 181.165 283.053 180.64 280.386 175.373C279.098 172.828 277.785 169.116 277.467 167.123C276.724 162.453 271.049 143.746 270.059 142.7C269.642 142.26 268.722 145.283 268.015 149.418ZM196.655 147.25C194.713 152.351 191.001 166.639 191.001 169.011C191.001 169.941 189.889 172.794 188.529 175.351C186.948 178.325 186.497 179.998 187.279 179.993C189.13 179.983 193.596 176.785 195.967 173.77C198.271 170.841 202.001 160.892 202.001 157.675C202.001 153.899 199.798 143 199.034 143C198.615 143 197.545 144.912 196.655 147.25ZM203.487 155.25C203.5 163.563 203.196 165.105 200.49 170.468C197.43 176.531 193.024 180.497 188.06 181.655C184.797 182.416 177.005 187.201 177.003 188.445C177.002 188.965 175.792 190.653 174.314 192.195L171.627 195H178.204C184.442 195 185.101 194.764 190.988 190.431C194.402 187.917 197.407 186.073 197.667 186.332C198.095 186.761 191.937 191.754 187.358 194.691C185.577 195.834 185.584 195.885 187.519 195.941C188.629 195.974 191.329 194.846 193.519 193.436L197.501 190.872L193.501 194.421C190.462 197.118 189.946 197.974 191.354 197.985C194.442 198.01 206.725 184.872 209.518 178.558C210.883 175.47 212.001 172.274 212.001 171.456C212.001 170.639 210.678 167.614 209.062 164.735C207.436 161.839 205.603 156.484 204.959 152.75C204.319 149.037 203.723 146 203.635 146C203.546 146 203.48 150.162 203.487 155.25ZM122.698 149.393C122.289 150.434 122.19 151.522 122.477 151.81C123.39 152.722 124.192 151.227 123.81 149.328C123.46 147.588 123.406 147.591 122.698 149.393ZM445.321 153.591C444.18 156.841 442.911 160.4 442.501 161.5L441.755 163.5L443.226 161.5C445.277 158.71 448.301 150.401 447.806 148.914C447.58 148.237 446.462 150.341 445.321 153.591ZM343.873 153.75C342.63 155.336 342.665 155.371 344.251 154.128C345.213 153.373 346.001 152.585 346.001 152.378C346.001 151.555 345.18 152.084 343.873 153.75ZM446.251 160.483C442.22 168.462 442.102 169.704 445.924 163.921C448.467 160.073 450.902 153.952 449.859 154.025C449.662 154.039 448.039 156.945 446.251 160.483ZM402.501 164C402.161 164.55 402.36 165 402.942 165C403.524 165 404.001 164.55 404.001 164C404.001 163.45 403.803 163 403.56 163C403.317 163 402.841 163.45 402.501 164ZM388.428 167.479C387.368 168.28 386.951 168.944 387.501 168.953C388.987 168.977 391.527 167.192 390.899 166.565C390.6 166.265 389.488 166.677 388.428 167.479ZM392.101 169.018C387.413 172.195 387.305 172.928 391.873 170.566C394.259 169.333 397.961 165.965 396.873 166.018C396.669 166.028 394.521 167.378 392.101 169.018ZM445.847 173C440.929 180.44 440.637 182.336 445.311 176.478C447.713 173.468 451.59 166 450.751 166C450.599 166 448.392 169.15 445.847 173ZM397.501 169C397.161 169.55 397.36 170 397.942 170C398.524 170 399.001 169.55 399.001 169C399.001 168.45 398.803 168 398.56 168C398.317 168 397.841 168.45 397.501 169ZM370.501 170L367.501 170.763L370.501 170.811C372.151 170.838 374.401 170.473 375.501 170L377.501 169.141L375.501 169.189C374.401 169.215 372.151 169.58 370.501 170ZM383.001 170C382.176 170.533 381.951 170.969 382.501 170.969C383.051 170.969 384.176 170.533 385.001 170C385.826 169.467 386.051 169.031 385.501 169.031C384.951 169.031 383.826 169.467 383.001 170ZM194.438 184.25L191.501 187.5L194.751 184.563C197.78 181.825 198.461 181 197.688 181C197.516 181 196.053 182.463 194.438 184.25ZM298.001 192.479C298.001 193.196 299.74 194.479 301.866 195.329C304.168 196.251 308.006 199.427 311.361 203.188C316.362 208.794 316.993 209.22 317.005 207C317.012 205.625 316.259 201.54 315.332 197.922L313.647 191.345L305.824 191.26C300.017 191.197 298.001 191.512 298.001 192.479ZM316.623 193.75C317.564 197.676 318.001 197.808 318.001 194.167C318.001 192.425 317.542 191 316.982 191C316.377 191 316.231 192.117 316.623 193.75ZM8.17873 193C8.60473 194.412 19.0007 200.742 19.0007 199.589C19.0007 199.293 17.5387 198.312 15.7507 197.409C13.9627 196.505 11.4267 194.806 10.1137 193.633C8.49273 192.185 7.87173 191.982 8.17873 193ZM30.5007 194C28.8767 194.698 29.1587 194.862 32.0007 194.872C33.9257 194.879 37.3007 194.512 39.5007 194.057C43.4967 193.231 43.4947 193.23 38.0007 193.185C34.9757 193.161 31.6007 193.527 30.5007 194ZM27.5007 197.078C28.9387 197.753 28.0967 197.889 24.5007 197.563L19.5007 197.111L23.5007 198.479C25.7007 199.231 29.3007 199.836 31.5007 199.823C34.9337 199.804 35.1457 199.687 33.0007 199C30.5447 198.213 30.5537 198.197 33.5007 198.084C35.1507 198.021 37.1757 197.533 38.0007 197C39.0437 196.326 37.3687 196.047 32.5007 196.086C27.3577 196.126 26.0317 196.389 27.5007 197.078ZM178.751 199.876C181.089 201.601 183.001 203.443 183.001 203.97C183.001 205.596 194.897 217.741 198.672 219.969C201.884 221.864 202.172 221.896 201.525 220.288C201.13 219.305 200.125 216.25 199.292 213.5C198.459 210.75 196.898 207.264 195.824 205.754C192.937 201.696 185.95 198.013 179.853 197.335L174.501 196.739L178.751 199.876ZM284.765 197.996C280.497 199.281 275.235 202.862 272.998 206.005C271.876 207.58 269.946 211.973 268.709 215.768L266.46 222.667L271.11 219.327C276.048 215.779 282.567 209.118 285.535 204.588C286.523 203.081 288.936 200.757 290.898 199.424L294.465 197L290.983 197.086C289.068 197.133 286.27 197.543 284.765 197.996ZM297.019 200.703C295.078 203.17 294.862 204.445 295.189 211.5C295.677 222.023 299.237 230.042 306.449 236.862C312.465 242.552 320.001 246.878 320.001 244.642C320.001 243.872 318.542 242.638 316.758 241.899C313.006 240.345 306.386 234.625 304.823 231.586C304.024 230.033 304.612 230.287 307.126 232.582C313.842 238.715 319.424 242.111 317.396 238.83C316.895 238.019 317.243 237.879 318.531 238.373C320.308 239.055 320.313 239.002 318.634 237.147C317.29 235.662 317.186 235.104 318.19 234.766C319.561 234.305 318.246 229.051 313.867 217.5C312.171 213.025 302.081 198.954 300.03 198.203C299.585 198.04 298.229 199.165 297.019 200.703ZM2.23073 365.75L1.96173 532.5L4.44073 529.5C9.14973 523.8 15.0027 510.587 17.9507 499C19.5597 492.675 22.0397 483.675 23.4617 479C24.8837 474.325 26.9147 465.503 27.9757 459.396C30.5567 444.538 32.3337 437.397 38.0707 418.814C43.8817 399.992 49.0287 389.375 56.7477 380.281C65.7977 369.619 69.3567 364.984 73.8527 358C78.1867 351.269 96.0157 329.99 104.14 321.854C106.741 319.249 110.146 316.907 111.89 316.524C115.362 315.762 115.423 315.656 113.966 312.934C112.161 309.561 108.305 310.484 106.094 314.818C104.185 318.56 98.6097 324.244 93.6837 327.472C90.9407 329.27 86.4047 329.506 77.8107 328.299L72.1207 327.5L74.9227 321.487C78.2817 314.278 78.6337 313.967 87.3537 310.503C93.6367 308.007 94.9037 307.839 102.604 308.48C107.289 308.87 111.001 308.791 111.001 308.302C111.001 307.819 109.003 305.753 106.561 303.712C103.5 301.154 101.14 300 98.9677 300C94.5677 300 81.1777 295.128 77.1377 292.057C72.0347 288.177 65.8537 272.445 68.7337 270.665C69.5957 270.132 80.6797 273.79 90.3497 277.798C95.0637 279.751 98.0147 283.522 101.409 291.928C104.489 299.552 109.001 304.63 109.001 300.471C109.001 299.629 107.228 296.698 105.06 293.955C98.9617 286.241 98.4997 277.568 103.603 266.608C104.911 263.798 105.986 260.712 105.991 259.75C106.005 257.354 107.317 257.554 110.798 260.483C113.864 263.063 121.001 278.083 121.001 281.956C121.001 285.192 118.576 290.276 115.194 294.127C110.947 298.965 110.231 302.368 112.975 304.682C114.161 305.682 116.676 308.637 118.564 311.25C120.453 313.863 122.393 316 122.877 316C123.364 316 123.524 310.126 123.236 302.827C122.95 295.581 123.241 284.669 123.881 278.577C124.522 272.485 125.149 261.789 125.274 254.808C125.5 242.156 125.495 242.122 123.501 243.983C120.446 246.835 111.949 250.798 105.162 252.537C94.4027 255.294 83.0707 251.924 75.0547 243.585C72.3367 240.758 70.8377 240 67.9647 240C62.5227 240 50.1387 236.537 44.7697 233.514C37.1937 229.248 28.0007 217.538 28.0007 212.153C28.0007 210.616 27.0417 210.092 23.2507 209.557C17.6277 208.764 9.36173 204.991 5.59073 201.496C4.10973 200.123 2.80873 199 2.69873 199C2.58973 199 2.37973 274.038 2.23073 365.75ZM11.0007 199.43C11.0007 199.705 11.9007 200.411 13.0007 201C14.1007 201.589 15.0007 201.845 15.0007 201.57C15.0007 201.295 14.1007 200.589 13.0007 200C11.9007 199.411 11.0007 199.155 11.0007 199.43ZM87.8857 202.86C86.5737 203.883 83.7007 205.663 81.5007 206.816C79.3007 207.969 78.0807 208.931 78.7907 208.956C80.7947 209.024 87.2907 205.445 89.4057 203.106C91.7607 200.502 91.0557 200.388 87.8857 202.86ZM176.606 207.118C179.079 217.722 184.27 222.424 195.919 224.613C199.531 225.292 202.627 225.708 202.798 225.537C202.969 225.365 199.936 223.116 196.058 220.538C191.617 217.585 186.762 213.103 182.94 208.425C179.603 204.341 176.491 201 176.025 201C175.56 201 175.821 203.753 176.606 207.118ZM287.116 206.957C280.096 215.393 279.242 216.191 272.174 220.934C268.694 223.269 265.994 225.319 266.174 225.489C266.354 225.659 269.549 225.222 273.274 224.517C281.922 222.88 287.593 219.202 289.99 213.677C291.861 209.365 293.6 201 292.625 201C292.322 201 289.843 203.681 287.116 206.957ZM151.033 206.25L151.064 210.5L153.642 207.567C156.084 204.789 156.125 204.564 154.42 203.317C151.564 201.228 150.999 201.718 151.033 206.25ZM162.44 203.299C161.675 205.292 162.653 207 164.56 207C166.362 207 166.344 206.037 164.497 203.597C163.225 201.916 162.984 201.881 162.44 203.299ZM20.5007 204C23.2527 205.183 24.2317 205.183 23.5007 204C23.1607 203.45 21.8967 203.032 20.6917 203.07C18.5797 203.138 18.5727 203.171 20.5007 204ZM82.1977 210.195C78.7307 211.862 76.0867 213.42 76.3227 213.656C76.9587 214.292 87.6327 209.405 88.4317 208.112C89.2887 206.726 89.6877 206.592 82.1977 210.195ZM465.939 216.761C457.813 229.853 437.13 240.228 422.044 238.778C417.718 238.363 416.769 238.619 414.784 240.744C411.532 244.224 400.454 250.5 393.023 253.072C385.146 255.798 375 255.346 367.021 251.913C362.472 249.956 361.341 249.814 358.632 250.862C356.91 251.527 352.801 252.335 349.501 252.656L343.501 253.241L344.467 268.37C344.998 276.692 345.392 290.781 345.343 299.68C345.257 315.256 345.323 315.816 347.127 314.689C348.158 314.045 349.001 313.241 349.001 312.9C349.001 312.56 350.801 310.237 353.001 307.737C357.975 302.087 358.253 298.574 354.047 294.544C348.023 288.773 346.443 281.401 349.854 274.985C350.873 273.068 352.231 269.893 352.873 267.928C354.092 264.194 360.49 257.156 361.63 258.295C362.927 259.593 367.215 270.589 368.22 275.195C369.812 282.493 368.498 288.192 363.874 294.042C361.668 296.832 359.693 300.003 359.484 301.089C359.112 303.019 359.164 303.017 361.747 300.985C364.43 298.875 365.01 297.874 369.336 287.89C372.143 281.413 376.188 277.937 383.501 275.717C386.251 274.882 390.967 273.292 393.982 272.183C396.996 271.074 399.857 270.411 400.339 270.709C400.822 271.007 400.927 273.061 400.573 275.272C399.518 281.873 396.037 288.735 392.297 291.588C387.757 295.051 374.848 300 370.356 300C367.794 300 365.639 300.982 362.43 303.612C360.005 305.599 358.285 307.651 358.608 308.172C358.955 308.735 362.361 308.844 366.973 308.442C373.961 307.832 375.452 308.036 381.627 310.445C388.167 312.995 394.001 317.782 394.001 320.598C394.001 321.243 394.672 323.06 395.492 324.636L396.984 327.5L391.242 328.299C382.579 329.505 378.062 329.27 375.318 327.472C370.392 324.244 364.817 318.56 362.908 314.818C360.587 310.268 357.114 309.653 354.683 313.362C353.169 315.673 353.222 315.75 357.104 316.913C359.342 317.583 362.909 319.947 365.286 322.336C374.248 331.338 389.233 349.276 395.642 358.671C399.329 364.077 405.891 372.717 410.224 377.871C419.19 388.536 425.378 399.988 429.475 413.5C430.975 418.45 433.249 425.902 434.526 430.06C435.803 434.218 437.818 442.768 439.002 449.06C443.046 470.538 447.03 486.425 453.734 507.809C456.305 516.008 460.959 524.977 465.567 530.611L467.929 533.5L467.943 516C467.951 506.375 468.186 477.125 468.465 451C469.272 375.532 470.216 210.999 469.842 211.011C469.654 211.017 467.898 213.605 465.939 216.761ZM82.4417 214.468C81.3747 215.276 80.9507 215.936 81.5007 215.936C82.0507 215.936 83.3747 215.276 84.4417 214.468C85.5097 213.661 85.9327 213 85.3827 213C84.8327 213 83.5097 213.661 82.4417 214.468ZM81.0007 218.577L78.5007 220.083L81.0007 219.429C82.3757 219.07 83.9277 218.376 84.4507 217.888C85.9777 216.46 83.7867 216.898 81.0007 218.577ZM74.5007 221C73.1817 221.567 73.0117 221.878 74.0007 221.914C74.8257 221.945 76.1757 221.533 77.0007 221C78.8287 219.819 77.2497 219.819 74.5007 221ZM362.001 220.69C362.001 221.24 362.901 222.505 364.001 223.5C365.101 224.495 366.001 224.86 366.001 224.31C366.001 223.76 365.101 222.495 364.001 221.5C362.901 220.505 362.001 220.14 362.001 220.69ZM77.5007 224C75.3007 225.018 74.0857 225.885 74.8007 225.926C76.2227 226.007 82.0007 223.237 82.0007 222.474C82.0007 221.884 82.2677 221.793 77.5007 224ZM361.141 224.852C361.777 225.87 363.208 227.273 364.321 227.968C366.075 229.063 366.021 228.823 363.923 226.171C361.275 222.825 359.286 221.882 361.141 224.852ZM97.5007 227.513C92.7327 231.62 84.1477 236.321 78.2177 238.072L73.9347 239.336L77.0997 242.602C84.4467 250.183 99.3087 252.772 110.942 248.499C118.747 245.631 125.803 238.771 126.624 233.25L127.257 229L120.879 228.967C115.426 228.939 110.392 227.734 103.001 224.687C102.091 224.312 99.9287 225.423 97.5007 227.513ZM342.452 237.151C342.847 243.943 343.568 249.912 344.052 250.416C344.901 251.299 359.001 249.359 359.001 248.36C359.001 248.107 357.369 246.236 355.374 244.2C350.11 238.83 346.755 233.425 346.07 229.212C345.661 226.692 344.878 225.407 343.601 225.162C341.826 224.82 341.768 225.424 342.452 237.151ZM310.959 233.38C313.411 235.921 315.862 238 316.405 238C317.699 238 311.088 231.141 308.501 229.798C307.401 229.227 308.507 230.839 310.959 233.38ZM75.0007 231C73.6257 231.44 69.1257 231.892 65.0007 232.003C58.4747 232.178 57.9557 232.319 61.0007 233.086C65.1627 234.134 73.3107 233.346 77.5007 231.491C80.7627 230.046 79.0367 229.707 75.0007 231ZM120.947 235.625C118.022 238.702 117.879 239.048 120.001 237.911C121.376 237.174 122.914 236.555 123.418 236.535C124.109 236.509 125.214 232 124.53 232C124.455 232 122.843 233.631 120.947 235.625ZM359.769 237.633C364.446 244.289 374.458 251.026 379.501 250.91C381.676 250.861 381.984 251.035 372.091 246.725C369.665 245.668 365.405 242.485 362.624 239.652C359.533 236.503 358.423 235.718 359.769 237.633ZM118.362 240.361C116.086 242.088 113.386 244.043 112.362 244.707C110.834 245.698 111.053 245.735 113.588 244.916C116.877 243.853 123.838 238.523 123.001 237.709C122.726 237.441 120.638 238.635 118.362 240.361ZM110.444 264.577C112.114 267.933 112.914 291.655 111.443 294.161C111.011 294.898 111.603 294.672 112.758 293.659C115.535 291.226 118.001 285.897 118.001 282.33C118.001 279.079 112.542 265.279 110.354 263C109.184 261.781 109.201 262.076 110.444 264.577ZM354.654 270.244C350.708 279.123 350.088 284.333 352.435 288.872C355.943 295.655 356.508 294.54 356.654 280.549C356.739 272.484 357.259 266.386 357.978 265.043C358.63 263.825 358.974 262.64 358.743 262.408C358.512 262.177 356.672 265.703 354.654 270.244ZM105.017 270.184C102.164 276.818 102.531 284.885 105.937 290.397C109.198 295.672 109.97 293.777 109.972 280.5C109.975 263.828 108.802 261.386 105.017 270.184ZM359.633 266.517C358.634 269.121 358.76 292.159 359.779 293.178C360.403 293.802 361.59 292.788 363.117 290.323C366.193 285.362 366.418 275.487 363.599 269.225C361.581 264.741 360.577 264.056 359.633 266.517ZM72.1387 278.558C74.7317 287.998 78.4037 291.18 92.9877 296.625C98.9167 298.839 98.2777 296.614 91.9917 293.158C88.6527 291.322 82.7267 286.515 78.5397 282.246L71.0557 274.616L72.1387 278.558ZM81.0007 281.437C84.7377 285.27 90.1567 289.52 93.7507 291.436C97.1887 293.269 100.001 294.608 100.001 294.412C100.001 294.215 98.8177 291.557 97.3727 288.504C94.2687 281.948 91.4387 279.726 84.0007 278.007C80.9757 277.308 77.6007 276.294 76.5007 275.753C75.4007 275.213 77.4257 277.771 81.0007 281.437ZM392.001 275.919C391.176 276.392 387.841 277.366 384.589 278.084C377.546 279.641 373.317 283.363 370.845 290.182L369.19 294.748L375.514 291.234C378.992 289.3 384.674 284.857 388.14 281.359C394.346 275.098 394.969 274.221 392.001 275.919ZM390.252 282.442C385.978 286.829 380.548 291.19 377.022 293.069C366.944 298.441 371.587 298.942 383.001 293.715C391.387 289.874 394.233 286.87 396.444 279.522C397.193 277.035 397.737 275.001 397.653 275.001C397.569 275.002 394.239 278.351 390.252 282.442ZM91.0007 311.929C88.5257 312.954 85.1237 314.308 83.4417 314.939C80.6507 315.984 76.1817 321.514 77.2577 322.59C77.8747 323.207 87.6017 321.065 91.4077 319.474C93.1087 318.763 96.2497 316.79 98.3887 315.09C100.527 313.391 102.777 311.993 103.389 311.985C104 311.976 103.826 311.533 103.001 311C100.692 309.508 95.9617 309.874 91.0007 311.929ZM366.001 311C365.058 311.609 364.952 311.975 365.716 311.985C366.385 311.993 368.48 313.36 370.373 315.022C375.353 319.395 392.001 324.724 392.001 321.945C392.001 320.272 385.456 314 383.71 314C382.89 314 380.258 313.11 377.86 312.022C373.13 309.876 368.375 309.466 366.001 311ZM98.5737 317.942C94.6257 321.08 89.2917 323.27 82.0007 324.746L77.5007 325.657L82.2377 326.44C88.9447 327.549 91.1647 326.701 97.7147 320.526C104.018 314.586 104.456 313.268 98.5737 317.942ZM368.503 318.065C376.129 326.186 381.443 328.263 389.001 326.078C391.069 325.48 390.438 325.163 385.351 324.245C379.116 323.12 369.001 318.693 369.001 317.09C369.001 316.608 368.214 315.912 367.253 315.543C366.153 315.121 366.617 316.057 368.503 318.065ZM350.248 319.25C347.357 322.873 346.169 326.833 346.726 330.989L347.311 335.349L349.651 332.424C350.938 330.816 351.993 330.002 351.996 330.615C351.999 331.228 351.051 332.939 349.889 334.415C347.99 336.83 347.792 338.279 347.926 348.8C348.061 359.449 348.396 361.416 351.654 370.694L355.234 380.888L359.693 374.956C362.145 371.694 364.637 368.725 365.231 368.358C366.459 367.599 366.349 367.796 361.576 374.889C356.957 381.753 356.29 385.605 358.758 391.183C359.825 393.596 361.271 397.956 361.97 400.872C362.67 403.787 364.313 409.125 365.622 412.733C366.93 416.341 368.008 419.565 368.017 419.897C368.026 420.229 369.039 418.735 370.267 416.578C371.496 414.421 373.058 412.472 373.738 412.249C374.418 412.025 373.861 413.79 372.5 416.171C367.935 424.155 369.385 424.68 377.04 417.813C384.106 411.477 392.051 406.057 391.943 407.648C391.912 408.117 389.021 410.709 385.518 413.41C382.016 416.11 377.325 420.092 375.093 422.258C371.732 425.521 371.21 426.523 372.054 428.098C372.712 429.328 374.207 430.028 376.286 430.079C379.225 430.151 379.082 430.348 375.21 431.564C373.523 432.093 376.604 436.574 383.916 444.224C391.882 452.558 389.668 452.189 381.098 443.754C374.926 437.679 372.973 434.862 368.44 425.506C365.492 419.421 361.975 410.405 360.623 405.471C357.936 395.665 346.578 361.981 344.82 358.605C341.512 352.253 334.313 342.738 331.499 340.999C329.72 339.899 326.838 339 325.093 339C321.561 339 315.121 341.945 312.961 344.548C312.188 345.48 313.293 345.063 315.417 343.621C320.558 340.133 327.699 339.959 330.714 343.25C335.79 348.79 340.094 362.959 338.222 367.962C337.468 369.974 337.208 369.152 336.797 363.462C336.254 355.939 331.586 344.822 328.468 343.626C321.566 340.977 313.001 345.354 313.001 351.529C313.001 355.904 317.654 368.94 320.129 371.5C321.662 373.085 323.249 373.47 327.782 373.354L333.501 373.208L329.252 374.687C325.361 376.041 324.687 376.011 321.252 374.333C318.006 372.747 317.061 371.424 314.231 364.5C311.834 358.636 311.033 355.257 311.231 351.844C311.561 346.159 310.704 346.418 308.995 352.52C307.414 358.168 308.162 368.431 311.003 380.069C312.135 384.706 313.936 392.655 315.005 397.732C316.926 406.856 319.965 415.491 327.772 434C333.466 447.499 336.375 463.481 337.42 487C337.755 494.53 341.357 507.221 344.941 513.5C345.883 515.15 348.194 520.303 350.077 524.952C352.888 531.891 354.665 534.58 360.001 539.971C369.275 549.34 374.441 552.035 390.852 556.063C397.585 557.716 394.912 558.397 387.296 556.97C379.879 555.579 372.501 552.762 369.745 550.268C366.623 547.443 366.654 549.751 369.878 559.919C373.938 572.726 380.603 582.884 390.348 591.115C402.146 601.08 407.175 605.282 412.623 609.724L417.803 613.948L425.057 611.481C434.934 608.121 447.651 601.095 458.751 592.864L468.001 586.004V566.002C468.001 551.879 467.671 546 466.879 546C466.104 546 466.142 545.534 467.003 544.498C469.038 542.045 467.521 538.078 460.597 527.739C453.888 517.723 453.857 517.645 446.166 491C441.696 475.514 440.42 470.164 436.985 452.5C433.132 432.692 425.23 407.295 419.374 395.901C416.944 391.172 412.253 384.197 408.951 380.401C405.649 376.606 399.258 368.14 394.75 361.589C390.242 355.038 383.162 345.813 379.018 341.089C374.873 336.365 369.932 330.519 368.038 328.099C362.106 320.519 352.893 315.936 350.248 319.25ZM148.498 325.841C147.367 337.56 147.365 337.522 149.137 337.232C150.037 337.085 151.046 337.676 151.38 338.546C152.004 340.172 154.001 339.667 154.001 337.882C154.001 337.332 153.556 337.157 153.012 337.493C152.421 337.858 152.294 337.4 152.696 336.352C153.113 335.266 153.521 335.059 153.77 335.807C153.991 336.47 154.66 336.711 155.256 336.342C155.97 335.901 156.101 336.326 155.638 337.586C155.187 338.817 155.869 338.429 157.549 336.5C159.379 334.398 159.975 334.082 159.538 335.444C158.921 337.369 158.936 337.369 161.103 335.444L163.292 333.5L162.005 336C161.297 337.375 159.796 339.85 158.67 341.5L156.623 344.5L158.812 342.595C160.016 341.547 161.001 341.155 161.001 341.723C161.001 342.29 160.315 343.324 159.477 344.02C158.639 344.716 158.195 345.528 158.492 345.824C158.788 346.121 160.599 344.843 162.516 342.985C166.838 338.796 167.074 339.709 162.897 344.465C159.646 348.169 159.916 349.249 163.344 346.25C164.565 345.182 165.019 345.054 164.509 345.92C163.885 346.98 164.094 347.178 165.337 346.701C167.536 345.857 167.45 346.167 164.541 349.551C161.833 352.703 161.941 354.069 164.727 351.91C166.19 350.776 166.163 350.93 164.575 352.791C162.036 355.765 163.669 357.772 167.144 355.947C169.453 354.734 169.465 354.75 167.713 356.726C165.963 358.698 166.037 358.814 171.059 362.037C176.471 365.51 183.886 368.314 190.523 369.396C193.571 369.893 195.261 369.575 197.751 368.037C200.89 366.098 202.191 363 199.866 363C198.226 363 187.116 351.433 186.041 348.606C185.541 347.291 185.36 345.343 185.639 344.277C186.009 342.86 184.448 340.704 179.823 336.249C169.303 326.114 165.863 323.963 155.377 320.964L149.141 319.181L148.498 325.841ZM313.501 321.001C304.531 323.545 299.967 326.228 291.067 334.186C283.643 340.824 283.001 341.702 283.001 345.221C283.001 348.311 282.186 349.952 278.751 353.772C272.93 360.247 270.353 362.709 268.811 363.268C266.9 363.961 269 367.164 272.486 368.873C274.946 370.079 276.249 369.988 283.213 368.124C293.981 365.242 303.949 359.322 301.05 357.53C300.473 357.174 300.001 356.369 300.001 355.741C300.001 354.919 300.337 354.936 301.201 355.8C302.99 357.589 304.793 357.257 306.051 354.906C306.957 353.214 306.811 352.397 305.289 350.656C301.208 345.984 300.97 345.428 302.985 345.276C304.021 345.198 305.403 345.779 306.057 346.567C306.711 347.355 307.687 348 308.227 348C308.767 348 307.812 346.409 306.105 344.465C302.038 339.834 302.126 338.777 306.251 342.694C309.449 345.731 309.532 345.75 311.439 343.878C312.985 342.36 313.125 341.726 312.13 340.738C311.135 339.751 311.034 339.906 311.629 341.5C312.296 343.286 312.193 343.351 310.665 342.109C309.154 340.879 309.036 340.927 309.648 342.523C310.142 343.811 309.986 344.109 309.103 343.563C308.422 343.142 308.131 342.105 308.456 341.258C308.78 340.411 308.378 338.698 307.561 337.452C306.227 335.416 306.246 335.12 307.748 334.544C308.826 334.13 310.085 334.717 311.297 336.201C312.33 337.466 312.838 337.825 312.427 337C312.015 336.175 312.833 336.55 314.243 337.834C316.393 339.789 316.945 339.929 317.654 338.695C318.12 337.885 319.176 337.06 320.002 336.861C321.289 336.551 321.36 335.278 320.502 327.9L319.501 319.299L313.501 321.001ZM308.001 335.711C308.001 336.285 308.789 337.373 309.751 338.128C311.37 339.397 311.391 339.35 310.034 337.5C309.227 336.4 308.44 335.313 308.284 335.083C308.128 334.854 308.001 335.137 308.001 335.711ZM187.001 344.834C187.001 347.293 189.904 351.558 194.9 356.44C200.261 361.679 202.121 362.032 199.652 357.343C197.773 353.774 187.001 343.123 187.001 344.834ZM275.472 349.303C269.992 355.149 267.256 359.593 268.425 360.748C269.728 362.036 281.001 349.24 281.001 346.473C281.001 345.113 280.875 344 280.722 344C280.568 344 278.206 346.386 275.472 349.303ZM302.327 352.414C301.458 353.405 301.445 354.044 302.277 354.876C303.97 356.569 305.434 356.226 303.982 354.477C302.909 353.184 303.004 353.061 304.61 353.664C306.28 354.292 306.341 354.178 305.129 352.687C303.522 350.713 303.796 350.739 302.327 352.414ZM165.001 354.5C164.307 355.337 164.198 356 164.756 356C165.306 356 166.316 355.325 167.001 354.5C167.695 353.663 167.804 353 167.246 353C166.696 353 165.686 353.675 165.001 354.5ZM132.001 354.257C132.001 354.398 131.566 356.085 131.033 358.007C130.15 361.193 130.194 361.33 131.533 359.559C132.925 357.718 133.573 354 132.501 354C132.226 354 132.001 354.115 132.001 354.257ZM304.001 359.506C303.176 360.51 300.221 362.792 297.435 364.578C291.72 368.242 291.229 369.362 288.473 385C287.553 390.225 285.648 399.675 284.24 406C280.719 421.822 280.724 428.179 284.265 434.201C286.593 438.162 288.579 439.773 296.874 444.429C310.367 452.002 309.621 451.869 310.299 446.814C311.114 440.742 313.991 438.608 320.245 439.438C322.874 439.787 325.695 440.329 326.513 440.643C327.331 440.957 328.001 440.716 328.001 440.107C328.001 438.615 322.807 433.853 319.955 432.73C318.864 432.301 318.953 432.138 320.31 432.079C321.327 432.035 321.83 431.532 321.459 430.932C321.096 430.344 320.244 430.076 319.567 430.336C318.889 430.597 318.334 430.177 318.334 429.405C318.334 428.581 319.403 427.967 320.918 427.921C322.486 427.873 322.911 427.618 322.001 427.273C321.176 426.96 317.081 424.52 312.901 421.852C305.835 417.341 305.076 417.078 302.1 418.115C297.523 419.711 296.965 418.331 301.432 416.464C304.95 414.994 305.375 415.023 308.643 416.951C313.154 419.613 313.665 419.55 315.439 416.12C316.785 413.517 316.741 412.585 314.986 406.447C313.824 402.384 311.929 398.469 310.272 396.708C307.586 393.853 307.572 393.784 309.833 394.475C311.862 395.094 312.122 394.883 311.833 392.843C311.557 390.896 310.951 390.525 308.251 390.647C304.412 390.822 303.926 389.487 307.501 388.589C310.658 387.797 310.862 384.956 307.751 385.116C306.039 385.204 305.922 385.342 307.263 385.692C310.044 386.417 308.216 388.007 304.692 387.93C302.06 387.872 301.851 387.718 303.501 387.054C305.365 386.304 305.331 386.218 303.001 385.788C300.938 385.408 301.245 385.189 304.751 384.536C307.403 384.042 309.001 383.206 309.001 382.313C309.001 381.526 308.664 381.087 308.251 381.337C307.838 381.588 307.414 379.927 307.308 377.646C307.202 375.366 306.752 369.941 306.308 365.591C305.571 358.363 305.372 357.839 304.001 359.506ZM162.95 361.233C162.874 364.638 161.927 372.031 161.037 376.173C160.537 378.504 160.642 380.241 161.324 380.923C162.093 381.692 162.058 382 161.201 382C160.541 382 160.001 382.45 160.001 383C160.001 383.55 161.013 384.007 162.251 384.015C163.489 384.024 165.176 384.467 166.001 385C167.245 385.804 167.16 385.975 165.501 386C163.812 386.026 163.734 386.196 165.001 387.096C166.119 387.89 165.355 388.033 162.001 387.658C157.719 387.178 157.658 387.205 160.751 388.221C165.011 389.621 164.931 391.025 160.631 390.327C157.487 389.817 157.23 389.985 156.813 392.828C156.424 395.481 156.592 395.754 158.118 394.938C161.233 393.27 161.269 393.93 158.252 397.367C156.472 399.394 154.595 403.322 153.536 407.232C151.869 413.391 151.867 413.866 153.504 416.365C155.577 419.527 155.936 419.561 160.283 416.996C163.136 415.313 164.186 415.169 166.84 416.094C168.579 416.7 170.001 417.602 170.001 418.098C170.001 419.232 169.723 419.225 166.524 418.009C164.256 417.146 162.735 417.73 154.809 422.509C148.059 426.578 146.344 428 148.184 428C149.756 428 150.668 428.567 150.668 429.543C150.668 430.434 150.104 430.856 149.334 430.543C144.755 428.678 144.496 428.683 146.624 430.601C148.92 432.671 148.702 433.103 143.751 436.281C140.66 438.265 139.926 441.45 142.751 440.621C148.034 439.069 152.342 438.844 154.515 440.007C157.492 441.601 159.425 446.173 158.567 449.593L157.906 452.225L164.704 448.502C178.666 440.854 181.766 438.673 184.359 434.675C187.707 429.51 187.878 421.917 184.943 408.739C183.811 403.658 181.776 393.501 180.422 386.168C177.923 372.638 175.863 366 174.164 366C173.648 366 170.925 364.418 168.113 362.483C163.155 359.072 162.999 359.035 162.95 361.233ZM366.873 365.75C365.604 367.369 365.651 367.39 367.501 366.033C368.601 365.226 369.689 364.439 369.918 364.283C370.147 364.127 369.864 364 369.29 364C368.716 364 367.628 364.788 366.873 365.75ZM159.751 385.662C160.439 385.94 161.564 385.94 162.251 385.662C162.939 385.385 162.376 385.158 161.001 385.158C159.626 385.158 159.064 385.385 159.751 385.662ZM148.7 421.084L147.096 425.168L149.298 423.762C150.51 422.988 152.054 422.03 152.731 421.631C153.699 421.061 153.701 420.493 152.74 418.954C151.019 416.197 150.515 416.463 148.7 421.084ZM316.246 418.98C315.173 420.697 315.344 421.179 317.536 422.615C320.752 424.722 321.266 424.162 319.764 420.184C318.36 416.464 317.912 416.311 316.246 418.98ZM180.001 441.938C178.626 442.945 173.492 445.895 168.592 448.494C163.692 451.092 157.901 454.509 155.721 456.088L151.759 458.958L154.445 459.979C155.923 460.54 157.75 461 158.507 461C159.264 461 160.122 461.387 160.415 461.861C161.497 463.612 159.647 463.879 156.252 462.46C151.715 460.565 151.604 460.595 153.444 463.223C154.3 464.445 155.001 466.124 155.001 466.955C155.001 467.785 153.86 466.785 152.465 464.732C149.512 460.386 148.186 460.155 144.328 463.315C142.773 464.589 139.814 466.65 137.751 467.897C135.689 469.143 133.995 470.914 133.987 471.832C133.98 472.749 133.684 474.583 133.33 475.906C132.723 478.174 132.884 478.281 136.129 477.754C142.125 476.781 144.9 477.882 147.044 482.085C151.5 490.819 147.408 496.767 135.738 498.517C133.133 498.907 131.001 499.678 131.001 500.23C131.001 500.793 131.987 500.953 133.251 500.593C134.489 500.241 139.551 499.001 144.501 497.837C153.723 495.67 172.974 486.469 177.912 481.868C181.011 478.981 184.57 470.956 186.102 463.402C187.404 456.979 186.583 449.726 183.814 443.201C182.501 440.107 182.5 440.107 180.001 441.938ZM285.668 440.746C284.24 443.105 282.003 453.015 282.013 456.932C282.036 466.026 287.21 479.631 291.868 482.851C300.43 488.768 316.529 496.206 324.719 498.028C329.549 499.103 334.513 500.263 335.751 500.607C337.005 500.956 338.001 500.789 338.001 500.23C338.001 499.678 335.869 498.907 333.264 498.517C321.571 496.763 316.896 489.604 321.99 481.25C324 477.954 325.356 477.493 331.751 477.933C334.92 478.151 335.001 478.055 335.001 474.104C335.001 470.54 334.609 469.851 331.751 468.387C329.963 467.472 326.995 465.41 325.154 463.807C321.082 460.259 319.265 460.484 316.286 464.905C314.384 467.727 314.001 467.946 314.001 466.207C314.001 465.058 314.451 463.84 315.001 463.5C316.983 462.275 316.017 460.921 313.949 462.028C312.821 462.631 310.909 462.951 309.699 462.739C307.255 462.309 306.898 462.539 314.342 459.747C316.914 458.783 317.009 458.589 315.342 457.704C314.33 457.167 312.601 455.929 311.501 454.955C310.401 453.98 305.676 451.269 301.001 448.93C296.326 446.591 291.066 443.623 289.312 442.335C287.559 441.046 285.919 440.331 285.668 440.746ZM144.638 442.442C141.963 443.16 139.442 444.287 139.035 444.944C138.035 446.563 135.673 460.005 136.282 460.614C136.549 460.881 140.082 459.544 144.134 457.642C148.186 455.74 152.739 453.703 154.251 453.114C157.287 451.932 157.918 448.61 155.851 444.684C153.716 440.628 152.382 440.361 144.638 442.442ZM314.066 442.935C312.682 444.319 312.001 446.292 312.001 448.921C312.001 452.533 312.257 452.897 315.251 453.545C317.039 453.933 321.585 455.797 325.353 457.689C329.122 459.581 332.377 460.957 332.586 460.748C333.331 460.003 330.76 447.461 329.427 445.337C328.68 444.147 326.704 442.91 325.035 442.587C323.366 442.264 320.68 441.746 319.066 441.435C316.913 441.02 315.582 441.419 314.066 442.935ZM142.854 459.827C137.274 462.507 135.081 464.108 134.743 465.75C134.121 468.764 134.666 468.62 140.501 464.228C143.251 462.158 147.076 459.467 149.001 458.249C154.163 454.982 151.539 455.655 142.854 459.827ZM320.285 458.389C322.366 459.668 325.066 461.596 326.285 462.673C327.504 463.75 329.739 465.399 331.251 466.338C333.976 468.03 334.001 468.023 334.001 465.523C334.001 464.013 333.432 463 332.584 463C331.805 463 328.198 461.425 324.57 459.5C317.1 455.537 314.586 454.885 320.285 458.389ZM136.001 479.894C133.665 480.54 133.455 481.14 132.8 489.008C132.414 493.641 132.225 497.557 132.38 497.712C132.534 497.867 134.963 497.31 137.776 496.474C143.119 494.887 147.001 491.244 147.001 487.815C147.001 484.992 144.163 480 142.557 480C141.791 480 140.565 479.821 139.833 479.601C139.1 479.382 137.376 479.514 136.001 479.894ZM326.996 480.001C323.158 480.907 320.873 486.897 322.624 491.461C323.372 493.408 329.2 496.463 333.867 497.354C336.998 497.951 337.188 497.839 336.59 495.748C336.236 494.512 335.672 490.505 335.337 486.843C334.766 480.613 334.558 480.162 332.101 479.801C330.657 479.589 328.359 479.679 326.996 480.001ZM164.473 491.893C156.031 496.343 150.817 498.316 141.859 500.452C131.947 502.817 130.056 503.583 129.131 505.614C128.533 506.927 128.237 508 128.473 508C128.709 508 131.199 507.507 134.007 506.905C141.456 505.308 143.702 506.177 145.049 511.178C146.685 517.253 145.372 519.243 137.885 522.043C134.419 523.34 130.109 524.4 128.307 524.4C126.339 524.4 125.524 524.713 126.266 525.185C127.992 526.281 132.871 526.188 137.008 524.979C138.929 524.418 143.483 523.329 147.127 522.559C158.919 520.068 167.232 514.249 171.933 505.196C172.934 503.267 176.116 486.913 175.608 486.305C175.518 486.198 170.507 488.713 164.473 491.893ZM293.513 491.793C295.001 504.949 300.363 513.565 310.182 518.575C315.115 521.092 334.183 526 339.031 526C343.297 526 343.366 524.533 339.111 524.289C335.133 524.061 324.625 519.818 323.49 517.982C323.108 517.364 323.098 514.841 323.467 512.376C324.341 506.549 326.755 505.289 334.208 506.768C337.119 507.346 339.655 507.668 339.842 507.485C340.03 507.301 339.907 506.278 339.568 505.211C339.077 503.663 336.286 502.621 325.764 500.055C316.369 497.764 310.694 495.755 306.038 493.071C302.443 490.999 298.009 488.58 296.184 487.695L292.868 486.087L293.513 491.793ZM130.463 509.154C128.19 509.748 126.868 511.093 125.213 514.5C122.574 519.932 122.454 521.576 124.635 522.413C128.186 523.776 141.552 519.334 142.67 516.419C142.973 515.63 142.922 513.394 142.557 511.449C141.914 508.02 141.767 507.92 137.698 508.137C135.389 508.259 132.134 508.717 130.463 509.154ZM326.751 508.573C326.338 508.991 326.001 511.201 326.001 513.483C326.001 517.551 326.104 517.674 331.251 519.763C343.526 524.746 347.643 523.493 344.237 515.809C343.186 513.439 341.63 510.926 340.779 510.224C338.993 508.75 327.867 507.44 326.751 508.573ZM303.8 526.309C304.343 537.003 305.001 537.505 305.001 527.226C305.001 522.766 304.637 518.893 304.192 518.618C303.747 518.343 303.57 521.804 303.8 526.309ZM307.877 521.298C307.809 521.959 307.637 525.425 307.495 529C307.353 532.575 306.224 539.325 304.986 544C302.804 552.234 302.753 553.486 303.346 584C303.682 601.325 304.365 617.3 304.864 619.5C305.759 623.447 305.773 623.457 305.886 620.25C306.001 617.008 307.383 615.881 308.339 618.25C308.616 618.938 308.879 617.587 308.922 615.25C309.001 610.989 310.454 609.469 311.312 612.75C311.587 613.803 311.815 613.381 311.885 611.691C311.949 610.146 312.436 609.151 312.967 609.479C314.282 610.292 319.317 600.061 321.814 591.5C323.331 586.299 324.024 580.131 324.509 567.5C325.139 551.072 325.072 550.198 322.516 541.509C318.991 529.531 315.398 523.125 311.251 521.427C308.782 520.416 307.971 520.385 307.877 521.298ZM155.75 522.25C153.717 523.807 148.956 535.797 145.968 546.886C143.976 554.28 143.784 556.688 144.351 567.229C145.161 582.294 146.734 588.315 153.655 602.849C158.142 612.271 159.355 614.117 159.995 612.5C160.721 610.665 160.845 610.645 161.501 612.25C161.894 613.212 161.965 614.652 161.659 615.449C161.287 616.418 161.583 616.714 162.552 616.342C163.628 615.929 164.031 616.649 164.117 619.143C164.181 620.989 164.438 621.717 164.688 620.76C164.939 619.804 164.455 608.779 163.614 596.26C162.773 583.742 161.786 567.2 161.421 559.5C161.056 551.8 160.618 544.375 160.448 543C160.278 541.625 160.108 536.112 160.07 530.75C159.998 520.594 159.414 519.445 155.75 522.25ZM146.251 524.723L143.001 525.127L143.071 531.813C143.17 541.228 144.235 543.501 145.916 537.888C146.634 535.494 148.256 531.39 149.521 528.767C150.879 525.951 151.346 524.065 150.661 524.16C150.023 524.248 148.038 524.502 146.251 524.723ZM320.547 526.75C320.965 527.712 322.078 530.667 323.022 533.315C325 538.866 326.001 537.725 326.001 529.918C326.001 525.083 325.949 525 322.894 525C320.312 525 319.915 525.296 320.547 526.75ZM109.91 542.471C105.06 547.878 104.153 549.548 103.064 555.087C99.8637 571.352 89.2357 586.887 73.0427 598.969C70.1457 601.13 64.2407 605.958 59.9187 609.699C53.4077 615.335 51.7807 617.357 50.4217 621.5C47.9987 628.887 43.3327 636.94 38.6877 641.75C35.2727 645.287 33.9457 646 30.7777 646C27.7127 646 26.6337 645.464 25.2357 643.25C23.8867 641.111 22.8667 640.573 20.6467 640.826C17.1897 641.222 13.0007 637.711 13.0007 634.419C13.0007 632.801 12.5197 632.302 11.2507 632.606C8.79173 633.194 4.75673 630.895 3.37073 628.115C2.46373 626.296 2.18173 639.398 2.11673 686.384L2.03173 747L47.7667 747.057C72.9207 747.088 101.376 747.293 111.001 747.512C120.626 747.731 185.876 748.158 256.001 748.461C326.126 748.763 402.289 749.305 425.251 749.664L467.001 750.318L467.139 725.409C467.215 711.709 467.24 698.25 467.195 695.5C467.15 692.75 467.052 675.875 466.978 658C466.904 640.125 466.595 626.175 466.292 627C465.216 629.924 462.683 631.969 459.364 632.592C457.1 633.016 456.001 633.783 456.001 634.937C456.001 637.783 451.572 641.194 448.355 640.826C446.135 640.573 445.115 641.111 443.766 643.25C442.359 645.479 441.296 646 438.153 646C434.79 646 433.654 645.336 429.6 641.002C425.046 636.133 418.001 623.281 418.001 619.841C418.001 617.552 413.251 613.082 396.416 599.528C384.059 589.579 381.591 587.076 376.303 579.131C370.692 570.7 368.07 564.467 364.996 552.258C364.312 549.54 362.056 545.896 358.715 542.114C355.847 538.868 353.42 536.282 353.322 536.369C353.223 536.455 352.896 546.195 352.594 558.013C352.032 580.062 350.199 594.733 347.837 596.094C347.102 596.517 345.601 597.555 344.501 598.4C342.708 599.778 342.683 599.94 344.259 599.968C345.41 599.989 347.067 602.158 349.06 606.25C352.276 612.855 352.377 616.487 349.497 621.965C347.427 625.903 332.572 641 330.767 641C327.954 641 327.037 635.11 326.582 614.119C326.31 601.577 325.729 593.328 325.07 592.669C324.311 591.91 324.001 592.123 324.001 593.403C324.001 594.394 322.189 598.872 319.975 603.353C314.018 615.407 313.113 616.955 308.302 623.326L303.902 629.152L304.004 650.826C304.119 675.201 304.107 675.454 303.001 672C302.561 670.625 302.156 661.063 302.101 650.75C302.046 640.438 301.763 632 301.472 632C301.18 632 298.593 633.858 295.722 636.128C280.66 648.037 263.698 654.966 245.001 656.846L238.501 657.5L238.23 677.826C238.026 693.163 237.663 698.054 236.752 697.75C235.321 697.273 235.388 698.21 235.172 675.477L235.001 657.454L228.251 657.188C220.467 656.881 212.526 655.594 205.786 653.548C197.864 651.143 179.819 641.009 174.001 635.698L168.501 630.677L168.163 637.089C167.977 640.615 168.346 649.454 168.983 656.731C170.086 669.318 169.74 674.077 167.955 670.878C167.532 670.12 166.877 660.275 166.5 649L165.814 628.5L160.498 620.5C154.45 611.4 148.677 600.343 145.992 592.717C144.36 588.085 144.093 587.789 143.544 590.009C143.205 591.379 142.59 602.689 142.177 615.142C141.411 638.186 140.881 641 137.305 641C136.507 641 134.2 639.13 132.178 636.845C130.156 634.56 126.992 631.297 125.147 629.595C119.141 624.053 117.549 619.728 117.564 609C117.581 597.161 118.269 589.001 119.251 589C119.663 589 120.001 589.45 120.001 590C120.001 592.502 121.845 590.643 122.424 587.558C122.812 585.493 124.131 583.343 125.725 582.182L128.381 580.248L125.262 578.635C123.546 577.748 121.856 576.117 121.504 575.011C121.153 573.905 120.447 573 119.934 573C118.16 573 119.011 575.737 121.586 578.313C124.137 580.863 124.147 580.931 122.336 583.417C121.327 584.803 120.172 585.951 119.77 585.969C118.583 586.02 117.731 581.21 118.433 578.416C118.809 576.918 118.691 576.073 118.153 576.406C116.719 577.292 116.234 571.965 116.072 553.544C115.989 544.218 115.827 536.509 115.712 536.413C115.596 536.317 112.985 539.043 109.91 542.471ZM163.382 558C163.735 566.525 164.736 583.574 165.606 595.888C166.476 608.201 167 619.555 166.77 621.119C166.455 623.264 167.047 624.628 169.177 626.669L172.001 629.374V626.187C172.001 624.434 172.451 623 173.001 623C173.551 623 174.008 625.138 174.016 627.75C174.027 631.185 174.3 632.085 175.001 631C175.789 629.781 175.973 629.91 175.986 631.691C175.994 632.896 176.495 634.187 177.099 634.56C177.837 635.017 178.119 633.971 177.959 631.369C177.612 625.717 178.153 623.969 179.001 628L179.738 631.5L179.869 627.25C180.111 619.452 181.997 622.771 182.143 631.25C182.257 637.912 182.423 638.73 183.001 635.5C183.537 632.507 183.782 632.129 183.974 634C184.116 635.375 184.158 637.248 184.068 638.161C183.979 639.075 184.377 640.114 184.953 640.47C185.579 640.857 186.001 640.088 186.001 638.559C186.001 637.152 186.451 636 187.001 636C187.551 636 188.001 637.586 188.001 639.525C188.001 642.388 188.482 643.232 190.566 644.025C194.061 645.354 194.001 645.39 194.001 641.941C194.001 639.97 194.392 639.124 195.102 639.562C195.723 639.946 195.955 641.481 195.634 643.083C195.322 644.644 195.502 646.191 196.034 646.52C196.596 646.868 197.001 645.419 197.001 643.059C197.001 640.827 197.451 639 198.001 639C198.551 639 199.001 640.998 199.001 643.441C199.001 645.884 199.451 648.16 200.001 648.5C200.617 648.881 201.001 647.197 201.001 644.118C201.001 636.727 202.84 636.811 203.26 644.221L203.616 650.5L203.808 644.25C204.063 635.992 206.001 636.118 206.001 644.393C206.001 649.3 206.369 650.927 207.583 651.393C210.452 652.494 210.76 652.044 210.248 647.5C209.912 644.522 210.123 643 210.871 643C211.56 643 212.001 644.95 212.001 648C212.001 650.75 212.451 653 213.001 653C213.551 653 214.001 651.2 214.001 649C214.001 646.8 214.451 645 215.001 645C215.551 645 216.001 647.025 216.001 649.5C216.001 651.975 216.423 654 216.938 654C217.454 654 217.629 652.482 217.328 650.627C217.007 648.652 217.241 646.97 217.891 646.568C218.635 646.108 219.001 647.221 219.001 649.941C219.001 652.173 219.451 654 220.001 654C220.551 654 221.001 651.9 221.001 649.333C221.001 646.767 221.3 644.965 221.665 645.331C222.03 645.696 222.258 647.796 222.172 649.997C222.086 652.199 222.462 654 223.008 654C223.556 654 224.001 651.284 224.001 647.941C224.001 644.156 224.376 642.114 225.001 642.5C225.551 642.84 226.001 645.791 226.001 649.059C226.001 652.353 226.447 655 227.001 655C227.551 655 228.008 653.313 228.016 651.25C228.025 649.188 228.468 646.825 229.001 646C229.693 644.929 229.975 646.051 229.986 649.917C229.994 652.896 230.287 655.048 230.636 654.698C231.259 654.075 231.515 652.507 231.976 646.5L232.206 643.5L233.044 647C233.505 648.925 233.635 651.513 233.333 652.75C233.013 654.06 233.247 655 233.893 655C235.265 655 235.351 653 235.434 619.255L235.501 592.01L231.879 592.005C221.42 591.99 199.099 583.534 189.243 575.852C179.888 568.561 171.062 558.568 166.927 550.586L162.739 542.5L163.382 558ZM298.14 559.438C294.461 566.381 281.37 578.917 273.273 583.249C265.666 587.319 249.099 592 242.303 592H238.06L237.781 620.75C237.454 654.328 237.497 655 239.96 655C242.01 655 242.994 653.123 243.016 649.168C243.028 647.078 243.242 646.825 244.001 648C244.534 648.825 245.022 650.625 245.085 652L245.2 654.5L246.001 652C246.441 650.625 246.846 648.038 246.901 646.25C246.956 644.462 247.513 643 248.139 643C248.929 643 249.079 644.677 248.63 648.5C248.098 653.022 248.252 654 249.492 654C250.651 654 251.024 652.665 251.101 648.25C251.173 644.062 251.402 643.179 251.941 645C252.348 646.375 252.615 648.737 252.534 650.25C252.453 651.763 252.862 653.001 253.444 653.002C254.107 653.003 254.375 650.768 254.162 647.002C253.944 643.133 254.21 641 254.912 641C255.565 641 256.001 643.201 256.001 646.5C256.001 650.25 256.401 652 257.258 652C258.14 652 258.405 650.617 258.147 647.372C257.892 644.159 258.119 642.955 258.89 643.431C259.501 643.809 260.001 645.666 260.001 647.559C260.001 651.038 260.551 651.494 263.419 650.393C264.544 649.961 265.001 648.459 265.001 645.193C265.001 639.925 266.624 640.503 267.27 646C267.584 648.675 267.719 648.262 267.841 644.25C268.036 637.859 270.001 637.177 270.001 643.5C270.001 649.817 271.962 649.143 272.181 642.75L272.361 637.5L272.732 642.15L273.102 646.799L277.052 645.248L281.001 643.697L281.101 636.598C281.197 629.877 281.252 629.713 282.154 633.5C282.678 635.7 282.92 638.513 282.692 639.75C282.465 640.987 282.666 642 283.14 642C283.613 642 284.001 640.002 284.001 637.559C284.001 635.116 284.451 632.84 285.001 632.5C285.607 632.126 286.001 633.53 286.001 636.063C286.001 640.18 286.035 640.221 288.251 638.732C290.129 637.47 290.448 636.476 290.179 632.714C290.001 630.23 290.338 627.91 290.929 627.545C291.624 627.115 292.001 628.307 292.001 630.941C292.001 633.173 292.471 635 293.046 635C293.693 635 293.849 633.708 293.457 631.615C293.074 629.575 293.255 627.961 293.911 627.556C294.609 627.124 295.001 628.005 295.001 630C295.001 631.824 295.416 632.862 296.001 632.5C296.551 632.16 297.033 629.996 297.071 627.691C297.126 624.433 297.333 623.945 298.001 625.5C298.679 627.079 298.878 626.657 298.946 623.5C299.01 620.533 299.282 619.887 300.001 621C300.534 621.825 300.977 623.587 300.986 624.917C300.994 626.246 301.132 627.146 301.292 626.917C301.452 626.687 301.34 610.408 301.042 590.741L300.501 554.982L298.14 559.438ZM465.012 590.487C462.94 592.984 444.827 604.701 437.332 608.394C433.575 610.245 427.914 612.57 424.751 613.562C419.205 615.301 417.374 617.439 420.428 618.61C422.545 619.423 429.081 616.232 446.409 605.927C464.324 595.273 469.032 591.711 467.409 590.04C466.603 589.21 465.974 589.327 465.012 590.487ZM2.00073 591.406C2.00073 593.406 9.63273 598.636 27.7287 609.037C44.7467 618.818 47.7217 620.05 49.0927 617.885C50.5057 615.654 50.2807 615.453 44.2507 613.561C41.0877 612.569 36.4757 610.821 34.0007 609.677C27.4387 606.643 12.2237 597.317 7.43373 593.391C2.85773 589.642 2.00073 589.329 2.00073 591.406ZM2.00073 606.807V618.569L5.25073 620.466C8.49873 622.362 10.1757 623.571 21.5727 632.236C24.9127 634.776 29.7267 637.865 32.2717 639.101L36.8977 641.349L38.9587 638.924C40.0927 637.591 42.6467 633.186 44.6347 629.136C47.5527 623.193 47.9847 621.604 46.8757 620.901C46.1197 620.422 45.0187 620.024 44.4307 620.015C43.0047 619.995 20.6117 607.151 10.2507 600.412L2.00073 595.045V606.807ZM462.684 597.541C459.184 600.62 432.544 616.44 426.189 619.213C423.61 620.339 421.318 621.422 421.094 621.62C420.473 622.17 427.721 636.173 430.051 638.924L432.104 641.349L436.302 639.304C438.612 638.18 443.737 634.839 447.692 631.88C455.408 626.108 463.766 620.179 465.678 619.123C466.418 618.713 467.079 614.122 467.46 606.736C468.129 593.775 467.764 593.073 462.684 597.541ZM348.062 597.427C347.133 598.545 347.29 599.657 348.788 602.576C351.062 607.008 352.313 605.801 351.395 600.061C350.702 595.731 349.958 595.143 348.062 597.427ZM170.08 625.583C170.128 626.748 170.365 626.985 170.684 626.188C170.973 625.466 170.937 624.603 170.605 624.271C170.273 623.939 170.037 624.529 170.08 625.583ZM276.001 637C276.001 641 276.43 644 277.001 644C277.572 644 278.001 641 278.001 637C278.001 633 277.572 630 277.001 630C276.43 630 276.001 633 276.001 637ZM288.273 634C288.273 636.475 288.468 637.487 288.707 636.25C288.945 635.013 288.945 632.987 288.707 631.75C288.468 630.513 288.273 631.525 288.273 634ZM179.196 634.5C179.216 636.15 179.44 636.704 179.694 635.731C179.948 634.758 179.931 633.408 179.657 632.731C179.383 632.054 179.176 632.85 179.196 634.5ZM191.016 639.75C191.027 641.751 191.274 642.116 191.924 641.091C192.414 640.316 192.584 639.078 192.301 638.341C191.49 636.226 191 636.764 191.016 639.75ZM207.608 643.582C206.673 646.019 206.888 649.812 208.001 650.5C208.612 650.878 209.001 649.344 209.001 646.559C209.001 641.77 208.618 640.951 207.608 643.582ZM261.069 646.95C261.017 649.58 261.279 650.122 262.168 649.233C263.032 648.369 263.049 647.47 262.236 645.783C261.203 643.639 261.132 643.71 261.069 646.95ZM239.031 651.45C239.009 653.601 239.3 654.101 240.105 653.296C240.896 652.505 240.904 651.67 240.135 650.346C239.194 648.728 239.058 648.864 239.031 651.45ZM166.89 675.25C166.241 676.487 165.1 677.86 164.355 678.3C162.587 679.344 162.62 681.64 164.413 682.328C165.189 682.626 166.404 684.474 167.114 686.435C168.655 690.698 171.001 691.174 171.001 687.223C171.001 685.695 171.721 683.417 172.601 682.161C174.001 680.162 174.02 679.667 172.753 678.189C171.956 677.26 171.026 675.712 170.684 674.75C169.835 672.354 168.305 672.555 166.89 675.25ZM302.668 676.667C302.301 677.033 302.001 678.373 302.001 679.644C302.001 681.004 300.974 682.627 299.501 683.592C296.485 685.568 296.308 687.006 298.995 687.709C300.246 688.036 301.424 689.679 302.154 692.115C302.794 694.252 303.809 695.978 304.409 695.951C305.01 695.924 306.498 693.895 307.716 691.443L309.93 686.984L307.466 683.353C306.11 681.355 305.001 678.884 305.001 677.86C305.001 675.989 303.906 675.429 302.668 676.667ZM167.401 679.4C167.035 680.354 167.23 681.629 167.835 682.234C168.635 683.034 169.117 682.861 169.601 681.6C169.967 680.646 169.772 679.371 169.167 678.766C168.367 677.966 167.885 678.139 167.401 679.4ZM302.689 684.696C301.806 686.125 304.885 689.516 306.028 688.373C306.722 687.679 306.432 686.795 305.124 685.611C304.066 684.653 302.97 684.241 302.689 684.696ZM169.001 694.5C169.001 695.325 169.451 696 170.001 696C170.551 696 171.001 695.325 171.001 694.5C171.001 693.675 170.551 693 170.001 693C169.451 693 169.001 693.675 169.001 694.5ZM169.001 700.583C169.001 702.349 171.154 702.042 171.772 700.188C171.99 699.534 171.455 699 170.584 699C169.714 699 169.001 699.712 169.001 700.583ZM303.193 701.075C303.39 701.666 303.979 702.15 304.501 702.15C305.023 702.15 305.612 701.666 305.809 701.075C306.006 700.484 305.418 700 304.501 700C303.584 700 302.996 700.484 303.193 701.075ZM235.395 703.75C235.041 705.263 233.795 707.293 232.626 708.263C230.628 709.919 230.605 710.105 232.24 711.365C233.197 712.102 234.666 714.346 235.504 716.352C237.281 720.605 239.001 721.122 239.001 717.404C239.001 715.977 239.784 713.483 240.742 711.862C241.949 709.818 242.145 708.699 241.381 708.208C240.776 707.818 239.531 706.038 238.615 704.25C236.587 700.292 236.218 700.235 235.395 703.75ZM169.501 706C169.841 706.55 170.542 707 171.06 707C171.578 707 172.001 706.55 172.001 706C172.001 705.45 171.299 705 170.442 705C169.585 705 169.161 705.45 169.501 706ZM304.001 706.5C304.001 707.417 304.485 708.005 305.076 707.808C305.667 707.611 306.151 707.023 306.151 706.5C306.151 705.977 305.667 705.389 305.076 705.192C304.485 704.995 304.001 705.583 304.001 706.5ZM235.598 708.844C235.252 709.404 235.456 710.163 236.051 710.531C237.589 711.481 238.581 710.18 237.297 708.896C236.579 708.178 236.02 708.161 235.598 708.844ZM303.447 712.087C302.417 713.755 304.734 715.667 306.114 714.287C307.268 713.133 306.546 711 305.001 711C304.516 711 303.817 711.489 303.447 712.087ZM237.668 722.667C236.517 723.817 236.939 725 238.501 725C239.326 725 240.001 724.325 240.001 723.5C240.001 721.938 238.818 721.516 237.668 722.667ZM237.64 729.694C236.514 730.82 236.955 732 238.501 732C239.326 732 240.001 731.577 240.001 731.059C240.001 729.798 238.439 728.895 237.64 729.694ZM237.501 735C237.102 735.646 237.225 736.624 237.775 737.174C238.442 737.841 239.017 737.783 239.501 737C239.9 736.354 239.777 735.376 239.227 734.826C238.56 734.159 237.985 734.217 237.501 735ZM124.668 763.667C124.301 764.033 124.015 765.946 124.033 767.917L124.064 771.5L126.12 768.745C127.25 767.23 128.586 766.244 129.088 766.554C129.59 766.864 130.001 770.241 130.001 774.059C130.001 779.724 129.71 781 128.418 781C127.547 781 127.022 781.563 127.251 782.25C127.48 782.938 128.193 783.455 128.834 783.4C129.476 783.345 131.801 783.232 134.001 783.15C138.225 782.992 139.373 781.592 136.001 780.71C134.258 780.255 134.001 779.346 134.001 773.653C134.001 766.782 135.164 764.568 136.986 767.972C138.64 771.062 140.001 770.398 140.001 766.5V763H132.668C128.634 763 125.034 763.3 124.668 763.667ZM143.115 763.93C142.037 764.595 142.187 765.186 143.858 766.857C145.008 768.007 146.229 770.198 146.57 771.725C147.606 776.357 150.226 783 151.018 783C151.428 783 152.287 780.92 152.927 778.378C154.21 773.283 154.995 773.365 156.511 778.752C158.442 785.614 159.842 784.188 162.426 772.725C162.77 771.198 163.975 769.026 165.104 767.897C167.91 765.091 166.855 762.562 163.239 763.426C159.977 764.206 160.319 764.201 151.483 763.585C147.623 763.316 143.857 763.471 143.115 763.93ZM171.354 764.465C163.774 769.774 165.904 781.953 174.701 783.603C178.699 784.354 181.496 782.345 183.696 777.146C185.569 772.718 184.576 768.662 180.851 765.527C177.449 762.665 174.409 762.325 171.354 764.465ZM201.354 764.465C196.229 768.055 195.174 776.21 199.254 780.698C203.872 785.778 210.785 784.154 213.641 777.319C215.567 772.709 214.618 768.697 210.851 765.527C207.449 762.665 204.409 762.325 201.354 764.465ZM215.001 763.878C215.001 764.361 215.883 765.373 216.961 766.128C218.684 767.334 218.848 768.274 218.311 773.883C217.826 778.945 217.316 780.366 215.85 780.75C211.97 781.764 214.249 783 220.001 783C225.678 783 227.932 781.678 224.501 780.362C223.646 780.034 223.001 778.542 223.001 776.893C223.001 773.606 224.92 772.974 225.711 776C226.648 779.584 228.001 778.107 228.001 773.5C228.001 768.985 226.772 767.55 225.575 770.667C224.654 773.069 222.744 770.848 223.166 767.865C223.649 764.452 227.26 764.242 229.806 767.479C232.103 770.399 233.553 769.334 232.576 765.443C231.986 763.093 231.642 763 223.482 763C218.817 763 215.001 763.395 215.001 763.878ZM245.115 763.93C244.037 764.595 244.187 765.186 245.858 766.857C247.008 768.007 248.218 770.198 248.545 771.725C249.586 776.582 252.136 783 253.025 783C253.497 783 254.262 781.087 254.724 778.75C255.714 773.741 257.107 773.738 258.511 778.742C260.44 785.617 261.841 784.192 264.426 772.725C264.77 771.198 265.975 769.026 267.104 767.897C268.232 766.769 268.91 765.205 268.61 764.423C267.985 762.793 263.433 762.491 262.491 764.016C262.145 764.575 261.407 764.751 260.85 764.407C259.22 763.399 246.592 763.017 245.115 763.93ZM274.175 765.169C269.798 777.338 268.473 780.212 266.837 781.088C265.796 781.645 265.138 782.415 265.375 782.8C266.022 783.854 287.001 783.016 287.001 781.936C287.001 781.421 286.161 781 285.135 781C283.345 781 282.018 778.155 278.411 766.582C277.246 762.845 275.25 762.179 274.175 765.169ZM288.732 763.603C288.348 763.987 289.151 765.337 290.517 766.603C293.84 769.682 294.152 778.314 291.001 780C287.699 781.767 288.726 783 293.501 783C298.18 783 299.058 782.122 296.501 780C294.981 778.739 294.335 770.992 295.751 771.009C296.164 771.014 298.238 773.714 300.361 777.009C302.484 780.304 304.622 783 305.111 783C305.601 783 306.001 779.223 306.001 774.607C306.001 768.069 306.333 766.087 307.501 765.638C310.402 764.525 308.957 763 305.001 763C300.788 763 300.011 763.933 302.501 766C304.129 767.351 304.588 773 303.069 773C302.183 773 299.8 769.846 297.4 765.496C296.295 763.494 290.176 762.158 288.732 763.603ZM311.497 764.007C311.154 764.561 311.578 765.284 312.438 765.614C314.857 766.543 314.693 780.52 312.251 781.46C308.611 782.863 313.828 784.216 320.078 783.491C324.783 782.945 326.429 782.272 328.028 780.239C330.835 776.67 331.44 773.475 329.979 769.947C327.911 764.955 324.519 763 317.925 763C314.732 763 311.839 763.453 311.497 764.007ZM335.173 764.592C331.42 767.221 333.043 774 337.425 774C340.682 774 344.501 777.254 343.699 779.344C342.444 782.615 336.001 779.89 336.001 776.088C336.001 773.05 333.469 776.03 333.186 779.401C332.922 782.544 333.164 783.105 334.686 782.882C335.684 782.736 337.536 782.965 338.8 783.391C343.806 785.078 348.667 778.192 345.684 773.639C344.709 772.151 344.548 770.754 345.16 769.1C345.646 767.786 345.812 765.988 345.529 765.105C344.834 762.941 338.013 762.603 335.173 764.592ZM172.944 767.106C171.65 769.525 171.362 776.442 172.418 779.75C173.282 782.459 178.422 782.952 179.394 780.418C180.372 777.87 180.091 769.037 178.966 766.934C177.597 764.377 174.355 764.47 172.944 767.106ZM203.239 766.25C201.425 768.501 200.858 773.755 201.978 777.916C202.939 781.484 203.439 782 205.933 782C207.613 782 209.037 781.349 209.394 780.418C210.329 777.98 210.113 770.425 209.026 767.565C207.981 764.818 204.948 764.128 203.239 766.25ZM150.016 768.75C150.035 772.165 151.415 774.48 152.889 773.569C154.364 772.658 154.309 768.708 152.801 767.2C150.893 765.292 150 765.789 150.016 768.75ZM158.016 768.75C158.025 770.263 158.449 772.16 158.959 772.966C159.698 774.135 160.109 773.847 160.984 771.544C162.266 768.173 161.697 766 159.532 766C158.525 766 158.006 766.941 158.016 768.75ZM252.001 769.358C252.001 773.167 253.508 774.893 255.283 773.118C256.613 771.788 255.161 766.883 253.251 766.248C252.409 765.969 252.001 766.984 252.001 769.358ZM260.016 768.75C260.025 770.263 260.449 772.16 260.959 772.966C261.698 774.135 262.109 773.847 262.984 771.544C264.266 768.173 263.697 766 261.532 766C260.525 766 260.006 766.941 260.016 768.75ZM318.668 766.667C317.834 767.5 317.787 778.28 318.608 780.418C319.424 782.544 322.311 782.419 324.346 780.171C326.311 778 326.626 769.025 324.801 767.2C323.507 765.906 319.754 765.58 318.668 766.667ZM336.543 766.932C335.898 767.976 339.748 771 341.724 771C343.336 771 343.381 768.78 341.801 767.2C340.374 765.773 337.354 765.619 336.543 766.932ZM274.001 772.5C274.001 773.325 274.451 774 275.001 774C275.551 774 276.001 773.325 276.001 772.5C276.001 771.675 275.551 771 275.001 771C274.451 771 274.001 771.675 274.001 772.5ZM272.474 778.044C271.466 779.675 273.86 781.85 276.038 781.28C278.981 780.51 278.59 777 275.56 777C274.217 777 272.829 777.47 272.474 778.044Z" fill="black"/>
</svg>
