<svg width="474" height="793" viewBox="0 0 474 793" fill="none" xmlns="http://www.w3.org/2000/svg">
<path fill-rule="evenodd" clip-rule="evenodd" d="M10.5001 0.945L1.50014 1.5L0.878136 7C0.0561361 14.271 -0.232864 787.222 0.585136 790.483L1.21814 793.004L235.859 792.752L470.5 792.5L470.661 784.5C470.75 780.1 471.151 761.603 471.553 743.396C472.108 718.217 471.998 710.117 471.093 709.557C470.236 709.028 470.204 708.459 470.978 707.526C472.138 706.129 472.539 633.861 473.643 227.25C474.037 82.322 473.913 0 473.301 0C472.753 0 472.375 3.862 472.42 9C472.464 13.95 472.163 18 471.75 18C471.337 18 471 17.273 471 16.385C471 13.3 465.587 4.838 462.548 3.171L459.5 1.5L465 0.91C471.971 0.162 22.6471 0.197 10.5001 0.945ZM366.5 1.907C363.006 2.321 362.043 2.722 363.301 3.238C364.292 3.644 365.992 5.988 367.079 8.446C368.584 11.848 369.454 12.763 370.722 12.277C372.096 11.749 372.003 12.259 370.194 15.187C368.987 17.139 368 19.048 368 19.429C368 19.811 369.931 19.833 372.29 19.479C381.066 18.163 397.26 23.027 403.335 28.804C408.678 33.885 412.509 40.66 414.6 48.723C414.824 49.587 416.447 49.238 420.123 47.534C423.982 45.747 425.69 44.265 426.724 41.811C428.808 36.861 429.475 26.769 428.053 21.69C426.276 15.344 420.411 8.21 414 4.6C408.813 1.678 407.925 1.507 398.409 1.594C389.238 1.677 387.755 1.966 382.159 4.763C375.345 8.168 373.681 7.672 380 4.12C382.2 2.884 384 1.676 384 1.436C384 0.858 372.802 1.16 366.5 1.907ZM417.95 5.622C421.76 8.486 425.169 12.118 426.914 15.173L429.729 20.103L430.356 16.972C431.549 11.003 434.306 6.762 438.874 3.865L443.392 1H427.597H411.802L417.95 5.622ZM446.479 2.394C436.229 5.606 433.451 9.815 431.435 25.183C430.619 31.408 429.524 38.05 429.002 39.944C428.481 41.838 428.155 43.486 428.277 43.606C428.4 43.726 431.309 42.902 434.742 41.775L440.985 39.725L437.415 35.774C435.451 33.6 434.115 31.552 434.445 31.221C434.776 30.891 435.731 31.599 436.569 32.795C437.407 33.991 440.118 36.157 442.593 37.608C446.324 39.794 447.955 40.163 452.122 39.762C457.649 39.231 460.836 37.283 465.397 31.648C467.87 28.592 468.482 26.798 468.811 21.63C469.425 11.992 465.442 5.347 457.316 2.449C452.673 0.793 451.605 0.788 446.479 2.394ZM124.611 3.984C127.116 9.864 124.983 15 120.036 15C118.431 15 116.829 14.532 116.475 13.96C116.058 13.285 116.744 13.149 118.429 13.572C121.775 14.411 124 12.559 124 8.934C124 5.212 120.732 3 115.232 3C109.975 3 106.464 6.011 105.456 11.382C104.505 16.452 105.595 19.795 109.459 23.659C112.026 26.226 113.645 27 116.45 27C123.216 27 127.905 23.261 132.726 14.018C134.425 10.761 137.37 7.175 139.983 5.183L144.38 1.828L134.173 2.148C125.509 2.419 124.063 2.697 124.611 3.984ZM146.942 2.973C141.776 4.491 139.837 6.268 134.583 14.299C128.634 23.393 125.837 26.36 121.75 27.908C118.562 29.116 113.538 28.405 110.102 26.258C107.792 24.815 107.729 24.847 108.389 27.13C112.082 39.914 108.244 51.72 98.8081 56.599C95.2511 58.439 84.7781 58.178 82.8021 56.202C81.1111 54.511 82.4821 53.652 84.8491 54.919C85.9601 55.514 89.4321 56 92.5661 56C97.7681 56 98.5471 55.7 101.523 52.545C113.545 39.797 108.037 16.946 90.5201 6.898C87.7591 5.315 86.1991 4.015 87.0541 4.009C89.2991 3.996 97.1251 9.174 100.82 13.117L103.991 16.5L104.002 13C104.007 11.075 104.685 8.211 105.506 6.636C106.328 5.06 107 3.589 107 3.366C107 3.143 98.1121 3.086 87.2501 3.24C68.6661 3.504 67.2071 3.664 62.5431 5.949C53.2381 10.51 46.4311 18.702 43.8641 28.432C43.1061 31.304 41.4621 33.616 38.2741 36.296C35.7901 38.383 33.5021 39.835 33.1891 39.523C32.8761 39.21 33.5991 38.269 34.7951 37.431C37.8211 35.311 42.0001 27.872 42.0001 24.603C42.0001 23.106 42.4331 22.149 42.9621 22.476C43.4911 22.803 44.8371 21.28 45.9531 19.092C48.6661 13.775 54.1381 8.608 60.3221 5.527L65.3931 3H46.9601H28.5271L33.5131 6.381C38.2381 9.584 42.0001 14.316 42.0001 17.054C42.0001 17.739 40.6681 16.461 39.0391 14.213C34.0891 7.379 29.6491 5 21.8461 5C15.8191 5 14.7271 5.327 10.8341 8.296C4.94514 12.788 3.85414 15.224 4.25414 23C4.92614 36.08 11.5801 41.524 28.7501 43.039C34.1131 43.512 39.9851 44.424 41.8011 45.065C45.9781 46.541 46.5411 45.947 44.5741 42.143C43.7081 40.469 43.0321 38.064 43.0701 36.8C43.1151 35.353 43.9971 36.714 45.4501 40.473C46.7201 43.758 48.3761 46.755 49.1291 47.134C49.8831 47.514 53.1231 49.08 56.3301 50.616C59.9771 52.362 62.6911 54.436 63.5801 56.154C65.5141 59.894 65.3871 60.7 62.5761 62.542C60.4261 63.951 59.8341 63.965 57.3241 62.667C53.6051 60.744 50.9501 57.731 48.5001 52.655C46.0561 47.589 40.5511 45.131 31.5001 45.064C20.8751 44.985 11.4621 50.78 6.59814 60.394C4.06614 65.398 3.78314 66.972 3.78314 76.017C3.78314 84.797 4.10814 86.734 6.34414 91.252C9.35114 97.327 9.17414 98.636 6.03314 93.553C4.82514 91.599 3.64914 90 3.41814 90C3.18814 90 3.00014 94.99 3.00014 101.089V112.178L6.14014 109.536C7.86614 108.083 10.5761 106.635 12.1601 106.318C14.9721 105.756 17.1671 104 15.0591 104C14.4771 104 14.0001 103.513 14.0001 102.918C14.0001 102.324 15.4631 102.734 17.2501 103.83C21.2991 106.314 33.2311 108.808 33.7411 107.277C33.9351 106.694 35.8731 103.268 38.0471 99.664C40.2211 96.059 42.0001 92.86 42.0001 92.555C42.0001 92.25 40.9011 92 39.5571 92C38.1761 92 36.4461 91.047 35.5801 89.81C33.6441 87.046 34.4021 86.149 36.8231 88.339C39.2371 90.524 41.7811 90.431 45.7501 88.011C48.5581 86.299 49.0001 85.477 49.0001 81.969C49.0001 77.608 45.6351 73 42.4501 73C39.9811 73 35.0741 76.192 34.4311 78.216C33.6411 80.705 32.0661 80.462 32.7231 77.952C33.6871 74.264 39.5641 70.729 45.2921 70.392C49.0231 70.172 49.6491 70.289 47.5001 70.806C44.5441 71.516 44.5311 71.548 46.5911 73.013C49.1441 74.828 51.0001 78.162 51.0001 80.934C51.0001 83.442 51.3881 83.475 55.0961 81.284C58.1581 79.476 58.6431 78.515 57.0051 77.503C56.4581 77.165 55.5001 75.901 54.8761 74.694C53.8901 72.789 54.1221 72.858 56.6401 75.217L59.5401 77.933L66.0201 75.881C74.6371 73.152 90.6591 73.637 99.1051 76.882C104.34 78.893 114.462 84.871 113.783 85.55C113.616 85.718 109.884 84.084 105.489 81.919C88.8991 73.748 70.6431 73.888 57.3341 82.289C46.9431 88.849 36.9121 103.024 33.4791 116C30.9551 125.538 31.0201 125.667 38.7501 126.456C48.8371 127.486 56.7691 129.744 63.8191 133.59L70.1381 137.038L73.2861 134.796C78.3641 131.181 87.8671 127.033 92.3481 126.477C96.1421 126.007 96.0351 126.095 91.1051 127.498C83.3011 129.719 76.5701 133.683 71.6221 138.973C67.0831 143.825 63.0001 152.854 63.0001 158.038C63.0001 159.667 62.5591 161 62.0191 161C60.2211 161 62.1051 151.644 65.2211 145.105L68.2681 138.711L65.8841 136.878C60.4511 132.701 50.5681 129.517 39.5801 128.406C28.4361 127.278 14.0401 131.441 7.12614 137.791C2.70314 141.853 2.59414 142.325 2.85514 156.28L3.00014 164.06L5.75014 162.065C9.62714 159.253 20.0001 156.954 20.0001 158.906C20.0001 159.405 17.7581 160.121 15.0191 160.497C10.5431 161.113 5.76814 163.645 3.76514 166.466C3.36114 167.034 3.02414 173.297 3.01514 180.382L3.00014 193.264L6.75014 196.801C12.6921 202.407 28.0001 208.407 28.0001 205.131C28.0001 204.509 28.4501 204 29.0001 204C29.5501 204 30.0001 204.86 30.0001 205.911C30.0001 206.962 30.9501 210.304 32.1111 213.337C36.3811 224.496 48.7991 233.19 63.3921 235.238C72.3471 236.495 78.0191 235.642 78.7281 232.934C79.3031 230.734 80.1111 230.511 81.7111 232.111C83.0521 233.452 90.3921 229.714 96.4761 224.591L100.452 221.243L96.7261 217.119C91.6371 211.486 91.9941 209.589 97.1611 214.808C103.485 221.195 110.604 224.256 120.361 224.784C127.055 225.146 128.278 224.991 127.25 223.912C125.154 221.712 125.833 220.097 129.5 218.564C131.425 217.76 133.037 216.517 133.082 215.801C133.26 212.981 134.158 208.509 134.642 208.024C134.924 207.743 136.389 209.026 137.898 210.875C140.311 213.831 141.026 214.153 143.821 213.539C145.685 213.13 147 213.242 147 213.809C147 214.342 145.376 215.082 143.39 215.455C140.416 216.013 139.526 215.768 138.334 214.066C136.283 211.139 135 211.505 135 215.016C135 217.487 134.358 218.339 131.451 219.725L127.902 221.417L130.201 223.164C132.187 224.673 132.33 225.188 131.25 226.942C129.453 229.862 129.676 230.298 132.598 229.565C134.528 229.08 136.073 229.581 138.602 231.51L142.008 234.108L143.034 231.304C143.598 229.762 144.259 227.931 144.504 227.235C144.749 226.539 146.151 225.513 147.62 224.954L150.291 223.939L148.117 221.625C146.019 219.391 146.064 215.304 148.173 216.607C148.703 216.934 148.917 217.775 148.648 218.475C148.379 219.175 149.249 220.33 150.58 221.043C153.91 222.825 153.613 224.337 149.552 226.274C141.864 229.94 142.628 240.334 151.949 258.886C158.239 271.406 164.916 280.357 170.703 284.027C174.999 286.751 181.504 288.829 182.529 287.804C182.769 287.565 182.464 284.527 181.853 281.054C180.414 272.889 178.28 270.608 172.925 271.513C168.484 272.263 168.382 272.096 170.617 267.773C172.126 264.855 172.117 264.559 170.476 263.359C169.508 262.651 168.218 261.859 167.608 261.599C165.928 260.881 169.997 258 172.691 258C174.756 258 175 257.531 175 253.559C175 247.747 176.395 247.077 179.216 251.533C181.468 255.09 181.574 255.133 186.75 254.562C189.637 254.243 192 254.254 192 254.587C192 254.919 191.02 256.567 189.823 258.249L187.646 261.306L190.552 263.624C193.711 266.142 193.224 267.597 189.033 268.165C187.624 268.357 185.925 269.648 185.069 271.178C183.782 273.478 183.753 274.75 184.862 280.178C185.572 283.655 186.507 286.865 186.938 287.311C188.085 288.498 195.766 279.38 198.993 273C204.02 263.063 205.225 257.521 205.518 243C205.867 225.667 205.487 223.28 201.662 218.784C198.694 215.296 198.273 215.12 194.8 215.917C190.169 216.981 189.623 216.446 191.718 212.9C193.29 210.24 193.278 209.965 191.515 208.017C189.203 205.462 190.207 204.343 195.5 203.577L199.5 202.999L196.16 204.539C193.415 205.805 193.034 206.336 194.022 207.526C194.701 208.344 194.949 210.067 194.593 211.487C194.03 213.73 194.268 214 196.807 214C198.548 214 200.562 214.97 202 216.5C203.292 217.875 204.618 219 204.947 219C205.276 219 206.368 217.472 207.374 215.605C208.617 213.297 210.147 212.021 212.154 211.619L215.105 211.029L213.057 208.831C211.191 206.828 211.142 206.432 212.505 204.352C214.566 201.206 214.543 201.184 209.661 201.735C205.875 202.161 205.06 201.892 203.275 199.622C201.345 197.169 201.198 197.134 200.708 199.01C199.852 202.281 197.978 201.358 198.651 197.997L199.251 194.995L193.376 198.538C184.79 203.715 178.775 205.175 167.538 204.81C161.306 204.607 158.001 204.109 158.001 203.371C158 202.751 156.537 201.656 154.75 200.939C151.931 199.807 145.076 195 146.282 195C146.522 195 149.369 196.339 152.609 197.977C169.742 206.634 188.06 203.217 202.089 188.746C207.65 183.009 213 173.892 213 170.15C213 169.163 211.68 165.913 210.067 162.928C208.454 159.942 206.618 154.52 205.987 150.879L204.839 144.257L198.17 143.773C194.501 143.506 189.209 142.298 186.408 141.089C180.932 138.724 173.35 131.65 170.264 126.026C168.98 123.686 167.402 122.354 165.429 121.944C157.556 120.306 150.48 113.572 147.078 104.479C143.86 95.877 143.717 90.007 146.477 79.75L147.217 77H141.268C129.955 77 115.42 87.156 108.666 99.782C105.386 105.913 102 117.061 102 121.728C102 124.452 102.433 125.051 104.75 125.526C112.625 127.143 115.013 128.272 118.336 131.951C122.618 136.689 124.35 142.43 123.423 148.804C121.695 160.689 113.607 169.206 102.753 170.573C92.2051 171.901 83.9971 160.758 89.4231 152.477C92.0171 148.518 92.9391 149.616 90.7451 154.051C83.5731 168.546 106.025 174.145 116.46 160.464C127.296 146.256 119.548 127 102.994 127C100.862 127 98.8401 126.55 98.5001 126C98.1601 125.45 98.3591 125 98.9411 125C99.5231 125 100 123.295 100 121.21C100 112.5 104.483 100.967 111.595 91.38C118.805 81.662 134.308 73.973 144.058 75.281C147.498 75.742 148.112 75.444 150.927 71.942L154.018 68.095L151.774 63.798C150.029 60.453 149.531 57.826 149.529 51.952C149.525 41.804 153.444 33.582 162.103 25.565C176.579 12.163 194.273 8.797 208.877 16.666L215.254 20.102L219.877 18.476C226.177 16.26 242.95 15.44 251.568 16.927C265.976 19.413 281.826 28.031 289.25 37.417C293.923 43.324 292.321 42.559 284.54 35.168C276.371 27.409 273.446 25.661 261.5 21.407C254.036 18.749 252.461 18.556 238 18.529L222.5 18.5L213.846 22.732C207.215 25.975 204.005 28.296 200.114 32.661C194.611 38.835 186.267 53.741 187.648 54.93C188.117 55.333 190.456 56.22 192.847 56.901C195.238 57.582 196.968 58.365 196.691 58.642C196.414 58.919 194.458 58.665 192.344 58.078C184.221 55.823 175.1 57.357 164.5 62.76C156.96 66.604 152.861 70.862 149.35 78.5C145.367 87.163 145.067 94.742 148.384 102.906C152.531 113.113 157.866 118.687 165.25 120.53L168 121.217L168.102 115.358C168.189 110.349 168.328 109.935 169.06 112.5C169.531 114.15 170.187 117.639 170.52 120.253C171.962 131.603 186.313 142 200.538 142C205.531 142 206.001 141.807 206.015 139.75C206.024 138.512 206.5 136.825 207.074 136C207.847 134.889 208.015 135.667 207.722 139C207.119 145.834 208.699 156.49 210.976 160.954C219.383 177.431 241.823 185.333 262.25 179.009C269.252 176.842 270.03 176.1 267.5 174C264.691 171.668 265.988 170.931 268.992 173.152L271.984 175.364L274.492 173.008C275.871 171.712 277 171.154 277 171.769C277 172.384 275.988 173.604 274.75 174.481L272.5 176.075L275 178.072C279.042 181.299 284.54 183.906 290.68 185.505C302.836 188.671 326.858 186.54 337.176 181.38C343.474 178.23 359.018 164.825 362.037 159.94C363.376 157.773 364.816 156 365.236 156C366.597 156 366.053 157.54 363.45 161.056L360.9 164.5L364.489 164.813C373.878 165.631 388.426 159.739 394.721 152.569C400.259 146.261 402.15 140.365 402.763 127.5C403.09 120.632 403.583 117.251 404.073 118.5C405.347 121.742 405.107 133.151 403.646 138.782C402.902 141.652 402.467 144 402.68 144C402.892 144 405.23 142.903 407.875 141.563C414.457 138.228 421.872 129.709 425.449 121.372C428.016 115.391 428.451 112.999 428.8 102.924L429.2 91.348L425.686 84.369C423.242 79.515 420.169 75.517 415.6 71.243C409.979 65.985 407.836 64.706 400.765 62.394C391.165 59.255 379.073 58.687 372.5 61.067L368.5 62.515L368.847 70.133C369.895 93.173 358.795 105.68 341.547 100.891C336.629 99.526 330.957 94.066 331.116 90.85C331.217 88.804 331.295 88.758 331.716 90.5C331.982 91.6 333.167 93.57 334.35 94.879C341.409 102.689 356.942 101.478 362.816 92.659C368.282 84.455 369.3 69.884 364.956 62.04C359.905 52.921 345.927 45 334.884 45C329.71 45 313.649 48.619 308.276 50.996C302.616 53.5 302.753 52.004 308.437 49.243C315.306 45.905 324.686 43.779 333.938 43.462L342.377 43.173L344.588 38.836C345.804 36.451 348.818 32.515 351.286 30.09L355.773 25.679L351.64 23.59C348.366 21.934 346.625 19.941 343.263 14C340.929 9.875 339.015 6.136 339.01 5.691C338.989 3.95 340.944 6.24 343.799 11.298C350.403 23 354.867 25.639 361.944 22.028C364.836 20.553 365.869 19.347 366.206 17.052C366.762 13.263 364.843 7.526 362.011 4.512C359.949 2.317 359.147 2.207 344.332 2.083C330.029 1.963 328.538 2.122 325.303 4.122C318.059 8.599 315.652 17.743 320.455 22.545C323.17 25.261 327.563 25.771 330.395 23.701C332.633 22.064 332.215 17.141 329.708 15.601C328.245 14.702 327.56 14.959 325.98 17C324.627 18.747 324.038 19.033 324.022 17.95C323.966 14.043 329.461 12.642 332.345 15.829C334.539 18.253 334.432 20.181 331.927 23.365C329.468 26.492 325.249 26.851 320.933 24.301C314.931 20.756 314.96 12.229 320.995 5.885L324.69 2H240.238C162.346 2 155.835 2.128 156.416 3.641C156.887 4.868 156.724 5.029 155.773 4.279C153.817 2.737 149.777 2.14 146.942 2.973ZM3.00014 8C3.00014 13.075 4.33714 14.663 5.50714 10.978C5.86014 9.865 8.47814 7.62 11.3241 5.987L16.5001 3.019L9.75014 3.009L3.00014 3V8ZM350.136 7.679C350.061 9.427 350.707 11.564 351.571 12.429C353.403 14.26 357.565 14.513 358.59 12.854C359.084 12.055 358.539 11.899 356.79 12.338C353.882 13.068 351.44 10.918 350.727 7C350.336 4.851 350.253 4.946 350.136 7.679ZM444.38 9.452C444.047 10.32 444.008 11.923 444.293 13.014C444.659 14.413 443.956 15.607 441.906 17.067C438.086 19.787 438.239 20.623 442.75 21.681C446.009 22.445 446.676 23.113 447.845 26.78C449.435 31.77 451.422 32.179 453.797 28.006C454.733 26.36 456.082 25.01 456.794 25.006C457.505 25.003 457.955 24.424 457.794 23.72C457.632 23.017 457.95 22.454 458.5 22.47C459.05 22.487 459.438 23.063 459.361 23.75C459.285 24.438 460.072 25 461.111 25C463.548 25 463.495 24.155 460.881 21.374C459.026 19.399 458.904 18.714 459.898 15.862C460.808 13.254 460.754 12.325 459.627 11.198C458.449 10.02 457.638 10.002 454.646 11.083C451.594 12.187 450.812 12.152 449.286 10.84C446.138 8.133 445.009 7.814 444.38 9.452ZM445.71 12C445.998 13.1 446.856 14 447.617 14C449.383 14 449.369 13.227 447.571 11.429C445.617 9.474 445.092 9.636 445.71 12ZM23.3211 13.123C21.4361 15.008 20.7971 15.125 17.8951 14.113C15.2461 13.19 14.3291 13.242 13.1911 14.38C12.0271 15.545 11.9921 16.444 12.9911 19.473C14.0921 22.809 14.0001 23.372 11.9981 25.502C10.7841 26.795 10.0891 28.335 10.4541 28.926C11.5271 30.661 13.0001 30.159 13.0001 28.059C13.0001 25.569 14.9681 24.329 16.0751 26.122C16.6471 27.047 16.3631 27.723 15.2131 28.179C13.8981 28.701 13.8491 28.874 15.0001 28.921C15.8251 28.954 17.7031 30.446 19.1731 32.235C22.1501 35.857 22.9231 35.622 23.9011 30.801C24.4611 28.043 25.2641 27.258 28.7851 26.031C31.1031 25.223 33.0001 24.13 33.0001 23.602C33.0001 22.352 26.0601 15.995 25.0081 16.281C24.5641 16.401 24.0431 16.05 23.8501 15.5C23.6571 14.95 24.5381 14.353 25.8081 14.173C27.0771 13.993 27.9491 13.346 27.7451 12.735C27.0961 10.787 25.5201 10.925 23.3211 13.123ZM454.75 12.689C452.481 13.282 452.54 14.273 454.975 16.477C456.888 18.209 456.981 18.181 457.975 15.567C459.465 11.646 459.301 11.5 454.75 12.689ZM146.542 13.931C146.151 14.564 146.514 14.74 147.461 14.377C148.321 14.046 149.768 14.389 150.675 15.138C152.085 16.302 152.254 16.282 151.834 15C151.249 13.211 147.46 12.446 146.542 13.931ZM183.105 15.525C161.8 21.481 147.48 42.083 152.542 59.495C153.416 62.502 154.503 65.193 154.957 65.474C155.412 65.755 158.42 64.397 161.642 62.456C167.613 58.859 178.394 55 182.469 55C184.22 55 185.109 54.003 186.422 50.566C190.315 40.372 200.184 28.383 208.942 23.209L213.384 20.585L207.442 17.834C199.874 14.331 190.543 13.446 183.105 15.525ZM14.4731 17.748C15.4091 21.479 15.6741 21.605 18.0601 19.446C20.0181 17.674 20.0351 17.499 18.3751 16.285C15.3211 14.052 13.6981 14.66 14.4731 17.748ZM447.34 16.557C447.011 17.414 446.158 17.891 445.444 17.617C444.73 17.343 443.608 17.767 442.951 18.559C442.01 19.693 442.047 20.027 443.128 20.128C443.882 20.198 445.4 20.428 446.5 20.638C454.445 22.16 456 22.184 456 20.784C456 18.844 451.783 15 449.654 15C448.71 15 447.668 15.701 447.34 16.557ZM160.568 18.266C160.132 19.787 158.64 21.925 157.253 23.016C154.605 25.099 148.556 25.709 147.5 24C147.16 23.45 146.346 23.01 145.691 23.022C143.545 23.062 149.443 26.955 151.685 26.978C157.41 27.036 162.541 22.365 161.758 17.808C161.377 15.597 161.328 15.616 160.568 18.266ZM19.0801 20.415C17.5141 22.081 17.0161 23.476 17.4731 24.915C18.8281 29.185 24.0001 26.026 24.0001 20.929C24.0001 17.327 22.1611 17.135 19.0801 20.415ZM26.0001 20.918C26.0001 21.423 25.7271 22.548 25.3931 23.418C24.6811 25.273 25.8071 25.406 29.6851 23.925L32.5001 22.849L30.0001 21.46C27.0351 19.813 26.0001 19.672 26.0001 20.918ZM367.094 22.159C361.274 23.832 353.297 29.659 348.55 35.706C346.048 38.893 344.001 42.02 344.001 42.656C344 43.291 346.813 45.139 350.25 46.762C356.115 49.531 365.255 56.998 366.115 59.722C366.405 60.644 367.607 60.532 371 59.266C378.523 56.46 391.784 56.92 401.74 60.333C406.271 61.886 410.235 63.572 410.549 64.079C412.183 66.723 412.999 64.106 412.99 56.25C412.979 45.912 410.674 39.856 403.99 32.605C395.603 23.506 378.881 18.772 367.094 22.159ZM170 24.103C165.407 26.854 160.368 31.694 157.82 35.803C154.709 40.818 156.199 40.573 160.049 35.435C161.921 32.937 164.986 29.679 166.86 28.196C175.54 21.33 176.312 20.324 170 24.103ZM373 24C369.54 24.728 369.534 24.738 372.5 24.853C374.15 24.917 376.175 24.533 377 24C378.665 22.924 378.112 22.924 373 24ZM449.34 25.136C449.688 26.436 449.979 27.837 449.986 28.25C450.014 29.783 451.967 28.93 453.046 26.914C454.326 24.523 454.312 24.499 451.104 23.51C448.95 22.847 448.771 23.012 449.34 25.136ZM469.193 29.094C465.435 35.878 460.537 39.647 453.914 40.851L449.5 41.653L453.308 43.3C455.403 44.206 458.318 45.891 459.785 47.046C463.608 50.053 468.839 57.74 470.272 62.457C471.357 66.029 471.558 63.994 472 45C472.275 33.175 472.497 23.422 472.493 23.326C472.488 23.23 471.004 25.826 469.193 29.094ZM384 25C387.419 26.095 390.048 26.095 387.5 25C386.4 24.527 384.6 24.154 383.5 24.17C381.892 24.194 381.99 24.356 384 25ZM370.5 27C368.866 27.702 369.14 27.869 372 27.914C373.925 27.945 376.175 27.533 377 27C378.146 26.26 377.791 26.044 375.5 26.086C373.85 26.116 371.6 26.527 370.5 27ZM20.1101 28.367C19.2471 29.407 19.3371 30.035 20.4881 30.99C21.7721 32.056 22.0001 31.85 22.0001 29.622C22.0001 26.637 21.7071 26.443 20.1101 28.367ZM81.7751 30.559C80.2761 31.372 78.6001 32.879 78.0491 33.908C77.2471 35.408 77.4401 35.882 79.0241 36.296C80.3001 36.63 81.0001 36.315 81.0001 35.406C81.0001 30.934 90.0101 28.153 93.4271 31.57C95.4511 33.594 96.3621 37.283 95.5051 39.985C94.0761 44.485 86.0931 44.938 82.8181 40.704C80.5631 37.788 79.2961 39.277 81.3571 42.422C84.5491 47.294 94.2921 46.83 96.8001 41.686C98.3761 38.453 97.0601 32.521 94.3031 30.431C91.9301 28.631 85.2001 28.7 81.7751 30.559ZM361.721 34.149C359.092 35.868 357.119 37.452 357.336 37.669C357.552 37.886 360.143 36.474 363.092 34.532C366.041 32.589 368.015 31.005 367.477 31.012C366.94 31.018 364.349 32.43 361.721 34.149ZM2.84314 37.25C2.65414 40.138 2.72514 46.674 3.00014 51.776L3.50014 61.052L7.74014 55.614C10.1151 52.568 14.2311 48.877 17.1001 47.221L22.2211 44.264L18.3601 43.548C13.0991 42.572 8.52314 39.582 5.96914 35.45C4.79614 33.552 3.69014 32 3.51114 32C3.33214 32 3.03114 34.362 2.84314 37.25ZM160.676 38.25C157.696 42.243 155.695 46.028 156.263 46.596C156.496 46.83 158.293 44.316 160.255 41.01C164.209 34.348 164.369 33.302 160.676 38.25ZM75.5001 39C75.1601 39.55 75.3591 40 75.9411 40C76.5231 40 77.0001 39.55 77.0001 39C77.0001 38.45 76.8021 38 76.5591 38C76.3161 38 75.8401 38.45 75.5001 39ZM359.872 39.75C358.629 41.336 358.664 41.371 360.25 40.128C361.916 38.821 362.445 38 361.622 38C361.415 38 360.627 38.788 359.872 39.75ZM432.793 43.775C427.094 45.863 426.735 46.232 424.474 52.307C423.389 55.221 421.172 58.409 418.842 60.403C416.729 62.212 415.015 64.549 415.033 65.596C415.051 66.643 416.81 69.246 418.941 71.38C422.605 75.047 422.994 75.198 426.058 74.13C431.204 72.336 435.31 72.777 439.034 75.525C443.444 78.779 444.921 81.53 444.965 86.576C444.991 89.56 444.398 91.198 442.75 92.694C439.88 95.3 435.509 96.343 433.024 95.013C431.205 94.039 431.103 94.321 431.32 99.739L431.549 105.5L438.2 105.794C443.814 106.042 445.835 105.633 451.175 103.17C462.664 97.871 469.493 88.239 470.666 75.677C471.739 64.182 465.948 53.154 455.215 46.258C448.301 41.816 440.496 40.951 432.793 43.775ZM75.0001 43.851C75.0001 45.899 77.2871 51 78.2051 51C78.7791 51 78.8971 50.247 78.4781 49.25C78.0741 48.288 77.5231 46.487 77.2551 45.25C76.7951 43.129 75.0001 42.015 75.0001 43.851ZM295.106 47.498C298.454 52.159 300.066 52.917 297.953 48.836C296.359 45.759 293.915 43 292.783 43C292.284 43 293.329 45.024 295.106 47.498ZM278.496 51.25C274.801 55.541 272.529 59 273.406 59C273.669 59 275.961 56.3 278.5 53C283.842 46.058 283.839 45.045 278.496 51.25ZM418.253 50.25C415.493 52.179 415.032 53.106 415.017 56.75C414.998 61.565 415.754 61.972 418.73 58.75C420.424 56.916 424 49.878 424 48.378C424 47.314 421.104 48.257 418.253 50.25ZM164.757 51C164.356 52.375 164.05 54.625 164.077 56L164.127 58.5L165.109 56.039C165.65 54.685 165.956 52.435 165.789 51.039L165.486 48.5L164.757 51ZM51.2711 54.25C54.1851 59.255 60.2371 63.163 62.1351 61.265C64.2201 59.18 61.5231 55.299 56.0711 52.536C49.1731 49.041 48.3991 49.317 51.2711 54.25ZM279.791 56.219C277.867 59.185 275.564 63.65 276.307 62.974C277.71 61.697 282.059 54.725 281.685 54.352C281.457 54.124 280.605 54.964 279.791 56.219ZM295.535 59.172C290.048 65.276 282.624 77.387 283.25 79.217C283.491 79.923 284.854 78.21 286.279 75.412C289.644 68.802 295.227 61.327 299.832 57.265C302.348 55.046 302.979 54.025 301.843 54.015C300.931 54.007 298.093 56.328 295.535 59.172ZM281.299 61.25C280.172 62.487 278.689 64.625 278.003 66C276.542 68.928 277.544 67.956 281.356 62.75C284.43 58.551 284.403 57.842 281.299 61.25ZM284.828 64.75C280.942 69.903 278.649 74.081 277.556 78C277.173 79.375 278.283 78.081 280.022 75.124C281.761 72.167 284.76 67.555 286.686 64.874C291.197 58.595 289.553 58.486 284.828 64.75ZM274.459 65.067C274.096 65.653 274.014 66.348 274.276 66.61C274.538 66.872 275.019 66.392 275.345 65.543C276.021 63.781 275.445 63.471 274.459 65.067ZM273.71 76C273.423 77.1 273.354 78 273.558 78C273.763 78 274.411 77.1 275 76C275.591 74.895 275.659 74 275.152 74C274.647 74 273.998 74.9 273.71 76ZM336.828 76.037C334.576 77.351 330.991 83.285 331.039 85.618C331.064 86.835 331.591 86.32 332.528 84.162C333.325 82.325 335.38 79.513 337.095 77.912C340.181 75.029 340.056 74.153 336.828 76.037ZM425.75 76.08C424.145 77.015 424.126 77.344 425.526 80.05C426.365 81.672 427.244 83 427.48 83C427.716 83 429.034 81.875 430.409 80.5C431.784 79.125 433.803 78 434.896 78C437.447 78 438.465 76.393 436.412 75.605C433.971 74.668 427.694 74.948 425.75 76.08ZM64.5001 80.602C62.3001 81.406 59.6001 82.975 58.5001 84.089C56.8591 85.752 57.6371 85.581 62.8391 83.136C71.8391 78.905 72.6881 77.611 64.5001 80.602ZM376.668 83.867C376.246 86.818 376.119 89.452 376.386 89.719C377.122 90.455 378.224 83.591 377.805 80.881C377.58 79.426 377.138 80.586 376.668 83.867ZM433.201 81.028C426.612 87.166 431.792 96.4 439.932 93.028C444.094 91.304 445.061 84.467 441.74 80.25C440.236 78.341 435.635 78.76 433.201 81.028ZM469.18 86.848C467.904 89.79 465.091 94.115 462.93 96.46C460.768 98.805 459 101.011 459 101.362C459 101.713 460.514 102 462.365 102C464.277 102 466.891 102.913 468.418 104.114C469.896 105.277 471.321 106.012 471.586 105.748C471.85 105.484 471.938 99.92 471.783 93.384L471.5 81.5L469.18 86.848ZM366.604 94.213L364.734 97.5L366.985 95.354C368.223 94.174 369.065 92.695 368.856 92.067C368.646 91.439 367.633 92.405 366.604 94.213ZM323.079 93.583C323.127 94.748 323.364 94.985 323.683 94.188C323.972 93.466 323.936 92.603 323.604 92.271C323.272 91.939 323.036 92.529 323.079 93.583ZM61.8401 97.265C57.9721 100.685 54.3891 105.723 55.2291 106.562C55.5041 106.837 56.5001 105.886 57.4421 104.449C58.3831 103.011 60.7471 100.072 62.6931 97.918C66.9891 93.163 66.7161 92.955 61.8401 97.265ZM361.872 99.664C360.628 101.172 360.71 101.216 362.75 100.129C365.077 98.889 365.65 98 364.122 98C363.64 98 362.627 98.749 361.872 99.664ZM55.2551 100.25C54.7111 100.938 53.7161 102.625 53.0441 104C51.9641 106.21 52.1181 106.152 54.3751 103.5C56.7081 100.758 57.5861 99 56.6221 99C56.4151 99 55.7991 99.563 55.2551 100.25ZM455 103.65C451.828 104.918 447.998 109.496 447.387 112.749C446.837 115.68 447.206 116.617 450.071 119.573C455.083 124.744 451.586 123.683 445.377 118.148C440.687 113.968 434.819 111 431.245 111C430.683 111 429.933 112.546 429.578 114.435C427.288 126.642 417.595 139.022 406.391 144.049C402.652 145.727 399.937 147.623 399.556 148.824C398.574 151.918 390.777 158.579 384.334 161.829C378.416 164.815 365.296 167.546 361.96 166.487C360.721 166.094 358.247 167.631 353.951 171.465C343.216 181.043 337.536 184.251 326.694 186.857L316.888 189.214L317.558 192.357C318.69 197.669 322.344 205.458 325.597 209.496C328.412 212.989 329.193 213.37 334.16 213.668C339.244 213.974 339.781 213.787 341.843 210.998C344.763 207.048 345.813 207.216 346.19 211.692C346.46 214.906 346.914 215.491 349.701 216.208C353.448 217.172 354.828 218.861 352.878 220.096C351.913 220.708 352.398 220.979 354.5 221C356.807 221.024 357.154 221.254 356 222C355.175 222.533 353.488 222.976 352.25 222.985C350.255 222.998 350 223.506 350 227.463C350 231.236 350.664 232.739 354.297 237.196C359.682 243.802 364.934 247.418 372.066 249.43C381.36 252.052 382.576 251.74 383.923 246.391C385.628 239.619 384 235.278 379.433 234.422C375.423 233.669 375.152 232.819 378.25 230.717C380.201 229.394 380.334 228.915 379.25 227.109C377.488 224.174 377.603 224 381.312 224C383.832 224 385.154 223.283 386.842 221C389.695 217.141 390.631 217.219 391.411 221.38C391.906 224.017 392.645 224.889 394.773 225.352C396.273 225.679 398.175 226.411 399 226.98C400.293 227.872 400.206 228.255 398.37 229.757C397.199 230.716 396.014 232.175 395.737 233C395.331 234.207 395.08 234.128 394.45 232.594C393.882 231.212 394.274 230.196 395.878 228.898L398.089 227.107L394.535 226.441C391.879 225.942 390.826 225.156 390.368 223.328L389.754 220.883L387.562 222.941C386.357 224.074 384.339 225 383.077 225C381.14 225 380.879 225.382 381.401 227.46C381.876 229.353 381.498 230.208 379.759 231.169C377.513 232.41 377.517 232.42 380.495 232.967C382.627 233.359 383.937 234.466 385.044 236.81C386.598 240.101 386.599 240.101 388.454 238.051C389.722 236.65 391.548 236 394.214 236C396.361 236 397.886 236.375 397.603 236.833C397.32 237.292 395.831 237.484 394.294 237.26C390.365 236.689 386.028 241.372 385.273 247L384.707 251.223L388.103 250.49C398.595 248.225 410.821 241.324 415.544 235C416.982 233.075 419.318 229.25 420.735 226.5C422.152 223.75 423.492 222.027 423.713 222.671C423.933 223.315 422.963 226.112 421.557 228.888C420.151 231.663 419 234.173 419 234.467C419 235.762 432.103 234.826 438.003 233.109C451.619 229.146 462.141 220.556 468.03 208.592C471.198 202.155 471.455 200.889 471.801 190.018C472.012 183.391 471.696 176.586 471.071 174.264C469.887 169.867 463.862 160.386 462.437 160.677C461.96 160.774 460.785 163.165 459.825 165.989C457.879 171.716 450.834 182.003 450.188 180.063C449.928 179.283 448.243 180.254 445.685 182.658L441.597 186.5L444.347 183C445.86 181.075 448.493 177.363 450.198 174.75C451.904 172.137 453.487 170 453.717 170C454.542 170 452.732 174.536 451.221 176.256C450.373 177.222 449.927 178.26 450.23 178.563C451.377 179.71 456.63 170.196 458.922 162.821C460.959 156.265 461.214 153.935 460.671 146.888C460.168 140.366 460.292 138.892 461.262 139.862C461.958 140.558 462.649 144.615 462.859 149.23C463.062 153.708 463.74 157.883 464.364 158.508C464.989 159.133 466.625 161.296 468 163.315C469.375 165.334 470.789 166.989 471.143 166.993C471.496 166.997 471.823 164.3 471.869 161C471.94 156.018 471.669 155 470.277 155C468.973 155 468.867 154.733 469.8 153.8C471.784 151.816 471.273 143.193 468.982 139.975C467.245 137.535 461.256 133 459.771 133C459.499 133 459.505 134.192 459.784 135.649C460.495 139.368 458.337 137.81 457.5 134C457.14 132.363 456.431 130.766 455.923 130.452C455.415 130.139 455 129.249 455 128.475C455 126.454 463.586 132.213 468.247 137.361L471.995 141.5L471.997 131.327L472 121.153L469.072 122.614C463.467 125.41 456.41 120.839 458.964 116.067C460.472 113.25 461.172 113.466 460.407 116.513C459.597 119.741 461.475 122 464.967 122C468.927 122 471 119.158 471 113.727C471 107.098 468.001 103.857 461.441 103.397C458.724 103.206 455.825 103.32 455 103.65ZM442.5 107.168C440.3 107.7 436.813 107.923 434.75 107.663C432.688 107.403 431 107.597 431 108.095C431 108.593 431.824 109 432.831 109C433.837 109 436.875 110.123 439.581 111.496C445.583 114.541 445.649 114.544 446.255 111.75C446.523 110.513 447.074 108.713 447.478 107.75C448.294 105.809 448.178 105.795 442.5 107.168ZM12.6041 108.028C7.75714 109.496 3.84414 113.973 4.16414 117.687C4.31614 119.45 4.11614 121.217 3.72014 121.613C2.84714 122.486 2.74614 137 3.61314 137C3.95014 137 5.63714 135.835 7.36314 134.411C9.08814 132.987 13.3511 130.024 16.8371 127.827C21.6111 124.817 23.6401 122.804 25.0651 119.666L26.9561 115.5L26.9781 118.644C26.9931 120.762 26.0431 122.813 24.0681 124.927L21.1371 128.065L24.8181 127.401C29.7431 126.513 29.9981 126.307 30.0121 123.191C30.0181 121.711 30.6881 118.025 31.5001 115C32.3121 111.975 32.9821 109.388 32.9881 109.25C32.9951 109.112 31.1701 109 28.9331 109C25.1891 109 24.9171 109.179 25.5151 111.25C26.1221 113.352 26.0111 113.324 23.8321 110.829C21.1951 107.81 16.8811 106.733 12.6041 108.028ZM205.624 108.539C204.659 111.053 204.943 111.702 206.122 109.675C206.706 108.671 206.973 107.639 206.715 107.382C206.458 107.124 205.966 107.645 205.624 108.539ZM14.0001 117.906C14.0001 121.269 11.1171 123.525 7.89614 122.683C6.85214 122.41 6.24914 122.595 6.55814 123.093C7.53514 124.675 12.6251 124.072 14.3451 122.171C16.1831 120.14 16.5451 116.455 15.0001 115.5C14.4181 115.14 14.0001 116.145 14.0001 117.906ZM347.5 143C347.16 143.55 347.359 144 347.941 144C348.523 144 349 143.55 349 143C349 142.45 348.802 142 348.559 142C348.316 142 347.84 142.45 347.5 143ZM127.543 146.442C127.822 148.61 128.264 150.597 128.525 150.858C129.359 151.692 128.895 146.577 127.948 144.5C127.285 143.046 127.175 143.577 127.543 146.442ZM125.175 148.185C125.079 150.212 124.537 153.087 123.972 154.574C123.407 156.061 123.169 157.502 123.444 157.777C124.497 158.83 126.079 152.43 125.723 148.558L125.349 144.5L125.175 148.185ZM127 153.5C127 154.325 127.177 155 127.393 155C127.609 155 128.045 154.325 128.362 153.5C128.678 152.675 128.501 152 127.969 152C127.436 152 127 152.675 127 153.5ZM346.453 156.185C342.543 160.325 342.538 160.34 346 157.561C349.091 155.08 351.723 152 350.753 152C350.562 152 348.627 153.883 346.453 156.185ZM448.459 157.067C448.096 157.653 448.014 158.348 448.276 158.61C448.538 158.872 449.019 158.392 449.345 157.543C450.021 155.781 449.445 155.471 448.459 157.067ZM342.5 163.558C340.636 165.141 340.288 165.728 341.582 165.107C343.441 164.216 346.812 160.992 345.872 161.005C345.668 161.008 344.15 162.156 342.5 163.558ZM445.1 163.295C443.835 165.402 443.857 165.423 445.579 163.774C446.57 162.824 447.166 161.832 446.903 161.569C446.64 161.306 445.829 162.083 445.1 163.295ZM394.872 166.75C393.629 168.336 393.664 168.371 395.25 167.128C396.916 165.821 397.445 165 396.622 165C396.415 165 395.627 165.787 394.872 166.75ZM446.374 172.75C443.417 176.811 442.506 178.879 444.942 176C447.196 173.336 449.298 170 448.723 170C448.532 170 447.475 171.238 446.374 172.75ZM212.566 177.25C211.195 180.137 208.076 184.75 205.634 187.5L201.194 192.5L203.281 196.25C205.321 199.914 205.501 200 211.184 200C217.243 200 218.697 201.347 215.5 204C213.586 205.588 213.591 207.415 215.512 209.01C217.466 210.631 215.924 212.638 212.075 213.484C209.922 213.956 209.028 214.964 208.144 217.914C206.507 223.376 206.651 224.856 210.074 237.84C213.744 251.759 216.956 259.449 222.432 267.424C226.559 273.434 235.107 280.236 240.111 281.492C242.441 282.076 242.789 281.804 243.36 278.948C244.384 273.83 244.109 269.505 242.518 265.698C241.117 262.343 240.796 262.161 236.599 262.323C230.805 262.547 230.056 261.595 233.333 258.174L236.021 255.368L233.497 252.997C230.489 250.171 231.151 249.241 236.474 248.817C240.183 248.521 240.549 248.206 241.977 244.082C242.819 241.652 243.973 239.509 244.542 239.319C245.111 239.13 246.274 240.893 247.125 243.237C248.553 247.169 248.977 247.522 252.587 247.785C259.201 248.267 259.64 248.723 256.569 251.928C253.886 254.729 253.861 254.859 255.546 257.43C257.482 260.384 257.554 260.232 253.594 261.54C249.366 262.937 246.527 268.952 246.817 275.898C246.943 278.913 247.219 281.553 247.43 281.764C248.426 282.759 254.26 278.53 258.449 273.776C264.484 266.928 269.069 257.068 272.299 243.99C276.064 228.748 276.672 221.207 274.48 216.931C272.334 212.746 271.334 212.035 267.563 212.015L264.626 212L267.302 209.207C269.845 206.552 269.897 206.299 268.356 204.098C266.994 202.153 266.956 201.635 268.117 200.864C268.878 200.359 270.734 200.171 272.243 200.446C274.641 200.884 275.246 200.439 277.047 196.908C279.44 192.217 280.903 192.257 282.519 197.058C283.489 199.938 284.271 200.591 287.349 201.092C292.446 201.92 292.76 202.597 289.587 205.909C287.285 208.312 287.004 209.138 287.91 210.833C289.844 214.445 289.284 215.224 285.243 214.541C281.793 213.958 281.333 214.166 279.605 217.092C277.906 219.968 277.792 221.594 278.429 233.888C279.284 250.392 281.324 262.727 284.124 268.326C286.562 273.2 292.354 279.563 296.181 281.573L298.862 282.98L300.028 277.367C301.035 272.513 300.956 271.23 299.445 267.877C297.803 264.237 297.431 264 293.348 264C288.339 264 287.911 263.001 291.658 260.055L294.315 257.964L291.987 255.486C289.268 252.592 289.767 251.723 294.244 251.56C296.035 251.495 298.092 251.072 298.817 250.621C300.398 249.635 301.462 250.444 300.541 251.933C300.179 252.52 298.334 253 296.441 253C292.57 253 292.271 253.537 294.664 256.182C296.226 257.908 296.185 258.174 293.99 260.51L291.651 263H295.326C297.347 263 299.014 263.337 299.032 263.75C299.049 264.163 299.715 265.36 300.51 266.412C301.913 268.265 302.022 268.242 304.051 265.662C305.291 264.085 307.135 263 308.573 263C311.348 263 311.696 261.822 309.467 259.972C308.104 258.841 308.159 258.459 309.967 256.535C312.692 253.635 312.55 253.181 308.808 252.813C306.138 252.551 305.476 251.96 304.767 249.203C304.3 247.39 303.29 245.665 302.522 245.37C301.755 245.076 301.371 244.197 301.67 243.417C302.654 240.853 303.815 241.928 305.483 246.948C307.115 251.862 307.158 251.898 311.813 252.198L316.5 252.5L313.256 255.41C310.093 258.247 310.062 258.355 312.006 259.717C315.184 261.943 314.508 264 310.599 264C307.731 264 306.852 264.586 304.995 267.732C303.223 270.736 302.874 272.587 303.209 277.211C303.438 280.372 303.89 283.224 304.215 283.549C305.39 284.723 313.443 279.678 318.215 274.78C320.897 272.025 324.812 266.336 326.915 262.136C332.994 249.99 333.115 250.805 324.757 247.569C314.139 243.458 304.517 236.749 300.456 230.625C293.14 219.592 291.347 208.275 294.929 195.747C296.739 189.418 296.751 189 295.124 189C291.598 189 280.766 184.685 275.916 181.348L270.915 177.909L263.208 180.633C249.238 185.572 233.042 183.603 221.005 175.503C218.142 173.576 215.632 172 215.429 172C215.225 172 213.937 174.363 212.566 177.25ZM330 177.5C328.625 178.286 327.976 178.945 328.559 178.965C329.141 178.984 330.491 178.339 331.559 177.532C334.028 175.664 333.239 175.648 330 177.5ZM192 189.122C188.515 192.177 188.514 192.181 191.72 190.049C193.491 188.871 195.205 187.478 195.529 186.953C196.493 185.393 195.693 185.884 192 189.122ZM298.426 190.49C294.866 201.482 294.802 213.231 298.256 221.783C301.054 228.709 303.444 231.85 310.428 237.78C315.535 242.116 330.07 248.571 332.568 247.612C333.295 247.333 334.179 245.394 334.533 243.303C334.886 241.211 335.84 238.02 336.653 236.212C337.822 233.609 337.898 232.22 337.017 229.55C335.887 226.127 334.377 225 330.918 225C328.456 225 328.498 224.163 331.099 221.394L333.199 219.16L330.38 216.83C322.522 210.336 316.929 201.421 315.52 193.144L314.899 189.5L306.826 189.49C302.267 189.485 298.61 189.92 298.426 190.49ZM10.5001 193C10.8401 193.55 11.5681 194 12.1181 194C12.6681 194 12.8401 193.55 12.5001 193C12.1601 192.45 11.4321 192 10.8821 192C10.3321 192 10.1601 192.45 10.5001 193ZM190.5 194.068C188.85 195.125 187.95 195.989 188.5 195.988C189.05 195.987 190.85 195.093 192.5 194C194.15 192.907 195.05 192.043 194.5 192.08C193.95 192.116 192.15 193.011 190.5 194.068ZM34.5001 195C32.6681 195.787 32.7101 195.864 35.0001 195.914C36.3751 195.945 38.1751 195.533 39.0001 195C40.2381 194.2 40.1511 194.04 38.5001 194.086C37.4001 194.116 35.6001 194.527 34.5001 195ZM181.5 197.528C178.37 198.56 178.044 198.855 180 198.888C181.375 198.91 183.625 198.286 185 197.5C188.042 195.761 186.833 195.77 181.5 197.528ZM277.995 199.013C276.966 201.496 276.187 202 273.379 202C269.623 202 269.48 202.194 271.206 204.958C272.199 206.548 272.083 207.251 270.551 208.944C268.729 210.957 268.734 211 270.815 211C272.013 211 273.9 212.299 275.142 213.978C277.283 216.874 277.381 216.901 278.728 214.978C279.594 213.742 281.259 213 283.165 213C285.961 213 286.162 212.78 285.557 210.37C285.066 208.414 285.468 207.131 287.123 205.37L289.349 203H286.374C283.023 203 281 201.441 281 198.859C281 195.825 279.279 195.913 277.995 199.013ZM3.00014 319.452V442.023L8.38214 437.639C16.0851 431.365 21.6121 429.5 32.5001 429.5C40.4271 429.5 42.1751 429.842 47.1641 432.37C50.2801 433.949 54.5121 436.964 56.5691 439.071L60.3101 442.902L64.4051 439.974C73.6311 433.376 89.5441 430.481 100.762 433.359C108.788 435.417 112.281 437.265 120.673 443.891C133.058 453.67 140.417 464.802 142.028 476.195C142.971 482.872 143.505 483.505 148.914 484.37C150.915 484.69 153.44 485.661 154.526 486.528C156.442 488.057 156.428 488.084 154.062 487.425C152.721 487.051 148.446 486.169 144.562 485.463C140.678 484.758 138.343 484.14 139.374 484.09C144.431 483.847 137.707 463.625 129.391 454.069C123.869 447.724 110.457 438.215 104.541 436.449C95.2751 433.685 86.0831 433.476 78.2571 435.853C71.1281 438.019 61.4451 443.762 57.0761 448.417C53.5071 452.219 52.3351 451.56 55.4351 447.496C58.5281 443.441 58.0851 442.233 51.6161 437.092C39.7381 427.653 19.1491 429.328 7.18814 440.707L2.98914 444.701L3.00714 581.85C3.01914 671.442 3.36814 719 4.01314 719C4.55614 719 5.00014 718.538 5.00014 717.974C5.00014 716.263 13.8261 708 15.6541 708C16.8071 708 16.0281 709.141 13.2511 711.517C7.00414 716.864 5.00014 720.754 5.00014 727.53C5.00014 734.39 8.35814 741.099 12.9891 743.494C16.7591 745.444 28.1741 745.478 31.9011 743.551C38.9301 739.916 43.0001 731.522 43.0001 720.661C43.0001 718.329 43.6861 713.787 44.5241 710.568C45.3631 707.349 45.8311 704.498 45.5661 704.233C45.3001 703.967 43.2551 704.481 41.0211 705.375C36.5251 707.174 34.0441 707.513 35.5501 706.123C36.0731 705.641 38.8571 704.481 41.7381 703.546C46.7611 701.917 48.8021 700.469 47.6711 699.337C47.3791 699.046 43.9831 699.526 40.1231 700.404C36.2631 701.282 30.5801 702 27.4941 702C21.1151 702 20.9801 703.208 27.0851 705.651C29.2381 706.512 31.0001 707.622 31.0001 708.117C31.0001 708.64 30.2661 708.651 29.2501 708.145C28.2881 707.665 24.8851 706.038 21.6901 704.53C18.4941 703.021 16.1151 701.551 16.4031 701.264C16.6911 700.976 21.7811 700.397 27.7131 699.978C40.6651 699.063 52.4481 695.571 60.1591 690.364C67.0491 685.712 75.3281 677.663 77.6391 673.371C78.6381 671.517 79.8141 670 80.2531 670C81.2891 670 78.4631 675.567 75.2501 679.857L72.7351 683.214L75.6181 685.545C79.1601 688.411 82.7831 690.125 92.5001 693.532C93.6001 693.917 94.0081 694.42 93.4061 694.648C92.8041 694.876 90.1791 694.149 87.5731 693.031C81.5731 690.459 81.2761 690.474 76.4821 693.581L72.5001 696.161L76.0201 692.778L79.5411 689.394L75.3811 686.805L71.2221 684.215L66.8611 688.422C64.4621 690.736 61.6531 693.888 60.6181 695.428C59.5821 696.967 56.4041 699.258 53.5541 700.518C48.9941 702.535 48.2211 703.319 47.0981 707.068C43.4551 719.225 45.1801 728.985 52.3421 736.756C59.2321 744.23 62.6671 745.5 76.0001 745.5C86.6101 745.5 87.9261 745.284 93.0001 742.707C97.9431 740.196 97.5671 741.377 92.3691 744.691C90.8551 745.656 92.5621 745.894 101.354 745.941L112.207 746L109.104 742.465C107.397 740.521 106 738.016 106 736.898C106 735.272 105.569 735.002 103.847 735.549L101.693 736.232L103.725 732.866C108.605 724.779 109.155 711.563 104.982 702.685C103.239 698.978 102.079 697.766 99.8451 697.319C98.2571 697.001 96.6761 696.285 96.3311 695.726C95.9281 695.074 96.7421 694.947 98.6011 695.372C100.196 695.735 106.001 696.31 111.503 696.648C127.943 697.657 141.76 693.173 155.015 682.526C160.734 677.933 170 667.502 170 665.658C170 665.296 168.313 664.947 166.25 664.883C162.881 664.778 163.04 664.676 167.818 663.881C183.247 661.315 197.736 650.303 204.296 636.16C206.85 630.653 207.395 628.202 207.442 622C207.474 617.875 207.168 612.925 206.763 611L206.026 607.5L207.729 611C208.912 613.429 209.423 616.948 209.402 622.5C209.376 629.261 208.902 631.514 206.34 637.048C201.597 647.294 188.958 658.534 177.395 662.791C173.683 664.157 172.072 665.561 169.362 669.791C162.726 680.149 150.195 690.159 137.636 695.136C130.158 698.099 128.55 698.365 117.752 698.43C111.291 698.468 106.003 698.725 106.003 699C106.002 699.275 106.95 701.975 108.11 705C109.811 709.436 110.117 711.89 109.691 717.687C109.221 724.097 109.344 724.81 110.832 724.277C112.074 723.832 111.925 724.312 110.25 726.154C105.92 730.916 108.215 741.707 114.216 744.804C115.732 745.587 121.375 745.902 131 745.742C144.343 745.519 145.808 745.308 149.365 743.098C155.426 739.329 157.994 730.292 154.443 725.223C153.587 724 153.144 723 153.458 723C154.604 723 157.993 729.563 157.996 731.79C158.002 735.011 154.532 741.436 151.499 743.822L148.942 745.834L156.221 746.247C160.224 746.475 202.425 746.771 250 746.905C297.575 747.039 339.103 747.254 342.283 747.383C347.188 747.581 347.966 747.38 347.405 746.058C345.823 742.335 345.978 740.297 348.043 737.672C349.607 735.684 350.962 734.977 352.789 735.195C356.497 735.637 356.569 737.521 352.877 737.51C348.608 737.496 346.982 740.094 349.003 743.696C352.101 749.217 362.523 748.756 365.517 742.966C369.549 735.169 365.268 725.173 357.25 723.662C350.983 722.482 343.573 727.676 339.992 735.758C338.159 739.894 332.549 746 330.581 746C330.046 746 330.969 744.538 332.633 742.75C334.297 740.962 337.268 737.025 339.236 734C344.837 725.388 348.076 722.795 353.937 722.232C357.549 721.885 359.667 722.207 361.449 723.374C362.813 724.268 364.105 725 364.318 725C364.532 725 364.073 722.638 363.297 719.75C360.803 710.459 365.134 698.051 372.135 694.43C373.698 693.622 377.716 693 381.374 693C386.898 693 388.303 693.384 390.959 695.619C395.21 699.196 397 703.033 397 708.568C397 712.643 396.515 713.72 393.183 717.053C387.446 722.789 381.476 723.476 376.922 718.922C375.346 717.346 374.962 715.85 375.197 712.197C375.474 707.899 375.811 707.348 379.163 705.709C385.098 702.808 391.414 705.82 392.681 712.157C393.509 716.297 394.965 713.797 394.985 708.2C395.017 699.116 390.1 694.59 380.138 694.535C373.955 694.501 373.68 694.611 370.357 698.452C358.733 711.89 364.885 734.992 382.5 744.054C387.491 746.622 402.454 747.943 426.921 747.976L444.343 748L439.603 744.86C434.168 741.261 432.273 738.713 429.972 731.917L428.334 727.077L426.789 730.317C423.446 737.326 414.833 744.905 408.5 746.41C406.29 746.935 407.081 746.167 411.5 743.494C419.475 738.671 422.022 736.107 425.335 729.564C429.296 721.741 429.605 718.329 427.049 710.648L424.869 704.097L417.865 700.868C414.013 699.093 410.217 696.721 409.431 695.597C406.218 691.011 408.725 686.212 413.683 687.457C417.232 688.347 422.393 693.891 423.603 698.112C424.92 702.702 431.546 705.294 442.234 705.398C447.483 705.449 450.124 705.88 450.453 706.737C451.433 709.291 436.318 707.787 427.794 704.481C426.234 703.876 426.256 704.296 428.044 709.385C429.12 712.446 430 715.728 430 716.678C430 717.968 430.961 717.467 433.792 714.703C438.173 710.426 440.628 709.652 436.817 713.75C435.41 715.263 433.519 717.669 432.615 719.097C430.472 722.481 430.316 730.778 432.323 734.657C434.17 738.23 440.175 743.736 443.676 745.067C450.018 747.478 460.026 744.794 465.19 739.298C466.874 737.505 467.507 735.399 467.815 730.567C468.34 722.316 466.827 717.98 461.855 713.488C459.637 711.484 458.088 709.579 458.413 709.254C459.449 708.218 463.963 711.251 465.873 714.268L467.719 717.184L468.226 712.685C468.505 710.211 468.812 703.982 468.908 698.843L469.083 689.5L465.792 693.5C461.569 698.631 456.84 703.003 455.527 702.989C454.962 702.983 456.573 701.066 459.108 698.728C464.634 693.631 467.521 688.279 468.454 681.403L469.146 676.306L463.823 675.284L458.5 674.263L463.75 674.131L469 674L469.174 592.25C469.27 547.288 469.426 509.15 469.52 507.5C469.615 505.85 469.805 502.7 469.943 500.5C470.081 498.3 470.15 492.406 470.097 487.402L470 478.304L466.06 476.527C460.478 474.01 451.014 474.144 442.907 476.854C435.141 479.451 428.235 484.214 427.397 487.553L426.801 489.928L420.651 486.821C405.914 479.378 395.884 477.655 381.176 480.041C367.994 482.18 358.266 487.753 349.343 498.277C345.051 503.34 338.368 515.701 339.377 516.711C339.823 517.156 327.736 521.977 326.128 521.996C325.923 521.998 326.269 521.381 326.897 520.625C327.524 519.868 329.952 518.713 332.291 518.058C336.29 516.939 336.762 516.406 340.183 509.152C342.586 504.057 346.037 499.043 350.341 494.394C361.119 482.753 373.013 477.862 390.94 477.7C401.343 477.606 407.821 479.085 418.787 484.058L425.109 486.924L429.558 482.599C437.825 474.564 454.608 470.669 464.571 474.474C467.074 475.43 469.263 476.052 469.435 475.856C470.392 474.771 471.566 210.233 470.619 209.285C470.375 209.042 468.968 210.905 467.491 213.426C459.369 227.285 439.071 238.002 423.336 236.739C417.477 236.269 416.99 236.402 414.321 239.207C410.156 243.584 401.117 248.564 392.289 251.346C383.341 254.165 384.342 252.335 380.983 272C379.808 278.875 378.015 288.775 376.998 294C375.455 301.931 372.137 323.858 370.531 336.75C369.752 342.995 374.519 339.728 382.531 328.524C391.52 315.952 398.579 299.145 397.382 293.162C396.858 290.542 396.099 289.834 392.876 288.967C390.744 288.393 389.001 287.603 389.003 287.211C389.004 286.82 390.337 285.608 391.965 284.518L394.923 282.535L392.962 279.21C391.883 277.382 391 275.644 391 275.35C391 275.055 392.83 275.025 395.067 275.283C398.887 275.725 399.291 275.517 401.7 271.877C405.287 266.457 405.983 266.628 407.444 273.285C407.844 275.105 408.999 276.415 410.778 277.065C412.275 277.612 414.175 278.308 415 278.612C416.154 279.038 415.778 279.781 413.37 281.833C410.714 284.096 410.379 284.868 411.156 286.935C412.486 290.469 411.617 291.744 408.221 291.246C405.924 290.909 404.658 291.451 402.597 293.655C401.134 295.22 399.719 297.625 399.453 299C399.186 300.375 398.514 303.3 397.959 305.5C397.405 307.7 396.78 310.4 396.57 311.5C394.065 324.625 391.583 333.306 390.202 333.766C388.637 334.288 388.685 332.477 390.396 326.432C393.37 315.923 393.057 315.559 388.295 323.99C385.658 328.659 381.225 334.846 378.443 337.74C374.149 342.207 372.835 343 369.728 343C364.905 343 360.014 338.715 356.898 331.757C354.892 327.279 354.539 324.869 354.521 315.5C354.51 309.45 354.826 303.038 355.225 301.25C356.466 295.686 354.578 297.662 350.683 306C348.629 310.4 346.354 314 345.629 314C343.178 314 340.719 310.256 341.397 307.556C342.002 305.144 345.727 303.232 348.675 303.819C351.037 304.289 350.996 302.044 348.615 300.483C345.302 298.313 339.598 299.424 336.982 302.749C334.839 305.475 334.315 311.851 335.979 314.961C336.517 315.967 338.317 317.264 339.979 317.843C341.641 318.422 343 319.3 343 319.793C343 322.049 334.888 332.906 331.756 334.842C324.88 339.092 316.452 336.762 311.358 329.203C307.709 323.789 305.038 314.184 303.376 300.5C302.508 293.35 301.692 287.386 301.563 287.248C301.434 287.109 300.541 290.259 299.578 294.248C295.165 312.535 288.575 326.318 282.011 330.992C270.52 339.175 255.696 329.154 249.899 309.283C248.81 305.552 247.328 298.675 246.604 294C245.352 285.911 245.254 285.693 244.564 289.5C241.638 305.638 234.84 321.67 227.47 329.81C223.475 334.223 223.048 334.428 217.894 334.407C210.46 334.376 205.749 331.813 199.946 324.642C195.502 319.149 187.705 303.079 186.813 297.571C186.641 296.51 186.5 302.392 186.5 310.642C186.5 325.346 186.441 325.756 183.5 331.472C181.85 334.68 178.771 338.698 176.657 340.402C173.462 342.978 171.945 343.497 167.657 343.482C155.838 343.44 144.419 333.014 134.397 313.113C130.851 306.071 130.134 305.138 130.465 308C133.479 334.058 131.034 349.706 123.379 353.356C118.955 355.466 115.486 355.406 110.5 353.132C106.014 351.087 98.3061 343.084 94.3961 336.413C92.9741 333.986 91.6571 332 91.4711 332C91.2851 332 92.6051 336.387 94.4051 341.75C96.2041 347.113 99.1701 356.225 100.995 362C108.298 385.109 111.977 395.89 114.494 401.558C116.71 406.546 117.323 407.253 118.317 405.958C123.673 398.98 158.451 387.646 191.784 382.016C223.453 376.667 269.672 378.427 311.5 386.577C331.43 390.46 359.865 397.309 365.414 399.563C366.761 400.11 367.114 399.993 366.605 399.17C366.185 398.491 366.466 398 367.274 398C369.051 398 369.099 395.252 367.333 394.574C364.496 393.486 365.995 391.749 369.25 392.353C372.391 392.935 372.42 392.91 370.115 391.62C367.186 389.98 368.762 388.701 372.704 389.519C375.228 390.042 375.172 389.948 372.135 388.549C370.285 387.697 367.949 387 366.944 387C364.531 387 363.579 385.335 365.408 384.311C366.205 383.865 367.002 383.05 367.179 382.5C367.356 381.95 368.512 381.63 369.75 381.788C371.441 382.004 372 381.57 372 380.038C372 378.917 372.563 377.993 373.25 377.985C374.124 377.974 374.071 377.698 373.074 377.067C371.06 375.792 370.635 372 372.506 372C373.328 372 374 371.55 374 371C374 370.45 374.675 370 375.5 370C376.325 370 377 369.244 377 368.321C377 365.251 379.328 360.148 380.925 359.717C382.026 359.42 383.372 355.633 385.393 347.146C386.984 340.466 388.671 335 389.143 335C390.931 335 390.869 335.313 380.621 378C378.178 388.175 375.654 399.105 375.011 402.288C374.005 407.272 373.333 408.412 370.171 410.496C354.038 421.13 296.223 434.856 261.5 436.297C248.801 436.824 206.508 435.46 189.5 433.975C163.531 431.708 129.322 423.641 120.77 417.767C115.759 414.325 109.192 397.396 93.5131 347.5C80.9851 307.63 82.1901 310.667 78.0521 308.527C75.4821 307.198 74.7581 307.203 71.4741 308.575C69.4441 309.423 67.5551 309.889 67.2761 309.61C66.9971 309.33 67.2731 307.656 67.8891 305.889C68.5051 304.122 68.8941 302.607 68.7551 302.523C68.6151 302.439 66.9881 301.445 65.1401 300.315L61.7811 298.259L64.4861 296.379C65.9731 295.346 68.0481 293.712 69.0951 292.75C70.6521 291.32 71.0001 291.27 71.0001 292.477C71.0001 293.289 69.8751 294.691 68.5001 295.592C65.3411 297.662 65.3611 298.388 68.6181 299.872C70.8361 300.883 71.1461 301.519 70.6431 304.033C70.0011 307.243 70.2461 307.474 72.8221 306.095C73.8981 305.52 75.8731 305.658 78.2501 306.475L81.9881 307.76L83.0281 303.897C83.6281 301.668 85.0041 299.533 86.2811 298.849C88.4871 297.669 88.4851 297.662 85.6571 296.719C83.0851 295.862 82.8791 295.457 83.4551 292.387C84.1451 288.709 83.6511 288.422 79.4071 290.035C77.0691 290.924 76.3091 290.712 74.0371 288.535C71.0461 285.67 69.7891 285.287 70.6381 287.5C70.9551 288.325 70.7651 289 70.2151 289C68.9721 289 67.7111 284.277 68.5791 282.872C68.9691 282.241 70.2511 282.766 71.8601 284.218C77.3331 289.156 77.5291 289.224 81.5351 287.55C83.5751 286.697 85.6961 286 86.2471 286C87.2121 286 86.8311 289.715 85.5181 293.107C85.0751 294.252 85.7741 295.078 87.9481 295.978C91.6121 297.496 91.7681 298.329 88.6561 299.747C87.0681 300.471 85.8911 302.319 85.0061 305.478C83.7541 309.951 83.8371 310.454 87.0471 317.821C93.9141 333.579 104.329 347.422 111.718 350.611C115.425 352.211 121.602 352.453 122.48 351.032C123.035 350.134 109.628 309.007 98.1841 276.5C91.3921 257.208 91.5561 257.549 87.8901 255.227C84.9911 253.392 84.3851 253.318 82.5861 254.577C81.4691 255.36 79.7831 256 78.8401 256C77.4391 256 77.2301 255.36 77.6941 252.5C78.1791 249.512 77.9791 249 76.3311 249C72.7091 249 71.8621 246.896 74.6141 244.732L77.1221 242.759L74.8871 240.379C73.3211 238.713 71.5531 238 68.9861 238C63.4271 238 50.5511 234.407 45.4991 231.447C38.1031 227.112 29.0001 214.996 29.0001 209.486C29.0001 208.75 27.0271 207.933 24.2501 207.518C18.1591 206.61 13.3941 204.617 9.00014 201.141C7.07514 199.618 4.93814 198.037 4.25014 197.627C3.25314 197.033 3.00014 221.665 3.00014 319.452ZM31.7501 197.662C32.4381 197.94 33.5631 197.94 34.2501 197.662C34.9381 197.385 34.3751 197.158 33.0001 197.158C31.6251 197.158 31.0631 197.385 31.7501 197.662ZM87.4411 202.555C85.5771 204.049 85.5891 204.067 87.7501 203.02C88.9871 202.42 90.0001 201.72 90.0001 201.465C90.0001 200.7 89.4811 200.921 87.4411 202.555ZM86.5071 206.989C86.1571 207.555 86.5581 207.723 87.4481 207.382C89.1801 206.717 89.4971 206 88.0591 206C87.5411 206 86.8431 206.445 86.5071 206.989ZM155.345 208.543C154.415 210.967 155.713 211.405 156.954 209.086C157.728 207.639 157.743 207 157.004 207C156.417 207 155.671 207.694 155.345 208.543ZM342.048 212.911C341.204 214.487 339.962 215 336.986 215C333.099 215 333.06 215.037 334.232 217.61C335.234 219.808 335.151 220.416 333.71 221.47C331.444 223.127 331.55 224 334.015 224C335.182 224 336.798 225.264 337.856 227.004C339.671 229.989 339.694 229.995 341.496 228.004C342.494 226.902 344.396 226 345.722 226C347.662 226 348.013 225.617 347.513 224.042C347.087 222.698 347.535 221.683 348.946 220.802C351.607 219.14 351.546 218.217 348.75 217.82C347.378 217.625 345.849 216.197 344.833 214.161C343.231 210.954 343.121 210.905 342.048 212.911ZM148.486 213.022C148.291 213.338 148.537 214.249 149.033 215.048C149.786 216.262 150.305 216.13 152.197 214.242L154.46 211.984L151.65 212.217C150.105 212.345 148.681 212.707 148.486 213.022ZM363 218.786C363 219.283 363.965 220.547 365.146 221.595C367.276 223.487 367.283 223.485 366.14 221.306C364.865 218.875 363 217.378 363 218.786ZM100.991 223.51C100.302 224.341 96.5341 227.12 92.6191 229.686C88.7041 232.253 85.3051 234.505 85.0671 234.693C84.8281 234.88 85.1121 235.512 85.6981 236.098C86.4501 236.85 87.9571 236.552 90.8411 235.081C93.0851 233.936 95.2231 233 95.5921 233C95.9611 233 96.0181 234.826 95.7191 237.058C95.2351 240.669 95.4401 241.217 97.5871 242.033C100.67 243.205 100.621 243.895 97.2501 246.771L94.5001 249.116L101.759 248.691C111.186 248.139 120.211 243.889 125.396 237.561C127.495 235.001 128.597 232.869 128.01 232.506C127.328 232.085 127.324 231.263 127.997 230.005C128.549 228.975 129 227.939 129 227.704C129 227.47 125.058 227.053 120.24 226.778C114.152 226.431 110.129 225.626 107.052 224.139C101.789 221.596 102.517 221.672 100.991 223.51ZM342.438 229.068C341.39 230.227 340.339 233.484 339.949 236.786C339.577 239.929 338.962 243.913 338.581 245.64C337.899 248.737 337.948 248.785 342.195 249.219C346.154 249.624 358.61 247.723 359.8 246.533C360.081 246.252 357.969 243.546 355.106 240.519C352.244 237.492 349.426 233.652 348.845 231.987C347.356 227.715 344.741 226.524 342.438 229.068ZM71.2271 229.733C68.8771 229.944 67.1791 230.481 67.4541 230.926C67.7291 231.371 70.3271 231.305 73.2271 230.779C78.4861 229.826 81.0521 228.843 77.4171 229.175C76.3621 229.271 73.5771 229.522 71.2271 229.733ZM128.488 237.015C124.815 241.595 122.036 243.844 116.844 246.441C110.042 249.844 101.737 252.04 97.0001 251.686C92.8971 251.38 93.1021 256.664 97.5921 266.932C104.772 283.352 112.258 293.455 120.166 297.396C127.557 301.078 128.081 300.922 127.346 295.25C126.581 289.358 122.922 285.699 119.206 287.112C116.229 288.244 115 288.237 115 287.088C115 286.586 116.828 285.867 119.062 285.489C122.11 284.975 123.566 285.202 124.891 286.402C127.326 288.605 127.744 288.443 128.5 285.001C128.862 283.352 130.023 281.397 131.08 280.657C132.974 279.33 132.974 279.286 131.063 277.557C129.507 276.149 129.315 275.302 130.09 273.263C131.305 270.068 130.922 269.699 127.671 270.935C125.492 271.763 124.568 271.508 122.033 269.374L119 266.822V270.385C119 273.393 118.494 274.21 115.756 275.626C112.566 277.276 112.55 277.32 114.756 278.304C116.307 278.996 116.964 280.108 116.884 281.903C116.82 283.331 116.579 283.8 116.348 282.944C116.117 282.089 114.594 280.601 112.964 279.638C109.119 277.367 109.227 276.35 113.5 274.564C116.491 273.315 117.002 272.622 117.015 269.801C117.024 267.985 117.454 265.83 117.972 265.012C118.757 263.77 119.459 264.041 122.206 266.65C124.733 269.049 125.966 269.586 127.5 268.959C128.6 268.509 130.505 268.109 131.734 268.07C133.951 268.001 133.955 268.027 132.254 271.595L130.539 275.189L133.27 277.178C136.734 279.702 136.703 280.559 133.103 281.814C130.776 282.625 130.085 283.581 129.595 286.662C128.948 290.724 130.956 299.152 132.708 299.736C134.676 300.392 139.8 293.115 142.137 286.343C144.238 280.258 144.494 277.784 144.444 264C144.373 244.693 143.005 237.543 138.654 233.752C136.919 232.241 135.008 231.004 134.406 231.002C133.805 231.001 131.141 233.707 128.488 237.015ZM309.155 233C312.235 237.969 321.005 242.395 323.273 240.127C324.109 239.291 323.687 239 321.641 239C320.124 239 319.141 238.581 319.457 238.069C319.774 237.557 319.506 236.813 318.862 236.415C318.131 235.963 317.959 236.124 318.405 236.845C320.002 239.43 314.925 237.027 310.553 233.128L307.606 230.5L309.155 233ZM81.0001 235.816C81.0001 236.345 80.4381 236.757 79.7501 236.731C79.0631 236.706 77.6431 236.756 76.5951 236.842C74.7541 236.995 74.7501 237.067 76.5001 239C77.4951 240.1 78.9151 241 79.6551 241C81.8081 241 81.2121 242.549 78.5001 244C75.3991 245.659 75.3131 246.763 78.2501 247.18C80.1251 247.447 80.4491 248.031 80.1951 250.684C79.8941 253.825 79.9301 253.853 82.8441 252.753C85.2521 251.844 86.2731 251.949 88.3641 253.319C91.8361 255.594 92.0001 255.513 92.0001 251.523C92.0001 248.907 92.6261 247.636 94.5301 246.388L97.0601 244.731L94.9721 243.268C93.3451 242.129 93.0251 241.164 93.5211 238.903C94.2621 235.53 94.3181 235.551 89.7211 237.472C86.4501 238.839 86.0131 238.798 83.5991 236.899C82.1701 235.775 81.0001 235.288 81.0001 235.816ZM323.861 236.944C325.159 238.075 326.734 238.993 327.361 238.985C328.554 238.969 326.892 237.645 323.5 235.91C321.928 235.106 322.005 235.327 323.861 236.944ZM119 239.168L115.5 242.255L118.827 240.378C122.309 238.413 124.868 235.971 123.372 236.041C122.893 236.063 120.925 237.47 119 239.168ZM242.998 246.398C242.012 248.44 240.646 249.602 239 249.799C234.125 250.382 233.653 250.899 236.149 252.923L238.5 254.83L236.076 257.415C233.584 260.071 233.923 260.422 238.624 260.056C240.973 259.872 244 262.381 244 264.512C244 267.364 245.909 266.883 247.996 263.506C249.255 261.469 250.967 260 252.082 260C254.333 260 254.359 259.882 252.835 256.537C251.823 254.316 251.987 253.632 254.085 251.33C255.935 249.3 256.088 248.828 254.739 249.313C252.344 250.174 247.007 249.014 246.968 247.625C246.951 247.006 246.387 245.779 245.716 244.898C244.643 243.49 244.314 243.671 242.998 246.398ZM372.861 245.951C374.159 247.078 375.922 248 376.777 248C378.736 248 378.346 247.66 374 245.578L370.5 243.901L372.861 245.951ZM356.5 249.528C354.3 250.253 349.238 250.881 345.25 250.923L338 251L338.037 258.25C338.057 262.238 338.651 268.425 339.357 272C341.428 282.489 349.733 293.468 354.277 291.724C356.801 290.755 358.348 282.895 356.94 278.194C355.793 274.367 355.402 274.033 351.353 273.426C348.959 273.067 347 272.516 347 272.201C347 271.886 347.948 270.62 349.107 269.386C351.078 267.288 351.11 266.995 349.607 264.849C347.258 261.495 347.552 261.101 352.246 261.311C356.151 261.485 356.63 261.226 358.191 258.105C360.98 252.53 361.79 252.253 363.477 256.291C365.224 260.473 365.305 261 364.193 261C363.749 261 362.924 259.762 362.36 258.25L361.334 255.5L359.482 259.25C357.898 262.457 357.149 263 354.315 263C350.877 263 349.981 264.581 352.176 266.776C353.078 267.678 352.925 268.425 351.521 269.976C349.716 271.971 349.74 272 353.185 272C356.369 272 356.796 272.352 357.984 275.952L359.288 279.903L361.217 277.452C362.347 276.014 364.182 275 365.652 275C367.917 275 368.095 274.711 367.5 272C366.633 268.053 367.337 268.211 369.889 272.536C372.14 276.352 371.91 276.675 366.549 277.207C364.479 277.413 363.096 278.396 361.917 280.5C359.93 284.048 358.55 292 359.922 292C362.046 292 370.793 282.13 373.217 277C375.661 271.824 382.189 253.755 381.717 253.47C381.598 253.398 378.8 252.761 375.5 252.053C372.2 251.345 368.285 250.144 366.8 249.383C363.598 247.743 361.841 247.768 356.5 249.528ZM176.597 254.337C175.896 258.073 174.637 259.529 171.5 260.235C169.721 260.635 169.804 260.81 172.25 261.818C175.574 263.187 175.644 263.912 172.797 267.531L170.594 270.331L173.715 269.707C176.015 269.247 177.514 269.617 179.416 271.112L181.996 273.142L182.992 270.521C183.581 268.971 185.239 267.464 187.05 266.833C190.045 265.789 190.067 265.735 188.055 264.326C185.894 262.812 185.303 259.549 187 258.5C189.17 257.159 187.82 256.155 184.559 256.684C181.496 257.181 180.905 256.893 179.182 254.059L177.246 250.875L176.597 254.337ZM364.428 262.883C364.755 263.413 366.389 264.146 368.059 264.513C370.681 265.089 370.918 265.395 369.798 266.754C368.649 268.147 368.752 268.193 370.694 267.158C374.05 265.371 374.343 264.113 371.541 263.529C370.143 263.238 367.837 262.757 366.416 262.46C364.888 262.14 364.076 262.313 364.428 262.883ZM402.197 273.947C400.562 276.159 399.122 277 396.97 277C393.542 277 393.324 277.588 395.75 280.298C397.432 282.178 397.392 282.335 394.726 284.34L391.951 286.427L395.185 287.963C397.031 288.841 398.652 290.498 398.963 291.826L399.508 294.152L401.928 291.576C403.349 290.064 405.444 289 407.001 289C409.393 289 409.609 288.698 409.203 285.931C408.856 283.566 409.272 282.498 411.016 281.276L413.279 279.691L409.97 278.596C407.557 277.797 406.362 276.605 405.558 274.197L404.454 270.894L402.197 273.947ZM338.589 304.077C335.824 307.363 335.373 309.959 337.03 313.055C338.195 315.233 343.419 318.248 344.373 317.293C345.445 316.221 345.063 315 343.655 315C341.582 315 338.998 311.615 339.015 308.921C339.034 306.006 339.729 304.912 342.973 302.692C345.342 301.071 345.356 301 343.311 301C342.138 301 340.013 302.385 338.589 304.077ZM186.5 410.155C183.182 411.97 182 414.171 182 418.536C182 423.265 183.983 425.674 188.566 426.514C192.217 427.183 196.018 425.247 197.154 422.14C197.892 420.123 197.761 419.885 196.259 420.503C192.269 422.145 191.089 422.089 189.167 420.167C186.592 417.592 187.371 414.219 190.889 412.713C194.52 411.158 194.632 411.011 192.971 409.961C191.046 408.743 188.966 408.806 186.5 410.155ZM184.136 418.128C183.991 421.996 185.007 423.323 189 424.479C191.353 425.16 191.312 425.035 188.298 422.351C186.537 420.783 184.911 418.375 184.684 417C184.386 415.189 184.235 415.5 184.136 418.128ZM66.7321 445.536C64.6791 446.931 63.0001 448.287 63.0001 448.55C63.0001 448.813 64.8001 447.837 67.0001 446.381C70.4931 444.07 71.6741 443 70.7321 443C70.5851 443 68.7851 444.141 66.7321 445.536ZM58.1661 452.091C56.3321 453.758 53.4361 456.782 51.7301 458.811C50.0241 460.84 51.6371 459.588 55.3141 456.029C61.3941 450.144 62.5001 448.941 61.7501 449.029C61.6121 449.045 60.0001 450.423 58.1661 452.091ZM57.0541 457.608C54.3851 459.854 51.2731 464 52.2571 464C52.4361 464 54.5711 461.975 57.0001 459.5C61.8661 454.541 61.8951 453.534 57.0541 457.608ZM59.8311 462.742C56.5201 465.901 53.3811 469.388 52.8571 470.492C52.3321 471.597 53.5241 470.7 55.5061 468.5C57.4881 466.3 60.9971 462.832 63.3051 460.793C65.6121 458.754 67.1291 457.066 66.6761 457.043C66.2221 457.019 63.1421 459.584 59.8311 462.742ZM206 474.013C195.359 475.072 185.037 477.266 177.588 480.053C171.483 482.337 165 487.267 165 489.624C165 490.742 164.157 490.611 161 489C155.876 486.386 155.775 487.792 160.877 490.705L164.739 492.91L165.261 512.205C165.675 527.489 166.226 533.159 167.91 539.481C169.08 543.871 169.832 547.996 169.581 548.649C169.331 549.301 169.773 550.083 170.563 550.386C171.353 550.689 172 551.433 172 552.04C172 552.647 172.695 553.838 173.545 554.688C174.394 555.537 174.943 556.67 174.765 557.206C174.368 558.396 178.522 563.466 186.547 571.584C191.082 576.173 194.832 578.767 201.547 581.963C206.471 584.306 211.281 586.623 212.236 587.112C213.191 587.6 214.766 588.002 215.736 588.004C218.354 588.009 223.644 591.527 225.659 594.603C226.632 596.087 227.988 600.496 228.674 604.4C230.286 613.583 230.283 653.843 228.67 659.862C227.543 664.065 227.344 664.236 223.253 664.53C212.833 665.279 198.822 672.576 195.512 678.977C193.488 682.89 194.317 685.855 198.692 690.359C205.888 697.768 215.708 700 241.11 700C265.361 700 275.639 697.537 283.683 689.799C294.961 678.95 286.817 668.11 264.878 664.769L256.534 663.499L255.731 659.5C255.289 657.3 254.66 643.232 254.333 628.238C253.633 596.161 254.017 594.05 261.239 590.27C265.875 587.845 274.118 584.785 274.632 585.299C274.808 585.475 274.063 587.96 272.976 590.82C271.563 594.539 271 598.477 271 604.639C271 612.386 271.304 613.787 274.006 618.511C275.66 621.401 277.732 624.363 278.612 625.093C279.491 625.823 281.932 630.038 284.035 634.46C286.138 638.882 288.907 643.625 290.188 645C303.027 658.782 326.266 665.033 345.475 659.87C350.078 658.633 360.421 653.578 363.868 650.88C365.17 649.861 366.702 649.316 367.272 649.668C367.874 650.04 368.008 649.823 367.592 649.149C367.189 648.496 368.375 646.133 370.305 643.744C372.192 641.41 374.261 638.487 374.903 637.25C376.819 633.557 374.685 634.756 372.186 638.777C368.522 644.672 366.682 646.584 360.513 650.906C352.521 656.504 345.114 659.056 334.94 659.716C312.807 661.152 294.681 652.279 286.518 636.014C284.72 632.431 282.932 628.034 282.543 626.241C282.155 624.449 281.484 623.201 281.052 623.468C280.095 624.059 278.121 621.803 274.957 616.5C273.005 613.227 272.573 611.136 272.584 605C272.607 592.575 276.273 584.096 283.035 580.823C287.263 578.777 300.929 567.668 302.42 565.065C309.55 552.622 310.948 549.221 312.847 539.715C314.584 531.017 315.288 529.203 317.582 527.5C322.962 523.508 324.477 522.066 323.327 522.033C322.681 522.015 320.816 523.125 319.182 524.5C317.548 525.875 316.051 527 315.856 527.001C315.66 527.001 315.653 518.288 315.84 507.638L316.18 488.274L313.077 484.741C309.33 480.472 304.538 478.442 292 475.809C283.814 474.09 277.797 473.769 248.5 473.49C229.8 473.313 210.675 473.548 206 474.013ZM414.083 489.365C414.313 489.565 415.625 490.265 417 490.92C419.357 492.042 419.389 492.022 417.559 490.555C415.966 489.279 412.711 488.164 414.083 489.365ZM405.75 492.662C406.438 492.94 407.563 492.94 408.25 492.662C408.938 492.385 408.375 492.158 407 492.158C405.625 492.158 405.063 492.385 405.75 492.662ZM412 494C412.825 494.533 413.95 494.969 414.5 494.969C415.05 494.969 414.825 494.533 414 494C413.175 493.467 412.05 493.031 411.5 493.031C410.95 493.031 411.175 493.467 412 494ZM403.813 496.683C404.534 496.972 405.397 496.936 405.729 496.604C406.061 496.272 405.471 496.036 404.417 496.079C403.252 496.127 403.015 496.364 403.813 496.683ZM167 499.346C167 502.295 171.171 505.799 177.674 508.311C197.103 515.816 250.783 517.14 286.324 510.991C299.668 508.683 310.607 504.612 311.376 501.669C311.676 500.524 311.826 499.494 311.71 499.381C311.595 499.267 308.952 500.25 305.838 501.564C298.045 504.854 282.561 508.077 270 509.025C256.961 510.009 207.474 509.264 196 507.91C184.159 506.514 174.65 503.509 170.48 499.848L167 496.793V499.346ZM386.5 501.026C385.165 501.617 385.995 501.714 389 501.317C391.475 500.989 393.688 500.559 393.917 500.361C394.785 499.609 388.41 500.18 386.5 501.026ZM167.32 517.237C167.963 528.961 170.668 543.691 172.969 548C173.703 549.375 175.248 551.407 176.402 552.514C177.556 553.622 179.85 556.261 181.5 558.377C186.678 565.02 187.69 566 189.367 566C191.547 566 191.459 567.733 189.25 568.311C188.287 568.562 188.963 568.82 190.75 568.884C193.992 569 195.119 570.382 192.75 571.338C192.063 571.615 193.652 571.878 196.281 571.921C199.554 571.975 201.244 572.473 201.638 573.5C201.966 574.355 203.458 575 205.107 575C208.041 575 209.036 576.415 206.75 577.338C206.063 577.615 207.322 577.878 209.55 577.921C211.778 577.964 214.028 578.424 214.55 578.943C215.072 579.461 217.975 580.024 221 580.193C225.763 580.459 226.541 580.79 226.808 582.665C227.01 584.083 226.492 584.993 225.308 585.299C223.861 585.674 223.944 585.791 225.725 585.884C227.707 585.987 227.841 586.288 226.947 588.64C226.186 590.641 226.294 591.67 227.391 592.89C230.352 596.183 231.995 610.28 232.063 632.964C232.147 661.263 231.211 665.373 222.036 676.97C217.941 682.146 213.936 685.923 212.494 685.968C211.031 686.014 208.849 680.557 209.574 678.667C209.915 677.78 211.725 676.767 213.597 676.416C215.468 676.065 217 675.41 217 674.96C217 674.511 217.707 673.436 218.571 672.571C223.098 668.045 209.061 673.619 204.25 678.258C200.4 681.971 200.266 682.973 203.25 685.732C206.775 688.991 214.921 690.847 230.875 692.023C250.571 693.476 264.831 692.124 272.93 688.035C276.059 686.456 279.205 684.457 279.921 683.595C281.814 681.314 280.438 677.278 277.197 675.602C274.626 674.272 263.846 671.837 263.226 672.446C262.786 672.877 274.139 682 275.115 682C275.602 682 276 682.675 276 683.5C276 686.592 272.198 684.796 265.18 678.391C261.197 674.756 257.269 670.488 256.451 668.905C255.633 667.323 253.811 665.74 252.402 665.386C248.34 664.367 246.939 657 250.808 657C252.103 657 252.054 656.76 250.529 655.645C248.759 654.351 248.75 654.059 250.338 649.207C252.484 642.646 252.435 641.508 249.865 638.032C248.63 636.36 247.996 634.452 248.362 633.5C248.709 632.595 248.498 630.93 247.893 629.8C247.288 628.67 247.177 627.465 247.647 627.123C249.002 626.133 248.636 621.021 247.143 620.093C245.336 618.97 246.594 613 248.638 613C249.452 613 249.846 612.559 249.513 612.021C249.18 611.482 249.357 610.201 249.907 609.174C250.589 607.899 250.561 606.961 249.817 606.217C249.032 605.432 249.185 604.672 250.364 603.493C251.264 602.593 252 601.223 252 600.449C252 599.674 252.716 597.252 253.59 595.066C255.368 590.622 258.088 588.702 268.519 584.529C279.856 579.994 282.182 578.763 289.575 573.388C297.022 567.974 304.654 558.866 303.418 556.868C303.013 556.213 303.507 555.103 304.538 554.348C305.553 553.607 305.846 553 305.191 553C303.686 553 303.66 549.274 305.135 545.042C305.78 543.193 305.888 541.507 305.385 541.143C304.898 540.789 304.516 539.6 304.535 538.5C304.554 537.4 304.104 536.163 303.535 535.75C302.863 535.263 303.026 534.65 304 534.001C305.08 533.282 304.59 533.177 302.25 533.626C298.445 534.357 297.711 532.453 301.25 531.031C303.493 530.13 303.492 530.126 301 530.032C298.544 529.938 298.535 529.909 300.5 528.371C302.398 526.886 302.327 526.841 299.132 527.508C296.556 528.045 295.867 527.898 296.206 526.883C296.449 526.153 297.74 525.278 299.074 524.939C300.408 524.6 301.388 523.8 301.25 523.161C301.113 522.523 301.505 522 302.122 522C302.898 522 302.86 521.536 302 520.5C301.089 519.402 301.068 519 301.921 519C302.563 519 302.955 518.262 302.794 517.359C302.599 516.271 303.614 515.337 305.809 514.585C307.628 513.961 308.754 513.087 308.31 512.643C307.866 512.2 308.317 511.241 309.311 510.514C312.718 508.023 309.181 507.978 302.332 510.424C282.677 517.446 233.713 520.167 200.5 516.084C183.939 514.049 178.726 512.694 171.151 508.461L166.702 505.974L167.32 517.237ZM331 524.5C329.625 525.286 328.95 525.929 329.5 525.929C330.05 525.929 331.625 525.286 333 524.5C334.375 523.714 335.05 523.071 334.5 523.071C333.95 523.071 332.375 523.714 331 524.5ZM322.253 529.25C320.483 530.487 319.027 531.868 319.017 532.318C318.998 533.221 324.59 529.473 325.529 527.953C326.409 526.53 325.8 526.77 322.253 529.25ZM338.5 529C337.718 530.266 339.042 530.266 341 529C342.293 528.165 342.266 528.029 340.809 528.015C339.879 528.007 338.84 528.45 338.5 529ZM326.923 534.281C322.818 536.828 317 541.605 317 542.429C317 542.736 319.085 541.395 321.633 539.45C324.181 537.505 327.556 535.247 329.133 534.431C331.898 533.002 332.811 531.966 331.25 532.031C330.837 532.048 328.89 533.061 326.923 534.281ZM182 540C182 540.55 182.477 541 183.059 541C183.641 541 183.84 540.55 183.5 540C183.16 539.45 182.684 539 182.441 539C182.198 539 182 539.45 182 540ZM149.75 553.162C147.473 553.994 145.849 556 147.453 556C148.729 556 153 553.566 153 552.839C153 552.378 152.887 552.036 152.75 552.079C152.613 552.122 151.262 552.61 149.75 553.162ZM154.5 555.647C150.418 558.04 149.401 558.966 151.32 558.545C154.419 557.866 160.968 553.94 160.988 552.75C161.004 551.778 161.413 551.595 154.5 555.647ZM162.5 556.589C160.85 557.974 157.925 559.963 156 561.009C154.075 562.055 152.855 562.931 153.29 562.956C154.964 563.049 161.613 559.074 163.924 556.597C166.975 553.329 166.389 553.326 162.5 556.589ZM295.192 556.075C295.389 556.666 295.978 557.15 296.5 557.15C297.022 557.15 297.611 556.666 297.808 556.075C298.005 555.484 297.417 555 296.5 555C295.583 555 294.995 555.484 295.192 556.075ZM199.762 577.707C201.006 577.946 202.806 577.937 203.762 577.687C204.718 577.437 203.7 577.241 201.5 577.252C199.3 577.263 198.518 577.468 199.762 577.707ZM206.12 601C202.763 605.178 202.751 606.667 206.107 602.75C208.235 600.265 210.277 597 209.703 597C209.5 597 207.888 598.8 206.12 601ZM240 604.5C240 605.417 240.484 606.005 241.075 605.808C241.666 605.611 242.15 605.023 242.15 604.5C242.15 603.977 241.666 603.389 241.075 603.192C240.484 602.995 240 603.583 240 604.5ZM240 609.083C240 611.52 242.337 611.176 242.823 608.667C243.015 607.68 242.505 607 241.573 607C240.646 607 240 607.855 240 609.083ZM240 613.5C240 614.325 240.675 615 241.5 615C242.325 615 243 614.325 243 613.5C243 612.675 242.325 612 241.5 612C240.675 612 240 612.675 240 613.5ZM391.459 613.067C391.096 613.653 391.014 614.348 391.276 614.61C391.538 614.872 392.019 614.392 392.345 613.543C393.021 611.781 392.445 611.471 391.459 613.067ZM240.688 617.646C239.272 619.061 240.073 621 242.073 621C243.471 621 244.041 620.457 243.823 619.333C243.466 617.492 241.759 616.574 240.688 617.646ZM241 624.5C241 625.325 241.675 626 242.5 626C243.325 626 244 625.325 244 624.5C244 623.675 243.325 623 242.5 623C241.675 623 241 623.675 241 624.5ZM397.954 625.086C397.34 626.233 397.026 627.36 397.257 627.59C397.487 627.82 398.189 626.882 398.816 625.504C400.194 622.48 399.523 622.154 397.954 625.086ZM384.661 629.44C383.194 632.435 381.546 635.163 380.997 635.502C380.449 635.841 380.014 636.654 380.032 637.309C380.049 637.964 380.76 637.6 381.612 636.5C383.752 633.735 388.224 624.89 387.731 624.398C387.509 624.176 386.128 626.445 384.661 629.44ZM241 629.5C241 630.325 241.675 631 242.5 631C243.325 631 244 630.325 244 629.5C244 628.675 243.325 628 242.5 628C241.675 628 241 628.675 241 629.5ZM347.439 634.064C345.716 635.862 345.201 636.86 346.192 636.48C347.625 635.93 351.69 631 350.71 631C350.525 631 349.053 632.379 347.439 634.064ZM183.054 638.163C180.059 641.527 178.484 643.808 179.554 643.232C181.858 641.991 185.055 638.571 187.483 634.75C190.117 630.604 189.056 631.422 183.054 638.163ZM241 633.5C241 634.325 241.675 635 242.5 635C243.325 635 244 634.325 244 633.5C244 632.675 243.325 632 242.5 632C241.675 632 241 632.675 241 633.5ZM241 639.073C241 640.504 241.539 641.043 242.739 640.812C245.345 640.31 245.636 637 243.073 637C241.642 637 241 637.642 241 639.073ZM343.5 642C343.16 642.55 343.332 643 343.882 643C344.432 643 345.16 642.55 345.5 642C345.84 641.45 345.668 641 345.118 641C344.568 641 343.84 641.45 343.5 642ZM241 643.573C241 644.505 241.68 645.015 242.667 644.823C245.176 644.337 245.52 642 243.083 642C241.855 642 241 642.646 241 643.573ZM380.584 645.641C380.057 647.014 380.204 647.076 381.477 646.019C383.212 644.579 383.393 644 382.107 644C381.616 644 380.931 644.739 380.584 645.641ZM179.5 648.068C177.85 649.125 176.95 649.989 177.5 649.988C178.05 649.987 179.85 649.093 181.5 648C183.15 646.907 184.05 646.043 183.5 646.08C182.95 646.116 181.15 647.011 179.5 648.068ZM241 647.5C241 648.325 241.675 649 242.5 649C243.325 649 244 648.325 244 647.5C244 646.675 243.325 646 242.5 646C241.675 646 241 646.675 241 647.5ZM67.9541 653.608C66.8011 656.299 65.1021 659.392 64.1791 660.483C62.5831 662.368 62.5901 662.396 64.3281 661.046C66.4361 659.408 71.4011 650.067 70.5921 649.259C70.2941 648.961 69.1071 650.918 67.9541 653.608ZM317.506 650.081C318.603 650.509 323.1 650.839 327.5 650.814C337.148 650.759 335.598 650.27 324.006 649.712C319.334 649.487 316.409 649.653 317.506 650.081ZM170.5 651.464C168.85 652.219 168.175 652.854 169 652.874C169.825 652.894 171.85 652.292 173.5 651.536C175.15 650.781 175.825 650.146 175 650.126C174.175 650.106 172.15 650.708 170.5 651.464ZM308.5 651.241C309.6 652.026 311.4 652.992 312.5 653.388C314.265 654.023 314.324 653.938 313 652.661C312.175 651.866 310.375 650.9 309 650.515C306.61 649.846 306.588 649.878 308.5 651.241ZM241 652.573C241 653.505 241.68 654.015 242.667 653.823C245.176 653.337 245.52 651 243.083 651C241.855 651 241 651.646 241 652.573ZM370.959 655.171C374.801 660.666 379.735 665.598 380.562 664.772C380.882 664.451 378.118 661.109 374.419 657.344C368.239 651.055 367.958 650.879 370.959 655.171ZM316.713 654.017C317.479 654.844 320.981 655.427 326.213 655.598L334.5 655.87L326.263 655.002C321.733 654.525 317.458 653.813 316.763 653.42C315.769 652.858 315.758 652.985 316.713 654.017ZM59.0001 657.5C58.2821 658.365 58.1851 659 58.7711 659C59.3291 659 60.0451 658.325 60.3621 657.5C60.6781 656.675 60.7811 656 60.5911 656C60.4011 656 59.6851 656.675 59.0001 657.5ZM452.5 660.587C444.024 666.991 432.628 672.437 423.412 674.487C412.169 676.989 402.684 675.575 390.706 669.614C385.87 667.206 382.069 665.708 382.261 666.284C382.735 667.704 396.333 674.624 400.306 675.467C406.179 676.712 419.104 677.509 421.147 676.751C423.248 675.973 427.546 678.121 426.327 679.34C425.964 679.703 426.979 679.998 428.583 679.996C432.603 679.991 437.991 676.485 439.297 673.024C439.894 671.441 441.378 669.693 442.593 669.139C446.667 667.283 460.814 655.888 458.872 656.027C458.668 656.041 455.8 658.093 452.5 660.587ZM48.4971 661.779C46.8451 663.276 43.9201 665.733 41.9971 667.239C40.0741 668.745 39.1021 669.983 39.8381 669.989C40.5741 669.995 43.7241 667.534 46.8381 664.52C52.6661 658.88 53.8421 656.937 48.4971 661.779ZM240.633 661.75C240.344 663.263 239.815 666.435 239.457 668.8C239.064 671.403 237.465 674.858 235.404 677.558C231.753 682.34 231.218 684 233.326 684C234.959 684 238.227 680.505 240.338 676.5C241.208 674.85 241.938 674.063 241.96 674.75C241.982 675.438 242.693 676 243.539 676C244.772 676 244.673 676.435 243.039 678.189C240.187 681.249 240.475 682 244.5 682C246.425 682 248 682.398 248 682.883C248 684.178 253.333 685.009 254.479 683.894C255.112 683.278 254.521 682.155 252.808 680.721C249.369 677.84 245.45 669.766 244.571 663.75C243.795 658.434 241.491 657.264 240.633 661.75ZM35.6541 665.589C33.5591 667.013 32.0921 668.426 32.3951 668.728C32.9291 669.262 40.0001 664.353 40.0001 663.449C40.0001 662.707 39.6221 662.893 35.6541 665.589ZM52.0641 666.305L49.6281 669.5L52.8141 666.563C56.1291 663.507 56.5071 662.963 55.2501 663.055C54.8371 663.086 53.4041 664.548 52.0641 666.305ZM27.0001 666C26.0991 666.582 25.9751 666.975 26.6911 666.985C27.3461 666.993 28.1601 666.55 28.5001 666C29.2671 664.758 28.9211 664.758 27.0001 666ZM67.1341 674.173C65.2831 676.278 64.1581 678 64.6341 678C65.5681 678 71.4231 671.031 70.8481 670.604C70.6561 670.462 68.9851 672.068 67.1341 674.173ZM452 672C452.825 672.533 453.95 672.969 454.5 672.969C455.05 672.969 454.825 672.533 454 672C453.175 671.467 452.05 671.031 451.5 671.031C450.95 671.031 451.175 671.467 452 672ZM430.689 673.897C425.503 675.673 425.419 677 430.492 677C432.569 677 434.456 676.143 436 674.5C438.731 671.594 437.744 671.481 430.689 673.897ZM60.4411 680.468C59.3741 681.276 59.0071 681.951 59.6281 681.968C60.2481 681.986 61.3151 681.325 62.0001 680.5C63.5811 678.595 62.9351 678.582 60.4411 680.468ZM409.473 690.044C408.318 691.912 411.922 695.927 417.117 698.56C419.912 699.976 422.44 700.893 422.735 700.598C423.408 699.926 420.548 695.367 417.183 691.75C414.608 688.981 410.669 688.109 409.473 690.044ZM54.7501 695.566C52.1381 696.926 50.0001 698.48 50.0001 699.019C50.0001 700.325 50.5971 700.26 53.8021 698.602C56.1301 697.399 61.0561 692.914 59.9051 693.047C59.6821 693.072 57.3621 694.206 54.7501 695.566ZM78.2951 699.107C76.5321 699.617 74.4301 700.975 73.6251 702.125C72.7331 703.399 71.6761 703.918 70.9221 703.452C70.0141 702.891 69.8561 703.328 70.3291 705.094C70.6831 706.417 70.9791 708.047 70.9861 708.715C71.0111 710.923 77.1521 717 79.3541 716.996C81.1941 716.993 81.0451 716.715 78.3141 715.05C71.9911 711.194 71.5371 705.472 77.2771 701.973C81.6621 699.299 83.6451 699.491 87.0771 702.923C90.3381 706.184 90.9951 710.929 88.4761 713.02C86.3991 714.743 87.3481 715.42 89.9141 714.046C92.5191 712.652 92.7731 706.548 90.3691 703.117C89.0611 701.25 82.9991 697.701 81.7821 698.09C81.6271 698.14 80.0581 698.597 78.2951 699.107ZM11.2691 700.693C12.2421 700.947 13.5921 700.93 14.2691 700.656C14.9461 700.382 14.1501 700.175 12.5001 700.195C10.8501 700.215 10.2961 700.439 11.2691 700.693ZM378 709C375.722 711.278 375.5 713.182 377.15 716.316C378.738 719.333 379.938 719.967 384.095 719.985C390.487 720.012 392.947 714.745 388.927 709.635C386.33 706.333 380.978 706.022 378 709ZM35.4821 712.982C37.6201 715.172 39.5571 716.776 39.7861 716.547C40.6111 715.723 34.7251 709 33.1781 709C32.1181 709 32.8811 710.318 35.4821 712.982ZM449.017 717.456C448.457 718.927 448 720.721 448 721.444C448 722.622 446.082 723.661 440.75 725.375C438.206 726.192 438.607 728.452 441.577 730.041C442.995 730.8 444.577 732.209 445.093 733.173C445.67 734.251 446.655 734.686 447.652 734.303C448.766 733.876 449.12 734.122 448.783 735.091C448.513 735.866 447.552 736.368 446.646 736.206C445.725 736.042 445 736.566 445 737.397C445 739.978 446.63 740.023 448.993 737.508C450.75 735.638 451.69 735.299 453.072 736.039C455.737 737.465 458.984 737.204 459.634 735.513C459.948 734.694 459.714 732.618 459.115 730.899C458.197 728.266 458.338 727.334 460.013 724.982C461.106 723.447 462 721.923 462 721.596C462 721.268 460.23 721 458.067 721C455.075 721 453.99 720.543 453.529 719.09C453.195 718.04 452.272 716.641 451.478 715.982C450.298 715.002 449.847 715.272 449.017 717.456ZM19.9051 719.943C18.0001 722.079 16.6051 724.315 16.8041 724.913C17.0041 725.511 16.6371 726 15.9901 726C15.3421 726 14.5771 725.1 14.2901 724C13.7151 721.804 12.4871 721.403 11.4541 723.074C11.0891 723.665 11.7911 725.213 13.0141 726.515C14.9761 728.604 15.1041 729.263 14.1021 732.138C12.4531 736.869 14.1331 738.25 19.7061 736.746C23.3031 735.775 24.1831 735.856 25.7851 737.305C28.7001 739.944 30.1951 739.425 29.8261 735.905C29.5711 733.476 30.1211 732.315 32.3781 730.515C35.7811 727.802 35.2861 726.464 30.5491 725.575C27.5711 725.017 26.9851 724.436 26.4341 721.497C25.3861 715.915 23.8301 715.544 19.9051 719.943ZM450.46 719.25C450.089 720.212 450.024 721.62 450.315 722.378C450.606 723.136 450.476 724.149 450.027 724.628C449.578 725.108 448.903 726.962 448.526 728.75C447.941 731.528 448.121 732 449.766 732C452.011 732 455 729.027 455 726.794C455 725.942 454.33 724.689 453.511 724.009C452.692 723.329 452.266 722.378 452.565 721.895C452.864 721.411 452.664 720.225 452.121 719.258C451.183 717.586 451.102 717.585 450.46 719.25ZM21.0701 720.869C19.9021 723.051 20.5691 724 23.2741 724C24.6321 724 25.0321 723.526 24.6071 722.418C24.2731 721.548 24.0001 720.423 24.0001 719.918C24.0001 718.315 22.1091 718.928 21.0701 720.869ZM142.923 723.923C139.485 727.361 139.268 729.268 142 732C145.178 735.178 150 734.059 150 730.145C150 728.971 149.628 729.027 148.074 730.433C145.639 732.637 142.964 732.145 141.913 729.299C140.68 725.958 143.69 722.839 148.273 722.709C150.489 722.646 151.48 722.288 150.739 721.817C148.386 720.323 145.836 721.01 142.923 723.923ZM116.55 722.919C116.141 723.581 116.829 724 118.325 724C121.146 724 126.832 729.791 129.884 735.772C131.67 739.273 135 743.104 135 741.657C135 740.015 127.684 728.074 125.273 725.781C122.125 722.786 117.558 721.288 116.55 722.919ZM456.459 723.067C455.286 724.964 456.996 725.432 458.738 723.69C460.297 722.132 460.3 722 458.773 722C457.863 722 456.821 722.48 456.459 723.067ZM316.096 724.265C312.785 725.966 309.713 730.353 310.244 732.62C310.617 734.21 310.86 734.076 311.818 731.75C313.033 728.8 318.357 725.01 321.295 725.004C322.283 725.002 324.195 726.105 325.545 727.455C326.895 728.805 328 729.52 328 729.043C328 727.631 321.986 722.999 320.173 723.015C319.253 723.023 317.418 723.585 316.096 724.265ZM18.5421 726.751C18.0801 727.955 18.7391 729.18 20.6881 730.739C24.0201 733.406 24.4001 733.457 26.3571 731.5C27.1821 730.675 28.5381 730 29.3701 730C30.2011 730 31.1311 729.597 31.4351 729.105C32.1121 728.01 29.1911 726.764 27.8661 727.583C27.3411 727.907 26.3701 727.745 25.7061 727.224C25.0431 726.702 23.3091 725.992 21.8541 725.645C19.8801 725.174 19.0391 725.455 18.5421 726.751ZM442.203 726.854C441.165 727.512 441.213 727.932 442.44 728.95C444.295 730.49 447 729.649 447 727.531C447 725.887 444.323 725.509 442.203 726.854ZM43.6051 731.094C42.8031 736.137 39.7831 741.045 36.0611 743.357C33.6161 744.875 33.9581 744.948 43.6251 744.973C49.1941 744.988 55.2691 745.268 57.1251 745.596L60.5001 746.191L54.7091 740.977C51.5231 738.108 47.8801 733.72 46.6111 731.225L44.3061 726.687L43.6051 731.094ZM453.932 731.127C452.747 733.342 453.921 734.95 456.75 734.985C458.151 735.002 458.237 734.485 457.37 731.25C456.613 728.426 455.401 728.383 453.932 731.127ZM16.0851 732.25C14.9941 735.137 15.5061 735.942 18.0171 735.285C20.7311 734.576 21.4231 733.215 19.9641 731.456C18.2581 729.401 17.0701 729.644 16.0851 732.25ZM25.6751 733.658C24.9481 734.386 26.7891 737 28.0291 737C28.4601 737 28.5771 736.1 28.2901 735C27.7551 732.955 26.8451 732.488 25.6751 733.658ZM116 734C114.337 735.075 114.343 735.078 118.308 735.367C121.445 735.595 122.962 737.36 122.985 740.809C122.993 742.091 123.445 742.843 124 742.5C125.774 741.404 125.066 737.975 122.545 735.455C119.906 732.815 118.364 732.472 116 734ZM3.05214 739.75L3.00014 745H7.42314H11.8461L9.16314 742.25C7.68714 740.737 5.72014 738.375 4.79214 737L3.10514 734.5L3.05214 739.75ZM321.144 736.467C322.426 737.831 323.198 737.98 324.644 737.139C326.254 736.204 326.279 736.057 324.832 736.03C323.914 736.014 322.339 735.711 321.332 735.358C319.625 734.76 319.612 734.836 321.144 736.467ZM369 737.098C369 738.435 368.093 741.222 366.984 743.29C364.451 748.017 364.788 748.168 377.075 747.79L386.5 747.5L381.5 744.85C378.75 743.392 374.813 740.504 372.75 738.433C369.144 734.811 369 734.76 369 737.098ZM466.3 740.329C465.056 742.395 457.765 746.987 455.518 747.118C452.23 747.311 458.936 748.748 463.75 748.882L468 749V744C468 738.813 467.657 738.073 466.3 740.329ZM312.638 743.5C312.955 744.325 313.671 745 314.229 745C314.815 745 314.718 744.365 314 743.5C313.315 742.675 312.599 742 312.409 742C312.219 742 312.322 742.675 312.638 743.5ZM2.79614 751.232C2.55814 753.029 2.39414 762.777 2.43214 772.893L2.50014 791.286L235.75 791.762L469 792.237V772.177C469 761.145 468.662 751.916 468.25 751.669C467.837 751.422 427.45 750.946 378.5 750.612C329.55 750.278 264.525 749.767 234 749.478C203.475 749.188 139.064 748.729 90.8651 748.457L3.23014 747.963L2.79614 751.232ZM126.163 763.848C121.685 768.03 121.269 771.078 124.438 776.484C126.347 779.742 127.719 781 129.362 781C130.614 781 132.618 782.125 133.813 783.5C136.179 786.222 137.968 786.632 139.739 784.861C140.591 784.009 140.376 783.315 138.886 782.109C136.899 780.5 136.899 780.482 139.033 775.659C141.47 770.15 141.147 767.66 137.491 763.75C134.082 760.105 130.133 760.139 126.163 763.848ZM142.482 762.029C142.093 762.659 142.275 763.675 142.887 764.287C143.499 764.899 144 768.444 144 772.165C144 779.657 145.046 781 150.878 781C155.226 781 157 777.911 157 770.337C157 766.916 157.457 763.835 158.016 763.49C159.669 762.468 158.082 761 155.324 761C153.099 761 152.872 761.292 153.575 763.25C154.811 766.689 154.529 776.871 153.159 778.241C152.27 779.13 151.484 779.166 150.222 778.374C148.027 776.995 147.165 765.134 149.169 763.895C150.813 762.879 150.219 762.387 146.345 761.558C144.366 761.134 142.927 761.31 142.482 762.029ZM161.476 762.039C161.145 762.575 161.577 763.284 162.437 763.614C163.659 764.083 164 765.825 164 771.607C164 775.869 163.576 779 163 779C162.45 779 162 779.45 162 780C162 780.582 165.298 781 169.893 781C178.167 781 179 780.535 179 775.918C179 773.671 177.461 773.357 176.661 775.442C176.356 776.235 174.904 777.672 173.433 778.636C170.867 780.317 170.701 780.312 169.379 778.503C166.451 774.5 168.535 769.935 171.8 773.2C172.46 773.86 173.029 774.197 173.064 773.95C173.57 770.385 173.657 767 173.244 767C172.956 767 172.177 767.744 171.512 768.653C170.066 770.63 168 769.644 168 766.976C168 764.804 170.785 763.017 172.965 763.79C173.771 764.076 175.242 765.253 176.233 766.405C178.023 768.485 178.033 768.476 177.768 765.071L177.5 761.642L169.79 761.353C165.519 761.192 161.81 761.498 161.476 762.039ZM181.536 761.942C181.253 762.399 181.692 763.329 182.511 764.009C184.241 765.445 184.683 779 183 779C182.45 779 182 779.45 182 780C182 780.582 185.298 781 189.893 781C198.167 781 199 780.535 199 775.918C199 773.426 197.36 773.458 196.012 775.977C193.237 781.163 188 780.444 188 774.878C188 771.917 189.691 771.091 191.681 773.081C192.456 773.856 192.881 773.148 193.18 770.581C193.652 766.538 193.4 766.328 190.85 768.636C189.172 770.155 188.993 770.145 188.362 768.5C187.651 766.648 188.89 763.87 190.696 763.268C191.275 763.075 193.188 764.129 194.949 765.61L198.149 768.303L197.825 764.91L197.5 761.516L189.775 761.313C185.526 761.201 181.819 761.484 181.536 761.942ZM200.683 761.65C200.325 762.008 201.15 763.337 202.516 764.603C205.783 767.63 206.058 775.113 203 777.732C200.072 780.239 200.524 781 204.941 781C209.061 781 211.253 779.418 208.563 778.386C207.474 777.968 207 776.455 207 773.393C207 766.948 207.725 767.428 214.382 778.282C217.072 782.668 218.322 780.647 217.58 773.111C217.075 767.985 217.268 766.031 218.431 764.491C220.661 761.541 220.362 761 216.5 761C212.751 761 212.087 761.997 214.5 764C216.102 765.329 216.461 768.727 215.207 770.699C214.706 771.487 213.441 770.287 211.516 767.199C209.905 764.614 208.117 762.169 207.543 761.765C206.246 760.851 201.56 760.773 200.683 761.65ZM236.75 762.08C231.938 764.883 230.502 774.237 234.25 778.37C240.08 784.799 247.86 781.509 248.751 772.237C249.204 767.522 248.991 766.837 246.2 764.046C243.083 760.929 239.872 760.261 236.75 762.08ZM250 761.59C250 761.914 250.852 762.927 251.894 763.84C254.57 766.185 253.771 777.62 250.867 778.542C247.422 779.635 250.027 781 255.559 781C260.837 781 262.437 779.939 259.631 778.3C257.68 777.16 256.674 773.319 258.097 772.44C258.783 772.016 260.043 772.712 261.115 774.106L262.956 776.5L262.978 772.25C262.999 768.23 261.877 766.772 260.49 769.016C259.506 770.608 258 769.124 258 766.563C258 762.45 260.376 761.604 263.813 764.496C267.074 767.24 268.834 766.427 267.011 763.021C266.065 761.253 264.933 761 257.965 761C253.584 761 250 761.265 250 761.59ZM282.031 763.815C279.705 766.141 279 767.742 279 770.701C279 774.289 280.971 778.518 283.442 780.235C284.992 781.311 289.783 781.16 290.493 780.011C290.846 779.44 290.434 779.28 289.515 779.633C286.491 780.793 284 777.139 284 771.545C284 768.715 284.54 765.86 285.2 765.2C287.015 763.385 289.833 763.759 291.232 766C292.989 768.813 294 768.487 294 765.106C294 762.769 293.567 762.213 291.75 762.219C290.512 762.223 288.502 761.901 287.281 761.505C285.578 760.951 284.359 761.487 282.031 763.815ZM296.382 762.191C295.977 762.846 296.176 763.559 296.823 763.774C297.56 764.02 298 766.525 298 770.473C298 776.978 299.749 780.682 303 781.062C309.345 781.803 311.315 779.497 311.598 771C311.699 767.975 312.108 764.487 312.507 763.25C313.132 761.314 312.876 761 310.676 761C307.918 761 306.331 762.468 307.984 763.49C309.638 764.512 309.247 776.55 307.513 777.989C304.751 780.281 303.318 778.442 302.719 771.838C302.284 767.049 302.501 765.105 303.607 763.882C304.921 762.43 304.747 762.199 301.91 761.632C297.633 760.777 297.231 760.817 296.382 762.191ZM316.531 761.95C316.208 762.472 316.857 763.388 317.972 763.985C319.69 764.904 320 766.064 320 771.567C320 776.418 319.62 778.208 318.5 778.638C315.533 779.777 317.087 781 321.5 781C325.69 781 327.268 779.902 325.05 778.531C324.527 778.208 324.19 774.694 324.3 770.722C324.483 764.1 324.684 763.474 326.715 763.185C328.375 762.949 329.087 763.498 329.559 765.378C329.905 766.758 329.871 768.4 329.483 769.027C329.014 769.786 329.568 770.056 331.139 769.834C334.496 769.359 334.937 764.77 331.835 762.597C329.303 760.824 317.535 760.326 316.531 761.95ZM339.185 761.647C338.462 761.956 337.438 763.348 336.909 764.74C335.623 768.121 338.089 772 341.523 772C344.987 772 348.538 775.646 346.944 777.567C344.997 779.913 342.036 779.227 340.203 776.006C337.911 771.977 337 772.23 337 776.894C337 780.46 337.232 780.794 339.75 780.852C341.262 780.888 343.4 780.956 344.5 781.004C346.978 781.111 350 777.545 350 774.512C350 771.859 347.916 769.899 343.61 768.501C340.205 767.396 338.996 764.599 341.508 763.635C342.504 763.253 343.983 763.958 345.406 765.493C346.667 766.854 347.992 767.675 348.35 767.317C349.571 766.096 349.013 762 347.625 762C346.869 762 344.956 761.794 343.375 761.542C341.794 761.29 339.908 761.337 339.185 761.647ZM128.462 765.418C126.335 768.665 126.806 776.55 129.117 776.383C130.006 776.319 130.681 776.946 130.617 777.776C130.553 778.606 131.131 779.506 131.902 779.776C132.921 780.134 133.148 779.675 132.735 778.093C132.265 776.298 132.501 776.024 134.083 776.526C135.824 777.079 136 776.595 136 771.267C136 768.037 135.461 764.861 134.8 764.2C132.883 762.283 130.175 762.804 128.462 765.418ZM238.007 764.492C236.631 766.15 236.259 774.261 237.399 777.75C238.285 780.459 243.422 780.949 244.393 778.418C245.371 775.87 245.09 767.037 243.965 764.934C242.733 762.632 239.735 762.409 238.007 764.492ZM292 777.059C292 777.641 292.45 777.84 293 777.5C293.55 777.16 294 776.684 294 776.441C294 776.198 293.55 776 293 776C292.45 776 292 776.477 292 777.059Z" fill="black"/>
</svg>
