<svg width="1896" height="910" viewBox="0 0 1896 910" fill="none" xmlns="http://www.w3.org/2000/svg">
<path d="M864.024 553.559C859.704 561.94 863.234 569.294 867.486 576.191C871.234 582.257 875.655 588.144 884.311 588.698C884.512 570.697 879.689 562.446 864.024 553.559ZM922.935 602.509C919.204 608.9 921.154 611.917 923.877 614.608C931.995 622.646 941.273 629.282 952.854 631.19C961.728 632.658 970.973 632.609 979.461 625.173C963.527 610.074 943.038 607.922 922.935 602.509ZM850.51 516.774C854.594 501.659 857.3 491.028 860.343 480.494C871.486 441.883 894.446 411.978 930.281 391.596C932.919 390.096 935.088 387.781 938.668 384.862C925.305 382.628 915.271 386.46 906.161 391.661C872.562 410.886 850.745 439.306 840.341 475.603C836.643 488.484 838.039 501.365 850.51 516.774ZM1134.43 496.343C1134.46 581.589 1066.78 661.225 965.241 661.763C869.503 662.269 794.691 588.437 795.178 497.436C795.649 412.696 860.309 331.331 962.888 330.646C1057.53 330.01 1134.09 404.184 1134.43 496.343Z" fill="#BE9A58"/>
<path d="M263.902 322.429C261.811 317.097 260.984 314.358 259.65 311.88C259.075 310.803 257.448 310.282 255.644 309.059C251.294 313.478 246.171 317.391 246.899 326.49C252.271 325.201 256.88 324.109 263.902 322.429ZM257.001 492.04C265.363 483.61 269.346 477.299 268.045 467.907C259.088 467.239 252.429 469.261 245.82 475.473C249.099 480.332 252.253 484.996 257.001 492.04ZM148.505 543.794C159.869 536.521 161.569 528.01 162.217 516.84C151.707 520.933 142.982 523.901 136.763 532.624C140.616 536.277 144.157 539.652 148.505 543.794ZM144.49 335.327C129.514 341.768 123.282 353.035 123.902 372.781C133.393 370.139 142.465 367.498 149.907 360.372C149.537 351.535 151.39 342.616 144.49 335.327ZM522.251 439.471C540.286 453.885 550.572 474.462 568.321 490.328C572.154 480.039 568.204 472.261 564.708 465.413C558.421 453.102 544.773 447.868 534.319 439.536C531.411 437.237 528.15 435.133 522.251 439.471ZM651.319 554.262C653.302 525.971 646.226 504.742 626.225 486.072C608.274 469.31 588.474 454.39 569.279 438.916C566.792 436.911 562.859 435.59 560.237 440.547C566.388 446.107 572.439 451.602 578.507 457.081C603.097 479.256 625.031 503.291 637.368 534.32C639.99 540.908 642.949 547.756 651.319 554.262ZM682.481 543.223C678.8 517.134 667.774 493.915 657.404 470.516C656.277 467.989 654.042 465.364 651.605 464.027C637.839 456.477 623.956 449.107 609.837 442.194C607.181 440.889 603.265 442.014 596.609 442.014C602.811 447.509 606.475 451.031 610.425 454.227C630.948 470.81 648.613 489.447 659.874 513.498C665.102 524.667 671.842 535.347 682.481 543.223ZM213.571 353.818C179.082 364.873 149.462 381.129 117.673 394.304C111.862 435.541 116.2 475.147 128.45 514.982C141.091 512.471 149.521 504.709 158.938 498.937C168.542 493.051 177.503 486.17 187.105 480.267C196.633 474.43 206.612 469.277 216.24 463.896C214.398 445.618 211.589 428.155 211.167 410.642C210.73 392.478 212.603 374.265 213.571 353.818ZM716.501 482.224C717.358 481.164 718.232 480.104 719.089 479.028C713.492 472.114 708.248 464.891 702.214 458.352C672.531 426.214 640.781 396.881 595.752 385.842C589.163 384.228 582.827 381.504 576.574 378.847C554.186 369.357 530.772 363.242 506.989 358.155C489.946 354.502 473.003 350.344 455.994 346.529C433.807 341.556 411.705 336.045 389.35 331.952C359.331 326.49 329.043 323.848 298.748 330.452C278.186 334.919 257.318 338.523 238.235 347.295C231.16 380.412 230.495 412.599 237.078 444.835C237.747 448.113 239.821 451.129 241.364 454.521C252.866 451.211 263.161 448.765 273.057 445.259C287.351 440.188 301.597 440.612 315.429 445.52C327.48 449.792 339.33 454.994 350.557 461.01C370.139 471.511 390.712 478.735 412.932 480.74C434.547 482.697 454.179 489.724 473.289 499.328C494.854 510.155 516.973 519.939 538.907 530.064C542.034 531.499 545.496 532.266 548.79 533.342C533.26 519.515 517.007 507.497 500.501 495.806C484.819 484.702 472.903 470.5 463.809 454.081C455.456 438.982 459.322 427.91 475.188 422.268C482.181 419.79 489.979 418.437 497.425 418.388C524.016 418.192 550.606 419.187 577.196 418.975C602.324 418.779 625.3 425.252 646.31 438.166C666.833 450.787 686.986 463.962 707.323 476.843C710.315 478.751 713.441 480.43 716.501 482.224ZM672.548 477.136C676.985 486.903 679.439 492.007 681.657 497.209C687.776 511.509 694.028 525.743 699.726 540.206C701.575 544.935 702.348 550.218 702.751 555.305C703.34 562.904 700.264 568.562 695.255 570.062C689.692 571.709 684.532 570.47 680.615 566.344C677.069 562.61 674.094 558.371 667.841 550.593C667.169 561.387 667.186 566.833 666.396 572.165C665.287 579.617 656.698 583.22 650.899 578.312C646.428 574.529 642.428 569.785 639.553 564.746C632.545 552.484 625.922 539.994 619.888 527.26C611.484 509.536 598.878 495.138 584.188 480.838C579.65 486.463 583.835 491.192 583.398 495.676C582.944 500.29 582.306 504.628 577.583 506.812C572.759 509.03 568.355 506.861 565.161 503.714C558.253 496.931 551.379 490.001 545.412 482.436C533.361 467.108 520.957 452.352 504.216 441.362C496.484 436.291 489.206 434.791 479.491 439.422C480.264 442.422 480.147 446.4 482.096 448.765C489.66 457.928 496.736 468.038 506.132 475.147C525.293 489.659 545.799 502.475 565.8 515.944C571.414 519.726 577.448 523.004 582.709 527.178C586.155 529.901 589.264 533.505 591.332 537.32C597.466 548.636 590.424 560.132 577.179 561.175C566.136 562.056 556.068 558.338 546.387 554.099C521.444 543.158 496.131 532.804 472.079 520.216C450.245 508.786 427.874 501.04 403.183 498.611C380.862 496.426 360.692 487.637 341.498 476.68C328.371 469.196 315.227 461.711 298.032 460.537C296.948 464.483 295.721 468.413 294.79 472.424C292.259 483.3 288.933 493.833 281.463 502.671C267.657 518.993 248.758 519.27 234.915 502.818C229.723 496.638 225.876 489.398 220.857 481.8C215.687 483.969 210.712 485.55 206.249 487.996C197.692 492.708 189.428 497.926 180.546 503.209C180.978 510.367 181.39 516.857 181.758 523.363C182.323 533.374 179.378 542.391 173.117 550.267C161.585 564.811 143.208 566.344 129.349 553.871C125.494 550.397 122.223 546.321 118.254 542.065C109.265 542.603 103.225 548.75 96.2695 552.778C88.4336 557.311 81.0096 562.512 73.288 567.241C66.5027 571.399 59.7021 575.687 50.9989 575.769C68.2019 556.838 90.2203 543.957 110.072 528.075C106.532 507.742 101.626 487.621 99.8748 467.239C98.1117 446.759 99.4866 426.002 99.4866 403.337C91.8088 405.278 86.0872 406.321 80.6583 408.164C58.4213 415.746 36.3071 423.654 14.05 431.171C10.9606 432.215 7.33009 431.758 0.983398 432.198C30.2562 403.81 67.1681 396.978 100.745 382.499C103.253 374.151 105.655 365.688 108.336 357.323C111.992 345.926 117.162 335.262 125.989 326.701C131.487 321.369 137.874 316.804 146.176 318.549C155.499 320.505 159.763 327.614 161.542 336.012C162.745 341.686 162.964 347.573 163.738 354.372C173.68 353.883 181.249 348.747 189.492 345.828C198.053 342.779 206.757 339.974 214.929 336.126C217.894 334.724 219.948 330.843 221.622 327.696C224.05 323.114 225.096 317.782 227.923 313.51C232.404 306.743 237.019 299.667 243.101 294.384C254.945 284.062 268.595 288.481 272.708 303.287C273.869 307.461 273.97 311.929 274.716 317.44C278.564 317.44 282.273 318.092 285.643 317.326C326.606 308.097 367.399 310.804 407.906 319.494C438.329 326.033 468.264 335.001 498.854 340.545C544.084 348.763 586.356 365.476 629.284 380.33C651.823 388.141 670.211 403.289 687.019 419.203C705.491 436.699 722.081 456.135 739.074 475.066C745.04 481.718 750.049 489.219 754.957 496.671C758.403 501.888 759.646 507.856 755.007 513.139C750.368 518.422 743.965 517.672 738.065 515.927C733.023 514.444 728.031 512.307 723.56 509.584C711.962 502.557 700.684 495.024 689.272 487.719C685.17 485.077 681.019 482.501 672.548 477.136Z" fill="#BE9A58"/>
<path d="M1394.72 563.865C1381.71 569.85 1383.34 575.915 1385.47 584.052C1388.4 577.676 1390.58 572.899 1394.72 563.865ZM1685.93 502.393C1690.24 496.002 1693.46 491.941 1687.97 486.186C1684.49 488.11 1681.01 490.017 1676.71 492.382C1680.02 495.985 1682.37 498.529 1685.93 502.393ZM1781.39 496.491C1782.63 496.572 1783.89 496.654 1785.13 496.736C1786.51 492.056 1788.28 487.441 1789.13 482.68C1790.01 477.805 1787.19 476.728 1777.47 478.522C1778.78 484.522 1780.08 490.507 1781.39 496.491ZM1635.59 351.306C1649.38 352.594 1659.8 349.48 1671.45 346.398C1667.08 335.767 1663.04 326.717 1652.72 321.369C1640.8 327.745 1638.7 338.376 1635.59 351.306ZM1776.23 329.343C1769.28 313.428 1767.59 310.722 1762.7 306.988C1754.75 300.922 1744.12 302.797 1739.6 311.292C1735.74 318.516 1733.6 326.065 1736.76 334.984C1750.36 336.582 1762.31 331.854 1776.23 329.343ZM1371.64 576.731C1361.81 575.002 1354.65 578.72 1346.55 580.122C1344.36 599.933 1343.77 618.88 1344.58 637.86C1344.66 639.442 1347 640.942 1349.83 644.301C1357.32 621.098 1364.26 599.607 1371.64 576.731ZM1389.71 653.53C1391.59 652.698 1392.67 652.568 1392.9 652.062C1395.12 647.464 1397.74 642.964 1399.22 638.153C1410.64 600.96 1430.91 569.98 1464.99 548.44C1466.77 547.315 1468.29 545.408 1469.28 543.549C1469.82 542.538 1468.99 540.858 1468.64 538.559C1454.08 537.581 1440.4 541.364 1427.28 547.022C1423.36 548.718 1419.73 551.995 1417.11 555.386C1407.44 567.877 1400.53 581.704 1397.86 597.292C1395.14 613.255 1392.37 629.202 1389.78 645.181C1389.36 647.725 1389.71 650.383 1389.71 653.53ZM1781.27 343.17C1757.87 344.768 1712.59 354.763 1698.74 361.318C1701.97 372.455 1705.45 383.673 1708.42 395.005C1711.23 405.669 1714.22 416.382 1715.87 427.258C1717.58 438.737 1717.82 450.428 1718.74 462.608C1722.71 463.064 1725.62 463.88 1728.42 463.651C1748.76 462.021 1769.08 460.178 1788.95 458.45C1795.76 433.372 1791.77 374.33 1781.27 343.17ZM1459.21 643.877C1461.77 637.175 1463.53 633.229 1464.77 629.137C1467.58 619.957 1470.22 610.711 1472.74 601.45C1478.44 580.562 1491.31 566.637 1512.98 560.115C1554.09 547.755 1591.51 528.531 1625.01 502.149C1641.75 488.974 1661.09 480.413 1681.38 473.712C1686.25 472.098 1690.94 469.945 1695.01 468.315C1700.12 438.443 1690.07 385.499 1674.98 362.117C1655.86 364.889 1636.23 367.057 1616.89 370.71C1579.61 377.721 1542.26 384.455 1507.43 400.467C1494.49 406.419 1480.34 410.202 1466.39 413.675C1428.67 423.116 1390.18 427.942 1351.25 428.008C1326.08 428.04 1301.12 429.85 1276.22 433.046C1251.25 436.258 1226.69 440.987 1204.52 453.477C1201.23 455.336 1197.98 457.488 1200.44 462.738C1214.49 464.826 1228.74 464.189 1243.08 461.793C1251.28 460.423 1259.65 459.265 1267.95 459.151C1316.6 458.548 1365.32 457.325 1411.93 470.63C1432.39 461.222 1448.19 445.177 1471.21 440.954C1470.39 449.678 1463.9 451.537 1459.35 454.651C1435.7 470.842 1413.17 488.322 1391.63 507.106C1379.22 517.949 1365.62 527.504 1352.46 537.548C1347.69 541.201 1342.56 544.413 1337.84 548.114C1334.93 550.413 1332.13 553.136 1334.78 558.534C1342.85 562.316 1351.72 561.599 1360.25 558.11C1372.82 552.941 1385.44 547.723 1397.43 541.397C1416.33 531.401 1436.25 525.042 1457.4 521.129C1490.27 515.047 1522.81 507.611 1552.63 491.811C1559.94 487.947 1567.91 485.207 1575.72 482.338C1577.88 481.555 1580.6 482.224 1586.13 482.224C1568.55 501.317 1551.76 515.748 1528.95 522.091C1518.01 525.123 1506.98 527.879 1495.94 530.602C1490.52 531.923 1486.07 534.092 1483.75 539.456C1475.23 559.186 1465.93 578.622 1458.22 598.629C1452.93 612.358 1452.34 626.789 1459.21 643.877ZM1803.99 337.707C1806.75 357.241 1810.16 376.025 1811.84 394.94C1813.54 413.936 1813.51 433.062 1814.28 453.607C1819.32 453.999 1823.61 454.537 1827.89 454.634C1843.11 455.042 1858.33 454.977 1873.53 455.76C1879.28 456.069 1884.94 458.205 1895.21 460.553C1865.68 468.967 1839.91 470.451 1813.07 473.696C1811.51 480.87 1810.38 488.061 1808.28 494.974C1806.35 501.268 1804.3 507.84 1800.61 513.22C1792.72 524.814 1776.26 525.401 1767.69 514.166C1763.32 508.459 1760.9 501.105 1758.65 494.192C1757.1 489.463 1757.35 484.196 1756.66 477.87C1742.58 476.337 1729.35 476.5 1715.95 482.077C1713.38 489.773 1710.98 497.502 1708.19 505.084C1704.71 514.557 1699.28 523.02 1688.07 524.015C1677.06 524.993 1669.78 518.031 1664.13 509.633C1662.13 506.633 1660.52 503.372 1658.22 499.344C1648.86 501.807 1642.13 507.889 1634.6 512.552C1614.75 524.83 1595.42 538.119 1574.72 548.897C1557.4 557.93 1538.78 564.958 1520.12 571.121C1499.38 577.97 1486.61 590.33 1482.44 611.347C1480.42 621.473 1477.26 631.387 1474.54 641.366C1472.99 647.073 1471.56 652.829 1469.55 658.389C1468 662.628 1465.3 666.411 1460.03 666.819C1454.72 667.226 1451.4 663.753 1449.43 659.775C1441.33 643.42 1438.1 626.202 1441.5 608.184C1442.69 601.776 1444.66 595.482 1446.34 588.943C1441.16 587.215 1439.71 591.275 1437.63 593.591C1427.46 604.89 1420.8 618.114 1415.76 632.153C1412.25 641.904 1409.38 651.932 1405.12 661.373C1402.45 667.292 1398.43 672.982 1393.79 677.629C1387.91 683.532 1377.64 680.581 1375.74 672.64C1374.4 666.982 1373.71 660.867 1374.35 655.128C1376.08 639.752 1378.67 624.457 1380.92 609.13C1381.44 605.591 1381.96 602.037 1380.21 597.928C1376.6 608.217 1373.05 618.505 1369.37 628.762C1366.11 637.811 1363.39 647.138 1359.14 655.747C1356.65 660.802 1352.09 665.188 1347.64 668.971C1343.61 672.379 1335.54 670.031 1334.28 665.041C1332.46 657.948 1330.87 650.497 1331.15 643.273C1331.99 622.68 1333.82 602.118 1335.42 579.307C1332.66 577.774 1328.11 575.589 1323.91 572.866C1313.37 566.051 1310.91 556.283 1318.31 546.353C1322.66 540.483 1328.36 535.184 1334.46 531.026C1342.24 525.71 1348.21 519.873 1350.58 510.611C1352.04 504.953 1354.43 499.377 1357.29 494.224C1359.78 489.789 1363.52 486.006 1367.71 480.691C1364.45 479.37 1362.04 477.593 1359.56 477.495C1334.46 476.451 1309.37 475 1284.27 475.082C1267.6 475.147 1250.86 476.891 1234.3 479.093C1219.68 481.033 1205.46 480.169 1191.28 476.924C1187.68 476.109 1184.08 474.527 1181.01 472.522C1174.75 468.478 1173.49 460.961 1177.93 455.059C1184.4 446.466 1193.53 441.166 1203.24 436.698C1223.38 427.42 1244.74 422.496 1266.71 419.545C1293.89 415.876 1321.13 414.327 1348.6 413.675C1384.31 412.827 1420.12 410.528 1454.87 401.332C1469.53 397.467 1484.62 394.206 1498.32 388.124C1533.97 372.243 1571.76 364.302 1609.84 357.013C1613.56 356.312 1617.24 355.383 1620.9 354.453C1621.59 354.274 1622.2 353.687 1624.13 352.497C1624.67 349.268 1625.36 345.061 1626.05 340.854C1627.64 331.234 1630.82 322.201 1637.43 314.668C1645.78 305.162 1657.71 303.906 1667.71 311.977C1672.32 315.711 1676.29 320.375 1679.82 325.12C1683.82 330.484 1687.01 336.403 1690.81 342.485C1702.34 345.958 1712.93 340.414 1724.41 338.832C1724.41 332.033 1724.19 325.543 1724.47 319.086C1724.79 311.651 1726.12 304.428 1730.85 298.166C1738.78 287.649 1752.8 283.72 1765.44 288.677C1774.21 292.117 1780.87 298.101 1786.06 305.585C1790.28 311.667 1794.13 317.994 1798.63 324.989C1820.7 326.636 1841.78 314.912 1868.87 317.864C1846.16 329.832 1824.38 330.451 1803.99 337.707Z" fill="#BE9A58"/>
<path d="M977.361 0.00304751C985.261 -0.127397 985.697 4.07944 986.975 7.25902C1008.46 61.3119 1010.83 116.343 995.732 172.222C990.353 192.164 984.302 211.975 979.882 232.129C977.058 245.027 976.873 258.446 975.125 271.588C974.369 277.312 972.621 282.905 970.906 290.373C967.41 287.128 964.267 285.562 963.528 283.263C961.292 276.284 959.292 269.094 958.435 261.854C955.51 236.711 956.872 211.682 963.461 187.207C973.764 149.003 977.529 110.392 973.612 71.03C972.806 62.9914 972.957 54.806 973.478 46.7185C974.453 31.3097 975.999 15.9336 977.361 0.00304751Z" fill="#BE9A58"/>
<path d="M860.158 313.982C846.796 313.949 840.308 308.683 834.106 303.693C814.188 287.681 794.54 271.375 774.959 254.972C764.437 246.167 756.756 235.128 750.974 222.964C740.939 201.881 727.325 183.652 709.088 168.39C698.768 159.731 689.826 149.541 680.431 139.871C678.498 137.866 677.355 135.143 674.615 130.805C680.347 131.278 684.212 130.773 687.372 131.979C697.272 135.762 706.987 139.985 716.602 144.404C739.393 154.889 756.42 171.178 767.765 193.06C770.152 197.674 772.891 202.126 774.992 206.871C781.732 222.051 791.834 234.737 804.423 245.825C820.239 259.75 834.509 275.093 846.527 292.279C850.729 298.263 854.326 304.655 860.158 313.982Z" fill="#BE9A58"/>
<path d="M1073.01 314.536C1073.95 307.492 1073.43 302.91 1075.23 299.47C1087.67 275.81 1105.79 257.532 1131.12 246.673C1137.34 243.998 1143.78 241.65 1150.31 239.824C1168.3 234.802 1183.32 225.459 1196.01 212.17C1214.25 193.092 1236.5 178.988 1258.84 165.03C1260.66 163.889 1262.98 163.482 1265.11 162.943C1265.62 162.829 1266.34 163.53 1266.98 163.84C1267.3 165.145 1268.36 166.873 1267.83 167.672C1251.01 194.038 1232.1 218.741 1207.81 239.286C1195.01 250.097 1180.94 258.999 1164.53 262.798C1134.85 269.679 1109.86 283.914 1088.24 304.459C1084.66 307.851 1079.87 310.068 1073.01 314.536Z" fill="#BE9A58"/>
<path d="M697.96 843C708.616 815.721 719.794 794.932 734.585 776.278C753.729 752.162 769.848 726.595 781.311 698.158C787.143 683.728 795.043 670.129 807.027 659.384C816.725 650.676 827.348 643.958 843.685 646.633C841.282 649.649 840.155 652.225 838.155 653.383C824.457 661.308 815.784 673.227 809.851 687.087C805.195 697.946 801.514 709.213 797.362 720.285C779.815 767.196 750.922 806.166 710.532 837.065C708.347 838.728 705.473 839.511 697.96 843Z" fill="#BE9A58"/>
<path d="M998.673 701.321C999.177 707.094 999.916 712.866 1000.12 718.671C1000.84 738.971 1006.44 757.804 1017.56 775.055C1019.18 777.55 1020.52 780.208 1022.25 782.605C1047.55 817.71 1055.48 857.855 1058.34 899.45C1058.53 902.141 1057.72 904.88 1057.06 910C1053.26 907.163 1050.42 906.005 1049.2 903.951C1038.26 885.46 1028.19 866.66 1021.23 846.196C1015.55 829.532 1007.29 813.699 1000.29 797.443C994.739 784.594 988.369 771.973 984.184 758.717C978.957 742.151 979.999 725.16 986.419 708.887C987.798 705.365 991.596 702.756 994.286 699.724C995.748 700.262 997.21 700.783 998.673 701.321Z" fill="#BE9A58"/>
<path d="M1309.58 662.138C1304.37 662.138 1301.11 663.084 1298.93 661.991C1277.43 651.246 1255.66 640.843 1234.89 628.875C1224.67 622.972 1215.31 614.852 1207.39 606.161C1194.26 591.78 1179.12 582.078 1159.25 579.664C1156.36 579.306 1153.59 578.001 1149.15 576.648C1152.09 573.892 1153.72 571.284 1156.09 570.256C1171.79 563.522 1187.24 565.528 1202.01 572.963C1208.01 575.979 1213.46 580.072 1219.02 583.839C1232.02 592.676 1244.67 601.954 1257.92 610.417C1278.47 623.526 1294.42 640.664 1309.58 662.138Z" fill="#BE9A58"/>
<path d="M1076.53 185.006C1074.74 204.426 1071.16 221.563 1058.39 235.162C1048 246.2 1040.46 258.593 1034.56 272.257C1032.37 277.311 1030.93 283.72 1022.61 285.171C1021.48 282.839 1019.38 280.377 1019.21 277.801C1017.95 259.75 1021.03 242.255 1032.4 227.726C1043.8 213.182 1056.94 199.942 1069.48 186.261C1070.22 185.446 1072.24 185.707 1076.53 185.006Z" fill="#BE9A58"/>
<path d="M880.495 173.804C891.471 186.424 895.522 199.224 897.892 211.861C902.245 235.031 906.615 258.006 916.448 279.757C917.759 282.643 916.632 286.573 916.632 291.595C899.287 284.029 893.404 269.256 886.563 255.935C873.52 230.466 871.789 204.915 880.495 173.804Z" fill="#BE9A58"/>
<path d="M1228.13 319.004C1226.32 322.281 1225.76 324.646 1224.25 325.803C1207.27 338.717 1189.26 349.039 1166.82 350.49C1152.41 351.419 1138.28 354.566 1125 360.616C1123.13 361.464 1120.66 361.056 1118.38 361.235C1114.68 356.246 1118.04 352.756 1120.85 349.789C1130.39 339.581 1143 334.331 1156.38 330.989C1169.61 327.679 1183.05 325.135 1196.43 322.395C1203.86 320.879 1211.34 319.493 1218.86 318.4C1221.43 318.025 1224.17 318.71 1228.13 319.004Z" fill="#BE9A58"/>
<path d="M701.926 289.476C719.557 291.123 734.012 298.656 747.106 308.586C762.67 320.342 777.831 332.604 793.025 344.816C794.538 346.023 795.042 348.42 796.571 351.355C782.301 354.861 770.485 350.067 759.258 344.49C734.466 332.196 715.322 313.918 701.926 289.476Z" fill="#BE9A58"/>
<path d="M776.537 585.34C775.478 588.389 775.462 590.345 774.503 590.932C761.948 598.922 753.897 610.369 748.149 623.429C738.635 645.018 720.415 653.464 697.809 655.47C696.666 655.568 695.388 654.165 692.951 652.763C696.128 644.447 702.465 638.153 709.356 632.887C719.071 625.435 726.685 616.581 733.156 606.488C738.417 598.286 745.258 591.421 754.099 586.628C760.956 582.894 767.881 580.611 776.537 585.34Z" fill="#BE9A58"/>
<path d="M1084.01 652.715C1087.25 653.335 1088.31 653.22 1088.63 653.644C1100.04 668.596 1114.55 679.994 1130.55 690.218C1144.23 698.958 1150.4 711.268 1155.83 732.254C1155.17 732.515 1154.25 733.183 1153.93 732.971C1137.54 722.454 1120.87 712.344 1105.03 701.126C1095.77 694.588 1089.1 685.456 1084.8 674.842C1081.92 667.732 1080.8 660.851 1084.01 652.715Z" fill="#BE9A58"/>
<path d="M887.452 783.974C881.502 761.538 883.519 742.46 886.528 723.546C888.158 713.387 891.57 703.376 898.697 695.37C901.336 692.402 905.588 690.772 910.042 687.934C911.118 691.538 912.58 693.674 912.126 695.337C907.991 710.452 907.202 725.796 908.076 741.286C908.849 755.129 904.714 767.473 896.075 778.332C894.528 780.289 891.688 781.267 887.452 783.974Z" fill="#BE9A58"/>
<path d="M283.55 415.647C317.547 406.663 336.171 411.179 355.13 429.588C354.374 434.007 350.777 432.817 348.289 432.295C343.112 431.219 337.969 429.8 333.027 427.974C319.497 422.952 305.798 418.843 291.171 418.109C288.594 417.979 286.089 416.495 283.55 415.647Z" fill="#BE9A58"/>
<path d="M408.951 364.383C426.835 363.845 439.071 367.155 450.669 376.906C431.491 379.971 424.583 378.096 408.951 364.383Z" fill="#BE9A58"/>
<path d="M406.594 457.34C402.728 455.791 398.476 454.78 395.131 452.514C393.182 451.193 391.988 447.948 391.719 445.437C391.433 442.714 396.728 442.274 400.695 445.241C403.972 447.704 406.695 450.834 409.653 453.672C408.628 454.894 407.603 456.117 406.594 457.34Z" fill="#BE9A58"/>
<path d="M1578.31 448.373C1566.08 471.902 1542.63 482.794 1511.28 480.609C1510.53 475.619 1514.9 474.51 1517.97 473.614C1538.63 467.515 1554.48 450.101 1578.31 448.373Z" fill="#BE9A58"/>
<path d="M1605.51 390.799C1618.2 378.015 1618.79 377.885 1632.8 383.543C1623.76 392.641 1623.73 392.56 1605.51 390.799Z" fill="#BE9A58"/>
</svg>
