<svg width="470" height="793" viewBox="0 0 470 793" fill="none" xmlns="http://www.w3.org/2000/svg">
<path fill-rule="evenodd" clip-rule="evenodd" d="M0.667245 0.667C0.300245 1.033 0.0992451 179.346 0.221245 396.917C0.343245 614.488 0.680245 782.43 0.971245 770.123L1.50025 747.746L50.5002 747.87C134.698 748.082 335.922 749.194 348.5 749.516C355.1 749.685 384.688 749.863 414.25 749.912L468 750V770.75V791.5L235.25 791.339C107.238 791.25 4.52525 791.555 7.00025 792.015C9.47524 792.475 114.389 792.885 240.143 792.926C447.756 792.993 468.842 792.855 469.393 791.418C469.727 790.548 469.889 612.011 469.753 394.668C469.617 177.326 469.391 76.063 469.25 169.639L468.994 339.778L465.747 340.347C463.961 340.66 459.604 341.017 456.066 341.14L449.631 341.363L447.203 337.432C444.851 333.624 434.311 323 432.885 323C431.77 323 418.19 311.405 413.229 306.217C406.982 299.684 401.087 290.364 395.382 278C392.717 272.225 390.191 267.35 389.768 267.167C389.346 266.983 389 266.178 389 265.377C389 264.576 388.071 262.1 386.936 259.875C385.632 257.318 385.368 256.137 386.221 256.665C386.962 257.124 390.929 259.8 395.035 262.611C399.141 265.421 405.265 269.116 408.644 270.821C412.023 272.527 416.888 275.739 419.455 277.961C424.237 282.1 426 282.877 426 280.846C426 278.675 417.619 271.955 409.165 267.346C404.517 264.812 398.866 261.479 396.607 259.939C387.124 253.473 373.006 239.263 367.856 231C363.541 224.076 358.042 212.771 356.059 206.75C354.641 202.442 353.299 200 352.351 200C350.65 200 350.87 201.016 354.73 211C358.262 220.135 365.995 233.428 371.891 240.5C377.747 247.523 384.824 260.082 391.613 275.5C394.278 281.55 398.48 289.873 400.952 293.995C406.395 303.071 417.761 315.188 427.395 322.187C436.359 328.7 441.421 333.403 445 338.546C447.636 342.335 447.747 342.893 446.738 347.301C445.777 351.5 445.879 352.253 447.677 354.255C449.163 355.909 449.497 357.159 448.947 359C447.736 363.051 447.871 363.693 450.624 366.965L453.249 370.084L451.224 386.292C449.518 399.944 448.54 404.235 445.026 413.5C442.052 421.339 440.541 427.23 439.765 434C439.166 439.225 438.144 444.175 437.493 445C436.21 446.625 436.187 450.443 437.443 453.27C437.941 454.391 437.431 456.895 436.052 460.101C434.01 464.846 433.956 465.599 435.171 472.171C436.424 478.947 438.547 482.016 440.952 480.53C441.452 480.221 442.144 480.425 442.49 480.984C444.132 483.64 445.839 481.767 446.348 476.75C446.641 473.863 447.159 469.925 447.498 468C447.905 465.69 447.44 462.565 446.132 458.81C444.428 453.92 444.35 452.955 445.575 451.938C447.899 450.009 447.219 447.378 443.612 444.347L440.224 441.5L441.074 433.365C441.658 427.777 443.151 422.142 445.842 415.365C448.235 409.338 450.434 401.416 451.495 395C452.449 389.225 453.388 384.328 453.582 384.117C453.775 383.906 453.784 407.531 453.601 436.617C453.244 493.526 453.462 490.552 446.99 526.5C442.435 551.794 441.95 556.864 441.338 585.5C440.774 611.913 439.952 619.595 438.567 611.397C437.458 604.835 436.45 604.179 434.263 608.598C433.2 610.744 430.921 614.75 429.198 617.5C427.474 620.25 425.375 625.182 424.532 628.46C422.858 634.971 422.541 648.317 423.919 654.25C424.826 658.158 423.627 659.55 422.476 655.925C422.114 654.783 421.607 654.06 421.349 654.317C421.092 654.575 422.144 657.048 423.687 659.812C425.231 662.577 426.169 665.164 425.771 665.562C425.374 665.959 422.9 664.193 420.274 661.636C417.013 658.461 413.123 656.031 408 653.968C403.875 652.307 397.968 649.61 394.873 647.974C391.778 646.338 388.957 645 388.604 645C387.664 645 389.012 649.956 391.069 654.068C394.675 661.272 405.34 668 413.155 668C415.853 668 424 672.224 424 673.623C424 674.828 422.139 684.23 421.386 686.832C420.96 688.302 416.557 686.006 409.856 680.82C407.852 679.269 405.939 678 405.606 678C405.273 678 405.052 679.462 405.116 681.25C405.18 683.038 405.438 683.712 405.689 682.75C406.288 680.459 406.36 680.475 411.82 684.15C420.154 689.759 420.539 690.305 420.153 695.939C419.963 698.722 419.336 701 418.761 701C416.626 701 408.002 691.262 407.379 688.147C407.033 686.416 406.388 685 405.945 685C405.059 685 406.185 689.609 407.814 692.652C409.827 696.414 418.71 703.887 420.638 703.441C421.938 703.142 423.181 704.09 424.754 706.581C426.807 709.833 426.874 710.342 425.504 712.298C424.677 713.479 424 715.92 424 717.723C424 722.07 422.263 721.92 421.434 717.5C420.609 713.105 419.226 712.973 418.813 717.25L418.5 720.5L416.286 718.286C415.069 717.069 413.83 716.466 413.534 716.945C413.237 717.425 414.272 718.893 415.834 720.207C418.211 722.207 418.781 723.63 419.337 728.954C419.994 735.239 419.979 735.291 418.026 733.524C415.544 731.277 412 724.055 412 721.243C412 720.074 411.502 718.81 410.893 718.434C407.752 716.493 413.508 731.599 417.388 735.479C419.665 737.756 421.98 743.449 421.994 746.806C421.999 747.848 417.793 748.061 401.25 747.857C389.838 747.716 377.688 747.426 374.25 747.212C368.189 746.834 368 746.739 368 744.066C368 740.539 369.91 738.868 378.516 734.866C388.023 730.445 396.935 721.553 399.294 714.135C400.9 709.084 401.678 698 400.427 698C399.718 698 384.053 711.968 378.283 717.745C375.951 720.079 372.93 724.129 371.568 726.745C368.521 732.598 368.398 731.191 371.048 720.811C372.175 716.399 372.93 712.289 372.726 711.678C372.384 710.652 370.64 716.355 367.643 728.302C366.538 732.707 365 733.783 365 730.152C365 729.319 362.978 724.508 360.507 719.461C357.514 713.349 355.344 707.03 354.007 700.533C352.903 695.169 352 690.549 352 690.267C352 688.28 348.709 693.163 347.038 697.629C342.284 710.335 345.283 719.668 357.6 730.498C361.945 734.318 365.555 737.456 365.622 737.472C365.689 737.487 366.054 739.637 366.433 742.25L367.123 747H332.998H298.873L299.187 743.874C299.48 740.948 299.994 740.575 307.244 738.022C318.456 734.074 323.926 730.384 326.776 724.846C328.838 720.839 330.992 711.948 329.882 712.027C329.672 712.043 324.327 714.637 318.004 717.793C307.745 722.913 306.159 724.065 303.254 728.504C301.464 731.239 300 733.871 300 734.352C300 734.833 301.462 733.055 303.25 730.402C305.037 727.749 308.037 724.688 309.916 723.6L313.332 721.622L312.745 723.868C312.259 725.725 312.404 725.91 313.579 724.935C314.36 724.286 315.031 723.023 315.069 722.128C315.135 720.573 327.789 713.456 328.761 714.427C329.587 715.253 326.754 722.498 324.342 725.728C323.017 727.503 320.035 730.059 317.716 731.408C312.307 734.554 300.186 739.098 298.104 738.76C296.429 738.488 296.255 739.897 297.403 744.468L298.038 747H265.078C244.369 747 231.89 746.631 231.505 746.008C230.145 743.808 235.718 740.224 243.087 738.561C260.596 734.609 267.133 728.505 270.22 713.226C270.806 710.326 271.015 707.682 270.685 707.351C270.354 707.021 267.702 708.324 264.792 710.249C261.881 712.173 256.35 715.339 252.5 717.285C245.285 720.932 239.754 725.894 236.101 732L234.007 735.5L234.004 731.191C233.999 725.894 232.031 726.481 231.93 731.809L231.861 735.5L230.34 730.543C228.567 724.764 219.309 714.969 211.336 710.435C208.676 708.923 204.307 705.619 201.627 703.093L196.753 698.5L197.29 704.113C197.98 711.32 201.805 718.821 207.103 723.356C211.293 726.942 222.994 734.34 223.568 733.765C223.736 733.597 220.298 731.065 215.927 728.137C206.363 721.73 201.745 716.335 199.602 709.068C197.483 701.885 197.573 701.247 200.291 704.18C201.551 705.54 206.428 709.211 211.129 712.34C219.402 717.844 225.321 722.984 223.424 723.015C222.916 723.024 223.175 723.467 224 724C225.293 724.835 225.266 724.971 223.809 724.985C222.879 724.993 221.799 725.516 221.41 726.146C220.905 726.962 221.536 727.087 223.601 726.58C226.385 725.896 226.421 725.931 224.5 727.449C222.562 728.982 222.583 729.012 225.168 728.428C228.192 727.744 230 729.991 230 734.434C230 737.307 229.403 737.572 227.03 735.75C226.134 735.063 226.504 735.549 227.851 736.831C230.138 739.008 231.026 743.532 229.614 745.816C229.327 746.28 224.459 746.558 218.796 746.436C213.133 746.313 197.925 746.15 185 746.074C163.988 745.951 161.708 745.779 163.463 744.452C164.543 743.636 167.871 742.197 170.859 741.255C178.145 738.959 184.972 732.766 187.262 726.376C188.365 723.298 188.965 718.918 188.889 714.5L188.769 707.5L187.533 717.179C186.507 725.213 185.834 727.409 183.575 730.093C178.49 736.137 171 740.569 171 737.534C171 736.755 170.502 735.81 169.893 735.434C169.148 734.973 169.006 735.444 169.46 736.874C169.998 738.57 169.583 739.208 167.4 740.038C165.339 740.822 164.465 740.76 163.848 739.789C163.25 738.846 163.027 738.986 163.015 740.309C163.007 741.304 162.55 741.84 162 741.5C161.45 741.16 161 741.557 161 742.382C161 743.207 160.48 744.203 159.844 744.596C159.016 745.108 158.87 744.402 159.329 742.106C159.729 740.103 159.6 739.129 158.985 739.509C158.4 739.871 157.971 738.368 157.93 735.809C157.877 732.594 157.655 732.008 157.053 733.5C156.42 735.069 156.084 734.423 155.495 730.5C154.494 723.837 150.843 714.228 147.342 709.043C145.779 706.727 142.843 701.833 140.818 698.166C137.836 692.767 136.999 691.856 136.414 693.374C135.927 694.635 136.232 695.55 137.346 696.173C138.255 696.683 139.003 697.64 139.007 698.3C139.011 698.96 141.245 702.774 143.972 706.776C148.256 713.063 148.799 714.398 147.965 716.592C146.762 719.755 146.765 720 148 720C148.55 720 149 719.298 149 718.441C149 716.355 150.624 717.453 151.286 719.986C151.576 721.095 151.437 721.77 150.976 721.485C148.886 720.194 149.14 723.228 151.29 725.246C152.784 726.647 153.957 729.202 154.392 732L155.092 736.5L149.499 731C146.422 727.975 142.599 723.471 141.003 720.99C137.381 715.364 134.866 705.975 135.537 700.592C135.989 696.971 135.921 696.788 134.941 699C133.258 702.801 134.337 711.129 137.29 717.126C138.838 720.269 143.321 725.95 148.088 730.811C153.75 736.585 156.475 740.172 157.014 742.561L157.789 746H131.395H105V743.042C105 740.558 105.76 739.654 109.75 737.396C122.357 730.26 125.604 726.505 127.663 716.681C130.137 704.875 130.08 704.865 118.885 715.18C111.226 722.237 108.1 725.893 106.011 730.238L103.252 735.975L102.612 731.975C100.993 721.852 100.726 713.036 101.991 711.511C102.694 710.663 106.922 708.25 111.385 706.149C124.001 700.209 128.521 694.643 130.088 683.118C130.583 679.478 131.224 675.487 131.513 674.25C131.802 673.012 131.631 672 131.133 672C130.635 672 129.925 674.015 129.556 676.477C129.187 678.939 128.503 681.189 128.036 681.478C127.57 681.766 127.421 682.895 127.707 683.986C127.992 685.077 127.876 686.764 127.449 687.735C127.022 688.706 126.596 689.725 126.503 690C124.34 696.354 119.236 701.112 110.173 705.221C106.659 706.814 103.59 707.924 103.353 707.687C102.761 707.095 108.749 699.5 114.325 693.77C118.75 689.223 122.612 683.278 121.72 682.387C121.485 682.152 120.162 683.656 118.78 685.73C117.399 687.803 113.283 692.819 109.634 696.874C105.985 700.93 103 704.841 103 705.565C103 706.29 102.509 707.186 101.908 707.557C99.6372 708.96 103.61 682.657 106.529 676.966C107.268 675.524 110.883 672.757 114.914 670.547C118.811 668.411 122 666.338 122 665.94C122 665.542 123.077 664.947 124.392 664.616C125.708 664.286 129.046 661.542 131.81 658.517C136.953 652.89 138.374 649.109 140.598 635.137C141.274 630.889 141.235 630.804 139.12 631.936C137.925 632.575 134.465 636.868 131.431 641.475C128.397 646.081 123 652.577 119.438 655.909C115.876 659.241 111.846 663.612 110.481 665.623L108 669.279L107.873 662.89L107.745 656.5L106.844 663C104.787 677.834 105.09 677.37 102.592 669.5C101.276 665.353 97.8342 658.628 94.1482 653C90.7262 647.775 87.1622 641.363 86.2292 638.75C83.4752 631.047 82.4852 632.587 82.8532 644C83.1932 654.539 85.5982 659.727 93.7222 667.452C104.468 677.668 104.337 677.364 101.977 686.59C100.89 690.841 99.9702 695.71 99.9322 697.41L99.8652 700.5L98.7832 698C95.0452 689.364 93.3382 686.632 87.0042 679.145C83.1272 674.563 79.2152 669.393 78.3102 667.657L76.6652 664.5L75.8092 667.5C73.9362 674.07 77.5492 685.247 83.2682 690.566C87.2642 694.283 87.3172 694.303 84.2172 690.92C80.2422 686.581 77.0002 678.459 77.0002 672.839V668.7L80.1622 673.1C81.9012 675.52 85.2532 679.661 87.6112 682.301C90.4122 685.438 91.6832 687.662 91.2792 688.715C90.8672 689.789 91.0512 690.087 91.8302 689.605C92.5322 689.171 93.0002 689.505 93.0002 690.441C93.0002 691.298 93.3952 692 93.8792 692C94.3622 692 95.3022 693.462 95.9672 695.25C96.6332 697.038 97.8382 699.737 98.6452 701.25C99.6182 703.072 99.9802 705.939 99.7202 709.75C99.5042 712.912 99.6922 718.85 100.137 722.944C100.582 727.037 100.765 730.569 100.543 730.79C100.321 731.012 99.2512 729.452 98.1642 727.322C96.3952 723.853 94.2342 721.608 82.1712 710.699C80.3402 709.043 78.1512 706.634 77.3062 705.344C76.4612 704.055 75.3332 703 74.8002 703C73.5492 703 81.1092 712.511 84.4482 715.138C86.3402 716.626 87.0092 718.097 87.0352 720.823L87.0712 724.5L88.5002 722L89.9292 719.5L90.1012 723C90.2192 725.419 90.4072 725.8 90.7082 724.235C90.9472 722.99 91.5682 722.233 92.0882 722.554C92.6072 722.875 92.7742 723.557 92.4572 724.069C92.1412 724.581 92.8092 725 93.9412 725C95.0732 725 96.0002 725.387 96.0002 725.86C96.0002 726.334 97.1212 728.372 98.4902 730.39C99.8602 732.408 100.889 734.384 100.778 734.78C100.666 735.176 101.067 736.4 101.669 737.5C102.271 738.6 103.087 741.007 103.483 742.848L104.202 746.196L86.4342 745.598C76.6612 745.268 68.5962 744.887 68.5112 744.749C68.4272 744.612 67.8372 739.081 67.2012 732.458C66.1152 721.143 66.1662 720.172 68.0352 716.393C69.1302 714.181 70.6902 708.896 71.5032 704.648C72.3162 700.401 73.2862 695.705 73.6592 694.213C74.2762 691.746 73.8092 691.982 68.5102 696.822L62.6822 702.143L59.2052 690.565L55.7282 678.988L58.7802 673.244C60.4582 670.085 62.1002 665.7 62.4292 663.5L63.0262 659.5L61.6782 663.5C60.0402 668.36 56.3502 675.666 55.1632 676.399C54.3212 676.92 52.8592 672.861 51.5082 666.257C51.0162 663.856 51.2982 662.559 52.5912 661.266C54.2532 659.604 54.3032 659.656 53.6292 662.344C53.1622 664.203 53.2752 664.948 53.9602 664.525C54.5322 664.171 55.0072 663.121 55.0152 662.191C55.0292 660.734 55.1652 660.707 56.0002 662C56.7302 663.129 56.9732 662.651 56.9852 660.064C56.9942 657.931 57.8532 655.674 59.2502 654.11C60.4882 652.725 59.1392 653.525 56.2532 655.887C53.3672 658.249 50.7532 660.59 50.4442 661.091C49.1192 663.234 48.0432 661.398 44.6762 651.25C36.6962 627.203 34.2042 609.788 32.9982 569.649C32.1392 541.089 30.7952 524.182 26.5472 488.506C24.9992 475.506 24.7142 455.105 25.8832 441L26.5052 433.5L28.2142 438.5C30.3632 444.782 33.8532 457.962 35.0782 464.415C35.7972 468.202 35.6962 469.694 34.6402 470.915C32.2862 473.636 31.7722 477.773 33.6562 478.828C35.1322 479.653 35.1902 480.428 34.1622 485.547C31.8432 497.097 33.3012 505.5 37.6242 505.5C38.7532 505.5 40.4352 506.127 41.3632 506.893C42.2902 507.658 43.2722 508.061 43.5452 507.788C44.8532 506.48 44.2882 492.848 42.6632 486.5C41.6782 482.65 40.9132 478.192 40.9632 476.594C41.0142 474.996 40.1952 472.746 39.1442 471.594C38.0392 470.384 36.7492 466.655 36.0882 462.76C35.4602 459.053 32.9732 449.828 30.5632 442.26C26.5432 429.64 26.1272 427.34 25.5382 414.5C25.1852 406.8 24.2202 396.737 23.3952 392.138C22.0102 384.423 22.0242 383.631 23.5792 381.913C24.9142 380.438 25.1252 378.999 24.5942 374.998C24.0932 371.22 24.3122 369.393 25.4622 367.751C26.3082 366.543 26.9982 364.643 26.9962 363.527C26.9912 360.687 23.3362 355 21.5152 355C20.6822 355 20.0002 354.621 20.0002 354.159C20.0002 353.194 31.2212 341.611 44.8202 328.538C59.2952 314.623 64.8702 305.857 76.0092 279.5C83.8792 260.877 91.7942 245.39 98.3752 235.735C110.576 217.835 113.011 214.843 119.08 210.287C130.631 201.615 142.242 189.236 148.427 179C151.584 173.775 155.029 168.282 156.082 166.793C157.135 165.303 162.792 154.503 168.654 142.793C174.515 131.082 179.634 121.275 180.029 121C181.732 119.815 187.124 106.388 191.474 92.5C194.059 84.25 198.588 70.075 201.539 61C207.283 43.338 209.487 35.171 210.447 28C210.778 25.525 211.853 18.55 212.835 12.5L214.62 1.5L236.31 1.23C248.24 1.082 258.03 1.307 258.067 1.73C258.756 9.579 260 12.435 260 6.167V2L290.75 1.99C336.99 1.974 462.441 0.794 462.917 0.371C463.146 0.167 359.383 0 232.333 0C105.283 0 1.03325 0.3 0.667245 0.667ZM0.495245 396.5C0.495245 614.3 0.610245 703.251 0.750245 594.169C0.890245 485.086 0.890245 306.886 0.750245 198.169C0.610245 89.451 0.495245 178.7 0.495245 396.5ZM39.7582 2.762L2.01625 3.024L2.05125 178.512L2.08625 354L9.79325 353.993L17.5002 353.986L21.9062 348.631C24.3292 345.685 32.2372 337.627 39.4782 330.724C46.8732 323.674 54.6662 315.176 57.2572 311.336C61.8792 304.486 72.0002 285.469 72.0002 283.634C72.0002 280.565 91.1252 241.912 94.6182 237.921C95.3782 237.053 96.0002 236.002 96.0002 235.585C96.0002 234.603 101.708 226.335 104.968 222.595C107.753 219.4 106.674 219.8 100.232 224.35C97.2592 226.45 95.6472 227.047 94.9182 226.318C93.7302 225.13 97.7612 221.646 107.492 215.447C119.455 207.825 135.748 193.253 142.25 184.361C144.313 181.54 146 179.006 146 178.73C146 178.454 147.751 175.589 149.89 172.364C154.328 165.675 165.002 146.571 164.996 145.327C164.994 144.872 164.12 145.932 163.053 147.682C160.304 152.189 145.863 166.086 137 172.751C132.875 175.853 127.26 180.076 124.522 182.134C121.784 184.193 119.375 185.709 119.17 185.503C118.22 184.553 122.567 180.259 131.141 173.678C136.284 169.73 143.579 163.588 147.351 160.03C161.401 146.776 179.044 120.837 184.781 105C194.863 77.169 207.051 37.915 208.378 29C208.665 27.075 209.63 20.567 210.522 14.537C211.415 8.507 212.395 3.17 212.701 2.675C213.201 1.865 165.517 1.889 39.7582 2.762ZM76.4922 14.75C72.1772 29.793 61.7252 45.879 44.4842 64.009C34.6172 74.384 29.6172 81.158 32.8022 79.833C33.2432 79.65 39.0272 73.811 45.6572 66.857C63.4152 48.232 71.8332 35.476 77.4932 18.617C80.2322 10.456 80.4712 9 79.0712 9C78.5602 9 77.4002 11.588 76.4922 14.75ZM259.366 13.75C259.654 15.262 260.406 19.761 261.035 23.746C261.664 27.732 262.589 31.246 263.09 31.555C264.322 32.317 264.292 31.917 262.287 20.75C261.325 15.387 260.155 11 259.689 11C259.223 11 259.077 12.238 259.366 13.75ZM179.033 17.75C178.449 19.813 177.332 25.1 176.549 29.5C172.797 50.602 166.203 68.153 155.845 84.608C152.225 90.359 151.031 94 152.766 94C154.176 94 162.307 80.604 167.084 70.409C173.202 57.353 176.282 47.439 179.017 32C180.235 25.125 181.456 18.262 181.729 16.75C182.482 12.591 180.26 13.415 179.033 17.75ZM404 17.865C404 18.341 404.819 19.803 405.82 21.115C411.375 28.394 420.824 49.29 427.066 68.1C434.071 89.209 438.352 98.325 445.687 107.75C451.248 114.894 454 117.448 454 115.464C454 115.169 451.692 111.916 448.871 108.235C442.472 99.887 438.542 91.317 431.401 70.136C425.463 52.528 414.306 28.347 408.843 21.25C405.72 17.193 404 15.99 404 17.865ZM286.597 22.098C287.639 28.96 293.768 52.232 296.645 60.257C298.074 64.241 303.093 75.098 307.8 84.385C316.668 101.883 323.376 111.378 331.213 117.527C333.571 119.377 339.544 124.084 344.486 127.988C349.428 131.892 353.64 134.58 353.846 133.963C354.238 132.785 345.536 124.601 338.578 119.605C331.47 114.501 322.517 104.74 318.305 97.5C304.331 73.485 293.99 47.519 289.936 26.267C288.495 18.715 285.518 14.997 286.597 22.098ZM351 22.12C351 22.736 353.454 27.352 356.453 32.378C362.986 43.325 373.39 64.878 374.913 70.619C375.515 72.884 377.409 77.83 379.123 81.61C384.85 94.241 397 111.316 397 106.733C397 105.845 396.594 104.867 396.098 104.561C394.033 103.284 383.893 84.829 380.943 76.977C375.531 62.571 370.74 52.001 364.652 41.034C355.108 23.84 351 18.149 351 22.12ZM265.098 42.113C266.182 46.025 268.12 51.762 269.404 54.863C270.689 57.963 273.434 65.675 275.504 72C277.575 78.325 279.75 84.4 280.337 85.5C280.924 86.6 281.498 88.063 281.613 88.75C282.048 91.342 292.98 112.602 294.985 114.754C296.136 115.989 296.812 117 296.486 117C294.471 117 308.409 134.411 318.562 144.577C328.981 155.01 331.45 158.142 336.696 167.577C340.035 173.585 344.442 182.888 346.487 188.25C348.74 194.154 350.758 198 351.603 198C352.371 198 353 197.834 353 197.631C353 195.441 342.016 171.486 338.488 165.982C335.952 162.026 334.018 158.65 334.189 158.48C334.616 158.055 357.576 170.944 363.61 174.994C366.3 176.8 371.076 180.776 374.224 183.831C380.041 189.476 383.17 190.436 378.884 185.261C372.585 177.655 361.029 169.397 343.491 159.97C330.977 153.243 320.442 144.651 311.399 133.795C308.155 129.9 304.825 125.707 304 124.476C297.318 114.511 295 110.881 295 110.385C295 110.068 294.165 108.614 293.145 107.154C289.084 101.345 278.717 76.412 275.991 65.9C275.477 63.919 274.1 60.094 272.93 57.4C270.236 51.192 266 38.4 266 36.469C266 35.661 265.354 35 264.564 35C263.365 35 263.454 36.179 265.098 42.113ZM121.32 49.75C120.981 50.712 119.645 54.074 118.352 57.22C117.058 60.366 116 63.386 116 63.932C116 64.477 114.434 68.203 112.52 72.212C105.677 86.542 93.0022 103.505 76.4932 120.429C65.4702 131.728 60.4562 138.401 55.6202 148.207C51.4972 156.566 52.9702 157.543 57.4692 149.434C63.6682 138.261 66.5282 134.557 78.4972 122.2C84.7292 115.765 92.1142 107.575 94.9072 104C97.7002 100.425 100.401 96.997 100.909 96.381C104.286 92.294 111.344 81.066 113.894 75.722C116.248 70.791 124 49.742 124 48.283C124 47.154 121.814 48.35 121.32 49.75ZM148.564 96.929C147.527 98.075 146.987 99.32 147.363 99.697C148.312 100.646 151.322 97.465 150.84 96.021C150.593 95.278 149.757 95.611 148.564 96.929ZM137.884 108.174C134.373 112.12 130.04 116.958 128.255 118.924C124.966 122.547 124.286 124 125.877 124C127.351 124 146 104.051 146 102.475C146 99.764 144.312 100.949 137.884 108.174ZM376.048 123.32C375.925 125.407 385.708 137.3 398.035 150.05C400.021 152.103 408.411 159.449 416.748 166.431C419.963 169.123 428.104 180.197 431.871 187C436.741 195.797 438.747 198.586 439.595 197.738C440.525 196.808 431.151 179.789 425.671 172.46C423.015 168.908 416.717 162.514 411.674 158.251C401.357 149.528 391.466 139.848 382.298 129.5C378.887 125.65 376.075 122.869 376.048 123.32ZM35.0912 138.762C31.0592 148.015 24.4142 158.878 17.5132 167.5C13.8852 172.032 11.6272 175.96 12.2772 176.61C12.8652 177.198 20.5162 168.074 26.3382 159.84C32.9692 150.463 41.9512 130.706 40.1032 129.563C39.6682 129.295 37.4132 133.434 35.0912 138.762ZM435.596 147.25C436.813 149.38 443.128 157.179 449.565 164.5C457.574 173.609 460.59 178.554 462.647 185.953C464.492 192.59 466 193.835 466 188.722C466 181.767 459.221 170.809 446.33 156.925C444.07 154.491 441.006 151.037 439.522 149.25C436.915 146.112 434.137 144.697 435.596 147.25ZM95.8752 160.75C88.7912 172.537 80.2212 182.627 62.1562 200.45C46.6882 215.711 41.5882 222.07 36.6392 232.262C33.2772 239.186 33.6422 242.085 37.1722 236.487C38.5552 234.294 41.6602 229.385 44.0722 225.578C46.6722 221.476 54.7172 212.312 63.8262 203.078C72.2782 194.51 82.6022 183.146 86.7682 177.825C94.4842 167.969 103.997 152 102.152 152C101.592 152 98.7682 155.938 95.8752 160.75ZM375 203.099C375 204.795 381.813 215.649 388.304 224.294C394.115 232.032 405.337 242.314 419.248 252.646C431.134 261.474 435.165 265.419 442 274.912C448.122 283.415 450 285.319 450 283.02C450 281.312 440.147 267.696 435.229 262.608C432.628 259.917 426.225 254.469 421 250.5C405.796 238.952 393.349 226.487 384.17 213.618C379.612 207.228 375.685 202 375.442 202C375.199 202 375 202.495 375 203.099ZM89.5432 228.931C89.2262 229.443 89.4252 230.144 89.9842 230.49C91.1772 231.227 93.0002 230.291 93.0002 228.941C93.0002 227.724 90.2932 227.716 89.5432 228.931ZM81.3922 236.856C78.0842 240.072 73.5692 245.359 71.3582 248.602C69.1472 251.846 63.8302 259.675 59.5432 266C55.2552 272.325 48.6342 280.591 44.8292 284.369C37.0862 292.058 36.0002 295.491 43.3122 289.162C50.6552 282.807 56.7292 275.385 66.4672 260.868C71.3982 253.515 78.5692 244.23 82.4012 240.234C86.9562 235.484 89.0292 232.629 88.3882 231.988C87.7462 231.346 85.3242 233.032 81.3922 236.856ZM35.9122 262.673C31.1052 268.387 24.5072 281.405 19.8562 294.357C17.7112 300.328 15.4812 306.1 14.9012 307.185C14.3212 308.269 14.1422 309.909 14.5042 310.828C15.3782 313.046 18.2582 307.53 21.6432 297.155C24.5182 288.344 30.6262 274.953 35.0532 267.76C38.1472 262.73 38.7212 259.334 35.9122 262.673ZM428 298.792C428 299.945 435.46 306.844 443.387 313.023C449.519 317.802 455.426 325.117 457.299 330.25C457.986 332.134 460 332.668 460 330.967C460 328.638 454.686 319.683 451.216 316.164C449.172 314.092 444.071 309.836 439.88 306.708C435.69 303.579 431.697 300.34 431.008 299.51C429.665 297.891 428 297.494 428 298.792ZM295.371 309.209C295.102 309.644 296.709 310 298.941 310C301.173 310 303 309.536 303 308.969C303 307.79 296.114 308.007 295.371 309.209ZM304.232 311C304.232 312.925 304.438 313.712 304.689 312.75C304.941 311.788 304.941 310.212 304.689 309.25C304.438 308.288 304.232 309.075 304.232 311ZM307 309C307.825 309.533 308.95 309.969 309.5 309.969C310.05 309.969 309.825 309.533 309 309C308.175 308.467 307.05 308.031 306.5 308.031C305.95 308.031 306.175 308.467 307 309ZM314.252 311.5C314.263 313.7 314.468 314.482 314.707 313.238C314.946 311.994 314.937 310.194 314.687 309.238C314.437 308.282 314.241 309.3 314.252 311.5ZM293.158 311C293.158 312.375 293.385 312.938 293.662 312.25C293.94 311.563 293.94 310.438 293.662 309.75C293.385 309.063 293.158 309.625 293.158 311ZM294.147 315.5C294.134 316.6 294.748 320.65 295.513 324.5L296.902 331.5L296.344 325.173C295.764 318.605 294.194 311.689 294.147 315.5ZM9.56425 316.707C9.02225 318.132 9.13624 318.247 10.1242 317.267C10.8082 316.588 11.1152 315.781 10.8072 315.474C10.4992 315.166 9.94025 315.721 9.56425 316.707ZM313.158 319C313.158 320.375 313.385 320.938 313.662 320.25C313.94 319.563 313.94 318.438 313.662 317.75C313.385 317.063 313.158 317.625 313.158 319ZM312.252 330.5C312.263 332.7 312.468 333.482 312.707 332.238C312.946 330.994 312.937 329.194 312.687 328.238C312.437 327.282 312.241 328.3 312.252 330.5ZM311.252 344.5C311.263 346.7 311.468 347.482 311.707 346.238C311.946 344.994 311.937 343.194 311.687 342.238C311.437 341.282 311.241 342.3 311.252 344.5ZM297.18 345.5C297.029 346.6 296.947 354.131 296.997 362.236C297.079 375.34 296.913 376.904 295.494 376.359C294.118 375.831 293.939 373.835 294.199 361.884C294.536 346.344 294.795 346.742 287.193 351.103C285.374 352.146 283.124 353.036 282.193 353.079C281.152 353.128 280.981 353.352 281.75 353.662C282.451 353.945 283 355.886 283 358.083V362H263.833C253.292 362 244.896 362.23 245.177 362.51C245.457 362.791 254.082 363.053 264.344 363.093C277.811 363.145 283.021 363.49 283.074 364.333C283.115 364.975 283.334 366.49 283.56 367.7C283.787 368.909 283.579 370.142 283.098 370.439C282.038 371.095 213.905 371.195 140.5 370.649C110.8 370.428 89.3302 370.439 92.7902 370.672L99.0802 371.098L93.7452 376.992C87.6932 383.68 84.0332 390.333 83.2682 396.037C82.9082 398.72 81.9732 400.443 80.2722 401.557C78.0782 402.995 77.8712 403.654 78.4352 407.414C78.9372 410.766 78.5392 412.782 76.5242 417.075C74.1172 422.203 74.0132 423.102 74.6202 433.5C75.2872 444.94 75.9742 447 79.1222 447C80.1552 447 81.0002 447.432 81.0002 447.96C81.0002 448.487 82.2372 450.068 83.7502 451.472C86.2882 453.829 86.5962 453.895 87.7502 452.322C88.4382 451.385 89.0002 449.406 89.0002 447.926C89.0002 446.074 89.6252 445.07 91.0002 444.71C92.7262 444.259 93.0002 443.346 93.0002 438.044C93.0002 434.441 92.3572 430.656 91.4442 428.892C90.5882 427.237 89.0372 422.556 87.9972 418.489C86.3182 411.923 86.2672 410.772 87.5422 408.216L88.9782 405.338L98.2392 407.276C103.333 408.342 108.491 409.394 109.702 409.614C111.732 409.983 111.859 410.423 111.325 415.257C110.889 419.212 109.981 421.36 107.628 424C104.95 427.006 105.144 426.915 109.005 423.362C111.477 421.087 115.975 417.828 119 416.122C125.656 412.367 124.907 412 117.867 415.567C115.081 416.979 112.635 417.968 112.431 417.765C112.228 417.561 112.322 415.792 112.64 413.833L113.218 410.271L120.859 410.386C128.062 410.493 128.518 410.371 128.82 408.25C129.12 406.132 131 404.964 131 406.895C131 407.387 132.07 408.82 133.377 410.078C135.678 412.292 135.706 412.505 134.269 416.723C133.293 419.588 133.013 422.598 133.45 425.517C134.51 432.586 135.498 431.46 135.523 423.153C135.56 410.976 134.997 411.343 154.723 410.594C164.121 410.237 175.898 410.404 181.5 410.973C195.023 412.347 217.532 412.323 228.456 410.924L237.411 409.777L239.706 412.444C240.968 413.911 242 415.788 242 416.615C242 417.442 242.45 417.84 243 417.5C243.55 417.16 244 416.009 244 414.941C244 413.667 244.687 413 246 413C247.79 413 248.468 414.039 248.118 416.25C248.053 416.663 248.424 417 248.943 417C249.461 417 250.023 415.091 250.193 412.759C250.568 407.58 251.188 407.394 262.674 409.025C271.7 410.306 272.095 410.924 265.152 412.901C262.761 413.582 258.608 415.49 255.924 417.142C253.24 418.794 250.584 419.861 250.022 419.513C248.645 418.663 248.725 419.273 250.609 423.98C251.493 426.191 252.666 428 253.216 428C253.782 428 253.893 427.244 253.472 426.25C251.531 421.673 252.297 420.602 260.451 416.5C267.764 412.822 269.05 412.5 276.451 412.503C284.281 412.507 293 414.995 293 417.225C293 417.687 298.063 417.938 304.25 417.783L315.5 417.5V414.5V411.5L342 410.866L368.5 410.233L372.5 412.906C374.7 414.377 378.3 418.194 380.5 421.389C383.993 426.462 384.481 427.851 384.352 432.349C384.199 437.713 381.541 444.991 377.775 450.365C375.942 452.982 375.889 453.252 377.461 452C378.496 451.175 380.841 447.267 382.672 443.316C386.394 435.28 387.079 427.985 384.461 424.247C383.068 422.259 383.08 421.785 384.579 419.275L386.237 416.5L384.234 418.923L382.23 421.346L380.685 418.357C379.835 416.713 377.291 414.088 375.032 412.522C372.773 410.956 371.279 409.332 371.712 408.911C372.145 408.491 375.762 407.831 379.75 407.444C386.415 406.798 387.005 406.893 387.063 408.621C387.117 410.216 387.263 410.16 388.031 408.25C388.779 406.389 389.705 406 393.386 406C395.834 406 398.529 405.734 399.376 405.409C402.311 404.283 402.465 409.572 399.679 415.79C398.072 419.378 396.863 424.37 396.425 429.223L395.729 436.946L398.486 437.995C400.471 438.749 401.629 438.723 402.622 437.899C404.21 436.581 404.487 430.419 403 429.5C402.396 429.127 402 430.49 402 432.941C402 436.354 401.677 437 399.969 437C397.075 437 396.541 434.653 397.961 428.165C400.266 417.636 404.282 408.189 406.647 407.732C408.448 407.384 408.89 407.898 409.38 410.908C409.702 412.884 411.015 416.525 412.297 419C414.257 422.78 414.666 425.223 414.857 434.27C415.027 442.315 414.721 445.56 413.647 447.094C411.955 449.509 411.412 448.882 410.523 443.492C409.2 435.464 408.827 434 408.104 434C407.305 434 408.29 444.187 409.439 447.807C410.228 450.295 408.37 457 406.891 457C406.366 457 405.658 456.212 405.317 455.25C404.975 454.288 403.986 452.675 403.118 451.667C402.25 450.659 401.257 447.509 400.911 444.667L400.282 439.5L400.141 445.281C400.04 449.433 400.397 451.215 401.41 451.604C402.185 451.901 403.121 453.345 403.489 454.812C403.857 456.28 404.661 457.791 405.275 458.17C407.136 459.32 409.797 457.199 410.498 454.008C410.862 452.354 411.715 451 412.394 451C417.398 451 417.992 428.283 413.269 417.5C411.824 414.2 410.442 409.025 410.198 406C409.716 400.012 408.676 398 406.062 398C404.958 398 403.596 396.139 402.152 392.654C398.929 384.878 394.682 379.621 388.04 375.185L382.18 371.272L388.84 370.643C401.904 369.409 408.966 369.828 411.727 372C413.126 373.1 414.997 373.982 415.885 373.961C416.773 373.939 416.15 373.326 414.5 372.597C407.267 369.405 404.926 360.986 409.033 352.935C410.578 349.906 410.8 348.921 409.738 349.803C408.615 350.735 403.959 351.071 392.844 351.025C368.448 350.923 335.468 352.273 341.884 353.111C344.844 353.498 347.611 354.371 348.032 355.052C348.578 355.935 348.937 355.747 349.283 354.395C349.685 352.825 349.788 352.896 349.884 354.809C349.948 356.079 350.416 356.861 350.924 356.547C351.433 356.233 352.055 356.769 352.308 357.738C352.561 358.707 352.855 357.925 352.961 356L353.154 352.5L354.472 356.5C355.571 359.836 355.819 360.085 355.965 358C356.127 355.69 356.206 355.652 357 357.5C357.717 359.169 357.896 358.921 358.08 356C358.274 352.901 358.347 352.815 358.716 355.25C359.258 358.826 362.696 359.059 363.57 355.579L364.177 353.157L383.311 353.042C393.835 352.978 403.52 352.657 404.833 352.327C407.359 351.693 407.325 351.432 405.528 357.701C405.18 358.911 405.399 361.769 406.014 364.052C406.629 366.334 406.971 368.362 406.775 368.558C406.288 369.046 314.011 370.364 313.955 369.884C313.021 361.89 313.008 358.695 313.904 357.615C314.497 356.901 314.716 356.049 314.39 355.724C313.287 354.62 321.467 353.246 327.784 353.474C331.24 353.598 334.304 353.318 334.593 352.85C334.882 352.383 329.954 352 323.642 352C315.444 352 311.998 351.643 311.575 350.75C309.822 347.043 312.785 409.671 314.585 414.361C315.041 415.55 314.653 416 313.173 416C311.715 416 311.014 415.215 310.716 413.25L310.3 410.5L310.147 413.5L309.994 416.5L301.997 416.827C297.068 417.028 294 416.766 294 416.144C294 415.589 293.1 414.849 292 414.5C290.9 414.151 290 413.446 290 412.933C290 411.509 293.991 411.821 294.063 413.25C294.098 413.938 294.516 413.534 294.993 412.354C296.66 408.221 298.13 382.327 297.793 363C297.607 352.275 297.331 344.4 297.18 345.5ZM419.5 346.768C422.147 347.182 422.265 347.332 420.5 348.048C418.512 348.854 418.512 348.86 420.527 348.93C421.643 348.968 423.668 349.711 425.027 350.58L427.5 352.16L425.139 350.08C423.646 348.765 423.279 347.974 424.139 347.93C426.579 347.804 421.572 346.138 419 346.22C416.906 346.287 416.987 346.376 419.5 346.768ZM426.083 348.25C426.313 348.387 427.85 349.625 429.5 351L432.5 353.5L430.076 350.75C428.742 349.238 427.205 348 426.659 348C426.113 348 425.854 348.113 426.083 348.25ZM417.5 350.589C418.6 350.879 420.84 351.552 422.477 352.085C424.58 352.77 425.142 352.742 424.391 351.991C423.806 351.406 421.566 350.733 419.414 350.495C417.261 350.257 416.4 350.3 417.5 350.589ZM95.0002 351.383C95.0002 351.594 95.9002 352.002 97.0002 352.29C98.1002 352.577 99.0002 352.405 99.0002 351.906C99.0002 351.408 98.1002 351 97.0002 351C95.9002 351 95.0002 351.173 95.0002 351.383ZM88.7502 352.662C89.4382 352.94 90.5632 352.94 91.2502 352.662C91.9382 352.385 91.3752 352.158 90.0002 352.158C88.6252 352.158 88.0632 352.385 88.7502 352.662ZM119.269 352.693C120.242 352.947 121.592 352.93 122.269 352.656C122.946 352.382 122.15 352.175 120.5 352.195C118.85 352.215 118.296 352.439 119.269 352.693ZM133.75 352.746C139.387 352.924 148.613 352.924 154.25 352.746C159.887 352.568 155.275 352.422 144 352.422C132.725 352.422 128.113 352.568 133.75 352.746ZM173.75 352.662C174.438 352.94 175.563 352.94 176.25 352.662C176.938 352.385 176.375 352.158 175 352.158C173.625 352.158 173.063 352.385 173.75 352.662ZM191.264 352.718C192.784 352.947 195.034 352.941 196.264 352.704C197.494 352.467 196.25 352.279 193.5 352.286C190.75 352.294 189.744 352.488 191.264 352.718ZM291.341 354.091C290.703 355.416 289.93 357.288 289.622 358.25C288.939 360.389 287 360.574 287 358.5C287 357.675 286.55 357 286 357C285.431 357 285 359.938 285 363.815V370.63L288.624 372.358C290.617 373.308 292.433 373.901 292.659 373.674C292.885 373.448 292.942 368.407 292.785 362.472C292.546 353.44 292.311 352.074 291.341 354.091ZM415.813 352.683C416.534 352.972 417.397 352.936 417.729 352.604C418.061 352.272 417.471 352.036 416.417 352.079C415.252 352.127 415.015 352.364 415.813 352.683ZM230.75 353.662C231.438 353.94 232.563 353.94 233.25 353.662C233.938 353.385 233.375 353.158 232 353.158C230.625 353.158 230.063 353.385 230.75 353.662ZM235.75 353.662C236.438 353.94 237.563 353.94 238.25 353.662C238.938 353.385 238.375 353.158 237 353.158C235.625 353.158 235.063 353.385 235.75 353.662ZM265.269 353.693C266.242 353.947 267.592 353.93 268.269 353.656C268.946 353.382 268.15 353.175 266.5 353.195C264.85 353.215 264.296 353.439 265.269 353.693ZM59.0002 356C57.0752 357.054 55.9502 357.916 56.5002 357.916C57.0502 357.916 59.0752 357.054 61.0002 356C62.9252 354.946 64.0502 354.084 63.5002 354.084C62.9502 354.084 60.9252 354.946 59.0002 356ZM432.752 358.77C433.017 361.528 432.711 364.766 432.058 366.104C430.95 368.377 430.97 368.4 432.445 366.559C434.104 364.488 434.528 357.381 433.123 355.165C432.628 354.384 432.474 355.877 432.752 358.77ZM51.6392 359.694C51.2882 360.046 51.0002 360.596 51.0002 360.917C50.9992 361.628 134.126 361.207 134.841 360.492C135.121 360.213 117.025 360.002 94.6292 360.023C72.2332 360.045 53.5432 359.835 53.0942 359.558C52.6462 359.281 51.9912 359.342 51.6392 359.694ZM135.999 361.25C136 361.663 141.373 362 147.941 362C154.509 362 160.089 361.663 160.342 361.25C160.595 360.837 155.221 360.5 148.4 360.5C141.579 360.5 135.999 360.837 135.999 361.25ZM165.044 360.321C165.343 360.651 169.843 361.176 175.044 361.487C180.245 361.799 187.088 362.289 190.25 362.577C193.93 362.911 196 362.721 196 362.05C196 361.406 192.965 361 188.151 361C183.834 361 176.746 360.712 172.401 360.36C168.055 360.009 164.745 359.991 165.044 360.321ZM200.75 362.662C201.438 362.94 202.563 362.94 203.25 362.662C203.938 362.385 203.375 362.158 202 362.158C200.625 362.158 200.063 362.385 200.75 362.662ZM55.0832 363.365C55.3132 363.565 56.6252 364.265 58.0002 364.92C60.3572 366.042 60.3892 366.022 58.5592 364.555C56.9662 363.279 53.7112 362.164 55.0832 363.365ZM85.0792 364.583C85.1272 365.748 85.3642 365.985 85.6832 365.188C85.9722 364.466 85.9362 363.603 85.6042 363.271C85.2722 362.939 85.0362 363.529 85.0792 364.583ZM63.0002 367.439C63.0002 367.719 64.3282 368.635 65.9502 369.474C68.0382 370.554 71.4752 370.948 77.7002 370.822L86.5002 370.644L77.0002 370.072C71.7752 369.757 66.4872 368.922 65.2502 368.215C64.0132 367.508 63.0002 367.159 63.0002 367.439ZM461 394.253C461 413.722 461.256 417.382 463.045 423.503C464.17 427.351 465.407 434.064 465.795 438.419C466.217 443.158 466.985 446.499 467.707 446.738C468.636 447.046 468.929 438.45 468.976 409.569L469.036 372H465.018H461V394.253ZM422.813 373.683C423.534 373.972 424.397 373.936 424.729 373.604C425.061 373.272 424.471 373.036 423.417 373.079C422.252 373.127 422.015 373.364 422.813 373.683ZM418.813 374.683C419.534 374.972 420.397 374.936 420.729 374.604C421.061 374.272 420.471 374.036 419.417 374.079C418.252 374.127 418.015 374.364 418.813 374.683ZM246 379.059C246 379.641 246.45 379.84 247 379.5C247.55 379.16 248 378.684 248 378.441C248 378.198 247.55 378 247 378C246.45 378 246 378.477 246 379.059ZM11.6412 416.752C11.8162 454.783 11.6162 451.743 14.0002 452.5C16.4662 453.283 16.9052 459 14.5002 459C13.5222 459 13.0002 459.98 13.0002 461.818C13.0002 465.053 16.4542 478.804 17.5222 479.821C17.9142 480.194 17.9572 471.5 17.6172 460.5C17.2782 449.5 17.3382 434.708 17.7522 427.629C18.4422 415.819 18.3142 414.13 16.2032 407.129C14.9372 402.933 13.6342 396.462 13.3062 392.75C12.0732 378.784 11.5042 386.98 11.6412 416.752ZM15.0472 387.75C15.0722 388.712 15.6942 392.425 16.4272 396L17.7622 402.5L17.8812 395.832C17.9462 392.164 17.7272 388.452 17.3932 387.582C16.5772 385.454 14.9882 385.568 15.0472 387.75ZM2.00325 565.75L2.00025 744H25.1302H48.2612L47.7412 730.75C46.9802 711.313 43.4952 695.227 34.2572 668.5C27.6922 649.505 24.8442 639.444 21.8022 624.5C18.9332 610.406 18.7412 608.05 18.6242 585.5C18.5562 572.3 18.7572 548.9 19.0702 533.5C19.5382 510.536 18.9432 478.6 18.1962 486.595C17.9962 488.738 15.0982 492 13.3942 492C12.8732 492 10.9952 490.675 9.22324 489.056C6.36524 486.446 6.00125 485.512 6.00625 480.806C6.00925 477.888 6.41825 473.925 6.91425 472C8.94325 464.137 9.15325 461 7.65225 461C5.35024 461 5.02125 458.494 6.91624 455.378C8.41324 452.917 8.75925 448.842 9.28425 427.498C9.62125 413.749 9.63724 399.094 9.31824 394.93L8.73925 387.361L5.37225 387.43L2.00625 387.5L2.00325 565.75ZM321.894 391.874C321.287 393.617 319.937 395.499 318.895 396.056C316.477 397.35 316.449 399 318.845 399C321.109 399 324 402.035 324 404.412C324 407.081 326.291 405.742 327.138 402.577C327.548 401.042 328.689 398.897 329.671 397.811C331.39 395.911 331.385 395.795 329.534 394.759C328.476 394.167 326.573 392.563 325.304 391.194L322.998 388.706L321.894 391.874ZM322.193 395.75C321.574 396.985 321.848 398.005 323.125 399.217C324.839 400.843 325.015 400.817 326.486 398.717C327.901 396.697 327.887 396.39 326.328 395.25C324.037 393.576 323.235 393.673 322.193 395.75ZM403.04 400.452C401.314 402.531 402.165 405.449 404.598 405.798C407.797 406.258 409.274 403.837 407.415 401.182C405.623 398.624 404.687 398.468 403.04 400.452ZM80.3542 403.519C79.4112 405.977 80.4812 408.494 82.5982 408.798C85.4082 409.202 87.6602 406.5 86.0902 404.608C84.3932 402.563 80.9702 401.914 80.3542 403.519ZM243.966 406.064C243.146 407.596 243.168 408.498 244.053 409.564C245.804 411.674 247.945 411.315 248.917 408.75C250.514 404.537 246.072 402.128 243.966 406.064ZM239 409.845C239 410.31 239.9 411.505 241 412.5C242.998 414.308 243.538 413.565 242.393 410.582C241.766 408.948 239 408.347 239 409.845ZM129 411C129 411.55 129.45 412 130 412C130.55 412 131 411.55 131 411C131 410.45 130.55 410 130 410C129.45 410 129 410.45 129 411ZM78.2512 416.75C75.1972 424.68 74.5962 427.808 75.8402 429.308C76.4252 430.013 77.0382 433.944 77.2022 438.045C77.6102 448.245 79.3802 447.116 80.0002 436.26C80.3992 429.273 80.6522 428.183 81.2502 430.875C81.6622 432.731 82.0002 437.517 82.0002 441.51C82.0002 448.076 82.2302 448.921 84.4072 450.347C86.4482 451.684 86.8982 451.709 87.3592 450.508C87.6582 449.728 87.7572 448.283 87.5802 447.295C86.2832 440.086 86.0082 435.632 86.9432 437C87.5082 437.825 87.9762 439.512 87.9852 440.75C87.9962 442.369 88.5932 443 90.1142 443C92.0642 443 92.1742 442.634 91.5422 438.25C91.1662 435.637 89.7842 430.125 88.4722 426C87.1602 421.875 85.8222 416.813 85.4982 414.75C85.0222 411.718 84.4842 411 82.6872 411C80.9062 411 80.0262 412.14 78.2512 416.75ZM188.042 420.605C186.301 422.588 185.097 424.431 185.367 424.7C185.916 425.249 191.925 418.925 191.971 417.75C192.024 416.391 191.245 416.957 188.042 420.605ZM240.016 422.75C238.354 427.248 237.07 436 238.072 436C239.128 436 240 433.236 240 429.886C240 428.263 240.675 425.32 241.5 423.346C243.237 419.188 243.268 419 242.201 419C241.761 419 240.778 420.688 240.016 422.75ZM248.098 430.73C247.985 435.616 250.626 443 252.486 443C254.136 443 256.491 440.157 255.588 439.255C255.205 438.872 254.484 439.216 253.987 440.021C252.494 442.437 250.807 439.756 249.434 432.786C248.262 426.834 248.191 426.725 248.098 430.73ZM253.115 431C253.161 432.375 253.56 434.625 254 436C254.734 438.291 254.808 438.207 254.885 435C254.931 433.075 254.533 430.825 254 430C253.238 428.821 253.049 429.034 253.115 431ZM103.27 434.75C101.403 439.05 100.439 450.451 101.669 453.679C102.222 455.13 102.531 452.956 102.592 447.179C102.651 441.616 103.261 437.154 104.291 434.75C105.175 432.688 105.673 431 105.398 431C105.123 431 104.165 432.688 103.27 434.75ZM243 435.882C243 440.63 241.6 441.853 238.931 439.437C236.823 437.53 235.083 438.15 236.719 440.226C237.271 440.927 237.974 443.143 238.282 445.152C239.878 455.555 250.922 469.887 258.984 472.018C264.499 473.476 275.542 472.894 277.247 471.056C278.28 469.943 278.148 469.848 276.5 470.515C266.231 474.669 253.271 470.462 246.941 460.92C243.361 455.524 243.299 454.786 246.491 455.587C248.362 456.057 249.154 455.75 249.675 454.356C250.056 453.335 251.185 451.912 252.184 451.193C253.183 450.475 253.986 449.125 253.97 448.193C253.942 446.638 253.856 446.642 252.92 448.25C251.506 450.678 250.029 450.437 249.85 447.75C249.767 446.512 249.43 447.525 249.1 450C248.595 453.787 248.183 454.449 246.5 454.181C243.304 453.671 241.804 450.945 242.551 447C244.096 438.833 244.62 432.883 243.838 432.4C243.377 432.115 243 433.682 243 435.882ZM462.252 437.5C462.263 439.7 462.468 440.482 462.707 439.238C462.946 437.994 462.937 436.194 462.687 435.238C462.437 434.282 462.241 435.3 462.252 437.5ZM105.252 446.5C105.263 448.7 105.468 449.482 105.707 448.238C105.946 446.994 105.937 445.194 105.687 444.238C105.437 443.282 105.241 444.3 105.252 446.5ZM239.745 444.25C239.488 444.938 239.633 446.4 240.068 447.5C240.692 449.077 240.874 449.147 240.93 447.832C240.968 446.914 241.273 445.452 241.607 444.582C241.941 443.712 241.764 443 241.214 443C240.664 443 240.003 443.563 239.745 444.25ZM462.564 444.293C462.94 445.279 463.499 445.834 463.807 445.526C464.115 445.219 463.808 444.412 463.124 443.733C462.136 442.753 462.022 442.868 462.564 444.293ZM252.5 445C252.16 445.55 252.359 446 252.941 446C253.523 446 254 445.55 254 445C254 444.45 253.802 444 253.559 444C253.316 444 252.84 444.45 252.5 445ZM278.5 450.945C285.019 453.613 286.515 461.724 281.477 467.083C279.363 469.332 279.118 469.875 280.634 468.957C283.308 467.336 286 462.867 286 460.046C286 455.355 281.515 449.885 277.816 450.063C277.092 450.098 277.4 450.495 278.5 450.945ZM237 451.974C237 453.348 242.143 463.19 242.615 462.719C242.775 462.558 241.577 459.793 239.953 456.573C238.329 453.353 237 451.283 237 451.974ZM106.079 453.583C106.127 454.748 106.364 454.985 106.683 454.188C106.972 453.466 106.936 452.603 106.604 452.271C106.272 451.939 106.036 452.529 106.079 453.583ZM322 452.43C322 452.705 322.9 453.411 324 454C325.1 454.589 326 454.845 326 454.57C326 454.295 325.1 453.589 324 453C322.9 452.411 322 452.155 322 452.43ZM98.0472 455.116C97.9492 458.505 105.131 470.866 109.582 474.969C114.368 479.38 122.086 483.288 128 484.293C132.119 484.994 130.542 484.148 121.798 480.967C112.298 477.511 104.173 469.048 99.9262 458.187C98.9182 455.609 98.0732 454.227 98.0472 455.116ZM467.015 457.191C467.007 458.121 467.45 459.16 468 459.5C469.266 460.282 469.266 458.958 468 457C467.165 455.707 467.029 455.734 467.015 457.191ZM325 458.065C325 458.854 336.986 464.347 337.528 463.806C337.734 463.6 334.999 462.075 331.451 460.417C327.903 458.76 325 457.702 325 458.065ZM109 460.941C109 461.459 109.445 462.157 109.989 462.493C110.555 462.843 110.723 462.442 110.382 461.552C109.717 459.82 109 459.503 109 460.941ZM338 460.487C338 461.3 345.109 464 347.25 464C349.038 464 349.185 464.445 348.599 468.105C346.276 482.634 330.707 495.012 314.5 495.217C308.494 495.293 309.238 496.779 315.357 496.93C317.546 496.984 318.071 497.373 317.603 498.593C317.267 499.469 316.699 501.381 316.343 502.843C314.328 511.094 302.129 523.927 291.461 529.018C272.475 538.08 252.993 538.169 238.676 529.261C235.546 527.313 235.07 526.621 236.049 525.441C236.707 524.648 237.781 524 238.435 524C239.09 524 240.919 522.65 242.5 521C246.161 517.179 244.972 517.138 240.191 520.921C232.931 526.666 228.157 528.449 220.012 528.458C214.11 528.464 211.58 527.978 208.205 526.19C202.436 523.132 196.513 517.653 194.982 513.957C194.294 512.295 193.535 511.132 193.296 511.371C193.056 511.61 193.772 513.593 194.886 515.777C197.049 520.016 201.311 524.075 206.32 526.665L209.4 528.258L207.089 530.129C205.818 531.158 205.223 532 205.767 532C206.31 532 207.338 531.298 208.051 530.439C209.095 529.181 210.573 529.009 215.662 529.554C219.425 529.957 224.574 529.741 228.4 529.019C234.638 527.842 234.932 527.882 238.661 530.43C252.114 539.622 276.81 539.043 293.76 529.138C304.044 523.129 314.224 512.802 316.854 505.712C318.034 502.529 319 499.092 319 498.074C319 496.723 320.014 496.037 322.75 495.537C334.37 493.412 350 477.636 350 468.033C350 465.146 350.204 464.996 354.25 464.91C358.015 464.83 357.701 464.671 351.5 463.515C347.65 462.798 343.233 461.714 341.685 461.106C338.544 459.872 338 459.781 338 460.487ZM364 462C363.099 462.582 362.975 462.975 363.691 462.985C364.346 462.993 365.16 462.55 365.5 462C366.267 460.758 365.921 460.758 364 462ZM359.813 463.683C360.534 463.972 361.397 463.936 361.729 463.604C362.061 463.272 361.471 463.036 360.417 463.079C359.252 463.127 359.015 463.364 359.813 463.683ZM287.281 466.284C285.87 469.38 280.358 473.663 277 474.273L274.5 474.728L277.056 474.864C281.158 475.082 289.752 467.755 288.787 464.861C288.588 464.263 287.91 464.903 287.281 466.284ZM335.5 468C336.6 468.473 338.4 468.846 339.5 468.83C341.108 468.806 341.01 468.644 339 468C335.581 466.905 332.952 466.905 335.5 468ZM288 472C286.825 473.65 286.089 475 286.364 475C286.639 475 287.825 473.65 289 472C290.175 470.35 290.911 469 290.636 469C290.361 469 289.175 470.35 288 472ZM183.166 474.405C184.382 476.908 185.556 478.778 185.774 478.559C186.311 478.023 182.987 471.11 181.856 470.411C181.361 470.105 181.95 471.902 183.166 474.405ZM192.05 472C192.039 472.275 192.679 474.3 193.471 476.5C194.264 478.7 194.916 479.6 194.921 478.5C194.928 476.836 192.113 470.462 192.05 472ZM338.25 472.689C339.212 472.941 340.788 472.941 341.75 472.689C342.712 472.438 341.925 472.232 340 472.232C338.075 472.232 337.288 472.438 338.25 472.689ZM285.872 478.75C284.629 480.336 284.664 480.371 286.25 479.128C287.916 477.821 288.445 477 287.622 477C287.415 477 286.627 477.788 285.872 478.75ZM466.244 484.165C465.35 486.533 464.616 487.133 463.095 486.735C460.104 485.953 459.84 488.713 459.774 521.426C459.722 547.3 459.422 552.769 457.267 567.157C455.284 580.387 454.873 586.548 455.107 599.5C455.88 642.199 455.089 650.179 448.316 668C443.46 680.778 442.23 684.623 440.129 693.608C437.061 706.723 436.545 718.251 438.348 733.358C439.193 740.431 440.022 746.332 440.192 746.473C440.361 746.613 446.462 746.982 453.75 747.291L467 747.854L467.041 662.677C467.064 615.83 467.242 569.625 467.438 560C467.936 535.442 468.145 481.811 467.744 481.41C467.56 481.227 466.885 482.466 466.244 484.165ZM190.079 487.583C190.127 488.748 190.364 488.985 190.683 488.188C190.972 487.466 190.936 486.603 190.604 486.271C190.272 485.939 190.036 486.529 190.079 487.583ZM193.111 491.111C192.495 492.878 192.166 494.499 192.38 494.713C192.594 494.927 193.273 493.656 193.889 491.889C194.505 490.122 194.834 488.501 194.62 488.287C194.406 488.073 193.727 489.344 193.111 491.111ZM128.998 495.494C131.057 500.909 136.005 507.389 139.5 509.246C140.6 509.831 139.616 508.415 137.313 506.1C135.009 503.784 132.157 499.89 130.973 497.445C128.642 492.629 127.467 491.469 128.998 495.494ZM301.081 497.849C299.448 500.901 299.786 501.751 301.602 499.158C302.483 497.9 302.97 496.636 302.683 496.35C302.396 496.063 301.676 496.738 301.081 497.849ZM13.6892 517C14.0082 528.561 13.7512 541.793 13.0572 549.5C11.0632 571.636 10.6582 581 11.6962 581C12.2292 581 13.4712 572.967 14.4582 563.148C16.4132 543.678 16.2652 504.81 14.2162 500C13.4372 498.171 13.2952 502.734 13.6892 517ZM191 502.5C190.282 503.365 190.185 504 190.771 504C191.329 504 192.045 503.325 192.362 502.5C192.678 501.675 192.781 501 192.591 501C192.401 501 191.685 501.675 191 502.5ZM305 506C304.411 507.1 304.155 508 304.43 508C304.705 508 305.411 507.1 306 506C306.589 504.9 306.845 504 306.57 504C306.295 504 305.589 504.9 305 506ZM182.5 506.716C181.4 506.982 179.6 508.002 178.5 508.983C173.755 513.214 169.745 514.426 160.5 514.426C153.376 514.425 150.458 513.963 146.5 512.207C143.592 510.917 142.329 510.632 143.483 511.525C145.359 512.979 154.112 516 156.447 516C157.043 516 158.296 518.138 159.231 520.75C161.053 525.836 167.892 533.628 171.859 535.137C175.426 536.493 175.578 535.482 172.027 534.011C170.357 533.32 167.584 531.151 165.864 529.192C162.658 525.541 158.819 518.102 159.539 516.937C159.76 516.579 162.451 516.027 165.518 515.71C169.108 515.34 172.72 514.131 175.658 512.317C178.169 510.768 181.635 508.734 183.361 507.798C186.498 506.097 186.266 505.805 182.5 506.716ZM299.872 511.75C298.629 513.336 298.664 513.371 300.25 512.128C301.916 510.821 302.445 510 301.622 510C301.415 510 300.627 510.788 299.872 511.75ZM286.507 523.989C286.157 524.555 286.558 524.723 287.448 524.382C289.18 523.717 289.497 523 288.059 523C287.541 523 286.843 523.445 286.507 523.989ZM193 527C192.175 527.533 191.95 527.969 192.5 527.969C193.05 527.969 194.175 527.533 195 527C195.825 526.467 196.05 526.031 195.5 526.031C194.95 526.031 193.825 526.467 193 527ZM183.75 531.706C184.988 531.944 187.012 531.944 188.25 531.706C189.488 531.467 188.475 531.272 186 531.272C183.525 531.272 182.512 531.467 183.75 531.706ZM272.813 531.683C273.534 531.972 274.397 531.936 274.729 531.604C275.061 531.272 274.471 531.036 273.417 531.079C272.252 531.127 272.015 531.364 272.813 531.683ZM462 547.32C462 558.249 461.419 566.08 460.012 574.129C457.37 589.235 456.392 601 457.777 601C458.96 601 459.577 598.388 460.494 589.5C460.835 586.2 461.763 579.963 462.557 575.64C464.243 566.455 464.582 533.478 463 532.5C462.35 532.098 462 537.283 462 547.32ZM189.75 533.662C190.438 533.94 191.563 533.94 192.25 533.662C192.938 533.385 192.375 533.158 191 533.158C189.625 533.158 189.063 533.385 189.75 533.662ZM177 537C177.825 537.533 179.625 537.931 181 537.885L183.5 537.801L181 537C179.625 536.56 177.825 536.161 177 536.115C175.667 536.04 175.667 536.138 177 537ZM190.5 537L186.5 537.716L190 537.843C191.925 537.912 194.175 537.533 195 537C196.636 535.943 196.406 535.943 190.5 537ZM189.202 571.25C189.541 578.736 190.235 582.781 191.777 586.25C192.938 588.862 194.113 591 194.388 591C194.663 591 193.951 588.883 192.807 586.296C191.396 583.108 190.572 578.676 190.249 572.546C189.687 561.876 189.586 561.848 198.95 574.997C204.794 583.204 206.039 586.24 204.062 587.462C203.277 587.947 203.223 590.039 203.886 594.219C203.949 594.614 204.727 594.658 205.616 594.317C207.014 593.781 207.068 594.005 206.017 595.969C205.224 597.451 205.183 598.005 205.9 597.562C206.638 597.106 207 598.364 207 601.382C207 603.857 206.613 606.121 206.141 606.413C205.238 606.971 207.048 614 208.095 614C208.65 614 208.57 610.182 207.634 592C207.427 587.971 206.512 583.957 205.226 581.44C202.319 575.747 191.242 561 189.873 561C189.07 561 188.873 563.997 189.202 571.25ZM230.5 596.992C214.791 613.866 214.509 614.392 214.504 626.85L214.5 636.2L212.605 631.854C211.563 629.464 210.149 627.057 209.464 626.504C208.778 625.952 207.061 623.625 205.649 621.333C204.236 619.041 201.149 615.556 198.79 613.588C194.595 610.089 172.926 596.74 172.36 597.307C171.624 598.042 175.063 608.346 177.599 613.005C181.517 620.203 185.749 623.328 196.35 626.85C201.359 628.514 205.61 629.723 205.797 629.537C205.983 629.35 202.393 627.801 197.818 626.094C193.243 624.387 188.385 622.419 187.023 621.72C183.624 619.976 177.516 611.664 176.058 606.8C175.398 604.596 174.61 602.146 174.307 601.357C174.004 600.568 177.973 602.478 183.128 605.603C197.8 614.496 197.736 614.439 197.208 618.039C196.769 621.027 196.894 621.162 199.818 620.855C202.486 620.575 203.286 621.12 205.926 625.017C207.597 627.482 208.972 630.014 208.982 630.643C208.992 631.272 209.614 632.021 210.364 632.309C211.113 632.597 213.593 637.647 215.873 643.531C222.172 659.785 222.167 660.036 215.647 653.517C209.391 647.26 206.477 645.793 193.5 642.364C188.55 641.057 182.808 639.244 180.74 638.337C178.672 637.429 176.718 636.948 176.399 637.268C175.745 637.922 179.992 646.811 183.315 651.743C186.796 656.91 194.425 659.909 208.192 661.523C214.713 662.287 220.557 663.226 221.179 663.611C221.87 664.038 222.032 663.861 221.595 663.155C221.203 662.52 221.152 662 221.483 662C222.891 662 228.028 675.634 229.934 684.428C233.032 698.729 232.765 699.498 227.398 691.724C222.171 684.155 215.508 679.207 204.533 674.747C200.665 673.175 196.193 671.239 194.596 670.444C190.83 668.571 190.741 668.595 191.552 671.25C192.971 675.896 195.045 680.288 195.572 679.762C195.872 679.462 195.416 677.538 194.559 675.486C192.49 670.534 192.45 670.582 196.75 672.849C198.813 673.937 203.957 676.479 208.183 678.499C212.408 680.519 217.583 683.674 219.683 685.51C223.439 688.794 223.468 688.874 221.5 690.505C219.637 692.049 219.63 692.122 221.391 691.559C222.992 691.047 223.089 691.188 222.019 692.477C220.551 694.246 222.041 694.559 223.758 692.842C225.286 691.314 226.881 692.664 229.904 698.042C232.197 702.123 232.201 702.178 230.123 701.066C228.959 700.443 225.432 699.457 222.285 698.876C212.723 697.108 204.35 691.999 199.465 684.95C197.946 682.758 196.48 681.187 196.207 681.459C195.151 682.515 200.541 688.817 205.86 692.745C210.997 696.538 213.84 697.708 225.738 700.927C230.22 702.139 235.758 706.413 234.142 707.412C233.616 707.737 233.166 712.066 233.142 717.03C233.116 722.489 233.475 725.825 234.05 725.469C234.572 725.146 235.002 723.446 235.004 721.691C235.009 717.215 237.807 713.101 247.543 703.255C258.519 692.155 261.332 686.622 261.421 675.953C261.457 671.663 261.158 667.825 260.757 667.424C260.356 667.023 259.026 668.001 257.8 669.597C256.575 671.194 252.831 675.425 249.479 679C241.785 687.208 240.154 689.842 237.401 698.499C235.037 705.935 234.607 705.703 233.688 696.5C233.469 694.3 232.683 689.24 231.942 685.257C230.673 678.43 230.716 677.765 232.689 673.702C233.841 671.331 236.979 666.491 239.662 662.946C247.24 652.932 249.37 647.239 249.81 635.824C250.015 630.503 249.755 625.384 249.232 624.45C248.384 622.935 248.077 623.038 246.391 625.407C245.351 626.868 241.9 631.311 238.722 635.281C230.232 645.888 228.7 649.635 228.05 661.381L227.5 671.302L225.854 667.401C224.948 665.255 222.591 658.878 220.616 653.228C217.265 643.642 217.113 642.701 218.343 639.13C219.733 635.097 223.638 629.643 230.811 621.718C237.192 614.669 240.387 607.05 240.546 598.5C240.777 586.076 240.677 586.061 230.5 596.992ZM236.75 592.715C235.787 593.783 235 595.567 235 596.68C235 597.792 234.475 600.208 233.833 602.05C232.813 604.975 232.569 605.151 231.903 603.449C231.275 601.844 231.128 601.798 231.07 603.191C231.032 604.121 230.532 605.171 229.96 605.525C229.284 605.942 229.133 605.174 229.529 603.334C230.087 600.738 229.71 600.949 225.045 605.846C217.496 613.769 216.591 615.965 216.007 627.752C215.728 633.391 215.725 637.991 216 637.976C216.275 637.961 218.075 635.606 220 632.743C221.925 629.881 225.531 625.28 228.014 622.519C236.62 612.95 239.353 606.405 238.82 596.636C238.511 590.97 238.441 590.838 236.75 592.715ZM195 592.556C195 593.549 204.306 606.027 204.731 605.603C204.933 605.401 202.826 602.234 200.049 598.565C197.272 594.896 195 592.192 195 592.556ZM378 598.037C378 605.239 384.123 619.008 390.313 625.724C394.592 630.369 412.274 642.878 411.423 640.659C411.164 639.985 407.88 637.506 404.126 635.15C391.293 627.097 384.782 618.534 380.633 604.25C379.794 601.362 379.285 599 379.501 599C380.07 599 393.094 608.845 395.75 611.283C397.299 612.705 398.05 614.619 398.16 617.424C398.309 621.214 398.349 621.267 398.728 618.184C399.066 615.439 399.383 615.073 400.568 616.057C401.356 616.71 402.045 618.877 402.1 620.872C402.187 624.036 402.289 624.18 402.898 622C403.51 619.811 403.893 620.337 405.979 626.237C407.289 629.942 408.568 632.765 408.823 632.51C409.658 631.675 404.827 619.577 402.23 616C399.258 611.907 398.715 611.415 388.364 603.443C377.981 595.447 378 595.457 378 598.037ZM113.253 600.241C112.175 603.186 112.202 603.313 113.53 601.559C114.861 599.801 115 600.409 115 607.98C115 614.436 114.614 616.769 113.306 618.214C111.702 619.987 111.715 620.047 113.556 619.356C115.278 618.709 115.343 618.818 114.128 620.313C113.088 621.591 113.057 622 114 622C114.943 622 114.912 622.41 113.872 623.692C112.701 625.136 112.708 625.259 113.92 624.528C115 623.877 115.179 624.092 114.666 625.429C114.295 626.395 113.729 628.381 113.407 629.843C112.647 633.301 108.895 645.219 108.173 646.467C107.526 647.586 104.096 630.988 104.039 626.46C103.977 621.629 106.866 611.837 109.558 607.75C110.917 605.688 111.68 604 111.255 604C110.829 604 109.838 605.013 109.051 606.25C102.837 616.028 101.669 625.528 104.835 640.557C105.987 646.026 107.091 651.625 107.289 653C107.719 655.99 107.583 656.319 112.627 640C116.378 627.863 116.491 627.067 116.495 612.588C116.5 597.358 115.584 593.87 113.253 600.241ZM232.345 598.543C232.019 599.392 231.976 600.31 232.249 600.583C232.523 600.856 232.986 600.161 233.279 599.04C233.903 596.657 233.21 596.289 232.345 598.543ZM330.773 604.851C319.662 616.64 318.311 620.81 319.49 639.675C320.199 651.033 320.274 651.323 321.75 648.46C322.589 646.832 326.163 640.617 329.691 634.649C336.878 622.491 338.255 617.521 337.793 605.4L337.5 597.715L330.773 604.851ZM330.455 607.25C322.703 615.73 320.742 620.379 320.667 630.453C320.604 638.81 321.034 645 321.677 645C321.882 645 322.487 643.987 323.022 642.75C323.557 641.513 324.517 639.6 325.155 638.5C325.793 637.4 326.582 636.017 326.908 635.427C327.233 634.837 328.974 632.144 330.775 629.442C332.576 626.741 334.455 622.949 334.952 621.015C336.036 616.79 337.397 601 336.677 601C336.397 601 333.597 603.813 330.455 607.25ZM431.397 617.282C429.141 621.252 426.7 626.975 425.972 630C424.568 635.842 424.464 653.521 425.805 658.429C426.55 661.154 426.737 660.874 428.478 654.429C429.508 650.618 431.384 644.953 432.647 641.84C433.91 638.726 435.819 633.019 436.889 629.157L438.835 622.135L436.776 620.767C435.048 619.62 434.9 619.055 435.858 617.265C437.139 614.872 437.404 609.983 436.25 610.032C435.837 610.05 433.654 613.312 431.397 617.282ZM13.4432 628.875C13.8292 632.931 14.9542 639.456 15.9412 643.375C16.9282 647.294 18.0532 652.251 18.4402 654.391C18.8272 656.532 21.0992 663.342 23.4882 669.525C29.6312 685.416 32.9602 698.69 34.1432 712C35.5762 728.11 35.9322 730.16 37.1672 729.397C38.3492 728.667 37.5532 711.19 35.9542 702.759C34.2362 693.699 29.8022 678.562 26.2132 669.5C21.9062 658.629 18.6322 647.062 15.8812 633C14.7512 627.225 13.5822 622.275 13.2832 622C12.9842 621.725 13.0562 624.819 13.4432 628.875ZM295.585 630.027C291.978 642.172 294.433 650.989 305.129 664.31L312.144 673.046L307.187 685.614C304.461 692.527 302.013 697.804 301.747 697.341C301.48 696.879 300.729 694.843 300.076 692.818C298.539 688.047 295.455 684.244 281.321 669.689L269.682 657.703L270.276 666.114C270.853 674.298 272.472 680.862 273.628 679.706C273.942 679.391 273.736 677.641 273.169 675.817C272.602 673.993 271.844 670.025 271.484 667L270.829 661.5L277.697 668.5C294.267 685.389 297.925 689.933 299.607 695.719C301.223 701.28 301.087 702.84 298.281 710.854C297.875 712.014 298.339 711.848 299.853 710.292C301.034 709.077 302 707.405 302 706.575C302 703.23 311.644 695.76 318.836 693.534C321.005 692.862 321.086 692.971 319.969 695.057C318.919 697.019 318.982 697.221 320.465 696.652C321.399 696.293 322.505 696 322.921 696C323.338 696 324.192 694.875 324.818 693.5C325.788 691.371 326.627 691 330.468 691C332.949 691 337.319 690.111 340.18 689.024C343.04 687.937 345.557 687.223 345.771 687.438C346.582 688.248 343.853 692.01 340.737 694.378C337.573 696.782 323.359 700.964 318.113 701.035C316.676 701.055 314.375 701.749 313 702.577C311.076 703.736 310.961 703.971 312.5 703.597C314.804 703.038 324.05 701.311 331.908 699.974C334.882 699.468 338.965 697.91 340.981 696.513C344.699 693.937 349.743 686.41 348.551 685.217C348.193 684.859 345.56 685.402 342.7 686.424C339.84 687.446 334.059 688.633 329.853 689.063C321.036 689.963 312.684 693.484 306.837 698.766C304.69 700.706 303.022 701.631 303.049 700.866C303.076 700.115 305.218 694.1 307.81 687.5L312.521 675.5L318.011 673.648C321.03 672.63 326.788 671.377 330.806 670.863C338.953 669.823 347.548 666.93 351.329 663.956C355.662 660.547 360.943 648 358.044 648C357.518 648 354.895 649.293 352.214 650.874C349.533 652.454 345.576 654.295 343.42 654.964C334.485 657.738 315.869 668.202 317.309 669.642C317.581 669.914 319.889 668.545 322.438 666.599C327.512 662.726 333.921 659.624 340.352 657.929C342.633 657.327 347.313 655.275 350.75 653.369C355.661 650.645 357 650.242 357 651.486C357 653.405 354.523 657.526 351.131 661.25C348.09 664.588 347.051 664.736 347.604 661.75C347.876 660.284 347.494 660.632 346.508 662.75C344.769 666.483 343.576 667.07 344.474 663.75C345.037 661.672 344.968 661.691 343.577 664C342.216 666.258 342.061 666.307 341.968 664.5C341.871 662.632 341.793 662.648 340.78 664.75C339.5 667.403 337.841 667.777 338.562 665.25C338.837 664.288 338.525 664.522 337.868 665.772C337.212 667.021 335.736 668.212 334.587 668.418C333.439 668.625 329.35 669.543 325.5 670.46C313.784 673.25 313.993 673.322 315.447 667C315.958 664.777 315.901 664.805 314.928 667.25C313.22 671.542 312.34 670.54 311.688 663.562C310.721 653.21 308.209 645.3 302.509 634.658L297.169 624.69L295.585 630.027ZM246.254 628.281C245.682 629.502 242.9 633.363 240.07 636.862C237.241 640.362 234.067 644.908 233.018 646.965C230.434 652.03 228.631 663.052 229.47 668.65L230.157 673.233L232.627 669.599C233.985 667.6 234.842 665.553 234.531 665.051C234.221 664.548 234.974 663.431 236.206 662.568C237.652 661.556 237.93 661 236.99 661C236.19 661 237.25 659.835 239.346 658.411C243.266 655.747 243.802 653.965 240.086 655.954C236.625 657.806 237.738 656.439 241.971 653.638C244.439 652.005 245.737 650.479 245.402 649.606C245.106 648.834 245.344 647.905 245.932 647.542C247.444 646.607 247.267 644.726 245.75 645.613C245.063 646.015 245.4 645.29 246.5 644.002C248.479 641.686 248.479 641.669 246.524 642.386C244.807 643.016 244.873 642.754 247.024 640.394C248.386 638.9 248.825 638.041 248 638.485C246.781 639.142 246.734 639.041 247.75 637.947C249.153 636.435 249.468 627.407 248.146 626.59C247.677 626.3 246.825 627.061 246.254 628.281ZM295.994 634.027C293.646 643.814 297.9 654.195 310.055 668.337C311.044 669.489 310.1 660.837 308.401 653.183C307.295 648.203 298.605 629 297.458 629C297.316 629 296.657 631.262 295.994 634.027ZM458.639 636.77C458.299 638.821 458.017 642.431 458.011 644.792C458.005 647.153 457.315 652.401 456.478 656.455C454.945 663.876 454.282 665.984 447.572 684.793C444.689 692.872 443.672 697.635 442.844 706.942C442.125 715.012 442.114 719.381 442.807 720.62C443.996 722.745 444.184 721.835 446.016 705.085C446.841 697.534 448.259 691.621 451.171 683.585C453.38 677.488 456.218 668.433 457.478 663.462C460.031 653.388 461.76 634.587 460.22 633.636C459.689 633.308 458.978 634.718 458.639 636.77ZM134.468 639.75C126.646 651.817 125.473 653.266 119.569 658.138C109.709 666.276 103.916 675.556 112 670.264C114.2 668.823 116 667.023 116 666.263C116 665.504 116.453 665.162 117.007 665.504C117.561 665.847 118.299 665.386 118.646 664.48C119.077 663.356 119.503 663.196 119.985 663.975C120.459 664.742 122.264 663.918 125.469 661.472C131.949 656.525 134.787 653.158 135.981 649C138.469 640.331 139.744 634 139.002 634C138.558 634 136.517 636.587 134.468 639.75ZM409.079 635.583C409.127 636.748 409.364 636.985 409.683 636.188C409.972 635.466 409.936 634.603 409.604 634.271C409.272 633.939 409.036 634.529 409.079 635.583ZM324.079 637.583C324.127 638.748 324.364 638.985 324.683 638.188C324.972 637.466 324.936 636.603 324.604 636.271C324.272 635.939 324.036 636.529 324.079 637.583ZM84.0232 643.568C83.9932 648.823 86.3732 656.779 89.2412 661.011C92.0392 665.141 93.9942 665.977 93.4382 662.807C93.2162 661.538 93.5892 662.148 94.2672 664.161C95.5282 667.906 101.02 673.357 100.978 670.823C100.942 668.678 97.3502 661.368 93.8192 656.254C92.0132 653.639 89.0762 648.8 87.2912 645.5L84.0452 639.5L84.0232 643.568ZM181.186 644.364C182.329 646.605 184.164 649.655 185.263 651.141C188.281 655.224 197.575 658.928 207.684 660.077C212.496 660.623 217.461 661.329 218.717 661.644C221.751 662.405 221.598 661.603 217.939 657.583C215.665 655.084 214.315 654.364 212.689 654.783C210.775 655.276 210.666 655.145 211.822 653.735C212.979 652.323 212.48 651.742 207.822 649.071C204.895 647.392 201.825 646.012 201 646.003C200.175 645.995 194.912 644.706 189.304 643.139L179.107 640.29L181.186 644.364ZM63.1582 650C63.1582 651.375 63.3852 651.938 63.6622 651.25C63.9402 650.563 63.9402 649.438 63.6622 648.75C63.3852 648.063 63.1582 648.625 63.1582 650ZM390 648.54C390 648.837 390.859 650.749 391.908 652.79C395.689 660.141 401.821 664.13 411.5 665.536C414.25 665.936 418.231 667.135 420.347 668.201C422.463 669.267 424.465 669.868 424.797 669.536C425.982 668.351 418.26 661.75 415.688 661.75C413.787 661.75 413.3 661.346 413.727 660.125C414.188 658.804 414.043 658.734 412.947 659.75C411.45 661.139 409.936 661.407 410.118 660.25C410.479 657.969 409.551 656.976 405.25 655.035C402.637 653.856 398.409 651.791 395.853 650.446C391.105 647.947 390 647.587 390 648.54ZM417 648.711C417 649.285 417.788 650.373 418.75 651.128C420.369 652.397 420.39 652.35 419.033 650.5C418.226 649.4 417.439 648.313 417.283 648.083C417.127 647.854 417 648.137 417 648.711ZM380.832 649.5C380.49 650.05 380.627 653.137 381.136 656.359C381.995 661.792 381.865 662.556 379.355 666.859C377.655 669.774 377.271 670.989 378.324 670.128C379.505 669.16 380 669.104 380 669.937C380 670.586 380.423 670.856 380.941 670.537C382.377 669.649 381.032 676.864 378.805 682C373.74 693.676 370.426 707.091 373 705.5C373.55 705.16 374 703.574 374 701.975C374 700.376 375.823 694.44 378.052 688.784C381.465 680.124 382.188 677 382.632 669C383.153 659.623 382.039 647.557 380.832 649.5ZM377.476 655.25L375.901 658.5L377.951 656.139C379.078 654.841 380 653.378 380 652.889C380 651.141 379.026 652.052 377.476 655.25ZM370.859 665.635C367.834 671.78 367.605 672.941 367.759 681.385C367.858 686.878 368.543 692.089 369.482 694.5C370.339 696.7 370.756 697.375 370.409 696C370.061 694.625 369.563 688.775 369.303 683C368.834 672.616 368.867 672.425 372.246 665.75C374.126 662.038 375.318 659 374.895 659C374.472 659 372.656 661.986 370.859 665.635ZM253.229 677.037C244.089 686.983 240.552 692.767 238.138 701.714C236.962 706.071 236 710.339 236 711.198C236 712.099 238.747 709.973 242.485 706.18C246.051 702.56 248.624 699.352 248.201 699.049C246.075 697.528 248.669 693.249 252.573 691.837C256.789 690.313 259.214 685.616 259.8 677.841C260.035 674.728 260.064 671.739 259.864 671.198C259.664 670.656 256.678 673.284 253.229 677.037ZM378 672.5C377.293 673.352 376.94 674.273 377.215 674.548C377.49 674.823 378.293 674.352 379 673.5C379.707 672.648 380.06 671.727 379.785 671.452C379.51 671.177 378.707 671.648 378 672.5ZM174 682.58C161.724 697.163 159.95 701.324 160.053 715.299L160.105 722.5L162.437 717.804C163.719 715.221 167.801 709.63 171.508 705.38C175.214 701.13 178.839 696.236 179.562 694.505C181.183 690.626 181.896 676.84 180.5 676.377C179.95 676.195 177.025 678.987 174 682.58ZM123.02 678.476C122.231 679.426 122.155 680 122.819 680C124.027 680 125.436 678.103 124.743 677.409C124.491 677.158 123.716 677.638 123.02 678.476ZM177.5 680.718C176.4 682.245 173.372 685.779 170.772 688.571C164.794 694.988 161.863 701.589 161.284 709.939L160.829 716.5L162.908 713.5C164.051 711.85 164.99 709.863 164.993 709.083C164.997 708.304 165.279 707.945 165.619 708.286C166.936 709.603 168.772 706.249 168.28 703.426C167.792 700.634 167.839 700.591 169.29 702.481C170.739 704.368 170.786 704.321 170.29 701.481C169.807 698.718 169.875 698.637 171.213 700.376C172.602 702.18 172.737 702.15 174.768 699.568C178.204 695.199 180.147 688.881 179.809 683.172L179.5 677.942L177.5 680.718ZM275 682.797C275 684.534 282.715 690.834 286.201 691.944C288.236 692.592 291.386 694.127 293.201 695.354C298.785 699.132 299.662 699.285 295.856 695.819C293.852 693.993 289.959 691.71 287.204 690.744C284.201 689.69 280.968 687.589 279.129 685.494C276.057 681.995 275 681.305 275 682.797ZM254.507 686.989C254.157 687.555 254.558 687.723 255.448 687.382C257.18 686.717 257.497 686 256.059 686C255.541 686 254.843 686.445 254.507 686.989ZM349.008 695.746C348.284 697.261 347.602 701.096 347.493 704.27C347.383 707.443 347.039 710.294 346.728 710.605C345.923 711.41 347.946 716.891 350.566 721C351.793 722.925 355.573 727.177 358.967 730.448C364.726 735.999 365.092 736.199 364.458 733.448C364.084 731.827 361.616 725.998 358.974 720.495C355.817 713.92 353.622 707.602 352.572 702.065C351.693 697.432 350.828 693.494 350.649 693.316C350.471 693.138 349.732 694.231 349.008 695.746ZM16.7372 695.683C16.4822 696.133 16.8632 700.325 17.5822 705C18.3022 709.675 18.9162 718.15 18.9452 723.833C18.9872 731.645 19.3052 734.062 20.2502 733.736C22.0662 733.11 21.6462 713.415 19.6052 703.547C17.9132 695.366 17.5232 694.297 16.7372 695.683ZM250 696C248.718 696.828 248.754 696.972 250.25 696.985C251.213 696.993 252 696.55 252 696C252 694.78 251.887 694.78 250 696ZM67.1512 700.347C63.4632 704.104 62.9792 705.086 63.5772 707.597C63.9572 709.193 64.9112 711.241 65.6952 712.146C66.8472 713.475 66.8702 713.883 65.8112 714.259C65.0902 714.516 64.8622 715.112 65.3042 715.584C67.0352 717.43 67.7952 713.615 66.2022 711.082L64.5782 708.5L66.7022 710.326C68.8232 712.15 68.8282 712.143 69.9972 706.326C70.6412 703.122 71.4032 699.487 71.6922 698.25C71.9812 697.013 72.0372 696 71.8172 696C71.5972 696 69.4972 697.956 67.1512 700.347ZM386.287 712.75C373.491 725.099 371.329 728.033 368.915 736.335C368.245 738.639 368.34 738.962 369.423 738.064C370.156 737.456 373.883 735.436 377.705 733.576C383.418 730.796 384.861 729.598 385.814 726.847C386.451 725.006 386.797 724.505 386.584 725.733C386.268 727.551 386.503 727.799 387.848 727.069C393.52 723.99 398.987 714.23 399.75 705.822C400.04 702.62 400.103 700 399.889 700C399.675 700 393.554 705.738 386.287 712.75ZM277.104 708.5C278.325 710.7 281.544 715.101 284.257 718.281C287.435 722.004 288.975 724.624 288.584 725.642C288.157 726.755 288.417 727.054 289.461 726.653C290.545 726.237 291.239 727.219 292.032 730.292C292.63 732.606 293.346 735.284 293.624 736.242C294.086 737.835 293.715 737.808 289.315 735.928C283.286 733.353 279.659 729.933 277.035 724.352C274.621 719.215 273.773 718.722 275.058 723.201C276.949 729.797 284.687 736.631 292.265 738.4C295.024 739.044 295.029 739.034 294.383 734.773C293.391 728.221 291.775 725.106 285.386 717.422C282.149 713.529 278.461 709.029 277.192 707.422L274.883 704.5L277.104 708.5ZM419.715 707.613C419.003 711.213 421.458 714.471 423.021 712C424.276 710.015 424.252 709.885 422.12 707.113L420.285 704.727L419.715 707.613ZM75.0852 709.782C74.9762 714.006 77.3822 719.727 80.8032 723.379C84.0232 726.816 90.9122 732 92.2592 732C92.7872 732 91.0322 730.498 88.3592 728.662C82.1912 724.424 78.1112 718.656 76.4642 711.847C75.3712 707.329 75.1572 707.009 75.0852 709.782ZM458.388 708.431C457.599 710.488 458.529 730.673 459.533 733.25C461.204 737.544 461.731 734.047 461.264 721.75C460.781 709.004 459.84 704.647 458.388 708.431ZM116.898 719.691C109.881 726.923 106.932 730.753 105.782 734.126L104.218 738.717L111.602 734.279C115.663 731.838 120.326 728.214 121.964 726.227C124.803 722.783 127.732 713.696 126.853 711.06C126.631 710.394 122.151 714.278 116.898 719.691ZM264.327 712.369C262.772 713.672 258.226 716.383 254.225 718.394C245.259 722.9 240.209 727.363 236.626 733.946C235.113 736.726 234.153 739 234.492 739C236.146 739 253.67 733.703 255.923 732.521C261.962 729.356 267.431 721.41 268.599 714.105C269.365 709.317 268.425 708.935 264.327 712.369ZM274.272 715C274.272 717.475 274.467 718.487 274.706 717.25C274.944 716.013 274.944 713.987 274.706 712.75C274.467 711.513 274.272 712.525 274.272 715ZM410 715.122C410 716.889 410.25 717.038 411.489 716.009C412.994 714.76 412.673 713 410.941 713C410.423 713 410 713.955 410 715.122ZM296.636 718.64C295.761 725.023 295.835 737.001 296.75 736.996C297.163 736.993 297.514 733.281 297.532 728.746C297.549 724.211 297.875 719.038 298.257 717.25C298.638 715.462 298.572 714 298.111 714C297.649 714 296.986 716.088 296.636 718.64ZM173 723.662C168.325 727.806 164.314 731.715 164.086 732.348C163.673 733.495 178.588 720.406 180.985 717.518C183.288 714.744 181.578 716.059 173 723.662ZM309.079 728.583C309.127 729.748 309.364 729.985 309.683 729.188C309.972 728.466 309.936 727.603 309.604 727.271C309.272 726.939 309.036 727.529 309.079 728.583ZM161 736C160.411 737.1 160.155 738 160.43 738C160.705 738 161.411 737.1 162 736C162.589 734.9 162.845 734 162.57 734C162.295 734 161.589 734.9 161 736ZM113 760.965C113 761.495 113.95 762.438 115.11 763.059C117.004 764.072 117.178 764.866 116.801 770.781C116.555 774.651 115.89 777.537 115.191 777.77C112.408 778.697 114.342 780 118.5 780C120.975 780 123 779.844 123 779.654C123 779.463 122.283 777.871 121.408 776.115C119.593 772.479 120.113 770.029 122.719 769.937C124.121 769.887 124.021 769.681 122.25 768.969C119.63 767.916 119.304 764.839 121.571 762.571C123.757 760.386 124.861 760.602 126.168 763.47C127.029 765.359 126.995 766.301 126.025 767.47C124.96 768.753 125.066 769 126.678 769C131.081 769 132.455 764.132 128.777 761.557C126.29 759.815 113 759.316 113 760.965ZM133.625 767.995C131.723 773.349 129.911 776.642 128.142 777.964L125.5 779.937L129.168 779.968C131.186 779.986 133.561 779.722 134.448 779.382C135.896 778.826 135.879 778.624 134.279 777.382C132.583 776.065 132.593 775.928 134.481 774.471C137.112 772.44 139.426 772.998 139.82 775.76C140.034 777.264 139.624 778 138.57 778C137.706 778 137 778.379 137 778.842C137 779.759 145.939 780.155 147.324 779.3C147.793 779.01 147.125 778.248 145.84 777.608C144.084 776.732 143.044 774.712 141.651 769.471C139.885 762.828 138.529 760 137.11 760C136.756 760 135.187 763.598 133.625 767.995ZM151.297 762.25C150.169 763.487 148.715 766.16 148.066 768.189C147.088 771.243 147.156 772.401 148.46 774.922C150.413 778.699 155.274 781.384 158.3 780.355C159.51 779.944 161.063 779.716 161.75 779.848C162.519 779.995 163 778.965 163 777.166C163 775.56 163.675 773.685 164.5 773C166.933 770.981 166.23 769.851 162.75 770.187C159.664 770.484 159.516 770.685 159.818 774.161C160.084 777.226 159.769 777.939 157.88 778.538C152.976 780.095 149.802 769.584 153.557 764.223C155.639 761.25 157.951 761.421 160.676 764.75L162.928 767.5L162.964 764.375C162.995 761.664 162.586 761.167 159.875 760.625C154.825 759.615 153.465 759.873 151.297 762.25ZM166.625 760.708C166.298 761.035 166.755 761.831 167.639 762.478C169.636 763.939 170.11 777.13 168.188 777.771C165.004 778.832 167.773 779.548 174.975 779.525C182.903 779.5 182.954 779.483 183.57 776.678C184.44 772.722 183.398 772.224 180.898 775.403C177.791 779.352 173.618 778.728 173.187 774.25C172.856 770.818 174.491 769.891 176.8 772.2C177.733 773.133 177.982 772.411 177.921 768.95C177.878 766.502 177.585 765.175 177.271 766C176.675 767.567 175.033 768.958 173.75 768.985C172.251 769.015 173.008 763.211 174.582 762.607C177.198 761.603 177.983 761.879 180.628 764.733L183.161 767.466L182.831 763.991L182.5 760.516L174.859 760.315C170.657 760.205 166.952 760.382 166.625 760.708ZM199.65 762.844C194.107 768.629 195.592 777.444 202.472 779.597C208.285 781.417 212.465 778.071 213.672 770.632C214.181 767.495 213.818 766.618 210.727 763.527C206.414 759.214 203.31 759.023 199.65 762.844ZM214.57 760.886C214.269 761.374 214.917 762.007 216.011 762.293C217.74 762.745 218 763.666 218 769.35C218 774.83 217.665 776.121 215.927 777.339C213.281 779.192 214.448 779.89 219.735 779.618C224.689 779.364 225.597 778.741 223.524 777.02C221.823 775.608 221.424 770 223.025 770C223.588 770 224.477 771.125 225 772.5C226.361 776.08 227 775.594 227 770.981C227 767.193 226.856 766.998 224.5 767.589C222.335 768.133 222 767.883 222 765.731C222 764.364 222.675 762.685 223.5 762C225.08 760.688 226.942 761.547 229.74 764.878C231.417 766.875 232.383 765.664 231.601 762.547C230.983 760.086 230.695 760 223.04 760C218.683 760 214.872 760.399 214.57 760.886ZM245.703 761.775C242.53 765.282 244.549 771 248.961 771C249.96 771 251.826 771.848 253.107 772.885C255.103 774.502 255.244 775.001 254.095 776.385C252.008 778.901 249.087 778.316 247.203 775.006C244.918 770.99 244 771.228 244 775.835V779.671L249.091 779.571C252.886 779.497 254.541 778.981 255.591 777.545C258.468 773.61 256.493 769.409 250.916 767.6C247.188 766.391 245.854 763.377 248.584 762.33C249.761 761.878 251.056 762.527 252.632 764.359L254.949 767.052L255.595 764.479C256.384 761.335 256.435 761.383 251.453 760.561C248.204 760.025 247.071 760.264 245.703 761.775ZM259.513 760.979C259.181 761.517 259.797 763.204 260.884 764.729C261.97 766.253 263.625 770.313 264.561 773.75C265.498 777.188 266.618 780 267.052 780C267.486 780 268.135 778.538 268.495 776.75C268.855 774.962 269.406 772.604 269.719 771.508C270.214 769.776 270.079 769.69 268.685 770.846C267.296 772 266.995 771.827 266.424 769.551C266.061 768.108 266.023 765.634 266.339 764.054C266.749 762.005 266.473 761.012 265.375 760.59C263.04 759.695 260.19 759.883 259.513 760.979ZM269.008 760.981C267.82 761.726 267.77 762.17 268.758 763.158C269.441 763.841 270 765.441 270 766.714C270 767.986 270.439 769.809 270.975 770.764C271.511 771.719 272.685 774.3 273.583 776.5L275.217 780.5L276.532 777C277.256 775.075 277.882 772.55 277.924 771.39C277.966 770.229 279.153 767.58 280.563 765.502C283.531 761.128 282.71 759.308 278.323 760.537C275.112 761.437 275.192 761.435 272.5 760.638C271.4 760.312 269.829 760.467 269.008 760.981ZM286.104 763.535C281.011 769.335 282.729 777.66 289.444 779.721C295.508 781.583 300.168 777.385 300.364 769.884C300.454 766.48 299.936 765.332 297.22 762.905C292.863 759.012 289.928 759.179 286.104 763.535ZM300 761C300 761.55 300.627 762 301.393 762C303.354 762 304 764.258 304 771.113C304 775.469 303.6 777.216 302.506 777.636C300.013 778.593 301.895 780 305.666 780C308.638 780 309.103 779.716 308.533 778.25C307.732 776.193 307.728 776.162 307.882 773.25C307.96 771.751 308.632 771 309.893 771C311.957 771 313 772.852 313 776.514C313 779.566 316.579 780.849 318.826 778.603C320.192 777.236 320.209 777 318.942 777C318.124 777 316.602 775.416 315.56 773.481C313.681 769.992 313.682 769.945 315.749 768.02C318.507 765.45 317.635 762.417 313.751 761.063C309.891 759.718 300 759.672 300 761ZM322 760.459C322 760.835 322.71 761.853 323.579 762.722C324.771 763.914 325.063 765.792 324.774 770.4C324.562 773.755 324.029 777.288 323.588 778.25C322.876 779.803 323.39 779.992 328.143 779.932C332.735 779.874 333.179 779.71 331.25 778.78C330.012 778.183 328.945 776.976 328.878 776.097C327.972 764.28 328.487 762 332.066 762C336.477 762 338.738 772.073 335.398 776.842C333.107 780.112 334.421 780.67 337.399 777.692C341.765 773.325 342.012 768.077 338.088 763.038C336.441 760.922 335.172 760.519 329.085 760.175C325.188 759.954 322 760.082 322 760.459ZM345.204 762.468C342.333 766.117 343.557 769.116 348.605 770.799C353.962 772.585 355.727 774.419 354.042 776.45C352.004 778.905 349.069 778.285 347.203 775.006C344.918 770.99 344 771.228 344 775.835V779.671L349.091 779.571C356.175 779.433 359.05 775.372 355.575 770.41C354.646 769.084 354.467 767.875 355.06 766.938C356.449 764.742 356.175 761 354.625 761C353.869 761 351.91 760.732 350.273 760.405C347.848 759.92 346.907 760.303 345.204 762.468ZM202.067 763.874C201.48 764.971 201 768.318 201 771.312C201 777.291 202.419 779.368 206.136 778.827C209.046 778.403 210.324 773.668 209.257 767.263C208.562 763.089 208.135 762.462 205.799 762.19C203.951 761.975 202.808 762.491 202.067 763.874ZM288.607 763.582C287.535 766.376 287.96 776.56 289.2 777.8C290.719 779.319 294.66 779.359 295.584 777.864C296.496 776.388 296.49 767.12 295.575 764.238C294.719 761.539 289.577 761.055 288.607 763.582ZM307.528 762.954C306.459 764.684 308.158 769 309.908 769C311.632 769 314 767.189 314 765.871C314 764.633 310.932 762 309.488 762C308.734 762 307.853 762.429 307.528 762.954ZM347.343 763.548C346.669 765.305 349.571 767.92 352.25 767.968C354.53 768.01 354.489 765.752 352.171 763.655C349.881 761.582 348.113 761.543 347.343 763.548ZM274.326 766.624C274.65 768.617 275.183 770.517 275.512 770.845C276.475 771.808 277.968 768.732 277.985 765.75C277.997 763.606 277.531 763 275.869 763C273.979 763 273.805 763.409 274.326 766.624ZM135.682 767.652C134.451 768.882 134.969 771 136.5 771C138.166 771 138.374 770.138 137.166 768.235C136.725 767.539 136.057 767.277 135.682 767.652Z" fill="black"/>
</svg>
