<svg width="182" height="276" viewBox="0 0 182 276" fill="none" xmlns="http://www.w3.org/2000/svg">
<path fill-rule="evenodd" clip-rule="evenodd" d="M12.5947 1.93853C13.2147 3.09553 14.1487 3.77853 14.6707 3.45553C16.0507 2.60253 15.8647 2.18753 13.5447 0.945525C11.6397 -0.0734746 11.5617 0.00852942 12.5947 1.93853ZM36.3477 2.05053C36.6227 3.10253 37.2467 3.71753 37.7347 3.41653C39.0507 2.60253 38.8087 1.27253 37.2337 0.668525C36.2627 0.295525 35.9967 0.710529 36.3477 2.05053ZM0.770694 1.93652C0.990694 2.59652 1.49669 3.10252 1.89569 3.06152C3.09169 2.93752 2.85971 1.56653 1.57071 1.13653C0.910712 0.916527 0.550694 1.27652 0.770694 1.93652ZM6.77069 1.93652C6.99069 2.59652 7.49669 3.10252 7.89569 3.06152C9.09169 2.93752 8.85971 1.56653 7.57071 1.13653C6.91071 0.916527 6.55069 1.27652 6.77069 1.93652ZM18.6207 2.48653C18.6207 3.31153 19.0707 3.98653 19.6207 3.98653C20.1707 3.98653 20.6207 3.31153 20.6207 2.48653C20.6207 1.66153 20.1707 0.986526 19.6207 0.986526C19.0707 0.986526 18.6207 1.66153 18.6207 2.48653ZM24.6207 2.48653C24.6207 3.31153 25.0707 3.98653 25.6207 3.98653C26.1707 3.98653 26.6207 3.31153 26.6207 2.48653C26.6207 1.66153 26.1707 0.986526 25.6207 0.986526C25.0707 0.986526 24.6207 1.66153 24.6207 2.48653ZM30.6207 2.48653C30.6207 3.31153 31.0707 3.98653 31.6207 3.98653C32.1707 3.98653 32.6207 3.31153 32.6207 2.48653C32.6207 1.66153 32.1707 0.986526 31.6207 0.986526C31.0707 0.986526 30.6207 1.66153 30.6207 2.48653ZM42.6207 2.48653C42.6207 3.31153 43.0707 3.98653 43.6207 3.98653C44.1707 3.98653 44.6207 3.31153 44.6207 2.48653C44.6207 1.66153 44.1707 0.986526 43.6207 0.986526C43.0707 0.986526 42.6207 1.66153 42.6207 2.48653ZM48.1637 1.91753C47.4807 3.02253 49.0577 4.21653 49.9817 3.29253C50.9317 2.34153 50.7547 0.986526 49.6797 0.986526C49.1617 0.986526 48.4797 1.40553 48.1637 1.91753ZM54.6207 2.48653C54.6207 3.31153 55.0707 3.98653 55.6207 3.98653C56.1707 3.98653 56.6207 3.31153 56.6207 2.48653C56.6207 1.66153 56.1707 0.986526 55.6207 0.986526C55.0707 0.986526 54.6207 1.66153 54.6207 2.48653ZM60.1637 1.91753C59.4807 3.02253 61.0577 4.21653 61.9817 3.29253C62.9317 2.34153 62.7547 0.986526 61.6797 0.986526C61.1617 0.986526 60.4797 1.40553 60.1637 1.91753ZM66.3147 1.62553C65.5157 2.42453 66.4187 3.98653 67.6797 3.98653C68.1977 3.98653 68.6207 3.31153 68.6207 2.48653C68.6207 0.940526 67.4407 0.499526 66.3147 1.62553ZM72.1637 1.91753C71.4807 3.02253 73.0577 4.21653 73.9817 3.29253C74.9317 2.34153 74.7547 0.986526 73.6797 0.986526C73.1617 0.986526 72.4797 1.40553 72.1637 1.91753ZM77.7707 1.93652C77.9907 2.59652 78.4967 3.10252 78.8957 3.06152C80.0917 2.93752 79.8597 1.56653 78.5707 1.13653C77.9107 0.916527 77.5507 1.27652 77.7707 1.93652ZM83.8127 2.06152C84.0097 2.65252 84.5977 3.13653 85.1207 3.13653C85.6437 3.13653 86.2317 2.65252 86.4287 2.06152C86.6257 1.47052 86.0377 0.986526 85.1207 0.986526C84.2037 0.986526 83.6157 1.47052 83.8127 2.06152ZM89.7707 1.93652C90.2007 3.22552 91.5717 3.45753 91.6957 2.26153C91.7367 1.86253 91.2307 1.35653 90.5707 1.13653C89.9107 0.916527 89.5507 1.27652 89.7707 1.93652ZM95.7707 1.93652C95.9907 2.59652 96.4967 3.10252 96.8957 3.06152C98.0917 2.93752 97.8597 1.56653 96.5707 1.13653C95.9107 0.916527 95.5507 1.27652 95.7707 1.93652ZM101.621 2.48653C101.621 3.31153 102.071 3.98653 102.621 3.98653C103.171 3.98653 103.621 3.31153 103.621 2.48653C103.621 1.66153 103.171 0.986526 102.621 0.986526C102.071 0.986526 101.621 1.66153 101.621 2.48653ZM107.621 1.92753C107.621 2.44553 108.071 3.14653 108.621 3.48653C109.171 3.82653 109.621 3.40252 109.621 2.54552C109.621 1.68852 109.171 0.986526 108.621 0.986526C108.071 0.986526 107.621 1.40953 107.621 1.92753ZM113.621 2.48653C113.621 3.31153 114.071 3.98653 114.621 3.98653C115.171 3.98653 115.621 3.31153 115.621 2.48653C115.621 1.66153 115.171 0.986526 114.621 0.986526C114.071 0.986526 113.621 1.66153 113.621 2.48653ZM122.121 1.98653C121.378 3.18953 120.713 3.12553 133.459 3.06653C142.966 3.02253 144.059 3.21852 147.053 5.50252C148.844 6.86852 151.055 7.98653 151.965 7.98653C152.963 7.98653 153.621 8.79453 153.621 10.0195C153.621 12.7625 157.965 21.0775 160.508 23.2005C163.606 25.7885 170.28 28.9865 172.581 28.9865C174.05 28.9865 174.621 29.6385 174.621 31.3125C174.621 32.5915 175.746 34.6945 177.121 35.9865C179.596 38.3115 179.621 38.5065 179.621 55.1605C179.621 65.7115 179.994 71.9865 180.621 71.9865C181.269 71.9865 181.621 59.4865 181.621 36.4865V0.986526H152.18C133.631 0.986526 122.51 1.35653 122.121 1.98653ZM148.634 4.50252C149.611 5.67952 152.635 5.98653 163.243 5.98653H176.621V19.5575C176.621 30.2885 176.935 33.4435 178.121 34.6295C179.454 35.9625 179.621 34.2925 179.621 19.5985V3.06853L163.512 3.04352C149.38 3.02152 147.553 3.20052 148.634 4.50252ZM155.621 9.51853C155.621 12.0125 158.549 18.2765 160.919 20.8545C163.324 23.4715 170.09 26.9295 172.871 26.9645C173.928 26.9775 174.621 26.2385 174.621 25.0955C174.621 23.2955 173.553 22.8935 165.927 21.8215C165.27 21.7285 164.818 21.3905 164.923 21.0695C165.028 20.7485 163.937 18.9115 162.499 16.9865C161.06 15.0615 159.591 12.2495 159.233 10.7365C158.552 7.85653 155.621 6.86853 155.621 9.51853ZM161.18 10.2365C163.188 16.7465 166.294 19.9735 171.871 21.3475C175.964 22.3555 175.47 19.3675 171.252 17.6055C167.581 16.0715 164.621 12.5715 164.621 9.76353C164.621 8.63353 163.868 7.98653 162.554 7.98653C160.871 7.98653 160.615 8.40453 161.18 10.2365ZM166.309 9.90053C166.878 12.0775 170.269 15.3875 172.871 16.3065C174.369 16.8345 174.621 16.2795 174.621 12.4555V7.98653H170.215C166.366 7.98653 165.872 8.22853 166.309 9.90053ZM171.621 30.9865C171.621 31.5365 172.071 31.9865 172.621 31.9865C173.171 31.9865 173.621 31.5365 173.621 30.9865C173.621 30.4365 173.171 29.9865 172.621 29.9865C172.071 29.9865 171.621 30.4365 171.621 30.9865ZM90.3817 58.4865C89.9757 60.6865 89.6027 65.1865 89.5527 68.4865C89.5037 71.7865 89.2997 74.0365 89.1007 73.4865C88.9017 72.9365 87.7487 69.1115 86.5387 64.9865C85.3277 60.8615 84.1587 57.9905 83.9397 58.6055C83.7207 59.2215 84.4587 63.0375 85.5807 67.0855C86.7027 71.1345 87.6207 74.8915 87.6207 75.4345C87.6207 75.9785 85.5417 72.9295 82.9997 68.6585C80.4587 64.3885 78.1567 61.1175 77.8847 61.3895C77.6117 61.6615 79.2417 65.0975 81.5047 69.0235C83.7687 72.9495 85.6207 76.4475 85.6207 76.7955C85.6207 77.1435 82.6957 74.5295 79.1207 70.9865C70.8057 62.7455 70.5977 64.3385 78.8707 72.9025C82.3087 76.4605 84.4457 78.9095 83.6207 78.3445C79.9987 75.8645 66.4537 68.9065 67.0147 69.8155C67.3567 70.3685 71.2327 72.8945 75.6287 75.4305C80.0237 77.9655 83.6207 80.2055 83.6207 80.4085C83.6207 80.6115 81.0337 79.9775 77.8707 78.9995C74.7077 78.0225 70.0957 76.9425 67.6207 76.6005L63.1207 75.9775L67.6207 77.4625C70.0957 78.2795 74.3707 79.6005 77.1207 80.3975L82.1207 81.8475L77.1207 82.0585C74.3707 82.1745 71.1077 82.2935 69.8707 82.3225C68.6337 82.3515 67.6207 82.7375 67.6207 83.1805C67.6207 83.6235 71.1077 84.0105 75.3707 84.0395L83.1207 84.0925L74.6467 86.5975C61.6947 90.4245 62.4127 91.4485 75.6207 87.9865C79.7457 86.9055 83.3367 86.0135 83.5997 86.0035C83.8637 85.9945 80.4887 88.0665 76.0997 90.6085C67.8627 95.3805 64.5207 97.7555 68.1207 96.2795C70.6877 95.2265 80.3747 90.1595 83.6207 88.1705C84.9957 87.3285 82.6337 90.1245 78.3707 94.3845C74.1077 98.6445 70.6207 102.393 70.6207 102.714C70.6207 103.034 71.4447 102.551 72.4517 101.64C73.4587 100.728 74.6557 100.321 75.1117 100.735C75.5687 101.149 75.6557 100.986 75.3067 100.374C74.9577 99.7615 76.3477 97.7785 78.3967 95.9665C80.4447 94.1545 83.1717 91.7295 84.4567 90.5785C86.1697 89.0445 85.6857 90.3115 82.6407 95.3275C77.9997 102.973 76.7657 105.633 78.2987 104.686C78.8577 104.34 81.0357 101.117 83.1367 97.5235C85.2387 93.9305 87.0867 91.1185 87.2437 91.2765C87.4017 91.4335 86.6587 94.9205 85.5927 99.0245C82.6517 110.352 83.3917 111.764 86.6207 100.987L89.4677 91.4865L89.6967 98.4865C89.9927 107.534 90.0137 107.713 90.8837 108.583C91.2887 108.989 91.6617 105.083 91.7107 99.9035C91.7867 91.9465 91.9527 91.0295 92.7797 93.9865C95.9727 105.401 96.8527 108.088 97.2627 107.679C97.6547 107.286 95.7317 97.7065 94.0117 91.4865C93.7067 90.3865 95.6927 93.2215 98.4237 97.7875C101.155 102.353 103.694 106.394 104.067 106.767C105.434 108.133 102.73 102.303 98.8367 95.4865C96.6377 91.6365 95.0307 88.1645 95.2677 87.7705C95.5037 87.3765 100.032 89.3695 105.33 92.2005C110.627 95.0305 114.645 96.8335 114.257 96.2065C113.87 95.5795 109.855 93.0315 105.337 90.5445C100.818 88.0585 97.4637 86.0155 97.8837 86.0045C98.3027 85.9945 101.894 86.8865 105.864 87.9865C112.664 89.8715 117.539 90.5715 116.48 89.5125C116.219 89.2515 111.981 87.9345 107.063 86.5855L98.1207 84.1335L106.621 83.9895C116.282 83.8265 115.128 82.2505 105.121 81.9415L99.1207 81.7565L105.796 80.1135C109.467 79.2095 112.805 78.1355 113.213 77.7285C113.621 77.3205 114.892 76.9505 116.038 76.9075C117.184 76.8645 117.606 76.6175 116.976 76.3595C116.347 76.1015 112.132 76.8345 107.611 77.9895C103.089 79.1435 99.2287 79.9285 99.0337 79.7325C98.8377 79.5365 101.805 77.6875 105.626 75.6235C109.448 73.5595 112.883 71.3705 113.261 70.7605C113.639 70.1495 109.937 71.7745 105.034 74.3725L96.1207 79.0965L102.871 72.2665C106.583 68.5095 109.607 64.9975 109.589 64.4615C109.572 63.9255 108.985 64.1615 108.286 64.9865C107.587 65.8115 104.157 69.1865 100.665 72.4865C95.1057 77.7395 94.5707 78.0505 96.3697 74.9865C97.5007 73.0615 99.8197 69.1045 101.523 66.1925C106.876 57.0445 104.888 58.1005 99.0457 67.5085C95.9797 72.4465 93.7037 75.5865 93.9887 74.4865C94.2737 73.3865 95.2427 69.8905 96.1407 66.7165C97.0387 63.5435 97.5787 60.3935 97.3387 59.7165C96.9577 58.6395 92.9487 70.3705 92.4247 74.0945C92.3177 74.8605 91.9797 70.7615 91.6747 64.9865C91.2247 56.4545 90.9817 55.2365 90.3817 58.4865ZM179.621 79.4865C179.621 80.3115 180.071 80.9865 180.621 80.9865C181.171 80.9865 181.621 80.3115 181.621 79.4865C181.621 78.6615 181.171 77.9865 180.621 77.9865C180.071 77.9865 179.621 78.6615 179.621 79.4865ZM179.621 84.9275C179.621 85.4455 180.071 86.1465 180.621 86.4865C181.171 86.8265 181.621 86.4025 181.621 85.5455C181.621 84.6885 181.171 83.9865 180.621 83.9865C180.071 83.9865 179.621 84.4095 179.621 84.9275ZM102.148 95.0575C105.983 98.9465 110.021 102.618 111.121 103.216C112.221 103.814 109.442 100.633 104.946 96.1445C100.45 91.6575 96.4117 87.9865 95.9727 87.9865C95.5337 87.9865 98.3127 91.1685 102.148 95.0575ZM179.621 90.9865C179.621 91.5365 180.071 91.9865 180.621 91.9865C181.171 91.9865 181.621 91.5365 181.621 90.9865C181.621 90.4365 181.171 89.9865 180.621 89.9865C180.071 89.9865 179.621 90.4365 179.621 90.9865ZM180.204 96.8525C179.773 97.5495 179.691 98.3895 180.021 98.7195C180.916 99.6145 181.892 98.2985 181.408 96.8485C181.07 95.8325 180.834 95.8325 180.204 96.8525ZM179.621 103.546C179.621 104.403 180.071 104.827 180.621 104.487C181.171 104.147 181.621 103.446 181.621 102.928C181.621 102.41 181.171 101.987 180.621 101.987C180.071 101.987 179.621 102.689 179.621 103.546ZM179.259 109.487C178.909 110.401 179.258 110.987 180.152 110.987C180.96 110.987 181.621 110.312 181.621 109.487C181.621 108.662 181.219 107.987 180.728 107.987C180.237 107.987 179.576 108.662 179.259 109.487ZM179.621 114.987C179.621 115.537 180.071 115.987 180.621 115.987C181.171 115.987 181.621 115.537 181.621 114.987C181.621 114.437 181.171 113.987 180.621 113.987C180.071 113.987 179.621 114.437 179.621 114.987ZM179.621 121.487C179.621 122.312 180.071 122.987 180.621 122.987C181.171 122.987 181.621 122.312 181.621 121.487C181.621 120.662 181.171 119.987 180.621 119.987C180.071 119.987 179.621 120.662 179.621 121.487ZM179.621 126.987C179.621 127.537 180.071 127.987 180.621 127.987C181.171 127.987 181.621 127.537 181.621 126.987C181.621 126.437 181.171 125.987 180.621 125.987C180.071 125.987 179.621 126.437 179.621 126.987ZM179.621 132.987C179.621 133.537 180.071 133.987 180.621 133.987C181.171 133.987 181.621 133.537 181.621 132.987C181.621 132.437 181.171 131.987 180.621 131.987C180.071 131.987 179.621 132.437 179.621 132.987ZM179.621 138.987C179.621 139.537 180.071 139.987 180.621 139.987C181.171 139.987 181.621 139.537 181.621 138.987C181.621 138.437 181.171 137.987 180.621 137.987C180.071 137.987 179.621 138.437 179.621 138.987ZM100.621 145.368C100.621 148.674 100.415 148.888 96.8707 149.259L93.1207 149.651L96.8707 149.819C100.47 149.98 100.621 150.13 100.621 153.546C100.621 155.664 101.026 156.855 101.621 156.487C102.171 156.147 102.621 154.546 102.621 152.928C102.621 150.28 102.945 149.985 105.871 149.972C108.081 149.961 108.685 149.68 107.76 149.094C107.012 148.62 105.549 148.454 104.51 148.726C102.962 149.131 102.621 148.668 102.621 146.163C102.621 144.481 102.171 142.827 101.621 142.487C101.027 142.12 100.621 143.29 100.621 145.368ZM179.621 144.987C179.621 145.537 180.071 145.987 180.621 145.987C181.171 145.987 181.621 145.537 181.621 144.987C181.621 144.437 181.171 143.987 180.621 143.987C180.071 143.987 179.621 144.437 179.621 144.987ZM133.621 145.987C133.621 146.537 134.071 146.987 134.621 146.987C135.171 146.987 135.621 146.537 135.621 145.987C135.621 145.437 135.171 144.987 134.621 144.987C134.071 144.987 133.621 145.437 133.621 145.987ZM179.621 150.987C179.621 151.537 180.071 151.987 180.621 151.987C181.171 151.987 181.621 151.537 181.621 150.987C181.621 150.437 181.171 149.987 180.621 149.987C180.071 149.987 179.621 150.437 179.621 150.987ZM179.621 156.987C179.621 157.537 180.071 157.987 180.621 157.987C181.171 157.987 181.621 157.537 181.621 156.987C181.621 156.437 181.171 155.987 180.621 155.987C180.071 155.987 179.621 156.437 179.621 156.987ZM179.621 162.987C179.621 163.537 180.071 163.987 180.621 163.987C181.171 163.987 181.621 163.537 181.621 162.987C181.621 162.437 181.171 161.987 180.621 161.987C180.071 161.987 179.621 162.437 179.621 162.987ZM180.204 167.853C179.773 168.55 179.691 169.39 180.021 169.72C180.916 170.615 181.892 169.299 181.408 167.849C181.07 166.833 180.834 166.833 180.204 167.853ZM131.621 171.928C131.621 174.621 133.513 175.524 135.335 173.701C137.158 171.879 136.255 169.987 133.562 169.987C132.307 169.987 131.621 170.673 131.621 171.928ZM179.621 174.487C179.621 175.312 180.071 175.987 180.621 175.987C181.171 175.987 181.621 175.312 181.621 174.487C181.621 173.662 181.171 172.987 180.621 172.987C180.071 172.987 179.621 173.662 179.621 174.487ZM179.621 180.546C179.621 181.403 180.071 181.827 180.621 181.487C181.171 181.147 181.621 180.446 181.621 179.928C181.621 179.41 181.171 178.987 180.621 178.987C180.071 178.987 179.621 179.689 179.621 180.546ZM179.621 186.487C179.621 187.312 180.071 187.987 180.621 187.987C181.171 187.987 181.621 187.312 181.621 186.487C181.621 185.662 181.171 184.987 180.621 184.987C180.071 184.987 179.621 185.662 179.621 186.487ZM179.621 192.487C179.621 193.312 180.071 193.987 180.621 193.987C181.171 193.987 181.621 193.312 181.621 192.487C181.621 191.662 181.171 190.987 180.621 190.987C180.071 190.987 179.621 191.662 179.621 192.487ZM179.342 197.701C179.613 198.408 180.189 198.987 180.621 198.987C181.053 198.987 181.629 198.408 181.9 197.701C182.188 196.952 181.655 196.416 180.621 196.416C179.587 196.416 179.054 196.952 179.342 197.701ZM179.621 203.987C179.621 204.537 180.071 204.987 180.621 204.987C181.171 204.987 181.621 204.537 181.621 203.987C181.621 203.437 181.171 202.987 180.621 202.987C180.071 202.987 179.621 203.437 179.621 203.987ZM179.621 209.987C179.621 210.537 180.071 210.987 180.621 210.987C181.171 210.987 181.621 210.537 181.621 209.987C181.621 209.437 181.171 208.987 180.621 208.987C180.071 208.987 179.621 209.437 179.621 209.987ZM179.621 215.987C179.621 216.537 180.071 216.987 180.621 216.987C181.171 216.987 181.621 216.537 181.621 215.987C181.621 215.437 181.171 214.987 180.621 214.987C180.071 214.987 179.621 215.437 179.621 215.987ZM179.621 221.987C179.621 222.537 180.071 222.987 180.621 222.987C181.171 222.987 181.621 222.537 181.621 221.987C181.621 221.437 181.171 220.987 180.621 220.987C180.071 220.987 179.621 221.437 179.621 221.987ZM179.621 227.987C179.621 228.537 180.071 228.987 180.621 228.987C181.171 228.987 181.621 228.537 181.621 227.987C181.621 227.437 181.171 226.987 180.621 226.987C180.071 226.987 179.621 227.437 179.621 227.987ZM179.621 233.987C179.621 234.537 180.071 234.987 180.621 234.987C181.171 234.987 181.621 234.537 181.621 233.987C181.621 233.437 181.171 232.987 180.621 232.987C180.071 232.987 179.621 233.437 179.621 233.987ZM179.621 239.987C179.621 240.537 180.071 240.987 180.621 240.987C181.171 240.987 181.621 240.537 181.621 239.987C181.621 239.437 181.171 238.987 180.621 238.987C180.071 238.987 179.621 239.437 179.621 239.987ZM179.621 245.987C179.621 246.537 180.071 246.987 180.621 246.987C181.171 246.987 181.621 246.537 181.621 245.987C181.621 245.437 181.171 244.987 180.621 244.987C180.071 244.987 179.621 245.437 179.621 245.987ZM179.621 251.987C179.621 252.537 180.071 252.987 180.621 252.987C181.171 252.987 181.621 252.537 181.621 251.987C181.621 251.437 181.171 250.987 180.621 250.987C180.071 250.987 179.621 251.437 179.621 251.987ZM179.621 257.487C179.621 258.312 180.071 258.987 180.621 258.987C181.171 258.987 181.621 258.312 181.621 257.487C181.621 256.662 181.171 255.987 180.621 255.987C180.071 255.987 179.621 256.662 179.621 257.487ZM179.621 263.487C179.621 264.312 180.071 264.987 180.621 264.987C181.171 264.987 181.621 264.312 181.621 263.487C181.621 262.662 181.171 261.987 180.621 261.987C180.071 261.987 179.621 262.662 179.621 263.487ZM179.621 269.487C179.621 270.312 180.071 270.987 180.621 270.987C181.171 270.987 181.621 270.312 181.621 269.487C181.621 268.662 181.171 267.987 180.621 267.987C180.071 267.987 179.621 268.662 179.621 269.487ZM179.621 274.987C179.621 275.537 180.071 275.987 180.621 275.987C181.171 275.987 181.621 275.537 181.621 274.987C181.621 274.437 181.171 273.987 180.621 273.987C180.071 273.987 179.621 274.437 179.621 274.987Z" fill="black"/>
</svg>
