<svg width="475" height="794" viewBox="0 0 475 794" fill="none" xmlns="http://www.w3.org/2000/svg">
<path fill-rule="evenodd" clip-rule="evenodd" d="M25.0306 1.76934C12.6726 1.91734 2.23559 2.36734 1.83759 2.76934C0.920587 3.69334 0.407587 791.74 1.32359 792.655C1.69559 793.028 2.01859 789.545 2.03959 784.916C2.06159 780.287 2.17459 770.424 2.28959 762.999L2.50059 749.499L46.5006 749.686C353.143 750.991 404.096 751.268 466.251 751.968L469.001 751.999L469.016 773.249C469.026 786.98 469.366 793.97 469.976 793.005C470.505 792.169 470.988 778.509 471.073 762.005C471.157 745.777 471.248 728.177 471.276 722.894C471.328 712.861 470.704 709.447 469.008 710.495C468.389 710.877 468.001 718.434 468.001 730.098V749.079L421.751 748.538C396.314 748.241 374.826 747.975 374.001 747.947C373.176 747.92 355.401 747.924 334.501 747.957C296.934 748.017 250.629 747.688 106.501 746.339C65.8006 745.958 26.0886 745.629 18.2506 745.608L4.00059 745.569L3.93359 729.534C3.87959 716.552 3.94659 363.02 4.00859 334.499C4.01859 330.099 3.90759 254.049 3.76359 165.499L3.50059 4.49934H66.5006C153.222 4.49934 443.556 2.97834 459.501 2.44134L472.501 2.00234L472.347 14.2513C472.123 32.1463 471.031 199.289 470.451 304.499C470.176 354.549 469.713 414.624 469.424 437.999C469.135 461.374 468.733 531.912 468.532 594.749C468.228 689.429 468.394 708.999 469.498 708.999C470.77 708.999 472.212 698.717 471.881 691.999C471.814 690.624 472.029 636.624 472.359 571.999C472.689 507.374 473.255 352.44 473.617 227.701L474.275 0.902344L260.888 1.20134C143.525 1.36534 37.3896 1.62034 25.0306 1.76934ZM44.5626 20.8983C44.2576 21.3923 43.6146 28.2043 43.1356 36.0353C42.1546 52.0463 42.9456 50.6343 32.5006 55.0163C19.8036 60.3433 15.2376 63.5693 16.3386 66.4393C17.3256 69.0103 28.6576 73.2913 36.9446 74.2243C39.3836 74.4983 39.3876 74.5193 39.1206 85.0663C38.9036 93.6503 39.1466 95.8753 40.4146 96.9283C42.7646 98.8783 44.1756 97.8583 50.2186 89.8413C59.4916 77.5393 60.0176 77.1623 67.2706 77.6533C70.6976 77.8843 77.9386 78.7683 83.3626 79.6173C88.7856 80.4653 94.2986 80.8903 95.6126 80.5603C99.7766 79.5153 99.0986 78.0643 88.1036 64.4993C84.5366 60.0993 81.2146 55.9553 80.7206 55.2893C80.1196 54.4803 81.2926 52.1603 84.2576 48.2893C90.1496 40.5993 91.2866 38.2763 90.5666 35.4063C89.7746 32.2523 88.3136 32.3743 77.5006 36.4973L68.5006 39.9293L59.0006 29.9543C49.9586 20.4603 46.2656 18.1443 44.5626 20.8983ZM45.5616 33.7493C45.1886 39.6623 44.6216 46.0343 44.3006 47.9103C43.7826 50.9383 43.9306 51.2473 45.6086 50.6583C47.3506 50.0473 47.3656 50.0993 45.8006 51.3203C44.5336 52.3093 43.8866 55.1253 43.2566 62.3913C42.7926 67.7503 42.6616 72.2903 42.9656 72.4783C43.2706 72.6663 47.1616 73.1373 51.6136 73.5263L59.7076 74.2323L67.7756 64.4033C76.7396 53.4833 76.6696 53.9593 70.3666 46.9833L66.8986 43.1443L63.3416 44.6303C61.3856 45.4473 59.5386 45.8713 59.2386 45.5713C58.9386 45.2713 60.3596 44.3293 62.3956 43.4783L66.0976 41.9323L57.3916 32.4653C52.6036 27.2593 48.1356 22.9993 47.4626 22.9993C46.6166 22.9993 46.0306 26.3113 45.5616 33.7493ZM413.596 31.4273C412.169 33.8633 411.001 36.0943 411.001 36.3863C411.001 36.6783 409.197 39.3293 406.992 42.2773L402.983 47.6383L397.742 46.8923C390.451 45.8533 381.768 45.8613 380.116 46.9073C377.547 48.5343 379.947 53.3123 386.615 59.8423C392.161 65.2743 392.905 66.4093 391.796 67.7403C391.084 68.5953 388.926 72.3013 387.001 75.9763C385.076 79.6523 382.233 85.0313 380.683 87.9303C377.866 93.1983 377.734 95.9993 380.3 95.9993C381.049 95.9993 388.236 92.6243 396.272 88.4993C404.307 84.3743 411.317 80.9993 411.85 80.9993C412.677 80.9993 424.792 90.1713 431.666 96.0013C435.788 99.4983 438.1 100.329 439.583 98.8453C440.715 97.7143 440.703 96.7733 439.509 92.9983C437.68 87.2173 433.916 74.0903 433.345 71.4993C433.005 69.9613 433.782 69.1023 436.702 67.7813C445.896 63.6213 453.481 57.9433 452.757 55.7623C452.183 54.0353 449.199 53.2953 437.404 51.9583L427.308 50.8133L425.654 45.5683C424.745 42.6833 423.991 39.2383 423.979 37.9113C423.967 36.5843 423.089 33.5863 422.028 31.2493C419.449 25.5673 417 25.6193 413.596 31.4273ZM414.928 33.7493C413.699 35.8123 411.143 39.8923 409.248 42.8173C407.354 45.7423 406.06 48.3923 406.374 48.7063C407.128 49.4593 423.818 51.5153 424.407 50.9273C424.658 50.6763 424.045 47.7773 423.046 44.4853C422.046 41.1933 420.709 36.5863 420.075 34.2493C419.44 31.9123 418.525 29.9993 418.042 29.9993C417.559 29.9993 416.158 31.6873 414.928 33.7493ZM227.247 33.9743C214.729 39.6563 209.553 56.5393 217.086 67.1183L218.964 69.7563L216.012 70.3473C207.286 72.0923 200.866 79.7173 200.788 88.4283C200.745 93.1643 201.265 94.6423 204.87 100.041C209.489 106.957 209.794 107.999 207.201 107.999C205.411 107.999 203.001 109.772 203.001 111.089C203.001 111.741 208.234 111.423 212.414 110.516C214.154 110.139 214.185 110.244 212.756 111.672C211.892 112.537 208.592 113.526 205.424 113.871C199.825 114.481 196.356 116.999 201.113 116.999C202.971 116.999 202.566 117.523 198.927 119.831C194.58 122.588 188.497 128.828 189.337 129.669C189.568 129.899 193.298 127.546 197.627 124.441C201.956 121.335 206.848 118.103 208.499 117.259C212.423 115.253 218.456 110.65 223.751 105.62C226.089 103.399 228.001 102.178 228.001 102.907C228.001 106.589 217.964 117.067 199.718 132.429C196.537 135.107 191.661 140.156 188.882 143.649C186.103 147.141 183.08 150.006 182.165 150.014C181.016 150.025 180.873 150.266 181.701 150.792C182.494 151.297 181.817 152.043 179.701 152.994C177.327 154.062 176.953 154.525 178.251 154.789C179.214 154.985 180.001 155.5 180.001 155.934C180.001 156.367 178.92 156.515 177.599 156.263C175.834 155.925 175.029 156.335 174.561 157.809C174.211 158.912 173.244 160.075 172.412 160.395C171.165 160.873 171.128 161.222 172.2 162.382C172.916 163.156 173.839 163.585 174.251 163.335C175.127 162.804 175.232 164.235 174.463 166.238C174.116 167.14 172.907 167.492 171.075 167.223C168.447 166.837 168.236 167.044 168.353 169.902C168.423 171.605 168.822 172.999 169.24 172.999C170.432 172.999 170.071 176.324 168.68 178.152C167.988 179.061 166.315 180.012 164.962 180.266C162.647 180.699 162.634 180.735 164.751 180.863C165.989 180.938 167.001 181.435 167.001 181.968C167.001 182.5 166.326 182.677 165.501 182.361C164.676 182.044 164.001 182.246 164.001 182.809C164.001 183.372 164.564 184.059 165.251 184.337C166.174 184.709 166.142 184.862 165.129 184.92C164.126 184.978 164.043 185.345 164.821 186.283C165.497 187.096 165.547 188.103 164.959 189.033C164.361 189.978 164.026 190.066 164.016 189.28C164.008 188.61 163.326 188.321 162.501 188.637C160.543 189.389 160.567 190.999 162.536 190.999C163.751 190.999 163.852 191.408 163.023 192.958C162.446 194.036 162.071 195.274 162.191 195.708C162.31 196.143 161.786 200.201 161.028 204.725C159.879 211.578 159.415 212.757 158.248 211.789C157.168 210.893 156.641 210.955 155.94 212.063C155.362 212.977 155.026 209.618 155.016 202.829C155.003 193.583 155.472 190.513 158.532 179.829C163.714 161.739 170.196 149.09 178.959 139.972C183.623 135.12 185.855 132.062 185.469 131.056C185.034 129.921 182.976 131.474 177.525 137.05L170.169 144.575L168.601 141.287C167.454 138.881 166.371 137.999 164.564 137.999C161.983 137.999 160.809 140.506 159.399 149.033C158.817 152.554 158.787 152.572 151.158 154.033C144.53 155.302 143.458 155.799 143.184 157.733C142.829 160.226 145.651 161.864 154.501 164.3L159.501 165.677L155.001 166.919C152.526 167.603 149.601 168.714 148.501 169.389C147.401 170.065 144.45 171.382 141.942 172.318C135.479 174.729 129.406 180.896 127.64 186.841C126.849 189.505 125.158 193.667 123.881 196.092C121.961 199.738 121.555 202.053 121.53 209.499C121.514 214.449 121.866 219.849 122.312 221.499C123.005 224.059 122.704 223.839 120.264 219.999C110.876 205.228 107.499 188.005 110.853 171.999C114.109 156.455 119.925 145.603 129.21 137.747C143.514 125.643 154.077 122.056 189.427 117.297C192.686 116.858 195.524 115.972 195.734 115.327C195.981 114.569 195.125 114.278 193.308 114.503C191.764 114.695 187.326 115.105 183.446 115.414C169.613 116.517 158.683 119.035 147.531 123.687C130.037 130.985 120.762 139.199 113.87 153.499C109.268 163.049 107.959 168.463 107.305 180.657C106.88 188.592 106.56 189.881 104.908 190.313C103.167 190.768 103.001 190.206 103.001 183.853C103.001 175.713 105.266 164.909 108.511 157.572C111.488 150.841 121.604 137.449 128.266 131.42C134.437 125.835 152.399 116.829 162.001 114.505C165.576 113.64 173.676 112.69 180.001 112.394C186.326 112.098 193.264 111.773 195.42 111.671C200.638 111.425 201.325 109.226 196.313 108.813C189.501 108.252 170.687 109.793 163.001 111.542C158.876 112.48 153.251 114.422 150.501 115.857C147.751 117.292 145.051 118.489 144.501 118.517C142.265 118.632 131.943 124.357 128.211 127.551C121.503 133.293 109.397 149.088 106.102 156.397C102.56 164.253 100.941 172.824 100.801 184.453C100.552 205.108 106.351 219.402 121.117 234.526L127.001 240.553V265.276C127.001 279.9 127.382 289.999 127.934 289.999C128.88 289.999 130.197 286.914 129.917 285.353C129.549 283.3 130.098 281.999 131.332 281.999C132.064 281.999 133.235 280.93 133.934 279.624C135.404 276.878 133.958 272.999 131.466 272.999C130.55 272.999 129.977 271.968 129.936 270.249C129.659 258.536 129.542 242.999 129.731 242.999C129.857 242.999 130.889 244.819 132.024 247.044C134.587 252.069 140.477 258.676 144.029 260.513C146.546 261.815 146.892 261.706 149.792 258.699C154.97 253.329 158.912 241.652 159.074 231.2L159.147 226.499L161.005 231.726C165.822 245.275 176.993 255.891 182.122 251.794C186.926 247.956 193.031 238.615 194.953 232.162C196.079 228.379 197.001 224.544 197.001 223.641C197.001 220.741 198.819 221.89 199.544 225.249C201.858 235.971 213.942 249.707 218.782 247.116C223.959 244.346 230.845 233.474 233.103 224.508L234.295 219.773L235.703 223.937C238.031 230.823 246.456 243.153 250.974 246.285C254.58 248.785 255.553 248.496 261.189 243.249C266.264 238.524 272.919 226.918 273.071 222.527C273.141 220.511 273.146 220.51 274.001 222.499C274.474 223.599 274.892 225.624 274.932 226.999C275.116 233.481 286.615 250.999 290.685 250.999C296.148 250.999 304.983 239.901 308.599 228.499C309.858 224.528 309.868 224.522 309.934 227.653C310.118 236.329 317.003 249.843 325.314 257.841C328.225 260.643 329.111 261.01 330.793 260.11C333.846 258.476 343.99 246.89 344.642 244.292C345.899 239.286 347.004 242.472 347.054 251.249C347.083 256.337 347.35 263.086 347.647 266.249C348.143 271.543 348.024 271.999 346.15 271.999C345.031 271.999 343.435 272.969 342.605 274.154C340.789 276.746 341.928 279.553 345.446 281.156C347.307 282.004 347.779 283.025 347.825 286.299C347.856 288.546 347.678 290.713 347.429 291.115C347.181 291.517 345.071 290.782 342.739 289.482C336.607 286.063 321.468 281.257 314.501 280.517C311.201 280.167 302.651 279.026 295.501 277.983C278.565 275.511 267.061 274.519 244.001 273.543C231.069 272.995 195.547 274.703 184.428 276.407C172.44 278.245 135.138 290.039 131.251 293.221C130.344 293.963 130.001 293.798 130.001 292.621C130.001 291.729 129.27 290.999 128.376 290.999C127.091 290.999 126.881 291.65 127.372 294.105C127.714 295.813 128.558 298.373 129.247 299.793C132.763 307.036 158.307 316.111 180.47 317.992C186.537 318.507 196.451 319.452 202.501 320.092C208.551 320.732 225.426 321.264 240.001 321.273C289.302 321.304 329.535 314.503 346.177 303.327L350.501 300.422V267.961V235.499L355.417 227.999C366.12 211.672 370.845 198.856 371.723 183.766C373.693 149.928 356.855 121.995 328.501 112.067C319.844 109.035 312.493 108.079 293.94 107.57C284.899 107.322 275.588 106.81 273.251 106.431C269.831 105.878 269.001 106.037 269.001 107.246C269.001 109.212 273.153 109.99 283.876 110.034C319.61 110.181 336.303 114.813 350.243 128.451C356.997 135.058 359.465 139.135 357.75 140.85C356.885 141.715 357.021 141.999 358.301 141.999C360.039 141.999 360.355 142.795 360.189 146.749C360.136 148.025 360.683 148.999 361.454 148.999C362.293 148.999 362.625 149.72 362.321 150.882C362.011 152.068 362.62 153.319 363.964 154.261C365.602 155.408 365.946 156.368 365.442 158.378C365.045 159.961 365.201 160.999 365.835 160.999C366.413 160.999 366.702 161.957 366.476 163.127C366.251 164.297 366.727 166.197 367.534 167.349C368.341 168.501 368.994 169.906 368.986 170.472C368.977 171.037 368.534 170.824 368.001 169.999C367.217 168.786 367.029 168.93 367.016 170.749C367.008 171.987 367.481 172.999 368.068 172.999C368.681 172.999 368.865 173.852 368.501 174.999C368.106 176.244 368.321 176.999 369.071 176.999C370.622 176.999 369.696 185.387 366.921 196.467C364.824 204.84 357.63 220.449 353.519 225.544L351.135 228.499L351.909 224.988C352.334 223.056 355.065 215.631 357.978 208.488C367.589 184.91 367.857 167.087 358.883 148.262C352.078 133.988 340.026 123.165 326.946 119.584C323.951 118.765 318.576 117.132 315.001 115.957C309.636 114.193 305.457 113.751 291.072 113.43C280.676 113.198 274.018 113.406 274.572 113.945C275.083 114.443 283.113 115.343 292.417 115.947C311.177 117.164 310.911 117.12 323.355 121.099C337.882 125.745 345.368 131.31 353.025 143.157C361.037 155.554 363.967 168.721 362.144 184.139C361.057 193.331 357.295 205.999 355.652 205.999C355.174 205.999 355.039 204.985 355.35 203.747C356.561 198.919 353.512 189.267 348.462 181.942C343.254 174.389 338.424 170.367 328.001 164.905C324.426 163.032 318.869 159.557 315.653 157.183C312.436 154.809 308.708 152.367 307.368 151.756C306.028 151.146 303.344 148.033 301.404 144.839C296.62 136.964 291.263 131.829 278.597 122.981C272.329 118.602 268.533 115.365 269.444 115.176C272.167 114.61 271.126 113.128 267.251 112.052C265.189 111.479 263.051 111.005 262.501 110.998C261.951 110.991 260.151 110.058 258.501 108.924L255.501 106.863L261.001 107.533C268.517 108.448 266.498 106.423 257.372 103.892C248.114 101.325 246.808 99.8713 248.238 93.7253C249.166 89.7383 249.076 88.3793 247.691 85.4753C246.488 82.9523 246.372 82.0033 247.267 82.0143C250.036 82.0493 251.349 84.0983 252.087 89.5353C252.7 94.0523 253.554 95.9753 256.129 98.6313C257.924 100.483 259.755 101.999 260.197 101.999C261.936 101.999 260.852 98.9603 258.001 95.8383C256.351 94.0313 255.001 91.6753 255.001 90.6023C255.001 88.7313 255.096 88.7403 257.315 90.8253C258.588 92.0213 260.163 92.9993 260.815 92.9993C261.472 92.9993 262.001 94.3683 262.001 96.0653C262.001 100.286 263.658 102.999 266.236 102.999C267.92 102.999 268.134 102.732 267.201 101.799C266.541 101.139 266.001 98.2663 266.001 95.4163C266.001 90.8923 266.287 90.1533 268.251 89.6073C269.954 89.1343 270.988 89.6353 272.501 91.6693C277.334 98.1633 279.713 100.323 281.345 99.6973C282.283 99.3373 283.001 97.9643 283.001 96.5303C283.001 93.6033 282.219 93.3193 280.526 95.6343C279.471 97.0773 279.081 96.8643 277.198 93.8183C273.987 88.6233 271.208 86.4993 268.055 86.8293C265.642 87.0823 265.191 86.7003 264.638 83.9353C264.288 82.1833 264.001 79.5583 264.001 78.1013C264.001 75.9953 262.961 74.8143 258.91 72.3233C253.286 68.8643 253.181 68.9933 263.25 66.9973C267.883 66.0793 269.084 65.4353 269.442 63.6783C270.764 57.1853 270.96 54.0913 270.082 53.5493C269.541 53.2153 268.817 54.6343 268.464 56.7213C267.321 63.4943 267.276 63.5423 260.858 64.8683C257.484 65.5653 253.636 66.8473 252.307 67.7183L249.89 69.3023L251.903 65.8903C254.33 61.7773 253.435 59.1613 250.194 60.8963C247.288 62.4513 240.418 62.2663 237.085 60.5423C233.719 58.8023 232.54 54.4253 233.988 49.0483C235.448 43.6253 238.973 40.8043 245.016 40.2243C251.06 39.6433 251.386 37.8493 246.096 34.2843C241.736 31.3463 233.341 31.2083 227.247 33.9743ZM230.501 35.7323C221.378 38.0163 214.662 50.8843 217.257 61.1083C218.82 67.2683 226.884 72.9683 234.073 72.9933C237.342 73.0053 244.837 69.8023 247.049 67.4483L249.35 64.9993H244.643C234.466 64.9993 229.026 59.4993 230.442 50.6423C231.391 44.7103 233.933 41.2123 239.207 38.5843C243.391 36.4993 243.689 36.1493 241.726 35.6233C239.178 34.9403 233.442 34.9953 230.501 35.7323ZM78.5006 39.1763C74.1006 40.8813 70.3476 42.4043 70.1606 42.5613C69.7256 42.9263 76.3166 51.9083 77.0576 51.9603C78.0036 52.0263 87.9856 38.1433 87.9956 36.7493C88.0036 35.6073 87.1376 35.8283 78.5006 39.1763ZM49.5076 48.9883C49.1576 49.5543 49.5586 49.7223 50.4486 49.3813C52.1806 48.7163 52.4976 47.9993 51.0596 47.9993C50.5416 47.9993 49.8436 48.4443 49.5076 48.9883ZM382.352 51.7113C383.213 53.3773 386.244 56.8303 389.086 59.3863L394.255 64.0333L398.149 57.3703C400.29 53.7053 401.868 50.5323 401.655 50.3193C401.441 50.1063 396.659 49.6513 391.027 49.3083L380.787 48.6843L382.352 51.7113ZM275.234 57.5813L279.264 65.2703L286.632 64.6473C290.685 64.3053 294.001 64.3213 294.001 64.6833C294.001 65.0453 293.256 66.1643 292.346 67.1703C290.937 68.7273 290.914 68.9993 292.191 68.9993C293.016 68.9993 294.529 68.0733 295.554 66.9403C296.991 65.3523 297.17 64.4963 296.335 63.1903C295.169 61.3673 292.259 61.1463 284.944 62.3283L280.387 63.0643L277.444 56.7813C275.825 53.3263 273.759 50.3623 272.853 50.1953C271.593 49.9633 272.154 51.7023 275.234 57.5813ZM400.094 57.1733C397.866 60.6523 396.034 63.9603 396.022 64.5233C396.01 65.0863 398.691 67.5613 401.98 70.0233C410.087 76.0933 409.646 77.2743 401.455 71.4293C397.855 68.8603 394.762 66.9253 394.582 67.1283C394.402 67.3323 392.54 70.6493 390.445 74.4993C388.35 78.3493 385.177 83.9743 383.394 86.9993C380.973 91.1073 380.506 92.5793 381.549 92.8173C383.754 93.3193 409.518 79.3073 409.383 77.6783C409.31 76.7863 409.927 76.4283 411.04 76.7193C413.691 77.4133 449.001 58.9683 449.001 56.8893C449.001 56.2453 445.859 55.8053 424.501 53.4563C417.351 52.6703 409.846 51.7613 407.823 51.4373C404.207 50.8573 404.078 50.9533 400.094 57.1733ZM37.0006 55.7383C21.8796 62.7013 19.0006 64.1973 19.0006 65.0933C19.0006 66.5953 26.5986 69.6583 33.7816 71.0523C37.2356 71.7233 40.2276 72.0973 40.4296 71.8853C41.2706 71.0023 42.1666 54.0043 41.3686 54.0633C40.8916 54.0983 38.9256 54.8523 37.0006 55.7383ZM74.7636 59.2033C73.3646 61.0163 69.9226 64.9743 67.1166 67.9993C64.3096 71.0243 62.0106 73.8373 62.0066 74.2493C62.0036 74.6613 64.1386 75.0083 66.7506 75.0193C69.3626 75.0303 74.4256 75.4883 78.0006 76.0373C91.1666 78.0593 94.0006 78.2813 94.0006 77.2903C94.0006 76.5113 81.4326 60.2813 78.0586 56.7033C77.6466 56.2653 76.1636 57.3903 74.7636 59.2033ZM428.122 58.9993C428.105 59.8243 428.709 61.8493 429.465 63.4993C431.233 67.3613 431.259 65.5653 429.501 60.9993C428.76 59.0743 428.139 58.1743 428.122 58.9993ZM286.619 72.0853C285.179 73.2183 284.001 74.4523 284.001 74.8293C284.001 75.2053 286.026 76.7373 288.501 78.2323C290.976 79.7273 293.001 81.3393 293.001 81.8153C293.001 82.2903 290.526 83.2733 287.501 83.9993C282.435 85.2143 282.001 85.5433 282.001 88.1593C282.001 90.0173 282.52 90.9993 283.501 90.9993C284.326 90.9993 285.001 90.1843 285.001 89.1883C285.001 87.8413 286.538 86.9173 291.001 85.5803C294.425 84.5543 297.001 83.2123 297.001 82.4533C297.001 81.7223 294.976 79.6693 292.5 77.8913C288.343 74.9053 288.119 74.5263 289.565 72.9283C291.904 70.3443 289.651 69.7003 286.619 72.0853ZM423.001 74.1003C418.876 76.2423 415.051 78.1933 414.501 78.4363C413.951 78.6793 415.301 80.4873 417.501 82.4543C421.725 86.2313 437.168 97.1663 437.628 96.7053C438.048 96.2853 431.839 71.5813 431.13 70.8523C430.784 70.4973 427.126 71.9583 423.001 74.1003ZM41.4696 84.5743C40.7166 94.6213 41.6916 98.3143 43.9716 94.0533C44.6076 92.8643 47.9716 88.3703 51.4466 84.0653L57.7656 76.2393L53.2436 75.6193C50.7566 75.2783 47.2516 74.9993 45.4546 74.9993H42.1876L41.4696 84.5743ZM211.001 77.0583C211.001 77.6403 210.611 77.8763 210.135 77.5823C209.151 76.9743 206.848 79.3603 205.03 82.8703C204.018 84.8233 204.039 85.1053 205.151 84.4733C206.239 83.8543 206.258 83.9673 205.251 85.0523C203.162 87.3023 203.741 93.5303 206.331 96.6723C207.612 98.2273 208.977 100.362 209.364 101.416C209.865 102.784 210.375 103.025 211.142 102.258C211.909 101.491 211.866 100.12 210.993 97.4743C209.361 92.5303 210.303 86.3843 213.169 83.2653C215.45 80.7833 215.453 80.7533 213.314 81.8653C211.225 82.9513 211.152 82.8443 211.694 79.5013C212.007 77.5753 211.979 75.9993 211.632 75.9993C211.285 75.9993 211.001 76.4763 211.001 77.0583ZM256.668 79.6663C256.301 80.0323 256.001 80.7973 256.001 81.3663C256.001 81.9923 256.467 81.9333 257.184 81.2163C257.835 80.5653 258.135 79.8003 257.851 79.5163C257.567 79.2323 257.034 79.2993 256.668 79.6663ZM254.001 83.0303C254.001 83.5633 254.676 83.9993 255.501 83.9993C256.326 83.9993 257.001 83.8223 257.001 83.6063C257.001 83.3903 256.326 82.9543 255.501 82.6373C254.676 82.3213 254.001 82.4983 254.001 83.0303ZM215.535 85.9613C214.017 87.6383 213.861 89.0093 214.458 95.3823C214.914 100.253 214.771 103.561 214.044 104.919C212.416 107.96 214.609 107.634 220.375 103.977L225.141 100.954L222.489 97.8023C220.21 95.0943 219.883 93.8983 220.169 89.3233C220.44 84.9743 220.208 83.9973 218.906 83.9983C218.029 83.9983 216.512 84.8823 215.535 85.9613ZM255.08 86.5823C255.128 87.7473 255.365 87.9843 255.684 87.1873C255.973 86.4653 255.937 85.6023 255.605 85.2703C255.273 84.9383 255.037 85.5283 255.08 86.5823ZM245.117 90.1673C245.053 91.0853 244.742 92.6603 244.425 93.6673C243.88 95.4033 243.91 95.4063 244.993 93.7183C245.621 92.7383 245.932 91.1633 245.684 90.2183C245.278 88.6693 245.222 88.6643 245.117 90.1673ZM224.697 93.0523C224.144 95.1693 224.747 95.9883 230.579 101.039C235.263 105.095 235.46 105.098 239.898 101.2C244.742 96.9453 244.768 93.9993 239.964 93.9993C237.831 93.9993 237.034 94.5493 236.707 96.2493C236.338 98.1653 236.253 98.0883 236.137 95.7303C236.017 93.2923 235.7 93.0363 233.488 93.5923C232.047 93.9533 230.341 93.6963 229.488 92.9883C228.67 92.3093 228.001 92.0893 228.001 92.4993C228.001 92.9093 227.381 92.7293 226.623 92.1003C225.538 91.2003 225.129 91.4023 224.697 93.0523ZM240.501 91.9993C240.841 92.5493 241.569 92.9993 242.119 92.9993C242.669 92.9993 242.841 92.5493 242.501 91.9993C242.161 91.4493 241.433 90.9993 240.883 90.9993C240.333 90.9993 240.161 91.4493 240.501 91.9993ZM228.17 94.8943C227.188 95.5023 227.26 95.9693 228.496 96.9953C229.556 97.8743 230.419 97.9813 231.086 97.3143C232.428 95.9723 229.867 93.8463 228.17 94.8943ZM241.001 96.9993C241.001 97.5493 241.451 97.9993 242.001 97.9993C242.551 97.9993 243.001 97.5493 243.001 96.9993C243.001 96.4493 242.551 95.9993 242.001 95.9993C241.451 95.9993 241.001 96.4493 241.001 96.9993ZM245.001 101.859C245.001 103.282 255.035 113.147 265.995 122.499C288.536 141.734 298.133 158.201 306.438 191.897C307.848 197.616 309.001 204.002 309.001 206.088C309.001 208.174 309.452 210.16 310.003 210.5C312.098 211.795 313.249 205.067 313.339 190.999C313.426 177.406 313.256 176.03 310.608 168.999C306.651 158.49 301.018 147.999 299.333 147.999C298.545 147.999 298.044 147.237 298.207 146.285C298.385 145.25 297.737 144.415 296.572 144.177C295.511 143.961 294.016 143.157 293.25 142.391C292.061 141.202 292.095 140.999 293.489 140.999C294.408 140.999 294.826 140.525 294.447 139.912C294.078 139.314 292.909 139.051 291.85 139.328C290.639 139.645 288.993 138.9 287.412 137.319C286.031 135.938 284.135 134.66 283.201 134.48C282.266 134.299 281.276 134.081 281.001 133.994C280.726 133.908 281.851 133.218 283.501 132.463L286.501 131.089L282.644 131.044C279.695 131.01 278.918 130.657 279.344 129.548C280.145 127.46 277.622 125.002 268.001 118.501C263.326 115.342 256.239 110.08 252.251 106.809C248.263 103.537 245.001 101.31 245.001 101.859ZM241.213 105.187C238.751 107.649 240.41 135.483 243.527 143.999C245.038 148.127 245.305 148.147 262.683 145.399C271.631 143.984 274.827 143.851 278.682 144.733C281.331 145.339 283.667 145.666 283.874 145.459C284.858 144.476 270.135 128.852 261.258 121.459C258.092 118.822 252.559 113.81 248.963 110.32C243.841 105.348 242.163 104.237 241.213 105.187ZM232.023 113.001C231.999 121.102 229.316 133.18 224.027 148.999C218.205 166.411 219.047 179.164 227.116 195.794C230.611 202.997 231.411 204.004 233.196 203.437C234.378 203.062 235.564 203.291 235.988 203.977C236.461 204.743 237.829 203.374 239.813 200.151C241.93 196.71 242.523 194.966 241.701 194.604C240.916 194.258 241.278 193.502 242.751 192.415C245.432 190.437 245.698 188.039 243.251 187.899C242.084 187.833 242.334 187.533 244.001 186.999L246.501 186.198L243.692 186.099C242.093 186.042 241.149 185.568 241.501 184.999C241.841 184.449 241.417 183.999 240.56 183.999C239.703 183.999 239.001 183.549 239.001 182.999C239.001 182.449 239.788 181.992 240.751 181.984C242.091 181.972 242.189 181.77 241.167 181.123C240.103 180.448 240.17 180.148 241.499 179.638C242.415 179.287 244.028 178.999 245.083 178.999C246.69 178.999 247.001 178.268 247.001 174.499V169.999H242.442C239.657 169.999 238.123 169.61 238.501 168.999C238.841 168.449 238.642 167.999 238.06 167.999C235.669 167.999 237.287 166.366 241.752 164.272C246.384 162.099 246.423 162.043 243.339 162.022C240.322 162 239.369 160.297 241.297 158.37C241.675 157.992 241.522 157.127 240.958 156.447C240.234 155.574 240.413 154.73 241.568 153.575C243.083 152.06 243.053 151.366 241.166 144.219C238.096 132.59 236.703 121.279 237.444 113.999C237.981 108.723 237.865 107.739 236.827 108.775C235.79 109.81 235.218 109.621 233.797 107.775C232.081 105.545 232.045 105.652 232.023 113.001ZM224.175 113.749C221.969 116.361 214.357 123.674 207.26 129.999C186.222 148.749 183.125 154.537 196.477 150.154C201.218 148.598 205.526 147.999 211.975 147.999H220.907L222.429 144.749C226.376 136.32 231.315 108.999 228.892 108.999C228.504 108.999 226.382 111.137 224.175 113.749ZM12.6676 130.666C11.6166 131.716 11.8906 163.828 12.9656 165.763C13.4966 166.718 17.7736 175.374 22.4686 184.999C27.1636 194.624 38.1276 216.562 46.8326 233.749C55.5386 250.937 62.3236 264.999 61.9126 264.999C61.5006 264.999 60.5166 265.247 59.7256 265.551C58.8046 265.904 57.8586 265.094 57.0976 263.301C55.3406 259.158 51.3676 254.999 49.1656 254.999C46.8246 254.999 46.0326 257.533 46.0146 265.078L46.0006 270.657L41.2506 272.75C38.6386 273.9 35.7126 275.088 34.7506 275.389C32.4056 276.122 32.5226 279.673 34.9346 280.964C35.9986 281.533 38.4736 281.999 40.4346 281.999C44.6696 281.999 44.7866 282.545 41.5006 286.999C36.4546 293.838 39.0146 296.443 47.4246 293.03C52.5656 290.943 52.9496 290.92 55.4126 292.533C56.8366 293.466 58.0006 294.566 58.0006 294.978C58.0006 295.781 65.1666 300.999 66.2696 300.999C68.1646 300.999 68.9736 296.842 67.9596 292.316C67.0296 288.168 67.1176 287.386 68.6376 286.275C69.5976 285.573 70.6766 284.999 71.0366 284.999C71.3956 284.999 75.5756 292.761 80.3256 302.249C85.0746 311.737 89.6206 320.624 90.4266 321.999C91.2326 323.374 97.9096 336.649 105.264 351.499C112.619 366.349 126.71 394.474 136.578 413.999L154.519 449.499L154.193 459.499L153.868 469.499L146.684 472.857C133.143 479.188 113.157 486.872 106.001 488.498C100.537 489.74 99.0006 490.332 99.0006 491.193C99.0006 492.303 113.726 520.921 115.037 522.359C115.982 523.396 122.107 519.979 121.388 518.816C121.11 518.366 121.275 517.999 121.753 517.999C122.232 517.999 123.496 517.208 124.562 516.241C126.656 514.342 131.646 510.999 132.385 510.999C132.635 510.999 132.376 512.679 131.809 514.733C130.525 519.383 131.433 527.714 133.47 529.965C134.312 530.895 135.001 533.068 135.001 534.793C135.001 537.801 134.796 537.957 130.018 538.591C123.153 539.502 121.844 541.323 126.162 543.956C127.998 545.075 130.171 545.993 130.991 545.995C131.984 545.998 131.568 546.845 129.741 548.539C124.706 553.208 126.848 555.343 134.047 552.833C136.457 551.993 137.493 551.975 137.757 552.768C137.959 553.374 139.473 555.731 141.122 558.007C143.574 561.392 144.382 561.928 145.56 560.95C146.445 560.215 147.001 557.918 147.001 554.993C147.001 550.901 147.317 550.148 149.251 549.629C152.639 548.721 153.352 548.87 152.213 550.249C150.347 552.507 149.725 558.941 150.951 563.289C152.87 570.09 156.995 575.295 161.791 576.968C165.766 578.355 166.001 578.655 166.001 582.333C166.001 587.115 170.082 594.943 174.139 597.943C175.761 599.142 179.655 600.634 182.794 601.26C185.933 601.885 188.606 602.449 188.734 602.514C188.862 602.578 188.465 603.959 187.852 605.582C186.926 608.035 187.096 609.317 188.857 613.183C190.022 615.741 192.126 618.739 193.532 619.845C196.867 622.468 206.81 624.758 220.501 626.055C238.23 627.736 240.001 628.038 240.001 629.38C240.001 631.548 247.041 638.979 251.017 641.007C258.973 645.066 267.005 644.521 274.536 639.41C277.725 637.246 279.092 636.917 282.924 637.389C294.722 638.841 308.289 639.156 315.756 638.151C324.532 636.97 347.347 629.103 364.266 621.423C378.602 614.915 388.137 613.868 404.869 616.965C426.669 621 438.021 617.38 432.998 607.994C432.328 606.742 432.328 605.915 432.998 605.501C434.448 604.605 434.23 599.694 432.643 597.524C431.487 595.944 431.521 595.254 432.87 592.905C434.194 590.598 434.254 589.589 433.238 586.779C432.424 584.526 432.319 582.376 432.922 580.275C433.558 578.055 433.445 576.62 432.533 575.373C431.771 574.332 431.444 572.112 431.735 569.949C432.005 567.935 431.683 565.274 431.021 564.036C430.149 562.408 430.118 561.482 430.908 560.692C432.693 558.907 432.154 554.22 429.926 552.143C428.598 550.907 428.238 549.971 428.926 549.546C430.476 548.588 430.248 543.797 428.536 541.353C427.731 540.203 427.342 538.991 427.673 538.66C429.028 537.306 428.817 530.453 427.372 528.856C426.362 527.74 426.222 526.981 426.944 526.534C428.178 525.771 427.574 521.172 426.038 519.636C425.467 519.065 425.001 517.425 425.001 515.99C425.001 514.555 424.396 512.554 423.657 511.543C421.527 508.63 407.13 509.863 395.501 513.953C390.551 515.694 385.654 517.385 384.619 517.71C383.584 518.035 376.384 517.783 368.619 517.151C360.854 516.518 351.801 515.822 348.501 515.604C338.819 514.965 328.88 512.896 323.315 510.361C320.463 509.062 317.798 507.999 317.394 507.999C316.989 507.999 313.698 506.815 310.079 505.368C300.513 501.543 291.796 495.605 284.501 487.945C269.186 471.863 267.492 470.581 259.973 469.379C256.687 468.853 255.834 468.998 256.176 470.024C256.418 470.751 257.941 471.521 259.559 471.733C264.62 472.399 270.168 476.445 280.506 487.009C294.022 500.819 298.379 503.83 313.001 509.462C332.237 516.872 337.316 517.968 357.501 519.059C384.962 520.544 384.252 520.446 385.15 522.872C386.242 525.825 387.21 525.534 386.823 522.369C386.519 519.884 386.98 519.581 395.201 516.88C399.985 515.307 405.385 513.903 407.201 513.76C410.376 513.509 410.571 513.708 412.338 518.999C413.348 522.024 414.801 528.774 415.566 533.999L416.957 543.499L416.448 534.316C416.16 529.115 415.091 522.668 413.984 519.448C411.881 513.337 412.024 512.038 414.755 512.423C415.839 512.576 417.347 514.776 418.732 518.22C420.499 522.617 421.186 527.279 422.034 540.635C422.624 549.91 423.543 561.324 424.076 565.999C426.664 588.684 427.2 597.512 426.532 606.427C425.882 615.091 425.625 615.999 423.816 615.999C422.062 615.999 421.849 615.417 422.073 611.249C422.214 608.637 422.164 602.899 421.961 598.499C421.629 591.278 421.54 591.764 421.047 603.499L420.501 616.499L416.501 616.191C414.301 616.021 408.964 615.234 404.641 614.441C400.317 613.648 396.713 612.999 396.631 612.999C396.549 612.999 396.516 603.887 396.557 592.749C396.634 571.871 396.207 563 395.124 562.998C394.781 562.998 394.635 572.295 394.799 583.66C395.031 599.763 394.81 604.503 393.799 605.145C392.811 605.771 392.798 605.972 393.743 605.984C394.547 605.994 394.861 607.144 394.634 609.249C394.302 612.324 394.047 612.512 389.892 612.744C382.237 613.17 373.775 615.267 365.513 618.784C352.1 624.492 327.884 633 321.001 634.421C317.426 635.159 312.181 635.704 309.346 635.631C306.51 635.558 304.399 635.836 304.655 636.249C305.341 637.357 303.169 637.159 300.815 635.899C299.32 635.1 298.945 635.1 299.439 635.899C300.641 637.844 298.895 637.081 294.645 633.804C290.92 630.932 290.746 630.882 292.922 633.3C295.963 636.681 295.174 637.709 291.659 634.944C290.203 633.799 289.24 633.455 289.519 634.18C289.91 635.197 288.766 635.421 284.514 635.156C281.482 634.968 279.001 634.461 279.001 634.029C279.001 633.597 279.676 631.628 280.501 629.653C284.769 619.437 280.059 607.189 269.84 601.932C265.531 599.716 264.175 597.435 248.788 566.513C239.207 547.261 234.349 538.08 224.274 520.19C222.223 516.547 221.614 516.075 220.336 517.136C219.018 518.229 219.11 518.495 221.051 519.213C223.203 520.009 223.217 520.103 221.484 522.018C220.273 523.356 220.105 523.999 220.968 523.999C221.967 523.999 221.946 524.363 220.873 525.665C219.636 527.167 219.772 527.263 222.251 526.646C225.936 525.728 225.724 526.572 221.751 528.635C219.964 529.562 219.033 530.501 219.683 530.721C220.333 530.941 222.246 530.407 223.933 529.534C228.483 527.181 227.655 529.263 223.001 531.879C220.801 533.115 219.001 534.575 219.001 535.122C219.001 535.669 219.339 535.925 219.751 535.691C223.206 533.726 228.182 531.847 228.661 532.325C228.984 532.649 227.618 533.691 225.625 534.641C223.632 535.592 222.001 536.736 222.001 537.184C222.001 538.337 223.12 538.146 226.001 536.499C230.184 534.108 230.706 534.882 227.001 537.981C224.146 540.369 223.919 540.802 225.767 540.333C227.013 540.017 228.277 539.362 228.576 538.878C228.874 538.395 229.88 538.007 230.81 538.016C231.911 538.027 231.367 538.759 229.251 540.114C227.463 541.259 226.001 542.489 226.002 542.847C226.003 543.912 231.401 543.905 232.69 542.839C233.546 542.131 234.733 543.345 236.93 547.177C238.609 550.104 239.986 552.852 239.992 553.283C239.997 553.715 237.802 553.776 235.115 553.42C232.201 553.033 229.477 553.209 228.365 553.855C226.855 554.732 227.511 554.944 231.817 554.969C238.174 555.005 240.478 556.086 242.491 559.979C245.182 565.183 244.045 572.175 239.764 576.745C237.088 579.601 237.937 580.639 240.782 577.988C241.956 576.894 243.302 575.999 243.772 575.999C245.812 575.999 250.124 582.017 250.993 586.078L251.94 590.499L251.604 585.84C251.246 580.883 247.896 574.999 245.433 574.999C244.645 574.999 244.008 574.887 244.016 574.749C244.025 574.611 244.607 572.573 245.311 570.22L246.591 565.941L252.046 577.19C255.046 583.377 258.963 590.87 260.751 593.84C262.538 596.811 264.001 599.412 264.001 599.62C264.001 599.829 262.816 599.999 261.367 599.999C256.4 599.999 251.127 602.28 246.325 606.506L241.519 610.735L239.774 607.867L238.03 604.999L241.766 601.431C243.844 599.446 244.582 598.31 243.431 598.87C239.981 600.548 227.368 612.909 229.058 612.956C229.914 612.98 231.063 614.012 231.61 615.249C232.158 616.486 232.468 616.895 232.299 616.156C232.131 615.418 231.781 613.843 231.523 612.656C231.189 611.123 231.901 609.836 233.985 608.207L236.918 605.916L238.818 609.707C240.293 612.65 240.611 614.903 240.238 619.767L239.758 626.036L235.129 625.546C232.584 625.276 226.676 624.787 222.001 624.459C211.157 623.698 200.416 621.336 196.22 618.789C194.415 617.694 192.039 615.033 190.939 612.877C187.496 606.129 189.506 601.081 196.365 599.247C200.911 598.031 226.001 586.427 226.001 585.541C226.001 585.282 223.976 585.938 221.501 586.999C219.026 588.06 217.001 588.686 217.001 588.391C217.001 588.096 215.888 588.729 214.527 589.8C213.167 590.87 209.454 592.738 206.277 593.952C203.1 595.165 199.029 596.794 197.23 597.572C183.794 603.382 170.535 597.395 168.066 584.403C166.913 578.337 167.528 577.663 175.501 576.265C180.672 575.358 196.298 569.973 202.501 566.96C206.253 565.137 200.052 566.971 190.192 570.6C169.992 578.034 161.081 577.568 155.672 568.796C151.697 562.351 151.632 556.284 155.463 549.246C157.024 546.379 159.471 542.923 160.901 541.566C168.665 534.2 175.338 529.279 179.976 527.499C188.667 524.163 186.634 523.926 177.287 527.186C167.315 530.664 160.995 531.113 155.98 528.7L152.501 527.027L155.501 529.508C157.151 530.873 159.739 531.991 161.251 531.994C162.763 531.997 164.001 532.44 164.001 532.98C164.001 534.611 159.531 535.219 150.255 534.85C140.918 534.478 137.158 532.786 134.286 527.665C132.762 524.946 132.783 517.503 134.327 513.317C136.424 507.633 139.505 505.012 144.244 504.881C148.101 504.773 148.219 504.7 145.501 504.099L142.501 503.435L145.001 501.871C146.376 501.01 149.076 499.345 151.001 498.17C152.926 496.994 154.027 496.025 153.448 496.016C151.943 495.992 125.284 512.529 120.467 516.475L116.433 519.779L113.857 514.949C111.945 511.361 111.567 509.808 112.391 508.911C113.233 507.996 113.079 507.853 111.751 508.32C110.599 508.726 110.001 508.434 110.001 507.468C110.001 506.66 109.551 505.999 109.001 505.999C108.451 505.999 108.001 505.569 108.001 505.043C108.001 504.517 106.651 501.797 105.001 498.999C103.351 496.201 102.001 493.583 102.001 493.182C102.001 492.781 106.838 490.917 112.751 489.04C145.34 478.694 219.926 440.412 238.632 424.431C241.485 421.994 244.051 419.999 244.333 419.999C245.415 419.999 247.285 427.404 246.287 427.737C245.736 427.921 244.433 428.752 243.393 429.583C241.889 430.786 242.194 430.759 244.884 429.453C247.675 428.098 248.415 428.045 249.118 429.155C250.468 431.284 250.193 431.849 247.001 433.499C245.351 434.352 244.001 435.275 244.001 435.55C244.001 435.825 245.329 435.364 246.951 434.525C250.402 432.74 251.001 432.658 251.001 433.967C251.001 434.499 249.763 435.653 248.251 436.531C246.738 437.408 246.401 437.822 247.501 437.449C252.424 435.783 252.812 435.828 253.536 438.158C253.936 439.445 255.104 441.693 256.132 443.153C257.16 444.613 258.001 446.224 258.001 446.734C258.001 447.243 254.739 448.809 250.751 450.215C233.207 456.397 227.824 458.472 217.001 463.22C205.52 468.257 203.216 469.547 204.107 470.438C204.807 471.138 211.559 468.591 219.593 464.597C226.374 461.225 256.325 449.999 258.54 449.999C262.088 449.999 261.555 447.453 255.543 435.672C247.353 419.622 245.76 417.013 244.148 417.005C243.404 417.002 240.549 419.018 237.804 421.486C230.842 427.746 205.174 444.842 199.499 447C197.691 447.687 196.438 447.077 192.659 443.67C190.115 441.376 186.185 438.149 183.927 436.499C180.216 433.788 178.131 430.075 162.309 397.999C152.679 378.474 144.09 361.149 143.224 359.499C142.357 357.849 141.328 355.824 140.936 354.999C140.544 354.174 138.181 349.224 135.684 343.999C129.74 331.557 125.001 321.088 125.001 320.396C125.001 320.092 121.322 312.565 116.826 303.671C112.33 294.776 97.6716 265.449 84.2536 238.499C70.8346 211.549 58.6806 187.249 57.2436 184.499C55.8066 181.749 51.0016 172.446 46.5656 163.826C38.5196 148.19 38.4806 148.137 30.0006 141.27C16.5956 130.414 14.3146 129.018 12.6676 130.666ZM14.0006 149.192V163.385L40.3856 215.942C54.8976 244.848 67.4846 269.849 68.3566 271.499C69.2286 273.149 71.5846 278.324 73.5926 282.999C75.5996 287.674 82.1066 301.174 88.0516 312.999C93.9966 324.824 102.458 341.699 106.854 350.499C111.25 359.299 119.851 376.174 125.967 387.999C132.083 399.824 141.078 417.66 145.956 427.635C150.834 437.611 155.308 446.071 155.899 446.436C156.864 447.032 166.001 442.445 166.001 441.364C166.001 440.608 161.77 432.529 161.096 431.999C160.747 431.724 159.905 430.236 159.226 428.693C158.426 426.872 157.555 426.149 156.747 426.635C155.908 427.138 155.95 426.83 156.873 425.691C158.06 424.228 158.018 423.999 156.564 423.999C155.64 423.999 155.162 423.547 155.504 422.995C156.103 422.025 154.062 417.636 133.875 376.499C123.423 355.199 123.209 354.709 125.563 357.499C126.491 358.599 129.917 365.124 133.176 371.999C141.262 389.058 166.039 438.271 167.144 439.468C168.229 440.642 177.001 436.109 177.001 434.374C177.001 433.732 168.001 415.169 157.001 393.123C146.001 371.077 137.001 352.848 137.001 352.614C137.001 352.38 133.851 345.61 130.001 337.569C126.151 329.528 123.001 322.702 123.001 322.4C123.001 321.123 37.6376 151.331 36.1426 149.636C33.8506 147.035 17.8846 134.782 17.4086 135.258C17.1936 135.472 20.1036 141.69 23.8736 149.074C27.6446 156.458 35.5526 171.949 41.4466 183.499C54.0656 208.228 70.2356 242.098 69.6846 242.649C69.4716 242.861 68.2186 240.89 66.8996 238.267C65.5796 235.645 64.1626 233.349 63.7506 233.166C63.3376 232.982 63.0006 232.374 63.0006 231.813C63.0006 230.398 57.1876 218.071 45.9236 195.603C37.2016 178.203 36.1326 176.524 33.9426 176.778C31.7126 177.037 31.6706 176.961 33.3566 175.728C35.0916 174.459 35.0466 174.137 32.3796 168.699C30.8416 165.564 29.0166 162.999 28.3236 162.999C27.6006 162.999 27.3146 162.344 27.6536 161.462C27.9776 160.616 27.5666 159.154 26.7406 158.212C25.9136 157.27 24.9056 155.374 24.5006 153.999C23.6806 151.213 15.0776 134.999 14.4196 134.999C14.1896 134.999 14.0006 141.386 14.0006 149.192ZM163.637 141.749C163.363 142.712 162.63 146.065 162.009 149.201C160.765 155.478 160.789 155.461 151.751 156.489C148.589 156.849 146.001 157.539 146.001 158.024C146.001 158.828 152.124 160.972 154.501 161C155.051 161.006 156.727 161.651 158.225 162.433L160.95 163.854L164.956 155.849L168.963 147.844L166.961 143.922C164.709 139.506 164.344 139.268 163.637 141.749ZM183.501 154.999C182.719 156.265 184.043 156.265 186.001 154.999C187.294 154.164 187.267 154.028 185.81 154.014C184.88 154.006 183.841 154.449 183.501 154.999ZM237.501 174.999C236.7 176.294 242.996 176.294 245.001 174.999C246.101 174.288 245.384 174.026 242.31 174.014C240.005 174.006 237.841 174.449 237.501 174.999ZM103.616 195.249C104.87 202.461 107.127 208.999 108.362 208.999C109.08 208.999 109.668 208.324 109.668 207.499C109.668 206.674 109.103 205.999 108.414 205.999C107.171 205.999 106.706 204.461 105.467 196.249C105.114 193.911 104.426 191.999 103.938 191.999C103.45 191.999 103.305 193.462 103.616 195.249ZM197.001 206.344C197.001 207.084 196.179 208.433 195.174 209.342C193.971 210.431 193.487 211.953 193.758 213.797C194.117 216.24 194.608 216.599 197.589 216.599C200.385 216.599 200.908 216.281 200.456 214.857C200.074 213.652 200.767 212.646 202.702 211.597L205.501 210.079L202.726 210.039C200.707 210.01 199.693 209.319 199.001 207.499C197.965 204.773 197.001 204.216 197.001 206.344ZM232.501 206.999C232.128 208.175 230.988 208.999 229.734 208.999C228.075 208.999 227.868 209.266 228.801 210.199C229.461 210.859 230.001 212.239 230.001 213.266C230.001 214.7 230.482 214.981 232.073 214.476C233.412 214.051 234.881 214.469 236.23 215.659C238.283 217.471 238.306 217.462 237.696 215.036C237.296 213.445 237.649 211.94 238.694 210.786C240.208 209.113 240.142 208.999 237.656 208.999C235.668 208.999 235.001 208.497 235.001 206.999C235.001 205.899 234.581 204.999 234.068 204.999C233.555 204.999 232.85 205.899 232.501 206.999ZM271.31 211.582C270.06 212.934 269.54 214.214 270.1 214.56C270.64 214.894 270.795 216.074 270.443 217.182C269.908 218.867 270.14 219.09 271.865 218.542C272.998 218.183 274.877 218.397 276.039 219.019C278.014 220.076 278.074 220.003 276.95 217.904C275.966 216.066 276.025 215.454 277.274 214.541C278.6 213.572 278.474 213.134 276.316 211.212C274.949 209.995 273.757 209.047 273.666 209.105C273.575 209.163 272.515 210.277 271.31 211.582ZM110.117 215.226C111.303 217.551 113.962 221.713 116.026 224.476C120.604 230.604 127.586 237.301 126.651 234.667C126.294 233.66 126.001 232.494 126.001 232.078C126.001 231.661 124.876 230.807 123.501 230.181C122.126 229.554 121.001 228.39 121.001 227.593C121.001 226.796 119.986 225.324 118.746 224.322C115.421 221.634 112.436 216.687 113.854 216.215C114.492 216.002 114.771 215.436 114.475 214.957C114.179 214.478 113.276 214.34 112.469 214.65C111.162 215.151 110.528 213.993 110.883 211.749C110.948 211.337 110.317 210.999 109.481 210.999C108.221 210.999 108.329 211.722 110.117 215.226ZM309.501 214.999C309.138 216.144 307.988 216.999 306.811 216.999C305.138 216.999 304.978 217.266 305.948 218.435C306.783 219.441 306.838 220.435 306.133 221.753C305.241 223.42 305.447 223.587 307.945 223.221C309.496 222.993 311.069 223.3 311.442 223.903C312.598 225.775 314.262 225.106 313.709 222.992C313.366 221.68 313.896 220.486 315.236 219.547C317.259 218.13 317.25 218.1 314.645 217.446C312.952 217.021 312.001 216.102 312.001 214.891C312.001 212.391 310.305 212.464 309.501 214.999ZM157.028 215.71C157.013 216.926 156.03 218.826 154.844 219.931C152.929 221.715 152.873 222.013 154.344 222.577C155.255 222.927 156.001 223.826 156.001 224.575C156.001 225.369 156.621 225.698 157.488 225.365C158.307 225.051 160.379 225.284 162.093 225.881L165.211 226.968L163.552 224.437C161.967 222.018 161.996 221.817 164.198 219.879L166.501 217.852L163.444 218.362C160.92 218.783 160.097 218.404 158.721 216.185C157.14 213.637 157.053 213.613 157.028 215.71ZM347.418 229.356C347.071 230.26 345.785 230.999 344.561 230.999C341.293 230.999 340.81 232.024 343.177 233.94C344.972 235.394 345.096 235.953 344.053 237.902C342.495 240.813 343.07 241.34 345.752 239.461C347.141 238.488 348.12 236.39 348.563 233.437C349.254 228.829 348.564 226.369 347.418 229.356ZM127.001 229.25C127.001 229.608 127.488 232.173 128.084 234.95C128.936 238.921 129.583 239.999 131.119 239.999C132.791 239.999 132.91 239.698 131.951 237.905C131.023 236.172 131.22 235.395 133.09 233.405L135.35 230.999H132.375C130.739 230.999 128.861 230.459 128.201 229.799C127.541 229.139 127.001 228.892 127.001 229.25ZM414.58 244.912C413.627 245.964 411.774 249.452 410.461 252.662L408.073 258.499L402.287 258.08C391.793 257.32 391.522 257.355 391.213 259.506C390.921 261.542 397.455 267.862 401.364 269.326C402.572 269.778 403.029 270.635 402.664 271.761C402.353 272.717 401.125 276.349 399.935 279.833C396.589 289.622 399.52 290.621 408.27 282.673L413.039 278.341L418.368 283.67C422.127 287.43 424.478 288.999 426.349 288.999C429.831 288.999 429.87 286.098 426.501 277.807C425.126 274.423 424.001 271.565 424.001 271.457C424.001 271.348 426.69 270.73 429.976 270.084C434.083 269.276 436.427 268.229 437.473 266.736C439.666 263.605 437.89 262.322 429.53 260.996C425.696 260.388 422.406 259.737 422.219 259.551C422.033 259.364 421.448 256.161 420.92 252.433C419.62 243.253 417.913 241.228 414.58 244.912ZM70.3136 245.249C75.0356 256.446 82.0046 270.614 85.1496 275.41C87.3456 278.759 88.9966 281.049 88.8186 280.499C88.0216 278.034 70.7486 243.999 70.2956 243.999C70.0156 243.999 70.0236 244.562 70.3136 245.249ZM414.731 249.178C413.87 251.005 412.384 254.464 411.428 256.865L409.691 261.23L401.739 260.537C396.626 260.091 394.003 260.193 394.392 260.822C394.725 261.361 397.473 263.445 400.499 265.454C403.525 267.463 406.001 269.41 406.001 269.781C406.001 270.153 404.827 273.529 403.392 277.285C401.957 281.041 401.045 284.376 401.366 284.698C401.687 285.019 404.031 283.53 406.574 281.39C409.118 279.25 411.801 277.069 412.537 276.544C413.515 275.845 415.277 276.99 419.081 280.794C421.944 283.657 424.641 285.999 425.074 285.999C425.507 285.999 424.553 282.414 422.954 278.032L420.046 270.064L424.023 269.032C438.454 265.285 438.294 265.584 426.891 263.675C418.728 262.308 418.31 261.802 418.085 252.999C417.919 246.505 416.664 245.076 414.731 249.178ZM224.501 255.29C221.17 257.171 220.451 258.138 220.202 261.075C219.697 267.047 222.278 268.436 234.638 268.841C247.541 269.264 250.001 268.157 250.001 261.928C250.001 258.86 249.372 257.32 247.355 255.451C244.995 253.264 243.833 253.001 236.605 253.015C230.059 253.029 227.732 253.466 224.501 255.29ZM48.0006 264.926V271.854L42.5626 274.426C39.5716 275.841 36.6466 276.999 36.0626 276.999C35.4786 276.999 35.0006 277.449 35.0006 277.999C35.0006 278.555 37.6676 278.999 41.0006 278.999C48.0396 278.999 48.6496 280.29 44.5006 286.404C40.3286 292.552 41.2136 293.327 48.4096 289.831L52.8716 287.663L56.5626 290.581C63.9776 296.444 65.1046 297.228 65.5196 296.813C65.7516 296.581 65.5646 294.005 65.1036 291.089L64.2656 285.786L67.6336 284.379C69.4856 283.605 71.0006 282.393 71.0006 281.686C71.0006 279.711 68.8456 277.999 66.3596 277.999C63.3336 277.999 62.4576 276.257 64.4026 274.107C67.4756 270.711 65.4406 266.464 61.5006 268.052C57.9856 269.469 57.3536 269.103 53.6316 263.499C51.6236 260.474 49.5346 257.999 48.9906 257.999C48.4326 257.999 48.0006 261.022 48.0006 264.926ZM196.201 259.199C194.891 260.509 194.659 262.943 195.608 265.417C196.334 267.31 202.025 267.575 203.801 265.799C204.461 265.139 205.001 263.654 205.001 262.499C205.001 259.669 203.145 257.999 200.001 257.999C198.571 257.999 196.861 258.539 196.201 259.199ZM270.251 259.288C267.602 260.485 267.257 264.112 269.572 266.428C272.743 269.598 277.377 267.13 276.837 262.558C276.443 259.227 273.558 257.794 270.251 259.288ZM294.636 261.072C292.748 262.556 292.001 264.072 292.001 266.417C292.001 271.641 294.39 272.96 305.623 273.934C314.867 274.736 315.645 274.658 317.751 272.721C320.492 270.199 320.753 264.983 318.251 262.742C316.359 261.047 306.893 258.999 300.952 258.999C298.742 258.999 296.218 259.827 294.636 261.072ZM197.71 260.623C197.32 261.013 197.001 262.157 197.001 263.166C197.001 264.545 197.761 264.999 200.071 264.999C202.682 264.999 203.092 264.663 202.821 262.749C202.505 260.528 199.186 259.147 197.71 260.623ZM271.251 260.717C269.274 261.426 269.797 264.799 271.992 265.496C274.359 266.247 276.001 265.42 276.001 263.475C276.001 261.808 273.026 260.081 271.251 260.717ZM159.112 264.031C150.496 265.283 146.182 272.18 151.001 276.999C153.281 279.279 153.922 279.329 163.501 277.957C172.896 276.612 173.308 276.442 175.285 273.096C180.215 264.75 174.852 261.745 159.112 264.031ZM343.719 275.249C343.073 277.052 344.821 279.999 346.536 279.999C347.497 279.999 348.001 278.967 348.001 276.999C348.001 274.709 347.547 273.999 346.084 273.999C345.03 273.999 343.966 274.562 343.719 275.249ZM129.001 277.499C129.001 279.481 129.44 280.061 130.751 279.809C131.714 279.623 132.501 278.584 132.501 277.499C132.501 276.414 131.714 275.375 130.751 275.189C129.44 274.937 129.001 275.517 129.001 277.499ZM90.0726 283.63C90.0326 284.251 92.7136 290.482 96.0286 297.476C99.3436 304.47 103.218 312.961 104.637 316.346C108.497 325.551 118.227 345.107 118.707 344.626C118.938 344.395 117.384 340.672 115.254 336.352C113.123 332.033 109.832 324.74 107.94 320.146C103.555 309.495 90.1676 282.137 90.0726 283.63ZM245.862 297.966L243.501 299.932L245.751 299.966C248.215 300.002 248.617 300.983 246.879 302.721C245.525 304.075 243.001 303.286 243.001 301.509C243.001 300.143 238.45 298.889 236.378 299.685C235.69 299.949 235.355 300.757 235.632 301.481C235.91 302.204 235.704 303.065 235.174 303.392C234.644 303.72 233.953 303.315 233.637 302.493C233.322 301.671 232.327 300.999 231.425 300.999C230.38 300.999 229.995 300.456 230.363 299.499C230.738 298.522 230.339 298.004 229.22 298.014C226.67 298.037 224.533 299.592 225.894 300.433C226.503 300.809 227.001 301.61 227.001 302.213C227.001 302.816 226.101 302.494 225.001 301.499C223.901 300.504 223.001 299.084 223.001 298.344C223.001 297.604 222.613 296.999 222.14 296.999C221.666 296.999 221.425 298.237 221.604 299.749C221.783 301.261 221.687 301.711 221.392 300.749C221.096 299.787 220.46 298.999 219.977 298.999C219.495 298.999 218.642 299.787 218.081 300.749C217.515 301.72 217.048 301.943 217.031 301.249C217.013 300.493 215.618 299.999 213.501 299.999C211.376 299.999 209.995 299.508 209.986 298.749C209.975 297.864 209.71 297.911 209.078 298.908C208.588 299.683 208.443 300.987 208.757 301.806C209.216 303.002 208.755 303.157 206.415 302.593C201.894 301.505 197.962 301.895 196.257 303.6C195.402 304.455 193.818 304.923 192.737 304.64C190.106 303.952 187.016 306.003 186.938 308.49C186.882 310.261 186.761 310.216 185.916 308.104C184.931 305.642 184.014 305.708 183.638 308.267C183.521 309.065 182.655 310.488 181.713 311.43C180.097 313.046 179.995 312.984 179.901 310.32L179.802 307.499L179.001 309.999C178.503 311.555 178.163 311.861 178.101 310.808C177.949 308.233 176.085 307.613 174.045 309.459C173.039 310.369 170.93 311.524 169.358 312.024C166.677 312.877 166.655 312.925 169.001 312.817C170.376 312.754 172.176 312.974 173.001 313.306C173.826 313.638 177.426 314.138 181.001 314.417C184.576 314.696 193.78 315.629 201.455 316.491C218.88 318.449 260.641 318.408 276.501 316.418C282.551 315.659 290.411 314.756 293.969 314.412C298.194 314.003 300.882 313.216 301.721 312.142C302.885 310.653 302.953 310.651 302.445 312.121C301.873 313.778 302.951 313.816 309.883 312.386L312.266 311.894L310.175 309.947C309.025 308.875 307.152 307.999 306.011 307.999C304.871 307.999 303.722 307.437 303.458 306.749C302.738 304.877 297.77 304.942 296.326 306.842C295.279 308.219 295.221 307.935 295.988 305.164C296.78 302.3 296.705 302 295.455 303.037C294.284 304.009 294.001 303.928 294.001 302.621C294.001 301.729 293.551 300.999 293.001 300.999C292.451 300.999 292.001 301.654 292.001 302.454C292.001 304.035 285.861 305.649 284.066 304.539C283.48 304.177 282.994 304.47 282.986 305.19C282.975 306.143 282.703 306.091 281.986 304.999C281.11 303.666 280.892 303.666 280.016 304.999C279.173 306.283 279.029 306.247 279.016 304.749C278.998 302.712 277.902 302.498 276.201 304.199C275.268 305.132 274.975 304.855 274.885 302.949C274.805 301.254 274.628 301.038 274.312 302.249C273.693 304.615 272.001 304.476 272.001 302.058C272.001 300.99 271.551 299.839 271.001 299.499C270.434 299.148 270.001 299.989 270.001 301.44C270.001 303.048 269.444 303.999 268.501 303.999C266.714 303.999 266.651 303.521 268.087 300.839C269.069 299.003 268.95 298.883 266.837 299.576C265.552 299.997 263.305 300.26 261.842 300.161C259.636 300.012 259.273 300.323 259.709 301.99C260.354 304.458 259.681 304.536 257.404 302.259C255.75 300.605 255.698 300.668 256.363 303.509C256.747 305.153 256.711 305.996 256.281 305.382C255.852 304.768 254.426 304.318 253.113 304.382C251.707 304.451 250.615 303.882 250.459 302.999C250.313 302.174 249.878 300.711 249.491 299.749C249.074 298.713 249.238 297.999 249.894 297.999C250.503 297.999 251.001 297.549 251.001 296.999C251.001 295.366 248.393 295.857 245.862 297.966ZM260.001 297.999C260.001 298.549 260.478 298.999 261.06 298.999C261.642 298.999 261.841 298.549 261.501 297.999C261.161 297.449 260.685 296.999 260.442 296.999C260.199 296.999 260.001 297.449 260.001 297.999ZM240.001 301.999C240.001 302.549 240.478 302.999 241.06 302.999C241.642 302.999 241.841 302.549 241.501 301.999C241.161 301.449 240.685 300.999 240.442 300.999C240.199 300.999 240.001 301.449 240.001 301.999ZM285.251 301.688C286.213 301.94 287.789 301.94 288.751 301.688C289.713 301.437 288.926 301.231 287.001 301.231C285.076 301.231 284.289 301.437 285.251 301.688ZM230.001 304.44C230.001 307.504 230.571 307.752 231.29 305C231.578 303.901 231.405 302.749 230.907 302.441C230.409 302.133 230.001 303.033 230.001 304.44ZM192.001 307.558C192.001 308.415 192.451 308.839 193.001 308.499C193.551 308.159 194.001 307.458 194.001 306.94C194.001 306.422 193.551 305.999 193.001 305.999C192.451 305.999 192.001 306.701 192.001 307.558ZM304.001 309.892C304.001 310.383 304.653 311.035 305.45 311.341C306.419 311.713 306.715 311.417 306.343 310.448C305.736 308.866 304.001 308.454 304.001 309.892ZM173.46 311.066C173.097 311.652 173.071 312.402 173.401 312.732C173.731 313.062 174.008 312.695 174.016 311.916C174.029 310.749 174.203 310.764 175.001 311.999C175.829 313.281 175.973 313.245 175.986 311.749C176.003 309.812 174.488 309.402 173.46 311.066ZM185.814 312.682C186.535 312.971 187.398 312.935 187.73 312.603C188.062 312.271 187.472 312.035 186.418 312.078C185.253 312.126 185.016 312.363 185.814 312.682ZM120.565 349.292C120.941 350.278 121.5 350.833 121.808 350.525C122.116 350.218 121.809 349.411 121.125 348.732C120.137 347.752 120.023 347.867 120.565 349.292ZM213.08 353.582C213.128 354.747 213.365 354.984 213.684 354.187C213.973 353.465 213.937 352.602 213.605 352.27C213.273 351.938 213.037 352.528 213.08 353.582ZM425.211 404.869C423.961 405.642 420.057 413.83 420.023 415.749C419.971 418.708 421.943 416.602 423.638 411.888C425.256 407.388 425.556 407.059 426.139 409.138C426.503 410.436 426.846 412.9 426.901 414.613C426.988 417.326 427.553 417.938 431.284 419.363C433.64 420.263 436.089 420.999 436.725 420.999C437.362 420.999 438.141 421.416 438.455 421.925C438.77 422.435 436.518 423.373 433.451 424.009C430.383 424.646 427.735 425.692 427.565 426.333C423.389 442.129 422.176 442.704 420.486 429.691C420.142 427.046 419.33 424.721 418.681 424.524C418.032 424.327 415.339 423.383 412.696 422.426C407.333 420.483 407.966 419.04 414.192 419.014C416.222 419.006 418.161 418.549 418.501 417.999C419.332 416.654 409.458 416.684 406.935 418.034C402.974 420.154 405.637 423.198 413.492 425.529C417.171 426.622 417.539 427.057 418.205 431.107C419.944 441.681 420.054 441.999 421.974 441.999C424.823 441.999 427.738 437.544 428.496 432.032L429.174 427.104L434.599 425.89C443.926 423.802 444.549 419.926 435.857 418.062C432.952 417.439 430.228 416.382 429.804 415.714C429.379 415.046 429.025 412.41 429.016 409.856C429.001 405.235 427.597 403.395 425.211 404.869ZM52.5446 433.24C51.5616 434.644 51.0006 437.665 51.0006 441.559V447.674L45.4536 449.56C42.4026 450.597 39.1706 452.259 38.2706 453.253C36.7576 454.926 36.7566 455.184 38.2666 456.694C39.2286 457.655 42.1796 458.515 45.4496 458.786L51.0006 459.247V466.623C51.0006 472.817 51.2656 473.999 52.6546 473.999C54.6246 473.999 62.0006 466.286 62.0006 464.226C62.0006 463.256 62.5736 463.012 63.7506 463.478C67.3336 464.896 75.9596 466.373 76.6466 465.686C77.4796 464.853 74.9656 459.667 71.8546 455.797L69.6816 453.095L73.3406 449.044C77.3836 444.569 77.8886 442.501 75.2506 441.218C73.1996 440.22 72.7736 440.253 67.5006 441.808C65.3006 442.457 63.2396 442.99 62.9216 442.993C62.6026 442.996 61.3286 440.834 60.0896 438.188C57.1246 431.858 54.6496 430.235 52.5446 433.24ZM53.7026 434.631C53.3166 435.017 53.0006 437.871 53.0006 440.975C53.0006 447.793 52.0346 449.171 45.2506 452.032C42.3626 453.249 40.0006 454.619 40.0006 455.076C40.0006 455.534 43.0026 456.041 46.6716 456.203L53.3436 456.499L53.0986 463.932C52.8716 470.843 52.9746 471.266 54.5636 469.947C55.5036 469.167 57.3416 466.834 58.6496 464.764C61.2906 460.58 62.6966 460.275 69.0306 462.51C71.3856 463.341 73.4956 463.837 73.7196 463.613C73.9436 463.389 72.2916 460.797 70.0496 457.853L65.9726 452.499L70.0016 448.999C75.1836 444.498 75.2646 442.903 70.2506 444.118C60.6446 446.444 61.6106 446.76 57.8476 440.06C55.9536 436.688 54.0876 434.245 53.7026 434.631ZM169.26 442.059C163.893 444.841 158.916 447.692 158.202 448.394C157.329 449.25 157 451.818 157.202 456.211L157.501 462.753L173.71 454.168C182.625 449.446 189.751 445.415 189.545 445.21C189.34 445.005 188.234 445.339 187.087 445.953C185.741 446.673 185.001 446.709 185.001 446.054C185.001 444.781 180.196 445.289 177.23 446.876C174.598 448.285 174.243 447.273 176.732 445.454C178.247 444.346 178.091 444.239 175.482 444.598C173.842 444.824 173.03 444.755 173.677 444.445C175.014 443.805 180.392 436.999 179.561 436.999C179.263 436.999 174.627 439.276 169.26 442.059ZM174.251 455.753C159.378 463.187 157.001 464.693 157.001 466.687C157.001 467.959 157.241 468.999 157.534 468.999C157.827 468.999 165.986 464.949 175.665 459.999C185.344 455.049 193.879 450.999 194.632 450.999C196.638 450.999 196.301 449.23 194.067 448.034C193.003 447.465 191.99 447.029 191.817 447.065C191.643 447.101 183.739 451.011 174.251 455.753ZM245.001 469.7C242.526 469.893 237.702 470.732 234.281 471.564C227.658 473.175 202.571 473.503 203.521 471.966C206.058 467.862 192.659 473.862 168.243 487.766C160.95 491.918 155.145 495.476 155.341 495.672C155.538 495.869 159.704 493.814 164.6 491.106C171.032 487.548 173.848 486.468 174.751 487.213C177.19 489.225 175.901 490.881 167.501 496.528C162.826 499.671 159.001 502.357 159.001 502.497C159.001 503.304 168.012 499.337 168.063 498.507C168.15 497.102 183.694 485.98 188.241 484.07C190.298 483.206 191.985 482.224 191.991 481.888C192.014 480.484 186.216 482.48 182.554 485.136C178.297 488.224 175.875 488.982 178.43 486.428C179.294 485.563 180.001 484.412 180.001 483.869C180.001 483.325 180.475 483.174 181.054 483.532C181.633 483.89 182.871 483.352 183.804 482.337C185.934 480.02 192.572 476.903 193.468 477.799C194.37 478.701 200.001 478.945 200.001 478.082C200.001 477.706 199.5 476.898 198.888 476.286C198.276 475.674 198.104 474.641 198.506 473.991C198.996 473.198 199.854 473.746 201.112 475.654C202.144 477.219 202.991 478.788 202.994 479.141C202.998 479.494 200.864 480.265 198.251 480.856C193.879 481.843 194.151 481.89 201.673 481.447C206.168 481.182 211.737 480.298 214.049 479.482C219.557 477.539 221.753 477.61 222.312 479.749C222.663 481.093 222.796 480.988 222.885 479.296C222.972 477.645 223.93 476.836 226.707 476.07C229.479 475.304 230.609 475.355 231.191 476.273C231.746 477.147 231.975 477.029 231.986 475.863C231.997 474.674 233.302 474.042 236.751 473.556C248.448 471.905 254.001 470.727 254.001 469.896C254.001 469.403 252.989 469.078 251.751 469.174C250.513 469.27 247.476 469.506 245.001 469.7ZM204.016 476.249C204.061 479.919 205.56 480.323 212.67 478.58C223.529 475.919 223.674 475.032 213.251 475.014C206.501 475.003 204.005 475.337 204.016 476.249ZM187.016 487.69C187.025 488.135 187.468 489.174 188.001 489.999C188.836 491.292 188.972 491.265 188.986 489.808C188.994 488.878 188.551 487.839 188.001 487.499C187.451 487.159 187.008 487.245 187.016 487.69ZM172.345 501.287C175.83 504.574 177.856 510.328 176.642 513.491C176.324 514.321 176.5 514.999 177.032 514.999C178.473 514.999 178.204 508.42 176.607 504.598C175.84 502.762 174.165 500.527 172.884 499.63C168.965 496.884 168.662 497.814 172.345 501.287ZM151.883 507.881C149.748 510.017 148.001 512.717 148.001 513.881C148.001 515.355 147.373 515.999 145.935 515.999C141.826 515.999 140.001 517.836 140.001 521.975C140.001 524.123 140.408 526.133 140.906 526.44C141.42 526.758 141.581 525.286 141.279 523.036C140.799 519.453 141.011 518.952 143.484 517.825C145.831 516.755 146.398 516.821 147.471 518.289C149.251 520.724 151.393 520.6 149.863 518.15C148.157 515.419 149.548 511.535 153.664 507.538C155.668 505.592 156.961 503.999 156.537 503.999C156.113 503.999 154.019 505.746 151.883 507.881ZM115.442 509.554C113.578 511.048 113.59 511.066 115.751 510.019C116.988 509.419 118.001 508.719 118.001 508.464C118.001 507.699 117.482 507.92 115.442 509.554ZM116.106 512.084C114.788 512.611 113.961 513.293 114.267 513.599C114.574 513.905 116.101 513.463 117.663 512.617C120.804 510.915 119.847 510.587 116.106 512.084ZM203.336 513.445C203.427 513.965 200.912 515.942 197.747 517.838C193.198 520.563 192.227 521.566 193.109 522.629C193.723 523.368 193.966 524.649 193.649 525.474C193.332 526.3 193.563 526.868 194.161 526.737C195.063 526.54 199.88 534.252 199.973 536.042C199.988 536.341 194.489 537.413 187.751 538.423C181.013 539.434 174.826 540.682 174.001 541.196C172.984 541.831 173.628 541.94 176.001 541.535C193.123 538.612 200.213 538.061 203.426 539.403C207.977 541.305 211.788 545.67 213.549 550.999L215.036 555.499L214.575 551.708C213.96 546.657 210.577 541.392 206.13 538.563C203.68 537.005 201.249 533.918 198.647 529.064C196.527 525.11 194.952 521.762 195.147 521.625C195.342 521.487 197.808 519.718 200.628 517.692C205.669 514.071 205.92 514.008 215.628 513.898C231.327 513.721 232.109 513.787 233.93 515.435C234.881 516.295 236.134 516.999 236.715 516.999C237.297 516.999 239.061 517.671 240.637 518.493C243.775 520.13 247.401 520.322 250.501 519.016C251.964 518.399 251.236 518.183 247.792 518.212C244.498 518.239 241.491 517.407 237.792 515.445C232.712 512.75 231.917 512.635 217.836 512.569C209.128 512.527 203.238 512.883 203.336 513.445ZM419.711 514.999C419.999 516.099 420.632 516.999 421.118 516.999C421.603 516.999 422.001 516.099 422.001 514.999C422.001 513.899 421.368 512.999 420.595 512.999C419.681 512.999 419.371 513.699 419.711 514.999ZM171.522 517.966C170.168 520.156 160.43 524.151 157.328 523.789C155.575 523.584 154.361 523.773 154.63 524.208C155.662 525.877 161.299 524.877 166.957 522.021C172.59 519.178 175.263 516.999 173.119 516.999C172.569 516.999 171.85 517.434 171.522 517.966ZM237.339 519.999C238.304 523.904 241.353 532.61 242.079 533.536C242.527 534.107 244.741 538.157 247 542.536C249.26 546.916 250.813 549.374 250.452 547.999C250.091 546.624 247.817 541.736 245.398 537.136C242.98 532.537 240.989 528.262 240.975 527.636C240.96 527.011 240.053 524.699 238.958 522.499C237.864 520.299 237.135 519.174 237.339 519.999ZM149.001 521.617C149.001 522.167 149.662 523.49 150.469 524.558C151.277 525.625 151.937 526.049 151.937 525.499C151.937 524.949 151.277 523.625 150.469 522.558C149.662 521.49 149.001 521.067 149.001 521.617ZM422.001 523.44C422.001 524.783 422.419 526.139 422.929 526.455C424.057 527.152 425.38 523.422 424.507 522.008C423.373 520.174 422.001 520.959 422.001 523.44ZM188.501 522.999C188.161 523.549 188.333 523.999 188.883 523.999C189.433 523.999 190.161 523.549 190.501 522.999C190.841 522.449 190.669 521.999 190.119 521.999C189.569 521.999 188.841 522.449 188.501 522.999ZM387.001 527.662C387.001 528.246 387.941 532.499 389.09 537.112C390.239 541.725 391.805 549.052 392.569 553.395C393.962 561.311 395.001 564.208 395.001 560.178C395.001 556.676 388.893 528.584 387.907 527.549C387.338 526.952 387.001 526.994 387.001 527.662ZM423.001 533.96C423.001 536.877 423.384 538.04 424.251 537.755C426.12 537.142 426.327 532.514 424.552 531.041C423.193 529.913 423.001 530.274 423.001 533.96ZM92.8136 533.682C93.5346 533.971 94.3976 533.935 94.7296 533.603C95.0616 533.271 94.4716 533.035 93.4176 533.078C92.2526 533.126 92.0156 533.363 92.8136 533.682ZM85.7506 534.661C86.4386 534.939 87.5636 534.939 88.2506 534.661C88.9386 534.384 88.3756 534.157 87.0006 534.157C85.6256 534.157 85.0636 534.384 85.7506 534.661ZM136.817 536.707C136.55 538.991 135.798 539.595 132.001 540.571C128.369 541.504 127.887 541.865 129.501 542.444C130.601 542.839 132.575 543.593 133.887 544.121L136.273 545.08L134.137 547.354C131.309 550.365 131.42 550.657 135.251 550.263C138.117 549.968 138.787 550.4 140.922 553.917C143.813 558.679 145.452 558.221 144.6 552.89L143.983 549.032L148.742 547.833L153.501 546.633L149.048 544.69C144.18 542.565 144.152 542.679 150.632 538.21C152.238 537.103 151.785 536.988 147.416 537.394C143.256 537.78 142.03 537.514 140.676 535.932C138.396 533.269 137.191 533.511 136.817 536.707ZM380.814 534.682C381.535 534.971 382.398 534.935 382.73 534.603C383.062 534.271 382.472 534.035 381.418 534.078C380.253 534.126 380.016 534.363 380.814 534.682ZM152.684 539.376L149.867 541.681L152.287 543.267C154.629 544.801 154.822 544.725 158.211 540.926L161.715 536.999L158.608 537.035C156.89 537.055 154.242 538.101 152.684 539.376ZM230.56 541.531C229.492 542.338 229.1 542.999 229.687 542.999C230.275 542.999 231.316 542.324 232.001 541.499C233.558 539.623 233.068 539.633 230.56 541.531ZM423.479 544.749C424.293 549.105 424.501 549.426 425.934 548.54C427.372 547.652 427.288 543.686 425.801 542.199C423.61 540.008 422.766 540.935 423.479 544.749ZM205.546 544.454C207.559 546.466 208.001 547.901 208.001 552.418C208.001 558.637 208.161 558.483 198.21 561.878C191.056 564.319 188.991 563.814 186.511 559.019C184.409 554.953 184.624 552.058 187.251 549.063L189.501 546.499L186.751 548.923C185.209 550.282 184.001 552.387 184.001 553.713C184.001 557.604 187.655 563.695 190.403 564.385C193.284 565.108 205.082 561.14 208.058 558.447C211.297 555.516 210.178 546.376 206.212 543.362C203.347 541.186 202.942 541.849 205.546 544.454ZM417.196 552.499C417.216 554.149 417.44 554.703 417.694 553.73C417.948 552.757 417.931 551.407 417.657 550.73C417.383 550.053 417.176 550.849 417.196 552.499ZM424.605 556.104C425.426 561.454 425.55 561.618 427.525 559.979C429.633 558.23 429.021 555.072 426.216 553.218L423.931 551.709L424.605 556.104ZM218.751 556.037C215.344 557.42 213.99 557.617 213.961 556.732C213.939 556.054 213.208 556.849 212.336 558.499C211.464 560.149 210.062 562.287 209.221 563.249C208.379 564.211 208.126 564.999 208.658 564.999C209.19 564.999 210.54 563.762 211.659 562.249C212.836 560.659 215.868 558.718 218.847 557.649C221.682 556.631 224.001 555.393 224.001 554.899C224.001 553.811 224.497 553.704 218.751 556.037ZM252.032 554.499C252.032 555.049 252.468 556.174 253.001 556.999C253.534 557.824 253.97 558.049 253.97 557.499C253.97 556.949 253.534 555.824 253.001 554.999C252.468 554.174 252.032 553.949 252.032 554.499ZM418.287 561.499C418.295 564.249 418.489 565.255 418.719 563.735C418.948 562.215 418.942 559.965 418.705 558.735C418.468 557.505 418.28 558.749 418.287 561.499ZM238.228 560.249C240.453 563.686 241.111 567.562 239.997 570.68C239.057 573.309 239.091 573.368 240.495 571.558C241.323 570.49 241.999 568.465 241.997 567.058C241.994 564.566 238.661 557.999 237.401 557.999C237.054 557.999 237.427 559.012 238.228 560.249ZM425.834 568.046C426.068 570.496 426.67 571.945 427.361 571.718C428.99 571.182 429.372 567.151 427.955 565.444C425.99 563.076 425.426 563.768 425.834 568.046ZM215.346 567.542C215.02 568.391 214.977 569.309 215.25 569.582C215.524 569.855 215.987 569.16 216.28 568.039C216.904 565.656 216.211 565.288 215.346 567.542ZM419.196 570.499C419.216 572.149 419.44 572.703 419.694 571.73C419.948 570.757 419.931 569.407 419.657 568.73C419.383 568.053 419.176 568.849 419.196 570.499ZM216.005 573.103C215.999 575.353 220.543 580.006 222.703 579.964C223.692 579.944 225.611 579.313 226.969 578.562C229.275 577.285 229.132 577.23 224.779 577.721C220.337 578.221 220.026 578.089 218.065 574.872C216.909 572.975 216.007 572.201 216.005 573.103ZM427.184 578.643C427.359 580.764 427.951 582.387 428.501 582.249C429.989 581.877 429.712 575.736 428.184 575.227C427.214 574.903 426.951 575.802 427.184 578.643ZM244.932 580.639C247.228 583.557 247.645 587.955 245.801 589.799C244.868 590.732 244.872 590.999 245.822 590.999C246.494 590.999 247.556 589.875 248.182 588.502C249.109 586.467 248.973 585.362 247.446 582.527C246.416 580.614 244.963 578.815 244.218 578.529C243.438 578.229 243.74 579.123 244.932 580.639ZM270.001 579.577C270.001 580.34 276.205 588.999 276.752 588.999C276.979 588.999 276.233 587.493 275.096 585.652C273.958 583.812 273.226 582.107 273.469 581.865C273.711 581.622 273.031 580.874 271.956 580.203C270.881 579.531 270.001 579.25 270.001 579.577ZM234.56 581.531C233.492 582.338 233.1 582.999 233.687 582.999C234.275 582.999 235.316 582.324 236.001 581.499C237.558 579.623 237.068 579.633 234.56 581.531ZM229.251 583.661C227.872 584.218 227.508 591.576 228.82 592.387C229.271 592.666 229.442 591.549 229.201 589.907C228.914 587.956 229.378 586.24 230.537 584.96C232.257 583.058 231.826 582.622 229.251 583.661ZM428.001 590.213C428.001 594.108 428.124 594.304 429.631 592.798C430.732 591.696 431.05 590.331 430.612 588.584C429.599 584.55 428.001 585.547 428.001 590.213ZM240.862 594.055C238.625 596.004 238.616 596.056 240.695 595.05C241.902 594.466 243.166 593.541 243.504 592.994C244.487 591.403 243.41 591.836 240.862 594.055ZM247.873 594.749C246.63 596.335 246.665 596.37 248.251 595.127C249.214 594.372 250.001 593.584 250.001 593.377C250.001 592.554 249.18 593.083 247.873 594.749ZM234.501 596.999C232.573 597.828 232.58 597.861 234.692 597.929C235.897 597.967 237.161 597.549 237.501 596.999C238.232 595.816 237.253 595.816 234.501 596.999ZM428.001 600.999C428.001 605.203 429.43 606.374 430.489 603.037C431.05 601.268 429.62 596.999 428.466 596.999C428.21 596.999 428.001 598.799 428.001 600.999ZM254.183 603.518C242.933 608.405 238.269 618.525 242.549 628.767C246.674 638.64 258.597 643.737 268.686 639.939C273.669 638.064 278.756 632.189 280.043 626.823C282.049 618.461 278.161 607.897 271.606 603.9C267.838 601.602 259.038 601.41 254.183 603.518ZM386.251 605.688C387.213 605.94 388.789 605.94 389.751 605.688C390.713 605.437 389.926 605.231 388.001 605.231C386.076 605.231 385.289 605.437 386.251 605.688ZM267.971 610.943C269.045 612.95 271.001 614.596 271.001 613.492C271.001 612.118 268.869 608.999 267.931 608.999C267.278 608.999 267.292 609.674 267.971 610.943ZM428.001 611.999C428.001 613.649 428.421 614.999 428.934 614.999C430.149 614.999 431.311 611.31 430.507 610.008C429.283 608.029 428.001 609.048 428.001 611.999ZM272.392 612.699C273.277 614.46 274.001 617.524 274.001 619.508C274.001 621.493 274.394 622.874 274.875 622.577C276.176 621.773 274.238 612.795 272.38 611.023C270.928 609.636 270.929 609.787 272.392 612.699ZM276.002 613.469C276.616 615.103 277.136 618.681 277.158 621.421C277.188 625.34 277.413 626.014 278.215 624.581C279.63 622.053 278.572 614.137 276.555 612.146C274.999 610.61 274.961 610.7 276.002 613.469ZM303.001 630.499C304.293 631.874 305.575 632.999 305.85 632.999C306.125 632.999 305.293 631.874 304.001 630.499C302.709 629.124 301.427 627.999 301.152 627.999C300.877 627.999 301.709 629.124 303.001 630.499ZM238.168 638.298C237.529 639.068 236.586 641.903 236.073 644.598C235.559 647.294 234.811 650.348 234.411 651.385C233.884 652.749 234.065 653.144 235.064 652.811C235.824 652.558 237.085 649.731 237.867 646.53L239.287 640.71L241.455 646.104L243.624 651.499L249.56 652.331C252.826 652.788 255.69 653.355 255.926 653.591C256.711 654.375 252.552 656.952 248.795 658.009C245.354 658.978 244.969 659.48 243.406 665.053C240.865 674.108 240.263 673.938 238.221 663.592C237.797 661.443 236.696 659.209 235.774 658.627C233.579 657.243 232.196 658.653 234.171 660.259C235.01 660.941 236.226 663.974 236.873 666.999C237.521 670.024 238.476 673.174 238.997 673.999C240.628 676.582 243.211 673.855 245.439 667.199C247.383 661.392 247.816 660.88 253.001 658.263C256.9 656.294 258.501 654.906 258.501 653.493C258.501 651.812 257.483 651.337 252.022 650.471L245.542 649.442L243.711 644.471C241.378 638.139 239.778 636.358 238.168 638.298ZM432.616 640.464C431.728 641.819 431.001 643.416 431.001 644.012C431.001 644.608 429.539 645.731 427.751 646.508C424.524 647.911 424.52 647.921 427.194 647.96C429.149 647.988 430.374 647.177 431.66 644.999C433.967 641.093 434.763 641.216 435.586 645.602C436.108 648.383 436.974 649.507 439.382 650.525L442.501 651.844L439.501 652.921C434.898 654.573 433.763 655.409 432.88 657.797C431.871 660.523 433.528 660.751 434.956 658.083C435.52 657.028 438.236 655.417 440.991 654.502C443.747 653.587 446.001 652.434 446.001 651.939C446.001 651.444 444.306 650.175 442.235 649.118C439.147 647.543 438.247 646.369 437.239 642.598C435.842 637.376 434.919 636.95 432.616 640.464ZM370.001 644.917C370.001 649.463 369.735 650 366.488 652.007C361.649 654.998 360.342 657.589 363.275 658.375C364.499 658.703 366.454 658.978 367.619 658.985C369.339 658.996 369.841 659.768 370.285 663.082C371.015 668.519 371.676 668.94 374.306 665.641L376.523 662.861L378.868 665.358C382.189 668.892 384.155 667.815 383.368 662.894C382.755 659.058 382.793 658.999 385.905 658.999C390.3 658.999 391.065 656.422 387.51 653.588C385.122 651.684 384.891 651.073 385.866 649.251C387.444 646.303 387.307 641.999 385.636 641.999C384.885 641.999 383.127 642.899 381.728 643.999C378.331 646.671 377.322 646.534 374.348 642.999C372.959 641.349 371.413 639.999 370.912 639.999C370.411 639.999 370.001 642.212 370.001 644.917ZM64.9786 644.749C64.9676 645.162 64.3656 649.437 63.6416 654.249C62.9176 659.062 62.6526 662.999 63.0516 662.999C63.4516 662.999 64.0686 661.312 64.4236 659.249C64.7786 657.187 65.3426 654.149 65.6766 652.499L66.2836 649.499L67.5746 653.204C68.2836 655.241 69.1716 658.954 69.5456 661.454L70.2276 665.999H66.1856C62.0836 665.999 59.0006 664.063 59.0006 661.487C59.0006 660.733 59.4086 659.865 59.9066 659.557C61.0836 658.83 60.1306 654.975 58.2296 652.776C57.2506 651.645 56.9476 650.014 57.3456 648.026C58.0236 644.634 56.6216 643.97 55.0356 646.933C53.4336 649.927 53.8066 653.514 55.9196 655.426C57.5096 656.865 57.6656 657.661 56.8286 660.062L55.8186 662.96L50.3946 658.542C45.0836 654.216 41.3696 652.296 40.3276 653.339C40.0396 653.626 42.3286 658.028 45.4136 663.12C48.4976 668.212 50.6716 672.728 50.2436 673.156C48.6896 674.71 45.2586 672.763 43.6646 669.421C42.2796 666.516 41.5196 665.999 38.6336 665.999C36.0746 665.999 35.1046 665.504 34.7106 663.999C33.9306 661.015 32.0006 661.584 32.0006 664.799C32.0006 668.603 33.6816 669.999 38.2596 669.999C40.3816 669.999 41.8736 670.396 41.5736 670.881C41.2736 671.367 41.9726 672.966 43.1286 674.434C44.2836 675.903 45.0646 677.218 44.8646 677.358C43.9876 677.968 34.2266 680.077 33.4076 679.834C31.9146 679.389 26.0006 681.818 26.0006 682.876C26.0006 683.901 33.7726 686.421 42.7506 688.308C45.6386 688.915 48.0006 689.956 48.0006 690.622C48.0006 692.45 45.8406 692.797 43.1526 691.403C40.0766 689.807 38.2956 690.528 36.4376 694.12C35.3036 696.313 34.2406 696.999 31.9746 696.999C28.7906 696.999 27.9796 698.393 30.5826 699.392C34.9116 701.053 39.0006 699.337 39.0006 695.858C39.0006 693.591 40.8706 692.469 42.2876 693.886C42.8996 694.498 44.4356 694.999 45.7006 694.999C46.9656 694.999 48.0006 695.291 48.0006 695.649C48.0006 696.006 46.2006 699.421 44.0006 703.237C41.8006 707.053 40.0006 710.53 40.0006 710.964C40.0006 711.399 40.7886 712.357 41.7506 713.094C42.7126 713.83 43.1786 714.051 42.7846 713.583C41.7816 712.393 46.7236 708.71 48.1456 709.589C48.8206 710.006 49.0416 709.875 48.6726 709.277C48.3226 708.711 49.9406 706.955 52.2686 705.376C54.5956 703.797 56.7816 702.118 57.1256 701.645C57.4696 701.172 58.0586 701.284 58.4356 701.894C58.8346 702.539 58.0386 703.414 56.5356 703.986C53.2706 705.227 52.4136 707.415 53.9066 710.692C54.8566 712.777 54.7876 713.577 53.5386 714.957C51.6166 717.081 51.5876 717.999 53.4436 717.999C55.9706 717.999 57.8366 714.206 57.0426 710.685C56.3896 707.792 56.6236 707.325 59.4456 705.872L62.5706 704.263L64.9816 713.131C66.4476 718.525 67.9026 721.999 68.6956 721.999C69.4136 721.999 70.0006 721.324 70.0006 720.499C70.0006 719.674 70.4776 718.999 71.0596 718.999C71.6416 718.999 71.8796 718.612 71.5876 718.14C71.2956 717.667 71.4446 715.305 71.9196 712.89C72.3936 710.475 72.8306 709.257 72.8906 710.184C72.9536 711.152 74.4916 712.409 76.5006 713.135C79.4136 714.188 80.0006 714.891 80.0006 717.322C80.0006 719.806 80.2256 720.057 81.5006 718.999C84.6526 716.383 82.9286 711.686 78.5006 710.825C77.0576 710.545 76.5676 709.749 76.7396 707.968C77.2426 702.778 77.5106 701 77.7876 701C77.9456 700.999 81.2786 703.249 85.1946 705.999C89.1106 708.749 92.7426 710.999 93.2656 710.999C94.8846 710.999 93.1286 706.243 89.0456 699.573C86.8976 696.064 85.4166 692.916 85.7536 692.579C86.0916 692.242 86.9376 693.323 87.6356 694.982C88.6356 697.362 89.5226 697.999 91.8296 697.999C93.4386 697.999 95.3156 697.324 96.0006 696.499C97.8036 694.326 98.6036 694.626 100.001 697.999C101.969 702.75 104.508 701.752 102.814 696.893C101.31 692.578 98.6486 691.504 94.9146 693.704C92.0576 695.386 91.8066 695.392 90.9116 693.798C90.3866 692.863 89.2896 691.431 88.4756 690.617C87.1676 689.309 87.1996 689.08 88.7476 688.654C89.7116 688.39 94.4516 687.162 99.2806 685.927C104.365 684.626 107.909 683.221 107.699 682.59C107.5 681.99 102.951 680.746 97.5896 679.826C86.4956 677.921 85.0006 677.471 85.0006 676.03C85.0006 674.486 87.5806 674.788 89.0006 676.499C90.3746 678.155 92.7906 678.419 94.8166 677.134C96.1156 676.31 96.7746 674.279 96.9236 670.638C96.9886 669.06 97.5336 668.876 100.501 669.433C104.138 670.115 105.036 669.103 102.593 667.075C99.7076 664.681 94.0096 666.821 93.9856 670.308C93.9766 671.513 93.5836 673.109 93.1106 673.854C92.3136 675.114 90.2626 674.366 86.0716 671.289C85.8356 671.116 86.6336 669.634 87.8456 667.995C89.0566 666.357 91.1616 662.92 92.5246 660.359C96.9166 652.098 96.0046 652.052 85.0276 659.979C76.8066 665.916 75.0006 666.486 75.0006 663.14C75.0006 660.946 76.9026 658.999 79.0456 658.999C81.5746 658.999 84.0006 655.684 84.0006 652.229C84.0006 650.518 84.4506 648.839 85.0006 648.499C86.7016 647.448 86.1046 645.999 83.9696 645.999C81.7806 645.999 80.7576 647.747 80.5996 651.755C80.5026 654.223 79.4086 655.258 75.6556 656.432C74.6406 656.749 73.5656 657.945 73.2666 659.089C72.8536 660.67 72.5206 660.849 71.8776 659.834C71.4116 659.1 71.0246 657.728 71.0156 656.787C70.9916 654.119 66.9666 643.999 65.9286 643.999C65.4186 643.999 64.9906 644.336 64.9786 644.749ZM371.001 647.942C371.001 651.264 370.528 652.166 368.001 653.658C364.204 655.901 364.189 656.999 367.956 656.999C370.565 656.999 370.991 657.427 371.596 660.655L372.282 664.31L373.728 661.55L375.174 658.791L378.171 661.645L381.168 664.499L380.473 660.749L379.778 656.999L383.64 656.977L387.501 656.955L385.024 655.052C382.722 653.283 382.625 652.861 383.636 649.074C384.234 646.833 384.586 644.999 384.419 644.999C384.252 644.999 382.45 645.982 380.414 647.183L376.714 649.366L374.405 646.683C373.136 645.207 371.85 643.999 371.549 643.999C371.248 643.999 371.001 645.774 371.001 647.942ZM420.003 648.249C420.004 648.937 421.97 650.741 424.372 652.258C428.096 654.61 428.821 655.619 429.287 659.091C429.861 663.371 430.573 664.761 431.644 663.69C431.997 663.336 431.791 662.451 431.185 661.721C430.58 660.992 430.331 659.452 430.633 658.299C431.404 655.352 429.599 652.489 426.039 651.015C424.368 650.323 423.001 649.136 423.001 648.378C423.001 647.619 422.326 646.999 421.501 646.999C420.676 646.999 420.002 647.562 420.003 648.249ZM226.751 652.753C220.084 654.665 220.416 658.236 227.382 659.543C230.458 660.12 231.164 659.984 230.802 658.884C230.552 658.122 229.144 657.357 227.674 657.183C224.436 656.799 224.091 655.005 227.251 654.984C229.974 654.965 232.383 653.572 231.873 652.31C231.66 651.783 229.472 651.972 226.751 652.753ZM44.4566 658.538C45.5316 660.166 47.8056 663.8 49.5086 666.612L52.6056 671.726L55.3256 669.557L58.0446 667.389L55.7726 665.419C52.8546 662.888 45.9406 657.635 44.0006 656.474C42.9386 655.838 43.0716 656.441 44.4566 658.538ZM398.954 657.944C394.867 659.185 388.51 663.573 386.62 666.458C384.313 669.979 383.355 681.51 384.964 686.387C386.669 691.553 394.381 697.529 400.533 698.452C407.688 699.525 414.529 697.471 419.132 692.868C424.726 687.274 423.852 685.11 417.365 688.493C409.016 692.847 398.146 687.619 396.42 678.419C395.932 675.819 396.381 674.027 398.366 670.64C401.282 665.663 406.392 662.999 413.021 662.999C417.849 662.999 418.096 661.637 413.751 658.988C410.386 656.936 403.804 656.472 398.954 657.944ZM396.501 660.871C390.479 663.695 387.369 667.655 386.041 674.188C384.544 681.552 385.976 686.592 390.943 691.442C397.448 697.794 409.311 698.617 416.022 693.183C418.199 691.421 418.126 691.396 411.869 691.782C406.461 692.115 404.973 691.821 402.001 689.835C397.24 686.654 393.562 679.152 394.448 674.432C395.521 668.712 401.136 663.336 407.531 661.905C410.502 661.24 412.742 660.389 412.51 660.013C411.537 658.439 400.418 659.035 396.501 660.871ZM84.5006 663.15C82.3006 664.808 79.8736 666.519 79.1066 666.952C77.9536 667.604 78.0396 668.19 79.6066 670.338C81.9786 673.592 82.1506 673.588 84.0986 670.243C84.9776 668.734 86.7096 665.812 87.9476 663.749C90.6406 659.262 89.8436 659.124 84.5006 663.15ZM60.5666 668.528C55.4306 670.478 53.1246 672.614 50.8816 677.499C48.5366 682.605 48.5586 686.429 50.9646 691.728C56.6816 704.323 78.1976 703.346 83.6716 690.243C86.2916 683.973 82.6726 673.814 76.4496 669.968C71.9076 667.16 65.6596 666.594 60.5666 668.528ZM227.08 675.582C227.128 676.747 227.365 676.984 227.684 676.187C227.973 675.465 227.937 674.602 227.605 674.27C227.273 673.938 227.037 674.528 227.08 675.582ZM38.7506 680.794C34.4886 681.647 31.0006 682.623 31.0006 682.963C31.0006 683.732 43.0746 686.999 45.9146 686.999C47.6816 686.999 48.0006 686.387 48.0006 682.999C48.0006 680.799 47.6636 679.054 47.2506 679.121C46.8376 679.188 43.0136 679.941 38.7506 680.794ZM85.5056 683.103C85.9066 684.971 86.3666 686.646 86.5276 686.826C87.0176 687.372 103.001 683.564 103.001 682.902C103.001 682.563 99.9636 681.994 96.2506 681.637C92.5376 681.28 88.4376 680.7 87.1396 680.348C84.9056 679.742 84.8166 679.891 85.5056 683.103ZM46.5236 702.219L42.8046 709.32L45.6746 707.409C54.2076 701.731 55.9766 700.449 55.9886 699.937C55.9946 699.628 54.7056 698.417 53.1216 697.247L50.2436 695.119L46.5236 702.219ZM80.2256 696.963L77.9516 698.86L81.2256 701.297C86.4666 705.197 90.0006 707.287 90.0006 706.486C90.0006 705.237 83.8996 694.997 83.1776 695.032C82.8046 695.051 81.4766 695.919 80.2256 696.963ZM64.0006 702.585C64.0006 704.643 67.5636 715.999 68.2096 715.999C68.6446 715.999 69.0116 714.537 69.0246 712.749C69.0376 710.961 69.4406 707.812 69.9196 705.749L70.7896 701.999H67.3956C65.5286 701.999 64.0006 702.263 64.0006 702.585ZM72.2286 704.749C72.0696 706.855 72.2486 707.148 72.9956 705.999C74.1736 704.186 74.2956 701.999 73.2186 701.999C72.7886 701.999 72.3436 703.236 72.2286 704.749ZM397.628 706.177C396.895 708.004 396.041 710.23 395.728 711.123C395.416 712.016 393.55 713.049 391.581 713.418C387.054 714.267 387.026 715.694 391.501 717.563C394.838 718.958 395.001 719.259 395.001 724.012C395.001 727.778 395.368 728.999 396.501 728.999C397.326 728.999 398.015 728.662 398.033 728.249C398.05 727.836 399.157 726.257 400.493 724.739L402.921 721.98L406.211 723.986C409.42 725.942 413.001 726.658 413.001 725.343C413.001 724.983 411.876 723.213 410.501 721.41C408.008 718.142 407.329 716.029 408.751 715.966C409.164 715.947 410.586 715.029 411.911 713.926C415.14 711.237 413.457 709.62 407.66 709.839C403.625 709.992 403.139 709.746 401.994 706.981C400.184 702.612 399.134 702.419 397.628 706.177ZM398.41 709.852C397.882 712.38 396.973 713.461 394.713 714.249L391.716 715.294L394.359 716.678C396.481 717.79 397.008 718.795 397.034 721.781L397.068 725.499L399.038 723.133C401 720.778 402.866 720.64 407.352 722.516C409.127 723.259 409.134 723.158 407.524 720.043C405.898 716.899 405.917 716.718 408.097 714.397L410.35 711.999H406.207C402.713 711.999 401.834 711.569 400.588 709.249L399.11 706.499L398.41 709.852ZM120.751 762.763C115.489 763.07 113.278 764.258 116.173 765.223C116.832 765.443 117.543 768.341 117.796 771.842C118.158 776.841 117.896 778.458 116.469 780.035C114.734 781.952 114.776 781.999 118.21 781.999C121.613 781.999 121.725 781.879 121.615 778.353C121.552 776.337 122.034 774.52 122.692 774.289C124.088 773.8 126.933 778.922 126.28 780.749C125.967 781.628 127.12 781.99 130.168 781.967C133.772 781.941 134.236 781.73 132.928 780.717C130.223 778.624 125.92 770.373 126.604 768.592C126.955 767.675 128.581 766.233 130.215 765.388C135.064 762.881 132.228 762.094 120.751 762.763ZM137.501 762.899C134.814 763.494 134.693 763.673 136.339 764.62C137.81 765.466 138.209 767.036 138.339 772.501C138.45 777.191 138.11 779.456 137.251 779.745C134.503 780.669 136.244 781.999 140.201 781.999C143.468 781.999 144.134 781.732 143.201 780.799C142.49 780.088 142.001 776.667 142.001 772.406C142.001 766.523 142.315 765.093 143.723 764.552C145.198 763.986 145.234 763.758 143.973 762.961C142.352 761.935 141.878 761.931 137.501 762.899ZM159.51 762.823C159.277 763.056 160.022 764.005 161.165 764.931C162.87 766.311 163.11 767.227 162.497 770.018L161.749 773.421L159.354 770.46C158.036 768.831 156.694 766.486 156.371 765.249C155.871 763.332 155.112 762.999 151.247 762.999H146.709L149.355 765.451C152.769 768.616 153.116 775.884 150.001 778.999C147.254 781.746 147.423 781.999 152.001 781.999C154.201 781.999 156.001 781.825 156.001 781.613C156.001 781.401 155.329 779.939 154.507 778.363C152.655 774.813 152.494 769.673 154.251 770.225C154.939 770.44 157.301 773.29 159.501 776.558L163.501 782.499L163.79 774.339C163.99 768.688 164.528 765.806 165.54 764.967C166.344 764.3 167.001 763.449 167.001 763.077C167.001 762.348 160.215 762.118 159.51 762.823ZM172.45 763.838C168.436 766.324 166.299 772.79 168.205 776.678C170.46 781.275 174.185 783.313 178.884 782.519C182.465 781.914 183.001 781.487 183.001 779.24C183.001 777.819 183.746 775.834 184.656 774.828C186.235 773.083 186.114 772.999 182.034 772.999C178.417 772.999 177.941 773.222 178.955 774.444C179.615 775.239 180.007 776.926 179.828 778.194C179.406 781.167 175.171 781.953 173.307 779.403C171.511 776.946 171.663 768.926 173.558 766.222C175.582 763.331 177.394 763.412 179.822 766.499C182.37 769.738 183.001 769.651 183.001 766.061C183.001 763.921 182.526 763.13 181.251 763.147C180.288 763.161 178.601 762.896 177.501 762.56C176.33 762.202 174.237 762.732 172.45 763.838ZM202.381 763.43C197.059 767.197 196.035 775.042 200.258 779.697C204.588 784.47 210.633 783.402 213.501 777.357C215.71 772.703 215.345 769.403 212.251 766.05C208.868 762.384 205.226 761.417 202.381 763.43ZM248.281 763.019C245.632 764.085 244.415 768.036 245.889 770.789C246.477 771.889 248.468 773.052 250.373 773.409C254.283 774.143 256.494 776.272 255.644 778.486C254.612 781.176 250.15 780.293 248.149 777.003C245.998 773.465 245.001 774.029 245.001 778.782C245.001 781.844 245.249 782.167 247.199 781.657C248.408 781.341 249.954 781.545 250.635 782.11C252.212 783.419 255.526 781.755 257.063 778.883C259.003 775.259 257.364 772.083 252.47 769.986C249.95 768.905 248.001 767.4 248.001 766.535C248.001 764.273 252.615 764.609 254.284 766.993C255.921 769.329 257.001 768.642 257.001 765.265C257.001 763.354 256.61 762.988 255.085 763.472C254.031 763.807 252.88 763.612 252.526 763.04C251.773 761.822 251.262 761.819 248.281 763.019ZM289.218 763.56C282.629 768.175 282.885 778.214 289.685 781.836C293.207 783.711 295.656 783.198 298.327 780.023C303.281 774.136 302.646 767.582 296.776 764.003C292.826 761.595 292.085 761.551 289.218 763.56ZM303.147 762.832L300.793 763.165L302.897 764.639C304.692 765.896 305.001 767.132 305.001 773.056C305.001 777.018 304.572 779.999 304.001 779.999C303.451 779.999 303.001 780.449 303.001 780.999C303.001 781.549 304.891 781.999 307.201 781.999C310.468 781.999 311.134 781.732 310.201 780.799C309.541 780.139 309.001 778.083 309.001 776.229C309.001 773.311 309.301 772.903 311.241 773.179C312.572 773.369 313.602 774.31 313.78 775.499C314.638 781.235 315.07 781.999 317.461 781.999C320.16 781.999 321.676 780.482 319.745 779.714C319.061 779.441 317.635 777.579 316.576 775.576L314.65 771.933L316.826 770.409C322.887 766.164 314.078 761.285 303.147 762.832ZM324.501 762.912C322.663 763.714 322.643 763.842 324.251 764.499C325.694 765.088 326.001 766.501 326.001 772.547C326.001 776.829 325.54 780.166 324.894 780.565C322.748 781.892 326.427 783.005 331.001 782.413C338.339 781.464 339.111 781.005 341.155 776.383L343.11 771.965L340.897 768.028C339.68 765.863 338.086 763.862 337.355 763.581C334.547 762.504 326.41 762.08 324.501 762.912ZM348.001 763.289C343.078 765.771 344.615 772.329 350.373 773.409C354.324 774.15 356.492 776.277 355.619 778.553C354.616 781.166 349.739 779.968 348.194 776.729C346.505 773.189 345.001 774.105 345.001 778.675C345.001 781.847 345.239 782.17 347.199 781.657C348.408 781.341 349.981 781.567 350.694 782.159C352.485 783.646 356.777 780.74 357.593 777.489C358.541 773.711 357.469 772.128 352.522 770.008C349.849 768.862 348.001 767.415 348.001 766.468C348.001 763.99 353.208 765.001 354.567 767.743C355.934 770.501 357.001 769.635 357.001 765.765C357.001 763.362 356.672 762.969 355.085 763.472C354.031 763.807 352.88 763.612 352.526 763.04C351.704 761.71 351.063 761.745 348.001 763.289ZM216.001 763.882C216.001 764.368 216.959 765.016 218.131 765.323C219.606 765.708 220.067 766.385 219.631 767.521C219.284 768.424 219.001 771.418 219.001 774.174C219.001 778.345 218.665 779.274 217.001 779.709C213.12 780.724 215.068 781.999 220.501 781.999C226.116 781.999 227.166 781.211 224.501 778.999C222.632 777.448 222.518 772.999 224.348 772.999C225.089 772.999 226.184 774.012 226.781 775.249C227.744 777.246 227.873 777.007 227.933 773.127C227.993 769.296 227.81 768.913 226.459 770.034C224.303 771.823 222.567 769.862 223.393 766.572C224.185 763.42 227.163 763.161 230.001 765.999C232.591 768.589 233.001 768.521 233.001 765.499C233.001 763.028 232.901 762.999 224.501 762.999C219.826 762.999 216.001 763.397 216.001 763.882ZM260.001 763.928C260.001 764.347 260.838 765.446 261.86 766.371C262.882 767.297 264.509 770.972 265.474 774.538C267.471 781.916 268.676 783.323 269.541 779.29C269.87 777.755 270.627 775.374 271.223 773.999C272.28 771.557 272.337 771.602 273.645 775.941C275.608 782.449 276.664 782.913 278.044 777.872C280.673 768.268 281.235 766.944 283.109 765.941C284.18 765.368 284.837 764.542 284.567 764.106C283.938 763.088 260.001 762.915 260.001 763.928ZM121.668 764.666C120.698 765.635 120.849 770.999 121.846 770.999C123.486 770.999 126.236 767.054 125.654 765.536C125.048 763.958 122.854 763.479 121.668 764.666ZM203.068 765.873C201.706 768.419 201.686 776.542 203.036 779.065C203.697 780.299 205.128 780.999 206.991 780.999C209.559 780.999 209.993 780.559 210.595 777.349C210.972 775.341 210.88 771.628 210.391 769.099C209.621 765.122 209.138 764.457 206.818 764.189C204.952 763.973 203.811 764.486 203.068 765.873ZM290.036 765.933C288.911 768.036 288.63 776.869 289.608 779.417C289.993 780.422 291.431 780.999 293.547 780.999C296.708 780.999 296.912 780.778 297.526 776.678C297.883 774.301 297.668 770.476 297.049 768.178C296.121 764.73 295.499 763.999 293.498 763.999C292.122 763.999 290.623 764.837 290.036 765.933ZM309.35 765.05C308.771 765.629 308.513 767.228 308.776 768.605C309.162 770.622 309.762 771.048 311.869 770.803C315.071 770.431 315.985 767.192 313.419 765.315C311.243 763.725 310.71 763.69 309.35 765.05ZM267.015 767.249C267.034 770.516 268.102 773.999 269.082 773.999C270.856 773.999 272.014 770.165 271.026 767.564C269.808 764.362 266.996 764.141 267.015 767.249ZM275.419 769.211C275.789 771.528 276.321 773.653 276.601 773.932C277.554 774.885 278.97 771.509 278.986 768.249C278.998 765.596 278.61 764.999 276.873 764.999C274.933 764.999 274.805 765.37 275.419 769.211ZM329.792 766.249C329.56 766.937 329.624 770.424 329.935 773.999C330.453 779.944 330.71 780.528 332.945 780.844C334.447 781.056 335.892 780.501 336.695 779.403C338.333 777.162 338.408 767.806 336.801 766.199C335.222 764.62 330.331 764.655 329.792 766.249ZM116.331 793.749C178.388 793.891 279.638 793.891 341.331 793.749C403.025 793.607 352.251 793.49 228.501 793.49C104.751 793.49 54.2746 793.607 116.331 793.749ZM456.814 793.682C457.535 793.971 458.398 793.935 458.73 793.603C459.062 793.271 458.472 793.035 457.418 793.078C456.253 793.126 456.016 793.363 456.814 793.682Z" fill="black"/>
</svg>
