<svg width="182" height="276" viewBox="0 0 182 276" fill="none" xmlns="http://www.w3.org/2000/svg">
<path fill-rule="evenodd" clip-rule="evenodd" d="M97.0002 0.859058C97.0002 1.60006 96.4862 1.80905 95.7502 1.36705C94.9392 0.880054 94.9952 1.22606 95.9082 2.35006C96.8842 3.55406 97.6342 3.76606 98.3582 3.04206C99.0812 2.31906 99.0332 1.63306 98.2002 0.80006C97.2672 -0.13294 97.0002 -0.119942 97.0002 0.859058ZM177.346 1.24806C176.96 1.87406 177.167 2.01506 177.853 1.59106C178.502 1.19006 179.278 1.56006 179.612 2.43106C180.198 3.95906 182 3.67806 182 2.05806C182 0.755056 178.074 0.072058 177.346 1.24806ZM1.66719 1.66706C0.546195 2.78706 0.874195 73.0001 2.0002 73.0001C2.6282 73.0001 3.0002 66.5581 3.0002 55.6741C3.0002 38.4871 3.02019 38.3301 5.50019 36.0001C6.87519 34.7081 8.00019 32.6621 8.00019 31.4531C8.00019 29.6791 8.7372 29.1381 11.8282 28.6431C19.4412 27.4261 27.4292 19.2911 28.7002 11.4641C29.0312 9.42106 29.5982 8.34906 30.0012 9.00206C30.4802 9.77606 32.0022 8.97706 34.6082 6.58406L38.5002 3.01006L49.7502 3.00505C56.5802 3.00205 61.0002 2.60706 61.0002 2.00006C61.0002 0.875057 2.78519 0.548057 1.66719 1.66706ZM67.0002 1.94106C67.0002 2.45906 67.4502 3.16006 68.0002 3.50006C68.5502 3.84006 69.0002 3.41606 69.0002 2.55906C69.0002 1.70206 68.5502 1.00006 68.0002 1.00006C67.4502 1.00006 67.0002 1.42306 67.0002 1.94106ZM73.0002 2.50006C73.0002 3.32506 73.4502 4.00006 74.0002 4.00006C74.5502 4.00006 75.0002 3.32506 75.0002 2.50006C75.0002 1.67506 74.5502 1.00006 74.0002 1.00006C73.4502 1.00006 73.0002 1.67506 73.0002 2.50006ZM79.0002 2.50006C79.0002 3.32506 79.4502 4.00006 80.0002 4.00006C80.5502 4.00006 81.0002 3.32506 81.0002 2.50006C81.0002 1.67506 80.5502 1.00006 80.0002 1.00006C79.4502 1.00006 79.0002 1.67506 79.0002 2.50006ZM85.0002 2.50006C85.0002 3.32506 85.4502 4.00006 86.0002 4.00006C86.5502 4.00006 87.0002 3.32506 87.0002 2.50006C87.0002 1.67506 86.5502 1.00006 86.0002 1.00006C85.4502 1.00006 85.0002 1.67506 85.0002 2.50006ZM90.6942 1.63906C89.8952 2.43806 90.7982 4.00006 92.0592 4.00006C92.5772 4.00006 93.0002 3.32506 93.0002 2.50006C93.0002 0.954057 91.8202 0.513057 90.6942 1.63906ZM102.192 2.07505C102.389 2.66605 102.978 3.15006 103.5 3.15006C104.022 3.15006 104.611 2.66605 104.808 2.07505C105.005 1.48405 104.417 1.00006 103.5 1.00006C102.583 1.00006 101.995 1.48405 102.192 2.07505ZM108.15 1.95005C108.58 3.23905 109.951 3.47106 110.075 2.27506C110.116 1.87606 109.61 1.37006 108.95 1.15006C108.29 0.930058 107.93 1.29005 108.15 1.95005ZM114.192 2.07505C114.389 2.66605 114.978 3.15006 115.5 3.15006C116.022 3.15006 116.611 2.66605 116.808 2.07505C117.005 1.48405 116.417 1.00006 115.5 1.00006C114.583 1.00006 113.995 1.48405 114.192 2.07505ZM120.553 1.91506C120.231 2.43606 120.394 3.12506 120.915 3.44706C121.436 3.76906 122.125 3.60606 122.447 3.08506C122.769 2.56406 122.606 1.87506 122.085 1.55306C121.564 1.23106 120.875 1.39406 120.553 1.91506ZM126.15 1.95005C126.37 2.61005 126.876 3.11605 127.275 3.07505C128.471 2.95105 128.239 1.58006 126.95 1.15006C126.29 0.930058 125.93 1.29005 126.15 1.95005ZM132.15 1.95005C132.58 3.23905 133.951 3.47106 134.075 2.27506C134.116 1.87606 133.61 1.37006 132.95 1.15006C132.29 0.930058 131.93 1.29005 132.15 1.95005ZM138 2.50006C138 3.41706 138.484 4.00506 139.075 3.80806C139.666 3.61106 140.15 3.02306 140.15 2.50006C140.15 1.97706 139.666 1.38906 139.075 1.19206C138.484 0.995058 138 1.58306 138 2.50006ZM143.73 2.92506C143.377 4.27606 143.64 4.69206 144.613 4.31806C145.376 4.02506 146 3.15905 146 2.39305C146 0.315055 144.309 0.71106 143.73 2.92506ZM150 1.94106C150 2.45906 150.45 3.16006 151 3.50006C151.55 3.84006 152 3.41606 152 2.55906C152 1.70206 151.55 1.00006 151 1.00006C150.45 1.00006 150 1.42306 150 1.94106ZM156 2.50006C156 3.32506 156.45 4.00006 157 4.00006C157.55 4.00006 158 3.32506 158 2.50006C158 1.67506 157.55 1.00006 157 1.00006C156.45 1.00006 156 1.67506 156 2.50006ZM162 2.55906C162 3.41606 162.45 3.84006 163 3.50006C163.55 3.16006 164 2.45906 164 1.94106C164 1.42306 163.55 1.00006 163 1.00006C162.45 1.00006 162 1.70206 162 2.55906ZM168 2.50006C168 3.32506 168.45 4.00006 169 4.00006C169.55 4.00006 170 3.32506 170 2.50006C170 1.67506 169.55 1.00006 169 1.00006C168.45 1.00006 168 1.67506 168 2.50006ZM173.694 1.63906C172.895 2.43806 173.798 4.00006 175.059 4.00006C175.577 4.00006 176 3.32506 176 2.50006C176 0.954057 174.82 0.513057 173.694 1.63906ZM3.03219 19.7501C3.06019 34.6961 3.22219 36.2911 4.53219 34.5591C5.65219 33.0781 6.00019 29.4631 6.00019 19.3091V6.00006H19.3782C30.0492 6.00006 33.0072 5.69706 34.0002 4.50006C35.0982 3.17706 33.3402 3.00006 19.1222 3.00006H3.0002L3.03219 19.7501ZM8.00019 12.4061C8.00019 16.2551 8.2422 16.7491 9.9142 16.3121C12.0912 15.7431 15.4012 12.3521 16.3202 9.75006C16.8482 8.25206 16.2932 8.00006 12.4692 8.00006H8.00019V12.4061ZM18.3892 8.82106C19.3922 10.4431 14.8852 16.1501 11.4782 17.5741C7.27019 19.3321 6.55819 22.5791 10.6042 21.5631C14.8392 20.5001 17.9892 17.9431 20.0582 13.8871C22.5202 9.06006 22.4992 8.00006 19.9412 8.00006C18.8092 8.00006 18.1102 8.36906 18.3892 8.82106ZM23.4752 11.1121C22.5012 15.5471 16.5182 21.7641 11.8902 23.1511C7.98519 24.3211 6.47619 27.0191 9.75019 26.9781C12.5312 26.9431 19.2972 23.4851 21.7022 20.8681C24.0722 18.2901 27.0002 12.0261 27.0002 9.53206C27.0002 6.69806 24.1662 7.96906 23.4752 11.1121ZM30.0002 13.0001C30.0002 13.5501 30.4502 14.0001 31.0002 14.0001C31.5502 14.0001 32.0002 13.5501 32.0002 13.0001C32.0002 12.4501 31.5502 12.0001 31.0002 12.0001C30.4502 12.0001 30.0002 12.4501 30.0002 13.0001ZM28.0002 17.0001C28.0002 17.5501 28.4502 18.0001 29.0002 18.0001C29.5502 18.0001 30.0002 17.5501 30.0002 17.0001C30.0002 16.4501 29.5502 16.0001 29.0002 16.0001C28.4502 16.0001 28.0002 16.4501 28.0002 17.0001ZM26.5432 19.9311C26.2262 20.4431 26.4252 21.1441 26.9842 21.4901C27.5432 21.8351 28.0002 21.4161 28.0002 20.5591C28.0002 18.8021 27.4002 18.5441 26.5432 19.9311ZM24.0002 24.0001C24.0002 24.5501 24.4502 25.0001 25.0002 25.0001C25.5502 25.0001 26.0002 24.5501 26.0002 24.0001C26.0002 23.4501 25.5502 23.0001 25.0002 23.0001C24.4502 23.0001 24.0002 23.4501 24.0002 24.0001ZM20.5102 27.0161C20.8562 27.5751 21.5572 27.7741 22.0692 27.4571C23.4562 26.6001 23.1982 26.0001 21.4412 26.0001C20.5842 26.0001 20.1652 26.4571 20.5102 27.0161ZM17.0002 29.0001C17.0002 29.5501 17.4502 30.0001 18.0002 30.0001C18.5502 30.0001 19.0002 29.5501 19.0002 29.0001C19.0002 28.4501 18.5502 28.0001 18.0002 28.0001C17.4502 28.0001 17.0002 28.4501 17.0002 29.0001ZM13.0002 30.0001C13.0002 30.5501 13.4502 31.0001 14.0002 31.0001C14.5502 31.0001 15.0002 30.5501 15.0002 30.0001C15.0002 29.4501 14.5502 29.0001 14.0002 29.0001C13.4502 29.0001 13.0002 29.4501 13.0002 30.0001ZM9.00019 31.0001C9.00019 31.5501 9.45019 32.0001 10.0002 32.0001C10.5502 32.0001 11.0002 31.5501 11.0002 31.0001C11.0002 30.4501 10.5502 30.0001 10.0002 30.0001C9.45019 30.0001 9.00019 30.4501 9.00019 31.0001ZM74.6492 53.2501L72.3362 58.5001L71.6292 54.7851C71.2412 52.7421 70.4422 50.7731 69.8542 50.4101C69.1852 49.9961 68.9832 50.4511 69.3142 51.6251C69.6042 52.6561 70.1542 54.5801 70.5362 55.9001L71.2302 58.3001L68.1452 56.1031C66.4492 54.8951 64.7952 53.4781 64.4712 52.9531C64.1472 52.4291 63.4512 52.0001 62.9242 52.0001C62.3972 52.0001 63.0852 54.2071 64.4512 56.9041C67.3252 62.5751 66.8762 63.3821 60.2462 64.4761C54.9312 65.3521 55.5262 66.5521 61.7382 67.4841L66.5002 68.1991L62.7502 70.1231C60.6882 71.1821 59.0002 72.2221 59.0002 72.4351C59.0002 73.0931 61.3912 72.4641 63.6842 71.2021C67.1332 69.3041 67.1982 69.6771 64.3812 75.2351C61.5382 80.8461 61.8662 80.8301 68.3692 75.0501C70.9342 72.7701 71.1812 72.7121 70.7062 74.5001C70.4142 75.6001 69.9342 78.3001 69.6402 80.5001C69.1602 84.0891 69.2822 83.9441 70.8252 79.0811L72.5442 73.6631L74.4462 77.8801C77.1352 83.8441 78.2152 84.0081 77.7442 78.3811C77.1992 71.8891 78.2932 70.8801 83.9982 72.6111C86.4742 73.3631 88.7252 73.9641 89.0002 73.9471C89.2752 73.9291 87.4752 72.1321 85.0002 69.9541L80.5002 65.9931L83.5242 66.3391C85.1872 66.5291 87.4372 66.3371 88.5242 65.9131C89.8952 65.3771 89.0042 65.1191 85.6122 65.0701L80.7252 65.0001L84.6122 61.9131C86.7512 60.2161 88.7252 58.5881 89.0002 58.2971C89.4942 57.7731 84.3062 58.6351 80.5832 59.6951C78.7982 60.2031 78.8162 60.0491 80.8472 57.4681C82.0462 55.9431 82.7772 54.4431 82.4702 54.1361C82.1632 53.8291 80.8822 54.8701 79.6232 56.4491L77.3342 59.3191L77.6602 53.6601C77.8392 50.5471 77.7552 48.0001 77.4742 48.0001C77.1922 48.0001 75.9202 50.3631 74.6492 53.2501ZM60.8542 60.0521C62.6992 61.1771 64.7242 61.9151 65.3542 61.6921C65.9842 61.4681 64.7582 60.5471 62.6282 59.6431C57.4232 57.4351 56.7972 57.5791 60.8542 60.0521ZM70.2812 63.2501C70.6812 64.3161 70.4612 65.0061 69.7192 65.0151C68.8782 65.0261 68.9282 65.3021 69.8782 65.9041C70.6812 66.4121 70.9302 67.3051 70.4742 68.0431C69.9392 68.9071 70.0932 69.0611 70.9572 68.5261C71.6952 68.0701 72.5882 68.3191 73.0962 69.1221C73.7902 70.2171 73.9732 70.1471 73.9852 68.7811C73.9952 67.5991 74.5472 67.2391 75.7502 67.6261C77.1052 68.0621 77.1892 67.9671 76.1222 67.2061C75.3642 66.6661 74.9792 65.8361 75.2672 65.3621C75.5552 64.8881 75.1622 63.9201 74.3952 63.2111C73.4092 62.2991 73.0002 62.261 73.0002 63.083C73.0002 63.882 72.4732 63.8171 71.3132 62.8721C69.8352 61.6711 69.7072 61.7181 70.2812 63.2501ZM104.754 73.2501C103.57 76.4711 106.671 78.3071 108.854 75.6761C109.656 74.7101 109.635 74.0351 108.776 73.1761C107.241 71.6411 105.333 71.6761 104.754 73.2501ZM79.0362 73.3561C79.0162 73.8261 80.1252 75.5481 81.5002 77.1821C82.8752 78.8161 83.9982 79.7811 83.9952 79.3271C83.9882 78.1941 79.0812 72.2861 79.0362 73.3561ZM127 74.5591C127 75.4161 127.45 75.8401 128 75.5001C128.55 75.1601 129 74.4591 129 73.9411C129 73.4231 128.55 73.0001 128 73.0001C127.45 73.0001 127 73.7021 127 74.5591ZM120 77.9881C118.838 78.7281 118.75 79.3441 119.609 80.7221C121.22 83.3051 123.5 82.9311 123.5 80.0831C123.5 77.3511 122.211 76.5801 120 77.9881ZM1.0002 79.5001C1.0002 80.3251 1.4502 81.0001 2.0002 81.0001C2.5502 81.0001 3.0002 80.3251 3.0002 79.5001C3.0002 78.6751 2.5502 78.0001 2.0002 78.0001C1.4502 78.0001 1.0002 78.6751 1.0002 79.5001ZM1.0002 84.9411C1.0002 85.4591 1.4502 86.1601 2.0002 86.5001C2.5502 86.8401 3.0002 86.4161 3.0002 85.5591C3.0002 84.7021 2.5502 84.0001 2.0002 84.0001C1.4502 84.0001 1.0002 84.4231 1.0002 84.9411ZM1.0002 91.0001C1.0002 91.5501 1.4502 92.0001 2.0002 92.0001C2.5502 92.0001 3.0002 91.5501 3.0002 91.0001C3.0002 90.4501 2.5502 90.0001 2.0002 90.0001C1.4502 90.0001 1.0002 90.4501 1.0002 91.0001ZM1.0002 97.5001C1.0002 98.3251 1.4502 99.0001 2.0002 99.0001C2.5502 99.0001 3.0002 98.3251 3.0002 97.5001C3.0002 96.6751 2.5502 96.0001 2.0002 96.0001C1.4502 96.0001 1.0002 96.6751 1.0002 97.5001ZM1.0002 103.5C1.0002 104.325 1.4502 105 2.0002 105C2.5502 105 3.0002 104.325 3.0002 103.5C3.0002 102.675 2.5502 102 2.0002 102C1.4502 102 1.0002 102.675 1.0002 103.5ZM1.0002 109.5C1.0002 110.325 1.4502 111 2.0002 111C2.5502 111 3.0002 110.325 3.0002 109.5C3.0002 108.675 2.5502 108 2.0002 108C1.4502 108 1.0002 108.675 1.0002 109.5ZM99.5752 110.15C97.8782 111.781 97.8492 112 99.3252 112C100.361 112 101.044 112.858 101.116 114.25C101.221 116.293 101.278 116.316 101.732 114.5C102.007 113.4 102.742 112.169 103.366 111.765C104.199 111.226 104.187 111.027 103.323 111.015C102.676 111.007 102.001 110.393 101.823 109.65C101.578 108.624 101.038 108.744 99.5752 110.15ZM1.0002 115.5C1.0002 116.325 1.4502 117 2.0002 117C2.5502 117 3.0002 116.325 3.0002 115.5C3.0002 114.675 2.5502 114 2.0002 114C1.4502 114 1.0002 114.675 1.0002 115.5ZM1.0002 121C1.0002 121.55 1.4502 122 2.0002 122C2.5502 122 3.0002 121.55 3.0002 121C3.0002 120.45 2.5502 120 2.0002 120C1.4502 120 1.0002 120.45 1.0002 121ZM1.0002 127C1.0002 127.55 1.4502 128 2.0002 128C2.5502 128 3.0002 127.55 3.0002 127C3.0002 126.45 2.5502 126 2.0002 126C1.4502 126 1.0002 126.45 1.0002 127ZM64.1922 128.075C64.3892 128.666 64.9782 129.15 65.5002 129.15C66.0222 129.15 66.6112 128.666 66.8082 128.075C67.0052 127.484 66.4172 127 65.5002 127C64.5832 127 63.9952 127.484 64.1922 128.075ZM1.0002 133C1.0002 133.55 1.4502 134 2.0002 134C2.5502 134 3.0002 133.55 3.0002 133C3.0002 132.45 2.5502 132 2.0002 132C1.4502 132 1.0002 132.45 1.0002 133ZM0.658192 138.551C0.964192 139.348 1.6162 140 2.1072 140C3.5452 140 3.1332 138.265 1.5512 137.658C0.582198 137.286 0.286192 137.582 0.658192 138.551ZM1.0002 145C1.0002 145.55 1.4502 146 2.0002 146C2.5502 146 3.0002 145.55 3.0002 145C3.0002 144.45 2.5502 144 2.0002 144C1.4502 144 1.0002 144.45 1.0002 145ZM1.0002 151C1.0002 151.55 1.4502 152 2.0002 152C2.5502 152 3.0002 151.55 3.0002 151C3.0002 150.45 2.5502 150 2.0002 150C1.4502 150 1.0002 150.45 1.0002 151ZM64.2292 153.188C64.8472 155.042 67.0002 155.349 67.0002 153.583C67.0002 152.712 66.2872 152 65.4172 152C64.5462 152 64.0112 152.534 64.2292 153.188ZM1.0002 157C1.0002 157.55 1.4502 158 2.0002 158C2.5502 158 3.0002 157.55 3.0002 157C3.0002 156.45 2.5502 156 2.0002 156C1.4502 156 1.0002 156.45 1.0002 157ZM1.0002 163C1.0002 163.55 1.4502 164 2.0002 164C2.5502 164 3.0002 163.55 3.0002 163C3.0002 162.45 2.5502 162 2.0002 162C1.4502 162 1.0002 162.45 1.0002 163ZM1.0002 168.5C1.0002 169.325 1.4502 170 2.0002 170C2.5502 170 3.0002 169.325 3.0002 168.5C3.0002 167.675 2.5502 167 2.0002 167C1.4502 167 1.0002 167.675 1.0002 168.5ZM1.0002 174.5C1.0002 175.325 1.4502 176 2.0002 176C2.5502 176 3.0002 175.325 3.0002 174.5C3.0002 173.675 2.5502 173 2.0002 173C1.4502 173 1.0002 173.675 1.0002 174.5ZM1.0002 180.393C1.0002 181.159 1.6242 182.025 2.3872 182.318C3.3602 182.692 3.62319 182.276 3.27019 180.925C2.69119 178.711 1.0002 178.315 1.0002 180.393ZM1.0002 186.5C1.0002 187.325 1.4502 188 2.0002 188C2.5502 188 3.0002 187.325 3.0002 186.5C3.0002 185.675 2.5502 185 2.0002 185C1.4502 185 1.0002 185.675 1.0002 186.5ZM1.0002 192.5C1.0002 193.325 1.4502 194 2.0002 194C2.5502 194 3.0002 193.325 3.0002 192.5C3.0002 191.675 2.5502 191 2.0002 191C1.4502 191 1.0002 191.675 1.0002 192.5ZM1.0002 197.941C1.0002 198.459 1.4502 199.16 2.0002 199.5C2.5502 199.84 3.0002 199.416 3.0002 198.559C3.0002 197.702 2.5502 197 2.0002 197C1.4502 197 1.0002 197.423 1.0002 197.941ZM1.0002 204C1.0002 204.55 1.4502 205 2.0002 205C2.5502 205 3.0002 204.55 3.0002 204C3.0002 203.45 2.5502 203 2.0002 203C1.4502 203 1.0002 203.45 1.0002 204ZM1.0002 210C1.0002 210.55 1.4502 211 2.0002 211C2.5502 211 3.0002 210.55 3.0002 210C3.0002 209.45 2.5502 209 2.0002 209C1.4502 209 1.0002 209.45 1.0002 210ZM1.0002 216C1.0002 216.55 1.4502 217 2.0002 217C2.5502 217 3.0002 216.55 3.0002 216C3.0002 215.45 2.5502 215 2.0002 215C1.4502 215 1.0002 215.45 1.0002 216ZM1.0002 222C1.0002 222.55 1.4502 223 2.0002 223C2.5502 223 3.0002 222.55 3.0002 222C3.0002 221.45 2.5502 221 2.0002 221C1.4502 221 1.0002 221.45 1.0002 222ZM1.0002 228C1.0002 228.55 1.4502 229 2.0002 229C2.5502 229 3.0002 228.55 3.0002 228C3.0002 227.45 2.5502 227 2.0002 227C1.4502 227 1.0002 227.45 1.0002 228ZM1.0002 234C1.0002 234.55 1.4502 235 2.0002 235C2.5502 235 3.0002 234.55 3.0002 234C3.0002 233.45 2.5502 233 2.0002 233C1.4502 233 1.0002 233.45 1.0002 234ZM1.0002 240C1.0002 240.55 1.4502 241 2.0002 241C2.5502 241 3.0002 240.55 3.0002 240C3.0002 239.45 2.5502 239 2.0002 239C1.4502 239 1.0002 239.45 1.0002 240ZM1.0002 246C1.0002 246.55 1.4502 247 2.0002 247C2.5502 247 3.0002 246.55 3.0002 246C3.0002 245.45 2.5502 245 2.0002 245C1.4502 245 1.0002 245.45 1.0002 246ZM1.0002 252C1.0002 252.55 1.4502 253 2.0002 253C2.5502 253 3.0002 252.55 3.0002 252C3.0002 251.45 2.5502 251 2.0002 251C1.4502 251 1.0002 251.45 1.0002 252ZM1.0002 257.5C1.0002 258.325 1.4502 259 2.0002 259C2.5502 259 3.0002 258.325 3.0002 257.5C3.0002 256.675 2.5502 256 2.0002 256C1.4502 256 1.0002 256.675 1.0002 257.5ZM1.0002 263.5C1.0002 264.325 1.4502 265 2.0002 265C2.5502 265 3.0002 264.325 3.0002 263.5C3.0002 262.675 2.5502 262 2.0002 262C1.4502 262 1.0002 262.675 1.0002 263.5ZM1.0002 269.5C1.0002 270.325 1.4502 271 2.0002 271C2.5502 271 3.0002 270.325 3.0002 269.5C3.0002 268.675 2.5502 268 2.0002 268C1.4502 268 1.0002 268.675 1.0002 269.5ZM1.0002 275C1.0002 275.55 1.4502 276 2.0002 276C2.5502 276 3.0002 275.55 3.0002 275C3.0002 274.45 2.5502 274 2.0002 274C1.4502 274 1.0002 274.45 1.0002 275Z" fill="black"/>
</svg>
