<svg width="471" height="793" viewBox="0 0 471 793" fill="none" xmlns="http://www.w3.org/2000/svg">
<path fill-rule="evenodd" clip-rule="evenodd" d="M5.49926 0.999791C2.28026 1.57579 3.12126 1.74379 9.80926 1.85779L18.1193 1.99979L18.0303 12.7498C17.6713 56.1438 19.2653 127.784 21.1053 151C22.2173 165.025 23.2873 177.006 23.4833 177.625C23.6803 178.244 25.0863 178.75 26.6093 178.75C29.0513 178.75 29.1783 178.604 27.6883 177.515C25.7193 176.075 25.3053 169 27.1903 169C27.9053 169 27.7503 168.5 26.8023 167.75C25.6893 166.869 25.0273 163.917 24.5593 157.75L23.8953 149H26.3883C29.7803 149 30.6543 147.194 27.8133 146.055C25.7973 145.246 25.7503 145.119 27.4493 145.063C29.7623 144.988 28.4673 143.427 25.4993 142.713C24.0463 142.364 24.2853 142.2 26.3713 142.116C28.8073 142.018 29.0543 141.772 27.9993 140.5C26.9793 139.271 27.0483 139 28.3773 139C31.8213 139 29.7963 136.994 26.2493 136.893L22.4993 136.786L26.7693 135.83C31.7083 134.725 31.4703 132.72 26.4523 133.152C24.6123 133.311 22.7823 133.116 22.3863 132.72C21.9903 132.324 23.2033 131.994 25.0823 131.986C26.9613 131.979 29.5063 131.703 30.7383 131.373C34.5203 130.359 32.2153 129.082 27.2213 129.425C24.6243 129.604 23.8493 129.549 25.4993 129.303C30.4083 128.574 30.8873 127 26.1993 127C20.1613 127 21.0233 125.352 27.4833 124.545C35.4263 123.553 36.0483 121.501 28.1563 122.326C24.7703 122.68 21.9993 122.574 21.9993 122.092C21.9993 120.781 24.6753 120 29.1643 120C31.9343 120 33.0303 119.615 32.7253 118.75C32.4363 117.928 30.5233 117.575 27.1423 117.718C23.1883 117.885 21.9993 117.596 21.9993 116.468C21.9993 115.569 22.9683 115 24.4993 115C27.6073 115 27.8383 113.043 24.7493 112.884C22.7163 112.779 22.6923 112.722 24.4993 112.287C27.4433 111.579 28.7783 110.003 26.4493 109.985C24.8243 109.972 24.7493 109.808 25.9993 109C27.1683 108.245 26.8923 108.027 24.7493 108.015L21.9993 108L22.0133 96.7498C22.0293 82.9228 22.4693 80.9998 25.6163 80.9998C29.2623 80.9998 28.4513 79.0168 24.7493 78.8798C21.6483 78.7648 21.6953 78.7128 25.7983 77.7278C28.7383 77.0208 29.9333 76.2698 29.5793 75.3478C29.2903 74.5938 29.7103 73.9998 30.5303 73.9998C33.7263 73.9998 31.7683 72.3928 28.2873 72.1588C23.3233 71.8238 22.7033 70.9998 27.4163 70.9998C31.6443 70.9998 31.9693 69.0068 27.9253 67.8768C25.7803 67.2778 25.8853 67.1878 28.8323 67.0998C31.0283 67.0338 32.0213 66.5728 31.7413 65.7498C31.4623 64.9268 29.8103 64.6198 26.9083 64.8508C24.4833 65.0448 22.7293 64.9648 23.0093 64.6748C23.4413 64.2278 29.3603 63.3468 33.7493 63.0768C35.6213 62.9618 35.2553 61.2138 33.2493 60.6888C32.1723 60.4078 32.5573 60.1868 34.2493 60.1158C39.4943 59.8948 36.9703 57.9988 31.2493 57.8628L25.4993 57.7258L31.9993 56.9778C35.5743 56.5668 38.8313 56.4268 39.2383 56.6668C39.6443 56.9068 39.7083 56.4058 39.3813 55.5518C39.0533 54.6978 38.4963 53.9768 38.1423 53.9488C34.7363 53.6798 28.4123 52.6998 28.0823 52.3908C27.8533 52.1758 30.4413 51.9998 33.8323 51.9998C37.2773 51.9998 39.9993 51.5588 39.9993 50.9998C39.9993 49.9808 37.2983 49.5338 33.2493 49.8818C32.0123 49.9888 30.9993 49.6608 30.9993 49.1538C30.9993 47.9518 34.5503 47.0308 39.2493 47.0138C45.9993 46.9888 43.2003 45.0028 36.2493 44.8848C29.9983 44.7778 29.7953 44.7088 33.4993 43.9428C35.6993 43.4878 39.6373 43.0888 42.2493 43.0578C50.2763 42.9598 47.5863 41.0088 39.2493 40.8818C34.9863 40.8168 30.1493 40.4198 28.4993 39.9998C25.8443 39.3248 26.0753 39.2138 30.4993 39.0438C33.2493 38.9378 37.5243 38.5108 39.9993 38.0948C44.3533 37.3628 44.4063 37.3118 41.6243 36.5288C40.0433 36.0838 34.8683 35.9718 30.1243 36.2798C21.3893 36.8468 21.5303 35.7928 30.3673 34.4678C35.6893 33.6688 36.5623 32.0478 31.7493 31.8998C28.7363 31.8078 28.6813 31.7488 30.9993 31.0888C33.4803 30.3828 33.4833 30.3688 31.3803 29.2238C30.2153 28.5888 29.0233 28.3088 28.7313 28.6018C28.4383 28.8938 27.9033 28.6528 27.5403 28.0668C27.1783 27.4798 27.3583 26.9998 27.9403 26.9998C28.5223 26.9998 28.9993 26.5498 28.9993 25.9998C28.9993 25.4498 27.5373 24.9328 25.7493 24.8498L22.4993 24.6998L25.4993 24.2728C30.7733 23.5218 30.7413 22.0048 25.4493 21.9208C20.1403 21.8358 20.3183 21.5288 26.2493 20.5368C32.0793 19.5618 30.9273 17.6848 24.9993 18.4998C21.6273 18.9638 19.9993 18.8308 19.9993 18.0938C19.9993 17.4918 21.2373 16.9928 22.7493 16.9848C24.2613 16.9758 26.1743 16.5258 26.9993 15.9848C28.2513 15.1628 28.1293 14.8988 26.2603 14.3858C25.0293 14.0488 24.2683 13.3738 24.5693 12.8858C24.8713 12.3988 24.6403 11.9998 24.0583 11.9998C23.4763 11.9998 23.0523 11.6618 23.1173 11.2498C23.5003 8.82679 22.8043 6.99979 21.4993 6.99979C20.6103 6.99979 19.9993 6.08279 19.9993 4.74979V2.49979L64.4993 2.14379L108.999 1.78779L109.208 12.1438L109.418 22.4998L109.747 12.5348C109.938 6.77179 110.537 2.28579 111.167 1.89579C112.72 0.935791 162.275 0.752791 161.801 1.70879C153.194 19.0818 150.308 29.0078 148.489 47.4998C148.164 50.7998 147.701 54.6248 147.461 55.9998C147.22 57.3748 146.568 64.3018 146.011 71.3918C144.794 86.9028 143.827 90.8018 139.532 97.5158C137.722 100.345 135.956 103.523 135.606 104.579C134.49 107.948 126.623 115.936 122.999 117.379C118.273 119.261 115.605 118.064 112.794 112.799C110.566 108.625 110.483 107.512 109.951 74.4998C109.543 49.1788 109.315 44.7118 109.056 56.9998C108.443 86.1748 108.752 106.395 109.873 110.548C110.475 112.774 112.294 115.867 113.917 117.421C116.591 119.984 117.3 120.182 121.521 119.549C125.305 118.982 127.017 117.977 130.679 114.175C133.156 111.604 136.05 107.813 137.111 105.75C138.172 103.688 139.496 102 140.053 102C140.61 102 142.641 100.425 144.566 98.4998C146.491 96.5748 147.771 94.9998 147.41 94.9998C147.049 94.9998 147.368 94.2598 148.119 93.3558C149.332 91.8938 149.234 91.7908 147.241 92.4228C144.021 93.4448 144.479 92.3198 148.032 90.4828C149.7 89.6208 150.815 88.5118 150.511 88.0188C150.206 87.5258 150.754 86.6588 151.728 86.0918C153.173 85.2508 153.213 85.0548 151.949 85.0298C151.097 85.0138 149.866 85.5328 149.216 86.1828C148.565 86.8338 147.761 87.0948 147.429 86.7628C147.097 86.4308 148.661 85.1108 150.904 83.8298C153.148 82.5478 154.987 81.1178 154.991 80.6508C154.996 80.1838 153.367 80.7648 151.373 81.9418C149.379 83.1188 147.558 83.8928 147.328 83.6618C147.097 83.4318 148.954 82.0438 151.454 80.5788C157.067 77.2898 157.434 76.2268 151.999 78.9998L147.999 81.0408V76.5458C147.999 72.5328 148.331 71.8798 151.092 70.4518C152.793 69.5718 153.957 68.6238 153.678 68.3448C153.399 68.0658 152.261 68.3238 151.15 68.9188C148.102 70.5508 147.247 70.2148 149.835 68.4028C151.962 66.9118 151.999 66.7198 150.375 65.5328C146.37 62.6038 153.213 22.9198 160.025 9.57279C163.326 3.10479 163.905 2.49479 166.793 2.44079C168.53 2.40779 170.262 2.06979 170.642 1.69079C171.022 1.31079 179.807 0.999791 190.166 0.999791H208.999V6.47979C208.999 9.49379 209.725 13.7738 210.612 15.9908C211.973 19.3908 212.014 20.2768 210.877 21.6468C208.955 23.9628 203.281 27.3988 196.95 30.0808C187.49 34.0878 180.497 39.0188 176.994 44.1528C175.175 46.8188 173.353 48.9998 172.946 48.9998C172.539 48.9998 170.81 47.4088 169.103 45.4648C164.557 40.2878 165.317 42.2708 170.391 48.8258C180.725 62.1758 201.712 80.1508 213.111 85.4138C222.268 89.6418 229.232 90.8638 244.095 90.8498C250.472 90.8448 257.605 91.3548 259.946 91.9858C262.286 92.6158 264.405 92.9278 264.654 92.6778C265.815 91.5178 254.022 89.8498 239.499 89.1208C224.641 88.3748 222.946 88.0848 215.751 85.0658C211.489 83.2778 207.704 81.3318 207.34 80.7418C206.437 79.2818 210.932 75.7838 220.499 70.4988C224.899 68.0678 232.641 63.0238 237.704 59.2898C242.767 55.5548 248.552 51.6158 250.561 50.5348C254.148 48.6048 254.236 48.6038 255.605 50.4758C256.372 51.5248 256.999 52.0608 256.999 51.6688C256.999 50.6568 249.318 35.9358 247.423 33.3158C245.922 31.2408 245.988 31.0568 248.744 29.6318C250.339 28.8068 252.229 27.4268 252.944 26.5658C253.659 25.7048 254.834 24.9998 255.554 24.9998C256.722 24.9998 266.999 40.7088 266.999 42.4938C266.999 42.8878 268.437 45.2998 270.195 47.8548C271.952 50.4098 275.36 55.4248 277.766 58.9998C285.892 71.0698 296.257 81.3498 310.787 91.7538C318.329 97.1538 326.299 102.67 328.499 104.013C335.865 108.51 349.654 121.737 353.77 128.255C358.271 135.382 364.102 141 366.999 141C369.992 141 371.223 137.421 371.087 129.117C370.957 121.138 370.507 118.914 364.593 96.9998C353.768 56.8878 351 52.0798 325.628 29.3448C320.198 24.4798 313.994 17.9128 311.84 14.7498C307.665 8.61979 305.689 6.95079 308.692 12.0918C312.278 18.2308 323.754 30.1678 336.265 40.7748C338.337 42.5308 341.359 45.4788 342.981 47.3268L345.931 50.6858L339.215 59.6588C335.521 64.5938 331.149 70.5988 329.499 73.0028C325.893 78.2568 316.192 88.8028 313.747 90.1248C310.245 92.0188 294.293 79.2678 285.624 67.6448C280.356 60.5808 272.303 48.7238 268.252 42.0638L266.161 38.6288L270.55 33.4918C274.896 28.4048 282.406 17.3298 288.818 6.55379L292.136 0.976791L331.199 1.02379C352.683 1.04979 370.502 0.830791 370.796 0.535791C371.612 -0.280209 10.0823 0.178791 5.49926 0.999791ZM210.349 7.24979C211.741 20.9568 219.077 28.9938 232.256 31.2508C237.829 32.2058 239.404 32.1168 243.302 30.6288C250.152 28.0118 255.578 23.6268 257.581 19.0858C259.793 14.0728 260.695 14.3988 258.585 19.4488C257.358 22.3848 257.295 23.5008 258.267 25.0568C260.03 27.8798 261.56 27.4668 264.706 23.3158C266.242 21.2898 268.624 18.4408 269.999 16.9848C278.065 8.44279 282.999 2.72479 282.999 1.91879C282.999 1.41379 278.307 0.999791 272.572 0.999791C263.483 0.999791 262.087 1.22379 261.688 2.74979C261.253 4.41679 261.225 4.41679 261.115 2.74979C261.008 1.13179 259.067 0.999791 235.357 0.999791H209.714L210.349 7.24979ZM283.445 4.24979C279.808 8.57679 270.456 19.2928 265.542 24.7658C261.734 29.0058 261.642 29.2728 263.081 31.8358C263.903 33.3008 265.141 34.4998 265.832 34.4998C267.535 34.4998 277.497 21.8498 282.89 12.8378C285.306 8.80179 287.945 4.48779 288.755 3.24979C290.116 1.17179 290.074 0.999791 288.203 0.999791C287.089 0.999791 284.947 2.46179 283.445 4.24979ZM164.733 11.9998C156.874 27.6518 155.764 31.4648 155.229 44.6638C154.74 56.7098 154.761 56.8528 157.322 59.4138C160.244 62.3358 164.55 62.8068 167.558 60.5318C168.625 59.7238 169.798 59.0488 170.164 59.0318C170.53 59.0138 172.555 61.1588 174.664 63.7968C178.369 68.4318 185.317 75.0628 193.409 81.6868L197.301 84.8738L191.9 90.2268C188.93 93.1718 183.462 97.9658 179.749 100.882C173.843 105.52 171.686 108 173.559 108C174.436 108 190.114 94.6288 193.945 90.6118C195.841 88.6258 197.799 86.9998 198.298 86.9998C198.797 86.9998 201.392 88.9658 204.065 91.3688C209.379 96.1468 221.811 103.011 230.674 106.06C237.128 108.281 237.311 108.313 236.567 107.111C236.265 106.622 234.776 105.915 233.258 105.541C229.213 104.543 219.236 100.024 213.499 96.5888C206.501 92.4008 179.64 67.5818 171.733 57.9998C169.691 55.5248 168.271 54.2408 168.577 55.1458C169.25 57.1378 165.548 59.9998 162.3 59.9998C158.566 59.9998 156.952 56.2118 156.924 47.3868C156.889 36.1168 158.268 30.4548 164.01 18.2818C169.812 5.97979 170.424 0.665791 164.733 11.9998ZM1.41226 23.4998C1.41326 33.3998 1.56326 37.3148 1.74526 32.1988C1.92726 27.0838 1.92626 18.9838 1.74326 14.1988C1.56026 9.41479 1.41126 13.5998 1.41226 23.4998ZM231.754 11.4998C232.017 12.8748 232.352 13.9998 232.499 13.9998C232.646 13.9998 232.981 12.8748 233.244 11.4998C233.543 9.93579 233.264 8.99979 232.499 8.99979C231.734 8.99979 231.455 9.93579 231.754 11.4998ZM237.713 11.0158C238.509 14.0568 239.712 14.2818 240.246 11.4878C240.608 9.59579 240.298 8.99979 238.954 8.99979C237.674 8.99979 237.332 9.55579 237.713 11.0158ZM316.911 10.6388C317.957 12.7908 328.694 23.0828 334.751 27.7398C337.415 29.7878 338.275 30.0158 339.501 28.9978C340.325 28.3138 340.963 27.2478 340.92 26.6278C340.87 25.9188 340.654 25.9648 340.337 26.7498C340.059 27.4378 339.133 27.9998 338.279 27.9998C336.702 27.9998 323.829 17.2128 318.685 11.5808C316.742 9.45379 316.193 9.16179 316.911 10.6388ZM346.554 11.4588C347.595 16.6958 353.347 27.8478 355.64 29.0758C359.748 31.2738 361.019 29.7248 360.806 22.7808L360.614 16.4998L360.259 22.7498C359.913 28.8278 359.057 30.0608 356.451 28.2348C354.357 26.7668 351.036 21.1818 348.529 14.9108C347.119 11.3848 346.23 9.83179 346.554 11.4588ZM335.999 11.9408C335.999 12.4588 336.444 13.1568 336.988 13.4928C337.554 13.8428 337.722 13.4418 337.381 12.5518C336.716 10.8198 335.999 10.5028 335.999 11.9408ZM231.999 16.9998C231.999 17.5498 232.476 17.9998 233.058 17.9998C233.64 17.9998 233.839 17.5498 233.499 16.9998C233.159 16.4498 232.683 15.9998 232.44 15.9998C232.197 15.9998 231.999 16.4498 231.999 16.9998ZM237.999 16.9998C237.999 17.5498 238.476 17.9998 239.058 17.9998C239.64 17.9998 239.839 17.5498 239.499 16.9998C239.159 16.4498 238.683 15.9998 238.44 15.9998C238.197 15.9998 237.999 16.4498 237.999 16.9998ZM438.249 19.7158C439.761 19.9448 442.237 19.9448 443.749 19.7158C445.261 19.4868 444.024 19.2998 440.999 19.2998C437.974 19.2998 436.737 19.4868 438.249 19.7158ZM109.078 24.5828C109.126 25.7478 109.363 25.9848 109.682 25.1878C109.971 24.4658 109.935 23.6028 109.603 23.2708C109.271 22.9388 109.035 23.5288 109.078 24.5828ZM443.812 24.6828C444.533 24.9718 445.396 24.9358 445.728 24.6038C446.06 24.2718 445.47 24.0358 444.416 24.0788C443.251 24.1268 443.014 24.3638 443.812 24.6828ZM214.6 27.1638C215.108 27.9848 214.157 28.1208 211.212 27.6498C208.819 27.2668 206.863 27.4118 206.5 27.9978C206.15 28.5648 206.965 28.9998 208.381 28.9998C212.291 28.9998 212.367 30.7078 208.49 31.4358C206.57 31.7958 204.999 32.5508 204.999 33.1128C204.999 33.6998 204.094 33.8478 202.874 33.4598C201.384 32.9878 200.965 33.1358 201.472 33.9568C201.998 34.8068 201.143 34.9728 198.347 34.5618C196.231 34.2508 195.057 34.2588 195.74 34.5788C198.337 35.7968 194.394 37.9298 190.365 37.4868C188.238 37.2538 187.399 37.3168 188.499 37.6278C192.6 38.7878 192.57 40.1638 188.45 39.8818C185.875 39.7048 183.52 40.2218 181.978 41.3018L179.554 42.9998L182.026 43.0148C183.386 43.0238 185.174 43.4668 185.999 43.9998C187.112 44.7198 186.518 44.9728 183.69 44.9848C181.409 44.9938 180.129 45.4008 180.499 45.9998C180.839 46.5498 180.299 46.9998 179.299 46.9998C178.298 46.9998 176.909 47.9138 176.212 49.0308C175.114 50.7878 175.31 51.5408 177.671 54.6368C180.311 58.0968 201.358 76.7878 203.611 77.6718C204.223 77.9118 208.273 75.8338 212.611 73.0538C216.949 70.2748 220.821 67.9998 221.214 67.9998C223.102 67.9998 251.999 47.3598 251.999 46.0118C251.999 43.8958 249.642 39.0098 248.651 39.0738C245.901 39.2508 239.659 42.6718 240.799 43.3768C242.106 44.1838 242.465 46.1228 241.249 45.8018C239.859 45.4348 235.999 47.1258 235.999 48.1028C235.999 48.7028 235.265 48.6768 234.065 48.0348C231.202 46.5028 230.334 46.7798 232.558 48.5148C234.392 49.9468 234.333 49.9988 231.499 49.4578L228.499 48.8858L230.999 50.4808L233.499 52.0748L229.999 51.4398C226.68 50.8378 226.602 50.8858 228.499 52.3708C230.813 54.1818 230.187 54.4018 226.6 53.0378C224.98 52.4218 223.856 52.4218 223.475 53.0378C223.148 53.5668 223.556 53.9998 224.381 53.9998C225.206 53.9998 226.203 54.5208 226.596 55.1578C227.087 55.9508 226.633 56.1368 225.154 55.7508C223.785 55.3928 223.234 55.5708 223.647 56.2388C224.079 56.9388 223.352 57.0538 221.474 56.5828C218.885 55.9328 218.769 56.0178 220.074 57.6008C221.386 59.1898 221.317 59.2308 219.209 58.1068C217.279 57.0788 216.396 57.2098 213.599 58.9378C208.069 62.3558 201.928 64.1858 200.358 62.8828C197.332 60.3718 198.903 57.1808 207.296 48.7928C211.859 44.2318 217.495 38.4128 219.819 35.8628L224.046 31.2248L220.773 29.3058C216.156 26.5978 213.731 25.7568 214.6 27.1638ZM204.767 30.1678C205.349 30.7498 206.414 31.0278 207.136 30.7878C207.885 30.5378 207.431 30.0848 206.079 29.7308C204.416 29.2958 204.025 29.4258 204.767 30.1678ZM21.7613 32.7068C23.0053 32.9458 24.8053 32.9368 25.7613 32.6868C26.7173 32.4368 25.6993 32.2408 23.4993 32.2518C21.2993 32.2628 20.5173 32.4678 21.7613 32.7068ZM212.749 45.5998C205.737 52.9068 199.999 59.5858 199.999 60.4428C199.999 64.2638 206.533 61.4438 222.813 50.5958C229.79 45.9468 238.312 40.9268 241.749 39.4408C245.187 37.9548 247.985 36.4598 247.967 36.1188C247.95 35.7788 247.387 34.8248 246.717 33.9998C245.792 32.8608 243.095 32.4778 235.499 32.4068L225.499 32.3138L212.749 45.5998ZM109.014 35.7498C109.006 36.9868 109.449 37.9998 109.999 37.9998C111.252 37.9998 111.252 36.9388 109.999 34.9998C109.215 33.7868 109.027 33.9308 109.014 35.7498ZM183.749 41.6618C184.437 41.9398 185.562 41.9398 186.249 41.6618C186.937 41.3848 186.374 41.1578 184.999 41.1578C183.624 41.1578 183.062 41.3848 183.749 41.6618ZM1.46526 94.4998C1.46526 123.65 1.59226 135.431 1.74826 120.68C1.90426 105.928 1.90426 82.0778 1.74826 67.6798C1.59226 53.2808 1.46426 65.3498 1.46526 94.4998ZM25.2683 44.6928C26.2413 44.9468 27.5913 44.9298 28.2683 44.6558C28.9453 44.3818 28.1493 44.1748 26.4993 44.1948C24.8493 44.2148 24.2953 44.4388 25.2683 44.6928ZM24.7613 48.7068C26.0053 48.9458 27.8053 48.9368 28.7613 48.6868C29.7173 48.4368 28.6993 48.2408 26.4993 48.2518C24.2993 48.2628 23.5173 48.4678 24.7613 48.7068ZM164.999 48.6178C164.999 49.1678 165.66 50.4908 166.467 51.5588C167.275 52.6258 167.935 53.0498 167.935 52.4998C167.935 51.9498 167.275 50.6258 166.467 49.5588C165.66 48.4908 164.999 48.0678 164.999 48.6178ZM341.421 60.1968C338.714 63.6398 335.374 68.1058 333.999 70.1208C329.884 76.1528 324.853 82.2158 319.783 87.2528C317.152 89.8668 314.999 92.2138 314.999 92.4668C314.999 92.7208 316.687 94.0748 318.749 95.4768L322.499 98.0258L325.364 94.7628C330.43 88.9938 336.577 79.7608 342.36 69.2388C348.127 58.7448 348.571 57.4488 347.156 55.2188C346.581 54.3138 344.898 55.7758 341.421 60.1968ZM258.999 57.9998C259.588 59.0998 260.294 59.9998 260.569 59.9998C260.844 59.9998 260.588 59.0998 259.999 57.9998C259.41 56.8998 258.704 55.9998 258.429 55.9998C258.154 55.9998 258.41 56.8998 258.999 57.9998ZM348.999 59.8758C348.999 61.2298 336.36 83.8268 333.332 87.8888C331.851 89.8748 329.071 93.2708 327.155 95.4348L323.67 99.3698L326.049 100.935C337.927 108.748 349.531 119.9 356.261 129.969C358.639 133.527 362.09 137.317 363.929 138.391C367.227 140.317 367.294 140.318 368.736 138.422C370.741 135.786 369.794 118.753 367.156 110C366.078 106.425 363.757 98.3248 361.997 91.9998C358.687 80.1058 354.186 66.5448 351.957 61.7498C350.735 59.1228 348.999 58.0228 348.999 59.8758ZM268.921 72.9998C270.605 75.4748 274.349 80.2178 277.241 83.5398C280.133 86.8608 283.297 90.6858 284.272 92.0398L286.044 94.4998L284.616 91.4998C283.831 89.8498 281.008 85.9968 278.344 82.9378C275.679 79.8788 271.78 75.3788 269.679 72.9378L265.859 68.4998L268.921 72.9998ZM153.165 74.4818C150.259 76.0828 148.284 78.0018 149.549 77.9948C150.071 77.9918 151.849 76.8828 153.499 75.5308C156.803 72.8228 156.71 72.5288 153.165 74.4818ZM269.812 94.6828C270.533 94.9718 271.396 94.9358 271.728 94.6038C272.06 94.2718 271.47 94.0358 270.416 94.0788C269.251 94.1268 269.014 94.3638 269.812 94.6828ZM273.713 96.1138C275.172 97.5728 284.54 98.5518 285.299 97.3238C285.608 96.8238 284.334 96.5958 282.454 96.8148C280.581 97.0338 277.585 96.7028 275.797 96.0788C273.316 95.2148 272.822 95.2228 273.713 96.1138ZM140.44 103.555C138.576 105.049 138.588 105.067 140.749 104.02C141.987 103.42 142.999 102.72 142.999 102.465C142.999 101.7 142.48 101.921 140.44 103.555ZM238.499 107.751C239.554 108.854 250.578 112.008 260.249 113.973C263.412 114.616 265.999 115.52 265.999 115.983C265.999 116.445 262.792 118.082 258.872 119.619C254.952 121.157 252.208 122.57 252.774 122.758C253.34 122.947 257.203 121.674 261.359 119.93L268.915 116.758L277.207 118.984C281.768 120.208 285.682 121.384 285.907 121.596C286.799 122.441 268.596 130.185 261.373 132.032C252.105 134.403 250.885 134.461 251.637 132.5C252.437 130.415 250.341 130.614 249.001 132.75C248.085 134.211 248.012 134.087 248.564 132C249.082 130.038 248.958 129.752 247.99 130.672C247.311 131.316 246.146 131.61 245.4 131.324C244.602 131.018 243.559 131.871 242.862 133.402C242.211 134.831 241.29 136 240.815 136C240.341 136 240.69 134.875 241.591 133.5C242.5 132.112 242.759 131 242.173 131C241.592 131 240.834 131.457 240.489 132.016C240.143 132.575 239.462 132.786 238.974 132.484C238.486 132.183 237.331 133.09 236.407 134.499C234.423 137.528 233.32 137.137 234.999 134C237.024 130.215 235.176 130.585 232.916 134.417C230.679 138.207 228.971 138.789 230.953 135.086C232.727 131.771 231.176 132.669 228.942 136.25C226.972 139.408 226.933 139.422 227.565 136.75C228.429 133.099 227.432 133.261 225.451 137.093C224.571 138.794 223.623 139.958 223.344 139.679C223.065 139.4 223.339 138.233 223.953 137.086C224.597 135.882 224.667 135 224.118 135C223.595 135 222.569 136.35 221.839 138C221.108 139.65 220.171 141 219.755 141C218.734 141 218.804 140.234 220.034 137.934C221.701 134.819 219.897 135.698 215.961 139.918C212.431 143.705 212.321 143.747 212.708 141.168L213.109 138.5L211.497 141L209.885 143.5L210.461 140.75C210.778 139.238 210.818 138 210.55 138C210.282 138 209.392 139.238 208.571 140.75C207.731 142.299 207.048 142.845 207.007 142C206.934 140.477 206.298 141.097 202.39 146.5C201.179 148.174 200.795 148.264 200.04 147.053C199.291 145.852 198.83 145.983 197.318 147.829C195.849 149.623 193.863 150.237 186.999 151.018C182.324 151.55 177.997 151.988 177.384 151.992C175.571 152.005 170.929 156.078 171.562 157.102C171.882 157.619 172.922 157.082 173.873 155.907C175.313 154.128 177.52 153.548 187.051 152.442C194.76 151.546 201.275 150.086 206.999 147.971C223.192 141.986 233.545 138.996 243.499 137.43C260.467 134.761 270.085 132.064 280.809 126.966L291.12 122.065L299.226 125.023C310.238 129.042 318.54 134.689 327.761 144.43C334.539 151.591 336.557 154.68 343.848 169.059C348.433 178.102 352.645 185.95 353.207 186.5C353.769 187.05 350.359 179.85 345.63 170.5C326.762 133.198 316.224 126.285 255.741 111.531C247.625 109.551 240.2 107.656 239.241 107.318C238.047 106.898 237.814 107.035 238.499 107.751ZM165.831 113.363C159.953 119.843 155.598 128.268 156.424 131.559C157.659 136.476 163.196 136.07 181.499 129.718L193.499 125.554L221.668 125.027C237.16 124.737 250.059 124.275 250.331 124C250.604 123.725 237.928 123.505 222.163 123.511L193.499 123.522L178.047 128.614C162.757 133.653 159.361 134.107 158.267 131.255C157.368 128.913 161.643 121.257 167.032 115.559C171.54 110.792 173.22 107.824 171.249 108.108C170.837 108.167 168.398 110.532 165.831 113.363ZM452.793 109.75C452.615 110.162 452.738 113.2 453.066 116.5L453.663 122.5L453.831 115.75C453.984 109.601 453.662 107.738 452.793 109.75ZM453.686 132.25C454.488 139.351 454.999 139.513 454.999 132.667C454.999 129.55 454.57 127 454.046 127C453.488 127 453.339 129.175 453.686 132.25ZM455.157 145C455.157 146.375 455.384 146.938 455.661 146.25C455.939 145.563 455.939 144.438 455.661 143.75C455.384 143.063 455.157 143.625 455.157 145ZM0.950258 156.75C0.682258 204.204 0.904258 252.239 1.39426 252.728C1.72726 253.061 1.99926 229.633 1.99926 200.667C1.99926 171.7 1.77426 148 1.49926 148C1.22426 148 0.977258 151.938 0.950258 156.75ZM454.999 150.833C454.999 152.575 455.458 154 456.018 154C456.623 154 456.769 152.883 456.377 151.25C455.436 147.324 454.999 147.192 454.999 150.833ZM304.44 152.498C304.837 154.147 305.237 155.497 305.33 155.498C305.423 155.499 306.561 156.097 307.859 156.827C310.124 158.101 310.106 158.002 307.399 154.327C305.848 152.222 304.386 150.275 304.149 150C303.912 149.725 304.043 150.849 304.44 152.498ZM455.709 157C455.997 158.1 456.405 159 456.616 159C456.826 159 456.999 158.1 456.999 157C456.999 155.9 456.591 155 456.093 155C455.594 155 455.422 155.9 455.709 157ZM307.02 159.919C306.972 163.173 318.16 179.7 323.997 185C327.562 188.236 333.307 197.414 335.054 202.666C337.485 209.971 342.524 219.387 346.735 224.495C348.255 226.339 352.497 230.117 356.161 232.891C363.172 238.198 366.019 242.681 370.202 255C371.229 258.025 371.86 259.138 371.604 257.474C370.92 253.023 367.25 243.668 364.712 239.904C363.495 238.099 359.423 234.12 355.664 231.061C347.408 224.344 340.095 213.872 337.004 204.342C334.216 195.747 332.325 192.817 321.846 180.862C317.2 175.561 311.968 168.361 310.22 164.862C308.471 161.363 307.031 159.139 307.02 159.919ZM455.729 176.218C455.934 185.138 456.304 192.638 456.551 192.885C456.797 193.132 456.999 185.833 456.999 176.667C456.999 167.5 456.629 160 456.177 160C455.725 160 455.523 167.298 455.729 176.218ZM314.173 164.715C315.624 166.483 319.48 170.151 322.743 172.867C329.408 178.413 333.217 182.954 337.957 191C339.739 194.025 340.905 195.6 340.549 194.5C339.261 190.518 333.408 181.698 329.365 177.644C322.443 170.704 311.319 161.237 314.173 164.715ZM29.9993 164C29.0983 164.582 28.9743 164.975 29.6903 164.985C30.3453 164.993 31.1593 164.55 31.4993 164C32.2663 162.758 31.9203 162.758 29.9993 164ZM181.082 164.413C181.312 164.641 184.649 166.488 188.499 168.518C192.567 170.663 198.496 175.102 202.655 179.117C211.936 188.075 217.518 190.633 230.499 191.872C239.042 192.688 247.192 194.499 245.888 195.292C245.674 195.422 238.299 195.259 229.499 194.93C215.812 194.419 212.739 193.999 208.24 192.029C203.732 190.055 203.161 189.507 204.24 188.19C205.327 186.863 205.158 186.74 202.999 187.287L200.499 187.92L202.999 185.982C205.822 183.794 205.375 183.526 201.415 185.032C199.12 185.904 198.882 185.845 199.876 184.649C201.349 182.873 198.794 181.635 195.608 182.581C193.515 183.202 193.514 183.195 195.499 181.635C197.782 179.841 195.976 179.407 192.956 181.023C191.438 181.835 191.159 181.748 191.6 180.596C192.019 179.506 191.602 179.291 189.922 179.73C188.234 180.172 187.887 179.99 188.507 178.988C189.106 178.018 188.878 177.841 187.663 178.33C183.154 180.145 182.602 180.101 184.999 178.115C187.916 175.699 185.686 175.166 182.558 177.532C179.599 179.77 178.457 179.281 181.138 176.924C182.437 175.782 182.922 175.143 182.216 175.503C181.51 175.864 179.26 176.345 177.216 176.572C173.751 176.957 173.631 176.883 175.44 175.492C176.508 174.672 176.872 174 176.249 174C175.626 174 174.855 174.423 174.536 174.941C174.212 175.464 171.724 174.724 168.926 173.272C159.25 168.252 141.427 169.377 129.726 175.745C122.521 179.667 115.473 188.011 113.106 195.423C110.168 204.621 109.838 211.385 110.92 240.129C111.466 254.633 112.197 280.147 112.544 296.826C112.891 313.506 113.512 330.606 113.923 334.826C114.334 339.047 114.497 361.85 114.285 385.5C114.073 409.15 113.715 462.475 113.489 504C113.263 545.525 112.723 586.25 112.288 594.5C111.365 612.038 112.12 628.679 115.096 656.446C117.247 676.512 118.095 706.835 117.26 733.843C116.882 746.075 116.858 746.181 114.622 745.62C113.381 745.309 99.3463 744.937 83.4323 744.793C67.5193 744.65 48.6483 744.301 41.4973 744.016C29.3323 743.533 28.4953 743.371 28.4973 741.5C28.4983 740.05 27.7263 739.411 25.6903 739.178C22.8883 738.857 22.4353 737.021 24.9513 736.183C25.6803 735.94 26.0233 736.152 25.7123 736.656C25.4003 737.159 26.0133 737.571 27.0723 737.571C28.1323 737.571 28.9993 736.966 28.9993 736.227C28.9993 735.487 29.3673 735.109 29.8173 735.387C30.2673 735.665 31.2663 735.017 32.0383 733.946C33.6933 731.65 35.4643 731.346 34.6373 733.5C34.2543 734.499 34.6773 735 35.9053 735C37.1713 735 37.9743 733.982 38.4673 731.75C38.8633 729.962 39.4063 729.063 39.6763 729.75C40.3453 731.456 41.8233 731.319 43.7743 729.368C45.2833 727.859 45.2403 727.789 43.2023 728.435C41.8713 728.858 40.9993 728.713 40.9993 728.067C40.9993 727.48 41.4493 727 41.9993 727C42.5493 727 42.8863 726.466 42.7493 725.813C42.6113 725.16 44.0743 723.813 45.9993 722.819L49.4993 721.012L46.4993 721.511L43.4993 722.011L46.7493 720.502C50.2473 718.879 51.2463 716.441 48.0743 717.27C46.7603 717.614 46.3103 717.354 46.6573 716.45C46.9383 715.718 47.8703 715.397 48.7423 715.732C49.9763 716.205 50.1933 715.851 49.7373 714.107C49.3593 712.66 49.6643 711.682 50.6063 711.32C51.5023 710.977 51.8303 710.042 51.4613 708.882C51.0933 707.72 51.3463 707 52.1233 707C52.8243 707 52.5223 706.35 51.4403 705.532C49.5483 704.1 49.5553 704.063 51.7493 704.032C52.9863 704.014 53.9993 703.55 53.9993 703C53.9993 702.45 53.5223 702 52.9403 702C52.3583 702 52.1593 701.55 52.4993 701C52.8393 700.45 52.7153 700 52.2253 700C51.7343 700 51.3323 699.325 51.3323 698.5C51.3323 697.675 51.7073 697 52.1663 697C52.6243 697 52.9993 696.367 52.9993 695.594C52.9993 694.68 53.6993 694.37 54.9993 694.71C56.0993 694.998 56.9993 694.924 56.9993 694.545C56.9993 693.37 54.4513 691.239 52.4283 690.724C51.0653 690.376 51.3793 690.169 53.4993 690.016C56.4683 689.803 56.4733 689.792 53.9993 689L51.4993 688.199L54.2493 688.1C57.6983 687.975 57.6983 687.334 54.2493 684.368C51.5693 682.063 51.5563 682.002 53.7493 682.001C54.9863 682.001 55.9993 681.55 55.9993 681C55.9993 680.45 54.5373 679.993 52.7493 679.985C50.4543 679.974 49.9133 679.707 50.9083 679.077C51.6833 678.587 52.9213 678.417 53.6583 678.7C55.1803 679.284 55.3803 678.15 54.1093 676.143C53.5913 675.326 52.4513 675.039 51.2423 675.423C48.4233 676.318 47.4513 673.282 49.7253 670.686C51.3823 668.794 51.3853 668.703 49.7643 669.293C48.6323 669.706 47.6773 669.267 47.0143 668.029C45.6293 665.439 45.7273 665 47.6903 665C49.1653 665 49.1333 664.812 47.4403 663.532C45.5253 662.083 45.5253 662.062 47.4993 661.953C48.5993 661.892 48.9373 661.615 48.2493 661.338C46.5083 660.635 46.6833 659 48.4993 659C49.3243 659 49.9993 658.517 49.9993 657.927C49.9993 657.336 49.2113 657.008 48.2493 657.196C47.1943 657.403 46.0023 656.592 45.2493 655.155C43.6283 652.064 43.6433 652 45.9993 652C48.8633 652 48.4663 650.57 45.2493 649.299L42.4993 648.213L45.4043 648.106C48.1533 648.006 48.2203 647.902 46.6543 646.171C45.7443 645.165 44.9993 642.883 44.9993 641.1C44.9993 638.349 44.6573 637.885 42.7493 638.039C38.3103 638.399 37.8313 638.095 39.7103 636.108C40.6943 635.067 42.3673 634.055 43.4283 633.858C46.3303 633.319 45.8793 631.544 42.7493 631.184C39.3593 630.794 39.0873 629 42.4173 629C49.0273 629 49.2793 626.086 42.6903 625.85C39.4763 625.735 39.1983 625.613 41.4993 625.326C51.2453 624.11 51.6943 622.047 42.2493 621.881L35.4993 621.762L40.7493 620.805C46.3323 619.787 47.8353 618.053 43.2493 617.921C41.7363 617.878 41.0623 617.615 41.7493 617.338C44.7763 616.116 42.5093 614.988 36.7493 614.85C33.3123 614.768 31.8493 614.523 33.4993 614.307C38.8633 613.604 39.7463 613.039 37.7653 611.58C36.8113 610.877 36.3023 610.031 36.6343 609.699C37.4293 608.904 34.5113 606.02 32.8203 605.93C32.0943 605.891 32.3993 605.473 33.4993 605C35.4183 604.175 35.4093 604.138 33.2803 604.07C31.7333 604.021 31.2363 603.546 31.6373 602.5C32.3673 600.6 33.4563 600.6 35.3563 602.5C37.3843 604.528 37.4993 604.448 37.4993 601.014C37.4993 599.371 37.0493 598.07 36.4993 598.122C35.9493 598.174 34.5123 597.897 33.3053 597.506C30.2803 596.527 32.4743 594.218 35.9463 594.726L38.4993 595.1L35.7583 593.522C33.3463 592.135 33.1663 591.703 34.2583 589.93C34.9893 588.741 36.2173 588.099 37.2493 588.363C38.2113 588.611 38.9993 588.405 38.9993 587.906C38.9993 587.408 37.6173 587 35.9283 587C32.9113 587 29.5153 584.818 30.6953 583.637C31.0263 583.307 32.4053 583.315 33.7603 583.655L36.2233 584.273L33.9183 581.621C32.6493 580.163 31.5193 578.339 31.4063 577.568C31.1593 575.884 35.3173 574.672 38.3343 575.549C39.6553 575.932 39.0253 575.146 36.7183 573.532C34.1353 571.724 32.2723 571.096 30.8423 571.55C29.3533 572.022 28.9633 571.867 29.4923 571.012C29.9223 570.315 31.6583 569.975 33.6173 570.204C35.9273 570.473 36.9993 570.187 36.9993 569.299C36.9993 568.585 36.0513 568 34.8923 568C33.4303 568 32.9613 567.541 33.3613 566.5C33.7173 565.57 33.3563 565 32.4093 565C29.7263 565 32.0073 563.004 34.8083 562.9L37.4993 562.801L35.0093 562.108C33.4643 561.678 32.9563 561.145 33.6693 560.704C34.3013 560.313 35.5963 560.292 36.5453 560.656C39.2183 561.682 37.8073 558.738 34.9203 557.265L32.4993 556.029L34.7843 556.015C36.7323 556.002 36.9173 555.715 36.0343 554.066C34.5873 551.361 34.7083 551.111 37.1553 551.751C38.6333 552.138 39.0873 551.951 38.5963 551.158C38.2033 550.521 36.6703 549.954 35.1903 549.898C32.5913 549.799 32.6113 549.76 35.7813 548.744C37.5863 548.166 38.8993 547.199 38.6983 546.596C38.1643 544.995 35.4473 545.253 35.7903 546.873C35.9803 547.772 35.5213 548.031 34.4583 547.623C33.5663 547.28 32.3103 546.986 31.6673 546.97C31.0253 546.953 31.2873 546.481 32.2493 545.92C33.2903 545.314 33.9993 543.705 33.9993 541.95C33.9993 540.328 34.4493 539 34.9993 539C35.5493 539 35.9993 538.502 35.9993 537.893C35.9993 537.284 35.3013 537.054 34.4473 537.382C33.5573 537.723 33.1563 537.555 33.5063 536.989C33.8423 536.445 35.0173 536 36.1173 536C37.2173 536 37.8393 535.55 37.4993 535C37.1593 534.45 37.3843 534 37.9993 534C38.6143 534 38.8283 533.532 38.4743 532.959C38.1203 532.387 37.0063 532.18 35.9993 532.5C34.9923 532.82 33.8593 532.583 33.4833 531.973C33.0883 531.336 33.6893 530.632 34.8983 530.316C36.0543 530.014 36.9993 528.961 36.9993 527.977C36.9993 526.68 37.5493 526.331 38.9993 526.71C40.1173 527.003 40.9993 526.741 40.9993 526.117C40.9993 525.502 40.5173 525 39.9283 525C39.3383 525 38.2813 524.425 37.5783 523.722C35.8963 522.04 38.3193 519.554 40.8003 520.415C41.9883 520.827 41.8353 520.439 40.2923 519.126C37.9053 517.096 38.1883 515.829 40.8473 516.644C42.2093 517.062 42.1883 516.951 40.7283 516.014C38.6383 514.672 39.3603 512.817 41.6323 513.689C43.0243 514.223 43.0133 513.927 41.5373 511.074C40.4613 508.992 40.2043 507.44 40.8103 506.678C41.3263 506.03 41.5803 504.473 41.3753 503.218C41.1503 501.843 41.5973 500.708 42.5003 500.361C43.3253 500.045 43.9993 498.972 43.9993 497.976C43.9993 496.981 44.3363 495.978 44.7493 495.747C45.1623 495.517 44.9373 495.465 44.2493 495.633C42.6843 496.014 42.5813 492.306 44.1433 491.785C45.6983 491.267 46.1863 486.004 44.6813 485.985C43.9843 485.976 44.1143 485.572 44.9993 485C46.4523 484.061 46.3073 483.89 43.8323 483.625C42.4053 483.472 41.4423 481 42.8103 481C44.1903 481 43.7653 475.767 42.2553 474.179C40.4333 472.262 40.7063 471.044 43.1593 470.136C45.0093 469.452 45.0813 469.245 43.6593 468.7C41.2643 467.781 41.6183 464.489 44.2493 463.22C45.7343 462.504 45.9723 462.112 44.9493 462.068C44.0973 462.03 42.8403 462.559 42.1573 463.242C41.1693 464.23 40.7343 464.189 40.0233 463.039C38.9453 461.295 39.5993 460 41.5583 460C42.3513 460 42.9993 459.592 42.9993 459.094C42.9993 458.595 41.9863 458.441 40.7493 458.751C38.5093 459.311 38.5083 459.304 40.4313 457.127C43.1243 454.079 42.7633 444.792 40.0183 446.489C39.4433 446.844 39.2743 446.448 39.6173 445.552C39.9453 444.698 40.6413 444 41.1653 444C41.6893 444 41.8203 443.52 41.4583 442.933C41.0953 442.347 41.6313 441.236 42.6493 440.465C44.3633 439.167 44.3703 439.061 42.7493 439.032C40.8623 438.998 40.3383 437.387 42.0303 436.823C43.6143 436.295 41.1593 430.192 39.1723 429.716C37.9493 429.423 38.2963 428.988 40.4653 428.1C42.8313 427.131 43.1343 426.697 41.9653 425.958C41.1593 425.448 40.9493 425.017 41.4993 425C42.7323 424.962 39.8703 423.037 38.5493 423.015C38.0263 423.007 38.1393 423.54 38.7993 424.2C39.4593 424.86 39.9993 425.839 39.9993 426.375C39.9993 426.911 39.1573 426.484 38.1273 425.425C35.6003 422.826 36.3943 421.922 40.8093 422.371C42.8393 422.577 43.7113 422.547 42.7493 422.303C41.7873 422.06 40.9993 421.217 40.9993 420.43C40.9993 419.644 40.3063 419 39.4603 419C38.2373 419 38.3483 418.541 40.0043 416.765C41.1493 415.535 41.6173 414.373 41.0433 414.181C39.5043 413.668 39.7733 412 41.3953 412C42.4053 412 42.7313 410.824 42.5743 407.75C42.4373 405.068 42.9073 402.95 43.8473 402.009C44.9673 400.889 45.4413 400.827 45.7523 401.759C45.9803 402.442 46.6303 403 47.1973 403C47.7653 403 47.4843 401.862 46.5723 400.472C45.6613 399.081 45.1573 397.553 45.4523 397.077C45.7463 396.6 45.2643 395.932 44.3813 395.593C43.1033 395.102 43.0193 394.681 43.9723 393.532C44.6323 392.738 44.8383 391.548 44.4313 390.889C43.9333 390.084 44.1163 389.954 44.9893 390.494C45.9703 391.1 46.1643 390.642 45.7783 388.625C45.4973 387.155 45.7403 385.66 46.3173 385.304C46.9343 384.922 46.5703 384.343 45.4333 383.898C43.7373 383.234 43.8073 383.13 45.9993 383.055C48.0003 382.986 48.2003 382.773 46.9993 381.985C45.9253 381.279 45.8253 380.787 46.6473 380.25C48.2873 379.178 48.8103 373.433 47.2383 373.75C46.5573 373.888 45.9993 373.55 45.9993 373C45.9993 372.45 46.5623 371.986 47.2493 371.968C47.9543 371.95 47.6283 371.238 46.4993 370.334C44.6823 368.878 44.6703 368.79 46.3703 369.38C47.8953 369.91 48.1253 369.658 47.6203 368.015C47.2783 366.907 46.7313 365.135 46.4033 364.077C45.9043 362.47 46.2453 362.203 48.4863 362.449C50.6773 362.69 51.0763 362.402 50.6763 360.872C50.3473 359.614 50.7293 358.977 51.8433 358.93C53.1523 358.874 53.0803 358.679 51.4993 358C50.3993 357.527 49.8923 357.109 50.3713 357.07C50.8513 357.032 50.6753 356.315 49.9803 355.477C48.9073 354.185 49.0023 354.059 50.6083 354.647C52.4243 355.312 52.4223 355.251 50.5433 353.114C48.9263 351.273 48.7963 350.554 49.7933 348.958C51.3593 346.451 51.3143 346 49.4993 346C48.6743 346 47.9993 345.55 47.9993 345C47.9993 344.45 48.4763 344 49.0583 344C49.6403 344 49.8393 343.55 49.4993 343C49.1593 342.45 49.3863 342 50.0033 342C50.6203 342 50.9953 341.212 50.8373 340.25C50.6783 339.288 50.9323 337.889 51.3993 337.143C52.0443 336.114 51.7703 335.938 50.2653 336.415C49.0553 336.8 47.7893 336.451 47.0183 335.523C45.9373 334.22 46.1693 333.996 48.6273 333.97C50.8403 333.946 51.1413 333.73 49.9383 333.026C48.9453 332.444 48.4583 330.94 48.6003 328.889C48.9343 324.056 47.3913 320.741 45.1393 321.455C44.0293 321.808 42.7253 321.374 41.8983 320.378C40.6623 318.888 40.7523 318.787 42.7513 319.421C44.5493 319.992 44.8653 319.814 44.3653 318.511C43.9673 317.475 42.8293 317 41.2083 317.195C39.8143 317.363 38.4963 316.973 38.2793 316.329C38.0273 315.581 38.6343 315.353 39.9573 315.699C41.5793 316.123 41.8913 315.881 41.3933 314.583C41.0423 313.671 41.4473 312.156 42.2943 311.213C44.0093 309.302 43.5023 303.879 41.6293 304.102C38.9713 304.419 38.2493 303.854 38.2493 301.458C38.2493 299.111 38.3823 299.036 39.9813 300.483C41.5313 301.886 41.8453 301.891 42.9783 300.525C44.0433 299.242 43.9173 299 42.1893 299C41.0123 299 39.8623 298.145 39.4993 296.999C38.8593 294.985 35.2493 292.416 34.3383 293.328C34.0693 293.597 34.7823 294.114 35.9243 294.476C37.0653 294.838 37.9993 295.554 37.9993 296.067C37.9993 297.267 37.6253 297.242 34.5553 295.844C32.7153 295.005 32.1263 294.085 32.4133 292.5C32.6313 291.296 32.4283 289.695 31.9623 288.94C31.4683 288.14 31.5583 287.031 32.1793 286.284C33.0003 285.294 32.6393 285 30.6023 285H27.9593L28.2293 263.794L28.4993 242.589L30.8083 242.044C33.8603 241.325 33.5713 239.448 30.4453 239.688C27.0653 239.948 27.3483 238.208 30.7493 237.816C34.3603 237.401 34.1743 235.652 30.4423 234.934C27.8793 234.441 28.1783 234.267 32.7493 233.59C39.6413 232.569 39.8083 230.507 32.9333 231.321C28.5123 231.845 27.9093 231.704 28.1923 230.211C28.4413 228.898 29.8923 228.384 34.4303 228C38.2533 227.677 40.5063 227.006 40.8033 226.104C41.1763 224.973 40.2833 224.837 36.1193 225.39C33.2903 225.765 30.2443 226.353 29.3503 226.695C28.2443 227.12 27.8743 226.875 28.1903 225.926C28.4463 225.159 30.5323 224.161 32.8273 223.707C38.2073 222.643 38.3413 220.662 32.9993 221.171C30.7993 221.381 28.9993 221.203 28.9993 220.776C28.9993 220.349 29.8243 220 30.8323 220C33.2913 220 33.8803 219.262 33.2743 216.942C32.9573 215.733 31.9023 215 30.4763 215C28.7063 215 28.3013 214.562 28.6913 213.069C29.0143 211.833 29.7903 211.321 30.8483 211.645C32.2373 212.071 32.2213 211.973 30.7493 211.026C29.7873 210.407 29.0353 209.135 29.0783 208.2C29.1223 207.253 29.3723 207.029 29.6433 207.694C29.9103 208.35 30.7743 208.64 31.5643 208.337C32.3533 208.034 32.9993 208.284 32.9993 208.893C32.9993 209.502 33.6743 210 34.4993 210C36.8133 210 36.2743 208.082 33.6203 206.873C32.0463 206.156 31.3993 205.187 31.7073 204.008C31.9643 203.028 31.7043 201.936 31.1303 201.581C29.7083 200.702 30.8663 198 32.6653 198C33.5143 198 33.8183 197.517 33.3993 196.838C32.8953 196.023 32.2043 196.248 31.0903 197.588C30.2153 198.639 28.9373 199.545 28.2493 199.6C27.5623 199.655 26.4953 199.767 25.8803 199.85C25.0603 199.96 24.8593 228.906 25.1303 308.25C25.4303 396.313 25.2323 419.484 24.0693 432.5C23.0463 443.948 22.6043 465.429 22.5173 508C22.4283 551.294 22.0013 571.722 20.9473 583C19.9253 593.936 19.5243 611.16 19.5833 641.5C19.6683 684.918 20.1213 693.278 22.2693 691.13C23.8063 689.593 26.5113 689.707 27.8893 691.367C29.2683 693.029 27.8523 694.401 23.7493 695.381C21.2563 695.977 20.9993 696.457 20.9993 700.519V705H25.3773C28.0483 705 30.2393 704.415 30.9993 703.5C31.6843 702.675 32.8643 702 33.6213 702C35.8453 702 35.2213 706.63 32.5863 709.694C30.5943 712.01 29.3713 712.5 25.5863 712.5H20.9993V728.75V745H11.4993H1.99926V499.333C1.99926 364.217 1.71826 253.948 1.37426 254.292C0.405258 255.261 0.176258 782 1.14426 782C1.61426 782 1.99926 774.107 1.99926 764.46V746.92L54.7493 747.429C83.7623 747.71 170.949 748.209 248.499 748.54C326.049 748.871 405.136 749.298 424.248 749.489L458.996 749.837L458.276 747.169C457.88 745.701 457.543 736.738 457.527 727.251C457.512 717.763 457.113 710.001 456.641 710.001C456.169 710 455.945 718.555 456.143 729.011L456.502 748.021L414 747.761L371.499 747.5L370.365 732L369.23 716.5L369.302 732L369.374 747.5L280.937 747.093C232.296 746.869 190.024 746.612 186.999 746.521C183.974 746.43 167.471 746.275 150.326 746.178L119.154 746L119.304 710.25C119.426 681.269 119.122 671.944 117.697 661C114.901 639.521 113.275 617.323 113.706 606.5C115.427 563.267 115.686 536.913 115.451 428.5C115.305 360.85 114.945 303.475 114.651 301C113.97 295.264 112.479 234.942 112.563 216.5C112.612 205.767 113.052 201.216 114.448 197C118.835 183.759 130.647 174.411 146.189 171.881C155.39 170.383 161.929 171.523 170.654 176.146C174.827 178.357 180.83 180.599 184.136 181.181C188.508 181.951 192.148 183.574 197.797 187.271C210.426 195.537 212.408 196.151 227.875 196.601C235.368 196.818 243.974 197.217 246.999 197.486L252.499 197.975L249.64 195.613C245.903 192.526 240.803 191.065 229.78 189.925C218.102 188.717 214.078 186.828 204.443 178.033C199.275 173.316 193.988 169.597 189.315 167.391C182.814 164.323 179.946 163.285 181.082 164.413ZM29.9993 179.862C29.9993 180.4 28.5973 181.149 26.8843 181.525C23.7923 182.204 23.7723 182.25 24.2163 187.604C24.7503 194.039 25.1223 194.54 28.1613 192.913C29.9603 191.951 30.1513 191.545 28.9963 191.14C28.0783 190.818 29.0463 190.139 31.4993 189.384L35.4993 188.154L31.4993 187.961C29.2993 187.855 28.2873 187.562 29.2493 187.311C30.2113 187.059 31.0373 186.324 31.0823 185.677C31.1283 185.03 31.2793 183.468 31.4183 182.208C31.5573 180.947 31.2953 179.683 30.8353 179.399C30.3753 179.114 29.9993 179.323 29.9993 179.862ZM196.506 183.989C196.156 184.555 196.557 184.723 197.447 184.382C199.179 183.717 199.496 183 198.058 183C197.54 183 196.842 183.445 196.506 183.989ZM38.5523 188.915C38.2303 189.436 38.3933 190.125 38.9143 190.447C39.4353 190.769 40.1243 190.606 40.4463 190.085C40.7683 189.564 40.6053 188.875 40.0843 188.553C39.5633 188.231 38.8743 188.394 38.5523 188.915ZM354.563 190.293C354.939 191.279 355.498 191.834 355.806 191.526C356.114 191.219 355.807 190.412 355.123 189.733C354.135 188.753 354.021 188.868 354.563 190.293ZM33.6663 192.667C33.2993 193.033 32.9993 193.798 32.9993 194.367C32.9993 194.993 33.4653 194.934 34.1823 194.217C34.8333 193.566 35.1333 192.801 34.8493 192.517C34.5653 192.232 34.0323 192.3 33.6663 192.667ZM356.07 193.5C356.07 194.05 356.713 195.625 357.499 197C358.285 198.375 358.928 199.05 358.928 198.5C358.928 197.95 358.285 196.375 357.499 195C356.713 193.625 356.07 192.95 356.07 193.5ZM456.567 226.75C455.32 282.263 455.069 359 456.134 359C456.761 359 457.07 345.014 456.991 320.25C456.923 298.938 457.195 262.038 457.596 238.25C457.997 214.462 458.089 195 457.802 195C457.515 195 456.959 209.287 456.567 226.75ZM24.9993 196.969C24.9993 197.501 25.6743 197.678 26.4993 197.362C27.3243 197.045 27.9993 196.609 27.9993 196.393C27.9993 196.177 27.3243 196 26.4993 196C25.6743 196 24.9993 196.436 24.9993 196.969ZM340.999 197.378C340.999 197.585 341.684 198.324 342.522 199.019C343.795 200.076 343.942 200.014 343.415 198.641C342.877 197.24 340.999 196.257 340.999 197.378ZM344.81 202.592C345.41 203.742 348.469 207.253 351.609 210.393C355.992 214.776 357.902 216.032 359.832 215.801C361.214 215.635 362.565 214.825 362.835 214C363.249 212.73 363.076 212.705 361.71 213.833C359.195 215.908 356.582 214.44 349.898 207.195C346.5 203.513 344.211 201.441 344.81 202.592ZM30.8123 213.683C31.5333 213.972 32.3963 213.936 32.7283 213.604C33.0603 213.272 32.4703 213.036 31.4163 213.079C30.2513 213.127 30.0143 213.364 30.8123 213.683ZM399.184 220.713C399.496 223.369 399.58 223.397 407.499 223.448L415.499 223.5V236.547C415.499 247.354 415.195 250.058 413.726 252.297C410.787 256.777 405.499 255.622 405.499 250.5C405.499 248.745 404.733 248.464 399.249 248.202C393.52 247.929 392.999 248.075 392.999 249.952C392.999 251.417 393.648 252 395.28 252C396.866 252 397.886 252.863 398.631 254.835C400.415 259.561 406.183 263.219 411.991 263.306C421.975 263.457 425.555 256.113 425.423 235.75L425.347 224H434.114C438.936 224 443.111 223.628 443.392 223.174C443.673 222.719 443.652 221.391 443.347 220.222C442.802 218.137 442.368 218.096 420.83 218.063L398.869 218.03L399.184 220.713ZM319.749 248.572C315.872 250.675 316.311 251.401 320.249 249.399C324.019 247.481 324.686 246.985 323.416 247.04C322.912 247.062 321.261 247.751 319.749 248.572ZM135.999 254.5C137.865 256.425 139.616 258 139.891 258C140.166 258 138.865 256.425 136.999 254.5C135.133 252.575 133.382 251 133.107 251C132.832 251 134.133 252.575 135.999 254.5ZM312.506 252.989C312.156 253.555 312.557 253.723 313.447 253.382C315.179 252.717 315.496 252 314.058 252C313.54 252 312.842 252.445 312.506 252.989ZM222.499 255.829C212.622 259.181 205.304 264.796 200.975 272.345C197.347 278.67 197.112 281.045 200.195 280.238C202.073 279.747 202.143 279.577 200.675 279.062C199.183 278.538 199.477 277.661 202.926 272.353C209.857 261.688 219.172 256.331 232.999 255.06L241.499 254.279L234.499 254.206C230.358 254.162 225.457 254.825 222.499 255.829ZM242.812 255.683C243.533 255.972 244.396 255.936 244.728 255.604C245.06 255.272 244.47 255.036 243.416 255.079C242.251 255.127 242.014 255.364 242.812 255.683ZM250.999 258C251.824 258.533 252.949 258.969 253.499 258.969C254.049 258.969 253.824 258.533 252.999 258C252.174 257.467 251.049 257.031 250.499 257.031C249.949 257.031 250.174 257.467 250.999 258ZM262.225 264.579C263.175 265.57 264.167 266.166 264.43 265.903C264.693 265.64 263.916 264.829 262.704 264.1C260.597 262.835 260.576 262.857 262.225 264.579ZM251.506 267.989C251.156 268.555 251.557 268.723 252.447 268.382C254.179 267.717 254.496 267 253.058 267C252.54 267 251.842 267.445 251.506 267.989ZM264.999 267.378C264.999 267.585 265.787 268.373 266.749 269.128C268.335 270.371 268.37 270.336 267.127 268.75C265.82 267.084 264.999 266.555 264.999 267.378ZM251.563 271.293C251.939 272.279 252.498 272.834 252.806 272.526C253.114 272.219 252.807 271.412 252.123 270.733C251.135 269.753 251.021 269.868 251.563 271.293ZM269.963 273.933C270.532 274.996 271.46 277.083 272.026 278.571C272.592 280.06 273.299 281.034 273.597 280.736C274.179 280.154 270.302 272 269.443 272C269.16 272 269.394 272.87 269.963 273.933ZM371.157 275C371.157 276.375 371.384 276.938 371.661 276.25C371.939 275.563 371.939 274.438 371.661 273.75C371.384 273.063 371.157 273.625 371.157 275ZM371.078 279.583C371.126 280.748 371.363 280.985 371.682 280.188C371.971 279.466 371.935 278.603 371.603 278.271C371.271 277.939 371.035 278.529 371.078 279.583ZM273.709 284C273.997 285.1 274.588 286 275.022 286C275.456 286 275.576 285.1 275.289 284C275.001 282.9 274.41 282 273.976 282C273.542 282 273.422 282.9 273.709 284ZM371.078 283.583C371.126 284.748 371.363 284.985 371.682 284.188C371.971 283.466 371.935 282.603 371.603 282.271C371.271 281.939 371.035 282.529 371.078 283.583ZM371.232 290.5C371.215 293.25 371.766 300.675 372.457 307C373.148 313.325 373.744 316.7 373.782 314.5C373.82 312.3 373.268 304.875 372.557 298C371.846 291.125 371.25 287.75 371.232 290.5ZM275.078 289.583C275.126 290.748 275.363 290.985 275.682 290.188C275.971 289.466 275.935 288.603 275.603 288.271C275.271 287.939 275.035 288.529 275.078 289.583ZM29.4993 291C29.1593 291.55 29.3313 292 29.8813 292C30.4313 292 31.1593 291.55 31.4993 291C31.8393 290.45 31.6673 290 31.1173 290C30.5673 290 29.8393 290.45 29.4993 291ZM195.822 293C195.473 295.11 195.79 297.573 196.621 299.2C197.379 300.686 197.999 302.823 197.999 303.95C197.999 305.078 198.418 306 198.929 306C199.488 306 199.459 304.702 198.856 302.75C198.304 300.962 197.526 297.25 197.127 294.5C196.409 289.553 196.395 289.537 195.822 293ZM277.679 292.443C276.435 293.386 275.96 294.824 276.179 296.988C276.497 300.136 276.508 300.128 278.125 295.576C279.019 293.059 279.694 291.014 279.625 291.032C279.556 291.049 278.68 291.684 277.679 292.443ZM31.8123 297.683C32.5333 297.972 33.3963 297.936 33.7283 297.604C34.0603 297.272 33.4703 297.036 32.4163 297.079C31.2513 297.127 31.0143 297.364 31.8123 297.683ZM273.499 307.705C270.562 314.648 270.561 314.943 273.487 310.229C274.945 307.88 275.994 305.287 275.818 304.467C275.643 303.648 274.599 305.105 273.499 307.705ZM36.4993 306C36.8393 306.55 37.7653 307 38.5583 307C39.3513 307 39.9993 306.55 39.9993 306C39.9993 305.45 39.0723 305 37.9403 305C36.8083 305 36.1593 305.45 36.4993 306ZM199.999 309.941C199.999 310.459 200.444 311.157 200.988 311.493C201.554 311.843 201.722 311.442 201.381 310.552C200.716 308.82 199.999 308.503 199.999 309.941ZM35.4993 311C35.8393 311.55 36.7653 312 37.5583 312C38.3513 312 38.9993 311.55 38.9993 311C38.9993 310.45 38.0723 310 36.9403 310C35.8083 310 35.1593 310.45 35.4993 311ZM259.563 312.707C259.021 314.132 259.135 314.247 260.123 313.267C260.807 312.588 261.114 311.781 260.806 311.474C260.498 311.166 259.939 311.721 259.563 312.707ZM449.812 311.683C450.533 311.972 451.396 311.936 451.728 311.604C452.06 311.272 451.47 311.036 450.416 311.079C449.251 311.127 449.014 311.364 449.812 311.683ZM31.4843 314.025C31.0763 314.684 31.3633 315.609 32.1213 316.08C33.7843 317.113 34.6803 315.281 33.2243 313.825C32.5583 313.159 31.9783 313.226 31.4843 314.025ZM266.499 318.746C264.849 320.728 261.744 323.62 259.599 325.174C257.454 326.728 256.155 328 256.711 328C257.268 328 259.278 326.762 261.177 325.25C265.227 322.026 271.589 314.968 270.353 315.072C269.883 315.112 268.149 316.765 266.499 318.746ZM209.999 322.378C209.999 322.585 210.786 323.373 211.749 324.128C213.335 325.371 213.37 325.336 212.127 323.75C210.82 322.084 209.999 321.555 209.999 322.378ZM214.63 325.967C216.276 327.707 228.63 332.009 231.794 331.945C233.293 331.914 231.3 331.051 227.323 330.009C223.376 328.974 218.651 327.373 216.823 326.45C214.995 325.527 214.008 325.309 214.63 325.967ZM374.194 328.5C374.214 330.15 374.438 330.704 374.692 329.731C374.946 328.758 374.929 327.408 374.655 326.731C374.381 326.054 374.174 326.85 374.194 328.5ZM45.2623 328.128C45.5813 329.024 45.3153 330.314 44.6713 330.996C43.8603 331.854 44.1793 331.825 45.7093 330.902C46.9253 330.169 47.6003 329.323 47.2093 329.023C46.8193 328.722 46.0903 328.032 45.5903 327.488C45.0253 326.874 44.9013 327.117 45.2623 328.128ZM176.194 330.5C176.214 332.15 176.438 332.704 176.692 331.731C176.946 330.758 176.929 329.408 176.655 328.731C176.381 328.054 176.174 328.85 176.194 330.5ZM246.999 330.157C240.677 331.984 240.63 332.022 245.282 331.532C247.913 331.256 251.288 330.366 252.782 329.555C256.208 327.695 255.128 327.808 246.999 330.157ZM374.078 333.583C374.126 334.748 374.363 334.985 374.682 334.188C374.971 333.466 374.935 332.603 374.603 332.271C374.271 331.939 374.035 332.529 374.078 333.583ZM177.194 339.5C177.214 341.15 177.438 341.704 177.692 340.731C177.946 339.758 177.929 338.408 177.655 337.731C177.381 337.054 177.174 337.85 177.194 339.5ZM372.813 349.502C372.64 355.278 372.836 360.003 373.249 360.002C373.662 360.001 373.999 355.275 373.999 349.5C373.999 343.725 373.803 339 373.563 339C373.324 339 372.986 343.726 372.813 349.502ZM181.999 355L177.499 355.7L181.999 355.834C184.474 355.909 187.174 355.533 187.999 355C189.761 353.862 189.321 353.862 181.999 355ZM220.999 355.106C225.33 355.824 263.542 356.197 261.499 355.502C260.949 355.314 250.599 354.981 238.499 354.761C226.399 354.54 218.524 354.696 220.999 355.106ZM268.767 354.725C270.564 354.947 273.264 354.943 274.767 354.715C276.27 354.486 274.799 354.304 271.499 354.31C268.199 354.315 266.97 354.502 268.767 354.725ZM281.767 354.725C283.564 354.947 286.264 354.943 287.767 354.715C289.27 354.486 287.799 354.304 284.499 354.31C281.199 354.315 279.97 354.502 281.767 354.725ZM291.749 354.662C292.437 354.94 293.562 354.94 294.249 354.662C294.937 354.385 294.374 354.158 292.999 354.158C291.624 354.158 291.062 354.385 291.749 354.662ZM203.812 355.683C204.533 355.972 205.396 355.936 205.728 355.604C206.06 355.272 205.47 355.036 204.416 355.079C203.251 355.127 203.014 355.364 203.812 355.683ZM454.952 375.25C454.927 383.637 454.749 394.325 454.557 399C453.624 421.777 452.79 467.437 453.316 466.961C453.643 466.664 454.006 459.014 454.121 449.961C454.236 440.907 454.896 424.5 455.586 413.5C457.153 388.535 457.374 360 455.999 360C455.378 360 454.981 365.781 454.952 375.25ZM371.581 370C371.094 375.225 370.554 380.85 370.383 382.5C369.541 390.615 369.163 437.25 369.898 442.5C370.483 446.689 370.776 439.797 370.868 419.672C370.94 403.817 371.482 385.546 372.073 379.07C372.664 372.595 372.995 365.767 372.808 363.898C372.621 362.027 372.07 364.77 371.581 370ZM50.4993 369C50.8393 369.55 51.3153 370 51.5583 370C51.8013 370 51.9993 369.55 51.9993 369C51.9993 368.45 51.5223 368 50.9403 368C50.3583 368 50.1593 368.45 50.4993 369ZM245.857 394.75C241.46 399.398 237.983 405.128 238.049 407.618C238.078 408.721 239 407.636 240.276 405C241.473 402.525 244.375 398.576 246.726 396.224C249.076 393.872 250.999 391.734 250.999 391.474C250.999 390.139 249.037 391.389 245.857 394.75ZM219.999 397.941C219.999 399.335 221.773 400.179 222.174 398.975C222.986 396.538 231.019 404.276 233.95 410.319C235.989 414.522 236.956 415.765 236.973 414.202C237.011 410.832 230.754 401.63 226.738 399.148C223.097 396.897 219.999 396.343 219.999 397.941ZM248.271 402C248.271 404.475 248.466 405.488 248.705 404.25C248.943 403.012 248.943 400.988 248.705 399.75C248.466 398.512 248.271 399.525 248.271 402ZM262.499 402.902C257.662 405.148 254.568 407.998 252.386 412.219C250.835 415.217 250.679 415.283 249.375 413.499C248.033 411.665 247.999 411.666 248.014 413.559C248.023 414.626 248.473 416.175 249.014 417C249.89 418.333 250.099 418.333 250.897 417C255.193 409.823 256.723 407.977 260.301 405.658C266.54 401.612 267.489 402.336 263.516 408.112C261.581 410.924 259.999 413.654 259.999 414.18C259.999 414.705 258.987 414.85 257.749 414.502C256.009 414.012 255.839 414.102 256.999 414.897C257.824 415.462 258.55 416.842 258.612 417.962C258.744 420.318 258.609 420.362 255.683 418.933C253.818 418.022 253.864 418.164 255.999 419.911C258.307 421.798 258.345 421.96 256.499 422.008C254.66 422.057 254.639 422.143 256.249 423.08C258.411 424.34 258.455 425.401 256.428 427.429C255.563 428.293 255.303 429 255.848 429C256.394 429 257.155 430.462 257.54 432.25C258.365 436.081 260.938 441.395 261.631 440.701C261.898 440.434 261.415 438.538 260.558 436.486C256.838 427.584 260.602 412.717 268.845 403.75L271.373 401L268.936 401.022C267.596 401.034 264.699 401.88 262.499 402.902ZM43.8123 404.683C44.5333 404.972 45.3963 404.936 45.7283 404.604C46.0603 404.272 45.4703 404.036 44.4163 404.079C43.2513 404.127 43.0143 404.364 43.8123 404.683ZM224.078 408.583C224.126 409.748 224.363 409.985 224.682 409.188C224.971 408.466 224.935 407.603 224.603 407.271C224.271 406.939 224.035 407.529 224.078 408.583ZM225.194 413.5C225.214 415.15 225.438 415.704 225.692 414.731C225.946 413.758 225.929 412.408 225.655 411.731C225.381 411.054 225.174 411.85 225.194 413.5ZM255.499 417C255.839 417.55 256.567 418 257.117 418C257.667 418 257.839 417.55 257.499 417C257.159 416.45 256.431 416 255.881 416C255.331 416 255.159 416.45 255.499 417ZM226.078 419.583C226.126 420.748 226.363 420.985 226.682 420.188C226.971 419.466 226.935 418.603 226.603 418.271C226.271 417.939 226.035 418.529 226.078 419.583ZM224.484 427.185C223.347 430.703 221.212 434.106 218.17 437.25C212.514 443.096 213.416 443.501 219.534 437.861C222.899 434.759 224.42 432.361 225.604 428.287C227.663 421.205 226.719 420.275 224.484 427.185ZM470.194 429.5C470.214 431.15 470.438 431.704 470.692 430.731C470.946 429.758 470.929 428.408 470.655 427.731C470.381 427.054 470.174 427.85 470.194 429.5ZM470.285 439.5C470.293 442.25 470.487 443.256 470.717 441.736C470.946 440.216 470.94 437.966 470.703 436.736C470.466 435.506 470.278 436.75 470.285 439.5ZM204.895 446.432C197.642 451.206 191.491 459.507 190.427 465.959C189.862 469.388 188.915 472.405 184.767 484C183.023 488.876 182.938 490.124 184.019 495C185.487 501.621 188.925 508.746 193.91 515.5C195.941 518.25 198.563 522.083 199.738 524.017C200.913 525.951 202.915 528.505 204.187 529.692C207.536 532.818 215.687 536.615 221.782 537.889C224.688 538.496 228.738 539.831 230.782 540.856C232.826 541.88 237.649 543.47 241.499 544.388C247.924 545.92 248.991 545.928 254.499 544.485C261.848 542.56 269.966 537.833 279.919 529.682C292.246 519.589 294.266 517.156 296.709 509.462C298.709 503.163 301.099 482.746 299.685 484.033C299.364 484.326 298.961 486.556 298.791 488.99C298.529 492.728 298.094 493.522 295.99 494.107C293.847 494.704 293.79 494.815 295.582 494.9C297.558 494.995 297.717 495.546 297.082 500.097C297.036 500.426 295.987 501.206 294.749 501.832C292.739 502.847 292.712 502.944 294.499 502.734C296.095 502.547 296.437 503.005 296.192 505C295.619 509.668 293.849 514 292.515 514C291.708 514 291.379 514.736 291.676 515.873C292.017 517.179 291.003 518.682 288.333 520.831C286.224 522.527 282.024 525.952 278.999 528.44C270.706 535.264 259.297 541.79 253.326 543.126C247.404 544.451 240.386 543.382 232.678 539.981C230.38 538.966 224.906 537.175 220.515 536C208.643 532.825 205.733 530.799 199.202 521.168C190.624 508.518 189.222 506.031 187.02 499.556C184.315 491.601 184.428 489.961 188.477 478.417C190.39 472.963 191.965 467.397 191.977 466.049C192.03 460.083 200.383 450.41 211.615 443.309C212.651 442.654 213.049 442.111 212.499 442.102C211.949 442.093 208.527 444.042 204.895 446.432ZM266.999 442.924C266.999 443.427 269.26 444.59 272.023 445.508C275.594 446.694 278.089 448.423 280.648 451.484C282.628 453.853 284.163 456.098 284.058 456.472C283.953 456.845 284.866 458.017 286.086 459.076C287.307 460.134 287.899 461.029 287.402 461.063C286.905 461.098 287.613 461.571 288.975 462.115C290.997 462.922 291.18 463.274 289.975 464.036C288.812 464.771 288.989 464.973 290.808 464.985C292.09 464.993 292.842 465.445 292.499 466C292.159 466.55 292.556 467 293.381 467C295.517 467 296.512 469.061 294.877 470.096C293.823 470.764 293.97 470.977 295.499 471C297.158 471.025 297.243 471.196 295.999 472C294.717 472.828 294.753 472.972 296.249 472.985C298.264 473.002 298.601 474.59 296.749 475.338C296.002 475.639 296.204 475.874 297.249 475.921C298.783 475.99 299.586 478.28 299.117 481.25C299.052 481.663 299.5 482 300.113 482C301.588 482 300.339 473.559 298.272 469.562C297.429 467.931 294.392 464.1 291.523 461.048C288.653 457.997 284.324 453.353 281.902 450.73C278.976 447.56 275.738 445.296 272.249 443.984C269.362 442.897 266.999 442.42 266.999 442.924ZM223.499 449.137C218.763 451.621 203.714 466.625 204.257 468.322C204.464 468.97 206.404 470.4 208.566 471.5C210.729 472.6 212.672 473.598 212.884 473.718C213.84 474.26 210.479 480.264 208.229 482.034C203.598 485.677 202.728 484.799 203.173 476.932C203.493 471.26 203.335 470.187 202.373 471.503C200.693 473.801 200.862 502.439 202.579 506.5C204.083 510.055 210.266 516.16 214.534 518.304C216.203 519.143 219.353 520.153 221.534 520.55C223.715 520.947 228.199 522.673 231.499 524.386C239.944 528.769 247.111 528.736 255.73 524.275C259.157 522.501 264.695 520.61 268.037 520.071C278.482 518.389 284.785 512.985 287.601 503.298C288.886 498.876 289.072 495.568 288.504 487.228L287.788 476.726L283.643 472.236C281.364 469.767 278.374 465.672 276.999 463.136C275.604 460.563 273.629 458.358 272.531 458.147C270.844 457.823 270.749 457.994 271.867 459.341C273.942 461.841 272.203 463.291 267.83 462.704C262.564 461.998 260.716 460.425 262.256 457.96C263.993 455.179 262.483 454.516 260.021 456.978C257.798 459.201 253.949 459.391 253.265 457.313C252.69 455.565 256.901 451.749 258.66 452.423C259.591 452.781 260.007 452.524 259.75 451.751C258.596 448.286 250.999 451.957 250.999 455.979C250.999 456.875 249.706 459.647 248.127 462.138C246.23 465.128 245.706 466.667 246.583 466.667C247.313 466.667 247.698 466.323 247.439 465.902C247.179 465.482 247.427 464.854 247.99 464.506C248.553 464.158 249.293 464.604 249.636 465.496C250.025 466.51 249.184 468.318 247.398 470.31C245.574 472.343 245.41 472.7 246.946 471.294L249.355 469.088L252.177 476.111C255.27 483.809 255.622 487.211 253.715 490.98C251.725 494.912 248.302 496.154 244.19 494.435C242.301 493.646 239.538 493 238.051 493C233.272 493 228.395 485.62 229.58 480.181C229.901 478.706 231.003 475.25 232.029 472.5C233.461 468.662 233.848 465.176 233.697 457.5L233.499 447.5L230.499 447.269C228.849 447.143 225.699 447.983 223.499 449.137ZM470.309 452.5C470.314 455.8 470.501 457.029 470.724 455.232C470.946 453.435 470.942 450.735 470.714 449.232C470.485 447.729 470.303 449.2 470.309 452.5ZM30.9993 450C30.9993 450.55 31.7013 451 32.5583 451C33.4153 451 33.8393 450.55 33.4993 450C33.1593 449.45 32.4583 449 31.9403 449C31.4223 449 30.9993 449.45 30.9993 450ZM225.499 450.665C220.89 453.1 218.999 455.098 218.999 457.533C218.999 460.81 221.401 462.335 225.388 461.587C229.729 460.772 230.649 459.597 231.519 453.75C232.148 449.522 232.021 449.004 230.363 449.04C229.338 449.062 227.149 449.793 225.499 450.665ZM370.39 458.5C370.741 464 371.081 478.4 371.145 490.5C371.23 506.701 371.502 511.314 372.178 508C373.5 501.512 372.414 450.995 370.922 449.596C370.031 448.762 369.905 450.886 370.39 458.5ZM36.0303 450.75C36.0483 451.163 37.2853 452.379 38.7803 453.453C40.8083 454.91 41.1593 454.985 40.1633 453.747C39.4283 452.834 39.1173 451.618 39.4723 451.044C39.8403 450.448 39.2343 450 38.0583 450C36.9263 450 36.0133 450.337 36.0303 450.75ZM263.999 453.5C264.684 454.325 265.694 455 266.244 455C266.802 455 266.693 454.337 265.999 453.5C265.314 452.675 264.304 452 263.754 452C263.196 452 263.305 452.663 263.999 453.5ZM210.989 462.735L205.564 467.724L208.845 469.42C213.632 471.896 218.165 471.172 219.837 467.666C221.045 465.134 220.979 464.6 219.221 462.666C218.139 461.475 217.065 459.88 216.834 459.123C216.551 458.195 214.646 459.372 210.989 462.735ZM470.412 477.5C470.413 487.4 470.563 491.315 470.745 486.199C470.927 481.084 470.926 472.984 470.743 468.199C470.56 463.415 470.411 467.6 470.412 477.5ZM226.797 463.094C223.941 464.542 222.949 465.75 222.456 468.38C221.718 472.313 223.101 475.532 225.836 476.247C227.356 476.644 228.165 475.712 229.868 471.603C231.969 466.533 232.711 460.897 231.249 461.109C230.837 461.169 228.833 462.062 226.797 463.094ZM252.906 462.25C252.58 466.644 253.359 472.607 254.34 473.232C257.014 474.933 260.859 473.955 263.41 470.923C266.759 466.944 266.674 465.522 262.999 464C261.349 463.317 259.999 462.362 259.999 461.879C259.999 460.47 253.011 460.836 252.906 462.25ZM270.249 464.706C268.67 465.01 267.999 465.846 267.999 467.511C267.999 468.815 267.549 470.16 266.999 470.5C266.449 470.84 265.999 471.766 265.999 472.559C265.999 473.577 267.191 474 270.065 474C275.969 474 278.169 472.558 277.37 469.21C277.014 467.719 276.28 465.938 275.739 465.25C274.739 463.981 274.258 463.934 270.249 464.706ZM38.4993 466C38.1593 466.55 38.3583 467 38.9403 467C39.5223 467 39.9993 466.55 39.9993 466C39.9993 465.45 39.8013 465 39.5583 465C39.3153 465 38.8393 465.45 38.4993 466ZM216.749 473.08C215.786 473.641 214.999 474.891 214.999 475.859C214.999 476.826 214.338 478.491 213.531 479.559C211.419 482.352 211.611 482.799 215.375 483.838C219.794 485.058 223.714 484.245 225.466 481.744C226.657 480.044 226.663 479.521 225.508 478.366C224.757 477.615 223.65 477 223.049 477C222.448 477 221.444 475.875 220.817 474.5C219.551 471.721 219.258 471.619 216.749 473.08ZM278.308 473.691C276.475 474.924 276.289 475.542 277.168 477.472C278.706 480.847 285.999 483.719 285.999 480.95C285.999 479.403 283.332 474.518 281.815 473.285C280.862 472.511 279.895 472.623 278.308 473.691ZM262.492 475.011C262.156 475.555 260.344 476 258.465 476C255.211 476 255.095 476.122 256.024 478.565C256.56 479.976 256.999 482.226 256.999 483.565C256.999 488.08 263.778 486.262 266.489 481.02C268.405 477.314 268.441 477.519 265.551 475.626C264.05 474.643 262.867 474.405 262.492 475.011ZM452.935 484.25C452.87 494.525 452.473 502.222 451.533 511.435C451.2 514.697 451.366 516.033 452.021 515.378C453.118 514.281 454.711 474 453.658 474C453.295 474 452.97 478.613 452.935 484.25ZM246.923 478.75L244.499 481.5L247.249 479.076C248.761 477.742 249.999 476.505 249.999 476.326C249.999 475.541 249.189 476.18 246.923 478.75ZM269.982 478.544C267.602 484.804 267.661 485.877 270.421 486.57C273 487.217 278.999 485.443 278.999 484.034C278.999 483.636 278.11 482.506 277.025 481.523C275.939 480.54 274.783 478.896 274.457 477.868C273.607 475.189 271.115 475.566 269.982 478.544ZM43.9993 478C43.9993 478.55 44.7013 479 45.5583 479C46.4153 479 46.8393 478.55 46.4993 478C46.1593 477.45 45.4583 477 44.9403 477C44.4223 477 43.9993 477.45 43.9993 478ZM39.6663 478.667C39.2993 479.033 38.9993 479.798 38.9993 480.367C38.9993 480.993 39.4653 480.934 40.1823 480.217C40.8333 479.566 41.1333 478.801 40.8493 478.517C40.5653 478.233 40.0323 478.3 39.6663 478.667ZM294.812 482.683C295.533 482.972 296.396 482.936 296.728 482.604C297.06 482.272 296.47 482.036 295.416 482.079C294.251 482.127 294.014 482.364 294.812 482.683ZM206.749 485.299C204.672 486.12 203.999 487.064 203.999 489.158C203.999 492.945 207.124 494.605 211.128 492.947C215.648 491.074 217.789 486 214.058 486C212.99 486 211.839 485.55 211.499 485C210.776 483.831 210.407 483.854 206.749 485.299ZM224.249 485.476C223.011 486.025 221.999 486.792 221.999 487.18C221.999 488.349 226.317 491 228.222 491C230.423 491 230.425 490.726 228.249 487.263C226.758 484.89 226.166 484.625 224.249 485.476ZM279.173 486.314C277.977 487.587 276.999 489.093 276.999 489.659C276.999 491.525 280.607 494 283.328 494C285.867 494 285.999 493.752 285.999 489C285.999 484.433 285.797 484 283.673 484C282.394 484 280.369 485.042 279.173 486.314ZM261.282 487.414C257.969 488.165 256.856 488.972 256.086 491.18C255.207 493.701 255.358 494.052 257.56 494.605C260.71 495.395 264.762 492.794 265.603 489.441C265.953 488.047 266.073 486.806 265.869 486.683C265.666 486.559 263.601 486.888 261.282 487.414ZM218.999 488.388C218.999 489.803 215.867 493.382 213.264 494.941C211.595 495.941 211.604 496.08 213.44 497.499C216.627 499.963 222.272 499.411 225.075 496.363C227.035 494.23 227.214 493.625 226.009 493.199C225.189 492.91 223.276 491.431 221.759 489.913C220.241 488.396 218.999 487.709 218.999 488.388ZM294.749 487.662C295.437 487.94 296.562 487.94 297.249 487.662C297.937 487.385 297.374 487.158 295.999 487.158C294.624 487.158 294.062 487.385 294.749 487.662ZM266.999 492.001C266.008 494.393 266.008 495.306 267 496.501C268.256 498.015 273.502 498.512 276.417 497.393C278.134 496.734 278.618 494 277.018 494C276.479 494 275.755 492.875 275.41 491.5C274.9 489.471 274.166 489 271.512 489C268.821 489 268.021 489.532 266.999 492.001ZM40.4993 493C40.8393 493.55 41.3153 494 41.5583 494C41.8013 494 41.9993 493.55 41.9993 493C41.9993 492.45 41.5223 492 40.9403 492C40.3583 492 40.1593 492.45 40.4993 493ZM228.999 493.923C228.999 494.431 227.856 496.205 226.458 497.866L223.917 500.886L226.08 502.044C228.686 503.438 233.688 502.592 236.183 500.333C238.625 498.124 238.551 495 236.058 495C234.99 495 233.839 494.55 233.499 494C232.722 492.743 228.999 492.679 228.999 493.923ZM203.014 498.731C203.032 503.292 204.934 507.364 207.257 507.811C209.042 508.155 214.039 503.516 213.944 501.604C213.863 500.001 208.948 496.421 205.749 495.637C203.114 494.99 203 495.12 203.014 498.731ZM238.999 499.728C235.452 505.08 235.442 505.002 239.666 504.985C244.112 504.967 245.24 504.371 246.942 501.143C248.338 498.494 247.646 497.413 243.999 496.549C241.915 496.055 241.083 496.585 238.999 499.728ZM251.411 496.765C250.813 497.169 250.077 498.4 249.775 499.5C249.473 500.6 248.932 502.207 248.574 503.072C247.878 504.749 251.499 507 254.891 507C259.718 507 261.266 497.843 256.649 496.604C253.819 495.845 252.724 495.879 251.411 496.765ZM260.999 497.453C260.999 498.252 261.518 500.045 262.152 501.436C264.066 505.637 273.999 506.232 273.999 502.145C273.999 500.926 273.062 500.354 270.779 500.18C269.007 500.045 266.616 499.049 265.464 497.967C262.993 495.645 260.999 495.416 260.999 497.453ZM278.144 498.395C275.644 501.12 276.859 504.676 280.611 505.618C283.91 506.446 286 504.095 285.997 499.559C285.995 496.86 285.646 496.488 283.034 496.395C281.202 496.331 279.339 497.093 278.144 498.395ZM469.787 507.75C468.858 537.028 468.973 601 469.954 601C470.667 601 470.999 584.488 470.999 549C470.999 499.666 470.539 484.023 469.787 507.75ZM215.44 504.115C213.485 507.895 214.313 508.964 219.762 509.695C223.033 510.134 224.185 509.814 226.049 507.95C228.261 505.738 228.271 505.645 226.381 504.945C225.308 504.549 223.828 503.498 223.092 502.612C220.848 499.908 217.25 500.615 215.44 504.115ZM228.25 508.61C225.221 513.358 226.512 516.231 231.269 515.33C236.032 514.428 237.268 513.094 236.57 509.606C235.44 503.957 231.518 503.487 228.25 508.61ZM242.249 506.723C238.617 507.174 238.09 508.867 240.815 511.333C243.508 513.771 248.999 514.681 248.999 512.69C248.999 510.373 247.164 505.976 246.274 506.16C245.848 506.248 244.036 506.502 242.249 506.723ZM258.425 507.414C257.315 508.192 255.145 508.979 253.602 509.164L250.798 509.5L252.971 512.25C256.239 516.385 259.081 515.793 261.601 510.454C263.453 506.53 263.51 506 262.074 506C261.177 506 259.536 506.636 258.425 507.414ZM274.327 508.623C272.822 510.919 273.141 516 274.79 516C275.815 516 282.999 510.025 282.999 509.172C282.999 508.797 281.396 507.988 279.437 507.374C276.176 506.354 275.744 506.459 274.327 508.623ZM264.449 509.435C263.572 510.775 262.999 513.137 263.176 514.685C263.47 517.249 263.856 517.5 267.499 517.5C270.567 517.5 271.405 517.15 271.097 516C270.479 513.696 270.563 511.715 271.384 509.25C272.052 507.245 271.802 507 269.089 507C266.967 507 265.562 507.738 264.449 509.435ZM209.252 509.822C207.768 510.765 213.298 516.469 216.499 517.297C224.259 519.304 224.156 519.325 223.815 515.797C223.537 512.915 223.079 512.454 219.999 511.947C218.074 511.63 215.516 510.837 214.315 510.185C211.767 508.803 210.95 508.744 209.252 509.822ZM238.598 516.539C238.984 518.075 239.344 520.719 239.399 522.416C239.479 524.896 239.98 525.568 241.955 525.847C246.287 526.458 251.917 524.177 252.578 521.542C253.808 516.641 252.916 515.676 246.999 515.506C243.974 515.419 240.689 514.988 239.698 514.547C238.128 513.85 237.987 514.105 238.598 516.539ZM370.601 516.107C369.708 518.906 369.266 527 370.007 527C370.918 527 372.407 516.075 371.605 515.273C371.298 514.965 370.846 515.341 370.601 516.107ZM230.749 517.737C228.687 517.948 226.999 518.44 226.999 518.831C226.999 519.222 229.041 520.657 231.536 522.02C235.296 524.074 236.222 524.257 236.944 523.089C237.901 521.54 236.84 517.676 235.403 517.478C234.906 517.41 232.812 517.526 230.749 517.737ZM257.852 517.67C256.57 518.01 254.347 522 255.439 522C256.9 522 261.882 518.62 261.45 517.922C260.858 516.963 260.583 516.944 257.852 517.67ZM451.157 525C451.157 526.375 451.384 526.938 451.661 526.25C451.939 525.563 451.939 524.438 451.661 523.75C451.384 523.063 451.157 523.625 451.157 525ZM368.61 534.21C368.257 535.47 367.808 546.4 367.612 558.5C367.416 570.6 367.407 577.35 367.592 573.5C367.776 569.65 368.432 558.927 369.05 549.67C370.125 533.553 370.003 529.25 368.61 534.21ZM452.231 552C452.231 553.925 452.437 554.712 452.688 553.75C452.94 552.788 452.94 551.212 452.688 550.25C452.437 549.288 452.231 550.075 452.231 552ZM30.7493 558.662C31.4373 558.94 32.5623 558.94 33.2493 558.662C33.9373 558.385 33.3743 558.158 31.9993 558.158C30.6243 558.158 30.0623 558.385 30.7493 558.662ZM28.9993 561C28.9993 561.55 29.4493 562 29.9993 562C30.5493 562 30.9993 561.55 30.9993 561C30.9993 560.45 30.5493 560 29.9993 560C29.4493 560 28.9993 560.45 28.9993 561ZM453.251 563.5C453.262 565.7 453.467 566.482 453.706 565.238C453.945 563.994 453.936 562.194 453.686 561.238C453.436 560.282 453.24 561.3 453.251 563.5ZM453.391 580C453.727 586.875 454.281 598.013 454.621 604.75C454.961 611.487 455.671 617 456.199 617C456.726 617 456.919 615.763 456.628 614.25C456.336 612.737 455.835 605.875 455.514 599C454.556 578.518 453.841 568.53 453.295 568C453.011 567.725 453.054 573.125 453.391 580ZM44.8123 571.683C45.5333 571.972 46.3963 571.936 46.7283 571.604C47.0603 571.272 46.4703 571.036 45.4163 571.079C44.2513 571.127 44.0143 571.364 44.8123 571.683ZM31.9993 573C31.9993 573.55 32.4763 574 33.0583 574C33.6403 574 33.8393 573.55 33.4993 573C33.1593 572.45 32.6833 572 32.4403 572C32.1973 572 31.9993 572.45 31.9993 573ZM38.7493 581.208C36.9133 583.088 37.5333 583.581 39.8713 582.1C40.6253 581.622 41.0753 580.823 40.8713 580.324C40.6663 579.825 39.7113 580.223 38.7493 581.208ZM367.359 591C367.359 596.225 367.528 598.362 367.734 595.75C367.94 593.138 367.94 588.862 367.734 586.25C367.528 583.638 367.359 585.775 367.359 591ZM240.999 584.649C228.33 586.56 216.368 592.026 208.253 599.612L203.499 604.056L210.342 598.998C222.985 589.652 232.321 586.26 246.499 585.86C256.22 585.586 265.878 586.829 263.878 588.096C263.119 588.576 260.793 588.976 258.707 588.985C253.25 589.007 239.941 591.915 238.443 593.413C237.743 594.114 235.781 595.262 234.084 595.965C232.387 596.668 230.999 597.668 230.999 598.189C230.999 598.709 229.987 598.884 228.749 598.577C227.511 598.27 227.064 598.278 227.755 598.595C228.446 598.912 228.757 599.582 228.446 600.085C227.448 601.7 229.044 601.067 232.375 598.527C236.816 595.139 247.266 591.389 254.499 590.586C257.799 590.22 262.484 589.651 264.91 589.322C269.178 588.744 269.243 588.684 266.904 587.458C261.872 584.821 249.065 583.433 240.999 584.649ZM38.9993 595C38.9993 595.55 39.4493 596 39.9993 596C40.5493 596 40.9993 595.55 40.9993 595C40.9993 594.45 40.5493 594 39.9993 594C39.4493 594 38.9993 594.45 38.9993 595ZM367.078 606.191C367.035 609.321 367.381 612.118 367.849 612.407C368.316 612.696 368.506 610.585 368.27 607.716C367.654 600.233 367.169 599.612 367.078 606.191ZM222.499 603.334C224.477 604.919 224.474 604.937 222.19 604.968C220.911 604.986 220.157 605.446 220.499 606C220.839 606.55 220.303 607.007 219.308 607.015C217.774 607.028 217.727 607.178 218.999 608C220.161 608.751 219.824 608.999 217.499 609.101C215.795 609.175 215.255 609.43 216.249 609.689C217.212 609.941 217.985 610.451 217.967 610.823C217.911 612.015 215.548 614.656 213.999 615.259C213.027 615.637 212.948 615.87 213.775 615.921C214.758 615.982 214.7 616.677 213.525 618.95C212.686 620.573 212.009 622.486 212.02 623.2C212.032 623.915 213.423 621.8 215.112 618.5C216.801 615.2 219.969 610.362 222.151 607.75C224.333 605.138 225.678 603 225.14 603C224.603 603 223.338 602.714 222.331 602.365C220.721 601.808 220.741 601.925 222.499 603.334ZM468.999 636.5C468.999 658.167 469.352 670 469.999 670C470.646 670 470.999 658.167 470.999 636.5C470.999 614.833 470.646 603 469.999 603C469.352 603 468.999 614.833 468.999 636.5ZM38.4993 606C38.8393 606.55 39.3153 607 39.5583 607C39.8013 607 39.9993 606.55 39.9993 606C39.9993 605.45 39.5223 605 38.9403 605C38.3583 605 38.1593 605.45 38.4993 606ZM201.231 607.75C198.642 611.489 197.801 613 198.307 613C198.541 613 199.924 611.2 201.38 609C204.339 604.529 204.21 603.448 201.231 607.75ZM22.7493 614.662C23.4373 614.94 24.5623 614.94 25.2493 614.662C25.9373 614.385 25.3743 614.158 23.9993 614.158C22.6243 614.158 22.0623 614.385 22.7493 614.662ZM367.576 618.75C367.71 621.362 368.133 631.491 368.517 641.258C368.931 651.798 369.641 659.279 370.263 659.663C370.974 660.102 371.103 658.538 370.663 654.802C370.307 651.772 369.716 641.352 369.35 631.647C368.984 621.941 368.381 614 368.009 614C367.638 614 367.443 616.138 367.576 618.75ZM302.432 618.808C302.729 620.627 303.653 622.797 304.486 623.629C306.706 625.85 306.389 623.324 303.904 619L301.892 615.5L302.432 618.808ZM456.434 633.5C456.971 646.22 457.999 682.173 457.999 688.238C457.999 689.272 458.38 689.883 458.845 689.595C460.196 688.76 457.76 620.401 456.331 619.014C456.039 618.731 456.086 625.25 456.434 633.5ZM28.2683 625.693C29.2413 625.947 30.5913 625.93 31.2683 625.656C31.9453 625.382 31.1493 625.175 29.4993 625.195C27.8493 625.215 27.2953 625.439 28.2683 625.693ZM210.64 627.21C210.302 628.47 210.069 630.625 210.122 632C210.179 633.473 210.576 632.678 211.088 630.063C212.007 625.379 211.683 623.317 210.64 627.21ZM306.524 628.5C306.804 630.15 307.196 633.884 307.396 636.797C307.596 639.71 308.038 642.373 308.379 642.714C309.61 643.944 308.813 632.417 307.432 629C306.083 625.664 306.04 625.64 306.524 628.5ZM31.9993 630C31.1743 630.533 30.9493 630.969 31.4993 630.969C32.0493 630.969 33.1743 630.533 33.9993 630C34.8243 629.467 35.0493 629.031 34.4993 629.031C33.9493 629.031 32.8243 629.467 31.9993 630ZM210.069 639.083C210.108 640.962 210.53 643.4 211.006 644.5C211.564 645.787 211.667 644.717 211.295 641.5C210.608 635.554 209.971 634.298 210.069 639.083ZM191.251 641.5C191.262 643.7 191.467 644.482 191.706 643.238C191.945 641.994 191.936 640.194 191.686 639.238C191.436 638.282 191.24 639.3 191.251 641.5ZM31.9993 642C31.9993 642.55 32.4493 643 32.9993 643C33.5493 643 33.9993 642.55 33.9993 642C33.9993 641.45 33.5493 641 32.9993 641C32.4493 641 31.9993 641.45 31.9993 642ZM298.977 645.683C294.65 659.212 284.946 670.804 273.499 676.121C270.199 677.654 268.09 678.929 268.812 678.954C271.259 679.04 281.173 673.599 285.483 669.805C287.841 667.729 291.154 663.875 292.845 661.24C295.981 656.353 301.435 643.102 300.638 642.306C300.396 642.064 299.649 643.584 298.977 645.683ZM306.555 646.925C304.813 648.862 304.795 649.015 306.387 648.405C307.905 647.822 308.092 648.171 307.678 650.8C307.411 652.493 306.954 654.264 306.662 654.736C306.37 655.209 306.516 656.218 306.986 656.979C308.072 658.736 309.296 652.808 308.826 648.065L308.499 644.763L306.555 646.925ZM192.078 648.583C192.126 649.748 192.363 649.985 192.682 649.188C192.971 648.466 192.935 647.603 192.603 647.271C192.271 646.939 192.035 647.529 192.078 648.583ZM213.999 655.882C213.999 656.432 214.449 657.16 214.999 657.5C215.549 657.84 215.999 657.668 215.999 657.118C215.999 656.568 215.549 655.84 214.999 655.5C214.449 655.16 213.999 655.332 213.999 655.882ZM193.999 658.642C193.999 659.179 194.699 660.491 195.554 661.559C197.021 663.389 197.041 663.357 195.919 661C194.461 657.939 193.999 657.372 193.999 658.642ZM369.583 661.864C368.65 663.374 369.096 681 370.068 681C370.581 681 370.999 676.509 370.999 671C370.999 661.429 370.769 659.945 369.583 661.864ZM217.999 662.711C217.999 663.285 218.786 664.373 219.749 665.128C221.368 666.397 221.389 666.35 220.032 664.5C219.225 663.4 218.438 662.313 218.282 662.083C218.126 661.854 217.999 662.137 217.999 662.711ZM199.037 668.5C199.04 669.05 199.964 670.625 201.088 672C202.447 673.661 202.786 673.828 202.1 672.5C200.414 669.238 199.029 667.43 199.037 668.5ZM224.999 671.338C226.924 673.448 230.169 676.036 232.209 677.088C237.669 679.902 238.21 679.397 232.999 676.35C230.524 674.904 226.924 672.32 224.999 670.61L221.499 667.5L224.999 671.338ZM301.666 669.667C301.299 670.033 300.999 670.798 300.999 671.367C300.999 671.993 301.465 671.934 302.182 671.217C302.833 670.566 303.133 669.801 302.849 669.517C302.565 669.232 302.032 669.3 301.666 669.667ZM48.9993 673C48.9993 673.55 49.4223 674 49.9403 674C50.4583 674 51.1593 673.55 51.4993 673C51.8393 672.45 51.4153 672 50.5583 672C49.7013 672 48.9993 672.45 48.9993 673ZM52.9993 673C52.9993 673.55 53.4493 674 53.9993 674C54.5493 674 54.9993 673.55 54.9993 673C54.9993 672.45 54.5493 672 53.9993 672C53.4493 672 52.9993 672.45 52.9993 673ZM468.999 689.5C468.999 700.5 469.37 707 469.999 707C470.628 707 470.999 700.5 470.999 689.5C470.999 678.5 470.628 672 469.999 672C469.37 672 468.999 678.5 468.999 689.5ZM295.556 677.514C294.082 679.446 290.523 682.766 287.646 684.891C276.217 693.334 265.408 697 251.938 697C247.388 697 243.938 697.272 244.271 697.605C245.901 699.235 261.44 697.986 269.276 695.596C280.186 692.267 295.762 681.908 299.116 675.75C300.812 672.636 298.344 673.859 295.556 677.514ZM203.999 676.378C203.999 676.585 204.786 677.373 205.749 678.128C207.335 679.371 207.37 679.336 206.127 677.75C204.82 676.084 203.999 675.555 203.999 676.378ZM242.499 681.05C244.444 681.837 255.748 682.367 254.916 681.632C254.687 681.43 251.349 681.034 247.499 680.753C243.493 680.46 241.355 680.587 242.499 681.05ZM260.812 680.683C261.533 680.972 262.396 680.936 262.728 680.604C263.06 680.272 262.47 680.036 261.416 680.079C260.251 680.127 260.014 680.364 260.812 680.683ZM369.666 682.667C369.299 683.033 369.051 690.796 369.115 699.917C369.179 709.038 369.387 715.825 369.577 715C369.866 713.751 370.672 681.999 370.416 682C370.37 682 370.032 682.3 369.666 682.667ZM212.999 685.364C212.999 685.639 214.349 686.825 215.999 688C217.649 689.175 218.999 689.911 218.999 689.636C218.999 689.361 217.649 688.175 215.999 687C214.349 685.825 212.999 685.089 212.999 685.364ZM228.812 694.683C229.533 694.972 230.396 694.936 230.728 694.604C231.06 694.272 230.47 694.036 229.416 694.079C228.251 694.127 228.014 694.364 228.812 694.683ZM234.999 696.454C236.924 697.22 239.624 697.854 240.999 697.861C243.243 697.872 243.294 697.792 241.499 697.079C240.399 696.642 237.699 696.009 235.499 695.672L231.499 695.059L234.999 696.454ZM457.629 697.25C456.705 700.697 456.886 704 457.999 704C458.549 704 458.999 701.975 458.999 699.5C458.999 694.545 458.551 693.809 457.629 697.25ZM20.9993 707.526C20.9993 709.289 26.4693 710.406 28.7113 709.101C29.6943 708.529 30.0493 708.036 29.4993 708.007C28.9493 707.977 26.8123 707.56 24.7493 707.081C21.8753 706.414 20.9993 706.518 20.9993 707.526ZM468.999 728.358V747.833L466.249 748.838L463.499 749.842L466.249 749.921L468.999 750L469.101 763.25C469.167 771.697 469.481 775.336 469.967 773.288C471.198 768.113 471.271 710.286 470.048 709.53C469.33 709.086 468.999 715.019 468.999 728.358ZM43.9993 725C43.9993 725.55 44.4493 726 44.9993 726C45.5493 726 45.9993 725.55 45.9993 725C45.9993 724.45 45.5493 724 44.9993 724C44.4493 724 43.9993 724.45 43.9993 725ZM101.999 761.786C101.999 762.336 102.674 763.045 103.499 763.362C104.636 763.798 104.999 765.644 104.999 771C104.999 776.356 104.636 778.202 103.499 778.638C100.627 779.74 102.026 781 106.121 781C109.589 781 110.055 780.772 109.053 779.565C108.398 778.776 108.006 776.639 108.181 774.815C108.475 771.754 108.767 771.5 111.999 771.5C115.187 771.5 115.526 771.778 115.803 774.625C115.988 776.521 115.468 778.388 114.482 779.375C112.981 780.875 113.13 781 116.428 781C119.858 781 121.096 779.796 118.999 778.5C118.449 778.16 117.999 775.01 117.999 771.5C117.999 767.99 118.449 764.84 118.999 764.5C120.979 763.277 119.939 762 116.964 762C114.273 762 114.046 762.219 114.964 763.934C115.533 764.998 115.999 766.798 115.999 767.934C115.999 769.678 115.375 770 111.999 770C108.285 770 107.999 769.8 107.999 767.2C107.999 765.66 108.539 763.86 109.199 763.2C110.132 762.267 109.817 762 107.781 762C106.341 762 104.451 761.727 103.581 761.393C102.711 761.059 101.999 761.236 101.999 761.786ZM154.463 761.87C154.225 762.108 154.771 762.844 155.677 763.507C157.979 765.19 157.92 776.853 155.602 778.548C153.071 780.399 153.689 781 158.121 781C161.589 781 162.055 780.772 161.053 779.565C160.398 778.776 160.006 776.639 160.181 774.815C160.475 771.754 160.767 771.5 163.999 771.5C167.187 771.5 167.526 771.778 167.803 774.625C167.988 776.521 167.468 778.388 166.482 779.375C164.981 780.875 165.13 781 168.428 781C171.858 781 173.096 779.796 170.999 778.5C170.449 778.16 169.999 775.01 169.999 771.5C169.999 767.99 170.449 764.84 170.999 764.5C173.017 763.253 171.914 762 168.799 762C166.31 762 165.866 762.267 166.799 763.2C167.459 763.86 167.999 765.66 167.999 767.2C167.999 769.8 167.713 770 163.999 770C160.236 770 159.999 769.825 159.999 767.05C159.999 765.34 160.697 763.709 161.66 763.17C162.936 762.456 162.345 762.148 159.108 761.839C156.791 761.618 154.7 761.632 154.463 761.87ZM192.307 762.009C189.465 763.155 187.052 766.897 186.345 771.257C185.595 775.878 190.011 781.21 194.526 781.134C201.024 781.024 200.999 781.038 200.999 777.488C200.999 775.316 201.627 773.733 202.749 773.08C204.166 772.255 203.789 772.055 200.77 772.03C197.165 772.001 197.079 772.082 198.167 774.47C199.028 776.359 198.994 777.301 198.024 778.47C196.248 780.61 192.273 780.38 191.034 778.066C189.652 775.483 189.72 768.707 191.16 765.547C192.582 762.424 196.436 762.126 198.231 765C199.912 767.692 200.999 767.52 200.999 764.562C200.999 762.88 200.457 762.146 199.249 762.196C198.286 762.235 196.824 762.01 195.999 761.696C195.174 761.382 193.513 761.523 192.307 762.009ZM204.999 761.533C204.999 761.943 205.684 762.781 206.522 763.393C209.682 765.704 209.624 779 206.454 779C205.654 779 204.999 779.45 204.999 780C204.999 780.55 206.854 781 209.121 781C212.589 781 213.055 780.772 212.053 779.565C211.398 778.776 211.006 776.639 211.181 774.815C211.475 771.754 211.767 771.5 214.999 771.5C218.187 771.5 218.526 771.778 218.803 774.625C218.988 776.521 218.468 778.388 217.482 779.375C215.981 780.875 216.139 781 219.535 781C222.675 781 223.096 780.744 222.416 779.25C221.082 776.32 220.716 765.883 221.905 764.694C223.772 762.827 223.126 762 219.799 762C217.31 762 216.866 762.267 217.799 763.2C218.459 763.86 218.999 765.687 218.999 767.26C218.999 769.954 218.781 770.103 215.249 769.81C212.139 769.553 211.44 769.083 211.154 767.056C210.942 765.554 211.497 764.109 212.595 763.306C214.206 762.128 214.076 762 211.272 762C209.562 762 207.451 761.727 206.581 761.393C205.711 761.059 204.999 761.122 204.999 761.533ZM311.279 762.02C308.5 763.138 307.206 767.641 309.119 769.536C309.878 770.287 312.299 771.489 314.499 772.206C317.749 773.264 318.499 773.977 318.499 776.004C318.499 778.088 317.963 778.552 315.256 778.813C312.601 779.069 311.804 778.667 310.86 776.594C309.452 773.504 307.999 774.145 307.999 777.856C307.999 780.433 308.25 780.587 312.249 780.455C318.494 780.251 318.579 780.217 319.815 777.504C321.597 773.593 319.88 770.58 315.042 769.131C310.633 767.81 308.795 765.376 311.103 763.914C313.309 762.518 314.768 762.835 316.96 765.189L318.999 767.377V764.72C318.999 762.854 318.582 762.223 317.6 762.6C316.831 762.895 315.904 762.656 315.541 762.068C314.771 760.822 314.271 760.816 311.279 762.02ZM364.165 762.596C362.458 763.792 361.963 764.982 362.193 767.346C362.455 770.049 363.071 770.682 366.499 771.774C368.699 772.474 371.326 774.035 372.337 775.243L374.174 777.438L373.837 774.469C373.564 772.072 372.632 771.084 368.999 769.341C366.076 767.94 364.499 766.538 364.499 765.341C364.499 762.347 368.457 762.495 370.884 765.58L372.999 768.27V765.228C372.999 762.74 372.656 762.277 371.112 762.681C370.074 762.952 368.922 762.685 368.553 762.087C367.647 760.622 366.852 760.714 364.165 762.596ZM380.222 762.557C378.028 764.093 377.334 767.453 378.764 769.605C379.168 770.213 381.185 771.26 383.246 771.932C385.307 772.603 387.697 774.131 388.558 775.327C390.104 777.474 390.119 777.465 389.811 774.5C389.557 772.055 388.667 771.101 384.999 769.341C382.094 767.948 380.499 766.535 380.499 765.355C380.499 762.646 383.835 762.497 386.588 765.084L388.999 767.349V764.768C388.999 762.731 388.601 762.291 387.112 762.681C386.074 762.952 384.922 762.685 384.553 762.087C383.651 760.628 382.851 760.715 380.222 762.557ZM83.0673 765.25C83.1313 768.349 83.1863 768.394 84.2383 766.21C84.8443 764.95 86.0513 764.055 86.9203 764.22C89.2293 764.66 89.8343 779 87.5433 779C86.6943 779 85.9993 779.413 85.9993 779.917C85.9993 780.421 88.0243 780.833 90.4993 780.833C94.9433 780.833 96.4143 779.757 93.4993 778.638C91.3643 777.819 91.3113 764 93.4423 764C94.2363 764 95.5863 765 96.4423 766.223C97.9893 768.431 97.9993 768.424 97.9993 765.223V762H90.4993H82.9993L83.0673 765.25ZM125.428 763.571C127.227 765.371 127.731 779 125.999 779C125.449 779 125 779.337 125.002 779.75C125.004 780.163 126.552 780.533 128.442 780.573C131.42 780.635 131.754 780.41 130.939 778.888C129.869 776.888 129.687 772.646 130.63 771.702C130.978 771.355 132.103 771.52 133.13 772.07C134.65 772.884 134.999 772.716 134.999 771.174C134.999 769.69 134.455 769.381 132.499 769.755C130.28 770.179 129.999 769.895 129.999 767.224C129.999 762.612 134.49 761.464 137.96 765.189L139.999 767.377V764.689V762H131.928C124.59 762 123.999 762.143 125.428 763.571ZM177.249 763.08C178.648 763.895 178.999 765.483 178.999 770.991C178.999 774.781 178.549 778.16 177.999 778.5C176.121 779.661 176.995 780.713 179.749 780.606L182.499 780.5L182.142 772.731C181.905 767.575 182.199 764.464 183.015 763.481C184.069 762.211 183.622 762.004 179.871 762.03C176.415 762.054 175.866 762.274 177.249 763.08ZM236.749 763.22C238.764 764.192 238.999 765.035 238.999 771.293C238.999 776.774 238.622 778.566 237.249 779.608C235.715 780.773 236.085 780.94 240.249 780.968C242.862 780.986 244.999 780.55 244.999 780C244.999 779.45 244.585 779 244.078 779C242.528 779 241.704 773.06 243.033 771.459C243.885 770.433 243.911 770 243.121 770C241.622 770 241.682 764.717 243.199 763.2C244.132 762.267 243.299 762.015 239.449 762.068C235.151 762.126 234.795 762.278 236.749 763.22ZM247.994 763.494C248.676 764.316 249.015 766.138 248.746 767.543C248.382 769.446 248.643 770.021 249.771 769.798C252.681 769.225 253.586 766.307 251.552 764.059C249.325 761.598 245.98 761.067 247.994 763.494ZM256.344 763.829C257.486 765.091 257.999 767.467 257.999 771.5C257.999 775.533 257.486 777.909 256.344 779.171C254.77 780.91 254.863 781 258.221 781H261.753L261.246 776.5C260.764 772.222 260.863 772 263.262 772C265.915 772 266.999 773.602 266.999 777.523C266.999 780.385 268.329 781.348 271.077 780.475C272.818 779.923 272.915 779.642 271.701 778.661C270.911 778.022 269.438 776.045 268.426 774.266C266.609 771.072 266.614 771.007 268.793 768.977C270.006 767.847 270.999 766.515 270.999 766.018C270.999 763.817 266.306 762 260.622 762C254.938 762 254.758 762.077 256.344 763.829ZM276.418 763.317C278.732 765.009 279.315 777.568 277.142 778.911C275.133 780.153 277.064 780.745 280.499 779.94C282.149 779.553 282.937 779.183 282.249 779.118C281.371 779.035 280.999 776.78 280.999 771.55C280.999 765.509 281.33 763.907 282.749 763.08C284.11 762.287 283.401 762.054 279.558 762.03C275.229 762.004 274.84 762.163 276.418 763.317ZM289.442 764.223C291.479 767.13 291.533 776.753 289.525 778.971C288.19 780.447 288.379 780.6 291.529 780.6C294.589 780.6 294.925 780.353 294.33 778.55C292.839 774.036 293.345 772.489 296.249 772.688C298.719 772.857 298.996 772.552 298.969 769.688C298.943 767.038 298.766 766.795 297.919 768.25C296.128 771.326 293.833 770.404 294.186 766.75C294.589 762.571 298.081 761.789 301.597 765.092C303.947 767.3 304.606 766.746 303.392 763.582C302.914 762.335 301.206 762 295.335 762H287.886L289.442 764.223ZM323.067 765.25C323.131 768.349 323.186 768.394 324.238 766.21C324.844 764.95 326.032 764.052 326.876 764.215C330.183 764.852 330.736 779 327.454 779C326.654 779 325.999 779.413 325.999 779.917C325.999 780.421 328.024 780.833 330.499 780.833C334.943 780.833 336.414 779.757 333.499 778.638C331.364 777.819 331.311 764 333.442 764C334.236 764 335.586 765 336.442 766.223C337.989 768.431 337.999 768.424 337.999 765.223V762H330.499H322.999L323.067 765.25ZM342.249 763.08C343.668 763.907 343.999 765.509 343.999 771.55C343.999 775.85 343.576 779 342.999 779C342.449 779 341.999 779.36 341.999 779.8C341.999 780.24 343.574 780.6 345.499 780.6C348.934 780.6 349.978 779.723 347.999 778.5C346.9 777.821 346.623 772.709 347.63 771.702C347.978 771.355 349.103 771.52 350.13 772.07C351.557 772.834 351.999 772.726 351.999 771.617C351.999 770.818 352.261 769.339 352.581 768.332C353.131 766.597 353.081 766.599 351.629 768.375C349.823 770.584 346.999 769.886 346.999 767.231C346.999 762.871 351.681 761.669 354.96 765.189L356.999 767.377V764.689V762L348.749 762.03C342.656 762.053 340.957 762.327 342.249 763.08ZM260.762 764.212C259.83 767.007 261.243 770 263.493 770C266.748 770 268.424 767.663 267.033 765.064C265.828 762.812 261.428 762.214 260.762 764.212ZM362.006 777.25C362.013 780.395 362.156 780.506 366.427 780.698C369.305 780.827 371.268 780.381 372.069 779.416C373.125 778.144 372.943 778.071 370.769 778.897C367.922 779.98 363.999 777.979 363.999 775.443C363.999 774.649 363.549 774 362.999 774C362.449 774 362.002 775.462 362.006 777.25ZM378.006 777.25C378.013 780.395 378.156 780.506 382.427 780.698C384.873 780.808 387.284 780.362 387.836 779.698C388.579 778.804 387.901 778.5 385.165 778.5C382.322 778.5 381.277 777.995 380.512 776.25C379.1 773.033 377.998 773.473 378.006 777.25ZM137.81 777.431C135.165 779.76 135.156 779.808 137.274 780.362C139.569 780.962 140.959 779.608 140.984 776.75C141.003 774.578 141.065 774.565 137.81 777.431ZM301.395 777.463L299.29 779.843L301.351 780.382C303.956 781.063 304.224 780.766 303.824 777.633L303.499 775.084L301.395 777.463ZM355.499 777C355.15 778.1 354.107 779.029 353.182 779.063C352.052 779.106 352.296 779.445 353.921 780.095C356.551 781.146 357.955 779.989 357.984 776.75C358.005 774.362 356.281 774.536 355.499 777ZM469.327 784.5C469.332 788.35 469.512 789.802 469.729 787.728C469.945 785.653 469.942 782.503 469.721 780.728C469.5 778.952 469.323 780.65 469.327 784.5ZM0.637258 786.5C0.321258 787.325 0.498258 788 1.03026 788C1.56326 788 1.99926 787.325 1.99926 786.5C1.99926 785.675 1.82226 785 1.60626 785C1.39026 785 0.954258 785.675 0.637258 786.5ZM18.2493 791.689C19.2113 791.941 20.7873 791.941 21.7493 791.689C22.7113 791.438 21.9243 791.232 19.9993 791.232C18.0743 791.232 17.2873 791.438 18.2493 791.689ZM34.9993 791.906C51.3163 792.916 169.717 793.266 170.31 792.305C170.601 791.835 137.912 791.407 97.6693 791.353C57.4253 791.299 29.2243 791.548 34.9993 791.906ZM172.409 792.146C172.118 792.616 177.533 793 184.44 793C191.347 793 196.998 792.663 196.997 792.25C196.995 791.201 173.055 791.1 172.409 792.146ZM198.344 792.25C198.089 792.663 221.608 793 250.607 793C279.606 793 303.122 792.789 302.864 792.532C302.066 791.734 198.835 791.455 198.344 792.25ZM340.749 792.75C361.237 792.901 394.761 792.901 415.249 792.75C435.737 792.599 418.974 792.475 377.999 792.475C337.024 792.475 320.261 792.599 340.749 792.75ZM456.749 792.732C459.086 792.943 462.912 792.943 465.249 792.732C467.586 792.522 465.674 792.349 460.999 792.349C456.324 792.349 454.412 792.522 456.749 792.732Z" fill="black"/>
</svg>
