<svg width="30" height="217" viewBox="0 0 30 217" fill="none" xmlns="http://www.w3.org/2000/svg">
<path fill-rule="evenodd" clip-rule="evenodd" d="M13.446 1.08701C12.416 2.75501 14.733 4.66699 16.113 3.28699C17.267 2.13299 16.545 0 15 0C14.515 0 13.816 0.489006 13.446 1.08701ZM12.4 12.765C8.98602 15.045 9.03401 21.308 12.476 22.629C14.747 23.5 14.468 31.719 12.033 35.714C10.955 37.481 10.479 39.178 10.975 39.485C11.471 39.791 12.341 39.245 12.908 38.271C13.475 37.297 13.953 37.002 13.97 37.615C13.986 38.228 13.049 39.94 11.886 41.418C9.59899 44.325 9.99601 46.078 12.476 44.02C13.774 42.943 14 43.135 14 45.319C14 46.728 13.552 48.159 13.005 48.497C10.44 50.082 10.048 52.791 12.022 55.301C13.727 57.468 14 59.371 14 69.085V80.354L10.355 85.646C8.34998 88.557 6.25601 90.658 5.70001 90.315C5.11601 89.954 5.001 90.192 5.427 90.881C5.84 91.55 4.81099 94.178 3.08099 96.873C1.38699 99.514 0 101.987 0 102.369C0 102.75 3.15 107.79 7 113.569L14 124.077V135.634C14 145.719 13.736 147.562 11.93 150.099L9.85999 153.006L11.93 155.638C13.068 157.085 14 159.42 14 160.826C14 163.278 13.942 163.303 12.582 161.443C11.802 160.376 10.853 159.814 10.473 160.194C10.093 160.574 10.731 162.218 11.891 163.847C13.051 165.476 13.986 167.189 13.97 167.654C13.953 168.119 13.475 167.703 12.908 166.729C12.341 165.755 11.44 165.228 10.906 165.558C10.337 165.91 10.777 167.521 11.967 169.447C14.751 173.952 14.769 181.518 12 183C10.627 183.735 10 185.094 10 187.335C10 191.15 11.512 193 14.629 193C19.601 193 21.835 186.552 18 183.268C15.259 180.921 15.3 173.868 18.082 169.368C20.114 166.08 19.595 164.805 17.2 167.2C15.259 169.141 15.824 167.055 18.109 163.847C19.269 162.218 19.907 160.574 19.527 160.194C19.147 159.814 18.198 160.376 17.418 161.443C16.058 163.303 16 163.278 16 160.826C16 159.42 16.959 157.05 18.132 155.559L20.264 152.849L18.132 149.965C16.245 147.412 16 145.752 16 135.509V123.938L23 113.431C26.85 107.652 29.999 102.603 29.998 102.212C29.997 101.82 26.848 96.775 23 91L16.004 80.5L16.008 69.5C16.012 60.281 16.329 58.022 17.961 55.545C19.892 52.615 19.892 52.562 17.955 49.427C15.506 45.465 15.24 42.125 17.524 44.02C20.004 46.078 20.401 44.325 18.114 41.418C16.951 39.94 16 38.255 16 37.674C16 37.093 16.638 37.491 17.418 38.557C19.785 41.795 20.378 39.348 18.114 35.685C15.251 31.052 15.188 23.505 18 22C20.554 20.633 20.651 15.899 18.171 13.655C16.218 11.888 14.184 11.574 12.4 12.765ZM12.411 15.371C11.299 18.268 12.432 20.5 15.014 20.5C17.11 20.5 17.5 20.029 17.5 17.5C17.5 15.148 17.013 14.431 15.246 14.18C13.923 13.992 12.751 14.485 12.411 15.371ZM13.329 16.584C12.613 18.451 14.39 20.495 15.913 19.554C17.501 18.573 17.241 16.306 15.462 15.624C14.571 15.282 13.674 15.686 13.329 16.584ZM13.545 50.859C12.884 52.94 13.774 56 15.04 56C16.254 56 17.143 52.537 16.416 50.641C15.579 48.462 14.274 48.561 13.545 50.859ZM8.70801 93.488L3.06299 102.025L8.78101 110.953C11.927 115.864 14.725 119.881 15 119.881C15.275 119.881 18.039 115.917 21.142 111.071L26.783 102.26L21.367 93.88C18.388 89.271 15.592 85.377 15.152 85.226C14.713 85.075 11.813 88.793 8.70801 93.488ZM14.092 150.389C12.799 151.948 13.454 156 15 156C16.366 156 17.213 152.203 16.236 150.457C15.446 149.046 15.213 149.039 14.092 150.389ZM13.25 184.662C11.756 185.265 11.576 189.62 13.009 190.506C14.97 191.718 18 189.917 18 187.54C18 185.749 15.855 183.522 14.668 184.079C14.576 184.122 13.938 184.385 13.25 184.662ZM13.336 186.567C12.502 188.739 14.618 190.782 16.133 189.267C17.413 187.987 16.62 185 15 185C14.415 185 13.667 185.705 13.336 186.567ZM13.688 201.646C12.272 203.061 13.073 205 15.073 205C16.471 205 17.041 204.457 16.823 203.333C16.466 201.492 14.759 200.574 13.688 201.646ZM14 216C14 216.55 14.45 217 15 217C15.55 217 16 216.55 16 216C16 215.45 15.55 215 15 215C14.45 215 14 215.45 14 216Z" fill="black"/>
</svg>
