<svg width="471" height="793" viewBox="0 0 471 793" fill="none" xmlns="http://www.w3.org/2000/svg">
<path fill-rule="evenodd" clip-rule="evenodd" d="M0.225 391.25C0.349 606.438 0.585 774.441 0.749 764.591L1.047 746.682L114.774 747.345C177.323 747.709 282.05 748.291 347.5 748.637C412.95 748.983 466.64 749.384 466.81 749.527C466.981 749.67 467.206 758.947 467.31 770.143L467.5 790.5L235.25 790.131C64.339 789.859 3 790.057 3 790.881C3 791.699 29.864 792.02 102.75 792.075C157.613 792.116 261.45 792.36 333.5 792.617C405.55 792.874 465.512 792.832 466.75 792.523C468.236 792.153 469.005 791.204 469.015 789.731C469.028 787.925 469.215 787.786 469.997 789C470.62 789.966 470.888 649.82 470.752 395C470.635 177.475 470.41 10.369 470.252 23.654L469.965 47.808L462.15 47.273C455.132 46.792 453.713 47.017 448.221 49.481C444.857 50.991 441.337 53.075 440.398 54.113C437.939 56.83 439.241 56.444 444.491 52.901C449.579 49.468 457.199 48.203 465.395 49.432L470 50.123V65.061C470 75.281 469.652 80 468.897 80C466.809 80 450.775 87.978 445.143 91.819C439.803 95.461 439.17 95.644 433.356 95.221C425.917 94.681 421.203 96.043 414.182 100.762C408.83 104.36 403 111.497 403 114.452C403 115.327 401.762 116.547 400.25 117.163C386.445 122.785 374.969 132.204 369.5 142.4C367.85 145.476 366.175 147.995 365.778 147.997C365.381 147.998 364.318 145.461 363.416 142.358C361.861 137.01 361.866 132.255 363.436 123.5C363.915 120.834 363.791 120.925 362.326 124.318C360.888 127.648 360.356 128.055 358.167 127.506C353.541 126.345 348.331 121.076 345.913 115.111C345.38 113.798 344.694 112.973 344.388 113.278C344.083 113.584 344.77 115.953 345.916 118.544C347.062 121.135 348 123.487 348 123.772C348 124.868 334.901 123 331.975 121.487C316.254 113.357 313.596 91.69 326.865 79.822C331.428 75.74 331.092 75.535 325.82 79.182C324.148 80.339 322.904 80.653 322.511 80.018C321.545 78.455 319.99 78.811 320.62 80.451C320.926 81.249 320.012 84.813 318.588 88.372C313.688 100.619 316.273 111.954 325.719 119.641C331.667 124.482 336.05 125.986 344.226 125.994C348.18 125.998 350.965 126.618 353.226 127.996C355.027 129.094 357.288 129.994 358.25 129.996C359.664 129.999 360.008 130.911 360.044 134.75C360.068 137.363 360.78 141.3 361.625 143.5C362.471 145.7 363.374 148.4 363.632 149.5C364.317 152.42 355.703 165.282 347.894 173C344.277 176.575 337.758 184.9 333.409 191.5C329.059 198.1 325.163 203.387 324.75 203.25C324.337 203.113 321.307 203 318.015 203H312.029L314.011 199.75C316.082 196.354 316.726 190 315 190C314.45 190 314 191.512 314 193.36C314 197.379 310.432 203.046 304.652 208.207C302.368 210.246 300.925 211.934 301.445 211.957C301.965 211.981 303.653 210.791 305.195 209.313L308 206.626V210.879C308 213.218 307.514 216.04 306.919 217.151C306.324 218.262 306.063 219.396 306.338 219.671C307.349 220.682 309.178 215.677 309.721 210.414L310.28 205H317.257C323.446 205 324.171 205.197 323.678 206.75C323.372 207.713 320.719 214.35 317.782 221.5L312.441 234.5L307.443 234.795C302.59 235.081 302.281 234.929 296.828 229.605C293.739 226.589 291.405 223.929 291.64 223.693C291.876 223.457 290.741 222.998 289.117 222.673C286.705 222.191 286.267 221.694 286.721 219.958C287.027 218.789 288.227 217.449 289.388 216.98C290.685 216.456 290.921 216.102 290 216.061C288.793 216.009 288.5 214.384 288.5 207.748C288.5 201.746 287.999 198.493 286.66 195.8C284.874 192.21 285.054 190 287.132 190C287.69 190 287.968 190.787 287.75 191.75C287.532 192.713 287.96 194.738 288.702 196.25C289.7 198.283 290.788 199 292.877 199C295.701 199 304.284 195.023 306.87 192.516C307.624 191.786 305.648 192.496 302.479 194.094C295.289 197.721 291.361 197.887 289.876 194.626C288.27 191.102 290.273 188.247 296.33 185.427C301.67 182.94 308 182.198 308 184.059C308 184.641 308.483 184.819 309.074 184.454C309.665 184.089 311.301 184.85 312.71 186.145L315.271 188.5L314.101 186.25C310.7 179.716 304.159 179.598 291.595 185.842C283.593 189.819 283.587 189.82 281.159 187.911C278.378 185.723 274.109 185.421 271.813 187.25C269.876 188.793 263.578 198.701 260.052 205.754L257.425 211.007L247.214 211.436L237.003 211.864L233.901 207.357C228.129 198.967 221.487 196.946 214.744 201.528C210.271 204.568 209.543 207.007 210.325 216.337L210.922 223.455L202.091 232.478C192.79 241.98 189.085 248.013 185.082 260.178C182.429 268.243 181.111 282.905 182.212 292.123C183.196 300.361 189.455 316.127 194.434 322.91C199.054 329.204 208.758 338.188 214.691 341.665C218.696 344.012 219.063 344.485 217.41 345.173C200.831 352.078 192.162 359.819 193.582 366.45C194.473 370.61 194.571 370.727 199.318 373.264C203.237 375.359 204.728 375.5 223 375.5C242.488 375.5 248 374.921 248 372.874C248 372.239 247.271 372.076 246.25 372.482C245.287 372.866 237.3 373.417 228.5 373.708C204.902 374.489 195.895 372.22 195.199 365.32C194.672 360.097 203.651 352.549 215.157 348.542C221.344 346.387 221.998 346.55 222.015 350.25C222.024 352.038 222.509 354.175 223.093 355C223.872 356.099 223.994 355.11 223.549 351.294L222.943 346.089L225.721 347.538C227.25 348.335 229.4 348.997 230.5 349.007C235.917 349.061 237 350.023 237 354.783C237 360.162 238.259 359.707 238.46 354.256L238.599 350.5L247.049 350.808C251.697 350.978 257.592 350.707 260.148 350.207C264.76 349.303 264.803 349.32 265.796 352.398L266.796 355.5L266.898 352.276C266.976 349.816 267.652 348.722 269.75 347.663C271.262 346.899 273.063 346.475 273.75 346.721C274.437 346.966 275 346.77 275 346.284C275 345.799 276.525 344.85 278.388 344.177C284.519 341.96 303 326.35 303 323.388C303 322.742 303.617 321.977 304.372 321.688C305.126 321.398 306.714 319.156 307.901 316.705C309.087 314.255 312.857 309.681 316.279 306.541C319.7 303.402 323.4 299.996 324.5 298.972C325.6 297.948 333.275 293.547 341.554 289.191C359.733 279.628 363.531 277.274 367.739 272.963C371.873 268.726 371.029 267.642 366.735 271.673C361.899 276.213 355.895 279.974 341.5 287.483C325.629 295.762 324.486 296.538 314.626 305.733C304.437 315.236 301.977 316.556 298.146 314.575C296.576 313.764 292.976 310.566 290.146 307.469C287.316 304.372 285 302.223 285 302.692C285 304.24 291.266 311.18 295.308 314.108L299.28 316.985L295.672 318.493C290.621 320.603 283.729 320.369 277.97 317.892C274.157 316.252 271.724 314.076 267.013 308.094C261.027 300.496 255.673 296.103 254.57 297.887C254.258 298.392 255.309 299.261 256.907 299.818C258.585 300.403 261.543 303.174 263.911 306.38C266.166 309.432 269.246 313.103 270.755 314.538L273.5 317.148L265.5 316.449C252.74 315.336 248.604 312.224 248.539 303.689C248.504 299.055 248.741 298.466 250.75 298.18C253.382 297.807 253.81 296 251.267 296C247.935 296 256.223 289.242 265.31 284.55C275.208 279.438 278.775 278.683 276.954 282.086C275.234 285.3 276.587 285.508 278.474 282.319C279.392 280.769 282.844 277.475 286.146 275C295.072 268.308 299.392 263.153 304.297 253.337C306.726 248.477 310.353 241.425 312.356 237.667C314.36 233.909 316 230.19 316 229.403C316 228.617 316.413 227.191 316.917 226.236C317.422 225.281 319.475 220.9 321.479 216.5C325.387 207.92 333.672 194 334.871 194C335.272 194 336.241 194.562 337.023 195.25C337.806 195.938 337.695 195.591 336.777 194.48C335.207 192.582 335.23 192.265 337.151 189.23C338.276 187.453 339.544 186 339.969 186C340.394 186 341.813 187.572 343.121 189.493C344.429 191.414 345.889 192.989 346.365 192.993C347.553 193.003 344.084 187.803 341.826 186.191C339.41 184.466 340.512 182.42 347.633 175.413C354.054 169.093 375.327 152.894 381.016 149.992C385.129 147.893 385.937 147 383.721 147C382.476 147 367.513 156.55 361.5 161.182L358.5 163.494L360.231 160.811C361.183 159.335 362.803 156.636 363.831 154.814C372.894 138.742 378.959 131.067 386.339 126.328C390.013 123.969 390.238 123.941 391.558 125.681C392.655 127.129 392.95 127.194 393.001 126C393.048 124.932 393.633 125.18 395.033 126.861C397.301 129.583 397.733 128.351 395.532 125.441C393.18 122.332 393.719 121.339 398.481 120.005C403.125 118.705 405.588 116.76 404.604 115.168C403.759 113.801 409.033 106.436 413.02 103.418C420.972 97.396 429.259 94.871 434.425 96.895C436.063 97.537 435.344 98.367 429.603 102.464C425.891 105.112 418.95 109.282 414.178 111.73C406.078 115.884 406.875 117.04 415.099 113.066C418.454 111.445 418.989 111.418 420.366 112.794C421.742 114.171 421.847 114.132 421.397 112.41C420.744 109.914 426.398 106.255 428.374 107.895C429.346 108.702 429.636 108.463 429.577 106.902C429.528 105.58 431.047 103.718 433.837 101.682C438.102 98.569 438.198 98.55 439.65 100.508C441.057 102.406 441.112 102.359 440.813 99.5C440.597 97.427 440.939 96.5 441.921 96.5C443.837 96.5 456.016 114.365 461.69 125.5C469.785 141.388 470 142.463 470 167.114V188.915L460.75 193.358C450.811 198.132 441 205.238 441 207.662C441 208.616 442.897 207.563 446.25 204.749C452.799 199.255 456.984 196.739 464 194.083C467.025 192.938 469.676 192.001 469.892 192.001C470.107 192 469.997 236.662 469.647 291.25C469.296 345.837 468.723 437.75 468.372 495.5C468.022 553.25 467.608 600.649 467.453 600.831C467.298 601.013 466.12 600.581 464.836 599.872C463.434 599.097 458.902 598.565 453.5 598.541C445.958 598.507 443.771 598.88 440 600.843C433.975 603.979 431.465 606.444 427.836 612.787C423.451 620.451 424.82 620.096 430.047 612.214C433.818 606.529 435.496 604.989 441 602.162C447.088 599.036 447.94 598.864 454.452 599.438C458.275 599.775 462.715 600.827 464.318 601.776L467.233 603.5L467.496 631.5C467.64 646.9 467.587 659.796 467.377 660.158C467.167 660.52 465.084 659.887 462.748 658.752C453.914 654.458 436.195 655.812 431.364 661.15C429.962 662.7 430.742 662.539 435.571 660.284C444.537 656.097 457.913 656.713 465.817 661.678L468.133 663.133L467.446 704.817C467.069 727.743 466.64 746.637 466.493 746.804C466.346 746.971 465.388 747.14 464.363 747.179C459.179 747.378 242.452 745.696 242.169 745.454C241.527 744.906 244.207 740.777 247.75 736.855C251.321 732.902 256.326 730.128 260.372 729.858C261.542 729.78 260.819 729.443 258.763 729.108L255.027 728.5L257.434 723.322C260.932 715.797 273.145 703.47 282.646 697.874C293.386 691.549 296.531 690.697 307.397 691.172C315.464 691.525 317.517 692.024 324.431 695.307C328.755 697.36 332.465 698.869 332.674 698.659C332.884 698.449 330.006 696.695 326.278 694.761C317.037 689.967 310.507 688.587 300.864 689.391L293 690.047L292.903 687.273C292.85 685.748 292.86 682.7 292.926 680.5C293.028 677.11 292.873 676.784 291.909 678.365C291.268 679.416 290.96 682.51 291.204 685.446L291.636 690.662L284.389 694.393C280.403 696.445 275.036 699.977 272.462 702.242C264.878 708.918 256.397 719.393 254.452 724.488C253.369 727.324 250.503 731.366 247.321 734.549C244.394 737.475 241.588 740.953 241.085 742.278C240.222 744.547 239.574 744.721 229.834 745.294C224.151 745.628 206.9 745.712 191.5 745.48C176.1 745.249 127.297 744.805 83.049 744.495C38.8 744.185 2.449 743.782 2.267 743.6C2.085 743.418 1.915 692.079 1.89 629.512C1.858 549.269 2.163 515.437 2.925 514.675C4.494 513.106 18.88 515.388 24.052 518.027C29.151 520.628 36.268 527.079 39.107 531.674C41.614 535.73 42.839 535.458 40.602 531.343C34.545 520.204 20.196 512 6.772 512H2L1.972 488.25C1.907 432.241 2.085 404.582 2.514 404.153C2.766 403.9 8.664 405.868 15.62 408.526C33.133 415.218 40.295 420.792 53.636 438.113C56.861 442.3 63.203 450.261 67.73 455.803C75.496 465.312 86.693 480.387 96.845 495C99.328 498.575 101.617 501.725 101.93 502C102.244 502.275 105.2 506.512 108.5 511.417C117.011 524.065 129.401 536.695 144.776 548.396C164.976 563.77 165.024 563.81 176.699 574.606C191.035 587.865 193.633 588.806 219.236 590.02C229.281 590.496 241.775 591.416 247 592.063C257.424 593.355 276.108 592.768 282.5 590.948C286.444 589.824 291 586.504 291 584.753C291 584.259 289.816 584.786 288.369 585.924C286.923 587.062 284.11 588.429 282.119 588.961C277.012 590.327 249.323 590.432 238 589.128C232.775 588.527 223.55 588.02 217.5 588.003C205.881 587.969 196.405 586.269 190.219 583.109C188.173 582.065 183.774 578.575 180.442 575.355C170.705 565.944 162.455 559.014 147 547.264C132.078 535.918 120.407 524.879 114.392 516.42C112.506 513.766 110.633 511.348 110.231 511.047C109.829 510.746 109.05 509.75 108.5 508.833C101.699 497.497 79.797 467.131 71.476 457.5C68.625 454.2 63.045 447.225 59.076 442C42.093 419.642 35.723 414.357 16.14 406.376C9.783 403.785 5.266 401.347 4.844 400.279C4.202 398.655 4.134 398.67 4.07 400.45C4.023 401.749 3.666 402.066 3.001 401.401C2.37 400.77 1.98 385.188 1.944 359.074L1.886 317.745L5.322 312.623C7.211 309.805 10.557 305.572 12.756 303.216L16.755 298.933L22.076 301.03C29.36 303.901 29.312 303.85 27.495 306.843L25.881 309.5L27.851 307.25C30.164 304.608 31.477 304.316 30.584 306.641C30.056 308.017 30.202 308.077 31.484 307.013C32.752 305.961 33.696 306.195 36.998 308.38L40.983 311.017L36.19 317.758C20.801 339.405 9.96 365.492 6.012 390.377C4.628 399.104 5.304 400.059 7.002 391.775C12.773 363.617 20.296 344.664 33.702 324.5C40.478 314.309 42.56 312.16 44.135 313.735C44.869 314.469 44.839 315.496 44.036 317.143L42.887 319.5L44.73 317.402C46.44 315.457 46.752 315.416 49.037 316.842C53.536 319.649 56.066 322.387 55.507 323.843C55.042 325.054 55.209 325.072 56.553 323.956C57.499 323.171 58.428 323.011 58.826 323.566C59.197 324.081 60.722 325.133 62.216 325.902C63.71 326.672 64.727 327.633 64.477 328.038C64.226 328.443 64.804 328.712 65.761 328.637C66.717 328.562 67.393 329.046 67.262 329.714C67.129 330.392 67.65 330.688 68.441 330.384C69.22 330.085 72.623 330.849 76.003 332.081C81.056 333.924 82.061 334.66 81.653 336.218C81.256 337.738 81.431 337.887 82.538 336.969C84.009 335.748 89.572 336.499 90.529 338.048C90.833 338.539 90.361 340.417 89.481 342.221L87.88 345.5L89.918 343C91.038 341.625 91.966 340.087 91.978 339.583C91.99 339.079 92.261 338.928 92.581 339.248C92.901 339.567 92.66 340.767 92.046 341.914C91.221 343.456 91.224 344 92.058 344C92.679 344 93.419 343.114 93.702 342.031C94.178 340.212 94.43 340.171 97.004 341.502C102.211 344.195 111.474 354.466 116.396 363.006C119.088 367.678 122.162 372.962 123.227 374.75C124.292 376.537 124.882 378 124.539 378C124.196 378 121.571 376.288 118.707 374.195C110.106 367.911 101.748 363.038 100.691 363.691C100.145 364.029 101.538 365.249 103.787 366.403C114.747 372.023 136.852 390.178 143.202 398.774L147.199 404.183L144.412 407.092C142.88 408.691 141.975 410 142.403 410C142.83 410 144.007 408.988 145.019 407.75C147.227 405.048 147.975 405.588 152.689 413.29C160.036 425.295 163.131 431.193 165.988 438.632C169.623 448.098 182.306 473.889 186.121 479.575C187.625 481.817 191.476 485.628 194.678 488.044C202.933 494.272 205.872 497.022 206.547 499.147C206.87 500.166 207.57 501 208.103 501C208.703 501 208.677 500.266 208.035 499.066C206.7 496.571 206.731 496 208.2 496C210.731 496 228.528 505.662 231.929 508.882C235.21 511.99 235.341 512.322 233.536 512.97C231.778 513.602 231.857 513.747 234.286 514.357C236.663 514.953 237 515.527 237 518.972C237 527.428 232.644 531.338 221.413 532.961C211.392 534.41 211.377 534.401 215.648 529.75C217.794 527.413 220.559 523.86 221.791 521.856C223.023 519.853 225.636 517.452 227.597 516.521C229.558 515.59 230.9 514.567 230.58 514.246C229.275 512.942 224.44 516.879 218.287 524.255C211.379 532.537 209.036 534.207 201.739 536.044C197.992 536.988 196.177 536.903 191.588 535.569C185.806 533.888 184.611 532.576 187.908 531.529C190.618 530.669 195.491 526.14 198.429 521.75C201.979 516.448 200.042 517.068 196.25 522.448C192.23 528.15 185.896 532.442 182.688 531.636C181.386 531.31 176.605 527.62 172.063 523.438C162.75 514.862 154.828 509.526 141 502.514C129.737 496.802 124.979 493.894 119.25 489.224C114.182 485.092 113.496 486.472 118.454 490.825C122.232 494.142 131.333 499.592 143 505.523C147.125 507.62 151.936 510.18 153.69 511.212L156.88 513.089L154.816 516.587C153.681 518.511 152.994 520.328 153.291 520.624C153.587 520.92 154.605 519.527 155.554 517.528C156.694 515.124 157.767 514.08 158.721 514.446C159.514 514.751 160.352 515 160.582 515C160.812 515 161 515.675 161 516.5C161 517.325 161.626 518 162.391 518C164.356 518 174.777 528.654 176.994 532.93C183.92 546.285 197.994 557.884 214.75 564.047C217.57 565.084 218.012 565.723 218.09 568.871L218.18 572.5L219.122 569.239C219.95 566.367 220.372 566.055 222.646 566.626C224.067 566.983 230.016 567.325 235.865 567.387L246.5 567.5L246.183 570.218C246.008 571.713 246.332 573.738 246.902 574.718C247.724 576.13 247.945 575.507 247.97 571.719C248.002 566.609 248.323 566.282 254 565.572C255.925 565.332 257.613 565.048 257.75 564.942C257.887 564.837 258.337 564.687 258.75 564.61C259.163 564.533 260.006 564.147 260.625 563.753C261.416 563.249 261.651 564.441 261.416 567.768L261.081 572.5L262.183 568.25C263.41 563.514 263.602 563.446 270.148 565.432C279.493 568.268 288.342 574.938 289.899 580.319L290.82 583.5L290.91 580.685C291.076 575.504 281.013 567.41 268.085 562.323C265.783 561.418 266.005 561.151 272.776 556.649C293.364 542.962 305.242 518 302.905 493.334C300.958 472.791 293.379 457.349 279.262 445.161L273.986 440.606L274.628 432.909C274.981 428.675 274.987 424.085 274.642 422.709C273.812 419.401 267.898 416 262.978 416C258.628 416 253.631 419.621 250.114 425.32L248.152 428.5L238.059 428.183L227.966 427.866L225.478 422.957C220.933 413.988 213.857 403.892 211.298 402.726C209.193 401.767 208.121 401.933 204.841 403.73L200.909 405.884L192.757 401.942C184.832 398.11 178.76 397.004 174.539 398.623C172.247 399.503 168.999 406.301 169.004 410.21C169.006 412.02 169.899 414.962 170.989 416.75L172.971 420H166.094H159.217L152.375 409.25C148.613 403.337 142.134 394.9 137.978 390.5C129.988 382.041 126.735 377.47 117.535 361.774C111.744 351.894 104.123 343.457 97.197 339.259C95.164 338.027 89.225 335.374 84 333.365C72.001 328.75 63.804 324.697 57.748 320.384C55.134 318.523 52.609 317 52.138 317C51.666 317 49.714 315.537 47.8 313.75C45.886 311.962 40.761 308.42 36.41 305.877C29.361 301.757 25.087 299.741 11.791 294.262C9.617 293.366 6.84 292.982 5.08 293.334L2.077 293.935L1.788 273.217C1.63 261.823 1.625 246.627 1.778 239.448L2.055 226.397L8.278 225.306C24.203 222.513 33.732 215.842 37.914 204.556C40.251 198.249 41.023 189.537 39.7 184.385L38.901 181.271L43.822 180.618C50.096 179.786 59.794 173.638 64.048 167.799C68.368 161.867 70.186 158.168 69.756 156.183C69.528 155.13 68.377 156.605 66.681 160.126C62.034 169.776 51.876 177.65 41.787 179.424C38.279 180.041 37.935 179.858 35.577 176.122C31.728 170.024 30.282 169.998 33.745 176.089C38.244 184.004 39.154 188.351 37.919 196.025C35.845 208.899 30.06 216.62 19.367 220.785C14.319 222.751 2.993 225.256 2.254 224.57C2.119 224.444 1.981 192.285 1.948 153.105L1.887 81.869L4.354 77.684C7.771 71.889 11.84 68.267 18.669 64.94C22.187 63.227 23.689 62.08 22.456 62.05C18.974 61.965 9.709 68.265 6.054 73.203C4.14 75.79 2.474 77.807 2.353 77.687C2.232 77.566 1.991 60.492 1.817 39.744C1.565 9.748 1.763 1.921 2.783 1.53C3.488 1.259 48.905 1.025 103.709 1.01C158.512 0.994 203.573 0.761 203.843 0.491C204.113 0.221 158.358 0 102.167 0H0L0.225 391.25ZM210.75 0.662C211.438 0.94 212.563 0.94 213.25 0.662C213.938 0.385 213.375 0.158 212 0.158C210.625 0.158 210.063 0.385 210.75 0.662ZM232.126 5.416C235.906 12.395 236.969 21.756 234.62 27.372C232.729 31.892 232.713 32 233.917 32C234.422 32 235.608 29.974 236.554 27.498C238.978 21.152 238.122 11.59 234.591 5.565L231.946 1.051L247.723 0.748L263.5 0.445L246.346 0.223L229.192 0L232.126 5.416ZM271.762 0.707C273.006 0.946 274.806 0.937 275.762 0.687C276.718 0.437 275.7 0.241 273.5 0.252C271.3 0.263 270.518 0.468 271.762 0.707ZM283.269 0.693C284.242 0.947 285.592 0.93 286.269 0.656C286.946 0.382 286.15 0.175 284.5 0.195C282.85 0.215 282.296 0.439 283.269 0.693ZM291.813 0.683C292.534 0.972 293.397 0.936 293.729 0.604C294.061 0.272 293.471 0.036 292.417 0.079C291.252 0.127 291.015 0.364 291.813 0.683ZM309.185 0.518C309.469 0.803 308.183 2.647 306.327 4.615C300.855 10.416 299.6 13.653 299.585 22C299.574 27.963 300.096 30.636 302.136 35.046C305.577 42.483 310.115 47.438 315.521 49.662C319.774 51.411 319.96 51.657 319.383 54.75C318.539 59.277 319.551 58.803 321.856 53.592C323.253 50.435 325.321 48.164 329.14 45.592C332.073 43.616 334.112 42 333.671 42C332.336 42 328.707 44.159 324.857 47.243C321.252 50.132 321.18 50.145 317.857 48.471C308.296 43.654 302.816 34.692 302.198 22.863C301.727 13.853 303.121 10.115 309.228 4.007C312.899 0.337 313.043 0 310.951 0C309.695 0 308.9 0.233 309.185 0.518ZM0.495 391.5C0.495 606.55 0.61 694.674 0.75 587.331C0.89 479.989 0.89 304.039 0.75 196.331C0.61 88.624 0.495 176.45 0.495 391.5ZM218.641 7.969C219.606 9.602 220.607 10.727 220.866 10.468C221.542 9.791 218.833 5 217.774 5C217.286 5 217.676 6.336 218.641 7.969ZM214.638 7.5C214.955 8.325 215.671 9 216.229 9C216.815 9 216.718 8.365 216 7.5C215.315 6.675 214.599 6 214.409 6C214.219 6 214.322 6.675 214.638 7.5ZM224.168 12.051C224.753 13.729 225.458 14.875 225.736 14.598C226.529 13.804 225.067 9 224.033 9C223.49 9 223.547 10.269 224.168 12.051ZM230.745 16C231.273 25.542 231.613 26.711 232.118 20.714C232.339 18.082 232.027 14.257 231.425 12.214C230.454 8.919 230.377 9.347 230.745 16ZM227.744 16C228.034 19.575 228.435 22.688 228.635 22.917C229.373 23.759 228.833 13.435 228.038 11.5C227.556 10.326 227.435 12.183 227.744 16ZM68.75 11.716C63.127 12.568 66.253 13.489 73.669 13.165C78.711 12.945 80.855 12.521 79.921 11.93C78.495 11.027 73.881 10.939 68.75 11.716ZM72.549 15.921C72.228 16.44 75.252 16.985 79.492 17.171C87.454 17.52 89.521 16.678 83.25 15.642C77.81 14.743 73.203 14.863 72.549 15.921ZM87 21.499C90.025 22.23 92.655 22.675 92.844 22.487C93.376 21.958 85.747 20.001 83.5 20.091C82.4 20.134 83.975 20.768 87 21.499ZM357.264 21.718C358.784 21.947 361.034 21.941 362.264 21.704C363.494 21.467 362.25 21.279 359.5 21.286C356.75 21.294 355.744 21.488 357.264 21.718ZM95 24C96.958 25.266 98.282 25.266 97.5 24C97.16 23.45 96.121 23.007 95.191 23.015C93.734 23.029 93.707 23.165 95 24ZM348.5 26C347.239 26.542 347.055 26.859 348 26.859C348.825 26.859 350.4 26.473 351.5 26C352.761 25.458 352.945 25.141 352 25.141C351.175 25.141 349.6 25.527 348.5 26ZM91.463 29.941C91.833 30.539 93.816 31.886 95.87 32.934C97.924 33.982 102.041 37.013 105.02 39.669C109.651 43.801 110.104 44.029 108.148 41.248C106.89 39.459 104.429 36.923 102.68 35.612C98.632 32.578 90.576 28.505 91.463 29.941ZM338.507 29.989C338.157 30.555 338.558 30.723 339.448 30.382C341.18 29.717 341.497 29 340.059 29C339.541 29 338.843 29.445 338.507 29.989ZM66.286 32.393C60.098 34.412 53.158 38.749 48.817 43.313C43.244 49.172 45.019 49.098 51.469 43.203C58.321 36.94 65.856 33.903 76.185 33.242C83.175 32.795 84.445 33.02 90.232 35.728C93.732 37.365 98.261 40.168 100.297 41.956C102.334 43.744 103.998 44.823 103.995 44.354C103.983 42.323 99.05 37.856 93.5 34.852C88.292 32.033 86.378 31.566 79 31.312C73.719 31.13 68.904 31.54 66.286 32.393ZM107.5 36.81C109.7 39.096 111.907 40.974 112.405 40.983C113.682 41.007 110.072 37.178 106.5 34.719C103.969 32.977 104.125 33.304 107.5 36.81ZM228.12 37.574C224.77 41.833 218.748 45.621 213.219 46.948C210.348 47.636 208 48.43 208 48.711C208 49.603 215.34 47.912 219.622 46.034C223.823 44.191 232 37.486 232 35.884C232 34.2 230.136 35.012 228.12 37.574ZM333 37.082L330.5 39.12L333.75 37.535C335.538 36.662 337 35.735 337 35.474C337 34.48 335.407 35.12 333 37.082ZM453.5 36C451.888 36.693 452.216 36.873 455.191 36.93C457.221 36.968 459.16 36.55 459.5 36C460.246 34.793 456.308 34.793 453.5 36ZM452.25 39.24C449.913 39.723 448 40.55 448 41.078C448 41.645 449.125 41.723 450.75 41.269C452.262 40.846 455.684 40.584 458.353 40.687C461.023 40.79 462.997 40.663 462.739 40.406C461.399 39.066 455.997 38.465 452.25 39.24ZM325.441 42.555C323.577 44.049 323.589 44.067 325.75 43.02C326.988 42.42 328 41.72 328 41.465C328 40.7 327.481 40.921 325.441 42.555ZM448.75 44.299C447.238 44.897 446 45.765 446 46.228C446 46.691 446.955 46.559 448.122 45.935C449.289 45.31 452.326 44.447 454.872 44.017L459.5 43.235L455.5 43.224C453.3 43.218 450.262 43.702 448.75 44.299ZM193 45.318C195.697 46.877 202.934 48.69 201.829 47.529C201.46 47.142 199.66 46.466 197.829 46.028C195.998 45.589 193.6 44.925 192.5 44.552C191.248 44.127 191.435 44.413 193 45.318ZM184 45.393C184 45.609 184.698 46.054 185.552 46.382C186.442 46.723 186.843 46.555 186.493 45.989C185.906 45.038 184 44.583 184 45.393ZM190 48.239C190.825 49.135 192.85 50.126 194.5 50.44L197.5 51.012L194.5 49.872C192.85 49.245 190.825 48.254 190 47.67C188.667 46.727 188.667 46.791 190 48.239ZM40.58 55L37.888 61L31.194 61.147L24.5 61.293L31.612 61.951C36.213 62.376 40.613 63.543 44.075 65.257C47.019 66.714 49.591 67.742 49.792 67.542C50.355 66.978 42.698 62 41.268 62C39.297 62 39.786 58.917 42.512 54.148C45.274 49.316 45.374 49 44.137 49C43.662 49 42.061 51.7 40.58 55ZM216.654 57.138C217.392 67.711 215.45 74.946 210.239 81.034C206.503 85.399 205.409 85.293 204.727 80.5C204.492 78.85 204.232 80.28 204.15 83.677C204.03 88.628 203.294 91.21 200.445 96.677C195.907 105.388 192.803 108.623 186.126 111.602C177.472 115.463 167.463 114.648 157.234 109.251C155.437 108.303 154.159 107.071 154.393 106.514C154.627 105.956 155.54 103.813 156.423 101.75C157.305 99.687 157.863 98 157.663 98C157.463 98 155.919 100.22 154.232 102.934C150.712 108.596 145.202 112.97 136.208 117.24C124.634 122.736 110.592 122.64 98.619 116.982C90.038 112.928 89.222 111.856 91.338 107.418C93.031 103.867 93.34 96.905 92.044 91.5C91.563 89.494 91.312 91.265 91.285 96.845C91.25 104.391 90.971 105.578 88.373 109.256C82.244 117.932 67.547 124.749 57.261 123.687C54.252 123.377 52.026 123.359 52.315 123.649C53.595 124.928 60.113 125.666 64.395 125.016C67.282 124.578 69.313 124.698 69.704 125.33C70.052 125.893 70.598 129.087 70.918 132.427C71.238 135.767 71.95 138.371 72.5 138.214C73.635 137.889 73.241 129.765 71.923 126.298C71.143 124.247 71.568 123.746 75.989 121.505C78.705 120.13 82.465 117.653 84.345 116.002C86.226 114.351 87.997 113 88.282 113C88.566 113 91.141 114.576 94.003 116.502C101.658 121.654 108.387 123.299 119.887 122.829C128.187 122.491 130.454 121.99 136.486 119.161C140.328 117.359 145.728 114.194 148.486 112.127L153.5 108.369L156.912 110.694C158.788 111.972 162.582 113.689 165.343 114.509C179.08 118.589 191.073 114.429 199.059 102.815C201.567 99.168 204.24 94.231 204.998 91.842C205.756 89.454 208.344 85.353 210.748 82.729C216.937 75.974 218.345 72.115 218.312 62C218.297 57.325 217.782 52.375 217.167 51C216.286 49.028 216.178 50.326 216.654 57.138ZM193.796 54.169C195.076 55.398 202 56.279 202 55.212C202 54.656 199.996 54.042 197.546 53.847C195.097 53.652 193.41 53.797 193.796 54.169ZM318 66.809C318 72.419 318.443 75.164 319.572 76.559C321.059 78.396 321.113 78.32 320.572 75.125C320.257 73.269 320 68.881 320 65.375C320 61.792 319.562 59 319 59C318.419 59 318 62.27 318 66.809ZM353 69C353.825 69.533 356.075 69.931 358 69.885C361.207 69.808 361.291 69.734 359 69C357.625 68.56 355.375 68.161 354 68.115C352.034 68.049 351.821 68.238 353 69ZM350.762 72.707C352.006 72.946 353.806 72.937 354.762 72.687C355.718 72.437 354.7 72.241 352.5 72.252C350.3 72.263 349.518 72.468 350.762 72.707ZM359.5 74C362.249 75.181 363.828 75.181 362 74C361.175 73.467 359.825 73.055 359 73.086C358.011 73.122 358.181 73.433 359.5 74ZM142.143 80.143C141.438 81.271 141.081 82.414 141.35 82.683C141.618 82.952 142.361 82.194 143 81C144.511 78.176 143.809 77.474 142.143 80.143ZM145.043 83.896C144.369 85.524 142.958 87.633 141.909 88.583C139.937 90.367 139.238 92.589 140.988 91.507C142.403 90.633 147.338 82.005 146.756 81.423C146.488 81.155 145.718 82.268 145.043 83.896ZM147.084 87.172C145.309 90.028 144.558 91.782 145.416 91.07C147.419 89.407 151.37 83.037 150.77 82.437C150.518 82.185 148.86 84.316 147.084 87.172ZM459.714 85.732C456.33 87.276 454.12 88.87 454.39 89.573C454.678 90.323 454.172 90.596 453.042 90.301C451.196 89.818 445.605 92.213 444.535 93.944C444.209 94.471 445.951 97.543 448.406 100.771C453.989 108.112 464.012 126.039 467.137 134.274L469.5 140.5L469.767 113.014C469.913 97.897 469.815 84.959 469.548 84.264C468.828 82.389 466.172 82.786 459.714 85.732ZM138.584 85.641C138.057 87.014 138.204 87.076 139.477 86.019C141.212 84.579 141.393 84 140.107 84C139.616 84 138.931 84.739 138.584 85.641ZM462 87.378C462 87.585 462.685 88.324 463.523 89.019C464.796 90.076 464.943 90.014 464.416 88.641C463.878 87.24 462 86.257 462 87.378ZM421.5 91.348C416.904 92.672 412.601 94.934 413.317 95.651C413.586 95.92 415.632 95.208 417.863 94.07C420.095 92.931 422.587 92 423.401 92C424.216 92 425.16 91.55 425.5 91C425.84 90.45 425.979 90.044 425.809 90.098C425.639 90.152 423.7 90.715 421.5 91.348ZM460 90.378C460 90.585 460.788 91.373 461.75 92.128C463.336 93.371 463.371 93.336 462.128 91.75C460.821 90.084 460 89.555 460 90.378ZM147.494 93.006C146.496 94.11 145.915 95.249 146.204 95.537C146.493 95.826 147.475 94.923 148.388 93.531C150.381 90.49 149.983 90.256 147.494 93.006ZM404.015 94.485C402.157 96.402 400.868 98.202 401.151 98.485C401.434 98.768 403.112 97.199 404.88 95C408.839 90.074 408.491 89.867 404.015 94.485ZM398 96.5C397.293 97.352 396.94 98.273 397.215 98.548C397.49 98.823 398.293 98.352 399 97.5C399.707 96.648 400.06 95.727 399.785 95.452C399.51 95.177 398.707 95.648 398 96.5ZM140.136 103.25C137.907 105.037 135.052 107.303 133.792 108.285C131.52 110.055 131.526 110.058 134.5 108.626C137.558 107.153 146.036 100.117 144.845 100.042C144.484 100.019 142.365 101.463 140.136 103.25ZM325 103.627C325 105.199 332.95 114.006 334.335 113.968C334.976 113.951 334.244 113 332.709 111.855C331.174 110.71 328.812 108.145 327.459 106.155C326.107 104.164 325 103.027 325 103.627ZM434.877 107.758C436.067 110.091 437.233 112 437.468 112C438.397 112 435.75 106.037 434.279 104.816C433.156 103.884 433.325 104.716 434.877 107.758ZM322.564 107.293C322.94 108.279 323.499 108.834 323.807 108.526C324.115 108.219 323.808 107.412 323.124 106.733C322.136 105.753 322.022 105.868 322.564 107.293ZM140.507 108.989C140.157 109.555 140.558 109.723 141.448 109.382C143.18 108.717 143.497 108 142.059 108C141.541 108 140.843 108.445 140.507 108.989ZM380.5 108.99C379.255 109.519 380.577 109.628 384 109.28C387.025 108.972 389.688 108.558 389.917 108.36C390.778 107.616 382.416 108.176 380.5 108.99ZM134.75 112.068C130.72 114.196 129.934 115.093 132.75 114.353C134.393 113.921 140.082 110.019 139 110.066C138.725 110.079 136.813 110.979 134.75 112.068ZM326.916 113.75C328.705 116.088 330.693 117.99 331.334 117.978C331.975 117.966 331.6 117.178 330.5 116.228C329.4 115.277 327.412 113.375 326.082 112C324.752 110.625 325.127 111.412 326.916 113.75ZM372.5 111.877C368.766 114.204 363.233 120 364.745 120C365.36 120 366.79 118.699 367.922 117.109C369.054 115.519 371.897 113.27 374.24 112.11C376.583 110.95 377.825 110.003 377 110.005C376.175 110.006 374.15 110.849 372.5 111.877ZM337 113C337.825 113.533 339.175 113.969 340 113.969C341.333 113.969 341.333 113.862 340 113C339.175 112.467 337.825 112.031 337 112.031C335.667 112.031 335.667 112.138 337 113ZM438 113.941C438 114.459 438.445 115.157 438.989 115.493C439.555 115.843 439.723 115.442 439.382 114.552C438.717 112.82 438 112.503 438 113.941ZM34 117.465C34 117.72 35.013 118.469 36.25 119.129C38.29 120.216 38.372 120.172 37.128 118.664C35.85 117.115 34 116.406 34 117.465ZM56.5 128C56.84 128.55 58.441 129 60.059 129C61.677 129 63 128.55 63 128C63 127.45 61.398 127 59.441 127C57.323 127 56.132 127.405 56.5 128ZM46 129C46.825 129.533 48.175 129.945 49 129.914C49.989 129.878 49.819 129.567 48.5 129C45.751 127.819 44.172 127.819 46 129ZM52.5 131C53.6 131.473 55.175 131.884 56 131.914C57.333 131.963 57.333 131.862 56 131C55.175 130.467 53.6 130.055 52.5 130.086L50.5 130.141L52.5 131ZM47.813 133.683C48.534 133.972 49.397 133.936 49.729 133.604C50.061 133.272 49.471 133.036 48.417 133.079C47.252 133.127 47.015 133.364 47.813 133.683ZM51.083 134.356C51.313 134.552 53.075 135.002 55 135.355C57.462 135.807 58.055 135.706 57 135.014C55.644 134.125 50.092 133.508 51.083 134.356ZM50.813 138.683C51.534 138.972 52.397 138.936 52.729 138.604C53.061 138.272 52.471 138.036 51.417 138.079C50.252 138.127 50.015 138.364 50.813 138.683ZM54.405 139.153C53.701 140.292 58.125 140.207 59.96 139.046C61.018 138.377 60.525 138.147 58.175 138.214C56.389 138.265 54.693 138.687 54.405 139.153ZM71.613 141.083C70.447 144.738 69.923 153.454 70.93 152.459C72.454 150.951 74.039 141.686 72.961 140.583C72.422 140.031 71.886 140.23 71.613 141.083ZM55.269 142.693C56.242 142.947 57.592 142.93 58.269 142.656C58.946 142.382 58.15 142.175 56.5 142.195C54.85 142.215 54.296 142.439 55.269 142.693ZM26.776 186.25C27.319 193.255 27.761 193.853 27.884 187.75C27.948 184.588 27.651 182 27.224 182C26.797 182 26.595 183.912 26.776 186.25ZM345 185C345 185.55 345.477 186 346.059 186C346.641 186 346.84 185.55 346.5 185C346.16 184.45 345.684 184 345.441 184C345.198 184 345 184.45 345 185ZM30.8 191.175C30.448 194.296 29.219 198.978 28.068 201.579C25.581 207.201 26.068 208.58 28.897 203.929C30.959 200.538 32.473 192.229 31.813 187.928C31.604 186.569 31.158 187.999 30.8 191.175ZM275.798 191.395C276.091 193.902 275.07 197.107 271.898 203.645C269.535 208.515 267.457 212.752 267.281 213.06C266.986 213.574 282.672 220.041 284.143 220.013C285.1 219.994 286.07 217.094 286.958 211.599C288.651 201.114 282.905 188 276.619 188C275.824 188 275.539 189.177 275.798 191.395ZM269.731 193.25C268.388 195.588 265.65 200.174 263.645 203.441C259.601 210.032 259.261 211.502 261.572 212.389C265.241 213.797 268.608 209.216 272.934 196.93C275.904 188.497 273.829 186.113 269.731 193.25ZM339 189.69C339 190.24 339.9 191.505 341 192.5C342.1 193.495 343 193.86 343 193.31C343 192.76 342.1 191.495 341 190.5C339.9 189.505 339 189.14 339 189.69ZM34.634 193.5C33.216 200.943 30.759 206.481 26.695 211.389C23.491 215.258 23.184 215.926 25.22 214.591C30.691 211.007 36.597 198.569 35.775 192.365C35.425 189.72 35.337 189.807 34.634 193.5ZM215.663 202.48C214.373 203.77 214.363 204.557 215.592 208.639C216.366 211.212 217 214.345 217 215.6C217 219.145 218.273 219.204 225.364 215.989C228.99 214.345 232.626 213 233.444 213C235.62 213 231.655 206.602 227.531 203.456C223.853 200.651 217.975 200.167 215.663 202.48ZM212.168 213.183C212.548 221.205 213.266 223.134 215.164 221.236C216.006 220.394 215.965 218.491 215.006 213.802C213.086 204.416 211.739 204.122 212.168 213.183ZM431.307 218.627C427.563 223.371 421.953 230.459 418.84 234.377C413.498 241.101 412.42 243.094 414.986 241.509C416.075 240.835 437.924 213.74 439.385 211.25C439.788 210.563 439.667 210 439.116 210C438.564 210 435.05 213.882 431.307 218.627ZM239 215.75C239 216.438 238.213 217.034 237.25 217.077C236.287 217.119 234.825 217.331 234 217.549C233.175 217.766 229.759 218.561 226.408 219.315C223.033 220.075 218.248 222.109 215.678 223.877C207.754 229.329 198.929 238.103 198.324 241.131C198.015 242.676 196.947 244.2 195.95 244.516C194.936 244.838 193.838 246.5 193.454 248.295C193.077 250.058 192.447 251.95 192.052 252.5C191.658 253.05 190.731 256.117 189.992 259.316C189.147 262.974 187.879 265.672 186.574 266.586C184.642 267.939 184.508 268.948 184.611 281.27C184.711 293.263 185.003 295.298 187.731 303.035C192.105 315.44 194.548 319.7 201.388 326.844C208.717 334.5 217.346 340.831 225.5 344.538C230.868 346.978 232.975 347.317 245.516 347.752C258.951 348.218 259.93 348.114 269.175 345.252C280.285 341.812 292.179 334.171 298.767 326.242C302.818 321.367 305.52 317 304.486 317C302.417 317 296.395 321.337 289.5 327.792C272.883 343.349 252.664 348.653 233.302 342.535C224.757 339.835 215.659 334.423 208.139 327.565C192.549 313.35 186.266 292.325 190.487 268.5C192.677 256.138 198.556 245.366 208.495 235.5C217.672 226.392 223.118 223.144 234.5 219.994C259.213 213.153 284.606 222.472 300.716 244.295C301.935 245.946 303.138 247.792 303.39 248.398C303.685 249.107 304.22 248.966 304.892 248C305.639 246.927 305.594 246.383 304.736 246.089C302.81 245.43 301 243.267 301 241.623C301 240.787 299.875 238.889 298.5 237.405C297.125 235.922 296 234.297 296 233.795C296 233.293 295.55 233.16 295 233.5C294.45 233.84 294 233.478 294 232.695C294 228.922 280.945 220.763 268 216.447C261.219 214.186 239.001 213.652 239 215.75ZM246.5 220.733C237.08 222.102 234.474 223.25 232.049 227.105C230.701 229.247 229.036 231 228.349 231C227.662 231 226.635 231.787 226.068 232.75C225.164 234.284 224.899 234.315 223.924 233C222.984 231.733 222.901 231.778 223.389 233.288C223.737 234.367 223.378 235.301 222.483 235.645C221.667 235.958 221 237.291 221 238.607C221 239.923 220.602 241 220.117 241C219.631 241 218.925 242.012 218.549 243.25C218.135 244.613 217.662 245.007 217.349 244.25C216.448 242.066 215 242.902 215 245.607C215 247.573 214.611 248.065 213.418 247.607C212.548 247.273 211.669 247 211.464 247C211.258 247 210.794 245.42 210.432 243.489C209.562 238.854 208.305 238.173 208.824 242.618C209.206 245.894 209.085 246.06 206.738 245.47C204.756 244.973 203.839 245.423 202.252 247.673C193.449 260.149 189.839 280.207 193.558 295.985C195.623 304.745 201.033 315.433 206.475 321.5C210.683 326.193 210.96 326.341 210.979 323.917C210.991 322.496 211.301 321.032 211.669 320.664C212.665 319.668 216 323.044 216 325.048C216 326.004 216.675 327.045 217.5 327.362C218.325 327.678 219 328.596 219 329.401C219 330.206 219.9 331.151 221 331.5C222.1 331.849 223 332.779 223 333.567C223 334.355 223.45 335 224 335C224.55 335 225 334.512 225 333.917C225 333.321 225.563 333.022 226.25 333.253C226.938 333.483 227.502 334.494 227.504 335.499C227.508 336.843 229.224 337.932 234.004 339.622C237.577 340.885 241.637 341.937 243.027 341.959C246.057 342.008 250 339.454 250 337.443C250 335.507 250.994 335.623 252.608 337.75C253.841 339.375 253.939 339.343 253.968 337.309C253.986 336.104 254.45 334.84 255 334.5C255.55 334.16 256 333.07 256 332.078C256 330.76 256.656 330.347 258.443 330.543C261.887 330.921 263 331.808 263 334.176C263 335.742 263.478 336.108 265.002 335.71C266.24 335.386 267.374 335.819 267.972 336.843C268.832 338.316 268.943 338.284 268.97 336.55C268.992 335.086 269.285 334.885 270.144 335.744C271.739 337.339 278.99 333.476 285.953 327.32L291.406 322.5L286.953 321.849C284.504 321.491 278.45 320.48 273.5 319.603C268.55 318.725 262.908 318.006 260.961 318.004C259.015 318.002 255.789 317.167 253.793 316.149L250.162 314.298L245.331 322.303C236.453 337.013 234.698 335.865 234 314.892L233.5 299.877L226.5 296.88C222.65 295.232 216.64 292.787 213.145 291.447C199.61 286.258 194.125 281.843 196.479 278.034C197.455 276.455 207.237 271.697 218.05 267.542C223.247 265.545 228.755 263.419 230.288 262.818C231.822 262.217 233.509 260.917 234.038 259.929C234.567 258.94 235.025 252.814 235.056 246.316C235.116 233.9 236.424 227.731 239.106 227.217C240.785 226.895 244.457 232.445 251.034 245.246C254.493 251.98 255.487 252.741 258.764 251.165C287.867 237.17 289.081 236.704 290.498 238.997C291.459 240.551 286.196 251.549 279.49 262C270.573 275.898 268.722 279.055 269.207 279.54C270.403 280.737 281.871 275.349 287.437 270.975C294.187 265.671 297.905 261.364 300.582 255.749L302.248 252.256L298.192 246.283C293.671 239.625 282.082 228.827 280.513 229.81C279.346 230.541 277.624 230.909 273.752 231.254C272.241 231.39 271.003 231.838 271.002 232.25C271.001 232.662 269.905 233 268.566 233C266.679 233 266.039 232.383 265.716 230.25C265.381 228.038 265.27 228.234 265.15 231.25C264.971 235.718 263 236.352 263 231.941C263 229.744 262.648 229.102 261.75 229.662C259.003 231.376 257.03 230.969 256.426 228.562C256.069 227.137 254.446 225.49 252.48 224.558C250.644 223.686 248.997 222.404 248.821 221.708C248.644 221.012 247.6 220.574 246.5 220.733ZM260.881 224.219C261.342 226.996 261.482 227.136 261.797 225.135C262.002 223.834 261.757 222.357 261.253 221.853C260.698 221.298 260.552 222.231 260.881 224.219ZM217.667 230.667C217.3 231.033 217 231.965 217 232.738C217 233.902 217.257 233.886 218.5 232.643C219.325 231.818 220 230.886 220 230.571C220 229.789 218.483 229.851 217.667 230.667ZM238.647 234.718C238.303 236.798 238.017 243.317 238.011 249.204L238 259.908L243.25 257.464C246.137 256.119 249.036 255.015 249.691 255.01C250.346 255.004 251.163 254.546 251.506 253.991C252.105 253.021 246.026 241.053 241.463 234.218L239.272 230.936L238.647 234.718ZM304 237.346C304 237.537 304.737 239.169 305.637 240.974L307.274 244.255L308.637 241.013C310.402 236.815 310.477 237 307 237C305.35 237 304 237.156 304 237.346ZM276 245.537C271.325 247.954 264.919 251.095 261.765 252.515L256.03 255.099L260.432 263.799C265.042 272.912 267.914 277.307 267.968 275.332C267.986 274.689 271.089 269.514 274.864 263.832C281.678 253.574 287 244.015 287 242.033C287 240.282 284.821 240.976 276 245.537ZM406.916 249.138C397.304 261.086 381.572 283.905 382.385 284.719C383.089 285.422 386.506 281.49 388.66 277.5C389.55 275.85 390.555 274.275 390.892 274C391.229 273.725 393.33 271.025 395.561 268C397.792 264.975 402.208 258.988 405.374 254.695C411.529 246.35 412.777 241.852 406.916 249.138ZM245.209 259.756L236.917 263.376L237.051 279.184C237.125 287.879 237.411 295.856 237.687 296.912C237.963 297.967 239.23 299.092 240.502 299.411C241.774 299.73 243.47 300.243 244.271 300.551C245.273 300.935 245.904 300.231 246.291 298.294C247.005 294.725 253.047 288.64 258.496 286.002C265.791 282.47 265.864 280.682 259.243 267.537L253.5 256.136L245.209 259.756ZM222 269.113C205.12 276.37 199 279.282 199 280.061C199 281.551 202.392 283.339 217.657 289.895C226.538 293.709 233.587 296.216 233.697 295.599C234.213 292.72 234.537 264.011 234.053 264.085C233.749 264.132 228.325 266.394 222 269.113ZM378.25 289.319C375.892 292.782 375.498 294.008 376.75 293.988C377.48 293.976 382 287.541 382 286.514C382 285.071 380.251 286.379 378.25 289.319ZM340.564 293.293C340.94 294.279 341.499 294.834 341.807 294.526C342.115 294.219 341.808 293.412 341.124 292.733C340.136 291.753 340.022 291.868 340.564 293.293ZM369.923 300.75C362.506 310.628 354.91 317.978 343 326.801C326.557 338.982 317.777 346.189 307.362 356.056C294.433 368.305 288.091 370.899 270.614 371.088C260.495 371.197 252.125 372.267 253.656 373.256C255.815 374.65 285.095 372.251 291.316 370.171C297.32 368.162 298.383 367.398 308.499 357.815C316.884 349.872 326.27 342.177 342.206 330.18C349.744 324.506 358.368 317.21 361.369 313.968C367.04 307.843 376 296.579 376 295.576C376 293.753 373.718 295.695 369.923 300.75ZM3.336 297.567C2.236 300.434 4.439 300.914 7.306 298.43L10.112 296H7.024C5.144 296 3.702 296.613 3.336 297.567ZM9.256 299.929C4.035 303.711 1.987 306.711 2.056 310.473L2.111 313.5L4.306 310.543C5.513 308.916 8.412 305.494 10.75 302.939C16.932 296.18 16.271 294.848 9.256 299.929ZM328.411 298.856C328.702 299.327 329.416 300.964 329.998 302.495C330.58 304.025 331.302 305.032 331.602 304.732C332.194 304.139 329.288 298 328.415 298C328.122 298 328.12 298.385 328.411 298.856ZM332 298.941C332 299.459 332.445 300.157 332.989 300.493C333.555 300.843 333.723 300.442 333.382 299.552C332.717 297.82 332 297.503 332 298.941ZM237 314.833C237 321.892 237.297 327.964 237.66 328.326C238.023 328.689 240.501 325.168 243.167 320.502C247.866 312.278 247.978 311.897 246.794 308.103C245.786 304.874 244.933 303.997 241.92 303.094C239.911 302.492 237.983 302 237.634 302C237.285 302 237 307.775 237 314.833ZM21.278 304.25C19.324 306.777 18.657 308.33 19.84 307.599C21.024 306.867 23.393 303 22.658 303C22.431 303 21.81 303.563 21.278 304.25ZM22.98 307.524C22.284 308.362 21.909 309.242 22.145 309.479C22.382 309.715 23.125 309.03 23.796 307.955C25.248 305.63 24.764 305.375 22.98 307.524ZM48.174 325.367C46.978 327.76 46.021 330.12 46.047 330.61C46.072 331.099 47.228 329.318 48.615 326.652C50.003 323.986 50.96 321.627 50.743 321.409C50.525 321.192 49.369 322.973 48.174 325.367ZM52.144 325.75C51.053 328.3 51.078 328.359 52.484 326.559C53.318 325.491 54 324.254 54 323.809C54 322.289 53.322 322.999 52.144 325.75ZM53.144 328.75C52.053 331.3 52.078 331.359 53.484 329.559C54.318 328.491 55 327.254 55 326.809C55 325.289 54.322 325.999 53.144 328.75ZM57.667 326.667C57.3 327.033 57 327.798 57 328.367C57 328.993 57.466 328.934 58.183 328.217C58.834 327.566 59.134 326.801 58.85 326.517C58.566 326.233 58.033 326.3 57.667 326.667ZM220.079 349.583C220.127 350.748 220.364 350.985 220.683 350.188C220.972 349.466 220.936 348.603 220.604 348.271C220.272 347.939 220.036 348.529 220.079 349.583ZM249.5 373C249.16 373.55 249.61 374 250.5 374C251.39 374 251.84 373.55 251.5 373C251.16 372.45 250.71 372 250.5 372C250.29 372 249.84 372.45 249.5 373ZM139.459 400.067C139.096 400.653 139.014 401.348 139.276 401.61C139.538 401.872 140.019 401.392 140.345 400.543C141.021 398.781 140.445 398.471 139.459 400.067ZM177.08 400.75C176.342 402.017 176.052 402.107 176.03 401.076C176.009 400.08 175.248 400.358 173.5 402C171.667 403.722 171 405.383 171 408.224C171 413.617 173.272 417.723 179.285 423.195C184.739 428.157 185.456 430.937 180.126 426.452L177 423.822V427.346C177 429.284 177.449 432.05 177.997 433.492C178.613 435.113 178.627 435.888 178.034 435.521C176.816 434.768 175.013 428.354 175.006 424.75C175 422 175 422 167.653 422H160.306L162.652 426.75C163.942 429.363 166.697 436 168.773 441.5L172.548 451.5L177.704 451.461C182.52 451.425 183.22 451.082 188.321 446.258C191.324 443.418 193.268 440.903 192.641 440.67C192.013 440.437 192.85 439.904 194.5 439.485C198.956 438.354 199.24 438.015 197.699 435.657C196.832 434.332 196.22 430.417 196.11 425.5C195.969 419.173 196.357 416.672 197.966 413.539C200.419 408.762 200.534 407 198.393 407C197.314 407 196.993 407.539 197.416 408.641C198.542 411.577 195.346 415 191.477 415C188.098 415 178.043 410.301 178.014 408.708C178.006 408.272 179.952 409.06 182.338 410.458C187.866 413.698 194.556 413.973 195.5 411C196.704 407.207 194.965 404.899 188.655 401.913C181.593 398.572 178.528 398.264 177.08 400.75ZM140.923 402.417C140.881 402.462 140.7 403.175 140.52 404C140.34 404.825 139.889 406.4 139.516 407.5C139.033 408.928 139.576 408.642 141.415 406.5C142.831 404.85 143.992 403.238 143.995 402.917C143.999 402.466 141.284 402.024 140.923 402.417ZM205.721 405.096C202.83 406.779 199.2 413.381 198.286 418.621C197.239 424.616 198.3 433.729 200.274 435.703C201.559 436.988 202.334 436.866 206.619 434.706C209.304 433.353 212.963 431.93 214.75 431.544C218.476 430.738 218.498 430.69 216.542 427.705C213.057 422.385 208.869 410.446 209.367 407.25C209.906 403.796 208.938 403.224 205.721 405.096ZM211.214 409.207C211.754 413.994 216.02 424.26 218.702 427.223C220.658 429.384 223.855 429.542 224.632 427.517C225.185 426.076 213.933 406.695 211.766 405.355C211.053 404.915 210.872 406.175 211.214 409.207ZM261.5 417.735C259.007 418.299 252.331 424.625 251.706 427.015C251.213 428.9 251.474 429.073 261.229 433.355L266.958 435.87L267.987 431.685C268.554 429.383 269.453 425.931 269.987 424.014C270.695 421.473 270.625 420.22 269.729 419.389C268.187 417.958 264.124 417.141 261.5 417.735ZM270.053 430.093C269.137 435.214 269.088 437.488 269.876 438.276C271.664 440.064 272.272 438.438 272.781 430.518C273.399 420.888 271.744 420.631 270.053 430.093ZM226.5 430.814C215.206 432.001 191 443.877 191 448.231C191 448.81 189.703 450.523 188.118 452.038C186.533 453.552 184.816 456.076 184.303 457.646C183.79 459.216 182.387 460.944 181.185 461.487C179.983 462.03 179.007 462.705 179.015 462.987C179.044 463.96 180.892 466.441 181.237 465.971C181.428 465.712 182.877 463.475 184.459 461C192.552 448.336 206.781 438.888 222.815 435.531C231.969 433.615 236.987 433.604 245.906 435.48C270.2 440.591 287.368 457.23 293.569 481.675C297.869 498.625 296.505 513.145 289.27 527.446C281.055 543.683 263.489 556.99 245.401 560.679C239.195 561.944 236.239 562.036 229.632 561.169C215.559 559.323 204.953 553.903 193.5 542.704C188.26 537.58 180 531.948 180 533.5C180 534.807 185.061 541.843 188.632 545.5C194.69 551.704 205.747 558.713 214 561.582C228.591 566.654 250.327 565.89 262.231 559.886C283.671 549.073 296.749 530.743 300.009 506.936C301.428 496.57 300.498 485.498 297.999 482.999C297.022 482.022 295.452 478.135 294.511 474.361C292.154 464.915 290.389 461 288.488 461C287.432 461 286.982 460.301 287.187 458.978C287.402 457.591 285.459 454.904 281 450.419C271.32 440.685 265.387 437.115 255.446 435.044C250.823 434.081 246.807 433.527 246.52 433.813C246.234 434.099 246 433.557 246 432.608C246 431.659 245.559 431.154 245.021 431.487C244.482 431.82 243.075 431.575 241.893 430.943C240.228 430.052 239.567 430.083 238.949 431.083C238.347 432.057 237.097 432.143 233.826 431.435C231.447 430.921 228.15 430.641 226.5 430.814ZM236 437.891C236 438.519 234.457 439.768 232.57 440.668C230.666 441.576 228.892 443.295 228.581 444.532C227.948 447.054 224.719 448.319 223.084 446.684C222.305 445.905 222 446.343 222 448.241C222 453.17 220.005 452.298 219.868 447.309C219.748 442.899 219.685 442.784 219.118 445.921C218.644 448.545 217.976 449.379 216.25 449.503C215.012 449.593 214 449.144 214 448.506C214 447.797 212.88 447.511 211.115 447.77C209.528 448.003 207.261 447.675 206.078 447.042C204.235 446.056 203.321 446.354 199.713 449.121C194.204 453.345 188.69 459.386 185.144 465.083L182.291 469.665L186.24 475.583C191.057 482.798 203.466 493.196 208.513 494.244C210.496 494.656 212.993 495.461 214.06 496.032C215.127 496.603 216 496.772 216 496.407C216 495.298 209.831 484.869 205.408 478.5C199.92 470.596 195 460.684 195 457.529C195 453.584 197.858 454.256 214.233 462.045C222.379 465.92 229.507 468.804 230.074 468.454C230.64 468.104 232.365 465.271 233.906 462.159C245.864 438.011 248.962 438.116 249.937 462.703C250.247 470.515 250.95 477.298 251.5 477.778C252.05 478.257 256.743 480.191 261.928 482.075C273.933 486.436 287.125 492.987 288.458 495.25C290.474 498.67 285.443 502.772 274 507.038C270.975 508.166 264.573 510.756 259.773 512.794L251.046 516.5L251.023 530.668C251.01 538.461 250.727 545.548 250.393 546.418C250.059 547.288 248.727 548 247.433 548C245.553 548 244.033 546.287 239.885 539.5C237.028 534.825 234.604 531 234.499 531C234.394 531 232.84 531.732 231.047 532.627C228.155 534.069 216.149 535.942 198.693 537.673L192.885 538.249L195.161 540.671C198.201 543.907 206.793 550.492 210.451 552.39C212.578 553.494 213.752 553.621 214.684 552.847C215.394 552.258 217.095 552.058 218.465 552.402C220.517 552.917 221.062 552.601 221.562 550.608C222.482 546.943 229 545.534 229 549C229 550.1 229.45 551 230 551C230.55 551 231.014 552.013 231.032 553.25C231.061 555.334 231.162 555.371 232.392 553.75C233.97 551.672 235 551.498 235 553.311C235 554.033 235.947 555.639 237.104 556.882C238.881 558.788 239.855 559.04 243.354 558.497C249.553 557.535 257.909 553.926 257.344 552.454C257.08 551.765 257.43 550.852 258.123 550.424C258.839 549.982 259.551 550.154 259.774 550.823C260.302 552.405 262 552.327 262 550.721C262 550.017 262.9 548.793 264 548C265.1 547.207 266 546.005 266 545.329C266 544.653 266.563 543.74 267.252 543.3C267.94 542.86 269.141 541.263 269.921 539.75C270.7 538.237 271.907 537 272.603 537C273.298 537 274.01 538.237 274.184 539.75L274.5 542.5L277.967 538.688C283.964 532.095 286.932 526.797 290.118 517C293.015 508.091 293.175 506.816 292.691 496.5C292.308 488.346 291.534 483.689 289.697 478.5C284.995 465.214 280.285 459.248 276.958 462.366C276.018 463.246 275.866 462.55 276.279 459.25C276.946 453.913 276.401 453.799 275.005 458.983C273.962 462.856 270.696 465.936 269.568 464.11C269.263 463.617 269.176 461.826 269.373 460.131C269.571 458.435 269.342 457.288 268.866 457.583C268.39 457.877 268 458.766 268 459.559C268 460.352 267.55 461 267 461C266.45 461 266 460.363 266 459.583C266 458.804 265.495 457.998 264.877 457.792C264.128 457.543 263.991 456.014 264.465 453.209C265.202 448.846 266.516 447.71 267.311 450.75C267.674 452.14 267.792 452.062 267.884 450.372C267.948 449.202 267.325 447.685 266.5 447C265.564 446.223 265 446.153 265 446.812C265 447.394 264.548 449.06 263.994 450.514L262.989 453.159L260.244 450.623C258.735 449.228 256.317 447.014 254.871 445.703C253.424 444.392 251.753 442.407 251.157 441.293C250.485 440.037 248.634 439.037 246.286 438.66C244.204 438.326 241.037 437.76 239.25 437.402C237.101 436.971 236 437.137 236 437.891ZM223.374 439.467C223.065 440.274 223.004 441.511 223.24 442.217C223.476 442.923 223.906 442.262 224.196 440.75C224.762 437.797 224.295 437.068 223.374 439.467ZM261.5 445C261.16 445.55 261.359 446 261.941 446C262.523 446 263 445.55 263 445C263 444.45 262.802 444 262.559 444C262.316 444 261.84 444.45 261.5 445ZM244.363 449.183C240.727 454.897 232.722 470.105 233.186 470.416C234.335 471.187 245.918 476 246.625 476C247.5 476 246.582 449.249 245.675 448.342C245.414 448.081 244.823 448.459 244.363 449.183ZM270 451C270 451.55 270.477 452 271.059 452C271.641 452 271.84 451.55 271.5 451C271.16 450.45 270.684 450 270.441 450C270.198 450 270 450.45 270 451ZM176.75 453.689C174.677 454.231 174.639 454.72 176.417 457.93L177.763 460.359L179.381 457.229C181.706 452.733 181.495 452.449 176.75 453.689ZM198 458.219C198 461.091 216.216 491.801 218.011 491.956C218.292 491.98 220.811 487.503 223.607 482.006L228.693 472.012L214.096 464.816C206.068 460.858 199.162 457.454 198.75 457.251C198.338 457.048 198 457.483 198 458.219ZM225.667 484.466C219.058 497.698 219.104 498.157 227.522 502.998C233.753 506.581 236.816 509.779 238.382 514.336L239.594 517.861L243.797 515.979L248 514.098V496.549C248 484.626 247.653 479 246.918 479C246.322 479 242.759 477.65 239 476C235.241 474.35 231.991 473 231.779 473C231.567 473 228.817 478.16 225.667 484.466ZM250.841 496.749C251.028 505.412 251.309 512.631 251.465 512.791C251.797 513.131 268.328 506.258 278.75 501.446C282.738 499.605 286 497.608 286 497.007C286 495.787 277.866 491.914 261.58 485.381C255.575 482.971 250.625 481 250.58 480.999C250.536 480.999 250.653 488.086 250.841 496.749ZM449.274 500.053C437.896 502.299 426.499 513.402 421.555 527.057L419.345 533.161L412.832 535.353C404.917 538.017 393.052 545.866 388.548 551.417C378.236 564.127 369.812 585.198 371.979 592.861C372.632 595.17 372.808 594.875 373.391 590.5C376.447 567.547 390.185 548.073 410 538.605C415.86 535.806 417.435 535.5 426 535.5C431.225 535.5 437.3 535.829 439.5 536.23L443.5 536.961L439 535.444C436.525 534.611 431.678 533.653 428.229 533.318C420.945 532.608 420.977 532.833 426.64 521.937C433.474 508.788 444.408 501.218 458.32 500.002L466.5 499.287L460 499.253C456.425 499.234 451.598 499.595 449.274 500.053ZM151.081 516.849C149.448 519.901 149.786 520.751 151.602 518.158C152.483 516.9 152.97 515.636 152.683 515.35C152.396 515.063 151.676 515.738 151.081 516.849ZM242.883 519.682C240.016 520.862 239.016 522.002 238.064 525.182C236.965 528.848 237.071 529.509 239.294 532.869C240.632 534.891 242.698 538.447 243.884 540.772C245.07 543.098 246.482 545 247.02 545C247.612 545 248 539.647 248 531.5C248 524.075 247.662 518.044 247.25 518.097C246.838 518.151 244.872 518.864 242.883 519.682ZM42 536.319C42 536.559 42.675 538.371 43.5 540.346C44.325 542.32 45.029 545.188 45.063 546.718C45.121 549.245 45.205 549.307 45.977 547.397C47.848 542.767 68.059 542.239 78.807 546.54C84.318 548.744 92.977 558.199 95.313 564.562C97.856 571.488 98.509 581.535 96.737 586.484C95.502 589.932 94.719 590.634 90.905 591.713C85.387 593.274 77 597.104 77 598.064C77 598.461 80.263 597.531 84.25 595.997C88.237 594.463 94.655 592.901 98.51 592.526C121.513 590.291 143.129 606.278 144.771 626.74L145.274 633.005L141.887 632.416C140.024 632.092 137.996 631.677 137.379 631.494C134.722 630.706 122.651 632.991 118.271 635.11C112.371 637.967 105.431 644.252 103.046 648.901L101.25 652.403L92.875 652.528C85.685 652.635 83.563 653.101 77.873 655.819C74.074 657.634 69.668 660.732 67.546 663.081C62.158 669.044 63.746 668.824 70.067 662.731C74.002 658.938 77.032 657.015 81.059 655.756C87 653.899 97.065 653.266 101.064 654.498C102.404 654.911 103.18 654.911 102.79 654.497C100.465 652.039 110.46 641.357 119.47 636.669C124.982 633.802 126.317 633.531 135 633.516C143.573 633.502 145.085 633.793 150.5 636.5C153.8 638.15 159.143 642.107 162.373 645.293C165.604 648.48 168.457 650.876 168.714 650.619C169.787 649.546 160.127 640.571 153.949 636.9L147.278 632.937L146.637 626.805C146.285 623.432 144.897 618.269 143.552 615.333C140.725 609.157 132.324 599.855 126.514 596.467C121.221 593.381 108.767 590 102.691 590H97.841L98.671 586.75C99.127 584.962 99.474 580.8 99.443 577.5C99.312 563.853 92.007 551.553 80.806 546.124C70.939 541.34 57.563 539.861 48.403 542.54C46.733 543.028 46.045 542.523 45.023 540.055C43.914 537.379 42 535.013 42 536.319ZM73.436 550.003C76.7 551.046 80.673 552.861 82.264 554.037C83.855 555.214 85.341 555.992 85.566 555.767C87.071 554.262 74.011 547.943 69.624 548.054C68.456 548.083 70.171 548.961 73.436 550.003ZM394.872 553.75C393.629 555.336 393.664 555.371 395.25 554.128C396.916 552.821 397.445 552 396.622 552C396.415 552 395.627 552.788 394.872 553.75ZM54.083 553.365C54.313 553.565 57.425 553.966 61 554.256C64.817 554.565 66.674 554.444 65.5 553.962C63.565 553.167 53.241 552.627 54.083 553.365ZM53 557.046C51.905 557.787 52.309 557.88 54.5 557.39C58.177 556.567 58.975 555.995 56.417 556.015C55.362 556.024 53.825 556.487 53 557.046ZM389.964 559.164C388.819 561.397 388.846 561.424 390.574 559.774C391.568 558.824 392.107 557.773 391.771 557.438C391.436 557.103 390.623 557.88 389.964 559.164ZM391.351 562.75C390.237 564.263 388.772 566.625 388.095 568L386.866 570.5L388.826 568.066C391.078 565.27 394.291 560 393.745 560C393.542 560 392.465 561.237 391.351 562.75ZM384 568C382.878 570.2 382.184 572 382.459 572C382.734 572 383.878 570.2 385 568C386.122 565.8 386.816 564 386.541 564C386.266 564 385.122 565.8 384 568ZM384.686 574.827C383.759 577.145 383.016 580.044 383.036 581.27C383.057 582.541 383.919 581.144 385.043 578.02C387.396 571.474 387.097 568.8 384.686 574.827ZM385.197 583.718C383.375 588.445 382.818 592.77 383.941 593.464C384.594 593.867 385 593.001 385 591.208C385 589.608 385.502 586.858 386.116 585.098C387.498 581.132 386.672 579.89 385.197 583.718ZM435.101 585.04C432.682 586.137 430.983 587.317 431.327 587.66C431.671 588.004 432.572 587.77 433.331 587.14C434.09 586.511 436.463 585.353 438.605 584.568C440.747 583.783 441.825 583.119 441 583.092C440.175 583.066 437.52 583.942 435.101 585.04ZM14.5 586.536C12.85 587.292 12.175 587.914 13 587.919C13.825 587.925 15.625 587.286 17 586.5C20.162 584.693 18.473 584.717 14.5 586.536ZM439.625 587.469C437.493 588.229 435.243 589.369 434.625 590.002C434.006 590.635 435.368 590.413 437.65 589.508C439.933 588.603 443.983 587.497 446.65 587.049L451.5 586.235L447.5 586.162C445.3 586.121 441.756 586.709 439.625 587.469ZM440.5 591.551L437.5 593.011L440.5 592.34C442.15 591.97 445.75 591.356 448.5 590.975L453.5 590.282L448.5 590.186C445.75 590.133 442.15 590.747 440.5 591.551ZM386.158 595C386.158 596.375 386.385 596.938 386.662 596.25C386.94 595.563 386.94 594.438 386.662 593.75C386.385 593.063 386.158 593.625 386.158 595ZM447.264 593.718C448.784 593.947 451.034 593.941 452.264 593.704C453.494 593.467 452.25 593.279 449.5 593.286C446.75 593.294 445.744 593.488 447.264 593.718ZM64.704 599.552C57.285 605.375 57.319 606.305 64.75 600.823C67.912 598.49 70.688 596.45 70.917 596.29C71.146 596.131 71.125 595.792 70.871 595.538C70.617 595.283 67.842 597.09 64.704 599.552ZM371.5 598C371.894 598.637 368.924 599.005 363.309 599.013C344.289 599.041 330.063 607.27 321.706 623.077C320.169 625.983 318.643 630.328 318.313 632.731C317.8 636.472 317.09 637.53 313.372 640.088C309.219 642.946 305.956 647 307.81 647C308.294 647 309.547 646.052 310.595 644.894C313.319 641.881 319.103 639.15 326.282 637.485L332.5 636.043L326.25 636.571L320 637.099L320.01 634.3C320.023 630.509 324.318 621.538 328.652 616.25C336.469 606.71 349.473 600.878 363 600.847C367.292 600.837 372.318 601.489 374.75 602.371C379.693 604.162 380.313 603.73 376 601.5C374.35 600.647 373 599.285 373 598.474C373 597.663 372.523 597 371.941 597C371.359 597 371.16 597.45 371.5 598ZM57.461 601.043C55.942 602.721 55.901 602.975 57.229 602.466C58.118 602.125 59.091 601.205 59.391 600.423C60.138 598.476 59.639 598.636 57.461 601.043ZM407.493 607.298C402.65 609.605 396 615.904 396 618.185C396 618.798 397.3 617.506 398.889 615.313C404.038 608.204 415.595 604.812 426 607.355C428.909 608.066 429.284 607.985 428.218 606.873C427.445 606.068 424.065 605.412 419.718 605.225C413.76 604.968 411.626 605.33 407.493 607.298ZM136.25 637.689C137.213 637.941 138.787 637.941 139.75 637.689C140.713 637.438 139.925 637.232 138 637.232C136.075 637.232 135.287 637.438 136.25 637.689ZM145.5 639.529C147.7 640.321 149.95 640.94 150.5 640.904C152.274 640.786 145.57 638.09 143.5 638.089C142.4 638.088 143.3 638.736 145.5 639.529ZM131.5 639.947C130.139 640.496 131.417 640.776 135.5 640.824C138.8 640.863 143.045 641.36 144.934 641.93C146.822 642.5 148.554 642.779 148.782 642.551C149.449 641.885 138.886 638.993 136.068 639.07C134.656 639.109 132.6 639.504 131.5 639.947ZM152.673 642.064C153.318 642.854 155.343 644.371 157.173 645.436C159.261 646.651 160.063 646.838 159.327 645.936C158.682 645.146 156.657 643.629 154.827 642.564C152.739 641.349 151.937 641.162 152.673 642.064ZM131.25 643.716C132.762 643.945 135.238 643.945 136.75 643.716C138.262 643.487 137.025 643.3 134 643.3C130.975 643.3 129.738 643.487 131.25 643.716ZM299.595 654.25C295.415 661.385 291.38 672 292.847 672C293.237 672 294.843 668.962 296.417 665.25C297.992 661.538 300.361 656.587 301.682 654.25C303.003 651.913 303.634 650 303.084 650C302.534 650 300.964 651.913 299.595 654.25ZM170.193 657.25C172.584 663.521 172.304 670.657 169.436 676.534C167.754 679.979 167.106 680.466 164.5 680.242C162.85 680.1 160.375 680.307 159 680.702C157.174 681.227 158.521 681.601 164 682.091C168.125 682.459 173.525 683.075 176 683.46C179.209 683.959 180.076 683.864 179.02 683.129C178.207 682.562 175.844 681.812 173.77 681.461C169.471 680.735 169.392 680.527 171.677 675.946C173.792 671.706 173.72 660.96 171.541 655.75C169.127 649.976 167.929 651.309 170.193 657.25ZM105 655.909C105.825 656.376 107.625 657.056 109 657.421L111.5 658.083L109 656.577C107.625 655.749 105.825 655.069 105 655.066C103.667 655.061 103.667 655.155 105 655.909ZM301.081 660.849C299.448 663.901 299.786 664.751 301.602 662.158C302.483 660.9 302.97 659.636 302.683 659.35C302.396 659.063 301.676 659.738 301.081 660.849ZM423.269 667.738C418.325 672.409 413 679.854 413 682.094C413 682.718 414.828 680.491 417.061 677.146C419.295 673.801 423 669.504 425.295 667.598C427.589 665.693 429.206 663.873 428.888 663.554C428.57 663.236 426.041 665.119 423.269 667.738ZM57.053 673.75C56.48 675.813 56.064 679.525 56.128 682C56.24 686.368 56.269 686.324 57.098 680.5C57.568 677.2 58.403 673.487 58.955 672.25C59.551 670.911 59.58 670 59.026 670C58.513 670 57.625 671.688 57.053 673.75ZM62.435 671.104C62.06 671.712 61.615 675.199 61.445 678.854C61.14 685.456 61.143 685.464 61.85 680C62.241 676.975 63.126 673.487 63.816 672.25C65.06 670.019 63.769 668.947 62.435 671.104ZM302.252 680.5C302.263 682.7 302.468 683.482 302.707 682.238C302.946 680.994 302.937 679.194 302.687 678.238C302.437 677.282 302.241 678.3 302.252 680.5ZM53.272 682C53.272 684.475 53.467 685.487 53.706 684.25C53.944 683.013 53.944 680.987 53.706 679.75C53.467 678.513 53.272 679.525 53.272 682ZM305.571 680.571C305.204 682.037 305.096 683.429 305.331 683.665C305.567 683.9 306.061 682.894 306.429 681.429C306.796 679.963 306.904 678.571 306.669 678.335C306.433 678.1 305.939 679.106 305.571 680.571ZM410.612 688.624C409.726 691.227 409 694.405 409 695.687C409 697.919 408.771 697.991 403.596 697.382C397.21 696.632 385.858 699.612 379.615 703.677C372.336 708.418 366.547 715.723 364.054 723.317C362.087 729.308 363.392 728.585 366.001 722.238C369.033 714.865 372.865 710.107 379.326 705.693C390.593 697.997 406.187 696.801 416.249 702.863L421.5 706.027L418 702.975C416.075 701.296 413.488 699.666 412.25 699.353C409.621 698.687 409.515 697.413 411.475 690.047C413.294 683.211 412.758 682.327 410.612 688.624ZM181.55 685.803C182.072 686.244 185.139 688.589 188.364 691.013C194.861 695.895 200.306 702.439 202.177 707.612C202.85 709.475 203.992 711 204.714 711C206.571 711 204.028 705.168 199.455 698.938C195.631 693.73 184.825 685 182.201 685C181.274 685 181 685.338 181.55 685.803ZM53.158 689C53.158 690.375 53.385 690.938 53.662 690.25C53.94 689.563 53.94 688.438 53.662 687.75C53.385 687.063 53.158 687.625 53.158 689ZM381 695.056C377.975 696.716 374.15 699.489 372.5 701.218L369.5 704.361L373.467 701.02C375.65 699.183 380.15 696.422 383.467 694.886C386.785 693.349 388.825 692.079 388 692.064C387.175 692.049 384.025 693.395 381 695.056ZM390.024 694.603C384.526 696.081 376.667 700.111 375.453 702.076C375.095 702.655 377.209 701.772 380.151 700.114C383.093 698.455 388.156 696.408 391.401 695.565C397.222 694.052 399.681 692.937 396.917 693.066C396.137 693.102 393.036 693.794 390.024 694.603ZM422 694C423.958 695.266 425.282 695.266 424.5 694C424.16 693.45 423.121 693.007 422.191 693.015C420.734 693.029 420.707 693.165 422 694ZM370.344 696.978C368.117 698.616 365.068 701.879 363.568 704.228L360.842 708.5L364.252 704.581C366.127 702.425 369.425 699.169 371.581 697.346C376.462 693.216 375.748 693.004 370.344 696.978ZM192.393 699.86C194.484 702.259 196.852 705.795 197.656 707.719C198.46 709.642 199.322 711.012 199.572 710.762C200.664 709.67 196.795 703.167 192.871 699.5L188.592 695.5L192.393 699.86ZM423.5 697.525C426.537 699.988 429.386 701.434 428.557 700.093C428.181 699.484 426.439 698.292 424.687 697.444C421.729 696.014 421.644 696.02 423.5 697.525ZM51.079 699.583C51.127 700.748 51.364 700.985 51.683 700.188C51.972 699.466 51.936 698.603 51.604 698.271C51.272 697.939 51.036 698.529 51.079 699.583ZM359.099 704.25C357.722 706.492 357.724 706.493 359.858 704.595C362.15 702.557 362.446 702 361.241 702C360.823 702 359.859 703.013 359.099 704.25ZM422 703.312C422 703.484 423.462 704.68 425.25 705.97L428.5 708.317L426.076 705.658C424.005 703.388 422 702.233 422 703.312ZM47 707.867C47 709.218 51.799 719 52.462 719C52.855 719 48.152 708.032 47.352 707.083C47.158 706.854 47 707.207 47 707.867ZM270.045 712.19C267.74 714.495 265.19 717.758 264.378 719.44L262.901 722.5L264.991 720C266.14 718.625 268.887 715.362 271.096 712.75C276.058 706.88 275.6 706.636 270.045 712.19ZM355.667 708.667C355.3 709.033 355 709.798 355 710.367C355 710.993 355.466 710.934 356.183 710.217C356.834 709.566 357.134 708.801 356.85 708.517C356.566 708.232 356.033 708.3 355.667 708.667ZM349.708 712.214C348.853 714.021 347.885 716.85 347.556 718.5C346.977 721.405 346.994 721.421 348.08 719C351.102 712.266 352.05 709.717 351.674 709.34C351.447 709.114 350.563 710.407 349.708 712.214ZM194.5 711C194.84 711.55 195.316 712 195.559 712C195.802 712 196 711.55 196 711C196 710.45 195.523 710 194.941 710C194.359 710 194.16 710.45 194.5 711ZM430 710.941C430 711.459 430.445 712.157 430.989 712.493C431.555 712.843 431.723 712.442 431.382 711.552C430.717 709.82 430 709.503 430 710.941ZM208.384 712.309C219.195 719.146 224.01 725.646 226.35 736.561C227.783 743.248 227.84 743.337 227.913 739C228.018 732.796 226.514 727.983 222.723 722.39C219.384 717.463 211.01 710.956 208.141 711.059C206.744 711.109 206.78 711.295 208.384 712.309ZM204.07 716.75C204.123 720.324 204.353 721.005 205 719.5C206.201 716.705 206.201 712 205 712C204.45 712 204.032 714.138 204.07 716.75ZM272.762 715.073C271.807 715.63 270.511 717.079 269.883 718.293C268.942 720.11 269.293 719.982 271.87 717.563C275.817 713.859 276.073 713.145 272.762 715.073ZM48 719C48.589 720.1 49.295 721 49.57 721C49.845 721 49.589 720.1 49 719C48.411 717.9 47.705 717 47.43 717C47.155 717 47.411 717.9 48 719ZM266.564 722.707C266.022 724.132 266.136 724.247 267.124 723.267C267.808 722.588 268.115 721.781 267.807 721.474C267.499 721.166 266.94 721.721 266.564 722.707ZM107.539 724.492C105.911 725.823 104.788 727.122 105.045 727.379C105.302 727.636 107.085 726.543 109.006 724.95C110.928 723.357 112.05 722.058 111.5 722.063C110.95 722.068 109.168 723.161 107.539 724.492ZM114.507 723.989C114.157 724.555 114.558 724.723 115.448 724.382C117.18 723.717 117.497 723 116.059 723C115.541 723 114.843 723.445 114.507 723.989ZM121.241 724.83C120.549 725.269 122.799 725.455 126.241 725.242C134.726 724.717 135.8 724.172 128.5 724.094C125.2 724.059 121.934 724.39 121.241 724.83ZM115.441 727.555C113.611 729.022 113.643 729.042 116 727.92C119.061 726.462 119.628 726 118.358 726C117.821 726 116.509 726.7 115.441 727.555ZM117.5 730.297C112.616 732.641 106 738.421 106 740.343C106 740.873 107.542 739.719 109.427 737.778C118.901 728.023 135.32 726.429 146.177 734.21C149.393 736.514 149.988 736.729 148.5 735.047C144.773 730.835 139.045 728.681 130.5 728.276C123.631 727.95 121.793 728.236 117.5 730.297ZM92.091 760.833C90.874 761.205 90.563 767 91.759 767C92.177 767 93.134 766.015 93.885 764.812C95.209 762.693 95.295 762.683 96.626 764.503C97.382 765.537 98 768.716 98 771.569C98 775.816 97.592 777.04 95.75 778.326C93.59 779.832 93.731 779.897 99.25 779.948C104.906 779.999 106.966 778.747 102.952 777.698C101.105 777.215 100.934 776.504 101.202 770.411C101.5 763.661 103.184 760.854 104.483 764.945C105.504 768.164 107 767.354 107 763.583V760.165L100.091 760.333C96.29 760.425 92.69 760.65 92.091 760.833ZM128.618 760.715C128.225 761.108 123.65 761.323 118.452 761.191C109.84 760.974 106.593 761.862 110.509 763.365C112.206 764.016 113.114 765.97 115.569 774.25C116.507 777.413 117.609 780 118.018 780C118.428 780 119.272 777.975 119.896 775.5C120.519 773.025 121.379 771 121.807 771C122.235 771 123.127 773.025 123.789 775.5C124.451 777.975 125.423 780 125.949 780C126.991 780 128.995 773.717 128.979 770.5C128.971 768.838 128.803 768.753 127.985 770C127.109 771.333 126.891 771.333 126.015 770C125.474 769.175 125.024 767.23 125.015 765.677C125.004 763.549 125.421 762.934 126.706 763.182C127.645 763.363 128.659 764.556 128.961 765.833C129.503 768.132 129.532 768.124 131.8 765.056C133.06 763.352 133.819 761.517 133.487 760.979C132.784 759.841 129.661 759.672 128.618 760.715ZM137.104 763.535C131.477 769.943 133.843 778.919 141.566 780.465C147.759 781.704 153.6 773.277 150.962 766.907C149.436 763.224 145.472 760 142.469 760C141.132 760 138.938 761.445 137.104 763.535ZM168.837 761.25C161.244 767.395 162.971 778.738 171.77 780.51C174.565 781.072 175.455 780.724 177.888 778.12C179.454 776.443 181.015 773.674 181.357 771.965C182.835 764.577 174.034 757.045 168.837 761.25ZM182.448 761.084C182.091 761.662 182.757 762.385 183.929 762.692C185.861 763.197 186.037 763.855 185.82 769.747C185.635 774.734 185.163 776.506 183.79 777.363C180.745 779.265 181.78 780 187.5 780C193.201 780 194.041 779.501 191.519 777.61C189.596 776.169 189.119 771.855 190.816 771.255C191.555 770.994 192.374 771.713 192.683 772.895C193.6 776.402 195 775.257 195 771C195 767.203 193.847 765.82 192.5 768C191.191 770.118 189.887 768.855 190.187 765.758C190.578 761.711 193.26 760.956 196.484 763.985C199.081 766.425 200.728 765.229 199.061 762.114C198.19 760.487 196.866 760.174 190.564 760.109C186.339 760.066 182.816 760.489 182.448 761.084ZM210.527 760.956C210.206 761.475 210.857 762.388 211.972 762.985C213.671 763.894 214 765.066 214 770.206C214 774.513 213.506 776.888 212.345 778.171C210.762 779.92 210.912 780 215.768 780H220.847L219.517 777.25C218.786 775.737 218.258 771.8 218.344 768.5C218.492 762.808 218.628 762.5 221 762.5C224.174 762.5 225.126 766.703 222.404 768.694C220.328 770.212 221.8 770.407 225.299 769.077C229.857 767.344 229.789 762.923 225.178 761.157C221.773 759.853 211.298 759.709 210.527 760.956ZM230.519 760.969C230.164 761.544 230.576 762.719 231.436 763.579C233.657 765.799 233.568 775.715 231.306 778.215C229.661 780.032 229.858 780.079 238.056 779.794L246.5 779.5L246.827 776.061L247.155 772.623L244.103 775.89C240.488 779.76 237.946 779.632 236.848 775.524C235.869 771.863 237.081 770.438 239.893 771.943C241.851 772.991 242 772.821 242 769.535C242 765.931 240.678 764.791 239.638 767.5C238.649 770.078 237 769.14 237 766C237 763.335 237.334 763 239.992 763C241.9 763 243.435 763.724 244.232 765C244.919 766.1 245.823 767 246.241 767C247.239 767 247.188 763.845 246.165 762.232C245.135 760.609 231.426 759.502 230.519 760.969ZM249.667 760.667C248.526 761.808 248.933 763 250.465 763C252.757 763 253.992 766.358 253.604 771.537C253.375 774.593 252.671 776.605 251.624 777.19C248.846 778.745 249.832 780 253.833 780C258.26 780 259.562 779.165 257.575 777.599C256.809 776.994 255.867 774.534 255.483 772.131C254.53 766.174 256.349 766.908 261.5 774.559L265.5 780.5L265.789 772.34C265.989 766.689 266.527 763.807 267.539 762.968C269.886 761.02 269.242 760 265.667 760C261.385 760 260.605 760.842 263.004 762.874C264.532 764.169 264.774 765.192 264.192 767.897L263.46 771.294L260.73 767.168C259.229 764.899 258 762.631 258 762.128C258 760.331 251.196 759.138 249.667 760.667ZM272.078 760.833C270.978 761.173 270.517 767 271.59 767C271.914 767 273 765.987 274.004 764.75C276.461 761.72 277.293 762.902 277.819 770.168C278.22 775.711 278.035 776.468 275.881 778.125L273.5 779.956L279.25 779.978C282.431 779.99 285 779.553 285 779C285 778.45 284.345 778 283.545 778C281.825 778 280.715 773.094 281.177 767.533C281.534 763.247 283.464 761.736 284.483 764.945C284.841 766.075 285.502 767 285.951 767C286.992 767 287.892 762.437 287.099 761.178C286.554 760.313 274.644 760.039 272.078 760.833ZM297.16 761.24C296.522 761.878 296 762.925 296 763.567C296 766.231 291.548 775.663 289.306 777.75L286.888 780H292.099C297.19 780 297.27 779.955 295.557 778.063C293.439 775.723 294.263 774 297.5 774C300.573 774 301.775 775.96 299.653 777.512C296.937 779.498 297.714 780 303.5 780C306.525 780 309 779.55 309 779C309 778.45 308.115 778 307.032 778C305.437 778 304.562 776.387 302.409 769.483C299.568 760.371 298.969 759.431 297.16 761.24ZM311.273 763.527C308.145 766.655 307.815 767.471 308.347 770.753C309.205 776.038 312.052 779.436 315.942 779.82C319.176 780.14 323 777.865 323 775.623C323 775.035 322.299 775.555 321.443 776.777C319.64 779.351 316.795 779.663 314.986 777.483C313.354 775.516 312.749 767.337 314.056 764.896C315.442 762.306 319.416 762.5 321.285 765.25C322.67 767.287 322.881 767.334 323.514 765.75C324.529 763.212 323.306 760.501 321.735 761.805C320.866 762.526 319.913 762.41 318.556 761.417C315.807 759.407 315.224 759.576 311.273 763.527ZM345.435 761.105C345.041 761.743 345.455 762.675 346.36 763.181C348.791 764.542 348.704 776.745 346.25 778.608C344.751 779.746 345.741 779.941 353.142 779.968C361.578 779.999 361.798 779.94 362.422 777.454C363.455 773.337 362.056 772.728 359.024 775.974C354.671 780.634 352 779.662 352 773.418C352 770.829 353.84 770.24 355.8 772.2C356.733 773.133 356.985 772.411 356.932 768.95C356.872 765.014 356.739 764.76 355.78 766.75C354.199 770.027 352 769.59 352 766C352 763.335 352.334 763 354.992 763C356.9 763 358.435 763.724 359.232 765C361.005 767.839 362 767.479 362 764C362 761.57 361.572 760.99 359.75 760.95C358.512 760.922 354.947 760.685 351.826 760.423C348.128 760.112 345.902 760.35 345.435 761.105ZM368.185 760.647C367.462 760.956 366.438 762.348 365.909 763.74C364.571 767.257 366.924 770.576 371.343 771.405C375.769 772.235 377.745 774.397 376 776.5C374.001 778.908 371.055 778.261 369.203 775.006C366.925 771.002 366 771.226 366 775.783V779.565L370.978 779.782C375.303 779.97 376.169 779.672 377.588 777.506C380.173 773.56 378.739 770.246 373.469 767.987C368.556 765.881 367.399 763 371.465 763C372.918 763 374.375 763.833 375.015 765.028C375.612 766.143 376.528 766.792 377.05 766.469C378.535 765.551 378.181 761 376.625 761C375.869 761 373.956 760.794 372.375 760.542C370.794 760.29 368.908 760.337 368.185 760.647ZM325 762C325 762.55 325.9 763 327 763C328.1 763 329.054 763.563 329.119 764.25C329.51 768.342 328.646 777.692 327.779 778.75C326.975 779.731 328.5 780 334.878 780H343V776.5C343 772.498 341.929 771.965 340.487 775.25C339.889 776.613 338.45 777.621 336.836 777.808C334.252 778.107 334.151 777.921 333.478 771.637C332.748 764.823 333.187 763 335.559 763C336.352 763 337 762.55 337 762C337 761.444 334.333 761 331 761C327.667 761 325 761.444 325 762ZM139.333 764.75C138.945 766.263 138.628 768.85 138.628 770.5C138.628 776.689 139.806 779 142.96 779C144.567 779 146.17 778.534 146.522 777.965C147.622 776.185 147.162 764.901 145.929 763.415C143.852 760.912 140.123 761.667 139.333 764.75ZM169.053 765.75C167.766 770.382 167.767 770.619 169.069 775.309C170.041 778.809 170.384 779.092 173.313 778.809L176.5 778.5L176.798 771.66C177.124 764.163 176.145 762 172.425 762C170.583 762 169.875 762.787 169.053 765.75ZM117.19 766.673C117.516 770.533 119.571 772.282 120.607 769.581C121.536 767.16 120.154 763 118.421 763C117.256 763 116.955 763.897 117.19 766.673ZM296.43 768.321C295.63 770.408 296.63 771.77 297.975 770.425C298.543 769.857 298.558 768.903 298.012 768.02C297.245 766.778 297.005 766.824 296.43 768.321Z" fill="black"/>
</svg>
