<svg width="475" height="794" viewBox="0 0 475 794" fill="none" xmlns="http://www.w3.org/2000/svg">
<path fill-rule="evenodd" clip-rule="evenodd" d="M34.5 1.9957L1.49995 2.5007L0.999951 20.5007C0.256951 47.2557 -0.172049 785.881 0.553951 790.251C1.91995 798.484 2.49995 792.967 2.49995 771.752V749.501L118.5 749.873C182.3 750.078 238.1 750.36 242.5 750.502C246.9 750.643 287.625 750.83 333 750.918C378.375 751.007 427.554 751.357 442.288 751.696L469.075 752.314L468.788 773.158C468.523 792.371 468.851 796.438 470.351 792.529C470.83 791.28 471.175 764.425 471.255 722.268C471.267 715.855 470.834 711.506 470.095 710.616C469.187 709.522 469.197 709.102 470.138 708.788C471.83 708.224 471.976 696.2 472.457 517.501C472.684 433.351 473.187 282.707 473.575 182.736L474.281 0.970703L270.89 1.2307C159.026 1.3737 52.65 1.7177 34.5 1.9957ZM449.724 2.6097C449.261 3.0737 170.849 4.4057 61.5 4.4677L3.49995 4.5007L3.73895 342.501C3.86995 528.401 3.98195 695.195 3.98895 713.155L3.99995 745.808L37.75 745.908C56.313 745.963 83.425 746.223 98 746.485C112.575 746.748 168.15 747.201 221.5 747.493C274.85 747.785 351.913 748.299 392.75 748.635C433.587 748.971 467.035 749.078 467.077 748.873C467.545 746.627 468.071 682.993 468.431 585.001C468.672 519.276 469.095 449.301 469.37 429.501C469.646 409.701 470.138 353.001 470.464 303.501C470.79 254.001 471.074 212.826 471.095 212.001C471.116 211.176 471.097 195.201 471.053 176.501C471.009 157.801 471.178 110.891 471.429 72.2557L471.886 2.0107L461.037 2.0787C455.07 2.1157 449.979 2.3547 449.724 2.6097ZM44.511 20.9827C44.178 21.5227 43.4449 27.4847 42.8839 34.2327C41.4339 51.6697 41.791 50.7677 35.213 53.6387C13.588 63.0757 11.3899 66.3837 23.688 70.9847C26.716 72.1177 31.512 73.3897 34.347 73.8107C38.653 74.4507 39.465 74.8997 39.289 76.5387C39.173 77.6177 39.0119 82.2217 38.9319 86.7687C38.7859 94.9947 39.743 98.0007 42.505 98.0007C43.198 98.0007 47.5219 93.2647 52.1129 87.4767L60.4609 76.9537L66.48 77.5167C69.791 77.8257 77.534 78.8147 83.688 79.7137C92.806 81.0467 95.161 81.1127 96.417 80.0697C98.434 78.3957 97.701 77.0487 88.227 65.0197C84.12 59.8047 80.539 54.9617 80.268 54.2567C79.998 53.5517 81.858 50.4467 84.402 47.3557C89.112 41.6347 90.475 38.5997 89.799 35.3297C89.271 32.7737 85.836 33.1987 76.359 36.9937L68.503 40.1387L58.827 30.0697C49.677 20.5477 46.16 18.3147 44.511 20.9827ZM45.625 31.7507C45.256 36.5637 44.669 42.9387 44.32 45.9177C43.731 50.9467 43.8219 51.2877 45.5929 50.6657C47.3699 50.0417 47.364 50.1007 45.5 51.5397C43.788 52.8607 43.451 54.5037 43.16 62.9297L42.82 72.7767L51.1069 73.5097C59.1199 74.2197 59.4619 74.1617 61.4469 71.7747C71.6589 59.4917 74.996 55.0787 74.97 53.8897C74.954 53.1257 73.211 50.4997 71.097 48.0547L67.254 43.6077L63.0299 44.8737C57.7849 46.4447 56.54 45.6577 61.458 43.8797C63.442 43.1627 64.938 42.0687 64.782 41.4497C64.33 39.6457 48.6689 23.0007 47.4249 23.0007C46.7219 23.0007 46.042 26.3097 45.625 31.7507ZM413.536 30.7327C412.141 32.7857 411 35.2377 411 36.1827C411 37.1277 410.393 38.2607 409.652 38.7007C408.91 39.1407 407.037 41.4337 405.489 43.7957C403.539 46.7727 402.195 47.9057 401.111 47.4897C400.25 47.1597 395.16 46.6217 389.799 46.2957C379.174 45.6487 378.076 46.1817 379.375 51.3607C380.002 53.8587 386.904 61.4727 390.864 64.0347L393.227 65.5637L390.114 70.1767C388.401 72.7147 386.995 75.1757 386.989 75.6457C386.983 76.1157 384.963 79.8757 382.5 84.0007C374.73 97.0167 376.561 98.3557 391.696 90.7267C397.638 87.7307 404.201 84.3167 406.28 83.1407C408.36 81.9637 410.61 81.0077 411.28 81.0157C411.951 81.0237 417.887 85.2987 424.471 90.5157C431.055 95.7327 437.031 100.001 437.752 100.001C440.876 100.001 440.519 97.0547 435.025 77.5007C432.741 69.3727 432.693 69.0007 433.928 69.0007C435.26 69.0007 447.083 62.0107 449.75 59.6467C450.988 58.5497 452 56.8387 452 55.8457C452 53.7977 451.729 53.7257 437.018 51.8427L426.537 50.5007L424.399 41.5007C423.224 36.5507 421.764 31.2627 421.156 29.7507C419.58 25.8347 416.604 26.2187 413.536 30.7327ZM415.672 32.2507C414.917 33.4877 412.398 37.5797 410.075 41.3437C407.752 45.1067 406.106 48.4397 406.416 48.7507C407.223 49.5567 415.762 50.8707 420.653 50.9407L424.806 51.0007L422.88 44.2507C418.333 28.3147 418.205 28.1027 415.672 32.2507ZM226.488 34.2997C215.067 39.7427 209.687 54.1377 215.25 64.3647C216.488 66.6397 217.829 68.7467 218.231 69.0487C218.634 69.3497 216.924 70.1407 214.433 70.8077C207.947 72.5417 202.049 78.3277 200.95 84.0337C199.75 90.2667 200.764 94.6997 204.697 100.422C208.366 105.757 208.602 108.275 205.489 108.837C200.725 109.696 201.953 111.003 207.55 111.031C212.613 111.057 213.202 111.239 211.5 112.253C210.4 112.908 207.286 113.682 204.579 113.972C199.618 114.505 196.762 117.001 201.112 117.001C202.981 117.001 202.59 117.518 198.946 119.867C194.1 122.99 188.335 128.669 189.166 129.5C189.452 129.787 191.678 128.5 194.112 126.642C196.546 124.783 201.508 121.444 205.139 119.222C213.644 114.016 223.559 106.468 225.463 103.751C226.283 102.58 227.223 101.89 227.551 102.218C229.47 104.138 219.82 114.679 200.955 131.27C196.256 135.403 190.463 141.308 188.084 144.393C185.704 147.477 183.11 150.001 182.319 150.001C181.529 150.001 181.127 150.398 181.427 150.883C181.727 151.368 180.516 152.483 178.736 153.36C175.883 154.767 175.773 154.958 177.809 154.978C179.079 154.991 179.866 155.409 179.558 155.907C179.25 156.405 178.098 156.578 176.999 156.29C175.9 156.003 175 156.253 175 156.845C175 157.438 174.061 158.798 172.913 159.867C170.851 161.788 170.85 161.819 172.811 162.441C175.937 163.433 174.475 167.001 170.942 167.001C169.389 167.001 167.84 167.451 167.5 168.001C167.16 168.551 167.319 169.001 167.852 169.001C168.386 169.001 168.702 169.789 168.553 170.751C168.405 171.714 168.716 172.781 169.245 173.124C170.552 173.971 166.345 183.332 165.024 182.516C164.461 182.168 164 182.322 164 182.859C164 183.395 164.563 184.061 165.25 184.339C166.199 184.721 166.206 184.862 165.281 184.922C164.611 184.965 164.306 185.635 164.604 186.411C164.929 187.258 164.318 188.083 163.072 188.478C160.548 189.279 160.339 190.971 162.75 191.08C163.806 191.128 164.002 191.36 163.244 191.665C162.553 191.944 162.242 192.583 162.553 193.086C162.864 193.589 162.684 194.001 162.153 194.001C161.622 194.001 161.378 194.788 161.61 195.751C161.843 196.714 161.443 200.615 160.722 204.421C159.566 210.525 159.138 211.362 157.09 211.513L154.769 211.684L155.263 199.592C155.664 189.768 156.359 185.532 158.969 177.001C163.946 160.734 169.949 149.329 178.16 140.536C187.725 130.295 186.949 127.481 177.204 137.066C173.191 141.012 169.792 144.075 169.651 143.871C169.51 143.668 168.621 142.263 167.674 140.751C164.222 135.232 160.509 138.652 158.619 149.094C157.975 152.65 157.898 152.699 151.039 153.925C147.229 154.606 143.574 155.81 142.917 156.601C140.992 158.92 144.309 161.592 151.544 163.55C157.28 165.103 159.375 167.001 155.353 167.001C152.396 167.001 137.711 174.104 133.45 177.595C130.261 180.209 128.622 182.604 127.142 186.814C126.043 189.942 123.997 195.201 122.596 198.501C119.668 205.394 119.27 213.232 121.529 219.501C123.378 224.634 123.362 224.733 121.135 221.886C114.803 213.789 108.999 195.73 109.003 184.139C109.008 168.144 116.518 149.048 126.404 139.892C132.204 134.521 134.497 132.826 140.5 129.479C151.594 123.293 161.69 120.769 189.417 117.252C192.672 116.839 195.489 116.038 195.677 115.473C196.124 114.129 178.563 115.403 167.033 117.552C157.469 119.334 140.929 125.605 133.793 130.154C127.254 134.322 118.125 144.378 114.232 151.701C110.247 159.196 106 175.783 106 183.849C106 188.414 105.623 189.932 104.371 190.412C102.91 190.973 102.791 189.925 103.221 180.269C103.622 171.258 104.218 168.176 106.872 161.384C110.482 152.142 115.784 144.123 123.895 135.636C138.215 120.654 160.23 112.27 186.137 111.935C194.845 111.823 198.239 111.418 199.091 110.392C200.065 109.218 198.471 109.001 188.872 109.004C171.988 109.009 154.371 112.494 147.846 117.119C146.386 118.154 144.497 119.001 143.649 119.001C141.695 119.001 134.087 123.027 129.116 126.691C123.49 130.837 110.556 146.571 107.091 153.484C102.044 163.552 100.523 170.952 100.511 185.501C100.502 195.583 100.93 199.848 102.417 204.501C106.348 216.803 111.908 225.586 122.825 236.738L126.972 240.975L126.641 256.738C126.236 276.055 126.836 290.001 128.073 290.001C128.583 290.001 129 288.555 129 286.789C129 284.484 129.777 282.955 131.75 281.378C133.307 280.134 134.115 278.816 133.613 278.341C133.125 277.879 132.525 278.064 132.28 278.751C131.463 281.039 129 280.1 129 277.501C129 275.945 129.567 275.001 130.5 275.001C132.426 275.001 132.447 273.387 130.531 272.651C129.324 272.188 129.09 269.577 129.221 258.044C129.308 250.32 129.433 244.001 129.498 244.001C129.564 244.001 131.391 246.77 133.559 250.155C135.981 253.938 139.21 257.404 141.94 259.151L146.379 261.993L148.789 259.747C153.779 255.095 158.901 241.222 159.086 231.857C159.157 228.268 159.306 227.941 159.935 230.001C163.282 240.964 173.456 253.001 179.375 253.001C181.789 253.001 188.831 244.937 192.037 238.501C193.681 235.201 195.623 229.576 196.352 226.001L197.678 219.501L198.938 224.75C200.576 231.569 206.793 241.114 212.101 244.959C214.411 246.632 216.76 248.001 217.321 248.001C220.959 248.001 233 229.748 233 224.235C233 220.74 234.303 221.629 236.72 226.775C239.178 232.007 239.976 233.331 244.857 240.281C247.875 244.577 252.303 248.001 254.842 248.001C255.36 248.001 258.042 245.97 260.802 243.489C265.851 238.95 271.102 229.989 272.765 223.074C273.561 219.765 273.632 219.88 274.845 226.463C275.536 230.211 277.032 235.128 278.171 237.39C280.943 242.895 286.577 249.732 288.966 250.49C294.662 252.298 305.927 239.374 308.569 228.001C309.365 224.572 309.398 224.621 310.176 230.421C311.291 238.731 315.703 247.487 322.448 254.771C325.62 258.197 328.644 261.001 329.168 261.001C331.051 261.001 340.801 250.852 343.124 246.474C344.429 244.014 345.835 242.001 346.248 242.001C346.662 242.001 347.022 246.388 347.048 251.751C347.074 257.114 347.302 263.864 347.554 266.751C347.956 271.359 347.786 272.001 346.161 272.001C344.193 272.001 341 274.933 341 276.741C341 277.336 342.311 278.926 343.912 280.274C345.514 281.622 346.977 283.764 347.162 285.034C347.348 286.305 348.084 287.537 348.798 287.772C349.844 288.117 350.052 283.162 349.868 262.291L349.64 236.382L353.146 230.941C361.974 217.241 364.048 213.2 368.112 201.782C371.198 193.111 371.416 191.647 371.433 179.501C371.446 169.861 370.987 164.95 369.658 160.501C368.673 157.201 367.505 153.086 367.062 151.356C364.036 139.521 351.586 123.888 340 117.374C327.183 110.167 318.472 108.41 290.5 107.389C282.25 107.088 274.15 106.765 272.5 106.671C270.85 106.578 269.361 106.951 269.191 107.501C268.701 109.086 272.769 109.794 283 109.904C301.947 110.107 318.895 111.917 326.896 114.591C336.969 117.957 342.203 121.112 349.85 128.427C357.16 135.419 359.501 139.1 357.749 140.852C356.884 141.717 357.02 142.001 358.3 142.001C360.038 142.001 360.354 142.797 360.188 146.751C360.137 147.989 360.523 149.001 361.047 149.001C361.571 149.001 362 149.695 362 150.543C362 151.391 362.89 153.04 363.978 154.207C365.299 155.626 365.761 157.105 365.369 158.666C365.034 160.003 365.232 161.001 365.834 161.001C366.412 161.001 366.699 161.966 366.472 163.145C366.245 164.324 366.371 165.786 366.752 166.395C367.133 167.003 367.493 169.301 367.552 171.501C367.611 173.701 368.024 176.325 368.468 177.332C370.708 182.408 365.832 203.721 359.939 214.614C356.513 220.946 352.127 228.001 351.617 228.001C350.746 228.001 353.07 218.915 354.842 215.389C361.671 201.798 365.277 188.35 365.269 176.501C365.257 160.081 359.661 145.377 348.992 133.733C341.712 125.789 335.211 121.869 324.6 119.027C320.255 117.863 315.937 116.502 315.004 116.003C310.756 113.73 271.296 111.864 273.728 114.051C274.153 114.433 282.483 115.27 292.24 115.91C307.554 116.915 311.452 117.532 320.74 120.419C334.45 124.681 339.628 127.67 346.552 135.322C357.834 147.789 362.132 159.181 362.068 176.448C362.034 185.81 361.555 188.995 358.764 198.448L355.5 209.501L354.816 201.501C353.924 191.07 352.09 186.204 346.428 179.254C341.274 172.927 337.187 169.693 329 165.465C321.946 161.823 313.689 156.536 312.141 154.671C311.477 153.871 309.571 152.652 307.906 151.962C305.983 151.165 303.292 148.298 300.532 144.104C294.21 134.498 289.469 130.216 273 119.234C268.952 116.535 267.976 115.47 269.303 115.2C271.791 114.695 269.561 112.009 266.628 111.979C264.315 111.955 256 108.463 256 107.515C256 107.195 258.363 107.229 261.25 107.591C268.494 108.5 266.459 106.563 257.469 103.992C248.512 101.431 246.329 99.3637 247.881 94.9117C249.052 91.5527 248.469 85.4087 246.887 84.4307C245.518 83.5847 245.838 82.0007 247.378 82.0007C249.511 82.0007 250.727 84.0987 251.385 88.9167C252.025 93.6077 253.614 96.6317 257.188 99.9617C258.661 101.333 259.721 101.68 260.393 101.008C261.064 100.337 260.338 98.9127 258.198 96.7047C255.761 94.1897 255 92.5177 255 89.6707C255 87.6167 254.328 84.3287 253.507 82.3637C251.929 78.5857 252.416 73.9197 254.35 74.2837C256.54 74.6967 257.655 79.9947 256.617 85.0607C255.528 90.3747 256.694 93.0007 260.141 93.0007C261.667 93.0007 261.915 93.4917 261.409 95.5077C260.686 98.3897 263.218 103.001 265.523 103.001C267.202 103.001 267.502 101.429 266 100.501C265.45 100.161 265 97.7077 265 95.0497C265 90.6537 265.24 90.1577 267.655 89.5507C269.115 89.1847 270.578 89.2697 270.905 89.7407C277.605 99.3827 278.279 100.102 280.338 99.8087C281.856 99.5927 282.594 98.6817 282.816 96.7507C283.16 93.7647 281.628 93.0557 280.23 95.5537C279.533 96.7997 278.576 96.0567 275.403 91.8037C271.913 87.1287 271.075 86.5377 268.321 86.8157C264.502 87.2007 263.917 86.3457 263.776 80.1637C263.669 75.4327 263.55 75.2537 258.697 72.5257C253.183 69.4257 253.51 68.7097 261 67.4967C267.61 66.4267 268.728 65.5147 269.843 60.2887C271.213 53.8647 269.605 50.9627 268.045 57.0437C267.416 59.4947 266.744 61.9817 266.552 62.5687C266.36 63.1567 263.792 64.1767 260.845 64.8357C257.899 65.4957 254.253 66.6757 252.744 67.4587C249.694 69.0407 249.33 68.4707 251.532 65.5597C254.261 61.9507 253.378 61.4027 244.916 61.4527C237.598 61.4957 236.651 61.2767 234.916 59.1397C231.412 54.8227 233.019 45.5497 237.825 42.3537C239.296 41.3747 242.525 40.3327 245 40.0377C250.271 39.4087 250.822 37.7037 246.739 34.6557C242.419 31.4297 232.861 31.2617 226.488 34.2997ZM229.914 35.9567C221.833 38.4057 216.498 46.1907 216.523 55.5007C216.544 63.3217 218.88 67.2637 225.427 70.5267C232.529 74.0647 238.627 73.4947 245.201 68.6767C249.597 65.4547 249.285 64.4627 243.995 64.8387C232.84 65.6327 227.196 57.0497 231.614 46.0077C233.357 41.6507 236.916 38.5617 241.525 37.4047C244.107 36.7567 244.21 36.5917 242.464 35.9087C239.941 34.9227 233.241 34.9477 229.914 35.9567ZM78.599 39.0777C74.254 40.6677 70.494 42.1737 70.243 42.4237C69.993 42.6747 71.296 44.9777 73.138 47.5427L76.487 52.2067L80.3 47.8537C84.436 43.1337 87.305 38.3607 86.811 37.0257C86.64 36.5647 82.945 37.4877 78.599 39.0777ZM381 49.7927C381 51.3847 391.985 63.0007 393.491 63.0007C394.758 63.0007 402.438 51.1057 401.668 50.3357C401.447 50.1147 396.706 49.6557 391.133 49.3157C384.087 48.8867 381 49.0317 381 49.7927ZM271 50.4507C271 50.6977 272.574 53.5107 274.497 56.7007C276.421 59.8907 277.996 63.1297 277.997 63.8987C278 65.0337 279.535 65.1787 286.136 64.6697C294.206 64.0477 294.258 64.0587 292.476 66.0277C291.487 67.1197 290.912 68.2457 291.196 68.5307C292.098 69.4317 294.494 68.0407 295.89 65.8047C297.068 63.9197 297.002 63.4737 295.369 62.2687C294.163 61.3787 292.258 61.1027 290 61.4917C288.075 61.8237 285.098 62.3367 283.385 62.6337C280.377 63.1537 280.162 62.9447 277.187 56.5867C275.332 52.6237 273.487 50.0007 272.553 50.0007C271.699 50.0007 271 50.2027 271 50.4507ZM400.093 57.1747C397.865 60.6537 396.033 63.9707 396.021 64.5457C396.009 65.1197 398.209 67.2747 400.91 69.3337C405.995 73.2127 409.983 77.2537 407 75.5057C406.175 75.0227 403.126 72.8477 400.223 70.6737C397.321 68.4997 394.788 66.8957 394.593 67.1107C394.398 67.3247 391.09 73.1257 387.242 80.0007C382.471 88.5247 380.671 92.6007 381.582 92.8157C383.179 93.1937 410 79.0657 410 77.8477C410 77.3817 410.713 77.0007 411.585 77.0007C413.961 77.0007 446.163 60.0997 448.917 57.4077C449.913 56.4337 447.43 55.9957 429.97 54.0617C419.812 52.9367 409.845 51.7537 407.822 51.4327C404.208 50.8597 404.075 50.9577 400.093 57.1747ZM31.385 58.3327C18.693 64.1367 18.134 64.5297 20 66.3517C21.938 68.2427 29.436 70.7247 35.736 71.5597L40.691 72.2177L41.338 65.3587C42.183 56.4157 42.164 53.9827 41.25 54.0827C40.837 54.1287 36.398 56.0407 31.385 58.3327ZM69.907 64.5257C65.833 69.2617 62.3729 73.4887 62.2169 73.9187C62.0609 74.3477 65.661 74.9837 70.217 75.3327C74.773 75.6807 81.752 76.5097 85.726 77.1737C89.7 77.8387 93.242 78.0927 93.596 77.7377C94.086 77.2477 84.406 64.2017 77.992 56.7077C77.619 56.2707 73.98 59.7897 69.907 64.5257ZM429.031 62.5007C429.031 63.0507 429.467 64.1757 430 65.0007C430.533 65.8257 430.969 66.0507 430.969 65.5007C430.969 64.9507 430.533 63.8257 430 63.0007C429.467 62.1757 429.031 61.9507 429.031 62.5007ZM285.937 72.5677C283.225 75.4537 283.258 75.5077 290.082 79.2937C293.923 81.4257 293.28 82.3197 286.5 84.2707C282.357 85.4637 281.5 86.1067 281.5 88.0217C281.5 89.2937 282.063 90.5217 282.75 90.7507C283.461 90.9877 284 90.3387 284 89.2477C284 87.7537 285.33 86.9587 290 85.6607C294.772 84.3337 296 83.5837 296 81.9967C296 80.8987 295.663 79.9827 295.25 79.9597C294.837 79.9377 292.925 78.5727 291 76.9257C288.129 74.4707 287.768 73.7657 288.992 73.0077C290.038 72.3597 290.168 71.7687 289.428 71.0287C288.689 70.2897 287.646 70.7487 285.937 72.5677ZM421.584 74.7007L412.667 79.1897L416 81.8447C422.917 87.3557 435.546 95.9967 436.686 95.9987C437.541 95.9997 437.371 94.1147 436.078 89.2507C435.09 85.5377 433.739 79.9207 433.073 76.7677C432.408 73.6147 431.557 70.8497 431.182 70.6227C430.807 70.3967 426.488 72.2317 421.584 74.7007ZM210.61 76.3657C205.641 79.3737 204.08 82.2637 204.035 88.5347C204.007 92.6217 204.658 94.5897 207.5 99.0017L211.001 104.435L210.62 94.3797L210.239 84.3257L214.059 81.9647C217.691 79.7197 217.783 79.5377 215.939 78.2457C213.532 76.5597 213.464 75.2877 215.75 74.6897C216.999 74.3637 217.07 74.2007 216 74.1217C215.175 74.0607 212.75 75.0707 210.61 76.3657ZM41.4809 84.4177C41.0819 89.7377 41.087 94.4067 41.493 94.7947C41.899 95.1827 43.416 93.9837 44.865 92.1297C46.314 90.2747 49.681 86.0807 52.346 82.8077C55.011 79.5357 56.939 76.6067 56.631 76.2987C56.323 75.9907 52.952 75.5157 49.139 75.2427L42.206 74.7467L41.4809 84.4177ZM214.538 87.5627C213.188 90.4067 213.064 91.7467 213.924 94.2117C215.379 98.3857 215.268 101.964 213.584 105.192C212.191 107.861 212.202 107.875 214.829 106.876C217.568 105.834 224 102.079 224 101.522C224 101.348 222.88 99.2467 221.512 96.8527C218.829 92.1587 218.4 88.9897 220.035 85.9347C220.926 84.2697 220.733 84.0007 218.649 84.0007C216.857 84.0007 215.789 84.9257 214.538 87.5627ZM223.607 86.5827C221.774 91.3587 224.083 96.2397 230.564 101.289L235.274 104.959L238.506 102.23C243.099 98.3517 245.018 94.7757 244.882 90.3467C244.768 86.6587 244.736 86.6237 244.104 89.5007C243.551 92.0207 243.328 92.2037 242.712 90.6427C242.028 88.9067 241.818 88.8897 239.525 90.3927C238.175 91.2767 236.245 92.0007 235.235 92.0007C234.226 92.0007 232.83 92.5637 232.133 93.2507C231.118 94.2517 230.629 94.1817 229.679 92.8967C229.026 92.0137 227.482 90.9707 226.246 90.5787C223.631 89.7487 223.336 88.4697 225.563 87.6147C226.423 87.2847 226.847 86.5617 226.504 86.0077C225.588 84.5257 224.298 84.7807 223.607 86.5827ZM244.879 102.775C245.947 104.771 251.846 110.334 266.856 123.501C276.728 132.161 284.739 141.051 290.285 149.501C297.64 160.707 307.094 189.306 308.575 204.828C309.149 210.847 309.505 211.919 310.568 210.828C312.296 209.056 314.403 190.093 313.651 183.084C312.411 171.523 303.617 150.472 298.995 147.999C297.874 147.398 297.311 146.353 297.644 145.486C298.03 144.48 297.574 144.001 296.229 144.001C295.138 144.001 293.685 143.326 293 142.501C292.14 141.465 292.102 141.001 292.878 141.001C293.495 141.001 294 140.499 294 139.884C294 139.261 293.119 138.998 292.004 139.29C290.686 139.634 288.953 138.825 286.899 136.906C285.188 135.308 283.049 133.964 282.144 133.92C281.183 133.872 281.746 133.268 283.5 132.465L286.5 131.091L282.643 131.046C279.884 131.014 278.929 130.628 279.289 129.689C280.086 127.614 277.151 124.778 267.797 118.584C263.01 115.414 255.926 110.161 252.055 106.911C244.584 100.638 243.357 99.9307 244.879 102.775ZM241.125 104.924C238.936 106.276 240.038 134.674 242.573 142.281L244.5 148.06L250 147.389C253.025 147.019 258.65 146.162 262.5 145.483C269.44 144.26 278.213 144.299 282.218 145.57C284.236 146.211 284.228 146.128 281.947 142.866C278.155 137.443 267.051 126.189 259.57 120.188C255.759 117.131 250.359 112.254 247.57 109.352C243.989 105.625 242.095 104.324 241.125 104.924ZM231.732 114.593C231.171 123.473 229.033 132.612 223.118 151.414C218.014 167.641 219.012 179.016 227.014 195.822C230.352 202.832 231.28 204.047 232.904 203.531C233.964 203.195 235.147 203.429 235.531 204.052C236.463 205.56 242.175 196.957 241.475 195.1C241.185 194.33 241.859 192.85 242.973 191.811C245.463 189.491 245.566 188.033 243.25 187.901C242.083 187.835 242.333 187.535 244 187.001C246.3 186.264 246.22 186.191 243 186.085C240.352 185.998 239.865 185.734 241 185.001C242.282 184.173 242.246 184.029 240.75 184.016C238.152 183.994 238.627 182.013 241.25 181.931C243.311 181.866 243.338 181.797 241.573 181.106C239.785 180.405 239.773 180.302 241.405 179.676C242.372 179.305 244.139 178.965 245.332 178.922C246.524 178.879 246.919 178.61 246.208 178.325C245.191 177.917 245.174 177.496 246.128 176.347C247.174 175.086 246.634 174.981 242.17 175.573C238.727 176.03 237 175.9 237 175.185C237 174.594 239.137 173.973 241.75 173.806C245.17 173.586 246.5 173.081 246.5 172.001C246.5 170.95 245.221 170.409 242.227 170.192C239.877 170.023 238.216 169.46 238.536 168.942C238.856 168.425 238.641 168.001 238.059 168.001C237.477 168.001 237 167.551 237 167.001C237 166.451 237.637 166.001 238.417 166.001C239.196 166.001 239.99 165.531 240.181 164.957C240.373 164.382 241.535 163.836 242.765 163.744C245.78 163.517 245.626 162.001 242.588 162.001C240.206 162.001 239.784 160.737 241.337 158.251C241.777 157.546 241.656 157.001 241.059 157.001C239.563 157.001 239.745 155.399 241.432 153.712C242.675 152.468 242.531 151.039 240.342 142.89C238.591 136.377 237.652 129.763 237.276 121.295C236.978 114.582 236.375 109.182 235.937 109.295C235.499 109.408 234.501 108.642 233.718 107.593C232.441 105.88 232.238 106.596 231.732 114.593ZM225.638 111.397C221.769 116.485 219.475 118.732 205.246 131.362C192.951 142.275 186.567 149.491 187.653 151.248C188.296 152.289 190.745 151.925 198.968 149.568C201.975 148.706 208.13 148.001 212.646 148.001H220.856L223.035 142.251C226.136 134.064 229.147 118.615 228.798 112.685L228.5 107.634L225.638 111.397ZM163.053 143.805C162.489 145.898 161.743 149.038 161.394 150.783C160.55 154.999 159.552 155.627 152.608 156.308C144.104 157.142 143.835 158.394 151.709 160.484C155.444 161.475 159.021 162.692 159.658 163.189C160.468 163.821 161.897 161.847 164.408 156.625C166.384 152.518 168 148.516 168 147.733C168 146.249 165.144 140.001 164.465 140.001C164.252 140.001 163.616 141.713 163.053 143.805ZM183 155.001C183 156.254 184.061 156.254 186 155.001C187.213 154.217 187.069 154.029 185.25 154.016C184.012 154.008 183 154.451 183 155.001ZM240.813 177.684C241.534 177.973 242.397 177.937 242.729 177.605C243.061 177.273 242.471 177.037 241.417 177.08C240.252 177.128 240.015 177.365 240.813 177.684ZM163.813 180.684C164.534 180.973 165.397 180.937 165.729 180.605C166.061 180.273 165.471 180.037 164.417 180.08C163.252 180.128 163.015 180.365 163.813 180.684ZM103 193.376C103 196.515 104.319 201.001 105.242 201.001C105.787 201.001 105.998 200.101 105.71 199.001C105.412 197.86 105.684 196.988 106.344 196.971C106.98 196.954 106.688 196.468 105.695 195.89C104.268 195.06 104.137 194.541 105.067 193.42C106.002 192.294 105.91 192.001 104.622 192.001C103.73 192.001 103 192.62 103 193.376ZM105 202.883C105 203.433 105.45 204.161 106 204.501C106.55 204.841 107 204.669 107 204.119C107 203.569 106.55 202.841 106 202.501C105.45 202.161 105 202.333 105 202.883ZM232.192 207.066C231.527 208.13 230.257 209.001 229.369 209.001C228.114 209.001 228.009 209.306 228.895 210.374C229.522 211.13 229.745 212.502 229.391 213.425C228.861 214.806 229.192 214.991 231.264 214.471C232.68 214.115 234.074 214.312 234.45 214.92C235.655 216.87 238.192 216.181 237.527 214.085C237.192 213.031 237.387 211.88 237.959 211.526C239.685 210.459 239.131 209.001 237 209.001C235.9 209.001 235 208.353 235 207.56C235 205.237 233.499 204.973 232.192 207.066ZM106.638 207.501C106.955 208.326 107.766 209.001 108.44 209.001C109.115 209.001 109.667 208.326 109.667 207.501C109.667 206.676 108.856 206.001 107.865 206.001C106.674 206.001 106.258 206.51 106.638 207.501ZM194.687 209.066C193.14 210.68 192.353 212.001 192.937 212.001C193.522 212.001 194.001 213.013 194.003 214.251C194.005 216.128 194.569 216.513 197.403 216.572C199.975 216.626 200.665 216.291 200.244 215.194C199.925 214.364 200.715 212.955 202.094 211.895C204.438 210.093 204.445 210.045 202.372 210.023C201.202 210.011 199.627 209.13 198.872 208.066C197.543 206.191 197.411 206.223 194.687 209.066ZM273 209.077C273 209.542 272.066 210.793 270.925 211.857C269.539 213.148 269.22 214.019 269.965 214.48C270.579 214.859 270.845 215.919 270.556 216.835C270.139 218.157 270.729 218.516 273.415 218.572C275.994 218.626 276.666 218.294 276.237 217.177C275.928 216.371 276.362 215.21 277.201 214.596C278.519 213.632 278.336 213.121 275.864 210.855C274.289 209.412 273 208.612 273 209.077ZM109.038 213.602C111.744 220.718 126 237.637 126 233.732C126 232.805 124.875 231.31 123.5 230.409C122.125 229.508 121 228.313 121 227.754C121 227.195 119.393 225.222 117.429 223.369C115.465 221.517 114.17 220.001 114.551 220.001C114.933 220.001 114.732 219.383 114.105 218.628C113.478 217.872 113.248 216.517 113.594 215.616C114.059 214.404 113.804 214.139 112.611 214.597C111.152 215.157 110.51 214.101 110.882 211.751C110.947 211.339 110.336 211.001 109.525 211.001C108.349 211.001 108.25 211.529 109.038 213.602ZM309.505 214.986C309.137 216.145 307.992 217.001 306.81 217.001C305.072 217.001 304.952 217.239 306.035 218.543C307.005 219.712 307.034 220.367 306.158 221.243C304.298 223.103 304.801 223.684 307.882 223.232C309.466 222.999 311.068 223.302 311.441 223.905C312.666 225.888 314.05 225.048 313.456 222.682C313.012 220.912 313.421 220.11 315.187 219.295L317.5 218.228L314.75 217.506C313.238 217.109 312 216.185 312 215.452C312 213.194 310.181 212.855 309.505 214.986ZM156 216.466C156 217.888 155.173 219.373 154.046 219.976C152.131 221.001 152.136 221.065 154.296 223.261C155.508 224.493 157.625 225.533 159 225.573C160.375 225.612 162.4 226.026 163.5 226.492C165.424 227.308 165.433 227.264 163.75 225.342C161.441 222.706 161.542 221.564 164.25 219.675C166.473 218.125 166.456 218.105 162.817 218.053C160.04 218.014 158.979 217.509 158.5 216.001C157.612 213.203 156 213.503 156 216.466ZM347.768 229.001C347.081 230.101 345.577 231.001 344.426 231.001C341.287 231.001 340.841 232.051 343.176 233.942C344.971 235.396 345.095 235.955 344.052 237.904C342.453 240.891 343.209 241.482 345.809 239.276C347.104 238.177 348.248 235.501 348.814 232.251C349.813 226.506 349.647 225.991 347.768 229.001ZM127.006 230.551C127.017 234.446 129.11 240.001 130.566 240.001C131.618 240.001 131.867 239.32 131.439 237.614C131.009 235.902 131.481 234.631 133.109 233.114L135.377 231.001H132.389C130.745 231.001 128.86 230.461 128.2 229.801C127.267 228.868 127.001 229.034 127.006 230.551ZM414.32 245.251C413.205 246.489 411.244 250.089 409.962 253.251C408.476 256.918 407.065 258.975 406.066 258.928C405.205 258.888 402.025 258.5 399 258.066C392.585 257.145 391 257.537 391 260.041C391 261.884 398.779 269.001 400.794 269.001C403.049 269.001 402.981 271.088 400.528 277.124C399.138 280.546 398 284.182 398 285.205C398 287.942 400.817 288.548 403.498 286.388C404.786 285.35 407.505 283.169 409.54 281.54L413.241 278.58L415.387 281.04C419.374 285.61 424.14 289.001 426.577 289.001C429.562 289.001 429.672 287.295 427.123 280.501C423.412 270.612 423.258 271.297 429.491 270.003C435.852 268.682 439.868 265.44 437.757 263.329C437.06 262.632 433.004 261.543 428.745 260.91C421.904 259.892 420.993 259.51 420.943 257.629C420.72 249.373 419.063 243.001 417.139 243.001C416.704 243.001 415.436 244.013 414.32 245.251ZM412.609 253.471L409.021 261.238L401.392 260.523C392.49 259.689 392.388 260.355 400.61 265.615C403.575 267.511 406 269.413 406 269.842C406 270.271 404.87 273.505 403.489 277.029C402.108 280.553 401.111 283.834 401.273 284.32C401.435 284.806 404.11 283.133 407.216 280.602C410.323 278.072 413.188 276.001 413.582 276.001C413.977 276.001 416.457 278.251 419.093 281.001C421.73 283.751 424.317 286.001 424.843 286.001C425.368 286.001 424.504 282.533 422.923 278.295C420.94 272.979 420.393 270.376 421.158 269.903C421.768 269.526 424.921 268.654 428.163 267.966C437.426 266.001 436.718 264.924 425.172 263.418C419.062 262.621 418.011 261.124 417.985 253.186C417.957 244.861 416.553 244.935 412.609 253.471ZM224.25 255.162C220.234 257.109 220 257.459 220 261.498C220 265.377 220.315 265.923 223.401 267.387C227.652 269.404 244.767 269.666 247.218 267.751C248.098 267.064 249.113 264.653 249.473 262.394C250.07 258.646 249.853 258.055 246.987 255.644C244.173 253.276 243.048 253.006 236.173 253.051C230.543 253.087 227.368 253.65 224.25 255.162ZM46.709 255.625C46.319 256.015 46 259.557 46 263.497V270.659L40.75 272.943C32.853 276.379 32.5259 276.586 32.1769 278.355C31.7879 280.332 35.6479 282.001 40.6069 282.001H44.084L41.542 286.339C36.85 294.345 38.544 296.266 47.3829 292.959L53.0859 290.825L57.3989 294.801C62.8729 299.846 65.893 301.508 67.207 300.194C67.752 299.649 67.88 298.198 67.49 296.97C66.976 295.351 66.563 295.09 65.987 296.022C65.151 297.375 65.145 297.372 56.622 290.629L52.993 287.758L48.061 289.879C45.348 291.046 42.8749 292.001 42.5649 292.001C41.3549 292.001 42.112 289.789 44.616 286.004C48.254 280.508 47.3749 279.001 40.5309 279.001C37.4889 279.001 35 278.593 35 278.095C35 277.597 37.1 276.473 39.667 275.599C46.955 273.116 48 271.704 48 264.346C48 260.856 48.4259 258.001 48.9469 258.001C49.4669 258.001 51.5359 260.476 53.5439 263.501C55.5519 266.526 57.5259 269.001 57.9319 269.001C58.3379 269.001 61.492 268.074 64.942 266.942C68.392 265.809 71.437 265.105 71.709 265.376C71.98 265.648 70.091 268.127 67.511 270.885C62.98 275.729 62.4 278.001 65.693 278.001C68.087 278.001 75 280.226 75 280.997C75 281.37 72.49 282.529 69.422 283.572C64.037 285.403 63.864 285.573 64.444 288.471C64.774 290.123 65.754 292.155 66.62 292.988C68.048 294.359 68.133 294.108 67.523 290.326L66.849 286.151L72.54 284.357C81.17 281.636 81.075 279.17 72.25 276.871C67.472 275.626 67.238 275.196 69.83 272.414C74.995 266.869 76.244 262.001 72.5 262.001C71.64 262.001 68.199 262.923 64.852 264.051C61.505 265.178 58.533 265.867 58.247 265.582C57.962 265.296 56.322 262.911 54.604 260.282C51.706 255.846 48.424 253.91 46.709 255.625ZM195.54 259.957C194 261.659 193.877 262.435 194.82 264.505C195.721 266.483 196.693 267.001 199.5 267.001C202.337 267.001 203.277 266.488 204.217 264.423C205.762 261.033 204.247 258.597 200.348 258.202C198.367 258.002 196.788 258.578 195.54 259.957ZM269.189 260.04C266.488 262.556 266.46 263.461 269 266.001C271.269 268.27 272.318 268.436 275.066 266.966C277.69 265.562 277.531 261.486 274.777 259.558C271.955 257.581 271.815 257.593 269.189 260.04ZM294.973 260.693C290.267 263.913 289.809 266.516 293.25 270.483C295.27 272.812 296.524 273.165 305.5 273.932C316.88 274.904 318.484 274.266 319.599 268.324C320.507 263.486 318.251 261.424 310.594 260.091C301.872 258.572 297.845 258.727 294.973 260.693ZM196.72 261.288C195.874 263.494 197.51 265.207 200.113 264.838C203.579 264.348 203.389 260.604 199.878 260.197C198.325 260.017 197.037 260.462 196.72 261.288ZM270.362 261.501C269.484 263.788 270.713 266.001 272.862 266.001C275.551 266.001 276.546 262.873 274.363 261.277C272.082 259.609 271.066 259.666 270.362 261.501ZM159.17 264.026C152.523 264.994 149 267.981 149 272.652C149 275.062 149.669 276.393 151.473 277.575C153.632 278.99 155.061 279.053 162.723 278.069C170.477 277.074 171.822 276.593 174.262 273.943C176.439 271.578 176.88 270.367 176.346 268.222C175.064 263.071 171.581 262.22 159.17 264.026ZM212.5 274.03C190.509 275.035 179.309 276.626 167 280.496C161.225 282.311 153.26 284.748 149.301 285.912C145.341 287.076 141.835 288.459 141.509 288.986C141.184 289.513 142.735 293.257 144.958 297.307C148.671 304.072 149.085 306.001 146.825 306.001C146.362 306.001 144.303 302.513 142.248 298.251C140.194 293.989 138.416 290.332 138.298 290.126C138.18 289.92 136.321 290.623 134.168 291.688C130.662 293.423 130.147 293.462 129.244 292.063C127.701 289.675 126.683 291.499 127.406 295.353C128.404 300.672 131.257 303.432 140.234 307.765C150.719 312.825 166.27 316.727 181 317.993C187.325 318.537 197.225 319.487 203 320.105C216.686 321.57 261.708 321.598 274.5 320.15C280 319.528 290.35 318.35 297.5 317.534C318.729 315.11 329.787 311.711 332.765 306.693C333.807 304.937 336.986 300.963 339.83 297.861C342.673 294.759 345 291.78 345 291.242C345 290.038 333.618 285.001 330.899 285.001C329.816 285.001 327.933 284.348 326.715 283.551C324.45 282.068 321.295 281.505 296 278.069C266.33 274.038 240.088 272.769 212.5 274.03ZM343.513 274.98C342.639 276.394 344.81 280.001 346.535 280.001C347.496 280.001 348 278.969 348 277.001C348 274.698 347.549 274.001 346.059 274.001C344.991 274.001 343.846 274.442 343.513 274.98ZM323.729 289.751C321.827 292.364 318.639 296.526 316.645 299.001C312.543 304.092 312.259 305.001 314.765 305.001C315.864 305.001 318.035 302.54 320.515 298.484C322.707 294.899 325.288 291.005 326.25 289.831C327.824 287.91 328.633 285.001 327.594 285.001C327.37 285.001 325.631 287.138 323.729 289.751ZM344.858 296.52C342.32 299.81 339.289 303.358 338.122 304.406C332.933 309.065 337.459 308.705 345.161 303.847C350.622 300.402 350.969 299.747 350.116 294.501L349.472 290.539L344.858 296.52ZM248 295.659C247.175 295.934 245.825 296.382 245 296.654C243.592 297.119 234.107 297.131 217.17 296.691C211.669 296.549 209.547 296.875 208.67 298.001C208.026 298.826 206.6 299.599 205.5 299.72C200.219 300.297 196.351 301.375 194.849 302.688C193.694 303.698 192.993 303.799 192.515 303.025C191.625 301.585 188.309 302.627 184.348 305.593C181.834 307.476 181.085 307.666 180.65 306.532C180.059 304.99 173.554 305.452 171.333 307.193C170.691 307.696 169.116 308.231 167.833 308.382C164.799 308.738 162 310.003 162 311.018C162 312.139 172.247 313.69 194.995 316.012C216.795 318.236 257.888 318.742 273.5 316.979C306.232 313.281 316 311.891 316 310.933C316 309.791 312.578 308.001 310.394 308.001C309.439 308.001 307.88 307.298 306.931 306.438C305.981 305.579 303.487 304.663 301.389 304.402C297.593 303.931 295.636 302.399 296.678 300.712C296.979 300.226 295.609 299.968 293.635 300.138C291.661 300.308 289.528 299.929 288.895 299.296C288.034 298.435 287.285 298.431 285.928 299.278C284.494 300.173 283.714 300.052 282.225 298.704C281.187 297.765 280.031 297.303 279.657 297.678C278.6 298.734 267.654 298.959 266.437 297.949C264.849 296.631 255.789 296.062 253.735 297.151C252.446 297.835 251.811 297.671 251.378 296.544C250.758 294.927 250.443 294.844 248 295.659ZM171.667 308.668C171.3 309.034 171 309.799 171 310.368C171 310.994 171.466 310.935 172.183 310.218C172.834 309.567 173.134 308.802 172.85 308.518C172.566 308.234 172.033 308.301 171.667 308.668ZM201.776 347.988C176.513 349.708 152.277 357.07 147.407 364.502C144.837 368.425 144.3 397.083 146.469 414.569C151.305 453.56 172.028 478.785 207.2 488.496C212.109 489.851 217.796 493.3 219.492 495.951C221.788 499.54 224.058 510.217 224.657 520.251C225.011 526.164 224.915 531.001 224.444 531.001C223.973 531.001 218.34 528.076 211.926 524.501C197.117 516.247 192.11 515.794 188.126 522.35C183.86 529.371 184.572 538.456 190.058 547.001C193.964 553.084 198.908 558.176 200.158 557.404C200.746 557.04 199.681 555.226 197.653 553.136C195.713 551.137 192.522 546.827 190.563 543.56C186.435 536.677 185.994 531.813 188.914 525.383C190.477 521.942 191.391 521.15 194.467 520.573C198.539 519.809 203.807 521.998 218 530.351L225.5 534.765L225.774 551.997L226.048 569.23L223.441 568.576C222.007 568.216 219.03 566.783 216.826 565.391C213.382 563.217 212.898 562.484 213.383 560.181C213.927 557.595 213.907 557.581 212.808 559.779C211.343 562.71 209.489 562.071 209.539 558.653C209.561 557.195 209.224 556.001 208.789 556.001C208.355 556.001 208 556.725 208 557.609C208 558.826 207.391 559.065 205.5 558.59C202.403 557.813 201.936 560.529 205 561.501C206.1 561.85 207 562.555 207 563.068C207 563.581 207.651 564.001 208.446 564.001C209.242 564.001 212.58 565.576 215.865 567.501C219.149 569.426 222.373 571.001 223.03 571.001C223.86 571.001 224.02 572.142 223.558 574.751C222.282 581.95 222.237 582.001 217.179 582.001C211.563 582.001 200.167 585.115 195.321 587.974C192.332 589.738 189.569 590.113 176.164 590.58C163.723 591.012 159.637 590.816 156.307 589.627C154.001 588.804 147.701 587.818 142.307 587.437C134.66 586.897 130.517 585.983 123.5 583.29C118.55 581.39 111.61 578.744 108.079 577.409C100.09 574.391 89.654 573.3 84.631 574.958C81.715 575.92 79.916 575.908 75.98 574.899C71.721 573.808 70.541 573.849 67.729 575.19C65.924 576.051 63.5719 578.381 62.5009 580.369C60.7039 583.707 60.667 584.301 62.028 588.169C62.837 590.471 64.106 592.552 64.847 592.794C65.921 593.144 65.965 592.804 65.062 591.117C64.439 589.953 64.19 589.001 64.508 589.001C65.71 589.001 76.139 597.393 77.049 599.092C79.325 603.345 77.394 602.973 71.377 598.001C68.715 595.801 66.128 594.001 65.629 594.001C64.639 594.001 72.639 601.758 77.594 605.601C81.819 608.878 84.011 608.722 80.924 605.364C78.126 602.32 78.98 602.484 84.238 606.001C88.146 608.615 89.461 610.853 86 609.001C82.898 607.341 83.585 609.569 86.904 611.933C88.502 613.07 90.302 614.001 90.904 614.001C91.507 614.001 92 614.356 92 614.79C92 615.224 94.434 617.054 97.409 618.857C100.385 620.66 105.138 623.866 107.973 625.98C113.766 630.303 137.373 642.203 143.5 643.889C145.7 644.494 149.244 644.992 151.376 644.995C153.508 644.998 159.133 645.862 163.876 646.914C175.995 649.601 186.176 651.542 203.5 654.467C211.75 655.86 220.709 657.675 223.409 658.5C226.109 659.326 229.773 660.001 231.552 660.001C234.974 660.001 236 661.296 236 665.615C236 669.284 238.688 675.001 240.414 675.001C242.372 675.001 243.72 672.407 245.098 665.981L246.207 660.808L268.354 661.285C289.285 661.736 312.87 663.915 319.5 666.011C323.872 667.392 344.726 667.853 357.896 666.858C366.014 666.246 369.681 666.322 370.646 667.122C371.655 667.96 372.384 667.928 373.505 666.997C374.482 666.186 376.413 665.971 379.005 666.386C381.454 666.777 383 666.633 383 666.013C383 665.456 383.9 665.001 385 665.001C387.375 665.001 387.443 665.373 385.596 668.286C383.659 671.343 382.689 678.201 383.509 683.053C383.987 685.881 385.447 688.409 388.347 691.428C393.962 697.273 396.387 698.359 404 698.436C409.402 698.49 411.311 698.024 415.302 695.678C419.559 693.176 422.943 688.611 421.564 687.231C421.293 686.961 419.525 687.473 417.635 688.37C412.466 690.823 407.088 690.447 402.226 687.294C395.768 683.107 394.163 676.047 398.27 669.899C402.235 663.963 405.727 662.892 420.245 663.162C431.744 663.376 433.26 663.198 435.745 661.35C437.26 660.223 438.638 658.377 438.807 657.248C438.98 656.087 440.391 654.667 442.057 653.978C445.227 652.664 445.924 650.57 443.5 649.639C442.655 649.315 442 647.827 442 646.232C442 644.675 441.471 642.872 440.824 642.225C439.922 641.323 440.038 640.616 441.324 639.196C443.204 637.118 443.542 632.943 441.958 631.359C441.234 630.635 441.388 629.924 442.458 629.036C444.382 627.439 444.443 623.989 442.591 621.456C441.583 620.077 441.465 619.001 442.176 617.672C443.251 615.663 442.502 611.001 441.104 611.001C440.632 611.001 440.467 609.035 440.738 606.631C441.009 604.228 440.783 601.985 440.236 601.647C439.686 601.307 439.469 599.02 439.75 596.525C440.063 593.746 439.794 591.457 439.047 590.557C438.38 589.754 438.126 588.18 438.481 587.06C438.939 585.617 438.381 584.332 436.564 582.648C435.154 581.341 434 579.591 434 578.759C434 576.378 431.276 574.724 428.259 575.273C426.742 575.549 420.325 577.306 414 579.176C402.948 582.445 401.866 582.576 386.25 582.539C377.313 582.518 370.001 582.83 370 583.232C369.999 585.415 385.318 586.192 398.75 584.69C404.7 584.025 406 584.132 406 585.288C406 586.062 404.988 587.223 403.75 587.869C401.569 589.006 401.582 589.027 404.167 588.524C406.378 588.093 407.018 588.475 407.904 590.753C408.8 593.054 408.88 592.647 408.393 588.251C407.51 580.266 409.289 581.983 411.336 591.09C412.336 595.54 413.398 598.936 413.697 598.638C413.995 598.34 413.453 594.891 412.493 590.974C411.517 586.989 411.134 583.53 411.624 583.12C412.829 582.111 426.006 577.662 426.412 578.126C427.087 578.896 431.234 588.612 432.121 591.501C433.508 596.016 436.098 616.431 436.436 625.501C436.801 635.329 436.175 640.001 434.493 640.001C433.79 640.001 432.964 640.653 432.658 641.45C432.286 642.419 432.582 642.715 433.551 642.343C434.588 641.945 435 642.528 435 644.394C435 646.965 438.054 651.001 440 651.001C442.256 651.001 440.789 652.888 438.069 653.486C434.672 654.232 432.952 655.983 432.731 658.921C432.592 660.773 431.933 661.001 426.712 661.001H420.85L421.245 655.751C421.463 652.863 421.951 650.604 422.331 650.731C425.767 651.874 428.935 654.382 429.293 656.24C429.662 658.157 429.748 658.075 429.864 655.7C429.975 653.407 429.387 652.643 426.621 651.487C424.763 650.711 422.974 649.375 422.645 648.518C421.805 646.329 419.275 630.26 418.004 619.033C416.901 609.297 416.023 604.644 415.407 605.261C415.213 605.455 415.996 612.789 417.147 621.558C418.298 630.326 419.459 642.789 419.726 649.251C420.19 660.491 420.124 661.001 418.213 661.001C416.364 661.001 416.179 660.164 415.72 649.751C414.843 629.841 411.625 601.43 410.16 600.662C409.797 600.472 408.375 600.65 407 601.059C404.554 601.786 404.565 601.805 407.5 601.972C410.109 602.119 410.239 602.254 408.5 603.001C406.938 603.672 406.86 603.876 408.143 603.931C410.769 604.043 411.148 605.887 412.477 625.001C412.726 628.576 413.204 634.297 413.539 637.713C414.12 643.63 414.038 643.949 411.825 644.424C406.178 645.636 405.765 645.885 409.75 645.673C412.087 645.549 414 645.761 414 646.143C414 646.525 414.273 647.549 414.607 648.419C415.079 649.648 414.535 650.001 412.166 650.001C410.49 650.001 408.856 650.424 408.537 650.942C408.194 651.496 409.336 651.658 411.318 651.337C414.37 650.842 414.665 651.009 414.508 653.146C414.381 654.886 413.574 655.655 411.418 656.091L408.5 656.681L412 657.181C414.005 657.467 412.039 657.749 407.399 657.841C400.88 657.97 398.38 658.489 394.596 660.501C388.733 663.618 382.466 663.89 381.725 661.059C381.054 658.493 381.688 658.001 385.667 658.001C389.623 658.001 389.922 656.835 386.535 654.616C383.113 652.374 382.001 652.652 384.861 655.034L387.222 657.001H383.499H379.777L380.472 660.751L381.167 664.501L378.117 661.596L375.068 658.692L374.122 661.18C373.602 662.548 372.574 663.728 371.838 663.802C361.645 664.824 327.361 665.021 322.5 664.086C308.549 661.401 282.642 659.147 264.5 659.04C244.284 658.92 231.965 657.557 202 652.126C192.925 650.482 183.475 648.898 181 648.608C174.642 647.861 170.166 646.644 156.595 641.968C144.156 637.682 142.115 636.832 125.045 628.829C110.739 622.123 95 612.293 95 610.066C95 609.101 93.995 607.454 92.767 606.406C91.039 604.932 90.835 604.889 91.862 606.217C94.733 609.93 92.206 609.933 86.483 606.224C79.504 601.7 76.812 598.907 78.792 598.241C80.435 597.688 78.443 595.001 76.391 595.001C75.641 595.001 72.331 593.088 69.037 590.751C63.894 587.103 63.119 586.147 63.561 584.001C63.844 582.626 65.208 580.488 66.593 579.251C70.47 575.788 75.529 576.276 84.452 580.976C92.748 585.345 94.23 585.505 87.96 581.356C82.683 577.863 84.008 576.564 92.758 576.652C98.277 576.708 101.587 577.536 111 581.216C117.325 583.689 123.342 586.009 124.372 586.372C125.841 586.89 126.115 587.674 125.647 590.016C125.311 591.697 125.476 593.001 126.025 593.001C126.561 593.001 127 591.848 127 590.44C127 588.002 127.205 587.906 131.25 588.458C133.588 588.777 139.325 589.447 144 589.947C153.114 590.923 157.458 592.2 160.248 594.726C161.212 595.598 162 595.859 162 595.306C162 594.073 185.127 591.452 187.606 592.403C189.215 593.021 189.136 593.32 186.786 595.499C185.355 596.825 183.658 599.506 183.015 601.456C182.291 603.65 181.208 604.995 180.172 604.986C178.727 604.972 178.704 604.839 180 604.001C181.282 603.173 181.246 603.029 179.75 603.016C178.787 603.008 178 603.614 178 604.363C178 606.034 185.377 606.889 195.918 606.439C203.786 606.104 223.53 609.131 225.351 610.952C226.63 612.231 228.333 612.349 227.565 611.107C227.261 610.615 231.085 609.89 236.062 609.496C241.04 609.102 244.874 608.542 244.583 608.251C244.292 607.959 237.629 607.635 229.777 607.53C221.785 607.423 213.831 606.799 211.71 606.112L207.919 604.885L212.468 599.825C226.618 584.087 228.593 575.907 227.638 537.001C227.153 517.248 226.651 510.997 225.047 504.739C222.846 496.154 221.901 493.994 219.458 491.966C217.932 490.7 217.947 490.54 219.653 489.868C221.206 489.257 221.102 489.125 219 489.039C215.356 488.889 205.414 485.28 206 484.32C206.275 483.87 204.475 483.231 202 482.901C198.788 482.473 200.361 482.254 207.5 482.136C213 482.045 218.175 481.534 219 481.001C220.005 480.352 215.382 480.022 205 480.001C195.235 479.982 190.035 479.632 190.945 479.056C191.74 478.553 194.492 478.39 197.06 478.695C200.004 479.043 201.986 478.833 202.424 478.124C202.914 477.331 200.888 477.001 195.527 477.001C187.756 477.001 182.52 475.54 180.182 472.721C178.996 471.291 179.422 471.189 184.432 471.706C188.152 472.09 190 471.917 190 471.185C190 470.519 187.184 469.973 182.83 469.795C178.205 469.605 175.513 469.057 175.247 468.251C174.986 467.462 175.879 466.961 177.667 466.891C179.812 466.808 179.434 466.573 176.112 465.92C170.662 464.85 169.655 464.001 173.833 464.001C175.575 464.001 177 463.551 177 463.001C177 462.451 175.313 461.994 173.25 461.986C170.461 461.974 169.884 461.722 171 461.001C172.159 460.252 171.819 460.01 169.5 459.937C167.85 459.886 167.015 459.632 167.645 459.374C169.505 458.611 166.931 453.001 164.722 453.001C163.71 453.001 163.11 452.631 163.39 452.179C163.669 451.727 163.001 450.59 161.906 449.653C160.811 448.715 160.186 447.51 160.516 446.974C160.847 446.439 160.438 446.001 159.606 446.001C158.152 446.001 154.813 439.798 152.878 433.501C151.102 427.723 148.005 403.424 148.002 395.251C148 386.989 148.621 385.634 151.061 388.574C154.706 392.966 168.878 397.214 187.071 399.368C213.835 402.537 230.375 403.271 246.91 402.026C281.549 399.416 287.272 398.852 297 397.089C307.237 395.233 322.23 390.36 326.75 387.419C328.649 386.183 329 386.173 329 387.356C329 388.127 327.988 389.455 326.75 390.308L324.5 391.86L327 391.377C328.839 391.023 328.443 391.48 325.5 393.108C323.3 394.325 322.038 395.503 322.695 395.726C323.352 395.948 324.853 395.615 326.03 394.985C327.208 394.355 328.424 394.092 328.733 394.4C329.042 394.709 326.416 396.287 322.897 397.907C315.678 401.231 316.374 401.99 323.989 399.097C331.334 396.306 330.108 398.305 322.488 401.543C318.907 403.066 316.183 404.517 316.434 404.768C316.833 405.168 322.311 403.519 327.083 401.564C328.357 401.042 328.584 401.474 328.246 403.78C327.86 406.406 327.1 406.883 319.163 409.478C309.073 412.778 309.741 414.186 319.927 411.092C327.758 408.713 328 408.677 328 409.889C328 410.378 324.307 412.063 319.794 413.634C315.281 415.205 312.302 416.628 313.175 416.796C314.403 417.033 321.447 414.947 327 412.703C327.275 412.592 327.653 412.951 327.839 413.501C328.026 414.051 324.313 415.777 319.589 417.337C314.865 418.897 311 420.553 311 421.017C311 421.763 320.577 419.398 325.25 417.498C326.431 417.019 327 417.25 327 418.211C327 419.062 324.685 420.388 321.25 421.503C315.241 423.454 316.258 424.852 322.444 423.144C327.035 421.876 327.096 423.484 322.514 424.996C317.823 426.545 317.039 428.105 321.583 426.851C326.568 425.474 326.949 426.4 322.006 427.881C319.803 428.541 318 429.482 318 429.971C318 430.483 319.378 430.466 321.243 429.931C325.208 428.794 325 428.791 325 429.982C325 430.521 323.875 431.245 322.5 431.59C319.391 432.371 319.167 433.975 322.25 433.379C324.482 432.948 324.483 432.952 322.352 433.903C319.457 435.194 318.459 436.955 320.999 436.291C324.671 435.331 322.565 441.43 318.685 442.994C316.967 443.686 316.874 443.888 318.25 443.938C320.718 444.027 320.431 446.729 317.868 447.543C316.246 448.058 316.056 448.418 317.077 449.048C318.118 449.692 317.566 451.114 314.603 455.416C306.358 467.387 294.495 476.103 276.5 483.412C258.803 490.599 257.07 491.963 254.115 501.021C252.773 505.135 251.186 508.873 250.588 509.327C249.822 509.909 249.87 510.303 250.75 510.66C251.438 510.939 252 512.218 252 513.501C252 514.784 251.438 516.097 250.75 516.418C249.75 516.884 249.75 517.118 250.75 517.584C252.692 518.49 252.223 520.001 250 520.001C247.236 520.001 247.468 521.973 250.25 522.119C252.027 522.213 251.881 522.371 249.557 522.869C247.938 523.217 246.7 523.838 246.807 524.251C246.913 524.664 247 525.451 247 526.001C247 526.551 248.238 527.053 249.75 527.117C251.465 527.189 251.837 527.406 250.738 527.693C249.769 527.946 249.237 528.576 249.557 529.093C249.877 529.61 250.557 529.775 251.069 529.458C251.581 529.142 252 529.36 252 529.942C252 530.524 251.325 531.001 250.5 531.001C248.078 531.001 248.782 532.99 251.25 533.117C253.293 533.222 253.316 533.279 251.5 533.733C249.551 534.22 248.046 535.739 248.015 537.251C248.007 537.664 249.238 538.046 250.75 538.101L253.5 538.2L251 538.948L248.5 539.696L251 540.221C253.366 540.719 253.389 540.784 251.422 541.446C249.505 542.09 249.36 542.643 249.917 547.18C249.963 547.553 250.635 548.494 251.412 549.27C252.57 550.428 253.674 557.099 253.023 559.001C252.151 561.547 252.218 564.001 253.159 564.001C253.79 564.001 253.247 564.92 251.953 566.042L249.599 568.083L252.05 568.736L254.5 569.388L252 570.095L249.5 570.802L252.25 570.901C255.332 571.013 256.098 573.001 253.059 573.001C251.991 573.001 250.84 573.451 250.5 574.001C250.152 574.565 250.962 575.001 252.359 575.001C253.722 575.001 255.626 575.304 256.592 575.675C257.945 576.194 258.2 575.965 257.705 574.675C257.352 573.754 257.499 573.001 258.031 573.001C259.482 573.001 259.2 571.344 257.452 569.596C256.305 568.449 255.746 564.917 255.296 555.966L254.689 543.885L257.094 544.387C275.9 548.314 280.966 548.973 280.92 547.488C280.903 546.945 277.651 545.945 273.694 545.265C269.737 544.586 264.17 543.509 261.323 542.873L256.146 541.717L255.806 527.609C255.427 511.86 256.244 500.754 258.079 496.727C259.488 493.635 262.804 491.753 276 486.558C293.717 479.584 298.826 476.33 310.268 464.726C324.302 450.495 330.797 429.053 331.002 396.276C331.204 364.097 331.464 366.521 327.313 361.926C320.444 354.322 310.76 351.301 284.5 348.568C271.314 347.195 218.819 346.827 201.776 347.988ZM213.5 351.042C205.25 351.339 200.836 351.677 203.691 351.792C206.546 351.907 209.126 352.396 209.425 352.879C210.03 353.858 205.357 355.001 200.753 355.001C198.286 355.001 197.962 355.251 198.926 356.412C200.436 358.231 199.886 358.494 191.5 359.958C177.445 362.411 162.737 366.22 164.089 367.056C165.159 367.717 165.068 368.269 163.623 369.866C161.18 372.564 161.872 374.98 165.7 377.118C168.226 378.528 168.783 378.599 168.343 377.453C167.621 375.571 168.533 375.621 175.62 377.854C185.646 381.014 187.024 381.227 186.366 379.513C185.861 378.196 188.257 378.001 204.952 378.001C216.526 378.001 223.89 377.632 223.543 377.07C222.549 375.463 224.174 375.2 236.5 374.971C250.775 374.706 251 374.722 251 376.001C251 376.551 249.313 377.007 247.25 377.015C241.764 377.035 239.048 377.962 239.676 379.6C240.116 380.747 238.154 381.022 228.857 381.117C222.611 381.181 218.287 381.439 219.25 381.69C220.213 381.942 221 382.79 221 383.574C221 385.053 218.259 385.307 200.845 385.442C196.635 385.474 192.901 385.784 192.549 386.131C191.308 387.349 200.767 388.002 227.245 388.526C249.304 388.961 254.384 388.805 256.245 387.633C257.649 386.748 262.311 386.044 268.604 385.766C275.823 385.447 279.384 384.846 281.076 383.66C282.379 382.748 285.347 382.001 287.671 382.001C289.995 382.001 295.407 380.912 299.698 379.581C303.989 378.25 308.4 377.006 309.5 376.817C310.6 376.628 311.5 375.933 311.5 375.272C311.5 374.611 313.637 372.714 316.25 371.057C320.934 368.087 322.428 366.516 319.5 367.639C318.288 368.105 318 367.239 318 363.127C318 358.671 317.721 357.975 315.75 357.522C299.422 353.77 294.374 352.821 286.143 351.958C274.829 350.772 234.934 350.269 213.5 351.042ZM190.762 352.708C192.006 352.947 193.806 352.938 194.762 352.688C195.718 352.438 194.7 352.242 192.5 352.253C190.3 352.264 189.518 352.469 190.762 352.708ZM184.269 353.694C185.242 353.948 186.592 353.931 187.269 353.657C187.946 353.383 187.15 353.176 185.5 353.196C183.85 353.216 183.296 353.44 184.269 353.694ZM174 355.28C171.525 355.866 170.175 356.49 171 356.666C171.825 356.843 174.75 356.356 177.5 355.584C183.323 353.949 180.616 353.714 174 355.28ZM190.25 356.69C191.213 356.942 192.787 356.942 193.75 356.69C194.713 356.439 193.925 356.233 192 356.233C190.075 356.233 189.287 356.439 190.25 356.69ZM159.293 360.428C151.14 364.335 148.111 367.798 149.795 371.285C150.859 373.489 150.865 373.488 150.932 370.974C151.064 366.042 155.591 362.266 165.945 358.451C167.9 357.731 168.812 357.11 167.972 357.071C167.131 357.033 163.226 358.543 159.293 360.428ZM173.5 359.516C163.028 362.57 165.891 362.577 178 359.526C183.225 358.21 186.15 357.144 184.5 357.158C182.85 357.171 177.9 358.232 173.5 359.516ZM161.441 363.556C159.611 365.023 159.643 365.043 162 363.921C165.061 362.463 165.628 362.001 164.358 362.001C163.821 362.001 162.509 362.701 161.441 363.556ZM325 365.379C325 366.271 325.419 367.001 325.93 367.001C326.442 367.001 327.056 368.013 327.294 369.251C327.683 371.268 327.742 371.229 327.864 368.873C327.939 367.428 327.325 365.686 326.5 365.001C325.271 363.981 325 364.05 325 365.379ZM157.564 370.708C157.022 372.133 157.136 372.248 158.124 371.268C158.808 370.589 159.115 369.782 158.807 369.475C158.499 369.167 157.94 369.722 157.564 370.708ZM326.411 377.112C323.623 380.209 314.899 383.801 303.5 386.545C291.607 389.407 280.76 390.657 260.5 391.497C242.864 392.228 187.368 390.554 178 389.008C167.089 387.207 156.341 383.188 152.336 379.411C150.347 377.535 148.558 376.001 148.36 376.001C148.162 376.001 148 377.558 148 379.461C148 388.545 164.289 394.948 196.595 398.562C214.415 400.556 258.238 400.012 279.5 397.533C299.968 395.146 320.317 389.527 327.5 384.277C329.419 382.875 329.398 382.845 327 383.541L324.5 384.267L326.5 382.029C327.6 380.798 328.445 379.501 328.377 379.146C328.31 378.791 328.478 377.919 328.751 377.208C329.614 374.959 328.393 374.909 326.411 377.112ZM158.258 376.709C157.377 377.031 157.301 377.695 157.998 378.997C159.16 381.169 169.434 384.774 176.5 385.49L181.5 385.997L175 384.204C167.959 382.261 164.615 380.725 161.5 378.003C160.4 377.042 158.941 376.46 158.258 376.709ZM192.269 381.694C193.242 381.948 194.592 381.931 195.269 381.657C195.946 381.383 195.15 381.176 193.5 381.196C191.85 381.216 191.296 381.44 192.269 381.694ZM206.25 381.729C208.313 381.945 211.688 381.945 213.75 381.729C215.813 381.514 214.125 381.337 210 381.337C205.875 381.337 204.188 381.514 206.25 381.729ZM177.813 382.684C178.534 382.973 179.397 382.937 179.729 382.605C180.061 382.273 179.471 382.037 178.417 382.08C177.252 382.128 177.015 382.365 177.813 382.684ZM184.264 386.719C185.784 386.948 188.034 386.942 189.264 386.705C190.494 386.468 189.25 386.28 186.5 386.287C183.75 386.295 182.744 386.489 184.264 386.719ZM320.5 406.038C317.2 407.613 315.292 408.925 316.261 408.952C318.562 409.016 327 405.04 327 403.891C327 403.401 326.887 403.04 326.75 403.087C326.613 403.134 323.8 404.462 320.5 406.038ZM424.787 405.217C423.858 405.923 422.276 408.751 421.272 411.501L419.447 416.501L413.473 417.005C406.948 417.555 405 418.368 405 420.54C405 422.033 411.848 426.001 414.425 426.001C416.247 426.001 417.998 429.024 418.006 432.185C418.009 433.459 418.487 436.216 419.069 438.312C419.93 441.412 420.535 442.065 422.309 441.812C424.763 441.462 427.478 436.628 428.512 430.767C429.106 427.397 429.577 426.93 433.335 425.982C443.93 423.312 444.904 420.488 436.009 418.235C429.763 416.652 429.037 415.895 429.015 410.942C428.994 406.083 427.072 403.48 424.787 405.217ZM423.596 411.686C421.847 416.921 419.013 418.989 413.551 419.016C407.82 419.045 407.408 420.619 412.642 422.487C415.314 423.441 418.027 424.369 418.67 424.549C419.314 424.73 420.134 427.492 420.493 430.689C421.869 442.954 423.424 441.997 427.564 426.335C427.734 425.694 430.412 424.642 433.516 423.998C436.619 423.353 438.865 422.533 438.506 422.174C438.147 421.815 435.524 420.792 432.677 419.9L427.5 418.279L426.732 412.955C426.309 410.027 425.792 407.46 425.583 407.251C425.375 407.042 424.48 409.038 423.596 411.686ZM51.972 433.053C51.369 434.181 51.071 436.093 51.31 437.303L51.7459 439.501L52.504 437.194C52.987 435.728 53.794 435.092 54.722 435.448C57.242 436.415 58.235 434.918 56.41 432.902C54.217 430.478 53.334 430.508 51.972 433.053ZM57 438.633C57 440.116 61.264 446 62.332 445.99C62.974 445.984 65.596 445.343 68.159 444.565C70.721 443.788 73.094 443.428 73.431 443.766C73.769 444.103 72.226 446.233 70.002 448.499L65.959 452.618L70.161 458.486C72.472 461.714 73.719 464.114 72.932 463.82C67.433 461.768 60.6239 460.63 60.2659 461.703C60.0519 462.346 58.442 464.813 56.688 467.186L53.5 471.501L53 464.001L52.5 456.501L46.25 456.203C42.813 456.04 40 455.471 40 454.941C40 454.41 42.437 452.898 45.415 451.581C50.689 449.249 53.722 445.977 52.477 443.964C51.592 442.532 50 443.801 50 445.939C50 447.078 48.785 448.209 46.75 448.963C38.868 451.883 37 453.018 37 454.887C37 457.195 41.505 459.001 47.264 459.001H51.2299L50.5449 464.491C49.2319 474.999 52.5489 477.091 58.3909 469.439C60.3069 466.931 62.021 464.438 62.2 463.9C62.396 463.314 64.275 463.54 66.889 464.462C71.96 466.251 75.612 466.438 76.528 464.956C76.883 464.382 75.29 461.417 72.987 458.368L68.802 452.824L72.401 449.528C74.864 447.272 76 445.362 76 443.477C76 440.771 75.916 440.733 71.25 441.336C68.638 441.674 65.579 442.215 64.453 442.539C62.939 442.975 62.049 442.461 61.034 440.565C59.822 438.3 57 436.949 57 438.633ZM317.5 439.001C316.718 440.267 318.042 440.267 320 439.001C321.293 438.166 321.266 438.03 319.809 438.016C318.879 438.008 317.84 438.451 317.5 439.001ZM188.5 474.001C191.411 475.252 198.936 475.252 197 474.001C196.175 473.468 193.475 473.056 191 473.087C187.575 473.128 186.978 473.347 188.5 474.001ZM211.75 484.707C212.988 484.945 215.012 484.945 216.25 484.707C217.488 484.468 216.475 484.273 214 484.273C211.525 484.273 210.512 484.468 211.75 484.707ZM238.5 509.001C238.84 509.551 239.316 510.001 239.559 510.001C239.802 510.001 240 509.551 240 509.001C240 508.451 239.523 508.001 238.941 508.001C238.359 508.001 238.16 508.451 238.5 509.001ZM238 514.001C238 514.551 238.675 515.001 239.5 515.001C240.325 515.001 241 514.551 241 514.001C241 513.451 240.325 513.001 239.5 513.001C238.675 513.001 238 513.451 238 514.001ZM239 519.001C239 519.551 239.45 520.001 240 520.001C240.55 520.001 241 519.551 241 519.001C241 518.451 240.55 518.001 240 518.001C239.45 518.001 239 518.451 239 519.001ZM238 526.501C238 527.334 238.889 528.001 240 528.001C241.111 528.001 242 527.334 242 526.501C242 525.668 241.111 525.001 240 525.001C238.889 525.001 238 525.668 238 526.501ZM137 527.859C137 528.422 137.45 529.161 138 529.501C138.55 529.841 139 530.943 139 531.949C139 532.956 139.796 534.762 140.768 535.963C142.419 538.001 142.854 538.067 147.306 536.945C153.505 535.385 154.203 536.253 149.095 539.171C144.838 541.602 143.703 544.001 146.809 544.001C147.804 544.001 149.48 544.631 150.534 545.402C152.321 546.709 152.159 546.881 148.108 547.972L143.767 549.141L144.386 553.011C145.252 558.431 143.546 558.826 140.45 553.921C138.025 550.08 137.568 549.809 134.387 550.326L130.947 550.884L132.973 548.308C135.735 544.796 135.554 544.196 131.5 543.435C126.949 542.581 127.049 541.402 131.748 540.521C136.208 539.684 136.964 538.706 136.985 533.751C137.005 528.798 135.194 528.935 134.393 533.948C133.868 537.228 133.293 537.997 130.984 538.504C127.82 539.199 124.503 542.388 125.414 543.861C125.749 544.403 127.303 545.128 128.868 545.472L131.713 546.097L128.86 549.151C124.543 553.772 126.698 555.048 134.562 552.527C136.237 551.99 137.167 552.724 139.512 556.433C143.873 563.332 147 562.356 147 554.096C147 550.522 147.207 550.289 151.599 548.927C154.128 548.143 156.266 547.135 156.349 546.688C156.432 546.241 155.15 545.116 153.5 544.188C151.85 543.26 150.278 542.354 150.006 542.174C149.735 541.994 151.045 540.596 152.918 539.068C155.371 537.066 156.134 535.793 155.645 534.519C154.966 532.749 151.968 532.773 145.306 534.602C143.5 535.099 142.793 534.537 141.306 531.425C139.585 527.823 137 525.682 137 527.859ZM240 533.001C240 533.551 240.45 534.001 241 534.001C241.55 534.001 242 533.551 242 533.001C242 532.451 241.55 532.001 241 532.001C240.45 532.001 240 532.451 240 533.001ZM240 539.001C240 539.551 240.45 540.001 241 540.001C241.55 540.001 242 539.551 242 539.001C242 538.451 241.55 538.001 241 538.001C240.45 538.001 240 538.451 240 539.001ZM240 544.001C240 544.551 240.45 545.001 241 545.001C241.55 545.001 242 544.551 242 544.001C242 543.451 241.55 543.001 241 543.001C240.45 543.001 240 543.451 240 544.001ZM284 547.894C284 548.482 285.012 549.162 286.25 549.405C297.039 551.522 313.01 555.504 315.2 556.622C318.369 558.24 320 558.381 320 557.036C320 555.421 316.78 554.2 304.381 551.112C289.177 547.327 284 546.509 284 547.894ZM239.694 549.64C238.761 550.574 239.888 552.001 241.559 552.001C242.352 552.001 243 551.326 243 550.501C243 548.995 240.889 548.445 239.694 549.64ZM240 556.001C240 556.551 240.675 557.001 241.5 557.001C242.325 557.001 243 556.551 243 556.001C243 555.451 242.325 555.001 241.5 555.001C240.675 555.001 240 555.451 240 556.001ZM322.694 557.64C322.342 557.992 322.258 558.61 322.508 559.014C323.006 559.82 331.867 564.266 336.31 565.939C338.041 566.591 338.846 567.441 338.406 568.154C337.953 568.886 338.131 569.038 338.889 568.57C339.564 568.152 341.484 568.886 343.293 570.253C353.986 578.335 362.487 583.001 366.52 583.001C369.51 583.001 367.869 581.424 363.126 579.739C360.446 578.787 354.708 575.274 350.376 571.931C346.044 568.589 338.377 563.862 333.339 561.428C323.401 556.626 323.628 556.707 322.694 557.64ZM240 561.001C240 561.551 240.702 562.001 241.559 562.001C242.416 562.001 242.84 561.551 242.5 561.001C242.16 560.451 241.459 560.001 240.941 560.001C240.423 560.001 240 560.451 240 561.001ZM260.405 564.251L258.5 566.501L260.75 564.596C262.864 562.806 263.455 562.001 262.655 562.001C262.465 562.001 261.453 563.014 260.405 564.251ZM240.469 566.051C239.519 567.589 240.82 568.581 242.104 567.297C242.822 566.579 242.839 566.02 242.156 565.598C241.596 565.252 240.837 565.456 240.469 566.051ZM327.872 566.665C326.628 568.173 326.71 568.217 328.75 567.13C331.077 565.89 331.65 565.001 330.122 565.001C329.64 565.001 328.627 565.75 327.872 566.665ZM332.559 571.533C331.491 572.34 331.099 573.001 331.686 573.001C332.274 573.001 333.315 572.326 334 571.501C335.557 569.625 335.067 569.635 332.559 571.533ZM239.576 577.188C239.351 577.91 238.886 580.526 238.543 583.001C237.438 590.972 236.076 594.614 232.402 599.425C230.423 602.017 229.078 604.412 229.412 604.747C230.354 605.688 235.72 600.11 237.518 596.322C239.492 592.162 242 582.755 242 579.511C242 576.848 240.216 575.137 239.576 577.188ZM250.5 577.001C249.4 577.474 249.048 577.892 249.719 577.931C250.389 577.969 250.678 578.676 250.362 579.501C249.921 580.649 250.573 581.005 253.143 581.016C255.678 581.028 256.133 581.269 255 582.001C253.714 582.832 253.747 582.973 255.23 582.986C256.213 582.994 257.786 584.62 258.874 586.751C260.887 590.692 270.851 600.782 274.836 602.914C276.12 603.601 276.913 604.421 276.598 604.736C275.452 605.883 262.328 607.93 255.5 608.028C249.646 608.111 248.909 608.299 251 609.174C254.492 610.635 258.878 610.373 271 607.981C282.59 605.693 289.546 603.91 295.298 601.751C298.59 600.516 298.89 600.154 297.548 599.041C296.697 598.334 296 597.189 296 596.495C296 595.801 294.123 593.538 291.828 591.465C287.795 587.821 287.631 587.767 286.861 589.849C286.423 591.032 285.573 592.001 284.973 592.001C284.373 592.001 284.203 591.481 284.595 590.846C285.012 590.173 284.872 589.962 284.261 590.34C283.685 590.696 281.458 590.368 279.312 589.611C275.588 588.297 268.947 587.161 264.357 587.052C263.178 587.024 261.988 586.413 261.713 585.694C261.082 584.05 273.163 585.261 279.92 587.518C284.453 589.033 285.686 588.92 284.557 587.094C283.512 585.402 274.737 583.203 265.987 582.439C260.554 581.965 257.658 581.273 257.309 580.365C257.021 579.615 256.047 578.965 255.143 578.922C254.105 578.872 253.961 578.657 254.75 578.339C255.438 578.061 256 577.422 256 576.918C256 575.796 253.205 575.839 250.5 577.001ZM429.015 578.751C429.024 579.164 429.467 580.176 430 581.001C430.784 582.214 430.972 582.07 430.985 580.251C430.993 579.014 430.55 578.001 430 578.001C429.45 578.001 429.007 578.338 429.015 578.751ZM214.5 585.001C211.805 585.687 211.754 585.766 214 585.783C215.375 585.793 217.625 585.441 219 585.001C220.959 584.374 221.067 584.204 219.5 584.219C218.4 584.229 216.15 584.581 214.5 585.001ZM95 586.869C105.259 595.159 106.5 596.333 106.5 597.751C106.5 598.439 106.95 598.889 107.5 598.751C108.05 598.613 108.403 598.209 108.284 597.853C107.936 596.809 113.318 597.492 115.5 598.769C117.317 599.833 116.606 600.465 113.917 600.175C113.596 600.14 113.333 600.765 113.333 601.562C113.333 602.774 113.749 602.74 115.866 601.353C117.629 600.198 118.515 600.046 118.784 600.854C118.997 601.492 119.528 601.793 119.964 601.523C120.4 601.254 122.164 601.735 123.883 602.592C126.824 604.06 126.919 604.278 125.504 606.299C122.503 610.583 123.452 611.728 131.065 613.012C134.951 613.667 138.333 614.001 138.581 613.753C138.829 613.505 136.048 612.808 132.401 612.203C124.836 610.95 124.173 610.559 125.604 608.203C126.925 606.028 132.009 603.5 139 601.541C143.871 600.177 144.042 600.048 140.5 600.409C138.3 600.633 134.682 601.376 132.459 602.059C128.683 603.221 127.982 603.094 121.763 600.127C118.103 598.38 113.294 596.31 111.076 595.528C108.858 594.745 104.446 592.36 101.272 590.227C94.373 585.592 91.548 584.079 95 586.869ZM432.706 586.984C433.008 588.138 433.76 588.914 434.377 588.709C436.108 588.132 435.706 585.568 433.828 585.206C432.569 584.964 432.292 585.403 432.706 586.984ZM208.813 586.684C209.534 586.973 210.397 586.937 210.729 586.605C211.061 586.273 210.471 586.037 209.417 586.08C208.252 586.128 208.015 586.365 208.813 586.684ZM200.507 588.99C200.157 589.556 200.558 589.724 201.448 589.383C203.18 588.718 203.497 588.001 202.059 588.001C201.541 588.001 200.843 588.446 200.507 588.99ZM81.248 589.707C80.009 589.946 78.514 591.041 77.925 592.142C76.873 594.107 76.903 594.111 79.59 592.35C81.096 591.364 84.391 590.267 86.914 589.912L91.5 589.268L87.5 589.271C85.3 589.272 82.487 589.469 81.248 589.707ZM206.972 590.924C199.013 593.429 194.033 596.95 190.948 602.251C190.028 603.831 190.477 604.001 195.572 604.001C200.292 604.001 201.115 603.744 200.611 602.429C199.62 599.848 201.72 597.276 205.375 596.59C207.663 596.161 209.685 594.792 211.453 592.474C214.45 588.545 214.487 588.558 206.972 590.924ZM243 591.801C243 593.341 243.559 595.16 244.242 595.843C245.158 596.759 245.185 597.27 244.342 597.793C243.714 598.182 243.042 599.401 242.85 600.501C242.565 602.131 243.129 602.561 245.899 602.825C247.768 603.004 250.314 603.816 251.556 604.63C254.939 606.846 255.337 604.698 252.116 601.612C250.568 600.129 248.257 596.685 246.98 593.959C244.372 588.389 243 587.646 243 591.801ZM195.349 591.93C190.545 594.859 187.984 597.232 186.421 600.201C184.765 603.348 184.674 604.001 185.892 604.001C186.382 604.001 187.053 602.926 187.383 601.612C187.961 599.309 191.857 595.345 197.024 591.803C200.417 589.478 199.223 589.568 195.349 591.93ZM359 594.451C359 597.519 358.495 599.184 357.375 599.811C355.929 600.62 356.052 601.234 358.497 605.406C361.223 610.057 363.324 611.312 360.893 606.837C360.117 605.407 359.724 601.688 359.88 597.251C360.02 593.264 359.88 590.001 359.568 590.001C359.255 590.001 359 592.004 359 594.451ZM271.5 596.553C278.757 603.315 280.701 604.199 285.44 602.89C289.274 601.831 289.29 601.267 285.601 597.164C282.793 594.04 278.668 592.423 271.469 591.624L265.5 590.962L271.5 596.553ZM434.788 595.013C435.032 596.67 435.596 598.252 436.043 598.528C437.435 599.388 438.231 594.984 436.96 593.453C435.075 591.181 434.307 591.733 434.788 595.013ZM291.046 599.087C291.66 600.234 292.361 600.973 292.605 600.73C293.304 600.03 291.886 597.001 290.858 597.001C290.347 597.001 290.432 597.939 291.046 599.087ZM302.75 599.724C304.538 599.946 307.462 599.946 309.25 599.724C311.038 599.503 309.575 599.321 306 599.321C302.425 599.321 300.962 599.503 302.75 599.724ZM84 600.431C84 600.706 84.9 601.412 86 602.001C87.1 602.59 88 602.846 88 602.571C88 602.296 87.1 601.59 86 601.001C84.9 600.412 84 600.156 84 600.431ZM176.5 601.001C177.6 601.474 179.175 601.885 180 601.915C181.333 601.964 181.333 601.863 180 601.001C179.175 600.468 177.6 600.056 176.5 600.087L174.5 600.142L176.5 601.001ZM157.5 601.949C159.7 602.446 163.208 603.135 165.295 603.48C168.178 603.957 169.354 604.757 170.186 606.805L171.281 609.501L171.971 607.001C172.555 604.89 172.205 604.299 169.721 603.203C168.103 602.489 163.791 601.712 160.14 601.475C154.508 601.111 154.107 601.183 157.5 601.949ZM436 605.442C436 606.785 436.418 608.141 436.928 608.457C438.056 609.154 439.379 605.424 438.506 604.01C437.372 602.176 436 602.961 436 605.442ZM89 610.431C89 610.706 89.9 611.412 91 612.001C92.1 612.59 93 612.846 93 612.571C93 612.296 92.1 611.59 91 611.001C89.9 610.412 89 610.156 89 610.431ZM437.07 614.251C437.109 614.939 437.511 616.401 437.963 617.501C438.718 619.337 438.844 619.357 439.5 617.751C439.893 616.789 439.955 615.326 439.638 614.501C438.943 612.688 436.972 612.496 437.07 614.251ZM141.777 615.558C145.232 617.977 144.544 619.322 140.25 618.544C132.301 617.103 131.627 617.09 135.5 618.446C137.7 619.217 140.981 619.882 142.792 619.924C144.603 619.966 149.487 620.704 153.647 621.563C157.806 622.422 161.423 622.911 161.685 622.649C161.947 622.387 158.637 621.394 154.331 620.442C148.93 619.247 145.817 617.979 144.298 616.356C143.087 615.061 141.524 614.001 140.825 614.001C140.127 614.001 140.555 614.702 141.777 615.558ZM97 615.431C97 615.706 97.9 616.412 99 617.001C100.1 617.59 101 617.846 101 617.571C101 617.296 100.1 616.59 99 616.001C97.9 615.412 97 615.156 97 615.431ZM128.733 616.125C129.412 616.809 130.219 617.116 130.526 616.808C130.834 616.5 130.279 615.941 129.293 615.565C127.868 615.023 127.753 615.137 128.733 616.125ZM104.791 620.747C108.516 624.107 126.719 634.66 135.441 638.517C141.004 640.978 153.313 644.089 156.815 643.92C157.742 643.875 155.35 642.807 151.5 641.547C147.65 640.286 141.8 638.039 138.5 636.552C131.398 633.353 105.155 620.215 103 618.779C102.175 618.229 102.981 619.115 104.791 620.747ZM163.813 623.684C164.534 623.973 165.397 623.937 165.729 623.605C166.061 623.273 165.471 623.037 164.417 623.08C163.252 623.128 163.015 623.365 163.813 623.684ZM438.627 625.728C438.899 627.229 439.309 628.643 439.537 628.872C440.307 629.641 441.22 626.016 440.638 624.501C439.649 621.923 438.108 622.864 438.627 625.728ZM171.5 625.934C174.25 626.985 177.4 627.849 178.5 627.853C181.029 627.862 174.711 625.482 169.964 624.638C167.191 624.144 167.497 624.403 171.5 625.934ZM185.937 630.101C189.56 631.549 196.374 632.962 195.371 632.058C194.509 631.281 185.864 628.942 184.307 629.064C183.863 629.099 184.597 629.566 185.937 630.101ZM438 635.56C438 637.011 438.433 637.852 439 637.501C439.55 637.161 440 636.01 440 634.942C440 633.874 439.55 633.001 439 633.001C438.45 633.001 438 634.153 438 635.56ZM365.147 641.944C363.814 650.014 363.769 652.39 365.006 649.319C366.031 646.774 367.487 635.001 366.776 635.001C366.51 635.001 365.777 638.125 365.147 641.944ZM218.5 639.922C219.6 640.359 222.3 640.992 224.5 641.329L228.5 641.942L225 640.547C223.075 639.781 220.375 639.147 219 639.14C216.756 639.129 216.705 639.209 218.5 639.922ZM371 642.02C371 642.619 372.268 644.466 373.817 646.124L376.635 649.139L381.466 646.57C384.124 645.157 385.721 644.001 385.017 644.001C384.312 644.001 382.272 644.906 380.482 646.012L377.227 648.024L374.114 644.478C372.401 642.527 371 641.421 371 642.02ZM65 644.33C65 644.602 64.325 648.352 63.5 652.663C62.675 656.974 62.037 661.176 62.081 662.001C62.229 664.735 64.909 657.562 64.955 654.31C65.037 648.521 66.809 649.868 68.418 656.94C69.288 660.766 70 664.369 70 664.948C70 666.551 61.436 666.231 60.063 664.577C59.325 663.687 59.133 661.809 59.553 659.572C60.036 656.996 59.748 655.266 58.527 653.402C57.507 651.845 57.0649 649.878 57.4189 648.468C58.1709 645.471 56.4319 644.325 55.0499 646.907C53.5589 649.693 53.7499 653.067 55.5079 655.009C56.5229 656.131 56.812 657.689 56.394 659.779L55.7739 662.883L49.327 657.942C39.5759 650.468 37.595 651.717 43.928 661.345C51.332 672.599 51.767 674.001 47.859 674.001C46.828 674.001 45.336 672.605 44.386 670.751C42.299 666.677 41.0889 665.843 38.2389 666.513C36.5129 666.919 35.7049 666.448 34.8279 664.523C32.9399 660.38 31.434 661.429 31.988 666.501C32.27 669.083 33.731 669.967 37.75 669.986C40.309 669.998 41 670.419 41 671.966C41 673.046 41.9 674.412 43 675.001C46.228 676.728 45.378 677.509 38.75 678.904C27.884 681.19 26.645 681.567 26.267 682.7C25.859 683.924 32.2889 686.205 41.5 688.104C48.672 689.582 48.6189 689.55 47.0099 691.489C46.0729 692.618 45.3889 692.739 44.4329 691.945C43.7169 691.351 41.6559 691.008 39.8549 691.183C37.3069 691.43 36.45 692.057 35.999 694.001C35.532 696.013 34.646 696.609 31.459 697.054L27.5 697.606L30.29 698.982C34.306 700.963 38.396 699.368 38.824 695.654C39.076 693.466 39.519 692.999 40.824 693.546C41.746 693.932 43.8479 694.548 45.4949 694.915C47.4569 695.351 48.0599 695.846 47.2449 696.35C46.5599 696.773 46 697.838 46 698.716C46 699.594 44.899 701.756 43.553 703.52C40.736 707.214 39.3999 711.512 40.7999 712.377C41.3289 712.704 43.381 711.741 45.36 710.236C54.889 702.993 57.935 701.087 58.507 702.012C58.844 702.558 57.957 703.447 56.535 703.988C53.291 705.221 52.376 707.51 53.712 711.05C54.584 713.359 54.4129 714.144 52.6539 715.903C50.9259 717.631 50.84 718.001 52.167 718.001C53.053 718.001 54.81 717.166 56.07 716.145C58.182 714.435 58.259 714.039 57.046 711.113C56.323 709.366 55.904 707.815 56.115 707.666C56.327 707.517 57.724 706.63 59.221 705.694L61.942 703.993L63.423 709.247C64.238 712.137 65.292 716.076 65.766 718.001C67.058 723.253 69.315 722.457 70.5 716.332C71.41 711.625 73 708.089 73 710.77C73 711.376 74.575 712.441 76.5 713.137C79.166 714.101 80 714.97 80 716.785C80 720.075 82.414 719.079 82.821 715.622C83.101 713.251 82.612 712.688 79.071 711.297C74.536 709.515 74.309 708.986 76.586 705.51C77.459 704.178 77.859 702.582 77.476 701.962C76.636 700.603 80.722 702.885 87.465 707.542C94.59 712.462 95.158 710.652 89.512 701.022C86.897 696.561 84.996 692.672 85.288 692.38C85.579 692.088 86.426 693.121 87.168 694.675C88.765 698.017 92.127 698.803 95.466 696.615C97.958 694.982 98.992 695.545 100.313 699.251C101.216 701.783 103 701.4 103 698.675C103 696.342 99.298 692.001 97.308 692.001C96.723 692.001 95.685 692.676 95 693.501C93.604 695.183 90 695.544 90 694.001C90 693.451 89.107 692.108 88.015 691.016C86.036 689.037 86.037 689.03 88.765 688.47C90.269 688.162 94.2 687.209 97.5 686.354C109.632 683.21 110.763 681.66 101.749 680.531C90.59 679.132 85 677.744 85 676.371C85 674.511 86.95 674.646 89.175 676.66C91.992 679.208 95.703 677.101 96.574 672.46C97.229 668.966 97.385 668.851 100.613 669.456C103.383 669.976 103.866 669.815 103.375 668.535C102.573 666.446 98.66 665.577 96.136 666.928C94.952 667.562 93.81 669.498 93.432 671.513C93.072 673.431 92.698 675.001 92.6 675.001C92.503 675.001 90.76 674.153 88.727 673.117L85.03 671.232L86.877 668.867C89.007 666.138 95 655.664 95 654.67C95 652.929 91.838 654.542 84.504 660.024C80.107 663.311 76.141 666.001 75.691 666.001C75.241 666.001 75.014 664.539 75.187 662.751C75.448 660.036 75.956 659.449 78.272 659.182C81.607 658.799 83.546 655.97 84.394 650.251C84.862 647.091 84.687 646.001 83.712 646.001C81.465 646.001 80 648.263 80 651.732C80 654.032 79.458 655.231 78.25 655.605C74.891 656.642 73.493 657.68 72.5 659.872C71.649 661.751 71.202 660.781 69.5 653.373C68.4 648.584 66.938 644.478 66.25 644.25C65.563 644.021 65 644.057 65 644.33ZM437 645.442C437 646.235 437.45 647.161 438 647.501C438.55 647.841 439 647.192 439 646.06C439 644.928 438.55 644.001 438 644.001C437.45 644.001 437 644.649 437 645.442ZM409.75 647.663C410.438 647.941 411.563 647.941 412.25 647.663C412.938 647.386 412.375 647.159 411 647.159C409.625 647.159 409.063 647.386 409.75 647.663ZM366.232 653.578C361.646 656.326 361.474 658.072 365.809 657.885C367.502 657.812 367.851 657.599 366.75 657.312C365.044 656.866 364.254 655.023 365.75 654.979C366.592 654.954 371.782 651.053 371 651.033C370.725 651.026 368.58 652.171 366.232 653.578ZM408.25 653.69C409.212 653.942 410.788 653.942 411.75 653.69C412.712 653.439 411.925 653.233 410 653.233C408.075 653.233 407.288 653.439 408.25 653.69ZM43 656.454C43 657.42 52.2549 671.002 52.8969 670.979C53.2289 670.967 54.5579 670.143 55.8499 669.149L58.201 667.341L51.8499 662.369C44.6879 656.761 43 655.633 43 656.454ZM435 657.56C435 658.417 435.45 658.841 436 658.501C436.55 658.161 437 657.46 437 656.942C437 656.424 436.55 656.001 436 656.001C435.45 656.001 435 656.703 435 657.56ZM237.559 661.662C239.072 668.356 240.104 672.001 240.487 672.001C241.114 672.001 244.419 661.081 243.929 660.63C243.693 660.413 242.019 659.917 240.209 659.529C237.001 658.842 236.934 658.896 237.559 661.662ZM396 660.946C388.594 664.914 385.088 670.933 385.024 679.791C384.936 691.891 399.993 700.434 412.14 695.175C419.041 692.187 418.922 691.16 411.737 691.714C406.365 692.129 405.022 691.87 402.054 689.845C394.758 684.868 392.494 675.281 397.047 668.638C399.956 664.392 403.409 662.279 408.863 661.407C415.574 660.334 414.552 659.255 406.733 659.16C401.441 659.095 398.561 659.574 396 660.946ZM83.246 663.791C77.885 667.576 77.149 669.436 80.239 671.382C81.649 672.269 82.312 672.013 83.739 670.027C87.183 665.235 90.101 660.002 89.307 660.041C88.863 660.064 86.136 661.751 83.246 663.791ZM375 663.001C375 663.551 375.45 664.001 376 664.001C376.55 664.001 377 663.551 377 663.001C377 662.451 376.55 662.001 376 662.001C375.45 662.001 375 662.451 375 663.001ZM60.5439 668.537C53.2429 671.309 49 677.175 49 684.501C49 692.263 53.546 697.994 61.375 700.102C70.137 702.461 81.904 696.98 83.817 689.649C84.787 685.929 83.6 678.565 81.517 675.387C77.009 668.506 68.2029 665.63 60.5439 668.537ZM38.25 680.838C34.263 681.695 31 682.664 31 682.99C31 683.74 43.124 687.001 45.914 687.001C47.681 687.001 48 686.389 48 683.001C48 678.501 48.555 678.624 38.25 680.838ZM85.015 682.134C85.047 687.075 86.123 687.467 94.151 685.464C98.193 684.456 101.861 683.33 102.302 682.964C102.742 682.598 100.042 682.004 96.302 681.644C92.561 681.284 88.487 680.715 87.25 680.379C85.376 679.87 85.003 680.163 85.015 682.134ZM46.5449 701.621C44.5439 705.262 43.0619 708.397 43.2529 708.587C43.4439 708.778 45.8279 707.342 48.5499 705.395C51.2729 703.448 54.1099 701.506 54.8559 701.079C55.9079 700.477 55.618 699.71 53.56 697.652C52.102 696.194 50.746 695.001 50.546 695.001C50.347 695.001 48.5459 697.98 46.5449 701.621ZM80.015 696.955C78.648 698.005 77.748 699.035 78.015 699.245C82.721 702.934 89.214 707.12 89.613 706.722C90.232 706.103 84.098 694.991 83.155 695.023C82.795 695.035 81.382 695.905 80.015 696.955ZM65.364 709.081C67.619 716.739 68.045 716.56 69.713 707.251L70.654 702.001H66.966H63.2789L65.364 709.081ZM72 704.06C72 705.192 72.45 705.841 73 705.501C73.55 705.161 74 704.235 74 703.442C74 702.649 73.55 702.001 73 702.001C72.45 702.001 72 702.928 72 704.06ZM397.548 705.251C397.334 705.939 396.759 707.818 396.27 709.427C395.595 711.652 394.48 712.611 391.616 713.427C387.053 714.728 386.935 716.134 391.265 717.585C394.29 718.6 394.52 719.005 394.802 723.835C395.16 729.955 396.529 730.413 399.856 725.528L402.212 722.068L406.066 724.035C408.186 725.116 410.388 726.001 410.96 726.001C412.757 726.001 412.096 723.268 409.573 720.27L407.145 717.385L410.595 714.633C412.492 713.119 413.782 711.458 413.463 710.941C413.143 710.424 410.635 710.001 407.889 710.001C403.24 710.001 402.824 709.794 401.85 707.001C400.794 703.972 398.267 702.944 397.548 705.251ZM398.298 709.93C397.607 712.597 396.656 713.607 393.991 714.504L390.571 715.656L393.724 716.755C396.523 717.731 396.913 718.34 397.189 722.178L397.5 726.501L399.249 723.302C400.986 720.126 401.025 720.113 404.467 721.552C409.154 723.51 409.492 723.401 407.615 720.536C405.47 717.262 405.574 716.177 408.25 713.945L410.5 712.068L406.282 712.034C402.714 712.006 401.842 711.578 400.625 709.254L399.185 706.507L398.298 709.93ZM141.75 762.781C136.189 763.09 134.404 764.175 137.5 765.363C139.839 766.26 139.626 779.537 137.25 780.921C135.831 781.747 136.197 781.946 139.187 781.971C142.82 782.001 142.866 781.952 142.327 778.628C141.608 774.198 143.617 772.872 146.145 776.107C147.173 777.424 147.829 779.289 147.601 780.251C147.257 781.707 147.886 781.996 151.344 781.969C154.82 781.943 155.239 781.738 153.905 780.719C153.028 780.049 151.145 777.31 149.721 774.632C146.845 769.225 147.312 767.091 151.825 765.035C156.22 763.032 152.436 762.186 141.75 762.781ZM159 762.9C155.861 763.471 155.697 763.651 157.408 764.647C160.118 766.224 160.901 775.977 158.6 779.489L156.954 782.001H161.177C164.462 782.001 165.133 781.734 164.2 780.801C162.359 778.96 162.631 766.552 164.547 764.962C165.783 763.936 165.834 763.512 164.797 762.855C164.084 762.402 163.275 762.084 163 762.148C162.725 762.212 160.925 762.55 159 762.9ZM181.419 763.138C181.201 763.488 181.692 764.33 182.511 765.01C184.087 766.318 184.607 773.001 183.133 773.001C182.114 773.001 177 765.514 177 764.022C177 763.461 174.863 763.015 172.25 763.033L167.5 763.064L170.25 765.116C172.658 766.913 173 767.84 173 772.576C173 776.901 172.599 778.234 171 779.233C167.988 781.114 168.575 782.001 172.833 782.001C177.266 782.001 178.565 781.164 176.559 779.6C174.874 778.288 174.056 770.843 175.539 770.332C176.111 770.136 178.361 772.776 180.539 776.2L184.5 782.426L184.789 774.304C184.989 768.686 185.528 765.807 186.539 764.969C187.343 764.302 188 763.426 188 763.022C188 762.132 181.98 762.238 181.419 763.138ZM193.772 763.718C189.238 766.576 187.546 774.481 190.551 778.771C192.887 782.106 195.709 783.226 199.964 782.507C203.22 781.957 203.868 781.413 204.392 778.79C204.73 777.099 205.793 775.12 206.753 774.391C208.295 773.22 208.017 773.061 204.386 773.033C200.273 773.001 200.272 773.002 200.386 776.751C200.489 780.132 200.229 780.532 197.75 780.817C195.557 781.07 194.799 780.602 194 778.502C191.868 772.892 193.65 764.885 197.183 764.204C198.081 764.031 199.919 765.08 201.268 766.534C203.582 769.03 203.749 769.067 204.238 767.201C204.862 764.814 204.028 763.331 202 763.225C201.175 763.181 199.6 762.888 198.5 762.572C197.399 762.256 195.274 762.771 193.772 763.718ZM222.475 765.326C219.555 768.246 219 769.508 219 773.227C219 782.905 230.175 786.364 234.49 778.021C236.894 773.372 236.428 768.776 233.25 765.8C228.618 761.464 226.434 761.367 222.475 765.326ZM308.25 762.738C302.922 763.111 301.359 764.339 305 765.291C306.74 765.746 307 766.655 307 772.285C307 776.796 306.549 779.13 305.511 779.992C303.204 781.906 304.404 782.563 309.473 782.16C313.799 781.816 314.012 781.671 312.56 780.067C310.766 778.085 310.451 773.001 312.122 773.001C312.919 773.001 312.898 772.583 312.05 771.561C311.393 770.77 311.001 768.857 311.178 767.311C311.435 765.066 312.003 764.501 314 764.501C317.214 764.501 318.117 768.7 315.345 770.761C313.681 771.998 313.794 772.064 316.5 771.429C320.721 770.438 321 770.188 321 767.391C321 765.493 320.174 764.554 317.532 763.45C315.625 762.653 313.937 762.084 313.782 762.186C313.627 762.288 311.137 762.536 308.25 762.738ZM326.223 763.558C322.044 766.485 323.932 772.39 329.372 773.411C333.282 774.145 335.493 776.274 334.643 778.488C333.611 781.178 329.149 780.295 327.148 777.005C325.004 773.478 324 774.03 324 778.735C324 781.707 324.258 782.054 326.048 781.486C327.174 781.128 328.747 781.376 329.543 782.037C331.467 783.634 335.728 780.932 336.569 777.581C337.458 774.04 335.628 771.528 331.061 770.021C328.27 769.1 327 768.105 327 766.841C327 764.294 331.468 764.403 333.283 766.995C334.92 769.331 336 768.644 336 765.267C336 763.356 335.609 762.99 334.084 763.474C333.03 763.809 331.879 763.614 331.525 763.042C330.617 761.572 328.805 761.749 326.223 763.558ZM238.76 764.785C240.83 766.378 240.964 767.054 240.358 772.852C239.953 776.728 239.174 779.381 238.348 779.698C235.3 780.867 237.344 782.001 242.5 782.001C248.331 782.001 249.258 781.268 246 779.233C243.56 777.709 243.253 773.001 245.594 773.001C246.47 773.001 247.423 773.901 247.71 775.001C248.54 778.174 250 777.324 250 773.668C250 769.683 249.174 768.612 247.3 770.167C245.291 771.834 243.747 769.855 244.553 766.646C245.383 763.34 248.452 763.137 251.686 766.175L254 768.35V765.675V763.001L245.25 763.023C236.736 763.045 236.561 763.092 238.76 764.785ZM269.913 764.283C265.013 768.045 264.727 774.642 269.25 779.576C272.098 782.683 272.809 782.999 275 782.125C277.386 781.173 277.399 781.125 275.285 781.064C272.353 780.98 271 778.202 271 772.267C271 767.101 272.231 765.001 275.259 765.001C276.281 765.001 276.84 764.551 276.5 764.001C275.655 762.634 271.848 762.797 269.913 764.283ZM283.553 763.916C283.242 764.419 283.553 765.019 284.244 765.249C285.081 765.528 285.507 767.884 285.52 772.318C285.541 779.546 286.564 781.395 291.163 782.522C295.706 783.635 298 780.292 298 772.56C298 769.017 298.45 765.841 299 765.501C300.971 764.283 299.946 763.001 297 763.001C295.35 763.001 294 763.451 294 764.001C294 764.551 294.47 765.001 295.044 765.001C295.7 765.001 295.978 767.694 295.794 772.251C295.511 779.238 295.409 779.501 293.001 779.501C290.68 779.501 290.447 779.049 289.715 773.12C289.057 767.787 289.205 766.431 290.619 764.87C292.244 763.074 292.151 763.001 288.214 763.001C285.961 763.001 283.864 763.413 283.553 763.916ZM142.667 764.668C141.697 765.637 141.848 771.001 142.845 771.001C144.241 771.001 147 767.463 147 765.672C147 764.027 144.002 763.332 142.667 764.668ZM224.515 764.977C223.254 767.016 222.863 775.619 223.908 778.314C224.838 780.713 225.478 781.082 228.249 780.814C231.499 780.501 231.5 780.498 231.797 774.273C231.961 770.848 231.607 767.136 231.012 766.023C229.886 763.92 225.595 763.229 224.515 764.977ZM278.441 765.097C278.068 765.7 278.492 766.921 279.382 767.811C280.873 769.302 281 769.216 281 766.715C281 763.954 279.668 763.111 278.441 765.097ZM279.667 777.668C279.3 778.034 279 778.799 279 779.368C279 779.994 279.466 779.935 280.183 779.218C280.834 778.567 281.134 777.802 280.85 777.518C280.566 777.233 280.033 777.301 279.667 777.668ZM115.75 793.751C177.487 793.893 278.512 793.893 340.25 793.751C401.987 793.609 351.475 793.492 228 793.492C104.525 793.492 54.012 793.609 115.75 793.751Z" fill="black"/>
</svg>
