<svg width="470" height="793" viewBox="0 0 470 793" fill="none" xmlns="http://www.w3.org/2000/svg">
<path fill-rule="evenodd" clip-rule="evenodd" d="M191.815 0.518758C191.575 0.758758 148.557 0.986758 96.219 1.02476C31.031 1.07276 0.856 1.42476 0.412 2.14276C-0.038 2.87176 39.207 3.00876 129.632 2.59376C330.041 1.67176 446.457 0.863758 446.936 0.391758C447.176 0.154758 389.97 -0.0112416 319.812 0.0217584C249.653 0.0557584 192.055 0.279758 191.815 0.518758ZM0.402 26.0008C0.402 34.5258 0.556 38.0138 0.743 33.7508C0.931 29.4888 0.931 22.5138 0.743 18.2508C0.556 13.9888 0.402 17.4758 0.402 26.0008ZM24.269 35.6938C25.242 35.9478 26.592 35.9308 27.269 35.6568C27.946 35.3828 27.15 35.1758 25.5 35.1958C23.85 35.2158 23.296 35.4398 24.269 35.6938ZM37.5 36.4798C40.25 37.2188 42.675 37.6518 42.889 37.4408C43.593 36.7448 37.924 34.9998 35.185 35.0678C33.295 35.1158 33.981 35.5338 37.5 36.4798ZM123 36.3788C123 38.7458 127.9 50.6188 127.951 48.3778C127.978 47.2108 127.054 44.1158 125.897 41.5008C124.176 37.6098 124.04 36.5908 125.147 35.8888C126.198 35.2228 126.11 35.0278 124.75 35.0158C123.787 35.0078 123 35.6208 123 36.3788ZM18 37.0008C16.172 38.1818 17.751 38.1818 20.5 37.0008C21.819 36.4338 21.989 36.1228 21 36.0868C20.175 36.0558 18.825 36.4678 18 37.0008ZM128.5 37.0008C129.6 37.4738 131.175 37.8848 132 37.9148C133.333 37.9638 133.333 37.8628 132 37.0008C131.175 36.4678 129.6 36.0558 128.5 36.0868L126.5 36.1418L128.5 37.0008ZM87 38.6708C94.239 39.1878 103.237 41.0718 106.487 42.7528C109.175 44.1418 109.362 44.1438 108.223 42.7698C106.4 40.5728 95.11 37.9698 88.294 38.1758C83.182 38.3298 83.029 38.3878 87 38.6708ZM138.7 41.6698C141.01 43.8318 143.806 47.7158 144.914 50.3008C146.022 52.8858 147.154 55.0008 147.429 55.0008C147.704 55.0008 147.016 52.8628 145.9 50.2508C143.781 45.2898 139.908 40.5648 136.5 38.7838C135.4 38.2088 136.39 39.5068 138.7 41.6698ZM9.861 41.0598L7.5 43.1198L10.25 41.4448C11.762 40.5238 13 39.5978 13 39.3858C13 38.6048 12.165 39.0508 9.861 41.0598ZM48 40.3128C48 40.4848 49.462 41.6808 51.25 42.9708L54.5 45.3178L52.076 42.6588C50.005 40.3888 48 39.2338 48 40.3128ZM71 41.5778L68.5 43.0838L71 42.4218C72.375 42.0568 74.175 41.3768 75 40.9098C76.333 40.1558 76.333 40.0618 75 40.0668C74.175 40.0698 72.375 40.7498 71 41.5778ZM178.272 45.0008C178.272 47.4758 178.467 48.4878 178.706 47.2508C178.944 46.0138 178.944 43.9878 178.706 42.7508C178.467 41.5138 178.272 42.5258 178.272 45.0008ZM62.428 45.9298C58.812 48.6258 58.361 48.7328 56.75 47.2748C55.788 46.4038 55 46.1728 55 46.7628C55 47.3518 55.563 48.0348 56.25 48.2798C57.105 48.5858 56.71 49.6108 55 51.5248C53.625 53.0638 53.175 53.9398 54 53.4718C57.027 51.7528 68.092 43.0008 67.238 43.0008C66.753 43.0008 64.589 44.3188 62.428 45.9298ZM0.392 82.0008C0.352 103.176 0.496 119.108 0.712 117.405L1.104 114.309L25.802 114.477C48.271 114.63 49.673 114.544 41.336 113.532C36.296 112.921 25.721 112.537 17.836 112.679C9.951 112.821 2.917 112.576 2.205 112.133C1.28 111.557 0.994 109.088 1.205 103.483C1.497 95.7148 1.529 95.6308 4.483 94.8438C8.864 93.6768 23.073 93.5538 54 94.4178C69.125 94.8398 83.194 94.8058 85.264 94.3428C87.673 93.8038 79.333 93.4478 62.082 93.3528C47.262 93.2708 32.068 92.6938 28.318 92.0698C23.448 91.2598 18.786 91.2248 12 91.9508C6.775 92.5088 2.17 92.9738 1.767 92.9838C1.365 92.9928 0.906 81.8638 0.749 68.2508C0.579 53.4708 0.435 59.0098 0.392 82.0008ZM112 46.0008C113.375 47.0768 114.898 47.9668 115.385 47.9788C115.872 47.9908 115.126 47.1008 113.727 46.0008C112.329 44.9008 110.806 44.0108 110.342 44.0228C109.879 44.0348 110.625 44.9248 112 46.0008ZM133 45.8048C133 46.2468 134.648 48.1588 136.663 50.0548L140.325 53.5008L136.995 49.2508C133.59 44.9048 133 44.3958 133 45.8048ZM165.557 47.2238C164.701 48.4458 164 49.8208 164 50.2778C164 50.7358 163.16 52.9988 162.133 55.3058C161.106 57.6128 159.993 60.8508 159.659 62.5008C158.947 66.0278 159.628 64.6578 163.141 55.5008C164.407 52.2008 166.07 48.4878 166.836 47.2508C168.639 44.3398 167.592 44.3178 165.557 47.2238ZM172.499 53.7958C171.516 57.2588 169.169 62.2088 167.284 64.7958L163.856 69.5008L167.942 65.1068C171.915 60.8338 175.733 51.6098 174.721 48.7308C174.483 48.0548 173.483 50.3338 172.499 53.7958ZM121 52.7458C123.475 54.9768 125.669 56.6398 125.876 56.4418C126.299 56.0378 120.562 50.9848 118.103 49.5958C117.221 49.0978 118.525 50.5158 121 52.7458ZM179.079 52.1858C178.944 56.7788 177.19 59.9378 171.651 65.5658C168.71 68.5548 166.616 71.0008 166.999 71.0008C167.382 71.0008 170.206 68.3688 173.274 65.1528C178.69 59.4748 181.043 54.2048 179.68 50.8048C179.393 50.0878 179.122 50.7088 179.079 52.1858ZM128.079 52.5838C128.127 53.7488 128.364 53.9858 128.683 53.1888C128.972 52.4668 128.936 51.6038 128.604 51.2718C128.272 50.9398 128.036 51.5298 128.079 52.5838ZM143.08 59.0008C144.538 62.0618 145 62.6288 145 61.3588C145 60.8218 144.3 59.5098 143.445 58.4418C141.978 56.6118 141.958 56.6438 143.08 59.0008ZM148.688 60.8528C149.084 63.7268 148.884 65.4548 148.097 65.9408C147.215 66.4858 147.308 67.0118 148.453 67.9618C149.81 69.0878 149.991 68.7098 149.93 64.8728C149.891 62.4688 149.461 59.6008 148.974 58.5008C148.38 57.1588 148.286 57.9338 148.688 60.8528ZM128 59.3788C128 59.5858 128.787 60.3738 129.75 61.1288C131.336 62.3718 131.371 62.3368 130.128 60.7508C128.821 59.0848 128 58.5558 128 59.3788ZM132.71 66.0008C132.998 67.1008 133.647 68.0008 134.152 68.0008C134.659 68.0008 134.591 67.1058 134 66.0008C133.411 64.9008 132.763 64.0008 132.558 64.0008C132.354 64.0008 132.423 64.9008 132.71 66.0008ZM160.079 68.5838C160.127 69.7488 160.364 69.9858 160.683 69.1888C160.972 68.4668 160.936 67.6038 160.604 67.2718C160.272 66.9398 160.036 67.5298 160.079 68.5838ZM139.865 70.2158C142.266 71.3788 145.029 73.6438 146.005 75.2488C146.981 76.8538 148.036 77.7508 148.351 77.2428C149.465 75.4398 140.039 67.9288 136.816 68.0508C136.092 68.0778 137.464 69.0528 139.865 70.2158ZM116.441 71.5558C114.611 73.0228 114.643 73.0428 117 71.9208C120.061 70.4628 120.628 70.0008 119.358 70.0008C118.821 70.0008 117.509 70.7008 116.441 71.5558ZM152.5 73.0008C153.495 74.1008 154.469 75.0008 154.663 75.0008C154.858 75.0008 154.455 74.1008 153.768 73.0008C153.081 71.9008 152.107 71.0008 151.604 71.0008C151.102 71.0008 151.505 71.9008 152.5 73.0008ZM162.029 71.9618C161.22 72.4738 160.818 73.1528 161.136 73.4708C161.455 73.7888 162.284 73.3628 162.98 72.5248C164.423 70.7868 164.146 70.6228 162.029 71.9618ZM110.51 74.0168C110.856 74.5758 111.557 74.7748 112.069 74.4578C113.456 73.6008 113.198 73.0008 111.441 73.0008C110.584 73.0008 110.165 73.4578 110.51 74.0168ZM155.654 77.2508C156.079 77.9388 159.031 80.9118 162.213 83.8588C165.396 86.8048 168 89.6808 168 90.2498C168 91.3068 149.627 90.7118 143.458 89.4538C141.785 89.1128 136.966 89.5468 132.75 90.4178C127.899 91.4198 119.469 92.0378 109.792 92.1008C101.381 92.1558 93.375 92.5728 92 93.0278C90.499 93.5238 93.754 93.6928 100.144 93.4478C108.959 93.1118 111.014 93.3128 112.097 94.6178C113.277 96.0398 113.477 96.0138 114.133 94.3478C114.749 92.7808 114.885 92.8798 115.029 95.0008L115.199 97.5008L116 95.0008L116.801 92.5008L116.9 95.1918C117.042 99.0128 119 99.8218 119 96.0598C119 94.0078 119.494 93.0008 120.5 93.0008C121.548 93.0008 122 94.0568 122 96.5008C122 98.4258 122.501 100.001 123.113 100.001C123.785 100.001 124.05 98.7938 123.78 96.9568C123.535 95.2828 123.708 93.6808 124.167 93.3978C124.625 93.1148 125 94.0078 125 95.3828C125 99.2298 126.982 99.6298 127.116 95.8098C127.19 93.7028 127.407 93.2278 127.713 94.5008C128.56 98.0208 129.993 98.5868 130.116 95.4508C130.182 93.7648 130.428 93.2508 130.689 94.2508C131.346 96.7648 132.997 96.4098 133.015 93.7508C133.027 92.0998 133.26 91.8638 133.894 92.8638C134.439 93.7228 134.895 93.8278 135.129 93.1468C135.741 91.3648 144.868 90.8018 155.463 91.8908C166.102 92.9858 186 91.5628 186 89.7078C186 89.1398 184.308 89.0158 181.88 89.4038C178.741 89.9058 176.717 89.5578 173.38 87.9428C170.971 86.7768 169 85.5018 169 85.1098C169 84.7178 166.305 82.8458 163.011 80.9488C159.717 79.0528 157.017 77.1628 157.011 76.7508C157.005 76.3388 156.523 76.0008 155.941 76.0008C155.349 76.0008 155.222 76.5518 155.654 77.2508ZM132.269 85.6938C133.242 85.9478 134.592 85.9308 135.269 85.6568C135.946 85.3828 135.15 85.1758 133.5 85.1958C131.85 85.2158 131.296 85.4398 132.269 85.6938ZM329 86.0018C325.975 86.4218 320.8 87.0558 317.5 87.4128C314.2 87.7698 309.925 88.3248 308 88.6468C306.075 88.9698 294.15 89.2468 281.5 89.2638C267.055 89.2828 260.36 89.5788 263.5 90.0598C273.049 91.5228 298.174 91.0108 315.5 89.0008C324.85 87.9158 335.988 87.0228 340.25 87.0148C344.512 87.0068 348 86.6628 348 86.2508C348 85.2268 335.75 85.0668 329 86.0018ZM349.92 86.0498C348.904 86.6778 379.748 88.6748 382.629 88.1678C383.25 88.0578 384.086 88.9888 384.488 90.2348C385.184 92.3988 385.252 92.3658 385.99 89.5008L386.763 86.5008L387.032 90.0008C387.272 93.1428 387.342 93.2198 387.716 90.7508C388.317 86.7848 389.813 87.3698 390.272 91.7508L390.664 95.5008L390.832 91.7508C391.018 87.5908 393 86.5018 393 90.5598C393 91.9668 393.408 92.8668 393.906 92.5588C394.404 92.2508 394.577 91.0988 394.289 89.9998C393.997 88.8828 394.259 88.0008 394.883 88.0008C395.498 88.0008 396 89.2158 396 90.7008C396 93.6438 397.477 92.8688 398.287 89.5008C398.732 87.6508 398.777 87.6658 398.884 89.6918C399.06 93.0118 400.995 93.5688 401.032 90.3098C401.061 87.7608 401.187 87.6628 402.392 89.2508C404.07 91.4608 406 91.5118 406 89.3468C406 87.8658 407.226 87.7608 417.75 88.3418C424.212 88.6988 432.2 89.4398 435.5 89.9878C439.553 90.6628 444.234 90.6478 449.926 89.9438C454.56 89.3698 460.748 89.1998 463.676 89.5658C467.071 89.9898 469 89.8608 469 89.2088C469 87.7978 459.034 87.3128 450 88.2838C445.621 88.7538 439.171 88.6718 434.5 88.0868C421.955 86.5158 411.743 86.0018 395 86.0968C374.035 86.2168 365.729 86.1278 357.786 85.6998C354.094 85.5008 350.554 85.6578 349.92 86.0498ZM168 87.4658C168 87.7208 169.012 88.4698 170.25 89.1298C172.29 90.2168 172.372 90.1728 171.128 88.6648C169.85 87.1158 168 86.4068 168 87.4658ZM196.379 88.8798C198.269 89.6218 234.138 89.1898 234.917 88.4158C235.146 88.1878 226.146 88.0328 214.917 88.0708C203.688 88.1098 195.346 88.4738 196.379 88.8798ZM238.75 88.7238C240.537 88.9458 243.463 88.9458 245.25 88.7238C247.037 88.5028 245.575 88.3208 242 88.3208C238.425 88.3208 236.963 88.5028 238.75 88.7238ZM251.813 88.6838C252.534 88.9728 253.397 88.9368 253.729 88.6048C254.061 88.2728 253.471 88.0368 252.417 88.0798C251.252 88.1278 251.015 88.3648 251.813 88.6838ZM256 89.0008C256 89.5508 256.45 90.0008 257 90.0008C257.55 90.0008 258 89.5508 258 89.0008C258 88.4508 257.55 88.0008 257 88.0008C256.45 88.0008 256 88.4508 256 89.0008ZM188.762 89.7078C190.006 89.9468 191.806 89.9378 192.762 89.6878C193.718 89.4378 192.7 89.2418 190.5 89.2528C188.3 89.2638 187.518 89.4688 188.762 89.7078ZM322.5 89.6588C320.85 89.8558 313.425 90.7478 306 91.6418C288.954 93.6938 269.064 93.6828 253.03 91.6118C239.434 89.8558 227.422 89.5098 226.593 90.8508C226.304 91.3178 231.124 91.9888 237.303 92.3418C243.482 92.6948 251.229 93.5398 254.519 94.2198C263.498 96.0768 297.189 95.7398 309.239 93.6718C314.596 92.7528 320.747 92.0008 322.907 92.0008C327.549 92.0008 330.206 91.1438 329.435 89.8958C328.884 89.0038 328.186 88.9798 322.5 89.6588ZM367 91.0008C367 91.5508 367.441 92.0008 367.981 92.0008C368.52 92.0008 369.244 93.1258 369.589 94.5008C369.934 95.8758 370.618 97.0008 371.108 97.0008C372.582 97.0008 372.113 93.2568 370.429 91.5718C368.646 89.7888 367 89.5148 367 91.0008ZM411.5 90.9348C409.963 91.6458 410.707 91.8768 414.71 91.9308C417.575 91.9688 424.441 92.7168 429.967 93.5918C438.245 94.9028 441.782 94.9908 450.047 94.0918C455.564 93.4918 462.086 93.0008 464.539 93.0008C466.993 93.0008 469 92.5508 469 92.0008C469 90.7698 456.066 90.7358 446.709 91.9418C442.763 92.4508 437.526 92.4408 434.209 91.9188C424.763 90.4328 413.627 89.9498 411.5 90.9348ZM173 93.5518C167.775 94.2878 157.736 94.9148 150.691 94.9458C143.646 94.9758 138.119 95.3838 138.408 95.8518C139.488 97.5998 159.221 98.0238 169 96.5088C174.225 95.6988 181.65 95.0218 185.5 95.0038C193.748 94.9638 197.108 93.6098 191.327 92.6548C186.4 91.8408 184.472 91.9348 173 93.5518ZM364.151 93.8718C365.913 96.6928 361.883 102.001 357.979 102.001C353.96 102.001 350.042 100.054 350.686 98.3768C350.976 97.6198 350.764 97.0008 350.214 97.0008C348.822 97.0008 348.03 99.4318 348.942 100.907C350.149 102.86 354.971 105.001 358.162 105.001C363.321 105.001 368.825 96.9048 365.989 93.4878C364.215 91.3498 362.765 91.6528 364.151 93.8718ZM120.252 97.5008C120.263 99.7008 120.468 100.483 120.707 99.2388C120.946 97.9948 120.937 96.1948 120.687 95.2388C120.437 94.2828 120.241 95.3008 120.252 97.5008ZM25 95.9618C5.005 96.8238 12.629 98.2308 39.557 98.6488C65.432 99.0498 73.363 97.7478 52.337 96.5498C45.399 96.1548 39.223 95.7398 38.611 95.6278C38 95.5158 31.875 95.6658 25 95.9618ZM98.589 95.8568C98.298 96.3278 95.821 96.4978 93.084 96.2348C87.252 95.6748 82.998 96.5338 83.005 98.2698C83.008 98.9468 84.032 100.778 85.281 102.339C87.056 104.558 88.201 105.094 90.526 104.795L93.5 104.413L90.5 102.977C84.771 100.236 85.004 98.0008 91.02 98.0008C94.963 98.0008 99 100.849 99 103.631C99 105.63 100.954 106.285 101.634 104.514C102.006 103.543 101.337 101.924 99.956 100.454C98.692 99.1088 98.001 97.6698 98.419 97.2548C98.837 96.8398 100.262 97.8508 101.585 99.5008L103.99 102.501L103.995 99.9508C104.002 96.1648 100.185 93.2738 98.589 95.8568ZM234.25 104.675C229.298 105.698 232.541 106.73 242.656 107.349C257.185 108.238 265.779 108.167 266.406 107.154C266.694 106.688 261.208 106.003 254.215 105.632C247.222 105.261 240.375 104.789 239 104.584C237.625 104.378 235.488 104.419 234.25 104.675ZM320.015 105.75C313.698 105.926 308.096 106.505 307.565 107.036C306.501 108.1 338.687 108.442 341.412 107.396C344.465 106.225 341.822 105.003 336.691 105.215C333.836 105.332 326.332 105.573 320.015 105.75ZM372 105.839C372 107.882 429.876 108.97 433 106.985C434.013 106.341 431.252 106.001 424.5 105.939C419 105.887 404.938 105.647 393.25 105.404C381.413 105.158 372 105.351 372 105.839ZM343 110.016C331.725 110.465 302.067 111.091 277.094 111.407C232.836 111.966 216.602 112.841 244.583 113.159C264.248 113.383 324.383 112.838 325.083 112.429C325.55 112.157 365.569 110.722 373.5 110.693C374.6 110.689 388.325 111.207 404 111.845C419.675 112.482 433.85 112.789 435.5 112.527C437.15 112.265 445.363 111.745 453.75 111.371C462.695 110.972 469 110.281 469 109.701C469 109.055 464.558 108.998 456.25 109.536C442.233 110.445 401.986 110.541 378.5 109.722C370.25 109.434 354.275 109.567 343 110.016ZM96 111.166C77.399 112.24 57.574 114.246 56.55 115.156C56.004 115.642 56.748 116.001 58.3 116.001C59.785 116.001 61 116.419 61 116.93C61 117.441 58.416 119.824 55.257 122.225C50.135 126.118 45.019 132.767 45.041 135.501C45.05 136.553 51.293 140.001 53.189 140.001C53.798 140.001 52.801 138.989 50.975 137.751C46.401 134.652 46.307 133.47 50.422 130.803C52.376 129.537 53.981 128.094 53.988 127.596C53.994 127.098 53.097 127.508 51.994 128.507C50.89 129.505 49.754 130.088 49.467 129.802C49.181 129.515 50.778 127.756 53.016 125.891C55.255 124.027 58.451 121.264 60.12 119.751C61.789 118.238 64.132 117.019 65.327 117.041C67.233 117.076 67.132 117.279 64.5 118.694C60.142 121.036 55 125.089 55 126.182C55 126.701 56.954 125.722 59.342 124.007C65.46 119.613 79.393 115.241 92.943 113.462C105.74 111.781 149.027 111.493 157.193 113.034C159.774 113.521 164.927 114.123 168.643 114.373C173.668 114.71 175.752 115.297 176.777 116.664C178.101 118.428 178.142 118.423 177.828 116.538C177.53 114.757 178.499 114.444 188.25 113.172C194.162 112.4 199 111.335 199 110.805C199 110.275 197.762 110.079 196.25 110.368C188.478 111.854 183.675 112.188 170.026 112.19C161.827 112.191 154.542 111.836 153.837 111.4C152.257 110.424 111.687 110.259 96 111.166ZM203.401 110.736C203.805 111.14 207.593 111.562 211.818 111.675C216.043 111.788 221.863 112.11 224.75 112.389C227.637 112.669 230 112.539 230 112.099C230 111.66 225.881 111.008 220.846 110.651C208.822 109.797 202.494 109.828 203.401 110.736ZM0.444 162.001C0.448 184.826 0.585 195.535 0.748 185.798L1.046 168.095L7.273 167.741L13.5 167.386L7.25 167.194L1 167.001V163.361C1 161.081 1.653 159.213 2.75 158.359C4.417 157.061 4.417 157.025 2.75 157.606C1.248 158.128 1 157.561 1 153.608C1 150.597 1.433 148.996 2.25 148.986C3.224 148.974 3.231 148.799 2.28 148.196C1.447 147.666 0.962 143.159 0.749 133.961C0.577 126.558 0.44 139.176 0.444 162.001ZM181.3 137.001C181.3 140.026 181.487 141.263 181.716 139.751C181.945 138.239 181.945 135.763 181.716 134.251C181.487 132.739 181.3 133.976 181.3 137.001ZM45.079 140.584C45.127 141.749 45.364 141.986 45.683 141.189C45.972 140.467 45.936 139.604 45.604 139.272C45.272 138.94 45.036 139.53 45.079 140.584ZM49 140.52C49 142.18 52.595 146.069 56.757 148.913L61.5 152.153L58 149.086C56.075 147.399 53.263 144.657 51.75 142.994C50.237 141.33 49 140.217 49 140.52ZM32.98 146.525C32.284 147.363 31.909 148.243 32.145 148.48C32.382 148.716 33.125 148.031 33.796 146.956C35.248 144.631 34.764 144.376 32.98 146.525ZM46.158 147.001C46.158 148.376 46.385 148.939 46.662 148.251C46.94 147.564 46.94 146.439 46.662 145.751C46.385 145.064 46.158 145.626 46.158 147.001ZM72.08 151.001C73.538 154.062 74 154.629 74 153.359C74 152.822 73.3 151.51 72.445 150.442C70.978 148.612 70.958 148.644 72.08 151.001ZM30.079 153.584C30.127 154.749 30.364 154.986 30.683 154.189C30.972 153.467 30.936 152.604 30.604 152.272C30.272 151.94 30.036 152.53 30.079 153.584ZM48.022 153.751C48.034 154.163 48.962 155.626 50.082 157.001L52.12 159.501L50.535 156.251C49.028 153.163 47.974 152.114 48.022 153.751ZM62.5 154.001C62.84 154.551 63.316 155.001 63.559 155.001C63.802 155.001 64 154.551 64 154.001C64 153.451 63.523 153.001 62.941 153.001C62.359 153.001 62.16 153.451 62.5 154.001ZM187 153.394C187 153.61 187.698 154.055 188.552 154.383C189.442 154.724 189.843 154.556 189.493 153.99C188.906 153.039 187 152.584 187 153.394ZM176.564 157.708C176.022 159.133 176.136 159.248 177.124 158.268C177.808 157.589 178.115 156.782 177.807 156.475C177.499 156.167 176.94 156.722 176.564 157.708ZM199.607 161.291C206.565 167.693 209.698 173.79 210.945 183.353C211.616 188.499 211.767 188.838 211.873 185.433C212.177 175.69 206.552 164.829 198.151 158.935C193.854 155.92 193.965 156.099 199.607 161.291ZM148 159.001C147.099 159.583 146.975 159.976 147.691 159.986C148.346 159.994 149.16 159.551 149.5 159.001C150.267 157.759 149.921 157.759 148 159.001ZM55.306 162.409C56.849 163.835 58.611 165.001 59.222 165.001C60.516 165.001 60.557 165.038 56 162.085L52.5 159.818L55.306 162.409ZM66 167.001C66.825 167.534 68.175 167.946 69 167.915C69.989 167.879 69.819 167.568 68.5 167.001C65.751 165.82 64.172 165.82 66 167.001ZM337.905 172.921C339.081 173.666 338.937 174.728 337.024 179.442C335.767 182.539 334.958 185.292 335.226 185.56C335.896 186.23 340 176.179 340 173.868C340 172.751 339.297 172.007 338.25 172.016C336.841 172.029 336.774 172.205 337.905 172.921ZM331 174.001C329.667 174.863 329.667 174.964 331 174.915C331.825 174.885 333.4 174.474 334.5 174.001L336.5 173.142L334.5 173.087C333.4 173.056 331.825 173.468 331 174.001ZM323.368 178.251C319.983 181.223 315.213 189.547 316.282 190.616C316.529 190.863 317.311 189.588 318.019 187.783C318.728 185.978 321.359 182.364 323.866 179.751C329.098 174.299 328.821 173.463 323.368 178.251ZM284.755 180.501C285.018 181.876 285.406 183.001 285.617 183.001C285.827 183.001 286 181.876 286 180.501C286 179.126 285.612 178.001 285.139 178.001C284.665 178.001 284.492 179.126 284.755 180.501ZM295 182.379C295 182.586 295.788 183.374 296.75 184.129C298.336 185.372 298.371 185.337 297.128 183.751C295.821 182.085 295 181.556 295 182.379ZM326.453 186.251L322.5 190.501L326.75 186.548C330.702 182.872 331.46 182.001 330.703 182.001C330.54 182.001 328.627 183.913 326.453 186.251ZM284.079 185.584C284.127 186.749 284.364 186.986 284.683 186.189C284.972 185.467 284.936 184.604 284.604 184.272C284.272 183.94 284.036 184.53 284.079 185.584ZM288.446 187.501C289.463 193.214 292.645 200.016 295.931 203.501C297.487 205.151 299.28 207.513 299.915 208.751C301.582 211.997 303.016 211.517 302.9 207.751C302.817 205.044 302.692 204.876 302.15 206.746C301.555 208.802 301.125 208.506 297.053 203.246C294.112 199.448 292.002 195.334 290.826 191.108C288.771 183.722 287.406 181.653 288.446 187.501ZM298 186.474C298 186.799 298.734 188.738 299.631 190.783C300.527 192.828 301.839 196.751 302.545 199.501C303.57 203.491 303.843 203.895 303.893 201.501C303.928 199.851 303.066 196.539 301.978 194.142C300.89 191.744 300 189.183 300 188.451C300 187.718 299.55 186.841 299 186.501C298.45 186.161 298 186.149 298 186.474ZM283.104 189.283C282.913 192.555 285.834 197.909 290.577 202.98C293.16 205.741 295.577 208.001 295.947 208.001C296.317 208.001 294.227 205.413 291.302 202.251C287.982 198.661 285.464 194.811 284.597 192.001C283.833 189.526 283.161 188.303 283.104 189.283ZM319.452 196.094C318.572 197.795 318.03 199.364 318.247 199.581C318.464 199.798 319.39 198.407 320.305 196.488C322.361 192.176 321.649 191.846 319.452 196.094ZM313.63 197.251C312.77 200.459 312.861 204.797 313.8 205.377C314.24 205.649 315.173 204.954 315.874 203.832C316.574 202.71 316.712 202.061 316.179 202.391C314.813 203.235 313.886 200.301 314.609 197.422C314.943 196.09 314.996 195.001 314.725 195.001C314.455 195.001 313.962 196.013 313.63 197.251ZM0.45 263.501C0.464 296.501 0.599 306.451 0.75 285.611L1.024 247.722L15.262 248.281C29.879 248.855 26.786 247.864 9.75 246.515L1 245.821V237.911C1 233.52 1.427 230.001 1.961 230.001C2.489 230.001 7.415 230.49 12.908 231.087C21.083 231.977 24.856 231.886 33.712 230.587C39.661 229.715 46.51 229.001 48.931 229.001C51.352 229.001 53.109 228.777 52.835 228.502C51.509 227.176 41.381 227.154 33.899 228.46C26.956 229.672 23.46 229.72 13.27 228.744C6.521 228.098 1 227.216 1 226.785C1 225.739 3.923 225.797 13.818 227.037C19.47 227.746 23.889 227.751 27.792 227.053C30.931 226.491 38.787 225.747 45.25 225.399C55.667 224.838 57 224.95 57 226.384C57 228.539 59.639 228.45 60.92 226.251C61.791 224.755 61.944 224.9 61.97 227.251C61.986 228.763 62.45 230.001 63 230.001C63.55 230.001 64 228.876 64 227.501C64 224.079 65.98 224.317 66.079 227.751C66.122 229.263 66.383 229.826 66.658 229.001C68.065 224.782 68.372 224.653 69.024 228.001L69.707 231.501L70.584 228.001L71.462 224.501L72.033 228.501L72.604 232.501L73.695 228.001L74.786 223.501L75.025 227.001L75.263 230.501L76 227.001C76.663 223.853 76.75 223.777 76.868 226.251C77.019 229.402 79 230.058 79 226.957C79 225.833 79.563 224.986 80.25 225.076C80.938 225.165 85.325 225.118 90 224.972L98.5 224.706L89.5 223.926C78.158 222.943 40.572 223.643 30.876 225.019C26.686 225.613 18.754 225.769 12.312 225.384L1.065 224.711L0.745 214.106C0.569 208.273 0.436 230.501 0.45 263.501ZM326.259 204.975C322.486 205.871 313.705 212.714 314.557 214.094C315.284 215.269 316.996 214.291 317.012 212.692C317.032 210.819 324.006 206.746 329.5 205.398C332.25 204.723 333.375 204.179 332 204.188C330.625 204.198 328.042 204.552 326.259 204.975ZM344 208.001C344.825 208.534 345.95 208.97 346.5 208.97C347.05 208.97 346.825 208.534 346 208.001C345.175 207.468 344.05 207.032 343.5 207.032C342.95 207.032 343.175 207.468 344 208.001ZM308.899 210.924C307.71 212.531 303.82 215.794 300.252 218.174C286.745 227.186 287.564 226.886 277.569 226.469C268.723 226.1 268.844 226.137 282.5 228.003C294.19 229.6 298.285 229.753 307.32 228.933C318.119 227.952 328 228.509 328 230.098C328 230.56 328.636 230.694 329.413 230.396C330.243 230.077 331.019 230.605 331.297 231.678C331.725 233.334 331.779 233.341 331.884 231.751C331.948 230.788 332.388 230.001 332.861 230.001C333.335 230.001 333.508 231.126 333.245 232.501C332.98 233.884 333.236 235.001 333.817 235.001C334.395 235.001 335.055 233.763 335.284 232.251C335.671 229.691 335.711 229.726 335.85 232.751C336.039 236.838 338 237.066 338 233.001C338 231.351 338.502 230.001 339.117 230.001C339.76 230.001 340.036 231.032 339.768 232.436C339.512 233.776 339.677 235.463 340.136 236.186C340.682 237.048 340.975 236.402 340.985 234.31C340.993 232.555 341.382 230.883 341.85 230.594C342.317 230.305 342.602 232.191 342.482 234.785C342.363 237.379 342.457 238.038 342.693 236.251C343.142 232.836 344.906 231.751 345.132 234.751C345.204 235.714 345.595 234.926 346 233.001L346.737 229.501L346.932 232.501C347.115 235.313 347.183 235.361 348.025 233.268C348.573 231.904 349.483 231.249 350.36 231.586C351.151 231.889 352.08 231.68 352.426 231.121C352.834 230.46 357.324 230.349 365.277 230.803C376.562 231.447 414.609 231.518 442 230.944C448.325 230.812 455.399 231.033 457.72 231.435C461.5 232.09 462.005 232.513 462.562 235.482C463.23 239.041 468.892 246.586 468.956 244.001C468.976 243.176 468.094 241.028 466.996 239.227C464.506 235.143 464.507 234.71 467 235.501C470.617 236.649 469.103 234.094 464.893 231.946C459.319 229.103 443.824 227.535 435.05 228.927C425.181 230.492 384.78 230.506 355.5 228.955C341.2 228.197 321.738 227.691 312.25 227.83C301.754 227.984 295 227.709 295 227.126C295 226.6 297.688 223.736 300.974 220.762C304.26 217.789 308.071 213.701 309.444 211.679C312.408 207.31 311.994 206.737 308.899 210.924ZM350 210.394C350 210.61 350.675 211.046 351.5 211.363C352.325 211.679 353 211.502 353 210.97C353 210.437 352.325 210.001 351.5 210.001C350.675 210.001 350 210.178 350 210.394ZM344.441 217.556C342.611 219.023 342.643 219.043 345 217.921C348.061 216.463 348.628 216.001 347.358 216.001C346.821 216.001 345.509 216.701 344.441 217.556ZM205.387 221.75C205.461 225.152 205.929 226.991 206.725 226.995C207.569 226.999 207.755 225.991 207.324 223.751C206.085 217.316 205.274 216.479 205.387 221.75ZM336.605 220.729C336.205 221.129 333.542 221.741 330.689 222.088L325.5 222.719L330.059 222.86C332.723 222.942 335.425 222.391 336.559 221.533C337.626 220.725 338.238 220.05 337.917 220.033C337.596 220.015 337.006 220.329 336.605 220.729ZM122 223.034C119.708 223.386 122.123 223.814 129 224.274C134.775 224.661 142.2 225.191 145.5 225.454L151.5 225.931L146.5 224.955C138.784 223.45 125.885 222.438 122 223.034ZM101.768 223.726C103.565 223.948 106.265 223.944 107.768 223.716C109.271 223.487 107.8 223.305 104.5 223.311C101.2 223.316 99.971 223.503 101.768 223.726ZM111.813 223.684C112.534 223.973 113.397 223.937 113.729 223.605C114.061 223.273 113.471 223.037 112.417 223.08C111.252 223.128 111.015 223.365 111.813 223.684ZM115.813 223.684C116.534 223.973 117.397 223.937 117.729 223.605C118.061 223.273 117.471 223.037 116.417 223.08C115.252 223.128 115.015 223.365 115.813 223.684ZM293 225.001C291.625 226.077 290.993 226.967 291.595 226.979C292.197 226.991 293.505 226.101 294.5 225.001C296.78 222.481 296.221 222.481 293 225.001ZM213.25 225.736C215.863 225.942 220.137 225.942 222.75 225.736C225.363 225.53 223.225 225.361 218 225.361C212.775 225.361 210.637 225.53 213.25 225.736ZM228.083 225.382C229.1 226.31 268 226.89 268 225.977C268 225.375 260.28 225.001 247.833 225.001C236.742 225.001 227.854 225.172 228.083 225.382ZM134.247 227.259C134.471 227.942 136.42 228.613 138.577 228.749C140.735 228.886 147.225 229.649 153 230.445C176.571 233.695 188.778 233.952 205.177 231.542C214.137 230.225 224.93 229.305 235.5 228.959C238.01 228.876 238.175 228.733 236.508 228.083C233.733 226.999 216.963 227.558 207.437 229.052C196.146 230.821 172.859 230.658 156.5 228.695C148.8 227.77 140.551 226.79 138.169 226.516C134.998 226.151 133.948 226.35 134.247 227.259ZM158 227.152C165.607 228.053 194.522 228.016 200 227.099C202.542 226.674 193.186 226.38 178.5 226.424C164.2 226.466 154.975 226.794 158 227.152ZM93 229.001C90.981 231.02 90.289 234.001 91.839 234.001C92.301 234.001 93.192 232.876 93.818 231.501C94.445 230.126 95.417 229.001 95.979 229.001C96.54 229.001 97 228.551 97 228.001C97 226.386 95.153 226.848 93 229.001ZM97.533 230.552C95.577 232.031 95.577 232.059 97.533 235.697C100.32 240.879 101.708 242.002 105.321 241.997C111.518 241.99 117.866 235.787 113.249 234.25C112.459 233.987 112.22 234.412 112.601 235.404C113.018 236.49 112.326 237.328 110.352 238.125C106.015 239.877 102.799 239.274 100.318 236.244C97.581 232.902 97.503 232.098 99.75 230.393C100.713 229.662 101.05 229.065 100.5 229.065C99.95 229.065 98.615 229.734 97.533 230.552ZM271.5 229.871C265.766 230.784 269.375 232 277.832 232.005C281.499 232.007 288.761 232.7 293.97 233.545C303.735 235.129 325 234.669 325 232.875C325 232.412 318.787 232.047 311.194 232.065C303.6 232.082 295.388 231.669 292.944 231.147C286.435 229.757 276.085 229.14 271.5 229.871ZM360.571 233.572C358.864 235.28 358.426 239.001 359.933 239.001C360.446 239.001 361.138 238.143 361.471 237.093C361.804 236.044 362.763 234.922 363.601 234.6C364.44 234.279 364.847 233.562 364.504 233.008C363.622 231.58 362.387 231.757 360.571 233.572ZM364.163 236.333C362.03 238.534 361.151 240.231 361.574 241.333C362.467 243.66 363.8 243.414 364.18 240.851C364.7 237.357 368.895 234.921 373.173 235.629C377.322 236.316 377.446 238.6 373.39 239.618C370.072 240.451 370.394 242.001 373.885 242.001C375.848 242.001 377.286 241.213 378.385 239.536C381.649 234.554 380.159 233.001 372.114 233.001C368.076 233.001 366.925 233.483 364.163 236.333ZM407.001 233.76C398.033 234.165 394.977 235.962 403.05 236.083C406.048 236.128 411.2 236.02 414.5 235.843C417.8 235.666 423.2 235.612 426.5 235.722C435.683 236.029 451.066 234.916 450.491 233.987C450.001 233.194 422.699 233.052 407.001 233.76ZM45.207 242.777C21.308 243.209 27.683 244.935 53.29 244.966C77.043 244.994 91 244.225 91 242.888C91 242.115 82.926 242.096 45.207 242.777ZM121.345 243.055C119.766 243.609 119.771 243.699 121.405 244.326C124.035 245.335 157.91 245.04 155.412 244.03C152.934 243.028 123.8 242.194 121.345 243.055ZM205.714 242.747C194.6 243.119 193.088 245.001 203.903 245.001C215.736 245.001 231.953 243.733 231.407 242.851C230.903 242.036 227.397 242.022 205.714 242.747ZM73.652 247.033C67.173 248.142 66.135 249.464 72.5 248.5C75.25 248.083 88.501 247.814 101.947 247.902C115.392 247.989 126.192 247.884 125.947 247.667C124.984 246.819 78.214 246.252 73.652 247.033ZM129 248.089C129 248.591 129.975 249.001 131.167 249.001C132.358 249.001 133.02 248.688 132.638 248.305C131.557 247.225 129 247.073 129 248.089ZM239 248.123C234.325 248.581 215.559 248.871 197.297 248.765C179.036 248.659 163.773 248.894 163.381 249.287C162.761 249.906 178.858 250.612 183 250.148C183.825 250.055 187.353 250.249 190.84 250.58L197.181 251.18L194.84 253.81C192.969 255.913 192.901 256.156 194.5 255.02C195.6 254.238 197.015 252.993 197.645 252.252C198.505 251.241 204.87 250.675 223.145 249.984C236.54 249.478 247.838 249.05 248.25 249.033C248.662 249.015 249 248.551 249 248.001C249 247.451 248.662 247.066 248.25 247.145C247.838 247.224 243.675 247.664 239 248.123ZM250.625 247.799C250.213 248.465 253.76 248.985 260.746 249.283C266.661 249.535 276.217 250.293 281.983 250.968C290.761 251.994 294.581 251.944 305.483 250.662C322.435 248.667 348.712 248.649 367.371 250.618C389.411 252.945 399.492 256.776 412.995 267.956L416.491 270.85L414.15 273.341C412.863 274.711 410.675 276.117 409.287 276.465C407.899 276.813 406.955 277.289 407.188 277.523C407.931 278.265 415 275.947 415 274.96C415 273.913 417.812 274.13 419.726 275.324C420.4 275.745 419.275 273.182 417.226 269.629C414.867 265.539 411.574 261.663 408.25 259.062C402.373 254.464 401.749 253.001 405.667 253.001C410.436 253.001 407.499 252.015 399.913 251.069C372.407 247.638 331.978 246.534 309 248.586C298.324 249.539 291.203 249.62 282 248.893C257.634 246.97 251.274 246.748 250.625 247.799ZM30 249.001C30 249.551 31.125 250.001 32.5 250.001C33.875 250.001 35 249.551 35 249.001C35 248.451 33.875 248.001 32.5 248.001C31.125 248.001 30 248.451 30 249.001ZM36 249.067C36 249.581 37.425 250.001 39.167 250.001C42.852 250.001 42.64 249.337 38.727 248.628C37.227 248.356 36 248.554 36 249.067ZM42.999 248.751C42.999 249.163 45.362 249.371 48.249 249.212C57.052 248.728 57.885 248.281 50.25 248.137C46.263 248.062 43 248.339 42.999 248.751ZM61.762 248.708C63.006 248.947 64.806 248.938 65.762 248.688C66.718 248.438 65.7 248.242 63.5 248.253C61.3 248.264 60.518 248.469 61.762 248.708ZM138 249.096C144.821 250.243 162.231 250.183 161.509 249.015C161.148 248.432 155.301 248.092 147.2 248.184C137.277 248.296 134.741 248.547 138 249.096ZM464.917 248.409C464.04 249.269 453.16 250.085 445.5 249.866C433.604 249.526 425.045 249.893 420 250.961C416.86 251.626 422.601 251.786 439 251.491C462.671 251.066 469 250.516 469 248.888C469 248.009 465.718 247.624 464.917 248.409ZM399.946 256.566C402.391 257.964 406.319 260.884 408.674 263.054C411.029 265.225 413.303 266.99 413.728 266.976C414.152 266.962 412.475 265.132 410 262.91C407.525 260.687 404.291 257.773 402.814 256.435C401.336 255.096 399.086 254.006 397.814 254.013C395.947 254.023 396.359 254.516 399.946 256.566ZM165.727 275.251C163.368 278.781 154.901 287.372 150.5 290.701C145.221 294.695 141.168 296.712 131.512 300.155C126.51 301.938 124.89 302.808 127.199 302.471C133.149 301.6 144.939 296.292 150.57 291.947C156.477 287.39 165.103 278.546 166.88 275.225C168.426 272.337 167.662 272.354 165.727 275.251ZM69.708 286.342C63.451 292.994 57.117 297.688 50 300.945C47.525 302.078 46.625 302.721 48 302.374C56.601 300.207 70.533 289.459 75.38 281.251C76.631 279.133 75.709 279.96 69.708 286.342ZM407 284.694L402.5 289.321L406.596 286.199C411.129 282.744 413.715 279.983 412.372 280.034C411.893 280.052 409.475 282.149 407 284.694ZM416.473 284.179C414.806 291.901 409.599 298.89 403.5 301.593C401.85 302.324 401.221 302.94 402.102 302.962C404.687 303.025 410.207 298.789 413.144 294.488C415.728 290.704 418.604 282.272 417.64 281.308C417.393 281.06 416.868 282.353 416.473 284.179ZM429.064 282.501C429.064 283.051 429.724 284.375 430.532 285.442C431.339 286.51 432 286.933 432 286.383C432 285.833 431.339 284.51 430.532 283.442C429.724 282.375 429.064 281.951 429.064 282.501ZM441.762 283.708C443.006 283.947 444.806 283.938 445.762 283.688C446.718 283.438 445.7 283.242 443.5 283.253C441.3 283.264 440.518 283.469 441.762 283.708ZM458.083 284.359C459.584 285.65 469 289.771 469 289.137C469 288.193 460.816 284.001 458.974 284.001C458.255 284.001 457.854 284.162 458.083 284.359ZM459.733 295.125C460.412 295.809 461.219 296.116 461.526 295.808C461.834 295.5 461.279 294.941 460.293 294.565C458.868 294.023 458.753 294.137 459.733 295.125ZM387.079 299.584C387.127 300.749 387.364 300.986 387.683 300.189C387.972 299.467 387.936 298.604 387.604 298.272C387.272 297.94 387.036 298.53 387.079 299.584ZM441.733 301.125C442.412 301.809 443.219 302.116 443.526 301.808C443.834 301.5 443.279 300.941 442.293 300.565C440.868 300.023 440.753 300.137 441.733 301.125ZM465 303.196C463.075 303.754 458.238 304.006 454.25 303.756C450.262 303.506 447 303.441 447 303.613C447 303.784 448.853 304.423 451.117 305.032C454.201 305.863 456.959 305.832 462.117 304.911C465.903 304.234 469 303.303 469 302.841C469 302.379 468.887 302.042 468.75 302.091C468.613 302.141 466.925 302.638 465 303.196ZM114.762 303.708C116.006 303.947 117.806 303.938 118.762 303.688C119.718 303.438 118.7 303.242 116.5 303.253C114.3 303.264 113.518 303.469 114.762 303.708ZM395.25 304.032C391.787 305.424 392.585 306.037 396.25 304.801C398.038 304.197 399.688 303.546 399.917 303.353C400.73 302.666 397.465 303.142 395.25 304.032ZM33.5 305.518L29.5 306.882L33.5 306.299C35.7 305.979 38.4 305.359 39.5 304.922L41.5 304.128L39.5 304.141C38.4 304.149 35.7 304.768 33.5 305.518ZM22.813 306.684C23.534 306.973 24.397 306.937 24.729 306.605C25.061 306.273 24.471 306.037 23.417 306.08C22.252 306.128 22.015 306.365 22.813 306.684ZM389.507 306.99C389.157 307.556 389.558 307.724 390.448 307.383C392.18 306.718 392.497 306.001 391.059 306.001C390.541 306.001 389.843 306.446 389.507 306.99ZM120.495 315.251C120.842 316.489 121.538 318.401 122.042 319.501C122.546 320.601 123.431 322.801 124.007 324.39C124.584 325.978 125.285 327.049 125.565 326.77C125.844 326.49 125.136 323.882 123.99 320.975C122.844 318.067 122.138 315.084 122.422 314.345C122.715 313.579 122.276 313.001 121.401 313.001C120.288 313.001 120.039 313.621 120.495 315.251ZM125 314.462C125 314.716 126.841 315.42 129.091 316.025C133.574 317.233 141.979 324.279 142.035 326.878C142.069 328.401 144.888 334.198 144.965 332.9C145.069 331.126 142.339 325.065 140.096 322.095C137.059 318.072 125 311.975 125 314.462ZM175.232 322.001C175.232 323.926 175.438 324.713 175.689 323.751C175.941 322.789 175.941 321.213 175.689 320.251C175.438 319.289 175.232 320.076 175.232 322.001ZM163.589 325.078C162.165 326.77 160.985 328.682 160.966 329.328C160.947 329.973 160.063 332.301 159 334.501C156.957 338.732 156.626 342.104 157.648 348.289C158.249 351.923 159.889 352.834 160.817 350.049C161.068 349.298 160.797 349.008 160.194 349.381C159.53 349.792 158.872 348.332 158.448 345.504C157.69 340.45 160.399 331.64 164.625 325.412C167.505 321.169 167.012 321.01 163.589 325.078ZM0.413 341.501C0.414 351.401 0.564 355.316 0.746 350.2C0.928 345.085 0.927 336.985 0.744 332.2C0.561 327.416 0.412 331.601 0.413 341.501ZM131 324.314C131 324.486 132.463 325.949 134.25 327.564L137.5 330.501L134.563 327.251C131.825 324.222 131 323.541 131 324.314ZM170.518 330.737C169.368 335.093 167.294 339.459 164.693 343.001C162.471 346.026 161.597 347.675 162.75 346.665C166.674 343.229 169.915 337.514 171.539 331.164C172.431 327.679 172.968 324.635 172.732 324.4C172.497 324.165 171.501 327.016 170.518 330.737ZM176 330.831C176 335.356 175.541 336.521 172.293 340.248C166.273 347.155 165.293 348.732 169.337 345.001C174.679 340.074 177.115 335.72 177.181 330.984C177.212 328.74 176.959 326.626 176.619 326.286C176.278 325.946 176 327.991 176 330.831ZM146.475 338.61C147.177 341.204 146.139 344.205 144.821 343.391C144.288 343.061 144.448 343.751 145.176 344.924C146.457 346.987 146.527 346.944 147.335 343.591C147.877 341.34 147.772 339.491 147.037 338.313C146.006 336.663 145.955 336.689 146.475 338.61ZM141.564 339.294C141.94 340.28 142.499 340.835 142.807 340.527C143.115 340.22 142.808 339.413 142.124 338.734C141.136 337.754 141.022 337.869 141.564 339.294ZM130.497 346.177C136.308 347.285 143.662 351.6 144.373 354.319C144.687 355.522 145.318 355.923 146.117 355.428C146.997 354.885 146.05 353.513 142.935 350.817C138.3 346.806 133.57 344.939 128.5 345.118C126.303 345.196 126.838 345.48 130.497 346.177ZM111.755 349.847C109.695 350.757 108.008 351.816 108.005 352.202C108 352.914 115.478 349.857 116.678 348.656C117.737 347.598 115.772 348.073 111.755 349.847ZM149 349.379C149 349.586 149.787 350.374 150.75 351.129C152.336 352.372 152.371 352.337 151.128 350.751C149.821 349.085 149 348.556 149 349.379ZM152.889 354.732C153.528 355.959 155.085 357.534 156.35 358.232C158.686 359.521 166 367.214 166 368.383C166 368.734 158.012 368.919 148.25 368.793C138.488 368.667 118.575 369.19 104 369.955C73.901 371.535 37.117 371.511 26 369.904C21.106 369.197 15.476 369.128 9.796 369.705L1.093 370.589L0.727 366.045C0.525 363.546 0.375 373.201 0.393 387.501C0.41 401.801 0.569 408.718 0.745 402.873L1.065 392.245L12.033 392.764C19.888 393.137 23 392.96 23 392.143C23 391.375 20.132 390.997 14.25 390.987C0.577 390.966 1 391.272 1 381.403C1 373.555 1.139 373.006 3.25 372.503C6.293 371.777 22.027 371.429 29.853 371.913C40.657 372.582 34.076 374.308 21.33 374.149C15.099 374.071 10 374.381 10 374.837C10 375.939 8.937 375.875 37.75 376.509C54.788 376.883 63 376.728 63 376.032C63 375.452 60.659 375.001 57.651 375.001C51.467 375.001 36.817 373.85 37.268 373.4C37.435 373.232 50.831 372.811 67.036 372.463C83.241 372.116 99.088 371.685 102.25 371.506C105.412 371.327 108 371.55 108 372.002C108 372.454 108.787 372.701 109.75 372.551C110.713 372.4 112.047 373.228 112.715 374.389C113.874 376.405 113.937 376.365 114.096 373.501C114.263 370.506 114.264 370.506 115 374.001L115.737 377.501L115.977 374.001C116.192 370.884 116.365 371.157 117.564 376.501L118.909 382.501L118.512 376.609C118.112 370.676 119.465 369.825 120.273 375.501C120.659 378.207 120.715 378.134 120.85 374.751C121.029 370.283 123 369.649 123 374.06C123 376.02 123.393 376.876 124.094 376.443C124.696 376.071 124.986 374.708 124.739 373.414C124.491 372.12 124.674 371.299 125.144 371.59C125.615 371.881 126 372.992 126 374.06C126 375.128 126.502 376.001 127.117 376.001C127.768 376.001 128.034 374.96 127.755 373.501C127.219 370.693 128.599 370.028 129.311 372.751C129.734 374.371 129.777 374.373 129.884 372.782C129.958 371.686 130.543 371.272 131.5 371.639C132.325 371.956 133 371.737 133 371.153C133 369.25 139.745 368.763 152.241 369.763C164.032 370.706 167.598 370.5 189 367.634C190.925 367.376 188.637 367.299 183.915 367.462C174.09 367.802 171.764 367.065 163.939 361.133C160.948 358.865 158.079 357.008 157.564 357.005C157.05 357.003 155.526 355.989 154.179 354.751L151.729 352.501L152.889 354.732ZM128.762 363.708C130.006 363.947 131.806 363.938 132.762 363.688C133.718 363.438 132.7 363.242 130.5 363.253C128.3 363.264 127.518 363.469 128.762 363.708ZM329.5 363.694C327.85 363.895 320.875 364.783 314 365.668C301.657 367.257 259.178 367.827 254.876 366.462C253.844 366.134 253 366.279 253 366.784C253 369.239 288.438 369.652 308 367.424C315.425 366.578 326.788 365.626 333.25 365.307C339.712 364.988 345 364.448 345 364.108C345 363.418 334.158 363.128 329.5 363.694ZM349.5 363.895C346.368 364.625 363.381 365.987 375.75 365.996C381.332 366.001 382 366.215 382 368.001C382 369.334 382.667 370.001 384 370.001C385.111 370.001 386 369.334 386 368.501C386 367.676 385.523 367.001 384.941 367.001C384.359 367.001 384.16 366.551 384.5 366.001C385.738 363.998 386.762 365.093 387.542 369.251L388.339 373.501L389.028 369.501C389.558 366.422 389.749 366.134 389.858 368.251C390.042 371.808 392 371.854 392 368.301C392 365.358 393.477 366.133 394.287 369.501C394.732 371.351 394.777 371.336 394.884 369.31C395.053 366.118 397 365.374 397 368.501C397 371.642 398.968 370.872 399.07 367.692C399.138 365.58 399.171 365.573 400 367.501C400.599 368.894 400.902 369.046 401 368.001C401.098 366.953 401.403 367.104 402.012 368.501C402.847 370.416 402.914 370.4 403.596 368.106L404.309 365.71L415.905 366.35C422.282 366.702 430.2 367.44 433.5 367.988C437.553 368.663 442.234 368.648 447.926 367.944C455.862 366.962 466.553 367.468 467.418 368.868C467.633 369.216 463.239 369.515 457.655 369.531C452.07 369.548 444.125 369.747 440 369.975C435.875 370.202 428.618 369.791 423.873 369.06C418.431 368.223 413.816 368.04 411.373 368.566C407.704 369.355 407.896 369.435 415 370.075C419.125 370.447 425.875 371.277 430 371.919C435.77 372.818 440.386 372.808 450.009 371.875C456.889 371.209 463.751 370.973 465.259 371.351C467.941 372.024 468 372.199 468 379.52V387.001L459.25 387.021C454.438 387.032 447.35 387.507 443.5 388.077C435.241 389.3 413.373 389.427 396.5 388.349C382.766 387.472 354.207 387.524 333 388.464C310.165 389.477 228.064 389.591 211.475 388.633C200.687 388.011 194.834 388.101 190.723 388.955C183.884 390.375 157.531 390.513 147 389.185C133.24 387.449 93.629 388.596 64.06 391.586C49.196 393.09 45.147 394.001 53.333 394.001C55.9 394.001 58 394.413 58 394.917C58 395.421 56.087 397.289 53.75 399.068C46.021 404.952 40.663 413.064 42.977 415.378C43.674 416.075 44.01 415.939 44.03 414.951C44.055 413.793 44.251 413.826 45.003 415.113C45.983 416.789 54.625 419.709 55.631 418.703C55.946 418.388 54.621 417.833 52.687 417.47C48.214 416.631 44.208 412.66 45.845 410.688C46.471 409.934 46.752 409.087 46.471 408.805C46.189 408.524 48.106 406.401 50.73 404.089C53.353 401.777 56.741 398.754 58.259 397.371C59.776 395.989 61.798 395.008 62.752 395.192C63.985 395.429 63.186 396.315 59.993 398.253C55.563 400.942 46.121 409.001 47.401 409.001C47.763 409.001 50.377 407.169 53.21 404.929C56.043 402.69 59.968 400.054 61.931 399.072C66.384 396.844 78.188 393.278 83.5 392.556C85.7 392.257 89.075 391.752 91 391.434C99.542 390.022 142.807 390.046 156 391.47C168.577 392.827 181.431 392.495 190.782 390.573C195.468 389.609 232.324 390.136 252.547 391.456C259.028 391.879 323.14 390.556 352 389.404C373.081 388.562 367.057 388.496 400 389.928C422.328 390.899 439.948 390.705 445.25 389.431C445.663 389.332 451.175 389.195 457.5 389.126L469 389.001V377.751V366.501L466.25 366.349C463.786 366.212 456.816 366.221 440 366.38C436.975 366.408 429.1 365.897 422.5 365.244C415.9 364.59 402.4 364.073 392.5 364.093C366.004 364.148 359.882 364.066 356 363.608C354.075 363.381 351.15 363.51 349.5 363.895ZM166.733 366.125C167.412 366.809 168.219 367.116 168.526 366.808C168.834 366.5 168.279 365.941 167.293 365.565C165.868 365.023 165.753 365.137 166.733 366.125ZM193 366.845C193 367.652 245.053 367.208 245.917 366.394C246.146 366.178 234.333 366.001 219.667 366.001C205 366.001 193 366.381 193 366.845ZM248.269 366.694C249.242 366.948 250.592 366.931 251.269 366.657C251.946 366.383 251.15 366.176 249.5 366.196C247.85 366.216 247.296 366.44 248.269 366.694ZM316 368.018C312.425 368.421 305.585 369.267 300.8 369.898C289.743 371.356 270.117 371.7 258.5 370.641C251.854 370.035 249.783 370.114 250.582 370.942C253.826 374.307 289.892 374.648 307.5 371.48C311.9 370.688 317.376 370.031 319.668 370.021C324.34 369.999 327 369.227 327 367.894C327 366.914 325.655 366.929 316 368.018ZM223.676 368.716C223.288 369.344 227.707 369.97 235.642 370.411C247.413 371.065 250.186 370.853 248.743 369.41C247.648 368.316 224.323 367.67 223.676 368.716ZM365.193 369.751C366.02 370.713 366.975 372.289 367.317 373.251C368.033 375.272 370 375.618 370 373.724C370 371.634 367.009 368.001 365.288 368.001C363.86 368.001 363.85 368.187 365.193 369.751ZM171 371.529C166.325 372.242 156.537 372.865 149.25 372.914C141.963 372.962 136 373.383 136 373.849C136 375.582 156.33 376.003 166.474 374.48C171.892 373.667 179.515 372.994 183.413 372.986C192.407 372.966 195.118 371.534 187.82 370.657C181.5 369.898 181.781 369.884 171 371.529ZM361.25 371.393C363.483 373.088 363.453 373.469 360.812 377.041C358.456 380.228 355.291 380.823 350.463 378.987C348.631 378.29 347.985 377.482 348.399 376.404C348.78 375.412 348.541 374.987 347.751 375.25C343.105 376.797 349.494 382.99 355.744 382.997C358.4 383 359.532 382.249 361.994 378.851C363.647 376.568 365 374.256 365 373.711C365 372.545 361.939 370.065 360.5 370.065C359.95 370.065 360.288 370.662 361.25 371.393ZM96.5 374.001C96.16 374.551 96.368 375.001 96.962 375.001C97.557 375.001 98.549 376.112 99.168 377.47C100.311 379.979 102 380.005 102 377.513C102 375.991 99.341 373.001 97.988 373.001C97.509 373.001 96.84 373.451 96.5 374.001ZM82.25 374.663C78.808 376.052 82.863 383.001 87.115 383.001C90.623 383.001 90.93 381.273 87.572 380.43C83.373 379.376 83.681 377.231 88.139 376.477C91.499 375.91 92.552 376.171 94.578 378.074C95.91 379.326 97 380.946 97 381.675C97 382.404 97.45 383.001 98 383.001C99.991 383.001 98.937 379.315 96.195 376.688C93.889 374.479 92.511 374.015 88.445 374.08C85.725 374.123 82.938 374.386 82.25 374.663ZM231.01 382.855C229.639 383.258 228.995 383.88 229.577 384.24C231.461 385.404 263.651 386.375 264.323 385.288C264.716 384.651 260.31 384.051 252.221 383.64C245.224 383.284 238.15 382.798 236.5 382.559C234.85 382.32 232.38 382.453 231.01 382.855ZM317.314 383.907C310.612 384.255 304.799 384.869 304.397 385.27C303.359 386.308 338.215 386.151 339.857 385.111C342.943 383.155 337.451 382.862 317.314 383.907ZM370 383.878C370 385.903 429.28 386.975 430.517 384.973C430.893 384.366 426.498 383.964 418.809 383.901C412.039 383.846 398.288 383.631 388.25 383.422C378.212 383.213 370 383.418 370 383.878ZM29 390.847C29 392.057 32.729 392.768 41.75 393.276C50.372 393.762 49.641 392.441 40.835 391.622C36.895 391.256 32.62 390.693 31.335 390.37C29.985 390.031 29 390.233 29 390.847ZM0.175 421.79C0.027 427.115 0.213 427.882 1.389 426.79C2.153 426.081 2.409 425.269 1.958 424.985C1.507 424.701 0.96 422.451 0.744 419.985C0.409 416.182 0.323 416.456 0.175 421.79ZM48.208 421.187C49.006 422.39 51.648 424.954 54.08 426.887C58.384 430.307 58.356 430.25 53.034 424.7C47.219 418.637 45.855 417.644 48.208 421.187ZM30.388 424.532C29.475 425.924 28.926 427.261 29.167 427.501C29.408 427.742 30.394 426.603 31.359 424.97C33.495 421.355 32.703 420.998 30.388 424.532ZM43.079 423.584C43.127 424.749 43.364 424.986 43.683 424.189C43.972 423.467 43.936 422.604 43.604 422.272C43.272 421.94 43.036 422.53 43.079 423.584ZM15.762 424.708C17.006 424.947 18.806 424.938 19.762 424.688C20.718 424.438 19.7 424.242 17.5 424.253C15.3 424.264 14.518 424.469 15.762 424.708ZM44.461 428.501C45.757 434.742 54.479 444.079 58.898 443.957C59.779 443.932 58.925 443.071 57 442.042C51.84 439.285 49.068 436.321 46.306 430.607C44.555 426.984 44.019 426.372 44.461 428.501ZM69 428.001C69.589 429.101 70.295 430.001 70.57 430.001C70.845 430.001 70.589 429.101 70 428.001C69.411 426.901 68.705 426.001 68.43 426.001C68.155 426.001 68.411 426.901 69 428.001ZM59 430.379C59 430.586 59.788 431.374 60.75 432.129C62.336 433.372 62.371 433.337 61.128 431.751C59.821 430.085 59 429.556 59 430.379ZM0.209 448.084C0.343 459.204 0.537 461.94 0.747 455.652C1.071 445.928 1.104 445.81 3.385 446.383C4.655 446.702 7.676 446.363 10.097 445.63L14.5 444.298L7.735 444.788L0.97 445.277L1.115 438.602C1.194 434.931 0.976 431.644 0.63 431.297C0.283 430.951 0.094 438.505 0.209 448.084ZM64 436.001C64.589 437.101 65.295 438.001 65.57 438.001C65.845 438.001 65.589 437.101 65 436.001C64.411 434.901 63.705 434.001 63.43 434.001C63.155 434.001 63.411 434.901 64 436.001ZM25.459 436.068C25.096 436.654 25.014 437.349 25.276 437.611C25.538 437.873 26.019 437.393 26.345 436.544C27.021 434.782 26.445 434.472 25.459 436.068ZM21 440.001C20.099 440.583 19.975 440.976 20.691 440.986C21.346 440.994 22.16 440.551 22.5 440.001C23.267 438.759 22.921 438.759 21 440.001ZM73.158 441.001C73.158 442.376 73.385 442.939 73.662 442.251C73.94 441.564 73.94 440.439 73.662 439.751C73.385 439.064 73.158 439.626 73.158 441.001ZM62.5 445.001C63.6 445.474 65.175 445.86 66 445.86C66.945 445.86 66.761 445.543 65.5 445.001C64.4 444.528 62.825 444.142 62 444.142C61.055 444.142 61.239 444.459 62.5 445.001ZM74.079 445.584C74.127 446.749 74.364 446.986 74.683 446.189C74.972 445.467 74.936 444.604 74.604 444.272C74.272 443.94 74.036 444.53 74.079 445.584ZM69 447.394C69 447.61 69.698 448.055 70.552 448.383C71.442 448.724 71.843 448.556 71.493 447.99C70.906 447.039 69 446.584 69 447.394ZM468.286 453.501C468.294 456.251 468.488 457.257 468.718 455.737C468.947 454.217 468.941 451.967 468.704 450.737C468.467 449.507 468.279 450.751 468.286 453.501ZM334.61 451.428C334.912 452.213 334.222 454.97 333.079 457.555C331.936 460.14 331.019 462.986 331.042 463.878C331.099 466.064 336 454.155 336 451.831C336 450.825 335.564 450.001 335.031 450.001C334.499 450.001 334.309 450.643 334.61 451.428ZM327.105 452.086C323.13 453.676 325.376 454.118 329.587 452.575C331.783 451.771 332.622 451.139 331.5 451.135C330.4 451.131 328.422 451.559 327.105 452.086ZM319.155 456.524C315.871 459.287 311.566 467.245 312.274 469.244C312.518 469.935 313.307 468.577 314.025 466.225C314.855 463.51 316.905 460.5 319.644 457.975C324.364 453.624 323.975 452.468 319.155 456.524ZM281.158 458.001C281.158 459.376 281.385 459.939 281.662 459.251C281.94 458.564 281.94 457.439 281.662 456.751C281.385 456.064 281.158 456.626 281.158 458.001ZM292.384 462.199C294.732 466.174 299.001 477.91 298.994 480.37C298.99 481.542 298.359 483.707 297.59 485.18C296.265 487.719 296.426 489.001 298.068 489.001C298.473 489.001 299.112 486.342 299.489 483.093C300.05 478.259 299.796 476.327 298.088 472.466C296.939 469.87 295.998 467.241 295.995 466.624C295.992 466.006 294.82 464.151 293.39 462.501C290.939 459.672 290.882 459.655 292.384 462.199ZM322.946 463.751L319.5 467.501L323.25 464.055C326.74 460.847 327.46 460.001 326.696 460.001C326.529 460.001 324.842 461.689 322.946 463.751ZM279.576 465.448C278.684 470.204 281.075 475.466 286.759 481.251C293.315 487.925 293.714 487.183 287.296 480.251C281.678 474.183 279.722 469.643 280.673 464.884C280.991 463.298 281.019 462.001 280.736 462.001C280.454 462.001 279.932 463.552 279.576 465.448ZM284.454 465.501C285.62 471.991 288.879 478.501 292.771 482.119L296.409 485.501L292.536 480.627C290.053 477.503 288.013 473.412 286.855 469.234C284.781 461.754 283.392 459.595 284.454 465.501ZM468.141 488.839C468.15 502.225 467.954 513.38 467.707 513.628C467.459 513.875 465.061 512.727 462.378 511.076C455.387 506.774 446.848 505.961 424.5 507.47C418.45 507.878 402.7 508.269 389.5 508.338C372.314 508.429 367.203 508.698 371.5 509.286C374.8 509.737 390.1 509.816 405.5 509.46C453.517 508.351 456.807 508.606 458.504 513.566C460.094 518.215 463.274 522.953 465.216 523.57C468.342 524.562 467.146 525.751 462.25 526.519C452.192 528.098 450.308 528.192 431.5 528.057C425.45 528.014 418.025 528.386 415 528.883C410.232 529.668 442.131 529.55 462.5 528.708L467.5 528.501L467.593 547.501C467.645 557.951 467.527 566.804 467.332 567.174C467.137 567.544 465.07 566.804 462.738 565.529C460.407 564.253 457.375 562.928 456 562.583C454.625 562.239 455.707 563.085 458.404 564.463C465.934 568.312 467 569.628 467 575.073C467 577.946 466.504 580.034 465.75 580.339C464.75 580.742 464.75 580.859 465.75 580.922C466.665 580.98 467 583.793 467 591.418C467 598.773 467.367 602.006 468.25 602.418C469.25 602.884 469.25 603.118 468.25 603.584C467.321 604.018 467 608.58 466.998 621.334L466.996 638.501H447.748C437.162 638.501 427.844 638.079 427.042 637.563C425.313 636.451 361.649 636.05 362.757 637.158C363.172 637.573 367.671 637.988 372.756 638.08C381.665 638.243 382 638.332 382 640.531C382 642.321 382.431 642.701 384 642.291C386.017 641.763 386.857 639.001 385 639.001C384.45 639.001 384 638.551 384 638.001C384 637.451 384.617 637.001 385.372 637.001C386.195 637.001 387.064 638.703 387.542 641.251L388.339 645.501L389.028 641.501C389.54 638.525 389.753 638.19 389.858 640.192C390.067 644.153 392 644.756 392 640.86C392 637.457 393.409 637.852 394.287 641.501C394.732 643.351 394.777 643.336 394.884 641.31C395.051 638.158 397 637.358 397 640.442C397 643.905 398.982 643.722 399.07 640.251C399.133 637.814 399.238 637.729 400 639.501C400.599 640.894 400.902 641.046 401 640.001C401.098 638.953 401.403 639.104 402.012 640.501C402.848 642.421 402.912 642.406 403.59 640.13C404.292 637.775 404.366 637.763 414.898 638.395C420.729 638.745 428.425 639.513 432 640.102C436.157 640.787 441.924 640.871 448 640.337C453.225 639.877 459.525 639.771 462 640.101L466.5 640.701L461.5 640.845C458.75 640.925 451.902 641.522 446.282 642.172C437.469 643.191 434.858 643.122 427.282 641.666C419.338 640.139 409.639 640.029 408.22 641.448C407.916 641.752 410.104 642.001 413.083 642C416.063 642 422.306 642.755 426.957 643.678C434.32 645.14 436.971 645.204 447.457 644.171C463.953 642.546 465.977 642.609 466.101 644.751C466.156 645.713 466.269 649.39 466.351 652.92L466.5 659.34L461.5 659.218C458.75 659.151 449.75 659.764 441.5 660.58C428.757 661.84 423.19 661.875 404.5 660.817C383.049 659.602 348.072 659.496 333 660.6C316.126 661.837 227.739 662.576 225.991 661.495C223.855 660.175 195.152 660.2 188 661.529C178.87 663.224 165.56 663.36 153.5 661.88C142.658 660.55 102.974 660.592 87 661.95C58.705 664.355 48.611 665.508 53.25 665.806C55.863 665.973 58 666.468 58 666.906C58 667.343 55.332 670.021 52.072 672.857C48.618 675.861 44.884 680.339 43.126 683.585C41.425 686.726 40.806 688.577 41.708 687.828C42.588 687.098 43.351 686.509 43.404 686.519C43.457 686.529 44.613 687.317 45.973 688.269C49.839 690.978 51.507 690.298 48.077 687.412C46.385 685.988 45 684.521 45 684.152C45 683.198 57.847 673.587 61.834 671.559C68.583 668.125 79.783 665.179 90.379 664.049C104.647 662.528 144.796 662.494 157.588 663.993C165.577 664.928 170.363 664.902 180.588 663.864C187.69 663.144 198.9 662.601 205.5 662.657C212.1 662.714 237.999 662.939 263.053 663.157C288.108 663.375 313.533 663.251 319.553 662.882C332.876 662.063 367.8 660.742 374 660.822C376.475 660.854 386.15 661.279 395.5 661.766C414.844 662.773 433.309 662.693 453.25 661.514L467 660.701L467.115 663.601C467.178 665.196 467.146 667.315 467.042 668.311C466.939 669.306 467.392 670.768 468.049 671.561C468.897 672.582 468.919 673.001 468.122 673.001C467.376 673.001 467 675.998 467 681.944V690.886L462.75 691.269L458.5 691.652L462.75 691.826L467 692.001V699.918C467 705.314 467.398 707.996 468.25 708.342C469.235 708.741 469.239 709.034 468.272 709.72C467.391 710.346 466.968 716.078 466.772 730.046L466.5 749.501L461.5 749.451C458.75 749.423 405.65 749.083 343.5 748.695C186.002 747.712 109.654 747.104 51.298 746.369C6.226 745.801 1.052 745.572 0.664 744.119C0.426 743.229 0.18 743.738 0.116 745.251L0 748.001L9.25 748.077C14.338 748.118 39.65 748.328 65.5 748.542C91.35 748.757 166.5 749.212 232.5 749.554C298.5 749.896 357.675 750.338 364 750.536C370.325 750.735 396.087 750.92 421.25 750.949L467 751.001V764.001C467 771.151 467.405 777.001 467.899 777.001C468.394 777.001 468.998 769.238 469.242 759.751C470.075 727.297 469.851 468.772 468.987 466.635C468.47 465.355 468.131 474.24 468.141 488.839ZM315 475.001C313.878 477.201 313.184 479.001 313.459 479.001C313.734 479.001 314.878 477.201 316 475.001C317.122 472.801 317.816 471.001 317.541 471.001C317.266 471.001 316.122 472.801 315 475.001ZM309.421 476.458C309.082 477.809 309.188 480.064 309.656 481.468C310.504 484.013 310.511 484.014 311.827 481.906C312.553 480.743 312.697 480.07 312.146 480.411C310.868 481.201 309.755 477.802 310.584 475.642C310.931 474.739 310.949 474.001 310.626 474.001C310.303 474.001 309.761 475.107 309.421 476.458ZM321.885 483.381C315.642 485.612 308.879 491.19 310.901 492.44C311.45 492.779 312.371 492.176 312.948 491.099C314.578 488.053 319.282 485.15 325.146 483.573C328.141 482.767 329.398 482.123 328 482.111C326.625 482.099 323.873 482.67 321.885 483.381ZM341 486.501C342.375 487.287 343.95 487.93 344.5 487.93C345.05 487.93 344.375 487.287 343 486.501C341.625 485.715 340.05 485.072 339.5 485.072C338.95 485.072 339.625 485.715 341 486.501ZM305.872 487.751C304.629 489.337 304.664 489.372 306.25 488.129C307.916 486.822 308.445 486.001 307.622 486.001C307.415 486.001 306.627 486.789 305.872 487.751ZM346 488.394C346 488.61 346.675 489.046 347.5 489.363C348.325 489.679 349 489.502 349 488.97C349 488.437 348.325 488.001 347.5 488.001C346.675 488.001 346 488.178 346 488.394ZM302.5 492.001C301.505 493.101 300.197 494.031 299.595 494.067C298.993 494.104 296.475 495.671 294 497.55C284.502 504.76 283.554 505.023 270.874 503.974C264.618 503.457 251.4 503.099 241.5 503.179L223.5 503.325L245 504.154C256.825 504.609 272.575 505.656 280 506.48C290.446 507.639 295.763 507.75 303.5 506.97C313.609 505.952 324 506.517 324 508.085C324 508.554 324.749 508.651 325.664 508.3C326.735 507.889 327.086 508.054 326.648 508.762C326.274 509.367 326.425 510.145 326.984 510.491C327.543 510.836 328 510.417 328 509.56C328 508.703 328.388 508.001 328.861 508.001C329.335 508.001 329.508 509.126 329.245 510.501C328.98 511.884 329.236 513.001 329.817 513.001C330.395 513.001 331.055 511.763 331.284 510.251C331.671 507.691 331.711 507.726 331.85 510.751C332.039 514.838 334 515.066 334 511.001C334 509.351 334.486 508.001 335.079 508.001C335.751 508.001 335.918 509.099 335.521 510.906C335.155 512.572 335.334 514.09 335.941 514.465C336.596 514.87 337 513.975 337 512.119C337 510.469 337.373 508.889 337.828 508.607C338.284 508.325 338.566 510.436 338.456 513.298C338.346 516.16 338.451 517.264 338.691 515.751C338.932 514.229 339.768 513.001 340.563 513.001C341.435 513.001 342.047 511.92 342.118 510.251L342.237 507.501L343 510.501C343.42 512.151 343.817 512.927 343.882 512.226C344.03 510.632 348.96 508.386 352.885 508.126C353.922 508.057 355.543 506.821 356.489 505.378C358.268 502.662 357.224 502.825 353.754 505.804C352.276 507.074 349.979 507.169 338.754 506.423C331.464 505.939 317.738 505.664 308.25 505.813C297.479 505.982 291 505.716 291 505.104C291 504.566 293.918 501.516 297.484 498.326C301.05 495.136 304.186 491.958 304.453 491.264C305.135 489.484 304.592 489.69 302.5 492.001ZM444.5 491.008C443.213 491.566 444.283 491.669 447.5 491.297C450.25 490.979 452.688 490.558 452.917 490.36C453.784 489.613 446.411 490.18 444.5 491.008ZM454.75 490.663C455.438 490.941 456.563 490.941 457.25 490.663C457.938 490.386 457.375 490.159 456 490.159C454.625 490.159 454.063 490.386 454.75 490.663ZM340.441 495.556C338.611 497.023 338.643 497.043 341 495.921C344.061 494.463 344.628 494.001 343.358 494.001C342.821 494.001 341.509 494.701 340.441 495.556ZM380.269 495.694C381.242 495.948 382.592 495.931 383.269 495.657C383.946 495.383 383.15 495.176 381.5 495.196C379.85 495.216 379.296 495.44 380.269 495.694ZM432.507 495.99C432.157 496.556 432.558 496.724 433.448 496.383C435.18 495.718 435.497 495.001 434.059 495.001C433.541 495.001 432.843 495.446 432.507 495.99ZM374.269 496.694C375.242 496.948 376.592 496.931 377.269 496.657C377.946 496.383 377.15 496.176 375.5 496.196C373.85 496.216 373.296 496.44 374.269 496.694ZM332.625 498.71C332.235 499.099 329.797 499.714 327.208 500.076L322.5 500.734L326.559 500.867C328.791 500.941 331.491 500.34 332.559 499.533C333.626 498.725 334.238 498.05 333.917 498.033C333.596 498.015 333.014 498.32 332.625 498.71ZM364 499.578L361.5 501.084L364 500.422C365.375 500.057 367.175 499.377 368 498.91C369.333 498.156 369.333 498.062 368 498.067C367.175 498.07 365.375 498.75 364 499.578ZM111.654 501.236C111.019 501.64 114.1 501.979 118.5 501.99C122.9 502.002 133.925 502.9 143 503.986C165.257 506.651 204 506.523 204 503.785C204 503.28 203.129 503.143 202.064 503.481C199.386 504.331 155.53 504.525 150 503.712C129.725 500.729 114.042 499.716 111.654 501.236ZM35.5 502.335C30 502.858 19.875 503.256 13 503.219C6.062 503.182 1.39 503.499 2.5 503.931C6.336 505.425 17.98 506.043 24.217 505.083C27.673 504.551 35.497 503.814 41.604 503.445C52.348 502.795 52.725 502.842 53.261 504.891C53.898 507.326 56.619 506.84 57.327 504.166C57.572 503.243 57.82 503.726 57.884 505.251C58.034 508.809 60 508.856 60 505.301C60 502.358 61.477 503.133 62.287 506.501C62.732 508.351 62.777 508.336 62.884 506.31C63.075 502.698 65 502.546 65 506.142C65 509.805 66.557 509.025 67.279 505.001C67.604 503.19 67.794 503.604 67.969 506.501L68.21 510.501L69.528 506.501C70.822 502.575 70.85 502.556 71.055 505.501L71.263 508.501L72 505.001C72.663 501.853 72.75 501.777 72.868 504.251C73.014 507.294 75 508.112 75 505.129C75 503.468 75.933 503.232 83.25 503.036C110.08 502.319 107.174 501.413 78 501.399C60.125 501.39 41 501.812 35.5 502.335ZM288.441 503.469C287.374 504.277 287.007 504.952 287.628 504.969C288.248 504.987 289.315 504.326 290 503.501C291.581 501.596 290.935 501.583 288.441 503.469ZM206.269 503.694C207.242 503.948 208.592 503.931 209.269 503.657C209.946 503.383 209.15 503.176 207.5 503.196C205.85 503.216 205.296 503.44 206.269 503.694ZM213.75 503.724C215.537 503.946 218.463 503.946 220.25 503.724C222.037 503.503 220.575 503.321 217 503.321C213.425 503.321 211.963 503.503 213.75 503.724ZM130.567 504.768C129.33 506.004 131.442 507.002 135.309 507.009C137.614 507.013 142.425 507.496 146 508.082C167.18 511.553 186.591 511.862 206 509.035C213.698 507.914 222.066 507.202 230 506.993C233.831 506.892 234.155 506.736 232.178 505.943C229.583 504.903 212.511 505.497 204.021 506.924C189.326 509.392 169.439 509.08 147.5 506.035C137.523 504.651 131.16 504.175 130.567 504.768ZM422.5 505.001C422.84 505.551 423.316 506.001 423.559 506.001C423.802 506.001 424 505.551 424 505.001C424 504.451 423.523 504.001 422.941 504.001C422.359 504.001 422.16 504.451 422.5 505.001ZM29 506.619C22.959 507.774 19.584 507.84 11.652 506.959C2.123 505.9 -0.904 506.207 1.912 507.946C3.34 508.829 20.09 510.136 23.5 509.63C24.6 509.467 27.975 508.963 31 508.51C39.285 507.27 40.134 507.18 45 507.021C48.278 506.914 48.957 506.665 47.5 506.102C44.306 504.869 37.092 505.071 29 506.619ZM88.557 507.224C87.701 508.446 87 510.021 87 510.724C87 512.931 89.007 512.113 90 509.501C90.523 508.126 91.412 507.001 91.975 507.001C92.539 507.001 93 506.551 93 506.001C93 504.178 90.138 504.965 88.557 507.224ZM93.533 508.552C91.577 510.031 91.577 510.059 93.533 513.697C96.32 518.879 97.708 520.002 101.321 519.997C107.518 519.99 113.866 513.787 109.249 512.25C108.473 511.992 108.219 512.409 108.58 513.35C109.363 515.389 103.673 518.339 100.7 517.436C98.489 516.764 94.103 512.272 94.036 510.611C94.016 510.122 94.787 509.124 95.75 508.393C96.713 507.662 97.05 507.065 96.5 507.065C95.95 507.065 94.615 507.734 93.533 508.552ZM268 507.947C264.186 508.51 263.881 508.709 266 509.25C267.375 509.601 272.55 510.117 277.5 510.397C285.814 510.868 288.368 511.155 296.414 512.522C300.591 513.231 321 511.86 321 510.87C321 510.413 314.813 510.061 307.25 510.088C299.688 510.115 291.475 509.704 289 509.175C282.274 507.736 273.07 507.198 268 507.947ZM358.5 508.001C358.84 508.551 360.243 509.001 361.618 509.001C363.03 509.001 363.849 508.566 363.5 508.001C363.16 507.451 361.757 507.001 360.382 507.001C358.97 507.001 358.151 507.436 358.5 508.001ZM367.694 511.64C366.566 512.769 368.045 514.001 370.528 514.001C373.654 514.001 372.784 516.766 369.39 517.618C366.072 518.451 366.394 520.001 369.885 520.001C374.392 520.001 378.152 513.041 374.418 511.608C372.345 510.812 368.503 510.831 367.694 511.64ZM402.75 511.792C398.488 511.953 395 512.473 395 512.947C395 514.218 404.484 514.655 412.5 513.753C416.35 513.32 422.1 513.245 425.279 513.585C432.267 514.334 447.805 513.116 445.944 511.966C444.731 511.217 420.504 511.119 402.75 511.792ZM355.639 513.695C354.686 514.648 354.867 517.001 355.893 517.001C357.12 517.001 358.105 514.184 357.096 513.56C356.647 513.283 355.991 513.343 355.639 513.695ZM461 513.444C461 514.615 465.309 521.001 466.099 521.001C466.594 521.001 467 519.723 467 518.162C467 516.089 466.312 515.008 464.453 514.162C461.693 512.904 461 512.76 461 513.444ZM358.632 516.116C357.152 518.229 357.421 521.001 359.107 521.001C359.598 521.001 360 520.249 360 519.33C360 518.411 360.745 516.836 361.655 515.83C363.15 514.178 363.155 514.001 361.712 514.001C360.833 514.001 359.447 514.953 358.632 516.116ZM41.25 520.777C32.211 520.941 26 521.45 26 522.027C26 522.631 34.69 523.001 48.849 523.001C73.181 523.001 87 522.232 87 520.878C87 520.102 79.458 520.085 41.25 520.777ZM202.75 520.747C191.739 521.116 189.309 523.001 199.844 523.001C211.727 523.001 227.954 521.735 227.407 520.851C226.902 520.034 224.321 520.023 202.75 520.747ZM117 522.001C117.836 522.542 126.241 522.933 136 522.886C146.303 522.836 152.472 522.472 151 522.001C147.27 520.807 115.152 520.807 117 522.001ZM1 524.851C1 525.318 6.962 526.256 14.25 526.935C24.652 527.905 33.626 527.916 56 526.989C71.675 526.34 84.95 525.821 85.5 525.837C86.05 525.853 94.6 526.147 104.5 526.491C157.375 528.327 196.514 528.768 223 527.825C251.826 526.799 259.027 526.952 278 528.989C286.658 529.919 290.883 529.835 302.086 528.509C313.852 527.118 319.212 527.031 336.317 527.957C336.767 527.981 336.863 529.014 336.531 530.251C336.055 532.025 336.265 531.907 337.526 529.692C339.103 526.922 339.246 526.886 347.893 527.076C360.124 527.345 376.032 529.642 385.551 532.514C393.241 534.835 403.952 540.77 406.872 544.328C407.627 545.248 408.703 546.001 409.263 546.001C410.858 546.001 401.288 537.805 396.137 534.759C392.412 532.556 391.955 532.016 393.814 532.009C395.086 532.005 397.336 533.106 398.814 534.455C400.291 535.805 403.436 538.579 405.802 540.619C412.885 546.726 413.59 550.528 408.181 553.465C406.707 554.266 406.106 554.939 406.846 554.961C407.586 554.983 409.611 554.213 411.346 553.251C413.081 552.289 414.644 551.432 414.82 551.348C416.146 550.713 409.938 542.215 405.026 537.943C401.712 535.06 399 532.319 399 531.851C399 531.384 400.012 530.987 401.25 530.971C402.992 530.947 403.161 530.751 402 530.104C400.514 529.276 396.729 528.858 373.5 526.96C357.349 525.64 312.778 525.603 301 526.899C291.512 527.944 276.389 527.55 266 525.988C262.975 525.533 253.75 525.463 245.5 525.831C228.309 526.599 144.397 526.437 124.096 525.596C86.803 524.052 78.057 523.947 71.101 524.959C61.582 526.345 21.754 526.435 12 525.094C2.695 523.815 1 523.777 1 524.851ZM300.954 558.751C295.259 567.618 292.128 575.249 291.459 581.891C291.003 586.421 291.021 586.401 292.481 580.721C294.313 573.596 299.744 561.686 303.948 555.576C305.68 553.06 306.834 551.001 306.514 551.001C306.193 551.001 303.692 554.488 300.954 558.751ZM403.313 562.613C398.662 567.07 398.638 567.122 402.596 564.151C406.695 561.075 409.738 558.001 408.685 558.001C408.377 558.001 405.96 560.076 403.313 562.613ZM425 560.879C425 561.361 425.749 562.374 426.664 563.129C428.172 564.373 428.216 564.291 427.129 562.251C425.889 559.924 425 559.351 425 560.879ZM409.262 570.259L407.024 574.501L409.507 571.501C411.551 569.031 412.8 565.975 411.75 566.009C411.613 566.014 410.493 567.926 409.262 570.259ZM436 568.394C436 568.61 436.698 569.055 437.552 569.383C438.442 569.724 438.843 569.556 438.493 568.99C437.906 568.039 436 567.584 436 568.394ZM402.5 578.001C400.85 579.094 399.95 579.981 400.5 579.972C401.503 579.956 406.94 576.059 406 576.03C405.725 576.021 404.15 576.908 402.5 578.001ZM446.804 582.696C448.923 583.565 451.574 583.627 456.547 582.923C460.305 582.391 463.482 581.852 463.609 581.726C463.735 581.599 459.351 581.497 453.866 581.498C445.175 581.501 444.268 581.655 446.804 582.696ZM390.813 582.684C391.534 582.973 392.397 582.937 392.729 582.605C393.061 582.273 392.471 582.037 391.417 582.08C390.252 582.128 390.015 582.365 390.813 582.684ZM120.495 587.251C120.842 588.488 121.502 590.401 121.962 591.501C122.422 592.601 123.354 594.978 124.034 596.783C124.713 598.588 125.494 599.84 125.769 599.566C126.043 599.291 125.264 596.38 124.036 593.097C122.808 589.814 122.099 586.649 122.461 586.064C122.822 585.48 122.386 585.001 121.492 585.001C120.285 585.001 120.028 585.582 120.495 587.251ZM131.5 588.954C136.579 591.254 140.381 595.328 142.548 600.792C144.539 605.811 145.546 605.904 143.849 600.913C141.516 594.054 133.675 586.819 128.849 587.072C128.107 587.11 129.3 587.957 131.5 588.954ZM175.232 594.001C175.232 595.926 175.438 596.713 175.689 595.751C175.941 594.789 175.941 593.213 175.689 592.251C175.438 591.289 175.232 592.076 175.232 594.001ZM164.471 596.277C163.034 598.079 160.716 602.393 159.322 605.864C157.141 611.291 156.881 613.067 157.468 618.549C158.112 624.557 158.264 624.854 160.109 623.712C161.575 622.806 161.707 622.425 160.636 622.197C159.052 621.861 158.035 618.963 158.014 614.728C158.006 613.203 159.438 608.531 161.194 604.345C163.518 598.809 165.222 596.227 167.444 594.872C169.467 593.638 169.923 593.007 168.793 593.005C167.854 593.003 165.909 594.475 164.471 596.277ZM132.5 598.001C133.495 599.101 134.535 600.001 134.81 600.001C135.085 600.001 134.495 599.101 133.5 598.001C132.505 596.901 131.465 596.001 131.19 596.001C130.915 596.001 131.505 596.901 132.5 598.001ZM170.514 602.751C169.377 607.057 167.278 611.492 164.716 615.001L160.701 620.501L164.353 617.052C167.994 613.614 171.113 606.919 172.411 599.751C173.497 593.758 172.453 595.409 170.514 602.751ZM275.619 599.434C272.576 603.423 272.068 605.717 275.051 602.001C277.405 599.067 279.246 596.001 278.654 596.001C278.425 596.001 277.059 597.546 275.619 599.434ZM176.086 602.694C176.007 607.49 175.576 608.387 170.447 614.433C167.392 618.033 165.48 620.727 166.197 620.42C168.583 619.396 176.011 609.621 176.928 606.298C177.428 604.488 177.461 601.787 177.002 600.262C176.303 597.935 176.158 598.318 176.086 602.694ZM270.128 612.406C268.207 620.036 268.703 627.481 271.5 633.001C272.875 635.714 274 638.365 274 638.892C274 639.462 271.875 639.59 268.75 639.208C262.545 638.45 196.915 638.298 182.5 639.008L172.5 639.501L166 635.001C162.425 632.526 159.169 630.051 158.765 629.501C158.34 628.922 158.024 628.899 158.015 629.447C158.007 629.968 156.332 628.843 154.294 626.947C150.71 623.616 151.097 624.566 155.615 630.196C156.804 631.678 158.019 632.649 158.314 632.354C158.609 632.059 159.671 632.295 160.675 632.879C161.837 633.555 162.008 633.951 161.144 633.971C160.395 633.987 161.29 635.455 163.144 637.251L166.5 640.501L158 641.001L149.5 641.501L156.5 642.183C160.772 642.598 168.945 642.275 177.471 641.353C192.6 639.717 239.778 639.134 272 640.185C282.175 640.517 288.166 640.589 285.314 640.345C281.519 640.02 280.007 639.445 279.68 638.201C279.27 636.644 279.222 636.648 279.116 638.251C278.856 642.17 275.58 639.198 272.154 631.935C269.764 626.87 269.324 618.976 271.078 612.657C271.665 610.543 271.946 608.613 271.701 608.369C271.457 608.124 270.749 609.941 270.128 612.406ZM146.517 610.61C146.808 611.77 146.758 613.469 146.406 614.386C145.876 615.767 145.495 615.834 144.18 614.777C143.131 613.933 143.255 614.407 144.547 616.174L146.5 618.847L147.398 615.913C147.993 613.969 147.906 612.223 147.143 610.74C146.069 608.656 146.026 608.647 146.517 610.61ZM141 610.942C141 611.46 141.445 612.158 141.989 612.494C142.555 612.844 142.723 612.443 142.382 611.553C141.717 609.821 141 609.504 141 610.942ZM123.466 617.933C121.797 618.333 119.547 619.221 118.466 619.906C116.526 621.136 116.526 621.143 118.5 620.461C128.649 616.953 136.1 618.101 142.095 624.096C144.203 626.204 146.171 627.534 146.468 627.052C147.173 625.913 140.182 620.393 135.62 618.487C131.842 616.908 128.397 616.751 123.466 617.933ZM110.75 622.3C109.237 622.898 108 623.727 108 624.143C108 624.805 114.815 622.44 115.917 621.396C116.701 620.653 113.503 621.213 110.75 622.3ZM131.269 627.694C132.242 627.948 133.592 627.931 134.269 627.657C134.946 627.383 134.15 627.176 132.5 627.196C130.85 627.216 130.296 627.44 131.269 627.694ZM137.813 627.684C138.534 627.973 139.397 627.937 139.729 627.605C140.061 627.273 139.471 627.037 138.417 627.08C137.252 627.128 137.015 627.365 137.813 627.684ZM316 637.468C311.875 638.161 304.45 639.108 299.5 639.571C294.55 640.034 291.762 640.577 293.303 640.778C294.845 640.98 304.07 640.21 313.803 639.068C323.537 637.926 333.75 636.85 336.5 636.677C339.25 636.503 337.45 636.327 332.5 636.284C327.55 636.241 320.125 636.774 316 637.468ZM352.762 636.708C354.006 636.947 355.806 636.938 356.762 636.688C357.718 636.438 356.7 636.242 354.5 636.253C352.3 636.264 351.518 636.469 352.762 636.708ZM166 637.886C166 638.783 169.005 640.329 169.598 639.737C169.769 639.565 169.03 638.876 167.955 638.205C166.88 637.533 166 637.39 166 637.886ZM131.73 640.604C131.398 640.936 119.511 641.723 105.313 642.353C75.942 643.656 34.178 643.455 26 641.97C17.529 640.432 -1.082 642.252 1.073 644.407C1.356 644.69 5.777 644.489 10.898 643.959C16.947 643.333 22.369 643.341 26.377 643.981C34.768 645.322 76.62 645.428 92 644.147C105.914 642.989 108 642.984 108 644.11C108 644.537 108.9 644.713 110 644.501C111.222 644.266 112 644.654 112 645.499C112 646.26 112.515 647.201 113.145 647.591C113.935 648.079 114.133 647.478 113.784 645.65C113.505 644.193 113.636 643.001 114.075 643.001C114.514 643.001 115.055 644.463 115.277 646.251L115.68 649.501L115.84 646.178C116.064 641.529 119.257 642.152 120.118 647.012L120.737 650.501L120.868 646.751C121.025 642.284 123 641.644 123 646.06C123 648.02 123.393 648.876 124.094 648.443C124.696 648.071 124.986 646.708 124.739 645.414C124.491 644.12 124.674 643.299 125.144 643.59C125.615 643.881 126 645.244 126 646.619C126 648.174 126.413 648.864 127.094 648.443C127.696 648.071 127.983 646.694 127.733 645.384C127.482 644.073 127.665 643.001 128.139 643.001C128.612 643.001 129.045 643.789 129.1 644.751C129.166 645.918 129.466 645.668 130 644.001C130.44 642.626 130.845 642.064 130.9 642.751C130.955 643.439 131.477 644.001 132.059 644.001C132.641 644.001 132.868 643.596 132.562 643.101C132.256 642.606 135.717 641.768 140.253 641.24L148.5 640.28L140.417 640.14C135.971 640.064 132.062 640.272 131.73 640.604ZM224.537 640.972C223.442 641.365 227.865 641.983 234.537 642.37C241.117 642.751 248.3 643.523 250.5 644.084C252.7 644.646 262.825 645.354 273 645.658C288.867 646.133 293.318 645.912 304.272 644.106C311.296 642.948 319.032 642.001 321.463 642.001C323.893 642.001 326.16 641.551 326.5 641.001C327.464 639.442 316.646 639.797 306.5 641.658C294.92 643.782 260.262 644.094 251.688 642.151C245.127 640.664 227.522 639.899 224.537 640.972ZM364 641.001C364 641.551 364.461 642.001 365.025 642.001C365.588 642.001 366.477 643.126 367 644.501C368.041 647.238 370 647.891 370 645.501C370 643.814 366.534 640.001 365 640.001C364.45 640.001 364 640.451 364 641.001ZM359.5 643.001C359.84 643.551 360.766 644.001 361.559 644.001C362.352 644.001 363 644.576 363 645.278C363 647.183 357.355 653.001 355.507 653.001C352.568 653.001 347.807 649.946 348.388 648.433C348.69 647.646 348.487 647.001 347.937 647.001C347.387 647.001 346.651 647.748 346.3 648.661C345.353 651.13 350.67 654.994 355 654.981C359.305 654.968 359.998 654.501 362.977 649.601L365.348 645.701L363.063 643.851C360.612 641.867 358.485 641.359 359.5 643.001ZM168.5 644.093C166.3 644.567 158.088 644.976 150.25 645.002C142.412 645.028 136 645.42 136 645.873C136 647.537 156.299 647.94 167 646.488C172.775 645.705 180.988 645.05 185.25 645.033C189.729 645.014 193 644.579 193 644.001C193 642.782 174.259 642.852 168.5 644.093ZM117.134 646.001C117.19 647.376 117.58 649.851 118 651.501C118.735 654.391 118.767 654.354 118.866 650.501C118.923 648.301 118.533 645.826 118 645.001C117.239 643.824 117.053 644.039 117.134 646.001ZM96.496 646.008C96.153 646.562 96.56 647.279 97.399 647.6C98.237 647.922 99.196 649.044 99.529 650.093C99.862 651.143 100.554 652.001 101.067 652.001C102.574 652.001 102.136 648.28 100.429 646.572C98.613 644.757 97.378 644.58 96.496 646.008ZM10 646.915C10 648.138 25.892 649.394 31.233 648.593C33.583 648.241 39.072 648.448 43.429 649.054C52.045 650.253 64.534 649.439 61.718 647.863C59.548 646.649 10 645.741 10 646.915ZM82.25 646.663C80.493 647.372 80.734 650.118 82.772 652.63C84.63 654.919 90.349 656.559 89.711 654.62C89.509 654.005 88.463 653.37 87.386 653.21C86.31 653.049 84.913 652.092 84.283 651.082C83.254 649.434 83.564 649.186 87.318 648.657C92.131 647.98 96.284 650.251 96.82 653.851C97.248 656.735 99 656.604 99 653.688C99 652.416 97.738 650.166 96.195 648.688C93.889 646.479 92.511 646.015 88.445 646.08C85.725 646.123 82.938 646.386 82.25 646.663ZM229 655.695C229 656.261 233.64 656.981 239.656 657.349C255.119 658.295 265 658.159 265 657.001C265 656.448 262.386 656.001 259.157 656.001C255.943 656.001 247.843 655.707 241.157 655.347C233.27 654.923 229 655.045 229 655.695ZM330.868 655.467C330.577 655.757 325.639 656.032 319.893 656.079C314.147 656.125 307.883 656.53 305.973 656.979C303.723 657.509 308.839 657.827 320.5 657.883C330.587 657.932 339.159 657.544 340 657.001C341.119 656.278 340.568 656.028 337.832 656.016C335.814 656.008 333.541 655.762 332.78 655.47C332.018 655.178 331.158 655.176 330.868 655.467ZM370 655.87C370 657.187 384.605 657.989 408.691 657.995C422.413 657.999 431.118 657.619 431.5 657.001C431.901 656.352 426.748 655.983 416.809 655.951C408.389 655.923 394.413 655.706 385.75 655.468C377.087 655.231 370 655.412 370 655.87ZM4.147 664.172C8.42 665.055 14.102 665.221 31.5 664.969C42.973 664.802 44.597 664.61 40.5 663.906C34.612 662.893 -0.787 663.152 4.147 664.172ZM360.872 666.751C359.629 668.337 359.664 668.372 361.25 667.129C362.212 666.374 363 665.586 363 665.379C363 664.556 362.179 665.085 360.872 666.751ZM58.5 669.163C57.4 670.241 54.025 673.371 51 676.119C47.975 678.868 46.711 680.381 48.191 679.482C49.671 678.583 52.589 676.238 54.675 674.271C56.762 672.303 60.276 669.873 62.484 668.869C66.404 667.088 66.429 667.047 63.5 667.125C61.85 667.169 59.6 668.086 58.5 669.163ZM352.75 671.573C349.012 673.601 349.239 674.446 353 672.501C354.65 671.648 356 670.736 356 670.475C356 669.832 355.893 669.868 352.75 671.573ZM321.813 672.684C322.534 672.973 323.397 672.937 323.729 672.605C324.061 672.273 323.471 672.037 322.417 672.08C321.252 672.128 321.015 672.365 321.813 672.684ZM339.813 676.684C340.534 676.973 341.397 676.937 341.729 676.605C342.061 676.273 341.471 676.037 340.417 676.08C339.252 676.128 339.015 676.365 339.813 676.684ZM322.813 677.684C323.534 677.973 324.397 677.937 324.729 677.605C325.061 677.273 324.471 677.037 323.417 677.08C322.252 677.128 322.015 677.365 322.813 677.684ZM334.269 677.694C335.242 677.948 336.592 677.931 337.269 677.657C337.946 677.383 337.15 677.176 335.5 677.196C333.85 677.216 333.296 677.44 334.269 677.694ZM438 686.001C437.099 686.583 436.975 686.976 437.691 686.986C438.346 686.994 439.16 686.551 439.5 686.001C440.267 684.759 439.921 684.759 438 686.001ZM54 691.001C57.419 692.096 60.048 692.096 57.5 691.001C56.4 690.528 54.6 690.155 53.5 690.171C51.892 690.195 51.99 690.357 54 691.001ZM47 691.882C47 692.647 51.74 697.172 56.048 700.521C57.746 701.84 57.579 701.519 55.548 699.559C53.872 697.941 51.263 695.388 49.75 693.886C48.237 692.384 47 691.482 47 691.882ZM43.079 695.584C43.127 696.749 43.364 696.986 43.683 696.189C43.972 695.467 43.936 694.604 43.604 694.272C43.272 693.94 43.036 694.53 43.079 695.584ZM29.954 697.087C28.32 700.141 29.448 700.492 31.388 697.532C32.3 696.14 32.602 695.001 32.058 695.001C31.515 695.001 30.568 695.94 29.954 697.087ZM9.75 696.733C12.087 696.944 15.912 696.944 18.25 696.733C20.587 696.523 18.675 696.35 14 696.35C9.325 696.35 7.412 696.523 9.75 696.733ZM1 697.907C1 698.406 1.9 698.578 3 698.291C4.1 698.003 5 697.595 5 697.384C5 697.174 4.1 697.001 3 697.001C1.9 697.001 1 697.409 1 697.907ZM44.001 698.783C43.999 701.111 46.652 706.448 49.474 709.795C52.629 713.536 57.863 716.469 63 717.373C65.629 717.836 65.189 717.507 61.231 716.05C53.254 713.113 50.087 710.364 46.888 703.603C45.301 700.247 44.001 698.078 44.001 698.783ZM69.5 701.001C70.353 702.651 71.276 704.001 71.551 704.001C71.826 704.001 71.353 702.651 70.5 701.001C69.647 699.351 68.724 698.001 68.449 698.001C68.174 698.001 68.647 699.351 69.5 701.001ZM7.75 706.663C8.438 706.941 9.563 706.941 10.25 706.663C10.938 706.386 10.375 706.159 9 706.159C7.625 706.159 7.063 706.386 7.75 706.663ZM63.5 708.001C64.495 709.101 65.535 710.001 65.81 710.001C66.085 710.001 65.495 709.101 64.5 708.001C63.505 706.901 62.465 706.001 62.19 706.001C61.915 706.001 62.505 706.901 63.5 708.001ZM23 710.713C19.896 713.897 19.815 714.101 22.291 712.51C23.825 711.524 25.529 709.881 26.076 708.859C27.431 706.328 27.054 706.554 23 710.713ZM73.079 713.584C73.127 714.749 73.364 714.986 73.683 714.189C73.972 713.467 73.936 712.604 73.604 712.272C73.272 711.94 73.036 712.53 73.079 713.584ZM14 715.689C12.075 716.528 8.363 717.279 5.751 717.358C3.139 717.436 1.002 717.901 1.001 718.391C0.999 719.91 11.559 718.278 15.632 716.13C20.138 713.753 19.092 713.471 14 715.689ZM74.079 717.584C74.127 718.749 74.364 718.986 74.683 718.189C74.972 717.467 74.936 716.604 74.604 716.272C74.272 715.94 74.036 716.53 74.079 717.584ZM69 719.466C69 719.721 70.013 720.47 71.25 721.13C73.29 722.217 73.372 722.173 72.128 720.665C70.85 719.116 69 718.407 69 719.466ZM0.195 745.501C0.215 747.151 0.439 747.705 0.693 746.732C0.947 745.759 0.93 744.409 0.656 743.732C0.382 743.055 0.175 743.851 0.195 745.501ZM140 762.897C137.884 763.486 137.769 763.696 139.25 764.266C140.68 764.815 141 766.186 141 771.77C141 775.75 140.499 779.102 139.8 779.801C138.867 780.734 139.256 781.002 141.55 781.003L144.5 781.006L144.174 773.001C143.907 766.446 144.132 764.888 145.418 764.394C146.282 764.063 146.74 763.389 146.435 762.896C145.807 761.88 143.648 761.88 140 762.897ZM173.745 762.818C171.293 763.1 171.156 763.3 172.495 764.639C174.235 766.379 174.682 780.001 173 780.001C172.45 780.001 172 780.373 172 780.828C172 781.283 173.318 781.461 174.929 781.225C177.664 780.823 177.846 780.52 177.679 776.648C177.504 772.596 177.887 772.226 181 773.435C182.129 773.874 182.529 773.231 182.615 770.833C182.719 767.964 182.601 767.827 181.413 769.45C179.81 771.644 177 770.819 177 768.155C177 763.519 183.644 762.818 185.77 767.229C186.816 769.399 186.868 769.359 186.932 766.344C186.999 763.235 186.919 763.181 181.75 762.844C178.863 762.655 175.26 762.644 173.745 762.818ZM204.4 765.401C200.521 769.28 199.839 774.3 202.615 778.536C204.709 781.733 207.613 782.015 205.923 778.858C205.269 777.636 204.972 774.356 205.231 771.23C205.587 766.935 206.207 765.346 208.093 763.896C209.46 762.845 209.917 762.036 209.15 762.023C208.407 762.011 206.27 763.531 204.4 765.401ZM278.395 764.595C277.067 769.947 272.191 779.794 270.336 780.873C268.702 781.823 268.793 781.944 271.168 781.971C275.292 782.018 277.252 781.01 275.991 779.49C275.223 778.565 275.374 777.77 276.537 776.607C278.577 774.567 280.395 774.567 282.09 776.609C283.218 777.969 283.16 778.411 281.712 779.469C279.21 781.299 279.492 781.486 285.001 781.652C289.981 781.803 291.748 780.691 288.062 779.728C286.656 779.36 285.524 777.201 283.937 771.861C282.735 767.813 281.158 763.868 280.433 763.095C279.319 761.905 279.005 762.136 278.395 764.595ZM293 763.601C293 764.243 293.9 765.003 295 765.291C296.721 765.741 297 766.655 297 771.851C297 776.914 296.65 778.133 294.827 779.409C292.908 780.754 292.85 781.006 294.33 781.574C295.251 781.927 297.094 781.943 298.426 781.609C300.757 781.024 300.791 780.89 299.356 778.013C297.764 774.822 297.847 770.082 299.5 769.72C300.05 769.6 302.413 772.411 304.75 775.969L309 782.436V774.341C309 768.365 309.393 765.92 310.5 765.001C312.823 763.073 312.306 762.401 308.5 762.401C304.871 762.401 303.892 763.362 306.5 764.363C307.55 764.765 307.992 766.373 307.973 769.72L307.946 774.501L304.974 771.001C303.34 769.076 301.728 766.488 301.393 765.251C301.058 764.014 300.269 762.964 299.642 762.92C299.014 762.875 297.262 762.748 295.75 762.637C294.206 762.523 293 762.947 293 763.601ZM317.143 762.891C316.197 763.491 316.122 763.958 316.893 764.435C318.418 765.377 318.339 779.262 316.8 780.801C315.867 781.734 316.7 781.975 320.55 781.885C323.272 781.821 324.712 781.563 323.75 781.312C322.788 781.06 321.948 779.875 321.885 778.678C321.822 777.481 321.634 774.163 321.468 771.305C321.133 765.555 322.397 763.632 326.158 764.174C327.739 764.402 328.873 765.68 329.903 768.395C331.218 771.86 331.208 772.768 329.814 776.645C327.972 781.769 329.188 782.382 332.011 777.751C334.524 773.629 334.522 770.582 332.003 766.505C330.358 763.845 329.185 763.161 325.363 762.637C319.455 761.827 318.79 761.848 317.143 762.891ZM339 764.001C336.741 766.26 336.38 769.481 338.249 770.692C338.937 771.137 341.299 772.189 343.499 773.029C346.675 774.243 347.5 775.067 347.5 777.029C347.5 778.977 346.922 779.568 344.774 779.815C342.607 780.065 341.646 779.467 340.085 776.9L338.121 773.671L337.463 776.293C336.474 780.233 337.202 781.206 341.423 781.584C345.923 781.988 348.613 780.795 349.5 778.002C350.594 774.553 349.034 772.11 344.439 770.077C340.022 768.123 338.614 765.47 341.422 764.393C343.369 763.645 347 765.73 347 767.595C347 768.433 347.45 768.841 348 768.501C348.55 768.161 349 766.732 349 765.325C349 763.26 348.615 762.868 347.001 763.29C345.902 763.578 344.75 763.405 344.442 762.907C343.512 761.402 341.118 761.883 339 764.001ZM119.785 764.045C121.881 764.886 122.05 765.51 121.826 771.571C121.637 776.704 121.166 778.472 119.718 779.486C117.207 781.245 118.543 781.749 124.321 781.225C128.918 780.809 129.043 780.719 127.014 779.298C125.583 778.296 124.986 776.964 125.193 775.231C125.597 771.839 127.758 771.225 128.938 774.167C129.765 776.232 129.881 776.054 129.937 772.629C129.992 769.249 129.804 768.919 128.458 770.036C125.931 772.133 124.289 769.723 125.699 765.987L126.826 763.001L122.163 763.064C118.307 763.117 117.895 763.286 119.785 764.045ZM131 764.329C131.825 765.024 133.063 766.224 133.75 766.997C134.788 768.163 135 767.943 135 765.701C135 763.415 134.579 763.006 132.25 763.033C129.908 763.06 129.722 763.252 131 764.329ZM150 763.672C150 764.041 150.694 765.11 151.542 766.047C152.39 766.984 154.371 771.069 155.944 775.126L158.804 782.501L160.002 779.501C160.661 777.851 161.85 774.355 162.644 771.732C163.439 769.109 164.969 766.413 166.044 765.741C168.949 763.927 168.427 763.001 164.5 763.001C161.139 763.001 159.701 764.401 162.205 765.236C163.119 765.541 163.059 766.56 161.955 769.46C161.155 771.562 160.095 773.332 159.601 773.392C158.286 773.551 155.92 766.169 157.06 765.464C159.184 764.151 157.755 763.001 154 763.001C151.8 763.001 150 763.303 150 763.672ZM211.893 763.914C213.658 765.031 214.766 772.33 213.93 777.328C213.297 781.11 213.313 781.133 215.22 779.225C216.282 778.163 217.389 775.519 217.68 773.349C218.119 770.076 217.75 768.858 215.516 766.202C214.034 764.442 212.3 763.008 211.661 763.016C210.949 763.026 211.039 763.373 211.893 763.914ZM220.75 764.032C222.759 764.84 223 765.631 223 771.412C223 776.83 222.661 778.125 220.927 779.34C218.211 781.242 219.418 781.761 225.321 781.225C229.918 780.809 230.043 780.719 228.014 779.298C226.583 778.296 225.986 776.964 226.193 775.231C226.578 772.001 228.948 771.085 229.68 773.884C230.371 776.528 232 775.632 232 772.609C232 769.632 231.016 768.743 229.3 770.167C226.919 772.143 225.336 769.598 226.699 765.987L227.826 763.001L223.163 763.064C219.356 763.116 218.913 763.294 220.75 764.032ZM232 764.329C232.825 765.024 234.063 766.224 234.75 766.997C235.788 768.163 236 767.943 236 765.701C236 763.415 235.579 763.006 233.25 763.033C230.908 763.06 230.722 763.252 232 764.329ZM250.411 766.078C251.835 767.77 253 769.743 253 770.463C253 773.415 256.376 782.077 257.036 780.817C258.305 778.394 259.021 772.87 257.983 773.511C256.557 774.393 254.758 768.983 255.402 765.751C255.928 763.112 255.786 763.001 251.886 763.001H247.822L250.411 766.078ZM258.544 764.849C258.92 765.758 259.438 767.401 259.697 768.501C259.955 769.601 260.548 771.401 261.014 772.501C261.48 773.601 262.391 776.23 263.038 778.343C264.39 782.753 265.534 782.188 266.561 776.606C267.052 773.937 266.941 772.92 266.208 773.373C264.845 774.215 264.348 773.372 263.479 768.743C262.818 765.218 262.925 765.001 265.319 765.001C267.001 765.001 267.969 765.621 268.18 766.835C268.458 768.427 268.799 768.304 270.769 765.903L273.039 763.138L265.45 763.168C258.792 763.194 257.945 763.4 258.544 764.849ZM277.667 769.668C277.3 770.034 277 771.197 277 772.251C277 774.844 279.415 773.921 279.82 771.173C280.129 769.07 279.031 768.303 277.667 769.668ZM184.939 778.022L182.378 780.84L184.704 781.285C186.494 781.627 187.164 781.194 187.613 779.408C188.583 775.543 187.638 775.053 184.939 778.022ZM467.115 786.251C467.219 792.78 467.312 793.103 468.057 789.501C469.213 783.914 469.186 779.001 468 779.001C467.415 779.001 467.048 782.008 467.115 786.251ZM9.75 792.663C10.438 792.941 11.563 792.941 12.25 792.663C12.938 792.386 12.375 792.159 11 792.159C9.625 792.159 9.063 792.386 9.75 792.663ZM16.762 792.708C18.006 792.947 19.806 792.938 20.762 792.688C21.718 792.438 20.7 792.242 18.5 792.253C16.3 792.264 15.518 792.469 16.762 792.708ZM46.819 792.75C60.195 792.908 81.795 792.908 94.819 792.75C107.844 792.592 96.9 792.463 70.5 792.463C44.1 792.464 33.444 792.593 46.819 792.75ZM121.264 792.719C122.784 792.948 125.034 792.942 126.264 792.705C127.494 792.468 126.25 792.28 123.5 792.287C120.75 792.295 119.744 792.489 121.264 792.719ZM130.75 792.707C131.988 792.945 134.012 792.945 135.25 792.707C136.488 792.468 135.475 792.273 133 792.273C130.525 792.273 129.512 792.468 130.75 792.707ZM139.813 792.684C140.534 792.973 141.397 792.937 141.729 792.605C142.061 792.273 141.471 792.037 140.417 792.08C139.252 792.128 139.015 792.365 139.813 792.684ZM149.206 792.742C152.895 792.933 159.195 792.935 163.206 792.744C167.218 792.554 164.2 792.397 156.5 792.396C148.8 792.394 145.518 792.55 149.206 792.742ZM172.25 792.69C173.213 792.942 174.787 792.942 175.75 792.69C176.713 792.439 175.925 792.233 174 792.233C172.075 792.233 171.287 792.439 172.25 792.69ZM179.813 792.684C180.534 792.973 181.397 792.937 181.729 792.605C182.061 792.273 181.471 792.037 180.417 792.08C179.252 792.128 179.015 792.365 179.813 792.684ZM184.269 792.694C185.242 792.948 186.592 792.931 187.269 792.657C187.946 792.383 187.15 792.176 185.5 792.196C183.85 792.216 183.296 792.44 184.269 792.694ZM189.813 792.684C190.534 792.973 191.397 792.937 191.729 792.605C192.061 792.273 191.471 792.037 190.417 792.08C189.252 792.128 189.015 792.365 189.813 792.684ZM197.269 792.694C198.242 792.948 199.592 792.931 200.269 792.657C200.946 792.383 200.15 792.176 198.5 792.196C196.85 792.216 196.296 792.44 197.269 792.694ZM204.264 792.719C205.784 792.948 208.034 792.942 209.264 792.705C210.494 792.468 209.25 792.28 206.5 792.287C203.75 792.295 202.744 792.489 204.264 792.719ZM221.25 792.69C222.213 792.942 223.787 792.942 224.75 792.69C225.713 792.439 224.925 792.233 223 792.233C221.075 792.233 220.287 792.439 221.25 792.69ZM228.269 792.694C229.242 792.948 230.592 792.931 231.269 792.657C231.946 792.383 231.15 792.176 229.5 792.196C227.85 792.216 227.296 792.44 228.269 792.694ZM250.25 792.69C251.213 792.942 252.787 792.942 253.75 792.69C254.713 792.439 253.925 792.233 252 792.233C250.075 792.233 249.287 792.439 250.25 792.69ZM259.25 792.69C260.212 792.942 261.788 792.942 262.75 792.69C263.712 792.439 262.925 792.233 261 792.233C259.075 792.233 258.288 792.439 259.25 792.69Z" fill="black"/>
</svg>
