<svg width="472" height="793" viewBox="0 0 472 793" fill="none" xmlns="http://www.w3.org/2000/svg">
<path fill-rule="evenodd" clip-rule="evenodd" d="M2.31325 0.783466C1.40425 1.36147 1.05625 93.3904 0.82025 396.192C0.65125 613.252 0.84725 791.181 1.25525 791.589C1.66425 791.998 2.01625 788.32 2.03725 783.416C2.05925 778.512 2.17225 768.48 2.28725 761.123L2.49825 747.747L50.9982 747.87C134.168 748.08 343.05 749.212 352.498 749.503C357.448 749.656 385.686 749.83 415.248 749.89L468.998 749.999V770.749V791.499L237.248 791.328C109.786 791.233 6.84825 791.518 8.49825 791.959C10.1482 792.401 114.63 792.816 240.681 792.881L469.863 792.999L470.517 790.94C471.402 788.15 471.515 779.182 470.675 778.342C470.302 777.97 470.005 777.178 470.013 776.582C470.022 775.959 470.372 776.041 470.839 776.776C471.285 777.479 471.523 714.254 471.369 636.276C471.214 558.299 471.067 471.136 471.043 442.582C471.018 414.028 470.761 390.903 470.471 391.193C470.18 391.483 469.909 397.408 469.868 404.36C469.826 411.311 469.501 416.996 469.145 416.993C468.789 416.99 465.798 416.53 462.498 415.971C459.198 415.412 450.26 414.314 442.635 413.53C435.01 412.747 428.603 411.937 428.396 411.731C428.19 411.525 429.141 409.838 430.51 407.983C431.878 406.128 432.998 403.798 432.998 402.805C432.998 401.812 433.415 400.999 433.925 400.999C434.769 400.999 438.903 394.673 443.192 386.816C444.123 385.11 445.698 382.765 446.692 381.606C447.685 380.447 449.082 378.193 449.796 376.597C451.999 371.67 449.84 371.424 442.346 375.748C438.58 377.921 430.601 382.271 424.616 385.413C418.63 388.555 412.747 391.773 411.542 392.562C409.398 393.967 409.292 393.818 406.69 385.749C405.227 381.211 403.348 374.124 402.516 369.999C399.984 357.46 397.761 349.999 396.557 349.999C395.873 349.999 394.274 356.125 392.577 365.249C388.381 387.809 387.284 393.047 386.614 393.716C386.282 394.048 385.22 393.631 384.254 392.788C382.23 391.022 362.764 379.075 353.951 374.189C349.047 371.47 347.878 371.148 347.404 372.383C346.77 374.036 355.708 388.622 356.73 387.6C357.074 387.256 356.449 385.742 355.34 384.237C354.231 382.731 352.078 379.52 350.555 377.101C348.371 373.632 348.155 372.845 349.531 373.373C351.169 374.002 375.984 389.308 384.266 394.798C386.339 396.172 388.196 397.117 388.394 396.898C388.895 396.343 392.543 378.558 394.681 366.249C395.66 360.611 396.745 355.999 397.093 355.999C397.44 355.999 398.483 359.937 399.411 364.749C402.511 380.83 406.34 395.193 407.664 395.701C408.384 395.977 412.466 394.183 416.736 391.713C428.412 384.958 446.197 375.864 446.715 376.383C446.967 376.634 443.619 382.388 439.276 389.17C428.47 406.042 424.77 412.74 425.877 413.424C426.393 413.743 432.368 414.452 439.156 415C454.978 416.277 467.26 418.141 466.271 419.113C465.498 419.874 447.163 426.263 435.113 429.97C431.602 431.051 428.464 432.2 428.14 432.524C427.816 432.847 428.287 434.324 429.185 435.806C430.084 437.287 432.261 441.199 434.023 444.499C435.786 447.799 438.009 451.399 438.963 452.499C441.256 455.141 447.117 466.213 446.532 466.798C446.28 467.05 443.919 465.908 441.286 464.26C432.265 458.616 417.499 450.264 415.371 449.603C413.58 449.047 412.91 449.654 411.121 453.46C409.954 455.944 408.998 458.327 408.998 458.753C408.998 459.736 400.952 484.375 400.474 484.855C400.279 485.05 399.162 481.9 397.991 477.855C395.71 469.972 391.569 457.243 389.823 452.749C389.236 451.237 388.298 449.999 387.738 449.999C386.521 449.999 371.849 459.588 363.649 465.743C360.431 468.158 357.667 469.991 357.507 469.816C357.346 469.642 360.135 463.424 363.705 455.999C371.464 439.862 374.097 433.178 372.972 432.483C372.514 432.2 368.844 431.53 364.818 430.994C360.792 430.459 354.348 429.307 350.498 428.433C346.648 427.56 341.586 426.597 339.248 426.292C336.911 425.988 334.998 425.46 334.998 425.119C334.998 424.778 342.986 421.827 352.748 418.561C362.511 415.296 370.867 412.317 371.318 411.941C371.77 411.565 370.532 408.725 368.568 405.629C366.605 402.532 363.397 397.475 361.441 394.39C355.717 385.364 356.264 389.04 362.082 398.694C365 403.537 368.026 408.265 368.805 409.202C370.069 410.721 369.947 410.974 367.667 411.546C366.262 411.899 364.567 411.85 363.9 411.439C363.13 410.962 362.948 411.11 363.403 411.844C363.795 412.479 363.946 412.999 363.739 412.999C361.99 412.999 333.179 423.489 332.11 424.516C330.449 426.109 332.649 426.802 349.498 429.992C355.548 431.137 362.125 432.507 364.114 433.037C366.103 433.566 368.667 433.999 369.811 433.999C372.165 433.999 372.03 434.346 359.843 459.62C356.628 466.287 353.998 472.25 353.998 472.87C353.998 474.813 356.491 474.113 360.57 471.027C362.73 469.392 365.012 468.042 365.641 468.027C366.27 468.012 367.038 467.336 367.349 466.527C367.66 465.717 369.456 464.254 371.34 463.277C373.224 462.299 377.274 459.586 380.339 457.249C383.405 454.911 386.327 452.999 386.834 452.999C387.975 452.999 389.01 455.676 393.021 468.999C397.468 483.775 399.408 488.453 401.231 488.805C402.316 489.014 403.043 488.069 403.538 485.805C403.936 483.987 406.253 475.974 408.686 467.999C411.12 460.024 413.16 452.937 413.221 452.249C413.282 451.562 413.47 450.999 413.64 450.999C414.299 450.999 436.026 462.836 437.498 463.997C440.432 466.311 450.259 470.956 451.11 470.43C451.687 470.073 451.134 468.506 449.778 466.659C448.502 464.921 446.828 462.261 446.059 460.749C445.289 459.237 444.286 457.999 443.829 457.999C443.372 457.999 442.998 457.379 442.998 456.62C442.998 455.291 439.938 449.961 433.2 439.553C430.041 434.673 429.165 432.366 430.873 433.422C431.746 433.961 440.599 431.357 442.498 430.002C443.725 429.127 460.489 423.388 464.155 422.588C465.617 422.269 467.417 421.776 468.155 421.492C469.256 421.07 469.472 424.812 469.353 442.238C469.274 453.931 469.101 484.087 468.97 509.249C468.799 542.123 468.418 555.003 467.615 555.014C466.898 555.024 466.856 555.293 467.498 555.764C468.149 556.242 468.5 582.078 468.503 629.749L468.508 702.999H464.358C462.076 702.999 457.17 702.06 453.456 700.913C447.156 698.967 446.314 698.925 440.912 700.286L435.122 701.744L430.403 692.362C427.808 687.202 425.867 682.815 426.091 682.615C426.315 682.414 428.748 681.572 431.498 680.743C447.923 675.791 465.998 669.065 465.998 667.906C465.998 666.447 464.38 666.093 452.916 665.036C440.852 663.925 426.638 662.13 423.808 661.362C422.328 660.959 422.507 660.194 425.244 655.201C426.963 652.065 430.536 646.46 433.184 642.745C435.831 639.031 437.998 635.758 437.998 635.471C437.998 635.185 439.573 632.661 441.498 629.863C447.707 620.836 446.058 620.489 432.601 627.987C426.736 631.255 418.335 635.804 413.931 638.094C409.528 640.385 406.147 642.481 406.418 642.753C407.073 643.407 420.329 637.037 431.306 630.792C436.151 628.037 440.349 626.017 440.636 626.304C441.23 626.897 439.96 629.051 431.97 640.999C425.837 650.171 419.998 660.324 419.998 661.817C419.998 662.908 423.301 663.49 443.88 666.031C452.341 667.076 459.427 668.095 459.628 668.296C460.028 668.696 450.431 672.194 433.748 677.73C427.835 679.692 422.998 681.692 422.998 682.173C422.998 683.455 429.022 695.178 434.924 705.384C437.75 710.27 439.832 714.498 439.55 714.78C439.269 715.061 437.117 714.016 434.768 712.457C428.909 708.568 416.879 701.512 414.748 700.716C411.866 699.639 412.757 700.692 416.748 703.079C418.811 704.313 425.588 708.447 431.809 712.266C442.178 718.632 445.845 720.07 443.299 716.773C442.758 716.072 440.881 712.947 439.128 709.827L435.941 704.155L441.246 702.968C445.927 701.92 447.355 702.029 453.38 703.89C457.136 705.05 462.202 705.999 464.638 705.999H469.068L468.783 726.749L468.498 747.499H442.998C396.635 747.499 113.664 745.815 104.998 745.487C100.323 745.31 75.4612 745.108 49.7482 745.036L2.99825 744.907V725.068V705.229L8.24825 704.576C11.1363 704.217 18.7132 703.574 25.0862 703.147C34.4132 702.523 37.3403 701.946 40.0863 700.189C46.3043 696.21 52.4032 693.707 56.9792 693.256C62.0932 692.752 69.5583 690.531 85.4983 684.771C93.5173 681.873 98.9373 680.588 105.498 680.026C110.448 679.602 115.316 678.913 116.316 678.494C117.316 678.075 123.97 678.534 131.102 679.513C147.352 681.745 148.279 681.499 164.941 670.554C180.511 660.326 180.939 660.103 184.726 660.21C187.852 660.299 188.554 659.877 197.945 652.249C201.007 649.762 204.221 647.999 205.693 647.999C208.868 647.999 213.55 651.901 217.109 657.513C218.624 659.902 220.829 662.374 222.009 663.005C226.857 665.6 234.226 667.047 241.217 666.779C247.303 666.545 248.99 666.846 251.498 668.614C253.148 669.777 261.023 674.126 268.998 678.279C276.973 682.431 285.973 687.209 288.998 688.896C296.491 693.074 302.061 693.013 315.302 688.605C320.91 686.738 326.398 685.019 327.498 684.786C328.598 684.552 333.098 686.142 337.498 688.318C344.037 691.552 346.507 692.26 351.026 692.196C354.066 692.153 357.841 691.629 359.415 691.031C360.988 690.432 362.404 690.071 362.56 690.228C362.717 690.385 359.73 697.202 355.922 705.377C352.114 713.552 348.998 720.868 348.998 721.634C348.998 722.657 349.912 722.425 352.426 720.764C360.66 715.324 371.905 707.464 376.792 703.731C380.55 700.861 382.397 699.998 383.156 700.757C383.744 701.345 385.525 706.906 387.114 713.115C388.704 719.325 390.461 724.862 391.019 725.42C391.577 725.978 391.356 724.199 390.528 721.467C389.7 718.734 388.072 712.674 386.91 707.999C385.748 703.324 384.471 699.151 384.073 698.725C383.675 698.299 381.583 699.163 379.424 700.646C377.265 702.129 370.904 706.428 365.289 710.2C359.673 713.972 354.809 717.495 354.48 718.029C353.298 719.94 351.867 718.988 352.554 716.749C353.247 714.489 360.101 698.919 364.592 689.399C367.452 683.336 367.604 681.314 365.248 680.614C361.017 679.356 336.255 674.999 333.338 674.999C328.006 674.999 328.682 673.367 334.769 671.543C342.322 669.279 365.417 661.792 365.791 661.486C365.953 661.354 364.828 659.173 363.291 656.639C356.253 645.031 349.615 634.455 349.082 633.999C348.17 633.218 343.866 623.798 344.247 623.417C344.434 623.229 350.192 626.623 357.043 630.957C363.893 635.292 371.687 640.225 374.363 641.919C380.158 645.587 381.788 645.754 382.471 642.749C382.752 641.512 383.453 638.474 384.03 635.999C384.606 633.524 386.236 625.874 387.651 618.999C389.066 612.124 390.544 606.151 390.934 605.725C391.325 605.3 394.032 613.4 396.95 623.725C403.932 648.429 405.635 651.509 401.25 631.499C400.406 627.649 399.667 623.262 399.607 621.749C399.547 620.236 399.24 618.999 398.924 618.999C398.35 618.999 394.571 606.941 393.518 601.749C392.895 598.68 390.418 598.046 389.609 600.749C389.12 602.38 384.307 625.063 381.626 638.371L380.442 644.244L377.47 641.843C374.734 639.634 369.416 636.13 364.498 633.297C363.398 632.664 358.156 629.412 352.849 626.072C342.917 619.821 339.221 618.532 340.455 621.749C340.825 622.711 343.348 627.19 346.062 631.7C348.777 636.211 350.998 640.154 350.998 640.462C350.998 640.77 352.911 643.747 355.248 647.077C360.189 654.118 362.967 659.216 362.385 660.173C361.698 661.3 352.108 664.185 351.106 663.566C350.59 663.247 350.018 663.379 349.833 663.859C349.649 664.339 343.536 666.64 336.248 668.971C319.334 674.382 318.744 675.927 332.998 677.476C344.223 678.696 365.977 683.223 365.366 684.212C363.25 687.637 345.998 690.957 345.998 687.94C345.998 687.358 345.583 687.138 345.075 687.451C344.568 687.765 341.038 686.458 337.231 684.548C331 681.421 329.936 681.177 326.563 682.109C324.502 682.678 322.083 682.862 321.188 682.518C320.292 682.175 319.887 682.221 320.288 682.622C321.677 684.011 305.803 688.999 299.992 688.999C298.028 688.999 294.532 687.986 292.223 686.749C289.914 685.511 282.056 681.405 274.761 677.624C267.466 673.842 258.886 669.15 255.693 667.198C250.349 663.929 249.326 663.662 242.809 663.837C232.953 664.102 224.793 661.668 220.982 657.328C219.341 655.459 217.984 653.383 217.967 652.714C217.919 650.808 209.568 644.997 206.9 645.014C205.579 645.022 203.373 645.678 201.998 646.471C200.623 647.264 198.485 648.371 197.248 648.931C196.01 649.491 194.998 650.349 194.998 650.838C194.998 652.42 187.466 656.999 184.864 656.999C181.17 656.999 175.547 660.004 159.154 670.739C153.913 674.17 148.145 677.256 146.336 677.595C144.526 677.935 140.093 677.698 136.484 677.07C132.876 676.442 129.538 676.166 129.067 676.457C128.596 676.748 126.589 676.308 124.608 675.48C121.317 674.105 120.508 674.139 115.252 675.864C112.087 676.904 106.798 677.744 103.498 677.731C98.7513 677.713 93.7403 678.981 79.4983 683.805C69.5983 687.158 59.2552 690.215 56.5152 690.599C50.6672 691.417 46.2572 693.137 40.8742 696.7C37.5032 698.93 35.1182 699.449 23.2372 700.534C15.6812 701.224 8.26025 702.11 6.74825 702.502L3.99825 703.216L3.93125 690.357C3.89425 683.285 3.88825 570.624 3.91725 439.999C3.94625 309.374 3.97025 193.499 3.96925 182.499C3.96825 171.499 3.86225 126.429 3.73325 82.3445C3.60425 38.2595 3.81125 2.38447 4.19525 2.62047C5.06225 3.15647 99.7102 2.97447 162.196 2.31647L208.895 1.82447L208.888 7.66247C208.876 18.4005 213.001 25.6955 221.498 29.9635C229.233 33.8485 236.888 34.7545 244.148 32.6445C255.82 29.2515 261.869 21.5645 262.755 8.99947C263.007 5.42447 263.277 2.43747 263.356 2.36147C263.434 2.28447 305.573 1.90947 356.998 1.52747C408.423 1.14547 450.685 0.644466 450.915 0.415466C451.68 -0.348534 3.51625 0.0184658 2.31325 0.783466ZM456.766 0.724466C458.563 0.946466 461.263 0.942466 462.766 0.714466C464.269 0.485466 462.798 0.303466 459.498 0.309466C456.198 0.314466 454.969 0.501466 456.766 0.724466ZM210.999 6.24947C210.999 9.97647 211.849 13.2945 213.927 17.6875C217.391 25.0095 221.515 28.1605 230.711 30.5095C238.123 32.4025 242.856 31.5105 250.215 26.8315C256.077 23.1055 259.928 15.8595 260.727 7.05647L261.276 0.999466H236.137H210.998L210.999 6.24947ZM220.998 8.99947C220.998 9.54947 221.361 9.99947 221.806 9.99947C222.25 9.99947 223.407 11.7995 224.378 13.9995C225.349 16.1995 226.791 17.9995 227.583 17.9995C228.653 17.9995 228.369 16.9635 226.475 13.9625C225.073 11.7415 224.194 9.49147 224.521 8.96247C224.848 8.43247 224.189 7.99947 223.057 7.99947C221.925 7.99947 220.998 8.44947 220.998 8.99947ZM225.998 8.99947C225.998 9.54947 226.673 9.99947 227.498 9.99947C228.323 9.99947 228.998 9.54947 228.998 8.99947C228.998 8.44947 228.323 7.99947 227.498 7.99947C226.673 7.99947 225.998 8.44947 225.998 8.99947ZM230.998 8.47247C230.998 8.73347 231.986 10.9795 233.194 13.4655C234.665 16.4935 235.65 17.5745 236.178 16.7415C237.305 14.9675 237.183 12.7675 235.998 13.4995C235.06 14.0795 234.555 12.0825 234.923 9.24947C235.013 8.56247 234.166 7.99947 233.042 7.99947C231.918 7.99947 230.998 8.21247 230.998 8.47247ZM236.998 10.0705C236.998 11.9125 237.165 11.9755 238.498 10.6425C239.323 9.81747 239.998 8.88547 239.998 8.57047C239.998 8.25647 239.323 7.99947 238.498 7.99947C237.647 7.99947 236.998 8.89647 236.998 10.0705ZM241.987 9.48547C242.665 10.3035 243.035 12.5535 242.81 14.4855C242.497 17.1685 242.766 17.9995 243.949 17.9995C245.141 17.9995 245.498 16.8475 245.498 12.9995C245.498 8.40447 245.306 7.99947 243.126 7.99947C241.14 7.99947 240.954 8.24147 241.987 9.48547ZM248.491 12.9965C248.496 16.7685 248.866 17.9935 249.998 17.9935C251.13 17.9935 251.5 16.7685 251.505 12.9965C251.511 9.19647 251.15 7.99947 249.998 7.99947C248.846 7.99947 248.485 9.19647 248.491 12.9965ZM74.6363 17.2495C73.8123 21.2375 71.9853 30.9835 70.5763 38.9085C69.1673 46.8325 67.8553 53.4765 67.6603 53.6715C67.4653 53.8665 62.1742 50.9355 55.9022 47.1595C49.6302 43.3825 42.6102 39.3305 40.3022 38.1535C37.9942 36.9765 35.6452 35.2225 35.0822 34.2565C34.5192 33.2905 34.0452 32.8735 34.0282 33.3315C34.0122 33.7885 32.3992 33.1745 30.4452 31.9665C28.4912 30.7595 26.7272 29.9375 26.5242 30.1405C26.3212 30.3435 27.4642 32.7575 29.0642 35.5045C30.6632 38.2515 32.5192 41.6245 33.1862 42.9995C33.8542 44.3745 35.3222 46.8405 36.4492 48.4785C40.8732 54.9115 46.4802 65.2005 46.1732 66.3235C46.0502 66.7775 46.3442 66.9035 46.8272 66.6055C47.3102 66.3065 48.2212 67.1945 48.8522 68.5775C50.4062 71.9885 50.3162 72.3155 47.9972 71.7095C46.8962 71.4215 46.2472 71.5945 46.5562 72.0925C46.8642 72.5915 46.4192 72.9995 45.5682 72.9995C44.7162 72.9995 41.2023 74.0905 37.7593 75.4225C34.3153 76.7555 27.1122 79.1185 21.7512 80.6725C16.1342 82.3015 12.0033 84.0295 12.0013 84.7495C11.9993 85.4375 12.8063 85.9995 13.7933 85.9995C14.7813 85.9995 19.8432 87.0895 25.0432 88.4205C30.2432 89.7525 38.0982 91.3885 42.4982 92.0555C46.8982 92.7225 50.8072 93.5455 51.1862 93.8835C51.5642 94.2225 50.7812 96.7495 49.4452 99.4995C48.1092 102.249 47.0122 105.088 47.0072 105.808C47.0022 106.528 46.5372 106.832 45.9732 106.484C45.4102 106.135 45.0682 106.221 45.2142 106.675C45.7672 108.39 41.8032 116.997 40.7582 116.351C40.1322 115.964 39.9803 116.161 40.3923 116.828C40.7793 117.454 39.4992 121.148 37.5472 125.038C35.5952 128.927 33.9982 132.309 33.9982 132.554C33.9982 133.509 37.2132 132.932 38.4872 131.749C41.1332 129.291 62.8552 114.999 63.9442 114.999C64.3532 114.999 65.5413 114.056 66.5843 112.904L68.4803 110.809L69.3293 114.154C69.7973 115.994 70.2513 118.469 70.3393 119.654C70.4263 120.838 70.8413 121.596 71.2603 121.337C71.6793 121.078 72.2963 122.239 72.6313 123.916C72.9673 125.594 73.5963 126.747 74.0293 126.48C74.4623 126.212 73.6373 122.394 72.1953 117.996C69.8713 110.905 69.3433 110.07 67.5363 110.629C66.4153 110.976 59.2542 115.495 51.6232 120.671C43.9912 125.847 37.6352 129.951 37.4972 129.79C37.3592 129.63 41.0062 121.849 45.6012 112.499C50.1962 103.149 53.9652 94.7735 53.9772 93.8865C53.9932 92.6415 52.2302 91.9985 46.2482 91.0685C35.1272 89.3385 16.9972 84.8105 17.5582 83.9025C17.8202 83.4775 20.6142 82.4015 23.7662 81.5105C32.2852 79.1035 52.4452 72.8225 52.8522 72.4495C53.2882 72.0495 40.6392 50.6955 37.3732 46.3165C36.0672 44.5655 34.9982 42.8345 34.9982 42.4705C34.9982 42.1065 34.0492 40.4755 32.8892 38.8465C29.7912 34.4965 31.2282 34.2965 37.2062 38.2445C40.1172 40.1665 46.6693 44.1605 51.7673 47.1195C56.8653 50.0785 62.8543 53.5605 65.0763 54.8575C67.2983 56.1535 69.2722 57.0535 69.4632 56.8575C69.6542 56.6605 71.2383 48.0055 72.9833 37.6235C74.7283 27.2415 76.5132 17.7915 76.9492 16.6235C77.5772 14.9435 78.3793 16.5875 80.7913 24.4995C82.4673 29.9995 84.3543 37.1995 84.9833 40.4995C86.4013 47.9375 88.9303 55.9995 89.8443 55.9995C90.2213 55.9995 93.6653 54.1675 97.4983 51.9275C105.216 47.4175 126.687 35.9995 127.45 35.9995C128.337 35.9995 126.711 39.4395 123.432 44.4995C114.668 58.0235 105.968 73.3625 106.69 74.0195C107.134 74.4235 111.548 75.0205 116.498 75.3455C131.524 76.3315 146.443 78.1395 147.448 79.0955C148.042 79.6615 147.973 79.9995 147.263 79.9995C145.373 79.9995 140.683 82.0185 141.252 82.5865C142.04 83.3745 152.998 80.0045 152.998 78.9735C152.998 78.4875 151.535 77.8655 149.748 77.5915C141.1 76.2655 139.076 76.0025 133.498 75.4825C130.198 75.1745 126.373 74.7345 124.998 74.5035C123.623 74.2725 119.573 73.7955 115.998 73.4425C112.423 73.0905 109.354 72.6655 109.179 72.4975C108.57 71.9195 112.599 65.7745 115.784 62.4235C116.491 61.6795 117.052 60.7175 117.03 60.2855C117.009 59.8535 117.997 58.1495 119.226 56.4995C120.456 54.8495 121.357 53.0225 121.229 52.4385C121.102 51.8545 121.897 50.4115 122.998 49.2305C124.098 48.0495 124.998 46.4695 124.998 45.7195C124.998 44.9695 126.335 42.5885 127.97 40.4275C130.975 36.4565 131.888 32.9995 129.933 32.9995C129.347 32.9995 124.789 35.2495 119.804 37.9995C114.819 40.7495 110.566 42.9995 110.352 42.9995C110.138 42.9995 105.972 45.2495 101.094 47.9995C96.2153 50.7495 91.8163 52.9995 91.3183 52.9995C90.1073 52.9995 87.7873 44.1495 88.6373 42.7745C89.0373 42.1285 88.8413 41.9785 88.1533 42.4045C87.4313 42.8505 86.9983 42.3875 86.9983 41.1705C86.9983 40.0995 85.8243 35.2355 84.3883 30.3615C82.9533 25.4875 81.6833 20.8245 81.5673 19.9995C81.3643 18.5545 80.8633 17.0765 78.9383 12.2495C77.3883 8.36147 76.1843 9.76047 74.6363 17.2495ZM389.179 18.7005C388.12 25.4035 386.367 34.4815 383.366 48.8105C381.869 55.9545 381.784 56.0905 379.666 54.7265C378.474 53.9585 375.248 52.0655 372.498 50.5205C367.066 47.4675 364.915 46.1285 351.8 37.6335C347.017 34.5345 342.677 31.9995 342.157 31.9995C340.946 31.9995 339.854 34.7685 340.901 35.1845C341.335 35.3575 345.169 40.6745 349.42 46.9995C353.671 53.3245 358.425 60.2945 359.984 62.4885C361.544 64.6835 362.563 66.9335 362.249 67.4885C361.934 68.0445 362.03 68.1815 362.462 67.7925C362.893 67.4025 364.048 68.0745 365.027 69.2845C366.806 71.4805 366.8 71.4865 361.153 73.1445C350.524 76.2665 324.998 85.3765 324.998 86.0485C324.998 86.4175 329.835 87.6465 335.748 88.7795C345.337 90.6175 349.615 91.3515 363.209 93.4915C367.54 94.1725 367.627 93.6365 360.958 107.346C358.497 112.406 356.328 115.703 355.71 115.321C355.083 114.933 354.888 115.269 355.227 116.153C355.54 116.968 354.273 120.755 352.411 124.567C349.088 131.374 348.189 134.999 349.823 134.999C350.277 134.999 353.315 132.912 356.573 130.36C359.832 127.809 364.973 124.135 367.998 122.196C371.023 120.257 373.723 118.403 373.998 118.076C374.273 117.748 376.417 116.236 378.763 114.715L383.029 111.95L383.941 114.35C384.443 115.67 385.363 118.719 385.985 121.125C387.095 125.42 389.777 131.999 390.418 131.999C390.735 131.999 387.888 119.496 386.205 113.499C385.691 111.665 384.604 110.386 383.409 110.209C382.205 110.031 376.477 113.612 368.477 119.547C355.462 129.202 351.998 131.515 351.998 130.553C351.998 130.268 355.879 122.172 360.622 112.562C365.365 102.951 369.021 94.5015 368.745 93.7835C368.42 92.9355 361.954 91.4895 350.297 89.6565C340.426 88.1045 331.786 86.4865 331.095 86.0595C330.325 85.5835 333.25 84.2365 338.669 82.5705C348.837 79.4445 367.204 73.1275 367.771 72.5605C368.335 71.9965 366.27 68.5615 358.998 57.9685C351.081 46.4355 345.035 36.6285 345.535 36.1295C345.738 35.9265 349.252 38.0415 353.345 40.8305C363.213 47.5555 381.764 58.9995 382.798 58.9995C383.249 58.9995 384.655 53.7125 385.922 47.2495C387.189 40.7875 389.049 31.2875 390.054 26.1405C391.06 20.9925 392.091 16.5735 392.345 16.3185C392.6 16.0645 393.101 17.1905 393.459 18.8205C394.54 23.7445 397.676 31.3325 398.238 30.3855C398.527 29.8985 397.553 25.6755 396.073 21.0015C392.564 9.92347 390.667 9.29047 389.179 18.7005ZM221.811 17.6825C222.532 17.9715 223.395 17.9355 223.727 17.6035C224.059 17.2715 223.469 17.0355 222.415 17.0785C221.25 17.1265 221.013 17.3635 221.811 17.6825ZM185.748 28.6615C186.436 28.9395 187.561 28.9395 188.248 28.6615C188.936 28.3845 188.373 28.1575 186.998 28.1575C185.623 28.1575 185.061 28.3845 185.748 28.6615ZM198.505 33.9885C198.155 34.5545 198.556 34.7225 199.446 34.3815C201.178 33.7165 201.495 32.9995 200.057 32.9995C199.539 32.9995 198.841 33.4445 198.505 33.9885ZM398.438 37.7495C398.805 40.3615 399.506 43.8495 399.996 45.4995C400.485 47.1495 401.371 50.3855 401.964 52.6895L403.043 56.8795L410.77 53.2165C415.021 51.2015 422.773 47.2385 427.998 44.4105C442.463 36.5815 442.833 36.5825 437.752 44.4475C429.813 56.7355 419.998 74.1265 419.998 75.9035C419.998 76.5215 421.802 76.9995 424.136 76.9995C428.235 76.9995 447.323 78.6155 455.998 79.6965C460.362 80.2405 459.955 80.4345 442.545 86.1175C432.67 89.3405 424.052 92.5455 423.393 93.2385C422.452 94.2295 423.944 97.3895 430.362 107.999C434.853 115.424 439.369 122.751 440.398 124.28C442.677 127.668 441.937 128.77 438.84 126.601C435.75 124.436 432.698 124.444 435.498 126.609C438.542 128.963 445.127 132.204 445.7 131.63C445.98 131.35 443.885 127.157 441.045 122.31C435.585 112.995 435.228 112.392 430.484 104.508C426.043 97.1285 424.822 94.8355 425.179 94.5395C425.953 93.8965 439.001 89.0185 443.998 87.5035C459.756 82.7285 466.184 80.4015 466.112 79.4995C466.069 78.9495 464.113 78.3865 461.766 78.2495C455.507 77.8815 423.535 74.8615 423.282 74.6135C422.845 74.1835 427.803 65.1895 434.555 54.1625C447.634 32.8045 447.711 31.2895 435.363 38.2865C428.029 42.4425 405.462 53.9995 404.681 53.9995C404.489 53.9995 404.294 53.4375 404.247 52.7495C404.201 52.0625 403.134 47.3365 401.877 42.2495C399.464 32.4865 397.301 29.6565 398.438 37.7495ZM135.998 83.9995C135.998 85.2525 137.059 85.2525 138.998 83.9995C140.211 83.2155 140.067 83.0275 138.248 83.0145C137.01 83.0065 135.998 83.4495 135.998 83.9995ZM131.498 84.5075C130.948 84.6995 125.773 86.2885 119.998 88.0375C114.223 89.7865 109.132 91.5575 108.685 91.9725C107.926 92.6755 120 114.841 125.732 123.267C127.142 125.34 128.083 127.247 127.824 127.507C127.565 127.766 122.21 125 115.925 121.36C96.5623 110.146 94.5343 109.036 93.3783 109.017C92.7623 109.007 91.0593 113.936 89.5943 119.971C86.9253 130.96 82.6053 143.727 80.9953 145.379C80.5123 145.875 79.8403 144.674 79.4563 142.629C79.0823 140.633 78.4233 138.999 77.9933 138.999C77.0053 138.999 78.7883 147.172 80.0553 148.449C80.6513 149.049 81.3182 149.049 81.8662 148.449C83.0252 147.181 90.0863 126.83 91.1743 121.622C91.6483 119.354 92.1673 117.049 92.3283 116.499C93.4893 112.525 94.2653 110.999 95.1243 110.999C95.6703 110.999 95.7953 111.519 95.4033 112.154C94.9693 112.855 95.1273 113.037 95.8073 112.617C96.4223 112.237 97.9513 112.952 99.2063 114.207C100.461 115.462 102.085 116.351 102.817 116.183C103.548 116.015 104.675 116.307 105.322 116.832C105.969 117.356 108.073 118.681 109.998 119.775C111.923 120.869 117.098 123.839 121.498 126.374C125.898 128.91 130.061 130.987 130.748 130.992C132.246 131 132.421 128.378 130.982 127.489C130.423 127.143 130.224 126.442 130.541 125.93C130.857 125.418 130.736 124.999 130.273 124.999C129.071 124.999 125.922 119.408 126.691 118.639C127.043 118.287 126.839 117.999 126.238 117.999C125.28 117.999 121.882 112.918 116.998 104.182C116.173 102.706 115.253 101.274 114.953 100.999C114.654 100.724 113.45 98.8435 112.278 96.8185L110.147 93.1385L121.823 89.4815C132.581 86.1125 137.59 83.8805 133.948 84.0785C133.151 84.1215 132.048 84.3145 131.498 84.5075ZM229.473 111.749C229.134 113.812 228.029 119.999 227.018 125.499C226.007 130.999 224.681 139.324 224.071 143.999C222.984 152.334 220.334 166.034 219.236 168.999C218.931 169.824 218.781 170.923 218.904 171.442C219.026 171.96 218.229 176.235 217.133 180.942C216.036 185.648 214.609 192.251 213.96 195.615C212.315 204.153 211.795 204.771 208.461 202.149C206.958 200.966 205.226 199.98 204.613 199.957C202.565 199.881 183.494 186.217 183.773 185.025C183.924 184.379 183.589 184.134 183.029 184.48C182.468 184.826 180.502 183.96 178.659 182.554C176.817 181.149 174.897 179.999 174.393 179.999C173.89 179.999 172.341 178.987 170.951 177.749C169.561 176.512 167.766 175.351 166.961 175.17C166.156 174.989 164.823 174.274 163.998 173.58C161.971 171.876 143.945 161.999 142.861 161.999C142.386 161.999 141.998 161.474 141.998 160.832C141.998 160.191 141.716 159.948 141.371 160.293C141.026 160.637 137.196 159.068 132.859 156.805C128.522 154.542 124.665 152.998 124.288 153.375C123.528 154.136 125.462 157.8 130.887 165.874C137.92 176.343 144.599 188.059 144.223 189.266C144.072 189.751 144.329 189.913 144.793 189.625C145.258 189.338 147.133 191.667 148.959 194.801C150.785 197.935 153.646 202.749 155.316 205.499C156.987 208.249 159.081 211.849 159.971 213.499C162.278 217.777 166.454 224.402 172.019 232.611L176.841 239.724L160.669 244.987C151.775 247.882 140.898 251.364 136.498 252.725C132.098 254.085 125.909 256.054 122.744 257.099C119.579 258.144 116.275 258.999 115.401 258.999C114.528 258.999 110.367 260.236 106.155 261.747C91.4013 267.042 104.607 265.225 122.498 259.499C124.698 258.795 133.923 255.892 142.998 253.049C170.76 244.349 178.459 241.778 179.445 240.873C180.028 240.339 179.571 238.944 178.26 237.252C175.892 234.196 156.995 203.938 154.994 199.999C154.295 198.624 151.214 193.674 148.147 188.999C141.02 178.136 129.058 158.606 129.351 158.312C129.704 157.96 150.403 168.567 158.339 173.167C162.276 175.449 172.248 181.919 180.498 187.544C192.858 195.972 212.323 207.999 213.603 207.999C214.581 207.999 225.207 155.765 227.131 141.499C227.799 136.549 229.062 128.475 229.938 123.556L231.53 114.613L235.251 128.556C239.015 142.664 241.839 154.688 246.51 176.499C252.422 204.111 253.175 206.999 254.456 206.999C255.615 206.999 271.069 199.078 293.498 186.989C297.898 184.618 306.673 179.651 312.998 175.951C325.191 168.819 339.998 160.957 339.998 161.614C339.998 161.831 335.354 169.318 329.678 178.253C305.706 215.989 301.774 222.33 296.383 231.944C293.266 237.502 290.897 242.231 291.118 242.452C291.63 242.965 307.769 245.696 314.998 246.493C318.023 246.827 322.973 247.501 325.998 247.992C330.67 248.749 346.053 250.213 374.748 252.631C378.186 252.921 380.985 253.46 380.968 253.829C380.937 254.539 362.165 260.748 342.998 266.387C330.92 269.941 298.119 281.738 296.629 283.063C295.169 284.363 312.3 315.318 326.755 337.499C339.192 356.584 341.728 360.798 339.923 359.38C339.139 358.765 331.298 354.523 322.498 349.953C313.698 345.384 301.773 338.727 295.998 335.16C276.295 322.99 265.06 316.761 263.73 317.271C263 317.552 260.308 324.693 257.749 333.14C249.916 358.994 239.998 393.938 239.998 395.681C239.998 398.895 238.492 395.756 236.397 388.176C235.23 383.954 230.821 369.699 226.6 356.499C222.379 343.299 218.226 329.799 217.372 326.499C215.621 319.732 214.314 317.664 212.282 318.444C208.896 319.743 165.901 349.532 154.135 358.731L146.164 364.963L154.458 347.731C159.019 338.253 163.088 329.406 163.499 328.07C163.91 326.734 167.341 319.16 171.122 311.239C174.904 303.318 177.998 296.529 177.998 296.153C177.998 295.777 178.934 293.723 180.078 291.588C184.168 283.957 184.276 283.055 181.235 281.895C179.729 281.321 171.973 279.99 163.998 278.938C156.023 277.886 146.123 276.367 141.998 275.562C127.842 272.801 112.496 269.965 109.498 269.556C101.682 268.491 95.7823 266.75 97.1183 265.904C98.1533 265.248 97.9553 265.026 96.3303 265.014C93.1303 264.992 90.9983 266.028 90.9983 267.606C90.9983 268.372 91.1623 268.999 91.3623 268.999C91.5613 268.999 94.1493 269.46 97.1123 270.023C100.074 270.587 104.523 271.279 106.998 271.562C112.129 272.15 134.295 276.283 143.998 278.461C151.686 280.188 162.161 281.792 170.498 282.52C177.43 283.126 179.998 283.79 179.998 284.977C179.998 286.979 174.193 297.868 173.473 297.217C173.035 296.822 172.977 297.023 173.344 297.663C174.202 299.162 165.588 318.23 164.499 317.243C164.047 316.834 163.971 317.013 164.33 317.641C164.689 318.27 163.93 321.195 162.643 324.141C161.357 327.088 159.455 331.524 158.418 333.999C157.381 336.474 153.234 345.135 149.203 353.245C145.173 361.355 142.154 368.442 142.494 368.993C142.852 369.571 145.574 368.324 148.934 366.042C152.136 363.868 155.107 362.407 155.537 362.794C155.967 363.182 156.014 362.967 155.642 362.317C154.874 360.978 172.592 347.29 174.392 347.832C175 348.016 175.175 347.843 174.78 347.448C174.091 346.759 182.925 340.284 183.983 340.703C184.266 340.815 185.848 339.654 187.498 338.124C189.148 336.593 193.198 333.617 196.498 331.511C199.798 329.404 204.298 326.494 206.498 325.043C212.438 321.125 213.998 320.696 213.998 322.981C213.998 324.77 217.336 336.18 222.112 350.717C223.236 354.137 223.892 357.361 223.57 357.882C223.249 358.402 223.338 358.979 223.769 359.164C224.536 359.492 229.34 374.13 234.873 392.999C236.586 398.844 238.17 402.499 238.989 402.499C240.556 402.499 242.811 396.775 242.928 392.499C242.973 390.849 243.646 388.28 244.423 386.791C245.2 385.302 246.37 381.477 247.024 378.291C247.677 375.105 249.063 370.391 250.105 367.814C251.146 365.237 251.998 361.984 251.998 360.586C251.998 359.188 253.123 355.056 254.498 351.403C255.873 347.75 256.996 344.027 256.993 343.13C256.99 342.233 258.302 338.124 259.909 333.999C261.516 329.874 263.102 325.261 263.433 323.749C264.128 320.579 266.147 320.302 270.186 322.822C271.664 323.744 277.514 327.282 283.186 330.684C288.857 334.086 294.492 337.799 295.706 338.934C296.921 340.07 298.392 340.999 298.976 340.999C299.56 340.999 301.716 342.012 303.768 343.251C305.819 344.489 310.198 346.852 313.498 348.501C316.798 350.15 319.649 351.839 319.833 352.255C320.018 352.671 320.504 352.804 320.913 352.551C321.736 352.043 335.905 359.101 340.241 362.178C343.98 364.832 345.405 363.695 343.355 359.692C342.455 357.936 341.219 356.168 340.608 355.764C339.998 355.36 339.839 355.023 340.256 355.014C340.672 355.006 339.097 352.267 336.756 348.928C330.791 340.424 327.263 334.994 325.432 331.499C324.567 329.849 323.148 327.149 322.277 325.499C321.406 323.849 319.637 321.227 318.346 319.672C317.054 318.118 315.998 316.406 315.998 315.869C315.998 315.332 314.893 313.267 313.542 311.279C312.192 309.291 311.318 307.29 311.601 306.832C311.884 306.374 311.701 305.999 311.194 305.999C310.687 305.999 308.748 303.034 306.885 299.41C305.022 295.786 302.531 290.949 301.349 288.66L299.201 284.499L302.349 283.144C304.081 282.398 306.173 281.645 306.998 281.469C307.823 281.294 312.773 279.492 317.998 277.467C323.223 275.441 329.298 273.234 331.498 272.563C333.698 271.892 336.848 270.783 338.498 270.099C340.148 269.416 344.227 268.223 347.562 267.449C353.062 266.173 360.089 263.985 363.998 262.331C364.823 261.982 366.173 261.573 366.998 261.422C370.204 260.834 383.671 256.719 386.894 255.342C388.766 254.543 389.888 253.527 389.394 253.08C388.257 252.049 375.899 250.186 365.498 249.477C338.707 247.651 294.998 242 294.998 240.362C294.998 239.731 301.038 228.898 303.705 224.745C305.204 222.41 306.466 220.274 306.507 219.999C306.549 219.724 308.364 216.873 310.541 213.664C312.717 210.455 315.188 206.6 316.032 205.097C316.875 203.594 318.563 201.097 319.782 199.547C321.001 197.997 321.998 196.344 321.998 195.874C321.998 195.403 324.023 192.061 326.498 188.446C328.973 184.83 331.011 181.564 331.026 181.186C331.09 179.597 336.772 173.099 337.511 173.768C337.955 174.17 338.014 173.967 337.641 173.317C337.268 172.666 338.767 169.291 340.971 165.817C345.27 159.04 345.86 156.999 343.521 156.999C342.172 156.999 331.87 162.138 329.498 163.995C328.948 164.425 324.898 166.772 320.498 169.21C316.098 171.649 308.057 176.22 302.629 179.369C297.202 182.518 292.551 184.885 292.295 184.629C292.039 184.373 290.955 184.914 289.887 185.831C288.819 186.748 280.646 191.346 271.724 196.047L255.501 204.596L254.283 201.052C253.613 199.102 252.982 195.481 252.882 193.003C252.781 190.526 252.143 187.107 251.465 185.406C249.994 181.718 248.019 173.061 247.379 167.499C247.127 165.299 246.191 161.024 245.301 157.999C244.411 154.974 243.344 150.474 242.93 147.999C242.516 145.524 241.261 140.124 240.14 135.999C239.02 131.874 237.889 127.374 237.627 125.999C237.365 124.624 236.216 120.628 235.074 117.119C233.932 113.61 232.998 110.122 232.998 109.369C232.998 108.615 232.343 107.999 231.543 107.999C230.639 107.999 229.856 109.417 229.473 111.749ZM406.106 111.797C405.577 112.786 404.202 117.174 403.052 121.547C399.95 133.34 396.46 144.871 395.788 145.542C395.463 145.867 394.668 144.528 394.02 142.566C393.373 140.604 392.455 138.999 391.981 138.999C390.774 138.999 394.4 149.3 395.768 149.756C396.384 149.961 397.367 148.191 397.956 145.814C398.545 143.441 400.09 138.124 401.389 133.999C402.688 129.874 404.762 123.236 406 119.249C407.237 115.262 408.53 112.001 408.873 112.003C409.217 112.005 414.809 114.887 421.299 118.407C427.79 121.927 432.94 124.324 432.743 123.735C432.261 122.287 410.943 110.11 408.783 110.048C407.84 110.021 406.635 110.808 406.106 111.797ZM74.0843 128.499C74.1883 130.393 75.8543 133.583 75.9123 131.999C75.9433 131.174 75.5313 129.824 74.9983 128.999C74.4653 128.174 74.0533 127.949 74.0843 128.499ZM76.4983 136.999C76.8383 137.549 77.3143 137.999 77.5573 137.999C77.8003 137.999 77.9983 137.549 77.9983 136.999C77.9983 136.449 77.5213 135.999 76.9393 135.999C76.3573 135.999 76.1583 136.449 76.4983 136.999ZM64.8113 189.682C65.5323 189.971 66.3952 189.935 66.7272 189.603C67.0592 189.271 66.4693 189.035 65.4153 189.078C64.2503 189.126 64.0133 189.363 64.8113 189.682ZM56.5622 203.706C56.0202 205.131 56.1342 205.246 57.1222 204.266C57.8062 203.587 58.1132 202.78 57.8052 202.473C57.4972 202.165 56.9382 202.72 56.5622 203.706ZM51.5622 212.706C51.0202 214.131 51.1342 214.246 52.1222 213.266C52.8062 212.587 53.1132 211.78 52.8052 211.473C52.4972 211.165 51.9382 211.72 51.5622 212.706ZM428.077 250.582C428.125 251.747 428.362 251.984 428.681 251.187C428.97 250.465 428.934 249.602 428.602 249.27C428.27 248.938 428.034 249.528 428.077 250.582ZM470.23 297.999C470.23 299.924 470.436 300.711 470.687 299.749C470.939 298.787 470.939 297.211 470.687 296.249C470.436 295.287 470.23 296.074 470.23 297.999ZM470.38 313.499C470.382 320.099 470.544 322.669 470.739 319.21C470.935 315.751 470.934 310.351 470.736 307.21C470.538 304.069 470.378 306.899 470.38 313.499ZM470.443 357.999C470.443 375.324 470.58 382.412 470.746 373.749C470.913 365.086 470.913 350.912 470.746 342.249C470.58 333.586 470.443 340.674 470.443 357.999ZM82.5793 364.249C82.0593 366.068 79.4803 379.634 76.9223 393.999C75.6983 400.874 74.5813 406.645 74.4403 406.823C74.1423 407.199 68.2013 404.214 66.5923 402.879C61.4263 398.592 34.1852 383.478 33.2722 384.392C32.9962 384.667 35.0772 388.629 37.8952 393.196C40.7142 397.763 46.1162 406.668 49.9012 412.985L56.7822 424.47L53.6402 425.792C51.9122 426.52 45.5482 428.68 39.4982 430.593C33.4482 432.506 26.1352 434.823 23.2482 435.742C20.3602 436.661 17.9982 437.958 17.9982 438.623C17.9982 439.92 25.0622 441.845 33.9982 442.983C39.5612 443.691 57.1412 447.17 57.9222 447.717C58.1552 447.88 57.4062 449.922 56.2582 452.256C55.1102 454.59 52.7203 459.649 50.9473 463.499C49.1753 467.349 46.2052 473.709 44.3482 477.632C39.5132 487.845 40.5132 489.11 48.8442 483.32C52.5042 480.777 56.8482 477.603 58.4982 476.267C65.8562 470.31 74.1773 463.999 74.6733 463.999C74.9713 463.999 74.9273 465.237 74.5763 466.749C74.1363 468.644 74.2313 469.057 74.8833 468.077C75.5943 467.008 76.1143 467.715 76.9803 470.932C77.6133 473.284 77.8823 475.86 77.5763 476.656C77.2663 477.463 77.4583 477.833 78.0093 477.492C78.5533 477.156 78.9983 477.47 78.9993 478.19C79.0003 480.629 86.1023 501.49 87.3693 502.779C88.3893 503.815 88.8403 503.625 89.7423 501.779C91.8693 497.424 99.9983 469.48 99.9983 466.524C99.9983 465.404 102.289 466.216 108.748 469.625C113.561 472.164 118.173 474.806 118.998 475.494C119.823 476.182 123.973 478.377 128.22 480.372C135.534 483.808 139.599 484.912 138.808 483.249C135.77 476.857 133.239 472.226 132.164 471.094C131.431 470.321 130.418 468.746 129.913 467.594C129.409 466.442 127.213 462.799 125.035 459.499C122.856 456.199 120.634 452.53 120.097 451.346C119.561 450.162 118.644 448.898 118.06 448.537C116.486 447.565 116.769 446.308 118.748 445.486C125.206 442.804 137.796 438.523 144.998 436.559C156.063 433.542 159.257 432.227 158.499 431.001C158.159 430.45 156.107 429.999 153.939 429.999C151.771 429.999 149.993 429.662 149.988 429.249C149.982 428.836 145.594 428.375 140.238 428.224C134.881 428.073 127.091 427.398 122.927 426.724L115.356 425.499L123.048 412.787C127.279 405.795 131.096 400.395 131.53 400.787C131.964 401.179 132.046 401.018 131.712 400.431C131.378 399.844 132.179 398.205 133.492 396.789C134.805 395.373 135.648 393.982 135.365 393.699C135.082 393.416 135.559 391.815 136.424 390.142C137.29 388.468 137.998 386.851 137.998 386.549C137.998 385.645 134.473 385.927 133.448 386.912C132.273 388.042 97.2123 405.999 96.1803 405.999C95.7703 405.999 95.3333 404.761 95.2103 403.249C95.0863 401.737 94.3533 398.474 93.5813 395.999C92.8083 393.524 91.8893 390.208 91.5383 388.631C91.1883 387.054 90.6213 386.043 90.2793 386.384C89.5033 387.16 94.1753 408.999 95.1183 408.999C95.4963 408.999 98.6623 407.376 102.152 405.393C108.214 401.948 133.9 388.999 134.67 388.999C135.294 388.999 130.927 397.2 127.215 402.999C125.279 406.024 122.716 410.074 121.52 411.999C120.323 413.924 118.175 417.299 116.746 419.499C111.86 427.02 112.036 427.228 124.498 428.637C130.548 429.321 139.465 430.193 144.314 430.574C149.163 430.955 152.763 431.599 152.314 432.005C151.865 432.41 148.798 433.518 145.498 434.467C131.688 438.438 114.998 444.366 114.998 445.299C114.998 446.521 122.275 459.355 129.738 471.296C132.762 476.135 134.987 480.343 134.682 480.648C134.145 481.186 130.427 479.256 109.552 467.608C104.081 464.556 99.4703 462.194 99.3053 462.359C99.1393 462.525 98.9213 463.974 98.8193 465.58C98.7183 467.185 98.3093 468.949 97.9113 469.499C97.5133 470.049 96.4373 473.199 95.5193 476.499C92.8513 486.097 88.8092 498.433 88.0602 499.262C87.4222 499.969 82.4103 484.257 78.4062 468.999C77.4682 465.424 76.3423 462.096 75.9033 461.603C75.4553 461.099 73.6633 461.889 71.8023 463.412C68.7323 465.925 54.5032 476.541 47.1842 481.779C45.4322 483.033 43.9982 483.826 43.9982 483.542C43.9982 483.258 46.5202 477.732 49.6032 471.262C58.1472 453.333 61.0612 446.011 59.6912 445.917C57.2422 445.748 52.1172 444.791 38.3662 441.935C30.5932 440.32 23.9552 438.999 23.6162 438.999C23.2762 438.999 22.9982 438.602 22.9982 438.118C22.9982 437.633 25.1352 436.706 27.7482 436.057C34.1302 434.472 54.9132 427.995 57.7222 426.715L59.9702 425.691L57.7943 422.095C56.5973 420.117 51.6492 412.113 46.7992 404.307C41.9482 396.502 37.7102 389.412 37.3802 388.552C37.0032 387.571 39.0403 388.387 42.8493 390.744C46.1883 392.809 53.3242 397.237 58.7082 400.584C64.0932 403.931 70.1243 407.643 72.1123 408.832L75.7253 410.994L77.3623 402.746C78.2633 398.21 78.9993 393.234 78.9993 391.687C78.9983 388.291 83.0383 369.835 84.0373 368.675C84.4273 368.222 85.5193 371.004 86.4643 374.859C87.4083 378.714 88.8522 382.684 89.6712 383.683C91.0932 385.415 91.1313 385.407 90.5103 383.499C90.1533 382.399 89.4503 379.349 88.9503 376.722C88.4493 374.095 87.5552 371.04 86.9632 369.934C86.3712 368.828 86.1853 366.984 86.5503 365.836C86.9943 364.437 86.8473 363.974 86.1053 364.433C85.4963 364.809 84.9983 364.64 84.9983 364.058C84.9983 362.574 83.0123 362.731 82.5793 364.249ZM236.729 468.919C236.294 470.582 236.424 470.973 237.166 470.231C237.748 469.649 238.026 468.584 237.786 467.862C237.536 467.113 237.083 467.567 236.729 468.919ZM290.599 485.749C289.519 489.294 282.998 522.886 282.998 524.908C282.998 526.058 282.436 526.991 281.748 526.981C280.603 526.964 266.15 518.034 261.545 514.499C260.47 513.674 259.206 512.999 258.736 512.999C258.265 512.999 258.201 512.479 258.593 511.844C259.049 511.108 258.866 510.962 258.089 511.442C257.42 511.856 256.113 511.536 255.185 510.732C252.964 508.805 242.844 503.82 242.286 504.378C241.645 505.019 244.623 510.617 249.533 517.999C257.983 530.706 265.938 544.458 265.224 545.125C264.824 545.497 259.998 546.994 254.498 548.452C248.998 549.91 242.248 551.848 239.498 552.76C236.748 553.671 234.273 554.47 233.998 554.535C233.723 554.601 231.788 555.011 229.698 555.447C224.551 556.521 225.019 559.243 230.511 560.177C237.313 561.332 248.468 564.389 249.09 565.268C249.415 565.728 250.093 565.968 250.596 565.802C252.28 565.245 266.998 570.336 266.998 571.475C266.998 572.093 266.58 573.026 266.068 573.549C265.557 574.071 261.481 581.699 257.011 590.499C250.596 603.129 249.218 606.568 250.47 606.828C251.341 607.009 253.629 605.774 255.554 604.084C257.479 602.394 260.729 600.096 262.776 598.978C264.823 597.859 270.323 594.283 274.998 591.032C279.673 587.78 283.806 585.43 284.182 585.809C285.086 586.722 292.998 613.986 292.998 616.19C292.998 618.327 295.075 622.999 296.025 622.999C296.413 622.999 297.738 620.187 298.971 616.749C300.204 613.312 302.215 607.799 303.441 604.499C304.667 601.199 306.503 595.799 307.522 592.499C308.541 589.199 309.492 586.335 309.634 586.135C309.776 585.935 311.596 586.824 313.678 588.11C315.76 589.397 318.057 590.537 318.781 590.643C319.505 590.75 320.813 591.43 321.687 592.156C322.562 592.882 325.577 594.635 328.388 596.051C331.198 597.467 336.198 600.097 339.498 601.895C344.217 604.466 345.563 604.848 345.801 603.685C346.061 602.417 339.289 588.435 336.993 585.499C336.563 584.949 334.769 581.799 333.006 578.499C331.243 575.199 328.947 571.099 327.904 569.388L326.007 566.278L336.253 563.088C356.489 556.789 366.399 553.295 366.714 552.35C367.134 551.092 351.806 548.194 340.998 547.487C336.323 547.181 330.369 546.68 327.768 546.374C323.591 545.882 323.211 545.644 324.518 544.336C325.332 543.522 325.998 542.431 325.998 541.912C325.998 541.393 328.181 537.938 330.849 534.234C335.219 528.167 338.778 522.236 344.168 512.038C345.962 508.644 346.528 505.999 345.459 505.999C344.413 505.999 328.464 513.401 325.998 515.03C324.623 515.939 322.148 517.364 320.498 518.197C318.848 519.029 314.544 521.332 310.934 523.314L304.371 526.918L303.154 523.554C302.485 521.704 301.758 517.968 301.539 515.252C301.319 512.536 300.156 506.756 298.955 502.407C297.753 498.057 296.133 492.136 295.356 489.249C293.932 483.962 291.655 482.286 290.599 485.749ZM291.258 491.046C290.664 493.495 289.882 497.524 289.52 499.999C288.833 504.706 283.967 529.367 283.67 529.656C283.182 530.129 273.302 524.533 260.801 516.702C253.078 511.864 246.571 508.093 246.341 508.322C246.112 508.552 248.447 512.736 251.532 517.619C263.441 536.477 267.998 544.173 267.998 545.432C267.998 546.242 263.711 547.961 256.748 549.945C250.561 551.708 242.247 554.079 238.274 555.213C231.685 557.094 229.478 558.999 233.889 558.999C234.864 558.999 238.549 559.867 242.08 560.928C245.61 561.989 252.998 564.074 258.498 565.563C263.998 567.052 268.816 568.55 269.206 568.892C269.595 569.234 266.095 577.048 261.429 586.257C256.762 595.465 253.164 602.999 253.433 602.999C253.875 602.999 257.172 600.727 277.637 586.321C281.014 583.944 284.046 581.999 284.374 581.999C285.682 581.999 290.399 596.929 294.801 614.999L295.654 618.499L297.172 615.499C298.814 612.254 303.012 599.841 305.458 590.999C306.295 587.974 307.367 584.906 307.839 584.182C308.498 583.173 312.534 584.979 325.098 591.906C334.118 596.878 341.632 600.555 341.796 600.078C341.96 599.6 337.798 591.716 332.546 582.557C327.295 573.399 322.998 565.76 322.998 565.582C322.998 565.022 337.052 560.296 348.498 557.008C354.548 555.269 360.173 553.601 360.998 553.3C363.676 552.323 357.707 551.248 339.766 549.478C330.269 548.541 322.103 547.408 321.621 546.96C320.682 546.088 322.252 543.206 330.588 530.499C338.161 518.955 343.058 509.999 341.796 509.999C341.195 509.999 333.007 513.896 323.601 518.658C314.194 523.421 305.724 527.691 304.778 528.148C302.298 529.346 301.755 527.829 297.564 507.999C292.901 485.932 292.657 485.276 291.258 491.046ZM90.5613 522.101C90.8723 522.604 90.4483 526.499 89.6203 530.757C88.7913 535.015 87.8262 540.974 87.4762 543.999C86.8582 549.334 86.3333 551.883 84.0413 560.697L82.9492 564.896L76.7233 561.05C73.2993 558.935 67.7553 555.696 64.4033 553.852C61.0513 552.008 55.1232 548.586 51.2292 546.249C43.8692 541.831 41.9982 541.203 41.9982 543.153C41.9982 544.621 48.5932 556.52 51.6652 560.593C52.9482 562.295 53.9982 564.001 53.9982 564.384C53.9982 564.767 54.8373 566.299 55.8633 567.789C59.6463 573.285 64.9983 581.855 64.9983 582.418C64.9983 582.738 64.4093 582.999 63.6893 582.999C62.9693 582.999 61.5073 583.646 60.4393 584.437C58.6913 585.732 58.8962 585.784 62.4982 584.961C64.6982 584.458 66.8363 584.036 67.2483 584.023C68.6323 583.979 68.0163 581.647 66.0703 579.563C65.0103 578.428 62.6482 574.934 60.8202 571.8C58.9932 568.665 54.8623 561.776 51.6413 556.49C48.4203 551.204 45.9453 546.729 46.1413 546.544C46.8013 545.923 55.4023 550.637 69.4983 559.346C77.1983 564.103 83.7873 567.996 84.1403 567.997C85.0053 568 85.6513 565.078 87.0103 554.999C87.6413 550.324 89.0223 542.674 90.0793 537.999C91.1363 533.324 92.0003 528.622 91.9993 527.549C91.9963 521.959 95.8412 533.491 99.5882 550.306C101.438 558.609 103.269 563.372 102.545 557.999C101.051 546.907 100.078 541.746 98.6583 537.383C97.7833 534.697 96.8033 531.149 96.4803 529.499C96.1573 527.849 95.7913 526.049 95.6673 525.499C95.2173 523.503 93.9883 522.23 92.0123 521.713C90.9033 521.423 90.2503 521.597 90.5613 522.101ZM137.998 546.873C134.973 548.41 126.873 552.745 119.998 556.507C113.123 560.27 106.452 563.897 105.174 564.568C103.755 565.313 103.272 566.05 103.935 566.46C104.533 566.83 113.439 562.624 123.726 557.115C134.014 551.606 142.615 547.282 142.839 547.507C143.064 547.732 141.665 550.3 139.73 553.215C134.421 561.214 120.998 583.306 120.998 584.045C120.998 584.402 122.423 584.735 124.165 584.785C125.907 584.834 130.295 585.327 133.915 585.88C137.536 586.433 144.323 587.426 148.998 588.086C161.274 589.82 162.167 590.292 156.87 592.249C154.466 593.137 147.904 595.258 142.288 596.962C136.673 598.666 131.809 600.496 131.479 601.03C130.69 602.307 132.214 602.256 135.683 600.89C137.231 600.28 140.073 599.558 141.998 599.286C143.923 599.014 145.948 598.449 146.498 598.031C147.048 597.612 151.548 596.015 156.498 594.482C169.73 590.382 171.016 588.729 161.777 587.693C154.965 586.929 133.726 584.068 128.302 583.183L124.105 582.499L127.552 577.045C129.447 574.046 130.998 571.233 130.998 570.795C130.998 569.421 134.795 566.133 135.575 566.832C135.984 567.199 136.003 566.95 135.617 566.278C134.775 564.812 136.309 561.737 142.406 552.671C144.932 548.915 146.998 545.428 146.998 544.921C146.998 543.282 143.627 544.014 137.998 546.873ZM42.9982 589.106C22.5882 595.298 20.8482 597.903 35.9982 599.587C41.0192 600.145 49.6982 601.849 51.9982 602.728C54.0462 603.511 54.6642 603.625 61.2482 604.435C64.4102 604.824 66.9983 605.32 66.9983 605.536C66.9983 605.752 62.9482 613.885 57.9982 623.609C49.9572 639.404 47.7562 644.999 49.5802 644.999C49.9002 644.999 55.8632 641.254 62.8302 636.676C69.7972 632.099 77.0733 627.486 78.9983 626.426C80.9233 625.366 82.6483 624.162 82.8313 623.749C83.5863 622.052 84.7522 623.223 85.9632 626.892C86.6702 629.034 86.8973 631.353 86.4683 632.047C86.0233 632.768 86.0953 633.057 86.6363 632.723C87.1583 632.4 88.8523 637.156 90.4093 643.318C94.6643 660.155 95.2372 661.999 96.2132 661.999C97.2172 661.999 101.336 653.333 101.44 650.999C101.477 650.174 102.491 646.349 103.693 642.499C104.895 638.649 106.644 632.713 107.579 629.308L109.279 623.117L119.753 628.61C125.514 631.631 130.481 633.85 130.79 633.541C131.099 633.231 130.485 632.334 129.425 631.546C127.101 629.818 109.486 619.999 108.711 619.999C107.781 619.999 105.238 627.887 101.457 642.499C99.4653 650.199 97.4802 656.868 97.0462 657.32C96.6122 657.771 95.2403 653.946 93.9983 648.82C91.2963 637.674 86.1213 620.999 85.3643 620.999C83.5343 620.999 58.5942 636.259 54.7422 639.735C53.7762 640.607 52.7373 641.071 52.4333 640.767C52.1283 640.463 55.7313 632.52 60.4393 623.117C65.1463 613.715 68.9983 605.575 68.9983 605.029C68.9983 604.484 67.9853 603.83 66.7483 603.577C51.1953 600.394 34.1073 596.648 32.5993 596.09C31.2473 595.589 34.1253 594.297 42.5993 591.598C54.1253 587.927 58.5582 585.875 54.4482 586.111C53.3752 586.173 48.2232 587.52 42.9982 589.106ZM0.15625 602.999C0.15625 604.374 0.38325 604.937 0.66025 604.249C0.93825 603.562 0.93825 602.437 0.66025 601.749C0.38325 601.062 0.15625 601.624 0.15625 602.999ZM126.248 602.03C123.344 603.197 123.413 604.259 126.612 607.693C129.055 610.315 129.131 610.335 127.767 607.999C126.119 605.175 126.473 602.999 128.581 602.999C129.361 602.999 129.998 602.549 129.998 601.999C129.998 600.812 129.263 600.818 126.248 602.03ZM0.19325 614.499C0.21325 616.149 0.43725 616.703 0.69125 615.73C0.94525 614.757 0.92825 613.407 0.65425 612.73C0.38025 612.053 0.17325 612.849 0.19325 614.499ZM129.998 613.572C129.998 614.022 132.923 619.681 136.498 626.147C140.073 632.613 142.998 638.169 142.998 638.493C142.998 638.818 141.046 637.939 138.66 636.541C133.781 633.682 130.552 633.026 133.034 635.399C135.741 637.989 145.097 642.3 146.016 641.381C146.539 640.858 144.8 636.769 141.811 631.494C139.007 626.547 135.904 620.889 134.915 618.921C133.145 615.398 129.998 611.974 129.998 613.572ZM0.15625 621.999C0.15625 623.374 0.38325 623.937 0.66025 623.249C0.93825 622.562 0.93825 621.437 0.66025 620.749C0.38325 620.062 0.15625 620.624 0.15625 621.999ZM0.23025 627.999C0.23025 629.924 0.43625 630.711 0.68725 629.749C0.93925 628.787 0.93925 627.211 0.68725 626.249C0.43625 625.287 0.23025 626.074 0.23025 627.999ZM0.30825 637.499C0.31325 640.799 0.50025 642.028 0.72325 640.231C0.94525 638.434 0.94125 635.734 0.71325 634.231C0.48425 632.728 0.30225 634.199 0.30825 637.499ZM300.823 645.325C300.45 647.15 300.59 647.807 301.216 647.181C301.749 646.648 302.009 645.376 301.792 644.355C301.501 642.98 301.249 643.232 300.823 645.325ZM0.15625 652.999C0.15625 654.374 0.38325 654.937 0.66025 654.249C0.93825 653.562 0.93825 652.437 0.66025 651.749C0.38325 651.062 0.15625 651.624 0.15625 652.999ZM0.31825 661.999C0.31825 665.574 0.50025 667.037 0.72125 665.249C0.94325 663.461 0.94325 660.537 0.72125 658.749C0.50025 656.961 0.31825 658.424 0.31825 661.999ZM0.36825 679.999C0.36825 685.774 0.53325 688.137 0.73525 685.249C0.93725 682.361 0.93725 677.637 0.73525 674.749C0.53325 671.861 0.36825 674.224 0.36825 679.999ZM0.27025 694.999C0.27025 697.474 0.46525 698.486 0.70425 697.249C0.94225 696.012 0.94225 693.986 0.70425 692.749C0.46525 691.512 0.27025 692.524 0.27025 694.999ZM405.546 701.106C402.519 709.565 398.888 720.647 397.554 725.499C395.005 734.774 394.93 734.884 393.423 731.499C391.751 727.742 391.722 730.315 393.385 734.914L394.619 738.328L395.726 735.414C396.335 733.811 398.405 727.324 400.326 720.999C402.248 714.674 404.553 707.529 405.448 705.121C406.343 702.714 406.844 700.512 406.561 700.228C406.277 699.945 405.821 700.34 405.546 701.106ZM0.19325 708.499C0.21325 710.149 0.43725 710.703 0.69125 709.73C0.94525 708.757 0.92825 707.407 0.65425 706.73C0.38025 706.053 0.17325 706.849 0.19325 708.499ZM0.25025 718.499C0.26125 720.699 0.46625 721.481 0.70525 720.237C0.94425 718.993 0.93525 717.193 0.68525 716.237C0.43525 715.281 0.23925 716.299 0.25025 718.499ZM0.23025 740.999C0.23025 742.924 0.43625 743.711 0.68725 742.749C0.93925 741.787 0.93925 740.211 0.68725 739.249C0.43625 738.287 0.23025 739.074 0.23025 740.999ZM183.65 760.752C183.348 761.242 183.977 762.393 185.049 763.311C186.586 764.626 186.998 766.27 186.998 771.083C186.998 776.386 186.73 777.256 184.957 777.72C182.575 778.343 182.88 780.538 185.331 780.416C193.781 779.993 193.484 780.075 191.603 778.7C190.421 777.835 189.939 776.413 190.162 774.45C190.445 771.965 190.991 771.451 193.62 771.195C195.735 770.989 196.936 771.396 197.342 772.454C198.126 774.496 196.393 778.999 194.823 778.999C194.067 778.999 193.962 779.332 194.548 779.868C195.07 780.346 197.177 780.523 199.23 780.261C202.804 779.805 202.899 779.696 201.48 777.669C199.804 775.276 199.445 765.459 200.998 764.499C203.444 762.987 201.911 760.999 198.298 760.999C195.42 760.999 194.865 761.266 195.798 762.199C197.022 763.423 197.455 768.209 196.435 769.229C196.125 769.539 194.662 769.471 193.185 769.078C189.87 768.197 189.015 764.461 191.668 762.45C193.353 761.173 193.246 761.06 190.33 761.031C188.587 761.013 186.495 760.743 185.681 760.431C184.867 760.118 183.953 760.263 183.65 760.752ZM238.76 761.072C233.384 764.205 234.955 769.771 241.794 771.82C243.992 772.478 246.043 773.675 246.352 774.479C246.922 775.964 244.622 778.999 242.927 778.999C241.858 778.999 239.045 776.202 237.307 773.411C236.272 771.75 236.108 772.071 236.057 775.856C236.008 779.482 236.271 780.108 237.625 779.589C238.519 779.245 239.883 779.488 240.654 780.129C242.547 781.699 246.67 779.813 248.072 776.735C249.781 772.984 247.834 769.566 243.197 768.177C241.002 767.519 238.953 766.324 238.645 765.522C237.25 761.887 243.998 762.555 245.768 766.227C246.777 768.321 246.868 768.207 246.93 764.78C246.981 761.988 246.65 761.195 245.599 761.599C244.83 761.894 243.903 761.655 243.54 761.067C242.723 759.745 241.035 759.747 238.76 761.072ZM164.665 761.666C163.698 762.632 163.845 767.999 164.837 767.999C165.299 767.999 166.239 766.766 166.925 765.259C168.13 762.615 168.223 762.587 169.586 764.45C170.41 765.578 170.998 768.75 170.998 772.073C170.998 777.127 170.746 777.835 168.748 778.382C165.125 779.375 168.269 780.571 173.424 780.161C175.94 779.961 177.998 779.393 177.998 778.898C177.998 778.404 177.332 777.999 176.517 777.999C174.617 777.999 173.792 774.639 174.186 768.511C174.547 762.887 176.088 761.75 177.964 765.723L179.274 768.499L180.093 765.585C180.544 763.982 180.681 762.294 180.396 761.835C179.786 760.847 165.635 760.695 164.665 761.666ZM205.998 761.916C205.998 762.42 206.526 763.008 207.17 763.223C207.829 763.443 208.54 766.341 208.793 769.842C209.149 774.757 208.884 776.468 207.537 777.956C205.88 779.787 206.066 779.851 213.906 780.17C222.331 780.513 222.998 780.201 222.998 775.917C222.998 773.426 222.593 773.495 219.589 776.499C215.48 780.608 211.998 779.451 211.998 773.976C211.998 771.608 213.837 770.438 215.285 771.886C217.094 773.695 217.596 773.2 217.701 769.499C217.755 767.574 217.395 765.999 216.899 765.999C216.403 765.999 215.998 766.707 215.998 767.572C215.998 768.532 215.316 769.014 214.248 768.809C213.141 768.595 212.498 767.558 212.498 765.985C212.498 763.922 213.04 763.447 215.685 763.19C218.309 762.936 219.142 763.378 220.395 765.69L221.918 768.499L221.958 764.749L221.998 760.999H213.998C209.598 760.999 205.998 761.412 205.998 761.916ZM250.665 761.666C250.298 762.032 250 763.72 250.003 765.416L250.008 768.499L252.423 765.499L254.837 762.499L255.918 765.314C256.512 766.862 256.998 770.109 256.998 772.529C256.998 775.998 256.546 777.17 254.863 778.071C251.88 779.668 253.913 780.6 259.424 780.161C264.222 779.78 265.426 778.606 261.95 777.697C260.103 777.214 259.932 776.503 260.2 770.41C260.498 763.66 262.182 760.853 263.481 764.944C264.453 768.007 265.998 767.426 265.998 763.999V760.999H258.665C254.631 760.999 251.031 761.299 250.665 761.666ZM273.134 769.443C270.932 775.24 269.306 778.084 267.948 778.515C264.647 779.563 266.779 780.907 270.766 780.292C275.239 779.602 275.883 779.164 274.073 778.046C271.737 776.602 273.648 773.826 276.734 774.182C279.702 774.525 281.375 777.999 278.571 777.999C277.706 777.999 276.998 778.449 276.998 778.999C276.998 779.549 279.473 779.999 282.498 779.999C287.845 779.999 290.192 778.461 285.826 777.819C283.718 777.508 281.503 772.529 279.566 763.749C278.503 758.925 276.434 760.757 273.134 769.443ZM289.998 761.892C289.998 762.383 290.673 763.044 291.498 763.361C293.837 764.258 293.624 777.535 291.248 778.919C289.853 779.731 290.336 779.944 293.625 779.969L297.752 779.999L297.245 775.499C296.854 772.027 297.065 770.999 298.168 770.999C300.408 770.999 301.998 773.143 301.998 776.164C301.998 779.654 304.933 781.498 307.5 779.621C309.081 778.465 309.102 778.253 307.691 777.711C306.817 777.376 305.369 775.683 304.472 773.948C302.917 770.942 302.94 770.69 304.948 768.552C307.457 765.881 306.804 763.256 303.297 761.922C300.186 760.74 289.998 760.717 289.998 761.892ZM297.013 763.481C296.305 764.334 296.275 765.597 296.922 767.298C297.649 769.212 298.4 769.707 299.959 769.299C302.586 768.612 303.283 767.472 302.529 765.098C301.786 762.755 298.431 761.772 297.013 763.481ZM274.998 769.999C274.998 771.948 276.059 772.605 277.262 771.401C278.064 770.6 277.015 767.999 275.891 767.999C275.4 767.999 274.998 768.899 274.998 769.999Z" fill="black"/>
</svg>
