<svg width="242" height="273" viewBox="0 0 242 273" fill="none" xmlns="http://www.w3.org/2000/svg">
<path fill-rule="evenodd" clip-rule="evenodd" d="M0.61742 1C0.61742 1.55 1.06742 2 1.61742 2C2.16742 2 2.61742 1.55 2.61742 1C2.61742 0.45 2.16742 0 1.61742 0C1.06742 0 0.61742 0.45 0.61742 1ZM0.61742 7C0.61742 7.55 1.06742 8 1.61742 8C2.16742 8 2.61742 7.55 2.61742 7C2.61742 6.45 2.16742 6 1.61742 6C1.06742 6 0.61742 6.45 0.61742 7ZM0.61742 12.5C0.61742 13.325 1.06742 14 1.61742 14C2.16742 14 2.61742 13.325 2.61742 12.5C2.61742 11.675 2.16742 11 1.61742 11C1.06742 11 0.61742 11.675 0.61742 12.5ZM0.347424 18.925C-0.00557622 20.276 0.257419 20.692 1.23042 20.318C1.99342 20.025 2.61742 19.159 2.61742 18.393C2.61742 16.315 0.926424 16.711 0.347424 18.925ZM0.61742 24.5C0.61742 25.325 1.06742 26 1.61742 26C2.16742 26 2.61742 25.325 2.61742 24.5C2.61742 23.675 2.16742 23 1.61742 23C1.06742 23 0.61742 23.675 0.61742 24.5ZM0.61742 30.5C0.61742 31.325 1.06742 32 1.61742 32C2.16742 32 2.61742 31.325 2.61742 30.5C2.61742 29.675 2.16742 29 1.61742 29C1.06742 29 0.61742 29.675 0.61742 30.5ZM0.61742 36.5C0.61742 37.325 1.06742 38 1.61742 38C2.16742 38 2.61742 37.325 2.61742 36.5C2.61742 35.675 2.16742 35 1.61742 35C1.06742 35 0.61742 35.675 0.61742 36.5ZM0.61742 42.5C0.61742 43.325 1.06742 44 1.61742 44C2.16742 44 2.61742 43.325 2.61742 42.5C2.61742 41.675 2.16742 41 1.61742 41C1.06742 41 0.61742 41.675 0.61742 42.5ZM0.61742 48C0.61742 48.55 1.06742 49 1.61742 49C2.16742 49 2.61742 48.55 2.61742 48C2.61742 47.45 2.16742 47 1.61742 47C1.06742 47 0.61742 47.45 0.61742 48ZM0.61742 54C0.61742 54.55 1.06742 55 1.61742 55C2.16742 55 2.61742 54.55 2.61742 54C2.61742 53.45 2.16742 53 1.61742 53C1.06742 53 0.61742 53.45 0.61742 54ZM0.61742 60C0.61742 60.55 1.06742 61 1.61742 61C2.16742 61 2.61742 60.55 2.61742 60C2.61742 59.45 2.16742 59 1.61742 59C1.06742 59 0.61742 59.45 0.61742 60ZM0.61742 67C0.61742 67.55 1.06742 68 1.61742 68C2.16742 68 2.61742 67.55 2.61742 67C2.61742 66.45 2.16742 66 1.61742 66C1.06742 66 0.61742 66.45 0.61742 67ZM0.61742 74.5C0.61742 75.325 1.06742 76 1.61742 76C2.16742 76 2.61742 75.325 2.61742 74.5C2.61742 73.675 2.16742 73 1.61742 73C1.06742 73 0.61742 73.675 0.61742 74.5ZM0.61742 80C0.61742 80.55 1.06742 81 1.61742 81C2.16742 81 2.61742 80.55 2.61742 80C2.61742 79.45 2.16742 79 1.61742 79C1.06742 79 0.61742 79.45 0.61742 80ZM0.61742 86.5C0.61742 87.325 1.06742 88 1.61742 88C2.16742 88 2.61742 87.325 2.61742 86.5C2.61742 85.675 2.16742 85 1.61742 85C1.06742 85 0.61742 85.675 0.61742 86.5ZM0.61742 92.5C0.61742 93.325 1.06742 94 1.61742 94C2.16742 94 2.61742 93.325 2.61742 92.5C2.61742 91.675 2.16742 91 1.61742 91C1.06742 91 0.61742 91.675 0.61742 92.5ZM0.61742 98.5C0.61742 99.325 1.06742 100 1.61742 100C2.16742 100 2.61742 99.325 2.61742 98.5C2.61742 97.675 2.16742 97 1.61742 97C1.06742 97 0.61742 97.675 0.61742 98.5ZM127.617 100.235C127.617 101.134 128.3 105.116 129.135 109.084C129.969 113.052 130.502 116.448 130.318 116.632C130.134 116.816 126.498 115.624 122.237 113.983C114.145 110.867 109.26 109.956 113.139 112.285C114.252 112.953 117.983 115.724 121.432 118.443L127.701 123.386L118.659 126.304C113.686 127.909 109.617 129.671 109.617 130.221C109.617 130.857 113.066 131.011 119.106 130.645L128.596 130.069L123.573 138.168C118.627 146.143 117.836 148.922 121.442 145.658C122.453 144.744 123.652 144.334 124.108 144.748C124.565 145.162 124.633 144.968 124.261 144.318C123.461 142.923 127.488 139.802 128.934 140.696C129.48 141.033 129.645 140.855 129.302 140.3C128.959 139.745 129.747 138.287 131.053 137.06C133.805 134.475 133.952 134.709 135.105 143.5C136.614 155.009 138.051 156.11 139.075 146.543C140.415 134.037 140.125 134.213 147.909 141.175C151.645 144.516 154.939 147.012 155.229 146.721C155.52 146.43 153.541 142.618 150.832 138.25L145.907 130.308L155.262 130.783C160.849 131.066 164.617 130.874 164.617 130.305C164.617 129.782 160.785 128.08 156.101 126.524C147.884 123.793 147.644 123.627 149.288 121.812C150.224 120.776 151.605 120.165 152.356 120.453C153.107 120.741 153.47 120.572 153.164 120.076C152.719 119.356 155.605 116.677 161.534 112.307C161.763 112.138 161.686 111.736 161.364 111.413C161.041 111.091 156.888 112.388 152.135 114.297C147.382 116.205 143.693 117.245 143.937 116.608C144.182 115.97 144.903 112.76 145.539 109.474C146.175 106.188 146.912 102.487 147.175 101.25C148.124 96.8 145.923 99.148 141.679 107.115L137.355 115.229L133.528 107.957C129.249 99.825 127.617 97.693 127.617 100.235ZM0.11742 105C0.45742 105.55 1.15842 106 1.67642 106C2.19442 106 2.61742 105.55 2.61742 105C2.61742 104.45 1.91542 104 1.05842 104C0.201422 104 -0.22258 104.45 0.11742 105ZM131.328 111.666C132.445 117.098 132.46 118.483 131.408 119.15C130.472 119.744 130.635 119.974 131.998 119.985C133.591 119.998 133.792 119.464 133.311 116.5C132.998 114.575 133.108 113 133.554 113C134.001 113 133.476 111.2 132.387 109C131.299 106.8 130.307 105 130.183 105C130.059 105 130.574 108 131.328 111.666ZM141.118 111.581C139.419 114.723 137.646 116.841 136.942 116.571C136.2 116.286 135.937 116.671 136.275 117.551C137.139 119.802 138.327 119.276 139.777 116C140.508 114.35 141.619 113 142.248 113C143.144 113 144.883 107.118 144.226 106.311C144.141 106.207 142.743 108.578 141.118 111.581ZM0.61742 111C0.61742 111.55 1.06742 112 1.61742 112C2.16742 112 2.61742 111.55 2.61742 111C2.61742 110.45 2.16742 110 1.61742 110C1.06742 110 0.61742 110.45 0.61742 111ZM121.566 116.783C123.463 118.277 126.163 120.481 127.566 121.679L130.117 123.859L127.617 124.866C126.223 125.427 125.807 125.901 126.676 125.937C127.533 125.971 129.057 125.399 130.061 124.664C131.778 123.409 131.698 123.194 128.741 121.088C127.01 119.855 125.783 118.541 126.014 118.167C126.245 117.793 124.563 116.717 122.276 115.777L118.117 114.066L121.566 116.783ZM152.117 116.055C149.917 117.096 148.567 117.978 149.117 118.014C149.667 118.051 148.618 119.364 146.786 120.931C144.307 123.052 143.795 123.978 144.786 124.551C145.518 124.974 145.787 124.956 145.384 124.511C144.981 124.066 147.231 121.702 150.384 119.258C158.4 113.044 158.373 113.094 152.117 116.055ZM0.61742 117.5C0.61742 118.325 1.06742 119 1.61742 119C2.16742 119 2.61742 118.325 2.61742 117.5C2.61742 116.675 2.16742 116 1.61742 116C1.06742 116 0.61742 116.675 0.61742 117.5ZM141.617 119.969C141.617 120.501 142.292 120.678 143.117 120.362C143.942 120.045 144.617 119.609 144.617 119.393C144.617 119.177 143.942 119 143.117 119C142.292 119 141.617 119.436 141.617 119.969ZM135.617 121.346C135.617 122.409 135.036 122.75 133.867 122.374C132.385 121.898 132.347 121.979 133.617 122.906C134.95 123.878 134.95 124.109 133.617 124.985C132.363 125.808 132.437 125.972 134.067 125.985C135.584 125.997 135.75 126.267 134.817 127.2C134.157 127.86 133.617 128.85 133.617 129.4C133.617 129.967 134.127 129.89 134.793 129.224C135.652 128.365 136.327 128.344 137.293 129.146C138.271 129.958 138.617 129.92 138.617 129C138.617 128.057 139.026 128.088 140.304 129.128C141.797 130.342 141.908 130.279 141.27 128.58C140.828 127.403 141.046 126.345 141.833 125.845C142.854 125.198 142.836 125.027 141.745 125.015C140.629 125.003 140.609 124.715 141.636 123.477C142.693 122.204 142.631 122.057 141.258 122.584C140.111 123.024 139.593 122.655 139.538 121.357C139.49 120.233 139.255 120.01 138.941 120.792C138.543 121.784 138.097 121.813 137.02 120.919C135.916 120.003 135.617 120.094 135.617 121.346ZM0.61742 123.5C0.61742 124.325 1.06742 125 1.61742 125C2.16742 125 2.61742 124.325 2.61742 123.5C2.61742 122.675 2.16742 122 1.61742 122C1.06742 122 0.61742 122.675 0.61742 123.5ZM119.617 127.563C116.172 128.866 116.231 128.888 123.367 128.944C127.355 128.975 130.617 129.247 130.617 129.548C130.617 129.849 129.016 132.598 127.06 135.657C123.52 141.19 123.517 141.208 126.31 139.217C127.854 138.116 129.974 136.267 131.022 135.108C134.291 131.491 135.399 132.479 136.225 139.75C136.973 146.325 137.011 146.396 137.699 142.5C138.087 140.3 138.003 138.35 137.511 138.167C137.019 137.983 136.61 136.858 136.602 135.667C136.573 131.6 135.222 130.737 132.382 132.97C128.741 135.835 128.382 135.512 130.75 131.5L132.815 128H128.716C126.461 128 124.617 127.55 124.617 127C124.617 125.798 124.138 125.852 119.617 127.563ZM146.617 128C142.806 128.592 143.342 128.707 150.117 128.75C155.475 128.784 157.291 128.536 155.617 128C152.723 127.073 152.579 127.073 146.617 128ZM0.61742 129.5C0.61742 130.325 1.06742 131 1.61742 131C2.16742 131 2.61742 130.325 2.61742 129.5C2.61742 128.675 2.16742 128 1.61742 128C1.06742 128 0.61742 128.675 0.61742 129.5ZM139.673 131.715C139.704 132.147 142.251 134.493 145.335 136.929C150.783 141.233 150.889 141.269 149.096 138.233C148.081 136.515 146.934 135.304 146.547 135.543C146.16 135.782 145.267 135.283 144.563 134.434C142.981 132.528 139.597 130.646 139.673 131.715ZM0.61742 135C0.61742 135.55 1.06742 136 1.61742 136C2.16742 136 2.61742 135.55 2.61742 135C2.61742 134.45 2.16742 134 1.61742 134C1.06742 134 0.61742 134.45 0.61742 135ZM0.61742 141C0.61742 141.55 1.06742 142 1.61742 142C2.16742 142 2.61742 141.55 2.61742 141C2.61742 140.45 2.16742 140 1.61742 140C1.06742 140 0.61742 140.45 0.61742 141ZM0.61742 147C0.61742 147.55 1.06742 148 1.61742 148C2.16742 148 2.61742 147.55 2.61742 147C2.61742 146.45 2.16742 146 1.61742 146C1.06742 146 0.61742 146.45 0.61742 147ZM0.61742 153C0.61742 153.55 1.06742 154 1.61742 154C2.16742 154 2.61742 153.55 2.61742 153C2.61742 152.45 2.16742 152 1.61742 152C1.06742 152 0.61742 152.45 0.61742 153ZM0.61742 159C0.61742 159.55 1.06742 160 1.61742 160C2.16742 160 2.61742 159.55 2.61742 159C2.61742 158.45 2.16742 158 1.61742 158C1.06742 158 0.61742 158.45 0.61742 159ZM0.61742 165C0.61742 165.55 1.06742 166 1.61742 166C2.16742 166 2.61742 165.55 2.61742 165C2.61742 164.45 2.16742 164 1.61742 164C1.06742 164 0.61742 164.45 0.61742 165ZM71.6174 169C71.6174 169.55 72.0674 170 72.6174 170C73.1674 170 73.6174 169.55 73.6174 169C73.6174 168.45 73.1674 168 72.6174 168C72.0674 168 71.6174 168.45 71.6174 169ZM0.61742 171C0.61742 171.55 1.06742 172 1.61742 172C2.16742 172 2.61742 171.55 2.61742 171C2.61742 170.45 2.16742 170 1.61742 170C1.06742 170 0.61742 170.45 0.61742 171ZM0.61742 176.5C0.61742 177.325 1.06742 178 1.61742 178C2.16742 178 2.61742 177.325 2.61742 176.5C2.61742 175.675 2.16742 175 1.61742 175C1.06742 175 0.61742 175.675 0.61742 176.5ZM0.61742 182.5C0.61742 183.325 1.06742 184 1.61742 184C2.16742 184 2.61742 183.325 2.61742 182.5C2.61742 181.675 2.16742 181 1.61742 181C1.06742 181 0.61742 181.675 0.61742 182.5ZM0.61742 188.5C0.61742 189.325 1.06742 190 1.61742 190C2.16742 190 2.61742 189.325 2.61742 188.5C2.61742 187.675 2.16742 187 1.61742 187C1.06742 187 0.61742 187.675 0.61742 188.5ZM0.616421 227.75V263.5L30.6584 263.221C49.7654 263.044 60.4814 262.589 60.0994 261.971C59.7694 261.437 54.4634 260.986 48.3084 260.968C37.9164 260.939 36.9214 260.764 34.3674 258.516C32.8554 257.185 31.6174 255.598 31.6174 254.989C31.6174 254.38 31.1604 254.165 30.6014 254.51C30.0424 254.856 29.8434 255.557 30.1604 256.069C30.4764 256.581 30.2584 257 29.6764 257C29.0944 257 28.6174 256.086 28.6174 254.968C28.6174 251.8 25.7824 245.785 22.8144 242.658C19.4634 239.128 13.5174 236 10.1574 236C8.15942 236 7.61742 235.499 7.61742 233.656C7.61742 232.366 6.49342 230.004 5.11842 228.406C2.66842 225.557 2.61942 225.172 2.61842 208.75C2.61742 198.251 2.24442 192 1.61742 192C0.96942 192 0.617421 204.584 0.616421 227.75ZM79.6174 210.5C79.6174 211.325 80.0674 212 80.6174 212C81.1674 212 81.6174 211.325 81.6174 210.5C81.6174 209.675 81.1674 209 80.6174 209C80.0674 209 79.6174 209.675 79.6174 210.5ZM2.61742 244.878V261H18.6764C29.1274 261 34.5194 260.651 34.1174 260C33.7534 259.411 27.7734 259 19.5584 259H5.61742V245.122C5.61742 234.007 5.31842 230.997 4.11742 230C2.79442 228.902 2.61742 230.66 2.61742 244.878ZM8.61742 233C8.61742 233.55 9.06742 234 9.61742 234C10.1674 234 10.6174 233.55 10.6174 233C10.6174 232.45 10.1674 232 9.61742 232C9.06742 232 8.61742 232.45 8.61742 233ZM12.6174 234C12.6174 234.55 13.0674 235 13.6174 235C14.1674 235 14.6174 234.55 14.6174 234C14.6174 233.45 14.1674 233 13.6174 233C13.0674 233 12.6174 233.45 12.6174 234ZM16.6174 236C16.6174 236.55 17.0674 237 17.6174 237C18.1674 237 18.6174 236.55 18.6174 236C18.6174 235.45 18.1674 235 17.6174 235C17.0674 235 16.6174 235.45 16.6174 236ZM7.61742 239.105C7.61742 240.241 8.31842 241.002 9.36742 241.006C10.3304 241.01 12.4014 241.682 13.9714 242.501C15.5414 243.32 17.3414 243.695 17.9714 243.334C18.6014 242.974 18.8184 243.013 18.4524 243.421C18.0874 243.829 18.8424 245.716 20.1304 247.615C21.4194 249.513 22.7664 252.401 23.1244 254.033C23.5054 255.767 24.4204 257 25.3274 257C26.5534 257 26.7554 256.236 26.2884 253.36C25.0614 245.801 19.0594 239.802 10.8674 237.947C8.08542 237.317 7.61742 237.483 7.61742 239.105ZM20.6174 238C20.6174 238.55 21.0674 239 21.6174 239C22.1674 239 22.6174 238.55 22.6174 238C22.6174 237.45 22.1674 237 21.6174 237C21.0674 237 20.6174 237.45 20.6174 238ZM23.6174 240.559C23.6174 241.416 24.0744 241.835 24.6334 241.49C25.1924 241.144 25.3914 240.443 25.0744 239.931C24.2174 238.544 23.6174 238.802 23.6174 240.559ZM7.61742 244.5C7.61742 245.325 8.27642 246 9.08242 246C11.3274 246 17.4514 251.82 17.8044 254.288C17.9764 255.493 18.9644 256.641 20.0004 256.839C21.6104 257.146 21.7824 256.784 21.1834 254.349C20.1634 250.205 17.9434 247.169 14.3134 244.956C10.4954 242.628 7.61742 242.432 7.61742 244.5ZM25.6174 244C25.6174 244.55 26.0674 245 26.6174 245C27.1674 245 27.6174 244.55 27.6174 244C27.6174 243.45 27.1674 243 26.6174 243C26.0674 243 25.6174 243.45 25.6174 244ZM28.1604 246.931C27.8434 247.443 28.0424 248.144 28.6014 248.49C29.1604 248.835 29.6174 248.416 29.6174 247.559C29.6174 245.802 29.0174 245.544 28.1604 246.931ZM7.61742 252.5V257H12.0654H16.5134L15.4624 253.984C14.3904 250.91 11.1974 248 8.89442 248C8.04742 248 7.61742 249.515 7.61742 252.5ZM29.6174 251.559C29.6174 252.416 30.0744 252.835 30.6334 252.49C31.1924 252.144 31.3914 251.443 31.0744 250.931C30.2174 249.544 29.6174 249.802 29.6174 251.559ZM227.617 251C227.617 251.55 228.477 252 229.528 252C232.281 252 236.617 257.583 236.617 261.126C236.617 266.563 233.017 271.114 228.45 271.451C228.084 271.478 227.446 271.837 227.034 272.25C226.621 272.663 228.204 273 230.55 273C234.085 273 235.412 272.405 238.281 269.536C241.558 266.259 241.728 265.752 241.448 260.102C241.286 256.818 240.995 254.288 240.803 254.48C240.611 254.672 238.853 253.743 236.896 252.415C233.33 249.995 227.617 249.124 227.617 251ZM221.817 259.2C220.235 260.782 220.298 262.491 221.99 263.895C224.806 266.232 228.849 262.189 226.512 259.373C225.108 257.681 223.399 257.618 221.817 259.2ZM93.6294 261.023C94.8704 263.341 95.6174 263.56 95.6174 261.607C95.6174 260.841 94.9324 259.951 94.0944 259.629C92.8514 259.153 92.7664 259.409 93.6294 261.023ZM209.953 260.567C209.165 262.621 210.747 264.156 212.521 263.059C214.032 262.125 213.336 259 211.617 259C211.032 259 210.284 259.705 209.953 260.567ZM64.1604 260.931C63.4774 262.036 65.0544 263.23 65.9784 262.306C66.9284 261.355 66.7514 260 65.6764 260C65.1584 260 64.4764 260.419 64.1604 260.931ZM69.7674 260.95C69.9874 261.61 70.4934 262.116 70.8924 262.075C72.0884 261.951 71.8564 260.58 70.5674 260.15C69.9074 259.93 69.5474 260.29 69.7674 260.95ZM75.7674 260.95C75.9874 261.61 76.4934 262.116 76.8924 262.075C78.0884 261.951 77.8564 260.58 76.5674 260.15C75.9074 259.93 75.5474 260.29 75.7674 260.95ZM81.3194 261.333C81.0384 262.067 81.4204 262.667 82.1694 262.667C82.9184 262.667 83.7614 262.067 84.0434 261.333C84.3244 260.6 83.9414 260 83.1934 260C82.4444 260 81.6014 260.6 81.3194 261.333ZM87.8464 261.188C88.0644 261.841 88.7774 262.553 89.4304 262.771C90.1614 263.015 90.3844 262.557 90.0114 261.584C89.3134 259.766 87.2464 259.388 87.8464 261.188ZM99.6174 261.5C99.6174 262.325 100.067 263 100.617 263C101.167 263 101.617 262.325 101.617 261.5C101.617 260.675 101.167 260 100.617 260C100.067 260 99.6174 260.675 99.6174 261.5ZM105.617 261.5C105.617 262.325 106.067 263 106.617 263C107.167 263 107.617 262.325 107.617 261.5C107.617 260.675 107.167 260 106.617 260C106.067 260 105.617 260.675 105.617 261.5ZM111.617 261.5C111.617 262.325 112.067 263 112.617 263C113.167 263 113.617 262.325 113.617 261.5C113.617 260.675 113.167 260 112.617 260C112.067 260 111.617 260.675 111.617 261.5ZM117.617 261.5C117.617 262.325 118.067 263 118.617 263C119.167 263 119.617 262.325 119.617 261.5C119.617 260.675 119.167 260 118.617 260C118.067 260 117.617 260.675 117.617 261.5ZM123.617 261.5C123.617 262.325 124.067 263 124.617 263C125.167 263 125.617 262.325 125.617 261.5C125.617 260.675 125.167 260 124.617 260C124.067 260 123.617 260.675 123.617 261.5ZM129.16 260.931C128.477 262.036 130.054 263.23 130.978 262.306C131.928 261.355 131.751 260 130.676 260C130.158 260 129.476 260.419 129.16 260.931ZM135.16 260.931C134.477 262.036 136.054 263.23 136.978 262.306C137.928 261.355 137.751 260 136.676 260C136.158 260 135.476 260.419 135.16 260.931ZM140.617 261.5C140.617 262.417 141.101 263.005 141.692 262.808C142.283 262.611 142.767 262.023 142.767 261.5C142.767 260.977 142.283 260.389 141.692 260.192C141.101 259.995 140.617 260.583 140.617 261.5ZM146.767 260.95C146.987 261.61 147.493 262.116 147.892 262.075C149.088 261.951 148.856 260.58 147.567 260.15C146.907 259.93 146.547 260.29 146.767 260.95ZM152.767 260.95C152.987 261.61 153.493 262.116 153.892 262.075C155.088 261.951 154.856 260.58 153.567 260.15C152.907 259.93 152.547 260.29 152.767 260.95ZM158.617 261.5C158.617 263.183 159.48 263.373 161.451 262.124C162.515 261.449 162.448 261.149 161.119 260.639C158.792 259.746 158.617 259.807 158.617 261.5ZM164.617 260.941C164.617 261.459 165.067 262.16 165.617 262.5C166.167 262.84 166.617 262.416 166.617 261.559C166.617 260.702 166.167 260 165.617 260C165.067 260 164.617 260.423 164.617 260.941ZM170.309 261.359C170.005 262.153 170.287 262.725 170.936 262.629C172.434 262.41 173.078 260.654 171.815 260.233C171.292 260.058 170.614 260.565 170.309 261.359ZM176.617 261.5C176.617 262.325 177.067 263 177.617 263C178.167 263 178.617 262.325 178.617 261.5C178.617 260.675 178.167 260 177.617 260C177.067 260 176.617 260.675 176.617 261.5ZM182.617 261.559C182.617 262.416 183.067 262.84 183.617 262.5C184.167 262.16 184.617 261.459 184.617 260.941C184.617 260.423 184.167 260 183.617 260C183.067 260 182.617 260.702 182.617 261.559ZM188.617 261.5C188.617 262.325 189.067 263 189.617 263C190.167 263 190.617 262.325 190.617 261.5C190.617 260.675 190.167 260 189.617 260C189.067 260 188.617 260.675 188.617 261.5ZM199.311 260.639C198.512 261.438 199.415 263 200.676 263C201.194 263 201.617 262.325 201.617 261.5C201.617 259.954 200.437 259.513 199.311 260.639Z" fill="black"/>
</svg>
