<svg width="472" height="793" viewBox="0 0 472 793" fill="none" xmlns="http://www.w3.org/2000/svg">
<path fill-rule="evenodd" clip-rule="evenodd" d="M1.30844 1.24955C0.258438 2.87155 -0.339562 784.39 0.706438 789C1.21744 791.255 1.67744 784.56 1.99944 770.179L2.49944 747.859L95.9994 747.996C147.424 748.072 193.774 748.295 198.999 748.492C204.224 748.69 266.774 749.155 337.999 749.526C409.224 749.897 467.76 750.36 468.079 750.554C468.398 750.748 468.623 760.008 468.579 771.131L468.499 791.355L236.499 791.256C108.899 791.201 5.84944 791.518 7.49944 791.96C9.14944 792.402 113.886 792.817 240.249 792.882L469.999 793V790.5C469.999 789.125 470.449 788 470.999 788C471.664 788 471.999 674.944 471.999 450.833C471.999 265.392 471.835 113.854 471.634 114.083C471.434 114.312 470.976 194.15 470.617 291.5C470.258 388.85 469.729 481.55 469.442 497.5C469.154 513.45 468.748 544.05 468.539 565.5C468.329 586.95 468.122 605.119 468.078 605.876C467.99 607.405 461.796 607.262 426.315 604.916C411.555 603.939 404.185 603.908 394.355 604.779C387.328 605.403 381.42 605.754 381.227 605.561C381.034 605.368 380.215 601.106 379.408 596.091C378.284 589.108 376.974 585.169 373.818 579.281C371.55 575.052 368.434 567.884 366.893 563.354C363.736 554.072 360.372 547.122 356.59 542.072C353.012 537.293 352.458 533.128 354.527 526.549C355.587 523.18 356.021 519.753 355.64 517.763C355.296 515.968 354.621 512.587 354.141 510.25C353.399 506.638 353.511 506 354.89 506C357.977 506 363.34 507.964 366.912 510.402C368.885 511.749 371.399 512.997 372.499 513.175C374.176 513.448 374.452 513.015 374.208 510.5C373.648 504.733 370.928 498.324 367.727 495.225C363.019 490.669 358.176 489 349.666 489C343.978 489 341.718 488.57 339.884 487.141C338.572 486.119 335.924 484.494 333.999 483.529C332.074 482.565 328.393 480.026 325.82 477.888C320.118 473.151 317.393 472.748 321.798 477.293L324.989 480.585L318.115 482.198C311.612 483.725 302.999 488.246 302.999 490.133C302.999 491.537 304.999 491.133 307.845 489.153C311.689 486.478 316.456 485.063 323.925 484.381C330.266 483.801 330.683 483.907 335.678 487.358C340.189 490.474 341.671 490.952 347.178 491.066C354.717 491.222 360.457 492.647 364.366 495.333C367.827 497.711 371.476 505.087 369.726 506.169C369.014 506.609 368.089 505.741 367.321 503.914C366.235 501.332 365.708 501.031 363.285 501.61C361.753 501.977 359.721 502.675 358.77 503.163C356.418 504.367 352.19 503.178 351.54 501.129C350.833 498.901 345.047 492.618 344.347 493.318C344.044 493.622 345.529 496.673 347.648 500.1C352.495 507.942 354.578 519.278 352.219 524.982C350.263 529.71 351.321 538.402 354.344 542.447C358.456 547.949 361.939 555.084 364.551 563.361C365.964 567.837 368.996 575.201 371.29 579.725C375.298 587.63 375.399 588.058 373.903 590.725C372.398 593.406 372.381 597 373.872 597C374.272 597 375.251 596.439 376.049 595.754C376.846 595.069 375.276 596.859 372.559 599.731C369.842 602.604 367.872 605.207 368.182 605.516C368.491 605.825 370.939 604.426 373.621 602.406C378.332 598.86 378.398 598.841 375.562 601.867C373.947 603.59 372.944 605 373.335 605C373.726 605 373.308 606.125 372.407 607.5C370.274 610.755 372.328 610.909 375.935 607.764C377.345 606.534 376.699 607.5 374.499 609.911C371.765 612.908 371.124 614.072 372.475 613.592C374.219 612.972 374.169 613.19 372.051 615.444C368.689 619.024 371.358 618.676 376.105 614.916C378.247 613.22 379.999 612.311 379.999 612.897C379.999 613.482 377.749 615.641 374.999 617.694C370.299 621.203 368.893 623 370.849 623C371.316 623 373.679 621.592 376.099 619.872L380.499 616.744L376.749 620.664C372.054 625.572 371.962 626.804 376.499 624C378.424 622.81 379.999 622.227 379.999 622.703C379.999 623.179 378.649 624.366 376.999 625.341C373.96 627.136 373.028 629 375.17 629C375.814 629 377.164 628.255 378.17 627.345C379.176 626.435 379.999 626.162 379.999 626.738C379.999 627.314 379.324 628.045 378.499 628.362C376.233 629.231 376.678 631.317 378.999 630.71C380.902 630.213 381.009 630.728 381.205 641.344C381.663 666.182 381.765 665.1 378.499 669.986C376.849 672.454 373.642 675.495 371.372 676.744C364.1 680.744 349.509 682.983 343.544 681.015C339.713 679.75 337.474 680.412 340.028 682.055C343.511 684.294 348.669 684.942 354.957 683.929C358.475 683.363 361.797 682.625 362.34 682.289C362.884 681.953 364.519 681.585 365.976 681.47C369.401 681.201 375.931 677.058 379.368 672.973C384.348 667.054 384.898 665.129 384.136 656.261C383.75 651.777 383.691 647.379 384.003 646.489C384.501 645.068 384.799 645.121 386.423 646.916C387.684 648.31 387.97 649.367 387.32 650.231C386.794 650.929 386.41 654.585 386.467 658.356C386.55 663.936 386.935 665.484 388.534 666.672C390.375 668.04 390.315 668.087 387.585 667.416C385.056 666.796 384.761 666.938 385.357 668.49C385.823 669.706 385.374 670.749 383.958 671.741C381.937 673.157 381.929 673.266 383.686 675.234C385.456 677.218 385.446 677.249 383.249 676.566C380.716 675.777 380.107 677.444 382.581 678.393C385.294 679.434 385.749 679.128 388.729 674.25C395.768 662.73 395.242 653.824 387.004 645.005L383.878 641.659L383.428 627.58C383.18 619.836 382.731 612.305 382.43 610.845L381.882 608.189L390.622 607.461C399.167 606.749 431.312 607.323 455.749 608.623L467.999 609.275V678.786V748.297L420.249 747.653C393.987 747.299 313.999 746.763 242.499 746.463C170.999 746.163 108.224 745.722 102.999 745.484C97.7744 745.246 73.1374 745.025 48.2494 744.994L2.99944 744.937L2.97544 711.218C2.93044 647.224 3.04744 605.619 3.27344 605.426C3.39744 605.319 7.77444 605.606 12.9994 606.063C22.1434 606.864 41.5854 605.677 63.4734 602.982C67.8584 602.442 74.9944 602 79.3304 602C86.4484 602 87.1424 602.17 86.4864 603.75C86.0864 604.712 85.1794 607.345 84.4724 609.601C83.7644 611.856 81.6884 616.354 79.8584 619.596C76.5654 625.431 76.5304 625.629 76.3664 639.353C76.2754 646.977 76.6264 654.63 77.1474 656.358C77.6684 658.086 78.7334 663.023 79.5134 667.329C80.2944 671.635 81.8484 676.638 82.9664 678.447C84.0844 680.256 84.9994 682.384 84.9994 683.177C84.9994 683.969 85.7074 685.491 86.5734 686.559C88.1084 688.451 88.1354 688.444 87.6674 686.25C87.4034 685.012 87.5944 684 88.0934 684C88.5914 684 88.9994 684.75 88.9994 685.667C88.9994 686.583 89.2804 687.053 89.6234 686.71C89.9664 686.366 92.0354 686.998 94.2204 688.113C98.8564 690.478 100.286 690.073 96.3664 687.505C91.9854 684.634 84.9454 677.799 83.5404 675.052C82.8234 673.648 81.9254 670.475 81.5454 668C81.1664 665.525 79.9954 660.933 78.9444 657.796C77.3864 653.145 77.2104 651.163 77.9864 647.066C78.5114 644.302 78.6744 638.544 78.3504 634.27C77.7694 626.613 77.8214 626.387 81.8804 618.702C84.1454 614.414 85.9994 610.311 85.9994 609.585C85.9994 608.859 88.0404 605.221 90.5344 601.501C95.0064 594.833 96.2724 590.999 92.0404 596.942C89.8824 599.973 89.7814 600 80.6764 600C75.6234 600 62.7164 600.968 51.9944 602.151C35.2844 603.996 4.57444 604.908 3.26544 603.599C2.84444 603.179 2.85044 2.81455 3.27144 2.39455C3.45044 2.21455 49.6924 2.02055 106.029 1.96355L208.461 1.85855L208.68 7.88455C208.976 16.0616 212.854 24.2136 218.099 27.6846C220.248 29.1066 224.978 31.0946 228.61 32.1016C234.105 33.6256 236.077 33.7496 240.356 32.8426C253.881 29.9776 260.149 22.7816 261.75 8.27855L262.499 1.49955L345.499 0.990555C399.77 0.658555 354.707 0.398555 215.308 0.240555C45.6414 0.0485548 1.95244 0.254555 1.30844 1.24955ZM210.528 1.95155C209.704 3.28555 211.546 13.7946 213.341 17.9996C217.165 26.9576 230.525 33.2416 240.824 30.9276C245.348 29.9106 251.399 26.4906 254.178 23.3796C257.292 19.8916 259.999 12.0046 259.999 6.41655V0.999555H235.558C221.159 0.999555 210.875 1.39055 210.528 1.95155ZM218.228 8.74955C218.446 9.16155 219.496 11.4076 220.561 13.7396C221.783 16.4126 223.16 17.9826 224.288 17.9896C225.93 17.9986 225.909 17.8196 224.038 15.8106C222.917 14.6076 221.999 13.2946 221.999 12.8926C221.999 12.4916 221.706 11.3996 221.348 10.4656C220.826 9.10555 221.106 8.89855 222.764 9.42455C223.9 9.78555 225.12 9.61256 225.474 9.04056C225.88 8.38355 224.59 7.99955 221.975 7.99955C219.696 7.99955 218.01 8.33755 218.228 8.74955ZM227.762 8.74955C227.236 9.85955 231.643 18.0216 232.374 17.2916C233.379 16.2856 233.092 12.9996 231.999 12.9996C231.449 12.9996 230.999 11.8746 230.999 10.4996C230.999 8.17955 228.637 6.90255 227.762 8.74955ZM232.999 8.94055C232.999 10.6726 234.759 10.9936 236.008 9.48855C237.037 8.24955 236.888 7.99955 235.121 7.99955C233.954 7.99955 232.999 8.42255 232.999 8.94055ZM238.499 12.9996C238.499 16.7786 238.865 17.9986 239.999 17.9966C241.131 17.9946 241.501 16.7666 241.506 12.9966C241.512 9.20755 241.15 7.99955 240.006 7.99955C238.864 7.99955 238.499 9.21055 238.499 12.9996ZM245.006 9.50756C245.767 10.4256 246.036 12.3846 245.691 14.5076C245.3 16.9196 245.507 17.9996 246.361 17.9996C247.186 17.9996 247.461 16.8306 247.187 14.4856C246.962 12.5536 247.332 10.3036 248.01 9.48555C249.051 8.23255 248.814 7.99955 246.499 7.99955C244.166 7.99955 243.942 8.22556 245.006 9.50756ZM250.988 9.48555C251.666 10.3036 252.036 12.5536 251.811 14.4856C251.572 16.5326 251.839 17.9996 252.45 17.9996C253.027 17.9996 253.468 16.3116 253.431 14.2496C253.393 12.1866 253.786 9.93755 254.303 9.24955C254.999 8.32455 254.53 7.99955 252.499 7.99955C250.184 7.99955 249.947 8.23255 250.988 9.48555ZM235.66 37.2136C234.783 40.7066 230.2 78.2416 229.52 87.4996C229.197 91.8996 228.686 97.4726 228.384 99.8836L227.836 104.268L221.373 93.3836C217.818 87.3976 213.986 81.5996 212.857 80.4996L210.803 78.4996L211.496 94.4996C211.928 104.486 211.835 110.124 211.249 109.5C210.733 108.95 207.653 105.168 204.405 101.096C194.943 89.2346 194.358 88.6096 193.702 89.6706C192.855 91.0416 195.76 94.9996 197.615 94.9996C198.441 94.9996 198.831 95.4616 198.482 96.0266C197.881 96.9996 207.029 108.576 209.777 110.319C210.642 110.868 207.349 113.025 199.783 116.864C193.577 120.013 188.215 122.464 187.869 122.31C186.508 121.705 167.584 60.0816 168.483 59.1826C168.659 59.0066 169.634 60.0316 170.651 61.4596C171.999 63.3536 189.272 85.9686 191.546 88.8166C191.685 88.9906 192.065 88.7016 192.391 88.1736C193.026 87.1466 165.426 50.9996 164.007 50.9996C163.131 50.9996 164.254 55.8976 166.528 61.9996C167.245 63.9246 170.163 73.5996 173.011 83.4996C178.641 103.066 179.609 106.108 183.426 116.25C184.823 119.963 185.769 123 185.529 123C185.289 123 179.688 117.509 173.082 110.797C166.477 104.085 160.785 98.8806 160.434 99.2306C159.775 99.8896 166.747 118.569 170.169 125.313L172.104 129.127L169.802 127.91C168.535 127.241 165.024 124.818 161.999 122.527C153.374 115.993 120.454 93.2156 114.911 89.9476C112.161 88.3266 109.459 86.9996 108.907 86.9996C107.705 86.9996 112.059 93.4616 120.962 104.892C124.557 109.508 129.525 116.258 132.002 119.892C134.478 123.526 139.751 130.527 143.719 135.449C147.688 140.371 150.77 144.562 150.57 144.762C150.37 144.963 146.672 143.374 142.352 141.231C132.483 136.336 123.086 132.579 122.408 133.257C121.857 133.809 136.806 149.505 138.499 150.152C139.049 150.362 141.233 152.393 143.352 154.664L147.205 158.795L141.352 157.532C138.133 156.838 132.799 155.558 129.499 154.688C119.964 152.175 74.0054 142.243 68.4994 141.505C61.9044 140.622 62.5014 141.17 80.3764 152.409C88.3294 157.409 99.7094 164.875 105.666 169C111.623 173.125 119.985 178.661 124.248 181.301C128.511 183.942 131.999 186.314 131.999 186.573C131.999 186.831 124.462 186.746 115.249 186.383C106.036 186.021 98.7424 185.992 99.0394 186.319C99.5724 186.906 106.145 189.722 123.249 196.691C128.062 198.652 131.999 200.541 131.999 200.887C131.999 201.234 128.508 202.303 124.241 203.262C119.974 204.221 110.636 206.804 103.491 209.001C84.8904 214.722 70.7524 218.558 61.1214 220.497C49.5734 222.822 42.5834 224.999 43.6254 225.947C44.9854 227.184 54.8704 228.017 55.5304 226.95C55.8534 226.427 55.1004 226 53.8584 226C48.8814 226 54.2744 224.107 70.4994 220.158C79.8494 217.883 91.9994 214.655 97.4994 212.985C110.821 208.941 132.228 203.001 133.489 202.998C134.109 202.996 134.371 205.919 134.167 210.574C133.845 217.935 133.9 218.144 136.074 217.827C139.218 217.368 139.995 222.396 137.027 223.985C135.371 224.871 134.999 226.069 134.999 230.516V235.962L130.749 235.514C128.411 235.267 121.438 234.818 115.252 234.515C105.978 234.061 75.4654 230.125 60.1784 227.411C57.4744 226.931 56.7784 227.056 57.5534 227.882C58.1324 228.501 65.1064 229.923 73.0514 231.042C80.9964 232.161 91.1124 233.707 95.5324 234.478C99.9534 235.249 109.291 236.197 116.284 236.586C123.277 236.974 128.985 237.564 128.968 237.896C128.951 238.228 123.439 241.11 116.718 244.299C109.998 247.489 103.374 250.967 101.999 252.027L99.4994 253.956L106.829 253.978C110.86 253.99 118.343 253.506 123.457 252.903C128.572 252.3 133.572 251.964 134.57 252.156C135.807 252.394 129.728 257.588 115.441 268.499C103.923 277.296 92.0994 286.129 89.1664 288.127C81.6344 293.26 65.9994 306.195 65.9994 307.294C65.9994 307.8 66.5624 308.009 67.2494 307.758C67.9374 307.507 76.5994 304.726 86.4994 301.578C107.785 294.809 127.224 288.337 138.999 284.099C143.674 282.416 147.847 281.031 148.271 281.02C148.696 281.009 145.671 285.163 141.549 290.25C137.427 295.337 132.873 300.963 131.428 302.75C129.754 304.821 129.291 305.99 130.151 305.973C130.892 305.958 137.107 302.828 143.96 299.017C150.814 295.207 156.606 292.273 156.83 292.498C157.055 292.723 151.233 300.915 143.892 310.704C130.442 328.636 122.082 340.304 112.958 353.878C108.297 360.813 106.98 364 108.774 364C109.2 364 116.063 358.769 124.024 352.375C152.226 329.724 176.32 310.987 176.723 311.391C176.861 311.528 175.132 316.784 172.882 323.07C167.898 336.998 166.7 341.034 167.357 341.692C167.634 341.969 173.802 336.414 181.063 329.348C188.325 322.281 194.002 317.4 193.679 318.5C192.403 322.848 189.875 338.209 190.355 338.69C191.745 340.079 192.872 337.268 193.935 329.763C195.759 316.886 194.876 317.595 204.136 321.559C208.558 323.451 212.699 325.007 213.338 325.015C213.976 325.024 215.138 325.435 215.92 325.93C217.119 326.689 217.046 327.271 215.449 329.665C214.409 331.224 211.262 336.775 208.457 342C202.169 353.712 183.663 386.007 183.407 385.714C183.039 385.291 185.204 373.342 187.071 365.5C189.789 354.081 190.513 348 189.154 348C188.54 348 187.834 349.012 187.586 350.25C187.338 351.488 186.241 356.775 185.147 362C183.417 370.265 180.872 384.283 179.459 393.33C178.697 398.21 180.991 395.866 185.69 386.963C188.146 382.308 190.968 377.15 191.961 375.5C192.953 373.85 195.345 369.575 197.276 366C200.542 359.955 204.539 353.017 214.845 335.5L218.964 328.5L218.981 344.75C218.993 355.078 219.369 361 220.015 361C221.28 361 222.796 357.627 228.19 342.807C230.532 336.377 232.597 331.265 232.781 331.449C232.965 331.632 234.621 337.119 236.462 343.641C252.853 401.717 253.324 403.275 254.603 403.701C255.325 403.942 255.91 400.242 256.33 392.783C257.32 375.204 261.384 329.998 261.971 330.02C262.262 330.031 265.815 336.32 269.867 343.996C277.451 358.359 279.582 361.352 280.451 358.863C280.713 358.113 281.281 351.011 281.713 343.08L282.499 328.661L296.449 348.08C304.121 358.761 313.184 371.55 316.589 376.5C319.993 381.45 323.728 386.357 324.889 387.405C326.814 389.143 326.999 389.159 326.999 387.589C326.999 384.203 317.85 345.48 316.818 344.5C316.084 343.802 315.98 344.998 316.474 348.452C317.103 352.852 322.2 376.293 323.66 381.5C323.968 382.6 321.583 379.791 318.36 375.259C306.167 358.114 292.445 338.708 291.056 336.644C283.686 325.698 282.908 324.004 285.249 323.995C285.937 323.992 290.887 322.011 296.25 319.593C301.614 317.174 306.168 315.489 306.371 315.848C306.575 316.206 308.162 321.113 309.899 326.75C311.636 332.387 313.494 337 314.028 337C315.355 337 315.34 336.906 312.414 327.313C310.992 322.651 310.087 318.579 310.403 318.263C310.718 317.947 313.344 319.902 316.238 322.607C323.319 329.225 332.566 337 333.357 337C334.607 337 333.934 334.992 327.971 320.934C324.655 313.118 322.119 306.547 322.333 306.332C322.791 305.875 369.348 333.833 375.982 338.55C381.439 342.429 389.001 346.335 388.994 345.27C388.988 344.467 378.811 331.649 366.067 316.396C361.98 311.503 355.477 303.675 351.618 299C347.758 294.325 343.684 289.743 342.564 288.818C341.445 287.894 340.755 286.911 341.032 286.634C341.618 286.048 352.159 288.803 363.28 292.449C367.559 293.852 371.272 295 371.53 295C373.355 295 370.576 291.45 360.999 281.544C354.949 275.287 349.999 269.989 349.999 269.771C349.999 269.139 363.55 270.692 404.79 276.052C408.8 276.574 414.65 276.979 417.79 276.953L423.499 276.907L418.499 274.283C415.749 272.841 410.124 270.201 405.999 268.418C391.759 262.263 360.494 248.083 358.999 247.102C357.965 246.424 360.952 246.099 368.602 246.059C381.187 245.992 391.999 245.051 391.999 244.023C391.999 243.642 387.162 241.179 381.249 238.549C365.038 231.338 363.999 230.828 363.999 230.082C363.999 229.403 404.565 222.931 420.766 221.025C429.184 220.034 433.901 218.42 432.356 217.059C431.885 216.644 428.124 215.736 423.999 215.041C419.874 214.346 411.634 212.69 405.688 211.361C399.742 210.033 388.942 208.063 381.688 206.985C361.447 203.976 361.764 204.678 377.569 197.877C394.41 190.629 396.047 189.395 389.882 188.591C385.824 188.062 361.158 186 358.886 186C356.693 186 359.555 183.79 370.777 176.82C377.965 172.355 381.84 169.41 380.795 169.205C379.857 169.021 376.032 170.858 372.295 173.286C362.481 179.662 357.098 183 356.63 183C356.405 183 355.936 181.476 355.586 179.613C355.237 177.75 353.837 173.484 352.475 170.133C351.113 166.782 349.999 163.619 349.999 163.104C349.999 162.115 365.385 158.286 380.499 155.513C389.41 153.877 406.105 150.271 408.999 149.356C411.492 148.568 409.083 150.388 399.499 156.536C394.549 159.711 391.028 162.491 391.674 162.713C392.744 163.08 397.838 160.042 412.876 150.067C416.345 147.766 417.686 146.387 416.653 146.182C415.772 146.007 409.656 147.044 403.061 148.486C396.466 149.929 388.916 151.483 386.284 151.94C383.652 152.397 378.124 153.538 373.999 154.475C369.874 155.412 363.799 156.775 360.499 157.504C357.199 158.233 353.599 159.182 352.499 159.614C351.399 160.046 354.999 155.578 360.499 149.686C370.55 138.919 372.012 137 370.164 137C369.613 137 363.163 138.985 355.831 141.411C348.498 143.837 342.375 145.7 342.224 145.552C341.89 145.226 346.369 137.26 355.185 122.5C373.43 91.9516 377.65 83.9996 375.615 83.9996C374.81 83.9996 370.822 87.3276 363.528 94.0866C354.912 102.07 322.505 128 321.143 128C319.702 128 319.657 128.394 321.901 121.415C326.45 107.271 329.088 97.7556 328.597 97.2646C328.306 96.9736 322.929 101.295 316.648 106.868C310.367 112.44 305.012 117 304.748 117C304.484 117 305.137 114.412 306.199 111.25C309.901 100.226 319.455 62.2456 320.474 54.4996L321.132 49.4996L318.316 52.6196C316.766 54.3346 313.474 58.6026 310.999 62.1036C308.524 65.6036 301.221 75.0986 294.769 83.2036C288.318 91.3076 281.397 100.225 279.39 103.018C273.426 111.32 272.789 110.139 272.897 90.9996C273.007 71.4736 273.308 71.4496 263.213 91.7616C259.589 99.0556 256.299 104.681 255.903 104.262C255.506 103.843 254.196 98.5496 252.99 92.4996C248.264 68.7836 239.758 38.4526 237.054 35.6766C236.613 35.2236 235.986 35.9156 235.66 37.2136ZM236.618 45.5816C235.243 54.3666 232.084 81.0206 231.532 88.4996C231.207 92.8996 230.689 98.9256 230.381 101.89C229.833 107.16 229.872 107.266 232.16 106.649C233.446 106.301 238.549 105.52 243.499 104.911C248.449 104.303 252.609 103.702 252.742 103.576C253.213 103.133 244.838 66.7446 240.989 52.5086C238.111 41.8616 237.381 40.7066 236.618 45.5816ZM311.343 65.3646C307.957 69.8386 299.295 81.0536 292.093 90.2866C284.891 99.5196 278.999 107.466 278.999 107.944C278.999 108.423 281.586 109.608 284.749 110.578C287.912 111.549 292.931 113.396 295.903 114.684C298.875 115.972 301.485 116.847 301.703 116.629C302.082 116.25 303.332 111.979 311.253 83.9996C315.002 70.7576 318.169 57.8146 317.75 57.4486C317.612 57.3276 314.729 60.8896 311.343 65.3646ZM364.499 95.7026C358.828 100.947 346.729 110.978 332.78 122L323.289 129.5L331.369 137.195C336.933 142.493 339.702 144.518 340.263 143.695C340.71 143.038 341.959 140.831 343.038 138.79C345.755 133.649 359.929 109.676 364.197 103C368.791 95.8146 371.243 90.9896 370.275 91.0396C369.848 91.0616 367.249 93.1596 364.499 95.7026ZM116.181 95.1516C117.456 96.8856 120.749 101.533 123.499 105.479C126.249 109.424 130.524 115.272 132.999 118.473C139.391 126.741 154.088 145.271 155.404 146.721C156.252 147.655 158.423 146.113 164.659 140.147L172.806 132.354L160.653 124.1C153.968 119.561 140.849 110.489 131.499 103.941C122.149 97.3926 114.356 92.0266 114.181 92.0176C114.006 92.0076 114.906 93.4186 116.181 95.1516ZM261.268 104.693C262.241 104.947 263.591 104.93 264.268 104.656C264.945 104.382 264.149 104.175 262.499 104.195C260.849 104.215 260.295 104.439 261.268 104.693ZM221.499 107C221.159 107.55 221.583 108 222.44 108C223.297 108 223.999 107.55 223.999 107C223.999 106.45 223.576 106 223.058 106C222.54 106 221.839 106.45 221.499 107ZM232.499 109.026C226.449 110.122 218.574 111.97 214.999 113.134C208.944 115.105 187.628 124.986 188.229 125.543C188.377 125.681 191.874 124.909 195.999 123.828C206.259 121.139 228.822 121.712 239.932 124.945C261.483 131.217 277.396 143.852 282.959 159.111C285.329 165.61 289.714 170 293.837 170C295.314 170 298.767 168.433 301.51 166.517C307.85 162.092 315.441 158.478 320.249 157.597C325.745 156.589 324.888 158.587 319.244 159.941C314.505 161.078 311.638 162.582 302.449 168.75C299.746 170.565 296.321 172 294.695 172C292.079 172 291.847 172.257 292.417 174.528C293.461 178.688 293.216 194.482 292.039 198.852C290.774 203.548 287.381 210.949 284.176 216C282.857 218.078 282.065 220.719 282.227 222.5C282.473 225.21 283.061 225.678 288.315 227.341C291.514 228.353 294.358 229.772 294.635 230.494C294.912 231.216 294.207 233.632 293.069 235.863C291.93 238.095 290.999 240.335 290.999 240.841C290.999 241.347 295.039 242.816 299.976 244.104C305.961 245.665 308.47 246.716 307.504 247.257C306.683 247.716 303.482 247.403 300.132 246.534C296.875 245.69 293.721 245 293.124 245C291.187 245 290.71 249.75 292.404 252.168C294.343 254.936 294.421 256 292.684 256C291.961 256 290.67 257.462 289.816 259.25C287.274 264.57 278.068 275.18 270.54 281.467C256.454 293.231 227.979 303.979 210.859 303.994C201.935 304.001 188.775 301.695 181.568 298.861C169.206 293.999 168.623 293.838 170.128 295.698C178.408 305.934 201.965 319.622 219.868 324.598C241.851 330.71 268.823 327.96 294.196 317.021C304.751 312.47 313.337 306.888 311.648 305.674C310.797 305.062 310.825 304.716 311.755 304.338C312.446 304.058 312.714 303.347 312.35 302.758C311.905 302.039 312.711 301.892 314.805 302.311C318.02 302.954 320.135 301.65 317.51 300.643C315.609 299.913 316.679 297.005 318.856 296.985C320.282 296.971 320.301 296.841 318.999 296C318.174 295.467 317.949 295.017 318.499 295C319.049 294.983 318.824 294.514 317.999 293.957C316.926 293.233 318.278 293.019 322.749 293.208C326.508 293.366 328.999 293.914 328.999 294.582C328.999 295.193 327.42 297.319 325.491 299.305L321.983 302.917L332.741 309.313C349.442 319.242 375.201 335.018 378.249 337.183C379.761 338.257 380.999 338.909 380.999 338.631C380.999 337.571 352.519 302.329 345.198 294.33C338.748 287.282 337.338 286.183 336.398 287.469C335.782 288.311 334.466 289 333.472 289C332.479 289 332.006 288.662 332.422 288.25C332.839 287.837 331.451 286.95 329.339 286.278L325.499 285.056L329.706 285.237C332.02 285.337 334.233 285.099 334.623 284.709C335.013 284.319 334.245 283.993 332.916 283.985C331.586 283.976 329.824 283.533 328.999 283C327.838 282.25 328.177 282.005 330.499 281.916C333.446 281.803 333.455 281.787 330.999 281C328.525 280.208 328.53 280.197 331.499 279.984C333.301 279.854 333.8 279.585 332.749 279.311C329.203 278.384 331.143 277.255 335.749 277.565C338.362 277.741 339.374 277.647 337.999 277.358C333.523 276.414 333.095 274.698 337.499 275.349L341.499 275.941L337.999 274.546L334.499 273.152L338.999 272.976L343.499 272.799L339.558 271.876C333.886 270.546 333.739 269.725 339.249 270.149C345.28 270.613 345.467 269.343 339.499 268.448C337.024 268.077 334.999 267.365 334.999 266.867C334.999 266.369 336.124 266.195 337.499 266.481C338.874 266.766 341.124 267.234 342.499 267.519C343.874 267.805 344.999 267.58 344.999 267.019C344.999 266.459 343.761 265.994 342.249 265.986C338.624 265.968 334.999 264.964 334.999 263.978C334.999 263.544 337.812 263.355 341.249 263.558L347.499 263.926L342.612 263.027C337.109 262.013 334.027 259.985 338.049 260.024C339.396 260.037 342.149 260.431 344.165 260.9C347.283 261.624 347.901 261.481 348.304 259.94C348.754 258.222 346.347 256.319 345.189 257.476C344.901 257.764 345.191 258 345.832 258C346.474 258 346.999 258.408 346.999 258.906C346.999 260.633 343.182 258.806 342.665 256.832C342.194 255.028 342.524 254.9 346.323 255.411L350.499 255.973L347.499 254.532L344.499 253.09L348.499 252.94L352.499 252.79L348.499 251.472L344.499 250.154L348.308 250.077C352.419 249.994 352.602 248 348.499 248C347.189 248 345.797 247.482 345.405 246.848C344.892 246.018 345.855 245.851 348.846 246.253C353.605 246.891 354.277 245.922 350.249 244.233L347.499 243.079L350.749 243.619C352.742 243.95 353.999 243.741 353.999 243.079C353.999 242.486 352.901 242 351.558 242C350.215 242 348.839 241.55 348.499 241C348.13 240.403 349.35 240 351.523 240C355.803 240 355.925 237.687 351.672 237.184C350.202 237.01 348.999 236.458 348.999 235.959C348.999 235.459 350.349 235.32 351.999 235.65C353.91 236.032 354.999 235.842 354.999 235.125C354.999 234.506 353.761 233.941 352.249 233.868C349.775 233.75 349.851 233.663 352.999 233C356.064 232.355 356.164 232.247 353.808 232.132C352.328 232.059 350.802 231.49 350.416 230.866C349.93 230.08 350.68 229.873 352.857 230.192C357.189 230.828 356.806 229.594 352.249 228.233L348.499 227.113L352.249 227.356C354.783 227.52 355.999 227.177 355.999 226.299C355.999 225.585 355.072 225 353.94 225C352.543 225 352.132 224.598 352.662 223.75C353.915 221.744 353.914 220.009 352.661 219.882C352.022 219.817 352.849 219.441 354.499 219.048L357.499 218.333L353.749 217.555C349.179 216.607 348.737 214.986 353.203 215.551C356.64 215.986 358.024 214.813 357.308 212.073C356.98 210.821 355.621 210.302 352.206 210.126C345.838 209.796 345.498 209 351.725 209C356.944 209 358.585 207.69 357.361 204.5C356.947 203.423 355.263 203 351.392 203C348.426 203 345.999 202.55 345.999 202C345.999 201.45 348.474 201 351.499 201C354.524 201 356.999 200.55 356.999 200C356.999 199.45 355.451 199 353.558 199C351.665 199 349.839 198.55 349.499 198C349.131 197.405 350.322 197 352.44 197C354.397 197 355.999 196.662 356 196.25C356 195.838 353.75 195.656 351 195.847C347.828 196.066 345.999 195.792 345.999 195.097C345.999 194.444 348.071 194 351.116 194C355.934 194 356.197 193.869 355.629 191.75C355.298 190.512 355.02 188.713 355.013 187.75C355.002 186.377 354.084 185.977 350.749 185.895L346.499 185.79L350.499 184.472C354.821 183.047 354.466 182.694 348.999 182.981C344.751 183.203 345.97 181.372 350.499 180.727C352.852 180.392 352.569 180.267 349.19 180.15C344.376 179.982 344.254 178 349.058 178C350.676 178 351.999 177.578 351.999 177.063C351.999 176.547 350.424 176.381 348.499 176.694C346.228 177.062 344.999 176.865 344.999 176.131C344.999 175.509 346.386 175 348.082 175C350.107 175 351.021 174.571 350.744 173.75C350.512 173.063 349.39 172.5 348.251 172.5C347.112 172.5 345.839 172.162 345.423 171.75C345.006 171.338 345.389 171 346.273 171C347.158 171 348.133 170.592 348.441 170.093C348.75 169.595 348.101 169.422 347 169.71C345.881 170.003 344.999 169.741 344.999 169.117C344.999 168.502 345.674 168 346.499 168C347.324 168 347.999 167.514 347.999 166.921C347.999 166.241 346.886 166.085 344.999 166.5C343.112 166.915 341.999 166.759 341.999 166.079C341.999 165.486 342.872 165 343.94 165C345.008 165 346.17 164.532 346.524 163.96C346.941 163.285 346.258 163.148 344.583 163.568C342.968 163.974 341.999 163.801 341.999 163.108C341.999 162.499 342.889 162 343.978 162C345.721 162 345.822 161.705 344.826 159.519C343.942 157.579 343.183 157.167 341.347 157.627C338.459 158.352 338.227 157.221 341.049 156.177C343.007 155.453 342.932 155.195 339.404 150.459C330.282 138.218 316.152 126.227 304.903 121.183C296.237 117.297 282.493 112.286 274.267 110.012C263.51 107.038 245.782 106.62 232.499 109.026ZM165.999 109C165.999 109.55 166.449 110 166.999 110C167.549 110 167.999 109.55 167.999 109C167.999 108.45 167.549 108 166.999 108C166.449 108 165.999 108.45 165.999 109ZM238.499 109.979C222.212 112.307 212.702 114.777 218.999 115.046C221.308 115.144 221.252 115.242 218.264 116.326C216.485 116.972 215.022 117.838 215.014 118.25C215.006 118.662 214.999 119.39 214.999 119.866C214.999 120.342 216.817 120.399 219.039 119.993C223.533 119.171 225.368 118.044 222.416 117.919C221.362 117.874 223.199 117.039 226.499 116.063C230.539 114.869 231.846 114.14 230.499 113.832C226.684 112.959 246.311 110.757 253.689 111.231C257.768 111.492 260.744 111.369 260.302 110.956C259.098 109.83 244.21 109.163 238.499 109.979ZM0.493438 452C0.493438 637.625 0.608438 713.562 0.749438 620.75C0.890438 527.937 0.890438 376.062 0.749438 283.25C0.608438 190.437 0.493438 266.375 0.493438 452ZM199.749 125.662C200.437 125.94 201.562 125.94 202.249 125.662C202.937 125.385 202.374 125.158 200.999 125.158C199.624 125.158 199.062 125.385 199.749 125.662ZM247.268 131.693C248.241 131.947 249.591 131.93 250.268 131.656C250.945 131.382 250.149 131.175 248.499 131.195C246.849 131.215 246.295 131.439 247.268 131.693ZM71.9994 144.453C71.9994 144.674 74.8124 146.558 78.2494 148.64C81.6874 150.721 96.1794 160.208 110.454 169.722C128.453 181.717 136.617 186.633 137.089 185.76C137.463 185.067 138.087 182.925 138.475 181C138.864 179.075 140.984 173.953 143.187 169.619C147.608 160.919 147.536 160.64 140.611 159.586C138.349 159.242 132.449 157.887 127.499 156.576C122.549 155.264 112.874 152.972 105.999 151.481C99.1244 149.99 90.1244 147.971 85.9994 146.995C76.6004 144.77 71.9994 143.934 71.9994 144.453ZM350.999 149C350.999 149.55 351.422 150 351.94 150C352.458 150 353.159 149.55 353.499 149C353.839 148.45 353.415 148 352.558 148C351.701 148 350.999 148.45 350.999 149ZM173.596 153.844C173.25 154.404 173.454 155.163 174.049 155.531C175.587 156.481 176.579 155.18 175.295 153.896C174.577 153.178 174.018 153.161 173.596 153.844ZM148.355 155.233C147.32 156.908 149.036 157.391 150.57 155.857C151.936 154.492 151.928 154.333 150.503 154.333C149.627 154.333 148.661 154.738 148.355 155.233ZM265.999 158C265.999 158.55 266.449 159 266.999 159C267.549 159 267.999 158.55 267.999 158C267.999 157.45 267.549 157 266.999 157C266.449 157 265.999 157.45 265.999 158ZM385.218 165.337C381.916 167.171 383.709 168.201 387.126 166.434C388.706 165.617 389.999 164.735 389.999 164.474C389.999 163.608 387.53 164.054 385.218 165.337ZM322.535 174.661C322.197 176.459 321.411 178.245 320.787 178.631C320.162 179.017 316.054 179.909 311.657 180.613C305.879 181.538 303.084 182.498 301.58 184.075C299.545 186.208 299.544 186.244 301.499 185.672C306.097 184.327 311.802 183.032 316.385 182.29C320.612 181.607 321.867 180.804 325.681 176.348L330.091 171.195L326.619 171.294C323.519 171.382 323.083 171.741 322.535 174.661ZM157.999 176C157.999 176.55 158.674 177 159.499 177C160.324 177 160.999 176.55 160.999 176C160.999 175.45 160.324 175 159.499 175C158.674 175 157.999 175.45 157.999 176ZM162.217 177.154C162.736 178.712 164.973 178.984 165.052 177.5C165.081 176.95 164.354 176.345 163.437 176.154C162.394 175.939 161.937 176.313 162.217 177.154ZM358.999 189C358.999 189.55 359.449 190 359.999 190C360.549 190 360.999 189.55 360.999 189C360.999 188.45 360.549 188 359.999 188C359.449 188 358.999 188.45 358.999 189ZM128.249 189.716C129.761 189.945 132.237 189.945 133.749 189.716C135.261 189.487 134.024 189.3 130.999 189.3C127.974 189.3 126.736 189.487 128.249 189.716ZM371.268 189.693C372.241 189.947 373.591 189.93 374.268 189.656C374.945 189.382 374.149 189.175 372.499 189.195C370.849 189.215 370.295 189.439 371.268 189.693ZM347.999 191C347.999 191.55 349.349 192 350.999 192C352.649 192 353.999 191.55 353.999 191C353.999 190.45 352.649 190 350.999 190C349.349 190 347.999 190.45 347.999 191ZM376.999 190.962C374.751 191.648 374.686 191.804 376.35 192.508C377.439 192.969 378.475 192.848 378.866 192.215C379.232 191.622 381.549 190.96 384.015 190.744L388.499 190.349L383.999 190.274C381.524 190.233 378.374 190.543 376.999 190.962ZM274.999 193C274.999 193.55 275.449 194 275.999 194C276.549 194 276.999 193.55 276.999 193C276.999 192.45 276.549 192 275.999 192C275.449 192 274.999 192.45 274.999 193ZM246.999 198C246.999 198.55 247.476 199 248.058 199C248.64 199 248.839 198.55 248.499 198C248.159 197.45 247.683 197 247.44 197C247.197 197 246.999 197.45 246.999 198ZM240.999 199.059C240.999 199.641 241.449 199.84 241.999 199.5C242.549 199.16 242.999 198.684 242.999 198.441C242.999 198.198 242.549 198 241.999 198C241.449 198 240.999 198.477 240.999 199.059ZM239.999 202.987C239.999 204.162 242.847 205.054 243.456 204.07C243.742 203.607 243.082 202.993 241.988 202.707C240.894 202.421 239.999 202.547 239.999 202.987ZM265.683 204.75C265.445 205.162 265.611 206.4 266.054 207.5C266.496 208.6 266.89 208.952 266.929 208.281C266.971 207.552 267.702 207.319 268.749 207.701C270.32 208.274 270.304 208.117 268.594 206.17C266.479 203.761 266.305 203.676 265.683 204.75ZM278.999 205C277.717 205.828 277.753 205.972 279.249 205.985C280.211 205.993 280.999 205.55 280.999 205C280.999 203.78 280.886 203.78 278.999 205ZM347.999 205C347.999 205.55 350.136 205.955 352.749 205.9C356.62 205.819 357.037 205.653 354.999 205C351.385 203.843 347.999 203.843 347.999 205ZM359.999 216.791V228.217L362.358 227.625C363.655 227.299 367.817 226.592 371.608 226.052C375.398 225.513 385.924 223.969 394.999 222.622C404.074 221.275 414.532 219.873 418.238 219.508C425.722 218.77 427.664 217.552 422.729 216.693C420.953 216.383 412.749 214.724 404.499 213.005C396.249 211.286 382.862 208.864 374.749 207.623L359.999 205.365V216.791ZM229.999 208C229.999 208.55 230.449 209 230.999 209C231.549 209 231.999 208.55 231.999 208C231.999 207.45 231.549 207 230.999 207C230.449 207 229.999 207.45 229.999 208ZM239.999 207.969C239.999 208.501 239.212 208.642 238.249 208.281C236.717 207.707 236.67 207.835 237.871 209.313C239.667 211.52 240.692 211.442 241.999 209C242.853 207.404 242.759 207 241.534 207C240.69 207 239.999 207.436 239.999 207.969ZM321.318 209.071C319.018 210.21 316.356 212.333 315.401 213.79C313.23 217.103 313.156 224.065 315.257 227.272C317.232 230.285 322.774 233 326.95 233C333.51 233 340.999 226.458 340.999 220.727C340.999 216.314 336.616 210.464 331.895 208.575C326.864 206.562 326.337 206.587 321.318 209.071ZM227.999 210.969C227.999 211.501 228.674 211.678 229.499 211.362C230.324 211.045 230.999 210.609 230.999 210.393C230.999 210.177 230.324 210 229.499 210C228.674 210 227.999 210.436 227.999 210.969ZM319.922 212.923C317.56 215.285 316.999 216.707 316.999 220.334C316.999 224.118 317.482 225.228 320.076 227.411C324.519 231.15 330.695 231.02 334.893 227.099C338.508 223.723 338.931 219.933 336.162 215.734C331.807 209.13 324.909 207.936 319.922 212.923ZM237.499 212C237.159 212.55 237.609 213 238.499 213C239.389 213 239.839 212.55 239.499 212C239.159 211.45 238.709 211 238.499 211C238.289 211 237.839 211.45 237.499 212ZM243.999 212C243.999 212.55 244.476 213 245.058 213C245.64 213 245.839 212.55 245.499 212C245.159 211.45 244.683 211 244.44 211C244.197 211 243.999 211.45 243.999 212ZM349.499 213C350.599 213.473 352.399 213.884 353.499 213.914C355.15 213.96 355.237 213.8 353.999 213C353.174 212.467 351.374 212.055 349.999 212.086C347.709 212.136 347.667 212.213 349.499 213ZM222.677 220.389C220.654 223.847 218.999 227.67 218.999 228.885C218.999 231.04 219.056 231.051 221.353 229.317C222.706 228.297 223.739 226.439 223.781 224.95C223.822 223.525 224.809 220.742 225.974 218.767C227.139 216.792 227.702 214.934 227.224 214.639C226.746 214.344 224.7 216.931 222.677 220.389ZM235.088 215.833C234.317 217.274 234.47 217.673 235.803 217.697C237.963 217.736 240.145 216.045 239.429 214.887C238.501 213.385 236.121 213.904 235.088 215.833ZM233.274 221C233.191 222.1 233.545 223 234.061 223C234.577 223 234.999 222.363 234.999 221.583C234.999 220.804 235.562 219.94 236.249 219.662C236.937 219.385 236.582 219.122 235.462 219.079C234.111 219.027 233.374 219.674 233.274 221ZM265.999 220.059C265.999 220.641 266.449 220.84 266.999 220.5C267.549 220.16 267.999 219.684 267.999 219.441C267.999 219.198 267.549 219 266.999 219C266.449 219 265.999 219.477 265.999 220.059ZM133.999 222.122C133.999 223.896 134.246 224.04 135.499 223C136.324 222.315 136.999 221.36 136.999 220.878C136.999 220.395 136.324 220 135.499 220C134.637 220 133.999 220.902 133.999 222.122ZM184.999 225C184.999 225.55 185.449 226 185.999 226C186.549 226 186.999 225.55 186.999 225C186.999 224.45 186.549 224 185.999 224C185.449 224 184.999 224.45 184.999 225ZM231.666 224.667C230.355 225.978 231.033 226.804 232.999 226.29C234.099 226.002 234.999 225.369 234.999 224.883C234.999 223.85 232.636 223.697 231.666 224.667ZM251.999 226C251.999 226.55 252.422 227 252.94 227C253.458 227 254.159 226.55 254.499 226C254.839 225.45 254.415 225 253.558 225C252.701 225 251.999 225.45 251.999 226ZM152.499 228C152.159 228.55 152.358 229 152.94 229C153.522 229 153.999 228.55 153.999 228C153.999 227.45 153.801 227 153.558 227C153.315 227 152.839 227.45 152.499 228ZM237.187 229.063C237.427 229.784 238.215 230.572 238.937 230.813C239.687 231.063 240.062 230.688 239.812 229.938C239.571 229.216 238.783 228.428 238.062 228.188C237.312 227.938 236.937 228.313 237.187 229.063ZM144.499 232C144.159 232.55 144.609 233 145.499 233C146.389 233 146.839 232.55 146.499 232C146.159 231.45 145.709 231 145.499 231C145.289 231 144.839 231.45 144.499 232ZM273.693 231.639C272.894 232.438 273.797 234 275.058 234C275.576 234 275.999 233.325 275.999 232.5C275.999 230.954 274.819 230.513 273.693 231.639ZM278.217 233.154C278.736 234.712 280.973 234.984 281.052 233.5C281.081 232.95 280.354 232.345 279.437 232.154C278.394 231.939 277.937 232.313 278.217 233.154ZM213.567 233.89C213.219 234.452 212.269 234.657 211.456 234.345C210.407 233.943 210.156 234.247 210.595 235.389C211.026 236.512 210.65 237.005 209.356 237.015C207.951 237.027 207.825 237.237 208.839 237.88C209.924 238.568 209.784 239.502 208.096 242.81C206.671 245.604 206.361 247.106 207.113 247.571C207.874 248.041 207.795 248.519 206.856 249.125C205.725 249.854 205.741 250.156 206.951 250.934C208.705 252.062 211.628 248.469 211.169 245.75C211.006 244.787 211.389 244 212.019 244C212.65 244 212.971 243.438 212.732 242.75C212.494 242.063 212.911 239.742 213.659 237.594C214.959 233.864 214.906 231.724 213.567 233.89ZM271.364 238.219C270.695 239.302 273.179 239.172 274.986 238.029C276.146 237.296 275.964 237.127 274.16 237.263C272.888 237.359 271.63 237.789 271.364 238.219ZM224.692 240.359C224.359 241.226 224.547 242.22 225.109 242.568C226.666 243.53 227.298 242.356 226.24 240.466C225.398 238.961 225.232 238.95 224.692 240.359ZM370.999 240C370.999 240.55 371.674 241 372.499 241C373.324 241 373.999 240.55 373.999 240C373.999 239.45 373.324 239 372.499 239C371.674 239 370.999 239.45 370.999 240ZM186.638 241.694C185.685 242.647 185.866 245 186.892 245C188.119 245 189.104 242.183 188.095 241.559C187.646 241.282 186.99 241.342 186.638 241.694ZM268.999 242.059C268.999 242.641 269.449 242.84 269.999 242.5C270.549 242.16 270.999 241.684 270.999 241.441C270.999 241.198 270.549 241 269.999 241C269.449 241 268.999 241.477 268.999 242.059ZM378.749 242.662C379.437 242.94 380.562 242.94 381.249 242.662C381.937 242.385 381.374 242.158 379.999 242.158C378.624 242.158 378.062 242.385 378.749 242.662ZM282.509 244.016C282.855 244.575 283.556 244.774 284.068 244.457C285.455 243.6 285.197 243 283.44 243C282.583 243 282.164 243.457 282.509 244.016ZM223.999 245C223.999 245.55 224.449 246 224.999 246C225.549 246 225.999 245.55 225.999 245C225.999 244.45 225.549 244 224.999 244C224.449 244 223.999 244.45 223.999 245ZM215.58 247.649C214.732 249.859 215.442 250.376 216.905 248.613C217.615 247.758 217.715 246.943 217.152 246.595C216.633 246.274 215.926 246.748 215.58 247.649ZM178.999 248C178.999 248.55 179.476 249 180.058 249C180.64 249 180.839 248.55 180.499 248C180.159 247.45 179.683 247 179.44 247C179.197 247 178.999 247.45 178.999 248ZM119.693 248.639C118.946 249.387 119.765 251 120.891 251C121.317 251 121.666 250.325 121.666 249.5C121.666 247.933 120.784 247.548 119.693 248.639ZM355.562 248.77C355.252 249.08 354.999 249.922 354.999 250.642C354.999 251.361 353.649 254.897 351.999 258.5C350.349 262.103 348.999 265.468 348.999 265.98C348.999 267.077 350.89 267.391 369.999 269.468C377.974 270.335 390.996 271.924 398.938 273C406.879 274.076 413.524 274.809 413.704 274.629C413.884 274.449 409.411 272.249 403.765 269.741C398.119 267.233 385.09 261.362 374.812 256.694C364.534 252.026 355.872 248.46 355.562 248.77ZM114.142 250.11C115.908 251.229 117.999 251.237 117.999 250.125C117.999 249.644 116.826 249.25 115.392 249.25C113.553 249.25 113.185 249.503 114.142 250.11ZM214.796 252.697C214.593 253.689 215.076 254.996 215.87 255.602C217.058 256.508 216.843 256.822 214.657 257.371C213.195 257.738 211.999 258.48 211.999 259.019C211.999 260.235 212.249 260.236 215.434 259.025C218.044 258.033 219.027 255.013 216.749 254.985C215.786 254.973 215.797 254.78 216.796 254.146C217.841 253.484 217.808 253.086 216.63 252.109C215.443 251.124 215.096 251.235 214.796 252.697ZM133.499 257.774C127.296 262.543 96.0484 286.002 82.0094 296.43C77.6184 299.691 74.1474 302.481 74.2954 302.63C74.4444 302.778 81.0764 300.876 89.0324 298.403C96.9894 295.929 107.999 292.551 113.499 290.896C126.115 287.099 148.74 278.961 150.768 277.491C150.915 277.384 149.306 273.742 147.191 269.398C145.076 265.054 142.745 259.925 142.012 258C141.279 256.075 140.413 254.199 140.089 253.83C139.764 253.462 136.799 255.237 133.499 257.774ZM185.999 256C185.999 256.55 186.449 257 186.999 257C187.549 257 187.999 256.55 187.999 256C187.999 255.45 187.549 255 186.999 255C186.449 255 185.999 255.45 185.999 256ZM218.999 258C218.999 258.55 219.449 259 219.999 259C220.549 259 220.999 258.55 220.999 258C220.999 257.45 220.549 257 219.999 257C219.449 257 218.999 257.45 218.999 258ZM196.499 262C196.159 262.55 196.358 263 196.94 263C197.522 263 197.999 262.55 197.999 262C197.999 261.45 197.801 261 197.558 261C197.315 261 196.839 261.45 196.499 262ZM169.666 268.667C169.299 269.033 168.999 269.798 168.999 270.367C168.999 270.993 169.465 270.934 170.182 270.217C170.833 269.566 171.133 268.801 170.849 268.517C170.565 268.233 170.032 268.3 169.666 268.667ZM181.498 273.001C181.113 273.624 181.631 274.764 182.649 275.535C186.199 278.225 187.416 276.592 184.098 273.59C182.769 272.387 181.987 272.21 181.498 273.001ZM186.149 272.95C186.579 274.239 187.95 274.471 188.074 273.275C188.115 272.876 187.609 272.37 186.949 272.15C186.289 271.93 185.929 272.29 186.149 272.95ZM206.078 281.133C206.035 282.032 206.899 283.002 207.999 283.29C209.099 283.577 209.999 283.405 209.999 282.906C209.999 282.408 209.362 282 208.582 282C207.803 282 206.939 281.438 206.661 280.75C206.341 279.957 206.128 280.097 206.078 281.133ZM151.509 283.016C151.855 283.575 152.556 283.774 153.068 283.457C154.455 282.6 154.197 282 152.44 282C151.583 282 151.164 282.457 151.509 283.016ZM228.999 287.107C228.999 287.716 228.324 287.955 227.499 287.638C226.674 287.322 225.999 287.451 225.999 287.924C225.999 289.52 228.828 289.888 229.411 288.368C229.802 287.349 230.718 287.067 232.244 287.497C234.008 287.993 234.173 287.902 232.999 287.081C231.03 285.703 228.999 285.716 228.999 287.107ZM147.812 287.683C148.533 287.972 149.396 287.936 149.728 287.604C150.06 287.272 149.47 287.036 148.416 287.079C147.251 287.127 147.014 287.364 147.812 287.683ZM183.812 287.683C184.533 287.972 185.396 287.936 185.728 287.604C186.06 287.272 185.47 287.036 184.416 287.079C183.251 287.127 183.014 287.364 183.812 287.683ZM321.999 288C321.999 288.55 323.237 288.968 324.749 288.93C327.186 288.867 327.271 288.762 325.499 288C322.768 286.826 321.999 286.826 321.999 288ZM359.999 288.393C359.999 288.609 360.674 289.045 361.499 289.362C362.324 289.678 362.999 289.501 362.999 288.969C362.999 288.436 362.324 288 361.499 288C360.674 288 359.999 288.177 359.999 288.393ZM198.999 290C198.999 290.55 199.449 291 199.999 291C200.549 291 200.999 290.55 200.999 290C200.999 289.45 200.549 289 199.999 289C199.449 289 198.999 289.45 198.999 290ZM193.999 291C193.999 291.55 194.449 292 194.999 292C195.549 292 195.999 291.55 195.999 291C195.999 290.45 195.549 290 194.999 290C194.449 290 193.999 290.45 193.999 291ZM319.999 291C323.666 292.174 328.225 292.174 327.499 291C327.159 290.45 324.77 290.045 322.19 290.1C318.349 290.181 317.952 290.344 319.999 291ZM329.999 291.583C329.999 292.454 330.533 292.989 331.187 292.771C333.041 292.153 333.348 290 331.582 290C330.711 290 329.999 290.712 329.999 291.583ZM156.938 297.233C154.532 300.68 146.703 311.375 139.54 321C124.158 341.669 118.586 349.47 116.422 353.363L114.831 356.226L118.799 353.363C120.981 351.788 127.657 346.668 133.633 341.985C139.609 337.303 147.874 331.017 151.999 328.017C158.866 323.023 167.741 316.069 170.615 313.432C171.255 312.844 173.243 311.131 175.033 309.625C176.822 308.119 177.884 306.553 177.393 306.144C176.901 305.735 173.082 302.153 168.906 298.183L161.313 290.966L156.938 297.233ZM199.999 293.469C199.999 294.363 199.413 294.712 198.499 294.362C197.674 294.045 196.999 294.284 196.999 294.893C196.999 296.135 198.074 296.292 200.417 295.393C202.145 294.73 202.613 292 200.999 292C200.449 292 199.999 292.661 199.999 293.469ZM205.187 294.063C205.427 294.784 206.215 295.572 206.937 295.813C207.687 296.063 208.062 295.688 207.812 294.938C207.571 294.216 206.783 293.428 206.062 293.188C205.312 292.938 204.937 293.313 205.187 294.063ZM179.732 296.124C180.411 296.808 181.218 297.115 181.525 296.807C181.833 296.499 181.278 295.94 180.292 295.564C178.867 295.022 178.752 295.136 179.732 296.124ZM205.749 301.662C206.437 301.94 207.562 301.94 208.249 301.662C208.937 301.385 208.374 301.158 206.999 301.158C205.624 301.158 205.062 301.385 205.749 301.662ZM211.749 301.662C212.437 301.94 213.562 301.94 214.249 301.662C214.937 301.385 214.374 301.158 212.999 301.158C211.624 301.158 211.062 301.385 211.749 301.662ZM259.749 317.253C256.037 317.792 252.999 318.631 252.999 319.117C252.999 319.603 251.087 320.032 248.749 320.07C245.304 320.127 244.878 320.32 246.499 321.088C247.83 321.718 244.987 321.863 237.999 321.521C230.948 321.175 227.992 321.328 228.999 321.988C231.649 323.722 228.086 323.202 218.948 320.521C209.675 317.8 208.091 317.525 209.549 318.888C212.827 321.953 234.743 327 244.771 327C250.114 327 247.502 325.196 241.499 324.74C238.749 324.531 241.112 324.279 246.749 324.18C252.386 324.081 256.999 323.581 256.999 323.07C256.999 322.558 255.987 321.944 254.749 321.706C253.38 321.442 253.991 321.219 256.308 321.136C258.534 321.057 259.863 320.589 259.506 320.011C259.164 319.458 259.538 319.27 260.357 319.584C261.161 319.892 263.209 319.426 264.909 318.547C267.782 317.061 268.985 315.821 267.249 316.136C266.836 316.21 263.461 316.713 259.749 317.253ZM231.749 323.662C232.437 323.94 233.562 323.94 234.249 323.662C234.937 323.385 234.374 323.158 232.999 323.158C231.624 323.158 231.062 323.385 231.749 323.662ZM228.499 331C228.159 331.55 228.358 332 228.94 332C229.522 332 229.999 331.55 229.999 331C229.999 330.45 229.801 330 229.558 330C229.315 330 228.839 330.45 228.499 331ZM235.611 332.352C235.934 333.37 237.02 336.97 238.025 340.352C239.03 343.733 241.66 352.575 243.87 360C246.08 367.425 249.216 378.663 250.84 384.974L253.792 396.448L254.375 389.974C254.696 386.413 255.66 375.85 256.518 366.5C257.376 357.15 258.404 345.225 258.803 340L259.527 330.5H247.275C235.805 330.5 235.06 330.618 235.611 332.352ZM416.999 330.941C416.999 331.459 417.449 332.16 417.999 332.5C418.549 332.84 418.999 335.611 418.999 338.658C418.999 345.361 421.286 350.58 425.084 352.544C426.633 353.345 428.147 354 428.449 354C429.749 354 428.916 339.74 427.45 336.906C425.241 332.634 416.999 327.93 416.999 330.941ZM421.079 339.604C421.562 344.272 422.362 346.807 423.807 348.253L425.852 350.298L426.536 346.656C426.912 344.652 426.911 341.773 426.535 340.257C425.885 337.636 422.363 333 421.023 333C420.678 333 420.703 335.972 421.079 339.604ZM272.999 338C272.999 338.55 273.449 339 273.999 339C274.549 339 274.999 338.55 274.999 338C274.999 337.45 274.549 337 273.999 337C273.449 337 272.999 337.45 272.999 338ZM40.2294 342.674C36.7814 345.15 33.2714 348.506 32.4314 350.132C30.5994 353.675 30.8264 364.12 32.7494 364.754C33.4924 364.999 33.9994 364.286 33.9994 362.996C33.9994 361.699 36.2584 358.544 39.6074 355.163C42.6914 352.048 45.8414 348.052 46.6074 346.282C48.0994 342.833 48.4824 337.944 47.2494 338.086C46.8364 338.134 43.6784 340.198 40.2294 342.674ZM189.468 341.5C189.21 342.325 188.794 343.661 188.543 344.468C188.292 345.275 188.494 346.188 188.993 346.496C190.029 347.136 191.999 343.905 191.999 341.566C191.999 339.569 190.086 339.519 189.468 341.5ZM93.9874 344.348C92.0694 345.64 89.2244 347.475 87.6654 348.426C83.7634 350.808 81.7334 356.043 82.5644 361.584C83.3184 366.611 84.0964 367.055 85.9824 363.533C86.7084 362.176 89.0514 359.908 91.1904 358.493C93.3284 357.078 95.9584 354.475 97.0344 352.71C98.9294 349.602 99.7834 342 98.2374 342C97.8184 342 95.9064 343.057 93.9874 344.348ZM40.7724 345.624C36.6014 348.283 34.5674 351.063 33.5484 355.5L32.8584 358.5L37.0124 354.5C45.3524 346.47 47.5374 341.311 40.7724 345.624ZM91.2094 348.545C86.0714 352.004 84.5004 354.696 85.1664 358.894C85.4724 360.821 85.8774 360.666 90.1774 356.979C94.2424 353.493 98.1044 346.771 96.7934 345.461C96.5714 345.239 94.0584 346.626 91.2094 348.545ZM275.499 346C275.839 346.55 276.567 347 277.117 347C277.667 347 277.839 346.55 277.499 346C277.159 345.45 276.431 345 275.881 345C275.331 345 275.159 345.45 275.499 346ZM368.208 383.508C368.744 389.966 371.011 392.931 378.216 396.599C380.81 397.92 383.172 399 383.466 399C384.425 399 384.025 394.918 382.847 392.684C381.818 390.734 369.056 378.006 368.125 378.002C367.92 378.001 367.957 380.478 368.208 383.508ZM369.603 384.608C370.718 389.132 373.111 392.149 376.811 393.695C383.166 396.35 382.178 393.621 374.194 386.469C369.031 381.843 368.909 381.793 369.603 384.608ZM152.049 386.689C145.607 392.203 142.187 402.196 145.299 406.413C146.662 408.26 146.851 408.213 150.793 405.045C153.038 403.241 155.16 401.03 155.509 400.132C156.176 398.413 157.228 383 156.679 383C156.503 383 154.419 384.66 152.049 386.689ZM150.776 390.842C147.697 394.514 145.415 401.035 146.353 403.479C146.922 404.963 147.199 404.947 149.441 403.305C152.762 400.871 154.191 397.155 153.813 391.934L153.499 387.593L150.776 390.842ZM294.999 400.768C294.999 403.959 299.074 410.435 302.103 412.056C303.239 412.664 304.832 414.748 305.642 416.689C307.328 420.724 307.676 420.671 308.453 416.258C309.318 411.353 306.418 405.412 301.225 401.447C295.767 397.279 294.999 397.195 294.999 400.768ZM225.093 405.003C222.655 410.67 222.436 415.011 224.397 418.802C225.684 421.291 229.911 425.841 230.066 424.905C230.104 424.682 230.328 423.009 230.565 421.187C230.802 419.365 231.447 417.032 231.997 416.003C234.316 411.67 232.203 402.06 228.63 400.689C227.629 400.305 226.546 401.626 225.093 405.003ZM296.999 402.368C296.999 403.159 299.006 405.988 301.459 408.653C305.249 412.771 305.926 413.173 305.959 411.327C306.002 408.97 301.937 403.572 298.891 401.942C297.443 401.167 296.999 401.267 296.999 402.368ZM226.634 406.955C224.694 411.803 224.656 413.506 226.397 417.5L227.705 420.5L229.429 416.5C230.522 413.965 230.971 411.082 230.655 408.629C229.907 402.819 228.52 402.241 226.634 406.955ZM36.4994 412.911C33.1994 414.489 29.6734 416.695 28.6644 417.813C26.7674 419.914 24.9964 428.565 26.6024 427.883C27.0984 427.672 30.3454 425.959 33.8164 424.077C40.4714 420.466 43.3594 416.735 42.8094 412.454L42.4994 410.041L36.4994 412.911ZM36.4994 415.208C31.1714 417.912 28.9994 419.924 28.9994 422.155C28.9994 424.459 28.9384 424.464 34.0404 421.75C41.4244 417.823 43.7994 411.502 36.4994 415.208ZM74.0894 428.75C68.3914 434.269 66.4204 439.67 67.7154 446.216C68.1644 448.486 69.0524 450.518 69.6884 450.73C70.3244 450.942 72.9044 449.141 75.4214 446.729L79.9994 442.343V433.171C79.9994 428.127 79.7734 424 79.4964 424C79.2194 424 76.7864 426.137 74.0894 428.75ZM74.8184 431.004C71.4434 435.415 69.9994 439.179 69.9994 443.565C69.9994 447.608 71.2014 447.889 74.4784 444.612C77.1464 441.944 78.3054 437.382 77.8224 431.456L77.4994 427.5L74.8184 431.004ZM408.999 431.032C408.999 435.145 411.881 439.823 416.279 442.849C418.743 444.544 421.062 446.721 421.432 447.687C422.008 449.187 422.243 449.229 423.037 447.972C424.455 445.73 424.179 441.182 422.397 437.425C421.241 434.991 419.304 433.343 415.458 431.524C409.028 428.482 408.999 428.48 408.999 431.032ZM410.999 432.55C410.999 432.852 411.663 434.384 412.475 435.953C413.882 438.675 420.606 443.727 421.556 442.776C421.805 442.528 421.506 440.885 420.893 439.126C420.15 436.995 418.494 435.273 415.928 433.964C411.884 431.901 410.999 431.647 410.999 432.55ZM166.963 447.344C161.213 450.849 159.383 452.375 158.158 454.684C156.875 457.103 156.567 464.045 157.749 463.921C160.009 463.685 167.812 457.908 169.749 455.038C171.853 451.921 172.914 444.885 171.249 445.094C170.837 445.146 168.908 446.159 166.963 447.344ZM164.709 451.599C161.372 453.783 158.999 457.288 158.999 460.031C158.999 461.166 165.202 457.555 167.24 455.234C169.062 453.158 170.469 448.976 169.316 449.059C168.867 449.091 166.794 450.234 164.709 451.599ZM245.666 460.667C245.299 461.033 244.999 462.091 244.999 463.017C244.999 463.942 243.649 466.564 241.999 468.841C240.349 471.119 238.999 473.532 238.999 474.204C238.999 475.696 244.687 469.197 245.535 466.735C246.406 464.206 247.999 465.617 247.999 468.919C247.999 471.888 242.243 484 240.832 484C240.374 484 239.992 482.988 239.984 481.75C239.975 480.512 239.532 478.825 238.999 478C237.333 475.421 237.802 481.719 239.525 485.05C240.364 486.672 241.258 488 241.511 488C241.765 488 242.683 486.538 243.552 484.75C244.421 482.962 246.227 479.492 247.565 477.038C250.358 471.917 250.663 467.186 248.473 462.95C246.832 459.777 246.68 459.653 245.666 460.667ZM303.847 465.67C300.053 466.677 292.999 481.337 292.999 488.214C292.999 489.809 292.497 494.152 291.884 497.863L290.77 504.612L285.999 506.306C280.484 508.265 278.437 510.9 276.423 518.629C274.794 524.885 274.655 527.908 275.906 529.884C276.605 530.987 277.623 530.593 280.917 527.946C284.307 525.221 286.119 524.547 290.992 524.194C296.766 523.776 296.967 523.846 298.064 526.632C298.686 528.209 299.999 531.3 300.982 533.5C303.77 539.737 306.313 548.651 306.222 551.867C306.12 555.442 303.737 563.671 301.617 567.772C300.302 570.315 297.744 581.233 293.998 600.29C293.588 602.374 293.036 604.296 292.771 604.561C292.506 604.826 283.562 603.892 272.894 602.486C247.063 599.081 218.901 598.316 193.499 600.33C172.049 602.03 172.904 602.25 170.898 594.519C170.324 592.309 168.483 587.125 166.805 583C165.128 578.875 162.936 572.575 161.935 569C160.46 563.734 159.352 561.702 159.865 565.205C159.922 565.592 160.165 567.392 160.405 569.205C160.645 571.017 162.198 575.754 163.856 579.731C165.539 583.769 166.457 587.217 165.934 587.54C164.438 588.464 164.855 589.992 166.438 589.385C167.473 588.988 168.077 589.9 168.59 592.633C168.982 594.722 170.183 598.422 171.259 600.854C172.737 604.195 173.115 606.83 172.809 611.638C172.587 615.137 172.763 618 173.202 618C173.64 618 173.999 614.914 173.999 611.142V604.285L179.749 603.687C201.092 601.469 226.755 600.752 243.69 601.901C259.262 602.957 289.477 606.383 292.596 607.446C293.2 607.652 293.96 610.996 294.286 614.878C294.611 618.76 295.768 623.951 296.857 626.413C299.145 631.585 299.144 631.586 290.85 635.789C287.907 637.28 284.913 639.625 284.197 641C281.847 645.51 283.806 657.538 288.106 665C289.218 666.929 292.999 674.318 292.999 674.561C292.999 674.663 290.927 674.788 288.395 674.839C281.62 674.975 280.17 675.722 279.09 679.632C277.874 684.038 278.495 685.688 282.066 687.535C285.834 689.483 292.393 689.626 304.642 688.028C310.378 687.279 315.592 687.063 316.642 687.531C317.663 687.986 319.174 688.446 319.999 688.553C320.824 688.66 323.749 689.436 326.499 690.277C340.254 694.488 357.463 695.875 364.528 693.344C369.103 691.704 379.623 684.708 378.218 684.24C377.54 684.014 373.951 685.769 370.242 688.141C363.933 692.175 362.969 692.476 355.264 692.828C348.939 693.117 345.425 692.717 340.109 691.102C336.303 689.946 332.426 689 331.495 689C329.009 689 323.867 686.36 320.782 683.5C316.634 679.654 314.231 680.322 317.749 684.343C319.872 686.77 318.559 686.077 311.573 681.081C308.372 678.793 306.504 677.986 306.239 678.779C306.015 679.451 304.922 680 303.809 680C302.421 680 301.966 680.471 302.361 681.5C302.756 682.531 302.299 683 300.9 683C299.284 683 299.002 683.435 299.534 685.111C300.184 687.158 299.963 687.21 292.131 686.854C282.671 686.425 280.6 685.143 281.842 680.487C282.58 677.717 283.056 677.455 288.394 676.874C291.56 676.53 294.525 675.855 294.983 675.374C295.44 674.893 293.63 670 290.96 664.5C288.29 659 286.081 653.963 286.052 653.307C285.979 651.673 290.21 652.583 291.622 654.506C292.261 655.376 293.446 655.766 294.372 655.41C296.152 654.727 296.601 653 294.999 653C294.449 653 293.985 651.987 293.967 650.75C293.95 649.513 293.257 647.602 292.428 646.505C291.127 644.783 290.78 644.715 289.899 646.005C289.163 647.083 289.07 646.529 289.568 644.02C290.184 640.916 290.087 640.682 288.67 641.858C287.797 642.583 286.661 645.049 286.148 647.338C285.608 649.743 285.168 650.537 285.106 649.218C285.047 647.963 285.659 645.357 286.465 643.428C287.614 640.678 289.106 639.401 293.373 637.513C296.366 636.19 299.088 634.665 299.421 634.126C299.754 633.587 301.708 632.609 303.763 631.952C309.443 630.137 310.231 628.73 305.324 629.167C301.395 629.517 301.05 629.331 299.458 626.019C296.368 619.589 295.726 597.996 298.417 591C298.734 590.175 299.874 585.353 300.951 580.285C302.027 575.216 303.595 570.02 304.436 568.737C305.276 567.454 306.679 562.637 307.552 558.032C309.09 549.928 309.072 549.434 306.993 542.58C305.812 538.686 304.435 534.825 303.933 534C301.212 529.53 299.003 524.926 299.034 523.79C299.054 523.08 299.616 523.421 300.284 524.546C300.972 525.704 302.26 526.431 303.252 526.222C304.216 526.019 305.277 526.56 305.609 527.426C306.491 529.725 308.325 529.353 307.709 527C307.422 525.9 307.642 525 308.2 525C308.757 525 308.965 524.354 308.662 523.565C308.359 522.775 308.617 521.961 309.235 521.755C309.948 521.517 310.056 520.671 309.53 519.44C309.074 518.373 308.801 516.487 308.922 515.25C309.192 512.486 307.895 512.335 306.268 514.941C304.507 517.761 296.33 521.056 290.371 521.348C286.54 521.535 284.284 522.308 281.606 524.351C277.433 527.533 277.242 527.002 279.475 518.43C281.758 509.666 283.848 507.992 293.853 506.919C298.351 506.436 300.825 505.618 302.325 504.118C304.819 501.625 303.624 501.423 298.653 503.5C296.679 504.325 294.793 505 294.462 505C293.51 505 295.045 489.107 296.635 482.5C299.252 471.625 299.679 471 304.498 471C307.114 471 309.248 470.405 310.035 469.457C311.164 468.097 311.689 468.276 314.473 470.975C316.21 472.658 317.911 473.755 318.254 473.412C318.596 473.069 316.852 471.036 314.377 468.894C310.159 465.244 307.974 464.575 303.847 465.67ZM168.177 475.715C166.759 475.986 164.812 477.884 163.177 480.592C159.944 485.944 156.6 487.377 142.756 489.342C132.798 490.755 132.866 490.725 121.999 498.59C115.74 503.121 113.171 506.148 109.449 513.384C107.436 517.298 103.862 522.407 101.507 524.737C97.2964 528.905 94.8044 535.255 96.6794 537.041C97.4674 537.792 109.741 536.731 115.08 535.451L117.662 534.831L116.855 541.534C116.411 545.22 115.662 548.745 115.191 549.368C114.72 549.991 113.732 552.075 112.996 554C112.26 555.925 109.147 560.249 106.078 563.609C97.0224 573.523 95.6554 576.288 95.2474 585.5C94.9944 591.235 95.1874 593.075 95.9314 592C96.5024 591.175 96.9764 588.25 96.9864 585.5C97.0084 579.01 101.385 570.489 108.632 562.824C111.584 559.703 113.999 556.466 113.999 555.631C113.999 554.797 114.882 552.619 115.96 550.79C117.039 548.962 118.195 544.774 118.528 541.483C118.916 537.661 119.743 535.011 120.817 534.147C122.354 532.91 122.327 532.84 120.499 533.335C119.399 533.634 115.349 534.148 111.499 534.479C107.649 534.81 102.974 535.32 101.11 535.612C97.7364 536.14 97.7244 536.127 98.3824 532.837C98.7534 530.979 100.757 527.772 102.956 525.516C105.108 523.307 108.018 519.475 109.422 517L111.975 512.5L112.087 517C112.18 520.749 112.332 521.083 112.999 519C113.439 517.625 113.844 515.053 113.899 513.284C114.083 507.344 116.757 503.703 125.058 498.084C132.239 493.224 133.871 492.575 143.191 490.87C148.824 489.84 154.291 488.725 155.341 488.391C156.593 487.994 157.014 488.167 156.565 488.893C156.189 489.502 156.319 490 156.855 490C157.39 490 159.499 487.724 161.542 484.942C164.248 481.254 165.694 480.067 166.877 480.561C168.91 481.41 170.079 481.414 172.071 480.58C173.16 480.125 174.016 480.742 174.858 482.591C176.731 486.701 177.327 484.72 175.519 480.393C174.061 476.904 172.282 474.841 170.999 475.151C170.724 475.218 169.454 475.472 168.177 475.715ZM35.6854 487.369C30.7644 491.741 29.7844 493.181 29.3064 496.748C28.9804 499.178 29.2704 502.24 29.9914 503.981C31.2024 506.903 32.9994 508.084 32.9994 505.957C32.9994 505.384 35.1104 502.658 37.6894 499.9C41.9624 495.332 42.4174 494.368 42.8004 489.07C43.0324 485.872 42.8334 483.018 42.3604 482.729C41.8864 482.439 38.8834 484.527 35.6854 487.369ZM411.999 485.127C411.999 486.335 411.247 489.708 410.329 492.623C408.933 497.051 408.857 498.582 409.865 501.948C411.039 505.867 417.201 513.005 419.402 512.995C420.891 512.989 421.245 497.655 419.875 492.5C418.766 488.323 416.743 485.468 413.76 483.872C412.327 483.105 411.999 483.339 411.999 485.127ZM36.3264 489.819C32.2274 493.435 30.0244 498.613 31.5404 501.066C32.6494 502.861 39.8914 495.095 40.5914 491.359C41.5634 486.181 40.7744 485.896 36.3264 489.819ZM413.016 491.438C411.258 497.719 412.217 503.685 415.502 506.903L418.154 509.5L417.827 499.784C417.582 492.535 417.092 489.662 415.897 488.468C414.429 487.001 414.189 487.248 413.016 491.438ZM179.839 500C179.476 503.025 178.425 507.525 177.503 510C176.581 512.475 175.336 516.43 174.736 518.789C174.055 521.463 173.183 522.901 172.42 522.608C171.079 522.094 171.07 523.723 172.402 525.857C173.056 526.905 172.708 527.078 170.874 526.616C169.568 526.288 169.062 526.277 169.749 526.593C171.235 527.275 171.435 530 169.999 530C169.449 530 168.999 531.05 168.999 532.333C168.999 533.617 168.692 534.973 168.317 535.348C167.418 536.248 167.905 546.184 169.043 550.154C169.537 551.876 169.748 553.598 169.511 553.981C168.795 555.14 155.672 552.012 153.629 550.195C152.581 549.263 151.151 547.15 150.451 545.5C149.053 542.201 142.999 534.183 142.999 535.63C142.999 536.128 144.082 538.13 145.407 540.079C146.731 542.028 148.516 545.301 149.373 547.352C151.24 551.82 156.414 554.423 165.381 555.405L171.263 556.049L170.397 550.774C168.74 540.691 169.344 534.999 172.803 528.076C174.561 524.559 175.999 520.906 175.999 519.959C175.999 519.013 177.145 515.193 178.546 511.471C180.345 506.693 181.006 503.204 180.796 499.602L180.499 494.5L179.839 500ZM163.26 504.5C164.475 508.456 165.461 508.874 166.962 506.069C168.089 503.964 166.077 501 163.521 501C162.458 501 162.405 501.711 163.26 504.5ZM209.908 536.75C209.335 538.263 207.944 540.484 206.817 541.688C205.655 542.928 204.552 545.788 204.27 548.291C203.497 555.146 206.951 559.885 208.929 554.684C209.413 553.41 210.977 550.647 212.404 548.544C215.371 544.172 215.649 541.158 213.473 536.95C211.592 533.312 211.218 533.291 209.908 536.75ZM209.782 540.75C208.943 541.712 207.748 543.483 207.127 544.684C205.857 547.144 205.602 552.029 206.749 551.945C208.38 551.824 212.15 545.843 212.689 542.52C213.315 538.664 212.196 537.983 209.782 540.75ZM58.9994 554.905C58.9994 555.403 57.4404 557.677 55.5354 559.957C51.4784 564.812 50.2914 569.695 51.8794 574.993C53.0284 578.829 55.9994 581.307 55.9994 578.429C55.9994 577.6 57.5744 574.582 59.4994 571.724C63.1724 566.27 63.9464 561.621 62.0244 556.565C61.0974 554.128 58.9994 552.977 58.9994 554.905ZM57.0234 561.182C54.6714 564.363 52.8654 574.001 54.6224 573.999C56.1964 573.997 60.9994 564.284 60.9994 561.103C60.9994 557.162 59.9794 557.183 57.0234 561.182ZM258.285 579.615C258.08 587.904 258.18 588.335 260.958 591.113C262.546 592.701 264.237 594 264.716 594C266.047 594 268.297 582.528 267.49 579.857C266.681 577.176 261.144 570.999 259.553 571.002C258.913 571.003 258.415 574.384 258.285 579.615ZM411.621 574.712C411.279 575.054 410.999 576.587 410.999 578.12C410.999 579.652 410.492 582.019 409.872 583.379C409.252 584.74 409.018 586.94 409.352 588.27C409.93 590.575 414.545 596 415.928 596C416.776 596 418.999 587.701 418.999 584.533C418.999 583.191 418.518 581.06 417.931 579.797C416.698 577.147 412.538 573.794 411.621 574.712ZM260.559 580.367C259.977 585.028 260.176 586.618 261.617 588.805L263.393 591.5L264.097 589C265.433 584.249 265.037 579.269 263.138 576.923L261.276 574.624L260.559 580.367ZM413.15 580.996C411.636 585.339 411.696 588.203 413.348 590.462C414.605 592.182 414.775 592.083 415.848 589.004C417.362 584.661 417.302 581.797 415.65 579.538C414.393 577.818 414.223 577.917 413.15 580.996ZM62.5024 617.5C63.2964 621.229 64.9994 623.201 64.9994 620.391C64.9994 619.286 64.2934 617.509 63.4314 616.441C61.9404 614.596 61.8944 614.648 62.5024 617.5ZM189.999 617.453C189.999 619.52 192.162 624 193.16 624C194.299 624 194.23 623.489 192.55 619.468C191.027 615.823 189.999 615.011 189.999 617.453ZM250.999 616.953C250.999 617.477 251.521 619.052 252.16 620.453C253.447 623.28 255.636 624.027 254.493 621.25C254.096 620.288 253.546 618.712 253.269 617.75C252.742 615.918 250.999 615.306 250.999 616.953ZM67.1574 619C67.1574 620.375 67.3844 620.938 67.6614 620.25C67.9394 619.563 67.9394 618.438 67.6614 617.75C67.3844 617.063 67.1574 617.625 67.1574 619ZM71.0784 618.583C71.1264 619.748 71.3634 619.985 71.6824 619.188C71.9714 618.466 71.9354 617.603 71.6034 617.271C71.2714 616.939 71.0354 617.529 71.0784 618.583ZM195.157 620C195.157 621.375 195.384 621.938 195.661 621.25C195.939 620.563 195.939 619.438 195.661 618.75C195.384 618.063 195.157 618.625 195.157 620ZM200.666 618.667C200.299 619.033 199.999 619.798 199.999 620.367C199.999 620.993 200.465 620.934 201.182 620.217C201.833 619.566 202.133 618.801 201.849 618.517C201.565 618.232 201.032 618.3 200.666 618.667ZM255.999 620.5C255.999 621.875 256.449 623 256.999 623C257.549 623 257.999 621.875 257.999 620.5C257.999 619.125 257.549 618 256.999 618C256.449 618 255.999 619.125 255.999 620.5ZM402.999 618.292C402.999 619.816 405.353 625 406.045 625C407.068 625 405.182 619.231 403.901 618.439C403.405 618.133 402.999 618.066 402.999 618.292ZM408.194 620.5C408.214 622.15 408.438 622.704 408.692 621.731C408.946 620.758 408.929 619.408 408.655 618.731C408.381 618.054 408.174 618.85 408.194 620.5ZM412.078 619.583C412.126 620.748 412.363 620.985 412.682 620.188C412.971 619.466 412.935 618.603 412.603 618.271C412.271 617.939 412.035 618.529 412.078 619.583ZM20.5734 621.297C20.1254 622.835 20.0384 624.372 20.3794 624.713C21.4984 625.833 22.1574 624.235 21.7694 621.341L21.3884 618.5L20.5734 621.297ZM171.523 622.25C171.133 623.487 170.576 632.465 170.284 642.201L169.753 659.902L172.917 663.897C175.906 667.67 179.484 669.849 180.698 668.634C181 668.333 179.641 667.32 177.678 666.384C172.105 663.727 171.658 661.525 172.212 639.461C172.481 628.757 172.596 620 172.467 620C172.338 620 171.913 621.013 171.523 622.25ZM452.999 623.382C452.999 624.207 453.449 625.16 453.999 625.5C454.549 625.84 454.999 625.443 454.999 624.618C454.999 623.793 454.549 622.84 453.999 622.5C453.449 622.16 452.999 622.557 452.999 623.382ZM15.1764 625.553C15.6284 627.725 17.4034 627.858 17.8094 625.75C18.0194 624.655 17.5294 624 16.4994 624C15.5384 624 14.9874 624.647 15.1764 625.553ZM317.579 630.87C317.282 631.351 318.717 632.022 320.769 632.361C326.103 633.243 328.57 633.157 327.449 632.128C326.055 630.848 318.211 629.849 317.579 630.87ZM37.7494 632.571C37.3364 632.99 36.9994 634.923 36.9994 636.867C36.9994 639.382 37.3084 640.091 38.0724 639.327C38.6624 638.737 38.9994 636.804 38.8224 635.032C38.6444 633.259 38.1624 632.152 37.7494 632.571ZM314.533 634.892C314.203 635.933 312.935 637.105 311.716 637.497C309.811 638.11 310.061 638.324 313.499 639.024C316.711 639.677 317.754 639.509 318.792 638.169C319.503 637.251 320.178 636.64 320.292 636.81C320.406 636.981 321.624 636.69 322.999 636.163L325.499 635.206L322.684 634.103C318.402 632.425 315.218 632.734 314.533 634.892ZM33.9994 637.941C33.9994 639.623 34.4494 641 34.9994 641C35.5494 641 35.9994 639.902 35.9994 638.559C35.9994 637.216 35.5494 635.84 34.9994 635.5C34.4164 635.139 33.9994 636.156 33.9994 637.941ZM28.9994 637.951C28.9994 640.247 30.1424 641.148 31.7764 640.138C32.6144 639.62 32.3834 638.917 30.9784 637.714C29.1044 636.11 28.9994 636.122 28.9994 637.951ZM41.7284 636.604C41.3274 637.005 40.9994 638.023 40.9994 638.867C40.9994 639.992 41.2954 640.104 42.1114 639.287C42.7234 638.676 43.0524 637.657 42.8414 637.025C42.6304 636.393 42.1294 636.203 41.7284 636.604ZM152.999 646.833C152.999 651.287 153.407 654 154.076 654C154.804 654 154.942 651.812 154.502 647.259C153.631 638.242 152.999 638.063 152.999 646.833ZM310.799 641.2C311.732 642.133 312.266 642.133 313.199 641.2C314.132 640.267 313.866 640 311.999 640C310.132 640 309.866 640.267 310.799 641.2ZM438.999 642.941C438.999 644.559 439.449 646.16 439.999 646.5C440.594 646.868 440.999 645.677 440.999 643.559C440.999 641.602 440.549 640 439.999 640C439.449 640 438.999 641.323 438.999 642.941ZM442.999 643.559C442.999 644.416 443.449 644.84 443.999 644.5C444.549 644.16 444.999 643.459 444.999 642.941C444.999 642.423 444.549 642 443.999 642C443.449 642 442.999 642.702 442.999 643.559ZM437.157 645C437.157 646.375 437.384 646.938 437.661 646.25C437.939 645.563 437.939 644.438 437.661 643.75C437.384 643.063 437.157 643.625 437.157 645ZM214.499 646C214.159 646.55 214.358 647 214.94 647C215.522 647 215.999 646.55 215.999 646C215.999 645.45 215.801 645 215.558 645C215.315 645 214.839 645.45 214.499 646ZM448.499 646C448.159 646.55 448.358 647 448.94 647C449.522 647 449.999 646.55 449.999 646C449.999 645.45 449.801 645 449.558 645C449.315 645 448.839 645.45 448.499 646ZM249.021 651.559C248.976 653.714 251.711 656.324 253.354 655.694C255.116 655.018 255.668 651 253.999 651C253.449 651 252.989 652.013 252.977 653.25L252.955 655.5L250.999 653C249.923 651.625 249.033 650.976 249.021 651.559ZM401.014 655.75C401.042 657.119 402.881 659.452 403.468 658.864C404.256 658.076 403.001 655 401.892 655C401.401 655 401.006 655.337 401.014 655.75ZM404.499 656C404.159 656.55 404.358 657 404.94 657C405.522 657 405.999 656.55 405.999 656C405.999 655.45 405.801 655 405.558 655C405.315 655 404.839 655.45 404.499 656ZM64.9994 662.5C64.9994 663.325 65.1764 664 65.3924 664C65.6084 664 66.0444 663.325 66.3614 662.5C66.6774 661.675 66.5004 661 65.9684 661C65.4354 661 64.9994 661.675 64.9994 662.5ZM59.5734 664.297C59.1254 665.835 59.0384 667.372 59.3794 667.713C60.4984 668.833 61.1574 667.235 60.7694 664.341L60.3884 661.5L59.5734 664.297ZM55.9794 665.5L55.9284 668.5L54.4994 666C53.3624 664.01 53.0634 663.869 53.0344 665.309C53.0154 666.304 52.5494 666.84 51.9994 666.5C51.4494 666.16 50.9994 666.61 50.9994 667.5C50.9994 668.39 51.4114 668.864 51.9144 668.553C52.4174 668.242 53.0014 668.505 53.2114 669.137C53.4984 669.998 54.1474 669.991 55.7974 669.108C58.1774 667.834 58.5244 666.36 56.9994 664C56.2524 662.844 56.0184 663.189 55.9794 665.5ZM155.034 665.059C155.015 665.916 155.66 667.491 156.467 668.559C158.347 671.045 158.369 669.272 156.499 666C155.583 664.398 155.057 664.06 155.034 665.059ZM83.0304 665.5C83.0304 666.05 83.4664 667.175 83.9994 668C84.5324 668.825 84.9684 669.05 84.9684 668.5C84.9684 667.95 84.5324 666.825 83.9994 666C83.4664 665.175 83.0304 664.95 83.0304 665.5ZM85.0434 670.5C85.0434 671.05 85.9234 672.625 86.9994 674C88.0754 675.375 88.9554 676.05 88.9554 675.5C88.9554 674.95 88.0754 673.375 86.9994 672C85.9234 670.625 85.0434 669.95 85.0434 670.5ZM88.9994 670.845C88.9994 671.31 89.9694 672.547 91.1544 673.595L93.3094 675.5L91.5394 672.75C89.7144 669.914 88.9994 669.378 88.9994 670.845ZM429.56 672C430.379 675.085 431.999 677.005 431.999 674.891C431.999 674.061 431.301 672.509 430.447 671.441C428.956 669.576 428.921 669.597 429.56 672ZM436.157 673C436.157 674.375 436.384 674.938 436.661 674.25C436.939 673.563 436.939 672.438 436.661 671.75C436.384 671.063 436.157 671.625 436.157 673ZM182.999 673.393C182.999 675.551 180.435 676.054 172.971 675.361C167.645 674.866 165.321 675.094 162.617 676.377C160.699 677.287 155.163 678.443 150.314 678.946L141.499 679.86L150.999 679.618C157.719 679.447 161.466 678.867 163.802 677.635C166.253 676.343 168.253 676.066 171.552 676.56C173.998 676.927 175.999 677.648 175.999 678.162C175.999 681.537 164.123 688.041 154.497 689.936C151.198 690.586 146.418 691.835 143.874 692.711C139.79 694.119 137.314 694.165 122.697 693.104C113.593 692.443 104.762 691.506 103.072 691.021C99.1134 689.885 99.1584 690.514 103.186 692.597C105.524 693.806 110.626 694.442 122.348 694.986C138.367 695.73 139.52 695.68 145.999 693.963C147.924 693.453 152.649 692.294 156.499 691.388C165.813 689.196 172.049 685.935 175.45 681.476C176.988 679.459 179.54 677.359 181.122 676.807C182.932 676.176 183.999 675.099 183.999 673.902C183.999 672.856 183.774 672 183.499 672C183.224 672 182.999 672.627 182.999 673.393ZM150.999 674.378C150.999 674.585 151.786 675.373 152.749 676.128C154.335 677.371 154.37 677.336 153.127 675.75C151.82 674.084 150.999 673.555 150.999 674.378ZM136.749 680.662C137.437 680.94 138.562 680.94 139.249 680.662C139.937 680.385 139.374 680.158 137.999 680.158C136.624 680.158 136.062 680.385 136.749 680.662ZM381.078 681.583C381.126 682.748 381.363 682.985 381.682 682.188C381.971 681.466 381.935 680.603 381.603 680.271C381.271 679.939 381.035 680.529 381.078 681.583ZM131.812 681.683C132.533 681.972 133.396 681.936 133.728 681.604C134.06 681.272 133.47 681.036 132.416 681.079C131.251 681.127 131.014 681.364 131.812 681.683ZM125.249 682.689C126.212 682.941 127.786 682.941 128.749 682.689C129.712 682.438 128.924 682.232 126.999 682.232C125.074 682.232 124.286 682.438 125.249 682.689ZM234.618 688.75C234.98 690.263 235.465 691.837 235.696 692.25C236.451 693.596 238.77 693.039 239.416 691.357C240.213 689.279 239.163 688.116 238.077 689.874C237.494 690.818 237.079 690.456 236.612 688.595C236.254 687.168 235.511 686 234.961 686C234.377 686 234.235 687.145 234.618 688.75ZM30.8214 690.5C30.1764 693.496 30.4884 694.844 31.5744 693.758C31.8914 693.442 31.9964 691.904 31.8084 690.341L31.4664 687.5L30.8214 690.5ZM22.2754 693.922C22.5654 697.052 24.6334 697.73 25.5054 694.98C26.3014 692.474 25.2584 690.962 24.0664 692.892C23.3814 693.999 23.1404 693.994 22.6464 692.863C22.3194 692.113 22.1524 692.59 22.2754 693.922ZM433.999 694.441C433.999 695.298 434.449 696 434.999 696C435.549 696 435.999 695.577 435.999 695.059C435.999 694.541 435.549 693.84 434.999 693.5C434.449 693.16 433.999 693.584 433.999 694.441ZM441.078 694.583C441.126 695.748 441.363 695.985 441.682 695.188C441.971 694.466 441.935 693.603 441.603 693.271C441.271 692.939 441.035 693.529 441.078 694.583ZM173.03 699.25C172.337 700.974 172.111 701.091 172.062 699.75C172.028 698.788 171.549 698 170.999 698C169.891 698 169.723 700.368 170.599 703.634C171.003 705.138 171.736 705.62 173.085 705.267C174.556 704.883 174.999 703.867 174.999 700.883C174.999 696.49 174.355 695.955 173.03 699.25ZM385.553 699.25C385.931 700.487 386.623 702.175 387.09 703C387.757 704.179 387.945 704.037 387.969 702.332C388.009 699.465 387.018 697 385.825 697C385.291 697 385.17 698.001 385.553 699.25ZM176.74 700.332C175.58 703.198 175.789 705.61 177.084 704.315C177.68 703.719 178.014 702.166 177.825 700.865C177.522 698.783 177.392 698.719 176.74 700.332ZM165.999 700.953C165.999 702.621 168.288 707 169.16 707C170.334 707 170.22 706.328 168.473 702.95C166.929 699.964 165.999 699.213 165.999 700.953ZM195.999 701C195.999 701.615 195.549 701.84 194.999 701.5C194.449 701.16 193.999 701.359 193.999 701.941C193.999 702.523 194.899 703 195.999 703C198.108 703 198.69 701.545 196.999 700.5C196.449 700.16 195.999 700.385 195.999 701ZM389.999 701.5C389.999 702.325 390.449 703 390.999 703C391.549 703 391.999 702.325 391.999 701.5C391.999 700.675 391.549 700 390.999 700C390.449 700 389.999 700.675 389.999 701.5ZM393.999 701.559C393.999 702.416 394.449 702.84 394.999 702.5C395.549 702.16 395.999 701.459 395.999 700.941C395.999 700.423 395.549 700 394.999 700C394.449 700 393.999 700.702 393.999 701.559ZM278.099 712.191C278.044 714.221 278.449 716.16 278.999 716.5C280.156 717.215 280.156 714.612 278.999 711C278.28 708.754 278.188 708.876 278.099 712.191ZM94.3414 712.927C94.7144 714.812 95.2414 716.575 95.5114 716.845C96.4184 717.752 100.999 714.679 100.999 713.164C100.999 712.341 100.706 711.96 100.348 712.318C99.9904 712.676 99.1044 712.188 98.3804 711.234C97.4304 709.984 97.0544 709.883 97.0314 710.872C97.0044 712.036 96.7454 712.036 95.3304 710.872C93.8134 709.624 93.7234 709.811 94.3414 712.927ZM89.9994 711.55C89.9994 712.883 93.2024 718.13 93.7074 717.625C94.4744 716.858 91.9724 711 90.8784 711C90.3944 711 89.9994 711.247 89.9994 711.55ZM282.719 712.332C281.605 715.165 281.787 716.612 283.093 715.306C283.694 714.705 284.019 713.377 283.813 712.356C283.453 710.566 283.414 710.565 282.719 712.332ZM274.669 713.766C274.983 715.012 275.636 716.276 276.12 716.575C277.488 717.42 277.155 715.591 275.549 713.441C274.15 711.568 274.119 711.58 274.669 713.766ZM289.102 713.808C288.424 715.075 288.048 716.647 288.267 717.303C288.492 717.978 289.198 717.497 289.896 716.192C290.574 714.925 290.95 713.353 290.731 712.697C290.506 712.022 289.8 712.503 289.102 713.808ZM334.069 714.25C334.198 716.547 335.647 719.379 336.209 718.434C336.514 717.92 336.382 716.487 335.914 715.25C334.99 712.806 333.957 712.246 334.069 714.25ZM337.999 716C337.999 717.1 338.449 718 338.999 718C339.549 718 339.999 717.1 339.999 716C339.999 714.9 339.549 714 338.999 714C338.449 714 337.999 714.9 337.999 716ZM43.2934 720.818C42.6404 721.222 42.4304 722.08 42.8284 722.724C43.2944 723.477 44.0754 723.571 45.0174 722.989C45.9944 722.385 46.1494 721.75 45.4824 721.083C44.9324 720.533 43.9474 720.414 43.2934 720.818ZM225.999 723C225.999 724.824 226.414 725.862 226.999 725.5C227.549 725.16 227.999 724.035 227.999 723C227.999 721.965 227.549 720.84 226.999 720.5C226.414 720.138 225.999 721.176 225.999 723ZM368.787 720.537C368.46 721.066 368.738 722.834 369.405 724.463C370.072 726.093 370.885 726.993 371.211 726.463C371.538 725.934 371.26 724.166 370.593 722.537C369.926 720.907 369.113 720.007 368.787 720.537ZM418.014 721.691C418.006 722.896 418.449 724.16 418.999 724.5C420.272 725.287 420.272 722.97 418.999 721C418.211 719.781 418.027 719.91 418.014 721.691ZM48.4994 722C48.1594 722.55 48.3584 723 48.9404 723C49.5224 723 49.9994 722.55 49.9994 722C49.9994 721.45 49.8014 721 49.5584 721C49.3154 721 48.8394 721.45 48.4994 722ZM377.999 722.5C377.292 723.352 376.939 724.273 377.214 724.548C377.489 724.823 378.292 724.352 378.999 723.5C379.706 722.648 380.059 721.727 379.784 721.452C379.509 721.177 378.706 721.648 377.999 722.5ZM39.5634 723.293C39.9394 724.279 40.4984 724.834 40.8064 724.526C41.1144 724.219 40.8074 723.412 40.1234 722.733C39.1354 721.753 39.0214 721.868 39.5634 723.293ZM221.014 724.191C221.006 725.121 221.449 726.16 221.999 726.5C223.265 727.282 223.265 725.958 221.999 724C221.164 722.707 221.028 722.734 221.014 724.191ZM304.999 731.809C304.999 733.752 307.653 736.07 309.198 735.477C311.204 734.708 312.267 732.284 310.955 731.473C310.429 731.148 309.999 731.584 309.999 732.441C309.999 734.429 308.393 734.469 307.637 732.5C307.037 730.935 304.999 730.401 304.999 731.809ZM448.999 733C448.999 734.1 449.449 735 449.999 735C450.549 735 450.999 734.1 450.999 733C450.999 731.9 450.549 731 449.999 731C449.449 731 448.999 731.9 448.999 733ZM444.999 734.882C444.999 735.432 445.449 736.16 445.999 736.5C446.549 736.84 446.999 736.668 446.999 736.118C446.999 735.568 446.549 734.84 445.999 734.5C445.449 734.16 444.999 734.332 444.999 734.882ZM179.78 760.552C179.442 760.89 180.028 762.029 181.082 763.083C182.552 764.553 182.999 766.422 182.999 771.094C182.999 776.387 182.731 777.257 180.958 777.721C178.576 778.344 178.881 780.539 181.332 780.417C189.57 780.005 189.252 780.11 187.516 778.374C186.617 777.475 186.026 775.576 186.195 774.124C186.444 771.971 187.083 771.444 189.756 771.186C193.892 770.787 195.014 773.167 192.639 777.304C191.703 778.936 191.063 780.371 191.218 780.494C191.372 780.616 193.166 780.508 195.204 780.254C198.871 779.796 198.892 779.767 197.322 777.369C195.768 774.998 195.856 770.402 197.588 763.501C198.169 761.187 197.952 761 194.684 761H191.152L192.667 764.037C194.635 767.982 193.157 770.137 189.208 769.081C185.92 768.201 185.208 765.531 187.566 762.926C189.251 761.064 189.206 761 186.236 761C184.546 761 182.54 760.761 181.779 760.469C181.017 760.177 180.118 760.214 179.78 760.552ZM232.223 760.671C231.394 761.004 232.345 762.466 234.936 764.842C238.042 767.69 239.173 769.662 240.045 773.75C240.661 776.638 241.475 779 241.855 779C242.234 779 243.014 776.975 243.588 774.5C244.38 771.09 244.342 770 243.434 770C242.776 770 241.727 767.975 241.103 765.5C240.257 762.139 239.488 761 238.066 761C237.019 761 235.563 760.811 234.831 760.579C234.098 760.348 232.925 760.389 232.223 760.671ZM258.474 763.325C252.124 769.675 254.353 778.921 262.634 780.577C267.377 781.526 271.127 777.755 271.718 771.441C272.134 767.003 271.892 766.232 269.34 763.862C264.599 759.46 262.445 759.354 258.474 763.325ZM280.88 761.503C276.823 763.708 274.68 769.101 275.965 773.872C277.228 778.563 278.367 779.609 283.194 780.511C286.318 781.095 287.272 780.818 289.377 778.713C292.359 775.731 293.691 769.815 292.145 766.421C291.204 764.356 285.552 759.931 283.999 760.044C283.724 760.064 282.321 760.72 280.88 761.503ZM307.593 760.868C304.97 761.438 304.848 761.634 306.343 762.872C307.397 763.746 307.997 765.745 307.994 768.372L307.989 772.5L305.519 769.5C304.16 767.85 302.477 765.263 301.779 763.75C300.725 761.463 299.878 761 296.755 761C292.57 761 292.001 761.896 294.999 763.768C296.633 764.789 296.999 766.1 296.999 770.941C296.999 775.987 296.702 776.959 294.999 777.5C291.475 778.618 292.857 780 297.499 780C301.912 780 303.466 778.777 300.499 777.638C298.905 777.027 298.257 768 299.808 768C300.252 768 302.363 770.7 304.499 774C306.635 777.3 308.763 780 309.229 780C309.696 780 309.947 776.326 309.788 771.835C309.581 765.98 309.853 763.552 310.749 763.252C312.07 762.81 312.532 759.916 311.249 760.118C310.836 760.183 309.191 760.521 307.593 760.868ZM160.885 761.25C160.822 761.388 160.625 762.728 160.447 764.229C160.011 767.891 161.426 768.553 162.878 765.367C163.843 763.249 164.309 763.012 165.524 764.021C167.709 765.834 167.615 778 165.416 778C164.545 778 164.02 778.563 164.249 779.25C164.478 779.938 165.191 780.455 165.832 780.4C166.474 780.345 168.574 780.232 170.499 780.15C173.731 780.011 175.719 778 172.624 778C170.32 778 169.009 767.113 170.945 764.053C171.7 762.86 172.21 763.036 173.855 765.053C175.646 767.249 175.92 767.32 176.532 765.75C178.018 761.932 176.448 761 168.53 761C164.388 761 160.948 761.112 160.885 761.25ZM201.999 761.571C201.999 761.886 202.674 762.818 203.499 763.643C205.771 765.915 205.581 777.554 203.249 778.945C201.958 779.716 203.729 779.925 209.999 779.745C218.459 779.501 218.5 779.487 218.815 776.75C219.207 773.349 218.765 773.325 215.521 776.569C212.389 779.7 209.863 779.397 208.575 775.735C207.405 772.409 209.166 769.767 211.199 771.8C213.243 773.844 214 773.147 213.967 769.25C213.939 765.918 213.787 765.695 212.607 767.25C210.978 769.396 209.403 769.496 208.637 767.5C206.911 763.001 213.533 761.069 216.442 765.223C217.989 767.431 217.999 767.424 217.999 764.223V761H209.999C205.599 761 201.999 761.257 201.999 761.571ZM246.557 762.25C245.268 766.493 245.277 768 246.593 768C248.259 768 248.511 773.522 247.024 777.435C246.078 779.923 246.168 780 250.047 780H254.045L252.386 777.467C250.509 774.604 250.939 764.983 253.056 762.431C254.05 761.234 253.646 761 250.59 761C248.536 761 246.77 761.547 246.557 762.25ZM261.123 763.351C259.414 765.41 258.691 773.152 259.911 776.313C260.838 778.713 261.476 779.081 264.248 778.813C267.498 778.5 267.499 778.497 267.796 772.272C267.96 768.847 267.606 765.135 267.011 764.022C265.771 761.706 262.772 761.364 261.123 763.351ZM282.089 762.923C280.245 764.091 279.412 774.035 280.922 776.857C281.693 778.296 283.028 779 284.989 779C287.534 779 287.993 778.551 288.565 775.5C289.298 771.59 288.365 765.16 286.787 763.25C285.577 761.786 284.053 761.68 282.089 762.923ZM235.495 773.178C235.113 775.005 233.833 777.277 232.65 778.228C230.515 779.943 230.525 779.956 234.126 779.978L237.753 780L237.243 775.25C236.605 769.313 236.363 769.026 235.495 773.178Z" fill="black"/>
</svg>
