<svg width="657" height="831" viewBox="0 0 657 831" fill="none" xmlns="http://www.w3.org/2000/svg">
<mask id="path-1-inside-1_178_5" fill="white">
<path fill-rule="evenodd" clip-rule="evenodd" d="M424.458 9.92768C422.917 17.0055 421.495 19.0533 419.508 17.0652C417.975 15.5313 415.552 14.275 414.125 14.275C412.682 14.275 412.913 15.6585 414.644 17.3896C419.454 22.2016 418.452 23.8367 409.325 26.0844L400.893 28.1634L409.38 29.173L417.868 30.1853L412.438 37.0917C406.072 45.187 410.163 48.4028 417.907 41.3924C422.795 36.9672 422.946 37.0762 422.946 45.0183C422.946 49.5214 424.113 53.207 425.54 53.207C426.967 53.207 428.134 50.2871 428.134 46.7183C428.134 38.335 429.644 38.5426 437.619 48.0238C441.223 52.3089 445.234 55.1614 446.531 54.3594C450.402 51.9664 449.346 49.4825 439.607 38.1014L430.324 27.2524H439.822C450.573 27.2524 451.341 21.8823 440.94 19.427C436.688 18.4226 435.707 17.3066 437.889 15.9569C439.659 14.8642 441.106 12.6892 441.106 11.1242C441.106 9.55912 438.971 10.2132 436.361 12.575C429.73 18.5783 428.591 18.0463 427.543 8.43526L426.619 0L424.458 9.92768ZM269.877 33.9565C269.877 38.5401 275.463 37.7432 277.066 32.9312C277.631 31.2338 276.243 29.8478 273.984 29.8478C271.727 29.8478 269.877 31.6958 269.877 33.9565ZM479.085 39.4355C475.985 42.5371 477.412 48.0161 481.319 48.0161C483.46 48.0161 485.211 46.3342 485.211 44.276C485.211 39.939 481.509 37.0139 479.085 39.4355ZM330.487 44.1229C328.157 50.1937 331.444 55.8025 337.331 55.8025C343.931 55.8025 346.803 49.2853 342.491 44.0891C338.374 39.124 332.396 39.1396 330.487 44.1229ZM175.335 68.1309C172.987 77.5706 172.912 77.6173 165.93 73.8799C159.779 70.5862 159.444 73.2362 165.206 79.6054C169.295 84.1241 169.015 84.3655 159.369 84.6303L149.238 84.908L160.352 87.3971L171.467 89.8835L164.745 97.8724C160.205 103.274 158.879 106.715 160.656 108.493C162.436 110.273 164.584 110.048 167.29 107.803C170.605 105.051 171.29 105.176 171.29 108.54C171.29 114.216 176.598 116.889 179.322 112.586C180.57 110.619 181.606 106.383 181.629 103.17C181.673 96.4215 184.817 95.6376 189.451 101.223C193.031 105.539 202.423 106.544 202.423 102.612C202.423 101.236 199.797 98.6977 196.586 96.9717C190.792 93.8597 190.813 93.8104 199.18 90.3844C211.049 85.5257 209.97 80.9862 197.234 82.2009C191.526 82.7459 186.857 82.829 186.857 82.3826C186.857 81.9388 188.743 78.6944 191.047 75.1776C193.589 71.2974 194.108 68.7798 192.364 68.7798C190.787 68.7798 188.037 71.1157 186.255 73.9707C181.523 81.5495 179.509 80.3841 178.409 69.4286L177.431 59.6957L175.335 68.1309ZM238.744 63.5889C238.744 65.0164 239.982 66.1843 241.492 66.1843C243.002 66.1843 243.518 65.0164 242.636 63.5889C241.754 62.1614 240.519 60.9934 239.888 60.9934C239.258 60.9934 238.744 62.1614 238.744 63.5889ZM524.127 74.4898C524.127 82.9692 523.434 84.6978 521.013 82.2762C517.249 78.5102 512.802 78.1235 515.046 81.7571C515.928 83.1846 515.412 84.3526 513.902 84.3526C512.392 84.3526 511.155 85.5205 511.155 86.948C511.155 88.3755 513.49 89.5435 516.343 89.5435C522.661 89.5435 522.739 90.5921 517.129 100.094C512.532 107.88 514.18 113.51 519.501 108.187C524.069 103.616 525.979 104.405 527.787 111.605C529.961 120.276 534.504 119.887 534.504 111.026V103.961L538.544 109.728C540.764 112.903 543.683 115.498 545.029 115.498C549.855 115.498 547.331 109.106 539.184 100.699L530.893 92.139H543.076C549.777 92.139 555.259 91.0956 555.259 89.8212C555.259 87.0103 548.854 84.3526 542.074 84.3526C536.39 84.3526 535.687 81.6118 540.212 77.0853C544.972 72.3226 539.457 73.3815 534.06 78.2662C529.546 82.3541 529.315 82.1023 529.315 73.0753C529.315 67.8584 528.148 63.5889 526.721 63.5889C525.294 63.5889 524.127 68.4943 524.127 74.4898ZM299.046 69.1873C293.4 74.835 295.216 84.189 302.61 87.5579C308.583 90.2806 309.976 89.9458 314.155 84.7808C317.525 80.6177 318.298 77.2462 316.814 73.1946C314.417 66.6593 303.936 64.2949 299.046 69.1873ZM394.407 85.3466C374.462 89.7563 363.591 95.5728 349.706 109.269C338.981 119.848 326.953 139.589 326.953 146.615C326.953 150.981 323.217 149.569 319.653 143.856C312.526 132.439 290.328 127.878 276.643 135.016C269.275 138.862 268.984 138.748 260.278 128.571C244.802 110.486 222.724 109.536 203.819 126.142C198.954 130.414 192.972 139.158 190.522 145.574L186.068 157.241L179.328 150.942C158.505 131.478 131.025 131.857 120.744 151.749C111.918 168.822 119.493 200.956 135.999 216.469L142.192 222.291L131.243 233.558C125.222 239.756 116.02 246.616 110.794 248.801C87.3905 258.583 81.7114 275.309 97.1791 288.896C102.08 293.202 108.498 297.487 111.443 298.421C114.408 299.363 117.498 303.228 118.37 307.087C119.237 310.916 121.639 320.895 123.709 329.263C125.782 337.628 127.064 344.888 126.558 345.394C126.052 345.9 118.105 343.255 108.901 339.515C89.5879 331.669 61.2832 328.874 45.2136 333.221C27.9895 337.883 13.435 350.18 6.05397 366.308C-7.53541 396.003 2.52821 439.942 28.485 464.23C35.1863 470.501 43.3067 476.467 46.529 477.493C51.3312 479.016 52.0784 480.587 50.6748 486.182C41.1275 524.242 40.523 564.949 49.0948 592.952C60.8448 631.339 80.8786 663.699 109.79 690.99L124.171 704.565L123.733 729.151C123.081 765.701 129.957 769.41 162.283 749.936C170.437 745.023 178.573 741.005 180.363 741.005C182.153 741.005 190.154 743.896 198.142 747.431C214.279 754.571 256.049 765.703 276.939 768.434C287.628 769.83 290.852 771.369 292.209 775.719C293.156 778.753 298.01 789.628 302.994 799.888C313.815 822.152 324.068 833.113 331.787 830.663C338.223 828.617 353.426 804.939 361.236 784.79L366.935 770.082L380.024 768.4C401.962 765.579 442.759 754.462 460.188 746.554L476.68 739.074L490.675 747.909C498.372 752.77 509.097 758.075 514.509 759.703C530.127 764.393 533.207 759.433 533.207 729.598V705.426L555.259 682.161C595.55 639.649 613.075 598.846 613.033 547.643C613.021 531.94 611.269 510.536 609.144 500.078L605.279 481.064L614.863 475.014C629.399 465.834 645.25 446.279 651.415 429.931C658.318 411.614 658.91 383.386 652.699 368.514C637.161 331.301 587.385 319.725 541.639 342.689C534.859 346.092 529.344 348.049 529.378 347.037C529.461 344.631 534.045 324.454 537.311 312.123C539.008 305.712 542.279 301.165 546.923 298.756C567.276 288.205 573.469 273.396 563.063 260.161C558.23 254.013 558.152 252.98 561.859 244.103C567.505 230.584 564.48 218.159 552.665 206.339C542.993 196.663 528.693 191.563 519.457 194.496C515.526 195.742 514.994 193.531 514.841 175.3C514.688 156.95 513.617 152.564 505.055 135.237C490.682 106.139 470.156 90.1846 439.9 84.5888C421.197 81.1316 412.851 81.2691 394.407 85.3466ZM399.894 92.3985C369.493 97.6102 347.83 116.1 335.606 147.277C331.709 157.212 325.171 168.435 321.08 172.214C316.986 175.993 311.867 182.43 309.703 186.513C305.067 195.257 304.535 213.952 308.697 221.733C311.649 227.251 310.448 232.294 306.18 232.294C304.909 232.294 300.846 229.488 297.149 226.06C288.922 218.434 280.013 215.956 271.913 219.036C268.556 220.313 257.388 228.069 247.098 236.27L228.387 251.184L235.164 257.467C238.892 260.925 252.427 269.121 265.238 275.682C285.002 285.802 291.402 287.795 307.472 288.826C333.753 290.513 350.142 286.121 356.872 275.586C362.029 267.512 362.569 267.333 381.643 267.333C401.137 267.333 401.142 267.33 411.419 256.538C423.358 243.994 437.186 239.914 450.034 245.139C454.397 246.914 465.27 251.023 474.19 254.265C483.112 257.509 495.012 263.209 500.634 266.93C510.566 273.505 511.17 273.585 522.03 269.754C535.573 264.979 551.572 249.953 555.368 238.456C558.58 228.717 555.002 219.571 543.935 209.231C535.98 201.797 520.51 200.894 510.747 207.292C507.177 209.633 503.631 210.923 502.868 210.16C502.105 209.397 499.659 211.554 497.43 214.954C488.646 228.37 459.376 234.42 446.591 225.46C431.862 215.141 426.277 183.717 435.837 164.97C444.92 147.158 469.162 137.043 484.168 144.806C496.429 151.149 501.957 158.998 501.957 170.065C501.957 187.745 482.349 200.964 462.123 196.918C453.769 195.246 453.336 192.454 461.35 191.937C463.771 191.781 468.944 191.454 472.846 191.21C476.748 190.966 483.639 187.463 488.155 183.421C494.911 177.384 496.06 174.833 494.618 169.081C491.72 157.534 484.012 151.835 471.292 151.835C457.98 151.835 448.936 157.895 442.733 170.974C433.671 190.079 441.028 214.585 457.461 220.028C468.246 223.602 482.401 219.932 490.988 211.338C495.165 207.162 499.607 203.744 500.86 203.744C502.111 203.744 504.03 199.365 505.123 194.011C511.232 164.054 501.296 133.993 478.351 113.014C458.125 94.519 430.246 87.192 399.894 92.3985ZM270.471 95.2223C272.074 100.034 277.66 100.831 277.66 96.2476C277.66 93.9869 275.81 92.139 273.553 92.139C271.293 92.139 269.905 93.5249 270.471 95.2223ZM380.138 117.333C368.879 123.079 358.597 133.311 350.827 146.496C345.218 156.018 344.014 161.326 343.926 176.938C343.788 200.725 348.328 202.044 350.959 178.978C352.036 169.551 355.385 156.094 358.405 149.073C363.521 137.173 378.636 120.424 386.904 117.489C388.892 116.785 389.932 115.568 389.219 114.784C388.505 114.001 384.419 115.148 380.138 117.333ZM212.346 129.703C201.567 137.03 193.036 155.476 195.636 165.837C198.189 176.011 192.811 176.299 183.619 166.486C171.474 153.516 156.178 144.048 147.38 144.048C142.415 144.048 137.114 146.693 132.175 151.635C123.035 160.779 122.018 175.775 129.432 192.064C134.632 203.484 153.386 221.912 159.813 221.912C167.417 221.912 162.576 230.519 154.427 231.487C136.811 233.576 128.963 243.644 133.947 257.753C137.063 266.564 143.203 268.511 142.487 260.457C141.517 249.559 142.692 242.676 145.52 242.676C147.111 242.676 147.588 244.89 146.644 247.867C144.892 253.387 147.1 263.445 150.06 263.434C151.036 263.429 151.96 259.858 152.115 255.492C152.273 251.129 153.731 246.226 155.358 244.599C157.576 242.38 158.318 244.064 158.318 251.301V260.963L164.846 256.686C169.391 253.704 174.31 252.873 181.061 253.948C192.603 255.783 198.028 253.309 194.544 247.799C190.455 241.334 191.778 227.998 197.148 221.551L202.249 215.423L202.337 225.328C202.384 230.773 203.632 237.49 205.108 240.252C210.375 250.096 227.124 244.412 239.51 228.575C252.264 212.267 276.838 204.144 290.803 211.621C295.203 213.978 295.823 213.42 295.836 207.079C295.865 192.918 301.139 180.501 310.207 173.265C320.908 164.721 321.368 160.036 312.529 149.527C301.365 136.254 282.434 136.314 272.972 149.652C268.053 156.587 265.238 155.582 260.973 145.372C251.599 122.921 231.737 116.523 212.346 129.703ZM570.825 128.475C570.825 129.903 571.993 131.071 573.42 131.071C574.847 131.071 576.014 129.903 576.014 128.475C576.014 127.048 574.847 125.88 573.42 125.88C571.993 125.88 570.825 127.048 570.825 128.475ZM554.533 142.2C552.475 147.562 556.491 152.478 562.056 151.406C568.95 150.077 568.441 140.37 561.426 139.369C558.398 138.938 555.295 140.21 554.533 142.2ZM210.141 153.301C206.398 163.151 207.069 179.593 211.568 188.298C215.454 195.817 215.374 196.048 207.028 201.138C195.688 208.055 173.042 208.18 161.904 201.385C151.897 195.28 148.755 184.787 154.367 176.216C161.701 165.02 173.311 171.365 170.242 184.893L168.615 192.064L173.846 185.936C180.334 178.332 180.329 177.491 173.695 169.056C162.942 155.377 142.752 164.776 142.752 183.46C142.752 202.804 157.761 214.956 181.678 214.977C196.435 214.993 204.864 211.966 214.502 203.196C218.972 199.129 221.149 198.672 225.357 200.925C242.594 210.155 267.282 190.824 267.282 168.098C267.282 156.984 263.269 157.277 259.512 168.664C255.836 179.811 245.674 188.171 235.8 188.171C222.332 188.171 211.057 171.036 214.043 155.105C215.937 145.006 213.69 143.968 210.141 153.301ZM363.513 156.013C360.468 159.888 357.328 165.629 356.542 168.767C354.358 177.473 356.394 191.535 360.011 192.724C362.411 193.51 362.821 190.78 361.622 182.025C360.34 172.663 361.158 168.324 365.641 160.724C372.461 149.156 371.164 146.283 363.513 156.013ZM559.693 166.431C556.935 169.19 557.48 179.847 560.471 181.698C561.911 182.586 565.481 182.555 568.405 181.628C575.677 179.318 574.429 166.439 566.828 165.352C563.914 164.934 560.705 165.422 559.693 166.431ZM84.0671 191.94C82.2588 196.65 84.8843 201.148 89.4427 201.148C93.3758 201.148 96.8107 194.094 94.6107 190.533C92.3432 186.86 85.673 187.753 84.0671 191.94ZM101.242 211.53C101.242 214.99 102.972 216.721 106.431 216.721C109.889 216.721 111.619 214.99 111.619 211.53C111.619 208.071 109.889 206.339 106.431 206.339C102.972 206.339 101.242 208.071 101.242 211.53ZM63.2705 220.596C62.3729 222.94 62.8814 226.101 64.4017 227.622C68.3555 231.578 75.8429 227.962 74.8103 222.6C73.661 216.625 65.3486 215.182 63.2705 220.596ZM518.87 223.033C520.261 226.69 520.333 232.616 519.044 237.114C516.496 246.003 518.178 249.133 523.239 244.931C527.375 241.497 527.811 228.8 524.036 221.741C520.09 214.367 515.97 215.4 518.87 223.033ZM532.086 229.769C531.987 233.379 530.039 239.001 527.753 242.266C523.185 248.793 524.329 251.936 530.423 249.595C535.765 247.545 538.357 235.824 535.002 228.884C532.296 223.285 532.257 223.298 532.086 229.769ZM426.212 254.22C415.884 258.835 407.182 274.662 412.205 279.687C416.607 284.092 460.427 284.081 464.832 279.674C469.247 275.257 465.055 264.07 456.673 257.896C447.584 251.199 436.076 249.813 426.212 254.22ZM112.917 256.699C102.786 261.171 95.3682 269.643 96.489 275.462C99.8617 292.984 161.102 310.737 243.933 318.204C287.659 322.146 415.461 319.777 450.757 314.37C519.4 303.853 560.448 288.743 560.448 273.993C560.448 268.127 551.209 259.497 548.911 263.216C545.201 269.222 514.699 284.657 499.794 288.07C428.472 304.404 264.719 306.431 180.586 292.018C139.509 284.982 127.305 279.033 125.863 265.339C125.528 262.152 125.105 258.088 124.923 256.302C124.514 252.289 122.768 252.347 112.917 256.699ZM207.217 263.834C201.837 269.217 201.808 269.547 206.416 272.918C211.558 276.679 218.404 277.279 227.718 274.782C234.788 272.884 235.195 268.324 228.81 262.544C222.309 256.655 213.89 257.159 207.217 263.834ZM169.036 264.327C165.287 268.846 167.853 271.226 176.479 271.226C180.285 271.226 184.166 270.458 185.105 269.518C187.692 266.928 181.642 260.844 176.479 260.844C173.975 260.844 170.626 262.412 169.036 264.327ZM369.473 273.77C363.615 276.137 359.726 283.155 362.123 287.032C364.087 290.212 384.346 289.97 389.219 286.713C392.506 284.515 391.979 283.111 385.83 277.668C377.879 270.632 377.474 270.533 369.473 273.77ZM36.717 345.516C27.8079 349.957 20.6422 355.983 16.102 362.856C9.83659 372.337 9.1413 375.737 9.1413 396.927C9.1413 418.796 9.76914 421.625 18.0063 436.819C22.8812 445.815 30.4204 456.163 34.7608 459.818L42.6504 466.459L45.6287 457.736C48.3762 449.7 48.0026 448.317 40.8732 440.121C20.9432 417.2 18.5926 383.013 35.8142 366.505C47.1672 355.625 76.4111 352.809 96.3178 360.684C99.0575 361.766 101.932 360.102 104.75 355.799C107.1 352.21 109.025 348.693 109.025 347.984C109.025 344.851 80.6996 338.708 66.2567 338.708C54.3173 338.708 46.983 340.398 36.717 345.516ZM559.799 343.305C553.02 345.56 547.502 348.078 547.533 348.898C547.564 349.718 549.66 353.079 552.19 356.365C556.266 361.665 557.659 362.013 564.456 359.42C576.198 354.94 602.446 355.633 613.127 360.705C627.554 367.554 631.801 375.914 631.612 397.106C631.441 416.224 625.64 431.812 614.58 442.877C610.418 447.04 609.617 450.136 610.914 457.046C611.824 461.907 613.586 465.886 614.826 465.886C619.82 465.886 638.433 441.117 643.383 427.888C652.65 403.104 649.446 370.842 636.235 355.955C633.791 353.201 625.956 348.207 618.822 344.854C603.33 337.574 578.943 336.935 559.799 343.305ZM46.7599 367.982C36.4653 373.129 30.6461 387.03 32.5011 402.053C33.3676 409.058 35.783 418.093 37.8715 422.134C43.0162 432.088 56.9843 447.733 60.6502 447.648C62.2846 447.609 66.9052 440.222 70.9188 431.231C74.9297 422.238 84.1268 405.832 91.3521 394.773C98.5801 383.713 103.471 373.742 102.22 372.612C93.6923 364.922 58.72 362.002 46.7599 367.982ZM563.878 368.104C559.343 369.781 554.784 372.013 553.749 373.064C552.714 374.118 556.569 381.71 562.318 389.935C568.068 398.162 577.599 414.527 583.502 426.305C589.404 438.083 595.158 447.718 596.289 447.718C599.784 447.718 614.102 431.332 618.969 421.763C621.854 416.092 623.67 406.504 623.8 396.244C623.997 380.848 623.476 379.332 615.537 372.236C607.886 365.397 605.372 364.681 589.593 364.86C579.984 364.969 568.413 366.428 563.878 368.104ZM317.572 443.438C250.375 460.552 217.444 541.398 254.936 597.208C271.952 622.535 298.529 636.696 333.439 639.034C409.024 644.095 459.934 583.896 438.574 514.714C429.136 484.14 412.389 464.804 382.733 450.23C363.98 441.013 337.798 438.286 317.572 443.438ZM87.17 455.237C76.053 470.386 66.8975 490.504 62.3236 509.835C58.1648 527.414 58.17 562.577 62.3365 580.673C66.6354 599.35 82.3678 631.995 87.0714 631.995C92.2031 631.995 91.9281 628.785 84.1527 597.772C75.1295 561.786 72.862 513.274 79.0937 489.453C81.4909 480.288 86.8872 465.979 91.0875 457.658C95.2852 449.335 98.2221 442.527 97.6098 442.527C96.9949 442.527 92.2991 448.247 87.17 455.237ZM138.86 454.393C170.457 471.863 185.284 506.001 175.498 538.753C167.528 565.427 141.548 591.12 118.879 594.745C105.65 596.863 106.436 600.144 120.682 602.28C145.139 605.95 170.834 596.077 189.228 575.944C204.104 559.66 210.229 543.833 210.149 521.875C210.019 485.879 182.475 456.659 144.049 451.746L131.077 450.087L138.86 454.393ZM530.612 452.846C485.784 464.375 463.12 503.255 475.798 546.885C485.818 581.368 526.485 607.572 561.763 602.28C576.089 600.131 576.777 596.858 563.354 594.712C557.322 593.746 546.84 588.355 537.205 581.259C523.922 571.474 519.724 566.421 513.08 552.216C503.473 531.678 502.111 510.242 509.235 491.718C514.021 479.276 530.504 461.468 543.584 454.603C551.176 450.622 551.209 450.526 544.882 450.682C541.314 450.772 534.893 451.746 530.612 452.846ZM366.497 458.011C364.528 461.193 360.405 463.324 356.119 463.373C349.683 463.449 349.434 463.781 353.504 466.875C355.979 468.754 357.183 471.116 356.179 472.12C355.175 473.124 356.361 473.176 358.812 472.234C362.245 470.916 363.293 471.933 363.353 476.639C363.425 482.165 363.695 482.302 366.157 478.072C368.331 474.331 369.639 474.012 372.625 476.491C375.694 479.04 376.052 478.78 374.617 475.037C373.159 471.24 373.855 470.791 378.774 472.354C382.805 473.633 384.115 473.317 382.904 471.354C381.928 469.774 379.321 468.481 377.113 468.481C374.61 468.481 373.66 467.015 374.591 464.588C375.411 462.447 375.038 460.695 373.761 460.695C372.485 460.695 371.06 458.904 370.599 456.713C369.932 453.542 369.099 453.807 366.497 458.011ZM310.09 460.695C310.972 462.122 312.791 463.29 314.134 463.29C315.478 463.29 316.576 462.122 316.576 460.695C316.576 459.267 314.755 458.099 312.531 458.099C310.308 458.099 309.208 459.267 310.09 460.695ZM264.688 489.245C264.688 490.672 265.926 491.84 267.436 491.84C268.946 491.84 269.462 490.672 268.58 489.245C267.698 487.817 266.463 486.649 265.832 486.649C265.202 486.649 264.688 487.817 264.688 489.245ZM408.676 489.245C407.794 490.672 408.311 491.84 409.821 491.84C411.33 491.84 412.568 490.672 412.568 489.245C412.568 487.817 412.054 486.649 411.424 486.649C410.793 486.649 409.559 487.817 408.676 489.245ZM280.332 504.169C280.291 507.379 279.123 510.009 277.74 510.009C276.36 510.009 275.823 511.561 276.552 513.458C277.284 515.371 275.226 518.182 271.929 519.77L265.985 522.636L272.471 523.118C276.039 523.383 280.192 523.464 281.7 523.295C283.209 523.126 285.71 526.199 287.262 530.124L290.079 537.261L290.357 528.906C290.564 522.581 291.584 520.92 294.552 522.059C297.359 523.137 298.018 522.374 296.869 519.381C295.805 516.606 296.666 515.2 299.435 515.2C301.728 515.2 303.604 514.008 303.604 512.555C303.604 511.029 300.859 510.6 297.118 511.537C292.142 512.788 290.632 512.16 290.632 508.838C290.632 506.458 289.537 505.189 288.196 506.017C286.857 506.845 284.558 505.454 283.087 502.926C280.677 498.786 280.405 498.908 280.332 504.169ZM399.596 515.363C399.596 522.41 399.025 523.147 395.705 520.391C393.25 518.353 391.813 518.179 391.813 519.921C391.813 521.436 393.105 523.479 394.685 524.455C398.602 526.877 392.459 530.617 384.03 530.944L377.544 531.193L384.741 534.383C388.697 536.137 391.032 538.522 389.929 539.685C388.824 540.848 390.339 541.058 393.294 540.152C397.811 538.766 399.103 540.059 401.399 548.263L404.128 558.025L404.458 548.292C404.819 537.562 405.205 537.266 413.388 541.471C418.058 543.874 418.483 543.781 415.811 540.952C410.882 535.735 411.893 533.368 419.054 533.368C422.621 533.368 425.54 532.2 425.54 530.772C425.54 529.345 421.96 528.177 417.583 528.177C410.518 528.177 409.831 527.523 411.471 522.358C413.11 517.185 412.843 516.931 409.05 520.079C405.28 523.209 404.785 522.848 404.785 516.967C404.785 513.31 403.617 509.593 402.19 508.711C400.668 507.769 399.596 510.52 399.596 515.363ZM335.722 524.159C333.712 529.405 336.703 533.368 342.673 533.368C346.315 533.368 347.708 531.572 347.708 526.879C347.708 522.088 346.331 520.391 342.439 520.391C339.539 520.391 336.516 522.085 335.722 524.159ZM319.559 530.643C320.675 533.988 324.232 534.59 324.554 531.486C324.66 530.451 323.347 529.137 321.635 528.566C319.923 527.995 318.989 528.93 319.559 530.643ZM249.687 536.363C251.034 540.407 256.837 541.113 257.042 537.261C257.118 535.834 255.232 534.263 252.853 533.768C250.147 533.209 248.961 534.18 249.687 536.363ZM355.492 552.681C355.492 554.905 356.659 556.727 358.086 556.727C359.513 556.727 360.68 555.629 360.68 554.285C360.68 552.94 359.513 551.121 358.086 550.238C356.659 549.356 355.492 550.456 355.492 552.681ZM272.471 558.025C272.471 560.166 274.222 561.918 276.363 561.918C278.503 561.918 280.254 560.166 280.254 558.025C280.254 555.883 278.503 554.132 276.363 554.132C274.222 554.132 272.471 555.883 272.471 558.025ZM313.981 561.837C313.981 568.074 313.117 569.227 309.441 567.885C305.337 566.387 305.371 566.764 309.794 571.807C314.588 577.27 314.588 577.413 309.794 578.952C307.104 579.814 302.566 581.511 299.712 582.723C295.19 584.644 295.476 584.947 301.936 585.101C307.42 585.23 308.959 586.289 307.853 589.17C306.196 593.494 310.157 594.558 312.684 590.468C315.673 585.627 318.247 587.841 320.978 597.606L323.703 607.339L324.032 597.325C324.343 587.813 324.709 587.398 331.299 589.051C337.064 590.499 337.725 590.177 335.211 587.148C331.66 582.866 333.686 580.086 340.359 580.086C342.974 580.086 345.114 578.918 345.114 577.491C345.114 576.063 341.064 574.895 336.114 574.895C329.151 574.895 327.457 574.008 328.622 570.974C329.662 568.259 328.933 567.509 326.255 568.536C323.609 569.551 321.508 567.508 319.614 562.076C316.114 552.032 313.981 551.938 313.981 561.837ZM417.757 565.811C417.757 567.952 418.924 569.704 420.351 569.704C421.778 569.704 422.946 567.952 422.946 565.811C422.946 563.67 421.778 561.918 420.351 561.918C418.924 561.918 417.757 563.67 417.757 565.811ZM389.571 577.026C389.055 582.048 382.484 587.873 377.331 587.873C373.494 587.873 373.652 588.56 378.444 592.718C381.516 595.384 384.071 599.765 384.121 602.451C384.204 606.83 384.541 606.747 387.364 601.67C390.526 595.981 391.112 595.659 398.299 595.659C400.439 595.659 402.19 594.491 402.19 593.063C402.19 591.636 400.369 590.468 398.146 590.468C395.922 590.468 394.822 589.3 395.705 587.873C396.587 586.445 396.153 585.277 394.742 585.277C393.328 585.277 391.668 582.648 391.05 579.437C390.43 576.227 389.766 575.142 389.571 577.026ZM277.66 603.445C277.66 604.873 278.828 606.041 280.254 606.041C281.681 606.041 282.849 604.873 282.849 603.445C282.849 602.018 281.681 600.85 280.254 600.85C278.828 600.85 277.66 602.018 277.66 603.445ZM351.712 613.648C350.889 614.977 351.405 616.796 352.856 617.694C354.306 618.59 355.492 617.502 355.492 615.278C355.492 610.718 353.935 610.048 351.712 613.648ZM489.58 640.374C477.002 652.897 467.888 663.141 469.325 663.141C475.095 663.141 517.023 620.337 513.383 618.162C512.872 617.855 502.16 627.851 489.58 640.374ZM327.807 623.129C325.949 627.975 330.56 633.28 334.511 630.838C338.631 628.292 337.956 622.408 333.341 620.638C331.029 619.75 328.702 620.799 327.807 623.129ZM503.283 648.98C495.485 656.894 482.972 667.6 475.482 672.77C467.992 677.94 461.861 683.225 461.861 684.512C461.861 687.071 472.646 680.009 489.58 666.357C499.01 658.752 520.915 634.591 518.375 634.591C517.874 634.591 511.082 641.067 503.283 648.98ZM96.0532 644.789C96.0532 650.74 103.216 658.588 107.38 657.203C111.661 655.778 112.548 647.921 108.921 643.551C104.309 637.988 96.0532 638.783 96.0532 644.789ZM503.327 666.58C496.904 672.539 486.407 681.743 479.999 687.032C466.99 697.77 466.684 700.238 479.539 690.749C489.969 683.051 516.917 657.657 515.819 656.562C515.37 656.113 509.748 660.621 503.327 666.58ZM512.33 681.491C506.69 687.3 495.08 696.643 486.529 702.255C477.98 707.863 472.301 712.455 473.91 712.455C479.63 712.455 508.488 691.234 516.46 681.161C526.871 668.01 525.297 668.135 512.33 681.491ZM500.18 707.887C483.727 719.761 481.695 725.183 497.913 713.939C507.037 707.614 518.811 696.661 516.097 697.022C515.518 697.1 508.355 701.987 500.18 707.887ZM131.093 725.328C129.132 739.583 131.329 753.982 135.459 753.982C139.558 753.982 168.696 737.955 168.696 735.7C168.696 734.607 162.371 730.143 154.642 725.777C146.911 721.414 139.836 716.631 138.92 715.149C135.428 709.496 132.797 712.914 131.093 725.328ZM517.581 715.149C516.665 716.631 509.59 721.414 501.859 725.777C494.13 730.143 487.805 734.698 487.805 735.9C487.805 737.101 495.49 741.869 504.879 746.494C524.542 756.178 526.638 755.15 526.646 735.814C526.653 716.753 522.474 707.228 517.581 715.149ZM312.951 749.91C295.758 756.24 294.713 758.6 301.274 776.262C307.755 793.708 320.296 817.013 325.555 821.381C330.17 825.212 339.531 813.205 350.09 789.909C360.976 765.888 361.243 759.409 351.587 753.681C340.403 747.047 324.854 745.529 312.951 749.91Z"/>
</mask>
<path fill-rule="evenodd" clip-rule="evenodd" d="M424.458 9.92768C422.917 17.0055 421.495 19.0533 419.508 17.0652C417.975 15.5313 415.552 14.275 414.125 14.275C412.682 14.275 412.913 15.6585 414.644 17.3896C419.454 22.2016 418.452 23.8367 409.325 26.0844L400.893 28.1634L409.38 29.173L417.868 30.1853L412.438 37.0917C406.072 45.187 410.163 48.4028 417.907 41.3924C422.795 36.9672 422.946 37.0762 422.946 45.0183C422.946 49.5214 424.113 53.207 425.54 53.207C426.967 53.207 428.134 50.2871 428.134 46.7183C428.134 38.335 429.644 38.5426 437.619 48.0238C441.223 52.3089 445.234 55.1614 446.531 54.3594C450.402 51.9664 449.346 49.4825 439.607 38.1014L430.324 27.2524H439.822C450.573 27.2524 451.341 21.8823 440.94 19.427C436.688 18.4226 435.707 17.3066 437.889 15.9569C439.659 14.8642 441.106 12.6892 441.106 11.1242C441.106 9.55912 438.971 10.2132 436.361 12.575C429.73 18.5783 428.591 18.0463 427.543 8.43526L426.619 0L424.458 9.92768ZM269.877 33.9565C269.877 38.5401 275.463 37.7432 277.066 32.9312C277.631 31.2338 276.243 29.8478 273.984 29.8478C271.727 29.8478 269.877 31.6958 269.877 33.9565ZM479.085 39.4355C475.985 42.5371 477.412 48.0161 481.319 48.0161C483.46 48.0161 485.211 46.3342 485.211 44.276C485.211 39.939 481.509 37.0139 479.085 39.4355ZM330.487 44.1229C328.157 50.1937 331.444 55.8025 337.331 55.8025C343.931 55.8025 346.803 49.2853 342.491 44.0891C338.374 39.124 332.396 39.1396 330.487 44.1229ZM175.335 68.1309C172.987 77.5706 172.912 77.6173 165.93 73.8799C159.779 70.5862 159.444 73.2362 165.206 79.6054C169.295 84.1241 169.015 84.3655 159.369 84.6303L149.238 84.908L160.352 87.3971L171.467 89.8835L164.745 97.8724C160.205 103.274 158.879 106.715 160.656 108.493C162.436 110.273 164.584 110.048 167.29 107.803C170.605 105.051 171.29 105.176 171.29 108.54C171.29 114.216 176.598 116.889 179.322 112.586C180.57 110.619 181.606 106.383 181.629 103.17C181.673 96.4215 184.817 95.6376 189.451 101.223C193.031 105.539 202.423 106.544 202.423 102.612C202.423 101.236 199.797 98.6977 196.586 96.9717C190.792 93.8597 190.813 93.8104 199.18 90.3844C211.049 85.5257 209.97 80.9862 197.234 82.2009C191.526 82.7459 186.857 82.829 186.857 82.3826C186.857 81.9388 188.743 78.6944 191.047 75.1776C193.589 71.2974 194.108 68.7798 192.364 68.7798C190.787 68.7798 188.037 71.1157 186.255 73.9707C181.523 81.5495 179.509 80.3841 178.409 69.4286L177.431 59.6957L175.335 68.1309ZM238.744 63.5889C238.744 65.0164 239.982 66.1843 241.492 66.1843C243.002 66.1843 243.518 65.0164 242.636 63.5889C241.754 62.1614 240.519 60.9934 239.888 60.9934C239.258 60.9934 238.744 62.1614 238.744 63.5889ZM524.127 74.4898C524.127 82.9692 523.434 84.6978 521.013 82.2762C517.249 78.5102 512.802 78.1235 515.046 81.7571C515.928 83.1846 515.412 84.3526 513.902 84.3526C512.392 84.3526 511.155 85.5205 511.155 86.948C511.155 88.3755 513.49 89.5435 516.343 89.5435C522.661 89.5435 522.739 90.5921 517.129 100.094C512.532 107.88 514.18 113.51 519.501 108.187C524.069 103.616 525.979 104.405 527.787 111.605C529.961 120.276 534.504 119.887 534.504 111.026V103.961L538.544 109.728C540.764 112.903 543.683 115.498 545.029 115.498C549.855 115.498 547.331 109.106 539.184 100.699L530.893 92.139H543.076C549.777 92.139 555.259 91.0956 555.259 89.8212C555.259 87.0103 548.854 84.3526 542.074 84.3526C536.39 84.3526 535.687 81.6118 540.212 77.0853C544.972 72.3226 539.457 73.3815 534.06 78.2662C529.546 82.3541 529.315 82.1023 529.315 73.0753C529.315 67.8584 528.148 63.5889 526.721 63.5889C525.294 63.5889 524.127 68.4943 524.127 74.4898ZM299.046 69.1873C293.4 74.835 295.216 84.189 302.61 87.5579C308.583 90.2806 309.976 89.9458 314.155 84.7808C317.525 80.6177 318.298 77.2462 316.814 73.1946C314.417 66.6593 303.936 64.2949 299.046 69.1873ZM394.407 85.3466C374.462 89.7563 363.591 95.5728 349.706 109.269C338.981 119.848 326.953 139.589 326.953 146.615C326.953 150.981 323.217 149.569 319.653 143.856C312.526 132.439 290.328 127.878 276.643 135.016C269.275 138.862 268.984 138.748 260.278 128.571C244.802 110.486 222.724 109.536 203.819 126.142C198.954 130.414 192.972 139.158 190.522 145.574L186.068 157.241L179.328 150.942C158.505 131.478 131.025 131.857 120.744 151.749C111.918 168.822 119.493 200.956 135.999 216.469L142.192 222.291L131.243 233.558C125.222 239.756 116.02 246.616 110.794 248.801C87.3905 258.583 81.7114 275.309 97.1791 288.896C102.08 293.202 108.498 297.487 111.443 298.421C114.408 299.363 117.498 303.228 118.37 307.087C119.237 310.916 121.639 320.895 123.709 329.263C125.782 337.628 127.064 344.888 126.558 345.394C126.052 345.9 118.105 343.255 108.901 339.515C89.5879 331.669 61.2832 328.874 45.2136 333.221C27.9895 337.883 13.435 350.18 6.05397 366.308C-7.53541 396.003 2.52821 439.942 28.485 464.23C35.1863 470.501 43.3067 476.467 46.529 477.493C51.3312 479.016 52.0784 480.587 50.6748 486.182C41.1275 524.242 40.523 564.949 49.0948 592.952C60.8448 631.339 80.8786 663.699 109.79 690.99L124.171 704.565L123.733 729.151C123.081 765.701 129.957 769.41 162.283 749.936C170.437 745.023 178.573 741.005 180.363 741.005C182.153 741.005 190.154 743.896 198.142 747.431C214.279 754.571 256.049 765.703 276.939 768.434C287.628 769.83 290.852 771.369 292.209 775.719C293.156 778.753 298.01 789.628 302.994 799.888C313.815 822.152 324.068 833.113 331.787 830.663C338.223 828.617 353.426 804.939 361.236 784.79L366.935 770.082L380.024 768.4C401.962 765.579 442.759 754.462 460.188 746.554L476.68 739.074L490.675 747.909C498.372 752.77 509.097 758.075 514.509 759.703C530.127 764.393 533.207 759.433 533.207 729.598V705.426L555.259 682.161C595.55 639.649 613.075 598.846 613.033 547.643C613.021 531.94 611.269 510.536 609.144 500.078L605.279 481.064L614.863 475.014C629.399 465.834 645.25 446.279 651.415 429.931C658.318 411.614 658.91 383.386 652.699 368.514C637.161 331.301 587.385 319.725 541.639 342.689C534.859 346.092 529.344 348.049 529.378 347.037C529.461 344.631 534.045 324.454 537.311 312.123C539.008 305.712 542.279 301.165 546.923 298.756C567.276 288.205 573.469 273.396 563.063 260.161C558.23 254.013 558.152 252.98 561.859 244.103C567.505 230.584 564.48 218.159 552.665 206.339C542.993 196.663 528.693 191.563 519.457 194.496C515.526 195.742 514.994 193.531 514.841 175.3C514.688 156.95 513.617 152.564 505.055 135.237C490.682 106.139 470.156 90.1846 439.9 84.5888C421.197 81.1316 412.851 81.2691 394.407 85.3466ZM399.894 92.3985C369.493 97.6102 347.83 116.1 335.606 147.277C331.709 157.212 325.171 168.435 321.08 172.214C316.986 175.993 311.867 182.43 309.703 186.513C305.067 195.257 304.535 213.952 308.697 221.733C311.649 227.251 310.448 232.294 306.18 232.294C304.909 232.294 300.846 229.488 297.149 226.06C288.922 218.434 280.013 215.956 271.913 219.036C268.556 220.313 257.388 228.069 247.098 236.27L228.387 251.184L235.164 257.467C238.892 260.925 252.427 269.121 265.238 275.682C285.002 285.802 291.402 287.795 307.472 288.826C333.753 290.513 350.142 286.121 356.872 275.586C362.029 267.512 362.569 267.333 381.643 267.333C401.137 267.333 401.142 267.33 411.419 256.538C423.358 243.994 437.186 239.914 450.034 245.139C454.397 246.914 465.27 251.023 474.19 254.265C483.112 257.509 495.012 263.209 500.634 266.93C510.566 273.505 511.17 273.585 522.03 269.754C535.573 264.979 551.572 249.953 555.368 238.456C558.58 228.717 555.002 219.571 543.935 209.231C535.98 201.797 520.51 200.894 510.747 207.292C507.177 209.633 503.631 210.923 502.868 210.16C502.105 209.397 499.659 211.554 497.43 214.954C488.646 228.37 459.376 234.42 446.591 225.46C431.862 215.141 426.277 183.717 435.837 164.97C444.92 147.158 469.162 137.043 484.168 144.806C496.429 151.149 501.957 158.998 501.957 170.065C501.957 187.745 482.349 200.964 462.123 196.918C453.769 195.246 453.336 192.454 461.35 191.937C463.771 191.781 468.944 191.454 472.846 191.21C476.748 190.966 483.639 187.463 488.155 183.421C494.911 177.384 496.06 174.833 494.618 169.081C491.72 157.534 484.012 151.835 471.292 151.835C457.98 151.835 448.936 157.895 442.733 170.974C433.671 190.079 441.028 214.585 457.461 220.028C468.246 223.602 482.401 219.932 490.988 211.338C495.165 207.162 499.607 203.744 500.86 203.744C502.111 203.744 504.03 199.365 505.123 194.011C511.232 164.054 501.296 133.993 478.351 113.014C458.125 94.519 430.246 87.192 399.894 92.3985ZM270.471 95.2223C272.074 100.034 277.66 100.831 277.66 96.2476C277.66 93.9869 275.81 92.139 273.553 92.139C271.293 92.139 269.905 93.5249 270.471 95.2223ZM380.138 117.333C368.879 123.079 358.597 133.311 350.827 146.496C345.218 156.018 344.014 161.326 343.926 176.938C343.788 200.725 348.328 202.044 350.959 178.978C352.036 169.551 355.385 156.094 358.405 149.073C363.521 137.173 378.636 120.424 386.904 117.489C388.892 116.785 389.932 115.568 389.219 114.784C388.505 114.001 384.419 115.148 380.138 117.333ZM212.346 129.703C201.567 137.03 193.036 155.476 195.636 165.837C198.189 176.011 192.811 176.299 183.619 166.486C171.474 153.516 156.178 144.048 147.38 144.048C142.415 144.048 137.114 146.693 132.175 151.635C123.035 160.779 122.018 175.775 129.432 192.064C134.632 203.484 153.386 221.912 159.813 221.912C167.417 221.912 162.576 230.519 154.427 231.487C136.811 233.576 128.963 243.644 133.947 257.753C137.063 266.564 143.203 268.511 142.487 260.457C141.517 249.559 142.692 242.676 145.52 242.676C147.111 242.676 147.588 244.89 146.644 247.867C144.892 253.387 147.1 263.445 150.06 263.434C151.036 263.429 151.96 259.858 152.115 255.492C152.273 251.129 153.731 246.226 155.358 244.599C157.576 242.38 158.318 244.064 158.318 251.301V260.963L164.846 256.686C169.391 253.704 174.31 252.873 181.061 253.948C192.603 255.783 198.028 253.309 194.544 247.799C190.455 241.334 191.778 227.998 197.148 221.551L202.249 215.423L202.337 225.328C202.384 230.773 203.632 237.49 205.108 240.252C210.375 250.096 227.124 244.412 239.51 228.575C252.264 212.267 276.838 204.144 290.803 211.621C295.203 213.978 295.823 213.42 295.836 207.079C295.865 192.918 301.139 180.501 310.207 173.265C320.908 164.721 321.368 160.036 312.529 149.527C301.365 136.254 282.434 136.314 272.972 149.652C268.053 156.587 265.238 155.582 260.973 145.372C251.599 122.921 231.737 116.523 212.346 129.703ZM570.825 128.475C570.825 129.903 571.993 131.071 573.42 131.071C574.847 131.071 576.014 129.903 576.014 128.475C576.014 127.048 574.847 125.88 573.42 125.88C571.993 125.88 570.825 127.048 570.825 128.475ZM554.533 142.2C552.475 147.562 556.491 152.478 562.056 151.406C568.95 150.077 568.441 140.37 561.426 139.369C558.398 138.938 555.295 140.21 554.533 142.2ZM210.141 153.301C206.398 163.151 207.069 179.593 211.568 188.298C215.454 195.817 215.374 196.048 207.028 201.138C195.688 208.055 173.042 208.18 161.904 201.385C151.897 195.28 148.755 184.787 154.367 176.216C161.701 165.02 173.311 171.365 170.242 184.893L168.615 192.064L173.846 185.936C180.334 178.332 180.329 177.491 173.695 169.056C162.942 155.377 142.752 164.776 142.752 183.46C142.752 202.804 157.761 214.956 181.678 214.977C196.435 214.993 204.864 211.966 214.502 203.196C218.972 199.129 221.149 198.672 225.357 200.925C242.594 210.155 267.282 190.824 267.282 168.098C267.282 156.984 263.269 157.277 259.512 168.664C255.836 179.811 245.674 188.171 235.8 188.171C222.332 188.171 211.057 171.036 214.043 155.105C215.937 145.006 213.69 143.968 210.141 153.301ZM363.513 156.013C360.468 159.888 357.328 165.629 356.542 168.767C354.358 177.473 356.394 191.535 360.011 192.724C362.411 193.51 362.821 190.78 361.622 182.025C360.34 172.663 361.158 168.324 365.641 160.724C372.461 149.156 371.164 146.283 363.513 156.013ZM559.693 166.431C556.935 169.19 557.48 179.847 560.471 181.698C561.911 182.586 565.481 182.555 568.405 181.628C575.677 179.318 574.429 166.439 566.828 165.352C563.914 164.934 560.705 165.422 559.693 166.431ZM84.0671 191.94C82.2588 196.65 84.8843 201.148 89.4427 201.148C93.3758 201.148 96.8107 194.094 94.6107 190.533C92.3432 186.86 85.673 187.753 84.0671 191.94ZM101.242 211.53C101.242 214.99 102.972 216.721 106.431 216.721C109.889 216.721 111.619 214.99 111.619 211.53C111.619 208.071 109.889 206.339 106.431 206.339C102.972 206.339 101.242 208.071 101.242 211.53ZM63.2705 220.596C62.3729 222.94 62.8814 226.101 64.4017 227.622C68.3555 231.578 75.8429 227.962 74.8103 222.6C73.661 216.625 65.3486 215.182 63.2705 220.596ZM518.87 223.033C520.261 226.69 520.333 232.616 519.044 237.114C516.496 246.003 518.178 249.133 523.239 244.931C527.375 241.497 527.811 228.8 524.036 221.741C520.09 214.367 515.97 215.4 518.87 223.033ZM532.086 229.769C531.987 233.379 530.039 239.001 527.753 242.266C523.185 248.793 524.329 251.936 530.423 249.595C535.765 247.545 538.357 235.824 535.002 228.884C532.296 223.285 532.257 223.298 532.086 229.769ZM426.212 254.22C415.884 258.835 407.182 274.662 412.205 279.687C416.607 284.092 460.427 284.081 464.832 279.674C469.247 275.257 465.055 264.07 456.673 257.896C447.584 251.199 436.076 249.813 426.212 254.22ZM112.917 256.699C102.786 261.171 95.3682 269.643 96.489 275.462C99.8617 292.984 161.102 310.737 243.933 318.204C287.659 322.146 415.461 319.777 450.757 314.37C519.4 303.853 560.448 288.743 560.448 273.993C560.448 268.127 551.209 259.497 548.911 263.216C545.201 269.222 514.699 284.657 499.794 288.07C428.472 304.404 264.719 306.431 180.586 292.018C139.509 284.982 127.305 279.033 125.863 265.339C125.528 262.152 125.105 258.088 124.923 256.302C124.514 252.289 122.768 252.347 112.917 256.699ZM207.217 263.834C201.837 269.217 201.808 269.547 206.416 272.918C211.558 276.679 218.404 277.279 227.718 274.782C234.788 272.884 235.195 268.324 228.81 262.544C222.309 256.655 213.89 257.159 207.217 263.834ZM169.036 264.327C165.287 268.846 167.853 271.226 176.479 271.226C180.285 271.226 184.166 270.458 185.105 269.518C187.692 266.928 181.642 260.844 176.479 260.844C173.975 260.844 170.626 262.412 169.036 264.327ZM369.473 273.77C363.615 276.137 359.726 283.155 362.123 287.032C364.087 290.212 384.346 289.97 389.219 286.713C392.506 284.515 391.979 283.111 385.83 277.668C377.879 270.632 377.474 270.533 369.473 273.77ZM36.717 345.516C27.8079 349.957 20.6422 355.983 16.102 362.856C9.83659 372.337 9.1413 375.737 9.1413 396.927C9.1413 418.796 9.76914 421.625 18.0063 436.819C22.8812 445.815 30.4204 456.163 34.7608 459.818L42.6504 466.459L45.6287 457.736C48.3762 449.7 48.0026 448.317 40.8732 440.121C20.9432 417.2 18.5926 383.013 35.8142 366.505C47.1672 355.625 76.4111 352.809 96.3178 360.684C99.0575 361.766 101.932 360.102 104.75 355.799C107.1 352.21 109.025 348.693 109.025 347.984C109.025 344.851 80.6996 338.708 66.2567 338.708C54.3173 338.708 46.983 340.398 36.717 345.516ZM559.799 343.305C553.02 345.56 547.502 348.078 547.533 348.898C547.564 349.718 549.66 353.079 552.19 356.365C556.266 361.665 557.659 362.013 564.456 359.42C576.198 354.94 602.446 355.633 613.127 360.705C627.554 367.554 631.801 375.914 631.612 397.106C631.441 416.224 625.64 431.812 614.58 442.877C610.418 447.04 609.617 450.136 610.914 457.046C611.824 461.907 613.586 465.886 614.826 465.886C619.82 465.886 638.433 441.117 643.383 427.888C652.65 403.104 649.446 370.842 636.235 355.955C633.791 353.201 625.956 348.207 618.822 344.854C603.33 337.574 578.943 336.935 559.799 343.305ZM46.7599 367.982C36.4653 373.129 30.6461 387.03 32.5011 402.053C33.3676 409.058 35.783 418.093 37.8715 422.134C43.0162 432.088 56.9843 447.733 60.6502 447.648C62.2846 447.609 66.9052 440.222 70.9188 431.231C74.9297 422.238 84.1268 405.832 91.3521 394.773C98.5801 383.713 103.471 373.742 102.22 372.612C93.6923 364.922 58.72 362.002 46.7599 367.982ZM563.878 368.104C559.343 369.781 554.784 372.013 553.749 373.064C552.714 374.118 556.569 381.71 562.318 389.935C568.068 398.162 577.599 414.527 583.502 426.305C589.404 438.083 595.158 447.718 596.289 447.718C599.784 447.718 614.102 431.332 618.969 421.763C621.854 416.092 623.67 406.504 623.8 396.244C623.997 380.848 623.476 379.332 615.537 372.236C607.886 365.397 605.372 364.681 589.593 364.86C579.984 364.969 568.413 366.428 563.878 368.104ZM317.572 443.438C250.375 460.552 217.444 541.398 254.936 597.208C271.952 622.535 298.529 636.696 333.439 639.034C409.024 644.095 459.934 583.896 438.574 514.714C429.136 484.14 412.389 464.804 382.733 450.23C363.98 441.013 337.798 438.286 317.572 443.438ZM87.17 455.237C76.053 470.386 66.8975 490.504 62.3236 509.835C58.1648 527.414 58.17 562.577 62.3365 580.673C66.6354 599.35 82.3678 631.995 87.0714 631.995C92.2031 631.995 91.9281 628.785 84.1527 597.772C75.1295 561.786 72.862 513.274 79.0937 489.453C81.4909 480.288 86.8872 465.979 91.0875 457.658C95.2852 449.335 98.2221 442.527 97.6098 442.527C96.9949 442.527 92.2991 448.247 87.17 455.237ZM138.86 454.393C170.457 471.863 185.284 506.001 175.498 538.753C167.528 565.427 141.548 591.12 118.879 594.745C105.65 596.863 106.436 600.144 120.682 602.28C145.139 605.95 170.834 596.077 189.228 575.944C204.104 559.66 210.229 543.833 210.149 521.875C210.019 485.879 182.475 456.659 144.049 451.746L131.077 450.087L138.86 454.393ZM530.612 452.846C485.784 464.375 463.12 503.255 475.798 546.885C485.818 581.368 526.485 607.572 561.763 602.28C576.089 600.131 576.777 596.858 563.354 594.712C557.322 593.746 546.84 588.355 537.205 581.259C523.922 571.474 519.724 566.421 513.08 552.216C503.473 531.678 502.111 510.242 509.235 491.718C514.021 479.276 530.504 461.468 543.584 454.603C551.176 450.622 551.209 450.526 544.882 450.682C541.314 450.772 534.893 451.746 530.612 452.846ZM366.497 458.011C364.528 461.193 360.405 463.324 356.119 463.373C349.683 463.449 349.434 463.781 353.504 466.875C355.979 468.754 357.183 471.116 356.179 472.12C355.175 473.124 356.361 473.176 358.812 472.234C362.245 470.916 363.293 471.933 363.353 476.639C363.425 482.165 363.695 482.302 366.157 478.072C368.331 474.331 369.639 474.012 372.625 476.491C375.694 479.04 376.052 478.78 374.617 475.037C373.159 471.24 373.855 470.791 378.774 472.354C382.805 473.633 384.115 473.317 382.904 471.354C381.928 469.774 379.321 468.481 377.113 468.481C374.61 468.481 373.66 467.015 374.591 464.588C375.411 462.447 375.038 460.695 373.761 460.695C372.485 460.695 371.06 458.904 370.599 456.713C369.932 453.542 369.099 453.807 366.497 458.011ZM310.09 460.695C310.972 462.122 312.791 463.29 314.134 463.29C315.478 463.29 316.576 462.122 316.576 460.695C316.576 459.267 314.755 458.099 312.531 458.099C310.308 458.099 309.208 459.267 310.09 460.695ZM264.688 489.245C264.688 490.672 265.926 491.84 267.436 491.84C268.946 491.84 269.462 490.672 268.58 489.245C267.698 487.817 266.463 486.649 265.832 486.649C265.202 486.649 264.688 487.817 264.688 489.245ZM408.676 489.245C407.794 490.672 408.311 491.84 409.821 491.84C411.33 491.84 412.568 490.672 412.568 489.245C412.568 487.817 412.054 486.649 411.424 486.649C410.793 486.649 409.559 487.817 408.676 489.245ZM280.332 504.169C280.291 507.379 279.123 510.009 277.74 510.009C276.36 510.009 275.823 511.561 276.552 513.458C277.284 515.371 275.226 518.182 271.929 519.77L265.985 522.636L272.471 523.118C276.039 523.383 280.192 523.464 281.7 523.295C283.209 523.126 285.71 526.199 287.262 530.124L290.079 537.261L290.357 528.906C290.564 522.581 291.584 520.92 294.552 522.059C297.359 523.137 298.018 522.374 296.869 519.381C295.805 516.606 296.666 515.2 299.435 515.2C301.728 515.2 303.604 514.008 303.604 512.555C303.604 511.029 300.859 510.6 297.118 511.537C292.142 512.788 290.632 512.16 290.632 508.838C290.632 506.458 289.537 505.189 288.196 506.017C286.857 506.845 284.558 505.454 283.087 502.926C280.677 498.786 280.405 498.908 280.332 504.169ZM399.596 515.363C399.596 522.41 399.025 523.147 395.705 520.391C393.25 518.353 391.813 518.179 391.813 519.921C391.813 521.436 393.105 523.479 394.685 524.455C398.602 526.877 392.459 530.617 384.03 530.944L377.544 531.193L384.741 534.383C388.697 536.137 391.032 538.522 389.929 539.685C388.824 540.848 390.339 541.058 393.294 540.152C397.811 538.766 399.103 540.059 401.399 548.263L404.128 558.025L404.458 548.292C404.819 537.562 405.205 537.266 413.388 541.471C418.058 543.874 418.483 543.781 415.811 540.952C410.882 535.735 411.893 533.368 419.054 533.368C422.621 533.368 425.54 532.2 425.54 530.772C425.54 529.345 421.96 528.177 417.583 528.177C410.518 528.177 409.831 527.523 411.471 522.358C413.11 517.185 412.843 516.931 409.05 520.079C405.28 523.209 404.785 522.848 404.785 516.967C404.785 513.31 403.617 509.593 402.19 508.711C400.668 507.769 399.596 510.52 399.596 515.363ZM335.722 524.159C333.712 529.405 336.703 533.368 342.673 533.368C346.315 533.368 347.708 531.572 347.708 526.879C347.708 522.088 346.331 520.391 342.439 520.391C339.539 520.391 336.516 522.085 335.722 524.159ZM319.559 530.643C320.675 533.988 324.232 534.59 324.554 531.486C324.66 530.451 323.347 529.137 321.635 528.566C319.923 527.995 318.989 528.93 319.559 530.643ZM249.687 536.363C251.034 540.407 256.837 541.113 257.042 537.261C257.118 535.834 255.232 534.263 252.853 533.768C250.147 533.209 248.961 534.18 249.687 536.363ZM355.492 552.681C355.492 554.905 356.659 556.727 358.086 556.727C359.513 556.727 360.68 555.629 360.68 554.285C360.68 552.94 359.513 551.121 358.086 550.238C356.659 549.356 355.492 550.456 355.492 552.681ZM272.471 558.025C272.471 560.166 274.222 561.918 276.363 561.918C278.503 561.918 280.254 560.166 280.254 558.025C280.254 555.883 278.503 554.132 276.363 554.132C274.222 554.132 272.471 555.883 272.471 558.025ZM313.981 561.837C313.981 568.074 313.117 569.227 309.441 567.885C305.337 566.387 305.371 566.764 309.794 571.807C314.588 577.27 314.588 577.413 309.794 578.952C307.104 579.814 302.566 581.511 299.712 582.723C295.19 584.644 295.476 584.947 301.936 585.101C307.42 585.23 308.959 586.289 307.853 589.17C306.196 593.494 310.157 594.558 312.684 590.468C315.673 585.627 318.247 587.841 320.978 597.606L323.703 607.339L324.032 597.325C324.343 587.813 324.709 587.398 331.299 589.051C337.064 590.499 337.725 590.177 335.211 587.148C331.66 582.866 333.686 580.086 340.359 580.086C342.974 580.086 345.114 578.918 345.114 577.491C345.114 576.063 341.064 574.895 336.114 574.895C329.151 574.895 327.457 574.008 328.622 570.974C329.662 568.259 328.933 567.509 326.255 568.536C323.609 569.551 321.508 567.508 319.614 562.076C316.114 552.032 313.981 551.938 313.981 561.837ZM417.757 565.811C417.757 567.952 418.924 569.704 420.351 569.704C421.778 569.704 422.946 567.952 422.946 565.811C422.946 563.67 421.778 561.918 420.351 561.918C418.924 561.918 417.757 563.67 417.757 565.811ZM389.571 577.026C389.055 582.048 382.484 587.873 377.331 587.873C373.494 587.873 373.652 588.56 378.444 592.718C381.516 595.384 384.071 599.765 384.121 602.451C384.204 606.83 384.541 606.747 387.364 601.67C390.526 595.981 391.112 595.659 398.299 595.659C400.439 595.659 402.19 594.491 402.19 593.063C402.19 591.636 400.369 590.468 398.146 590.468C395.922 590.468 394.822 589.3 395.705 587.873C396.587 586.445 396.153 585.277 394.742 585.277C393.328 585.277 391.668 582.648 391.05 579.437C390.43 576.227 389.766 575.142 389.571 577.026ZM277.66 603.445C277.66 604.873 278.828 606.041 280.254 606.041C281.681 606.041 282.849 604.873 282.849 603.445C282.849 602.018 281.681 600.85 280.254 600.85C278.828 600.85 277.66 602.018 277.66 603.445ZM351.712 613.648C350.889 614.977 351.405 616.796 352.856 617.694C354.306 618.59 355.492 617.502 355.492 615.278C355.492 610.718 353.935 610.048 351.712 613.648ZM489.58 640.374C477.002 652.897 467.888 663.141 469.325 663.141C475.095 663.141 517.023 620.337 513.383 618.162C512.872 617.855 502.16 627.851 489.58 640.374ZM327.807 623.129C325.949 627.975 330.56 633.28 334.511 630.838C338.631 628.292 337.956 622.408 333.341 620.638C331.029 619.75 328.702 620.799 327.807 623.129ZM503.283 648.98C495.485 656.894 482.972 667.6 475.482 672.77C467.992 677.94 461.861 683.225 461.861 684.512C461.861 687.071 472.646 680.009 489.58 666.357C499.01 658.752 520.915 634.591 518.375 634.591C517.874 634.591 511.082 641.067 503.283 648.98ZM96.0532 644.789C96.0532 650.74 103.216 658.588 107.38 657.203C111.661 655.778 112.548 647.921 108.921 643.551C104.309 637.988 96.0532 638.783 96.0532 644.789ZM503.327 666.58C496.904 672.539 486.407 681.743 479.999 687.032C466.99 697.77 466.684 700.238 479.539 690.749C489.969 683.051 516.917 657.657 515.819 656.562C515.37 656.113 509.748 660.621 503.327 666.58ZM512.33 681.491C506.69 687.3 495.08 696.643 486.529 702.255C477.98 707.863 472.301 712.455 473.91 712.455C479.63 712.455 508.488 691.234 516.46 681.161C526.871 668.01 525.297 668.135 512.33 681.491ZM500.18 707.887C483.727 719.761 481.695 725.183 497.913 713.939C507.037 707.614 518.811 696.661 516.097 697.022C515.518 697.1 508.355 701.987 500.18 707.887ZM131.093 725.328C129.132 739.583 131.329 753.982 135.459 753.982C139.558 753.982 168.696 737.955 168.696 735.7C168.696 734.607 162.371 730.143 154.642 725.777C146.911 721.414 139.836 716.631 138.92 715.149C135.428 709.496 132.797 712.914 131.093 725.328ZM517.581 715.149C516.665 716.631 509.59 721.414 501.859 725.777C494.13 730.143 487.805 734.698 487.805 735.9C487.805 737.101 495.49 741.869 504.879 746.494C524.542 756.178 526.638 755.15 526.646 735.814C526.653 716.753 522.474 707.228 517.581 715.149ZM312.951 749.91C295.758 756.24 294.713 758.6 301.274 776.262C307.755 793.708 320.296 817.013 325.555 821.381C330.17 825.212 339.531 813.205 350.09 789.909C360.976 765.888 361.243 759.409 351.587 753.681C340.403 747.047 324.854 745.529 312.951 749.91Z" fill="#1F1F1F" stroke="#BE9A58" stroke-width="10" mask="url(#path-1-inside-1_178_5)"/>
</svg>
