<svg width="471" height="794" viewBox="0 0 471 794" fill="none" xmlns="http://www.w3.org/2000/svg">
<path fill-rule="evenodd" clip-rule="evenodd" d="M0.175 12.25C0.352 24.684 0.742 23.204 1.231 8.24805C1.379 3.70905 1.163 -0.00395232 0.75 -0.00195232C0.337 -0.000952317 0.079 5.51205 0.175 12.25ZM211.239 7.39305C212.196 19.309 218.405 27.253 228.916 30.009C238.684 32.57 245.719 30.959 252.83 24.535C257.237 20.553 259.438 15.209 260.365 6.23905L260.908 0.977048L235.827 1.11205L210.746 1.24705L211.239 7.39305ZM224.229 8.75005C224.447 9.16205 225.497 11.408 226.562 13.74C227.848 16.554 229.141 17.983 230.405 17.99C232.187 17.999 232.203 17.882 230.655 16.171C229.745 15.165 229 13.738 229 13C229 12.262 229.745 10.835 230.655 9.82905C232.234 8.08405 232.114 8.00005 228.072 8.00005C225.741 8.00005 224.011 8.33805 224.229 8.75005ZM233.238 8.75005C233.461 9.16205 234.467 11.412 235.473 13.75C237.668 18.847 238.612 19.08 239.532 14.75C239.912 12.962 240.917 10.713 241.766 9.75005C243.181 8.14605 243.127 8.00005 241.111 8.00005C239.902 8.00005 238.985 8.56305 239.075 9.25005C239.164 9.93805 239.184 11.314 239.118 12.309C238.943 14.995 237 13.282 237 10.441C237 8.63405 236.459 8.00005 234.917 8.00005C233.771 8.00005 233.015 8.33805 233.238 8.75005ZM244.493 12.997C244.498 16.838 244.858 17.995 246.049 17.997C247.232 17.999 247.501 17.17 247.188 14.486C246.963 12.554 247.333 10.304 248.011 9.48605C249.044 8.24205 248.857 8.00005 246.865 8.00005C244.675 8.00005 244.486 8.39905 244.493 12.997ZM227 10C227 10.55 227.45 11 228 11C228.55 11 229 10.55 229 10C229 9.45005 228.55 9.00005 228 9.00005C227.45 9.00005 227 9.45005 227 10ZM86.388 17.864C80.476 20.05 72.726 24.421 70.932 26.581C69.919 27.803 70.152 28.563 72.225 30.786C75.132 33.904 77.442 38.004 76.285 37.992C75.853 37.988 74.495 36.225 73.267 34.074C68.757 26.175 54.217 22.051 42.69 25.402C37.228 26.989 27.785 32.036 23.375 35.723C18.257 40.003 14.804 50.168 16.043 57.309C17.072 63.24 21.746 69.111 27.936 72.25C42.711 79.743 58.816 71.06 56.436 56.885C55.952 54.007 56.044 53.78 57.049 55.368C58.957 58.382 57.681 66.418 54.668 70.369C47.4 79.898 29.236 78.866 20.049 68.403C18.255 66.36 16.341 63.408 15.796 61.844C14.624 58.482 12.297 58.192 8.766 60.969C4.159 64.593 4.532 73.153 9.436 76.366C14.92 79.96 22.524 80.439 52.695 79.091C68.538 78.384 90.05 77.425 100.5 76.96C110.95 76.495 123.325 76.362 128 76.664C143.011 77.636 154.436 74.189 157.039 67.905C158.023 65.531 158.038 63.747 157.11 59.602C155.11 50.663 147.255 45.015 136.782 44.985C133.391 44.975 131.992 44.658 132.875 44.098C134.002 43.384 133.789 42.219 131.695 37.645C128.098 29.787 121.268 22.853 113.734 19.409C105.567 15.676 94.066 15.026 86.388 17.864ZM85.388 20.326C81.405 21.828 75.181 26.114 74.526 27.805C74.248 28.522 76.022 27.672 78.469 25.915C80.915 24.158 85.298 21.898 88.208 20.893C91.544 19.741 92.576 19.081 91 19.109C89.625 19.133 87.099 19.68 85.388 20.326ZM448.035 20.934C446.491 23.819 446.746 24.281 449.5 23.589C452.456 22.847 452.551 23.259 450.303 27.065C448.253 30.535 448.843 31.391 452.361 30.053C455.636 28.808 455.661 29.64 452.512 35.148C449.929 39.667 449.374 41.505 450.874 40.578C451.873 39.96 457 29.432 457 27.997C457 27.414 455.985 27.435 454.361 28.053C450.775 29.416 450.392 28.662 452.891 25.153C455.654 21.273 455.567 20.937 451.982 21.654C449.474 22.155 449.07 21.982 449.589 20.629C450.461 18.357 449.292 18.587 448.035 20.934ZM195.104 30.476C193.297 33.458 192.095 36.345 192.433 36.892C193.15 38.051 202 35.078 202 33.677C202 33.187 201.213 33.11 200.25 33.506C194.986 35.674 194.865 35.56 197.089 30.532C199.967 24.025 199.029 23.999 195.104 30.476ZM352.456 25.88C346.881 27.315 336.945 33.282 334.083 36.914C328.897 43.497 323 57.668 323 63.549C323 63.797 325.025 64 327.5 64C329.975 64 332 64.388 332 64.861C332 65.335 330.918 65.516 329.595 65.263C325.75 64.528 316.32 67.78 312.453 71.175C307.644 75.398 306 78.932 306 85.049C306 91.362 308.209 96.3 311.798 98.01C315.688 99.863 336.187 100.579 340.01 98.996C347.895 95.73 350.757 85.43 345.512 79.196C342.428 75.531 339.913 74.814 336.45 76.61C333.064 78.367 332.453 78.364 333.919 76.598C337.243 72.592 344.673 74.117 347.991 79.486C351.226 84.719 350.033 91.541 344.979 96.71L341.943 99.816L350.591 100.536C358.219 101.171 370.531 100.812 423.553 98.408C440.016 97.662 448.321 95.214 451.732 90.102C456.025 83.67 453.814 73.556 446.762 67.364C442.661 63.764 434.928 60.524 432.161 61.248C430.635 61.647 429.82 60.678 428.013 56.317C424.905 48.819 417.813 41.763 411.166 39.555C400.612 36.05 388.237 38.398 380.259 45.421C377.766 47.615 376.284 48.531 376.964 47.455C377.645 46.38 379.727 44.323 381.59 42.884L384.977 40.269L381.922 36.05C376.622 28.734 361.562 23.536 352.456 25.88ZM78.306 28.593L75.5 31.186L79.5 28.92C84.612 26.023 84.637 26 82.722 26C81.836 26 79.849 27.167 78.306 28.593ZM77.872 32.75C76.629 34.336 76.664 34.371 78.25 33.128C79.916 31.821 80.445 31 79.622 31C79.415 31 78.627 31.788 77.872 32.75ZM337.229 37.75C333.752 42.185 331.993 45.37 332.018 47.184C332.028 47.908 333.385 46.053 335.034 43.061C336.683 40.07 338.769 36.807 339.671 35.811C340.572 34.815 341.053 34 340.739 34C340.425 34 338.845 35.688 337.229 37.75ZM408 35C408 35.55 408.702 36 409.559 36C410.416 36 410.84 35.55 410.5 35C410.16 34.45 409.459 34 408.941 34C408.423 34 408 34.45 408 35ZM198.07 39.863C196.931 42.095 196.021 44.501 196.047 45.21C196.072 45.92 197.228 44.318 198.615 41.652C200.003 38.986 200.913 36.58 200.639 36.305C200.364 36.031 199.208 37.632 198.07 39.863ZM335.04 47.101C333.942 49.52 333.06 52.175 333.08 53C333.099 53.825 334.22 52.068 335.569 49.095C336.919 46.122 337.801 43.468 337.53 43.196C337.258 42.925 336.137 44.682 335.04 47.101ZM382.706 46.016C380.181 48.003 376 53.952 376 55.559C376 56.012 376.712 55.509 377.582 54.441C379.141 52.527 379.153 52.528 378.458 54.5C378.07 55.6 377.642 57.625 377.506 59C377.371 60.375 376.95 62.85 376.571 64.5C376.073 66.663 376.593 66.105 378.431 62.5C381.416 56.648 381.487 56.351 379.5 58C376.938 60.126 377.852 57.598 380.959 53.962C384.576 49.731 384.933 47.775 381.5 51C377.577 54.686 378.578 52.017 382.703 47.792C386.745 43.653 386.746 42.839 382.706 46.016ZM136 47.795C136 48.354 138.313 49.13 141.139 49.519C145.409 50.106 147.016 50.963 150.639 54.587C153.038 56.985 155 58.544 155 58.051C155 56.709 149.169 51.139 146.109 49.557C142.394 47.635 136 46.521 136 47.795ZM0.158 50C0.158 51.375 0.385 51.938 0.662 51.25C0.94 50.563 0.94 49.438 0.662 48.75C0.385 48.063 0.158 48.625 0.158 50ZM44.5 49.154C42.281 50.458 41.039 51.998 41.015 53.473C41.007 54.007 41.701 53.445 42.557 52.223C44.469 49.492 50.346 49.196 54.027 51.645L56.5 53.289L54.497 51.169C52.03 48.558 47.178 47.58 44.5 49.154ZM336.028 51.426C334.461 55.547 334.962 56.962 336.632 53.134C337.44 51.282 337.866 49.532 337.578 49.245C337.291 48.958 336.593 49.939 336.028 51.426ZM132.325 50.659C132.738 51.071 134.163 51.555 135.491 51.732C136.82 51.91 139.728 52.698 141.954 53.484C146.604 55.124 147.28 54.697 143.25 52.665C140.213 51.133 131.133 49.466 132.325 50.659ZM0.195 55.5C0.215 57.15 0.439 57.704 0.693 56.731C0.947 55.758 0.93 54.408 0.656 53.731C0.382 53.054 0.175 53.85 0.195 55.5ZM126.003 53.75C126.005 54.163 128.437 54.5 131.408 54.5C134.379 54.5 136.601 54.163 136.346 53.75C136.091 53.337 133.659 53 130.941 53C128.223 53 126.001 53.337 126.003 53.75ZM40 55.83C40 57.291 43.929 61.669 43.967 60.25C43.985 59.563 43.55 59 43 59C42.45 59 42 58.352 42 57.559C42 56.766 41.55 55.84 41 55.5C40.45 55.16 40 55.309 40 55.83ZM60.195 58.5C60.215 60.15 60.439 60.704 60.693 59.731C60.947 58.758 60.93 57.408 60.656 56.731C60.382 56.054 60.175 56.85 60.195 58.5ZM116.5 68C114.814 68.724 115.001 68.87 117.691 68.93C119.446 68.968 121.16 68.55 121.5 68C122.241 66.801 119.291 66.801 116.5 68ZM445.973 72.092C448.554 74.751 450.157 77.464 450.554 79.842C451.454 85.24 451.833 85.896 451.921 82.21C452.017 78.231 448.857 71.713 445.791 69.566C441.821 66.786 441.901 67.896 445.973 72.092ZM108 71.086C105.79 71.718 105.906 71.806 109 71.843C110.925 71.866 114.3 71.499 116.5 71.027L120.5 70.169L115.5 70.27C112.75 70.326 109.375 70.693 108 71.086ZM432.083 70.359C433.261 71.375 438.107 71.981 437.525 71.04C437.171 70.468 435.709 70 434.274 70C432.84 70 431.854 70.162 432.083 70.359ZM443.624 73.77C445.206 75.293 446.689 76.417 446.921 76.266C447.573 75.842 442.773 71 441.7 71C441.177 71 442.043 72.246 443.624 73.77ZM349 72.378C349 72.585 349.788 73.373 350.75 74.128C352.336 75.371 352.371 75.336 351.128 73.75C349.821 72.084 349 71.555 349 72.378ZM346.237 74.565C347.743 75.382 349.667 77.389 350.513 79.025C352.285 82.452 353.042 82.877 352.297 80.027C351.599 77.359 347.108 72.991 345.114 73.04C344.099 73.065 344.516 73.632 346.237 74.565ZM98.75 74.732C101.087 74.943 104.912 74.943 107.25 74.732C109.587 74.522 107.675 74.349 103 74.349C98.325 74.349 96.412 74.522 98.75 74.732ZM0.079 78.583C0.127 79.748 0.364 79.985 0.683 79.188C0.972 78.466 0.936 77.603 0.604 77.271C0.272 76.939 0.036 77.529 0.079 78.583ZM85.25 79.662C84.563 79.94 84 80.749 84 81.461C84 82.173 83.325 83.315 82.5 84C81.291 85.004 80.997 84.979 80.985 83.872C80.973 82.794 80.761 82.822 80 84C79.296 85.09 79.026 85.142 79.015 84.191C79.007 83.456 78.493 83.196 77.842 83.597C77.039 84.094 76.869 83.609 77.287 82.012C77.626 80.715 77.512 80.102 77.027 80.606C76.001 81.671 67 105.87 67 107.563C67 108.21 68.463 109.003 70.25 109.327C72.037 109.65 79.716 111.012 87.312 112.353C94.909 113.694 101.387 115.054 101.709 115.375C102.391 116.058 100.182 119.358 88.574 135C83.88 141.325 80.03 146.75 80.02 147.056C80.009 147.361 84.5 149.723 90 152.304C97.139 155.654 99.991 157.498 99.968 158.748C99.951 159.712 97.72 164.756 95.01 169.958C92.299 175.16 90.313 179.647 90.596 179.929C91.492 180.825 103.929 167.58 103.965 165.691C103.988 164.514 104.437 164.144 105.25 164.633C105.975 165.069 105.873 164.613 105.008 163.548C103.62 161.84 103.69 161.76 106.008 162.405C108.426 163.079 108.413 163.025 105.539 160.594C101.897 157.512 102.85 155.95 106.582 158.886C108.06 160.049 109.727 161 110.285 161C110.843 161 109.433 159.647 107.15 157.994C104.868 156.34 103 154.512 103 153.932C103 153.351 105.052 154.349 107.56 156.15C111.199 158.764 112.292 159.146 112.974 158.042C113.615 157.004 111.238 155.051 103.432 150.203L93.036 143.747L94.694 140.941C95.606 139.397 100.21 133.563 104.926 127.976C109.642 122.388 114.749 116.201 116.275 114.225L119.05 110.634L104.775 107.432C96.924 105.671 87.936 103.478 84.803 102.559C78.315 100.657 78.368 101.789 84.165 89.11C88.862 78.835 88.938 78.174 85.25 79.662ZM311.877 90.727C313.21 93.267 316.027 95.019 318.684 94.96C319.971 94.932 319.626 94.458 317.5 93.335C315.85 92.463 313.647 91.019 312.604 90.125C310.8 88.578 310.765 88.607 311.877 90.727ZM308 91.091C308 92.801 312.816 97.003 314.705 96.941C316.357 96.887 316.345 96.787 314.559 95.691C313.491 95.036 311.579 93.508 310.309 92.295C309.039 91.083 308 90.541 308 91.091ZM319 92C319.825 92.533 320.95 92.969 321.5 92.969C322.05 92.969 321.825 92.533 321 92C320.175 91.467 319.05 91.031 318.5 91.031C317.95 91.031 318.175 91.467 319 92ZM373.451 106.625C368.085 113.173 362 121.346 362 122.004C362 122.311 363.433 123.102 365.184 123.763C366.935 124.424 368.075 125.259 367.716 125.617C367.358 125.976 365.685 125.698 364 125C362.315 124.302 360.656 124.01 360.314 124.352C359.973 124.694 361.45 125.673 363.596 126.527C372.291 129.987 375 131.349 375 132.259C375 132.784 374.302 132.946 373.448 132.618C372.449 132.235 372.146 132.427 372.597 133.157C373.098 133.968 372.471 134.063 370.399 133.489C368.805 133.048 365.925 132.603 364 132.5C362.075 132.397 359.312 131.981 357.859 131.575C356.259 131.129 354.955 131.264 354.55 131.919C354.183 132.514 354.066 133 354.291 133C354.516 133 364.931 135.912 377.436 139.471C389.94 143.03 401.713 146.231 403.597 146.584C405.481 146.938 407.253 147.601 407.536 148.058C407.818 148.515 403.256 152.401 397.397 156.694C382.815 167.38 370.596 177.319 370.634 178.463C370.651 178.986 372.301 180.737 374.301 182.356C377.188 184.693 378.227 185.056 379.351 184.123C380.462 183.201 380.898 183.292 381.378 184.543C381.813 185.677 382.643 185.935 384.245 185.436L386.5 184.734L384.5 187.1C383.074 188.787 382.994 189.083 384.222 188.133C385.685 187.002 386.212 187.072 387.722 188.595C389.264 190.15 389.281 190.305 387.848 189.763C384.941 188.663 385.024 190.134 388.05 193.362C391.491 197.034 391.435 196.714 389.456 201.451C388.607 203.484 388.205 206.07 388.563 207.199C388.963 208.459 388.828 209.011 388.212 208.631C387.661 208.29 386.978 208.571 386.696 209.256C386.413 209.94 385.46 212.188 384.577 214.25C382.714 218.605 383.808 219.277 386.207 215.25C387.109 213.738 391.014 209.071 394.887 204.88L401.928 197.259L397.891 192.88C392.142 186.643 386 178.961 386 178.008C386 177.562 391.512 172.86 398.25 167.56C418.181 151.881 425.828 145.528 425.357 145.04C425.113 144.787 413.583 139.987 399.734 134.373C385.886 128.759 374.427 123.782 374.271 123.314C374.115 122.845 377.59 118.01 381.994 112.57C386.397 107.129 390 102.526 390 102.339C390 102.153 387.129 102 383.62 102C377.247 102 377.237 102.004 373.451 106.625ZM32.154 121.154C29.692 125.766 29.845 126.501 33.057 125.482C34.502 125.023 34.86 124.532 34.093 124.058C33.231 123.525 33.204 122.594 33.989 120.528C35.632 116.207 34.608 116.556 32.154 121.154ZM34.25 128.964C31.395 136.277 31.406 136.358 35 134.5C38.381 132.751 38.422 132.798 36.893 136.685C34.903 141.747 34.125 145 34.906 145C35.529 145 39 134.401 39 132.496C39 132.202 37.867 132.246 36.482 132.594C34.1 133.192 34.019 133.081 34.983 130.546C35.543 129.071 36.453 127.023 37.004 125.993C37.555 124.964 37.667 123.914 37.253 123.661C36.839 123.407 35.487 125.794 34.25 128.964ZM285.412 129.235C283.81 132.119 282.327 134.89 282.116 135.392C281.73 136.309 285.92 135.751 289.335 134.43C290.872 133.836 290.659 134.732 288.019 139.962C286.287 143.394 285.124 146.457 285.435 146.768C286.207 147.541 286.334 147.355 289.916 140.21C292.911 134.235 293.179 131.346 290.649 132.295C290.017 132.532 288.501 133.038 287.281 133.42L285.061 134.115L287.114 129.475C289.959 123.045 288.929 122.899 285.412 129.235ZM359.5 128C362.249 129.181 363.828 129.181 362 128C361.175 127.467 359.825 127.055 359 127.086C358.011 127.122 358.181 127.433 359.5 128ZM365 129.831C365.825 130.341 367.625 131.059 369 131.427C370.737 131.892 371.042 131.813 370 131.169C369.175 130.659 367.375 129.941 366 129.573C364.263 129.108 363.958 129.187 365 129.831ZM0.158 139C0.158 140.375 0.385 140.938 0.662 140.25C0.94 139.563 0.94 138.438 0.662 137.75C0.385 137.063 0.158 137.625 0.158 139ZM128.1 207.518C125.532 212.358 125.892 214.173 129.032 212.212C132.6 209.984 132.937 210.961 130.368 216.076C128.966 218.868 128.075 221.408 128.388 221.721C129.023 222.356 133.975 212.216 133.99 210.25C134.002 208.746 133.834 208.732 130.565 209.975C127.465 211.154 127.45 211.046 130.099 206.557C131.253 204.601 131.815 203 131.347 203C130.879 203 129.418 205.033 128.1 207.518ZM393.364 247.493C392.571 249.561 393.463 250.405 395.322 249.342C396.586 248.619 396.595 248.317 395.385 247.199C394.221 246.125 393.87 246.176 393.364 247.493ZM65.991 250.291C65.985 250.956 67.103 257.35 68.475 264.5C69.846 271.65 72.302 284.925 73.932 294C75.562 303.075 78.111 316.188 79.597 323.141C81.082 330.093 82.032 336.474 81.707 337.321C81.03 339.085 69.634 346.929 59.845 352.368C50.465 357.58 49.814 358.608 54.628 360.61C58.759 362.328 80.03 371.763 91.316 376.883C95.065 378.584 97.855 380.426 97.515 380.976C97.175 381.526 94.782 383.204 92.198 384.704C82.647 390.248 69.893 399.289 70.684 399.955C71.133 400.333 77.636 405.225 85.135 410.825C93.416 417.011 99.005 421.89 99.371 423.254C99.702 424.489 100.032 427.525 100.105 430C100.278 435.902 101.496 441.001 102.255 439C104.698 432.56 104.972 430.624 103.658 429.085C102.913 428.213 102.042 426.757 101.721 425.849C100.908 423.543 104.691 422.648 105.972 424.843C106.647 425.999 106.948 426.09 106.97 425.144C106.986 424.398 105.875 422.903 104.5 421.821C101.682 419.604 101.301 418.333 103.456 418.333C104.257 418.333 104.683 418.703 104.404 419.155C104.125 419.607 104.668 419.681 105.612 419.319C106.727 418.891 107.09 419.046 106.648 419.761C106.274 420.366 106.425 421.144 106.984 421.49C107.543 421.835 108 421.472 108 420.682C108 419.892 103.5 414.926 98 409.647C92.5 404.368 88.018 399.475 88.039 398.774C88.061 398.073 93.67 393.726 100.504 389.113L112.931 380.727L94.104 370.113C68.678 355.78 70.856 357.564 74.74 354.258C77.218 352.148 77.837 350.971 77.373 349.25C76.809 347.156 77.643 346.47 80.25 346.882C80.662 346.947 81 346.523 81 345.941C81 345.359 81.45 345.16 82 345.5C82.55 345.84 83 345.165 83 344C83 342.835 83.45 342.16 84 342.5C84.585 342.862 85.029 341.746 85.07 339.809C85.129 337.052 85.284 336.834 86 338.5C86.678 340.079 86.877 339.657 86.945 336.5C87.009 333.533 87.281 332.887 88 334C88.729 335.128 88.977 334.631 89 332C89.041 327.353 90.914 330.029 91.101 335C91.173 336.925 91.434 337.731 91.681 336.791C91.929 335.851 91.45 330.226 90.618 324.291C88.633 310.136 88.064 303.186 87.088 281.166C86.38 265.182 86.034 262.591 84.388 260.957C81.237 257.831 66.001 248.996 65.991 250.291ZM396.158 255.006C392.735 261.535 392.581 262 393.836 262C394.707 262 400.253 249.919 399.655 249.322C399.468 249.135 397.894 251.692 396.158 255.006ZM413.398 281.25C412.979 283.038 412.532 284.95 412.405 285.5C412.278 286.05 409.177 295.275 405.513 306C390.339 350.426 383.987 369.555 383.45 372.444L382.882 375.5L397.53 382.79C409.744 388.868 411.981 390.318 410.991 391.51C410.339 392.297 405.236 395.759 399.652 399.203C386.793 407.135 377.159 413.373 374.164 415.707L371.828 417.527L381.664 426.488C387.074 431.416 392.505 436.36 393.733 437.474C394.961 438.588 395.973 439.95 395.983 440.5C396.013 442.234 387.226 448.48 374.417 455.829C370.521 458.065 366.819 460.514 366.19 461.271C365.063 462.63 361.649 476.983 362.299 477.632C362.483 477.816 365.078 474.629 368.067 470.551C372.51 464.486 374.958 462.257 381.5 458.322C393.571 451.06 395.677 449.532 395.277 448.332C394.873 447.118 397.604 444 399.071 444C399.582 444 400 444.45 400 445C400 445.55 400.563 445.986 401.25 445.968C401.938 445.951 401.22 444.811 399.656 443.435C398.091 442.059 397.044 440.328 397.328 439.589C397.611 438.849 397.339 437.739 396.722 437.122C394.903 435.303 397.159 435.841 399.356 437.75C400.584 438.817 400.225 437.94 398.436 435.5C395.178 431.057 396.787 431.856 403.232 437.881C405.284 439.8 407.182 441.151 407.45 440.883C407.718 440.615 403.001 435.499 396.969 429.514C390.936 423.529 386 418.303 386 417.9C386 416.789 392.493 411.902 402.5 405.482C417.074 396.131 425.004 390.686 424.942 390.073C424.911 389.758 418.161 385.091 409.942 379.702C397.691 371.669 395 369.481 395 367.55C395 366.255 398.315 358.739 402.366 350.848C411.946 332.189 425.42 301.219 424.431 300.131C423.791 299.427 421.221 302.646 419.096 306.813C416.16 312.567 415.607 312.07 418.05 305.873C419.779 301.488 419.9 300.221 418.891 297.123C418.241 295.13 417.283 293.222 416.761 292.883C416.193 292.513 416.4 291.107 417.276 289.383C418.592 286.792 418.555 286.069 416.911 282.25C415.905 279.913 414.874 278 414.62 278C414.367 278 413.816 279.462 413.398 281.25ZM420.086 291.5C420.19 293.394 421.856 296.584 421.914 295C421.945 294.175 421.533 292.825 421 292C420.467 291.175 420.055 290.95 420.086 291.5ZM31 320C28.657 324.592 29.024 326.091 32.032 324.212C34.974 322.375 35.06 322.652 32.973 327.25C30.954 331.698 30.344 335.119 31.867 333.45C32.757 332.475 36 323.323 36 321.787C36 321.315 35.061 321.432 33.914 322.046C31.031 323.589 30.523 322.658 32.556 319.556C33.499 318.116 34.016 316.683 33.705 316.372C33.394 316.061 32.177 317.693 31 320ZM89 340.5C89 342.425 89.36 344 89.799 344C90.239 344 90.415 342.425 90.19 340.5C89.965 338.575 89.605 337 89.391 337C89.176 337 89 338.575 89 340.5ZM85.079 345.25C84.99 347.229 86.517 347.59 87.595 345.845C88.017 345.163 87.872 344.961 87.24 345.352C86.652 345.715 85.943 345.447 85.664 344.756C85.359 343.998 85.127 344.194 85.079 345.25ZM192.25 348.498C190.136 351.762 189.297 355 190.566 355C190.877 355 192.002 354.534 193.066 353.965C195.528 352.647 195.495 353.289 192.826 358.633C190.474 363.343 190.947 365.139 194.032 363.212C197.213 361.226 197.301 361.768 194.585 366.626C191.833 371.551 191.451 373 192.906 373C193.993 373 200.256 359.923 199.522 359.188C199.239 358.906 197.882 359.189 196.504 359.816C193.472 361.198 193.45 360.999 196.07 355.863C198.444 351.209 198.053 350.199 194.504 351.816C191.468 353.2 191.449 353.049 194.099 348.557C196.802 343.975 195.213 343.924 192.25 348.498ZM359.667 400.667C359.3 401.033 359 401.798 359 402.367C359 402.993 359.466 402.934 360.183 402.217C360.834 401.566 361.134 400.801 360.85 400.517C360.566 400.233 360.033 400.3 359.667 400.667ZM326.729 413.285C323.756 419.081 324.456 420.236 328.985 417.01C332.595 414.44 332.823 415.588 329.96 421.899C327.868 426.509 327.949 428.833 330.063 424.882C331.815 421.608 333.966 413 333.032 413C332.599 413 331.685 413.675 331 414.5C329.81 415.934 327 416.602 327 415.45C327 415.148 327.708 413.531 328.574 411.857C329.439 410.184 329.98 408.647 329.775 408.442C329.571 408.237 328.2 410.417 326.729 413.285ZM401 429C401 429.55 401.45 430 402 430C402.55 430 403 429.55 403 429C403 428.45 402.55 428 402 428C401.45 428 401 428.45 401 429ZM120.459 472.067C120.096 472.653 120.014 473.348 120.276 473.61C120.538 473.872 121.019 473.392 121.345 472.543C122.021 470.781 121.445 470.471 120.459 472.067ZM123.75 479.344C122.787 482.275 122.044 485.534 122.099 486.587C122.187 488.287 123.254 485.599 126.005 476.75C126.476 475.238 126.554 474.003 126.18 474.007C125.806 474.011 124.713 476.413 123.75 479.344ZM118.715 476.301C117.841 478.577 120.331 478.54 122.128 476.25C123.354 474.686 123.324 474.638 121.847 475.792C120.546 476.809 120.107 476.82 119.781 475.842C119.507 475.021 119.146 475.176 118.715 476.301ZM425.726 515.325C423.135 520.273 422.357 523 423.535 523C423.83 523 425.218 522.248 426.621 521.329C428.606 520.028 429.342 519.936 429.946 520.913C430.525 521.85 430.89 521.73 431.384 520.441C432.298 518.059 431.726 517.773 428.5 519C426.972 519.581 425.529 519.862 425.292 519.625C425.054 519.388 425.823 517.307 427 515C428.177 512.693 428.985 510.651 428.796 510.462C428.607 510.273 427.225 512.462 425.726 515.325ZM427.679 526.546C426.756 528.483 426 530.503 426 531.034C426 532.729 428.475 532.071 429.745 530.037C430.77 528.395 430.728 528.167 429.485 528.644C427.722 529.321 427.615 528.587 429.081 525.849C429.676 524.738 429.981 523.648 429.76 523.427C429.539 523.206 428.603 524.61 427.679 526.546ZM422.5 531C422.84 531.55 423.316 532 423.559 532C423.802 532 424 531.55 424 531C424 530.45 423.523 530 422.941 530C422.359 530 422.16 530.45 422.5 531ZM428.564 541.707C428.022 543.132 428.136 543.247 429.124 542.267C429.808 541.588 430.115 540.781 429.807 540.474C429.499 540.166 428.94 540.721 428.564 541.707ZM42.147 580.111C41.647 581.425 40.509 584.242 39.619 586.372C38.728 588.502 38 590.639 38 591.122C38 592.591 41.229 592.103 43.177 590.339C46.153 587.647 46.273 589.369 43.573 596.013C41.224 601.793 40.983 604.747 42.959 603.525C43.691 603.073 49 588.234 49 586.64C49 585.571 46.655 585.931 43.75 587.447C40.439 589.174 40.196 588.168 42.559 582.514C43.416 580.462 43.878 578.545 43.587 578.253C43.295 577.961 42.647 578.798 42.147 580.111ZM273.55 604.901C271.196 609.547 271.128 610 272.783 610C273.782 610 275.132 609.467 275.783 608.817C277.788 606.812 278.104 608.507 276.459 612.445C274.364 617.458 275.117 620.807 277.258 616C278.115 614.075 279.141 610.771 279.537 608.658L280.257 604.816L277.129 606.434C273.55 608.284 273.407 608.048 275.574 603.857C276.439 602.184 276.92 600.586 276.641 600.308C276.362 600.029 274.972 602.096 273.55 604.901ZM196.079 634.583C196.127 635.748 196.364 635.985 196.683 635.188C196.972 634.466 196.936 633.603 196.604 633.271C196.272 632.939 196.036 633.529 196.079 634.583ZM172.079 647.583C172.127 648.748 172.364 648.985 172.683 648.188C172.972 647.466 172.936 646.603 172.604 646.271C172.272 645.939 172.036 646.529 172.079 647.583ZM138.75 665.259C136.568 668.589 135.476 673 136.833 673C137.41 673 138.16 672.55 138.5 672C138.84 671.45 139.572 671 140.126 671C141.575 671 140.138 675.097 137.789 677.667C135.843 679.795 136.286 682.933 138.59 683.34C139.09 683.428 139.38 684.175 139.233 685C139.086 685.825 138.68 688.023 138.33 689.884C137.227 695.757 139.869 693.065 143.577 684.538C147.135 676.355 146.999 673.86 143.107 675.943C141.407 676.853 141 676.786 141 675.594C141 674.782 141.398 673.872 141.885 673.571C143.014 672.873 143.909 667 142.886 667C142.464 667 141.84 667.45 141.5 668C140.274 669.984 138.922 669.014 140.03 666.945C141.711 663.803 140.634 662.384 138.75 665.259ZM375.184 676.562C369.612 685.302 369.749 686.182 376.262 683.502C377.885 682.834 377.865 683.15 376.012 687.471C373.837 692.547 373.317 696.083 374.993 694.407C376.02 693.38 381 681.262 381 679.791C381 679.335 379.819 679.258 378.376 679.62L375.752 680.279L378.376 675.802C381.165 671.042 381.49 670 380.184 670C379.735 670 377.485 672.953 375.184 676.562ZM310.813 677.683C311.534 677.972 312.397 677.936 312.729 677.604C313.061 677.272 312.471 677.036 311.417 677.079C310.252 677.127 310.015 677.364 310.813 677.683ZM315.195 684.5C315.215 686.15 315.439 686.704 315.693 685.731C315.947 684.758 315.93 683.408 315.656 682.731C315.382 682.054 315.175 682.85 315.195 684.5ZM365.269 682.693C366.242 682.947 367.592 682.93 368.269 682.656C368.946 682.382 368.15 682.175 366.5 682.195C364.85 682.215 364.296 682.439 365.269 682.693ZM227.195 685.5C227.215 687.15 227.439 687.704 227.693 686.731C227.947 685.758 227.93 684.408 227.656 683.731C227.382 683.054 227.175 683.85 227.195 685.5ZM154.079 686.583C154.127 687.748 154.364 687.985 154.683 687.188C154.972 686.466 154.936 685.603 154.604 685.271C154.272 684.939 154.036 685.529 154.079 686.583ZM205.881 696.781C205.552 698.769 205.698 699.702 206.253 699.147C206.757 698.643 207.002 697.166 206.797 695.865C206.482 693.864 206.342 694.004 205.881 696.781ZM133.813 701.683C134.534 701.972 135.397 701.936 135.729 701.604C136.061 701.272 135.471 701.036 134.417 701.079C133.252 701.127 133.015 701.364 133.813 701.683ZM250.079 711.583C250.127 712.748 250.364 712.985 250.683 712.188C250.972 711.466 250.936 710.603 250.604 710.271C250.272 709.939 250.036 710.529 250.079 711.583ZM328.158 715C328.158 716.375 328.385 716.938 328.662 716.25C328.94 715.563 328.94 714.438 328.662 713.75C328.385 713.063 328.158 713.625 328.158 715ZM407.61 717.5C408.433 721.177 409.005 721.975 408.985 719.417C408.976 718.362 408.513 716.825 407.954 716C407.213 714.905 407.12 715.309 407.61 717.5ZM138.3 722C138.3 725.025 138.487 726.263 138.716 724.75C138.945 723.237 138.945 720.763 138.716 719.25C138.487 717.737 138.3 718.975 138.3 722ZM334.195 730.5C334.215 732.15 334.439 732.704 334.693 731.731C334.947 730.758 334.93 729.408 334.656 728.731C334.382 728.054 334.175 728.85 334.195 730.5ZM241.252 739.5C241.263 741.7 241.468 742.482 241.707 741.238C241.946 739.994 241.937 738.194 241.687 737.238C241.437 736.282 241.241 737.3 241.252 739.5ZM335.079 739.583C335.127 740.748 335.364 740.985 335.683 740.188C335.972 739.466 335.936 738.603 335.604 738.271C335.272 737.939 335.036 738.529 335.079 739.583ZM247.195 741.5C247.215 743.15 247.439 743.704 247.693 742.731C247.947 741.758 247.93 740.408 247.656 739.731C247.382 739.054 247.175 739.85 247.195 741.5ZM285.079 740.583C285.127 741.748 285.364 741.985 285.683 741.188C285.972 740.466 285.936 739.603 285.604 739.271C285.272 738.939 285.036 739.529 285.079 740.583ZM281 742.964C281 744.759 280.162 744.956 271.25 745.254L261.5 745.581L271.75 745.791L282 746V743.5C282 742.125 281.775 741 281.5 741C281.225 741 281 741.884 281 742.964ZM111.25 744.689C112.213 744.941 113.787 744.941 114.75 744.689C115.713 744.438 114.925 744.232 113 744.232C111.075 744.232 110.287 744.438 111.25 744.689ZM120.776 744.733C123.128 744.945 126.728 744.942 128.776 744.727C130.824 744.512 128.9 744.339 124.5 744.343C120.1 744.346 118.424 744.522 120.776 744.733ZM137.728 744.722C139.503 744.943 142.653 744.946 144.728 744.73C146.802 744.513 145.35 744.333 141.5 744.328C137.65 744.324 135.952 744.501 137.728 744.722ZM150.813 744.683C151.534 744.972 152.397 744.936 152.729 744.604C153.061 744.272 152.471 744.036 151.417 744.079C150.252 744.127 150.015 744.364 150.813 744.683ZM155.813 744.683C156.534 744.972 157.397 744.936 157.729 744.604C158.061 744.272 157.471 744.036 156.417 744.079C155.252 744.127 155.015 744.364 155.813 744.683ZM198.813 745.683C199.534 745.972 200.397 745.936 200.729 745.604C201.061 745.272 200.471 745.036 199.417 745.079C198.252 745.127 198.015 745.364 198.813 745.683ZM214.797 745.745C219.361 745.93 226.561 745.929 230.797 745.742C235.034 745.555 231.3 745.404 222.5 745.405C213.7 745.406 210.234 745.559 214.797 745.745ZM257.813 745.683C258.534 745.972 259.397 745.936 259.729 745.604C260.061 745.272 259.471 745.036 258.417 745.079C257.252 745.127 257.015 745.364 257.813 745.683ZM390.813 746.683C391.534 746.972 392.397 746.936 392.729 746.604C393.061 746.272 392.471 746.036 391.417 746.079C390.252 746.127 390.015 746.364 390.813 746.683ZM397.25 746.716C398.762 746.945 401.238 746.945 402.75 746.716C404.262 746.487 403.025 746.3 400 746.3C396.975 746.3 395.738 746.487 397.25 746.716ZM2.639 748.499C2.355 749.24 2.106 759.106 2.087 770.423L2.051 791L202.776 790.973C313.174 790.958 418.125 791.07 436 791.223L468.5 791.5L468.771 771.227C468.981 755.516 468.756 750.864 467.771 750.558C466.493 750.161 354.672 749.467 130.5 748.463C63.95 748.166 8.073 747.748 6.328 747.536C4.297 747.29 2.97 747.636 2.639 748.499ZM169.976 761.015C169.462 761.332 169.933 762.354 171.021 763.286C172.592 764.631 173 766.24 173 771.084C173 776.387 172.732 777.257 170.959 777.721C169.837 778.014 169.084 778.76 169.287 779.377C169.766 780.834 179 781.478 179 780.055C179 779.475 178.599 779 178.108 779C176.884 779 175.861 774.526 176.629 772.526C177.063 771.393 178.213 770.986 180.378 771.196C183.256 771.476 183.487 771.772 183.328 774.974C183.234 776.885 182.671 778.61 182.078 778.807C179.531 779.656 181.321 781 185 781C187.889 781 189 780.583 189 779.5C189 778.675 188.55 778 188 778C186.674 778 186.703 765.424 188.035 762.934C188.978 761.173 188.716 761 185.112 761H181.153L182.591 763.881C183.381 765.466 183.762 767.457 183.436 768.305C182.841 769.858 179.479 770.032 177.208 768.628C175.508 767.578 175.703 764.051 177.5 763.362C178.325 763.045 179 762.431 179 761.998C179 761.043 171.289 760.203 169.976 761.015ZM244.723 761.637C241.508 763.322 239 767.782 239 771.815C239 778.38 247.146 783.1 252.463 779.616C255.873 777.382 257.681 771.058 256.042 767.101C253.94 762.027 248.755 759.524 244.723 761.637ZM151.022 764.75L151.044 768.5L152.885 766.106C155.646 762.515 157 764.287 157 771.492C157 777.002 156.727 777.952 154.985 778.505C151.607 779.577 153.713 780.806 159 780.847C162.707 780.875 164 780.513 164 779.443C164 778.649 163.325 778 162.5 778C161.31 778 161 776.556 161 771C161 763.951 162.011 762.283 164.015 766.028C165.448 768.706 167 767.62 167 763.941V761H159H151L151.022 764.75ZM192 761.531C192 761.868 192.675 762.818 193.5 763.643C195.773 765.916 195.582 777.561 193.25 778.92C191.179 780.126 190.941 780.087 200.691 780.15C207.81 780.196 208.445 780.03 209.227 777.915C210.851 773.525 209.227 772.545 206.019 775.979C202.092 780.184 199.601 779.707 199.185 774.672C198.894 771.135 199.015 770.937 200.87 771.93C203.818 773.508 204.003 773.348 203.968 769.25C203.94 765.918 203.788 765.695 202.608 767.25C201.877 768.212 200.767 769 200.14 769C198.704 769 198.634 764.344 200.057 763.465C201.868 762.346 205.836 763.908 206.501 766.002C207.515 769.197 209.156 768.308 208.813 764.75L208.5 761.5L200.25 761.21C195.713 761.05 192 761.194 192 761.531ZM221.667 761.667C220.649 762.684 220.873 768 221.933 768C222.446 768 223.151 767.1 223.5 766C223.849 764.9 224.727 764 225.451 764C227.061 764 227.968 767.12 227.986 772.715C227.997 775.934 227.521 777.186 225.972 778.015C224.857 778.612 224.178 779.479 224.464 779.942C225.285 781.27 234.28 780.666 234.751 779.25C234.98 778.563 234.507 778 233.7 778C231.951 778 231.032 775.029 231.014 769.309C230.997 764.257 232.648 762.882 234.995 765.993L236.715 768.273L237.265 765.392C237.568 763.808 237.606 762.171 237.349 761.756C236.773 760.824 222.59 760.744 221.667 761.667ZM256.519 761.969C256.26 762.389 256.915 763.518 257.976 764.478C259.037 765.438 260.888 769.537 262.09 773.586C263.292 777.635 264.608 780.742 265.015 780.491C265.421 780.24 266.271 777.982 266.902 775.474C268.198 770.328 269.462 770.321 270.425 775.454C271.14 779.261 272.799 780.943 273.971 779.047C274.382 778.382 275.249 775.466 275.898 772.566C276.547 769.666 277.96 766.346 279.039 765.189C280.117 764.031 281 762.693 281 762.215C281 761.145 257.176 760.906 256.519 761.969ZM283.682 761.651C283.324 762.009 283.758 762.834 284.646 763.483C287.051 765.242 287.687 774.303 285.626 777.449C284.732 778.813 284 780.058 283.999 780.215C283.997 781.036 299.611 780.348 300.235 779.5C301.034 778.412 301.283 774 300.545 774C300.295 774 298.966 775.125 297.591 776.5C294.322 779.769 291.231 779.77 290.411 776.502C289.45 772.672 290.546 770.686 292.919 771.957C295.614 773.399 295.592 773.419 295.703 769.5C295.814 765.577 295.316 765.194 293.428 767.75C291.617 770.201 288.989 767.831 290.625 765.222C292.37 762.438 295.536 762.595 297.885 765.58L300 768.27V764.635V761H292.167C287.858 761 284.04 761.293 283.682 761.651ZM303 761.64C303 761.992 303.698 762.79 304.551 763.414C306.395 764.762 306.815 776.585 305.081 778.319C303.289 780.111 303.814 780.529 308 780.639C311.83 780.739 313.127 779.815 311 778.5C310.45 778.16 310 776.559 310 774.941C310 772.471 310.4 772 312.5 772C314.598 772 315 772.471 315 774.929C315 777.636 317.15 781 318.88 781C319.286 781 320.491 780.339 321.559 779.532C323.209 778.284 323.253 778.059 321.855 778.032C320.949 778.014 319.346 776.256 318.291 774.124C316.445 770.392 316.441 770.206 318.187 769.115C320.967 767.379 320.521 763.149 317.435 761.975C314.597 760.896 303 760.627 303 761.64ZM246 764C243.526 766.474 243.155 776.012 245.444 778.301C247.777 780.634 251.966 779.285 252.175 776.133C252.674 768.632 251.167 762 248.965 762C248.434 762 247.1 762.9 246 764ZM264.015 766.25C264.024 768.038 264.474 770.175 265.015 771C265.891 772.333 266.109 772.333 266.985 771C268.336 768.942 268.246 765.646 266.8 764.2C264.818 762.218 263.999 762.821 264.015 766.25ZM272.433 764.109C272.086 764.67 272.103 766.734 272.471 768.695C273.226 772.723 274.625 772.123 275.577 767.363C276.031 765.093 275.783 764.131 274.628 763.688C273.768 763.357 272.78 763.547 272.433 764.109ZM310.709 763.624C309.659 764.674 309.849 768.789 310.979 769.487C312.8 770.612 316.138 767.983 315.811 765.682C315.503 763.524 312.158 762.175 310.709 763.624ZM0.116 791.25L0 794L184.75 793.759L369.5 793.518L185.5 792.995C84.3 792.707 1.42 792.365 1.323 792.235C1.226 792.106 0.941 791.212 0.689 790.25C0.408 789.173 0.187 789.558 0.116 791.25ZM470 791.975C470 792.553 463.603 793.072 454.25 793.252L438.5 793.555L454.75 793.777C468.627 793.967 471 793.781 471 792.5C471 791.675 470.775 791 470.5 791C470.225 791 470 791.439 470 791.975ZM372.264 793.718C373.784 793.947 376.034 793.941 377.264 793.704C378.494 793.467 377.25 793.279 374.5 793.286C371.75 793.294 370.744 793.488 372.264 793.718ZM387.75 793.744C392.288 793.929 399.712 793.929 404.25 793.744C408.788 793.559 405.075 793.407 396 793.407C386.925 793.407 383.212 793.559 387.75 793.744ZM421.75 793.662C422.438 793.94 423.563 793.94 424.25 793.662C424.938 793.385 424.375 793.158 423 793.158C421.625 793.158 421.063 793.385 421.75 793.662ZM427.75 793.662C428.438 793.94 429.563 793.94 430.25 793.662C430.938 793.385 430.375 793.158 429 793.158C427.625 793.158 427.063 793.385 427.75 793.662ZM433.75 793.662C434.438 793.94 435.563 793.94 436.25 793.662C436.938 793.385 436.375 793.158 435 793.158C433.625 793.158 433.063 793.385 433.75 793.662Z" fill="black"/>
</svg>
