<svg width="471" height="793" viewBox="0 0 471 793" fill="none" xmlns="http://www.w3.org/2000/svg">
<path fill-rule="evenodd" clip-rule="evenodd" d="M344.872 0.425876C344.667 0.611876 267.999 1.07088 174.499 1.44488C80.9987 1.81988 3.73674 2.34488 2.80474 2.61288C1.34974 3.03088 1.06874 4.88488 0.80474 15.7989C0.00374019 49.0229 0.0737402 790.648 0.87874 791.882C2.45974 794.307 2.85874 790.405 2.91274 772C2.94074 762.375 2.97174 753.416 2.98174 752.092L2.99874 749.684L104.249 750.346C159.937 750.71 234.749 751.245 270.499 751.536C306.249 751.827 364.299 752.255 399.499 752.489C434.699 752.722 464.737 752.933 466.249 752.957L468.999 753L469.069 773.25C469.111 785.399 469.481 792.7 469.993 791.5C470.463 790.4 470.835 716.6 470.82 627.5C470.805 538.4 470.463 466.88 470.06 468.566C469.657 470.253 469.413 474.19 469.519 477.316C469.625 480.442 469.527 483 469.301 483C469.075 483 463.305 481.665 456.478 480.034C445.621 477.439 436.219 473.85 432.617 470.925C431.609 470.106 426.862 466.487 415.644 457.986C408.786 452.789 396.211 449.229 394.499 452C394.13 452.596 395.343 453 397.505 453C403.291 453 410.667 456.786 422.999 466.086C437.386 476.935 441.915 479.19 454.839 481.935C460.526 483.143 466.143 484.488 467.322 484.924L469.465 485.717L469.136 544.608C468.954 576.999 468.711 603.601 468.596 603.724C468.48 603.846 466.688 602.794 464.614 601.385C459.127 597.656 459.039 599.186 464.515 603.119C467.065 604.95 468.689 606.603 468.124 606.792C467.558 606.98 464.711 605.387 461.797 603.252C454.642 598.009 453.084 597.184 455.467 599.898C456.55 601.131 459.625 603.559 462.3 605.292C464.976 607.026 466.702 608.599 466.136 608.788C465.57 608.976 462.57 607.507 459.468 605.523C453.153 601.483 453.002 602.541 459.249 607.066C464.555 610.91 463.351 610.814 456.964 606.883C451.001 603.214 449.112 603.646 454.653 607.411C456.749 608.835 457.796 609.99 456.981 609.978C456.166 609.966 454.374 609.076 452.999 608C449.631 605.365 447.842 605.514 450.999 608.166C453.408 610.19 453.417 610.241 451.249 609.566C449.883 609.141 448.999 609.285 448.999 609.933C448.999 610.52 447.46 611 445.58 611H442.16L443.191 607.266C444.539 602.386 443.63 595.156 441.027 590.055C438.724 585.54 432.47 580.482 427.969 579.493C424.887 578.817 418.931 572.021 410.13 559.139C400.192 544.594 389.585 529.89 379.036 516.038C372.502 507.457 368.39 501.209 368.924 500.675C369.42 500.179 371.808 499.55 374.231 499.277C378.274 498.822 378.87 499.057 381.476 502.14C383.038 503.988 385.207 507.525 386.298 510C387.388 512.475 389.962 516.525 392.017 519C394.073 521.475 398.304 527.752 401.42 532.95C408.445 544.667 412.911 550.175 418.73 554.299C421.215 556.06 426.997 561.212 431.58 565.75C436.163 570.287 440.483 574 441.179 574C441.875 574 440.398 572.087 437.898 569.75C435.397 567.413 432.26 564.205 430.925 562.623L428.499 559.746L431.842 561.447C433.681 562.382 435.404 562.928 435.672 562.66C435.94 562.393 432.292 560.284 427.565 557.975C417.367 552.993 409.54 545.156 403.999 534.38C402.074 530.637 398.12 524.244 395.212 520.174C392.304 516.105 388.989 510.913 387.846 508.638C386.702 506.362 385.1 503.741 384.285 502.814C382.914 501.252 383.061 501.206 386.287 502.196C390.023 503.343 396.518 502.587 397.571 500.884C398 500.189 396.726 500.068 393.714 500.52C390.347 501.025 387.577 500.641 382.695 498.992C376.274 496.823 376.069 496.816 369.336 498.531C365.576 499.489 358.783 500.324 354.242 500.386C347.437 500.48 346.28 500.717 347.661 501.734C349.218 502.88 349.201 503.121 347.418 505.109C344.591 508.263 331.853 516.665 323.153 521.114C317.426 524.043 314.365 525 310.727 525C305.244 525 300.59 522.973 298.924 519.86C297.824 517.804 297.86 517.789 300.117 519.37C304.249 522.264 308.63 521.439 315.622 516.449C319.129 513.947 321.999 511.472 321.999 510.949C321.999 509.413 321.336 509.761 314.841 514.7C307.3 520.435 303.554 520.864 299.012 516.513C297.355 514.925 295.999 513.017 295.999 512.273C295.999 509.364 300.159 503.003 304.257 499.645C310.34 494.66 313.656 493.545 316.62 495.487C320.065 497.744 322.182 501.47 322.295 505.474C322.393 508.933 323.284 509.966 324.488 508.017C326.876 504.153 319.659 493 314.771 493C312.55 493 313.081 492.185 319.659 485.5C323.718 481.375 327.381 478 327.799 478C328.218 478 329.167 479.462 329.907 481.25C330.986 483.853 331.347 484.13 331.72 482.644C331.977 481.623 331.694 480.295 331.093 479.694C328.043 476.644 330.228 475.172 342.469 472.031C348.891 470.383 349.632 470.369 351.884 471.844C354.288 473.419 354.317 473.403 353.67 470.827C353.188 468.906 353.449 468.041 354.649 467.581C356.576 466.841 356.419 466.699 357.871 470.5L359.017 473.5L358.584 469.828C358.281 467.264 358.58 465.991 359.575 465.609C360.564 465.23 360.999 465.798 360.999 467.472C360.999 468.798 361.418 470.141 361.93 470.457C363.326 471.32 364.451 468.887 364.222 465.501C364.036 462.746 364.097 462.684 364.977 464.75C366.264 467.774 367.191 467.612 366.41 464.5C366.023 462.96 366.208 462 366.891 462C367.5 462 367.999 462.648 367.999 463.441C367.999 464.234 368.467 465.171 369.039 465.525C369.714 465.942 369.851 465.259 369.431 463.584C369.025 461.969 369.198 461 369.891 461C370.5 461 370.999 461.9 370.999 463C370.999 464.1 371.479 465 372.066 465C372.7 465 372.859 464.136 372.459 462.875C372.036 461.542 372.291 460.43 373.142 459.89C375.153 458.616 375.999 458.814 375.999 460.559C375.999 461.416 376.429 461.852 376.955 461.527C377.481 461.202 377.686 460.347 377.41 459.627C377.061 458.72 379.371 457.581 384.948 455.909C389.371 454.584 392.991 453.163 392.994 452.75C392.997 452.337 392.543 452 391.986 452C390.173 452 377.628 455.73 372.331 457.844C369.488 458.978 365.12 460.152 362.623 460.451C360.125 460.751 355.026 461.438 351.291 461.978C342.329 463.274 341.964 463.254 342.637 461.5C342.954 460.675 343.659 460 344.204 460C344.749 460 349.989 456.889 355.847 453.087C367.009 445.844 388.367 433.653 391.808 432.56C396.978 430.92 396.623 429.635 387.33 416.366C382.447 409.393 377.705 403.217 376.794 402.642C375.424 401.778 373.67 403.151 366.702 410.548C357.85 419.944 336.937 438.267 334.426 438.827C333.619 439.007 330.156 437.389 326.729 435.232C323.303 433.075 318.924 430.563 316.999 429.65C314.588 428.507 311.788 425.448 307.999 419.818C304.974 415.322 299.799 407.926 296.499 403.382C293.199 398.838 288.699 392.523 286.499 389.349C284.299 386.175 279.901 379.848 276.727 375.289C273.552 370.73 271.302 367.005 271.727 367.01C272.151 367.016 276.762 367.881 281.972 368.932C287.182 369.983 291.794 370.627 292.222 370.362C294.265 369.1 292.338 368.245 284.876 367.103C280.409 366.419 273.854 364.964 270.31 363.869C263.302 361.704 258.035 361.783 263.774 363.967C265.758 364.722 268.292 367.045 270.2 369.857C271.933 372.41 279.395 382.992 286.783 393.371C294.17 403.75 302.847 416.075 306.065 420.76L311.915 429.278L307.866 432.211C305.639 433.824 303.263 434.932 302.586 434.672C301.908 434.412 298.483 429.992 294.974 424.849C291.466 419.707 285.626 411.45 281.996 406.5C278.367 401.55 272.079 392.55 268.023 386.5C259.467 373.738 259.23 373.436 258.423 374.243C257.887 374.778 275.113 400.974 281.773 409.752C283.919 412.581 284.062 413.232 282.869 414.752C281.644 416.315 281.674 416.363 283.16 415.201C284.163 414.418 285.056 414.284 285.415 414.864C285.742 415.393 284.769 416.787 283.254 417.961L280.499 420.097L283.699 418.548C288.139 416.4 288.717 416.607 286.09 419.403C284.684 420.9 284.335 421.783 285.166 421.745C288.649 421.588 290.075 422.068 289.394 423.17C288.899 423.971 289.23 424.125 290.446 423.659C291.766 423.152 292.073 423.365 291.642 424.489C291.287 425.414 291.631 426 292.53 426C293.338 426 293.999 426.45 293.999 427C293.999 427.55 293.549 428 292.999 428C292.449 428 291.999 428.408 291.999 428.906C291.999 429.405 292.818 429.598 293.82 429.337C295.115 428.998 296.415 430.03 298.32 432.909C299.793 435.135 300.999 437.154 300.999 437.395C300.999 437.635 299.148 439.298 296.885 441.09L292.771 444.349L290.837 441.924C289.774 440.591 286.792 436.35 284.211 432.5C281.63 428.65 276.916 421.9 273.737 417.5C270.557 413.1 263.858 403.762 258.85 396.75C250.604 385.204 247.999 382.351 247.999 384.865C247.999 385.341 248.838 386.803 249.864 388.115C254.005 393.411 276.716 424.991 281.442 432.027C284.224 436.167 287.685 441.117 289.134 443.027C291.298 445.88 291.992 448.369 293.022 456.961C294.17 466.537 294.132 467.511 292.579 468.461C291.646 469.033 286.522 472.37 281.191 475.877C272.254 481.757 255.755 490.602 246.749 494.341C244.687 495.197 242.999 496.196 242.999 496.561C242.999 497.456 258.645 518.799 261.826 522.242L264.359 524.985L271.262 517.492C275.059 513.372 278.466 509.999 278.832 509.998C279.199 509.997 279.348 512.661 279.164 515.918C278.743 523.366 280.899 528.243 286.146 531.716C289.39 533.863 291.021 534.229 296.74 534.097C306.66 533.866 311.079 532.575 314.32 528.958C319.163 523.553 318.149 526.268 313.126 532.154C307.398 538.867 303.829 546.714 303.676 552.931C303.463 561.584 312.559 572 320.327 572C322.378 572 322.815 572.59 323.268 575.972C324.538 585.436 333.012 592.467 343.15 592.467C346.273 592.467 348.615 592.812 348.355 593.233C348.094 593.655 348.309 594 348.833 594C349.357 594 350.037 593.343 350.345 592.541C350.653 591.738 353.289 589.883 356.202 588.419C359.115 586.955 366.775 582.205 373.223 577.864C379.671 573.524 384.701 570.613 384.401 571.396C383.011 575.018 389.538 582.584 393.248 581.652C396.246 580.9 405.999 571.124 405.999 568.873C405.999 566.693 401.32 561.077 398.581 559.969L396.499 559.127L398.562 559.063C401.354 558.978 405.816 563.833 406.614 567.827C407.514 572.325 404.852 577.796 398.597 584.304C391.1 592.106 383.74 601 384.781 601C385.281 601 386.504 600.1 387.499 599C389.88 596.369 390.85 596.477 391.999 599.5C392.522 600.875 393.397 602 393.943 602C395.108 602 394.243 599.148 392.426 597C391.375 595.757 391.595 594.993 393.708 592.544L396.258 589.587L398.548 592.459C400.223 594.56 400.937 596.964 401.208 601.415C401.412 604.762 401.546 607.59 401.505 607.701C401.464 607.811 396.271 608.425 389.965 609.065C375.101 610.574 362.051 609.719 357.051 606.909C353.016 604.641 349.999 600.443 349.999 597.096C349.999 595.943 349.549 595 348.999 595C347.32 595 347.881 599.018 350.117 602.996C353.717 609.401 357.773 610.92 372.101 611.231C378.92 611.379 388.549 611.139 393.499 610.698L402.499 609.895L404.999 613.349C408.656 618.4 414.996 622.041 421.26 622.688C425.678 623.143 427.447 622.805 431.547 620.718C434.271 619.332 437.59 617.028 438.923 615.599C441.159 613.202 442.016 612.995 449.923 612.94C454.64 612.908 460.636 612.529 463.249 612.099L467.999 611.317L468.085 625.409C468.505 693.848 468.534 712.158 468.247 729.901L467.917 750.302L421.208 749.659C395.518 749.306 315.774 748.768 243.999 748.463C172.224 748.159 107.874 747.729 100.999 747.508C94.1237 747.287 69.2787 747.083 45.7867 747.053L3.07574 747L3.12674 678.907L3.17874 610.814L5.33874 611.459C6.52674 611.813 13.2267 612.369 20.2277 612.694C32.3247 613.256 33.0357 613.407 34.5617 615.737C35.4457 617.085 38.6567 619.327 41.6977 620.72C51.0727 625.012 59.9867 622.61 68.0737 613.613L71.6497 609.636L82.7687 610.842C95.3657 612.208 112.063 611.44 114.761 609.369C116.273 608.209 116.045 608.128 112.999 608.747C108.234 609.716 88.1847 609.682 78.9987 608.689L71.4987 607.878L71.9987 601.65C72.3567 597.193 73.1537 594.592 74.8007 592.509L77.1027 589.598L79.4437 592.533C81.5157 595.133 81.6247 595.696 80.3917 597.457C77.9647 600.921 78.7917 602.771 81.3417 599.584C82.8957 597.642 83.9147 597.056 84.3927 597.829C84.7877 598.467 86.0167 599.475 87.1257 600.068C90.2707 601.751 76.6317 585.184 71.6877 581.316C70.1517 580.114 68.9277 578.872 68.9677 578.555C69.0067 578.238 68.3077 576.564 67.4137 574.835C65.2627 570.676 66.1547 565.491 69.6487 561.844C71.1467 560.28 73.3007 559.029 74.4357 559.063C76.4857 559.126 76.4847 559.132 74.3867 559.98C71.2867 561.233 67.9987 565.87 67.9987 568.99C67.9987 570.986 69.4467 573.079 73.4387 576.855C76.4307 579.685 79.7597 582 80.8357 582C83.2857 582 88.9987 575.625 88.9987 572.89C88.9987 570.885 89.0657 570.89 92.9077 573.175C95.0577 574.454 100.57 578.04 105.158 581.145C109.745 584.249 115.636 587.827 118.249 589.094C120.861 590.362 122.999 591.984 122.999 592.699C122.999 593.415 123.449 594 123.999 594C124.549 594 124.999 593.514 124.999 592.921C124.999 592.253 126.091 592.081 127.861 592.47C137.47 594.58 149.999 584.976 149.999 575.501C149.999 574.091 150.561 572.778 151.249 572.583C151.937 572.388 154.41 571.709 156.747 571.075C160.165 570.146 161.821 568.807 165.233 564.211C169.13 558.961 169.47 558.016 169.439 552.5C169.397 545.081 165.902 537.668 159.186 530.75C156.649 528.137 155.012 526 155.546 526C156.081 526 157.071 526.886 157.747 527.969C159.718 531.124 164.344 532.941 172.701 533.844C182.266 534.877 185.6 534.038 190.008 529.491C193.196 526.202 193.464 525.41 193.963 517.811L194.499 509.66L201.499 517.163C205.349 521.29 209.057 524.481 209.739 524.254C210.42 524.026 213.783 519.939 217.212 515.17C220.641 510.402 224.92 504.553 226.723 502.173C228.525 499.794 229.999 497.442 229.999 496.947C229.999 496.453 224.486 493.41 217.749 490.185C211.011 486.961 202.799 482.608 199.499 480.513C194.905 477.596 182.143 469.34 179.122 467.331C178.915 467.193 179.578 462.076 180.595 455.96C182.218 446.201 182.847 444.37 185.722 441.01C187.524 438.905 188.999 436.909 188.999 436.576C188.999 436.042 195.295 427.16 213.716 401.708C216.586 397.744 221.602 390.675 224.863 386C228.124 381.325 232.145 375.805 233.799 373.734L236.806 369.968L241.153 375.955C245.195 381.523 246.999 383.141 246.999 381.2C246.999 380.76 244.974 377.617 242.499 374.216C240.024 370.814 237.999 367.768 237.999 367.446C237.999 366.317 244.104 358 244.932 358C245.393 358 248.296 361.443 251.384 365.65C254.472 369.858 256.999 372.562 256.999 371.659C256.999 370.756 255.406 367.931 253.46 365.381C251.514 362.831 250.093 360.572 250.304 360.362C250.515 360.151 252.627 360.663 254.999 361.5C257.371 362.337 259.511 362.821 259.755 362.577C261.003 361.33 257.847 359.845 245.757 355.988C238.465 353.662 231.149 351.179 229.499 350.471C226.406 349.144 197.814 340.353 194.815 339.807C193.888 339.638 193.075 339.93 193.007 340.456C192.939 340.981 197.747 342.798 203.691 344.493C210.746 346.505 214.405 348.018 214.229 348.848C213.935 350.232 196.554 375.877 183.967 393.5C179.645 399.55 172.263 409.981 167.562 416.68C162.861 423.379 158.12 429.144 157.026 429.491C154.876 430.174 144.849 436.05 142.48 438.016C141.68 438.68 140.007 438.958 138.762 438.634C135.555 437.8 109.814 414.941 104.193 407.938C99.3427 401.894 95.8927 400.541 95.1577 404.396C94.8887 405.806 95.2147 406.131 96.4317 405.664C97.5907 405.22 99.9557 407.037 104.529 411.885C114.541 422.498 132.768 437.517 148.859 448.413C156.911 453.865 163.724 458.642 163.999 459.028C165.795 461.547 203.273 485.327 214.231 490.9L227.559 497.677L222.779 503.588C220.15 506.84 216.762 510.042 215.249 510.705C213.737 511.368 213.062 511.93 213.749 511.955C214.437 511.98 214.999 512.473 214.999 513.051C214.999 513.629 213.424 512.9 211.499 511.432C207.188 508.144 206.826 509.835 211.076 513.411C212.768 514.835 213.694 516 213.135 516C212.575 516 211.837 515.547 211.495 514.993C210.55 513.464 204.999 510.815 204.999 511.893C204.999 512.412 206.598 513.825 208.552 515.033C210.506 516.24 211.848 517.484 211.535 517.797C211.222 518.11 210.433 517.834 209.782 517.183C207.908 515.309 206.523 515.809 208.214 517.75C209.052 518.712 209.564 519.973 209.351 520.551C209.139 521.129 205.485 518.193 201.232 514.026C196.979 509.859 190.926 504.29 187.78 501.65C173.557 489.712 134.745 461.02 131.749 460.229C130.786 459.975 129.999 459.438 129.999 459.035C129.999 457.317 93.6257 435.5 83.7487 431.294C79.4437 429.46 79.3997 429.337 81.9147 426.065C83.7477 423.681 83.8417 423.667 86.4787 425.395C90.0947 427.764 90.7977 426.774 87.3987 424.1C85.9107 422.93 84.9187 421.747 85.1937 421.472C85.4687 421.197 86.8457 421.878 88.2537 422.986C89.6617 424.094 91.3667 425 92.0417 425C93.0697 425 92.1557 424.137 87.0817 420.314C86.8527 420.141 86.9337 419.732 87.2617 419.404C87.5897 419.076 89.8027 420.124 92.1787 421.733C98.7187 426.164 99.7417 426.62 97.5647 424.14C96.5007 422.927 94.1377 421.013 92.3147 419.886C90.4907 418.759 88.9987 417.393 88.9987 416.85C88.9987 416.308 90.2357 416.721 91.7487 417.768C96.8447 421.297 97.5207 421.199 93.6587 417.493C90.5207 414.482 90.2447 413.943 92.1507 414.548C94.2297 415.208 94.3347 415.11 93.1187 413.644C91.2457 411.387 92.6477 411.579 95.7257 414C99.7607 417.174 100.875 416.267 96.9987 412.964C95.0737 411.324 94.2407 410.242 95.1477 410.559C96.0547 410.877 97.1367 410.586 97.5517 409.914C98.0367 409.129 97.8917 408.948 97.1457 409.409C96.4957 409.811 95.7207 409.438 95.3847 408.563C95.0547 407.704 94.2707 407.007 93.6417 407.017C91.9787 407.041 76.7007 429.103 77.6757 430.073C78.1287 430.523 81.8737 432.632 85.9987 434.76C96.6477 440.253 109.501 447.695 116.499 452.42C119.799 454.648 124.074 457.308 125.999 458.332C127.924 459.356 130.158 460.825 130.963 461.597C132.242 462.822 132.178 462.997 130.463 462.98C129.383 462.969 125.574 462.538 121.999 462.022C118.424 461.505 113.618 460.847 111.32 460.559C109.021 460.272 104.233 458.942 100.678 457.604C94.4857 455.273 82.9097 452 80.8587 452C78.0347 452 81.8137 453.951 88.4607 455.924C94.7567 457.793 95.9987 458.509 95.9987 460.272C95.9987 462.287 96.0597 462.299 97.3467 460.538C99.1697 458.046 100.989 459.41 101.044 463.309L101.089 466.5L102.548 463.5L104.008 460.5L103.642 463.25C103.441 464.763 103.664 466 104.138 466C104.611 466 104.999 465.1 104.999 464C104.999 461.23 106.982 461.469 107.069 464.25C107.136 466.397 107.179 466.408 107.999 464.5C108.746 462.761 108.881 462.891 109.028 465.5C109.122 467.15 109.536 469.625 109.949 471C110.684 473.447 110.72 473.427 111.645 470.068C113.029 465.046 115.279 464.722 114.587 469.645L114.045 473.5L115.18 470.204C115.937 468.004 116.789 467.089 117.739 467.454C118.522 467.754 119.666 468 120.281 468C121.06 468 121.035 468.364 120.199 469.2C119.539 469.86 119.029 471.098 119.067 471.95C119.112 472.993 119.482 472.78 120.197 471.301C121.065 469.503 121.828 469.21 124.379 469.692C126.095 470.016 127.949 470.603 128.499 470.996C129.049 471.39 131.6 472.224 134.168 472.85C136.737 473.476 140.013 474.435 141.451 474.982C144.013 475.956 144.033 476.034 142.47 479.055C141.594 480.749 141.08 482.668 141.327 483.318C141.574 483.968 142.535 482.745 143.464 480.599L145.152 476.699L153.075 484.576C157.433 488.908 160.999 492.651 160.999 492.893C160.999 493.135 160.736 493.07 160.414 492.748C159.271 491.606 153.967 494.238 152.15 496.849C148.426 502.201 147.342 509 150.213 509C150.763 509 150.955 508.327 150.639 507.505C149.754 505.198 153.564 497.331 156.498 495.409C158.936 493.811 159.365 493.804 162.517 495.307C166.907 497.401 173.732 503.583 175.564 507.125C178.407 512.623 176.475 517.028 170.331 519.056C166.577 520.294 165.155 519.729 157.292 513.876C154.428 511.744 151.814 510 151.483 510C150.095 510 152.593 512.441 158.22 516.584C164.809 521.435 169.835 522.363 173.17 519.345C174.176 518.435 174.999 518.17 174.999 518.756C174.999 519.342 173.614 520.987 171.922 522.411C168.192 525.55 161.339 525.91 154.769 523.311C147.631 520.488 133.828 511.92 128.718 507.14C123.903 502.636 123.898 502.625 126.196 501.362C128.312 500.199 128.199 500.143 124.8 500.671C120.951 501.268 107.081 499.624 100.981 497.847C98.1167 497.013 96.2577 497.229 90.9807 499.006C86.1137 500.646 83.2937 501.031 79.6617 500.549C76.5137 500.132 75.0417 500.26 75.4467 500.915C76.4617 502.558 82.9747 503.343 86.5307 502.252L89.8337 501.238L86.9167 505.979C85.3117 508.587 83.9987 511.093 83.9987 511.548C83.9987 512.003 82.0377 514.879 79.6397 517.938C77.2427 520.997 72.8827 527.775 69.9507 533C62.5647 546.162 55.7007 553.131 45.1757 558.154C40.5757 560.35 37.0507 562.385 37.3427 562.677C37.6347 562.97 39.3387 562.478 41.1287 561.585L44.3837 559.961L42.0137 562.731C40.7097 564.254 37.3607 567.672 34.5707 570.328C30.3137 574.38 29.9927 574.912 32.5727 573.643C34.2637 572.811 38.3267 569.266 41.6007 565.766C44.8757 562.266 49.5777 558.01 52.0497 556.309C57.5537 552.522 63.5567 546.085 67.5207 539.718C69.1587 537.088 72.8577 531.463 75.7417 527.218C82.8187 516.8 85.5787 512.494 89.3267 506.022C93.1317 499.452 95.9857 498.08 102.061 499.9L106.23 501.149L103.767 503.825C99.7087 508.232 68.5997 550.611 62.4987 560.042C55.1887 571.342 48.6527 578.621 44.7107 579.851C35.5957 582.696 29.6497 590.569 29.5547 599.918C29.5237 602.988 29.8447 606.738 30.2677 608.25C30.9817 610.804 30.8257 611 28.0767 611C26.4487 611 24.8197 610.519 24.4567 609.932C24.0937 609.344 23.0797 609.139 22.2037 609.475C20.9237 609.966 20.9737 609.685 22.4597 608.043C24.8017 605.455 23.2867 605.428 19.9987 608C18.6237 609.076 16.8317 609.966 16.0167 609.978C15.2017 609.99 16.2487 608.835 18.3447 607.411C23.8227 603.688 22.1447 603.313 16.2467 606.942C10.2257 610.647 8.23374 611.009 13.4877 607.443C17.5027 604.718 20.5287 602 19.5457 602C19.2187 602 16.6607 603.575 13.8627 605.5C9.53674 608.475 5.99874 609.901 5.99874 608.668C5.99874 608.486 8.15074 606.943 10.7807 605.238C13.4107 603.534 16.4477 601.128 17.5307 599.892C18.6127 598.655 16.0157 600.053 11.7587 602.998C7.50174 605.943 3.75774 608.092 3.43874 607.773C3.11974 607.454 4.89174 605.794 7.37774 604.083C9.86274 602.373 12.2137 600.46 12.6017 599.833C13.3587 598.608 13.1537 598.708 6.83874 602.635L3.17974 604.911L3.05174 589.843C2.98174 581.556 2.88774 574.489 2.84274 574.138C2.79874 573.787 2.81474 553.675 2.88074 529.444L2.99874 485.387L12.7487 483.221C18.1107 482.03 24.1507 480.774 26.1687 480.431C30.8467 479.636 39.3487 474.499 51.7097 465C62.7077 456.549 67.3957 454.111 74.2237 453.293C76.9317 452.969 78.6897 452.31 78.3427 451.748C77.3547 450.149 69.6787 451.53 63.8927 454.349C60.9257 455.794 54.4487 460.165 49.4987 464.062C44.5487 467.959 37.8337 472.51 34.5767 474.175C29.2557 476.895 16.5887 480.654 6.89174 482.391L3.28474 483.037L3.28874 244.018L3.29174 4.99988L53.8957 4.98788C81.7267 4.98088 123.624 4.76088 146.999 4.49688C170.374 4.23388 252.466 3.78488 329.426 3.49888C406.386 3.21288 469.573 2.75888 469.842 2.48988C470.112 2.21988 470.017 1.68388 469.631 1.29888C468.948 0.614876 345.614 -0.248124 344.872 0.425876ZM339.071 49.0879C320.387 52.7529 294.985 73.0769 284.014 93.1379L281.346 98.0169L280.246 93.2589C276.771 78.2269 267.428 68.0669 251.999 62.5399C234.95 56.4329 215.657 62.3419 204.787 76.9999C201.606 81.2889 198.999 89.8109 198.999 95.9179V100.473L195.351 94.9869C190.87 88.2469 183.721 79.4689 179.589 75.6309C173.545 70.0179 167.94 65.7259 167.382 66.2839C167.07 66.5949 168.612 68.0389 170.807 69.4919C177.372 73.8359 192.049 92.4019 197.692 103.5C200.893 109.796 202.999 114.944 202.999 116.475C202.999 118.571 204.883 119.341 206.576 117.936C207.858 116.872 207.608 116.31 204.782 113.891C200.68 110.38 202.136 110.104 206.639 113.539C209.556 115.764 209.816 116.32 208.743 118.039C208.069 119.117 206.951 120 206.258 120C204.172 120 204.79 121.295 209.382 126.544C222.303 141.315 249.122 144.386 264.965 132.91C267.318 131.205 270.627 129.328 272.32 128.738C275.052 127.786 275.179 127.58 273.448 126.903C271.925 126.307 272.264 126.103 274.999 125.971C278.241 125.813 278.315 125.742 275.999 125L273.499 124.199L275.999 124.029C278.308 123.872 278.346 123.794 276.499 123C274.753 122.25 274.88 122.114 277.499 121.934C279.921 121.767 280.066 121.644 278.251 121.295C276.374 120.933 276.173 120.543 277.036 118.931C277.741 117.613 279.248 116.949 281.784 116.84L285.499 116.68L282.23 116.275C278.19 115.775 278.961 114.049 283.308 113.864C286.055 113.747 286.151 113.663 283.999 113.263C281.03 112.711 280.07 111.444 280.724 108.942C281.07 107.619 282.366 106.999 285.352 106.727L289.499 106.349L285.19 106.175C279.42 105.941 280.734 104.046 286.808 103.843L291.499 103.686L286.499 103.048L281.499 102.411L285.499 101.623C291.448 100.453 291.882 100.166 287.837 100.079C285.467 100.028 284.268 99.5589 284.436 98.7499C285.097 95.5779 286.385 93.9939 288.356 93.9299C290.436 93.8619 290.44 93.8349 288.499 93.0369C286.09 92.0469 287.55 91.2879 292.999 90.6989L296.499 90.3199L292.499 90.0639L288.499 89.8079L293.499 88.5229L298.499 87.2379L294.741 87.1189C291.284 87.0099 291.079 86.8439 292.191 85.0649C292.855 83.9999 293.829 83.3949 294.354 83.7189C294.879 84.0439 294.993 83.7999 294.609 83.1769C293.494 81.3739 302.901 71.5639 313.105 63.8879C319.63 58.9789 327.599 54.8299 335.818 52.0609C345.771 48.7079 346.146 49.2769 338.905 56.7499C330.672 65.2479 325.326 72.9379 316.723 88.6569C314.54 92.6469 306.004 115.058 306.001 116.809C305.997 119.298 307.709 117.048 309.445 112.283C314.703 97.8509 316.873 92.7519 320.844 85.4999C326.955 74.3389 335.304 62.5659 342.094 55.5369C349.488 47.8829 349.128 47.1149 339.071 49.0879ZM142.753 66.3359C161.437 85.4569 173.019 106.039 177.525 128.128C178.465 132.733 179.518 142.479 179.866 149.787L180.499 163.074L223.499 163.315C247.149 163.448 274.439 163.411 284.144 163.234L301.79 162.912L302.51 152.706C302.907 147.093 304.02 137.325 304.985 131C306.637 120.17 306.729 117.937 305.471 119.194C304.286 120.38 300.922 140.941 300.33 150.624L299.695 161L282.597 161.197C273.193 161.305 246.824 161.271 223.999 161.121L182.499 160.848L181.833 147.136C180.266 114.844 169.2 90.8339 143.634 64.2499C139.799 60.2629 137.327 56.9999 138.142 56.9999C140.379 56.9999 155.15 60.8909 157.999 62.2299C162.37 64.2849 162.528 64.3119 160.999 62.7349C158.884 60.5549 140.806 54.9999 135.825 54.9999H131.676L142.753 66.3359ZM259.605 83.8309C261.467 88.1389 263.27 93.6949 263.61 96.1799C264.385 101.836 262.091 110.218 257.423 118.784C253.776 125.478 253.345 127 255.098 127C259.332 127 266.429 112.081 267.574 100.775C268.305 93.5539 265.934 85.2249 261.487 79.3949C256.788 73.2339 255.914 75.2939 259.605 83.8309ZM283.749 108.662C284.437 108.94 285.562 108.94 286.249 108.662C286.937 108.385 286.374 108.158 284.999 108.158C283.624 108.158 283.062 108.385 283.749 108.662ZM103.505 152.991C103.198 153.487 103.606 158.53 104.411 164.197C105.216 169.863 106.162 176.806 106.513 179.625C107.039 183.839 108.575 186.858 115.164 196.625C119.571 203.156 126.145 212.55 129.773 217.5C140.446 232.059 142.206 234.508 157.422 255.95C165.403 267.197 171.835 276.466 171.716 276.547C171.597 276.627 168.124 276.34 163.999 275.909C159.874 275.477 149.197 275.096 140.272 275.062C124.39 275.001 124.013 275.049 122.531 277.31C121.646 278.662 120.959 282.189 120.877 285.81C120.801 289.215 120.626 292 120.49 292C120.354 292 118.628 291.325 116.653 290.5C111.122 288.189 110.951 288.808 116.347 291.615C119.013 293.003 120.964 294.368 120.682 294.65C120.401 294.932 119.193 294.639 117.999 294C116.805 293.361 115.599 293.066 115.32 293.345C115.041 293.624 116.22 294.58 117.939 295.469C119.658 296.358 120.812 297.493 120.504 297.992C120.195 298.491 118.493 298.068 116.721 297.052C114.949 296.037 112.374 294.904 110.999 294.536C109.624 294.168 111.1 295.383 114.278 297.238C120.517 300.877 121.28 302.947 115.249 299.872C113.229 298.843 110.884 298.016 110.038 298.037C109.191 298.057 110.889 299.229 113.81 300.642C119.777 303.528 120.332 304.873 114.562 302.462C112.502 301.601 111.074 301.312 111.387 301.818C111.7 302.325 113.316 303.303 114.978 303.991C116.639 304.679 117.999 305.65 117.999 306.147C117.999 306.644 116.607 306.332 114.906 305.452C113.205 304.572 111.588 304.078 111.313 304.353C111.038 304.628 112.205 305.572 113.906 306.452C115.607 307.332 116.999 308.463 116.999 308.967C116.999 310.644 115.065 311.106 112.899 309.946C111.41 309.149 110.965 309.135 111.437 309.9C111.811 310.505 111.528 311.01 110.808 311.022C110.088 311.034 110.624 311.916 111.999 312.982L114.499 314.92L111.999 314.386C109.652 313.884 109.611 313.943 111.328 315.344C112.859 316.593 112.963 317.199 111.966 319.062C111.31 320.287 110.998 322.958 111.272 324.999L111.77 328.71L103.634 322.577C94.6457 315.802 95.3907 316.14 74.9987 309.579C54.1157 302.861 42.4797 296.556 31.7487 286.142C24.5007 279.109 24.2937 277.503 30.7487 278.399C47.3097 280.696 53.0107 280.136 52.9897 276.215C52.9847 275.272 51.8597 270.1 50.4897 264.722C46.2967 248.262 47.4897 244.097 54.1707 251.874C64.3397 263.712 83.4117 275.223 99.9187 279.485C103.45 280.397 109.075 282.57 112.419 284.314C120.335 288.443 119.999 288.315 119.999 287.207C119.999 285.889 107.3 279.382 102.999 278.497C87.2127 275.248 70.5207 265.756 58.5697 253.234C51.3027 245.619 49.4207 244.405 47.4347 246.053C45.2707 247.849 45.6707 254.296 48.6637 265.834C51.9117 278.355 51.8827 278.396 40.4987 277.45C25.5977 276.21 24.5257 276.28 24.2537 278.5C23.6827 283.166 40.7947 297.125 55.7597 304.201C60.3037 306.349 70.4177 310.165 78.2347 312.68C90.3047 316.564 93.5497 318.068 99.7507 322.654C109.016 329.506 114.384 334.873 116.897 339.8C119.626 345.149 127.507 352.679 132.962 355.149C139.325 358.031 147.67 358.124 149.925 355.339C151.436 353.474 151.507 352.206 150.562 343.973L149.499 334.706L145.499 334.3C143.299 334.078 141.173 333.57 140.775 333.174C140.377 332.777 141.839 332.623 144.025 332.831C146.488 333.066 147.999 332.79 147.999 332.105C147.999 331.497 146.536 330.997 144.749 330.994C139.107 330.984 121.675 328.09 117.249 326.429C114.585 325.43 112.999 324.212 113 323.167C113 322.25 114.392 318.575 116.093 315C120.919 304.858 123.175 296.472 123.175 288.677C123.175 276.419 122.28 276.999 141.224 277.008C167.733 277.022 182.975 279.332 203.933 286.512C210.844 288.88 228.199 294.849 242.499 299.776C256.799 304.703 271.874 309.895 275.999 311.313C286.198 314.82 301.859 318.641 311.321 319.933C322.369 321.44 344.054 321.196 353.499 319.458C357.899 318.648 363.524 317.778 365.999 317.525C369.884 317.127 369.636 317.278 364.183 318.633C360.71 319.496 358.078 320.412 358.335 320.67C358.851 321.186 368.475 319.543 371.249 318.466C372.254 318.075 372.999 318.245 372.999 318.865C372.999 319.792 367.466 321.764 360.499 323.321C358.528 323.761 358.529 323.77 360.531 323.884C361.649 323.948 365.023 323.362 368.03 322.582C371.036 321.802 373.721 321.389 373.996 321.664C375.06 322.728 370.565 324.891 363.886 326.528C360.046 327.469 357.098 328.432 357.334 328.668C357.768 329.102 369.094 326.68 372.149 325.5C373.497 324.98 373.799 325.529 373.799 328.498C373.799 332.308 373.995 332.138 366.217 335.043C361.156 336.933 363.275 337.435 368.623 335.612C371.226 334.726 373.464 334 373.598 334C374.64 334 374.95 340.355 373.965 341.541C372.489 343.32 373.66 343.496 375.356 341.75C376.232 340.848 376.412 337.442 376.003 329.5C375.381 317.438 373.765 313.285 367.559 307.791L364.499 305.081L368.774 305.041C374.573 304.986 382.912 301.909 391.189 296.771C408.616 285.954 416.51 282.447 425.597 281.484L430.499 280.965L425.798 282.498C418.423 284.904 419.19 286.09 426.727 283.935C430.448 282.871 434.394 282.014 435.496 282.032C437.472 282.063 437.473 282.083 435.558 283.532C434.49 284.339 434.034 285 434.544 285C435.055 285 431.956 288.349 427.658 292.443C418.526 301.142 417.972 303.458 424.499 305.657C426.699 306.398 429.526 307.537 430.782 308.188L433.065 309.373L430.282 310.595C427.747 311.709 427.954 311.77 432.614 311.286C435.864 310.947 437.982 311.163 438.423 311.877C438.879 312.614 438.067 313 436.058 313C434.376 313 432.999 313.403 432.999 313.895C432.999 314.412 434.58 314.433 436.748 313.944C438.998 313.436 440.878 313.479 441.448 314.049C442.049 314.65 441.13 315.029 438.949 315.078C437.052 315.12 433.249 315.985 430.499 317C424.432 319.239 425.796 319.572 432.59 317.511C435.29 316.692 439.074 316.042 440.999 316.066C443.755 316.101 442.952 316.515 437.223 318.017C426.753 320.76 418.831 324.85 406.424 333.918C398.114 339.992 393.642 342.514 387.703 344.477C379.493 347.19 377.999 347.108 377.999 343.941C377.999 342.873 377.549 342 376.999 342C376.449 342 375.999 342.45 375.999 343C375.999 343.55 375.41 344 374.69 344C373.97 344 372.508 344.712 371.44 345.582C369.526 347.141 369.527 347.153 371.499 346.468C375.855 344.954 376.999 344.807 376.999 345.762C376.999 346.309 375.639 347.321 373.978 348.009C372.316 348.697 370.691 349.689 370.367 350.213C370.044 350.737 371.238 350.411 373.022 349.488C375.693 348.107 376.417 348.048 377.131 349.156C378.247 350.885 377.961 358.123 376.713 359.75C376.186 360.438 376.104 361 376.532 361C376.959 361 376.452 361.965 375.404 363.145C371.389 367.666 359.361 371.168 343.033 372.569C336.874 373.098 335.172 373.52 336.789 374.118C338.063 374.589 344.133 374.342 351.007 373.539C361.016 372.37 364.244 371.541 370.493 368.535C379.507 364.199 381.223 361.687 380.329 354.136C379.869 350.258 380.056 348.951 381.112 348.66C393.22 345.328 397.976 342.872 410.591 333.441C421.066 325.61 427.473 322.465 438.808 319.591C447.198 317.463 448.656 316.326 445.334 314.5C444.334 313.95 442.327 312.561 440.875 311.414C438.531 309.561 433.296 307.173 424.717 304.041C422.048 303.066 421.993 302.913 423.368 300.263C424.156 298.743 427.433 295.186 430.65 292.357C433.867 289.529 437.313 285.815 438.307 284.105L440.115 280.995L437.307 279.898C435.65 279.25 431.426 279.022 426.999 279.341C416.841 280.074 406.265 284.302 393.44 292.757C382.594 299.908 376.424 302.225 366.82 302.757C359.616 303.156 356.896 302.844 350.82 300.921C345.709 299.304 340.984 298.589 335.169 298.553C326.946 298.501 326.801 298.543 323.824 301.872C321.087 304.933 320.87 305.672 321.476 309.872C321.842 312.418 322.402 315.584 322.719 316.908C323.294 319.311 323.279 319.315 316.737 318.704C309.669 318.044 283.606 312.366 280.775 310.869C279.253 310.064 279.741 308.933 284.932 301.229C288.166 296.428 293.172 288.9 296.055 284.5C298.939 280.1 303.281 273.8 305.704 270.5C308.127 267.2 314.548 258.2 319.973 250.5C333.824 230.839 333.422 231.402 340.293 222.072C351.058 207.454 364.009 188.617 365.444 185.49C367.049 181.992 370.446 155.607 369.581 153.353C369.107 152.117 367.202 152.796 359.489 156.954C340.777 167.042 343.392 164.044 303.713 220.886C287.932 243.493 272.268 265.77 268.499 270.968C267.399 272.485 264.692 276.375 262.484 279.613C254.027 292.013 248.59 299 247.397 299C246.035 299 231.656 294.133 222.999 290.741C217.055 288.412 216.592 287.954 209.01 276.891C206.224 272.826 202.141 267.025 199.936 264C197.732 260.975 194.39 256.161 192.51 253.303C190.63 250.444 186.679 244.819 183.731 240.803C178.597 233.808 174.533 227.992 160.116 207C156.527 201.775 151.51 194.8 148.966 191.5C146.423 188.2 141.516 181.376 138.062 176.335C131.821 167.229 131.706 167.128 119.749 160.335C105.985 152.517 104.275 151.744 103.505 152.991ZM109.133 157.653C109.334 158.119 112.424 162.505 115.999 167.4C123.673 177.907 138.941 199.11 142.205 203.791C143.467 205.601 145.95 209.046 147.723 211.447C149.496 213.848 159.366 228.342 169.656 243.656C197.069 284.453 194.105 280.991 204.755 284.648L213.782 287.747L209.831 282.124C207.658 279.031 204.29 274.25 202.346 271.5C200.402 268.75 196.756 263.575 194.245 260C191.734 256.425 185.551 247.65 180.506 240.5C175.462 233.35 167.996 222.633 163.916 216.685C159.837 210.737 153.124 201.199 148.999 195.491C144.874 189.782 139.024 181.528 135.999 177.149C131.121 170.087 129.538 168.623 121.999 164.199C111.323 157.934 108.673 156.586 109.133 157.653ZM355.666 161.521C343.645 168.366 343.125 168.869 332.755 183.65C327.411 191.267 319.092 203.022 314.269 209.772C309.445 216.521 304.281 223.975 302.792 226.335C301.303 228.696 296.803 235.17 292.792 240.722C285.365 251.001 260.136 286.457 254.264 294.867C252.485 297.415 251.023 299.801 251.014 300.17C250.988 301.333 261.193 304.297 261.866 303.321C266.174 297.076 270.482 291.115 275.469 284.5C278.786 280.1 286.449 269.144 292.499 260.153C306.127 239.901 322.686 215.844 332.529 202C336.634 196.225 341.541 189.25 343.433 186.5C345.324 183.75 347.8 180.506 348.935 179.292C350.07 178.077 350.999 176.767 350.999 176.38C350.999 175.993 354.157 171.474 358.018 166.338C361.878 161.202 364.691 157.014 364.268 157.031C363.845 157.048 359.974 159.068 355.666 161.521ZM105.996 158.583C105.995 159.088 106.736 165.047 107.643 171.827C108.847 180.821 109.875 185.011 111.446 187.327C119.475 199.156 128.259 211.677 133.443 218.686C136.774 223.189 141.524 229.862 143.999 233.517C150.951 243.782 158.564 254.458 167.544 266.535L175.75 277.571L183.825 279.11C189.065 280.108 191.678 280.272 191.269 279.574C190.922 278.983 187.57 273.903 183.819 268.283C180.068 262.664 176.999 257.815 176.999 257.507C176.999 256.142 169.445 247 168.317 247C167.627 247 167.28 246.432 167.546 245.737C167.813 245.042 167.056 243.263 165.865 241.782C164.092 239.579 163.348 239.278 161.763 240.126C160.699 240.696 159.607 240.942 159.338 240.672C159.069 240.403 159.782 239.886 160.924 239.524C162.065 239.162 162.999 238.446 162.999 237.933C162.999 236.63 162.613 236.725 158.306 239.092L154.499 241.184L157.499 238.597C159.149 237.174 160.863 236.008 161.308 236.005C161.753 236.002 161.836 235.545 161.492 234.989C161.097 234.35 160.076 234.533 158.711 235.489C155.196 237.951 154.244 237.199 157.499 234.531C160.671 231.931 160.321 231.298 156.683 233.055C154.7 234.013 154.66 233.98 156.249 232.695C158.67 230.737 158.438 229.734 155.749 230.536C153.549 231.192 153.544 231.173 155.486 229.694C157.447 228.2 157.448 228.154 155.549 226.055C154.491 224.886 152.971 224.181 152.171 224.488C150.92 224.968 150.911 224.806 152.108 223.336C153.328 221.835 153.291 221.704 151.8 222.262C150.601 222.711 150.26 222.483 150.642 221.489C151.334 219.684 143.077 207.833 141.715 208.676C141.149 209.025 140.991 208.822 141.361 208.223C142.486 206.404 134.189 195.5 131.68 195.5C130.481 195.5 129.386 195.05 129.249 194.5C129.112 193.95 129.449 193.5 129.999 193.5C131.125 193.5 131.216 192.728 130.353 190.481C129.963 189.463 129.039 189.142 127.631 189.536C125.924 190.012 125.798 189.918 126.999 189.066C128.332 188.118 128.332 187.891 126.999 187.015C126.174 186.474 125.892 186.024 126.371 186.015C128.223 185.983 124.645 183 122.754 183C121.09 183 120.963 182.748 121.999 181.5C123.017 180.274 122.954 180 121.653 180C120.631 180 120.273 179.449 120.653 178.459C120.978 177.612 120.852 176.99 120.372 177.078C117.926 177.524 116.907 176.867 117.44 175.187C117.826 173.968 116.217 170.969 112.534 166.047C106.216 157.602 106 157.355 105.996 158.583ZM363.006 162.659C354.827 173.996 354.797 174.051 355.977 175.473C356.854 176.531 356.646 176.977 355.037 177.488C353.9 177.849 353.228 178.562 353.543 179.072C353.859 179.582 353.135 180 351.936 180C350.11 180 349.957 180.245 350.999 181.5C352.042 182.757 351.884 183 350.028 183C348.653 183 347.613 183.759 347.289 185C347.001 186.1 346.313 187 345.76 187C345.158 187 345.219 187.56 345.912 188.395C346.825 189.495 346.721 189.759 345.422 189.645C342.941 189.427 341.194 192.62 342.918 194.222C343.969 195.2 344.126 195.206 343.587 194.25C342.754 192.776 344.594 192.535 345.499 194C345.839 194.55 345.614 195 344.999 195C344.384 195 344.161 195.453 344.504 196.008C344.861 196.587 344.029 196.515 342.546 195.839C340.339 194.834 339.755 194.941 338.514 196.582C336.479 199.271 336.597 199.591 340.171 201.071C341.916 201.794 342.801 202.566 342.139 202.787C341.477 203.007 339.818 202.456 338.452 201.561C336.016 199.965 335.929 200.005 333.736 203.717C332.508 205.798 331.652 207.95 331.834 208.5C332.016 209.05 331.85 209.185 331.465 208.799C330.442 207.777 321.765 219.949 322.378 221.546C322.737 222.48 322.372 222.701 321.198 222.262C319.662 221.687 319.643 221.806 320.999 223.505C321.932 224.673 322.016 225.093 321.221 224.616C320.428 224.139 319.213 224.73 318.02 226.174C316.219 228.353 316.205 228.586 317.798 229.853C319.344 231.084 319.305 231.149 317.367 230.574C314.192 229.63 313.44 232.693 316.247 235.137L318.499 237.099L315.249 235.524C311.163 233.543 310.96 235.273 314.999 237.659C316.649 238.634 317.999 239.821 317.999 240.297C317.999 240.773 316.4 240.175 314.446 238.967C312.492 237.76 310.654 237.012 310.361 237.305C310.068 237.598 310.805 238.361 311.999 239C313.193 239.639 313.945 240.387 313.67 240.662C313.395 240.937 312.268 240.679 311.165 240.089C309.441 239.166 308.978 239.425 307.867 241.936C307.156 243.542 306.225 244.64 305.798 244.376C305.371 244.112 305.29 244.594 305.617 245.448C305.986 246.409 305.663 247 304.77 247C303.976 247 298.866 253.842 293.413 262.205C287.96 270.568 281.084 280.356 278.131 283.955C271.681 291.82 264.641 302 265.653 302C266.053 302 265.522 302.628 264.473 303.396C262.675 304.71 262.794 304.889 266.531 306.476C268.714 307.402 271.913 308.4 273.642 308.694C276.63 309.201 277.047 308.84 282.125 301.363C285.063 297.039 288.935 291.085 290.73 288.133C292.525 285.181 298.643 276.406 304.325 268.633C316.043 252.603 318.151 249.631 328.176 235C332.133 229.225 339.035 219.55 343.513 213.5C347.991 207.45 354.409 198.388 357.776 193.363C363.884 184.248 363.902 184.199 365.512 172.56C366.399 166.143 366.984 160.202 366.812 159.356C366.61 158.364 365.26 159.536 363.006 162.659ZM129.558 198.532C128.092 199.641 127.984 200 129.117 200C129.942 200 131.49 199.339 132.558 198.532C134.024 197.423 134.132 197.064 132.999 197.064C132.174 197.064 130.625 197.724 129.558 198.532ZM340.999 198.5C341.684 199.325 342.976 199.986 343.871 199.968C345.239 199.941 345.189 199.702 343.558 198.468C341.031 196.557 339.403 196.577 340.999 198.5ZM131.999 201.5C130.397 202.416 130.059 202.942 131.058 202.965C131.915 202.984 133.49 202.339 134.558 201.532C137.044 199.652 135.271 199.63 131.999 201.5ZM111.999 286.393C111.999 286.609 112.697 287.054 113.551 287.382C114.441 287.723 114.842 287.555 114.492 286.989C113.905 286.038 111.999 285.583 111.999 286.393ZM347.999 303.393C347.999 303.609 348.697 304.054 349.551 304.382C350.441 304.723 350.842 304.555 350.492 303.989C349.905 303.038 347.999 302.583 347.999 303.393ZM345.499 306C345.839 306.55 346.315 307 346.558 307C346.801 307 346.999 306.55 346.999 306C346.999 305.45 346.522 305 345.94 305C345.358 305 345.159 305.45 345.499 306ZM345.195 309.982C340.628 312.192 335.79 314 334.445 314C332.937 314 331.999 314.576 331.999 315.5C331.999 316.325 332.562 316.887 333.249 316.75C333.937 316.613 334.386 317.063 334.249 317.75C334.112 318.438 334.449 319 334.999 319C335.549 319 336.006 318.212 336.014 317.25C336.027 315.754 336.171 315.718 336.999 317C337.548 317.849 337.975 317.996 337.984 317.338C338.003 315.891 342.968 316.332 343.915 317.865C344.411 318.666 348.317 318.368 357.802 316.807C365.06 315.612 370.999 314.355 370.999 314.013C370.999 313.672 369.438 311.88 367.531 310.031C364.651 307.239 363.168 306.61 358.781 306.316C354.253 306.013 352.314 306.536 345.195 309.982ZM112.997 308.454C114.372 309.214 115.709 309.624 115.969 309.364C116.641 308.691 113.785 307.027 111.999 307.051C111.129 307.062 111.549 307.652 112.997 308.454ZM329.749 311.706C330.987 311.944 333.011 311.944 334.249 311.706C335.487 311.467 334.474 311.272 331.999 311.272C329.524 311.272 328.511 311.467 329.749 311.706ZM329.03 315.5C329.03 316.05 329.466 317.175 329.999 318C330.532 318.825 330.968 319.05 330.968 318.5C330.968 317.95 330.532 316.825 329.999 316C329.466 315.175 329.03 314.95 329.03 315.5ZM325.078 317.583C325.126 318.748 325.363 318.985 325.682 318.188C325.971 317.466 325.935 316.603 325.603 316.271C325.271 315.939 325.035 316.529 325.078 317.583ZM115.53 331.061C116.401 332.744 119.128 335.542 121.591 337.278C127.116 341.172 147.999 348.337 147.999 346.338C147.999 345.602 147.393 345 146.652 345C145.911 345 144.267 344.1 142.999 343C141.731 341.9 140.199 340.986 139.596 340.97C138.993 340.953 139.331 340.456 140.348 339.864C141.365 339.273 143.615 339.061 145.348 339.393C147.604 339.826 148.073 339.718 146.999 339.014C146.174 338.473 144.599 338.017 143.499 338C142.399 337.983 140.824 337.494 139.999 336.913C138.895 336.136 139.819 335.992 143.499 336.367L148.499 336.876L143.105 335.514C140.138 334.764 137.438 333.713 137.105 333.177C136.772 332.641 133.799 331.871 130.499 331.466C127.199 331.061 122.474 330.12 119.999 329.376C113.861 327.529 113.73 327.578 115.53 331.061ZM365.499 331.067C361.415 332.629 361.14 332.866 363.999 332.362C368.135 331.633 371.999 330.263 371.999 329.525C371.999 328.732 370.96 328.979 365.499 331.067ZM150.548 332.885C151.125 333.497 154.95 334.427 159.048 334.952C167.303 336.008 187.14 339.733 189.66 340.7C190.743 341.116 191.123 340.871 190.817 339.955C190.271 338.317 187.972 337.692 172.999 335.114C156.176 332.218 149.273 331.532 150.548 332.885ZM142.812 340.683C143.533 340.972 144.396 340.936 144.728 340.604C145.06 340.272 144.47 340.036 143.416 340.079C142.251 340.127 142.014 340.364 142.812 340.683ZM209.426 360.729C205.066 367.18 196.372 379.667 190.105 388.479C171.742 414.299 162.956 426.948 162.428 428.325C162.149 429.051 163.848 430.989 166.315 432.76L170.697 435.907L176.028 428.204C178.96 423.967 185.709 414.425 191.025 407C196.342 399.575 204.488 387.875 209.129 381C213.769 374.125 220.201 365.001 223.423 360.724C226.644 356.447 229.105 352.784 228.89 352.584C228.349 352.08 219.111 349 218.141 349C217.707 349 213.786 354.278 209.426 360.729ZM372.999 351.5C371.397 352.416 371.059 352.942 372.058 352.965C372.915 352.984 374.49 352.339 375.558 351.532C378.044 349.652 376.271 349.63 372.999 351.5ZM225.716 360.25C222.767 364.238 214.58 376.05 207.522 386.5C200.463 396.95 192.978 407.749 190.888 410.498L187.087 415.495L189.793 417.852L192.499 420.209L189.662 418.525C186.026 416.365 184.744 417.538 188.014 420.032L190.499 421.928L186.711 421.643C183.904 421.432 183.054 421.7 183.429 422.679C183.713 423.418 183.264 424 182.409 424C181.568 424 181.159 424.45 181.499 425C181.839 425.55 181.325 426 180.358 426C178.99 426 178.866 426.267 179.799 427.2C181.415 428.816 181.319 430.06 179.628 429.411C178.821 429.101 176.903 430.596 174.959 433.051L171.66 437.216L175.58 440.568C177.735 442.411 179.949 443.791 180.499 443.634C181.049 443.477 182.761 441.583 184.304 439.424C185.847 437.266 195.072 424.305 204.804 410.622C214.536 396.94 223.849 383.858 225.499 381.552C236.641 365.977 242.172 357.84 241.841 357.509C241.402 357.07 232.027 353 231.455 353C231.248 353 228.665 356.262 225.716 360.25ZM371.999 355.5C369.524 356.825 367.851 357.93 368.281 357.955C369.754 358.04 375.754 355.205 376.436 354.102C377.326 352.662 377.261 352.683 371.999 355.5ZM369.499 360.107C364.457 362.574 364.058 362.942 366.999 362.413C370.179 361.842 376.999 358.435 376.999 357.418C376.999 356.634 375.501 357.171 369.499 360.107ZM373.999 362C373.098 362.582 372.974 362.975 373.69 362.985C374.345 362.993 375.159 362.55 375.499 362C376.266 360.758 375.92 360.758 373.999 362ZM369.999 364C369.098 364.582 368.974 364.975 369.69 364.985C370.345 364.993 371.159 364.55 371.499 364C372.266 362.758 371.92 362.758 369.999 364ZM293.999 369.955C293.999 370.992 296.293 371.467 308.499 372.959C315.248 373.785 327.14 374.356 331.749 374.076C332.437 374.034 332.999 373.55 332.999 373C332.999 372.435 330.061 371.986 326.249 371.968C322.537 371.951 314.774 371.29 308.999 370.5C296.452 368.783 293.999 368.694 293.999 369.955ZM374.167 405.664C372.768 408.25 359.161 421.422 348.499 430.511C343.549 434.731 332.974 442.677 324.999 448.168C317.024 453.659 306.899 460.713 302.499 463.842C286.907 474.931 268.777 486.167 257.711 491.597C251.544 494.624 246.499 497.415 246.499 497.8C246.499 499.48 254.747 509.024 257.19 510.172C259.217 511.124 259.619 511.753 258.818 512.718C257.052 514.846 259.522 514.185 261.499 512C262.494 510.9 263.773 510 264.341 510C264.909 510 264.051 511.427 262.436 513.17L259.499 516.341L262.499 514.334C267.316 511.113 267.999 510.82 267.999 511.975C267.999 512.576 266.405 514.008 264.456 515.158C260.605 517.43 260.357 518.934 264.163 516.936C266.46 515.729 266.469 515.743 264.684 517.755C263.546 519.038 263.254 520.04 263.901 520.44C264.469 520.791 266.636 519.191 268.716 516.885C270.797 514.578 276.302 509.498 280.951 505.596C288.528 499.235 293.78 495.132 318.568 476.208C332.847 465.307 340.385 460 341.59 460C342.273 460 342.982 459.574 343.166 459.054C343.851 457.108 385.707 432.18 391.233 430.426C393.491 429.709 393.458 428.783 391.07 425.861C389.478 423.913 388.91 423.729 387.82 424.809C386.729 425.891 386.847 425.994 388.499 425.4C389.659 424.983 390.155 425.057 389.68 425.576C389.23 426.068 387.485 426.54 385.802 426.625L382.744 426.779L385.434 424.634C387.291 423.153 387.917 421.949 387.454 420.744C386.654 418.657 385.22 418.523 383.078 420.335C380.701 422.345 373.999 426.241 373.999 425.613C373.999 425.311 376.509 423.209 379.577 420.943C382.644 418.676 384.924 416.592 384.642 416.31C384.361 416.028 382.514 417.031 380.537 418.538C378.561 420.046 376.702 421.037 376.406 420.74C376.11 420.444 377.484 418.969 379.461 417.462C381.437 415.954 382.84 414.508 382.579 414.247C382.318 413.986 380.895 414.723 379.417 415.886C375.249 419.165 374.068 418.324 377.999 414.877L381.499 411.807L377.749 413.985C373.327 416.553 372.895 415.89 376.749 412.448C378.261 411.096 378.757 410.249 377.85 410.564C375.886 411.246 374.457 409.453 376.137 408.415C376.918 407.932 377.038 408.127 376.499 409C375.963 409.867 376.081 410.068 376.847 409.594C377.716 409.057 377.721 408.334 376.866 406.689C375.271 403.621 375.273 403.622 374.167 405.664ZM189.499 415C189.839 415.55 190.315 416 190.558 416C190.801 416 190.999 415.55 190.999 415C190.999 414.45 190.522 414 189.94 414C189.358 414 189.159 414.45 189.499 415ZM94.9987 416.5C95.6837 417.325 96.6937 418 97.2437 418C97.8017 418 97.6927 417.337 96.9987 416.5C96.3137 415.675 95.3037 415 94.7537 415C94.1957 415 94.3047 415.663 94.9987 416.5ZM184.732 420.124C185.411 420.808 186.218 421.115 186.525 420.807C186.833 420.499 186.278 419.94 185.292 419.564C183.867 419.022 183.752 419.136 184.732 420.124ZM382.499 423C380.189 425.553 381.736 425.553 384.999 423C386.819 421.576 387.065 421.038 385.904 421.022C385.027 421.01 383.494 421.9 382.499 423ZM83.9987 425.924C83.9987 426.398 84.6737 427.045 85.4987 427.362C86.3237 427.678 86.9987 427.549 86.9987 427.076C86.9987 426.602 86.3237 425.955 85.4987 425.638C84.6737 425.322 83.9987 425.451 83.9987 425.924ZM143.249 439.662C140.979 440.578 141.924 441.657 149.249 446.515C153.237 449.159 160.638 454.4 165.697 458.161C170.755 461.923 175.368 465 175.947 465C176.525 465 176.999 464.188 176.999 463.195C176.999 462.06 173.83 459.182 168.464 455.445C163.77 452.175 156.682 447.147 152.714 444.27C148.746 441.394 145.274 439.067 144.999 439.099C144.724 439.132 143.937 439.385 143.249 439.662ZM312.999 449.612C305.024 455.343 297.896 460.404 297.159 460.857C296.421 461.31 295.971 462.684 296.159 463.91C296.465 465.917 298.17 464.94 313.333 454.069C322.591 447.431 330.691 441.986 331.333 441.968C331.974 441.951 331.625 441.276 330.558 440.468C329.49 439.661 328.365 439.043 328.058 439.095C327.75 439.148 320.974 443.88 312.999 449.612ZM144.499 441C144.839 441.55 145.567 442 146.117 442C146.667 442 146.839 441.55 146.499 441C146.159 440.45 145.431 440 144.881 440C144.331 440 144.159 440.45 144.499 441ZM118.354 465.559C125.524 468.899 126.348 469.079 127.795 467.633C129.91 465.518 129.299 465.106 122.385 463.988C119.148 463.464 115.149 462.78 113.499 462.468C111.849 462.155 114.034 463.546 118.354 465.559ZM355.499 463.033C353.299 463.483 349.807 464.131 347.739 464.473C344.352 465.033 344.085 465.293 345.05 467.095C346.278 469.389 347.154 469.224 356.413 464.955C362.674 462.067 362.456 461.609 355.499 463.033ZM0.46174 516C0.46174 543.225 0.59074 554.362 0.74774 540.75C0.90474 527.138 0.90474 504.863 0.74774 491.25C0.59074 477.637 0.46174 488.775 0.46174 516ZM355.078 470.583C355.126 471.748 355.363 471.985 355.682 471.188C355.971 470.466 355.935 469.603 355.603 469.271C355.271 468.939 355.035 469.529 355.078 470.583ZM155.309 482.634C154.875 483.765 156.192 485.656 159.591 488.783C162.29 491.266 166.974 495.582 169.999 498.374C176.865 504.712 178.984 507.745 178.992 511.25C178.998 513.451 179.458 514 181.299 514C186.231 514 187.347 518.437 184.044 524.911C182.04 528.84 178.366 530.785 176.516 528.896C175.855 528.22 175.849 527.923 176.499 528.047C179.315 528.582 180.782 527.678 182.314 524.466C184.581 519.711 184.435 517.304 181.792 515.889C179.944 514.9 179.416 515 178.542 516.509C174.333 523.772 167.081 528.556 162.144 527.327C159.776 526.737 159.641 526.841 160.857 528.317C162.796 530.671 168.414 531.989 176.499 531.988C184.095 531.987 188.218 530.187 190.646 525.81C192.551 522.378 192.322 512.149 190.247 508.015C188.778 505.086 187.798 504.412 184.111 503.793C178.585 502.866 177.625 502.007 182.082 501.978L185.499 501.956L182.999 499.952C174.173 492.88 157.868 481 156.988 481C156.41 481 155.654 481.735 155.309 482.634ZM304.4 489.129C298.405 493.637 292.227 498.377 290.672 499.662L287.846 502L291.172 502.079C294.309 502.153 294.356 502.205 291.999 502.991C290.624 503.45 288.312 504.085 286.861 504.403C281.86 505.5 279.106 518.439 282.484 524.971C283.301 526.55 285.358 528.831 287.055 530.04C289.816 532.006 291.056 532.189 298.82 531.772C307.244 531.32 312.999 529.677 312.999 527.723C312.999 527.191 312 527.076 310.749 527.464C309.511 527.848 307.374 528.356 305.999 528.595C303.992 528.942 303.874 528.864 305.4 528.198C307.09 527.46 306.946 527.221 304.109 526.045C300.774 524.664 294.999 518.468 294.999 516.272C294.999 514.629 292.868 514.644 290.599 516.303C289.042 517.442 288.958 518.134 289.936 521.767C291.021 525.797 294.455 529.454 296.162 528.399C296.622 528.115 296.999 528.359 296.999 528.941C296.999 531 293.765 529.961 291.016 527.019C288.325 524.137 286.74 518.877 287.757 516.2C288.029 515.485 289.545 514.641 291.125 514.325C293.096 513.931 293.999 513.145 293.999 511.825C293.999 508.058 297.071 504.099 307.503 494.426C317.222 485.413 319.345 482.28 316.4 481.3C315.796 481.099 310.396 484.622 304.4 489.129ZM358.063 507.75L354.016 514.5L360.514 514.796C370.057 515.23 370.476 514.732 366.882 507.244C365.234 503.81 363.486 501 362.998 501C362.509 501 360.289 504.038 358.063 507.75ZM360.201 508.382L358.205 511.764L362.333 512.318C364.603 512.622 366.662 512.67 366.909 512.423C367.598 511.735 364.155 505 363.114 505C362.609 505 361.299 506.522 360.201 508.382ZM133.331 514.422C133.73 515.464 133.397 515.742 132.198 515.367C130.816 514.936 130.862 515.132 132.44 516.418C133.856 517.572 133.991 518.006 132.94 518.022C132.034 518.036 132.427 518.77 133.999 520C135.374 521.076 136.027 521.966 135.449 521.978C134.872 521.99 133.971 521.601 133.449 521.112C131.963 519.724 127.641 518.611 128.38 519.807C128.727 520.369 128.592 520.98 128.08 521.165C127.568 521.349 127.003 522.175 126.824 523C126.645 523.825 125.824 524.789 124.999 525.143C123.236 525.898 122.191 525.469 136.427 529.835C143.447 531.988 146.87 532.604 148.111 531.94C149.077 531.423 151.135 531.041 152.683 531.09C155.381 531.177 155.353 531.222 152.012 532.18C148.286 533.249 148.182 532.96 153.662 536.78C154.785 537.563 154.916 537.879 153.999 537.593C153.174 537.335 146.268 535.071 138.653 532.562C123.167 527.459 120.849 527.184 116.365 529.919C109.056 534.375 106.454 541.096 109.361 548.01C110.75 551.313 114.679 553.786 134.999 564.143C149.575 571.573 157.07 571.486 163.146 563.815C172.723 551.722 163.167 531.804 141.272 518.223C136.593 515.321 133.019 513.611 133.331 514.422ZM336.999 515.038C335.624 516.134 332.024 518.411 328.999 520.099C322.26 523.859 312.079 535.4 308.387 543.464C304.957 550.955 305.385 557.251 309.734 563.301C313.706 568.825 319.128 570.916 325.228 569.277C327.577 568.645 329.881 568.504 330.348 568.963C330.815 569.422 329.807 570.103 328.109 570.476C324.051 571.367 323.694 572.152 325.05 577.191C327.008 584.459 335.53 590.968 343.123 590.994C346.007 591.004 353.246 588.038 354.718 586.243C355.661 585.093 355.927 585.01 355.499 586C355.142 586.825 355.578 586.6 356.468 585.5C357.357 584.4 358.302 583.646 358.567 583.825C358.832 584.004 359.6 583.947 360.274 583.7C361.235 583.347 361.229 582.964 360.249 581.925C358.129 579.678 358.87 578.576 361.145 580.595C363.274 582.486 363.282 582.484 362.145 580.316C360.412 577.011 360.768 576.501 362.966 579.139C364.08 580.477 364.947 580.933 364.966 580.191C364.984 579.471 365.449 579.16 365.999 579.5C366.549 579.84 366.999 579.668 366.999 579.118C366.999 578.568 366.549 577.84 365.999 577.5C365.449 577.16 364.999 576.409 364.999 575.83C364.999 575.252 365.884 575.841 366.966 577.139C369.232 579.859 369.672 578.473 367.467 575.559C364.985 572.277 365.916 571.31 368.505 574.479C370.547 576.977 371.147 577.237 372.22 576.083C373.08 575.157 373.106 574.928 372.299 575.381C371.634 575.755 370.665 575.245 370.125 574.235C369.341 572.771 369.537 572.385 371.128 572.265C372.216 572.183 373.348 572.745 373.643 573.514C374.063 574.61 374.46 574.651 375.484 573.705C376.202 573.042 376.537 572.086 376.23 571.58C375.922 571.074 376.415 570.945 377.323 571.294C379.62 572.176 390.507 565.512 393.779 561.221C395.814 558.553 396.503 556.355 396.783 551.63C397.122 545.914 396.935 545.272 394.018 542.128C391.026 538.904 390.663 538.785 385.694 539.403C378.653 540.278 366.948 546.106 364.914 549.748C363.838 551.675 359.505 554.704 351.414 559.182C335.565 567.956 332.918 569.252 332.239 568.574C331.455 567.789 330.763 568.203 347.266 559.565C363.977 550.817 365.572 549.094 365.114 540.285C364.974 537.591 359.738 531.434 355.9 529.449C351.696 527.275 348.717 527.709 334.499 532.569C317.364 538.427 316.867 538.545 321.27 535.72L325.04 533.301L321.77 532.253C319.071 531.388 318.904 531.186 320.815 531.102C322.088 531.046 323.903 531.413 324.847 531.918C326.043 532.559 330.025 531.787 337.995 529.371C350.231 525.661 351.707 525.009 347.916 524.985C346.454 524.975 345.965 524.673 346.68 524.219C347.546 523.667 347.39 522.844 346.092 521.124C344.367 518.836 344.247 518.82 341.069 520.464C339.278 521.39 337.588 521.922 337.313 521.647C337.038 521.372 338.205 520.428 339.906 519.548C343.26 517.813 344.07 516.686 341.249 517.679C339.874 518.162 339.75 518.022 340.671 517.025C341.809 515.793 341.437 512.977 340.142 513.022C339.788 513.034 338.374 513.941 336.999 515.038ZM342.999 521C342.098 521.582 341.974 521.975 342.69 521.985C343.345 521.993 344.159 521.55 344.499 521C345.266 519.758 344.92 519.758 342.999 521ZM342.999 524.089C340.845 525.851 340.803 525.986 342.693 525.062C343.9 524.472 345.164 523.542 345.502 522.995C346.405 521.534 345.799 521.799 342.999 524.089ZM128.082 523.365C128.312 523.565 129.624 524.265 130.999 524.92C133.356 526.042 133.388 526.022 131.558 524.555C129.965 523.279 126.71 522.164 128.082 523.365ZM166.749 528.662C167.437 528.94 168.562 528.94 169.249 528.662C169.937 528.385 169.374 528.158 167.999 528.158C166.624 528.158 166.062 528.385 166.749 528.662ZM170.999 529C170.999 529.55 171.674 530 172.499 530C173.324 530 173.999 529.55 173.999 529C173.999 528.45 173.324 528 172.499 528C171.674 528 170.999 528.45 170.999 529ZM299.499 529C299.839 529.55 300.54 530 301.058 530C301.576 530 301.999 529.55 301.999 529C301.999 528.45 301.297 528 300.44 528C299.583 528 299.159 528.45 299.499 529ZM116.38 531.91C111.028 535.173 109.267 544.063 113.249 547.715C116.656 550.84 125.562 555 128.847 555C132.707 555 136.999 549.562 136.999 544.67C136.999 541.958 136.233 540.534 133.464 538.104C131.52 536.397 129.608 535.014 129.214 535.032C128.821 535.049 129.686 536.109 131.136 537.387C136.356 541.985 136.876 545.506 133.104 550.719C132.125 552.072 130.415 552.949 128.72 552.969C125.313 553.007 114.129 547.502 113.317 545.387C112.557 543.406 114.739 536.015 116.753 533.75C117.609 532.788 119.477 531.993 120.904 531.985C122.947 531.973 123.18 531.763 121.999 531C120.006 529.712 119.975 529.717 116.38 531.91ZM350.999 531C349.809 531.769 350.016 531.976 351.999 532C355.711 532.045 356.866 533.145 358.942 538.609C361.262 544.714 360.724 545.836 353.52 549.901C346.654 553.776 342.858 553.907 340.072 550.365C336.608 545.962 337.315 541.759 342.249 537.409C346.288 533.849 346.325 533.767 342.999 535.769C341.074 536.928 338.678 538.956 337.674 540.277C333.962 545.16 338.681 555 344.734 555C348.189 555 360.634 548.551 361.96 546.073C363.583 543.04 361.95 537.091 358.487 533.418C355.14 529.87 353.545 529.355 350.999 531ZM79.3987 542.4C76.4477 545.351 75.9987 546.454 75.9987 550.75C75.9987 554.539 76.6707 556.7 78.8657 559.968C81.8387 564.394 90.3567 570.515 92.0697 569.456C92.6077 569.124 92.9247 569.447 92.7737 570.176C92.5907 571.056 93.4287 571.436 95.2717 571.309C96.7967 571.203 97.8017 571.51 97.5047 571.99C96.7257 573.25 98.7757 574.257 100.249 573.337C102.065 572.203 103.999 572.044 103.999 573.029C103.999 573.498 103.549 574.16 102.999 574.5C102.449 574.84 102.011 575.654 102.026 576.309C102.041 576.964 103.438 575.925 105.13 574L108.207 570.5L106.103 574.307C103.443 579.12 103.452 579.795 106.145 577.405C108.27 575.518 108.279 575.52 107.185 577.608C106.23 579.431 106.438 579.879 108.717 580.917C110.954 581.937 111.497 581.862 112.303 580.421C113.107 578.985 113.536 579.322 115.092 582.612C116.104 584.75 116.946 586.176 116.965 585.78C116.984 585.384 118.58 586.133 120.512 587.444C130.248 594.052 143.674 589.778 147.649 578.807C149.919 572.54 149.476 571.389 144.249 569.971C139.243 568.612 129.216 563.942 124.999 561.006C123.624 560.048 119.67 557.801 116.212 556.012C112.316 553.996 109.376 551.696 108.48 549.963C106.651 546.426 98.0977 541.548 91.1997 540.107C83.6537 538.531 83.1747 538.624 79.3987 542.4ZM81.2977 543.25C76.4707 548.55 75.8407 552.563 79.3227 555.835C82.0227 558.371 92.1137 564.584 95.0427 565.514C98.1747 566.508 103.999 560.186 103.999 555.791C103.999 551.843 102.824 550.01 98.0547 546.52C93.0517 542.86 92.0747 543.428 96.8007 547.25C102.44 551.811 103.435 554.279 101.381 558.608C98.8157 564.013 96.7377 564.597 90.6687 561.62C87.8247 560.224 83.9447 557.781 82.0457 556.19C78.6297 553.328 78.6057 553.254 79.8367 549.145C81.3367 544.139 84.8197 541.509 88.7417 542.42C90.7857 542.895 91.1107 542.798 89.9987 542.046C87.4637 540.33 83.4517 540.886 81.2977 543.25ZM383.999 542.014C382.913 542.726 383.329 542.839 385.503 542.423C389.278 541.701 392.814 545.085 393.647 550.217C394.349 554.545 392.611 556.375 383.319 561.091L376.763 564.419L373.881 561.194C369.623 556.428 370.023 553.155 375.477 548.127C377.939 545.857 379.522 544 378.994 544C376.853 544 368.999 552.709 369.003 555.079C369.008 558.189 372.267 563.538 375.072 565.039C377.734 566.464 379.72 565.665 389.249 559.332C395.242 555.349 395.999 554.487 395.999 551.646C395.999 544.469 388.92 538.788 383.999 542.014ZM74.4987 562.208C68.6487 565.563 68.6247 569.783 74.4197 575.579C79.4987 580.658 82.0007 581.084 84.9257 577.365C88.1147 573.311 87.5147 571.098 81.7937 565.81C78.9307 563.165 76.5687 561.014 76.5437 561.03C76.5187 561.047 75.5987 561.577 74.4987 562.208ZM391.249 565.793C388.361 568.382 385.998 571.331 385.999 572.346C385.999 575.366 389.893 580 392.43 580C394.949 580 403.999 571.12 403.999 568.649C403.999 567.053 398.684 560.975 397.348 561.043C396.881 561.067 394.136 563.205 391.249 565.793ZM0.48074 671.5C0.48074 729.8 0.60074 753.797 0.74874 724.827C0.89574 695.856 0.89574 648.156 0.74874 618.827C0.60174 589.497 0.48074 613.2 0.48074 671.5ZM110.979 578.524C110.283 579.362 109.967 580.301 110.275 580.61C110.584 580.919 111.339 580.233 111.953 579.086C113.263 576.638 112.777 576.358 110.979 578.524ZM233.575 578.25C232.642 581.474 225.999 618.779 225.999 620.793C225.999 621.033 224.761 620.418 223.249 619.427C217.668 615.767 203.811 608 202.861 608C200.849 608 203.139 609.797 211.203 614.545C215.766 617.232 221.041 620.469 222.925 621.739C224.809 623.01 226.652 623.7 227.021 623.274C227.691 622.501 228.363 618.937 232.04 596.666C233.115 590.157 234.352 584.192 234.789 583.411C235.798 581.608 239.907 594.432 243.098 609.346C244.375 615.312 245.887 620.791 246.459 621.522C247.291 622.586 248.997 621.95 254.999 618.336C259.124 615.853 263.961 613.18 265.749 612.397C267.537 611.614 268.999 610.507 268.999 609.938C268.999 608.946 258.387 614.354 252.845 618.172C251.385 619.177 249.71 620 249.123 620C248.535 620 247.343 617.413 246.473 614.25C245.603 611.087 244.28 606.7 243.534 604.5C242.788 602.3 241.895 598.832 241.551 596.793C241.206 594.754 239.785 589.466 238.393 585.043C236.03 577.536 234.433 575.284 233.575 578.25ZM42.4987 582.412C38.4317 584.219 35.5167 587.574 32.9277 593.427C28.7897 602.783 32.4767 613.673 41.1827 617.807C51.4127 622.666 62.0087 619.682 67.6557 610.354C70.4107 605.803 70.8277 597.503 68.5247 593.051C66.2807 588.711 59.3947 583.337 54.4977 582.104C48.8827 580.69 46.2187 580.758 42.4987 582.412ZM417.758 582.423C404.786 587.053 399.491 598.785 405.441 609.716C409.223 616.665 414.671 620 422.239 620C428.356 620 434.016 617.853 437.211 614.32C441.335 609.759 443.191 600.374 440.931 595.5C440.225 593.976 440.141 594.27 440.577 596.733C441.174 600.101 438.677 610.463 437.021 611.486C436.498 611.81 436.779 610.377 437.646 608.302C439.692 603.405 438.879 596.268 435.606 590.413C432.606 585.044 433.944 584.553 437.463 589.732C438.858 591.785 439.999 593.012 439.999 592.46C439.999 590.447 433.562 583.715 430.356 582.376C426.285 580.675 422.618 580.688 417.758 582.423ZM112.574 582.879C112.264 583.38 112.683 584.048 113.505 584.364C114.327 584.679 114.999 584.528 114.999 584.028C114.999 582.672 113.222 581.83 112.574 582.879ZM38.3457 586.804C37.7437 587.187 36.2957 589.075 35.1287 591C32.7947 594.849 32.1857 604.315 34.0987 607C34.9097 608.139 35.0287 607.701 34.5937 605.181C33.8367 600.791 35.5637 593.194 38.1217 589.671C40.2157 586.786 40.3127 585.555 38.3457 586.804ZM38.8987 590.661C37.4307 593.036 36.5277 596.285 36.3277 599.911L36.0187 605.5L37.5187 599.601C38.3447 596.356 39.9517 592.194 41.0907 590.351C42.2297 588.508 42.7117 587 42.1617 587C41.6117 587 40.1437 588.647 38.8987 590.661ZM43.0027 589.496C41.7127 590.869 40.9747 592.31 41.3637 592.698C42.0127 593.347 46.9987 588.786 46.9987 587.544C46.9987 586.284 45.1897 587.168 43.0027 589.496ZM428.173 589.945C430.665 593.1 432.581 593.96 431.637 591.5C431.321 590.675 431.257 590 431.495 590C432.44 590 434.425 594.783 435.647 600L436.934 605.5L436.67 599.484C436.472 594.992 435.8 592.649 434.014 590.234C431.835 587.287 428.96 585.51 430.561 588.1C431.055 588.899 430.68 588.899 429.185 588.1C425.921 586.353 425.681 586.79 428.173 589.945ZM122.999 597.05C122.999 598.177 122.267 600.539 121.372 602.3L119.745 605.5L122.372 603.076C124.971 600.677 126.115 595 123.999 595C123.449 595 122.999 595.922 122.999 597.05ZM184.999 598.02C184.999 599.836 197.385 619.879 198.198 619.377C199.281 618.708 195.25 611.034 193.454 610.344C192.654 610.037 191.999 609.034 191.999 608.116C191.999 607.197 191.278 605.416 190.397 604.158C187.917 600.617 189.14 600.741 194.888 604.611C197.791 606.566 200.466 607.851 200.833 607.466C201.199 607.081 200.657 606.256 199.627 605.633C198.598 605.01 195.095 602.813 191.843 600.75C185.407 596.667 184.999 596.505 184.999 598.02ZM283.499 601.201C276.369 604.776 270.831 608.165 271.319 608.654C271.582 608.916 274.529 607.751 277.869 606.065C281.209 604.379 284.166 603 284.439 603C285.403 603 283.613 606.573 279.329 613.197C276.948 616.88 274.999 620.683 274.999 621.647C274.999 624.168 276.289 622.573 280.778 614.5C282.918 610.65 285.665 605.852 286.881 603.838C288.098 601.824 288.734 599.955 288.296 599.686C287.858 599.416 285.699 600.098 283.499 601.201ZM34.9987 609.754C34.9987 611.001 38.9187 615.847 38.9657 614.658C38.9837 614.194 38.0987 612.671 36.9987 611.273C35.8987 609.874 34.9987 609.191 34.9987 609.754ZM200.016 623.545C200.584 625.039 201.877 627.44 202.89 628.881C203.902 630.321 205.47 632.949 206.374 634.719L208.019 637.938L202.527 639.535C197.467 641.006 194.307 643 197.036 643C198.835 643 209.408 639.862 210.264 639.074C210.685 638.687 208.751 634.574 205.966 629.935C200.851 621.413 198.07 618.426 200.016 623.545ZM268.177 631.303C265.879 635.319 263.999 639.088 263.999 639.678C263.999 640.941 268.645 642 274.183 642C276.551 642 277.871 641.602 277.499 641C277.159 640.45 274.658 640 271.94 640C268.652 640 267 639.582 267.002 638.75C267.003 638.063 268.578 634.89 270.502 631.7C272.425 628.51 273.999 625.472 273.999 624.95C273.999 622.45 271.986 624.647 268.177 631.303ZM280.999 641.842C281.824 642.338 286.354 643.043 291.065 643.409C295.776 643.775 300.946 644.426 302.554 644.856L305.477 645.638L302.076 646.823C297.244 648.508 298.936 649.386 304.152 647.901C308.538 646.652 310.731 645.399 309.931 644.598C309.413 644.081 296.333 642.371 286.499 641.536C282.17 641.168 280.071 641.285 280.999 641.842ZM188.499 644.526C186.299 645.279 181.237 646.862 177.249 648.045C173.261 649.227 169.999 650.506 169.999 650.887C169.999 651.593 194.239 657.477 201.499 658.533C209.843 659.747 210.014 659.831 209.082 662.262C208.61 663.493 205.473 670.252 202.111 677.282C195.756 690.572 195.396 691.49 196.919 690.55C199.387 689.024 212.623 660.819 211.627 659.207C211.313 658.699 207.556 657.732 203.278 657.057C192.358 655.336 174.936 650.91 175.498 650.001C175.757 649.583 179.359 648.442 183.503 647.467C187.647 646.491 191.817 645.101 192.768 644.378C194.942 642.727 193.624 642.773 188.499 644.526ZM294.98 649.012C292.985 650.244 294.47 651.395 296.552 650.23C297.489 649.706 297.839 649.019 297.33 648.704C296.82 648.39 295.763 648.528 294.98 649.012ZM289.499 650.508C288.949 650.7 283.774 652.286 277.999 654.033C272.224 655.779 266.984 657.724 266.356 658.354C265.255 659.457 269.964 668.246 282.369 688.25C284.331 691.413 285.717 694 285.45 694C284.74 694 267.943 684.465 259.695 679.38C255.788 676.971 252.04 675 251.366 675C250.15 675 248.113 680.894 246.009 690.5C245.051 694.871 239.392 710.88 238.459 711.857C238.271 712.054 237.374 709.658 236.466 706.533C234.183 698.681 233.647 700.11 235.767 708.394C237.524 715.255 238.641 716.709 240.075 714C241.187 711.899 247.501 691.816 249.508 684C250.426 680.425 251.315 677.359 251.484 677.187C251.653 677.015 256.675 679.664 262.645 683.073C268.615 686.482 275.974 690.621 278.999 692.27C282.024 693.919 284.927 695.658 285.449 696.134C286.694 697.269 288.999 697.247 288.999 696.1C288.999 695.382 281.519 682.719 272.717 668.538C272.047 667.459 270.519 664.932 269.322 662.924L267.145 659.272L270.822 658.169C284.982 653.922 291.999 651.478 291.999 650.794C291.999 649.979 291.255 649.894 289.499 650.508ZM211.442 685.297C203.773 690.411 196.978 694.911 196.342 695.299C195.55 695.781 195.357 695.293 195.728 693.751C196.42 690.883 194.814 692.477 193.21 696.25C191.504 700.266 193.063 699.793 201.847 693.633C206.055 690.681 210.902 687.551 212.616 686.676C214.33 685.802 217.87 683.455 220.483 681.46C223.096 679.466 225.575 678.209 225.992 678.667C226.41 679.125 227.753 682.566 228.978 686.314C230.203 690.062 231.449 692.884 231.747 692.585C232.682 691.65 227.782 676 226.553 676C225.911 676 219.111 680.184 211.442 685.297ZM232.085 694.5C232.189 696.394 233.855 699.584 233.913 698C233.944 697.175 233.532 695.825 232.999 695C232.466 694.175 232.054 693.95 232.085 694.5ZM125.999 763.913C119.536 764.497 119.497 764.519 119.186 767.75C118.82 771.537 120.094 771.942 122.333 768.75C123.683 766.825 124.06 766.717 124.94 768C125.505 768.825 125.975 772.035 125.984 775.133C125.997 780.022 125.721 780.839 123.898 781.316C120.298 782.258 122.731 783.753 127.647 783.621C130.403 783.546 132.505 782.981 132.75 782.247C132.979 781.561 132.453 781 131.582 781C130.289 781 129.999 779.719 129.999 774C129.999 766.902 131.01 765.284 133.056 769.107C134.543 771.885 136.264 770.191 135.827 766.38C135.457 763.154 135.18 763.085 125.999 763.913ZM167.243 764.526C159.518 769.99 160.897 781.952 169.437 783.554C173.796 784.372 176.813 782.689 178.584 778.452C180.679 773.437 180.321 770.381 177.249 767.051C173.805 763.319 170.227 762.416 167.243 764.526ZM195.506 766.293C192.676 769.123 191.999 770.565 191.999 773.765C191.999 778.803 194.972 782.717 199.437 783.554C203.796 784.372 206.813 782.689 208.584 778.452C210.679 773.437 210.321 770.381 207.249 767.051C202.88 762.317 199.688 762.111 195.506 766.293ZM210.749 763.566C209.479 764.866 209.907 765.743 212.093 766.314C214.031 766.821 214.145 767.368 213.637 773.681C213.336 777.431 213.069 780.612 213.044 780.75C213.019 780.888 212.286 781 211.416 781C210.545 781 210.02 781.563 210.249 782.25C210.478 782.938 211.416 783.462 212.332 783.417C223.346 782.866 222.701 783.036 220.249 781.326C218.8 780.315 217.999 778.731 217.999 776.878C217.999 773.233 219.686 773.166 221.243 776.75C222.429 779.479 222.44 779.467 222.781 775.146C223.161 770.322 222.566 769.033 220.782 770.817C219.054 772.545 217.999 772.266 217.999 770.082C217.999 764.611 220.655 763.565 224.58 767.49C226.586 769.496 227.181 769.69 227.641 768.49C228.624 765.93 227.182 764 224.28 763.991C222.751 763.987 219.249 763.716 216.499 763.39C213.749 763.065 211.161 763.144 210.749 763.566ZM242.761 764.073C237.829 766.947 238.638 773.278 244.075 774.365C248.104 775.171 249.999 776.693 249.999 779.122C249.999 782.335 245.219 781.55 243.202 778.006C240.868 773.903 239.999 774.241 240.001 779.25L240.003 783.5L244.251 783.417C250.556 783.293 250.653 783.25 252.018 779.955C253.808 775.633 252.203 772.718 247.11 771.037C244.276 770.101 242.999 769.108 242.999 767.84C242.999 765.113 246.651 765.539 248.585 768.491C250.597 771.562 251.999 770.877 251.999 766.824C251.999 764.26 251.677 763.851 250 764.289C248.901 764.577 247.749 764.404 247.441 763.906C246.718 762.736 244.948 762.799 242.761 764.073ZM282.399 766.4C279.629 769.17 278.999 770.566 278.999 773.935C278.999 779.333 281.331 782.784 285.509 783.568C290.649 784.532 292.993 783.268 295.164 778.361C297.682 772.669 296.435 768.05 291.567 765.042C287.153 762.314 286.368 762.431 282.399 766.4ZM297.027 763.943C295.757 764.762 295.783 764.98 297.215 765.53C299.265 766.316 300.594 775.352 299.196 779C297.664 783 297.791 783.258 301.461 783.587L304.947 783.9L304.337 779.45C303.79 775.458 303.934 775 305.735 775C307.299 775 307.883 775.87 308.372 778.933C309.101 783.492 312.165 785.262 314.788 782.64C316.209 781.218 316.196 781.013 314.64 780.416C313.697 780.054 312.231 778.416 311.384 776.777C309.941 773.988 309.976 773.654 311.921 771.584C314.607 768.724 314.542 767.402 311.619 765.487C308.777 763.625 299.106 762.602 297.027 763.943ZM318.543 763.849C316.602 764.664 316.602 764.679 318.543 765.768C320.189 766.692 320.484 767.9 320.407 773.39C320.357 776.978 319.798 780.537 319.166 781.299C317.635 783.144 318.672 784.002 322.416 783.989C329.723 783.963 333.167 782.772 335.1 779.602C337.798 775.178 337.512 771.023 334.249 767.215C331.926 764.504 330.646 763.93 325.999 763.517C322.974 763.248 319.619 763.397 318.543 763.849ZM342.227 764.23C337.337 766.587 338.582 773.267 344.118 774.374C348.106 775.171 349.999 776.7 349.999 779.122C349.999 780.524 349.27 781 347.12 781C344.865 781 343.973 780.351 342.999 778C342.316 776.35 341.381 775 340.923 775C339.939 775 338.572 781.502 339.307 782.685C339.586 783.133 341.942 783.5 344.543 783.5C348.537 783.5 349.594 783.072 351.33 780.752C354.047 777.121 352.782 773.077 348.499 771.697C344.711 770.478 342.999 769.133 342.999 767.378C342.999 765.072 346.848 765.84 348.585 768.491C350.597 771.562 351.999 770.877 351.999 766.824C351.999 764.26 351.677 763.851 350 764.289C348.901 764.577 347.749 764.404 347.441 763.906C346.726 762.749 345.091 762.85 342.227 764.23ZM137.577 764.756C137.266 765.066 137.894 765.939 138.973 766.694C140.113 767.493 141.825 771.092 143.06 775.284C144.229 779.253 145.557 782.891 146.012 783.37C146.772 784.169 148.98 778.154 148.993 775.25C149.007 772.297 150.854 774.366 151.895 778.5C152.518 780.975 153.455 783 153.978 783C155.388 783 156.848 779.796 157.61 775.032C157.981 772.713 159.345 769.554 160.642 768.013C161.938 766.472 162.999 765.001 162.999 764.744C162.999 764.069 138.252 764.081 137.577 764.756ZM253.999 764.89C253.999 765.33 254.878 766.485 255.951 767.457C257.025 768.429 258.887 772.537 260.089 776.586C261.291 780.635 262.663 783.708 263.137 783.414C263.612 783.121 264.502 780.889 265.115 778.453C266.385 773.41 267.478 773.411 268.424 778.454C269.736 785.446 272.141 784.086 274.14 775.221C274.812 772.241 276.368 768.904 277.712 767.559C279.023 766.249 279.736 764.964 279.297 764.703C277.907 763.877 253.999 764.054 253.999 764.89ZM168.971 766.533C167.207 768.659 166.529 777.253 167.921 779.854C169.187 782.22 173.395 782.787 174.647 780.76C175.803 778.889 175.253 768.012 173.921 766.406C172.401 764.575 170.558 764.622 168.971 766.533ZM199.173 765.871C197.498 766.933 196.545 773.768 197.421 778.437C198.005 781.547 198.458 782 200.985 782C204.753 782 205.296 780.942 205.194 773.789C205.086 766.171 203.009 763.44 199.173 765.871ZM285.034 766.934C283.795 769.25 283.682 778.952 284.873 780.83C285.352 781.586 286.965 782.018 288.608 781.83C291.369 781.515 291.512 781.249 291.793 775.932C291.955 772.87 291.629 769.157 291.068 767.682C289.857 764.497 286.558 764.088 285.034 766.934ZM145.657 766.675C144.714 767.618 144.842 769.459 146.074 772.685C147.074 775.304 147.24 775.375 148.468 773.704C149.194 772.715 149.561 771.043 149.285 769.986C148.683 767.682 146.574 765.758 145.657 766.675ZM262.014 769.167C262.036 773.807 263.268 775.585 265.009 773.488C265.958 772.344 266.077 771.128 265.421 769.272C264.01 765.281 261.996 765.219 262.014 769.167ZM303.642 766.769C303.341 767.255 303.357 768.655 303.678 769.879C304.087 771.445 304.889 772.015 306.379 771.802C309.395 771.372 309.364 766.623 306.343 766.193C305.158 766.024 303.942 766.283 303.642 766.769ZM324.818 767.25C324.601 767.938 324.591 771.538 324.797 775.25C325.147 781.598 325.312 782 327.561 782C331.067 782 333.386 777.925 332.718 772.94C332.421 770.73 331.633 768.264 330.966 767.461C329.484 765.674 325.36 765.533 324.818 767.25ZM153.537 770.25C153.921 772.038 154.463 773.886 154.742 774.357C155.541 775.707 156.967 772.779 156.984 769.75C156.996 767.627 156.525 767 154.92 767C153.097 767 152.926 767.402 153.537 770.25ZM270.099 768.75C270.154 769.712 270.54 771.625 270.958 773L271.718 775.5L272.859 772.685C274.511 768.607 274.268 767 271.999 767C270.723 767 270.035 767.633 270.099 768.75ZM0.32674 784.5C0.33174 788.35 0.51174 789.802 0.72874 787.728C0.94474 785.653 0.94174 782.503 0.72074 780.728C0.49974 778.952 0.32274 780.65 0.32674 784.5Z" fill="black"/>
</svg>
