<svg width="471" height="793" viewBox="0 0 471 793" fill="none" xmlns="http://www.w3.org/2000/svg">
<path fill-rule="evenodd" clip-rule="evenodd" d="M0.607857 1.582C-0.0781429 3.369 -0.0851429 792.087 0.600857 790.438C0.843857 789.853 1.14586 779.953 1.27186 768.438L1.50086 747.5L59.5009 747.511C111.446 747.521 218.575 748.167 400.001 749.563C433.826 749.823 462.963 750.028 464.751 750.018L468.001 750V763C468.001 771.945 468.351 776 469.123 776C469.919 776 469.897 776.421 469.048 777.443C468.39 778.237 467.923 781.274 468.011 784.193C468.099 787.112 468.133 789.95 468.086 790.5C468.03 791.164 390.08 791.476 236.251 791.428C108.789 791.388 9.22586 791.618 15.0009 791.938C20.7759 792.259 125.288 792.646 247.251 792.799C446.234 793.047 469.001 792.918 469.001 791.538C469.001 790.692 469.451 790 470.001 790C470.666 790 470.951 657.85 470.851 395.25C470.769 178.137 470.561 1.625 470.389 3C470.216 4.375 469.853 130.15 469.581 282.5C469.309 434.85 468.83 568.439 468.516 579.364C468.128 592.878 468.29 599.643 469.022 600.525C469.767 601.423 469.776 602.021 469.052 602.468C467.514 603.419 467.81 705.004 469.357 706.913C470.224 707.984 470.199 708.427 469.251 708.746C468.308 709.063 468.001 713.941 468.001 728.583V748H462.501C459.476 748 457.001 747.604 457.001 747.121C457.001 746.637 458.126 743.784 459.501 740.781C465.489 727.701 466.217 722.189 466.341 689C466.422 667.167 466.098 657.305 465.201 654.295C463.007 646.933 459.518 645.375 457.102 650.678C456.014 653.066 455.806 653.133 454.153 651.638C452.287 649.949 449.581 642.276 448.463 635.5C448.099 633.3 446.947 628.64 445.902 625.145C444.856 621.649 444.001 617.46 444.001 615.836C444.001 614.211 443.595 613.133 443.099 613.439C442.603 613.746 441.268 612.423 440.133 610.499C438.997 608.574 437.629 607 437.091 607C435.541 607 433.001 611.22 433.001 613.796C433.001 617.846 429.821 615.936 425.831 609.49C423.041 604.983 422.11 602.386 422.069 599C421.942 588.462 429.494 566.789 438.745 551.14C443.561 542.995 444.013 540.103 439.281 547.712C427.54 566.592 422.39 579.221 421.324 591.75C420.985 595.738 420.436 598.969 420.104 598.93C419.772 598.892 416.351 594.559 412.501 589.301C408.651 584.044 404.205 578.788 402.62 577.621C401.036 576.455 398.111 573.708 396.12 571.517C389.293 564.004 384.915 560 383.53 560C382.768 560 381.427 560.717 380.552 561.592C379.202 562.941 379.033 565.22 379.441 576.511C379.706 583.841 380.221 591.112 380.586 592.669C381.362 595.979 385.189 609.314 387.424 616.5C389.713 623.86 389.533 625.131 386.251 624.788C383.645 624.515 383.485 624.74 383.203 629.09C383.014 631.988 383.66 635.598 384.953 638.878C386.079 641.736 387.001 645.371 387.001 646.955C387.001 650.558 387.904 653 389.237 653C390.655 653 389.43 644.561 386.979 637.435C385.891 634.274 385.001 630.624 385.001 629.324C385.001 627.31 385.366 627.053 387.476 627.583C389.478 628.086 390.177 627.708 391.135 625.606C392.37 622.895 392.511 623.507 384.526 597C381.988 588.575 380.169 563.632 382.01 562.495C383.379 561.649 387.442 564.981 391.463 570.246C393.287 572.636 396.426 575.695 398.438 577.045C402.24 579.596 411.835 591.876 418.593 602.839C427.306 616.974 428.482 618.497 430.945 618.845C433.901 619.262 436.001 616.755 436.001 612.809C436.001 608.877 437.387 609.312 439.452 613.892C440.632 616.508 440.994 618.885 440.557 621.142C439.99 624.071 440.079 624.286 441.258 622.827C442.465 621.332 442.738 621.6 443.806 625.327C445.703 631.939 445.58 633.111 442.253 640.107C438.553 647.887 437.144 652.647 438.855 651.59C439.485 651.201 440.001 651.385 440.001 652C440.001 654.142 442.056 651.825 444.587 646.83C448.296 639.511 448.734 641.678 445.089 649.315C443.391 652.874 442.001 656.114 442.001 656.515C442.001 658.287 445.313 654.262 446.692 650.813C447.529 648.723 448.611 647.259 449.097 647.559C449.583 647.86 448.835 650.368 447.434 653.132C444.255 659.406 444.794 662.004 448.082 656.25C449.412 653.921 450.838 652.012 451.251 652.008C452.365 651.996 452.229 652.397 449.513 657.148C446.863 661.783 446.511 663 447.817 663C448.266 663 449.644 661.2 450.881 659C453.86 653.699 455.412 653.864 453.011 659.226C451.971 661.55 451.354 663.687 451.642 663.974C452.462 664.794 455.066 660.789 455.688 657.75C455.998 656.237 456.666 655 457.174 655C457.682 655 458.716 653.538 459.472 651.75L460.846 648.5L461.949 651.381C464.417 657.83 464.809 663.663 464.471 688.925C464.075 718.515 463.904 720.267 460.295 731.5C456.244 744.111 454.507 747 450.981 747C448.029 747 448.001 746.947 448.001 741.404C448.001 736.266 445.702 713.625 442.933 691.5C441.418 679.394 436.392 664.286 428.498 648.112C422.803 636.443 418.639 629.195 404.71 606.712C403.079 604.079 401.523 602.145 401.252 602.415C400.589 603.079 407.105 615.557 413.619 626.096C426.419 646.806 437.805 674.881 439.94 691C443.402 717.136 444.997 732.355 444.999 739.25L445.001 747H442.185C439.975 747 438.913 746.193 437.248 743.25C436.082 741.188 432.956 737.025 430.301 734C422.656 725.287 418.001 719.255 418.001 718.062C418.001 717.456 414.587 713.707 410.415 709.73C403.081 702.74 396.926 693.693 395.462 687.75C394.636 684.397 395.652 684.271 401.098 687.049C405.539 689.315 408.428 688.939 410.063 685.883C411.553 683.101 409.849 678.498 405.249 672.882C403.188 670.364 399.701 665.771 397.501 662.674C392.913 656.215 389.433 654.688 393.117 660.75C394.37 662.813 395.705 664.725 396.082 665C396.46 665.275 399.296 668.841 402.385 672.924C410.123 683.155 409.922 689.671 402.016 684.863C397.756 682.272 393.612 682.714 393.174 685.807C392.555 690.175 398.644 700.559 406.406 708.372C410.456 712.448 415.888 718.87 418.478 722.642C421.068 726.414 423.944 730.175 424.868 731C428.561 734.295 437.001 745.199 437.001 746.675C437.001 748.086 433.563 748.174 403.251 747.538C384.689 747.148 369.349 746.678 369.163 746.493C368.977 746.309 369.696 744.884 370.76 743.329C371.824 741.773 373.892 738.593 375.354 736.262C376.817 733.931 380.864 729.784 384.348 727.046C393.006 720.241 399.129 710.891 398.925 704.782C398.865 702.977 398.586 703.232 397.592 706C396.434 709.221 395.949 709.54 391.501 710C387.124 710.453 386.833 710.636 388.416 711.94C389.803 713.083 390.556 713.134 392.069 712.19C393.117 711.535 394.446 711 395.023 711C397.646 711 391.239 718.232 379.74 728.25C374.34 732.954 372.445 734.024 369.321 734.132L365.501 734.263L369.001 734.914C372.621 735.586 373.069 736.986 370.629 740C369.961 740.825 368.796 742.737 368.039 744.25C366.741 746.845 366.28 747 359.871 747H353.078L351.79 742.75C350.226 737.593 350.304 715.891 351.973 691.523C353.198 673.634 354.19 669.005 359.088 658.31C362.139 651.649 362.656 648.289 359.714 654.244C353.436 666.95 352.855 669.202 351.001 688C347.514 723.361 347.439 733.731 350.591 744.75C351.194 746.858 350.934 747 346.481 747C342.035 747 341.25 746.573 334.364 740.41C325.701 732.656 324.354 733.044 332.743 740.877L338.501 746.253L333.501 745.538C326.596 744.549 315.717 738.62 311.022 733.287C306.867 728.566 301.001 715.835 301.001 711.538C301.001 710.108 301.659 708.685 302.463 708.376C304.803 707.478 305.086 704.896 303.603 697.977C301.986 690.434 300.925 687.505 297.088 680C293.723 673.417 290.681 664.461 291.24 662.784C291.461 662.12 292.952 661.56 294.552 661.539C299.08 661.479 300.22 658.076 298.963 648.381C298.401 644.046 298.194 637.8 298.504 634.5C298.813 631.2 298.708 624.675 298.27 620C297.226 608.844 297.775 601.024 299.653 600.303C301.488 599.599 305.653 603.444 307.993 608C308.981 609.925 312.504 614.087 315.821 617.25C322.178 623.31 326.004 624.577 327.898 621.25C329.385 618.638 332.149 620.779 334.165 626.104C335.538 629.732 335.607 630.849 334.558 632.5C333.86 633.6 331.848 637.875 330.089 642C328.329 646.125 326.015 651.136 324.945 653.136C323.876 655.136 322.987 657.836 322.971 659.136C322.923 662.835 321.424 659.507 319.991 652.519C318.858 647 309.717 623.729 307.826 621.55C305.941 619.379 307.249 624.572 311.389 635.703C317.514 652.172 322.406 672.813 321.545 678.558C321.178 681.001 320.544 683 320.136 683C319.727 683 317.867 681.425 316.001 679.5C311.635 674.995 308.48 674.854 307.626 679.125C306.249 686.01 308.114 698.897 311.009 702.5C311.45 703.05 312.587 706.2 313.535 709.5C315.522 716.419 320.921 728 322.16 728C323.404 728 323.307 727.717 319.506 720.311C317.584 716.565 316.009 712.944 316.006 712.265C316.003 711.586 314.426 706.322 312.501 700.569C308.899 689.802 307.659 678 310.13 678C310.751 678 313.032 679.602 315.199 681.56C321.786 687.511 323.718 685.474 323.901 672.386C324.022 663.743 325.548 655.192 327.349 653.07C328.081 652.206 329.969 648.35 331.546 644.5C334.853 636.423 338.595 630 339.994 630C340.527 630 341.219 631.238 341.532 632.75C342.958 639.64 343.636 641.365 345.319 642.396C346.8 643.303 347.552 643.006 349.527 640.734C350.85 639.213 352.445 636.063 353.071 633.734C356.048 622.669 362.595 612.865 372.001 605.386C373.376 604.293 375.851 601.882 377.501 600.029L380.501 596.659L377.071 599.026C371.608 602.795 359.655 615.209 356.805 620.072C355.369 622.521 353.454 627.075 352.548 630.192C350.937 635.733 347.733 641 345.974 641C345.489 641 344.818 639.312 344.483 637.25C343.466 630.989 342.281 629 339.569 629C337.62 629 336.694 628.097 335.21 624.75C332.731 619.158 330.41 617.202 328.167 618.814C327.251 619.473 325.957 620.276 325.292 620.597C323.678 621.379 314.774 613.618 310.837 608C303.069 596.911 299.079 595.176 296.353 601.7C295.191 604.482 294.951 607.395 295.386 613.45C295.705 617.877 296.086 630.05 296.233 640.5L296.501 659.5H293.719C287.693 659.5 287.975 664.834 294.751 679C298.719 687.294 302.932 699.967 302.984 703.76C302.993 704.453 302.101 705.79 301.001 706.732C298.229 709.105 298.48 712.223 302.188 721.5C306.174 731.47 314.6 740.594 322.501 743.495C325.251 744.504 327.929 745.706 328.451 746.165C328.974 746.624 320.836 747 310.368 747C299.899 747 291.058 746.724 290.721 746.387C290.384 746.05 291.001 744.567 292.091 743.092C293.182 741.617 294.742 737.955 295.559 734.955C297.248 728.75 297.557 714.593 296.088 710.728C295.547 709.307 295.024 704.114 294.924 699.187C294.763 691.233 294.421 689.714 291.87 685.615C290.29 683.077 288.585 681 288.081 681C285.718 681 283.691 682.59 280.918 686.62C277.582 691.469 275.652 692.084 273.921 688.85C272.274 685.773 273.354 679.852 277.549 668.962C285.039 649.52 287.005 643.338 287.631 637.271C288.164 632.099 288.002 630.938 286.678 630.43C283.794 629.323 278.121 632.055 274.666 636.214C272.687 638.597 270.807 639.998 270.141 639.586C268.373 638.494 268.788 630.747 271.405 616C274.026 601.232 274.782 582.613 273.026 576.091C270.877 568.112 265.673 570.095 258.832 581.5C256.522 585.35 253.14 590.376 251.316 592.669C243.21 602.859 241.349 609.405 241.113 628.559C240.933 643.097 237.763 644.678 231.756 633.225C227.65 625.396 225.769 623.804 223.41 626.162C218.848 630.724 218.233 650.582 222.237 664C226.936 679.748 226.767 680.436 219.017 677.102C214.772 675.276 213.578 675.106 212.32 676.151C210.253 677.865 210.988 683.809 214.286 692.061C215.702 695.603 217.736 701.771 218.808 705.769C219.879 709.767 222.048 714.921 223.628 717.222C228.905 724.908 238.067 733.858 246.576 739.638C251.21 742.785 255.001 745.678 255.001 746.066C255.001 746.454 246.339 746.633 235.751 746.464C225.163 746.295 212.332 746.122 207.237 746.079L197.973 746L200.623 741.996C204.956 735.448 207.118 727.484 207.722 715.851C208.175 707.117 207.95 704.301 206.471 700.188C204.691 695.238 204.698 695.079 206.955 687.927C209.131 681.033 209.368 673.021 207.486 669.976C206.694 668.694 200.296 668.713 199.501 670C199.161 670.55 198.01 671 196.942 671C193.777 671 194.55 666.408 199.393 656.441C205.586 643.696 207.241 638.377 206.456 633.734C206.096 631.604 205.172 629.619 204.401 629.323C203.56 629.001 202.995 627.332 202.986 625.143C202.963 619.813 201.78 618.544 197.008 618.734C194.343 618.841 192.716 618.42 192.377 617.538C192.09 616.79 192.757 610.857 193.859 604.353C194.961 597.849 195.679 592.345 195.455 592.121C194.916 591.582 194.641 592.623 191.975 605.278C190.149 613.948 189.931 616.55 190.859 618.588C191.915 620.906 192.382 621.065 196.365 620.468C202.742 619.512 203.193 621.889 197.517 626.541C194.783 628.781 193.328 630.689 193.672 631.585C194.129 632.777 194.852 632.661 197.863 630.916L201.501 628.807L198.007 631.827C193.592 635.642 194.432 636.751 199.255 633.474C203.917 630.306 205.008 630.359 204.971 633.75C204.946 636.093 203.91 637.092 197.976 640.5C194.145 642.7 191.008 644.837 191.006 645.25C190.999 646.338 191.721 646.192 195.301 644.38C198.378 642.822 198.347 642.897 194.501 646.319C191.43 649.052 191.013 649.752 192.706 649.334C193.918 649.035 196.618 647.228 198.706 645.318C201.221 643.017 201.826 642.051 200.501 642.455C199.07 642.892 199.355 642.37 201.501 640.622C205.009 637.766 205.327 637.854 204.428 641.433C203.964 643.282 201.51 645.62 196.449 649.035C189.901 653.453 186.953 656 188.385 656C189.208 656 196.364 651.773 198.257 650.168C199.223 649.349 200.242 648.908 200.522 649.188C200.802 649.468 198.549 651.345 195.516 653.359C189.641 657.26 188.599 658.564 192.251 657.446C194.306 656.817 194.262 656.966 191.751 659.161C187.948 662.484 188.304 663.594 192.367 661.083L195.733 659.003L194.213 664.463C192.975 668.912 192.93 670.209 193.969 671.462C195.606 673.434 197.095 673.4 201.526 671.287C204.648 669.798 205.241 669.765 206.045 671.037C207.779 673.778 207.047 684.235 204.717 690C202.793 694.762 202.093 695.544 199.498 695.827C197.85 696.007 195.272 697.321 193.77 698.746L191.04 701.337L189.52 697.701C188.685 695.701 188.001 692.569 188.001 690.742C188.001 688.915 187.277 684.738 186.393 681.46C185.509 678.182 184.359 673.711 183.837 671.525C182.775 667.07 181.389 665.769 178.623 666.631C176.868 667.178 176.79 666.767 177.433 660.358C177.811 656.586 178.743 649.675 179.503 645C180.263 640.325 181.165 633.8 181.507 630.5C181.85 627.2 183.262 619.017 184.644 612.316C186.026 605.615 187.01 599.09 186.829 597.816C186.241 593.667 181.066 617.225 179.531 631.037C178.708 638.442 177.355 649 176.524 654.5C175.693 660 175.01 667.342 175.007 670.816C174.997 681.424 171.524 684.376 168.026 676.75C166.953 674.413 164.855 668.52 163.362 663.656C160.794 655.291 156.145 647 154.02 647C152.895 647 150.486 642.744 147.272 635.078C146.022 632.095 144.255 628.833 143.345 627.828C141.43 625.712 137.722 625.426 136.188 627.275C134.155 629.724 133.829 638.348 135.429 647.381C137.651 659.936 137.539 667.642 135.113 668.94C132.96 670.092 131.789 674.96 131.731 683C131.697 687.616 132.356 689.705 135.832 696C140.023 703.591 140.847 707.551 138.966 711.066C137.114 714.526 135.377 713.174 133.638 706.918C131.344 698.668 127.078 690.509 121.917 684.5C119.555 681.75 117.02 678.777 116.285 677.892C115.149 676.526 115.336 675.538 117.534 671.302C122.069 662.561 118.824 658.009 110.929 662.037C107.208 663.935 106.578 664.005 105.243 662.67C102.985 660.413 104.192 657.38 112.05 645.565C121.38 631.537 123.811 624.747 120.49 621.991C119.048 620.794 117.018 621.287 108.645 624.87C106.833 625.645 108.982 616.003 113.396 603.552C118.717 588.543 120.31 578.44 117.525 577.371C113.777 575.933 100.833 586.491 89.1709 600.5C85.0499 605.45 80.8869 610.063 79.9189 610.751C78.3669 611.855 78.0799 611.621 77.4729 608.751C76.2609 603.015 71.9699 596.185 68.9059 595.117C66.9929 594.45 65.8669 593.214 65.4429 591.314C64.2569 585.997 63.8669 585.008 62.3639 583.506C61.5359 582.678 59.8489 582 58.6169 582C56.2389 582 51.7769 586.16 50.5729 589.5C49.8679 591.457 49.8129 591.452 48.0029 589.234C46.9859 587.987 45.3929 584.837 44.4639 582.234C39.3609 567.94 33.6719 559.403 26.9709 555.985C22.6219 553.766 18.8509 549.544 15.4699 543.107C10.4609 533.572 6.32686 531.385 3.98786 537.032C3.29686 538.7 2.55686 539.889 2.34386 539.676C1.82186 539.154 1.83386 2.833 2.35586 2.311C2.58186 2.086 48.8749 1.634 105.231 1.308L207.696 0.714L208.374 7.334C209.522 18.538 212.49 23.378 222.492 30.352C223.958 31.374 227.427 32.362 230.237 32.556C233.036 32.749 235.696 33.491 236.148 34.204C236.6 34.917 236.977 35.023 236.986 34.439C236.999 33.521 245.656 30.575 248.501 30.519C249.051 30.509 250.57 29.243 251.877 27.706C253.183 26.17 255.996 24.023 258.127 22.936C260.258 21.849 262.001 20.728 262.001 20.444C262.001 20.161 261.131 20.395 260.067 20.965C257.175 22.512 257.11 22.356 258.728 17.75C259.549 15.412 260.456 10.71 260.744 7.299L261.267 1.099L265.884 0.73C270.477 0.362 270.472 0.36 264.975 0.18L259.448 0L259.842 4.134C260.408 10.063 257.308 19.377 253.447 23.353C244.799 32.257 232.465 33.52 220.501 26.726C215.021 23.614 210.923 15.898 210.241 7.407L209.73 1.041L231.116 0.749C242.878 0.589 195.962 0.355 126.858 0.229C13.0759 0.022 1.15786 0.149 0.607857 1.582ZM273.251 0.716C274.763 0.945 277.239 0.945 278.751 0.716C280.263 0.487 279.026 0.3 276.001 0.3C272.976 0.3 271.739 0.487 273.251 0.716ZM283.251 0.689C284.213 0.941 285.789 0.941 286.751 0.689C287.713 0.438 286.926 0.232 285.001 0.232C283.076 0.232 282.289 0.438 283.251 0.689ZM291.27 0.693C292.243 0.947 293.593 0.93 294.27 0.656C294.947 0.382 294.151 0.175 292.501 0.195C290.851 0.215 290.297 0.439 291.27 0.693ZM298.27 0.693C299.243 0.947 300.593 0.93 301.27 0.656C301.947 0.382 301.151 0.175 299.501 0.195C297.851 0.215 297.297 0.439 298.27 0.693ZM304.814 0.683C305.535 0.972 306.398 0.936 306.73 0.604C307.062 0.272 306.472 0.036 305.418 0.079C304.253 0.127 304.016 0.364 304.814 0.683ZM309.763 0.707C311.007 0.946 312.807 0.937 313.763 0.687C314.719 0.437 313.701 0.241 311.501 0.252C309.301 0.263 308.519 0.468 309.763 0.707ZM318.27 0.693C319.243 0.947 320.593 0.93 321.27 0.656C321.947 0.382 321.151 0.175 319.501 0.195C317.851 0.215 317.297 0.439 318.27 0.693ZM323.814 0.683C324.535 0.972 325.398 0.936 325.73 0.604C326.062 0.272 325.472 0.036 324.418 0.079C323.253 0.127 323.016 0.364 323.814 0.683ZM327.814 0.683C328.535 0.972 329.398 0.936 329.73 0.604C330.062 0.272 329.472 0.036 328.418 0.079C327.253 0.127 327.016 0.364 327.814 0.683ZM335.814 0.683C336.535 0.972 337.398 0.936 337.73 0.604C338.062 0.272 337.472 0.036 336.418 0.079C335.253 0.127 335.016 0.364 335.814 0.683ZM341.814 0.683C342.535 0.972 343.398 0.936 343.73 0.604C344.062 0.272 343.472 0.036 342.418 0.079C341.253 0.127 341.016 0.364 341.814 0.683ZM0.486857 396.5C0.480857 613.75 0.711857 765.85 1.00086 734.5C1.43186 687.694 1.56786 683.536 1.76286 711.25L2.00086 745H20.0009C29.9009 745 38.0009 744.636 38.0009 744.191C38.0009 743.746 37.3399 742.509 36.5329 741.441C35.7249 740.374 35.0639 739.05 35.0629 738.5C35.0619 737.95 35.5679 738.373 36.1869 739.44C37.1379 741.079 37.5919 739.995 39.1169 732.44C40.5689 725.246 42.6689 719.984 49.8709 705.5C54.7939 695.6 60.0219 684.575 61.4889 681C62.9569 677.425 64.9019 672.7 65.8109 670.5C69.3829 661.862 75.1169 651.891 84.3529 638.257C89.6589 630.423 94.0009 623.485 94.0009 622.84C94.0009 622.195 94.2789 621.945 94.6189 622.285C95.4839 623.15 89.0559 634.581 83.0969 642.773C75.6939 652.952 70.4919 662.635 64.5289 677.337C61.5929 684.577 56.1749 696.538 52.4879 703.918C43.0109 722.889 40.8129 729.121 40.6429 737.5C40.5079 744.16 40.6169 744.516 42.8819 744.837C44.6339 745.084 46.6149 743.864 50.3819 740.218C55.4629 735.3 72.0739 721.618 74.8519 720.064C75.7749 719.547 76.0849 718.43 75.7069 716.982C75.2609 715.278 75.3979 714.997 76.2569 715.856C76.8859 716.485 77.9389 717 78.5959 717C80.5269 717 98.3189 698.623 100.491 694.384C101.586 692.248 102.723 690.275 103.017 690C107.627 685.695 118.001 668.173 118.001 664.692C118.001 662.413 117.579 662.005 115.251 662.035C113.738 662.055 111.376 662.714 110.001 663.5C106.407 665.554 104.513 665.325 103.088 662.663C101.437 659.578 103.162 655.425 110.347 645.188C117.21 635.409 120.001 629.873 120.001 626.04C120.001 622.397 118.429 622.168 112.355 624.926C107.893 626.953 106.001 626.295 106.001 622.717C106.001 621.682 108.437 613.559 111.413 604.667C116.921 588.215 118.669 580.89 117.528 579.044C115.528 575.807 101.324 588.224 84.6899 607.75C79.0639 614.355 75.2549 618 73.9799 618C72.8879 618 72.0009 617.328 72.0009 616.5C72.0009 613.808 70.3949 614.912 67.2699 619.75C62.9379 626.456 57.2519 638.296 54.4599 646.424C53.1519 650.232 51.4029 654.027 50.5729 654.857C49.2269 656.203 48.8429 656.167 47.0319 654.528C45.9149 653.517 45.0009 652.052 45.0009 651.272C45.0009 648.482 41.5369 650.581 38.7789 655.041C36.0689 659.425 34.9889 663.267 29.4669 688.187C27.0769 698.973 26.9589 700.605 27.9329 709.339C28.5509 714.884 30.2599 722.406 32.0589 727.504C33.7479 732.289 34.9559 736.379 34.7429 736.591C34.1679 737.167 28.4439 722.228 27.1359 716.736C26.5119 714.115 26.0009 709.957 26.0009 707.494C26.0009 701.923 22.6279 697.179 9.91586 684.871L1.00386 676.241L0.750857 338.871C0.507857 14.73 0.497857 16.99 0.486857 396.5ZM233.393 13.443C234.71 16.283 235.727 17.456 236.212 16.693C237.314 14.959 237.17 12.777 236.001 13.5C235.131 14.038 234.526 12.01 234.883 9.75C234.948 9.338 234.176 9 233.167 9C231.422 9 231.433 9.216 233.393 13.443ZM237.001 10.622C237.001 11.951 237.272 12.02 238.501 11C239.326 10.315 240.001 9.585 240.001 9.378C240.001 9.17 239.326 9 238.501 9C237.676 9 237.001 9.73 237.001 10.622ZM382.001 12.077C380.076 12.557 376.588 12.685 374.251 12.361C371.094 11.924 370.001 12.113 370.001 13.098C370.001 13.826 368.24 18.04 366.089 22.461C363.937 26.883 361.914 31.175 361.594 32C361.274 32.825 359.476 35.627 357.598 38.226C352.345 45.499 351.653 55.266 355.985 60.988L357.869 63.477L358.963 60.599C359.565 59.017 361.07 56.518 362.307 55.048C363.545 53.577 365.141 50.377 365.855 47.937C366.568 45.497 367.861 42.15 368.727 40.5C369.594 38.85 370.908 36.333 371.647 34.906C372.387 33.479 373.075 29.316 373.176 25.656C373.276 21.995 373.544 19 373.771 19C373.998 19 375.916 20.484 378.035 22.297C380.62 24.51 384.557 26.366 390.01 27.941C397.427 30.085 398.626 30.178 403.795 29.022C408.129 28.052 410.232 26.908 412.766 24.141C415.845 20.779 415.953 20.438 414.308 19.235C413.335 18.524 410.731 17.444 408.52 16.836C406.31 16.227 401.724 14.665 398.33 13.365C391.92 10.908 387.948 10.595 382.001 12.077ZM111.359 21.943L106.217 27.5L93.3589 27.652C81.0529 27.797 69.6709 29.501 65.2699 31.856C61.9259 33.646 58.1309 38.802 56.9619 43.146C56.3609 45.377 56.0469 47.38 56.2639 47.597C56.4819 47.814 59.8459 46.357 63.7399 44.359C70.0519 41.12 71.9419 40.653 81.1609 40.051C86.8479 39.68 92.5519 38.805 93.8369 38.107C98.4189 35.617 97.1399 38.037 89.5639 46.192C85.3349 50.743 80.4419 56.359 78.6879 58.671C75.3499 63.075 72.1309 64.871 63.0009 67.424C59.9759 68.271 56.1509 69.884 54.5009 71.011C52.8509 72.137 48.8009 74.366 45.5009 75.965C37.8309 79.679 31.4879 85.126 28.8809 90.235C26.9079 94.103 25.0459 105 26.3589 105C26.7089 105 29.2149 103.406 31.9269 101.458C34.6389 99.509 41.1219 96.206 46.3349 94.117C51.5469 92.027 57.6539 88.859 59.9059 87.075C62.1579 85.291 64.0009 84.257 64.0009 84.778C64.0009 85.298 62.2409 89.498 60.0899 94.112C55.3779 104.217 53.3099 111.27 54.9039 111.801C55.5069 112.002 56.0009 113.179 56.0009 114.417C56.0009 115.654 56.2779 116.944 56.6169 117.282C56.9549 117.621 57.3599 119.608 57.5169 121.699C58.0619 128.984 69.8229 151 73.1689 151C73.7489 151 73.8879 149.76 73.5039 148.013C73.0709 146.044 73.5559 143.133 74.9239 139.475C78.9899 128.609 77.2579 119.195 69.5009 110C65.0559 104.73 62.0539 98.616 62.0229 94.769C62.0019 92.16 70.2139 74.246 74.9259 66.621C78.1929 61.335 79.2879 62.197 76.9239 68.195C75.2659 72.403 74.9229 75.267 75.1209 83.274C75.3909 94.2 77.3529 101.553 81.7859 108.252L84.4929 112.342L85.0659 108.818C85.3809 106.88 86.9349 103.091 88.5209 100.397C91.0609 96.082 91.3789 94.642 91.1979 88.288C91.0319 82.498 90.2929 79.486 87.4459 73.012C85.4959 68.576 83.6659 62.822 83.3779 60.224L82.8559 55.5L93.2539 43.637C98.9729 37.113 104.453 31.326 105.433 30.778C107.071 29.862 107.145 30.132 106.36 34.141C105.89 36.538 105.614 41.425 105.747 45C106.021 52.401 108.873 66 110.15 66C110.618 66 111.001 66.607 111.001 67.35C111.001 69.424 117.078 77.339 117.92 76.362C119.447 74.592 121.388 66.317 121.524 61C121.601 57.975 122.02 52.777 122.454 49.449C123.091 44.574 122.812 41.758 121.019 34.949C119.796 30.302 118.279 24.225 117.648 21.443L116.501 16.387L111.359 21.943ZM263.213 21.706C263.09 23.194 262.542 24.859 261.995 25.406C260.724 26.677 260.717 28 261.982 28C262.521 28 263.238 26.762 263.575 25.25C263.911 23.738 264.4 21.712 264.661 20.75C264.922 19.788 264.754 19 264.286 19C263.819 19 263.336 20.218 263.213 21.706ZM310.195 34.184C310.254 38.342 310.518 39.646 310.966 38L311.648 35.5L312.5 38C312.968 39.375 313.687 45 314.096 50.5L314.84 60.5L314.443 49.5C314.225 43.45 313.745 37.15 313.378 35.5L312.71 32.5L314.958 34.498C318.018 37.217 324.6 48.478 327.971 56.763C332.49 67.867 333.994 76.477 334.071 91.697C334.115 100.34 334.463 104.752 335.001 103.5C335.474 102.4 335.891 96.55 335.929 90.5C336.054 70.656 328.674 48.653 317.088 34.322C310.795 26.539 310.086 26.525 310.195 34.184ZM260.625 31.539C259.66 34.053 259.944 34.702 261.123 32.675C261.707 31.671 261.974 30.639 261.716 30.382C261.459 30.124 260.967 30.645 260.625 31.539ZM250.084 33C249.994 35.57 251.34 36.636 256.194 37.838C262.127 39.307 262.353 39.296 260.79 37.605C260.081 36.838 259.153 36.421 258.727 36.679C257.048 37.696 252.203 35.778 251.199 33.699C250.534 32.323 250.117 32.062 250.084 33ZM167.735 36.25C167.397 37.132 167.768 38.392 168.56 39.049C170.122 40.346 170.288 39.592 169.106 36.573C168.455 34.912 168.266 34.867 167.735 36.25ZM227.001 38.152C227.001 39.188 228.825 39.139 231.501 38.032C233.124 37.36 232.888 37.213 230.251 37.254C228.464 37.282 227.001 37.686 227.001 38.152ZM382.236 41.75C382.891 43.263 384.058 45.512 384.828 46.748C386.818 49.943 385.707 55.863 380.197 71.427C374.974 86.182 374.161 95.011 377.346 102.404C379.165 106.626 379.829 106.677 380.56 102.649C381.36 98.235 382.647 95.617 386.492 90.58C394.332 80.308 395.503 75.951 392.923 66.656C391.456 61.374 392.271 61.153 395.644 65.919C397.215 68.14 398.844 69.967 399.262 69.979C399.681 69.99 398 67.219 395.527 63.819C393.053 60.42 391.222 57.446 391.457 57.21C391.693 56.975 393.321 57.804 395.075 59.053C399.267 62.038 407.714 63.955 417.001 64.028C421.126 64.061 426.301 64.736 428.501 65.529C434.024 67.518 434.189 67.434 432.007 63.735C428.609 57.976 423.497 53.909 416.646 51.515L410.085 49.223L408.575 51.528C407.731 52.815 406.278 53.7 405.283 53.533C403.428 53.222 403.355 52.876 404.406 49.399C404.979 47.504 404.376 47.135 398.271 45.642C394.548 44.732 389.322 42.865 386.659 41.494C383.995 40.122 381.643 39 381.43 39C381.218 39 381.58 40.237 382.236 41.75ZM164.668 40.667C164.301 41.033 164.001 41.798 164.001 42.367C164.001 42.993 164.467 42.934 165.184 42.217C165.835 41.566 166.135 40.801 165.851 40.517C165.567 40.233 165.034 40.3 164.668 40.667ZM220.001 41C219.176 41.533 218.951 41.969 219.501 41.969C220.051 41.969 221.176 41.533 222.001 41C222.826 40.467 223.051 40.031 222.501 40.031C221.951 40.031 220.826 40.467 220.001 41ZM268.001 40.383C268.001 40.594 268.902 41.002 270.002 41.29C271.103 41.578 271.752 41.405 271.443 40.907C270.905 40.036 268.001 39.594 268.001 40.383ZM310.196 43.5C310.216 45.15 310.44 45.704 310.694 44.731C310.948 43.758 310.931 42.408 310.657 41.731C310.383 41.054 310.176 41.85 310.196 43.5ZM168.652 52.75C169.237 63.072 169.514 64.83 170.41 63.917C171.187 63.125 169.711 42 168.879 42C168.419 42 168.317 46.837 168.652 52.75ZM213.501 46C216.25 47.181 217.829 47.181 216.001 46C215.176 45.467 213.826 45.055 213.001 45.086C212.012 45.122 212.182 45.433 213.501 46ZM259.251 48.03C254.616 50.089 253.604 51.389 257.372 50.443C259.318 49.955 260.147 50.499 261.986 53.476C264.848 58.107 265.945 57.265 263.173 52.566L261.096 49.047L263.271 47.523C266.166 45.495 264.475 45.708 259.251 48.03ZM310.212 60.601C309.975 76.471 309.274 78.598 300.563 89.919C294.028 98.412 288.645 102.798 279.636 106.97C275.162 109.042 270.376 111.257 269.001 111.893C266.663 112.974 266.728 113.015 270.001 112.521C280.089 110.999 296.676 98.198 305.122 85.417L309.501 78.791L310.011 86.145L310.521 93.5L311.182 82.5C311.546 76.45 312.169 70.196 312.567 68.601C313.071 66.583 312.954 65.911 312.181 66.389C311.403 66.869 310.975 64 310.747 56.787C310.454 47.493 310.402 47.861 310.212 60.601ZM224.723 51.043C225.093 52.461 225.524 52.772 226.015 51.978C226.456 51.264 227.704 51.049 229.126 51.441C232.106 52.262 229.56 50.565 226.334 49.58C224.492 49.017 224.25 49.237 224.723 51.043ZM158.653 53.75C156.502 57.978 151.993 71.612 152.066 73.668C152.102 74.676 153.593 71 155.38 65.5C157.167 60 159.179 54.487 159.85 53.25C160.522 52.013 160.842 51 160.562 51C160.282 51 159.423 52.237 158.653 53.75ZM236.001 55.479C236.001 57.109 243.278 74.679 244.439 75.853C245.561 76.987 245.974 76.611 246.989 73.536C247.655 71.517 247.985 69.65 247.721 69.386C247.457 69.123 246.954 70.053 246.602 71.453C246.251 72.854 245.615 74 245.19 74C244.765 74 242.897 69.929 241.039 64.954C238.17 57.272 236.001 53.193 236.001 55.479ZM251.734 60.124C252.413 60.808 253.22 61.115 253.527 60.807C253.835 60.499 253.28 59.94 252.294 59.564C250.869 59.022 250.754 59.136 251.734 60.124ZM232.251 63.706C231.013 63.944 230.001 64.558 230.001 65.07C230.001 66.338 231.046 66.189 234.001 64.5C236.539 63.049 236.277 62.93 232.251 63.706ZM169.071 68.083C169.11 69.412 169.549 71.4 170.048 72.5C170.679 73.894 170.769 73.288 170.345 70.5C169.638 65.857 168.97 64.589 169.071 68.083ZM172.049 67.223C171.967 68.449 177.24 79.094 177.701 78.634C177.939 78.395 176.776 75.568 175.116 72.35C173.456 69.133 172.076 66.825 172.049 67.223ZM401.575 73.75C409.161 85.312 410.28 87.951 409.623 92.741C408.903 97.992 404.392 110.279 400.486 117.624C397.344 123.534 397.256 131.987 400.273 138.084C402.438 142.46 403.983 143.144 404.036 139.75C404.091 136.301 406.082 133.445 410.828 130.009C416.264 126.073 418.197 121.662 418.94 111.5L419.525 103.5L421.859 107.899C423.143 110.318 425.707 116.216 427.556 121.005C430.533 128.713 430.798 130.152 429.862 133.541C428.573 138.209 426.913 140.942 421.238 147.74C418.832 150.622 415.319 155.943 413.432 159.563C409.916 166.309 409.164 171.563 410.651 178.999L411.301 182.248L413.401 178.797C416.619 173.509 420.212 169.584 425.029 166.094C429.478 162.872 432.244 159.526 434.201 155L435.282 152.5L436.042 155C436.46 156.375 436.846 161.327 436.901 166.003C436.992 173.765 436.7 175.128 433.548 181.626C431.648 185.541 429.564 190.852 428.915 193.427C427.194 200.262 428.265 209.976 431.46 216.505C434.167 222.038 436.001 223.53 436.001 220.2C436.001 219.21 436.505 217.896 437.122 217.279C437.95 216.451 437.819 214.915 436.622 211.401C434.659 205.639 434.665 206 436.526 206C437.429 206 438.302 207.256 438.667 209.081C439.341 212.451 440.958 211.263 440.986 207.377C440.994 206.21 441.979 203.06 443.175 200.377C446.197 193.595 445.924 187.776 442.239 180.457C439.929 175.867 439.086 172.549 438.566 166C437.96 158.368 436.9 151.027 435.399 144.075C434.943 141.964 435.078 141.819 436.445 142.953C437.308 143.67 438.574 145.413 439.258 146.828C439.942 148.242 442.886 151.222 445.801 153.45C448.716 155.677 452.43 159.637 454.053 162.25C457.477 167.761 458.663 168.194 458.783 163.978C458.83 162.315 459.391 158.44 460.029 155.367C461.138 150.021 461.061 149.534 458.236 144.139C455.079 138.111 456.42 139.023 436.105 129.09C430.886 126.538 430.608 126.19 427.597 118.476C425.885 114.089 423.368 108.475 422.004 106C417.827 98.42 417.32 96.545 420.18 99.25C422.612 101.551 428.466 105.685 432.001 107.598C434.579 108.993 438.333 109.625 446.253 109.996C458.425 110.567 458.751 110.316 455.089 103.21C450.738 94.77 441.381 89.49 425.411 86.461C414.475 84.387 407.88 81.051 403.98 75.621C400.395 70.629 398.623 69.25 401.575 73.75ZM84.0009 75C84.0009 75.55 84.4779 76 85.0599 76C85.6419 76 85.8409 75.55 85.5009 75C85.1609 74.45 84.6849 74 84.4419 74C84.1989 74 84.0009 74.45 84.0009 75ZM150.631 78.25C149.559 82.251 149.971 94.266 151.505 103.724C155.266 126.911 171.508 153.467 189.341 165.585C192.854 167.972 198.001 170.334 198.001 169.558C198.001 169.343 194.513 166.685 190.251 163.652C179.407 155.935 169.001 144.616 169.001 140.537C169.001 139.627 168.604 139.128 168.118 139.428C166.996 140.121 161.282 129.163 156.684 117.5C152.65 107.266 150.867 94.933 151.732 83.25C152.265 76.063 151.792 73.917 150.631 78.25ZM170.159 79C170.159 80.375 170.386 80.938 170.663 80.25C170.941 79.563 170.941 78.438 170.663 77.75C170.386 77.063 170.159 77.625 170.159 79ZM179.001 80.816C179.001 81.51 180.689 83.769 182.751 85.836C184.814 87.904 185.558 88.449 184.404 87.048C183.251 85.646 181.564 83.387 180.654 82.027C179.745 80.668 179.001 80.123 179.001 80.816ZM427.001 91C427.001 91.55 427.451 92 428.001 92C428.551 92 429.001 91.55 429.001 91C429.001 90.45 428.551 90 428.001 90C427.451 90 427.001 90.45 427.001 91ZM188.472 92.953C188.796 93.478 190.51 94.905 192.281 96.124L195.501 98.341L192.564 95.17C189.848 92.238 187.115 90.758 188.472 92.953ZM310.095 123.514L310.328 153.5L304.466 158.248C298.203 163.322 295.137 166.304 298.616 163.938C310.151 156.095 311.266 154.978 318.464 144.056C326.45 131.937 332.458 118.43 333.397 110.484L333.986 105.5L332.559 111C329.251 123.749 321.078 140.784 318.913 139.445C318.411 139.135 318.001 140.048 318.001 141.472C318.001 142.897 317.37 144.305 316.6 144.601C315.829 144.896 314.971 146.007 314.693 147.069C314.415 148.131 313.732 149 313.174 149C311.989 149 311.528 141 311.157 114.027C311.009 103.317 310.658 94.323 310.376 94.041C310.094 93.759 309.967 107.022 310.095 123.514ZM196.448 98.914C197.2 100.131 206.001 106.329 206.001 105.642C206.001 105.392 203.704 103.537 200.897 101.521C198.089 99.504 196.087 98.331 196.448 98.914ZM440.001 105C440.001 105.55 440.676 106 441.501 106C442.326 106 443.001 105.55 443.001 105C443.001 104.45 442.326 104 441.501 104C440.676 104 440.001 104.45 440.001 105ZM445.501 106C445.841 106.55 446.317 107 446.56 107C446.803 107 447.001 106.55 447.001 106C447.001 105.45 446.524 105 445.942 105C445.36 105 445.161 105.45 445.501 106ZM212.296 109.105C215.306 110.857 228.219 115.005 230.426 114.929C231.567 114.89 229.423 113.98 225.66 112.908C221.897 111.835 217.532 110.292 215.96 109.479C212.712 107.799 209.487 107.471 212.296 109.105ZM260.001 114C258.626 114.44 251.876 114.919 245.001 115.063C235.783 115.257 233.945 115.48 238.001 115.913L243.501 116.5L243.767 144.75C243.913 160.287 244.363 173 244.767 173C245.171 173 245.501 160.288 245.501 144.752V116.504L250.501 116.258C257.997 115.889 263.324 115.055 265.001 113.986C266.233 113.202 266.143 113.046 264.501 113.115C263.401 113.161 261.376 113.56 260.001 114ZM52.3739 117.195C51.6869 119.591 49.5829 121.745 44.2199 125.542C34.9709 132.091 32.6469 134.311 28.5919 140.47C24.5179 146.658 22.5839 154.331 23.4709 160.782C24.4709 168.055 25.3509 168.787 27.9799 164.534C29.2189 162.53 32.6609 159.057 35.6289 156.815C38.5979 154.574 43.0179 150.091 45.4519 146.853L49.8779 140.965L50.2709 144.733C50.4879 146.805 50.7489 145.125 50.8509 141C50.9529 136.875 51.6849 129.243 52.4769 124.041C53.9809 114.158 53.9439 111.72 52.3739 117.195ZM172.196 122.5C172.216 124.15 172.44 124.704 172.694 123.731C172.948 122.758 172.931 121.408 172.657 120.731C172.383 120.054 172.176 120.85 172.196 122.5ZM173.287 133.5C173.295 136.25 173.489 137.256 173.719 135.736C173.948 134.216 173.942 131.966 173.705 130.736C173.468 129.506 173.28 130.75 173.287 133.5ZM51.0709 151.083C51.1099 152.412 51.5489 154.4 52.0479 155.5C52.6789 156.894 52.7689 156.288 52.3449 153.5C51.6379 148.857 50.9699 147.589 51.0709 151.083ZM189.301 157C189.301 160.025 189.488 161.262 189.717 159.75C189.946 158.238 189.946 155.762 189.717 154.25C189.488 152.738 189.301 153.975 189.301 157ZM53.6609 167.265C52.4999 182.365 54.9879 190.74 63.1709 199.275C67.5569 203.849 68.0029 204.091 68.0229 201.906C68.0349 200.583 68.9349 197.538 70.0229 195.141C71.1109 192.743 71.9959 189.368 71.9899 187.641C71.9759 183.665 69.4939 175.403 67.3079 172.06C65.4529 169.223 65.4079 169.176 58.8979 163.224L54.2949 159.016L53.6609 167.265ZM285.253 163.5C285.264 165.7 285.469 166.482 285.708 165.238C285.947 163.994 285.938 162.194 285.688 161.238C285.438 160.282 285.242 161.3 285.253 163.5ZM293.487 166.022C292.515 167.595 281.316 173 279.03 173C277.914 173 277.001 173.45 277.001 174C277.001 175.767 279.557 175.083 286.609 171.43C293.66 167.777 297.403 165 295.274 165C294.639 165 293.835 165.46 293.487 166.022ZM212.001 171C212.001 173.2 211.747 175 211.437 175C211.127 175 208.371 173.856 205.313 172.457C202.255 171.058 199.547 170.12 199.295 170.372C198.106 171.562 214.472 178.015 222.092 179.361C233.983 181.462 239.001 181.94 239.001 180.971C239.001 180.51 237.763 179.99 236.251 179.816C234.019 179.56 233.492 178.989 233.455 176.788C233.39 172.9 232.464 172.503 232.18 176.24C231.873 180.262 231.882 180.256 227.603 179.453C224.858 178.938 223.973 178.269 223.885 176.639C223.793 174.948 223.673 174.867 223.312 176.25C222.783 178.274 220.624 178.462 216.084 176.879C212.978 175.796 212.889 175.61 213.463 171.379C213.832 168.662 213.667 167 213.029 167C212.464 167 212.001 168.8 212.001 171ZM277.159 169C277.159 170.375 277.386 170.938 277.663 170.25C277.941 169.563 277.941 168.438 277.663 167.75C277.386 167.063 277.159 167.625 277.159 169ZM263.196 173.5C263.216 175.15 263.44 175.704 263.694 174.731C263.948 173.758 263.931 172.408 263.657 171.731C263.383 171.054 263.176 171.85 263.196 173.5ZM244.344 184.5C244.369 190.435 244.53 191.987 244.74 188.318C245.063 182.651 245.318 182.054 247.797 181.147L250.501 180.158L247.817 180.079C245.683 180.016 245.049 179.437 244.717 177.25C244.488 175.738 244.32 179 244.344 184.5ZM251.151 177.75C251.036 180.241 251.41 180.996 252.751 180.984C255.746 180.958 273.013 177.095 274.802 176.051C277.271 174.612 275.873 174.771 267.225 176.914C262.977 177.966 257.84 179.058 255.81 179.341C252.417 179.814 252.087 179.64 251.71 177.177C251.343 174.774 251.285 174.832 251.151 177.75ZM240.001 181C240.001 181.55 240.478 182 241.06 182C241.642 182 241.841 181.55 241.501 181C241.161 180.45 240.685 180 240.442 180C240.199 180 240.001 180.45 240.001 181ZM244.08 197.583C244.128 198.748 244.365 198.985 244.684 198.188C244.973 197.466 244.937 196.603 244.605 196.271C244.273 195.939 244.037 196.529 244.08 197.583ZM177.889 202.843C179.235 204.733 179.594 206.076 178.961 206.847C178.437 207.485 178.735 207.374 179.623 206.599C181.105 205.307 181.084 204.979 179.37 202.627C178.342 201.217 177.133 200.049 176.683 200.031C176.233 200.014 176.776 201.28 177.889 202.843ZM173.542 203.545C171.611 205.005 171.616 205.059 173.9 207.263C176.199 209.482 176.207 209.482 174.92 207.331C173.854 205.55 173.856 204.88 174.934 203.581C176.558 201.624 176.098 201.612 173.542 203.545ZM244.273 206C244.273 208.475 244.468 209.488 244.707 208.25C244.945 207.012 244.945 204.988 244.707 203.75C244.468 202.512 244.273 203.525 244.273 206ZM312.04 204.795C312.019 205.508 310.825 207.267 309.387 208.705C306.773 211.319 306.773 211.319 308.826 212.91C309.956 213.784 311.181 215.738 311.549 217.25C312.279 220.253 314.001 221.011 314.001 218.329C314.001 217.41 314.77 215.808 315.709 214.77C317.098 213.235 317.188 212.567 316.19 211.191C315.515 210.261 314.314 208.15 313.521 206.5C312.728 204.85 312.062 204.083 312.04 204.795ZM310.111 209.367C309.248 210.407 309.338 211.035 310.489 211.99C311.32 212.68 312.001 213.865 312.001 214.622C312.001 216.417 313.44 216.381 314.961 214.548C315.92 213.393 315.791 212.58 314.334 210.579C312.209 207.662 311.658 207.504 310.111 209.367ZM176.016 210.75C176.025 211.162 176.468 212.175 177.001 213C177.785 214.213 177.973 214.069 177.986 212.25C177.994 211.012 177.551 210 177.001 210C176.451 210 176.008 210.338 176.016 210.75ZM333.737 219.25C330.635 221.588 328.076 223.868 328.049 224.318C327.994 225.249 331.85 222.577 337.001 218.114C342.105 213.691 340.261 214.333 333.737 219.25ZM341.037 215.436C341.017 215.95 341.969 217.402 343.153 218.662L345.305 220.952L342.153 226.866C340.419 230.119 339.003 233.392 339.006 234.14C339.013 235.969 343.652 241.669 344.472 240.856C344.83 240.502 343.97 239.06 342.562 237.652C341.153 236.243 340.001 234.614 340.001 234.03C340.001 233.447 341.351 230.578 343.001 227.654C344.651 224.73 345.999 221.925 345.996 221.419C345.989 220.174 341.082 214.254 341.037 215.436ZM130.501 219C130.161 219.55 130.36 220 130.942 220C131.524 220 132.001 219.55 132.001 219C132.001 218.45 131.803 218 131.56 218C131.317 218 130.841 218.45 130.501 219ZM137.259 222.288C139.876 224.605 142.014 227.047 142.009 227.715C142.005 228.384 140.571 230.634 138.823 232.715C135.699 236.435 135.72 236.427 140.046 232.262L144.449 228.023L139.512 223.012C136.797 220.255 134.109 218.017 133.539 218.038C132.968 218.06 134.642 219.972 137.259 222.288ZM320.599 229.992C317.353 232.677 314.323 235.464 313.865 236.186C312.04 239.063 313.117 242.959 317.309 248.651C319.678 251.868 323.958 257.711 326.819 261.636C329.68 265.561 332.692 269.328 333.511 270.008C335.769 271.882 335.432 272.661 329.751 278.707C326.864 281.78 325.407 283.819 326.514 283.239C328.916 281.979 337.001 273.268 337.001 271.939C337.001 271.426 335.518 269.317 333.705 267.253C329.26 262.192 321.133 251.497 317.618 246.083C313.288 239.411 313.723 237.52 321.126 230.828C328.903 223.8 328.623 223.357 320.599 229.992ZM244.06 229.693C244.027 230.9 243.02 232.573 241.822 233.413L239.643 234.939L242.322 237.422C243.795 238.787 245.048 240.938 245.106 242.202C245.186 243.962 245.479 243.656 246.356 240.891C246.986 238.906 248.047 236.63 248.715 235.832C249.685 234.674 249.584 234.073 248.215 232.844C247.272 231.998 245.965 230.449 245.31 229.403C244.171 227.583 244.116 227.596 244.06 229.693ZM117.873 233.75C116.63 235.336 116.665 235.371 118.251 234.128C119.917 232.821 120.446 232 119.623 232C119.416 232 118.628 232.787 117.873 233.75ZM243.206 233.253C242.472 234.137 242.583 235.076 243.584 236.444C244.986 238.362 245.016 238.362 246.418 236.444C247.788 234.571 246.968 232 245.001 232C244.586 232 243.778 232.564 243.206 233.253ZM352.001 235.5C350.626 236.286 349.977 236.945 350.56 236.965C351.142 236.984 352.492 236.339 353.56 235.532C356.029 233.664 355.24 233.648 352.001 235.5ZM357.964 235.828C358.619 237.109 358.909 238.796 358.609 239.578C358.309 240.36 358.452 241 358.925 241C360.976 241 360.977 237.535 358.926 235.567L356.774 233.5L357.964 235.828ZM115.016 236.75C115.025 237.162 115.468 238.175 116.001 239C116.785 240.213 116.973 240.069 116.986 238.25C116.994 237.012 116.551 236 116.001 236C115.451 236 115.008 236.338 115.016 236.75ZM148.168 244.331C144.776 247.754 142.001 250.828 142.001 251.163C142.001 251.498 144.814 248.949 148.251 245.498L154.501 239.223L158.991 243.096L163.482 246.969L155.991 254.573C151.872 258.756 147.601 262.559 146.501 263.025C144.514 263.868 144.514 263.874 146.532 263.937C148.36 263.994 154.275 258.551 161.962 249.739L164.371 246.977L160.936 243.406C155.171 237.414 155.013 237.425 148.168 244.331ZM117.069 243.55C116.98 247.532 115.402 248.982 111.051 249.079L107.501 249.158L110.362 250.199C112.908 251.126 113.559 250.904 116.288 248.174C118.946 245.517 119.207 244.8 118.246 242.804C117.168 240.567 117.134 240.588 117.069 243.55ZM355.999 244.505C355.417 246.036 354.66 247.743 354.316 248.299C353.95 248.891 354.195 248.998 354.908 248.557C356.319 247.686 358.295 242.96 357.557 242.223C357.282 241.948 356.581 242.975 355.999 244.505ZM127.201 246.2C125.265 248.136 125.755 249.342 130.289 253.792C134.728 258.149 136.37 258.83 137.606 256.83C138.08 256.063 137.8 255.863 136.794 256.249C135.811 256.626 133.714 255.265 130.968 252.467C127.331 248.76 126.873 247.859 127.962 246.547C129.477 244.722 128.929 244.472 127.201 246.2ZM362.963 249.959C361.059 251.587 359.979 252.937 360.564 252.959C361.149 252.982 362.92 251.65 364.501 250C368.172 246.168 367.422 246.148 362.963 249.959ZM375.024 248.195C377.39 250.223 383.622 258.303 384.309 260.235C384.72 261.389 384.227 262.344 382.837 263.088C380.599 264.286 380.329 264.076 377.567 258.998C376.032 256.176 372.001 252.232 372.001 253.552C372.001 254.025 373.808 256.989 376.017 260.138C378.559 263.763 379.635 266.108 378.95 266.531C378.355 266.899 377.764 267.043 377.636 266.85C375.582 263.747 368.61 256.058 368.211 256.456C367.916 256.752 369.747 259.661 372.279 262.923C375.928 267.621 376.614 269.077 375.581 269.934C374.582 270.763 373.658 270.08 371.625 267.008C370.166 264.804 368.502 263 367.928 263C366.75 263 367.284 264.068 370.82 268.777C373.92 272.907 372.772 274.405 369.461 270.551C368.108 268.977 367.001 268.286 367.001 269.016C367.001 269.745 367.738 271.157 368.639 272.153C369.974 273.628 370.044 274.243 369.017 275.481C367.279 277.574 365.276 277.382 364.001 275C362.162 271.563 360.947 272.819 362.652 276.394C364.269 279.785 364.267 279.79 360.935 282.767L357.6 285.747L354.727 281.781C353.147 279.599 351.599 278.069 351.288 278.38C350.977 278.691 351.91 280.503 353.362 282.406C354.813 284.309 356.001 286.253 356.001 286.725C356.001 287.197 353.996 289.552 351.545 291.957L347.089 296.33L345.078 293.915C343.972 292.587 343.053 291.915 343.034 292.421C343.016 292.928 343.744 294.163 344.652 295.167C346.201 296.878 346.13 297.151 343.508 299.581L340.713 302.172L338.304 299.336C336.492 297.203 336.158 297.044 336.954 298.694C337.536 299.901 338.481 301.179 339.055 301.533C339.765 301.972 339.727 302.626 338.936 303.579C337.964 304.749 337.451 304.57 335.814 302.49C334.737 301.12 333.36 300 332.754 300C332.148 300 332.631 301.042 333.827 302.314C336.767 305.444 336.585 306.453 332.523 309.551L329.044 312.205L326.398 309.06C322.872 304.869 322.004 306.004 325.366 310.411C328.912 315.061 326.788 316.339 322.957 311.861C319.75 308.111 318.935 309.081 322.001 313C323.96 315.504 324.611 318 323.306 318C322.923 318 321.279 316.762 319.651 315.25C316.774 312.577 316.837 313.787 319.751 317.187C320.546 318.115 320.885 319.378 320.505 319.994C320.065 320.705 318.529 319.721 316.305 317.307C313.187 313.923 312.992 313.833 314.552 316.5C318.859 323.86 317.458 324.267 332.136 311.392C339.487 304.943 352.476 293.072 361.001 285.011C369.526 276.95 378.732 268.298 381.46 265.784C386.014 261.585 386.326 261.009 385.287 258.729C383.752 255.36 378.205 249.154 375.614 247.907C373.82 247.043 373.731 247.087 375.024 248.195ZM83.0299 249.961C82.2209 250.473 81.8189 251.152 82.1369 251.47C82.4559 251.788 83.2849 251.362 83.9809 250.524C85.4239 248.786 85.1469 248.622 83.0299 249.961ZM86.6529 252.75C85.8079 258.006 83.5649 260.751 78.9979 262.119C76.4099 262.894 75.3119 263.702 75.7839 264.484C76.4419 265.573 112.938 298.782 120.666 305.323C122.5 306.875 124.001 308.811 124.001 309.625C124.001 310.439 126.814 308.242 130.251 304.743C133.689 301.244 138.076 297.183 140.001 295.719C142.783 293.603 143.073 293.102 141.417 293.278C138.487 293.59 129.843 285.575 130.7 283.342C131.134 282.211 130.96 281.907 130.16 282.402C129.452 282.839 126.178 280.7 121.99 277.066C118.146 273.73 111.889 268.3 108.086 265C104.283 261.7 100.984 259 100.756 259C100.527 259 97.9009 256.753 94.9209 254.006C91.9399 251.26 88.9959 249.01 88.3789 249.006C87.7619 249.003 86.9849 250.688 86.6529 252.75ZM353.001 251.69C353.001 252.24 353.912 253.514 355.025 254.521C356.576 255.925 357.323 256.078 358.225 255.176C359.126 254.275 359.081 254 358.03 254C357.276 254 355.836 253.255 354.83 252.345C353.824 251.435 353.001 251.14 353.001 251.69ZM77.7839 254.75C76.0649 256.721 74.0009 260.477 74.0009 261.634C74.0009 262.734 75.3489 261.055 77.9229 256.75C80.3219 252.736 80.2649 251.907 77.7839 254.75ZM135.175 264.314C133.979 265.587 133.001 267.351 133.001 268.233C133.001 270.547 134.074 273 135.087 273C135.566 273 135.446 271.877 134.821 270.504C133.913 268.512 133.988 267.654 135.19 266.254C138.728 262.136 138.715 260.546 135.175 264.314ZM141.814 262.683C142.535 262.972 143.398 262.936 143.73 262.604C144.062 262.272 143.472 262.036 142.418 262.079C141.253 262.127 141.016 262.364 141.814 262.683ZM133.406 279.142C131.508 281.276 131.509 281.278 133.751 279.901C134.989 279.141 136.001 278.177 136.001 277.759C136.001 276.554 135.444 276.85 133.406 279.142ZM348.001 282.192C348.001 282.468 348.901 283.732 350.001 285C351.101 286.268 352.001 286.857 352.001 286.308C352.001 285.759 351.101 284.495 350.001 283.5C348.901 282.505 348.001 281.916 348.001 282.192ZM342.001 285.665C342.001 286.166 343.38 288.134 345.066 290.038L348.131 293.5L346.316 290.173C344.39 286.642 342.001 284.147 342.001 285.665ZM309.501 296.718C280.821 321.694 267.85 332.733 260.972 338.019C251.417 345.363 240 355.366 239.984 356.41C239.974 357.009 238.621 358.44 236.976 359.588L233.985 361.676L236.163 363.588C237.965 365.17 238.237 365.217 237.743 363.856C237.379 362.856 238.041 361.372 239.434 360.063L241.722 357.914L246.836 363.51C249.649 366.588 252.734 370.432 253.691 372.053C256.408 376.651 257.409 375.512 254.815 370.774C253.542 368.45 250.153 364.101 247.284 361.109L242.067 355.668L244.324 353.584C245.565 352.438 253.088 346.241 261.041 339.814C289.855 316.526 322.962 287.472 321.788 286.504C321.63 286.374 316.101 290.97 309.501 296.718ZM149.501 295C150.496 296.1 151.482 297 151.691 297C151.9 297 151.59 296.1 151.001 295C150.412 293.9 149.427 293 148.811 293C148.195 293 148.506 293.9 149.501 295ZM149.135 301.915C152.942 306.344 153.544 306.634 154.383 304.448C154.71 303.594 154.602 303.128 154.143 303.413C153.683 303.697 152.029 302.595 150.467 300.964C146.282 296.596 145.216 297.357 149.135 301.915ZM142.844 303.674C143.392 304.678 144.763 306.153 145.893 306.951C147.811 308.307 147.838 308.523 146.297 310.226C144.713 311.976 144.514 311.921 141.339 308.843C137.713 305.329 135.525 305.634 138.59 309.227C140.137 311.039 140.168 311.207 138.751 310.11C137.743 309.33 137.001 309.196 137.001 309.794C137.001 310.366 138.146 311.667 139.546 312.687L142.09 314.54L139.063 317.441C136.308 320.08 135.876 320.204 134.268 318.823C130.72 315.774 129.578 315.773 132.415 318.821C134.905 321.496 135.169 322.282 134.232 324.226C133.63 325.477 133.106 325.953 133.069 325.285C133.031 324.617 131.989 323.543 130.751 322.899L128.501 321.729L130.856 324.29C133.155 326.792 133.078 329.009 130.692 328.991C130.037 328.987 127.814 327.383 125.751 325.428C123.689 323.473 122.001 322.306 122.001 322.833C122.001 324.24 128.829 330 130.496 330C131.932 330 132.475 329.501 135.844 325.085L137.686 322.671L150.066 333.585C156.875 339.588 167.183 349.031 172.974 354.568C178.764 360.105 188.676 369.31 195.001 375.022C201.326 380.734 210.551 389.43 215.501 394.346C220.451 399.262 226.192 404.353 228.259 405.659C230.325 406.966 236.619 412.414 242.245 417.767C255.414 430.297 262.935 437.254 276.501 449.457C309.171 478.844 316.558 488.669 316.382 502.5C316.296 509.317 314.771 515.307 311.029 523.533C305.242 536.256 306.651 548.973 314.623 555.973C318.974 559.793 321.535 560.4 330.471 559.724C339.498 559.041 343.179 557.305 361.001 545.323C365.674 542.181 375.095 532.518 378.578 527.294C380.488 524.431 382.492 521.815 383.033 521.48C384.266 520.718 388.001 513.075 388.001 511.312C388.001 510.59 388.379 510 388.842 510C390.141 510 394.584 501.219 396.937 494.001C399.283 486.804 399.789 476.642 398.112 470.412C397.471 468.031 395.418 464.862 392.972 462.474C388.968 458.567 388.775 458.5 381.499 458.5C374.437 458.5 373.593 458.763 363.051 464.25C350.77 470.643 346.136 471.384 336.585 468.487C328.45 466.019 324.279 462.879 306.001 445.461C288.435 428.723 260.329 402.875 249.453 393.456C245.801 390.295 243.904 387.967 244.367 387.217C244.921 386.321 245.714 386.421 247.545 387.621C252.131 390.626 254.471 387.321 251.842 381.551C250.871 379.42 250.993 378.646 252.592 376.771C254.297 374.773 254.307 374.685 252.678 375.95C251.019 377.238 250.359 376.807 245.308 371.137C238.89 363.932 236.837 363.598 242.689 370.71C248.47 377.735 250.785 381.291 251.543 384.311C252.605 388.544 248.861 387.848 245.651 383.216C244.209 381.135 239.845 376.582 235.954 373.099L228.88 366.765L226.607 368.9L224.335 371.035L219.418 367.313C214.686 363.732 190.964 343.212 176.605 330.279C170.301 324.601 169.57 324.201 168.376 325.774C167.304 327.185 167.056 327.226 167.017 326C166.976 324.667 166.861 324.667 165.986 326C165.11 327.333 164.887 327.333 163.972 326C163.407 325.175 163.104 323.257 163.301 321.739C163.595 319.464 162.643 318.009 157.904 313.489C154.739 310.47 151.511 308 150.73 308C149.95 308 148.459 307.058 147.417 305.907C146.376 304.756 144.697 303.372 143.686 302.832C142.106 301.986 141.988 302.103 142.844 303.674ZM143.501 308C143.841 308.55 144.569 309 145.119 309C145.669 309 145.841 308.55 145.501 308C145.161 307.45 144.433 307 143.883 307C143.333 307 143.161 307.45 143.501 308ZM136.501 314C137.496 315.1 138.761 316 139.311 316C139.861 316 139.496 315.1 138.501 314C137.506 312.9 136.241 312 135.691 312C135.141 312 135.506 312.9 136.501 314ZM305.001 317.647C305.001 318.003 306.582 320.223 308.513 322.58C312.757 327.759 311.283 329.919 306.957 324.861C303.659 321.005 303.052 322.046 306.001 326.5C307.094 328.15 307.991 329.8 307.994 330.166C307.998 330.532 306.195 332.262 303.988 334.01L299.975 337.189L298.021 334.844C295.749 332.117 295.344 333.546 297.559 336.476C298.919 338.276 298.85 338.606 296.777 340.173C294.576 341.837 294.43 341.805 292.341 339.197C291.152 337.714 289.909 336.769 289.577 337.097C289.245 337.426 289.931 338.912 291.101 340.4C294.032 344.126 292.498 345.138 289.493 341.461C288.162 339.832 287.057 339.007 287.037 339.628C287.017 340.248 287.676 341.315 288.501 342C289.95 343.203 290.629 347 289.395 347C289.062 347 287.885 345.851 286.781 344.447C285.677 343.043 284.523 342.145 284.216 342.451C283.91 342.757 284.664 344.077 285.892 345.384L288.123 347.759L284.863 350.311L281.603 352.862L279.35 350.431C275.599 346.384 275.064 347.883 278.731 352.165C279.999 353.646 279.733 354.224 276.329 357.388C271.7 361.691 270.48 361.827 268.629 358.248C267.138 355.364 263.001 351.121 263.001 352.476C263.001 352.908 264.54 355.403 266.42 358.021L269.84 362.78L267.01 365.492C264.194 368.189 264.174 368.192 263.055 366.101C262.437 364.946 261.427 364 260.811 364C260.18 364 260.413 364.798 261.346 365.829C263.194 367.87 263.528 370 262.001 370C261.451 370 261.001 369.38 261.001 368.622C261.001 367.865 260.326 366.685 259.501 366C257.546 364.377 257.578 365.951 259.558 368.777C262.521 373.009 259.487 370.903 256.219 366.461C254.414 364.007 252.486 362 251.934 362C251.383 362 252.681 364.363 254.82 367.25C256.958 370.137 259.177 372.5 259.751 372.5C260.324 372.5 263.652 369.964 267.147 366.865C270.642 363.766 275.976 359.288 279.001 356.915C282.026 354.541 290.747 347.177 298.381 340.55C306.014 333.922 313.404 327.558 314.802 326.408L317.343 324.315L314.553 320.658C313.019 318.646 311.576 317 311.347 317C310.664 317 312.93 320.838 314.006 321.503C314.553 321.841 315.001 322.766 315.001 323.559C315.001 326.201 312.533 325.003 309.686 320.979C307.167 317.418 305.001 315.878 305.001 317.647ZM129.046 319.555C129.756 320.41 131.274 321.596 132.419 322.19C134.277 323.155 134.24 322.988 132.077 320.636C129.516 317.852 126.841 316.897 129.046 319.555ZM300.001 331.882C300.001 332.432 300.451 333.16 301.001 333.5C301.551 333.84 302.001 333.668 302.001 333.118C302.001 332.568 301.551 331.84 301.001 331.5C300.451 331.16 300.001 331.332 300.001 331.882ZM293.001 335.755C293.001 336.305 293.676 337.315 294.501 338C295.338 338.694 296.001 338.803 296.001 338.245C296.001 337.695 295.326 336.685 294.501 336C293.664 335.306 293.001 335.197 293.001 335.755ZM279.907 346.824C280.514 347.959 281.504 349.193 282.106 349.565C282.89 350.05 282.887 349.656 282.095 348.176C281.488 347.041 280.498 345.807 279.896 345.435C279.112 344.95 279.115 345.344 279.907 346.824ZM282.001 345.378C282.001 345.585 282.789 346.373 283.751 347.128C285.337 348.371 285.372 348.336 284.129 346.75C282.822 345.084 282.001 344.555 282.001 345.378ZM270.001 352.69C270.001 353.24 270.901 354.505 272.001 355.5C273.101 356.495 274.001 356.86 274.001 356.31C274.001 355.76 273.101 354.495 272.001 353.5C270.901 352.505 270.001 352.14 270.001 352.69ZM274.501 353C274.841 353.55 275.569 354 276.119 354C276.669 354 276.841 353.55 276.501 353C276.161 352.45 275.433 352 274.883 352C274.333 352 274.161 352.45 274.501 353ZM261.001 354.665C261.001 355.166 262.38 357.134 264.066 359.038L267.131 362.5L265.316 359.173C263.39 355.642 261.001 353.147 261.001 354.665ZM214.001 369.706C207.962 371.914 206.317 378.518 210.221 384.882C213.233 389.793 226.393 402.484 230.486 404.426C236.99 407.512 240.687 405.925 236.378 401.895C234.97 400.578 233.355 398.6 232.789 397.5C232.224 396.4 233.84 397.506 236.381 399.958C242.158 405.533 242.508 404.111 236.793 398.288C231.484 392.879 233.163 392.621 238.748 397.988C244.162 403.19 245.557 401.229 240.366 395.714L236.501 391.609L240.251 394.355C244.302 397.322 244.899 396.638 242.428 391.859C240.998 389.094 240.998 388.661 242.428 387.08C243.293 386.125 244.001 384.997 244.001 384.574C244.001 383.24 230.733 370 229.396 370C225.977 370 227.345 372.8 234.074 379.574C238.099 383.626 241.091 387.244 240.721 387.613C240.352 387.982 236.796 385.017 232.818 381.024C222.703 370.868 218.212 368.167 214.001 369.706ZM204.406 390.25L202.501 392.5L204.751 390.595C205.989 389.547 207.001 388.535 207.001 388.345C207.001 387.545 206.196 388.136 204.406 390.25ZM192.001 392.441C192.001 393.784 192.496 395.188 193.102 395.562C193.743 395.958 193.952 397.496 193.602 399.243C193.089 401.808 193.216 402.066 194.479 401.019C195.71 399.997 197.467 401.371 205.073 409.306C210.087 414.538 214.081 419.197 213.946 419.659C213.812 420.122 211.583 421.71 208.992 423.19L204.283 425.88L200.894 421.357C199.031 418.87 195.598 415.272 193.266 413.361L189.025 409.886L191.192 406.955C194.361 402.67 192.933 402.459 189.54 406.711L186.652 410.33L190.553 413.605C192.699 415.406 194.163 417.172 193.807 417.528C193.451 417.884 189.411 419.48 184.83 421.074C180.249 422.669 177.089 423.979 177.808 423.987C180.267 424.012 188.499 421.713 189.914 420.606C190.968 419.78 191.438 419.832 191.767 420.811C192.111 421.831 192.611 421.758 194.02 420.483C195.726 418.939 196.064 419.139 199.843 423.919L203.854 428.994L206.678 426.638C210.993 423.036 216.006 420.768 218.316 421.372C219.46 421.671 220.983 421.43 221.699 420.836C223.362 419.456 223.402 415.92 221.751 416.25C221.025 416.395 220.604 415.661 220.747 414.5C220.915 413.136 218.132 409.638 211.997 403.505C207.049 398.557 203.007 394.957 203.014 395.505C203.021 396.052 206.818 400.473 211.452 405.328C216.836 410.969 219.674 414.689 219.312 415.632C218.849 416.838 218.311 416.7 216.373 414.88C215.068 413.654 214.001 413.125 214.001 413.703C214.001 415.671 217.153 417.505 221.251 417.923C223.099 418.112 221.766 420 219.784 420C218.279 420 214.098 416.448 206.77 408.943C194.252 396.125 192.199 393.402 193.825 391.776C194.654 390.947 195.651 390.975 197.642 391.882C200.042 392.976 200.196 392.94 199.047 391.555C198.337 390.7 196.461 390 194.879 390C192.494 390 192.001 390.419 192.001 392.441ZM229.501 402C230.496 403.1 231.536 404 231.811 404C232.086 404 231.496 403.1 230.501 402C229.506 400.9 228.466 400 228.191 400C227.916 400 228.506 400.9 229.501 402ZM224.501 407C224.161 407.55 224.36 408 224.942 408C225.524 408 226.001 407.55 226.001 407C226.001 406.45 225.803 406 225.56 406C225.317 406 224.841 406.45 224.501 407ZM123.141 408.147C118.157 409.581 119.909 410.155 125.839 409.031C131.773 407.905 138.817 408.94 145.576 411.93C153.953 415.636 158.971 423.469 160.033 434.5L160.708 441.5L160.854 434.311L161.001 427.123L165.751 426.483C174.489 425.305 176.031 424.004 167.958 424.62L160.414 425.196L156.672 419.56C154.614 416.46 151.821 413.502 150.465 412.986C145.131 410.959 149.172 408.461 156.293 409.384C159.405 409.788 159.85 409.704 158.001 409.064C154.502 407.854 149.212 407.816 147.025 408.987C145.734 409.678 143.915 409.528 140.965 408.487C136.266 406.829 128.252 406.676 123.141 408.147ZM250.544 408.931C250.227 409.443 250.426 410.144 250.985 410.49C251.544 410.835 252.001 410.416 252.001 409.559C252.001 407.802 251.401 407.544 250.544 408.931ZM113.23 412.75C107.567 416.575 105.278 419.838 103.518 426.596C101.777 433.282 101.625 434.825 102.843 433.45C103.306 432.928 104.232 429.94 104.901 426.811C106.343 420.067 108.66 416.847 114.89 412.934C117.426 411.341 119.006 410.029 118.401 410.019C117.797 410.009 115.47 411.238 113.23 412.75ZM171.251 411.728C173.314 411.944 176.689 411.944 178.751 411.728C180.814 411.513 179.126 411.336 175.001 411.336C170.876 411.336 169.189 411.513 171.251 411.728ZM124.774 414.197C121.197 415.148 111.34 422.874 113.596 422.959C114.198 422.982 115.548 422.052 116.596 420.894C118.759 418.502 125.18 415 127.402 415C128.217 415 129.161 414.55 129.501 414C130.217 412.842 129.809 412.859 124.774 414.197ZM133.001 414C133.826 414.533 135.626 414.931 137.001 414.885L139.501 414.801L137.001 414C135.626 413.56 133.826 413.161 133.001 413.115C131.668 413.04 131.668 413.138 133.001 414ZM143.695 417.893C145.892 419.485 148.93 422.297 150.447 424.143C153.438 427.784 152.89 426.231 149.58 421.686C147.637 419.018 142.17 415 140.483 415C140.053 415 141.498 416.302 143.695 417.893ZM111.123 426.25C109.436 430.828 108.969 434 109.982 434C110.542 434 111.001 432.904 111.001 431.565C111.001 430.226 111.44 427.976 111.976 426.565C112.513 425.154 112.726 424 112.451 424C112.176 424 111.579 425.012 111.123 426.25ZM190.46 425.067C190.097 425.653 190.015 426.348 190.277 426.61C190.539 426.872 191.02 426.392 191.346 425.543C192.022 423.781 191.446 423.471 190.46 425.067ZM153.602 432C154.299 437.624 152.298 442.637 147.402 447.532C143.013 451.921 143.311 453.085 147.76 448.928C153.027 444.005 156.287 437.595 155.47 433.769C154.302 428.301 152.991 427.059 153.602 432ZM187.45 431.468C186.653 433.375 186.039 436.188 186.086 437.718C186.147 439.703 186.521 439.058 187.395 435.464C188.068 432.695 188.956 429.882 189.369 429.214C189.781 428.546 189.845 428 189.509 428C189.173 428 188.247 429.561 187.45 431.468ZM202.08 430.668C202.037 431.311 201.742 432.661 201.425 433.668C200.878 435.409 200.907 435.412 201.996 433.712C202.627 432.729 202.921 431.379 202.651 430.712C202.296 429.837 202.137 429.825 202.08 430.668ZM102.597 439.176C102.951 441.554 104.036 445.355 105.008 447.622C106.909 452.056 113.533 460 115.33 460C115.932 460 114.99 458.762 113.236 457.25C109.165 453.739 104.001 443.791 104.001 439.457C104.001 437.621 103.54 435.833 102.977 435.485C102.304 435.069 102.174 436.332 102.597 439.176ZM110.001 437.642C110.001 438.729 110.67 440.491 111.487 441.559C112.838 443.323 112.87 443.18 111.839 440C110.432 435.66 110.001 435.107 110.001 437.642ZM200.001 440.667C200.001 443.233 200.164 445.146 200.363 444.917C201.24 443.909 201.721 436 200.906 436C200.408 436 200.001 438.1 200.001 440.667ZM288.001 439.559C288.001 440.416 288.458 440.835 289.017 440.49C289.576 440.144 289.775 439.443 289.458 438.931C288.601 437.544 288.001 437.802 288.001 439.559ZM158.625 445.539C157.66 448.053 157.944 448.702 159.123 446.675C159.707 445.671 159.974 444.639 159.716 444.382C159.459 444.124 158.967 444.645 158.625 445.539ZM114.354 447.7C116.197 451.241 119.819 454.563 122.839 455.48C126.154 456.487 135.112 456.289 136.216 455.185C136.787 454.614 134.4 454.453 130.022 454.766L122.899 455.276L117.898 450.088C114.299 446.353 113.306 445.684 114.354 447.7ZM200.08 447.583C200.128 448.748 200.365 448.985 200.684 448.188C200.973 447.466 200.937 446.603 200.605 446.271C200.273 445.939 200.037 446.529 200.08 447.583ZM173.001 449.134C173.001 449.61 174.013 450 175.251 450.001C178.601 450.001 187.779 453.729 191.593 456.638C193.434 458.042 196.296 461.905 197.954 465.221C200.229 469.775 201.129 470.829 201.63 469.525C201.994 468.575 201.889 467.506 201.395 467.149C200.902 466.792 199.824 465.154 198.999 463.509C196.525 458.569 189.245 452.146 184.679 450.876C177.644 448.918 173.001 448.225 173.001 449.134ZM158.001 452C156.708 452.835 156.735 452.971 158.192 452.985C159.122 452.993 160.161 452.55 160.501 452C161.283 450.734 159.959 450.734 158.001 452ZM140.501 453C140.161 453.55 140.36 454 140.942 454C141.524 454 142.001 453.55 142.001 453C142.001 452.45 141.803 452 141.56 452C141.317 452 140.841 452.45 140.501 453ZM151.035 454.831C148.761 456.729 148.032 457.901 148.823 458.39C149.471 458.79 150.001 458.653 150.001 458.085C150.001 457.516 151.351 456.353 153.001 455.5C154.651 454.647 156.001 453.51 156.001 452.974C156.001 451.339 154.583 451.869 151.035 454.831ZM169.251 455.119C164.719 456.427 165.195 456.784 170.758 456.249C178.042 455.549 182.872 457.322 188.398 462.722C191.086 465.35 192.777 466.527 192.155 465.338C190.203 461.603 183.064 456.253 178.5 455.104C173.524 453.851 173.642 453.851 169.251 455.119ZM202.196 460.5C202.216 462.15 202.44 462.704 202.694 461.731C202.948 460.758 202.931 459.408 202.657 458.731C202.383 458.054 202.176 458.85 202.196 460.5ZM145.981 462.524C145.285 463.362 144.91 464.242 145.146 464.479C145.383 464.715 146.126 464.03 146.797 462.955C148.249 460.63 147.765 460.375 145.981 462.524ZM121.001 462.847C121.001 463.313 119.988 464.154 118.751 464.716C117.077 465.477 118.421 465.608 124.001 465.229C128.126 464.949 131.726 464.385 132.001 463.976C132.276 463.566 133.401 463.007 134.501 462.732C135.601 462.457 133.013 462.18 128.751 462.116C124.488 462.052 121.001 462.381 121.001 462.847ZM144.08 467.583C144.128 468.748 144.365 468.985 144.684 468.188C144.973 467.466 144.937 466.603 144.605 466.271C144.273 465.939 144.037 466.529 144.08 467.583ZM139.584 471.52C141.392 473.891 142.509 476.912 143.004 480.77C143.408 483.922 143.812 485.825 143.902 485C144.028 483.833 144.413 483.944 145.636 485.5L147.208 487.5L146.65 485.5C146.343 484.4 145.552 481.3 144.893 478.612C144.146 475.567 142.565 472.645 140.699 470.862C136.697 467.037 136.33 467.254 139.584 471.52ZM372.001 468.93C359.722 471.385 349.056 484.728 349.012 497.689C349.001 500.734 348.787 500.906 344.251 501.52C336.385 502.583 333.302 503.924 328.224 508.489C316.101 519.389 311.895 542.052 320.708 548.984C324.458 551.934 331.869 551.681 338.884 548.362C344.376 545.764 354.254 539.017 355.487 537.022C356.418 535.516 358.001 535.78 358.001 537.441C358.001 539.664 360.155 540.476 361.182 538.64C361.687 537.738 362.762 537 363.57 537C364.666 537 364.872 536.302 364.379 534.25C364.017 532.737 363.597 531.351 363.447 531.17C363.296 530.988 367.548 525.503 372.895 518.982C382.95 506.717 386.263 501.104 390.004 490C395.239 474.462 387.811 465.769 372.001 468.93ZM120.001 470.605C118.351 471.617 118.181 471.901 119.501 471.44C123.948 469.889 126.349 469.795 130.071 471.023C134.714 472.555 136.921 475.58 137.983 481.867L138.766 486.5L138.88 482.5C139.162 472.583 128.119 465.624 120.001 470.605ZM114.052 474.662C112.9 476.127 111.683 478.418 111.348 479.753C110.44 483.372 112.562 489.205 115.979 492.479C119.877 496.214 119.892 494.779 116.001 490.347C112.342 486.179 111.944 480.245 114.99 475.25C117.389 471.316 116.917 471.02 114.052 474.662ZM201.159 476C201.159 477.375 201.386 477.938 201.663 477.25C201.941 476.563 201.941 475.438 201.663 474.75C201.386 474.063 201.159 474.625 201.159 476ZM105.742 478.332C105.335 479.339 105.001 481.162 105.001 482.382C105.001 483.602 104.439 485.206 103.751 485.947C103.064 486.687 102.989 487.022 103.586 486.69C104.929 485.942 108.426 492.975 107.28 494.121C106.825 494.576 104.664 495.603 102.477 496.404C97.1259 498.362 99.7369 498.406 105.486 496.453C110.302 494.818 112.502 495.252 111.581 497.653C111.257 498.497 111.456 498.837 112.056 498.466C112.624 498.115 113.755 498.381 114.569 499.056C115.383 499.732 116.303 500.032 116.612 499.722C116.921 499.413 116.018 498.402 114.605 497.476C110.488 494.779 107.731 489.336 107.078 482.616C106.681 478.537 106.236 477.11 105.742 478.332ZM151.087 478C151.056 478.825 151.468 480.175 152.001 481C153.182 482.828 153.182 481.249 152.001 478.5C151.434 477.181 151.123 477.011 151.087 478ZM324.001 478.118C324.001 478.675 324.489 480.042 325.084 481.156C325.68 482.269 326.168 485.17 326.168 487.602V492.024L331.334 491.865C334.176 491.778 337.176 491.885 338.001 492.103C338.948 492.354 339.353 491.947 339.101 491C338.881 490.175 338.262 486.95 337.726 483.833L336.752 478.166L333.441 478.703C331.62 478.999 328.751 478.76 327.066 478.172C325.031 477.463 324.001 477.445 324.001 478.118ZM194.521 481.605C192.604 486.194 190.764 488.369 185.601 492.146C183.226 493.884 182.345 495 183.348 495C185.993 495 193.154 487.877 195.245 483.167C196.303 480.784 196.932 478.598 196.643 478.309C196.354 478.02 195.4 479.503 194.521 481.605ZM200.117 481.168C200.053 482.086 199.742 483.661 199.425 484.668C198.88 486.404 198.91 486.407 199.993 484.719C200.621 483.739 200.932 482.164 200.684 481.219C200.278 479.67 200.222 479.665 200.117 481.168ZM153.005 483.75C153.01 484.804 156.857 491 157.507 491C157.801 491 157.123 489.2 156.001 487C154.076 483.226 152.996 482.055 153.005 483.75ZM197.001 489C196.362 490.194 196.064 491.396 196.339 491.671C196.614 491.946 197.362 491.194 198.001 490C198.64 488.806 198.938 487.604 198.663 487.329C198.388 487.054 197.64 487.806 197.001 489ZM134.275 491.681C131.172 495.115 130.836 495.234 125.49 494.791C122.279 494.524 120.303 494.702 120.813 495.212C121.298 495.697 123.554 496.168 125.826 496.258C130.216 496.434 134.051 494.317 136.773 490.217C138.878 487.046 137.994 487.564 134.275 491.681ZM84.4439 494.418C83.3769 495.198 82.7279 496.06 83.0029 496.332C83.2769 496.605 84.5629 495.967 85.8619 494.914C88.5769 492.712 87.3589 492.286 84.4439 494.418ZM153.001 496.713C153.001 497.585 156.999 500.345 157.5 499.819C157.668 499.644 156.724 498.691 155.403 497.703C154.082 496.715 153.001 496.269 153.001 496.713ZM172.751 496.662C173.439 496.94 174.564 496.94 175.251 496.662C175.939 496.385 175.376 496.158 174.001 496.158C172.626 496.158 172.064 496.385 172.751 496.662ZM79.9819 498.523C78.9249 499.796 78.9869 499.943 80.3599 499.416C81.2619 499.069 82.0009 498.384 82.0009 497.893C82.0009 496.607 81.4219 496.788 79.9819 498.523ZM133.001 499.089C130.847 500.851 130.805 500.986 132.695 500.062C133.902 499.472 135.166 498.542 135.504 497.995C136.407 496.534 135.801 496.799 133.001 499.089ZM91.0009 500.098C89.0759 501.226 86.6239 503.353 85.5519 504.825C83.9069 507.082 84.2309 506.954 87.6309 504C89.8469 502.075 92.5239 499.964 93.5799 499.309C96.8709 497.268 94.6899 497.935 91.0009 500.098ZM109.668 500.667C109.301 501.033 109.001 501.798 109.001 502.367C109.001 502.993 109.467 502.934 110.184 502.217C110.835 501.566 111.135 500.801 110.851 500.517C110.567 500.233 110.034 500.3 109.668 500.667ZM118.686 501.621C118.922 502.238 118.502 503.363 117.753 504.121C117.003 504.879 116.08 506.316 115.702 507.314C115.324 508.312 116.527 507.524 118.376 505.564C121.175 502.596 122.428 502 125.869 502C128.142 502 130.001 501.663 130.001 501.25C130.001 500.837 127.358 500.5 124.128 500.5C120.201 500.5 118.398 500.871 118.686 501.621ZM159.734 501.124C160.413 501.808 161.22 502.115 161.527 501.807C161.835 501.499 161.28 500.94 160.294 500.564C158.869 500.022 158.754 500.136 159.734 501.124ZM329.47 502.05C328.52 503.588 329.821 504.58 331.105 503.296C331.823 502.578 331.84 502.019 331.157 501.597C330.597 501.251 329.838 501.455 329.47 502.05ZM164.814 502.683C165.535 502.972 166.398 502.936 166.73 502.604C167.062 502.272 166.472 502.036 165.418 502.079C164.253 502.127 164.016 502.364 164.814 502.683ZM176.001 502.861C176.001 503.335 177.126 503.508 178.501 503.245C179.876 502.982 181.001 502.594 181.001 502.383C181.001 502.173 179.876 502 178.501 502C177.126 502 176.001 502.388 176.001 502.861ZM172.814 503.683C173.535 503.972 174.398 503.936 174.73 503.604C175.062 503.272 174.472 503.036 173.418 503.079C172.253 503.127 172.016 503.364 172.814 503.683ZM104.957 513.164C104.294 514.449 102.795 516.611 101.626 517.97C100.129 519.71 100.032 520.032 101.298 519.059C103.718 517.198 107.348 512.014 106.691 511.357C106.401 511.066 105.62 511.88 104.957 513.164ZM73.1969 519.125C73.0889 523.319 73.2819 528.156 73.6259 529.875C74.2319 532.905 74.4069 532.997 79.3759 532.9C82.1949 532.845 85.6259 532.449 87.0009 532.019C88.4229 531.575 86.4059 531.462 82.3219 531.758L75.1439 532.278L74.5669 528.889C74.2499 527.025 73.8559 522.35 73.6909 518.5L73.3929 511.5L73.1969 519.125ZM450.392 521.491C445.432 524.754 439.801 529.661 435.892 534.123C422.561 549.341 420.812 550.471 420.194 544.258C420.025 542.56 419.228 540.917 418.422 540.608C416.86 540.009 409.001 546.442 409.001 548.319C409.001 548.917 410.707 547.74 412.793 545.703C417.453 541.153 418.783 541.058 419.188 545.25C419.434 547.809 420.012 548.572 421.901 548.839C423.79 549.106 425.495 547.834 429.901 542.87C443.103 527.998 453.48 519.453 461.498 516.85C463.234 516.286 463.167 516.196 461.001 516.177C459.626 516.165 454.852 518.556 450.392 521.491ZM78.6899 521.25C78.3749 523.587 78.5399 525.928 79.0589 526.45C79.6489 527.046 80.0009 525.46 80.0009 522.2C80.0009 515.897 79.4659 515.509 78.6899 521.25ZM107.445 521.531C105.214 523.989 103.667 526 104.008 526C104.637 526 108.523 521.927 110.923 518.75C113.31 515.592 111.578 516.976 107.445 521.531ZM95.5079 521.989C95.1579 522.555 95.5589 522.723 96.4489 522.382C98.1809 521.717 98.4979 521 97.0599 521C96.5419 521 95.8439 521.445 95.5079 521.989ZM90.5709 523.887C90.2699 524.374 88.3969 525.078 86.4099 525.451C84.4229 525.824 83.0549 526.387 83.3699 526.702C84.1079 527.44 92.8819 525.001 93.5859 523.863C93.8789 523.388 93.4439 523 92.6189 523C91.7939 523 90.8719 523.399 90.5709 523.887ZM461.46 529.067C461.097 529.653 461.015 530.348 461.277 530.61C461.539 530.872 462.02 530.392 462.346 529.543C463.022 527.781 462.446 527.471 461.46 529.067ZM456.024 541.227C451.6 551.084 449.916 556 450.965 556C451.446 556 452.622 553.646 453.577 550.77C454.533 547.893 456.388 543.112 457.7 540.146C459.012 537.179 459.906 534.572 459.687 534.353C459.468 534.134 457.82 537.227 456.024 541.227ZM5.50086 539.346C3.50986 544.112 3.51286 564.182 5.50686 577.413C7.70086 591.973 7.53186 595.606 4.56686 597.549L2.13186 599.144L2.55686 618.322C2.79086 628.87 3.51686 639.619 4.16986 642.21C5.11386 645.949 5.09186 647.495 4.06786 649.71C2.81886 652.408 2.55386 656.772 2.85686 669.592L3.00086 675.685L11.0359 683.592C15.4549 687.942 20.2759 693.239 21.7499 695.363L24.4299 699.227L25.2609 696.363C25.7179 694.789 27.3909 687.181 28.9799 679.457C32.3019 663.304 33.6619 658.96 37.3889 652.601C40.5209 647.257 44.2329 645.651 46.5749 648.629C47.9179 650.337 47.9929 650.152 47.4329 646.5C45.5769 634.398 40.4019 616.8 35.1819 604.837C34.0619 602.272 30.4789 595.747 27.2189 590.337C22.0859 581.82 17.0009 571.823 17.0009 570.25C17.0009 569.098 19.9759 572.345 20.5349 574.109C20.8719 575.169 22.9139 578.945 25.0739 582.5C27.2339 586.055 29.0009 589.267 29.0009 589.638C29.0009 590.008 30.0939 591.744 31.4289 593.495C37.5679 601.543 47.3119 627.879 49.3669 641.977C50.0469 646.639 50.8829 650.001 51.2249 649.447C51.5669 648.894 53.1839 645.079 54.8179 640.97C60.0019 627.941 62.8349 622.39 66.9719 617.156C70.9419 612.134 74.0009 611.118 74.0009 614.821C74.0009 616.258 74.1619 616.268 75.5179 614.912C76.7719 613.658 76.8329 612.798 75.8689 609.947C74.3519 605.459 74.5699 605.581 71.5879 607.535C68.4029 609.622 68.2449 608.48 71.2509 605.095C73.1579 602.947 73.1959 602.778 71.5009 603.983C70.4009 604.765 68.4899 606.291 67.2549 607.373C63.3929 610.757 63.4419 608.156 67.3159 604.189C72.9399 598.43 71.7069 598.729 65.2509 604.69C57.4209 611.92 56.1569 611.422 63.5009 604C67.1439 600.319 68.8209 598 67.8419 598C66.9639 598 65.7039 597.347 65.0419 596.549C64.0159 595.313 63.4099 595.535 60.9529 598.049C56.4339 602.672 55.1219 601.503 59.5479 596.797C62.9899 593.138 62.0079 593.138 58.1359 596.798C55.2029 599.569 55.8139 596.788 58.8189 593.687C60.5689 591.882 62.0009 589.676 62.0009 588.784C62.0009 581.738 55.9469 582.752 53.0859 590.277C50.6559 596.668 46.0999 593.835 42.5329 583.716C40.0769 576.748 35.3469 567.254 32.3289 563.235C30.9799 561.44 27.7329 558.884 25.1119 557.556C19.9079 554.919 16.6629 551.222 12.7209 543.437C11.3109 540.653 9.44686 537.785 8.57886 537.065C7.21386 535.932 6.79886 536.24 5.50086 539.346ZM407.46 551.067C407.097 551.653 407.015 552.348 407.277 552.61C407.539 552.872 408.02 552.392 408.346 551.543C409.022 549.781 408.446 549.471 407.46 551.067ZM403.159 565C403.159 566.375 403.386 566.938 403.663 566.25C403.941 565.563 403.941 564.438 403.663 563.75C403.386 563.063 403.159 563.625 403.159 565ZM442.568 569.867C439.875 575.181 439.274 579.433 441.059 580.536C441.64 580.895 443.784 580.086 445.822 578.737C451.197 575.18 453.243 574.775 456.825 576.562C461.771 579.03 460.687 584.682 453.132 595.807L448.863 602.094L446.761 599.297C445.605 597.759 444.22 596.05 443.683 595.5C442.366 594.15 443.826 596.749 446.279 600.121C448.086 602.604 448.098 602.911 446.52 605.964C443.16 612.46 445.862 609.772 452.25 600.262C459.081 590.094 461.414 584.473 460.84 579.568C460.561 577.19 459.747 576.399 456.276 575.139C452.416 573.737 451.77 573.751 448.776 575.296C446.975 576.227 444.735 577.537 443.799 578.208C440.896 580.291 440.793 578.472 443.445 571.944C446.58 564.23 446.055 562.987 442.568 569.867ZM190.494 572.151C189.39 572.667 187.771 574.306 186.897 575.795C186.022 577.283 183.826 580.854 182.016 583.731C178.834 588.79 175.607 599.79 172.99 614.5C171.793 621.226 170.138 626 169.002 626C167.73 626 166.2 623.644 165.427 620.494C165.024 618.847 164.237 617.202 163.679 616.837C162.035 615.762 158.238 618.882 157.053 622.28C155.792 625.899 154.358 646.836 155.441 645.838C155.835 645.474 156.522 639.88 156.966 633.407C157.624 623.823 158.109 621.394 159.579 620.32C162.475 618.202 163.472 618.737 165.032 623.25C166.079 626.278 167.128 627.589 168.683 627.811C171.744 628.246 172.434 626.505 175.963 609.432C180.272 588.59 180.351 588.39 189.524 575.25C192.593 570.853 193.475 572.358 194.993 584.583L195.851 591.5L195.676 582.785C195.482 573.131 194.168 570.434 190.494 572.151ZM265.107 574.894C264.065 575.936 261.409 579.873 259.203 583.644C256.998 587.415 253.793 592.258 252.082 594.407C244.762 603.598 243.502 607.877 242.616 626.55C242.029 638.92 241.616 640.601 238.789 642.113C236.159 643.521 232.882 640.475 230.121 634.056C227.891 628.873 225.372 626.149 224.144 627.592C223.719 628.092 222.56 631.754 221.569 635.73C219.399 644.431 219.897 650.015 224.078 663.882C228.931 679.976 227.871 683.154 219.029 679.013C210.947 675.228 210.707 676.564 216.518 693C218.365 698.225 220.175 704.3 220.541 706.5C222.011 715.346 234.838 729.955 249.822 739.847C258.405 745.513 259.579 746 264.655 746C267.687 746 269.998 745.663 269.791 745.25C264.379 734.474 259.352 720.501 257.572 711.282C256.746 707.002 255.369 692.025 254.513 678C253.657 663.975 252.679 649.688 252.34 646.25C251.91 641.884 252.068 640 252.863 640C253.597 640 254.001 642.303 254.001 646.481C254.001 650.046 254.433 658.483 254.96 665.231C255.488 671.979 256.42 684.245 257.032 692.489C257.643 700.734 258.557 709.66 259.063 712.326C260.118 717.893 266.102 734.292 269.586 741.167L271.951 745.834L279.226 746.202C283.227 746.404 286.853 746.292 287.282 745.954C287.712 745.615 287.378 742.708 286.541 739.493C284.719 732.497 285.299 730.801 287.239 737.453C287.987 740.018 289.027 741.978 289.55 741.809C290.57 741.478 290.574 741.112 289.61 736.5C289.041 733.776 289.111 733.822 290.376 737L291.769 740.5L292.938 737.544C293.582 735.918 294.592 731.166 295.184 726.984C296.065 720.748 295.966 717.932 294.63 711.34C293.734 706.918 293.001 700.339 293.001 696.72C293.001 687.538 288.318 680.147 285.099 684.25C279.434 691.471 277.044 693.462 275.304 692.408C269.598 688.952 270.25 683.532 279.262 659.5C283.348 648.602 285.423 641.507 285.768 637.25C286.047 633.813 286.009 631 285.685 631C283.442 631 278.893 634.012 275.501 637.742C271.16 642.517 268.481 642.76 267.406 638.477C266.754 635.88 268.192 623.695 270.649 611C272.782 599.982 273.084 577.016 271.129 574.656C269.331 572.487 267.439 572.562 265.107 574.894ZM2.08686 585.333C2.02186 592.796 2.30186 595.061 3.25086 594.728C4.70186 594.219 4.60286 583.338 3.10286 578.5C2.37986 576.17 2.15386 577.695 2.08686 585.333ZM451.001 588.378C451.001 588.585 451.789 589.373 452.751 590.128C454.337 591.371 454.372 591.336 453.129 589.75C451.822 588.084 451.001 587.555 451.001 588.378ZM62.8729 599.75C61.6299 601.336 61.6649 601.371 63.2509 600.128C64.2139 599.373 65.0009 598.585 65.0009 598.378C65.0009 597.555 64.1799 598.084 62.8729 599.75ZM257.512 612.25C255.882 617.032 253.912 626.847 253.513 632.172C253.112 637.546 253.319 636.992 254.886 628.5C255.901 623 257.206 616.813 257.785 614.75C258.745 611.337 258.521 609.29 257.512 612.25ZM441.082 626.849C440.487 627.96 440.019 629.461 440.041 630.184C440.063 630.908 440.773 630.223 441.619 628.662C442.465 627.1 442.934 625.599 442.66 625.326C442.387 625.052 441.677 625.738 441.082 626.849ZM137.018 629.455C135.751 632.788 135.742 641.209 137 646.5C137.523 648.7 138.247 654.571 138.609 659.548C139.258 668.46 139.23 668.62 136.723 670.263C134.506 671.715 134.088 672.895 133.475 679.43C132.774 686.918 132.78 686.946 137.351 696.021C142.377 706.001 142.668 709.94 138.622 713.219C136.49 714.948 134.463 714.839 130.253 712.769C127.027 711.183 126.503 712.332 127.83 718.08C128.474 720.87 129.001 724.261 129.001 725.616C129.001 729.764 132.644 735.522 138.663 740.887L144.4 746H158.201C169.214 746 172.001 745.724 172.001 744.631C172.001 741.414 168.814 725.411 166.001 714.501C164.329 708.015 163.108 702.56 163.288 702.379C164.022 701.646 169.983 723.145 171.502 732C172.398 737.225 173.335 742.513 173.585 743.75C174.017 745.892 174.482 745.998 183.27 745.955L192.501 745.91L188.001 743.5C182.442 740.523 185.012 740.232 191.503 743.104L196.26 745.208L198.604 742.354C201.345 739.017 205.303 729.229 204.625 727.462C204.368 726.792 204.548 725.851 205.026 725.372C206.699 723.693 207.233 706.808 205.765 702C204.409 697.561 204.337 697.505 200.446 697.841C198.276 698.028 195.531 699.079 194.345 700.176C190.922 703.345 188.383 701.279 187.066 694.253C186.473 691.089 185.118 685.125 184.055 681C182.991 676.875 181.861 672.263 181.542 670.75C181.224 669.237 180.533 668 180.008 668C178.656 668 176.001 673.453 176.001 676.228C176.001 679.065 173.393 683 171.512 683C169.239 683 166.413 678.036 162.974 668C158.835 655.922 156.7 651.688 153.786 649.779C152.504 648.939 150.182 645.607 148.626 642.376C147.07 639.144 145.056 634.977 144.149 633.115C143.243 631.253 141.496 629.066 140.268 628.254C138.177 626.873 137.971 626.949 137.018 629.455ZM198.501 636.469C196.851 637.821 195.882 638.944 196.347 638.964C197.659 639.02 203.001 635.664 203.001 634.784C203.001 633.411 201.586 633.94 198.501 636.469ZM363.724 645.454C361.386 650.359 361.557 651.241 364.053 647.146C365.178 645.301 365.952 643.353 365.773 642.816C365.594 642.279 364.672 643.466 363.724 645.454ZM442.145 644.75C441.054 647.3 441.079 647.359 442.485 645.559C443.319 644.491 444.001 643.254 444.001 642.809C444.001 641.289 443.323 641.999 442.145 644.75ZM197.501 654C197.161 654.55 197.36 655 197.942 655C198.524 655 199.001 654.55 199.001 654C199.001 653.45 198.803 653 198.56 653C198.317 653 197.841 653.45 197.501 654ZM152.08 668.583C152.128 669.748 152.365 669.985 152.684 669.188C152.973 668.466 152.937 667.603 152.605 667.271C152.273 666.939 152.037 667.529 152.08 668.583ZM393.687 669.421C392.966 672.022 393.323 672.75 396.939 676.056C399.173 678.098 401.001 679.231 401.001 678.573C401.001 677.915 399.68 676.4 398.066 675.206C396.061 673.724 395.03 671.999 394.814 669.768L394.497 666.5L393.687 669.421ZM112.916 680.192C112.246 681.461 109.793 684.975 107.465 688C100.902 696.529 100.553 697.525 102.819 701.29C103.882 703.056 105.98 707.65 107.483 711.5C111.602 722.056 117.466 732.833 122.58 739.25C126.917 744.691 127.4 745 131.582 745C136.803 745 137.436 743.139 133.603 739.055C130.254 735.486 127.001 729.02 127.001 725.932C127.001 724.503 126.483 720.755 125.85 717.603C124.872 712.731 124.929 711.643 126.234 710.339C127.472 709.1 128.192 709.032 129.97 709.983C131.181 710.632 132.357 710.977 132.584 710.751C132.81 710.524 132.277 708.232 131.4 705.657L129.804 700.974L124.856 704.607C122.134 706.605 119.656 707.988 119.349 707.681C118.857 707.189 123.379 702.753 127.911 699.282C128.785 698.612 129.156 698.049 128.735 698.032C128.314 698.014 125.195 700.019 121.804 702.486C118.414 704.953 115.383 706.714 115.07 706.4C114.757 706.085 115.424 705.079 116.551 704.164C122.195 699.584 127.213 694.989 125.028 696.402C123.669 697.281 122.302 698 121.991 698C120.769 698 121.218 694.065 122.568 692.944C124.57 691.283 124.357 689.626 121.855 687.405C120.674 686.357 118.454 683.786 116.921 681.692L114.134 677.883L112.916 680.192ZM92.1009 698.705C92.8299 699.917 93.6409 700.694 93.9039 700.431C94.1669 700.168 93.5709 699.176 92.5799 698.226C90.8579 696.577 90.8359 696.598 92.1009 698.705ZM97.0009 703.398C94.1629 707.02 83.7489 716.668 79.9959 719.152L77.5009 720.804L80.0009 725.652C81.3759 728.318 85.6999 733.763 89.6109 737.75L96.7199 745H110.548H124.375L121.906 742.25C115.693 735.33 110.285 725.801 104.957 712.389C103.268 708.138 101.35 703.658 100.694 702.434L99.5009 700.208L97.0009 703.398ZM126.495 705.006C125.497 706.11 124.892 707.224 125.151 707.483C125.813 708.145 130.001 705.088 130.001 703.943C130.001 702.393 128.43 702.869 126.495 705.006ZM79.4449 707.687C80.2929 709.439 81.4849 711.181 82.0939 711.557C83.4349 712.386 81.9889 709.537 79.5259 706.5C78.0209 704.644 78.0149 704.729 79.4449 707.687ZM260.649 709C260.983 711.475 261.641 714.4 262.112 715.5C263.15 717.924 262.096 710.734 260.866 707C260.324 705.355 260.25 706.039 260.649 709ZM83.5649 708.293C83.9409 709.279 84.4999 709.834 84.8079 709.526C85.1159 709.219 84.8089 708.412 84.1249 707.733C83.1369 706.753 83.0229 706.868 83.5649 708.293ZM383.501 716C383.841 716.55 385.33 716.968 386.81 716.93C389.213 716.867 389.287 716.767 387.501 716C384.723 714.806 382.763 714.806 383.501 716ZM263.087 719C263.056 719.825 263.468 721.175 264.001 722C265.182 723.828 265.182 722.249 264.001 719.5C263.434 718.181 263.123 718.011 263.087 719ZM57.0009 722.941C57.0009 723.459 57.4459 724.157 57.9899 724.493C58.5559 724.843 58.7239 724.442 58.3829 723.552C57.7179 721.82 57.0009 721.503 57.0009 722.941ZM68.3039 727.25C59.8499 733.58 48.3969 743.741 49.0379 744.341C49.8439 745.095 94.0009 745.863 94.0009 745.124C94.0009 744.735 91.9439 742.41 89.4309 739.958C86.9169 737.506 82.8329 732.462 80.3539 728.75C77.8749 725.038 75.7279 722 75.5809 722C75.4349 722 72.1599 724.362 68.3039 727.25ZM376.265 722.718C377.785 722.947 380.035 722.941 381.265 722.704C382.495 722.467 381.251 722.279 378.501 722.286C375.751 722.294 374.745 722.488 376.265 722.718ZM196.501 725C196.841 725.55 198.33 725.968 199.81 725.93C202.213 725.867 202.287 725.767 200.501 725C197.723 723.806 195.763 723.806 196.501 725ZM374.27 725.693C375.243 725.947 376.593 725.93 377.27 725.656C377.947 725.382 377.151 725.175 375.501 725.195C373.851 725.215 373.297 725.439 374.27 725.693ZM281.087 729.5C281.191 731.394 282.857 734.584 282.915 733C282.946 732.175 282.534 730.825 282.001 730C281.468 729.175 281.056 728.95 281.087 729.5ZM280.142 738C280.142 738.825 280.528 740.4 281.001 741.5C281.543 742.761 281.86 742.945 281.86 742C281.86 741.175 281.474 739.6 281.001 738.5C280.459 737.239 280.142 737.055 280.142 738ZM196.501 739C196.841 739.55 197.569 740 198.119 740C198.669 740 198.841 739.55 198.501 739C198.161 738.45 197.433 738 196.883 738C196.333 738 196.161 738.45 196.501 739ZM278.08 739.583C278.128 740.748 278.365 740.985 278.684 740.188C278.973 739.466 278.937 738.603 278.605 738.271C278.273 737.939 278.037 738.529 278.08 739.583ZM137.001 744.031C137.001 745.32 139.85 746.484 140.765 745.569C141.138 745.196 140.781 744.473 139.972 743.961C138.036 742.737 137.001 742.761 137.001 744.031ZM104.418 760.917C104.189 761.146 104.001 762.658 104.001 764.277V767.222L105.839 764.952C108.643 761.489 110.001 763.303 110.001 770.509C110.001 775.541 109.629 777.117 108.251 777.92C106.219 779.104 106.189 779.09 111.751 779.498C115.922 779.805 118.29 778.709 115.647 777.694C113.788 776.981 112.595 765.194 114.188 763.275C115.195 762.062 115.641 762.197 117.126 764.166C118.701 766.253 118.944 766.312 119.546 764.743C120.998 760.959 119.47 760.061 111.963 760.286C108.042 760.404 104.647 760.688 104.418 760.917ZM124.272 761.766C125.876 763.557 126.413 766.815 126.152 773.183C126.04 775.918 125.483 777.03 123.986 777.505C120.848 778.501 122.694 780 127.06 780C131.067 780 131.86 779.259 129.923 777.322C129.33 776.729 128.992 774.951 129.173 773.372C129.465 770.819 129.89 770.5 133.001 770.5C135.895 770.5 136.558 770.899 136.828 772.808C137.008 774.077 136.435 776.215 135.555 777.558C133.968 779.98 133.982 780 137.311 780C141.647 780 142.243 779.299 140.355 776.418C138.859 774.135 138.907 771.779 140.634 762.75C141.116 760.231 140.901 760 138.08 760C134.87 760 134.244 760.843 136.086 762.685C136.682 763.281 137.02 764.834 136.836 766.135C136.575 767.98 135.794 768.568 133.285 768.811C130.508 769.079 129.977 768.751 129.388 766.405C128.898 764.454 129.17 763.349 130.354 762.484C132.789 760.703 132.459 760.455 127.36 760.233C123.02 760.044 122.82 760.143 124.272 761.766ZM145.518 760.973C145.24 761.423 145.685 762.048 146.507 762.364C147.635 762.797 148.001 764.646 148.001 769.91C148.001 773.744 147.551 777.16 147.001 777.5C144.855 778.827 146.187 779.535 150.121 779.16C152.388 778.944 153.807 778.482 153.275 778.133C151.782 777.155 150.978 772.655 152.001 771C152.731 769.819 153.171 769.77 154.159 770.758C156.239 772.838 157.001 772.173 157.001 768.277C157.001 764.623 156.972 764.596 155.444 766.777C153.216 769.959 151.824 769.52 152.188 765.75C152.446 763.074 152.97 762.446 155.154 762.193C156.999 761.979 158.287 762.57 159.381 764.133C161.246 766.795 162.481 766.05 161.656 762.761C161.112 760.592 160.541 760.419 153.547 760.292C149.409 760.217 145.796 760.523 145.518 760.973ZM176.269 761.766C177.833 763.515 178.301 766.427 178.107 773.183C178.028 775.941 177.495 777.026 175.986 777.505C172.848 778.501 174.694 780 179.06 780C183.363 780 183.516 779.831 181.916 776.841C181.319 775.726 181.11 773.703 181.45 772.346C181.972 770.269 182.578 769.928 185.285 770.189C189.123 770.56 190.088 773.692 187.555 777.558L185.955 780H189.978C192.191 780 194.001 779.826 194.001 779.614C194.001 779.402 193.352 777.978 192.559 776.449C191.766 774.921 191.295 772.507 191.512 771.085C193.245 759.732 193.282 760 190.013 760C186.865 760 186.254 760.853 188.086 762.685C188.682 763.281 189.02 764.834 188.836 766.135C188.575 767.98 187.794 768.568 185.285 768.811C182.508 769.079 181.977 768.751 181.388 766.405C180.898 764.454 181.17 763.349 182.354 762.484C184.789 760.703 184.459 760.455 179.36 760.233C175.021 760.044 174.82 760.144 176.269 761.766ZM197.001 760.893C197.001 761.384 197.676 762.045 198.501 762.362C200.394 763.088 200.644 775.957 198.801 777.8C197.868 778.733 198.45 779 201.423 779C204.507 779 205.031 778.741 204.133 777.659C202.607 775.821 203.031 764.113 204.683 762.461C206.773 760.371 206.294 760 201.501 760C199.026 760 197.001 760.402 197.001 760.893ZM209.518 760.973C209.24 761.423 209.685 762.048 210.507 762.364C211.635 762.797 212.001 764.646 212.001 769.91C212.001 773.744 211.551 777.16 211.001 777.5C208.895 778.801 210.155 779.538 213.878 779.183L217.755 778.813L216.364 776.025C214.479 772.247 216.433 767.654 218.501 771C219.816 773.127 221.001 771.837 221.001 768.277C221.001 764.623 220.972 764.596 219.444 766.777C217.216 769.959 215.824 769.52 216.188 765.75C216.446 763.074 216.97 762.446 219.154 762.193C220.999 761.979 222.287 762.57 223.381 764.133C225.246 766.795 226.481 766.05 225.656 762.761C225.112 760.592 224.541 760.419 217.547 760.292C213.409 760.217 209.796 760.523 209.518 760.973ZM229.001 760.893C229.001 761.384 229.676 762.045 230.501 762.362C231.636 762.797 232.001 764.634 232.001 769.91C232.001 773.744 231.551 777.16 231.001 777.5C229.083 778.686 230.031 779.501 233.412 779.571C236.711 779.64 236.801 779.541 236.285 776.365C235.993 774.562 236.028 772.373 236.362 771.501C237.375 768.863 240.821 771.47 241.188 775.15C241.603 779.323 244.332 781.097 246.697 778.733C248.163 777.267 248.194 777 246.9 777C246.06 777 244.594 775.369 243.643 773.376C242.083 770.105 242.065 769.586 243.458 768.047C246.042 765.192 245.38 762.328 241.852 761.098C238.071 759.78 229.001 759.635 229.001 760.893ZM253.838 761.25C248.599 765.489 247.547 772.199 251.416 776.694C252.744 778.237 254.057 779.274 254.334 778.999C254.611 778.723 254.386 776.473 253.835 773.999C252.521 768.104 254.461 761.648 257.684 761.189C260.177 760.834 261.455 762.754 262.271 768.077C263.156 773.852 261.819 778.318 258.968 779.113C256.965 779.671 256.877 779.817 258.501 779.885C262.494 780.053 266.001 775.291 266.001 769.701C266.001 762.916 258.35 757.6 253.838 761.25ZM266.571 760.886C266.27 761.374 266.918 762.007 268.012 762.293C269.763 762.75 270.001 763.667 270.001 769.938C270.001 775.349 269.64 777.201 268.501 777.638C265.509 778.787 267.105 780 271.608 780C275.637 780 276.114 779.78 275.407 778.25C274.962 777.288 274.577 773.125 274.55 769C274.502 761.654 274.552 761.5 277.001 761.5C279.223 761.5 279.501 761.917 279.501 765.251C279.501 769.07 280.646 769.955 282.801 767.8C284.869 765.732 284.195 762.409 281.454 761.161C278.469 759.801 267.369 759.596 266.571 760.886ZM286.437 761.535C287.856 762.603 288.487 764.566 288.799 768.884C289.161 773.888 288.907 775.094 287.113 776.888C284.26 779.741 284.401 780 288.814 780H292.627L292.564 775.25C292.502 770.607 292.574 770.493 295.751 770.187C298.859 769.887 299.001 770.026 299.001 773.378C299.001 775.305 298.551 777.16 298.001 777.5C295.881 778.81 297.148 780.113 300.251 779.813C302.614 779.586 303.367 779.091 303.01 778C302.373 776.053 302.373 763.929 303.01 762.059C303.563 760.437 300.777 759.488 298.275 760.448C297.049 760.919 296.944 761.343 297.834 762.233C298.476 762.875 299.001 764.66 299.001 766.2C299.001 768.637 298.617 769 296.036 769C294.132 769 292.702 768.31 292.04 767.072C290.953 765.042 291.594 762 293.108 762C293.599 762 294.001 761.648 294.001 761.217C294.001 760.787 291.864 760.354 289.251 760.256C284.888 760.091 284.659 760.195 286.437 761.535ZM316.354 761.201C315.9 761.916 314.509 765.425 313.262 769C312.015 772.575 310.032 776.299 308.856 777.275C306.086 779.574 307.02 780.407 311.437 779.578C314.656 778.974 314.857 778.742 313.733 776.928C312.724 775.3 312.773 774.766 314.001 773.985C317.98 771.454 322.207 774.914 318.472 777.645C316.429 779.139 316.484 779.167 321.501 779.167C328.331 779.167 328.704 779.03 325.958 777.536C323.556 776.23 320.001 768.023 320.001 763.785C320.001 761.433 317.385 759.579 316.354 761.201ZM330.001 760.933C330.001 761.446 330.901 762.151 332.001 762.5C333.542 762.989 334.037 764.094 334.159 767.317C334.404 773.765 334.093 775.403 332.382 776.683C329.231 779.042 334.317 781.355 337.798 779.146C338.835 778.489 338.784 778.065 337.548 777.039C335.854 775.633 335.331 767 336.94 767C337.456 767 339.545 769.7 341.582 773C343.619 776.3 345.671 779 346.143 779C346.615 779 347.001 775.427 347.001 771.059C347.001 766.691 347.451 762.84 348.001 762.5C349.972 761.282 348.947 760 346.001 760C344.351 760 343.001 760.45 343.001 761C343.001 761.55 343.451 762 344.001 762C344.551 762 344.997 764.362 344.992 767.25L344.983 772.5L340.863 766.25C337.161 760.634 336.4 760 333.372 760C331.518 760 330.001 760.42 330.001 760.933ZM352.435 760.899C352.196 761.138 352.025 762.721 352.053 764.417L352.106 767.5L353.675 765.25C355.863 762.114 357.64 762.444 358.376 766.125C359.607 772.279 359.108 775.811 356.778 777.443C354.234 779.225 354.181 779.184 359.501 779.571C364.835 779.959 367.301 779.108 364.251 777.932C362.216 777.147 362.001 776.399 362.001 770.091C362.001 762.713 363.108 760.597 365.209 763.961C366.996 766.823 368.191 766.497 367.817 763.25C367.505 760.531 367.418 760.5 360.185 760.483C356.161 760.473 352.673 760.661 352.435 760.899ZM236.195 762.271C234.631 764.161 235.926 769 237.995 769C240.262 769 242.385 766.444 241.669 764.578C240.776 762.249 237.392 760.823 236.195 762.271ZM315.001 769C315.001 770.289 315.507 770.998 316.251 770.75C316.939 770.521 317.501 769.733 317.501 769C317.501 768.267 316.939 767.479 316.251 767.25C315.507 767.002 315.001 767.711 315.001 769ZM158.94 776.024L156.379 778.839L158.769 779.296C161.347 779.789 162.371 778.411 161.83 775.177C161.529 773.374 161.286 773.445 158.94 776.024ZM222.866 776.107C220.527 778.676 220.443 779 222.116 779C223.153 779 224.306 779.112 224.679 779.25C225.579 779.582 227.015 774.124 226.163 773.611C225.799 773.392 224.315 774.515 222.866 776.107Z" fill="black"/>
</svg>
