<svg width="470" height="793" viewBox="0 0 470 793" fill="none" xmlns="http://www.w3.org/2000/svg">
<path fill-rule="evenodd" clip-rule="evenodd" d="M0.667 0.667C0.3 1.033 0 179.2 0 396.593V791.853L8.75 792.248C13.563 792.466 119.037 792.73 243.137 792.836C448.943 793.012 468.829 792.889 469.387 791.433C469.724 790.555 469.948 612.011 469.884 394.668C469.82 177.326 469.621 0.175 469.44 1C469.26 1.825 468.94 125.211 468.729 275.19C468.417 496.439 468.1 548.175 467.05 549.44C466.338 550.298 466.148 551 466.628 551C467.118 551 467.387 582.595 467.243 623.25C467.101 662.987 466.988 707.148 466.993 721.384L467 747.268L352.25 746.632C210.19 745.845 90.25 744.921 79 744.527C74.325 744.363 55.074 744.178 36.22 744.115L1.94 744L1.927 711.75C1.92 694.012 1.902 678.825 1.886 678C1.87 677.175 1.91 666.825 1.975 655C2.04 643.175 2.09 577.25 2.086 508.5C2.083 439.75 2.093 341.425 2.109 290C2.143 178.248 2.105 86.396 2.004 38.25C1.935 5.07 2.035 2.998 3.715 2.965C4.697 2.946 26.65 2.959 52.5 2.994C78.35 3.029 100.175 3.044 101 3.028C101.825 3.011 126.177 2.719 155.117 2.379L207.733 1.761L207.873 7.927C208.197 22.283 216.366 31.246 230.754 33.032C247.988 35.172 259.078 26.817 261.295 10.023L262.354 2L293.427 1.983C337.61 1.958 445.42 0.821 445.917 0.375C446.146 0.169 346.208 0 223.833 0C101.458 0 1.033 0.3 0.667 0.667ZM447.813 0.683C448.534 0.972 449.397 0.936 449.729 0.604C450.061 0.272 449.471 0.036 448.417 0.079C447.252 0.127 447.015 0.364 447.813 0.683ZM452.25 0.689C453.212 0.941 454.788 0.941 455.75 0.689C456.712 0.438 455.925 0.232 454 0.232C452.075 0.232 451.288 0.438 452.25 0.689ZM0.248 396L0 791.5H234H468V770.75V750L464.75 750.007C439.454 750.062 260.403 748.888 237 748.513C219.675 748.235 159.6 747.927 103.5 747.828L1.5 747.648L0.998 374.074L0.496 0.5L0.248 396ZM210.229 7.269C211.435 22.286 220.978 30.977 236.282 30.994C248.829 31.009 258.155 21.381 259.674 6.843L260.285 1H235.006H209.726L210.229 7.269ZM229.843 13.5C230.04 15.975 230.561 18 231 18C231.439 18 231.96 15.975 232.157 13.5C232.436 9.99 232.181 9 231 9C229.819 9 229.564 9.99 229.843 13.5ZM237.487 12.98C238.869 15.169 240 17.419 240 17.98C240 18.541 240.639 19 241.421 19C242.509 19 242.293 17.967 240.497 14.59C239.208 12.165 238.418 9.915 238.743 9.59C239.068 9.266 238.353 9 237.154 9H234.975L237.487 12.98ZM240 9.969C240 10.501 240.675 10.678 241.5 10.362C242.325 10.045 243 9.609 243 9.393C243 9.177 242.325 9 241.5 9C240.675 9 240 9.436 240 9.969ZM235.5 18C235.16 18.55 235.359 19 235.941 19C236.523 19 237 18.55 237 18C237 17.45 236.802 17 236.559 17C236.316 17 235.84 17.45 235.5 18ZM385.117 54.25C382.947 57.138 379.65 61.221 377.79 63.325L374.409 67.149L362.037 67.325C353.013 67.453 349.55 67.846 349.24 68.777C349.006 69.48 352.463 73.792 356.921 78.36C366.237 87.904 366.27 87.587 355.414 92.916C344.035 98.501 343.365 100.51 352.54 101.535C355.268 101.84 360.064 102.576 363.198 103.171C368.47 104.17 368.941 104.485 369.495 107.376C370.803 114.201 374.318 124 375.458 124C376.683 124 382.969 116.792 383.038 115.309C383.058 114.864 384.603 112.715 386.469 110.533L389.864 106.566L399.182 108.69C404.307 109.859 408.864 110.47 409.308 110.049C410.068 109.33 408.479 105.689 403.269 96.212L401.037 92.153L407.319 87.217C410.774 84.502 415.26 81.205 417.288 79.89C420.641 77.716 422.137 75.186 420.25 74.877C419.837 74.81 414.866 74.473 409.202 74.127L398.905 73.5L396.034 64.946C394.456 60.242 392.852 54.729 392.471 52.696C392.076 50.591 391.193 49 390.42 49C389.674 49 387.287 51.362 385.117 54.25ZM387.436 54.75C386.449 56.263 383.391 60.313 380.641 63.75L375.641 70H363.443H351.244L359.622 78.177C364.23 82.675 368 86.915 368 87.6C368 88.285 364.288 90.814 359.75 93.221C355.212 95.627 351.6 98.024 351.722 98.548C351.844 99.071 355.025 99.817 358.789 100.205C368.647 101.221 370.624 102.183 371.406 106.349C372.561 112.507 375.05 120 375.941 120C376.416 120 379.211 116.632 382.152 112.516C388.184 104.075 388.687 103.899 399.492 106.441C402.787 107.216 405.669 107.664 405.896 107.437C406.123 107.21 404.437 103.437 402.149 99.052L397.988 91.08L407.465 84.344C412.677 80.639 416.817 77.483 416.665 77.331C416.513 77.18 413.433 76.768 409.821 76.417C405.147 75.963 403.038 76.13 402.502 76.996C401.92 77.939 401.568 77.919 400.944 76.91C400.332 75.919 399.63 76.193 398.017 78.053C396.165 80.187 395.962 80.244 396.424 78.5C396.716 77.4 396.538 75.837 396.03 75.026C395.251 73.785 394.664 73.942 392.303 76.023L389.5 78.493L392.25 75.442C393.762 73.764 395 71.403 395 70.195C395 67.924 393.583 67.247 392.5 69C392.16 69.55 392.428 70 393.096 70C393.849 70 393.623 70.759 392.5 72C391.505 73.1 390.24 74 389.69 74C389.14 74 389.547 73.024 390.595 71.83C392.474 69.691 392.473 69.671 390.502 70.394C388.931 70.971 389.129 70.475 391.429 68.074C395.206 64.132 393.925 62.74 389.99 66.51C388.345 68.085 387 68.924 387 68.374C387 67.824 388.318 66.111 389.93 64.567C392.387 62.213 392.709 61.366 391.93 59.315C391.418 57.97 391 55.774 391 54.435C391 51.232 389.654 51.351 387.436 54.75ZM116.175 56.75C115.682 57.712 114.471 62.775 113.484 68C112.497 73.225 111.271 77.775 110.759 78.112C110.248 78.448 109.907 79.123 110.002 79.612C110.097 80.1 104.203 82.525 96.904 85C89.605 87.475 83.496 89.95 83.329 90.5C83.162 91.05 84.805 92.353 86.981 93.396C89.157 94.438 90.657 95.745 90.314 96.3C89.942 96.903 90.197 96.996 90.949 96.532C92.346 95.668 102 99.793 102 101.253C102 101.755 100.65 105.241 99 109C94.455 119.355 95.049 121.538 101.685 118.867C103.233 118.244 108.028 116.712 112.339 115.463L120.179 113.192L123.839 117.275C134.256 128.894 135.759 130.307 137.133 129.779C138.101 129.408 139.028 126.132 139.939 119.862C140.687 114.713 141.635 109.581 142.046 108.459C142.721 106.612 146.931 104.935 159.75 101.407C161.942 100.803 161.095 98.409 158.166 96.93C153.827 94.74 146 89.588 146 88.921C146 88.595 148.7 84.543 152 79.917C159.607 69.255 159.707 67.26 152.499 70.001C149.098 71.294 136.138 73.998 133.338 73.999C131.294 74 128.112 70.091 120.555 58.292C118.185 54.593 117.417 54.323 116.175 56.75ZM115.725 66.203C114.862 70.766 113.884 76.143 113.551 78.152C112.864 82.299 112.109 82.707 96.25 87.513C91.162 89.054 87 90.644 87 91.045C87 91.447 90.713 93.245 95.25 95.041C99.787 96.837 103.836 98.595 104.246 98.949C104.656 99.302 103.38 103.545 101.41 108.376C99.44 113.208 98.041 117.374 98.301 117.634C98.561 117.895 103.393 116.5 109.039 114.535C114.685 112.569 120.082 111.209 121.034 111.511C121.985 111.813 125.522 115.421 128.894 119.53C132.267 123.638 135.449 127 135.967 127C136.486 127 137.214 125.377 137.586 123.392C138.178 120.236 137.903 119.473 135.381 117.288L132.5 114.791L135.268 116.43C138.336 118.248 138.537 118.031 139.272 112.116C139.656 109.025 139.319 108.505 135.378 106.116C133.005 104.677 131.049 103.144 131.032 102.708C131.014 102.272 132.912 103.035 135.25 104.404C139.352 106.805 139.581 106.831 141.82 105.139L144.141 103.385L141.441 102.155C139.956 101.479 139.032 100.635 139.387 100.28C139.742 99.924 141.254 100.546 142.747 101.66C145.449 103.678 145.485 103.678 150.98 101.751C154.016 100.687 156.65 99.67 156.833 99.492C157.016 99.313 154.58 97.513 151.419 95.491C141.91 89.408 142.036 90.137 148.868 80.773C152.171 76.245 154.756 72.423 154.612 72.279C154.469 72.135 151.91 72.622 148.926 73.36C132.597 77.398 132.153 77.449 130 75.5C128.896 74.5 126.847 71.342 125.447 68.482C124.048 65.621 121.64 62.072 120.098 60.594L117.292 57.906L115.725 66.203ZM131 106.43C131 106.705 131.9 107.411 133 108C134.1 108.589 135 108.845 135 108.57C135 108.295 134.1 107.589 133 107C131.9 106.411 131 106.155 131 106.43ZM133.226 110.574C134.176 111.568 135.227 112.107 135.562 111.771C135.897 111.436 135.12 110.623 133.836 109.964C131.603 108.819 131.576 108.846 133.226 110.574ZM278 181.759C269.475 181.902 261.825 182.311 261 182.668C260.175 183.025 259.05 183.179 258.5 183.01C257.499 182.702 217.973 182.903 193.5 183.341C179.82 183.586 176 184.595 176 187.964C176 191.265 178.781 193 184.071 193H189V199.935C189 210.815 192.021 216 198.361 216C201.668 216 201.731 216.083 202.352 221.25C202.699 224.137 202.987 231.675 202.992 238L203.002 249.5H195.267C187.82 249.5 187.512 249.593 187.016 252C186.569 254.167 185.968 254.498 182.5 254.486C174.144 254.455 160.589 257.833 155.887 261.116C154.45 262.12 152.988 262.729 152.637 262.47C152.287 262.212 152.198 262.273 152.44 262.606C152.682 262.94 151.967 264.177 150.853 265.356C145.12 271.419 141.784 282.836 138.894 306.279C136.693 324.125 136.484 325 134.411 325C131.25 325 126.964 329.886 122.482 338.599C118.485 346.368 114.655 350.228 109.805 351.374C103.751 352.804 73.788 381.681 68.09 391.578C63.185 400.095 60.031 404.945 56.426 409.51C54.684 411.716 51.149 418.466 48.571 424.51C45.992 430.555 42.694 437.525 41.24 440C34.055 452.237 29.753 463.607 27.874 475.328C27.33 478.723 25.062 485.663 22.834 490.75C19.676 497.96 18.343 500 16.792 500C14.092 500 9.304 505.324 8.451 509.277C8.069 511.05 6.889 514.213 5.829 516.307C4.714 518.508 4.169 520.957 4.536 522.112C5.381 524.775 12.711 530 15.602 530C18.853 530 38.122 539.993 37.333 541.27C36.98 541.841 37.14 542.032 37.688 541.693C38.237 541.354 41.344 542.358 44.593 543.924C47.842 545.49 53.65 547.798 57.5 549.053C61.35 550.308 67.65 553.1 71.5 555.258C75.35 557.416 79.151 559.512 79.947 559.916C83.373 561.656 89.841 555.744 95.383 545.808C98.481 540.253 98.71 536.588 96.1 534.353C94.489 532.974 94.362 532.252 95.265 529.613C95.851 527.901 96.933 525.564 97.669 524.42C98.405 523.276 98.761 522.095 98.461 521.795C97.557 520.891 104.085 515.934 105.239 516.648C105.863 517.034 106.018 516.838 105.611 516.179C104.79 514.851 112.814 505.767 114.104 506.564C114.584 506.861 114.736 506.477 114.442 505.71C114.121 504.874 115.671 502.872 118.318 500.702L122.729 497.088L123.366 502.294C125.192 517.212 126.161 520.545 130.198 525.797C131.974 528.109 133.808 530 134.273 530C134.738 530 134.794 530.563 134.399 531.25C134.003 531.938 134.032 532.182 134.463 531.793C134.895 531.404 137.002 531.981 139.146 533.074C141.67 534.362 146.825 535.438 153.772 536.127C169.203 537.658 169 537.596 168.997 540.769C168.995 542.714 168.111 544.076 165.926 545.5C164.238 546.6 161.149 549.622 159.06 552.215C156.972 554.808 154.979 556.721 154.632 556.465C154.284 556.209 154.205 556.28 154.455 556.622C154.705 556.964 153.867 559.326 152.591 561.872C151.316 564.417 149.975 568.137 149.612 570.138L148.951 573.777L170.726 574.581C200.217 575.669 321.062 575.338 322.234 574.166C324.384 572.016 317.569 556.002 311.63 549.25C310.542 548.013 309.989 547 310.402 547C310.815 547 309.76 545.828 308.057 544.395C303.219 540.323 304.308 538.761 313.371 536.777C325.296 534.166 334.719 527.385 338.96 518.362C340.082 515.975 341 512.918 341 511.57C341 510.221 341.45 508.84 342 508.5C342.55 508.16 343 506.559 343 504.941C343 503.323 343.318 502 343.706 502C344.095 502 348.482 506.179 353.456 511.287C366.299 524.474 368.756 526.094 359.087 515C354.534 509.775 348.994 504.042 346.776 502.26L342.744 499.02L342.622 486.01C342.549 478.203 342.9 472.805 343.5 472.512C344.05 472.244 342.475 472.332 340 472.706C332.828 473.792 330.053 473.275 322.917 469.526C319.227 467.587 315.463 466 314.554 466C312.079 466 306.732 463.071 304.772 460.642C303.506 459.072 303.039 456.61 303.022 451.424C303.003 445.305 303.313 444.055 305.314 442.174C306.587 440.978 308.197 440 308.891 440C309.586 440 308.701 438.547 306.926 436.772C305.151 434.997 302.909 431.783 301.945 429.629C300.341 426.046 300.319 425.282 301.687 420.607C304.071 412.464 309.458 407.979 312.925 411.25C313.731 412.011 314.103 412.065 313.875 411.39C313.669 410.779 310.498 407.744 306.829 404.644C298.642 397.728 297.423 394.8 299.481 387C301.276 380.2 304.046 377.804 312.015 376.158C318.576 374.803 321.059 375.455 324.228 379.367C326.548 382.231 326.454 382.662 323.25 383.872L320.5 384.911L323.5 384.595C327.471 384.177 333.19 387.14 340.359 393.329C343.582 396.111 347.136 398.455 348.258 398.537C349.379 398.62 351.609 400.22 353.212 402.094C356.738 406.212 355.399 403.471 350.267 396.062C348.195 393.071 345.862 390.421 345.083 390.173C344.188 389.888 344.549 390.97 346.062 393.111L348.459 396.5L345.979 394.867C344.417 393.839 343.5 392.293 343.5 390.689C343.5 389.289 342.317 386.873 340.871 385.322C339.424 383.77 337.007 380.509 335.498 378.076C333.021 374.081 332.912 373.537 334.378 372.466C335.27 371.813 336 370.902 336 370.44C336 369.978 335.46 370.14 334.8 370.8C334.14 371.46 332.902 371.964 332.05 371.921C331.003 371.868 330.909 371.677 331.761 371.334C332.455 371.054 333.525 369.887 334.139 368.74C335.241 366.681 335.22 366.682 332.493 368.827C330.974 370.022 328.657 371 327.345 371C324.442 371 317.756 366.917 315.586 363.819C314.714 362.574 314 362.105 314 362.777C314 364.15 316.079 366.393 320.509 369.802C323.116 371.808 323.204 372.022 321.197 371.468C316.842 370.265 306.495 363.932 303.25 360.483C301.454 358.575 300 355.96 300 354.641C300 351.651 304.618 343.255 307.124 341.69C309.719 340.07 309.5 338.684 306.895 340.242C305.737 340.934 303.327 343.648 301.539 346.272L298.289 351.045L296.494 346.346C295.507 343.761 292.079 337.901 288.876 333.323L283.053 325H287.559C292.805 325 299 322.699 299 320.751C299 318.473 296.762 317 293.3 317C291.485 317 290 316.613 290 316.14C290 315.666 288.889 313.641 287.53 311.64L285.06 308H294.471C299.647 308 304.129 307.601 304.43 307.113C304.843 306.446 296.228 298.176 291 294.221C290.725 294.013 290.275 289.72 290 284.68C289.511 275.714 289.437 275.488 286.546 274.107L283.592 272.695L286.044 271.788C289.488 270.514 297.867 271.824 301.875 274.264C306.054 276.807 309.582 284.346 311.001 293.762C311.559 297.468 312.125 308.825 312.258 319L312.5 337.5L319.369 341.188C323.147 343.216 327.31 345.882 328.619 347.112C329.929 348.342 331 348.875 331 348.297C331 347.718 330.305 346.668 329.456 345.963C328.389 345.078 328.093 343.725 328.499 341.591C329.018 338.863 328.947 338.735 327.896 340.5C327.241 341.6 326.595 342.639 326.46 342.81C326.325 342.98 323.923 341.855 321.122 340.31C317.124 338.104 316.024 336.963 316.008 335C315.904 322.539 313.622 292.28 312.427 287.525C309.057 274.108 303.08 269 290.752 269C285.013 269 284.051 268.735 283.5 267C283.028 265.512 281.987 265 279.433 265C275.122 265 275.057 265.671 279.25 266.881C282.21 267.736 282.277 267.837 280 268.009L277.5 268.199L280 269C282.35 269.753 282.302 269.807 279.191 269.9C275.281 270.018 275.812 271.936 279.809 272.131C281.289 272.203 279.8 272.633 276.5 273.086C273.2 273.539 252.435 274.125 230.355 274.387L190.21 274.863L189.5 264.005C189.11 258.033 189.038 252.747 189.341 252.258C190.096 251.036 281 250.692 281 251.911C281 252.429 280.212 253.059 279.25 253.311C277.583 253.746 277.583 253.774 279.25 253.884C281.835 254.055 281.379 255.997 278.75 256.015C276.993 256.027 276.818 256.232 277.952 256.949C278.751 257.455 279.763 257.646 280.202 257.375C280.641 257.104 281 257.359 281 257.941C281 258.523 279.313 259.014 277.25 259.03C273.894 259.058 273.71 259.185 275.5 260.248C277.387 261.369 277.33 261.47 274.5 262.045C272.085 262.536 272.622 262.737 277.251 263.077L283.003 263.5L283.001 259.671L283 255.841L295.828 256.171C307.583 256.472 308.961 256.709 312.303 259C319.648 264.034 323.853 276.538 326.426 301C329.549 330.682 330.35 336 331.7 336C332.583 336 333.003 337.524 333.009 340.75C333.016 344.183 333.848 346.946 336.01 350.715C339.189 356.259 341.443 358.035 345.184 357.944C347.007 357.899 346.757 357.633 344.009 356.694C337.401 354.435 331.518 340.468 334.914 335.104C336.961 331.872 339.726 335.376 348.204 351.941C351.288 357.967 351.813 358.47 356.356 359.752C362.417 361.462 363.512 360.671 358.374 358.293C356.243 357.307 354.225 356.124 353.888 355.665C353.552 355.205 352.894 354.98 352.427 355.165C351.558 355.507 350.678 353.995 347.03 345.887C345.888 343.349 343.545 339.146 341.823 336.546C339.107 332.446 338.315 331.874 335.858 332.234C332.71 332.696 333.122 333.839 331.084 319C330.517 314.875 329.802 307.9 329.494 303.5C327.878 280.392 323.736 266.067 316.697 259.245C311.432 254.141 307.577 253.103 294.227 253.194C284.305 253.263 283.535 253.126 282.646 251.134C281.835 249.314 280.85 249 275.96 249H270.226L269.673 233.75C268.898 212.368 268.676 214.001 272.356 213.994C278.008 213.984 282.607 212.158 283.85 209.43C284.493 208.02 285.056 203.296 285.103 198.933L285.188 191H290.035C292.701 191 295.165 190.543 295.51 189.984C295.856 189.425 296.49 189.185 296.919 189.45C297.349 189.715 297.655 188.54 297.6 186.838C297.444 181.999 295.394 181.468 278 181.759ZM277.742 184.537C277.609 184.64 255.485 185 228.577 185.336C197.265 185.727 179.284 186.316 178.627 186.973C175.659 189.941 180.006 190.274 219.791 190.125C241.746 190.043 264.161 189.543 269.604 189.014C275.047 188.485 282.939 188.04 287.143 188.026C292.923 188.006 294.923 187.642 295.349 186.532C295.659 185.725 295.587 184.863 295.19 184.617C294.515 184.2 278.273 184.125 277.742 184.537ZM264.909 191.424C264.676 191.657 248.133 191.995 228.147 192.174C208.161 192.353 191.577 192.876 191.293 193.334C191.01 193.793 191.094 197.973 191.482 202.622C192.081 209.817 192.516 211.292 194.406 212.53C196.318 213.783 201.941 213.847 235.063 212.987C276.303 211.918 279.771 211.634 277.985 209.482C277.111 208.429 277.472 208.055 279.688 207.722L282.5 207.3L279.691 207.15C276.662 206.988 276.886 205 279.934 205C281.15 205 281.751 204.257 281.752 202.75C281.754 200.629 281.402 200.517 275.627 200.793C271.196 201.006 269.915 200.802 271 200.059C271.825 199.493 274.637 199.024 277.25 199.015C282.882 198.997 283.628 197.291 278.25 196.728L274.5 196.336L278.25 196.168C283.987 195.911 282.71 194 276.8 194C271.549 194 271.06 192.607 276 191.721C277.375 191.474 275.538 191.211 271.917 191.136C268.296 191.061 265.142 191.191 264.909 191.424ZM80.158 227C80.158 228.375 80.385 228.938 80.662 228.25C80.94 227.563 80.94 226.438 80.662 225.75C80.385 225.063 80.158 225.625 80.158 227ZM205 238.543V250.3L218.25 249.664C225.537 249.314 239.488 249.022 249.25 249.014L267 249L266.937 238.25C266.894 231.015 266.585 228.214 265.993 229.685C265.509 230.886 264.157 232.381 262.989 233.006C260.83 234.161 249.568 233.901 248.334 232.667C247.387 231.72 238.757 231.867 237.196 232.857C236.479 233.312 233.554 233.299 230.696 232.827C227.838 232.356 223.496 231.719 221.047 231.412C218.597 231.104 215.855 230.457 214.951 229.974C214.048 229.491 212.227 228.889 210.905 228.637C209.582 228.385 207.713 227.865 206.75 227.482C205.143 226.843 205 227.747 205 238.543ZM86.158 246C86.158 247.375 86.385 247.938 86.662 247.25C86.94 246.563 86.94 245.438 86.662 244.75C86.385 244.063 86.158 244.625 86.158 246ZM209 246C209 246.55 209.45 247 210 247C210.55 247 211 246.55 211 246C211 245.45 210.55 245 210 245C209.45 245 209 245.45 209 246ZM84.079 257.583C84.127 258.748 84.364 258.985 84.683 258.188C84.972 257.466 84.936 256.603 84.604 256.271C84.272 255.939 84.036 256.529 84.079 257.583ZM171.317 258.503C150.852 262.952 146.332 269.95 141.516 304.645L138.72 324.79L140.86 329.211C142.037 331.642 143 334.164 143 334.816C143 336.568 143.841 336.31 149.075 332.952C154.29 329.606 154.1 330.174 155.569 313.5C156.664 301.083 160.774 285.188 164.166 280.258C168.059 274.601 175.246 271.024 182.75 271.01C188.619 270.999 188.443 271.334 187.352 262.25L186.721 257L182.111 257.079C179.575 257.123 174.718 257.764 171.317 258.503ZM179.903 274.013C167.723 276.073 162.431 283.368 159.118 302.66C158.123 308.453 156.442 327.81 156.809 329.25C156.914 329.663 156.499 330 155.887 330C155.275 330 153.363 331.172 151.637 332.603C149.912 334.035 146.251 336.628 143.503 338.366C140.157 340.481 137.431 343.323 135.253 346.968C133.464 349.962 132.009 351.756 132.019 350.956C132.046 348.877 137.775 340.024 139.528 339.351C141.348 338.653 141.444 333.433 139.701 330C138.504 327.643 135.453 326.71 132.35 327.751C131.036 328.192 124.348 338.653 121.806 344.244L120.103 347.988L122.625 348.621C126.752 349.657 129.388 347.617 132.923 340.651C135.456 335.66 136.115 333.324 135.647 330.985C135.223 328.865 135.375 328.114 136.133 328.582C137.827 329.629 136.343 337.74 133.6 342.42C129.835 348.844 127.667 350.37 123.311 349.663C119.71 349.079 119.312 349.326 112.204 356.574C105.693 363.213 104.987 364.291 106.166 365.796C107.367 367.33 107.326 367.363 105.75 366.128C104.787 365.373 104 364.294 104 363.73C104 363.167 106.588 360.317 109.75 357.398C112.912 354.479 114.92 352.07 114.21 352.045C112.153 351.973 105.683 355.583 103.5 358.021C102.4 359.249 97.426 363.539 92.446 367.553C82.021 375.957 72.86 386.572 66.415 397.717C63.939 401.998 60.138 407.972 57.966 410.993C55.795 414.014 52.853 419.414 51.428 422.993C50.003 426.572 45.777 435.35 42.036 442.5C34.562 456.788 32.956 461.099 30.086 474.568C28.994 479.695 26.355 487.423 24.015 492.35L19.875 501.063L22.273 503.913C23.954 505.911 25.116 506.515 26.156 505.933C27.801 505.012 34 508.245 34 510.024C34 510.604 33.015 510.16 31.811 509.039C29.488 506.875 25.537 506.323 24.49 508.016C23.582 509.485 22 508.203 22 505.998C22 503.563 18.433 501.074 15.895 501.738C13.696 502.313 12.472 504.396 8.564 514.214C6.534 519.315 6.136 521.386 6.911 522.834C8.083 525.024 12.845 527.468 20.195 529.651C23.01 530.486 29.539 533.611 34.706 536.593C44.125 542.031 52.033 545.666 59.5 547.99C61.7 548.675 66.65 550.951 70.5 553.049C81.73 559.166 82.458 559.327 85.881 556.447C88.535 554.214 94.251 545.491 96.262 540.606C97.173 538.394 94.704 534 92.55 534C91.777 534 90.212 535.186 89.073 536.635L87 539.27V536.569C87 535.084 86.525 532.886 85.945 531.684C84.926 529.574 84.943 529.566 86.445 531.441C87.3 532.509 88 533.757 88 534.214C88 534.672 89.125 534.309 90.5 533.408C91.875 532.507 93 531.305 93 530.736C93 528.349 99.435 517.283 101.321 516.429C104.044 515.195 104.549 513.282 102.305 512.7C100.92 512.341 101.04 512.205 102.821 512.116C104.906 512.012 108 509.935 108 508.641C108 508.365 107.213 507.944 106.25 507.704C105.288 507.465 105.729 507.421 107.23 507.606C109.228 507.852 110.29 507.346 111.19 505.721C111.866 504.499 112.307 502.945 112.17 502.266C112.032 501.587 112.529 501.266 113.273 501.551C114.017 501.837 115.436 501.176 116.425 500.082C118.177 498.147 118.149 498.078 115.362 497.46C110.474 496.376 110.31 495.968 114.945 496.424C122.914 497.209 122.912 497.213 122.945 478.487C122.965 466.685 122.645 462 121.82 462C121.186 462 120.922 461.744 121.235 461.432C121.547 461.12 124.179 461.57 127.083 462.432C134.314 464.579 142.211 464.443 146.82 462.092C148.877 461.042 153.068 459.455 156.132 458.564C163.25 456.495 165.76 453.788 166.917 446.936C168.177 439.474 168.054 438.741 164.897 434.884L162.128 431.5L150.564 437.245C144.204 440.404 139 442.794 139 442.555C139 442.316 144.388 439.336 150.973 435.932C161.761 430.356 163.146 429.329 164.973 425.556C167.551 420.23 167.519 419.239 164.75 418.706C162.769 418.324 162.82 418.256 165.177 418.136C166.796 418.054 168.044 417.309 168.335 416.25C168.6 415.288 168.571 416.442 168.27 418.816C167.752 422.909 168.366 425.896 172.734 440.5C177.926 457.862 191.013 474.677 199.971 475.497C202.18 475.7 220.873 475.535 241.51 475.131C274.86 474.478 279.221 474.207 280.731 472.698C282.328 471.101 282.317 471 280.548 471C279.513 471 279.004 470.663 279.417 470.25C280.181 469.485 280.67 469.357 283.75 469.11C285.175 468.995 285.238 468.803 284.088 468.075C282.995 467.384 283.221 467.079 285.088 466.727C287.408 466.29 287.414 466.267 285.25 466.136C281.901 465.933 282.526 464 285.941 464C290.419 464 290.757 462.025 286.309 461.85C283.295 461.732 283.074 461.613 285.25 461.284C286.777 461.052 288 460.23 288 459.434C288 458.645 288.873 458 289.941 458C292.502 458 293.513 456.267 291.262 455.736C289.934 455.422 290.178 455.131 292.25 454.552C293.863 454.101 295 453.084 295 452.092C295 451.161 295.512 449.888 296.137 449.263C296.986 448.414 296.477 448.149 294.123 448.216C292.39 448.265 290.678 448.011 290.319 447.653C289.96 447.294 291.29 447 293.274 447C297.647 447 299.13 445.302 295.267 444.718C292.542 444.306 292.547 444.297 295.592 444.15C298.268 444.02 298.839 443.48 299.842 440.134C300.479 438.008 301 436.006 301 435.686C301 435.366 298.637 434.939 295.75 434.737L290.5 434.37L296.229 434.185C301.955 434 301.957 433.999 300.818 431.5C299.858 429.392 298.998 429 295.339 429C289.731 429 289.647 427.033 295.25 426.898C299.497 426.795 299.498 426.795 296.199 426.014C291.464 424.892 291.081 424 295.333 424C299.756 424 300.494 421.359 296.25 420.716C293.68 420.327 293.712 420.29 296.737 420.15C299.453 420.024 300.217 419.417 301.487 416.378C303.385 411.834 303.484 412.206 300.25 411.716C297.644 411.321 297.667 411.292 300.691 411.15C305.359 410.931 305.891 409.015 301.309 408.924L297.5 408.848L301 407.5L304.5 406.152L299.691 406.076C296.756 406.03 295.123 405.61 295.5 405C295.84 404.45 297.468 404 299.118 404C302.525 404 302.134 402.066 298.691 401.884C297.051 401.797 296.932 401.655 298.217 401.317C299.648 400.941 299.733 400.545 298.726 398.933C298.062 397.87 296.84 396.964 296.009 396.921C294.983 396.867 294.9 396.681 295.75 396.338C296.44 396.059 297 394.144 297 392.066C297 387.35 298.711 382.127 301.139 379.436C303.459 376.862 303.485 376.022 301.25 375.921C300.205 375.874 300.003 375.639 300.75 375.338C301.438 375.06 302 373.971 302 372.917C302 371.445 301.289 371 298.941 371C296.993 371 296.126 370.605 296.554 369.913C296.923 369.315 298.075 369.048 299.113 369.319C301.328 369.899 301.352 369.732 299.809 364.5C299.16 362.3 298.6 360.05 298.565 359.5C298.529 358.95 296.577 358.361 294.227 358.191C289.472 357.848 289.392 356 294.132 356C296.435 356 297.069 355.597 296.818 354.294C296.637 353.355 295.367 352.275 293.995 351.894C291.548 351.213 291.545 351.197 293.809 351.1C295.079 351.045 295.866 350.592 295.558 350.094C295.25 349.596 294.098 349.423 292.999 349.711C291.882 350.003 291 349.741 291 349.117C291 348.502 291.675 348 292.5 348C293.325 348 294 347.564 294 347.031C294 346.499 293.325 346.322 292.5 346.638C291.675 346.955 291 346.716 291 346.107C291 345.498 291.476 345 292.058 345C293.219 345 288.015 335.313 283.132 328.385L280.038 323.996L237.421 324.239L194.803 324.482L190.376 331.081C184.646 339.621 175.42 360.067 172.886 369.841C171.574 374.901 171.108 378.949 171.514 381.768C172.003 385.167 171.585 387.185 169.46 391.676C167.181 396.494 166.849 398.322 167.183 404.226C167.503 409.902 167.352 410.834 166.335 409.443C165.569 408.396 164.409 407.989 163.298 408.377C161.601 408.97 161.597 408.929 163.241 407.649C164.895 406.36 164.895 406.218 163.241 404.777C160.342 402.253 158.62 402.154 156 404.362C154.625 405.52 157.1 402.931 161.5 398.608C168.444 391.785 169.243 390.654 167.554 390.041C165.703 389.371 165.715 389.308 167.804 388.762C170.794 387.979 170.755 384.285 167.75 383.706C165.532 383.279 165.534 383.27 167.878 383.136C170.101 383.009 170.212 382.723 169.587 378.75C168.521 371.972 164.602 368.773 156.286 367.892L149.5 367.173L145.076 371.837C142.644 374.401 139.18 377.4 137.379 378.5C135.579 379.6 131.68 382.839 128.714 385.699C124.936 389.341 122.75 390.747 121.409 390.397C119.952 390.016 118.619 391.196 115.836 395.329L112.177 400.761L114.074 403.881C116.279 407.508 115.647 408.014 112.988 404.75L111.155 402.5L110.078 405.315C107.907 410.984 109.135 412.707 116.5 414.328C117.806 414.615 117.442 414.808 115.45 414.884C113.772 414.948 111.92 414.52 111.332 413.932C109.692 412.292 108.864 429.04 110.488 431C111.172 431.825 112.015 433.696 112.361 435.157C112.708 436.619 113.261 438.644 113.59 439.657C114.089 441.194 114.007 441.251 113.094 440C112.492 439.175 111.532 436.813 110.961 434.75C110.39 432.688 109.297 431 108.531 431C107.43 431 107.341 430.321 108.102 427.75C109.061 424.513 109.133 414.293 108.209 412.622C107.942 412.139 106.211 414.143 104.362 417.076C99.607 424.616 100.166 421.273 105 413.258C107.2 409.611 109 405.87 109 404.945C109 402.291 119.533 387.097 125.946 380.5C132.525 373.732 137.398 366.453 136.415 364.863C135.954 364.116 136.34 364.111 137.716 364.848C139.89 366.012 144.036 365.709 148.315 364.075C151.997 362.669 152.324 362.712 151.633 364.514C151.18 365.693 151.765 365.986 154.276 365.837C156.049 365.732 158.175 365.178 159 364.606C159.825 364.034 160.175 363.951 159.777 364.423C159.104 365.22 163.227 368.062 167.25 369.575C168.213 369.937 169.018 370.968 169.04 371.867C169.063 372.765 170.378 369.817 171.962 365.316C173.547 360.815 175.52 355.64 176.346 353.816C177.173 351.992 179.444 346.979 181.393 342.676C183.343 338.373 186.565 332.635 188.554 329.926L192.17 325H185.019C177.025 325 174 323.885 174 320.94C174 318.765 177.385 317.035 181.815 316.946C183.9 316.904 185.228 315.787 187.757 311.946L191.015 307H180.507C174.728 307 170 306.624 170 306.164C170 305.05 177.352 298.496 181.054 296.309L184 294.569V284.354C184 274.556 184.092 274.121 186.25 273.706C190.421 272.902 184.884 273.17 179.903 274.013ZM91.079 280.583C91.127 281.748 91.364 281.985 91.683 281.188C91.972 280.466 91.936 279.603 91.604 279.271C91.272 278.939 91.036 279.529 91.079 280.583ZM88.079 285.583C88.127 286.748 88.364 286.985 88.683 286.188C88.972 285.466 88.936 284.603 88.604 284.271C88.272 283.939 88.036 284.529 88.079 285.583ZM89.079 290.583C89.127 291.748 89.364 291.985 89.683 291.188C89.972 290.466 89.936 289.603 89.604 289.271C89.272 288.939 89.036 289.529 89.079 290.583ZM195 308.338C191.46 310.794 187.906 315.045 186.714 318.25C186.253 319.489 184.959 320.004 182.281 320.015C177.114 320.036 174.895 321.506 178.619 322.44C182.363 323.38 293.383 322.5 294.972 321.517C296.816 320.378 294.257 319.034 290.206 319.015C288.158 319.006 286.974 318.527 287.075 317.75C287.409 315.176 286.923 314.162 283.974 311.279L280.948 308.321L242.224 307.639C220.926 307.265 202.375 306.722 201 306.434C199.333 306.084 197.334 306.719 195 308.338ZM161.617 332.763C163.882 334.832 166.724 338.698 167.933 341.353C170.449 346.876 169.932 349.779 165.365 355.766C163.073 358.771 163.001 359.07 164.799 358.108C167.326 356.755 170.483 352.355 171.312 349.029C172.436 344.522 162.664 329 158.702 329C158.042 329 159.353 330.693 161.617 332.763ZM284.269 338.693C285.242 338.947 286.592 338.93 287.269 338.656C287.946 338.382 287.15 338.175 285.5 338.195C283.85 338.215 283.296 338.439 284.269 338.693ZM286.75 342.662C287.438 342.94 288.563 342.94 289.25 342.662C289.938 342.385 289.375 342.158 288 342.158C286.625 342.158 286.063 342.385 286.75 342.662ZM140.242 348.231C137.352 350.008 134.725 352.292 134.403 353.306C133.488 356.19 134.829 356.58 135.907 353.744C137.192 350.364 146.919 345.512 150.572 346.429C152.256 346.851 152.942 346.715 152.525 346.04C151.254 343.984 145.471 345.015 140.242 348.231ZM154.015 351.115C154.006 353.262 153.114 355.902 151.82 357.615L149.639 360.5L152.82 357.563C156.039 354.59 156.766 351.733 155 349C154.275 347.879 154.027 348.413 154.015 351.115ZM332 349.665C332 350.179 332.465 351.065 333.033 351.633C333.602 352.202 334.931 354.879 335.987 357.583C337.043 360.288 337.927 361.734 337.953 360.797C337.979 359.86 337.455 357.835 336.79 356.297C335.352 352.974 332 348.333 332 349.665ZM316 355C314.9 356.1 314.007 357.788 314.015 358.75C314.026 360.038 314.361 359.846 315.284 358.02C315.975 356.656 317.656 354.975 319.02 354.284C320.846 353.361 321.038 353.026 319.75 353.015C318.788 353.007 317.1 353.9 316 355ZM292.269 354.693C293.242 354.947 294.592 354.93 295.269 354.656C295.946 354.382 295.15 354.175 293.5 354.195C291.85 354.215 291.296 354.439 292.269 354.693ZM135.079 359.583C135.127 360.748 135.364 360.985 135.683 360.188C135.972 359.466 135.936 358.603 135.604 358.271C135.272 357.939 135.036 358.529 135.079 359.583ZM332 358.378C332 358.585 332.788 359.373 333.75 360.128C335.336 361.371 335.371 361.336 334.128 359.75C332.821 358.084 332 357.555 332 358.378ZM155.75 361.162C154.238 361.715 153 362.591 153 363.109C153 363.877 158.378 361.749 159.917 360.373C160.632 359.733 158.619 360.114 155.75 361.162ZM294.813 360.683C295.534 360.972 296.397 360.936 296.729 360.604C297.061 360.272 296.471 360.036 295.417 360.079C294.252 360.127 294.015 360.364 294.813 360.683ZM133 361.941C133 362.459 133.445 363.157 133.989 363.493C134.555 363.843 134.723 363.442 134.382 362.552C133.717 360.82 133 360.503 133 361.941ZM365.5 362.804C369.571 365.462 385.959 382.65 393.969 392.664C412.274 415.546 417.344 424.068 424.511 444C427.181 451.425 429.975 458.112 430.722 458.861C432.76 460.905 437.116 469.895 437.513 472.878C437.705 474.32 437.945 475.5 438.045 475.5C438.146 475.5 438.378 476.625 438.562 478C439.835 487.526 443.744 498.212 449.082 506.759C450.226 508.592 450.124 509.093 448.284 510.68C446.06 512.598 444.269 517 445.713 517C446.18 517 447.063 515.67 447.677 514.045C448.409 512.106 449.747 510.851 451.569 510.393C453.874 509.815 454.741 510.189 456.668 512.598C457.945 514.194 458.997 515.95 459.005 516.5C459.013 517.05 460.123 519.87 461.472 522.767C462.82 525.664 463.663 528.714 463.345 529.544C462.582 531.532 455.79 535.359 449.321 537.444C446.473 538.362 440.636 541.111 436.351 543.553C432.067 545.995 425.397 549.176 421.53 550.622C407.489 555.874 401.379 558.324 395.172 561.19C390.938 563.145 387.63 564.01 385.172 563.806C381.7 563.517 381.296 563.097 377.75 556.113C373.528 547.797 373.09 544.558 375.977 543.012C377.547 542.172 378.37 542.37 379.977 543.977C382.552 546.552 382.996 546.518 383.015 543.75C383.034 540.949 383.958 539.555 386.393 538.654C388.911 537.722 387.999 536.926 385.239 537.648C384.044 537.96 382.796 539.067 382.466 540.108C381.367 543.57 378.415 542.33 377.071 537.841C376.385 535.554 374.759 531.994 373.456 529.93L371.087 526.178L374.794 525.192L378.5 524.207L373.215 524.103C368.04 524.002 367.954 524.047 369.107 526.25C369.754 527.487 371.069 529.625 372.028 531C372.988 532.375 374.218 535.114 374.761 537.088C375.607 540.159 375.479 540.844 373.875 541.846C372.715 542.571 372 544.167 372 546.033C372 550.092 378.385 562.551 381.517 564.603C384.63 566.643 390.345 565.924 396.342 562.738C398.629 561.523 400.95 560.478 401.5 560.416C402.05 560.353 405.1 559.109 408.279 557.651C411.457 556.193 414.46 555 414.953 555C417.305 555 431.556 548.54 438.088 544.513C442.114 542.031 446.047 540 446.829 540C448.825 540 460.118 534.965 462.368 533.072C465.686 530.28 465.989 527.823 463.545 523.5C462.301 521.3 460.991 518.282 460.633 516.792C459.848 513.522 456.191 509.381 453.637 508.871C451.578 508.46 446.405 499.361 443.762 491.5C442.838 488.75 441.659 483.304 441.143 479.399C440.627 475.493 439.484 470.903 438.603 469.198C437.721 467.494 437 465.557 437 464.894C437 464.231 435.962 462.296 434.694 460.594C432.287 457.365 427 446.644 427 444.992C427 443.435 421.975 431.023 418.299 423.5C414.668 416.069 413.61 414.505 402.297 399.838C392.398 387.006 391.759 386.259 381 374.931C370.947 364.347 369.001 362.722 365 361.567C362.726 360.91 362.772 361.023 365.5 362.804ZM293 364C291.887 364.72 292.481 364.973 295.309 364.985C297.597 364.994 298.871 364.601 298.5 364C297.719 362.736 294.956 362.736 293 364ZM303.006 365.692C303.009 366.686 303.495 369.242 304.086 371.37L305.16 375.24L311.324 374.543C318.142 373.772 319.206 373.285 316.992 371.952C305.575 365.082 303 363.93 303.006 365.692ZM146.971 366.039C146.162 366.551 143.656 366.976 141.402 366.985C137.603 366.999 137.174 367.288 135.525 370.945C134.546 373.115 132.678 375.893 131.373 377.119C130.068 378.345 129 380.169 129 381.173C129 382.693 129.872 382.372 134.23 379.248C142.174 373.554 153.259 362.063 146.971 366.039ZM90.874 377.216C84.735 383.384 77.82 389.631 75.509 391.097C73.197 392.563 70.247 395.278 68.953 397.131L66.6 400.5L71.055 396.5C73.506 394.3 77.533 391.238 80.005 389.695C82.477 388.152 85.765 385.117 87.311 382.95C88.857 380.783 92.78 376.671 96.029 373.811C101.204 369.255 103.896 366 102.487 366C102.239 366 97.013 371.047 90.874 377.216ZM295.5 367C295.16 367.55 295.809 368 296.941 368C298.073 368 299 367.55 299 367C299 366.45 298.352 366 297.559 366C296.766 366 295.84 366.45 295.5 367ZM363.217 369.975C364.258 371.644 364.143 372.182 362.475 373.443C361.389 374.265 360.95 374.936 361.5 374.936C362.05 374.936 363.323 374.313 364.329 373.55C365.815 372.424 365.949 371.773 365.044 370.082C364.431 368.937 363.492 368 362.956 368C362.413 368 362.528 368.873 363.217 369.975ZM298.813 372.683C299.534 372.972 300.397 372.936 300.729 372.604C301.061 372.272 300.471 372.036 299.417 372.079C298.252 372.127 298.015 372.364 298.813 372.683ZM325 373.117C325 373.768 323.959 374.034 322.5 373.755C321.125 373.492 320 373.419 320 373.591C320 374.779 330.845 384.39 334.002 386.001C336.142 387.093 338.353 388.777 338.916 389.743C339.775 391.217 339.944 391.005 339.97 388.424C339.989 386.453 339.149 384.549 337.629 383.121C336.325 381.896 334.412 379.322 333.379 377.402C331.865 374.589 331.063 374.02 329.25 374.474C327.657 374.874 327 374.595 327 373.519C327 372.684 326.55 372 326 372C325.45 372 325 372.502 325 373.117ZM366.527 375.043C366.928 375.692 366.636 376.666 365.878 377.206C364.831 377.953 364.941 378.045 366.338 377.592C368.587 376.862 374.391 381.605 379.608 388.437C382.558 392.301 382.995 393.41 381.88 394.205C380.803 394.972 380.878 395.067 382.221 394.637C383.168 394.333 384.527 394.67 385.242 395.385C385.956 396.099 387.657 397.252 389.021 397.946C390.72 398.811 390.359 398.24 387.872 396.131C385.877 394.44 382.788 390.786 381.008 388.013C379.228 385.239 375.078 380.921 371.785 378.416C368.491 375.912 366.125 374.394 366.527 375.043ZM124.004 385.496C122.714 386.869 121.911 388.245 122.22 388.554C122.529 388.862 123.762 387.739 124.959 386.058C127.596 382.354 127.183 382.112 124.004 385.496ZM326.475 390.04C326.054 390.722 326.808 390.846 328.666 390.399C332.498 389.479 332.86 389 329.726 389C328.291 389 326.829 389.468 326.475 390.04ZM163.635 398.85C162.2 400.437 162.158 400.886 163.354 401.879C164.492 402.823 164.86 402.518 165.291 400.272C165.966 396.76 165.719 396.548 163.635 398.85ZM396.437 402.83C398.052 404.573 399.767 406 400.246 406C401.663 406 400.167 404.25 396.72 401.876L393.5 399.659L396.437 402.83ZM356 407.504C356 408.331 355.1 410.686 354 412.739C352.9 414.791 352.036 417.152 352.079 417.985C352.122 418.818 352.631 418.15 353.209 416.5C353.788 414.85 354.985 412.67 355.87 411.656C357.414 409.887 357.529 409.928 358.695 412.656C359.363 414.22 359.93 414.992 359.955 414.372C360.012 412.942 357.136 406 356.487 406C356.219 406 356 406.677 356 407.504ZM151.44 408.098C151.066 408.702 148.702 410.502 146.185 412.098C143.668 413.694 142.079 415 142.654 415C143.885 415 151.503 409.612 152.459 408.066C152.822 407.48 152.893 407 152.618 407C152.343 407 151.813 407.494 151.44 408.098ZM118.093 412C119.474 414.862 120.856 415.976 123 415.954C124.059 415.944 123.915 415.6 122.512 414.787C121.419 414.153 119.706 412.704 118.706 411.567C116.898 409.512 116.894 409.515 118.093 412ZM318.482 416.666C323.408 421.19 331.094 424.793 337.581 425.618C340.286 425.962 345.055 427.444 348.178 428.91C354.904 432.069 354.906 431.033 348.181 427.531C345.607 426.19 344.261 425.072 345.191 425.047C346.121 425.021 347.159 424.551 347.498 424.003C347.902 423.35 347.273 423.326 345.676 423.933C342.658 425.081 333.835 423.898 328.577 421.641C326.42 420.715 322.744 418.392 320.409 416.479C314.8 411.883 313.419 412.017 318.482 416.666ZM125.083 416.362C126.091 417.239 134 417.72 134 416.905C134 416.407 131.9 416 129.333 416C126.767 416 124.854 416.163 125.083 416.362ZM296 417C296 417.55 296.648 418 297.441 418C298.234 418 299.16 417.55 299.5 417C299.84 416.45 299.191 416 298.059 416C296.927 416 296 416.45 296 417ZM359.647 419.721C359.303 421.799 359.017 425.668 359.011 428.317C359.001 432.823 358.855 433.096 356.75 432.531C355.006 432.063 355.139 432.291 357.345 433.545C359.36 434.691 360.044 435.724 359.689 437.082C359.368 438.31 359.7 439 360.613 439C361.964 439 361.905 436.928 360.417 432.17C360.188 431.438 360.297 428.324 360.658 425.249L361.316 419.658L363.8 422.579L366.285 425.5L364.489 422.5C360.372 415.623 360.328 415.598 359.647 419.721ZM349.584 421.641C349.057 423.014 349.204 423.076 350.477 422.019C352.212 420.579 352.393 420 351.107 420C350.616 420 349.931 420.739 349.584 421.641ZM164.601 429.598C164.233 430.556 165.043 432.451 166.621 434.326C169.104 437.277 169.219 437.879 168.633 444.816C167.84 454.192 165.808 457.267 159.281 458.97C156.651 459.655 151.35 461.484 147.5 463.034L140.5 465.852L140.196 471.564C139.771 479.557 140.272 480.513 143.732 478.298C145.254 477.323 147.106 475.946 147.847 475.237C149.275 473.872 148.746 471 147.067 471C146.519 471 145.546 469.988 144.906 468.75C143.87 466.75 144.067 466.806 146.673 469.248C148.95 471.382 149.872 471.728 150.802 470.798C151.461 470.139 152 469.106 152 468.503C152 467.173 159.769 459.435 160.435 460.101C160.694 460.361 159.371 462.248 157.496 464.296C155.62 466.343 153.319 469.634 152.382 471.608C151.349 473.783 148.747 476.439 145.774 478.349L140.87 481.5L141.493 491.903C142.19 503.56 143.429 508.073 147.332 513.191C150.31 517.095 157.47 520 164.115 520C167.278 520 168 519.644 168 518.082C168 513.079 168.481 512.896 181.376 513.005C188.044 513.061 194.287 513.083 195.25 513.054C196.604 513.012 197 512.129 197 509.149C197 500.884 200.058 497 206.565 497C208.82 497 209 496.631 209 492V487L197.25 486.945C179.078 486.859 170.796 486.289 170.043 485.07C169.664 484.456 169.545 482.65 169.778 481.056C170.318 477.377 172.944 476.325 183.76 475.455L192.021 474.79L186.328 468.645C179.841 461.643 173.254 448.678 169.701 435.918C167.582 428.311 165.896 426.222 164.601 429.598ZM295.603 431.167C295.886 431.625 296.541 432 297.059 432C297.577 432 298 431.625 298 431.167C298 430.708 297.345 430.333 296.544 430.333C295.743 430.333 295.32 430.708 295.603 431.167ZM104.624 437.539C104.281 438.432 104.029 439.689 104.063 440.332C104.098 440.974 104.558 440.422 105.085 439.105C105.612 437.787 105.864 436.531 105.645 436.312C105.426 436.093 104.966 436.645 104.624 437.539ZM296 437C293.673 437.745 293.651 437.808 295.691 437.9C296.896 437.955 298.16 437.55 298.5 437C298.84 436.45 298.979 436.045 298.809 436.1C298.639 436.155 297.375 436.56 296 437ZM302.335 440.04C301.753 442.218 301.356 444 301.451 444C301.546 444 302.592 442.691 303.774 441.091C305.474 438.793 305.659 437.962 304.658 437.131C303.691 436.328 303.142 437.015 302.335 440.04ZM362.07 441.691C362.032 442.896 362.45 444.16 363 444.5C364.183 445.231 364.183 444.252 363 441.5C362.171 439.572 362.138 439.579 362.07 441.691ZM294.75 441.662C295.438 441.94 296.563 441.94 297.25 441.662C297.938 441.385 297.375 441.158 296 441.158C294.625 441.158 294.063 441.385 294.75 441.662ZM103 443C103 443.55 103.45 444 104 444C104.55 444 105 443.55 105 443C105 442.45 104.55 442 104 442C103.45 442 103 442.45 103 443ZM315.441 443.445C316.509 444.3 317.821 445 318.358 445C319.628 445 319.061 444.538 316 443.08C313.643 441.958 313.611 441.978 315.441 443.445ZM356.144 445.75C355.053 448.3 355.078 448.359 356.484 446.559C357.318 445.491 358 444.254 358 443.809C358 442.289 357.322 442.999 356.144 445.75ZM112 445C111.099 445.582 110.975 445.975 111.691 445.985C112.346 445.993 113.16 445.55 113.5 445C114.267 443.758 113.921 443.758 112 445ZM128 445C126.625 445.44 124.097 445.845 122.383 445.9C119.909 445.979 118.722 446.821 116.633 449.979C113.48 454.743 113.325 457.079 116.001 459.501C117.989 461.3 117.992 461.291 116.382 458.063C114.84 454.974 114.865 454.674 116.88 451.948C118.046 450.371 119 448.613 119 448.04C119 447.468 120.463 446.965 122.25 446.923C125.46 446.847 134.902 444.215 132 444.205C131.175 444.202 129.375 444.56 128 445ZM300.147 447.216C299.911 449.974 293.034 462.085 288.738 467.308C286.563 469.953 285.081 472.415 285.446 472.779C285.81 473.144 289.615 473.455 293.901 473.471C302.696 473.504 305 474.672 305 479.099C305 484.118 302.421 484.856 284.512 484.957C273.278 485.021 268.184 485.413 267.383 486.274C266.756 486.948 266.012 489.369 265.73 491.653L265.216 495.805L269.526 496.452C271.897 496.807 274.317 497.677 274.905 498.385C275.492 499.093 276.317 502.732 276.737 506.472L277.5 513.272L290.952 513.386L304.404 513.5L305.102 516C305.486 517.375 305.845 517.98 305.9 517.344C305.956 516.698 306.872 516.415 307.975 516.704C312.494 517.885 325.585 506.373 323.52 503.033C323.151 502.436 323.442 502.074 324.168 502.225C325.139 502.428 325.57 500.607 325.806 495.308C326.118 488.298 326.055 488.08 323.311 486.661C319.767 484.828 317.443 482.211 316.51 479C316.11 477.625 314.344 474.925 312.586 473C303.124 462.642 301.638 460.035 300.949 452.591C300.589 448.691 300.227 446.272 300.147 447.216ZM327.092 448.385C335.161 453.095 349.382 456.633 353.5 454.955C354.89 454.389 353.769 454.119 349.822 454.07C346.227 454.026 341.276 452.954 336.322 451.149C332.02 449.581 327.6 447.977 326.5 447.585C325.4 447.193 325.666 447.553 327.092 448.385ZM363.874 449C363.585 450.933 362.819 451.574 360.5 451.827C358.85 452.007 357.141 452.501 356.701 452.926C356.262 453.35 357.96 453.385 360.475 453.004L365.048 452.31L368.173 458.173C369.891 461.397 371.502 463.831 371.752 463.582C372.001 463.332 370.851 460.511 369.196 457.314C367.54 454.116 365.75 450.375 365.217 449L364.247 446.5L363.874 449ZM123.978 454.422C124.585 456.03 124.843 457.966 124.552 458.724C124.241 459.535 124.464 459.831 125.092 459.443C126.272 458.714 125.458 454.104 123.866 452.5C123.293 451.922 123.34 452.733 123.978 454.422ZM346.079 461.583C346.127 462.748 346.364 462.985 346.683 462.188C346.972 461.466 346.936 460.603 346.604 460.271C346.272 459.939 346.036 460.529 346.079 461.583ZM124.647 468.561C122.965 480.83 125.125 508.395 128.54 518.247C130.693 524.456 137.496 530.537 144.413 532.434C147.211 533.202 153.662 534.109 158.75 534.451L168 535.072V528.536V522L163.25 521.956C155.44 521.884 149.035 519.122 145.321 514.225C143.539 511.873 141.603 508.273 141.02 506.225C139.76 501.796 137.694 470.54 138.495 468.016C138.959 466.553 138.254 466.167 134.276 465.704C131.649 465.398 128.553 464.855 127.397 464.496C125.516 463.913 125.225 464.343 124.647 468.561ZM345.079 465.715C345.031 467.049 345.895 468.399 347.25 469.11C349.392 470.235 349.422 470.2 347.88 468.396C346.99 467.353 346.013 465.825 345.709 465C345.343 464.004 345.131 464.244 345.079 465.715ZM351.75 467.167C350.417 468.563 350.332 469 351.393 469C352.159 469 353.07 468.261 353.417 467.357C354.292 465.076 353.799 465.02 351.75 467.167ZM312.667 470.229C314.935 472.578 317.732 476.383 318.882 478.684C320.795 482.511 324.296 486 326.223 486C326.65 486 327 483.477 327 480.393C327 475.716 326.74 474.886 325.435 475.387C324.241 475.845 324.016 475.524 324.488 474.038C324.989 472.46 324.19 471.63 320.303 469.689C317.662 468.37 313.935 466.991 312.021 466.625L308.543 465.959L312.667 470.229ZM431.813 472.683C432.534 472.972 433.397 472.936 433.729 472.604C434.061 472.272 433.471 472.036 432.417 472.079C431.252 472.127 431.015 472.364 431.813 472.683ZM99.702 475.25C98.962 476.488 96.877 479.975 95.068 483C92.462 487.358 92.24 488.085 93.999 486.5C96.101 484.606 102.582 473 101.537 473C101.267 473 100.441 474.012 99.702 475.25ZM328.395 487C328.478 496.885 328.119 500.488 326.678 504.222C323.71 511.914 313.285 519.963 306.25 519.994C305.353 519.998 305 522.292 305 528.114V536.227L309.711 535.521C318.216 534.245 325.225 531.012 329.871 526.22C338.271 517.557 340.865 508.027 340.957 485.5L341.001 474.5H334.645H328.289L328.395 487ZM220 477.028C174.525 477.688 172 477.972 172 482.43C172 484.891 172.059 484.907 179.75 484.508C184.012 484.287 212.241 483.806 242.481 483.44C272.721 483.074 298.483 482.387 299.731 481.912C301.249 481.335 302 480.228 302 478.565V476.08L282.25 476.246C271.387 476.337 243.375 476.689 220 477.028ZM434.813 479.683C435.534 479.972 436.397 479.936 436.729 479.604C437.061 479.272 436.471 479.036 435.417 479.079C434.252 479.127 434.015 479.364 434.813 479.683ZM373.788 491.5C374.824 493.515 378.435 497.1 380.75 498.41C382.974 499.669 382.094 498.507 377.38 493.958C374.839 491.506 373.223 490.4 373.788 491.5ZM435.589 490.856C435.298 491.326 436.172 491.499 437.53 491.239C438.889 490.979 440 490.594 440 490.383C440 489.61 436.101 490.027 435.589 490.856ZM111.75 499.662C112.438 499.94 113.563 499.94 114.25 499.662C114.938 499.385 114.375 499.158 113 499.158C111.625 499.158 111.063 499.385 111.75 499.662ZM107.813 501.683C108.534 501.972 109.397 501.936 109.729 501.604C110.061 501.272 109.471 501.036 108.417 501.079C107.252 501.127 107.015 501.364 107.813 501.683ZM99.768 507.168C100.35 507.75 101.415 508.028 102.137 507.788C102.886 507.538 102.432 507.085 101.08 506.731C99.417 506.296 99.026 506.426 99.768 507.168ZM40.5 511.724C43.72 512.515 45 514.051 45 517.122C45 518.705 45.499 520 46.108 520C47.59 520 46.33 515.04 44.267 512.75C43.4 511.788 41.747 511.052 40.595 511.116C38.579 511.228 38.576 511.251 40.5 511.724ZM190.5 515.121C182.25 515.462 174.241 515.8 172.702 515.871L169.904 516L170.078 526.25C170.173 531.888 170.455 537.85 170.704 539.5L171.156 542.5H230.493C263.128 542.5 290.168 542.163 290.581 541.75C290.995 541.337 292.946 540.939 294.917 540.864C297.25 540.775 297.715 540.576 296.25 540.294C292.27 539.528 293.852 538.004 298.75 537.885L303.5 537.77L299.739 537.041C294.393 536.004 293.947 535 298.833 535C303.4 535 304.689 533.073 300.25 532.882L297.5 532.763L300.5 532.088L303.5 531.412L300.5 530.544L297.5 529.676L300.5 528.956L303.5 528.237L300.25 528.118C296.163 527.97 295.931 526 300 526C301.65 526 303 525.55 303 525C303 524.45 301.35 524 299.333 524C295.263 524 295.56 522.794 299.77 522.23C303.442 521.738 303.945 521 300.608 521C299.045 521 298.146 520.573 298.5 520C298.84 519.45 299.991 519 301.059 519C302.127 519 303 518.612 303 518.139C303 517.665 301.762 517.496 300.25 517.764C297.085 518.324 298.191 516.509 301.5 515.713C302.6 515.448 295.625 515.179 286 515.114C276.375 515.049 254.325 514.884 237 514.748C219.675 514.612 198.75 514.779 190.5 515.121ZM436 516C434.9 517.1 434 518.511 434 519.135C434 519.759 434.91 519.113 436.022 517.699C437.134 516.285 439.272 514.942 440.772 514.714L443.5 514.3L440.75 514.15C439.17 514.064 437.149 514.851 436 516ZM48.589 516.856C48.298 517.326 49.116 517.509 50.405 517.263C51.967 516.964 53.458 517.576 54.875 519.096C56.044 520.351 57 520.912 57 520.344C57 517.439 50.018 514.543 48.589 516.856ZM89 517C89.825 517.533 91.4 517.945 92.5 517.914L94.5 517.859L92.5 517C91.4 516.527 89.825 516.116 89 516.086C87.667 516.037 87.667 516.138 89 517ZM426.223 520.557C425 521.413 424 522.863 424 523.779C424 525.095 424.327 524.978 425.557 523.223C427.237 520.823 429.988 520.388 433.066 522.035C434.199 522.642 435 522.682 435 522.133C435 521.451 429.972 519 428.573 519C428.503 519 427.445 519.701 426.223 520.557ZM57.75 521.392C56.788 522.123 56 523.266 56 523.932C56 524.71 56.581 524.562 57.626 523.517C60.271 520.872 64.328 521.967 65.517 525.648L66.535 528.795L68.911 526.871C71 525.179 71.542 525.115 73.394 526.339C74.575 527.12 75.732 529.219 76.027 531.116C76.534 534.369 76.601 534.416 77.777 532.316C78.449 531.116 80.012 529.94 81.25 529.704C82.653 529.436 82.434 529.351 80.666 529.477C78.709 529.616 76.953 528.799 74.99 526.836C72.566 524.412 71.768 524.138 69.574 524.972C68.158 525.51 67 525.596 67 525.164C67 523.636 62.899 520 61.211 520.032C60.27 520.049 58.712 520.661 57.75 521.392ZM380 523C379.099 523.582 378.975 523.975 379.691 523.985C380.346 523.993 381.16 523.55 381.5 523C382.267 521.758 381.921 521.758 380 523ZM419 524.393C419 524.609 419.698 525.054 420.552 525.382C421.442 525.723 421.843 525.555 421.493 524.989C420.906 524.038 419 523.583 419 524.393ZM413.667 526.667C412.753 527.581 412.822 532 413.75 532C414.163 532 414.5 530.65 414.5 529C414.5 527.35 414.462 526 414.417 526C414.371 526 414.033 526.3 413.667 526.667ZM404.2 530.2C403.54 530.86 403 532.034 403 532.808C403 533.775 402.285 534.037 400.72 533.645C397.161 532.751 394.035 534.011 393.386 536.599C392.894 538.558 392.471 538.787 390.897 537.945C388.512 536.668 388.383 538.134 390.75 539.612C393.098 541.078 394.518 540.829 394.237 539C393.702 535.503 398.794 532.842 400.981 535.477C402.813 537.684 404 537.348 404 534.622C404 531.707 405.57 530.313 409.5 529.738C412.365 529.319 412.341 529.293 408.95 529.15C406.998 529.067 404.86 529.54 404.2 530.2ZM298.813 542.683C299.534 542.972 300.397 542.936 300.729 542.604C301.061 542.272 300.471 542.036 299.417 542.079C298.252 542.127 298.015 542.364 298.813 542.683ZM198.329 545L169.158 545.5L166.372 548C160.953 552.863 153.528 563.46 156.201 562.516C159.295 561.424 163 561.211 163 562.125C163 562.671 163.562 562.765 164.25 562.333C165.673 561.44 177.973 561.848 179.497 562.84C181.065 563.86 190.371 563.874 191.634 562.859C193.108 561.675 201.916 561.79 205 563.035C205.275 563.146 205.862 563.176 206.304 563.101C206.746 563.026 207.829 563.686 208.711 564.569C209.639 565.496 211.314 565.982 212.682 565.721C213.983 565.472 215.251 565.598 215.5 566C216.116 566.997 221.337 565.953 222.174 564.665C222.624 563.973 223.357 564.051 224.38 564.9C225.223 565.6 226.275 565.948 226.719 565.674C227.163 565.399 230.188 564.887 233.442 564.536C236.695 564.185 239.723 563.671 240.17 563.395C240.617 563.118 243.016 564.291 245.5 566C247.984 567.709 250.463 568.832 251.008 568.495C251.554 568.158 252 568.427 252 569.094C252 569.761 252.84 569.337 253.867 568.153C255.802 565.922 260.41 565.237 261.51 567.016C262.439 568.519 264 567.181 264 564.882C264 563.782 264.45 563.16 265 563.5C265.55 563.84 266 564.991 266 566.059C266 567.127 266.45 568 267 568C267.55 568 268 567.277 268 566.393C268 565.246 268.5 564.999 269.75 565.531C270.712 565.94 272.977 566.421 274.781 566.598C276.586 566.775 278.498 567.19 279.031 567.519C279.564 567.849 280 567.71 280 567.211C280 566.712 281.462 566.212 283.25 566.099C288.679 565.755 289 565.692 289 564.961C289 564.29 296.667 562.543 298.25 562.853C298.663 562.934 299 562.502 299 561.893C299 561.284 299.675 561.045 300.5 561.362C301.436 561.721 302 561.354 302 560.385C302 558.039 304.35 559.31 305.123 562.074C305.799 564.492 305.801 564.492 305.9 561.809C305.955 560.329 306.437 558.848 306.971 558.518C307.899 557.945 308.469 559.51 309.334 565C309.652 567.017 309.754 566.872 309.864 564.25C309.939 562.462 310.45 561 311 561C311.55 561 312 561.353 312 561.784C312 562.216 313.397 563.394 315.105 564.403L318.21 566.237L317.511 563.869C316.565 560.668 311.485 552.269 307.974 548.105L305.112 544.71L266.306 544.605C244.963 544.547 214.373 544.725 198.329 545ZM100.961 620.75L100.922 634.5L89.911 640.914C80.919 646.152 79.138 647.564 80.2 648.611C81.556 649.948 101.52 652.415 103.097 651.44C104.494 650.576 104.251 651.339 100.5 659.569C95.194 671.214 96.076 673.295 104.5 669C106.658 667.9 108.89 666.99 109.461 666.978C110.033 666.966 111.625 666.076 113 665C114.375 663.924 116.11 663.034 116.856 663.022C118.747 662.991 124.042 667.608 123.195 668.549C122.813 668.973 123.053 669.003 123.73 668.614C124.438 668.206 127.28 669.621 130.437 671.953C133.45 674.179 136.203 676 136.556 676C136.909 676 136.877 670.872 136.485 664.603C135.774 653.223 135.777 653.206 138.137 652.462C141.507 651.399 150.917 644.718 150.962 643.355C150.984 642.706 147.103 641.422 142.001 640.391C131.739 638.317 132.006 639.055 137.746 628.634C143.581 618.04 143.631 617.968 144.475 618.756C144.913 619.165 144.747 618.493 144.106 617.261L142.942 615.022L132.355 620.6L121.768 626.177L113.949 618.387C109.649 614.103 106.396 610.168 106.72 609.644C107.044 609.12 106.786 609.014 106.147 609.409C105.497 609.811 104.722 609.438 104.386 608.563C104.056 607.704 103.159 607 102.393 607C101.272 607 100.992 609.682 100.961 620.75ZM103 622.845C103 636.465 103.863 635.014 91.3 642.529C86.791 645.227 83.198 647.531 83.317 647.65C83.436 647.769 86.901 648.136 91.017 648.466C95.132 648.795 100.358 649.295 102.63 649.576L106.759 650.086L102.976 659.293C100.896 664.357 99.328 668.641 99.493 668.812C99.657 668.984 103.852 667.086 108.814 664.593L117.837 660.062L125.669 666.069L133.5 672.077L133.785 662.288L134.069 652.5L140.987 648.502C144.792 646.304 147.589 644.235 147.202 643.904C146.816 643.574 143.34 642.763 139.478 642.102C129.036 640.314 129.121 640.482 134.003 631.374C136.323 627.043 139.103 622.263 140.179 620.75C141.256 619.237 141.873 618 141.551 618C141.229 618 136.974 620.25 132.096 623C127.217 625.75 122.541 628 121.703 628C120.866 628 116.602 624.175 112.228 619.5C107.854 614.825 103.988 611 103.638 611C103.287 611 103 616.33 103 622.845ZM386.353 645.25C385.255 646.487 381.748 651.026 378.558 655.335C374.418 660.93 372.294 663.018 371.13 662.638C357.969 658.336 351.921 656.817 350.356 657.419C348.693 658.06 348.668 658.229 350.116 659.042C352.271 660.252 363 673.418 363 674.852C363 675.893 347.176 684 345.143 684C343.857 684 341.598 686.932 342.325 687.658C342.66 687.993 347.719 689.681 353.568 691.408L364.202 694.549L367.606 704.446C369.478 709.889 371.246 714.579 371.535 714.868C371.824 715.157 375.578 711.897 379.877 707.623C387.579 699.966 387.751 699.862 391.597 700.572C393.743 700.968 397.235 701.898 399.356 702.639C401.478 703.38 403.571 703.765 404.009 703.494C404.8 703.006 402.078 697.169 397.483 689.5C396.165 687.3 395.067 685.235 395.043 684.91C395.02 684.586 399.512 682.371 405.026 679.989C410.541 677.606 414.913 675.239 414.743 674.728C414.404 673.713 398.54 668.111 395.809 668.042C393.33 667.98 392.972 666.93 391.952 656.747C390.874 645.979 390.268 643 389.155 643C388.712 643 387.451 644.013 386.353 645.25ZM382.5 653.176C379.75 656.569 376.719 660.617 375.765 662.172C373.638 665.637 372.58 665.663 363.72 662.467C359.858 661.074 356.258 660.081 355.721 660.26C355.184 660.439 357.277 663.57 360.372 667.219C363.468 670.867 366 674.458 366 675.199C366 675.939 361.394 678.835 355.765 681.634L345.53 686.723L354.515 689.569C359.457 691.134 363.993 692.768 364.594 693.201C365.196 693.633 367.205 698.046 369.057 703.007L372.426 712.027L379.719 704.783L387.012 697.538L393.66 699.282C397.316 700.241 400.447 700.886 400.617 700.716C400.787 700.546 398.924 696.549 396.476 691.834L392.026 683.261L397.85 680.648C401.053 679.21 405.435 677.298 407.587 676.398L411.5 674.761L402.02 671.851C396.807 670.25 392.13 668.53 391.628 668.028C391.125 667.525 390.266 662.589 389.719 657.057C389.171 651.526 388.448 647.002 388.112 647.004C387.775 647.006 385.25 649.783 382.5 653.176ZM129 653.393C129 653.609 129.698 654.054 130.552 654.382C131.442 654.723 131.843 654.555 131.493 653.989C130.906 653.038 129 652.583 129 653.393ZM130 663.5C130.685 664.325 131.695 665 132.245 665C132.803 665 132.694 664.337 132 663.5C131.315 662.675 130.305 662 129.755 662C129.197 662 129.306 662.663 130 663.5ZM61.733 667.124C62.412 667.808 63.219 668.115 63.526 667.807C63.834 667.499 63.279 666.94 62.293 666.564C60.868 666.022 60.753 666.136 61.733 667.124ZM175.813 687.683C176.534 687.972 177.397 687.936 177.729 687.604C178.061 687.272 177.471 687.036 176.417 687.079C175.252 687.127 175.015 687.364 175.813 687.683ZM376 703.441C376 704.234 376.408 705.134 376.907 705.442C377.405 705.751 377.578 705.102 377.29 704.001C376.679 701.666 376 701.371 376 703.441ZM161 759.564C161 759.992 161.635 761.053 162.412 761.921C163.882 763.565 164.407 766.953 164.151 773.133C164.033 775.979 163.512 776.904 161.75 777.399C157.847 778.497 161.967 779.894 166.5 779.01C168.7 778.581 169.986 778.178 169.358 778.115C167.937 777.972 166.793 773.702 167.608 771.579C167.995 770.57 169.438 770 171.607 770C174.692 770 175 770.266 175 772.929C175 774.539 174.346 776.511 173.548 777.31C171.6 779.257 172.262 779.685 176.469 779.193C179.948 778.787 180.959 777.711 179 776.5C178.45 776.16 178 773.01 178 769.5C178 765.99 178.45 762.84 179 762.5C181.208 761.136 179.774 760 175.845 760C171.813 760 171.741 760.057 173.425 761.918C174.38 762.972 175.012 764.885 174.83 766.168C174.354 769.531 169.212 769.558 167.684 766.205C166.749 764.153 166.942 763.548 169.047 761.929L171.5 760.044L167.832 760.022C165.814 760.01 163.452 759.727 162.582 759.393C161.712 759.059 161 759.136 161 759.564ZM213 759.834C213 760.42 213.606 761.26 214.346 761.7C216.13 762.761 216.997 767.607 216.313 772.705C215.898 775.794 215.225 776.981 213.63 777.431C209.822 778.505 214.053 779.877 218.5 779.01C220.7 778.581 221.938 778.178 221.25 778.115C220.477 778.044 220 776.472 220 774C220 770.095 220.083 770 223.5 770C226.703 770 227 770.248 227 772.929C227 774.539 226.322 776.536 225.492 777.365C223.558 779.299 224.546 779.722 229.415 779.045C232.904 778.559 233.149 778.35 231.665 777.128C230.432 776.111 230 774.116 230 769.437C230 765.961 230.45 762.84 231 762.5C233.083 761.213 231.87 760 228.5 760C225.13 760 223.917 761.213 226 762.5C227.166 763.221 227.352 767.664 226.244 768.349C225.829 768.606 224.294 768.588 222.835 768.309C219.326 767.638 218.552 764.496 221.272 761.961L223.377 760L220.439 759.986C218.822 759.979 216.488 759.701 215.25 759.37C213.946 759.02 213 759.215 213 759.834ZM277.136 759.677C276.126 760.096 276.427 760.796 278.296 762.371C280.611 764.324 280.775 764.987 280.275 770.379C279.847 775.003 279.333 776.362 277.865 776.745C274.818 777.542 275.743 779 279.297 779H282.595L282.172 772.364C281.659 764.298 283.316 764.388 285.004 772.517C285.63 775.533 286.458 778 286.844 778C287.229 778 288.015 775.975 288.589 773.5C289.376 770.108 289.341 769 288.447 769C287.794 769 286.693 766.975 286 764.5C285.307 762.025 284.236 759.994 283.62 759.986C283.004 759.979 281.6 759.779 280.5 759.542C279.4 759.305 277.886 759.366 277.136 759.677ZM294.033 759.887C292.241 760.386 291.373 761.52 290.86 764.03C290.471 765.931 290.344 767.677 290.577 767.91C290.809 768.143 291 767.782 291 767.108C291 766.434 291.45 766.16 292 766.5C293.312 767.311 293.287 774.594 291.965 777.066C291.02 778.83 291.285 779 294.988 779H299.046L297.387 776.467C296.126 774.544 295.865 772.602 296.298 768.398C296.613 765.353 297.345 762.289 297.926 761.589C298.507 760.889 298.687 760.02 298.325 759.658C297.588 758.921 297.478 758.927 294.033 759.887ZM305 759.899C302.019 760.441 301.761 760.687 303.259 761.562C304.642 762.37 305.039 764.023 305.118 769.31C305.178 773.309 304.72 776.632 303.987 777.515C302.931 778.788 303.352 779 306.934 779C310.965 779 311.062 778.926 309.659 776.923C307.764 774.219 308.582 762.915 310.764 761.633C311.998 760.908 312.016 760.624 310.87 759.898C310.116 759.421 309.275 759.083 309 759.147C308.725 759.211 306.925 759.549 305 759.899ZM321.25 759.794L314 760.088L314.032 763.794C314.061 767.226 314.169 767.36 315.496 765.608C316.283 764.568 317.113 763.218 317.339 762.608C318.362 759.85 320.155 764.189 320.321 769.824C320.467 774.776 320.147 776.165 318.599 777.3C315.936 779.253 317.649 779.841 323.5 778.982C327.537 778.39 328.067 778.106 326.25 777.508C324.209 776.836 324 776.133 324 769.942C324 762.811 325.142 760.528 326.985 763.972C327.582 765.087 328.505 766 329.035 766C330.161 766 330.36 760.267 329.25 759.809C328.837 759.639 325.238 759.632 321.25 759.794ZM142.027 763.75L142.053 767.5L143.761 764.745C144.701 763.23 145.926 762.14 146.485 762.325C147.043 762.509 147.634 765.708 147.798 769.434C148.038 774.888 147.765 776.452 146.397 777.452C143.926 779.259 145.795 779.819 151.5 778.982C155.537 778.39 156.067 778.106 154.25 777.508C152.209 776.836 152 776.133 152 769.942C152 762.811 153.142 760.528 154.985 763.972C156.563 766.92 158 766.456 158 763V760H150H142L142.027 763.75ZM183 760.893C183 761.384 183.675 762.045 184.5 762.362C186.839 763.259 186.626 776.536 184.25 777.92C182.962 778.67 184.782 778.947 191.142 778.97C199.64 778.999 199.794 778.956 200.44 776.382C201.395 772.578 200.29 772.208 197.371 775.355C193.68 779.336 190.595 778.646 190.19 773.75C189.865 769.831 191.369 768.769 193.8 771.2C194.733 772.133 194.993 771.522 194.97 768.45C194.945 765.281 194.738 764.846 193.92 766.25C192.261 769.097 189.816 768.443 190.184 765.25C190.64 761.28 194.991 760.902 197.884 764.58L200 767.27V763.635V760H191.5C186.825 760 183 760.402 183 760.893ZM235 760.599C235 760.973 235.721 761.807 236.603 762.452C239.067 764.253 238.967 775.82 236.472 777.644C234.859 778.823 235.747 779 243.29 779C251.652 779 251.984 778.913 252.575 776.557C253.527 772.765 251.962 771.225 250.327 774.345C248.933 777.006 244.996 778.734 243.057 777.535C242.476 777.176 242 775.334 242 773.441C242 769.867 243.552 768.952 245.8 771.2C246.733 772.133 246.986 771.411 246.937 767.95C246.884 764.272 246.716 763.89 245.969 765.75C244.631 769.08 241.786 768.704 242.184 765.25C242.649 761.207 246.683 760.889 249.762 764.652L252.092 767.5L251.796 764L251.5 760.5L243.25 760.21C238.713 760.05 235 760.225 235 760.599ZM255.777 761.557C257.709 762.909 258 764.017 258 770.007C258 775.517 257.649 777.105 256.25 777.92C254.889 778.713 255.601 778.946 259.45 778.97C263.3 778.993 264.133 778.733 263.2 777.8C261.799 776.399 261.568 770 262.918 770C265.343 770 267 771.431 267 773.525C267 777.332 268.081 779 270.548 779C273.26 779 274.629 777.455 272.604 776.678C271.843 776.386 270.491 774.686 269.6 772.899C268.063 769.82 268.084 769.54 269.99 767.511C272.57 764.764 272.524 763.481 269.777 761.557C268.28 760.508 265.272 760 260.555 760C253.934 760 253.675 760.084 255.777 761.557ZM262.052 762.438C261.3 763.344 261.267 764.571 261.946 766.358C262.775 768.539 263.304 768.823 265.218 768.115C268.233 767 268.301 763.025 265.323 761.924C263.885 761.392 262.775 761.566 262.052 762.438Z" fill="black"/>
</svg>
