<svg width="471" height="793" viewBox="0 0 471 793" fill="none" xmlns="http://www.w3.org/2000/svg">
<path fill-rule="evenodd" clip-rule="evenodd" d="M1.30851 1.2504C0.388511 2.6724 -0.418489 783.755 0.495511 788.75C1.88851 796.364 2.49951 790.629 2.49951 769.938V747.875L90.9995 747.981C139.675 748.04 185.125 748.267 192 748.486C198.875 748.705 263.675 749.175 336 749.529C408.325 749.883 467.847 750.503 468.272 750.908C468.696 751.312 468.921 760.565 468.772 771.468L468.5 791.292L236 791.182C99.4525 791.117 4.32451 791.438 5.49951 791.961C6.64751 792.471 105.967 792.884 238.622 792.929L469.743 793.008L470.37 789.086C471.028 784.972 471.263 219.381 470.607 220.091C470.251 220.476 469.73 308.053 468.453 582.5C467.982 683.673 467.468 746.631 467.103 747.844C467.046 748.033 464.863 747.936 462.25 747.628C459.637 747.32 399.9 746.824 329.5 746.526C259.1 746.229 185.075 745.766 165 745.497C144.925 745.229 100.6 744.735 66.4995 744.4C32.3995 744.064 4.36751 743.668 4.20751 743.519C3.98951 743.318 3.80151 334.852 3.97551 240.39L3.99951 227.28L9.26251 226.737C12.1575 226.438 16.3205 225.43 18.5125 224.498C32.4295 218.579 36.1975 215.058 39.9305 204.483C41.9025 198.896 42.1885 196.586 41.7315 189.921L41.1885 182H43.9345C48.0205 182 58.2665 176.498 63.0075 171.757C71.3365 163.428 75.5735 150.864 74.7275 137C74.4425 132.325 73.9045 127.753 73.5315 126.84C73.0075 125.555 74.3075 124.366 79.2705 121.591C82.7995 119.617 86.4585 117.15 87.4005 116.109C89.0725 114.261 89.2505 114.297 94.6855 117.57C103.384 122.807 109.311 124.452 119 124.317C130.632 124.155 140.304 120.454 151.254 111.974L154.008 109.842L157.254 111.825C165.294 116.739 177.814 118.305 186.205 115.446C194.598 112.586 203.003 103.218 206.571 92.7444C207.423 90.2454 209.889 86.3404 212.051 84.0674C218.585 77.1994 219.463 74.7674 219.483 63.5004C219.492 58.0004 219.148 52.5394 218.719 51.3634C218.058 49.5564 218.608 48.8344 222.287 46.6784C227.968 43.3484 232.508 38.6844 236.087 32.5004C238.622 28.1204 238.981 26.5084 238.979 19.5004C238.976 12.8134 238.568 10.7864 236.488 7.1484C235.12 4.7544 234 2.6174 234 2.3984C234 2.1794 251.152 2.0004 272.116 2.0004H310.233L306.673 5.9404C301.158 12.0454 300 15.0404 300.001 23.2004C300.001 29.1534 300.529 31.6144 302.859 36.5404C306.069 43.3264 313.363 50.4814 318.138 51.5304C320.438 52.0354 320.978 52.5784 320.445 53.8454C317.896 59.9084 317.85 73.7744 320.361 79.0664C321.947 82.4074 321.927 82.7734 319.971 86.8224C314.141 98.8884 315.58 109.94 324.053 118.191C330.825 124.785 334.17 126.263 343.5 126.786C347.9 127.033 352.175 127.807 353 128.506C353.825 129.205 355.85 130.067 357.5 130.422C360.367 131.037 360.506 131.311 360.661 136.593C360.961 146.801 367.68 156.606 378.204 162.194C381.822 164.115 384.037 164.476 392.26 164.487C400.956 164.499 402.087 164.707 402.624 166.396C403.76 169.966 411.425 177.186 417.146 180.074C428.525 185.818 440.521 185.97 448.884 180.475C451.79 178.567 453.816 178.103 459.199 178.113C462.883 178.119 466.811 177.636 467.928 177.038C469.938 175.963 469.964 176.19 470.251 197.725C470.411 209.701 470.543 201.275 470.546 179C470.548 156.725 470.42 146.375 470.262 156C469.934 175.861 469.877 176 462.125 176C456.791 176 450.911 173.33 445.75 168.565C443.688 166.66 442 165.578 442 166.159C442 166.741 444.124 169.168 446.721 171.553C449.319 173.937 451.231 176.073 450.971 176.298C450.712 176.523 448.339 177.955 445.698 179.479C441.299 182.019 440.251 182.211 433.198 181.772C421.182 181.024 409.322 174.415 405.484 166.328C404.508 164.27 403.123 158.517 402.405 153.543L401.101 144.5L401.37 153.216L401.638 161.932L397.32 162.579C390.838 163.551 380.619 161.263 375.178 157.622C366.057 151.518 361.363 138.99 364.031 127.87C365.437 122.011 364.721 120.284 363.022 125.433C361.972 128.615 361.558 128.932 359.173 128.374C355.602 127.539 349.261 121.363 347.786 117.284C347.133 115.478 346.262 114 345.851 114C344.894 114 346.859 119.768 348.889 122.915L350.447 125.331L343.765 124.707C336.635 124.041 331.2 121.748 326.749 117.527C315.73 107.076 317.689 86.6494 330.457 78.8634C332.131 77.8424 332.907 77.0064 332.183 77.0044C331.459 77.0024 329.329 78.1734 327.449 79.6074L324.032 82.2134L322.887 79.3574C321.177 75.0884 320.616 62.1084 321.93 57.2434C323.256 52.3374 328.626 46.4724 333.753 44.3304C335.658 43.5344 336.985 42.6534 336.704 42.3724C335.924 41.5924 328.848 45.5354 325.745 48.4774L322.991 51.0904L318.745 49.2054C309.776 45.2244 302.978 33.5534 303.022 22.2124C303.049 15.2154 305.447 9.6044 310.517 4.6804L314.284 1.0224L355.392 0.750404C378.001 0.600404 307.764 0.370404 199.309 0.239404C42.4435 0.0494038 1.95251 0.256404 1.30851 1.2504ZM400.75 0.732404C403.087 0.943404 406.913 0.943404 409.25 0.732404C411.587 0.522404 409.675 0.349404 405 0.349404C400.325 0.349404 398.413 0.522404 400.75 0.732404ZM73.1295 2.0004L2.75951 2.5004L2.88751 23.0004C2.95751 34.2754 3.00851 84.5354 2.99951 134.688L2.98451 225.877L6.74151 225.348C22.0045 223.2 32.9825 216.007 36.8745 205.603C41.1455 194.188 40.4085 185.36 34.3865 175.821C33.0595 173.719 32.3405 172 32.7875 172C33.2345 172 34.8855 174.033 36.4565 176.518C38.3435 179.504 39.8525 180.887 40.9055 180.596C53.9135 177.009 54.0375 176.946 60.3565 170.714C65.6735 165.469 67.0945 163.288 69.4685 156.73C72.4245 148.566 73.3665 136.792 71.7015 128.811L70.9315 125.122L64.2155 125.655C60.4015 125.958 56.4195 125.728 54.9995 125.122C52.9525 124.25 53.4165 124.161 57.5625 124.632C67.3785 125.749 82.9275 119 88.7795 111.084C91.3775 107.57 93.0135 100.305 92.3875 95.0604C92.0545 92.2714 92.1685 91.9334 92.9105 93.5004C94.4145 96.6724 94.1455 104.817 92.4275 108.14C90.3665 112.125 90.9145 113.223 96.5385 116.366C111.841 124.918 129.27 123.976 145.222 113.735C150.245 110.509 152.675 107.915 157.75 100.36C158.437 99.3374 158.294 100.3 157.431 102.5C156.568 104.7 155.781 106.95 155.681 107.5C155.282 109.704 166.64 114.127 174.16 114.696C180.982 115.212 182.013 115.021 187.526 112.228C194.861 108.511 196.919 106.359 201.449 97.6674C204.287 92.2234 205.032 89.6144 205.16 84.6774C205.253 81.0804 205.49 79.8834 205.728 81.8104C206.296 86.4214 208.697 85.6804 212.736 79.6484C217.104 73.1254 218.354 67.9664 217.641 59.3984C216.809 49.3954 216.503 48.8444 212.134 49.4924C207.974 50.1104 209.377 49.3054 217.472 46.4314C223.875 44.1574 231.248 37.2364 234.628 30.3284C236.963 25.5554 237.208 24.1274 236.672 18.3954C236.271 14.0914 235.121 10.1234 233.281 6.6914L230.498 1.5004H186.999C163.075 1.5004 111.833 1.7254 73.1295 2.0004ZM215 6.7114C215 7.2854 215.787 8.3734 216.75 9.1284C218.369 10.3974 218.39 10.3504 217.033 8.5004C216.226 7.4004 215.439 6.3134 215.283 6.0834C215.127 5.8544 215 6.1374 215 6.7114ZM219.681 9.0374C220.668 10.7084 221.622 11.6334 221.802 11.0934C222.26 9.7214 220.145 6.0004 218.908 6.0004C218.347 6.0004 218.694 7.3674 219.681 9.0374ZM230.564 10.2934C230.94 11.2794 231.499 11.8344 231.807 11.5264C232.115 11.2194 231.808 10.4124 231.124 9.7334C230.136 8.7534 230.022 8.8684 230.564 10.2934ZM225.168 13.0514C225.753 14.7294 226.458 15.8754 226.736 15.5984C227.529 14.8044 226.067 10.0004 225.033 10.0004C224.49 10.0004 224.547 11.2694 225.168 13.0514ZM228.744 17.0004C229.034 20.5754 229.435 23.6884 229.635 23.9174C230.373 24.7594 229.833 14.4354 229.038 12.5004C228.556 11.3264 228.435 13.1834 228.744 17.0004ZM69.4995 12.7134C68.3995 12.9784 67.0495 13.6324 66.4995 14.1684C65.8475 14.8034 66.3685 14.9304 67.9995 14.5324C69.3745 14.1974 73.2635 13.8284 76.6415 13.7114C80.0205 13.5954 82.5815 13.1624 82.3325 12.7504C81.8485 11.9454 72.8015 11.9194 69.4995 12.7134ZM232.32 19.0004C232.32 22.5754 232.502 24.0384 232.723 22.2504C232.945 20.4624 232.945 17.5384 232.723 15.7504C232.502 13.9624 232.32 15.4254 232.32 19.0004ZM79.0505 17.0304C82.6545 17.4514 87.3535 18.2804 89.4945 18.8714C95.4405 20.5134 94.9265 19.3534 88.9165 17.5684C86.0125 16.7064 81.1305 16.0594 78.0675 16.1314L72.4995 16.2634L79.0505 17.0304ZM88.8025 22.4744C91.7185 23.3064 95.0195 24.4764 96.1375 25.0744C97.2555 25.6724 98.4055 25.9274 98.6935 25.6404C99.5205 24.8134 92.1055 22.0264 87.5975 21.4694C83.8535 21.0064 83.9575 21.0934 88.8025 22.4744ZM356.5 22.0004L353.5 22.7634L357 22.8114C358.925 22.8384 361.4 22.4734 362.5 22.0004C364.315 21.2204 364.268 21.1454 362 21.1894C360.625 21.2154 358.15 21.5804 356.5 22.0004ZM101.559 27.4684C102.626 28.2764 103.924 28.9514 104.441 28.9684C104.959 28.9864 104.509 28.3394 103.441 27.5324C102.374 26.7244 101.076 26.0494 100.559 26.0324C100.041 26.0144 100.491 26.6614 101.559 27.4684ZM347 27.3474C343.565 28.5824 339.016 30.9264 340 30.9534C340.275 30.9614 343.425 29.8734 347 28.5364C350.575 27.1984 352.825 26.1014 352 26.0964C351.175 26.0914 348.925 26.6544 347 27.3474ZM96.0825 28.3654C96.3125 28.5654 97.6245 29.2654 98.9995 29.9204C101.357 31.0424 101.389 31.0224 99.5585 29.5554C97.9655 28.2794 94.7105 27.1644 96.0825 28.3654ZM91.9995 30.4144C91.9995 30.6424 94.3615 32.2624 97.2495 34.0144C100.138 35.7674 104.467 39.0684 106.87 41.3504C109.543 43.8884 110.81 44.6604 110.132 43.3384C107.8 38.7884 91.9995 27.5264 91.9995 30.4144ZM107.319 36.3614C110.519 39.4624 113.387 42.0004 113.691 42.0004C114.732 42.0004 111.707 38.9414 106.602 34.8304L101.5 30.7214L107.319 36.3614ZM64.8915 34.3544C52.9065 39.2854 43.3235 48.9944 40.5675 59.0004C40.1885 60.3754 41.2765 59.0254 42.9855 56.0004C48.7245 45.8394 57.5305 38.4194 67.1535 35.6354C79.4625 32.0754 91.6975 34.4614 100.397 42.1184C105.194 46.3414 106.463 46.1294 102.97 41.6894C101.854 40.2704 97.7425 37.5094 93.8355 35.5544C87.4235 32.3474 85.9395 32.0024 78.6155 32.0244C72.4675 32.0424 69.1395 32.6074 64.8915 34.3544ZM342.5 33.5364C338.462 35.3854 340.877 35.3884 345.135 33.5394C346.986 32.7364 347.825 32.0974 347 32.1204C346.175 32.1444 344.15 32.7814 342.5 33.5364ZM334 38.0894C332.339 39.4484 332.172 39.7874 333.5 39.1014C336.762 37.4154 338.57 36.0304 337.5 36.0384C336.95 36.0414 335.375 36.9654 334 38.0894ZM454.5 37.0004C452.682 37.7814 452.727 37.8574 455 37.8304C456.375 37.8144 458.625 37.4404 460 37.0004C462.438 36.2194 462.425 36.1994 459.5 36.1704C457.85 36.1544 455.6 36.5274 454.5 37.0004ZM455.5 39.5164C454.95 39.6864 453.262 40.0984 451.75 40.4324C450.238 40.7654 449 41.4484 449 41.9494C449 42.4944 450.306 42.4864 452.243 41.9304C454.027 41.4194 457.027 41.0004 458.91 41.0004C460.793 41.0004 462.146 40.8384 461.917 40.6414C461.186 40.0104 456.538 39.1964 455.5 39.5164ZM327.5 42.5584C325.636 44.1414 325.288 44.7284 326.582 44.1074C328.441 43.2164 331.812 39.9924 330.872 40.0054C330.668 40.0084 329.15 41.1564 327.5 42.5584ZM453.69 44.0974C449.179 45.1594 445.602 46.9354 446.39 47.7244C446.699 48.0324 447.606 47.7424 448.407 47.0774C449.207 46.4134 452.4 45.6084 455.502 45.2884C459.093 44.9174 460.662 44.4014 459.821 43.8684C459.094 43.4074 458.275 43.0694 458 43.1164C457.725 43.1634 455.786 43.6044 453.69 44.0974ZM191.448 44.9164C192.247 46.2094 201.732 49.2634 203.254 48.7184C203.94 48.4724 202.475 47.7454 200 47.1024C197.525 46.4584 194.459 45.4944 193.186 44.9584C191.824 44.3854 191.109 44.3684 191.448 44.9164ZM462.812 44.6834C463.534 44.9724 464.397 44.9364 464.729 44.6044C465.061 44.2724 464.471 44.0364 463.417 44.0794C462.252 44.1274 462.015 44.3644 462.812 44.6834ZM185.893 46.3714C188.055 48.9764 202.975 54.3874 201.525 52.0404C201.171 51.4684 199.829 51.0004 198.543 51.0004C197.256 51.0004 193.62 49.6414 190.463 47.9804C187.306 46.3204 185.249 45.5954 185.893 46.3714ZM454.081 48.6034C448.326 50.1354 443.104 52.9404 440.862 55.7044C439.338 57.5844 439.46 57.5304 446.027 53.4494C449.227 51.4604 451.626 50.6574 457.5 49.6104C458.6 49.4144 461.863 49.5664 464.75 49.9474C470.194 50.6674 472.085 49.6154 467.25 48.5574C461.121 47.2154 459.27 47.2214 454.081 48.6034ZM194.5 54.9934C196.411 55.8214 203.784 56.3884 202.917 55.6414C202.688 55.4434 200.25 55.0224 197.5 54.7044C194.283 54.3324 193.213 54.4354 194.5 54.9934ZM25.8375 62.3484C22.7235 63.0384 18.0145 64.9394 15.3725 66.5734C10.5015 69.5844 3.36051 77.7394 4.59751 78.8784C4.96951 79.2204 5.49651 78.8254 5.76851 78.0004C6.88951 74.6074 15.9135 67.1764 21.4095 65.1194C30.2375 61.8164 40.8585 62.6394 47.1535 67.1134C50.4345 69.4454 51.6975 69.5494 49.8715 67.3374C46.0785 62.7424 34.7075 60.3824 25.8375 62.3484ZM355.5 70.0004C357.15 70.4204 359.625 70.7724 361 70.7824L363.5 70.8014L361 70.0004C359.625 69.5604 357.15 69.2084 355.5 69.2184L352.5 69.2374L355.5 70.0004ZM351.264 73.7184C352.784 73.9474 355.034 73.9414 356.264 73.7044C357.494 73.4674 356.25 73.2794 353.5 73.2864C350.75 73.2944 349.744 73.4884 351.264 73.7184ZM362.5 75.5294C367.511 77.3344 368.194 77.3264 365 75.5004C363.625 74.7144 361.6 74.0754 360.5 74.0794C359.4 74.0844 360.3 74.7364 362.5 75.5294ZM143.143 81.1434C142.438 82.2714 142.081 83.4144 142.35 83.6834C142.618 83.9524 143.361 83.1944 144 82.0004C145.511 79.1764 144.809 78.4744 143.143 81.1434ZM146.166 84.5354C145.529 85.9334 142.868 89.3974 140.254 92.2324L135.5 97.3864L139.586 94.1574C143.375 91.1644 148.766 83.4324 147.763 82.4304C147.522 82.1894 146.803 83.1364 146.166 84.5354ZM149.562 85.8804C148.743 87.4644 146.888 90.2774 145.439 92.1304C143.678 94.3834 144.124 94.0934 146.785 91.2544C148.974 88.9194 151 86.1064 151.289 85.0044C152.035 82.1514 151.297 82.5264 149.562 85.8804ZM139.584 86.6414C139.057 88.0144 139.204 88.0764 140.477 87.0194C142.212 85.5794 142.393 85.0004 141.107 85.0004C140.616 85.0004 139.931 85.7394 139.584 86.6414ZM421.812 88.6834C422.534 88.9724 423.397 88.9364 423.729 88.6044C424.061 88.2724 423.471 88.0364 422.417 88.0794C421.252 88.1274 421.015 88.3644 421.812 88.6834ZM415.25 91.1154C410.737 94.0054 411.156 94.6704 415.75 91.9084C420.399 89.1124 420.546 88.9964 419.417 89.0174C418.913 89.0264 417.038 89.9704 415.25 91.1154ZM406.2 94.4254C403.624 96.8594 401.738 99.0514 402.008 99.2964C402.279 99.5414 404.604 97.5504 407.178 94.8714C413.018 88.7914 412.442 88.5284 406.2 94.4254ZM419.372 93.4074C416.551 94.7204 413.943 96.2834 413.574 96.8804C413.205 97.4784 415.119 96.8534 417.828 95.4934C420.536 94.1324 425.17 92.6174 428.126 92.1274L433.5 91.2344L429 91.1274C426.163 91.0594 422.604 91.9024 419.372 93.4074ZM146.453 96.1724C143.43 99.3624 143.189 99.8244 145.432 98.1354C148.054 96.1604 151.666 92.0004 150.76 92.0004C150.565 92.0004 148.627 93.8774 146.453 96.1724ZM399.552 96.9424C398.586 98.0104 397.959 99.3774 398.16 99.9794C398.361 100.582 399.332 99.7084 400.319 98.0374C402.378 94.5514 402.089 94.1394 399.552 96.9424ZM422.665 97.5474C417.472 99.4524 409.407 105.502 407.295 109.077C405.268 112.51 405.841 112.43 397.846 110.382C389.248 108.179 380.695 108.935 374.364 112.457C369.748 115.024 363.761 121 365.805 121C366.332 121 367.915 119.49 369.322 117.644C373.178 112.589 382.086 109.543 390.799 110.301C394.484 110.621 398.962 111.404 400.75 112.04C403.468 113.006 404.007 113.712 404.044 116.348L404.088 119.5L405.406 115.808C407.88 108.879 416.075 101.326 424.352 98.3464C431.293 95.8474 442.547 97.7784 447.746 102.361C448.981 103.45 450.248 104.085 450.562 103.772C451.405 102.928 445.017 98.4494 441.101 97.1384C436.544 95.6124 427.387 95.8164 422.665 97.5474ZM141 104.116C139.075 105.784 135.813 108.025 133.75 109.095C131.688 110.165 130 111.22 130 111.44C130 111.659 131.688 111.171 133.75 110.355C137.494 108.873 147.394 101.05 145.5 101.07C144.95 101.076 142.925 102.447 141 104.116ZM326.052 104.57C325.963 106.396 333.035 113.971 336.35 115.6L339.5 117.148L336.01 114.324C331.538 110.706 329.898 109.038 327.802 105.978C326.869 104.615 326.081 103.982 326.052 104.57ZM140.662 110.179C139.102 111.343 135.277 113.343 132.162 114.624C129.048 115.904 127.216 116.963 128.09 116.976C130.197 117.008 141.471 111.342 143.024 109.471C144.683 107.472 144.031 107.667 140.662 110.179ZM324.03 108.642C323.99 110.157 330.094 117.703 332 118.494C332.825 118.837 331.871 117.403 329.88 115.309C327.889 113.214 325.765 110.6 325.16 109.5C324.556 108.4 324.047 108.014 324.03 108.642ZM337.559 113.468C338.626 114.276 340.175 114.935 341 114.933C341.87 114.931 341.45 114.329 340 113.5C336.713 111.621 335.089 111.6 337.559 113.468ZM35.9175 118.363C37.2485 120.003 40.9995 122.483 40.9995 121.723C40.9995 121.532 39.5375 120.305 37.7495 118.997C35.7385 117.525 35.0395 117.283 35.9175 118.363ZM41.7325 127.124C42.4115 127.808 43.2185 128.115 43.5255 127.807C43.8335 127.499 43.2785 126.94 42.2925 126.564C40.8675 126.022 40.7525 126.136 41.7325 127.124ZM57.7495 128.706C58.9865 128.944 61.0125 128.944 62.2495 128.706C63.4865 128.467 62.4745 128.272 59.9995 128.272C57.5245 128.272 56.5125 128.467 57.7495 128.706ZM52.4995 131.057C56.3055 132.341 59.4135 132.82 60.9995 132.366C63.0395 131.782 62.4875 131.52 57.9995 130.946C54.9745 130.559 51.1495 129.97 49.4995 129.637C47.8495 129.305 49.1995 129.944 52.4995 131.057ZM51.4995 135.02C53.4085 135.821 65.7835 136.392 64.9165 135.638C64.6865 135.439 61.1245 135.03 56.9995 134.728C52.5675 134.405 50.3175 134.524 51.4995 135.02ZM54.7675 139.725C56.5645 139.947 59.2645 139.943 60.7675 139.715C62.2705 139.486 60.7995 139.304 57.4995 139.31C54.1995 139.315 52.9705 139.502 54.7675 139.725ZM0.455511 180C0.455511 202.275 0.587511 211.388 0.748511 200.25C0.909511 189.113 0.909511 170.888 0.748511 159.75C0.587511 148.613 0.455511 157.725 0.455511 180ZM56.2685 143.693C57.2415 143.947 58.5915 143.93 59.2685 143.656C59.9455 143.382 59.1495 143.175 57.4995 143.195C55.8495 143.215 55.2955 143.439 56.2685 143.693ZM408.823 164.5C410.475 167.866 414.548 171.729 418.655 173.824C423.219 176.152 433.723 178.302 435.366 177.245C435.99 176.843 434.003 176.243 430.95 175.911C423.901 175.143 415.453 171.004 411.171 166.219C409.34 164.174 408.284 163.4 408.823 164.5ZM434.5 166C432.572 166.829 432.579 166.862 434.691 166.93C435.896 166.968 437.16 166.55 437.5 166C438.231 164.817 437.252 164.817 434.5 166ZM432 169C428.56 169.724 428.581 169.739 433.191 169.868C435.771 169.941 438.16 169.55 438.5 169C439.185 167.891 437.268 167.891 432 169ZM423.318 171.404C425.664 173.231 436.311 174.485 438.601 173.203C439.884 172.486 438.642 172.216 433.923 172.187C430.39 172.165 426.15 171.661 424.5 171.068C421.829 170.107 421.7 170.144 423.318 171.404ZM28.2315 185C28.2315 186.925 28.4375 187.713 28.6885 186.75C28.9405 185.787 28.9405 184.213 28.6885 183.25C28.4375 182.287 28.2315 183.075 28.2315 185ZM31.7185 192.102C31.3875 195.656 30.1955 200.709 29.0715 203.332C27.9475 205.955 27.4745 207.825 28.0205 207.487C31.0795 205.596 34.6835 192.023 33.1945 187.999C32.4915 186.097 32.2055 186.89 31.7185 192.102ZM35.6455 195.288C34.6215 201.572 32.4485 206.639 28.7995 211.25C27.1665 213.313 26.2645 215 26.7935 215C27.3225 215 29.3645 212.637 31.3305 209.75C35.0615 204.269 37.4365 196.942 36.7985 192.878C36.5445 191.258 36.1765 192.026 35.6455 195.288ZM0.481511 326C0.481511 384.025 0.601511 407.762 0.749511 378.75C0.896511 349.737 0.896511 302.262 0.749511 273.25C0.601511 244.237 0.481511 267.975 0.481511 326ZM165.401 247.067C154.119 249.569 150.432 250.783 142.051 254.76C134.179 258.496 131.343 260.529 125.051 266.944C120.898 271.179 116.15 276.966 114.5 279.802C112.85 282.639 111.275 284.968 111 284.976C110.725 284.985 109.643 282.909 108.596 280.363C106.09 274.271 98.0205 264.666 94.0145 263.006C89.1845 261.006 84.1055 262.633 81.5485 267C78.4405 272.309 78.1335 293.133 80.8835 312.163C82.0225 320.049 83.2225 330.775 83.5505 336C84.9515 358.347 87.2365 363.488 102.61 378.881C108.993 385.271 120.185 397.7 127.481 406.5C142.559 424.685 148.029 429.763 163.715 440.139C206.771 468.619 220.204 477.578 225.268 481.187C233.65 487.161 233.341 485.217 224.806 478.289C215.104 470.412 170.308 441 168.013 441C167.547 441 167.017 440.636 166.833 440.192C166.65 439.747 164.25 437.873 161.5 436.027C152.062 429.692 143.827 421.673 131.28 406.598C124.369 398.294 112.985 385.65 105.983 378.5C98.9815 371.35 92.5645 364.144 91.7225 362.487C88.6035 356.343 86.9535 348.035 86.0575 333.957C85.5505 326.006 84.3905 315.132 83.4775 309.793C81.1785 296.34 81.6665 270.727 84.2965 266.854C87.7545 261.762 92.5985 262.605 98.7495 269.372C100.538 271.338 103.001 275.007 104.225 277.526C106.139 281.465 106.243 282.234 104.975 283.037C103.714 283.834 103.739 283.972 105.143 283.985C106.047 283.993 107.059 284.712 107.393 285.582C108.279 287.89 108.215 287.989 105.75 288.118C103.931 288.214 104.075 288.383 106.5 289L109.5 289.763L106.5 289.981C104.85 290.101 102.375 290.598 101 291.085C99.1655 291.736 99.8975 291.855 103.75 291.533C106.717 291.285 109 291.509 109 292.047C109 292.571 107.763 293.061 106.25 293.136C104.258 293.235 104.058 293.384 105.524 293.676C107.33 294.036 107.492 294.64 107.024 299.29L106.5 304.5L101.5 305C98.3765 305.312 96.9775 305.809 97.7725 306.323C98.4725 306.776 100.498 307.001 102.273 306.823L105.5 306.5L106.094 317.5C106.421 323.55 107.008 329.493 107.398 330.707C108.003 332.588 107.619 333.056 104.804 333.867L101.5 334.82L105.224 334.91C108.238 334.983 109.213 335.525 110.337 337.75C111.101 339.262 111.525 341.063 111.279 341.75C111.034 342.438 111.266 343 111.795 343C112.324 343 113.349 344.429 114.073 346.176C115.934 350.669 123.536 359.827 130 365.362C137.496 371.781 137.13 371.52 142.618 374.351C148.549 377.411 159.485 387.405 158.553 388.914C158.184 389.511 158.528 390 159.319 390C160.109 390 161.283 390.636 161.928 391.413C162.88 392.561 162.292 393.311 158.8 395.404C153.69 398.467 154.445 398.834 160.013 395.994L163.945 393.987L165.327 396.244C170.015 403.902 173 409.109 173 409.629C173 409.958 175.129 413.664 177.731 417.864C182.656 425.811 190.492 435 192.345 435C192.934 435 191.619 433.087 189.421 430.75C184.28 425.28 180.533 419.763 173.971 408C166.311 394.267 163.652 390.671 152.765 379.313C147.394 373.709 143.002 368.534 143.004 367.813C143.013 364.557 148.263 357.945 154.57 353.246C158.051 350.653 156.65 350.247 152.883 352.757C149.748 354.844 145.877 359.381 143.717 363.5L142.143 366.5L140.639 362.945C138.07 356.87 137.786 354.358 138.984 348.332C140.078 342.827 140.642 342.017 149.038 333.904C153.93 329.176 158.386 324.001 158.941 322.404C159.797 319.942 159.764 319.804 158.725 321.496C157.475 323.532 152.693 328.438 145.192 335.379L141 339.259V332.031C141 320.009 145.82 313.633 154.46 314.228C157.735 314.453 158.533 314.933 159.073 317C159.621 319.104 159.84 319.229 160.455 317.788C161.121 316.225 161.39 316.21 163.54 317.618C164.835 318.467 167.187 321.262 168.766 323.831C176.219 335.953 178 339.273 178 341.042C178 342.69 177.624 342.82 175.25 341.993L172.5 341.035L175 342.767C176.375 343.72 179.525 346.745 182 349.49C193.39 362.121 194.89 363.2 211.527 370.715C220.312 374.684 231.517 379.299 236.426 380.971C244.248 383.635 265.626 394.105 267 395.944C267.275 396.312 268.972 397.209 270.771 397.937C272.571 398.665 274.272 399.632 274.553 400.087C274.834 400.542 273.363 402.496 271.282 404.43C269.202 406.364 267.836 407.958 268.247 407.973C268.658 407.988 270.705 406.455 272.795 404.566C275.472 402.148 277.018 401.393 278.022 402.013C279.195 402.738 279.009 403.392 276.974 405.697L274.5 408.5L277.064 406.25C278.475 405.012 280.09 404 280.654 404C283.142 404 305.532 429.425 311.476 439C314.908 444.529 314.859 444.474 315.625 443.708C316.356 442.977 310.488 433.911 304.555 426.606C302.274 423.798 300.092 420.982 299.706 420.349C298.461 418.307 323.785 432.369 328.546 436.363C331.079 438.487 334.487 442.07 336.12 444.325L339.09 448.424L336.795 450.19C334.213 452.177 335.014 452.557 338.316 450.911C339.846 450.148 339.602 450.611 337.5 452.457L334.5 455.092L337.783 453.503L341.066 451.914L342.583 455.545C343.689 458.19 343.806 459.529 343.015 460.482C342.193 461.472 342.329 461.754 343.577 461.645C345.412 461.483 345.7 461.906 349.758 470.725C352.371 476.404 352.485 477.1 351.061 478.67C349.623 480.255 349.639 480.285 351.273 479.053C352.249 478.317 353.183 477.892 353.348 478.107C353.513 478.323 354.629 479.923 355.829 481.662L358.01 484.825L355.256 487.018L352.5 489.211L355.26 487.575C357.897 486.013 358.126 486.042 360.331 488.22C361.601 489.474 363.412 491.746 364.355 493.268C365.872 495.718 365.893 496.104 364.535 496.625C363.691 496.949 363 497.632 363 498.142C363 498.663 363.888 498.595 365.021 497.989C367.098 496.877 369 497.391 369 499.064C369 500.511 350.05 514.291 341.285 519.217C329.173 526.024 312.45 532.624 298.398 536.142C291.341 537.91 286.096 539.532 286.742 539.747C289.727 540.742 313.619 533.72 326.566 528.043C339.856 522.215 362.846 508.183 367.405 503.117C368.453 501.953 369.684 501 370.141 501C371.047 501 376.542 508.896 375.896 509.27C375.678 509.397 373.353 510.58 370.73 511.899C365.074 514.744 356.031 523.45 351.434 530.473C349.624 533.238 347.101 538.538 345.825 542.25L343.507 549L338.503 549.001C333.16 549.002 324.421 552.57 318.181 557.3C316.355 558.683 311.954 560.602 308.4 561.564L301.939 563.313L297.72 560.092C295.399 558.321 291.397 555.925 288.827 554.77C284.728 552.926 284.022 552.142 283.077 548.391C281.601 542.531 281.716 541.221 283.75 540.689C284.827 540.408 284.442 540.187 282.75 540.116C281.228 540.052 280 539.423 280 538.707C280 535.784 267.891 513.147 263.911 508.631C259.89 504.068 236.726 486 234.897 486C232.573 486 236.055 489.572 243.353 494.673C252.828 501.297 262.048 509.787 266.026 515.551C269.27 520.25 277.655 539.31 279.535 546.257L280.823 551.014L275.661 550.613C263.085 549.635 250.212 553.984 242.709 561.746L238.918 565.668L228.209 565.192C220.716 564.86 216.763 564.234 215.047 563.11C213.278 561.952 210.209 561.503 204.047 561.502C193.975 561.5 188.121 563.827 181.474 570.474C174.663 577.285 172.51 582.889 172.439 594C172.388 601.885 171.986 604.253 170.078 607.928C168.766 610.453 167.553 614.964 167.254 618.428C166.637 625.565 167.501 625.719 168.345 618.621C169.147 611.87 173.176 604.541 179.815 597.75C186.091 591.332 186.19 590.026 179.976 595.64C177.76 597.642 175.659 598.992 175.307 598.64C173.625 596.958 174.765 586.193 177.184 580.908C182.712 568.835 191.329 563 203.631 563C214.513 563 219.532 565.573 213.055 567.831C208.727 569.34 201.762 576.183 198.552 582.081C196.093 586.599 195.807 588.004 196.241 593.414C196.514 596.811 197.504 601.074 198.442 602.888C200.676 607.207 201.455 606.333 199.513 601.686C197.598 597.101 197.564 587.979 199.447 583.474C200.242 581.57 203.11 577.795 205.819 575.085C209.661 571.244 212.151 569.732 217.123 568.222C224.136 566.093 233.132 566.207 238.63 568.495C241.465 569.675 241.717 569.634 241.305 568.059C240.621 565.442 250.007 557.515 256.797 554.975C272.929 548.939 288.341 552.541 301.685 565.465L307.042 570.654L305.618 574.077C303.07 580.202 302.562 588.564 304.437 593.473C306.837 599.758 318.149 610.225 325.002 612.501C333.734 615.401 343.648 613.119 349.721 606.81C354.136 602.224 355.552 597.923 353.829 594.34C352.234 591.024 346.527 586.97 343.602 587.076C342.064 587.132 342.396 587.477 344.84 588.361C353.453 591.48 355.56 597.885 350.269 604.869C344.968 611.867 330.77 614.64 322.5 610.292C317.779 607.81 307.141 597.501 305.881 594.187C305.396 592.913 305 588.795 305 585.036C305 579.354 305.516 577.218 308.062 572.352C315.864 557.441 331.633 548.36 345.556 550.758C350.535 551.616 351.127 551.566 349.558 550.419C348.545 549.678 347.218 548.904 346.608 548.699C344.94 548.136 348.801 537.608 353.082 531.047C357.693 523.981 365.353 516.492 370.535 513.983C383.046 507.926 398.897 509.776 410.958 518.701L414.5 521.322L411.194 517.806C408.276 514.702 402.628 511.51 396.5 509.501C394.631 508.889 394.697 508.686 397.5 506.41C403.412 501.611 408.721 499.691 414.449 500.283C425.275 501.4 434.33 508.455 437.609 518.328C439.08 522.758 439.103 530.23 437.65 531.684C437.365 531.969 435.639 531.078 433.816 529.704C426.952 524.532 417.102 522.786 410 525.48C406.69 526.736 406.885 526.779 413.595 526.272C423.428 525.529 428.945 527.51 436.14 534.369C441.092 539.089 441.86 540.35 442.464 544.737C443.336 551.08 441.79 559.507 438.599 565.804C432.726 577.394 425.463 581.938 412.553 582.102C405.798 582.188 405.065 582.347 408 583.087C409.925 583.572 412.502 583.745 413.728 583.471C415.486 583.078 416.092 583.518 416.604 585.557C418.508 593.146 413.692 605.245 405.823 612.64C398.736 619.299 393.036 622.163 385 623.103L378.5 623.863L386.372 623.574L394.245 623.285L393.779 630.392C393.257 638.343 390.456 644.88 383.9 653.448C378.856 660.04 373.833 664.094 364.415 669.174C354.398 674.577 344.896 676.741 335 675.873C330.875 675.511 326.193 674.701 324.595 674.073L321.691 672.932L324.216 670.216C327.544 666.636 330.453 661.998 329.365 662.007C328.889 662.011 326.267 664.723 323.54 668.034C317.016 675.952 310.171 679.417 301 679.442C293.593 679.462 285.453 676.275 280.75 671.512C279.238 669.981 278 669.186 278 669.747C278 671.98 285.835 677.674 291.253 679.378L296.961 681.174L295.553 683.897C293.747 687.391 285.029 693.173 278.112 695.466C267.661 698.931 256.415 695.793 248.993 687.34C246.846 684.894 246.203 683.46 246.886 682.638C247.629 681.742 245.637 681.444 238.684 681.412C227.18 681.36 221.118 678.971 214.481 671.877C209.986 667.07 206.715 661.27 207.648 659.76C207.907 659.342 209.329 658.932 210.809 658.849C212.289 658.766 209.384 658.393 204.352 658.02C194.403 657.283 187.68 654.658 180.429 648.681C175.25 644.412 169.235 634.753 168.436 629.422C168.071 626.99 167.441 625 167.036 625C165.277 625 168.168 635.513 171.374 640.777C177.789 651.309 187.437 658.006 199.087 660.013C205.508 661.12 205.727 661.259 207.806 665.537C213.35 676.949 223.054 683.099 236.642 683.812C242.545 684.122 245 684.627 245 685.533C245 687.793 254.854 695.762 259.684 697.408C271.662 701.489 284.981 697.425 295.5 686.477C298.815 683.027 300.323 682.221 304.306 681.773C306.95 681.476 311.828 679.887 315.147 678.242C320.84 675.42 321.425 675.324 325.452 676.536C346.001 682.72 371.462 673.326 385.611 654.341C393.528 643.718 396.107 637.901 396.539 629.699L396.91 622.665L401.678 619.06C412.213 611.098 418.998 599.535 419.022 589.5L419.034 584.5L424.493 582.136C431.34 579.173 437.184 572.943 441.335 564.18C444.174 558.189 444.5 556.553 444.5 548.316C444.5 539.853 444.298 538.91 441.933 536.316C439.671 533.834 439.45 532.966 440.071 529C442.013 516.609 436.13 506.204 424 500.573C416.107 496.909 408.995 497.057 401.414 501.045C398.23 502.72 395.009 504.97 394.256 506.045C393.111 507.68 391.697 508 385.627 508H378.367L373.273 500.75C370.472 496.762 365.652 490.35 362.56 486.5C359.468 482.65 354.649 474.775 351.851 469C349.054 463.225 345.355 455.583 343.632 452.018C339.458 443.382 329.811 433.229 321.771 429.012C303.037 419.186 294.952 414.217 290 409.487C283.492 403.27 277.621 399.142 265.757 392.439L257.013 387.5L257.007 381.224L257 374.949L259.95 376.474C264.038 378.588 268.549 378.381 273.01 375.874C277.087 373.582 279 370.494 278.999 366.203C278.998 363.296 274.289 352.618 270.922 347.89L268.859 344.994L270.93 342.362C273.46 339.146 273.603 334.845 271.25 332.756C267.967 329.842 249.587 320 247.427 320C246.353 320 246 318.55 246 314.14C246 310.916 245.72 306.234 245.377 303.735C244.766 299.273 244.829 299.142 248.878 296.462C257.196 290.957 259.459 282.369 254.238 276.116C251.015 272.255 245.77 271.209 237.35 272.749L232.2 273.691L224.991 266.789C216.603 258.759 212.95 256.302 203.281 252.187C193.659 248.093 173.229 245.332 165.401 247.067ZM161 250.88C148.556 253.592 136.615 259.748 129.118 267.314C113.053 283.528 106.851 298.975 108.345 319.051C109.006 327.936 112.761 340.386 116.989 347.712C122.097 356.563 138.081 372 142.138 372C144.004 372 137.94 363.899 130.455 356.393C113.486 339.374 108.155 320.708 114.031 298.886C117.701 285.256 131.934 268.091 145 261.536C155.446 256.295 162.921 254.505 174 254.592C203.313 254.822 226.983 270.58 235.779 295.722C238.157 302.52 238.5 305.012 238.5 315.5C238.5 325.443 238.104 328.647 236.188 334.19C232.049 346.171 221.328 360.39 212.791 365.223C208.9 367.425 208.664 369 212.226 369C213.385 369 214.055 368.721 213.714 368.381C212.83 367.497 214.973 365.609 218.75 363.944C220.537 363.156 222 361.947 222 361.256C222 360.565 222.886 360 223.969 360C225.308 360 225.753 359.52 225.362 358.5C225.04 357.663 225.335 357 226.028 357C229.891 357 238.397 341.191 241.475 328.29C243.067 321.621 243.083 317.89 241.551 310.75C241.218 309.198 241.394 308 241.956 308C242.567 308 242.63 307.133 242.119 305.75C241.661 304.512 241.485 302.938 241.727 302.25C241.969 301.563 241.552 301 240.801 301C240.047 301 239.338 299.816 239.217 298.351C239.096 296.894 238.605 295.207 238.125 294.601C237.645 293.996 236.954 291.438 236.59 288.918C236.112 285.61 234.562 282.522 231.016 277.812C225.099 269.953 215.033 261 212.114 261C210.951 261 210 260.527 210 259.949C210 258.536 204.851 256.473 196.481 254.532C192.687 253.652 188.763 252.191 187.763 251.285C185.006 248.79 171.522 248.586 161 250.88ZM156.147 259.985C145.921 263.591 139.996 266.988 133.765 272.817C128.473 277.766 127.81 279.337 131.391 278.438C132.706 278.108 134.063 278.294 134.408 278.851C135.324 280.334 131.032 282.984 127.527 283.1C124.569 283.197 124.557 283.218 127 284C128.723 284.552 128.946 284.832 127.719 284.9C126.739 284.955 125.678 285.675 125.362 286.5C125.045 287.325 124.133 288 123.334 288C122.535 288 122.131 288.403 122.435 288.895C122.74 289.388 122.316 290.048 121.494 290.364C119.526 291.119 119.572 293 121.559 293C122.416 293 122.821 293.481 122.458 294.068C122.095 294.656 121.21 294.911 120.492 294.635C119.729 294.343 118.763 295.249 118.167 296.817C115.167 304.708 113.572 314 115.217 314C115.765 314 115.964 314.652 115.658 315.449C115.286 316.418 115.582 316.714 116.551 316.342C117.348 316.036 118 316.284 118 316.893C118 317.502 118.702 318 119.559 318C120.433 318 120.821 318.481 120.442 319.094C120.07 319.696 118.693 319.983 117.383 319.733C116.072 319.482 115 319.587 115 319.965C115 320.343 117.813 321.339 121.25 322.178C127.082 323.601 127.333 323.776 125 324.788C122.662 325.803 122.64 325.877 124.656 325.937C127.792 326.029 126.613 330 123.45 330C121.543 330 121.21 330.429 121.572 332.426C121.883 334.137 121.495 334.986 120.256 335.31C118.994 335.639 119.168 335.801 120.872 335.884C122.864 335.981 123.045 336.241 122 337.5C120.977 338.732 121.349 339.978 124.083 344.489C125.912 347.508 129.467 352.005 131.981 354.481L136.552 358.984L136.67 354.742C136.734 352.409 137.43 343.873 138.217 335.774C139.333 324.278 140.05 320.602 141.484 319.018C142.494 317.901 143.136 316.878 142.911 316.744C142.685 316.61 140.025 315.185 137 313.577C127.803 308.69 124 306.045 124 304.534C124 302.206 130.631 301.012 143.582 301.006L155.664 301L159.443 290.75C161.521 285.113 164.345 277.44 165.717 273.7C168.27 266.746 172.204 261 174.415 261C175.095 261 176.592 262.012 177.741 263.25C179.813 265.48 187.527 280.954 192.324 292.5L194.816 298.5L210.862 299C226.883 299.499 229.901 300.209 228.751 303.206C228.201 304.64 212.848 314.347 208.539 315.985C207.114 316.527 205.699 317.62 205.395 318.413C204.847 319.841 208.312 327.505 216.026 341.931C220.282 349.89 220.883 352.724 218.505 353.636C216.846 354.273 201.103 346.745 188 339.05C179.612 334.124 175.722 332.683 177.736 335.25C178.275 335.938 179.436 338.661 180.316 341.303C182.484 347.817 193.1 359.575 200.325 363.464C205.176 366.076 206.114 366.277 208.22 365.15C215.626 361.186 230.471 344.527 227.973 342.983C227.097 342.442 227.279 341.932 228.63 341.147C230.336 340.156 230.346 340.058 228.75 340.03C227.787 340.014 226.944 339.55 226.875 339C226.806 338.45 226.679 337.438 226.592 336.75C226.504 336.063 226.898 335.169 227.467 334.765C228.068 334.338 227.769 334.024 226.75 334.015C224.215 333.993 224.6 332.216 227.25 331.706C229.069 331.355 228.942 331.246 226.583 331.136C222.528 330.947 224.167 329.718 230.319 328.336L235.5 327.172L228.5 327.565L221.5 327.958L225.5 326.556C227.7 325.785 230.711 325.119 232.191 325.077C233.671 325.035 235.156 324.557 235.491 324.015C235.863 323.413 235.012 323.247 233.3 323.587C228.467 324.549 227.125 324.531 226.865 323.5C226.727 322.95 227.938 322.216 229.557 321.868L232.5 321.237L229 321.055C225.795 320.889 225.695 320.795 227.812 319.946C230.546 318.849 232.382 317.021 232.805 314.976C232.973 314.164 233.815 312.961 234.676 312.301C235.853 311.4 236.075 310.159 235.571 307.301C234.297 300.087 232.93 297.503 228.918 294.727C226.713 293.203 225.162 291.547 225.469 291.049C225.777 290.551 225.123 289.856 224.015 289.505C221.102 288.58 221.533 287.44 225.25 286.24C228.251 285.271 228.116 285.223 223.5 285.619C218.633 286.036 218.96 285.306 224.428 283.547C226.145 282.994 226.191 282.762 224.848 281.42C223.626 280.197 222.508 280.105 218.921 280.932C212.545 282.402 209.698 282.252 213.466 280.645C215.912 279.602 216.129 279.264 214.705 278.717C213.755 278.353 211.633 278.323 209.989 278.652C206.479 279.354 206.013 278.332 209.25 277.031C211.336 276.193 211.354 276.117 209.5 275.986C208.314 275.902 209.534 275.059 212.5 273.912C217.239 272.08 217.309 272.001 213.839 272.412C209.66 272.907 208.527 272.274 210.131 270.342C210.956 269.348 210.938 269 210.063 269C209.414 269 209.146 268.573 209.469 268.051C210.246 266.793 197.065 260.51 189.54 258.552C186.129 257.664 179.499 257.008 174.04 257.02C166.069 257.036 163.127 257.524 156.147 259.985ZM172.075 267.117C170.999 268.886 169.153 273.07 167.972 276.416C166.79 279.762 164.756 285.2 163.452 288.5C162.147 291.8 160.788 295.738 160.432 297.25L159.783 300L166.142 299.995C169.639 299.992 176.84 299.702 182.144 299.351L191.787 298.712L188.921 292.325C184.034 281.431 175.732 264.953 174.861 264.414C174.404 264.132 173.151 265.348 172.075 267.117ZM236.25 275.119C232.946 276.073 232.136 277.348 234.073 278.545C235.379 279.352 249 275.941 249 274.807C249 273.729 240.329 273.941 236.25 275.119ZM219 276.393C219 276.609 219.698 277.054 220.552 277.382C221.442 277.723 221.843 277.555 221.493 276.989C220.906 276.038 219 275.583 219 276.393ZM244.25 278.264C240.262 279.384 237.006 280.796 237.013 281.4C237.02 282.005 238.37 285.151 240.013 288.391C241.656 291.631 243 294.893 243 295.641C243 296.388 243.45 297 244 297C244.55 297 245.003 296.663 245.006 296.25C245.01 295.837 246.35 294.739 247.985 293.808C254.041 290.363 256.781 282.254 253.25 278.224C251.501 276.228 251.495 276.228 244.25 278.264ZM217.5 282.556L213.5 283.958L217.871 283.558C220.275 283.338 222.728 282.672 223.321 282.079C224.802 280.598 222.562 280.782 217.5 282.556ZM179 301.639C176.525 301.823 170.817 302.242 166.315 302.571L158.131 303.169L156.658 307.49L155.185 311.812L158.396 312.415C162.205 313.129 168.714 319.009 171.459 324.215C174.999 330.931 176.992 330.905 189.715 323.978L200.88 317.9L196.92 309.7L192.96 301.5L188.23 301.403C185.628 301.35 181.475 301.456 179 301.639ZM196 301.253C196 301.393 197.601 304.806 199.557 308.839C202.376 314.65 203.465 316.036 204.807 315.523C205.738 315.167 210.896 312.091 216.27 308.688C225.435 302.883 225.868 302.461 223.27 301.868C220.649 301.271 196 300.715 196 301.253ZM133.25 303.802C130.363 303.969 128 304.495 128 304.971C128 305.448 131.777 307.897 136.393 310.413C144.617 314.896 144.856 314.958 148.288 313.524C151.077 312.359 152.111 311.123 153.358 307.463L154.924 302.866L146.712 303.183C142.195 303.357 136.137 303.636 133.25 303.802ZM191.193 325.891L180.944 331.685L193.722 339.249C206.857 347.023 216.628 351.706 217.629 350.705C217.941 350.393 216.062 346.394 213.453 341.819C210.844 337.243 207.447 331.025 205.905 328C204.363 324.975 202.728 321.959 202.272 321.298C201.672 320.429 198.605 321.701 191.193 325.891ZM245.667 322.667C245.3 323.033 245 324.374 245 325.646C245 328.329 248.676 330.467 259.286 333.956C265.731 336.075 269.814 336.126 268.544 334.072C267.781 332.837 248.385 322.015 246.917 322.004C246.596 322.002 246.033 322.3 245.667 322.667ZM118.813 326.683C119.534 326.972 120.397 326.936 120.729 326.604C121.061 326.272 120.471 326.036 119.417 326.079C118.252 326.127 118.015 326.364 118.813 326.683ZM243.974 329.227C243.96 329.377 242.818 332.65 241.437 336.5C240.056 340.35 238.675 344.249 238.369 345.164C237.562 347.575 241.051 349.074 247.771 349.202C255.468 349.349 259.753 348.318 264.32 345.222C268.034 342.703 271.489 337.823 270.359 336.694C270.051 336.386 268.767 336.605 267.505 337.18C265.662 338.019 263.559 337.595 256.854 335.031C252.259 333.274 247.488 331.187 246.25 330.395C245.012 329.602 243.988 329.077 243.974 329.227ZM261.5 348.356C256.658 350.874 245.751 351.733 240.524 350.008C236.326 348.622 236.082 348.738 235.791 352.258C235.672 353.687 235.217 354.634 234.778 354.363C234.339 354.092 232.909 355.137 231.6 356.685C230.29 358.233 228.023 360.784 226.561 362.354C224.28 364.803 223.945 365.939 224.201 370.354L224.5 375.5L231.5 377.841C235.35 379.129 241.913 381.492 246.085 383.091C250.257 384.691 253.969 386 254.335 386C255.157 386 255.18 380.722 254.379 375.879C253.793 372.334 253.666 372.245 248.439 371.706C245.502 371.403 242.291 370.703 241.303 370.15C240.024 369.434 241.377 369.306 246.004 369.703L252.5 370.261L249.75 367.326C244.769 362.009 246.884 362.677 253.02 368.358C261.838 376.522 268.46 377.947 273.924 372.856C276.147 370.785 276.183 370.591 274.458 369.985C272.768 369.392 272.797 369.286 274.803 368.762C277.855 367.963 277.594 365.323 273.719 357.837C270.526 351.67 270.332 351.5 266.469 351.5C262.706 351.5 262.483 351.672 262.182 354.813C261.993 356.781 262.713 359.755 263.954 362.136C265.103 364.341 265.577 365.857 265.007 365.505C263.156 364.36 260 357.157 260 354.075C260 350.858 262.203 349 266.018 349C267.232 349 267.995 348.484 267.771 347.813C267.161 345.983 265.844 346.097 261.5 348.356ZM218.195 369.35L215.89 370.629L218.492 371.815C219.923 372.467 221.185 373 221.297 372.999C221.409 372.999 221.565 371.874 221.644 370.499C221.807 367.674 221.438 367.55 218.195 369.35ZM159 399.05L156.5 401.055L159.25 399.867C160.762 399.214 162 398.301 162 397.839C162 396.699 161.861 396.755 159 399.05ZM267.932 402.681L264.5 406.331L267.72 404.119C271.062 401.823 272.501 400.168 271.782 399.448C271.552 399.218 269.819 400.673 267.932 402.681ZM164.507 403.989C164.157 404.555 164.558 404.723 165.448 404.382C167.18 403.717 167.497 403 166.059 403C165.541 403 164.843 403.445 164.507 403.989ZM0.299511 438C0.299511 441.025 0.486511 442.262 0.715511 440.75C0.944511 439.238 0.944511 436.762 0.715511 435.25C0.486511 433.738 0.299511 434.975 0.299511 438ZM0.488511 616.5C0.488511 711.65 0.605511 750.427 0.749511 702.671C0.893511 654.915 0.893511 577.065 0.749511 529.671C0.605511 482.277 0.488511 521.35 0.488511 616.5ZM336.441 456.555C334.577 458.049 334.589 458.067 336.75 457.02C337.988 456.42 339 455.72 339 455.465C339 454.7 338.481 454.921 336.441 456.555ZM340.441 459.555C338.577 461.049 338.589 461.067 340.75 460.02C341.988 459.42 343 458.72 343 458.465C343 457.7 342.481 457.921 340.441 459.555ZM348 487C347.099 487.582 346.975 487.975 347.691 487.985C348.346 487.993 349.16 487.55 349.5 487C350.267 485.758 349.921 485.758 348 487ZM354.75 489.572C351.012 491.6 351.239 492.445 355 490.5C356.65 489.647 358 488.735 358 488.474C358 487.831 357.893 487.867 354.75 489.572ZM353.737 494.18C350.567 495.9 348.142 497.476 348.348 497.682C348.878 498.211 358.797 493.137 359.521 491.967C360.356 490.615 360.192 490.678 353.737 494.18ZM420.441 505.532C421.509 506.34 422.794 507 423.297 507C423.8 507 425.963 508.388 428.105 510.084C430.247 511.78 432 512.703 432 512.135C432 510.537 425.591 506.026 421.853 504.992C418.78 504.142 418.662 504.187 420.441 505.532ZM418 508.187C419.375 508.81 421.807 509.923 423.404 510.66C427.509 512.554 428.027 512.293 424.5 510.106C422.85 509.083 420.15 507.978 418.5 507.65C415.586 507.07 415.572 507.086 418 508.187ZM387.264 513.718C388.784 513.947 391.034 513.941 392.264 513.704C393.494 513.467 392.25 513.279 389.5 513.286C386.75 513.294 385.744 513.488 387.264 513.718ZM378 514.723C377.175 515.033 375.425 515.685 374.111 516.172C369.29 517.957 372.709 517.811 378.018 516.005C381.033 514.979 382.6 514.144 381.5 514.149C380.4 514.154 378.825 514.412 378 514.723ZM366.689 521.25C363.575 524.334 363.563 524.373 366.454 522.008C368.129 520.637 369.928 519.175 370.45 518.758C370.972 518.341 371.078 518 370.685 518C370.292 518 368.494 519.462 366.689 521.25ZM370.25 523.542C367.363 525.434 365 527.238 365 527.55C365 527.862 365.563 527.768 366.25 527.34C366.938 526.913 369.949 525.086 372.941 523.281C375.934 521.477 377.734 520.023 376.941 520.051C376.149 520.078 373.137 521.649 370.25 523.542ZM260.812 555.683C261.534 555.972 262.397 555.936 262.729 555.604C263.061 555.272 262.471 555.036 261.417 555.079C260.252 555.127 260.015 555.364 260.812 555.683ZM256.507 556.989C256.157 557.555 256.558 557.723 257.448 557.382C259.18 556.717 259.497 556 258.059 556C257.541 556 256.843 556.445 256.507 556.989ZM257.372 559.918C255.103 560.948 252.917 562.326 252.513 562.978C252.11 563.631 253.292 563.377 255.14 562.415C256.988 561.452 260.3 560.095 262.5 559.399C265.591 558.421 265.932 558.124 264 558.089C262.625 558.064 259.642 558.887 257.372 559.918ZM305.75 563.689C304.788 563.941 304 564.789 304 565.573C304 567.705 308.404 567.316 310.5 565C312.263 563.052 312.248 563.003 309.905 563.116C308.582 563.18 306.712 563.438 305.75 563.689ZM252.235 567.595L248.5 571.189L252.75 567.927C255.088 566.133 257 564.516 257 564.333C257 563.394 255.615 564.343 252.235 567.595ZM250.18 580.283C248.409 582.417 246.939 587 248.025 587C248.561 587 249 586.83 249 586.622C249 586.414 249.681 584.614 250.513 582.622C252.092 578.845 251.986 578.106 250.18 580.283ZM393.75 580.662C394.438 580.94 395.563 580.94 396.25 580.662C396.938 580.385 396.375 580.158 395 580.158C393.625 580.158 393.063 580.385 393.75 580.662ZM395.5 584.528C397.7 585.253 401.075 585.835 403 585.821C405.816 585.8 405.328 585.531 400.5 584.441C392.967 582.741 390.223 582.789 395.5 584.528ZM403.776 590.125C405.898 590.738 407.659 590.717 408.776 590.066C410.089 589.3 409.308 589.075 405.5 589.121C400.682 589.178 400.619 589.215 403.776 590.125ZM408.5 593L405.5 593.763L408.75 593.882C410.538 593.947 412 593.55 412 593C412 592.45 411.887 592.053 411.75 592.118C411.613 592.183 410.15 592.58 408.5 593ZM357.548 599.75C356.504 604.038 352.185 609.979 349.32 611.068C347.892 611.611 346.979 612.312 347.292 612.625C348.309 613.642 353.476 609.93 355.641 606.626C356.802 604.856 358.067 601.965 358.454 600.203C359.311 596.301 358.487 595.889 357.548 599.75ZM302.564 601.293C302.94 602.279 303.499 602.834 303.807 602.526C304.115 602.219 303.808 601.412 303.124 600.733C302.136 599.753 302.022 599.868 302.564 601.293ZM305.786 601.576C306.981 603.782 312.848 609.569 313.24 608.927C313.383 608.692 311.53 606.509 309.122 604.076C306.714 601.643 305.212 600.518 305.786 601.576ZM358.459 613.067C358.096 613.653 358.014 614.348 358.276 614.61C358.538 614.872 359.019 614.392 359.345 613.543C360.021 611.781 359.445 611.471 358.459 613.067ZM170.776 618.603C170.11 621.699 172.164 632.749 173.985 635.867C175.271 638.067 175.243 636.769 173.931 633.318C173.343 631.771 172.543 627.13 172.153 623.003C171.586 617.008 171.309 616.124 170.776 618.603ZM378.345 628.543C378.019 629.392 377.976 630.31 378.249 630.583C378.523 630.856 378.986 630.161 379.279 629.04C379.903 626.657 379.21 626.289 378.345 628.543ZM258 635.5C261.548 639.16 262.603 639.857 261.41 637.75C260.087 635.414 256.655 632 255.63 632C255.068 632 256.134 633.575 258 635.5ZM268 633.878C268 634.36 268.749 635.373 269.664 636.128C271.172 637.372 271.216 637.29 270.129 635.25C268.889 632.923 268 632.35 268 633.878ZM268.158 646C268.158 647.375 268.384 647.938 268.661 647.25C268.939 646.563 268.939 645.438 268.661 644.75C268.384 644.063 268.158 644.625 268.158 646ZM272.079 652.583C272.127 653.748 272.364 653.985 272.683 653.188C272.972 652.466 272.936 651.603 272.604 651.271C272.272 650.939 272.036 651.529 272.079 652.583ZM370.507 656.989C370.157 657.555 370.558 657.723 371.448 657.382C373.18 656.717 373.497 656 372.059 656C371.541 656 370.843 656.445 370.507 656.989ZM273.6 659.6C273.244 660.527 273.178 661.511 273.453 661.786C273.728 662.061 274.244 661.527 274.6 660.6C274.956 659.673 275.022 658.689 274.747 658.414C274.472 658.139 273.956 658.673 273.6 659.6ZM265.716 667.085C263.635 668.184 262.157 669.445 262.431 669.888C263.109 670.985 258.465 675.151 253 678.348C250.525 679.796 249.175 680.984 250 680.987C252.606 680.997 258.301 676.958 264.255 670.878C267.421 667.645 269.896 665.02 269.755 665.044C269.615 665.069 267.797 665.987 265.716 667.085ZM281.98 683.523C280.923 684.796 280.986 684.943 282.359 684.416C283.261 684.069 284 683.384 284 682.893C284 681.607 283.42 681.788 281.98 683.523ZM274 690C271.99 690.644 271.892 690.806 273.5 690.83C274.6 690.846 276.4 690.473 277.5 690C280.048 688.905 277.419 688.905 274 690ZM275.5 692.09C272.75 693.092 271.175 693.93 272 693.951C274.462 694.013 280.883 691.999 281.523 690.963C282.28 689.738 281.609 689.863 275.5 692.09ZM103.947 763.75C100.56 773.034 98.4775 777.309 96.8485 778.326C95.8315 778.961 94.9995 779.78 94.9995 780.145C94.9995 780.51 99.4735 780.727 104.943 780.628C114.654 780.452 118.59 779.49 114.246 778.354C112.662 777.94 111.667 776.366 110.54 772.49C109.693 769.576 108.986 766.586 108.968 765.846C108.932 764.328 106.63 761 105.615 761C105.25 761 104.499 762.237 103.947 763.75ZM119.077 763.589C116.513 765.747 116 766.9 116 770.512C116 777.833 122.148 783.136 127 780C128.184 779.235 127.964 779.027 125.95 779.015C122.091 778.992 121 777.171 121 770.752C121 765.157 121.135 764.847 124.104 763.598C126.584 762.555 126.869 762.164 125.522 761.647C122.921 760.649 122.375 760.813 119.077 763.589ZM133.555 761.911C133.256 762.395 133.684 763.048 134.506 763.364C135.634 763.797 136 765.646 136 770.91C136 774.744 135.55 778.16 135 778.5C132.63 779.965 134.497 780.5 141.975 780.5C149.911 780.5 149.953 780.486 150.57 777.678C151.455 773.653 150.272 773.126 147.672 776.387C144.454 780.423 140.622 779.777 140.177 775.123C139.877 771.98 140.025 771.789 142.315 772.364C144.463 772.903 144.832 772.601 145.215 769.985C145.775 766.175 145.066 765.46 143.271 768.023C141.554 770.475 140 769.733 140 766.46C140 764.669 140.696 763.863 142.673 763.367C144.85 762.821 145.786 763.235 147.719 765.598L150.092 768.5L149.796 765L149.5 761.5L141.799 761.266C137.564 761.137 133.854 761.428 133.555 761.911ZM166.437 764.066C164.096 766.509 163.5 768.025 163.5 771.538C163.5 776.905 165.982 779.798 171.332 780.667C175.769 781.386 178.345 779.515 180.057 774.326C181.509 769.928 180.67 766.702 177.249 763.53C173.567 760.116 170.054 760.29 166.437 764.066ZM181.594 761.847C181.28 762.356 181.917 763.007 183.011 763.293C184.741 763.745 185 764.666 185 770.371C185 775.936 184.693 777.094 182.972 778.015C179.735 779.747 181.568 780.822 187.114 780.445C193.133 780.036 193.918 779.562 191.086 778.046C189.691 777.3 189 775.947 189 773.965C189 770.428 190.18 770.174 192.326 773.25C193.874 775.469 193.896 775.448 193.948 771.731C193.997 768.201 193.841 768.002 191.5 768.589C189.335 769.133 189 768.883 189 766.731C189 762.869 191.431 761.397 194.495 763.405C195.873 764.308 197 765.486 197 766.023C197 766.56 197.48 767 198.066 767C198.653 767 198.99 765.763 198.816 764.25C198.503 761.528 198.418 761.497 190.333 761.211C185.841 761.052 181.909 761.338 181.594 761.847ZM210 761.965C210 762.495 210.9 763.411 212 764C213.612 764.863 214 766.094 214 770.344C214 773.433 213.392 776.422 212.532 777.559C210.267 780.553 210.653 781 215.5 781C217.975 781 220 780.826 220 780.614C220 780.402 219.328 778.94 218.506 777.364C216.459 773.44 216.618 772.089 219.25 771.031C220.974 770.338 221.091 770.112 219.75 770.063C218.44 770.016 218 769.148 218 766.607C218 762.575 220.704 760.875 222.724 763.637C224.318 765.817 224.339 767.261 222.8 768.8C221.867 769.733 222.044 770 223.6 770C228.074 770 229.491 765.157 225.777 762.557C223.29 760.815 210 760.316 210 761.965ZM229.555 761.911C229.256 762.395 229.684 763.048 230.506 763.364C232.84 764.259 232.621 777.539 230.25 778.92C228.161 780.137 228.356 780.172 238.225 780.356C245.932 780.5 245.952 780.493 246.571 777.678C247.449 773.68 246.419 773.256 243.495 776.411C239.95 780.236 236.61 779.649 236.177 775.123C235.877 771.98 236.025 771.789 238.315 772.364C240.463 772.903 240.832 772.601 241.215 769.985C241.791 766.061 241.158 765.587 238.95 768.293C237.342 770.263 237.078 770.318 236.49 768.808C234.372 763.372 239.379 761.148 243.566 765.666L246.161 768.466L245.831 764.983L245.5 761.5L237.799 761.266C233.564 761.137 229.854 761.428 229.555 761.911ZM249 762.5C249 763.325 249.627 764 250.393 764C252.278 764 253 766.229 253 772.047C253 775.929 252.584 777.152 250.972 778.015C248.364 779.411 249.35 781.004 252.809 780.985C256.817 780.962 258.485 779.648 256.547 778.039C255.55 777.211 255.01 775.111 255.027 772.128L255.054 767.5L257.987 771C259.6 772.925 261.443 775.737 262.081 777.25C262.72 778.763 263.882 780 264.665 780C265.79 780 266.039 778.431 265.849 772.495C265.696 767.708 266.042 764.558 266.805 763.795C268.812 761.788 268.162 761 264.5 761C260.925 761 259.802 762.326 262.5 763.362C263.495 763.743 264 765.314 264 768.028C264 772.918 263.17 772.585 258.887 765.975C256.084 761.649 255.229 761 252.332 761C250.037 761 249 761.467 249 762.5ZM271.022 764.75L271.044 768.5L272.885 766.106C275.658 762.499 277 764.287 277 771.59C277 776.421 276.62 778.209 275.5 778.638C272.504 779.788 274.111 780.809 278.976 780.847C284.118 780.886 286.488 779.622 282.989 778.707C281.24 778.25 281 777.333 281 771.094C281 765.697 281.333 764 282.393 764C283.159 764 284.045 764.675 284.362 765.5C285.351 768.078 287 767.14 287 764V761H279H271L271.022 764.75ZM295.932 763.75C291.699 775.185 290.292 778.09 288.751 778.579C284.473 779.937 287.799 780.726 297.5 780.655C304.821 780.602 308 780.224 308 779.406C308 778.761 307.14 778.008 306.088 777.733C304.766 777.387 303.65 775.423 302.473 771.367C299.184 760.033 297.874 758.507 295.932 763.75ZM311.031 763.815C308.667 766.18 308 767.726 308 770.846C308 777.833 314.274 783.054 319 780C320.171 779.243 319.905 779.027 317.785 779.015C314.392 778.996 313 776.559 313 770.637C313 763.296 317.14 760.73 320.885 765.75L322.937 768.5L322.967 765.356C322.994 762.75 322.614 762.213 320.75 762.219C319.512 762.223 317.502 761.901 316.281 761.505C314.578 760.951 313.359 761.487 311.031 763.815ZM325.458 762.067C325.095 762.655 325.742 763.381 326.898 763.684C328.777 764.175 329 764.964 329 771.148C329 776.36 328.632 778.204 327.506 778.636C324.232 779.892 327.506 781 334.492 781C340.987 781 341.941 780.762 342.5 779C342.849 777.9 342.834 776.055 342.467 774.899C341.842 772.93 341.68 772.997 339.875 775.965C338.481 778.257 337.334 779.045 335.724 778.816C333.696 778.528 333.474 777.873 333.209 771.377C332.94 764.817 333.086 764.211 335.059 763.695C338.733 762.734 336.121 761 331 761C328.315 761 325.821 761.48 325.458 762.067ZM345 761.418C345 761.612 345.671 763.06 346.493 764.636C348.449 768.386 348.454 776.404 346.5 778.357C345.675 779.182 345 780.008 345 780.193C345 781.047 360.586 780.382 361.234 779.5C362.121 778.292 362.246 774 361.394 774C361.061 774 359.903 775.125 358.821 776.5C356.183 779.855 352.253 779.856 351.411 776.502C350.557 773.097 351.663 770.263 353.233 771.833C355.295 773.895 356.494 773.08 356.678 769.496C356.776 767.573 356.439 766 355.928 766C355.417 766 355 766.627 355 767.393C355 768.159 354.308 769.052 353.462 769.376C351.51 770.125 350.332 767.287 351.693 765.114C353.398 762.393 356.573 762.641 358.966 765.684L361.161 768.476L360.831 764.988L360.5 761.5L352.75 761.282C348.488 761.162 345 761.223 345 761.418ZM366.653 762.83C364.67 765.023 364.506 768.345 366.308 769.84C367.027 770.437 369.389 771.507 371.558 772.217C375.842 773.621 376.869 776.419 373.809 778.349C372.512 779.167 371.637 778.981 370.059 777.553C368.926 776.528 368 775.047 368 774.262C368 771.233 365.484 773.84 365.199 777.164L364.898 780.673L369.807 780.577C375.738 780.461 378 778.804 378 774.578C378 771.062 376.488 769 373.911 769C372.982 769 371.159 768.132 369.861 767.071C367.994 765.546 367.756 764.882 368.723 763.898C370.294 762.3 375 764.235 375 766.479C375 767.315 375.45 768 376 768C376.55 768 376.998 766.538 376.995 764.75C376.99 761.621 376.828 761.491 372.648 761.252C369.487 761.071 367.857 761.5 366.653 762.83ZM128.38 763.452C128.074 764.251 128.114 765.376 128.47 765.952C129.635 767.837 131 767.053 131 764.5C131 761.789 129.282 761.102 128.38 763.452ZM170.023 763.977C168.525 765.475 168 767.314 168 771.066C168 777.398 169.328 780 172.56 780C175.912 780 177.291 776.179 176.429 769.28C175.616 762.773 173.215 760.785 170.023 763.977ZM103.605 769.588C102.75 771.816 102.818 772 104.5 772C105.325 772 106 771.352 106 770.559C106 768.443 104.307 767.757 103.605 769.588ZM295.605 769.588C294.75 771.816 294.818 772 296.5 772C297.325 772 298 771.352 298 770.559C298 768.443 296.307 767.757 295.605 769.588ZM102.363 775.497C102.017 776.398 102.196 777.596 102.761 778.161C104.391 779.791 107.5 778.692 107.5 776.486C107.5 773.943 103.272 773.128 102.363 775.497ZM294.363 775.497C294.017 776.398 294.195 777.596 294.76 778.161C296.39 779.791 299.5 778.692 299.5 776.486C299.5 773.943 295.272 773.128 294.363 775.497ZM321.667 775.667C321.3 776.033 321 776.798 321 777.367C321 777.993 321.466 777.934 322.183 777.217C322.834 776.566 323.134 775.801 322.85 775.517C322.566 775.232 322.033 775.3 321.667 775.667Z" fill="black"/>
</svg>
