<svg width="469" height="793" viewBox="0 0 469 793" fill="none" xmlns="http://www.w3.org/2000/svg">
<path fill-rule="evenodd" clip-rule="evenodd" d="M0 0.79805C0 1.23805 1.688 1.43005 3.75 1.22605C9.555 0.65005 9.978 0.16505 4.75 0.0780496C2.138 0.0350496 0 0.35905 0 0.79805ZM230.115 1.74805L209.73 2.04105L210.387 7.63705C211.165 14.251 214.289 21.9821 217.343 24.8521C220.598 27.9091 227.962 30.862 234.079 31.562C240.547 32.302 247.571 29.735 252.752 24.739C256.786 20.849 260 12.521 260 5.96105V0.99905L255.25 1.22705C252.637 1.35305 241.327 1.58705 230.115 1.74805ZM262 7.74805C262 9.94805 261.38 13.505 260.622 15.653C259.254 19.531 259.262 19.5591 261.774 19.5291C265.695 19.4831 265.519 21.6531 261.55 22.2971C259.611 22.6121 257.007 23.9351 255.762 25.2381C249.251 32.0561 239.014 35.6831 231.213 33.9351C226.626 32.9071 225.057 33.5881 225.015 36.6241C225.007 37.2431 224.719 39.1551 224.375 40.8731C223.798 43.7611 224.037 44.1161 227.554 45.5861C230.083 46.6431 232.721 46.968 235.429 46.556C237.668 46.216 240.728 45.7991 242.229 45.6301C243.73 45.4611 245.9 44.125 247.051 42.661C248.203 41.197 249.514 39.9991 249.966 39.9991C251.677 39.9991 251.986 43.3571 250.432 45.0741C248.919 46.7461 248.965 46.8231 251.158 46.2811L253.5 45.703L251.174 48.2471L248.847 50.7901L254.174 51.4831C257.103 51.8641 261.975 53.2951 265 54.6631L270.5 57.1501L274.777 52.3251C280.669 45.6771 281.937 39.9881 279.782 29.8671C279.345 27.8101 272.867 22.9221 269.753 22.3001C266.392 21.6271 265.279 20.213 267.455 19.378C271.088 17.984 279.561 24.1151 281.945 29.8631C282.986 32.3721 283.392 32.4991 290.367 32.4991H297.695L297.848 28.4611C298.029 23.6651 294.636 16.423 291 13.842C289.625 12.866 285.725 11.633 282.333 11.102C278.747 10.541 274.554 9.07005 272.316 7.59005C270.199 6.18905 267.012 4.75105 265.234 4.39605C262.02 3.75305 262 3.77405 262 7.74805ZM203 7.99905C201.9 9.09905 201 9.69005 201 9.31205C201 8.93405 199.639 9.92805 197.976 11.522C194.77 14.593 192 22.084 192 27.681C192 29.506 192.419 30.9991 192.932 30.9991C193.99 30.9991 198 25.6731 198 24.2691C198 22.6841 202.439 19.09 205.876 17.892C208.543 16.962 209.059 16.343 208.597 14.622C208.284 13.454 208.021 11.037 208.014 9.24905C207.998 5.43505 206.05 4.94905 203 7.99905ZM229.498 13.192C230.808 15.498 231.655 17.7481 231.381 18.1921C231.106 18.6361 231.762 18.9991 232.837 18.9991C234.694 18.9991 234.663 18.749 232.216 13.999C230.799 11.249 229.072 8.99905 228.378 8.99905C227.54 8.99905 227.917 10.408 229.498 13.192ZM232 9.96805C232 10.5 232.675 10.677 233.5 10.361C234.325 10.044 235 9.60805 235 9.39205C235 9.17605 234.325 8.99905 233.5 8.99905C232.675 8.99905 232 9.43505 232 9.96805ZM237 9.46505C237 9.95305 240.196 17.1541 240.775 17.9701C241.249 18.6391 242.966 15.747 242.985 14.249C242.993 13.562 242.438 13.112 241.75 13.249C241.029 13.393 240.534 12.546 240.579 11.249C240.634 9.70705 240.083 8.99905 238.829 8.99905C237.823 8.99905 237 9.20905 237 9.46505ZM242.671 10.583C243.005 11.454 243.558 11.791 243.901 11.333C244.243 10.874 244.931 10.161 245.428 9.74905C245.926 9.33705 245.372 8.99905 244.198 8.99905C242.661 8.99905 242.233 9.44205 242.671 10.583ZM227.5 17.9991C227.16 18.5491 227.359 18.9991 227.941 18.9991C228.523 18.9991 229 18.5491 229 17.9991C229 17.4491 228.802 16.9991 228.559 16.9991C228.316 16.9991 227.84 17.4491 227.5 17.9991ZM206 20.7031C203.401 21.6481 199 26.3 199 28.101C199 29.746 197.766 31.087 190.219 37.647C187.572 39.948 186.829 41.4651 186.376 45.4991C185.655 51.9201 188.335 56.161 196.026 60.771L201.486 64.043L202.85 59.271C203.6 56.646 204.214 53.4891 204.213 52.2561C204.213 50.8391 204.634 50.2651 205.356 50.6981C205.985 51.0751 205.825 50.5371 205 49.5041C203.62 47.7751 203.659 47.6841 205.476 48.3671C207.21 49.0191 207.157 48.796 205.052 46.555C202.293 43.618 204.118 42.9811 207.421 45.7281C208.565 46.6781 207.949 45.7781 206.054 43.7281C201.931 39.2671 203.521 38.7611 208.347 42.9991C210.226 44.6491 212.155 45.981 212.632 45.958C213.109 45.936 211.953 44.595 210.063 42.979C208.172 41.363 206.919 39.7461 207.279 39.3871C207.639 39.0271 209.539 40.1431 211.501 41.8661C213.464 43.5891 215.391 44.9891 215.785 44.9771C216.178 44.9651 215.592 44.1771 214.482 43.2271C213.372 42.2761 211.572 40.4101 210.482 39.0791C208.794 37.0181 208.752 36.752 210.199 37.279C211.493 37.75 211.743 37.493 211.247 36.201C210.648 34.639 210.811 34.6451 213.298 36.2751C215.036 37.4141 216 37.6251 216 36.8671C216 36.0871 216.591 36.1961 217.75 37.1921C221.529 40.4371 222.319 40.1081 219.054 36.6491C217.158 34.6421 216.172 32.9991 216.863 32.9991C217.553 32.9991 217.84 32.5491 217.5 31.9991C216.586 30.5211 218.249 30.7851 220.712 32.5101C222.003 33.4141 223.109 33.6321 223.467 33.0521C223.796 32.5201 222.588 31.3371 220.783 30.4251C216.472 28.2451 212.997 25.0401 211.919 22.2491C211.079 20.0751 209.127 19.5651 206 20.7031ZM355.75 31.6611C356.438 31.9391 357.563 31.9391 358.25 31.6611C358.938 31.3841 358.375 31.1571 357 31.1571C355.625 31.1571 355.063 31.3841 355.75 31.6611ZM408 35.4401C408 36.2971 408.45 36.9991 409 36.9991C409.55 36.9991 410 36.576 410 36.058C410 35.54 409.55 34.8391 409 34.4991C408.45 34.1591 408 34.5831 408 35.4401ZM221.5 35.9991C221.84 36.5491 222.316 36.9991 222.559 36.9991C222.802 36.9991 223 36.5491 223 35.9991C223 35.4491 222.523 34.9991 221.941 34.9991C221.359 34.9991 221.16 35.4491 221.5 35.9991ZM284.25 35.661C283.563 35.939 283 37.6741 283 39.5171C283 44.2991 281.754 46.996 276.648 53.264L272.148 58.7891L274.545 61.041C278.079 64.3621 279.311 69.245 278.765 77.766C278.412 83.267 278.689 86.073 279.808 88.317C281.819 92.346 281.749 99.092 279.667 102.065C277.179 105.617 277.606 106.68 281.788 107.349C289.937 108.652 297.831 103.645 299.789 95.931C300.332 93.791 300.489 89.669 300.138 86.7701C299.787 83.8711 299.5 78.574 299.5 74.999C299.5 69.03 299.862 67.9281 303.932 61.4991C307.338 56.1191 308.467 53.2811 308.807 49.2351C309.228 44.2311 309.069 43.8011 305.595 40.5241C303.584 38.6281 300.266 36.611 298.22 36.043C294.397 34.982 286.471 34.765 284.25 35.661ZM248.405 44.2491L246.5 46.4991L248.75 44.5941C250.864 42.8041 251.455 41.9991 250.655 41.9991C250.465 41.9991 249.453 43.0121 248.405 44.2491ZM178.5 46.87C170.097 52.088 167.933 59.803 172.235 69.2C176.387 78.27 177.428 83.778 176.131 89.823C173.026 104.3 177.148 111.925 190.5 116.408C199.16 119.315 206.63 119.51 214 117.022C217.575 115.815 221.279 114.128 222.232 113.275C223.859 111.815 223.777 111.509 220.861 108.188C219.155 106.245 217.192 103.307 216.5 101.66C215.307 98.825 215.204 98.781 214.553 100.832C213.688 103.557 211.58 103.712 212.29 100.999C213.062 98.046 211.685 98.569 209.659 101.999C208.684 103.649 207.462 104.999 206.943 104.999C205.443 104.999 205.837 103.476 208.073 100.634C211.403 96.399 207.986 97.421 204.343 101.749C200.544 106.262 198.689 105.428 202.181 100.776C206.438 95.106 206.433 94.366 202.165 98.434C196.885 103.466 195.678 102.468 200.539 97.088C202.57 94.839 203.867 92.999 203.42 92.999C202.974 92.999 200.719 95.137 198.409 97.749C196.1 100.361 193.916 102.214 193.556 101.867C193.196 101.519 194.724 99.129 196.951 96.556C201.17 91.681 202.325 89.49 199.171 92.344C196.634 94.641 194.254 94.615 196.128 92.312C197.329 90.834 197.282 90.706 195.75 91.28C193.607 92.084 193.455 90.697 195.5 88.999C196.465 88.199 197.014 85.924 197.04 82.627C197.064 79.523 198.016 75.329 199.451 72.003L201.822 66.5061L198.161 65.084C193.301 63.197 187.272 58.4251 185.556 55.1071C184.794 53.6341 183.858 50.7581 183.474 48.7141C182.671 44.4321 182.517 44.375 178.5 46.87ZM214.122 48.3731C209.899 49.9011 205.676 54.654 206.328 57.146C206.595 58.165 206.466 58.9991 206.042 58.9991C205.619 58.9991 204.989 61.065 204.643 63.59C204.297 66.114 203.061 70.277 201.898 72.84C200.734 75.402 199.792 79.5 199.804 81.947C199.823 85.996 200.258 86.777 204.663 90.674C210.904 96.197 215.62 97.581 223.346 96.16C229.066 95.108 237.192 90.278 238.453 87.18C238.748 86.455 237.672 84.753 236.062 83.398C232.172 80.125 230.69 75.206 231.197 67.252C231.572 61.357 231.371 60.4611 229.185 58.2751C227.201 56.2911 226.851 55.1461 227.271 52.0121C227.714 48.7111 227.487 48.0961 225.643 47.6011C222.36 46.7211 217.856 47.0221 214.122 48.3731ZM236.23 48.944C231.12 49.775 229.718 50.975 230.165 54.134C230.487 56.404 230.781 56.4851 237.5 56.1431C244.854 55.7691 247 54.85 247 52.077C247 48.243 244.683 47.569 236.23 48.944ZM40.433 51.8741C40.745 53.7301 41 56.9931 41 59.1241C41 61.2551 41.417 62.9991 41.928 62.9991C43.061 62.9991 42.117 52.1141 40.801 49.9991C40.162 48.9731 40.046 49.5661 40.433 51.8741ZM390.5 52.9991C390.84 53.5491 391.316 53.9991 391.559 53.9991C391.802 53.9991 392 53.5491 392 52.9991C392 52.4491 391.523 51.9991 390.941 51.9991C390.359 51.9991 390.16 52.4491 390.5 52.9991ZM248.227 55.933C247.319 57.439 247.248 58.5931 247.977 59.9561C248.54 61.0071 248.986 62.685 248.968 63.683C248.938 65.383 248.843 65.375 247.468 63.558C246.661 62.49 246 60.7761 246 59.7491C246 58.7221 245.58 58.141 245.067 58.458C244.517 58.798 244.759 60.869 245.655 63.501C246.492 65.957 246.979 68.537 246.737 69.233C246.495 69.929 245.473 67.911 244.466 64.749C242.562 58.77 240.436 56.5461 242.07 62.2421C243.353 66.7151 243.305 72.018 242 69.999C241.467 69.174 241.024 67.469 241.015 66.21L241 63.9211L238.75 66.027L236.5 68.133L236.193 64.0661C235.625 56.5621 234 59.9051 234 68.576C234 76.722 234.147 77.3 236.923 80.076C238.868 82.02 240.861 82.999 242.876 82.999C246.529 82.999 250.185 84.526 255.4 88.229C266.801 96.326 280.051 84.042 276.029 69.105C274.21 62.35 264.119 55.49 254.365 54.377C250.151 53.896 249.33 54.104 248.227 55.933ZM373 57.4991C373 58.3241 373.45 58.9991 374 58.9991C374.55 58.9991 375 58.3241 375 57.4991C375 56.6741 374.55 55.9991 374 55.9991C373.45 55.9991 373 56.6741 373 57.4991ZM248.638 58.4991C248.955 59.3241 249.391 59.9991 249.607 59.9991C249.823 59.9991 250 59.3241 250 58.4991C250 57.6741 249.564 56.9991 249.031 56.9991C248.499 56.9991 248.322 57.6741 248.638 58.4991ZM239.079 60.5821C239.127 61.7471 239.364 61.984 239.683 61.187C239.972 60.465 239.936 59.6021 239.604 59.2701C239.272 58.9381 239.036 59.5281 239.079 60.5821ZM373 64.558C373 66.676 373.405 67.867 374 67.499C374.55 67.159 375 65.5581 375 63.9401C375 62.3221 374.55 60.9991 374 60.9991C373.45 60.9991 373 62.601 373 64.558ZM30 68.999C30 69.549 30.675 69.999 31.5 69.999C32.325 69.999 33 69.549 33 68.999C33 68.449 32.325 67.999 31.5 67.999C30.675 67.999 30 68.449 30 68.999ZM49.25 69.688C50.212 69.94 51.788 69.94 52.75 69.688C53.712 69.437 52.925 69.231 51 69.231C49.075 69.231 48.288 69.437 49.25 69.688ZM363 73.999C363 74.549 364.462 74.992 366.25 74.984C368.716 74.972 369.138 74.735 368 73.999C366.035 72.729 363 72.729 363 73.999ZM382.813 73.682C383.534 73.971 384.397 73.935 384.729 73.603C385.061 73.271 384.471 73.035 383.417 73.078C382.252 73.126 382.015 73.363 382.813 73.682ZM42.343 81.499C42.346 85.899 42.522 87.575 42.733 85.223C42.945 82.871 42.942 79.271 42.727 77.223C42.512 75.175 42.339 77.099 42.343 81.499ZM373.328 84.499C373.333 88.349 373.513 89.801 373.73 87.727C373.946 85.652 373.943 82.502 373.722 80.727C373.501 78.951 373.324 80.649 373.328 84.499ZM238.842 89.921C236.201 93.743 227.255 98.981 223.312 99.014C222.315 99.023 220.833 99.451 220.019 99.966C216.568 102.148 227.871 111.77 235.011 112.727C237.457 113.055 240.471 112.627 243.087 111.581C247.359 109.872 247.174 109.86 260 112.681C260.825 112.862 262.949 112.765 264.721 112.465C273.889 110.912 281.905 95.861 277.648 88.191L276.367 85.883L274.434 88.517C271.898 91.972 267.918 93.999 263.672 93.999C261.277 93.999 259.742 94.677 258.578 96.249L256.912 98.499L257.482 95.499C257.988 92.843 257.699 93.056 254.962 97.351C251.025 103.527 249.922 102.659 253.358 96.089C254.793 93.343 255.624 90.884 255.203 90.624C254.782 90.364 253.118 92.592 251.504 95.575C249.89 98.558 248.231 100.999 247.816 100.999C246.89 100.999 247.681 98.801 250.604 93.249C253.752 87.27 252.092 87.955 248.75 94.013C245.833 99.302 243.309 100.946 245.022 96.442C245.737 94.561 245.688 94.074 244.839 94.598C244.05 95.086 243.863 94.63 244.249 93.154C244.56 91.967 244.405 91.248 243.907 91.557C242.755 92.269 242.767 91.743 243.975 88.564C245.55 84.422 241.993 85.362 238.842 89.921ZM354 87.47C354 88.659 358.961 98.977 361.358 102.775C363.523 106.204 364.353 106.824 365.763 106.065C366.718 105.551 368.962 104.541 370.75 103.82C372.538 103.1 374 102.283 373.999 102.005C373.999 101.255 361.014 89.696 358.588 88.284C356.467 87.051 354 86.613 354 87.47ZM112.383 95.836C110.229 97.397 106.674 100.355 104.483 102.411C100.768 105.896 100.626 106.227 102.374 107.323C103.405 107.97 105.699 109.452 107.473 110.616L110.697 112.733L115.598 106.26C123.199 96.223 123.26 96.12 122.644 94.513C121.714 92.09 116.654 92.743 112.383 95.836ZM163.601 103.668C164.477 112.568 165 112.962 165 104.725C165 101.09 164.534 97.829 163.964 97.477C163.263 97.044 163.146 99.049 163.601 103.668ZM369.785 107.029C366.874 108.582 366.241 109.389 366.864 110.755C367.302 111.714 368.487 114.431 369.498 116.791C370.857 119.964 371.749 120.92 372.918 120.454C373.788 120.108 377.087 119.335 380.25 118.736C383.413 118.136 385.982 117.388 385.959 117.072C385.833 115.283 377.086 105.463 375.449 105.273C374.377 105.149 371.828 105.939 369.785 107.029ZM274.316 110.204C270.894 113.988 265.392 116.055 259.51 115.768C256.487 115.62 254.011 115.213 254.007 114.862C253.992 113.475 247.273 113.306 243.5 114.599C238.218 116.409 233.585 116.353 229.874 114.434C227.122 113.011 226.627 113.013 224.417 114.461L221.987 116.054L224.104 120.276C227.994 128.039 232.944 132.089 240.129 133.388C243.119 133.929 245.216 133.339 252.04 130.039C259.386 126.487 261.123 126.04 267.411 126.09C277.854 126.172 284.174 122.645 288.522 114.309C290.7 110.132 290.38 109.356 286.659 109.791C284.821 110.005 281.701 109.734 279.724 109.189C276.641 108.337 275.874 108.481 274.316 110.204ZM95.372 112.749C93.796 114.812 92.618 116.837 92.753 117.249C92.889 117.661 92.55 117.999 92 117.999C89.569 117.999 91.917 120.57 96.5 122.927C99.25 124.342 101.831 125.949 102.235 126.499C102.639 127.049 102.983 126.149 103 124.499C103.024 122.192 103.254 121.845 104 122.999C104.802 124.24 104.972 124.253 104.985 123.078C104.993 122.296 105.622 120.946 106.382 120.078C109.678 116.312 109.214 114.625 104.092 111.746C101.404 110.235 98.987 108.999 98.721 108.999C98.455 108.999 96.948 110.687 95.372 112.749ZM151.5 113.999C151.84 114.549 153.415 114.999 155 114.999C156.585 114.999 158.16 114.549 158.5 113.999C158.874 113.394 157.491 112.999 155 112.999C152.509 112.999 151.126 113.394 151.5 113.999ZM173.269 114.692C174.242 114.946 175.592 114.929 176.269 114.655C176.946 114.381 176.15 114.174 174.5 114.194C172.85 114.214 172.296 114.438 173.269 114.692ZM164.1 124.249C164.044 127.482 164.438 129.999 165 129.999C166.163 129.999 166.163 124.63 165 120.999C164.389 119.091 164.176 119.861 164.1 124.249ZM378.176 121.78C374.125 122.958 372.977 123.707 373.372 124.913C376.735 135.175 377.289 136.157 379.394 135.57C380.553 135.247 384.765 134.481 388.756 133.868L396.012 132.754L393.83 129.127C387.741 119.001 387.738 119 378.176 121.78ZM85.296 125.749C84.334 127.262 83.086 128.83 82.523 129.234C81.86 129.71 81.852 129.984 82.5 130.014C83.05 130.039 82.713 130.518 81.75 131.079C80.775 131.647 79.993 133.295 79.985 134.799C79.974 136.659 79.706 137.084 79.124 136.165C78.449 135.101 78.149 135.168 77.639 136.497C76.709 138.921 76.765 138.999 79.455 138.999C80.804 138.999 84.897 140.084 88.549 141.409L95.189 143.82L97.595 138.381C98.918 135.389 100 132.317 100 131.554C100 130.79 100.563 129.959 101.25 129.706C102.535 129.233 90.475 123.001 88.273 123C87.598 122.999 86.259 124.236 85.296 125.749ZM91 131.558C91 132.415 91.457 132.834 92.016 132.489C92.575 132.143 92.774 131.442 92.457 130.93C91.6 129.543 91 129.801 91 131.558ZM385.22 137.448C379.013 138.951 378.505 139.33 379.515 141.706C379.935 142.692 380.368 144.174 380.478 144.999C380.987 148.803 382.222 152.998 382.829 152.988C383.198 152.982 385.525 152.363 388 151.611C393.56 149.923 393.064 149.999 398.567 149.999C403.729 149.999 403.716 150.099 399.762 140.749C397.877 136.29 397.531 136.004 394.127 136.084C392.132 136.131 388.124 136.744 385.22 137.448ZM427.598 137.735C426.39 138.943 427.077 173.537 428.457 180.999C430.201 190.426 434.367 203.664 441.048 220.999C447.161 236.862 450.162 248.481 452.928 266.999C454.037 274.424 455.407 282.071 455.972 283.992C456.538 285.914 457 288.801 457 290.409C457 292.017 457.236 293.096 457.525 292.808C458.597 291.736 455.807 258.164 453.884 248.999C452.788 243.774 449.411 231.624 446.379 221.999C436.071 189.272 433.046 173.978 432.922 153.962C432.883 147.789 432.469 141.734 432.002 140.505C431.132 138.217 428.666 136.666 427.598 137.735ZM71.72 146.249C70.362 148.587 68.335 152.411 67.216 154.749L65.181 158.999L71.841 159.032C75.696 159.051 80.812 159.862 83.989 160.959C87.008 162.001 89.509 162.774 89.546 162.676C89.582 162.579 90.689 158.981 92.004 154.68C94.052 147.984 94.187 146.727 92.948 145.926C90.357 144.253 81.727 141.999 77.914 141.999C74.587 141.999 73.927 142.452 71.72 146.249ZM405.5 144.999C405.84 145.549 406.316 145.999 406.559 145.999C406.802 145.999 407 145.549 407 144.999C407 144.449 406.523 143.999 405.941 143.999C405.359 143.999 405.16 144.449 405.5 144.999ZM391.925 153.404C382.62 155.485 383.149 154.736 384.835 163.446C385.989 169.403 386.64 170.967 387.785 170.528C388.593 170.218 393.922 169.679 399.627 169.33C405.332 168.981 409.972 168.426 409.937 168.097C409.903 167.768 408.665 164.124 407.187 159.999C404.567 152.685 404.413 152.495 401 152.329C399.075 152.235 394.991 152.719 391.925 153.404ZM446 158.999C446 159.549 446.45 159.999 447 159.999C447.55 159.999 448 159.549 448 158.999C448 158.449 447.55 157.999 447 157.999C446.45 157.999 446 158.449 446 158.999ZM63.149 163.113C60.979 168.837 59 175.172 59 176.397C59 177.395 61.913 177.855 70.75 178.25C77.213 178.539 83.224 179.074 84.109 179.44C85.423 179.983 85.942 178.973 86.93 173.951C87.596 170.566 88.371 167.196 88.653 166.461C89.335 164.685 81.163 162.278 71.468 161.4C64.293 160.75 64.024 160.805 63.149 163.113ZM388.211 167.398C388.92 168.168 389.658 168.648 389.85 168.465C390.443 167.901 388.94 165.999 387.902 165.999C387.362 165.999 387.501 166.629 388.211 167.398ZM395.509 172.171C391.114 172.672 387.198 173.401 386.808 173.791C386.418 174.181 386.515 176.3 387.025 178.5C387.535 180.699 387.963 184.207 387.976 186.294L388 190.09L391.75 189.348C393.813 188.941 399.662 188.583 404.749 188.553C409.837 188.523 413.999 188.138 413.999 187.696C414.001 184.939 410.549 172.371 409.622 171.764C408.295 170.895 406.168 170.957 395.509 172.171ZM83 174.058C83 174.64 83.45 174.839 84 174.499C84.55 174.159 85 173.683 85 173.44C85 173.197 84.55 172.999 84 172.999C83.45 172.999 83 173.476 83 174.058ZM57.111 185.249C56.545 188.136 55.77 192.747 55.39 195.495C54.837 199.495 54.526 200.093 53.834 198.495C53.317 197.301 53.192 200.515 53.522 206.499C53.826 211.999 54.034 219.761 53.985 223.749C53.935 227.737 54.305 230.999 54.806 230.999C55.307 230.999 56.301 234.487 57.014 238.749C59.009 250.663 58.859 250.459 63.349 247.408C70.345 242.654 89.919 235.339 91.587 236.855C91.977 237.209 91.964 236.374 91.558 234.999C91.153 233.624 90.052 229.799 89.112 226.499L87.403 220.499L82.337 220.766C78.216 220.983 67.071 224.355 56.75 228.509C53.334 229.884 55.028 227.026 58.75 225.135C64.465 222.232 78.661 217.999 82.682 217.999H86.262L85.593 214.249C85.224 212.187 84.662 208.227 84.342 205.449L83.762 200.4L75.881 200.131C70.934 199.963 68 200.249 68 200.899C68 201.47 67.32 201.675 66.489 201.356C65.657 201.037 62.683 201.527 59.878 202.444C54.43 204.226 52.219 203.725 55.502 201.451C56.601 200.69 57.95 199.714 58.5 199.283C59.861 198.216 66.925 197.508 76.25 197.503L84 197.499V192.874C84 190.33 84.266 186.92 84.591 185.295L85.181 182.342L75.649 181.17C70.406 180.526 64.322 179.999 62.129 179.999H58.142L57.111 185.249ZM409 185.058C409 185.64 409.45 185.839 410 185.499C410.55 185.159 411 184.683 411 184.44C411 184.197 410.55 183.999 410 183.999C409.45 183.999 409 184.476 409 185.058ZM392.276 191.73L388.053 192.111L388.104 199.91L388.155 207.708L397.94 208.35C403.323 208.703 409.644 209.668 411.989 210.495C414.333 211.322 416.435 211.999 416.66 211.999C416.885 211.999 416.84 209.862 416.56 207.249C416.28 204.636 415.782 199.911 415.454 196.749L414.856 190.999L405.678 191.174C400.63 191.27 394.599 191.52 392.276 191.73ZM233.699 214.499C234.015 221.649 234.343 227.592 234.428 227.707C234.513 227.821 239.851 227.982 246.291 228.064C252.731 228.147 258 228.616 258 229.107C258 229.597 252.713 229.998 246.25 229.998L234.5 229.996L234.87 246.248L235.24 262.499L237.598 252.499C241.708 235.076 240.32 237.061 250.839 233.553C255.96 231.845 260.156 230.05 260.164 229.563C260.187 228.207 257.56 227.023 249.248 224.641C241.788 222.504 241.597 222.368 239.861 217.979C238.886 215.515 237.628 211.685 237.065 209.468C236.502 207.251 235.385 204.551 234.582 203.468C233.287 201.72 233.188 202.957 233.699 214.499ZM231.112 204.197C230.901 207.397 225.769 222.498 224.634 223.258C224.01 223.675 219.751 225.176 215.169 226.593C210.586 228.01 206.996 229.329 207.191 229.523C207.385 229.718 213.16 229.567 220.022 229.188L232.5 228.499L232.789 220.343C233.027 213.62 231.475 198.68 231.112 204.197ZM385.94 218.861L384.435 226.999L387.467 227.011C393.704 227.035 405.602 231.366 413.19 236.375L415.881 238.151L416.522 234.732C416.875 232.852 417.014 227.574 416.832 223.005L416.5 214.696L412.5 213.288C410.3 212.513 403.763 211.619 397.973 211.301L387.446 210.723L385.94 218.861ZM39.5 215.999C42.231 217.173 43 217.173 43 215.999C43 215.449 41.763 215.031 40.25 215.069C37.813 215.132 37.728 215.237 39.5 215.999ZM379.087 236.576C376.839 240.743 375 244.343 375 244.576C375 244.809 375.788 245.011 376.75 245.026C380.115 245.078 397.876 252.751 403.821 256.721L409.817 260.725L411.011 256.112C411.668 253.575 412.876 249.345 413.695 246.712C414.515 244.079 414.946 241.3 414.652 240.536C413.442 237.38 391.418 228.999 384.337 228.999C383.697 228.999 381.335 232.409 379.087 236.576ZM216 230.948L204.5 231.499L212.5 233.389C224.566 236.24 224.066 235.775 228.521 248.305L232.5 259.499L232.78 246.049C232.935 238.652 232.836 232.015 232.562 231.299C232.287 230.584 231.036 230.089 229.781 230.198C228.527 230.308 222.325 230.646 216 230.948ZM85.203 240.556C77.639 242.592 64.726 248.746 65.475 249.958C65.823 250.521 65.51 250.748 64.773 250.465C64.041 250.185 62.608 250.565 61.589 251.31C59.938 252.517 59.87 253.075 60.968 256.402C61.646 258.458 62.869 260.395 63.685 260.708C64.521 261.029 64.742 261.544 64.191 261.888C62.756 262.786 65.827 269.815 67.834 270.225C69.719 270.611 82.649 260.39 82.225 258.85C82.074 258.3 82.387 258.12 82.92 258.449C83.453 258.779 86.052 257.722 88.695 256.1C91.338 254.478 94.737 252.843 96.25 252.466C97.763 252.09 99 251.571 99 251.312C99 251.053 97.763 248.182 96.25 244.931C93.246 238.475 93.121 238.425 85.203 240.556ZM403 241.999C403 242.549 403.45 242.999 404 242.999C404.55 242.999 405 242.549 405 241.999C405 241.449 404.55 240.999 404 240.999C403.45 240.999 403 241.449 403 241.999ZM293.1 251.69C293.045 256.195 293.45 260.159 294 260.499C295.198 261.239 295.198 249.74 294 245.999C293.449 244.279 293.168 246.056 293.1 251.69ZM368.668 252.141C364.607 257.469 364.538 258.013 367.887 258.265C369.049 258.353 370 258.744 370 259.134C370 259.525 371.547 260.354 373.438 260.978C375.328 261.602 378.104 263.08 379.607 264.262C381.11 265.444 383.463 266.431 384.836 266.455C386.21 266.479 387.557 267.174 387.829 267.999C388.27 269.332 388.113 269.332 386.413 267.999C384.644 266.612 384.604 266.631 385.872 268.249C386.627 269.211 387.64 269.999 388.122 269.999C388.605 269.999 389.007 269.211 389.015 268.249C389.028 266.753 389.172 266.717 390 267.999C390.939 269.452 391.11 269.307 391.375 266.832C391.444 266.191 392.125 265.457 392.889 265.203C393.662 264.945 393.997 265.194 393.645 265.764C393.297 266.328 393.684 267.047 394.506 267.363C395.413 267.711 396 267.36 396 266.468C396 265.66 396.417 264.999 396.927 264.999C397.436 264.999 398.059 264.211 398.311 263.249C398.723 261.67 398.779 261.68 398.884 263.356C398.958 264.536 399.523 265.012 400.435 264.662C401.225 264.359 402.091 264.649 402.359 265.305C402.713 266.17 403.123 266.104 403.848 265.063C404.676 263.874 405.118 263.852 406.424 264.936C407.749 266.035 408 265.985 408 264.621C408 263.729 407.438 263.112 406.75 263.249C406.063 263.386 405.607 262.953 405.738 262.285C405.885 261.536 405.343 261.314 404.324 261.705C403.285 262.104 402.918 261.941 403.334 261.267C404.156 259.938 397.258 255.721 395.769 256.642C395.176 257.008 394.966 256.863 395.303 256.318C396.215 254.842 378.101 246.917 374.131 247.056C373.234 247.087 370.776 249.375 368.668 252.141ZM399.597 248.843C399.251 249.403 399.455 250.162 400.05 250.53C401.588 251.48 402.58 250.179 401.296 248.895C400.578 248.177 400.019 248.16 399.597 248.843ZM94.449 256.026C87.172 259.854 79.867 265.128 73.61 271.07L68.721 275.714L74.176 284.815L79.632 293.916L84.566 288.648C90.86 281.929 101.692 272.807 106.925 269.818C109.158 268.542 110.988 267.274 110.991 266.999C110.995 266.724 109.821 265.149 108.382 263.499C106.944 261.849 104.688 258.812 103.371 256.749C102.053 254.687 100.801 252.999 100.589 252.999C100.377 252.999 97.614 254.361 94.449 256.026ZM404 254.058C404 254.64 404.45 254.839 405 254.499C405.55 254.159 406 253.683 406 253.44C406 253.197 405.55 252.999 405 252.999C404.45 252.999 404 253.476 404 254.058ZM69 256.058C69 256.64 69.45 256.839 70 256.499C70.55 256.159 71 255.683 71 255.44C71 255.197 70.55 254.999 70 254.999C69.45 254.999 69 255.476 69 256.058ZM356.149 264.816L349.797 270.547L355.402 272.87C358.485 274.148 362.604 276.277 364.556 277.602C368.401 280.211 373.352 280.08 372.322 277.396C371.928 276.368 372.27 276.165 373.562 276.661C374.947 277.192 375.203 276.971 374.705 275.673C374.352 274.752 374.499 273.999 375.031 273.999C375.564 273.999 376.052 275.011 376.116 276.249C376.221 278.292 376.278 278.315 376.732 276.499C377.411 273.78 379.022 272.94 381.26 274.138C382.525 274.815 383.54 274.795 384.406 274.077C385.109 273.494 385.98 273.312 386.342 273.674C386.704 274.036 386.989 273.92 386.976 273.416C386.948 272.319 376.134 264.965 370.5 262.211C363.133 258.61 362.999 258.634 356.149 264.816ZM395.143 261.889C394.309 262.418 394.172 262.987 394.788 263.368C395.34 263.709 396.048 263.315 396.364 262.493C397.026 260.766 396.964 260.736 395.143 261.889ZM101 262.999C101 263.549 101.45 263.999 102 263.999C102.55 263.999 103 263.549 103 262.999C103 262.449 102.55 261.999 102 261.999C101.45 261.999 101 262.449 101 262.999ZM302.25 262.688C303.212 262.94 304.788 262.94 305.75 262.688C306.712 262.437 305.925 262.231 304 262.231C302.075 262.231 301.288 262.437 302.25 262.688ZM282.264 264.717C283.784 264.946 286.034 264.94 287.264 264.703C288.494 264.466 287.25 264.278 284.5 264.285C281.75 264.293 280.744 264.487 282.264 264.717ZM294.118 274.19C294.053 277.87 294.45 281.159 295 281.499C296.163 282.218 296.163 275.07 295 270.499C294.408 268.173 294.21 269.003 294.118 274.19ZM108.232 271.576C105.885 272.982 104.221 274.548 104.534 275.055C104.848 275.561 104.493 275.742 103.747 275.455C102.323 274.909 82 294.038 82 295.926C82 297.281 91.935 308.96 94.313 310.401C95.843 311.328 96.615 310.875 99.261 307.499C105.895 299.035 116.17 289.641 124.748 284.196C128.754 281.653 130.087 279.999 128.131 279.999C127.322 279.999 118.155 273.108 115.179 270.262C113.412 268.574 113.163 268.621 108.232 271.576ZM380.886 271.777C382.069 273.996 384 273.994 384 271.773C384 271.164 383.704 270.962 383.342 271.324C382.98 271.686 382.006 271.423 381.178 270.74C379.864 269.657 379.827 269.789 380.886 271.777ZM390.5 270.999C390.16 271.549 390.359 271.999 390.941 271.999C391.523 271.999 392 271.549 392 270.999C392 270.449 391.802 269.999 391.559 269.999C391.316 269.999 390.84 270.449 390.5 270.999ZM344.807 274.865C344.088 275.891 343.05 276.828 342.5 276.948C341.95 277.067 339.342 278.811 336.705 280.822C332.082 284.348 331.992 284.512 334.205 285.389C339.712 287.571 345.198 290.323 348.472 292.544L352 294.939L351.985 292.719C351.973 291.092 351.74 290.862 351.11 291.856C350.51 292.802 350.043 292.877 349.566 292.106C348.542 290.449 349.835 288.999 352.337 288.999C353.557 288.999 355.492 288.342 356.638 287.54C357.812 286.718 359.908 286.296 361.441 286.574C362.964 286.85 363.91 286.662 363.591 286.146C362.827 284.911 365.445 282.819 366.581 283.758C367.075 284.165 366.612 283.471 365.552 282.214C364.493 280.957 363.012 280.164 362.261 280.452C361.51 280.74 361.126 280.605 361.406 280.151C362.107 279.017 354.067 274.839 352.75 275.653C352.168 276.013 351.98 275.84 352.334 275.267C352.688 274.695 351.97 273.956 350.739 273.626C347.18 272.673 346.199 272.877 344.807 274.865ZM370.5 273.999C370.84 274.549 371.316 274.999 371.559 274.999C371.802 274.999 372 274.549 372 273.999C372 273.449 371.523 272.999 370.941 272.999C370.359 272.999 370.16 273.449 370.5 273.999ZM369.029 276.96C368.22 277.472 367.818 278.151 368.136 278.469C368.455 278.787 369.284 278.361 369.98 277.523C371.423 275.785 371.146 275.621 369.029 276.96ZM380.75 276.661C381.438 276.939 382.563 276.939 383.25 276.661C383.938 276.384 383.375 276.157 382 276.157C380.625 276.157 380.063 276.384 380.75 276.661ZM341.5 279.999C341.16 280.549 341.359 280.999 341.941 280.999C342.523 280.999 343 280.549 343 279.999C343 279.449 342.802 278.999 342.559 278.999C342.316 278.999 341.84 279.449 341.5 279.999ZM125.945 286.534C118.443 291.368 109.304 299.424 103.745 306.105C98.163 312.814 97.101 314.999 99.424 314.999C100.326 314.999 101.357 315.787 101.717 316.749C102.076 317.711 104.485 320.583 107.068 323.13L111.766 327.76L113.826 324.095C116.49 319.355 135.669 299.973 138.25 299.412C138.662 299.322 139.466 299.193 140.035 299.124C140.739 299.039 140.728 298.359 140 296.999C139.188 295.481 139.24 294.999 140.215 294.999C140.928 294.999 141.5 293.856 141.5 292.43C141.5 290.303 141.112 289.936 139.241 290.293C137.6 290.607 137.248 290.405 137.955 289.553C138.617 288.755 138.326 287.866 137.043 286.768C132.554 282.925 131.58 282.904 125.945 286.534ZM321.75 292.649C314.797 298.414 313.723 299.993 316.75 300.007C317.712 300.011 322.026 301.739 326.336 303.847L334.171 307.679L335.061 305.339C335.849 303.267 338.298 302.395 342.102 302.831C342.433 302.869 342.488 301.77 342.224 300.39C341.853 298.449 342.227 297.752 343.872 297.322C345.042 297.016 346 296.342 346 295.823C346 295.305 346.52 295.202 347.155 295.594C347.886 296.047 348.037 295.868 347.565 295.105C346.992 294.178 346.461 294.2 345.248 295.2C343.932 296.287 343.757 296.254 344.179 294.999C344.799 293.152 339.136 289.071 335.542 288.773C334.144 288.657 333 288.211 333 287.781C333 285.434 327.671 287.74 321.75 292.649ZM457.701 303.691C456.184 325.68 447.802 348.631 438.868 355.26C435.014 358.12 427.917 359.119 415.5 358.549C406.527 358.138 405.007 358.261 407.25 359.215C414.189 362.167 407.691 363.428 393.534 361.875C384.46 360.879 381.45 360.893 377.685 361.947C372.442 363.415 369.338 365.999 372.819 365.999C376.869 365.999 375.749 367.607 369.412 370.893C365.65 372.843 361.116 376.301 358.49 379.222C353.691 384.559 353.071 385.999 355.573 385.999C356.808 385.999 356.448 387.22 353.901 391.672C351.382 396.075 351.048 397.195 352.409 396.672C353.374 396.302 354.568 395.999 355.061 395.999C355.555 395.999 356.878 394.199 358 391.999C360.225 387.638 361.109 386.865 360.29 389.999C359.956 391.274 360.262 392.007 361.133 392.021C361.922 392.034 361.443 392.883 360 394.03L357.5 396.016L362 395.344C366.063 394.737 366.371 394.828 365.169 396.286C363.973 397.735 364.228 397.84 367.669 397.314C369.776 396.992 372.307 396.027 373.293 395.17C374.944 393.734 375.037 393.765 374.463 395.555C374.03 396.904 374.628 396.581 376.415 394.499C377.831 392.849 378.992 391.162 378.995 390.749C378.998 390.336 379.494 389.999 380.099 389.999C380.703 389.999 380.219 391.657 379.023 393.684C376.255 398.376 379.085 396.216 382.102 391.334C384.892 386.819 385.87 387.859 383.158 392.456C380.289 397.318 382.109 396.944 385.381 391.999C388.573 387.176 389.695 386.753 387.371 391.249C386.015 393.872 385.979 394.26 387.187 393.258C388.011 392.575 388.969 392.302 389.318 392.65C389.666 392.999 390.638 392.715 391.476 392.019C392.776 390.94 393 391.143 393 393.397V396.04L397.25 393.875C402.278 391.314 407.206 387.676 411.435 383.402C413.121 381.699 415.702 379.532 417.172 378.588C419.758 376.927 419.855 376.939 420.172 378.965C420.48 380.928 420.639 380.96 422.733 379.483C423.962 378.617 427.317 373.879 430.19 368.954C433.063 364.029 435.814 359.999 436.305 359.999C436.795 359.999 436.248 361.461 435.088 363.249C433.929 365.037 431.972 368.51 430.74 370.967C429.508 373.424 426.021 377.966 422.99 381.06C418.855 385.282 416.919 388.284 415.23 393.092C412.61 400.552 412.46 402.144 414.449 401.38C415.659 400.916 415.808 401.989 415.352 407.923C414.939 413.303 415.241 416.228 416.601 420.01C418.528 425.369 419.346 425.99 420.875 423.257C422.354 420.616 423.071 422.127 424.155 430.165C424.699 434.199 425.449 439.724 425.822 442.443L426.5 447.387L429.333 444.018C431.376 441.587 432.384 441.002 432.949 441.916C434.431 444.315 440.318 434.183 441.47 427.249C442.156 423.118 443.238 421.957 444.5 423.999C445.908 426.278 447 424.714 447 420.417C447 417.488 445.893 413.311 443.932 408.844C440.916 401.972 439.53 393.328 441.5 393.675C442.05 393.772 443.288 394.157 444.25 394.532C445.669 395.084 445.997 394.672 445.986 392.356C445.979 390.785 445.695 388.464 445.356 387.198C444.757 384.959 444.687 384.984 442.768 388.141C441.022 391.01 440.683 391.183 439.819 389.639C439.148 388.441 439.225 387.433 440.064 386.422C440.735 385.613 440.996 384.662 440.643 384.308C440.289 383.955 440 384.191 440 384.832C440 385.474 439.498 385.999 438.885 385.999C438.227 385.999 438.495 384.892 439.54 383.297C440.514 381.811 441.437 379.003 441.591 377.056L441.872 373.517L439.876 376.008L437.88 378.499L439.44 375.299C440.42 373.288 441 369.376 441 364.773C441 357.843 441.24 357.062 445.442 350.309C457.361 331.157 461.707 314.766 459.18 298.499C458.447 293.778 458.365 294.067 457.701 303.691ZM133 299.058C133 299.64 133.45 299.839 134 299.499C134.55 299.159 135 298.683 135 298.44C135 298.197 134.55 297.999 134 297.999C133.45 297.999 133 298.476 133 299.058ZM141.872 301.749C140.629 303.335 140.664 303.37 142.25 302.127C143.916 300.82 144.445 299.999 143.622 299.999C143.415 299.999 142.627 300.787 141.872 301.749ZM304.54 308.03C300.645 312.012 298.061 315.41 298.581 315.865C299.086 316.307 301.75 317.472 304.5 318.454C307.25 319.437 310.465 320.84 311.644 321.573C313.612 322.797 313.755 322.725 313.383 320.703C313.16 319.491 313.238 319.038 313.555 319.697C314.398 321.447 319.008 319.183 318.31 317.363C317.952 316.431 318.281 316.169 319.311 316.565C320.174 316.896 321.755 316.244 322.923 315.076C324.065 313.934 325.45 312.999 326 312.999C326.55 312.999 327 312.324 327 311.499C327 310.666 327.889 309.999 329 309.999C330.1 309.999 331 310.476 331 311.058C331 311.64 330.581 311.858 330.069 311.542C329.557 311.225 328.833 311.46 328.46 312.064C328.042 312.74 328.495 313.044 329.641 312.855C330.663 312.687 331.988 312.855 332.583 313.23C333.184 313.608 333.667 313.236 333.667 312.395C333.667 310.748 328.649 307.683 327.627 308.706C327.282 309.05 327 308.759 327 308.059C327 307.342 326.349 307.035 325.512 307.356C324.694 307.67 324.131 307.428 324.262 306.818C324.455 305.919 314.085 300.999 311.995 300.999C311.678 300.999 308.323 304.163 304.54 308.03ZM336.25 301.688C337.212 301.94 338.788 301.94 339.75 301.688C340.712 301.437 339.925 301.231 338 301.231C336.075 301.231 335.288 301.437 336.25 301.688ZM134.745 306.118C133.23 307.248 132.25 308.595 132.569 309.111C132.888 309.627 132.704 309.925 132.16 309.774C130.431 309.293 122.029 316.99 117.521 323.186C113.425 328.815 113.267 329.273 114.834 330.966C122.244 338.968 127.547 343.999 128.57 343.999C129.769 343.999 131.468 341.21 131.159 339.749C131.071 339.336 131.9 338.999 133 338.999C135.356 338.999 135.634 341.228 133.5 342.999C132.675 343.684 132.014 344.751 132.03 345.371C132.047 345.992 132.607 345.599 133.274 344.499C134.382 342.674 134.532 342.841 134.994 346.421C135.272 348.578 136.123 350.548 136.884 350.799C138.007 351.169 138.143 350.143 137.604 345.377C137.238 342.144 136.84 338.419 136.719 337.1C136.489 334.577 133.584 332.899 131 333.797C129.37 334.363 129.517 334.175 132.442 331.966C134.022 330.772 134.226 330.761 133.537 331.904C132.962 332.859 133.062 333.079 133.849 332.592C134.543 332.163 134.747 330.839 134.358 329.289C133.902 327.474 134.051 326.912 134.854 327.409C135.958 328.091 136.576 324.364 136.147 319.616C136.053 318.58 136.359 317.23 136.827 316.616C137.296 316.002 137.602 313.792 137.508 311.707C137.372 308.679 137.645 308.032 138.862 308.5C140.101 308.975 140.069 308.732 138.692 307.211C137.759 306.18 137.297 305.036 137.664 304.668C138.999 303.334 137.437 304.109 134.745 306.118ZM435.086 313.999C435.116 318.674 435.527 323.399 436 324.499C436.568 325.821 436.878 323.446 436.914 317.499C436.945 312.549 436.533 307.824 436 306.999C435.335 305.969 435.048 308.164 435.086 313.999ZM423 314.999C423 315.549 423.477 315.999 424.059 315.999C424.641 315.999 424.84 315.549 424.5 314.999C424.16 314.449 423.684 313.999 423.441 313.999C423.198 313.999 423 314.449 423 314.999ZM292.748 321.755C291.784 323.264 289.637 326.381 287.977 328.682L284.957 332.866L287.479 335.387C288.983 336.891 290 339.047 290 340.731C290 342.322 290.878 344.306 292.011 345.277C294.482 347.392 295.688 347.533 294.01 345.511C293.011 344.307 293.078 343.906 294.362 343.414C295.764 342.875 295.776 342.633 294.465 341.321C292.851 339.707 293.461 337.548 295.224 338.637C295.84 339.018 296.024 338.847 295.649 338.241C295.287 337.654 296.23 336.248 297.745 335.118C299.26 333.987 299.938 333.048 299.25 333.031C298.563 333.013 298 332.627 298 332.172C298 331.717 299.32 331.539 300.934 331.776C303.569 332.163 303.807 331.976 303.273 329.934C302.783 328.063 302.991 327.782 304.451 328.342C305.767 328.847 306.073 328.633 305.643 327.51C305.281 326.568 305.638 325.999 306.59 325.999C307.431 325.999 307.84 325.549 307.5 324.999C306.693 323.693 307.614 323.733 310.316 325.121C311.578 325.77 312.078 325.809 311.5 325.214C310.085 323.758 298.417 318.998 296.28 319.005C295.301 319.009 293.712 320.246 292.748 321.755ZM444 328.999C444 330.269 447.035 330.269 449 328.999C450.138 328.263 449.716 328.026 447.25 328.014C445.462 328.006 444 328.449 444 328.999ZM140 330.999C140 332.263 142.043 332.263 144 330.999C145.169 330.244 144.893 330.026 142.75 330.014C141.238 330.006 140 330.449 140 330.999ZM422.5 330.999C421.708 332.281 426.017 332.281 428 330.999C429.141 330.261 428.737 330.026 426.309 330.014C424.554 330.006 422.84 330.449 422.5 330.999ZM228.682 334.117C227.682 334.699 221.607 335.389 215.182 335.652C208.736 335.916 199.69 337.027 195 338.132C190.325 339.233 185.375 340.386 184 340.694C180.183 341.549 177 344.964 177 348.205C177 349.822 176.349 351.312 175.5 351.637C174.675 351.954 174 353.235 174 354.484C174 357.532 171.59 359.364 168.574 358.607C167.226 358.269 165.826 358.471 165.464 359.057C165.102 359.643 163.751 360.523 162.463 361.013C160.6 361.721 160.056 362.77 159.81 366.127C159.501 370.334 157.279 372.698 151.842 374.603C149.236 375.516 149.047 378.41 151.08 386.237C152.117 390.231 152.973 394.421 152.983 395.548C152.997 397.29 153.562 397.561 156.75 397.355L160.5 397.112L156.75 398.232C154.328 398.955 153 399.953 153 401.05C153 401.985 152.723 404.132 152.385 405.823L151.77 408.898L158.135 409.256L164.5 409.614L157.968 409.806L151.437 409.999L150.091 414.557C149.351 417.063 147.419 421.563 145.798 424.557L142.85 429.999L145.675 430.131C148.243 430.25 148.183 430.319 145.021 430.881C142.434 431.341 141.303 432.183 140.606 434.171C139.749 436.615 140.159 437.292 145.416 442.096C148.577 444.985 152.876 449.857 154.97 452.924C157.064 455.99 160.007 459.624 161.511 460.999C163.014 462.374 167.507 467.789 171.494 473.032C179.872 484.048 188.041 491.872 194.357 494.93C196.793 496.109 202.609 498.126 207.281 499.411L215.776 501.748L216.442 496.624C217.657 487.278 221.815 473.629 226.534 463.499L231.191 453.499L230.877 419.499C230.425 370.696 230.431 369.258 231.174 350.249C231.545 340.761 231.545 333.013 231.174 333.029C230.803 333.046 229.682 333.536 228.682 334.117ZM232.579 351.249C232.191 361.287 232.186 388.399 232.568 411.499L233.263 453.499L236.453 459.999C238.208 463.574 241.477 470.099 243.719 474.499C248.245 483.383 251.992 493.957 252.015 497.914C252.042 502.375 253.268 503.298 258.084 502.485C260.466 502.082 265.195 500.707 268.593 499.428C271.99 498.149 274.965 497.298 275.203 497.536C275.442 497.774 278.287 495.833 281.527 493.223C285.502 490.021 289.147 485.718 292.738 479.99C295.664 475.322 299.62 469.854 301.529 467.84C304.825 464.362 305.897 462.045 304.25 461.961C303.837 461.939 301.25 459.851 298.5 457.32C292.955 452.217 294.011 452.65 301.27 458.457C305.682 461.986 306.172 462.153 307.797 460.683C308.763 459.808 311.117 456.13 313.027 452.509L316.5 445.925L312.5 442.208C310.3 440.164 306.475 436.74 304 434.6C301.525 432.46 300.175 431.068 301 431.509C302.569 432.346 308.45 437.049 313.406 441.43C315.004 442.843 316.653 443.999 317.072 443.999C317.49 443.999 319.266 442.189 321.018 439.976L324.205 435.953L319.852 431.862C315.401 427.677 317.361 428.469 322.148 432.789C324.703 435.094 324.889 435.118 327.398 433.474C328.829 432.536 330 431.481 330 431.129C330 430.778 327.997 428.917 325.549 426.994C323.101 425.072 320.851 422.898 320.548 422.164C319.962 420.743 326.819 425.871 328.969 428.461C329.671 429.307 330.64 429.999 331.122 429.999C332.773 429.999 332.002 427.482 329.961 426.207C328.84 425.507 328.189 424.502 328.515 423.975C328.841 423.448 327.546 420.2 325.637 416.758C321.474 409.248 318.775 396.234 319.097 385.219C319.283 378.846 319.025 377.506 317.35 376.122C316.269 375.229 314.874 373.296 314.249 371.826C313.583 370.259 312.169 369.018 310.832 368.826C309.577 368.646 308.001 367.393 307.329 366.041C306.658 364.689 305.122 363.218 303.917 362.773C301.945 362.043 301.785 361.465 302.312 357.008C303.014 351.083 302.163 350.295 296.926 352.023C292.405 353.515 290 352.278 290 348.46C290 347.198 289.438 345.978 288.75 345.749C288.034 345.51 287.5 343.659 287.5 341.415C287.5 337.849 287.148 337.327 283.563 335.577C279.972 333.825 279.007 333.765 272.563 334.903C256.739 337.697 252.543 338.04 245.736 337.096C241.961 336.573 237.792 335.437 236.471 334.572C235.151 333.707 233.894 332.999 233.677 332.999C233.461 332.999 232.967 341.211 232.579 351.249ZM132.5 336.999C132.16 337.549 132.359 337.999 132.941 337.999C133.523 337.999 134 337.549 134 336.999C134 336.449 133.802 335.999 133.559 335.999C133.316 335.999 132.84 336.449 132.5 336.999ZM437 342.832C437 346.774 437.424 349.999 437.943 349.999C438.806 349.999 438.276 337.096 437.372 336.082C437.167 335.853 437 338.891 437 342.832ZM410 337.999C410 338.549 410.477 338.999 411.059 338.999C411.641 338.999 411.84 338.549 411.5 337.999C411.16 337.449 410.684 336.999 410.441 336.999C410.198 336.999 410 337.449 410 337.999ZM34.358 354.499C34.624 355.599 35.149 357.564 35.525 358.865C35.901 360.166 35.658 364.771 34.985 369.098C33.788 376.788 33.824 377.113 36.547 383.521C38.079 387.127 39.333 390.735 39.333 391.538C39.333 392.342 39.693 392.999 40.131 392.999C41.645 392.999 43 389.119 43 384.787C43 380.192 45.163 375.999 47.534 375.999C50.084 375.999 51.934 380.425 52.563 388.032C53.362 397.708 54.549 401.416 58.166 405.535C60.496 408.189 69.726 412.999 72.489 412.999C72.717 412.999 72.303 411.572 71.57 409.827C70.824 408.054 70.463 404.968 70.75 402.827C71.096 400.246 70.876 398.999 70.073 398.999C69.418 398.999 69.16 399.449 69.5 399.999C70.241 401.198 67.291 401.198 64.5 399.999C62.656 399.206 62.695 399.128 65 398.993C67.354 398.855 67.314 398.778 64.322 397.673C57.453 395.136 58.967 394.182 66.341 396.401C68.903 397.172 71 397.456 71 397.031C71 396.606 68.963 395.689 66.474 394.992C63.985 394.295 61.738 393.384 61.481 392.969C61.052 392.274 63.548 392.674 70 394.333C71.375 394.687 70.274 393.927 67.553 392.645C62.653 390.336 62.633 390.308 65.421 389.608C66.969 389.22 68.483 389.149 68.785 389.45C69.086 389.752 68.471 390.028 67.417 390.062C65.825 390.115 65.906 390.288 67.895 391.084C69.213 391.611 70.511 391.822 70.78 391.553C71.852 390.481 68.311 384.26 63.784 379.261C57.361 372.168 57.595 367.999 64.415 367.999C66.801 367.999 68.586 369.228 72.965 373.889C76.009 377.129 79.573 380.103 80.885 380.499L83.27 381.219L80.706 377.858C79.296 376.009 77.269 372.472 76.201 369.998C72.728 361.951 71.679 361.499 56.475 361.499C42.084 361.499 41.982 361.465 35.687 354.504C33.877 352.502 33.875 352.502 34.358 354.499ZM425.992 363.236C422.192 366.031 420.581 366.522 413.563 367.027C405.495 367.608 404.975 368.678 412.5 369.214C416.289 369.484 415.987 369.676 406.759 372.857C397.378 376.092 396.651 376.19 387.129 375.508C380.61 375.042 377.022 375.155 376.598 375.841C376.218 376.456 376.885 376.831 378.227 376.757C379.477 376.689 383.2 376.738 386.5 376.866L392.5 377.1L382.934 380.3C373.5 383.455 367.291 386.623 368.389 387.721C368.698 388.031 369.525 387.81 370.226 387.23C371.626 386.072 382.218 381.883 382.651 382.316C382.799 382.465 381.191 384.479 379.076 386.793C373.764 392.604 375.345 392.077 381.522 385.978C385.786 381.766 387.791 380.621 393.957 378.876C398 377.732 403.292 375.946 405.716 374.907L410.123 373.017L408.015 375.978C406.856 377.606 405.475 379.206 404.946 379.532C404.418 379.859 403.308 381.56 402.479 383.312C401.65 385.065 401.54 385.623 402.236 384.553C405.723 379.186 413.028 372.563 418.919 369.427C426.033 365.641 431.743 361.409 430.89 360.556C430.598 360.264 428.394 361.47 425.992 363.236ZM435.22 370.292C433.999 373.85 433 377.396 433 378.172C433 378.948 430.75 383.507 428 388.303C425.25 393.099 423 397.468 423 398.011C423 400.418 424.724 398.463 427.458 392.957C429.085 389.68 430.758 386.999 431.176 386.999C431.595 386.999 431.683 387.663 431.371 388.473C431.06 389.284 432.051 393.208 433.574 397.192C435.096 401.177 436.669 405.801 437.069 407.468L437.795 410.499L437.898 407.287C437.954 405.52 437.005 401.47 435.79 398.287C432.905 390.735 432.922 382.605 435.841 373.163C438.7 363.918 438.201 361.608 435.22 370.292ZM442.564 382.292C442.94 383.278 443.499 383.833 443.807 383.525C444.115 383.218 443.808 382.411 443.124 381.732C442.136 380.752 442.022 380.867 442.564 382.292ZM362.5 387.999C362.125 389.182 362.042 390.375 362.317 390.65C362.592 390.925 363.125 390.182 363.5 388.999C363.875 387.816 363.958 386.623 363.683 386.348C363.408 386.073 362.875 386.816 362.5 387.999ZM390 388.999C389.361 390.193 389.063 391.395 389.338 391.67C389.613 391.945 390.361 391.193 391 389.999C391.639 388.805 391.937 387.603 391.662 387.328C391.387 387.053 390.639 387.805 390 388.999ZM431.079 396.582C431.127 397.747 431.364 397.984 431.683 397.187C431.972 396.465 431.936 395.602 431.604 395.27C431.272 394.938 431.036 395.528 431.079 396.582ZM427.157 406.838C424.809 411.425 423.042 415.925 423.23 416.838C423.431 417.814 424.711 416.035 426.333 412.526C427.851 409.241 429.784 405.791 430.627 404.859C431.471 403.927 431.995 402.114 431.793 400.831C431.504 398.993 430.523 400.263 427.157 406.838ZM431 411.639C431 413.773 431.641 415.748 432.551 416.412C433.403 417.036 434.475 419.785 434.933 422.523C435.741 427.359 436.408 427.044 436.038 421.999C435.851 419.448 432.03 407.999 431.366 407.999C431.165 407.999 431 409.637 431 411.639ZM155.768 414.724C157.565 414.946 160.265 414.942 161.768 414.714C163.271 414.485 161.8 414.303 158.5 414.309C155.2 414.314 153.971 414.501 155.768 414.724ZM431.493 422.749C431.497 425.362 431.125 429.749 430.668 432.499C429.999 436.514 430.084 437.257 431.096 436.271C432.552 434.852 433.725 417.999 432.368 417.999C431.882 417.999 431.488 420.136 431.493 422.749ZM325.226 422.573C326.176 423.567 327.227 424.106 327.562 423.77C327.897 423.435 327.12 422.622 325.836 421.963C323.603 420.818 323.576 420.845 325.226 422.573ZM321 427.859C323.475 430.105 325.95 431.943 326.5 431.944C327.653 431.945 321.481 426.483 318.5 424.863C317.4 424.266 318.525 425.614 321 427.859ZM148.25 426.688C149.213 426.94 150.787 426.94 151.75 426.688C152.713 426.437 151.925 426.231 150 426.231C148.075 426.231 147.287 426.437 148.25 426.688ZM301 426.377C301 426.584 301.788 427.372 302.75 428.127C304.336 429.37 304.371 429.335 303.128 427.749C301.821 426.083 301 425.554 301 426.377ZM28.17 434.999C28.186 438.574 28.56 442.624 29 443.999C29.566 445.768 29.809 444.452 29.83 439.499C29.846 435.649 29.473 431.599 29 430.499C28.407 429.118 28.15 430.511 28.17 434.999ZM305.75 430.174C307.681 432.537 319.006 441.236 318.953 440.315C318.905 439.489 309.096 431.278 306.118 429.572C304.756 428.792 304.698 428.887 305.75 430.174ZM318 435.499C319.292 436.874 320.574 437.999 320.849 437.999C321.124 437.999 320.292 436.874 319 435.499C317.708 434.124 316.426 432.999 316.151 432.999C315.876 432.999 316.708 434.124 318 435.499ZM298 436.202C301.113 439.333 313.057 448.997 313.763 448.956C314.773 448.898 306.503 441.697 301 437.844C298.525 436.111 297.175 435.372 298 436.202ZM322.793 440.749C320.803 443.362 317.271 448.874 314.945 452.999C312.618 457.124 308.106 463.299 304.918 466.721C301.73 470.143 297.295 476.07 295.063 479.891C290.001 488.558 287.228 491.876 282.04 495.472C276.507 499.306 262.885 503.999 257.29 503.999H252.725L253.569 512.749C254.033 517.562 254.432 544.449 254.456 572.499C254.48 600.549 254.864 624.062 255.309 624.749C257.037 627.419 264.983 625.504 272.13 620.696C275.408 618.49 276.696 613.689 277.519 600.612C278.501 584.995 280.552 574.502 284.056 567.16C287.742 559.438 292.947 552.075 294.75 552.03C296.802 551.979 296.178 550.305 293.25 548.008C291.738 546.822 291.175 546.177 292 546.577C292.825 546.976 294.259 547.954 295.187 548.749C296.115 549.544 297.352 549.899 297.937 549.538C299.129 548.801 299.423 537.002 298.25 536.994C297.837 536.991 296.15 535.843 294.5 534.441C292.4 532.658 292.158 532.211 293.694 532.952C294.901 533.534 296.165 534.457 296.503 535.004C298.178 537.714 298.86 535.081 298.917 525.684C298.989 513.934 300.981 500.948 303.539 495.558C304.497 493.54 308.358 487.785 312.12 482.769C320.528 471.556 324.576 462.136 326.516 449.266C328.842 433.836 328.556 433.183 322.793 440.749ZM459.5 436.999C459.16 437.549 459.359 437.999 459.941 437.999C460.523 437.999 461 437.549 461 436.999C461 436.449 460.802 435.999 460.559 435.999C460.316 435.999 459.84 436.449 459.5 436.999ZM144.405 449.771C145.124 458.304 148.192 467.877 152.01 473.499C153.504 475.699 155.077 478.624 155.507 479.999C155.936 481.374 158.451 486.399 161.096 491.166C163.741 495.932 166.613 502.007 167.477 504.666C169.382 510.519 170.776 527.318 170.344 539.218L170.028 547.937L176.564 555.218C187.91 567.857 191.614 576.084 195.018 596.212C197.884 613.157 198.503 615.109 202.233 618.943C208.48 625.366 220.019 628.924 224.305 625.749C225.771 624.663 225.86 623.713 224.984 618.499C221.688 598.895 220.749 588.647 219.948 563.499C219.457 548.099 218.383 530.324 217.562 523.999C216.74 517.674 216.053 510.43 216.034 507.9L216 503.302L207.44 501.041C197.222 498.341 188.986 494.39 183.134 489.382C180.773 487.361 174.897 480.486 170.077 474.103C165.257 467.721 160.499 461.825 159.504 461C158.509 460.176 155.873 457.026 153.647 454C151.42 450.975 148.291 447.149 146.695 445.499L143.792 442.499L144.405 449.771ZM298 444.37C298 444.613 300.363 446.448 303.25 448.447C308.046 451.769 308.197 451.814 305 448.972C301.474 445.836 298 443.553 298 444.37ZM359.07 450.308C359.026 453.942 359.374 455.886 360 455.499C361.2 454.757 361.2 449.292 360 446.499C359.383 445.063 359.121 446.138 359.07 450.308ZM16.5 446.999C17.281 448.263 20.044 448.263 22 446.999C23.113 446.279 22.519 446.026 19.691 446.014C17.403 446.005 16.129 446.398 16.5 446.999ZM37.5 446.999C37.84 447.549 38.74 447.999 39.5 447.999C40.26 447.999 41.16 447.549 41.5 446.999C41.852 446.43 40.991 445.999 39.5 445.999C38.009 445.999 37.148 446.43 37.5 446.999ZM300.974 453.749C307.32 459.24 309.352 459.942 303.5 454.622C300.75 452.121 298.082 450.059 297.57 450.037C297.059 450.016 298.59 451.687 300.974 453.749ZM29.07 457.19C29.18 465.511 30.845 467.855 30.93 459.808C30.968 456.128 30.55 452.839 30 452.499C29.378 452.115 29.027 453.889 29.07 457.19ZM227.305 466.066C219.159 485.563 217.552 492.335 217.712 506.499C217.787 513.099 218.59 522.999 219.498 528.499C220.534 534.775 221.471 549.3 222.013 567.499C222.665 589.361 223.377 599.206 224.907 607.499C226.024 613.549 226.966 619.849 227 621.499L227.063 624.499L229.577 621.499C230.96 619.849 232.936 617.486 233.97 616.249C237.13 612.464 241.041 613.27 247.31 618.999C250.319 621.749 252.954 623.999 253.167 623.999C253.379 623.999 253.378 622.166 253.164 619.925C252.877 616.914 252.218 615.627 250.638 614.989C248.926 614.298 248.848 614.113 250.25 614.062C251.213 614.028 252 613.582 252 613.072C252 612.563 251.213 611.94 250.25 611.688C248.583 611.253 248.583 611.225 250.25 611.115C251.492 611.033 252 610.149 252 608.069C252 605.825 251.473 605.037 249.75 604.705L247.5 604.271L249.75 604.135C251.023 604.058 252 603.348 252 602.499C252 601.342 250.704 600.999 246.333 600.999C239.53 600.999 239.589 600.329 246.443 599.756C249.161 599.529 251.543 598.869 251.737 598.289C251.966 597.602 250.454 597.419 247.394 597.764C244.012 598.145 242.898 597.972 243.409 597.146C243.799 596.515 245.918 595.999 248.118 595.999C250.54 595.999 251.873 595.603 251.498 594.995C251.157 594.443 249.78 594.267 248.439 594.604C246.952 594.977 246 594.783 246 594.107C246 593.498 247.35 592.999 249 592.999C252.863 592.999 253.069 590.294 249.25 589.715L246.5 589.299L249.25 589.149C253.062 588.941 252.705 587.213 248.75 586.722L245.5 586.319L248.809 586.159C252.423 585.984 252.324 584.077 248.691 583.881C246.988 583.789 247.168 583.592 249.5 582.999C252.168 582.32 252.233 582.223 250.083 582.117C247.745 582.003 247.977 580.499 250.333 580.499C250.975 580.499 251.64 579.286 251.811 577.803C252.11 575.213 251.914 575.093 246.811 574.738L241.5 574.369L246.75 574.184C250.668 574.046 252 573.618 252 572.499C252 571.338 250.588 570.973 245.75 570.884C240.144 570.781 239.892 570.693 243.303 570.033C245.395 569.628 248.207 569.507 249.553 569.764C251.333 570.105 252 569.791 252 568.616C252 567.325 250.903 566.999 246.559 566.999C243.566 566.999 240.84 566.549 240.5 565.999C240.112 565.371 242.323 564.999 246.441 564.999C251.605 564.999 253 564.68 253 563.499C253 562.342 251.704 561.999 247.333 561.999C244.217 561.999 242.005 561.662 242.418 561.249C242.831 560.836 245.236 560.484 247.762 560.467C250.456 560.447 252.523 559.931 252.761 559.217C253.036 558.392 251.847 557.999 249.083 557.999C246.83 557.999 245 557.516 245 556.921C245 556.287 246.505 555.978 248.656 556.171C252.468 556.513 254.576 554.547 251.305 553.699C249.646 553.269 249.642 553.222 251.25 553.115C254.495 552.9 253.032 551.124 248.75 550.082L244.5 549.048L248.808 549.436C252.964 549.811 253.105 549.731 252.808 547.162C252.538 544.826 251.948 544.425 248 543.899L243.5 543.299L248.333 543.149C254.491 542.958 254.212 540.752 247.922 539.899L243.5 539.299L248.45 539.149C253.74 538.989 253.772 537.476 248.5 536.726C245.84 536.347 245.933 536.282 249.316 536.149C252.86 536.01 253.11 535.803 252.816 533.249C252.555 530.979 251.889 530.391 249 529.881L245.5 529.262L248.75 529.131L252 528.999L251.985 520.249C251.969 511.237 251.573 509.707 249 508.728C247.805 508.273 247.856 508.141 249.25 508.078C252.147 507.947 251.217 506 248.25 505.984C246.738 505.975 244.825 505.489 244 504.903C242.886 504.111 243.592 503.99 246.75 504.43C251.812 505.136 252.486 503.523 247.75 502.036C244.896 501.14 244.838 501.059 247.274 501.373C250.669 501.811 251.98 500.25 248.791 499.567C247.531 499.298 245.6 498.887 244.5 498.654C243.4 498.421 244.188 498.179 246.25 498.115C251.15 497.963 251.592 495.072 246.75 494.849C243.725 494.71 243.69 494.67 246.25 494.283C248.158 493.994 249 493.274 249 491.933C249 490.301 248.257 489.989 244.25 489.936C240.19 489.881 239.848 489.733 241.895 488.914C243.212 488.387 245.125 488.221 246.145 488.545C248.416 489.266 248.431 488.97 246.335 484.576C245.42 482.656 244.298 481.315 243.843 481.596C243.388 481.877 242.225 481.647 241.258 481.084C239.683 480.166 239.734 480.057 241.75 480.029C242.988 480.013 244 479.802 244 479.562C244 479.322 241.859 474.709 239.243 469.312C236.627 463.915 234.039 458.179 233.493 456.566C232.545 453.768 232.261 454.203 227.305 466.066ZM348.5 458.999C351.231 460.173 352 460.173 352 458.999C352 458.449 350.762 458.031 349.25 458.069C346.813 458.132 346.728 458.237 348.5 458.999ZM359.015 468.69C359.026 472.809 359.313 474.063 360 472.999C361.276 471.025 361.276 464.287 360 463.499C359.377 463.114 359.006 465.068 359.015 468.69ZM126.5 499.999C126.16 500.549 126.359 500.999 126.941 500.999C127.523 500.999 128 500.549 128 499.999C128 499.449 127.802 498.999 127.559 498.999C127.316 498.999 126.84 499.449 126.5 499.999ZM102.5 514.999C101.181 515.566 101.011 515.877 102 515.913C102.825 515.944 104.175 515.532 105 514.999C106.828 513.818 105.249 513.818 102.5 514.999ZM112.195 530.499C112.215 532.149 112.439 532.703 112.693 531.73C112.947 530.757 112.93 529.407 112.656 528.73C112.382 528.053 112.175 528.849 112.195 530.499ZM291.083 528.282C291.313 528.438 292.4 529.225 293.5 530.032C295.35 531.389 295.397 531.368 294.128 529.749C293.373 528.787 292.285 527.999 291.711 527.999C291.137 527.999 290.854 528.126 291.083 528.282ZM293.273 538.999C294.671 540.099 296.194 540.989 296.658 540.977C297.75 540.948 292.781 537.051 291.615 537.021C291.128 537.009 291.874 537.899 293.273 538.999ZM245.75 546.705C246.988 546.943 249.012 546.943 250.25 546.705C251.488 546.466 250.475 546.271 248 546.271C245.525 546.271 244.512 546.466 245.75 546.705ZM286.5 548.604C290.13 551.402 292.56 552.228 289.5 549.624C287.85 548.22 286.05 547.069 285.5 547.067C284.95 547.064 285.4 547.756 286.5 548.604ZM453.464 554.552C453.759 559.858 454.932 563.428 455.062 559.416C455.096 558.361 455.344 555.586 455.612 553.249C455.991 549.953 455.77 548.999 454.628 548.999C453.471 548.999 453.222 550.189 453.464 554.552ZM285.306 552.439C286.849 553.847 288.649 554.985 289.306 554.967C290.61 554.932 287.689 552.439 284.5 550.865C283.182 550.215 283.457 550.752 285.306 552.439ZM245.75 553.661C246.438 553.939 247.563 553.939 248.25 553.661C248.938 553.384 248.375 553.157 247 553.157C245.625 553.157 245.063 553.384 245.75 553.661ZM114.058 560.749C114.089 562.262 114.497 565.299 114.965 567.499C115.723 571.072 115.802 570.779 115.701 564.749C115.639 561.037 115.231 557.999 114.794 557.999C114.357 557.999 114.026 559.236 114.058 560.749ZM444.192 563.074C444.389 563.665 444.876 564.115 445.275 564.074C445.674 564.033 447.125 563.999 448.5 563.999C449.875 563.999 451 563.549 451 562.999C451 562.449 449.387 561.999 447.417 561.999C445.306 561.999 443.981 562.441 444.192 563.074ZM67.264 563.717C68.784 563.946 71.034 563.94 72.264 563.703C73.494 563.466 72.25 563.278 69.5 563.285C66.75 563.293 65.744 563.487 67.264 563.717ZM460.813 563.682C461.534 563.971 462.397 563.935 462.729 563.603C463.061 563.271 462.471 563.035 461.417 563.078C460.252 563.126 460.015 563.363 460.813 563.682ZM56.279 569.547C50.878 572.239 43 579.909 43 582.477C43 583.528 44.007 583.999 46.257 583.999C51.338 583.999 55.705 582.401 60.07 578.943C65.456 574.678 70.255 574.702 76.541 579.027C79.063 580.762 81.639 583.378 82.266 584.84C82.892 586.303 83.47 587.617 83.549 587.762C83.628 587.907 85.41 586.405 87.51 584.425C91.919 580.267 94.476 579.117 99.729 578.931C105.4 578.73 109 577.949 109 576.92C109 576.413 107.93 575.999 106.622 575.999C105.315 575.999 103.627 575.251 102.872 574.336C102.118 573.422 99.526 571.799 97.113 570.729C93.171 568.982 92.134 568.909 86.909 570.018C81.89 571.083 80.527 571.027 76.98 569.608C74.718 568.703 72.479 568.203 72.003 568.497C71.527 568.791 70.856 568.574 70.51 568.015C69.324 566.097 61.516 566.937 56.279 569.547ZM453.707 569.749C453.418 571.262 453.577 573.174 454.06 573.999C454.665 575.031 454.949 574.174 454.97 571.249C455.004 566.379 454.473 565.747 453.707 569.749ZM398.559 570.531C397.232 571.534 394.115 571.999 388.71 571.999C379.97 571.999 375.106 573.663 372.581 577.515C371.095 579.784 371.25 580.064 377.413 586.227C383.705 592.519 383.807 592.573 385.985 590.81C389.013 588.359 395.711 586.697 400.16 587.294C403.964 587.804 412.576 584.598 416.191 581.326C417.78 579.888 417.727 579.543 415.361 575.968C411.271 569.788 403.056 567.13 398.559 570.531ZM243.762 577.706C245.006 577.945 246.806 577.936 247.762 577.686C248.718 577.436 247.7 577.24 245.5 577.251C243.3 577.262 242.518 577.467 243.762 577.706ZM289.606 578.415C289.941 579.286 290.653 579.999 291.19 579.999C292.505 579.999 291.682 577.726 290.187 577.228C289.456 576.984 289.233 577.442 289.606 578.415ZM61.533 581.629C56.351 585.587 52.094 586.938 44.7 586.975C30.199 587.047 21.361 603.706 28.686 617.163L31.372 622.098L33.614 619.233C34.848 617.657 37.689 615.541 39.928 614.531C42.168 613.521 44 612.062 44 611.288C44 610.514 44.457 610.164 45.016 610.509C45.575 610.855 45.774 611.556 45.457 612.068C45.141 612.58 45.569 612.999 46.41 612.999C47.424 612.999 47.723 612.439 47.299 611.335C46.869 610.216 47.043 609.908 47.83 610.394C48.474 610.792 49.036 611.878 49.079 612.808C49.123 613.757 49.371 613.974 49.644 613.304C49.911 612.647 49.614 611.146 48.984 609.969C47.673 607.519 48.621 605.797 50.053 608.028C50.69 609.021 50.788 608.361 50.355 605.999C49.506 601.372 51.037 602.88 53.219 608.82C54.875 613.33 54.917 613.363 54.358 609.749C53.981 607.317 54.168 605.999 54.889 605.999C55.5 605.999 56.032 606.787 56.07 607.749C56.13 609.234 56.262 609.197 56.943 607.499C57.666 605.697 57.905 605.846 59.362 608.999C60.252 610.924 60.78 611.599 60.537 610.499C58.755 602.44 58.754 602.363 60.432 604.44C61.294 605.508 62 607.195 62 608.19C62 609.185 62.456 609.999 63.013 609.999C63.606 609.999 63.398 608.495 62.513 606.377C60.917 602.557 60.483 599.157 61.75 600.403C62.163 600.809 63.175 603.119 64 605.537C64.988 608.433 65.901 609.684 66.676 609.202C67.552 608.658 67.379 607.074 65.999 602.996C64.17 597.592 64.202 595.164 66.066 598.028C66.592 598.837 67.529 601.441 68.147 603.814C69.54 609.166 71.238 607.99 70.006 602.526C69.514 600.342 69.246 598.419 69.412 598.254C70.366 597.3 73.114 599.603 73.671 601.823C74.268 604.204 74.39 604.259 75.092 602.463C75.514 601.383 75.891 601.062 75.93 601.749C75.974 602.536 77.532 602.999 80.139 602.999H84.279L83.706 598.249C83.039 592.721 79.867 585.094 77.25 582.725C75.433 581.081 68.864 577.999 67.176 577.999C66.687 577.999 64.148 579.633 61.533 581.629ZM115.398 584.249C115.733 587.07 115.563 588.999 114.981 588.999C114.441 588.999 114 588.602 114 588.118C114 587.633 112.413 586.026 110.473 584.546C107.685 582.419 105.853 581.856 101.723 581.857C95.193 581.857 92.373 582.941 88.227 587.043C86.022 589.224 85.143 590.875 85.533 592.104C85.851 593.106 86.131 596.305 86.155 599.213C86.179 602.12 86.89 606.046 87.736 607.937C88.581 609.829 89.273 613.039 89.273 615.071V618.766L93.568 616.866C105.78 611.464 118.708 617.711 116.646 628.018C115.895 631.776 118.75 638.309 120.8 637.522C123.507 636.483 127.808 632.459 130.391 628.549C134.68 622.055 133.481 614.1 127.124 606.876C119.928 598.699 117.002 593.123 116.985 587.553C116.976 584.773 116.489 581.824 115.902 580.999C115.112 579.888 114.981 580.73 115.398 584.249ZM359.214 583.741C357.956 584.743 355.867 587.851 354.571 590.648C352.022 596.15 347.596 600.081 341.897 601.904C335.371 603.992 332 609.231 332 617.284C332 622.768 334.525 629.075 338.66 633.923C341.494 637.245 353.08 644.471 353.834 643.387C355.706 640.696 360.611 637.999 363.635 637.999C366.926 637.999 367 637.906 367.006 633.749C367.017 625.074 370.803 618.338 376.659 616.573C378.611 615.984 378.723 615.578 377.823 612.322C376.62 607.964 377.471 602.659 380.095 598.155L382.043 594.812L378.921 591.257C373.425 584.996 370.118 582.763 365.703 582.331C362.674 582.035 360.861 582.429 359.214 583.741ZM418 584.057C411.936 588.94 406.297 590.999 398.984 590.999C390.779 590.999 387.278 592.456 383.462 597.461C380.549 601.28 379.395 606.962 380.422 612.436C381.284 617.03 383.183 617.026 388.981 612.418C391.445 610.459 394.707 608.608 396.231 608.303C398.075 607.934 399 607.123 399 605.874C399 603.508 400.701 603.415 401.311 605.749C401.655 607.066 401.797 606.942 401.884 605.249C401.948 604.012 402.45 602.999 403 602.999C403.55 602.999 404.036 604.012 404.079 605.249C404.122 606.486 404.385 606.937 404.662 606.249C404.94 605.562 405.632 604.999 406.2 604.999C407.232 604.999 406.912 607.94 405.522 611.249C405.106 612.238 405.22 612.999 405.785 612.999C406.334 612.999 407.066 611.874 407.411 610.499C408.366 606.694 410.368 607.367 409.643 611.249C409.107 614.115 409.194 614.292 410.378 612.749C411.926 610.731 414.981 610.403 415.039 612.249C415.061 612.937 415.804 611.924 416.691 609.999C417.944 607.281 418.402 606.906 418.739 608.321C419.16 610.083 419.219 610.083 420.555 608.321C421.878 606.577 421.939 606.584 421.99 608.499C422.04 610.34 422.196 610.301 423.954 608.014C426.684 604.461 427.2 605.837 424.99 610.773C422.821 615.617 423.181 616.483 425.5 611.999C426.994 609.109 429 607.952 429 609.98C429 610.519 427.397 613.556 425.438 616.73C422.147 622.06 422.478 621.892 427.307 615.784L429.113 613.499L428.538 616.249C427.846 619.554 429.878 620.026 431.768 616.999C433.442 614.319 434.917 614.46 434.378 617.249L433.944 619.499L434.94 617.249C436.151 614.512 438.385 614.21 437.532 616.898C437.127 618.173 437.882 619.842 439.829 621.973C443.257 625.727 444 624.816 444 616.86C444 612.312 441.381 605.686 437.88 601.377C437.378 600.76 435.851 596.972 434.486 592.958C433.121 588.945 431.259 584.837 430.347 583.83C428.054 581.296 421.274 581.42 418 584.057ZM17.995 596.901C8.797 598.198 5.462 603.639 8.317 612.69C10.872 620.792 11.101 624.297 9.437 629.9C6.135 641.02 10.543 648.713 22.119 652.033C24.151 652.616 25.003 652.434 25.428 651.327C26.271 649.13 26.189 648.999 23.965 648.999C22.24 648.999 22.093 648.694 23 646.999C23.589 645.899 23.691 644.999 23.226 644.999C22.762 644.999 21.509 644.298 20.441 643.441C18.634 641.99 18.846 641.917 23.5 642.392L28.5 642.901L24.32 641.7C19.269 640.249 17.786 639.005 21.083 638.984C23.011 638.971 23.196 638.772 22 637.999C20.34 636.926 21.039 636.714 25.5 636.936C27.693 637.045 28.12 636.829 27.088 636.133C25.886 635.322 25.913 634.943 27.266 633.59C28.141 632.715 29.339 631.999 29.929 631.999C32.129 631.999 30.885 626.05 27.514 620.452C22.682 612.428 21.962 607.006 24.565 598.249C25.292 595.801 25.499 595.843 17.995 596.901ZM442.178 598.057L439.856 598.988L441.786 601.743C444.198 605.185 448.003 615.333 447.99 618.287C447.985 619.503 446.86 622.906 445.49 625.848C442.156 633.011 442.284 635.944 446.089 639.562C449.877 643.163 452 647.073 452 650.449C452 653.556 453.835 653.711 459.599 651.094C466.129 648.128 467.75 644.951 467.558 635.499C467.469 631.099 466.599 624.124 465.625 619.999C464.651 615.874 463.41 610.48 462.867 608.012C461.782 603.074 459.903 600.518 455.802 598.397C452.763 596.825 445.689 596.649 442.178 598.057ZM106.5 598.999C106.84 599.549 107.316 599.999 107.559 599.999C107.802 599.999 108 599.549 108 598.999C108 598.449 107.523 597.999 106.941 597.999C106.359 597.999 106.16 598.449 106.5 598.999ZM125.885 600.838C126.997 602.399 128.636 604.282 129.526 605.021C135.022 609.582 137.466 623.587 133.754 629.252C132.054 631.846 132.072 631.98 134.435 634.343C137.652 637.56 139.36 644.256 138.605 650.689C138.271 653.543 138.371 656.11 138.829 656.393C139.977 657.103 149.015 647.96 151.208 643.871C153.636 639.345 153.448 635.504 150.49 629.15C149.121 626.208 147.989 621.933 147.976 619.65C147.891 605.369 141.848 598.018 130.182 598.006L123.864 597.999L125.885 600.838ZM140.5 604.999C140.84 605.549 141.316 605.999 141.559 605.999C141.802 605.999 142 605.549 142 604.999C142 604.449 141.523 603.999 140.941 603.999C140.359 603.999 140.16 604.449 140.5 604.999ZM242.75 604.661C243.438 604.939 244.563 604.939 245.25 604.661C245.938 604.384 245.375 604.157 244 604.157C242.625 604.157 242.063 604.384 242.75 604.661ZM76 607.491C74.625 608.296 71.475 609.893 69 611.041C60.378 615.04 59.663 615.517 57.866 618.466C54.878 623.369 54.503 629.124 56.845 634.136C57.966 636.536 59.56 639.34 60.388 640.367C61.838 642.166 61.98 642.134 64.252 639.492C67.189 636.078 71.207 635.905 74.552 639.048C76.072 640.476 77 640.85 77 640.035C77 639.312 78.873 634.847 81.162 630.11C86.022 620.054 87.222 612.514 84.6 608.511C82.734 605.664 79.732 605.308 76 607.491ZM57.079 612.582C57.127 613.747 57.364 613.984 57.683 613.187C57.972 612.465 57.936 611.602 57.604 611.27C57.272 610.938 57.036 611.528 57.079 612.582ZM393.973 612.708C392.613 613.648 390.902 615.001 390.172 615.715C387.856 617.977 384.947 619.152 380.958 619.436C372.669 620.027 368.732 626.511 370.159 637.223C371.354 646.189 375.792 652.713 383.25 656.463C385.862 657.776 386 657.728 386 655.499C386 652.188 390.635 646.999 393.593 646.999C394.921 646.999 397.63 646.129 399.614 645.066C402.247 643.654 403.852 643.372 405.558 644.021C407.622 644.806 408.332 644.315 411.625 639.828C418.98 629.809 417.621 616.999 409.203 616.999C408.143 616.999 405.576 615.649 403.5 613.999C399.166 610.555 397.428 610.319 393.973 612.708ZM323.594 616.265C317.328 619.849 315.943 622.495 315.504 631.723C315.188 638.352 314.544 640.959 311.957 646.085C308.524 652.886 308.442 655.914 311.519 662.398C313.439 666.443 317.068 669.415 325.5 673.843C332.005 677.26 333.93 677.685 334.128 675.749C334.198 675.062 334.367 673.378 334.503 672.008C334.639 670.638 333.681 665.946 332.375 661.582C331.069 657.217 330.041 652.488 330.09 651.073C330.169 648.836 330.312 648.958 331.183 651.997C331.735 653.922 332.522 655.722 332.934 655.997C334.462 657.023 337 666.517 337 671.209C337 673.879 336.325 677.679 335.5 679.653C334.675 681.628 334 685.423 334 688.086C334 692.063 334.548 693.553 337.062 696.416C338.745 698.334 341.108 700.197 342.312 700.555C343.515 700.913 348.007 703.239 352.293 705.723C359.406 709.846 360.545 710.201 365.347 709.803C368.241 709.563 372.71 708.35 375.278 707.107L379.947 704.846L377.899 702.076C376.772 700.553 375.615 697.549 375.327 695.403L374.804 691.499L370.482 691.843C360.835 692.612 351.132 687.357 349.391 680.422C349.057 679.089 348.382 677.999 347.892 677.999C346.278 677.999 346.962 676.155 348.75 675.688C349.827 675.407 349.442 675.186 347.75 675.115C344.688 674.986 344.034 673.398 346.75 672.688C348.101 672.335 348.001 672.205 346.309 672.115C345.104 672.051 343.796 671.478 343.403 670.842C342.88 669.996 343.942 669.856 347.344 670.323C349.905 670.674 352 670.615 352 670.193C352 669.77 350.988 669.349 349.75 669.256C345.897 668.968 343 668.002 343 667.005C343 666.479 344.462 666.244 346.25 666.483C349.321 666.894 349.294 666.855 345.75 665.782C342.02 664.652 340.665 662.999 343.469 662.999C344.362 662.999 344.712 662.413 344.363 661.503C343.902 660.302 344.45 660.11 347.145 660.53C350.303 661.022 350.353 660.986 348 659.921C345.613 658.84 345.591 658.752 347.5 657.964C349.203 657.262 349.24 657.129 347.75 657.069C346.788 657.031 346 656.582 346 656.072C346 655.563 346.788 654.94 347.75 654.688C349.417 654.253 349.417 654.225 347.75 654.115C346.788 654.051 346 653.498 346 652.886C346 652.217 347.199 651.948 349 652.212C352.734 652.76 352.815 652.296 349.25 650.781L346.5 649.613L349.25 649.24C353.015 648.728 352.699 646.594 348.473 643.983C346.534 642.784 344.375 641.232 343.677 640.533C339.926 636.782 335.917 638.449 334.438 644.375C333.851 646.725 333.556 646.958 332.823 645.647C331.783 643.789 334.272 638.216 336.529 637.35C337.662 636.915 337.464 636.161 335.555 633.651C332.468 629.592 329 620.763 329 616.962C329 613.425 328.642 613.379 323.594 616.265ZM39.42 617.884C35.573 620.23 34.263 623.592 33.723 632.499C33.432 637.311 32.471 641.248 30.65 645.095C27.041 652.718 27.186 656.76 31.25 661.863C35.905 667.708 43.758 671.394 52.503 671.837L59.506 672.193L60.822 665.846C61.547 662.355 62.518 657.701 62.98 655.503C63.443 653.305 63.447 651.275 62.99 650.993C62.533 650.71 61.827 649.157 61.421 647.54C61.015 645.924 59.208 642.668 57.404 640.305C53.798 635.581 52.362 629.389 53.387 622.982C53.964 619.37 53.779 618.936 51.057 617.528C47.105 615.485 43.158 615.605 39.42 617.884ZM95.14 619.33L88.78 621.579L83.904 630.539C81.223 635.467 79.022 640.305 79.014 641.289C79.006 642.274 79.937 644.347 81.081 645.895C82.226 647.443 83.239 650.238 83.331 652.105C83.48 655.102 84.099 655.82 88.625 658.245C92.518 660.332 95.307 661.035 100.233 661.171C108.129 661.388 112.454 659.232 115.733 653.443C118.639 648.313 118.574 644.302 115.465 636.915C113.591 632.464 113.1 629.982 113.584 627.405C114.349 623.323 112.403 620.528 107.282 618.361C103.153 616.613 102.724 616.648 95.14 619.33ZM420 618.999C419.411 620.099 419.155 620.999 419.43 620.999C419.705 620.999 420.411 620.099 421 618.999C421.589 617.899 421.845 616.999 421.57 616.999C421.295 616.999 420.589 617.899 420 618.999ZM425.076 623.744C422.146 625.253 419.616 626.941 419.453 627.494C419.289 628.047 418.88 630.162 418.543 632.196C418.205 634.229 416.145 638.267 413.965 641.169C409.535 647.064 409.05 648.999 412 648.999C414.74 648.999 414.536 650.784 411.75 651.179C409.829 651.452 410.195 651.907 414.25 654.291C416.863 655.827 419 657.533 419 658.083C419 658.633 416.955 657.885 414.455 656.42C411.955 654.955 409.666 653.999 409.369 654.296C409.072 654.594 409.767 655.339 410.914 655.953C413.172 657.161 413.723 658.999 411.829 658.999C411.185 658.999 409.769 658.211 408.683 657.249C406.768 655.551 406.744 655.566 407.888 657.746C408.536 658.981 410.964 660.942 413.283 662.102C418.081 664.502 425 670.762 425 672.702C425 673.415 425.572 673.999 426.271 673.999C428.629 673.999 442.709 665.134 445.366 661.976C450.691 655.647 450.198 648.552 444.023 642.676C440.071 638.916 439.626 637.672 439.968 631.333C440.167 627.644 437.784 622.514 435.455 621.62C432.586 620.519 430.51 620.944 425.076 623.744ZM160.079 632.582C160.127 633.747 160.364 633.984 160.683 633.187C160.972 632.465 160.936 631.602 160.604 631.27C160.272 630.938 160.036 631.528 160.079 632.582ZM125.25 638.27C121.102 641.303 119.559 644.999 122.441 644.999C123.234 644.999 124.207 645.525 124.605 646.169C125.082 646.941 124.795 647.134 123.762 646.738C120.924 645.649 120.893 647.351 123.726 648.694L126.5 650.008L123.5 649.615C120.918 649.278 120.756 649.382 122.337 650.361C126.375 652.863 127.468 653.865 126.841 654.491C126.481 654.851 124.794 654.427 123.093 653.547C118.829 651.342 119.204 652.344 123.677 655.108C127.98 657.768 126.605 658.88 121.975 656.486C120.236 655.587 118.518 655.171 118.157 655.562C117.796 655.953 118.035 656.464 118.688 656.699C120.845 657.472 129.148 664.184 128.611 664.721C128.112 665.22 124.894 663.54 118.414 659.397C115.858 657.762 115.667 657.745 116.862 659.254C117.612 660.201 119.829 661.966 121.789 663.178C123.75 664.39 124.802 665.565 124.127 665.79C123.452 666.015 121.132 665.029 118.972 663.599C113.088 659.706 113.069 660.46 118.929 665.228C125.691 670.728 123.59 671.44 116.466 666.061C108.766 660.247 109.669 661.683 118 668.499C121.85 671.649 125 674.656 125 675.181C125 676.324 120.152 673.04 114.109 667.804C111.694 665.711 108.994 664.012 108.109 664.029C107.106 664.047 108.195 665.524 110.999 667.947C117.058 673.183 115.761 673.876 109.227 668.894C106.352 666.701 104 665.378 104 665.953C104 666.529 104.338 667.003 104.75 667.008C105.977 667.022 113.155 674.177 112.549 674.783C112.243 675.089 110.756 674.251 109.246 672.92L106.5 670.499L108.921 673.245C112.006 676.745 110.969 677.907 107.321 675.037L104.537 672.847L103.712 676.032C103.098 678.401 103.285 679.656 104.443 680.936C106.612 683.332 106.398 684.669 104.169 682.652C103.162 681.74 102.04 681.293 101.675 681.657C101.311 682.021 101.91 682.948 103.006 683.716C106.049 685.847 105.381 687.281 102.25 685.339C100.583 684.304 99.992 684.177 100.75 685.016C102.466 686.914 102.332 688.519 100.579 687.064C99.402 686.088 99.26 686.282 99.752 688.192C100.245 690.103 100.101 690.298 98.917 689.329C97.974 688.557 95.697 688.386 92.23 688.829L86.972 689.499L89.714 693.345C93.075 698.059 98.598 701.002 105.378 701.689C111.693 702.33 114.842 700.217 118.586 692.829C120.392 689.265 122.398 687.097 125.666 685.177C138.355 677.725 140.794 672.733 137.042 661.892C135.498 657.43 135.092 654.57 135.559 651.453C136.421 645.709 135.303 639.702 132.893 637.114C130.443 634.485 130.42 634.489 125.25 638.27ZM24.813 639.682C25.534 639.971 26.397 639.935 26.729 639.603C27.061 639.271 26.471 639.035 25.417 639.078C24.252 639.126 24.015 639.363 24.813 639.682ZM66.167 640.749C62.3 644.043 62.954 648.499 67.525 650.007C69.464 650.647 72.437 652.337 74.131 653.763C77.676 656.745 80.295 655.989 80.798 651.839C81.021 649.998 79.793 648.077 75.905 644.19C70.221 638.505 69.217 638.151 66.167 640.749ZM360.213 641.506C355.149 643.706 353.875 647.8 355.549 656.499C356.975 663.914 356.366 668.808 353.552 672.53C351.244 675.583 351.601 681.287 354.25 683.7C357.878 687.004 360.626 688.042 367.256 688.612C376.212 689.383 381.482 686.557 385.18 678.999C388.591 672.028 389.794 667.957 387.912 669.749C385.565 671.985 384.726 671.068 386.54 668.249C388.293 665.525 388.291 665.516 386.324 667.251C384.111 669.203 382.375 668.457 384.151 666.317C384.775 665.565 385 664.665 384.651 664.317C384.303 663.968 384.513 663.086 385.118 662.357C385.97 661.33 385.478 660.634 382.93 659.265C376.754 655.949 371.068 649.96 369.259 644.866C367.347 639.484 366.01 638.987 360.213 641.506ZM462 641.999C462 642.549 462.45 642.999 463 642.999C463.55 642.999 464 642.549 464 641.999C464 641.449 463.55 640.999 463 640.999C462.45 640.999 462 641.449 462 641.999ZM399.559 648.509C398.491 649.329 396.184 649.999 394.431 649.999C392.679 649.999 390.636 650.732 389.893 651.628C388.13 653.752 388.337 660.765 390.218 662.646C392.17 664.597 396.706 663.446 398.145 660.634C398.745 659.46 400.801 656.861 402.713 654.86C406.466 650.932 406.8 647.658 403.49 647.259C402.395 647.127 400.626 647.69 399.559 648.509ZM7.144 653.294C4.06 660.198 4.499 667.836 8.296 673.35C9.754 675.467 11.243 678.842 11.604 680.85C11.965 682.857 12.707 685.062 13.253 685.749C13.922 686.592 13.848 687.477 13.025 688.468C11.235 690.626 14.648 696.964 18.665 698.941C21.92 700.543 23 703.122 23 709.291C23 710.964 23.325 712.007 23.722 711.61C24.12 711.213 24.457 708.775 24.472 706.193C24.5 701.551 24.538 701.496 28 701.239C34.545 700.753 37.495 699.996 40.873 697.936L44.245 695.879L40.898 694.084C33.343 690.032 29.554 681.986 30.661 672.348C31.176 667.856 30.926 666.767 28.704 663.848C27.302 662.006 25.847 659.262 25.469 657.749C25.018 655.94 24.125 654.999 22.859 654.999C20.138 654.999 13.898 652.252 11.498 649.997C9.482 648.103 9.452 648.126 7.144 653.294ZM92.149 650.666C91.406 651.471 91.005 652.337 91.257 652.589C91.509 652.841 92.293 652.351 93 651.499C94.669 649.488 93.916 648.75 92.149 650.666ZM145.194 655.35L139.889 660.554L141.095 665.066C142.931 671.93 141.616 676.737 136.581 681.57L132.339 685.641L134.114 688.951C135.09 690.771 136.191 694.677 136.56 697.63C136.929 700.583 137.418 702.999 137.647 702.999C139.181 702.999 144.799 699.938 146.242 698.317C147.2 697.241 148.435 693.98 148.986 691.071C149.612 687.773 151.295 684.003 153.456 681.059C155.396 678.416 157.213 674.522 157.582 672.214C158.378 667.231 157.344 659.497 155.648 657.761C154.97 657.067 153.817 655.037 153.086 653.249C152.355 651.461 151.474 650.032 151.129 650.073C150.783 650.113 148.112 652.488 145.194 655.35ZM66 655.418C66 656.749 65.288 660.616 64.418 664.013C63.133 669.028 63.064 670.738 64.048 673.114C65.906 677.6 70.544 680.997 74.827 681.009C76.847 681.014 80.907 682.139 83.849 683.509C86.791 684.878 89.808 685.999 90.552 685.999C96.196 685.999 101 678.786 101 670.311V665.255L96.917 664.602C94.672 664.243 90.677 662.855 88.039 661.519C85.402 660.182 82.959 659.373 82.611 659.721C82.263 660.069 82.264 662.637 82.613 665.427C83.407 671.768 81.434 670.625 80.025 663.927C79.186 659.945 79.148 660.129 79.644 665.749C80.322 673.425 78.597 674.212 77.452 666.749L76.646 661.499L75.965 665.499C75.319 669.295 75.271 669.193 75.036 663.499C74.81 658.045 74.688 657.749 73.701 660.249C72.233 663.964 71.265 663.72 71.714 659.749L72.082 656.499L70.589 659.749C68.35 664.625 66.854 663.801 68.431 658.561C69.582 654.737 69.564 654.046 68.302 653.561C66.104 652.718 66 652.802 66 655.418ZM450.52 659.955C449.514 662.186 448.074 664.522 447.32 665.148C446.168 666.104 446.209 666.572 447.573 668.08C448.94 669.591 448.984 670.106 447.848 671.348C446.668 672.639 446.194 672.553 444.048 670.661C441.777 668.659 441.796 668.745 444.298 671.826C448.948 677.551 447.57 678.913 442.298 673.803C440.484 672.045 439 671.061 439 671.616C439 672.171 440.334 673.903 441.964 675.465C443.595 677.027 444.668 678.727 444.349 679.243C444.031 679.758 441.91 678.452 439.636 676.34L435.503 672.499L438.933 676.234C440.82 678.288 442.049 680.283 441.665 680.667C441.281 681.051 440.469 680.868 439.861 680.26C439.254 679.653 438.109 679.404 437.318 679.707C436.524 680.012 434.565 678.998 432.94 677.442C429.555 674.198 428.92 675.22 432.171 678.681C435.39 682.108 433.467 682.821 429.99 679.489C428.345 677.914 427 677.105 427 677.691C427 678.278 429.014 680.408 431.475 682.425C437.4 687.28 439.201 689.132 438.591 689.742C438.313 690.019 437.279 689.896 436.293 689.469C435.307 689.041 433.781 688.777 432.903 688.882C432.025 688.987 430.732 688.381 430.031 687.536C429.329 686.691 428.26 685.999 427.655 685.999C427.05 685.999 427.555 686.7 428.777 687.556C431.712 689.611 431.691 691.427 428.75 689.905C426.752 688.87 426.807 689.068 429.25 691.674C433.756 696.482 432.261 697.987 427.605 693.331C425.689 691.415 424.631 690.968 423.853 691.746C423.075 692.524 423.54 693.84 425.503 696.414C428.617 700.497 427.544 701.271 424 697.499C422.708 696.124 421.28 694.999 420.826 694.999C419.165 694.999 420.063 698.457 422.369 700.944C426.192 705.067 428.369 712.163 427.596 717.985C426.966 722.736 427.051 722.999 429.216 722.993C436.53 722.976 443.265 718.458 446.667 711.288C447.606 709.31 449.74 706.973 451.41 706.095C456.015 703.675 461.294 698.207 460.649 696.526C460.34 695.721 460.566 694.767 461.151 694.405C462.444 693.606 461.572 687.392 459.246 680.834C457.865 676.941 457.768 675.121 458.662 669.834C460.056 661.594 458.697 656.638 454.924 656.199C452.765 655.948 452.053 656.555 450.52 659.955ZM401.583 661.642C401.237 662.546 401.189 663.521 401.476 663.809C401.764 664.097 402 663.807 402 663.166C402 660.839 403.625 662.075 404.739 665.249C405.994 668.823 405.347 674.332 403.786 673.367C403.228 673.022 403.278 673.65 403.9 674.813C404.505 675.943 405 677.572 405 678.433C405 681.369 403.374 680.007 401.198 675.249C399.702 671.977 399.191 671.385 399.557 673.347C399.938 675.395 399.724 676.075 398.794 675.769C398.082 675.534 397.359 674.39 397.188 673.226C396.986 671.859 396.366 671.305 395.438 671.661C394.476 672.03 394 671.535 394 670.165C394 666.385 392.309 667.024 391.044 671.282C388.748 679.015 384.636 686.22 381.28 688.392C378.947 689.902 378.021 691.26 378.012 693.184C377.977 700.91 382.251 704.017 392.654 703.826C396.419 703.757 401.799 704.293 404.609 705.018C409.414 706.258 409.904 706.203 412.857 704.101C414.583 702.872 416.263 700.659 416.591 699.183C417.769 693.872 418.119 693.135 421.022 689.841C427.567 682.416 422.35 670.338 409.454 663.06C403.21 659.536 402.445 659.398 401.583 661.642ZM401.564 670.292C401.94 671.278 402.499 671.833 402.807 671.525C403.115 671.218 402.808 670.411 402.124 669.732C401.136 668.752 401.022 668.867 401.564 670.292ZM33.006 673.749C33.02 683.455 36.404 688.163 47.317 693.659C52.72 696.379 54.692 698.027 56.817 701.595C62.424 711.006 63.668 712.548 67.036 714.261C74.31 717.959 86.399 713.887 91.635 705.974L94.226 702.06L91.164 699.483C89.48 698.067 86.868 694.384 85.359 691.3C82.771 686.011 82.564 685.829 81.698 688.096C79.381 694.167 78.71 695.422 78.332 694.389C78.109 693.779 78.345 691.416 78.857 689.139C79.369 686.862 79.457 684.999 79.053 684.999C78.649 684.999 77.786 687.361 77.134 690.249C75.653 696.819 73.556 700.292 74.417 694.749C76.142 683.652 76.147 683.154 74.487 688.249C72.753 693.57 70.589 694.919 72.07 689.756C73.445 684.96 73.129 684.021 71.446 687.9C69.666 692 68.336 691.343 69.816 687.096C70.722 684.497 70.607 684.009 68.96 683.486C67.912 683.154 65.581 681.167 63.778 679.071C60.543 675.31 60.39 675.254 52 674.802C45.923 674.475 42.3 673.725 39.29 672.172C33.61 669.24 32.999 669.394 33.006 673.749ZM317.897 677.749C316.302 681.916 316.54 690.208 318.356 693.72C319.244 695.439 321.823 698.984 324.086 701.599C328.575 706.785 330.383 710.24 332.01 716.74C334.482 726.613 343.255 730.191 355.831 726.457C360.441 725.088 360.911 724.701 360.012 723.022C359.456 721.982 359 719.976 359 718.565C359 717.154 358.502 715.999 357.893 715.999C357.255 715.999 357.067 715.267 357.449 714.273C357.93 713.018 357.413 713.202 355.556 714.947C352.642 717.684 351.985 715.916 354.675 712.578C355.596 711.434 354.489 712.412 352.215 714.749C349.941 717.086 347.557 718.999 346.918 718.999C345.619 718.999 346.416 717.767 351.448 712.001L354.5 708.503L351.26 711.428C347.44 714.878 345.601 714.117 349.004 710.495C350.293 709.122 350.89 707.999 350.329 707.999C349.769 707.999 348.505 708.888 347.521 709.975C345.51 712.198 343.22 711.644 345.093 709.387C346.059 708.223 345.974 708.072 344.641 708.583C342.808 709.286 342.471 708.033 344 706.199C344.727 705.326 344.673 705.272 343.8 705.999C342.149 707.375 340.863 707.253 341.156 705.749C341.291 705.062 339.324 702.459 336.786 699.967C331.544 694.817 330.049 690.013 331.731 683.712C332.607 680.431 332.516 679.771 331.132 679.354C330.234 679.084 327.575 677.994 325.223 676.931C319.666 674.42 319.15 674.478 317.897 677.749ZM105.405 678.853C107.521 681.237 108 681.455 108 680.034C108 679.504 106.987 678.538 105.75 677.889C103.512 676.714 103.51 676.719 105.405 678.853ZM126.258 688.315C125.025 689 122.55 692.007 120.758 694.996C115.384 703.962 108.757 706.797 99.427 704.121C96.525 703.289 96.248 703.467 94.078 707.558C92.819 709.931 90.02 713.043 87.859 714.474C85.697 715.904 84.2 717.514 84.532 718.051C85.306 719.302 92.565 723.014 96.378 724.107C99.717 725.065 108 723.359 108 721.714C108 721.137 108.29 720.955 108.644 721.31C108.998 721.664 110.788 720.636 112.623 719.026C114.457 717.415 117.654 715.816 119.729 715.473C125.088 714.585 128.588 713.111 130.587 710.903C133.996 707.136 134.115 695.703 130.813 689.249C129.493 686.669 129.294 686.629 126.258 688.315ZM16.079 690.582C16.127 691.747 16.364 691.984 16.683 691.187C16.972 690.465 16.936 689.602 16.604 689.27C16.272 688.938 16.036 689.528 16.079 690.582ZM246.015 691.582C246.024 693.187 246.49 695.174 247.052 695.999C247.785 697.074 247.884 696.365 247.404 693.499C246.574 688.538 245.995 687.74 246.015 691.582ZM162.25 690.688C163.213 690.94 164.787 690.94 165.75 690.688C166.713 690.437 165.925 690.231 164 690.231C162.075 690.231 161.287 690.437 162.25 690.688ZM45.089 698.391C44.454 699.157 42.558 700.354 40.876 701.05L37.819 702.317L38.399 708.739C39.262 718.291 41.875 721.254 51.812 723.948C54.184 724.591 57.784 726.586 59.812 728.381C66.185 734.023 68.191 734.999 73.407 734.999C79.21 734.999 86.038 732.037 89.045 728.215L91.097 725.606L88.299 724.181C86.759 723.397 84.491 721.835 83.258 720.71C81.43 719.043 79.858 718.705 74.758 718.881C66.138 719.179 60.775 715.807 56.192 707.208C54.397 703.84 51.637 700.165 50.06 699.041C46.654 696.616 46.571 696.606 45.089 698.391ZM255.5 701.999C254.762 703.193 256.722 703.193 259.5 701.999C261.286 701.232 261.212 701.132 258.809 701.069C257.329 701.031 255.84 701.449 255.5 701.999ZM416.458 704.585C412.599 708.735 408.888 709.679 403.059 707.993C396.941 706.223 381.241 706.004 379.859 707.669C378.258 709.598 368.353 712.999 364.335 712.999H360.746L361.211 717.847C361.795 723.926 364.135 727.219 370.519 730.949C374.165 733.079 377.448 734.063 382.519 734.547C386.359 734.913 392.366 736.289 395.869 737.605C403.614 740.516 406.173 740.583 411.434 738.013C416.476 735.55 423.472 724.804 424.465 717.999C425.128 713.453 423.529 706.995 420.782 703.12C419.583 701.43 419.303 701.525 416.458 704.585ZM236.269 703.692C237.242 703.946 238.592 703.929 239.269 703.655C239.946 703.381 239.15 703.174 237.5 703.194C235.85 703.214 235.296 703.438 236.269 703.692ZM247 711.44C247 713.883 247.45 716.159 248 716.499C248.616 716.88 249 715.176 249 712.058C249 709.276 248.55 706.999 248 706.999C247.45 706.999 247 708.997 247 711.44ZM11 713.945C11 715.011 16.882 716.451 17.738 715.594C18.594 714.739 17.919 714.366 14.25 713.668C12.462 713.327 11 713.452 11 713.945ZM31.5 713.999C31.84 714.549 32.316 714.999 32.559 714.999C32.802 714.999 33 714.549 33 713.999C33 713.449 32.523 712.999 31.941 712.999C31.359 712.999 31.16 713.449 31.5 713.999ZM23 721.94C23 724.658 23.45 727.159 24 727.499C24.621 727.883 25 726.009 25 722.558C25 719.501 24.55 716.999 24 716.999C23.45 716.999 23 719.222 23 721.94ZM70.51 728.015C70.856 728.574 71.557 728.773 72.069 728.456C73.456 727.599 73.198 726.999 71.441 726.999C70.584 726.999 70.165 727.456 70.51 728.015ZM1.795 766.086C1.633 776.213 1.657 786.403 1.849 788.731C2.169 792.602 2.368 792.873 4.182 791.902C5.574 791.156 74.976 791.033 237.103 791.486L468.041 792.131L467.77 771.333L467.5 750.535L436.5 750.326C419.45 750.211 362.075 749.866 309 749.559C255.925 749.252 165.158 748.702 107.295 748.337L2.09 747.672L1.795 766.086ZM176 760.972C176 761.402 176.675 762.314 177.5 762.999C178.551 763.871 179 766.183 179 770.715C179 776.388 178.748 777.252 176.959 777.72C175.837 778.013 175.086 778.759 175.292 779.376C175.727 780.684 183.827 781.089 184.597 779.842C184.884 779.378 184.69 778.999 184.167 778.999C182.895 778.999 181.843 774.571 182.629 772.525C183.063 771.392 184.213 770.985 186.378 771.195C189.238 771.473 189.486 771.783 189.338 774.886C189.248 776.749 188.586 778.637 187.867 779.081C185.739 780.397 187.337 780.981 191.303 780.337C194.643 779.795 196.619 777.999 193.875 777.999C193.094 777.999 192.886 775.395 193.195 769.499L193.641 760.999H190.714C188.303 760.999 187.92 761.308 188.546 762.749C190.176 766.504 189.607 769.484 187.195 769.826C182.711 770.461 180.007 765.214 183.742 763.124C184.7 762.588 185.262 761.952 184.992 761.712C184.036 760.862 176 760.2 176 760.972ZM157.04 764.749L157.08 768.499L158.572 765.749C161.385 760.564 163 762.835 163 771.974C163 776.322 162.606 777.936 161.437 778.385C158.711 779.431 160.73 780.627 165.11 780.562C167.551 780.526 169.51 779.971 169.75 779.249C169.979 778.562 169.494 777.999 168.672 777.999C167.554 777.999 167.092 776.518 166.839 772.118C166.447 765.316 166.766 762.999 168.095 762.999C168.616 762.999 169.549 764.11 170.168 765.468C171.58 768.567 173 767.801 173 763.94V760.999H165H157L157.04 764.749ZM198 761.892C198 762.383 198.675 763.044 199.5 763.361C201.839 764.258 201.626 777.535 199.25 778.919C197.951 779.676 199.497 779.946 205.25 779.969C209.512 779.985 213.305 780.111 213.678 780.249C214.597 780.588 216.059 774.903 215.348 773.753C215.036 773.249 213.58 774.275 212.112 776.034C208.915 779.864 206.073 779.721 204.72 775.662C203.594 772.28 205.192 769.791 207.2 771.799C209.244 773.843 210.001 773.146 209.968 769.249C209.94 765.917 209.788 765.694 208.608 767.249C206.594 769.902 205 769.349 205 765.999C205 763.351 205.343 762.999 207.917 762.999C209.934 762.999 211.466 763.847 212.885 765.749C214.817 768.338 214.938 768.372 214.968 766.331C215.039 761.459 214.256 760.999 205.893 760.999C201.552 760.999 198 761.401 198 761.892ZM228.25 762.391C229.627 763.436 230 765.229 230 770.8C230 774.695 229.55 778.159 229 778.499C228.45 778.839 228 779.606 228 780.203C228 781.913 240.931 780.372 243.107 778.402C246.253 775.555 247.348 770.573 245.581 767.155C242.745 761.671 241.434 760.996 233.679 761.031C227.494 761.058 226.742 761.247 228.25 762.391ZM247 761.57C247 761.885 247.675 762.817 248.5 763.642C250.759 765.901 250.585 777.572 248.273 778.866C247.024 779.565 248.818 779.925 254.765 780.166C263.546 780.522 264 780.283 264 775.311V772.787L261.099 775.893C257.274 779.988 254.377 779.991 253.478 775.9C252.683 772.277 254.276 769.875 256.2 771.799C258.212 773.811 259 773.163 259 769.499C259 767.574 258.55 765.999 258 765.999C257.45 765.999 257 766.626 257 767.392C257 769.707 254.252 770.071 253.667 767.833C252.826 764.616 253.984 762.999 257.128 762.999C259.257 762.999 260.346 763.665 261.168 765.468C262.639 768.696 263.786 767.9 263.22 764.043L262.773 760.999H254.887C250.549 760.999 247 761.256 247 761.57ZM266 762.041C266 762.614 266.852 763.997 267.893 765.114C268.934 766.232 270.784 769.925 272.003 773.323C273.223 776.72 274.572 779.877 275 780.338C275.428 780.8 276.792 777.903 278.03 773.902C279.269 769.9 281.343 765.565 282.641 764.267C283.938 762.97 285 761.704 285 761.454C285 761.204 283.2 760.999 281 760.999C276.919 760.999 276.135 761.734 278.108 763.707C279.339 764.938 277.544 771.999 276 771.999C274.449 771.999 272.71 765.054 273.901 763.618C274.496 762.901 274.687 762.019 274.325 761.657C273.246 760.578 266 760.912 266 762.041ZM287 761.999C287 762.549 287.675 762.999 288.5 762.999C289.7 762.999 290 764.499 290 770.499C290 774.832 289.578 777.999 289 777.999C288.45 777.999 288 778.449 288 778.999C288 779.549 289.826 779.999 292.057 779.999C295.964 779.999 296.06 779.922 294.659 777.922C292.725 775.161 293.614 764.038 295.909 762.281C297.223 761.275 296.585 761.057 292.25 761.031C289.363 761.013 287 761.449 287 761.999ZM298.573 761.88C298.242 762.417 298.99 763.001 300.235 763.178C302.307 763.472 302.526 764.095 302.801 770.475C303.036 775.929 302.757 777.704 301.521 778.607C300.181 779.587 300.42 779.834 303.086 780.225C304.817 780.479 308.318 780.644 310.866 780.593L315.5 780.499L315.752 776.499L316.004 772.499L314.536 775.124C312.986 777.895 310.003 779.237 308.061 778.037C306.419 777.022 307.06 763.499 308.75 763.499C309.438 763.499 310.005 763.049 310.012 762.499C310.027 761.189 299.357 760.612 298.573 761.88ZM234.208 770.749C234.485 778.112 234.622 778.516 236.944 778.844C240.353 779.325 242 776.609 242 770.508C242 764.694 240.817 762.999 236.758 762.999H233.916L234.208 770.749Z" fill="black"/>
</svg>
